<svg xmlns="http://www.w3.org/2000/svg" xml:space="preserve" width="486.608" height="767.388" viewBox="0 0 128.748 203.038">
  <path d="M-111.166 397.33c-.514-.06-1.214-.42-1.557-.798-.585-.647-.663-.653-1.277-.097-.616.557-.697.546-1.387-.194-.566-.607-.967-.735-1.758-.561-.756.166-1.082.078-1.24-.332-.117-.307-.43-.558-.697-.558-.266 0-.743-.397-1.06-.882-.357-.543-.91-.882-1.443-.882-1.101 0-2.313-.638-2.042-1.076.114-.184-.064-.335-.395-.335-.91 0-6.095-4.398-5.678-4.816.405-.404-.495-1.161-1.829-1.538-.874-.247-1.589-.808-2.248-1.766-.532-.773-1.207-1.405-1.5-1.405-.292 0-.532-.158-.532-.352 0-.194-.12-.32-.265-.28-.28.077-2.557-1.983-2.557-2.314 0-.106-.5-.935-1.112-1.84-1.372-2.033-1.85-4.32-1.318-6.291.709-2.62.816-3.474 1.158-9.207a69.82 69.82 0 0 1 .545-5.116c.218-1.455.481-3.833.584-5.284.102-1.45.366-2.75.585-2.885.295-.182.288-.492-.028-1.185-.38-.836-.35-.96.285-1.125.75-.196.957-.97.359-1.339-.444-.274-.456-5.111-.015-5.809.205-.324.194-.677-.03-.947-.226-.273-.237-.665-.029-1.07.292-.57.526-2.525.478-3.992-.037-1.098-1.007-4.817-1.612-6.173l-1.256-2.823c-.345-.776-.747-1.808-.893-2.293-.146-.485-.364-.961-.483-1.058-.85-.692-4.665-9.349-4.789-10.87-.081-.996-.377-1.95-.92-2.968-.178-.335-.414-1.355-.523-2.267-.11-.91-.356-1.95-.548-2.308-.192-.358-.248-.814-.126-1.012.123-.199.065-.553-.129-.787-.193-.234-.356-.822-.36-1.307-.006-.485-.278-2.311-.606-4.057-.328-1.747-.57-3.937-.539-4.867.031-.93-.094-2.238-.278-2.905-.184-.668-.22-2.06-.08-3.092s.136-2.32-.008-2.86c-.145-.541-.126-1.344.041-1.785.168-.44.395-2.767.505-5.17.325-7.091.603-11.036.818-11.6a2.7 2.7 0 0 0 .142-1.059c-.057-.509.74-4.851 1.852-10.08.291-1.374.79-3.2 1.11-4.058.319-.858.626-2.286.683-3.173.057-.887.372-2.131.7-2.766.328-.634.51-1.377.405-1.65-.105-.274-.062-.498.095-.498s.497-.675.757-1.5c.26-.824.655-1.737.88-2.028.224-.29.928-1.878 1.563-3.527 1.423-3.694 3.01-6.973 3.838-7.926.343-.394.837-1.352 1.099-2.129.26-.776.573-1.49.694-1.587.12-.097.852-1.129 1.624-2.293 2.897-4.365 5.48-7.498 8.582-10.406 1.758-1.648 3.27-3.278 3.36-3.623.09-.345.654-.797 1.253-1.006.6-.21 1.09-.521 1.09-.694 0-.172.516-.557 1.146-.854.63-.298 2.1-1.163 3.263-1.924 1.165-.76 2.364-1.392 2.666-1.403.302-.012 1.087-.419 1.744-.904.658-.485 1.606-.882 2.107-.882.501 0 1.264-.247 1.695-.549 1.154-.809 4.17-1.595 6.781-1.768 4.06-.27 7.806-.343 7.992-.157.1.1 1 .208 2.003.241 1.003.033 2.617.32 3.587.639.97.318 3.034.878 4.586 1.246 4.464 1.055 7.646 1.964 9.173 2.618 1.516.65 3.332 1.261 5.743 1.931.83.23 1.416.57 1.302.755-.114.185.114.336.507.336.68 0 1.436.279 4.906 1.81.837.37 1.682.574 1.876.454.194-.12.44.115.547.522.107.408.4.741.653.741.252 0 .518.18.59.398.074.218.444.421.824.45.823.062 2.983 1.18 2.984 1.543 0 .14.755.724 1.676 1.297 1.684 1.046 7.496 6.58 7.496 7.137 0 .164.611.676 1.358 1.137.812.502 1.524 1.296 1.77 1.974.225.623 1.2 1.96 2.168 2.968.968 1.01 1.76 2.133 1.76 2.497 0 .364 1.11 2.872 2.469 5.573 1.358 2.701 2.47 5.165 2.47 5.474 0 .796.77 2.415 1.499 3.15.34.342.641.98.67 1.416.03.436.078.952.108 1.146.084.562.916 3.108 1.267 3.88.903 1.984 1.051 2.739.638 3.237-.337.406-.271.542.341.702.418.11.69.313.603.453-.087.14.008.876.21 1.636.202.76.528 2.016.725 2.792.196.776.5 1.687.675 2.024.176.337.319 1.211.319 1.943 0 .742.39 2.063.881 2.986a8.115 8.115 0 0 1 .942 3.525c.034 1.028.192 2.134.35 2.457.16.323.132 1.418-.06 2.433-.224 1.176-.228 1.992-.013 2.251.516.622.155 19.033-.5 25.42-.29 2.841-.121 8.98.265 9.589.145.229.101.517-.097.639s-.28.57-.183.994c.097.425.242 1.328.322 2.007.08.68.258 1.968.396 2.864.165 1.075.115 1.712-.146 1.874-.25.154-.282.464-.088.84.554 1.073.795 3.174.394 3.422-.209.13-.342.499-.296.821.145 1.003-.423 2.174-1.054 2.174-.332 0-.975.26-1.429.578-.454.318-1.402.639-2.107.713-4.199.442-4.28.472-4.28 1.602 0 1.093.892 3.008 1.697 3.643.35.276.372.6.092 1.336-.558 1.468.188 4.73 1.77 7.733.177.337.322 1.16.322 1.83 0 .669.164 1.647.364 2.174.2.526.52 3.275.71 6.108.518 7.733.708 9.682.986 10.08.265.38.261.96-.045 6.766-.133 2.512-.368 3.853-.786 4.492-.485.74-.525 1.116-.214 2.008.36 1.036.323 1.12-.67 1.494-.578.219-1.05.521-1.05.673 0 .151-.309.275-.685.275-.536 0-.708.287-.794 1.323-.101 1.222-.186 1.315-1.11 1.217-.55-.059-1.215.072-1.477.29-.263.217-1.398.396-2.522.396-1.124 0-2.276.187-2.559.415-.395.32-.456.32-.264 0 .394-.658-.453-.945-1.36-.46-.865.463-1.93.272-1.93-.347 0-.2.278-.382.617-.405.637-.042-1.52-.61-3.086-.812-.485-.063-.99-.135-1.123-.16-.133-.025-.342-.363-.465-.751a1.06 1.06 0 0 0-.994-.717c-.423-.006-1.386-.39-2.14-.853-.753-.463-1.59-.757-1.86-.653-.458.176-1.419-.588-4.131-3.286-1.439-1.43-3.046-3.26-3.046-3.468 0-.09-.397-.749-.882-1.464-.485-.714-.882-1.718-.882-2.23s-.225-1.252-.5-1.645c-.702-1.002-1.363-4.141-1.442-6.85-.037-1.262-.185-2.564-.328-2.894-.144-.33-.142-.794.005-1.03.184-.3.352-.196.549.335.552 1.494.898.73.846-1.866-.04-2.002-.207-2.802-.698-3.344-.478-.529-.546-.833-.263-1.174.428-.515.318-3.274-.29-7.314-.219-1.455-.454-4.565-.523-6.912-.068-2.346-.212-4.806-.32-5.468-.107-.66-.278-2.551-.38-4.2-.392-6.336-.58-7.408-1.498-8.498-.65-.772-.816-1.274-.647-1.95.126-.5.059-1.113-.149-1.364-.402-.484-.806-5.183-.857-9.972-.017-1.6-.126-2.91-.243-2.91-.117 0-.196-2.358-.176-5.238.038-5.58-.237-6.646-1.602-6.212-.448.142-.655.033-.655-.345 0-.304.136-.553.303-.553.167 0 .397-.913.512-2.029.278-2.7 1.015-3.323 3.732-3.16 1.088.065 2.753.466 3.7.89.946.424 1.938.771 2.204.771.267 0 .485.235.485.522 0 .288.397.623.882.744.485.122.882.408.882.635 0 .227.343.646.763.932.42.285 1.026.766 1.345 1.07.32.303.734.5.921.438.187-.063 1.05.717 1.918 1.732.869 1.015 2.556 2.827 3.75 4.026 1.193 1.2 2.273 2.506 2.399 2.902.126.397.52.814.878.927.357.114.843.672 1.078 1.242.45 1.085 1.38 2.07 1.457 1.542.024-.17.113-.705.196-1.19.55-3.198.855-22.615.385-24.516-.19-.775-.495-2.6-.676-4.057-.762-6.148-1.265-8.86-2.211-11.93-.28-.91-.782-2.606-1.115-3.77-.334-1.165-1.15-3.625-1.814-5.468-.664-1.844-1.342-3.878-1.505-4.521-.164-.644-.708-1.764-1.211-2.489-.503-.725-.914-1.494-.914-1.708 0-.639-1.871-4.091-2.73-5.037-.439-.483-.798-1.086-.798-1.34 0-.684-1.027-2.568-2.077-3.812-.507-.6-1.16-1.463-1.45-1.917-.853-1.333-2.17-2.46-2.874-2.46-.36 0-.654-.166-.654-.37 0-.565-1.86-2.075-2.57-2.088-.347-.006-1.036-.277-1.532-.602-.496-.325-1.321-.636-1.834-.69-1.271-.136-2.48-.825-2.708-1.544-.253-.797-1.602-1.375-2.712-1.163-.496.095-1.358-.062-1.916-.348-.559-.286-1.85-.633-2.868-.771-1.019-.138-1.852-.395-1.852-.57 0-.177-.282-.32-.627-.32-.345 0-.94-.217-1.323-.481-.842-.582-2.438-.904-5.347-1.08-1.2-.074-2.708-.302-3.351-.509-.67-.215-3.054-.322-5.58-.25-4.474.126-6.35.398-6.35.922 0 .66-1.195 1.44-1.925 1.256-.509-.127-1.36.2-2.532.971-.971.64-2.032 1.265-2.358 1.39-.326.126-.604.51-.618.856-.025.648-3.524 3.684-5.045 4.376-.471.215-1.133 1.004-1.471 1.754-.369.817-1.019 1.542-1.623 1.81-.555.245-1.008.688-1.008.985 0 .296-.454 1.09-1.009 1.766-.554.675-1.36 1.941-1.792 2.814-.431.873-1.15 1.905-1.598 2.293-.842.73-3.01 4.537-3.01 5.287 0 .234-.3.697-.668 1.03-.368.333-.758 1.032-.866 1.554-.707 3.392-.925 4.255-1.356 5.358-.265.68-.657 1.553-.87 1.94-.215.389-.508 1.257-.652 1.93-.145.672-.39 1.466-.546 1.763-.155.298-.441 1.614-.636 2.925-.195 1.311-.6 2.877-.9 3.48-.302.603-.651 1.912-.778 2.908s-.387 2.114-.579 2.485c-.415.804-.657 3.577-.65 7.44.004 1.552-.218 4.318-.492 6.147-.274 1.828-.396 3.489-.271 3.69.124.202.197.929.16 1.615-.063 1.19-.04 1.215.478.543.299-.388.625-1.103.726-1.588.1-.485.41-1.403.69-2.04.28-.637.508-1.626.508-2.196 0-.793.246-1.165 1.046-1.579.576-.297 1.41-.53 1.852-.518 3.361.093 3.886.195 4.361.844.436.596.502.607.502.089 0-.835.59-.743 1.579.245.463.462 1.33 1.058 1.928 1.322.598.265 1.18.775 1.294 1.133.114.36 1.065 1.503 2.113 2.543 1.048 1.04 1.93 2.175 1.959 2.523.095 1.115.137 1.331.334 1.691.106.194.408 1.067.672 1.94.263.873.59 1.747.728 1.94.68.96 2.465 5.705 2.384 6.336-.051.396.021.904.16 1.128.14.224.335 1.89.432 3.704.214 3.95.28 4.363 1.212 7.529.4 1.357.727 3.045.727 3.749 0 .705.254 1.89.565 2.633.31.743.59 2.152.621 3.13.031.978.181 1.972.333 2.21.152.238.361 1.27.466 2.293.104 1.024.343 2.268.53 2.766.21.562.215 1.231.013 1.764-.313.827-.114 3.506.569 7.654.168 1.02.216 1.944.108 2.053-.108.108-.23.702-.27 1.319-.04.617-.09 1.36-.11 1.65-.103 1.409.49 7.454.746 7.612.16.1.197.873.08 1.719-.115.846-.037 2.307.173 3.248 1.218 5.433 1.176 23.314-.082 34.518-.959 8.54-1.504 10.054-3.622 10.054-.472 0-1.209.358-1.636.795-.507.52-1.101.758-1.71.686zm50.146-48.93c0-.29.159-.53.353-.53.194 0 .352.239.352.53 0 .291-.158.53-.352.53-.194 0-.353-.239-.353-.53z" style="fill:#000;stroke-width:.352778" transform="translate(150.417 -194.304)"/>
</svg>
