<svg xmlns="http://www.w3.org/2000/svg" xml:space="preserve" width="439.636" height="465.441" viewBox="0 0 116.32 123.148">
  <path d="M-339.523 734.206c-.597-.555-.867-.611-1.387-.286-.672.42-1.732.218-1.732-.329 0-.173-.56-.315-1.246-.315-.782 0-1.321-.197-1.449-.529-.112-.291-.42-.53-.686-.53-.266 0-.751-.408-1.078-.907-.391-.597-.818-.85-1.243-.739-.855.224-2.406-.514-2.41-1.146 0-.275-.104-.398-.228-.274-.354.354-5.771-4.215-5.771-4.868 0-.435-1.04-1.268-2.018-1.617-.54-.192-1.448-.98-2.019-1.749-.57-.77-1.234-1.4-1.474-1.4-.977 0-3.856-3.302-5.28-6.056-.696-1.347-.774-4.056-.19-6.643.502-2.22.684-3.947.836-7.938.059-1.552.206-2.98.326-3.175.12-.194.41-2.416.646-4.939.236-2.522.525-4.744.643-4.938.117-.194.168-.79.112-1.324-.067-.634.094-1.046.462-1.188.427-.164.47-.332.174-.688-.285-.343-.289-1.7-.016-4.986.207-2.483.619-9.356.916-15.274.402-7.982.814-12.536 1.598-17.64 1.535-9.986 2.106-14.822 2.294-19.402.23-5.614.503-8.132.97-8.978.22-.398.486-1.438.592-2.31.106-.874.352-1.595.546-1.603.194-.008.94-.217 1.658-.463.96-.329 1.495-.346 2.021-.065.394.211 1.124.281 1.623.156.648-.163 1.037-.05 1.362.393.428.586.468.587.688.014.2-.521.468-.402 1.87.832.9.792 1.833 1.44 2.073 1.44s.62.44.842.979c.223.537 1.188 1.652 2.145 2.476 1.297 1.117 1.802 1.834 1.986 2.815.136.723.49 1.871.786 2.55.297.68.512 1.348.478 1.485-.033.138.39 1.25.94 2.47.55 1.22 1.174 2.695 1.387 3.277.392 1.071 1.092 6.522 1.088 8.467-.002.966.411 2.925 1.415 6.703.206.776.379 2.014.383 2.75.005.738.306 1.957.67 2.71.364.753.59 1.745.502 2.206-.088.46.09 1.804.397 2.986.306 1.182.556 2.653.556 3.268 0 .616.166 1.428.368 1.807.222.414.255 1.14.083 1.829-.322 1.292-.03 4.896.6 7.417.28 1.118.306 1.834.076 2.116-.447.55-.184 10.093.294 10.67.195.234.331 1.46.304 2.726-.027 1.265.033 2.437.133 2.603.592.977.96 18.882.53 25.703-.38 6.035-1.041 12.692-1.31 13.213-.156.3-.391 1.436-.523 2.525-.259 2.133-.638 2.516-2.934 2.967-.63.123-1.293.49-1.474.814-.451.807-2.006.77-2.905-.068zm72.037-19.424c-.428-.8-1.401-1.268-2.978-1.434-.368-.038-.89-.37-1.158-.738-.27-.368-.682-.686-.918-.707-1.03-.093-1.246-.184-2.016-.852-.902-.782-1.602-.9-1.955-.33-.347.562-6.544-5.902-7.855-8.194-.62-1.083-1.126-2.236-1.126-2.562 0-.327-.314-1.283-.697-2.124-.384-.842-.736-2.036-.783-2.654-.047-.617-.22-1.206-.383-1.307-.164-.101-.278-1.24-.254-2.53.024-1.291-.064-2.784-.196-3.318-.153-.622-.098-.97.155-.97.217 0 .394.238.394.53 0 .29.21.529.468.529.763 0 .428-4.897-.376-5.493-.518-.385-.55-.58-.19-1.17.457-.747.44-1.115-.413-8.683-.285-2.523-.49-5.063-.458-5.645.033-.582-.077-2.725-.245-4.762a1612.62 1612.62 0 0 1-.372-4.586c-.037-.485-.097-.962-.133-1.059-.036-.097-.129-1.208-.206-2.47-.207-3.392-.359-4.04-1.237-5.272-.56-.786-.74-1.416-.601-2.106.11-.548.013-1.168-.216-1.398-.228-.227-.456-1.477-.508-2.778-.052-1.3-.239-3.796-.416-5.547-.201-1.997-.196-3.335.015-3.592.214-.26.21-.488-.01-.624-.2-.123-.336-2.122-.322-4.706.034-6.19-.189-7.225-1.483-6.887-.483.127-.706.011-.706-.365 0-.302.139-.635.308-.739.169-.104.386-1.016.483-2.027.244-2.538 1.041-3.15 3.922-3.009 1.336.066 2.767.403 3.732.881.861.427 1.774.775 2.029.775.254 0 .463.236.463.523 0 .287.396.622.881.744.486.121.886.402.89.624.007.398 2.508 2.343 3.012 2.343.326 0 3.683 3.479 3.683 3.817 0 .136.489.643 1.085 1.126 2.129 1.722 2.346 1.95 2.924 3.072.321.625.878 1.293 1.237 1.485.858.46 4.466 7.905 5.568 11.49.477 1.552 1.957 6.156 3.288 10.23 1.331 4.075 2.665 8.838 2.964 10.584.3 1.746.868 4.188 1.264 5.426.396 1.238.72 2.475.72 2.749 0 .273.476 1.516 1.059 2.761.582 1.245 1.062 2.707 1.066 3.249.005.541.167 1.62.36 2.396.192.776.506 3.713.697 6.526.503 7.425.684 9.188 1.01 9.832.556 1.096-.055 10.06-.78 11.455-.376.722-.434 1.308-.209 2.093.172.6.276 1.117.23 1.149-.517.36-2.588 1.224-2.937 1.224-.27 0-.498.536-.563 1.323-.093 1.13-.237 1.33-.991 1.37-.485.027-1.632.204-2.549.394-.917.19-2.067.27-2.557.176-.523-.1-.891-.007-.891.223 0 .61-.956.465-1.205-.183-.205-.534-.268-.534-.859 0-.897.812-1.622.718-2.155-.278zm-20.476-28.735c0-.412.15-.749.332-.749.611 0 .725.621.194 1.062-.438.363-.526.31-.526-.313z" style="fill:#000;stroke-width:.352778" transform="translate(368.124 -611.71)"/>
</svg>
