<svg xmlns="http://www.w3.org/2000/svg" xml:space="preserve" width="572.185" height="863.232" viewBox="0 0 151.391 228.397">
  <path d="M37.423 221.035c1.074-2.04 1.572-4.989 1.525-9.025-.011-.944.373-2.626.853-3.738.48-1.113.863-2.513.851-3.113-.053-2.618.039-3.257.86-5.962.963-3.17 1.006-5.017.12-5.16-.87-.142 7.31-23.276 10.37-29.325 1.446-2.858 3.014-5.53 3.484-5.939.47-.408 1.788-2.365 2.93-4.348 1.142-1.983 2.796-4.33 3.676-5.217.88-.887 1.696-2.041 1.812-2.565.116-.525 1.734-2.226 3.596-3.78 1.862-1.555 3.993-3.634 4.737-4.62.868-1.15 1.379-1.451 1.424-.837.04.526-.27 1.254-.69 1.618-.418.364-.723 1.173-.676 1.799.138 1.853 7.123-5.08 7.835-7.777.46-1.74.735-2.06 1.648-1.923 1.159.174 1.685-.33 12.422-11.86 3.578-3.842 7.196-7.516 8.04-8.165.843-.648 3.907-3.594 6.808-6.547s5.84-5.94 6.532-6.636c.691-.697 1.366-1.438 1.499-1.647.133-.208 1.715-1.822 3.516-3.586 4.845-4.744 5.749-5.921 7.364-9.595 1.03-2.341 1.903-3.565 2.921-4.092.808-.419 1.684-1.428 1.973-2.273.286-.836 2.043-2.953 3.905-4.704 1.862-1.752 5.42-5.326 7.907-7.943 2.837-2.986 4.765-4.646 5.172-4.455.414.194.74-.098.896-.803.14-.638 2.992-3.468 6.713-6.663 8.915-7.655 10.363-9.49 9.642-12.212-.269-1.013-.143-1.7.397-2.17.435-.377.94-.457 1.12-.177.18.28 1.533-.331 3.004-1.358 3.696-2.58 4.72-1.407 5.04 5.766.148 3.327-.08 7.226-.592 10.169-.458 2.624-.794 5.278-.748 5.896.046.619-.255 1.419-.668 1.778-.414.359-.824 1.741-.911 3.072-.087 1.33-.419 2.654-.737 2.94-.572.516-2.918 9.021-2.826 10.246.059.793-4.34 13.296-4.826 13.719-.196.17-.837 1.99-1.423 4.043-2.094 7.324-2.382 8.135-3.892 10.941-.841 1.563-1.702 3.751-1.914 4.863-.505 2.658-10.566 20.73-15.525 27.887-2.148 3.099-8.504 12.447-14.127 20.773-5.622 8.326-12.234 17.52-14.692 20.429-2.459 2.91-5.87 7.342-7.58 9.852-1.709 2.509-3.43 4.842-3.824 5.184-.394.342-2.096 3.053-3.782 6.023-1.687 2.97-3.703 5.963-4.482 6.651-.778.69-2.3 2.428-3.383 3.867-1.081 1.439-5.25 5.872-9.265 9.851-10.593 10.503-13.097 13.147-13.965 14.744-1.476 2.72-14.486 12.437-16.625 12.419-1.106-.01-1.961.582-3.05 2.11-.832 1.168-1.557 2.065-1.61 1.995-.614-.807-2.23-4.76-2.294-5.606-.049-.655-.862-.539-2.005.286-1.645 1.186-1.957 1.085-2.153-.695-.126-1.146-.589-3.71-1.028-5.7-.44-1.99-.761-4.687-.715-5.994.049-1.394-.151-2.174-.483-1.885-.878.762-.842-1.741.045-3.155.732-1.166.72-1.32-.155-2.087-1.33-1.165-1.327-3.044.01-5.584zm37.643-85.655c.592-.515 1.104-.573 1.137-.13.111 1.485-.762 2.536-1.492 1.797-.601-.609-.542-.888.355-1.667z" style="fill:#fff;stroke-width:.680605" transform="translate(-36.418 -23.062)"/>
  <path d="M54.288 56.745c.625-.536.696-1.08.363-2.788-.43-2.207-.172-4.367.422-3.528.188.265.363-.822.39-2.417.029-1.82.263-2.774.628-2.561.32.186.59-.169.6-.787.01-.619.472-1.122 1.027-1.118.662.004.953-.6.848-1.76-.21-2.334.65-4.813 1.335-3.852.299.419.436.367.306-.112-.37-1.367 4.793-6.974 5.502-5.974.471.666 1.415-.478 1.83-2.22.23-.96 1.118-1.868 1.975-2.017.857-.15 1.565-.729 1.574-1.287.037-2.273 3.73-3.914 6.774-3.009 1.487.443 4.43 4.415 7.216 9.738 2.391 4.57 4.258 7.638 8.583 14.106 1.683 2.516 3.228 5.047 3.434 5.624.206.577 2.607 4.66 5.336 9.073 2.728 4.413 5.13 8.49 5.335 9.061.206.571.85 1.601 1.433 2.29a5.6 5.6 0 0 1 1.271 2.897c.162 1.245.343 1.6.74 1.459.384-.137 1.857 1.932 5.412 7.602 2.687 4.285 10.132 15.776 16.543 25.537 8.647 13.164 13.574 21.102 19.083 30.746 10.78 18.873 16.008 27.614 20.971 35.069 6.084 9.138 8.806 13.63 9.708 16.015.423 1.12 1.541 3.333 2.485 4.918.943 1.584 1.717 3.26 1.719 3.725 0 .463.199 2.52.439 4.568.32 2.74.32 4.01-.006 4.804-.244.593-.347 2.186-.23 3.539.152 1.758.015 2.49-.479 2.566-.651.099-.654.19-.04 1.58.558 1.264.418 1.706-.974 3.078-.894.881-1.633 2.06-1.642 2.618-.01.56-.501.767-1.093.461-.592-.305-1.838.233-2.769 1.198-1.261 1.306-2.058 1.385-3.13.31-.79-.794-2.05-1.73-2.797-2.08-.749-.35-1.482-.873-1.63-1.161-.148-.289-1.37-1.008-2.716-1.598-1.345-.59-2.97-1.396-3.61-1.793-1.176-.73-7.118-7.451-9.23-10.441-1.048-1.485-3.19-3.524-7.327-6.977-.85-.709-2.2-2.204-3-3.323-.8-1.117-2.135-2.284-2.966-2.591-.83-.307-1.917-1.303-2.413-2.214-.496-.91-1.962-2.554-3.256-3.652-1.295-1.098-2.9-2.768-3.568-3.711-.668-.943-1.556-1.803-1.974-1.912-.459-.118-1.248-1.154-1.988-2.609-1.39-2.73-5.313-7.574-8.073-9.968-1.224-1.061-2.002-2.1-2.3-3.067-.58-1.884-10.947-15.894-11.59-15.663-.262.093-1.598-1.469-2.97-3.471s-2.646-3.658-2.831-3.678c-1.083-.122-20.529-26.697-27.916-38.15-6.535-10.133-13.735-21.871-14.29-23.297-.32-.822-1.544-3.11-2.72-5.085-2.305-3.87-2.707-5.34-3.11-11.373-.11-1.654-.482-3.76-.827-4.68-.859-2.286-.76-5.849.183-6.658z" style="fill:#fff;stroke-width:.56707" transform="translate(-36.418 -23.062)"/>
</svg>
