<svg xmlns="http://www.w3.org/2000/svg" xml:space="preserve" width="3453.333" height="3973.333">
  <path d="M3038.67 3837.418c.064-1.554.38-1.87.806-.806.385.963.338 2.113-.105 2.556-.443.443-.759-.345-.7-1.75zm5.228.11c0-1.1.6-2 1.334-2 .733 0 1.333.9 1.333 2s-.6 2-1.333 2c-.734 0-1.334-.9-1.334-2zm37.439-.11c.064-1.553.38-1.869.806-.805.385.962.338 2.112-.106 2.555-.443.443-.758-.344-.7-1.75zm12.895-24.163c1.65-.318 4.35-.318 6 0 1.65.318.3.578-3 .578s-4.65-.26-3-.578zm-2.333-12.408c0-1.756 6.578-2.343 8.718-.778 1.656 1.211 1.01 1.53-3.332 1.644-2.962.077-5.386-.312-5.386-.866zm-213.334-25.318c0-.733.6-1.333 1.333-1.333.734 0 1.334.6 1.334 1.333s-.6 1.333-1.334 1.333c-.733 0-1.333-.6-1.333-1.333zm103.682-11.61c1.659-.319 4.059-.307 5.334.027 1.274.334-.083.595-3.016.58-2.933-.015-3.976-.288-2.318-.607zm141.652-1.723c0-.734.6-1.334 1.333-1.334s1.333.6 1.333 1.334c0 .733-.6 1.333-1.333 1.333s-1.333-.6-1.333-1.333zm-138.667-9.412c0-.777.6-1.042 1.333-.588.734.453 1.334 1.088 1.334 1.412 0 .323-.6.588-1.334.588-.733 0-1.333-.636-1.333-1.412zm132-15.334c0-1.143.6-1.708 1.333-1.254.734.453 1.334 1.388 1.334 2.078s-.6 1.255-1.334 1.255c-.733 0-1.333-.935-1.333-2.079zm-1500.667-35.254c-.453-.734-1.658-1.334-2.678-1.334-4.926 0-20.818-13.554-28.604-24.396-2.477-3.449-5.001-6.27-5.61-6.27-.61 0-1.108-1.2-1.108-2.667 0-1.467-.463-2.667-1.03-2.667s-2.217-2.234-3.667-4.964c-1.45-2.73-4.194-6.78-6.099-9-1.904-2.22-3.861-6.096-4.349-8.615-.487-2.518-1.672-5.518-2.632-6.667-2.037-2.434-10.271-27.572-10.243-31.266.02-2.583-2.15-11.426-3.963-16.154-1.69-4.405-3.786-15.458-4.677-24.667-.461-4.767-1.692-11.667-2.735-15.333-2.132-7.49-2.184-8.953-1.548-43.334.554-29.977 2.114-55.923 3.849-64 1.739-8.096 2.986-16.237 5.514-36 2.241-17.52 2.28-17.798 5.485-40 2.61-18.082 2.93-20.608 4.741-37.333.834-7.7 2.08-18.745 2.768-24.545.69-5.8 1.253-13.889 1.253-17.975 0-8.458 4.337-37.872 7.492-50.813 2.776-11.386 5.838-26.801 5.84-29.402 0-2.225-10.62-4.467-31.332-6.61-5.867-.608-15.146-1.803-20.621-2.656-5.475-.853-11.706-1.2-13.847-.772-2.141.428-6.062.198-8.713-.512-5.255-1.407-18.44-2.645-36.152-3.394-6.234-.264-15.834-.833-21.334-1.266-5.5-.432-10.9-.714-12-.625-3.092.247-72.78-.267-86.48-.638-6.703-.182-12.186.187-12.186.819 0 .632-1.21.503-2.687-.288-1.857-.994-4.183-1.024-7.541-.097-2.67.737-5.339 1.042-5.93.677-.59-.365-7.124-.936-14.52-1.27-7.397-.333-14.502-1.17-15.79-1.86-1.289-.69-3.07-.804-3.959-.255-.888.55-4.756.489-8.594-.134-3.839-.623-12.68-1.953-19.646-2.956-14.458-2.08-15.678-2.354-19.333-4.335-1.467-.794-7.467-2.663-13.334-4.152-5.866-1.49-13.966-4.483-18-6.652-4.033-2.17-9.426-4.4-11.983-4.959-6.395-1.395-20.113-7.299-23.35-10.048-1.467-1.246-4.457-2.69-6.646-3.21-2.188-.52-7.156-2.4-11.04-4.176-3.883-1.776-7.642-3.23-8.354-3.23-.711 0-1.293-.6-1.293-1.333s-.978-1.333-2.172-1.333c-1.195 0-4.43-1.95-7.189-4.333-9.31-8.043-11.9-10.071-16.449-12.883-2.494-1.54-7.019-5.498-10.056-8.793-3.038-3.295-6.07-5.991-6.739-5.991-.669 0-1.597-1.2-2.062-2.667-.466-1.466-1.317-2.666-1.891-2.666-1.098 0-20.927-19.326-30.195-29.427-6.59-7.184-18.63-22.476-23.927-30.392-2.141-3.2-4.618-6.096-5.503-6.436-.886-.34-2.573-2.821-3.749-5.515-1.176-2.693-4.373-7.728-7.103-11.188-4.682-5.931-10.627-16.257-13.652-23.71-.744-1.832-2.538-5.132-3.985-7.332-1.448-2.2-2.996-4.9-3.44-6-1.837-4.543-8.974-19.57-10.766-22.667-3.64-6.289-9.481-19.563-10.35-23.518-.478-2.176-2.347-6.876-4.154-10.445s-3.285-7.64-3.285-9.047c0-1.407-1.987-7.155-4.415-12.774-2.428-5.619-5.204-12.916-6.168-16.216-3.18-10.881-6.808-21.957-8.08-24.667-1.175-2.504-5.359-19.616-7.335-30-.488-2.566-1.422-6.466-2.075-8.666-4.337-14.616-5.212-17.83-5.99-22-.479-2.567-1.047-6.467-1.263-8.667-.543-5.544-2.956-17.268-5.34-25.957-1.1-4.01-2.008-10.31-2.017-14-.009-3.69-.869-9.914-1.911-13.831-1.043-3.917-1.571-7.967-1.175-9 .396-1.033.207-1.878-.422-1.878-.628.001-1.22-4.349-1.314-9.666-.095-5.317-.55-12.068-1.012-15.001-2.513-15.956-7.016-58.565-8.172-77.334-.97-15.738-4.173-44.167-5.934-52.666-1.23-5.93-2.445-14.095-6.146-41.267-1.043-7.663-2.497-14.533-3.23-15.266-.734-.734-1.338-2.864-1.341-4.734-.012-6.247-6.648-35.243-11.153-48.733-2.448-7.334-5.518-16.934-6.821-21.334-3.617-12.208-6.296-19.346-7.55-20.122-.625-.386-1.136-1.855-1.136-3.264 0-1.41-2.4-7.686-5.334-13.947-2.933-6.261-5.333-11.784-5.333-12.271 0-1.054-4.593-11.41-7.569-17.062-8.748-16.621-12.4-24.29-12.414-26.071-.009-1.139-1.741-4.439-3.849-7.333-2.107-2.895-4.294-6.763-4.859-8.596-.564-1.834-1.883-4.645-2.93-6.247-2.087-3.191-4.924-8.408-13.1-24.088-12.093-23.192-13.843-26.664-17.305-34.332-1.987-4.4-4.909-9.8-6.493-12-4.312-5.988-10.148-17.4-10.148-19.847 0-1.184-.525-2.153-1.167-2.153s-3.427-4.35-6.188-9.666c-12.992-25.012-16.762-32.65-18.066-36.601-.775-2.348-2.737-6.248-4.361-8.667-1.625-2.42-3.81-7.099-4.857-10.399-1.047-3.3-2.874-7.8-4.06-10-5.083-9.424-11.838-27.101-15.285-40-.98-3.667-3.584-11.767-5.785-18-5.456-15.45-8.26-24.536-10.49-34-3.459-14.67-4.183-17.295-6.436-23.333-1.231-3.3-3.032-10.8-4.003-16.667-2.255-13.633-4.45-22.327-6.045-23.933-.691-.697-1.257-3.597-1.257-6.445 0-2.848-1.12-9.778-2.491-15.4-2.728-11.194-4.36-19.013-7.556-36.222-1.158-6.233-3.217-15.233-4.576-20-1.359-4.767-2.885-12.867-3.393-18-.507-5.133-1.297-9.933-1.756-10.667-2.2-3.518-5.478-15.203-5.517-19.666-.024-2.75-.617-5-1.317-5s-1.666-2.25-2.147-5c-.48-2.75-2.862-11.3-5.292-19-2.43-7.7-4.84-16.08-5.356-18.623-.516-2.543-1.418-5.543-2.005-6.667-2.359-4.516-10.594-25.753-10.594-27.32 0-.923-2.935-7.613-6.522-14.867-7.125-14.408-10.865-22.67-13.517-29.857-.947-2.566-2.225-5.236-2.84-5.933-.617-.697-1.12-2.533-1.12-4.082 0-1.548-1.218-4.122-2.705-5.718-1.488-1.597-5.7-8.732-9.36-15.856-3.66-7.124-7.093-13.28-7.628-13.681-.908-.68-2.12-2.757-9.772-16.73-1.606-2.933-4.334-7.19-6.061-9.459-1.728-2.27-3.141-4.799-3.141-5.621 0-2.357-4.376-10.92-5.58-10.92-.598 0-1.087-.9-1.087-2s-.475-2-1.055-2-2.666-3.183-4.636-7.073c-1.97-3.89-5.948-9.714-8.841-12.943-2.893-3.228-5.186-6.857-5.095-8.063.19-2.535-8.943-20.639-12.405-24.587-1.286-1.467-3.911-6.148-5.834-10.404-1.922-4.255-4.09-7.369-4.817-6.92-.727.45-1.906-.719-2.62-2.596-.714-1.877-1.888-3.414-2.61-3.414s-2.05-2.462-2.953-5.472c-.901-3.01-2.425-5.774-3.386-6.142-.962-.37-1.748-1.394-1.748-2.277 0-.883-1.055-2.769-2.344-4.19-3.196-3.525-6.997-9.423-10.647-16.52-1.678-3.264-3.575-6.264-4.214-6.666-1.492-.939-9.011-12.944-11.108-17.733-.883-2.016-2.073-3.666-2.646-3.666-.572 0-1.04-.9-1.04-2s-.59-2-1.309-2c-.72 0-1.693-1.536-2.164-3.413-.544-2.165-1.528-3.155-2.692-2.709-1.253.481-1.836-.34-1.836-2.587 0-1.81-.619-3.291-1.375-3.291s-1.766-1.05-2.243-2.334c-.955-2.565-5.251-8.9-8.382-12.359-1.1-1.215-4.246-5.756-6.991-10.092-7.914-12.496-8.257-13.01-9.908-14.82-.861-.945-3.182-5.02-5.157-9.056-1.974-4.037-4.12-7.34-4.767-7.34-.647 0-1.177-1.086-1.177-2.415 0-1.328-1.05-3.607-2.333-5.064-3.656-4.151-7.2-10.73-19.198-35.646-1.358-2.82-2.469-6.796-2.469-8.837 0-2.041-.9-4.458-2-5.37-2.723-2.26-2.522-8.448.359-11.055 1.297-1.174 5.022-2.292 8.277-2.484 5.62-.331 11.89-4.22 11.018-6.832-.19-.57.56-1.385 1.667-1.81 1.854-.71 10.012-15.98 10.012-18.74 0-1.915 4.123-7.105 11.511-14.49 3.764-3.762 7.255-8.134 7.757-9.715.502-1.581 1.426-2.875 2.053-2.875 2.106 0 8.979-7.81 11.967-13.6 1.628-3.153 4.238-7.115 5.801-8.803 2.425-2.62 2.553-3.26.877-4.358-1.692-1.108-1.64-1.48.375-2.667 2.789-1.643 1.927-7.577-1.494-10.291-1.772-1.406-1.838-1.922-.364-2.833 1.256-.777 1.355-1.39.326-2.026-.811-.502-1.475-2.642-1.475-4.755s-.6-4.213-1.334-4.667c-.733-.453-1.333-2.535-1.333-4.626 0-2.092-1.157-7.52-2.57-12.062-1.414-4.543-2.202-9.247-1.751-10.453.72-1.922.537-1.961-1.478-.322-2.126 1.73-2.231 1.456-1.408-3.692.766-4.788.588-5.446-1.275-4.731-1.853.71-2.12-.198-1.852-6.308.208-4.752-.515-8.875-2.163-12.33-2.42-5.073-4.732-17.479-5.246-28.142-.141-2.934-.857-5.241-1.59-5.128-2.328.36-4.49-3.003-3.222-5.008.99-1.564 1.19-1.542 1.242.136.046 1.513.409 1.4 1.492-.462 1.025-1.764 1.014-2.879-.04-3.933-.81-.81-1.472-2.802-1.472-4.428 0-1.625-.728-3.198-1.616-3.494-.893-.297-2.056-4.376-2.599-9.111-.54-4.715-1.639-11.872-2.443-15.906-2.251-11.297-3.928-28.33-3.116-31.666.401-1.65.147-3-.566-3-2.005 0-3.488-16.208-3.233-35.334.377-28.239-1.028-50-3.228-50-2.674 0-2.3-2.32.8-4.976 2.419-2.07 2.667-3.933 2.667-19.987 0-13.867.386-17.703 1.779-17.703 1.216 0 1.816-2.003 1.898-6.334.103-5.467.88-14.944 1.47-17.948.103-.521 1.281-2.021 2.62-3.333 1.68-1.649 3.144-6.913 4.739-17.052 1.269-8.067 3.075-15.867 4.013-17.333 3.38-5.28 4.989-11.736 3.202-12.84-1.178-.728-.899-1.303.984-2.024 3.593-1.376 7.354-6.081 6.59-8.245-.345-.976.273-3.06 1.372-4.63 1.1-1.57 2-4.5 2-6.512 0-2.011 1.8-6.495 4-9.964 2.2-3.47 4-7.39 4-8.713 0-1.323.554-2.406 1.23-2.406.677 0 1.917-2.083 2.758-4.629 2.66-8.06 10.814-21.36 14.989-24.446 1.296-.959 2.357-2.863 2.357-4.231 0-1.37 2.141-5.295 4.76-8.725 2.617-3.43 4.845-7.375 4.95-8.769.104-1.393.604-2.533 1.11-2.533.505 0 1.526-1.743 2.27-3.874.742-2.131 2.6-4.271 4.13-4.757 1.529-.485 2.78-1.975 2.78-3.31s2.57-5.045 5.71-8.243c3.141-3.199 7.128-8.816 8.861-12.483 1.733-3.666 3.414-5.913 3.737-4.991.322.92 1.136 1.334 1.809.919.727-.45.669-1.792-.145-3.312-1.106-2.067-.977-2.406.674-1.772 2.019.774 12.687-8.527 12.687-11.062 0-.66 3.599-4.76 7.998-9.113 5.674-5.615 7.779-8.605 7.243-10.292-.485-1.53-.07-2.377 1.168-2.377 2.767 0 11.59-8.446 11.59-11.094 0-1.232.53-2.239 1.177-2.239 1.795 0 13.038-11.02 13.943-13.667.438-1.283 2.016-2.333 3.506-2.333 1.518 0 2.708-.879 2.708-2 0-1.1.634-2 1.409-2 1.91 0 9.258-8.173 9.258-10.297 0-.937 1.218-1.703 2.708-1.703 1.499 0 5.59-2.976 9.167-6.667 3.553-3.666 6.92-6.666 7.481-6.666 1.477 0 8.644-7.729 8.644-9.322 0-.74 1.136-1.345 2.524-1.345 2.117 0 4.75-3.317 4.138-5.216-.097-.302 1.664-1.323 3.914-2.269 2.25-.946 4.09-2.649 4.09-3.784 0-1.135.808-2.064 1.794-2.064s2.88-1.2 4.207-2.667c1.327-1.467 3.496-2.667 4.82-2.667 1.324 0 3.181-.932 4.127-2.072 3.726-4.492 10.138-10.67 12.531-12.073 1.387-.813 2.535-2.313 2.551-3.333.018-1.06 1.082-1.672 2.487-1.428 1.431.249 4.235-1.42 6.719-4 5.847-6.072 20.288-17.094 22.397-17.094.95 0 2.475-1.2 3.391-2.666.916-1.467 2.54-2.667 3.608-2.667s2.584-1.2 3.369-2.667c.784-1.466 2.484-2.666 3.776-2.666 1.292 0 4.693-2.4 7.557-5.334 2.864-2.933 5.965-5.333 6.89-5.333.926 0 2.334-1.217 3.13-2.704.796-1.487 1.954-2.39 2.574-2.008.62.383 1.438-.115 1.818-1.106.38-.992 2.544-2.173 4.807-2.626 2.438-.488 4.114-1.65 4.114-2.856 0-1.118.527-2.033 1.17-2.033 1.335 0 8.549-3.24 13.497-6.06 2.954-1.685 3.03-1.904.667-1.929-2.168-.023-1.953-.4 1.152-2.02 2.1-1.095 4.586-1.991 5.524-1.991.938 0 2.04-.876 2.452-1.946.41-1.07 3.662-3.424 7.226-5.23 3.564-1.805 7.233-4.191 8.155-5.301.921-1.11 3.533-2.427 5.804-2.926 4.497-.987 4.557-1.025 12.353-7.89 2.934-2.582 6.264-4.697 7.401-4.701 3.346-.01 9.244-3.2 9.255-5.006.005-.917.943-1.667 2.082-1.667 1.138 0 4.278-1.5 6.976-3.333 2.698-1.834 5.936-3.334 7.196-3.334 1.26 0 2.903-1.05 3.65-2.333 1.076-1.846 1.376-1.916 1.442-.333.066 1.58.473 1.485 1.942-.454 1.023-1.35 3.712-3.45 5.977-4.667 5.504-2.958 17.277-8.858 21.413-10.731 1.833-.83 5.133-2.685 7.333-4.12 5.212-3.4 12.508-6.695 14.83-6.695 1.01 0 1.837-.547 1.837-1.216 0-.669 2.396-1.621 5.326-2.116 2.93-.495 5.689-1.487 6.132-2.204 1.463-2.368 33.794-16.49 40.07-17.504 1.36-.22 6.58-2.352 11.6-4.739 5.02-2.386 10.857-4.685 12.97-5.107 2.113-.423 4.529-1.596 5.368-2.608.84-1.012 2.423-1.84 3.518-1.84 1.095 0 4.771-.905 8.17-2.013 3.398-1.107 10.979-3.463 16.846-5.236 5.866-1.772 12.652-4.228 15.08-5.457 2.427-1.23 6.927-2.55 10-2.935 3.072-.385 10.986-2.482 17.586-4.66 6.6-2.178 15.116-4.067 18.924-4.198 3.808-.13 7.358-.671 7.889-1.202.53-.53 1.973-.965 3.205-.965 2.666 0 10.954-3.915 12.179-5.753.475-.713 2.14-.962 3.699-.555 1.56.408 5.07.124 7.803-.631 2.732-.755 10.368-2.144 16.968-3.085 6.6-.941 15.6-2.623 20-3.737 14.68-3.717 23.827-5.46 28.933-5.517 2.782-.03 5.06-.72 5.063-1.53 0-.845 3.851-1.853 9.004-2.357 4.95-.485 10.2-1.125 11.667-1.423 1.466-.298 4.316-.587 6.333-.643 2.017-.056 3.672-.852 3.678-1.769.01-1.152 3.14-1.786 10.137-2.053 5.57-.212 13.514-1.332 17.655-2.489 4.142-1.157 11.678-2.607 16.749-3.223 5.07-.616 9.57-1.595 10-2.177.43-.582 2.28-1.136 4.114-1.23 8.83-.457 20-2.329 20-3.351 0-.63 1.68-1.144 3.734-1.144 2.053 0 4.303-.566 5-1.259.696-.692 6.366-1.668 12.6-2.167 6.233-.5 19.133-2.954 28.666-5.454 9.534-2.5 19.734-4.786 22.667-5.08 2.933-.295 9.833-1.199 15.333-2.01 5.5-.81 11.5-1.502 13.334-1.536 1.833-.034 3.933-.527 4.666-1.094 2.066-1.6 8.971-3.16 12.679-2.865 1.84.146 6.916-.665 11.28-1.801 4.364-1.137 9.909-2.067 12.321-2.067 2.413 0 4.387-.492 4.387-1.093 0-1.346 20.694-4.998 25.456-4.493 1.9.202 4.195-.523 5.097-1.611.903-1.088 2.451-1.667 3.44-1.288.99.38 3.093-.003 4.674-.849 1.582-.846 5.379-1.752 8.438-2.013 15.12-1.29 55.369-9.23 59.115-11.662.854-.554 5.354-1.336 10-1.737 4.645-.401 13.847-1.931 20.447-3.4 6.6-1.469 14.467-3.212 17.483-3.875 3.016-.662 7.726-.84 10.467-.395 2.74.444 5.373.241 5.85-.451.476-.693 5.066-2.06 10.2-3.038 5.133-.978 9.932-2.128 10.665-2.554.733-.427 3.013-.6 5.068-.384 2.054.215 4.484-.231 5.401-.992.917-.761 6.562-1.69 12.543-2.066 5.982-.374 14.951-1.628 19.933-2.785 4.98-1.158 15.282-2.696 22.89-3.419 7.61-.723 15.057-1.968 16.551-2.768 1.494-.8 8.169-1.42 14.833-1.378 6.663.042 14.816-.474 18.116-1.146 3.3-.673 11.1-1.523 17.333-1.89 30.877-1.819 35.831-2.12 42.19-2.565 3.771-.264 7.521-.891 8.333-1.393 3.144-1.943 89.97-3.348 106.102-1.717 4.988.504 8.616.258 9.72-.658 1.225-1.017 8.754-1.182 24.709-.54 12.62.506 36.096 1.232 52.169 1.613 16.073.38 30.283 1.26 31.58 1.953 1.295.693 3.744 1.251 5.443 1.24 2.482-.016 2.695-.273 1.087-1.313-1.558-1.007-1.19-1.297 1.667-1.313 3.735-.02 5.022 1.93 2 3.032-.917.334 4.033.592 11 .572 22.186-.062 46.863 1.546 48.833 3.181 1.219 1.012 4.727 1.303 9.966.828 7.777-.705 13.065-.194 31.868 3.082 4.766.83 15.566 2.033 24 2.673 8.433.64 17.313 1.43 19.733 1.759l16 2.163c6.38.862 13.1 1.918 14.933 2.347 1.834.43 3.831.666 4.44.526 3.052-.7 24.505 3.11 26.332 4.677 1.252 1.075 5.302 1.812 10 1.821 4.342.008 10.616.84 13.941 1.85 3.326 1.01 10.072 1.896 14.993 1.97 4.92.073 10 .67 11.287 1.327 6.602 3.367 16.765 6.408 19.298 5.774.526-.132 5.626.721 11.333 1.896 5.707 1.175 12.176 2.343 14.376 2.595 5.608.644 22.181 5.197 25.623 7.039 1.578.844 4.747 1.535 7.044 1.535 2.296 0 5.378.644 6.849 1.43 2.334 1.25 14.812 4.947 19.446 5.762.895.157 2.045.703 2.555 1.213.51.51 2.177.954 3.705.986 1.528.033 5.178.983 8.111 2.113 2.934 1.13 8.566 2.624 12.517 3.322 3.95.697 8.681 2.447 10.513 3.888 1.831 1.44 4.9 2.616 6.817 2.612 3.085-.005 11.7 2.384 19.487 5.406 5.625 2.183 21.364 9.781 22 10.621.366.485 3.66 1.623 7.318 2.53 3.658.907 10.25 3.404 14.647 5.55 4.397 2.145 8.68 3.9 9.518 3.9.838 0 2.238.861 3.112 1.914.874 1.053 3.354 2.302 5.51 2.776 4.285.94 11.406 4.15 14.562 6.563 1.1.84 4.4 2.34 7.333 3.332s8.633 3.966 12.667 6.61c4.033 2.642 10.483 6.258 14.333 8.033 3.85 1.775 7 3.725 7 4.333 0 .608 1.5 1.106 3.333 1.106 2.035 0 3.333.759 3.333 1.948 0 1.118 2.133 2.538 5 3.33 2.75.758 7.652 3.782 10.893 6.717 3.241 2.936 7.049 5.338 8.461 5.338 3.452 0 9.918 3.723 15.626 8.998 2.578 2.382 5.887 4.709 7.354 5.17 1.466.463 5.464 3.314 8.883 6.336 14.805 13.087 20.123 17.573 22.218 18.74 1.228.684 3.986 2.992 6.13 5.13 2.144 2.136 7.244 6.326 11.334 9.311 4.09 2.985 9.596 7.577 12.238 10.204 2.641 2.628 7.835 7.549 11.541 10.936 3.707 3.386 7.65 7.886 8.762 10 1.113 2.113 5.22 6.85 9.125 10.528 3.906 3.677 8.673 8.777 10.592 11.333 1.92 2.556 5.656 7.047 8.302 9.98 2.647 2.934 4.827 5.963 4.844 6.732.017.769 2.43 3.896 5.364 6.949 2.933 3.052 5.333 6.074 5.333 6.715s2.55 3.852 5.667 7.135c10.376 10.932 13.634 15.17 17.667 22.984 2.2 4.263 5.999 10.094 8.442 12.958 2.444 2.863 4.983 7.154 5.644 9.534.66 2.38 2.646 5.88 4.412 7.779 1.766 1.898 4.26 5.498 5.542 8 1.283 2.501 2.763 4.848 3.29 5.215 1.595 1.108 8.942 17.827 9.994 22.741.541 2.526 1.446 5.192 2.011 5.925.95 1.233 5.974 13.24 12.272 29.334 4.028 10.293 8.837 25.438 9.839 30.988.498 2.756 1.54 6.212 2.317 7.678.777 1.467 1.84 7.467 2.363 13.334.522 5.866 1.834 14.266 2.914 18.666s2.667 12.5 3.527 18c1.7 10.875 4.67 22.361 7.411 28.667 2.863 6.584 5.827 18.044 7.415 28.667.823 5.5 2.055 13.6 2.74 18 .683 4.4 1.737 14.3 2.341 22 .605 7.7 2.001 16.1 3.104 18.666 1.102 2.567 2.424 8.567 2.936 13.334.512 4.766 1.764 11.366 2.782 14.666 1.018 3.3 2.491 11.038 3.275 17.194.783 6.157 1.955 11.857 2.605 12.667.65.81 2.139 8.073 3.31 16.14 2.168 14.941 4.903 32.347 8.277 52.666 1.035 6.233 2.782 19.914 3.882 30.402 1.1 10.487 2.605 20.198 3.344 21.579.74 1.38 1.35 4.5 1.359 6.931.013 2.432.908 7.367 2 10.967 1.092 3.6 2 9.3 2.017 12.666.017 3.367.59 8.522 1.273 11.455.683 2.933 1.609 11.033 2.058 18 .448 6.967 1.697 18.795 2.774 26.285 1.077 7.49 1.8 17.99 1.607 23.333-.193 5.344.071 20.055.586 32.693.698 17.142.432 27.05-1.049 39.011-1.091 8.819-2.218 22.479-2.503 30.356-.648 17.926-1.888 31.423-3.522 38.322-.695 2.933-1.873 14.633-2.619 26-2.068 31.535-4.19 49.413-9.255 78-.65 3.667-1.797 10.567-2.55 15.333-.754 4.767-2.902 17.067-4.773 27.334-1.872 10.266-4.307 24.066-5.412 30.666-1.106 6.6-2.614 15.3-3.352 19.334-.738 4.033-1.934 14.533-2.656 23.333-.723 8.8-2.261 24.4-3.419 34.667-1.157 10.266-2.07 20.166-2.026 22 .043 1.833-.804 9.333-1.882 16.666-1.079 7.334-2.243 19.442-2.588 26.907-.344 7.465-.977 14.97-1.405 16.677-.429 1.707-1.058 9.1-1.398 16.427-1.099 23.651-3.002 46.306-5.152 61.323-3.686 25.748-5.01 47.07-5.258 84.666-.137 20.899-.796 37.527-1.53 38.667-.71 1.1-1.754 7.1-2.322 13.333-2.795 30.709-3.405 35.816-5.021 42-.959 3.667-2.485 7.867-3.393 9.334-.907 1.466-2.063 4.766-2.568 7.333-.967 4.912-17.399 55.058-21.408 65.333-1.288 3.3-3.52 7.314-4.961 8.92-1.441 1.605-3.414 6.105-4.383 10-3.391 13.623-10.613 28.71-15.973 33.371-1.807 1.572-3.285 3.522-3.285 4.335 0 .812-1.135 3.703-2.522 6.423-1.386 2.72-2.927 6.564-3.424 8.542-.496 1.979-2.604 5.536-4.684 7.904-2.08 2.37-4.212 6.268-4.739 8.664-.526 2.396-1.783 5.184-2.794 6.194-1.01 1.01-1.837 3.222-1.837 4.913 0 1.69-.9 3.821-2 4.734-1.1.913-2 2.812-2 4.22 0 1.407-1.8 6.408-4 11.114-2.2 4.705-4 9.217-4 10.027 0 3.19-4.582 15.482-6.89 18.486-1.344 1.749-2.444 4.429-2.444 5.955 0 3.273-3.736 13.743-6.243 17.495-.966 1.447-1.757 3.547-1.758 4.667 0 1.12-2.1 4.395-4.666 7.279-2.566 2.883-4.666 6.305-4.666 7.604 0 3.506-2.965 9.578-5.646 11.562-1.295.959-2.357 2.459-2.361 3.334-.02 3.977-2.883 11.222-5.637 14.257-1.663 1.834-4.502 6.634-6.309 10.667-3.571 7.972-11.166 20.643-14.179 23.656-1.037 1.037-2.582 3.189-3.432 4.781-2.107 3.945-12.897 17.85-18.284 23.563-2.42 2.567-5.938 7.067-7.817 10-3.77 5.884-10.408 14.448-17.628 22.738-10.849 12.459-12.04 13.968-12.04 15.25 0 .74-.56 1.345-1.244 1.345-.684 0-1.59 1.05-2.013 2.334-.714 2.168-3.958 6.287-12.064 15.32-1.803 2.009-4.485 6.018-5.96 8.909-1.474 2.891-3.34 5.663-4.144 6.16-1.653 1.022-8.63 11.676-14.037 21.432-1.985 3.582-4.036 6.812-4.558 7.179-1.886 1.324-30.647 60.05-30.647 62.577 0 .6-1.53 4.553-3.402 8.784-1.872 4.231-4.651 11.356-6.177 15.833-1.526 4.476-3.34 8.854-4.03 9.728-1.304 1.651-5.99 19.744-6.87 26.528-.277 2.136-.848 4.783-1.269 5.883-2.072 5.417-6.235 22.83-7.014 29.333-.483 4.034-1.615 8.534-2.516 10-.902 1.467-2.029 6.041-2.506 10.166-.476 4.124-1.766 9.224-2.866 11.333-1.1 2.11-2.004 4.751-2.008 5.871 0 1.12-.845 3.232-1.868 4.692-1.023 1.46-3.414 9.107-5.315 16.994-1.9 7.887-4.423 16.21-5.606 18.497-2.006 3.88-4.525 16.224-7.166 35.114-.615 4.4-1.745 9.601-2.512 11.558-2.44 6.233-2.65 79.214-.239 83.718.714 1.334 1.67 8.941 2.122 16.904.454 7.963 1.089 14.905 1.412 15.428.323.522 1.117 4.724 1.766 9.338.648 4.613 1.86 10.787 2.694 13.72.834 2.934 2.06 8.934 2.722 13.334.663 4.4 2.106 12.5 3.207 18s2.026 12.877 2.055 16.394c.06 7.267 3.756 32.245 5.366 36.273 1.35 3.375 5.145 22.54 6.805 34.367 1.347 9.597.919 15.664-5.245 74.3-.733 6.966-1.006 14.307-.607 16.312.524 2.635.108 3.883-1.499 4.5-3 1.151-8.767 12.81-8.767 17.723 0 4.957-1.63 8.684-6.759 15.464-2.22 2.934-6.034 8.334-8.478 12-5.205 7.81-17.159 20.46-22.502 23.811-2.056 1.29-4.097 3.36-4.535 4.6-.829 2.345-9.006 10.888-12.47 13.028-1.093.676-3.036 2.878-4.319 4.895-1.283 2.016-3.26 3.666-4.394 3.666-2.286 0-12.386 6.598-15.094 9.86-2.23 2.689-9.157 6.14-12.32 6.14-1.355 0-2.463.602-2.463 1.337 0 1.96-15.892 13.33-18.633 13.33-1.287 0-3.915 1.239-5.84 2.753-1.926 1.515-4.097 2.385-4.826 1.935-.729-.45-3.454 1.31-6.057 3.913-4.483 4.483-13.745 9.95-20.294 11.978-1.641.508-7.859 4.224-13.816 8.258-5.958 4.033-11.632 7.027-12.61 6.651-.978-.375-3.16.776-4.85 2.559-1.69 1.782-4.019 3.25-5.175 3.263-1.155.013-3.447 1.457-5.093 3.209s-4.697 3.526-6.782 3.943c-2.084.417-5.314 2.283-7.179 4.148-2.197 2.197-4.869 3.39-7.592 3.39-2.894 0-5.018 1.038-6.824 3.333-1.478 1.88-4 3.334-5.78 3.334-1.737 0-3.5.554-3.919 1.231-.419.677-3.904 2.266-7.745 3.53-3.842 1.264-7.285 2.725-7.651 3.246-.367.52-3.634 2.25-7.26 3.843-3.627 1.593-8.427 4.248-10.667 5.9-2.24 1.651-8.273 4.434-13.407 6.183-5.133 1.75-11.029 4.58-13.102 6.29-2.073 1.71-5.13 3.11-6.795 3.11-3.594 0-10.984 3.486-12.42 5.858-1.13 1.869-10.25 5.248-22.264 8.25-4.352 1.087-8.556 2.51-9.341 3.161-2.479 2.057-23.364 5.703-27.849 4.862-3.27-.613-4.823-.19-6.504 1.773-1.595 1.864-3.528 2.457-6.966 2.137-2.617-.243-4.759.083-4.759.724 0 2.052-72.581 1.964-79.333-.096-2.2-.671-10.3-1.88-18-2.687-7.7-.807-16.1-1.99-18.667-2.63-12.253-3.055-19.82-4.287-21.176-3.448-2.232 1.38-1.797 5.952.89 9.37 4.259 5.413 14.265 34.409 15.665 45.393.468 3.667 1.664 9.067 2.659 12 .995 2.933 2.42 13.455 3.168 23.382.762 10.124 2.26 20.204 3.41 22.957 1.128 2.7 2.05 6.278 2.048 7.952 0 4.162 3.813 20.53 6.309 27.042 1.124 2.934 2.822 9.234 3.774 14 .951 4.767 2.312 11.067 3.024 14 .712 2.934 1.94 8.334 2.73 12 .79 3.667 2.682 12.367 4.204 19.334 1.522 6.966 3.658 17.766 4.748 24 1.09 6.233 2.518 12.533 3.174 14 1.313 2.938 2.183 7.337 4.218 21.333.746 5.133 3.12 15.033 5.276 22 2.555 8.258 3.912 15.51 3.9 20.837-.014 4.494.883 10.334 1.988 12.977 2.863 6.854 4.126 41.193 1.992 54.186-.903 5.5-1.93 12.826-2.28 16.28-.484 4.772-1.706 7.412-5.09 11-3.978 4.217-5.183 4.72-11.319 4.72-4.929 0-6.696-.47-6.259-1.667.334-.916-.506-2.895-1.868-4.397-2.595-2.861-7.203-14.853-9.198-23.936-.645-2.933-2.32-7.733-3.724-10.667-1.404-2.933-3.28-10.133-4.168-16-1.18-7.795-2.809-12.64-6.052-18-2.44-4.033-5.234-10.783-6.21-15-.974-4.216-2.163-7.666-2.64-7.666-.478 0-1.64-1.95-2.584-4.334-.943-2.383-2.473-5.233-3.4-6.333-1.836-2.179-1.875-2.337-1.875-7.555 0-1.956-.391-3.165-.869-2.687-1.319 1.319-4.465-5.568-4.465-9.775 0-3.298-11.204-27.447-14.658-31.593-.738-.886-1.342-3.021-1.342-4.745 0-1.725-.88-4.3-1.957-5.723-1.077-1.424-1.977-4.13-2-6.013-.08-6.388-3.967-16.677-8.013-21.21-3.447-3.86-4.03-5.572-4.03-11.834 0-5.012-.713-8.11-2.26-9.82-1.243-1.373-2.458-3.794-2.7-5.38-.242-1.585-.948-3.208-1.568-3.607-.62-.399-1.47-2.825-1.888-5.391-.419-2.567-1.663-8.267-2.765-12.667a1485.8 1485.8 0 0 1-4.2-17.333 1872.096 1872.096 0 0 0-3.34-14c-2.738-11.131-4.173-18.638-5.354-28-3.104-24.611-4.69-32.257-8.088-38.982-.644-1.274-1.17-7.384-1.17-13.58s-.639-12.946-1.42-15c-.781-2.055-2.037-8.844-2.79-15.087-1.46-12.102-4.028-23.42-6.242-27.515-.744-1.377-1.645-3.467-2.002-4.645-.631-2.084-6.376-3.624-16.88-4.524-2.566-.22-7.898-1.06-11.848-1.867-3.95-.807-9.307-1.467-11.905-1.467-2.598 0-6.566-.567-8.818-1.26-4.705-1.446-19.67-3.865-29.428-4.756-3.667-.335-10.567-1.24-15.334-2.01-4.766-.77-10.781-1.588-13.366-1.818-5.281-.47-14.53-3.23-16.785-5.008-.816-.645-4.416-1.393-8-1.664-5.888-.445-16.115-3.095-24.245-6.283-1.684-.66-5-1.2-7.37-1.2-2.369 0-5.49-.82-6.937-1.821-2.538-1.757-18.243-6.18-21.943-6.18-.996 0-2.858-.948-4.138-2.106-1.83-1.657-2.92-1.79-5.105-.62-1.527.818-2.777.938-2.777.268 0-1.313-5.52-3.898-10.247-4.8-1.602-.305-4.113-1.197-5.58-1.982-1.465-.785-4.677-1.427-7.137-1.427s-6.85-1.231-9.754-2.736c-2.905-1.506-6.903-2.958-8.885-3.228-6.955-.95-24.423-5.063-26.862-6.326-2.787-1.444-27.843-5.18-28.738-4.285-.32.32-1.66-.395-2.979-1.589-1.437-1.3-3.562-1.865-5.305-1.41-1.648.432-5.1-.357-7.97-1.822-3.106-1.584-5.381-2.072-5.883-1.26-1.063 1.72-6.928 1.714-7.994-.013-.453-.734-3.177-1.334-6.053-1.334-4.588 0-5.344.45-6.167 3.667-1.493 5.837-1.098 17.106 1.204 34.333 1.88 14.079 2.093 31.674.693 57.334-.08 1.466.558 11.366 1.418 22 .86 10.633 1.874 31.966 2.253 47.407.38 15.44 1.264 30.076 1.966 32.523.702 2.447 1.007 4.884.678 5.416-.329.532.564 9.897 1.983 20.81 1.42 10.914 2.646 25.244 2.726 31.844.08 6.6.19 14.4.243 17.333.054 2.933-.437 16.433-1.09 30-1.393 28.952-1.41 66.554-.034 73.667 1.038 5.36 3.881 6.623 6.007 2.666.69-1.283 4.045-5.033 7.457-8.333 3.411-3.3 7.318-8.1 8.681-10.667 3.256-6.131 11.214-14.666 13.675-14.666 1.071 0 3.006 1.17 4.3 2.6 2.196 2.427 2.239 3.967.634 23-.946 11.22-1.771 22.8-1.834 25.733-.063 2.933-1.23 7.733-2.593 10.667-3.139 6.758-4.665 24.016-4.749 53.695-.064 22.692-.116 23.107-3.636 28.426-2.348 3.548-4.326 5.2-5.772 4.823-1.21-.317-3.317.241-4.683 1.24-2.896 2.118-9.446 2.415-10.64.482zm472.667-462.83c0-1.034.515-1.076 1.667-.136 3.695 3.018 38.29-.272 53.666-5.104 4.4-1.382 11.467-2.917 15.704-3.41 4.238-.493 8.023-1.412 8.412-2.042.39-.63 2.437-1.145 4.55-1.145 2.114 0 4.214-.6 4.668-1.333.453-.734 2.795-1.334 5.205-1.334 2.688 0 5.314-1.03 6.795-2.666 1.506-1.665 4.106-2.667 6.92-2.667 2.479 0 5.973-.961 7.766-2.136 1.793-1.174 5.755-2.696 8.804-3.381 3.05-.685 8.67-2.724 12.49-4.531 3.819-1.807 8.565-3.285 10.546-3.285 1.981 0 6-1.158 8.928-2.574 2.93-1.415 7.25-2.989 9.603-3.497 2.352-.509 7.106-2.35 10.565-4.094 3.459-1.743 7.24-3.169 8.402-3.169 1.163 0 4.333-1.142 7.045-2.538 2.712-1.396 8.23-3.601 12.264-4.9 4.033-1.3 9.849-3.759 12.923-5.463 3.075-1.704 6.642-3.099 7.927-3.099 1.286 0 3.874-1.472 5.751-3.27 1.878-1.8 13.011-8.179 24.74-14.176 11.73-5.998 21.626-11.276 21.992-11.73.908-1.122 11.991-6.429 15.534-7.437 1.577-.448 6.6-3.228 11.162-6.177 4.562-2.948 10.622-6.292 13.466-7.43 2.844-1.138 5.172-2.555 5.172-3.15 0-.593 2.25-2.459 5-4.145 2.75-1.687 5.6-3.546 6.333-4.133 4.433-3.544 13.51-9.945 16.233-11.446 1.756-.97 6.697-5.17 10.982-9.334 11.034-10.726 19.411-18.997 23.438-23.14 3.61-3.716 13.136-24.523 14.686-32.08.49-2.394 1.963-7.952 3.27-12.352 3.297-11.084 5.872-36.543 4.992-49.333-.403-5.867-1.935-19.067-3.404-29.333-1.468-10.267-3.335-23.767-4.148-30-1.338-10.263-4.135-29.215-6.098-41.334-4.084-25.202-5.028-40.731-5.149-84.666-.151-55.145.894-69.4 9.143-124.667 1.04-6.967 2.53-17.74 3.312-23.94.782-6.2 2.019-11.87 2.749-12.6.73-.73 1.327-4.057 1.327-7.394 0-5.536.879-10.38 5.453-30.066.852-3.667 1.983-6.967 2.515-7.333 1.537-1.061 3.08-11.995 2.841-20.139-.155-5.286.377-7.966 1.82-9.163 1.12-.93 2.038-3.797 2.038-6.37 0-2.574 1.155-6.551 2.566-8.838 1.411-2.286 3.299-7.157 4.195-10.824.895-3.666 2.44-8.287 3.434-10.267.992-1.98 1.805-4.997 1.805-6.703 0-1.707.814-4.286 1.81-5.733.995-1.447 3.173-7.13 4.839-12.63 3.085-10.184 5.515-15.499 9.684-21.18 1.284-1.749 2.334-4.572 2.334-6.275 0-1.702 1.679-5.97 3.732-9.486 2.052-3.516 4.584-8.484 5.625-11.04 2.51-6.164 18.518-36.141 20.657-38.686.925-1.1 3.28-5 5.234-8.666 7.038-13.207 24.25-38 26.38-38 .57 0 1.038-.785 1.038-1.743 0-1.667 3.888-6.942 10.334-14.02 1.65-1.811 3-3.73 3-4.265 0-1.08 15.614-21.176 23.969-30.85 2.95-3.416 5.364-6.609 5.364-7.095 0-.487.75-1.675 1.667-2.641.916-.967 2.866-3.448 4.333-5.514 1.467-2.066 4.767-5.963 7.333-8.66 2.567-2.697 7.325-9.173 10.573-14.391 3.249-5.218 6.399-9.488 7-9.488.602 0 1.094-.573 1.094-1.274 0-1.19 5.113-9.567 7.85-12.864 1.31-1.575 7.834-14.151 11.375-21.923 1.184-2.6 3.942-6.686 6.128-9.08 3.637-3.982 8.978-14.036 11.164-21.016.486-1.554 2.069-3.897 3.517-5.207s2.633-3.94 2.634-5.843c.001-1.903 2.401-6.916 5.334-11.14 2.932-4.225 5.331-8.314 5.331-9.088 0-2.452 9.03-21.062 13.264-27.335 2.238-3.317 4.07-6.827 4.07-7.8 0-.974.9-2.517 2-3.43 1.1-.913 2-3.105 2-4.872 0-1.766.9-3.557 2-3.98 1.1-.421 2-1.788 2-3.036s1.954-5.534 4.342-9.524c2.39-3.99 6.313-11.455 8.72-16.588 2.407-5.133 5.245-10.833 6.306-12.667 1.06-1.833 3.18-6.033 4.71-9.333 1.53-3.3 4.898-10.5 7.484-16 2.587-5.5 5.022-11.95 5.411-14.333.39-2.384 1.184-4.334 1.764-4.334.58 0 1.785-2.25 2.676-5 .89-2.75 2.682-7.4 3.98-10.333 3.54-8.002 10.007-31.383 13.46-48.667 2.983-14.932 3.068-17.48 3.23-97.333.09-45.1.81-90.1 1.597-100 .787-9.9 1.445-19.8 1.461-22 .04-5.48.976-24.306 1.887-38 .8-12.005 1.228-15.5 3.595-29.333.816-4.767 2.032-17.067 2.704-27.334.67-10.266 1.832-21.066 2.581-24 .749-2.933 1.376-8.137 1.393-11.565.017-3.427.609-9.127 1.314-12.666.704-3.54 1.948-11.834 2.763-18.433.814-6.6 2.584-16.5 3.933-22 2.181-8.9 6.403-29.686 9.48-46.67.597-3.3 1.958-10.5 3.024-16s2.846-14.8 3.957-20.666c1.11-5.866 2.359-11.566 2.775-12.666.415-1.1 1.348-5.9 2.072-10.667.724-4.767 2.5-15.267 3.947-23.333 1.446-8.067 3.3-21.567 4.118-30 .818-8.434 2.055-18.334 2.747-22 .692-3.667 1.873-12.967 2.625-20.667.751-7.7 1.916-18.2 2.589-23.333.672-5.134 1.648-27.737 2.168-50.23.92-39.815.46-51.89-3.649-95.77-.721-7.7-1.6-17.3-1.953-21.334-.353-4.033-1.24-12.133-1.973-18a3237.953 3237.953 0 0 1-2.652-22c-.725-6.233-2.184-16.733-3.241-23.333-1.057-6.6-2.903-19.8-4.101-29.333-1.199-9.534-3.277-24.534-4.618-33.334-2.582-16.946-4.675-32.584-5.978-44.666-.435-4.034-1.685-11.534-2.778-16.667-1.092-5.133-2.57-14.133-3.283-20-.713-5.867-1.867-13.667-2.564-17.333-.697-3.667-1.637-9.367-2.09-12.667-.451-3.3-1.474-7.723-2.273-9.83-1.43-3.771-1.565-3.814-8.89-2.84-4.09.544-12.537 1.195-18.77 1.446-6.234.251-15.322.996-20.197 1.654-4.875.659-11.274.956-14.22.662-2.947-.295-5.744.089-6.216.853-.472.763-4.714 1.388-9.427 1.388-4.713 0-11.128.575-14.255 1.278-10.975 2.466-29.814 5.42-43.019 6.743-12.437 1.247-18.45 2.047-40.666 5.411-4.767.722-11.835 1.513-15.707 1.758-3.872.245-7.384.79-7.804 1.21-.42.42-2.14.24-3.823-.4-1.682-.64-3.352-.87-3.71-.51-.36.358-9.271.945-19.805 1.304-10.533.359-25.151 1.572-32.485 2.697-12.917 1.98-43.024 5.455-58 6.694-12.614 1.043-20.367 1.787-29.374 2.818-21.253 2.434-93.108.331-110.626-3.236-18.684-3.805-32.188-7.921-42.827-13.054-3.853-1.859-7.511-3.38-8.13-3.38-.619 0-5.156-2.284-10.084-5.076-4.927-2.792-13.636-6.782-19.352-8.867-9.847-3.591-11.168-3.746-25.156-2.946-11.573.663-16.242 1.537-21.607 4.048-7.698 3.603-15.361 6.175-18.398 6.175-1.118 0-2.992 1.06-4.164 2.355-1.172 1.295-6.081 4.445-10.91 7-12.665 6.702-12.898 6.846-19.424 12.089-3.271 2.627-8.043 5.61-10.605 6.63-2.561 1.018-6.761 3.75-9.333 6.07-4.692 4.232-13.393 9.943-23.343 15.32-2.933 1.586-5.813 3.705-6.4 4.71-.586 1.004-1.883 1.826-2.881 1.826-.999 0-3.45 1.95-5.45 4.333-1.997 2.384-8.2 8.13-13.784 12.772-5.584 4.64-11.952 10.213-14.152 12.383-2.2 2.17-5.966 5.873-8.369 8.229-8.055 7.896-31.618 34.416-32.767 36.877-.624 1.34-2.591 3.098-4.37 3.909-1.78.81-3.63 2.503-4.113 3.76-1.045 2.724-5.065 7.618-9.84 11.98-1.903 1.74-7.303 8.033-12 13.986-4.697 5.954-13.276 15.688-19.063 21.631-5.788 5.944-14.667 15.757-19.733 21.807-5.066 6.05-10.109 11-11.207 11-1.097 0-3.017 1.796-4.266 3.991-1.25 2.196-2.981 3.996-3.849 4-.867 0-1.988 1.304-2.49 2.888-1.077 3.394-19.044 22.454-21.167 22.454-.802 0-2.281 1.35-3.287 3-6.464 10.6-69.313 73.735-76.651 77-.824.367-2.697 1.67-4.163 2.896a5007.514 5007.514 0 0 1-11.998 9.954c-5.133 4.248-10.233 8.66-11.333 9.801-1.1 1.143-3.5 2.818-5.334 3.724-5.503 2.719-12.498 7.066-15.333 9.53-1.467 1.273-8.487 5.124-15.601 8.557-11.038 5.326-14.263 6.283-22 6.53-13.011.415-24.142-1.402-27.175-4.435-3.402-3.402-3.236-4.674 1.11-8.471 2.016-1.763 8.166-7.162 13.666-12 5.5-4.836 13.827-11.934 18.504-15.773 4.677-3.839 13.403-11.78 19.39-17.646 5.989-5.867 13.644-13.067 17.012-16a8411 8411 0 0 0 9.276-8.089c1.733-1.515 4.152-3.915 5.375-5.333 1.222-1.418 6.315-6.478 11.316-11.245 5-4.767 10.6-10.507 12.443-12.756 1.843-2.249 6.775-7.949 10.96-12.666 4.185-4.718 11.001-13.078 15.147-18.578 4.145-5.5 8.326-10.455 9.291-11.01.965-.557 4.91-5.357 8.769-10.667 3.858-5.311 7.653-10.344 8.432-11.184.78-.84 2.918-3.471 4.752-5.847a295.084 295.084 0 0 1 7-8.65c2.016-2.38 3.666-4.769 3.666-5.309s1.65-2.925 3.667-5.3c6.657-7.842 8.333-10.053 8.333-10.994 0-.512 2.744-3.45 6.097-6.529 5.403-4.96 17.903-22.062 17.903-24.494 0-.506 1.95-2.767 4.334-5.022 2.383-2.256 5.833-5.957 7.666-8.223 1.834-2.267 4.95-5.687 6.925-7.6 1.976-1.913 5.276-5.957 7.334-8.987 7.672-11.295 12.166-16.658 19.278-23.001 4.017-3.584 8.934-8.739 10.926-11.455 1.992-2.716 5.996-6.273 8.898-7.904 2.902-1.63 5.586-3.941 5.965-5.133.838-2.64 10.97-13.358 12.629-13.358 1.662 0 9.664-7.924 12.453-12.333 1.276-2.017 3.471-3.667 4.878-3.667 1.406 0 2.921-.59 3.367-1.31.445-.721 4.875-3.94 9.843-7.154s11.89-8.62 15.382-12.014c3.492-3.394 8.398-7.143 10.902-8.332 2.505-1.188 4.554-2.68 4.554-3.315 0-.634 2.25-2.314 5-3.732 2.75-1.417 6.2-3.702 7.666-5.076 1.467-1.374 4.767-3.343 7.334-4.374 2.566-1.031 4.966-2.29 5.333-2.8 1.845-2.56 25.71-14.637 36.667-18.555 4.4-1.573 9.2-3.392 10.666-4.04 7.589-3.358 32.603-7.397 42.502-6.863 2.843.153 5.99-.403 6.992-1.235 1.082-.898 3.319-1.129 5.499-.568 2.02.52 7.874 1.428 13.007 2.018 10.339 1.188 13.499 1.792 21.334 4.082 2.933.858 6.879 1.694 8.768 1.859 1.89.165 3.99.629 4.667 1.03.677.403 3.155 1.145 5.507 1.65 2.352.503 6.593 2.035 9.424 3.403 2.83 1.368 6.606 2.805 8.39 3.195 1.784.39 9.733 2.255 17.664 4.145 7.932 1.89 18.89 3.681 24.355 3.98 5.463.298 10.462.868 11.107 1.267 1.154.713 41.656 2.573 50.784 2.331 7.2-.19 42.08-1.615 54-2.206 10.255-.509 28.873-2.234 45-4.171 5.506-.662 7.667-.48 7.667.646 0 1.079.726 1.178 2.333.318 1.284-.687 6.834-1.33 12.334-1.43 5.5-.1 21.1-.436 34.666-.746 13.567-.31 27.067-.488 30-.395 2.934.094 6.834.058 8.667-.08 1.833-.138 16.276-.51 32.095-.829 15.819-.318 31.119-1.064 34-1.658 3.998-.824 56.423-1.22 78.905-.596 1.65.046 5.25.013 8-.073s10.773.533 17.829 1.375c15.164 1.81 38.144 2.392 39.529 1.002 1.518-1.525.66-15.17-1.558-24.749-1.104-4.766-3.04-13.646-4.303-19.732-1.263-6.086-2.792-11.371-3.397-11.745-.605-.374-1.1-3.367-1.1-6.65 0-11.949-16.015-79.609-22.693-95.873-.602-1.466-2.008-5.366-3.124-8.666-5.968-17.646-6.947-19.997-16.224-38.95-3.127-6.388-6.864-13.113-8.304-14.945-1.441-1.831-3.427-5.278-4.414-7.66-.986-2.382-2.854-5.392-4.15-6.688-1.296-1.296-2.77-4.005-3.276-6.02-.506-2.016-1.964-4.581-3.24-5.701-1.276-1.12-3.793-4.736-5.594-8.036-1.8-3.3-5.908-9.809-9.128-14.464-3.22-4.654-7.468-10.954-9.441-14-1.974-3.045-4.674-6.775-6-8.288-1.327-1.514-3.012-3.692-3.745-4.84-4.093-6.414-11.486-16.329-19.192-25.742-10.342-12.632-62.833-65.21-69.884-70-2.698-1.833-4.91-3.71-4.916-4.17 0-.462-3.459-3.46-7.675-6.664-4.217-3.204-8.147-6.577-8.733-7.496-.587-.918-1.903-1.67-2.925-1.67-1.022 0-2.642-1.103-3.6-2.452-.958-1.349-3.9-3.899-6.538-5.667-2.638-1.768-10.046-6.814-16.462-11.214s-13.677-9.2-16.134-10.667a6424.398 6424.398 0 0 0-15.268-9.054c-5.94-3.513-11.135-7.263-11.546-8.333-.41-1.07-1.852-1.946-3.203-1.946-1.352 0-5.125-1.8-8.384-4-3.26-2.2-6.55-4-7.313-4-1.276 0-31.661-14.665-36.228-17.485-1.1-.68-4.1-2.185-6.666-3.347l-10.534-4.764c-3.227-1.46-7.146-2.885-8.708-3.169-1.563-.283-6.582-2.327-11.154-4.542-4.573-2.214-9.168-4.026-10.213-4.026s-2.223-.522-2.616-1.159c-.394-.637-3.28-1.567-6.412-2.067-3.133-.5-6.902-1.698-8.376-2.663-1.474-.964-5.908-2.445-9.853-3.291-3.946-.847-9.34-2.477-11.987-3.624a7809.674 7809.674 0 0 0-9.192-3.974c-2.409-1.04-5.82-1.89-7.58-1.89-1.761 0-4.59-.526-6.288-1.17-1.698-.644-5.487-1.533-8.42-1.975-2.934-.443-7.734-1.69-10.667-2.771s-7.233-1.992-9.556-2.025c-2.322-.032-4.422-.608-4.666-1.28-.475-1.305-18.863-5.445-24.184-5.445-1.751 0-5.121-.966-7.488-2.147-2.667-1.33-5.823-1.843-8.3-1.347-2.524.504-5.555-.016-8.234-1.414-2.331-1.216-8.739-2.94-14.239-3.83-5.5-.89-11.5-2.035-13.333-2.543-1.833-.508-6.933-1.158-11.333-1.444-12.326-.802-30.523-3.54-31.934-4.806-.696-.624-3.696-1.155-6.666-1.18-2.97-.023-13.43-1.174-23.245-2.556-9.814-1.382-18.617-2.216-19.562-1.853-.945.362-3.088-.074-4.761-.97-2.865-1.533-24.042-3.714-41.832-4.309-4.4-.147-8.318-.688-8.705-1.201-.388-.514-14.188-1.293-30.667-1.732-16.479-.439-34.762-1.271-40.628-1.85-10.086-.996-106.492-.695-119.334.372-3.3.274-6.6.08-7.333-.433-.733-.512-7.933-.382-16 .288-14.245 1.184-42.223 2.305-56.236 2.253-3.796-.014-7.308.631-7.805 1.434-.536.869-5.033 1.417-11.097 1.353-15.451-.163-48.531 2.465-51.388 4.082-1.389.786-7.389 1.934-13.333 2.551-5.944.617-17.108 2.073-24.808 3.235-7.7 1.162-18.8 2.705-24.666 3.43-5.867.725-11.451 1.605-12.41 1.955-.958.35-7.858 1.546-15.333 2.658-7.475 1.112-15.09 2.337-16.924 2.722-1.833.385-12.033 2.18-22.667 3.99-10.633 1.81-22.033 4.148-25.333 5.197-3.3 1.049-11.7 2.907-18.667 4.13-6.966 1.222-15.828 3.124-19.693 4.226-3.865 1.102-7.876 1.678-8.914 1.28-1.038-.398-2.094-.103-2.347.656-.253.758-3.308 1.559-6.789 1.778-5.894.37-11.017 1.795-17.664 4.913-1.507.707-3.307 1.112-4 .9-1.232-.378-10.539 1.752-18.687 4.277-2.253.698-6.553 1.269-9.556 1.269-3.004 0-5.661.6-5.906 1.333-.244.734-5.244 2.297-11.11 3.475-5.867 1.177-13.067 2.698-16 3.38-2.934.682-9.534 1.75-14.667 2.374-5.133.624-10.233 1.505-11.333 1.96-1.1.453-6.2 1.753-11.334 2.888a12625.68 12625.68 0 0 0-18 3.993c-4.766 1.061-10.423 1.93-12.571 1.93-3.925 0-11.433 1.985-15.744 4.164-1.273.643-5.311 1.17-8.973 1.17-3.662 0-8.92.848-11.685 1.885-2.765 1.037-5.927 1.898-7.027 1.913-1.1.016-5.9.908-10.666 1.983-21.953 4.954-35.693 7.566-39.755 7.56-2.431-.005-5.554.598-6.94 1.34-1.384.74-5.62 1.656-9.411 2.033-3.792.378-11.667 1.924-17.5 3.436s-10.935 2.42-11.336 2.019c-.402-.402-2.614.056-4.917 1.018-2.302.962-7.026 2.175-10.497 2.696-3.471.52-6.311 1.36-6.311 1.865 0 .505-1.65.975-3.667 1.045-8.651.3-49.46 7.425-55 9.601-1.1.432-2.6.871-3.333.975-10.038 1.422-15.632 2.547-20.38 4.097-3.142 1.027-9.5 1.867-14.129 1.867-4.788 0-10.133.857-12.401 1.988-2.193 1.094-7.535 2.515-11.872 3.158-16.912 2.506-31.953 5.993-33.382 7.738-.824 1.006-2.474 1.454-3.667.996-1.193-.458-2.17-.242-2.17.48 0 .723-4.81 2.062-10.69 2.977-5.88.914-11.016 2.188-11.412 2.83-.397.641-2.525 1.166-4.73 1.166-2.205 0-5.103.585-6.44 1.3-1.337.716-4.447 1.428-6.912 1.582-2.465.155-5.665 1.07-7.112 2.033-1.446.963-4.746 1.773-7.333 1.799-2.587.026-6.203.905-8.037 1.953-1.833 1.048-4.751 1.926-6.485 1.952-1.733.026-5.333 1.229-8 2.672-2.666 1.444-8.748 3.9-13.514 5.46s-8.978 3.339-9.358 3.954c-.38.616-3.246 1.428-6.368 1.804-3.122.376-7.222 1.9-9.11 3.386-1.89 1.486-5.625 3.1-8.3 3.586-5.269.958-13.745 4.34-22.198 8.854-2.934 1.566-6.679 3.482-8.323 4.257-1.644.774-2.994 1.858-3 2.408-.005.55-1.437 1-3.18 1-1.744 0-3.918.9-4.83 2-.913 1.1-3.313 2-5.334 2-2.02 0-4.388.861-5.262 1.914-.874 1.053-3.497 2.328-5.83 2.833-2.333.506-8.276 2.944-13.208 5.42-4.932 2.474-9.613 4.5-10.403 4.5-.79 0-6.355 3.218-12.367 7.152-10.055 6.58-16.432 9.961-22.681 12.029-1.33.44-2.044 1.404-1.588 2.142.456.739-.106 1.343-1.249 1.343s-2.079.51-2.079 1.131c0 .622-2.4 2.213-5.333 3.536-2.933 1.323-5.333 2.818-5.333 3.322 0 .505-2.4 1.71-5.334 2.678-2.933.968-5.333 2.564-5.333 3.547 0 .982-.819 1.786-1.82 1.786-1.001 0-3.32 1.18-5.155 2.623-1.834 1.443-3.715 2.243-4.18 1.778-.465-.465-.845-.153-.845.692 0 .846-1.95 2.366-4.333 3.378-2.384 1.012-6.278 3.72-8.655 6.018-2.376 2.298-5.245 4.178-6.375 4.178s-2.4.9-2.821 2c-.422 1.1-1.52 2-2.44 2-.92 0-4.572 2.7-8.115 6-3.544 3.3-7.134 6-7.979 6-.844 0-2.621 1.2-3.949 2.667-1.327 1.466-3.177 2.666-4.111 2.666-.934 0-3.832 2.012-6.439 4.47-5.957 5.62-14.427 11.53-16.521 11.53-.877 0-1.595.9-1.595 2s-.768 2-1.706 2-3.788 2.009-6.333 4.463c-2.545 2.455-5.316 4.705-6.156 5-.84.296-5.403 4.137-10.137 8.537-4.735 4.4-10.333 9.2-12.44 10.667-2.107 1.467-5.815 4.617-8.24 7-2.426 2.383-5.29 4.333-6.366 4.333-1.076 0-1.956.86-1.956 1.91 0 1.051-1.07 2.25-2.378 2.665-1.308.416-3.463 2.592-4.789 4.836-1.326 2.245-3.706 4.672-5.288 5.393-5.995 2.73-9.533 5.238-9.211 6.527.183.735-.433 1.336-1.37 1.336-1.694 0-8.964 7.448-8.964 9.183 0 .5-1.8 1.972-4 3.272-2.2 1.3-4 2.818-4 3.375 0 .557-3 4.175-6.666 8.04-3.667 3.864-6.695 7.425-6.729 7.911-.034.487-2.463 2.686-5.398 4.886-2.936 2.2-7.258 6.043-9.605 8.54-2.348 2.498-6.218 6.344-8.602 8.548-2.383 2.204-4.333 4.78-4.333 5.726 0 .946-.77 2.2-1.713 2.786-1.784 1.111-14.325 15.957-18.954 22.439-1.466 2.054-3.416 4.492-4.333 5.419-.917.926-1.682 2.177-1.7 2.78-.062 1.971-8.899 15.052-9.657 14.293-.818-.818-7.643 8.695-7.643 10.652 0 .677-1.5 3.198-3.333 5.602-1.834 2.403-3.334 4.967-3.334 5.696 0 .729-1.568 2.559-3.484 4.066-3.947 3.105-11.182 13.93-11.182 16.73 0 1.018-1.427 3.547-3.17 5.62-3.5 4.16-9.34 15.637-10.685 20.998-.474 1.891-1.451 3.438-2.17 3.438-.72 0-1.309.908-1.309 2.018 0 1.11-.57 3.06-1.268 4.333-.698 1.274-2.252 4.716-3.453 7.649s-3.03 6.926-4.065 8.872c-1.034 1.947-1.88 4.527-1.88 5.733 0 2.459-3.772 10.338-5.482 11.45-.61.397-1.982 4.597-3.048 9.334-1.758 7.808-4.79 17.567-7.646 24.61-.594 1.468-1.402 5.668-1.795 9.334-.393 3.667-1.346 8.583-2.117 10.924-3.49 10.598-4.166 45.09-1.34 68.41.755 6.233 1.674 16.133 2.042 22 .367 5.866 1.262 15.766 1.988 22 .726 6.233 1.692 14.887 2.146 19.23.455 4.344 1.372 9.333 2.04 11.087.666 1.754 1.212 4.824 1.212 6.82 0 1.998 1.2 5.986 2.666 8.863 1.548 3.035 2.667 7.863 2.667 11.504 0 3.77.665 6.543 1.667 6.95 1.283.52 1.239.975-.194 1.976-1.078.753-1.493 2.26-.986 3.582 1.03 2.684 5.217 23.744 7.553 37.988 1.794 10.94 2.749 15.29 6 27.333 1.188 4.4 2.633 10.239 3.21 12.976.577 2.736 1.634 5.736 2.348 6.666.713.93 2.611 7.691 4.217 15.025 3.137 14.323 7.733 32.588 9.562 38 .957 2.829 2.765 12.109 3.247 16.666.078.734 1.173 4.604 2.433 8.602 2.713 8.602 3.5 38.04 1.083 40.458-.81.81-1.473 2.477-1.473 3.704 0 6.512-5.796 15.328-20.667 31.432-2.2 2.382-6.1 6.845-8.667 9.916-2.566 3.072-5.66 6.458-6.877 7.526-1.216 1.068-5.044 4.586-8.508 7.818-3.465 3.233-6.988 5.878-7.831 5.878s-2.254 1.913-3.137 4.251c-1.325 3.51-1.26 4.633.374 6.438 1.089 1.203 1.98 2.895 1.98 3.761 0 .866 1.8 3.457 4 5.76 2.2 2.302 4 4.562 4 5.024 0 .46 1.813 2.824 4.03 5.25 2.217 2.428 4.862 6.311 5.878 8.631 1.652 3.77 4.97 8.247 10.54 14.218 1.026 1.1 3.047 4.707 4.492 8.015 1.446 3.308 4.525 7.912 6.844 10.23 2.318 2.32 4.215 5.433 4.215 6.92 0 1.486.818 3.182 1.816 3.769.999.586 3.075 3.766 4.614 7.066 1.54 3.3 4.172 8.119 5.851 10.708a375.951 375.951 0 0 1 5.72 9.152 321.892 321.892 0 0 0 5.666 9.018c1.65 2.516 3 5.147 3 5.848 0 .7.6 1.274 1.333 1.274.734 0 1.334 1.14 1.334 2.533s2.182 5.743 4.849 9.666c2.667 3.924 5.945 9.572 7.285 12.55 1.34 2.98 3.657 6.522 5.15 7.874 1.494 1.351 2.716 3.367 2.716 4.479s.801 2.969 1.78 4.126c.98 1.158 2.584 4.205 3.566 6.772.982 2.567 2.813 6.167 4.067 8 1.255 1.833 3.167 5.457 4.249 8.053 1.082 2.596 2.823 5.596 3.87 6.667 1.046 1.07 2.962 4.347 4.258 7.28 3.764 8.525 6.536 13.254 8.439 14.4.974.586 1.77 1.886 1.77 2.889 0 1.002.65 2.038 1.443 2.303 1.41.47 7.858 11.1 13.187 21.741 1.469 2.934 3.177 6.234 3.796 7.334.619 1.1 2.22 4.1 3.557 6.666 1.338 2.567 3.952 7.367 5.81 10.667 10.293 18.291 20.208 37.99 20.208 40.15 0 .65.535 1.183 1.189 1.183.653 0 1.572 1.65 2.04 3.667 1.201 5.163 9.139 23.576 10.395 24.111.573.245 1.042 1.475 1.042 2.733 0 1.26.561 2.86 1.247 3.556 1.14 1.16 7.426 19.6 18.722 54.933 2.403 7.517 4.83 13.667 5.394 13.667.563 0 1.926 3.75 3.03 8.333 1.103 4.584 3.628 14.034 5.612 21 7.047 24.752 12.377 48.205 16.817 74 1.388 8.067 3.085 16.167 3.771 18 .686 1.834 1.643 6.634 2.128 10.667.485 4.033 1.996 11.533 3.358 16.667 1.362 5.133 3.423 14.9 4.58 21.705 1.157 6.805 2.739 14.005 3.515 16 1.528 3.929 1.822 5.228 3.683 16.295.679 4.033 1.927 10.033 2.774 13.333.846 3.3 2.11 8.695 2.808 11.988 3.686 17.407 16.71 55.012 24.07 69.5 2.837 5.585 5.158 11.015 5.158 12.067 0 1.051.563 2.482 1.251 3.178.688.697 3.712 6.067 6.72 11.934 7.563 14.754 10.817 20.993 12.17 23.333.636 1.1 2.91 5.607 5.052 10.016 2.143 4.409 5.15 9.152 6.685 10.54 1.534 1.388 2.789 3.046 2.789 3.684 0 1.315 15.113 31.978 22.226 45.093 6.895 12.713 12.44 23.895 12.44 25.084 0 .573 2.749 5.213 6.108 10.312 5.458 8.286 14.064 24.912 21.707 41.938 1.481 3.3 3.611 7.5 4.734 9.333 4.236 6.92 23.451 49.43 23.451 51.881 0 .85.916 2.943 2.034 4.65 1.119 1.707 3.145 6.936 4.504 11.62 1.358 4.684 4.076 12.716 6.041 17.849 3.32 8.677 10.749 32.114 12.366 39.02.389 1.66 1.236 3.346 1.881 3.745.646.4 1.174 3.055 1.174 5.902 0 2.846.513 5.492 1.139 5.88.626.386 1.892 6.22 2.813 12.963.922 6.744 2.837 15.612 4.256 19.709 1.42 4.096 3.42 13.765 4.448 21.487 1.027 7.721 2.55 17.021 3.384 20.666 2.433 10.643 5.27 33.9 5.283 43.303.007 4.772.62 10.772 1.363 13.334.743 2.562 1.692 10.958 2.11 18.658.416 7.7 1.608 20.077 2.648 27.504 1.04 7.428 1.89 16.958 1.89 21.179 0 4.22.556 9.844 1.237 12.495 1.375 5.36 4.996 35.343 6.137 50.822.406 5.5 1.315 13 2.02 16.666.706 3.667 1.855 10.267 2.553 14.667 3.643 22.96 10.751 57.55 12.349 60.091.492.783 1.872 5.883 3.067 11.333 1.926 8.79 3.77 14.758 9.865 31.91.913 2.566 3.062 8.866 4.778 14 7.067 21.145 21.182 52.516 24.572 54.611.782.484 1.422 1.726 1.422 2.76 0 2.067 6.5 16.893 7.875 17.962.471.366 2.342 3.545 4.157 7.062 1.816 3.518 5.401 9.03 7.968 12.249 2.567 3.219 6.167 8.371 8 11.45 6.744 11.327 12.482 18.176 34.663 41.379 8.431 8.82 15.81 16.896 16.4 17.948.588 1.051 1.689 1.912 2.445 1.912.757 0 3.94 2.1 7.071 4.666 3.133 2.567 6.634 4.667 7.78 4.667 1.147 0 2.285.51 2.53 1.134.628 1.603 10.462 7.612 14.444 8.826 1.833.559 5.243 2.447 7.578 4.195 2.334 1.748 5.154 3.178 6.266 3.178 1.113 0 5.503 2.099 9.756 4.664 4.253 2.564 9.395 4.664 11.427 4.666 2.03 0 6.015 1.47 8.853 3.261 2.838 1.792 5.49 2.928 5.893 2.526.402-.403 3.318.225 6.48 1.396 3.16 1.17 7.847 2.324 10.414 2.563 2.566.24 5.866 1.078 7.333 1.864 3.373 1.806 16.4 4.51 24.482 5.082 17.32 1.223 26.69 2.09 31.518 2.914 2.933.5 10.733 1.005 17.333 1.121 32.234.566 77.235 2.137 78.194 2.73.593.366 3.506.013 6.473-.787 2.967-.799 6.131-.977 7.03-.396.9.58 7.337 1.133 14.303 1.227 17.415.235 47.859 1.726 52.453 2.57 4.836.888 10.937 1.52 31.547 3.271 9.167.779 19.667 1.982 23.334 2.675 11.514 2.173 29.09 4.453 35.333 4.581 3.3.068 6.6.49 7.333.938.734.447 6.734 1.563 13.334 2.48 6.6.916 12.307 2.142 12.682 2.725.375.582 6.975 1.732 14.667 2.554 7.691.822 15.925 2.392 18.298 3.488 2.373 1.097 5.673 1.846 7.334 1.665 4.31-.47 14.975 1.4 24.826 4.35 4.66 1.397 9.919 2.539 11.685 2.539s4.252.581 5.526 1.291c3.733 2.083 14.819 5.376 18.095 5.376 1.661 0 3.63.609 4.374 1.353.744.745 4.614 1.705 8.6 2.134 3.985.43 7.547 1.265 7.916 1.857.368.593 3.068 1.506 6 2.03 7.515 1.344 27.23 6.69 31.997 8.678 2.2.917 6.7 2.098 10 2.625 3.3.526 10.8 2.178 16.666 3.67 13.564 3.448 22.264 5.254 30.667 6.367 3.667.485 7.867 1.529 9.333 2.319 1.467.79 5.067 1.65 8 1.91 10.038.892 40.153 4.263 56 6.269 2.2.278 10.837 1.195 19.193 2.036 8.357.842 16.267 2.106 17.58 2.808 1.312.702 3.858 1.277 5.658 1.277 2.725 0 3.43-.835 4.209-4.99.515-2.744 1.175-5.377 1.468-5.851.75-1.213 22.43 6.456 22.99 8.132.252.756 1.564 1.376 2.917 1.376 1.352 0 3.692 1.568 5.2 3.485 2.337 2.971 4.07 3.589 11.763 4.191 4.963.389 9.342 1.195 9.733 1.793.391.597 3.391 1.37 6.667 1.717s11.656 1.912 18.622 3.478c6.967 1.566 17.795 3.02 24.063 3.233 6.267.212 12.717 1.093 14.332 1.957 1.728.925 5.54 1.274 9.27.847 3.485-.398 9.635-.193 13.669.455 11.12 1.786 28 1.794 28 .015zm-223.075-396.69c-.47-.469-8.22-.845-17.222-.835-9.004.013-16.97-.423-17.703-.96-.733-.537-3.789-1.053-6.79-1.147-3-.093-10.086-1.055-15.745-2.138-5.66-1.083-12.054-1.616-14.21-1.185-2.36.472-3.922.224-3.922-.624 0-.794-4.653-1.814-10.667-2.339-5.866-.511-10.666-1.394-10.666-1.96 0-.567-3.573-1.445-7.94-1.952-4.367-.507-8.64-1.766-9.496-2.798-.857-1.031-3.764-1.876-6.46-1.876-2.698 0-5.474-.518-6.17-1.152-1.997-1.815-13.518-4.257-15.855-3.36-1.162.446-2.855.208-3.763-.528-.907-.736-6.311-2.638-12.009-4.226s-11.998-3.708-14-4.71c-2.002-1.002-6.34-2.537-9.64-3.411-6.994-1.852-11.607-3.28-15.334-4.745-1.466-.577-3.266-1.126-4-1.22-4.953-.641-17.672-3.87-21.44-5.445-2.487-1.04-7.675-2.566-11.528-3.392-3.853-.826-8.212-2.277-9.686-3.225-1.473-.947-5.08-2.145-8.012-2.662-2.934-.517-5.934-1.312-6.667-1.765-.733-.454-3.467-.861-6.076-.905-4.783-.081-29.75-7.375-35.924-10.494-1.833-.926-5.826-1.419-8.872-1.094-4.297.458-6.14-.013-8.223-2.093-1.475-1.476-2.97-2.397-3.32-2.047-1.023 1.023-17.23-2.245-21.36-4.307-2.076-1.037-4.89-1.885-6.255-1.885-1.363 0-2.834-.574-3.267-1.275-.434-.702-1.642-.948-2.684-.548-1.043.4-3.192-.181-4.777-1.291-1.585-1.11-3.685-1.71-4.667-1.334-.982.377-3.146-.268-4.81-1.433-1.664-1.166-4.398-2.12-6.076-2.12-2.982 0-15.033-4.97-16.356-6.745-.366-.492-2.166-1.358-4-1.925-1.833-.566-4.764-2.147-6.513-3.513-1.749-1.366-3.849-2.49-4.667-2.497-1.773-.017-12.82-10.355-12.82-11.998 0-.63-1.59-1.334-3.532-1.566-4.257-.509-4.727-1.327-9.041-15.755-9.222-30.842-7.794-59.884 4.177-85 2.535-5.317 5.01-9.668 5.502-9.67 1.714 0 9.56-7.423 9.56-9.037 0-.895.885-1.627 1.967-1.627 1.08 0 3.93-2.175 6.333-4.834 7.996-8.85 11.86-12.123 21.248-18.001 5.122-3.207 11.726-7.781 14.676-10.165 2.95-2.383 6.589-4.333 8.087-4.333 1.499 0 5.303-2.25 8.453-5 8.005-6.988 12.496-10.24 17.904-12.968 2.566-1.295 5.596-3.165 6.732-4.158 1.137-.992 6.237-3.994 11.334-6.672 5.097-2.678 11.466-7.19 14.154-10.026 4.732-4.994 17.59-11.947 25.78-13.94 2.2-.536 5.629-2.656 7.62-4.712 3.983-4.111 23.163-13.647 30.439-15.133 2.534-.518 8.807-2.36 13.94-4.092 26.124-8.82 33.957-9.9 59.334-8.188 12.173.822 24 4.412 24 7.286 0 .534 1.302 1.563 2.894 2.287 1.591.724 5.305 4.183 8.25 7.688 4.676 5.561 5.432 7.391 5.937 14.38.42 5.798.037 8.64-1.381 10.295-1.08 1.258-2.34 3.35-2.801 4.652-.98 2.757-6.294 5.117-8.232 3.654-1.885-1.421-11.033-3.093-17.334-3.168-10.102-.118-32.69 2.106-33.423 3.293-.404.654-1.936 1.189-3.405 1.189-3.172 0-15.66 3.665-18.505 5.431-1.1.683-3.2 1.799-4.667 2.48-1.466.68-5.622 3.38-9.235 5.997-3.612 2.617-7.083 4.758-7.714 4.758-.63 0-2.475 1.193-4.098 2.651-5.88 5.28-12.655 10.683-13.395 10.683-1.726 0-12.617 8.312-17.85 13.623-17.432 17.69-22.717 22.67-25.854 24.369-1.913 1.035-7.422 5.555-12.24 10.044-4.82 4.49-9.254 8.183-9.855 8.21-1.628.07-6.876 4.13-15.092 11.675-4.033 3.704-7.938 6.737-8.677 6.74-1.655 0-16.71 13.042-24.123 20.887-3.006 3.182-6.006 5.796-6.666 5.809-1.406.028-8.719 8.631-11.031 12.976-1.411 2.651-1.282 3 1.117 3 1.492 0 2.713.45 2.713 1s1.35 1.1 3 1.222c1.65.123 5.7.908 9 1.746 3.3.839 8.41 1.692 11.354 1.897 2.945.205 6.707 1.097 8.36 1.982 1.655.885 3.633 1.223 4.398.75.764-.472 2.509.154 3.877 1.392 1.543 1.397 3.51 1.926 5.186 1.394 1.485-.47 6.478-.14 11.096.737 4.618.876 9.577 1.535 11.021 1.464 1.445-.071 2.97.428 3.39 1.108.421.681 5.24 1.607 10.709 2.06 10.877.898 18.61 2.81 18.61 4.6 0 .631 2.088.808 4.64.394 3-.487 5.718-.048 7.686 1.242 1.675 1.098 5.074 2.441 7.554 2.986 4.264.936 4.462.82 3.665-2.159-.463-1.732-.851-3.663-.861-4.291-.011-.629-.927-.794-2.037-.368-3.5 1.343-9.51-10.218-11.303-21.747-1.499-9.636-1.416-10.504 1.657-17.442 4.249-9.592 6.354-11.248 12.676-9.973 2.744.554 7.389.999 10.322.99 6.63-.024 36.952-5.363 37.94-6.682.4-.533 5.527-1.062 11.394-1.176 5.866-.113 14.458-1.191 19.092-2.394 4.634-1.203 9.534-1.835 10.888-1.405 1.354.43 2.811.216 3.238-.475.427-.691 4.528-1.657 9.112-2.146 4.585-.489 13.136-1.768 19.003-2.842 5.867-1.073 19.967-2.89 31.333-4.038 11.367-1.147 24.867-2.69 30-3.43 5.134-.74 13.534-1.507 18.667-1.703 5.133-.196 11.433-.695 14-1.108 10.469-1.684 67.489-6.172 87.836-6.914 8.343-.304 21.843-1.12 30-1.814 8.157-.693 29.83-1.382 48.164-1.53 18.333-.15 45.125-.359 59.538-.466 14.412-.107 25.927.256 25.588.806-.643 1.041 30.737 1.766 49.951 1.154 6.893-.22 11.775.226 12.924 1.18 1.045.867 5.155 1.38 9.467 1.18 6.908-.32 7.726-.064 8.763 2.738 1.397 3.776-1.021 7.283-4.111 5.964-2.825-1.206-9.832-.758-10.734.687-.396.633-4.02 1.448-8.053 1.81-4.033.362-12.034 1.656-17.78 2.876-8.007 1.7-10.882 1.854-12.316.664-1.083-.899-2.858-1.116-4.22-.516-1.293.57-5.396 1.136-9.117 1.26-3.722.122-7.458.65-8.303 1.173-.845.522-3.94.302-6.878-.49-4.293-1.156-6.12-1.036-9.298.607-2.175 1.125-6.42 2.046-9.434 2.046-3.312 0-5.152.527-4.654 1.333.48.778-.875 1.334-3.254 1.334-2.244 0-4.08-.563-4.08-1.25 0-1.524-9.68-.157-10.786 1.523-.433.658-7.333 1.513-15.334 1.902-8 .389-16.402.808-18.67.932-2.27.124-4.97.925-6.002 1.78-1.033.856-6.676 1.823-12.542 2.151-11.09.62-12.947.902-23.998 3.65-3.667.91-9.367 1.902-12.667 2.2-19.713 1.79-35.17 4.652-38.738 7.177-1.886 1.335-7.24 2.83-12 3.35-4.727.517-10.095 1.683-11.929 2.59-1.833.906-6.333 2.073-10 2.592-3.666.519-8.096 1.863-9.842 2.986-2.023 1.3-4.801 1.778-7.652 1.315-3.525-.572-4.886-.14-6.407 2.032-1.29 1.84-2.846 2.518-4.68 2.039-1.513-.396-3.085-.175-3.496.49-.41.663-3.111 1.207-6.001 1.207s-5.255.6-5.255 1.334c0 .733-2.74 1.333-6.088 1.333s-7.292.645-8.764 1.432c-1.472.788-5.483 1.644-8.912 1.902-7.617.574-15.991 2.392-19.57 4.25-1.466.761-6.247 1.787-10.623 2.28-4.377.491-10.621 1.798-13.877 2.904-3.255 1.105-8.074 2.244-10.71 2.53-5.402.589-13.551 2.15-27.985 5.364-8.105 1.805-10.061 1.882-10.98.434-.844-1.332-1.122-1.356-1.137-.096-.013.925-1.656 1.666-3.696 1.666-2.022 0-5.772.613-8.334 1.361-3.568 1.043-34.795 2.707-55.99 2.984-1.1.015-5.777-.628-10.393-1.428-10.315-1.787-13.736-.826-12.15 3.417.794 2.12 2.211 3.002 4.833 3.008 2.04 0 5.25.812 7.131 1.794 3.836 2.002 10.218 3.995 13.245 4.138 2.608.123 17.332 4.595 20.315 6.17 1.273.673 3.703 1.223 5.4 1.223 1.697 0 3.655.513 4.352 1.14 2.063 1.859 15.084 5.63 22.438 6.5 3.755.444 8.628 1.905 10.828 3.246 2.2 1.34 5.615 2.44 7.588 2.442 1.974 0 3.959.605 4.412 1.339.453.733 2.396 1.333 4.318 1.333 1.92 0 5.336.56 7.588 1.243 8.5 2.58 26.972 6.685 32.76 7.28 1.834.189 6.034.776 9.334 1.304 3.3.53 7.828 1.175 10.062 1.436 2.233.26 6.27 1.397 8.97 2.525 2.7 1.128 5.223 1.545 5.606.925.989-1.6 11.45-.097 15.066 2.165 1.671 1.045 3.471 1.674 4 1.399.53-.276 8.763.314 18.296 1.31 9.534.995 18.784 1.853 20.556 1.905 1.772.052 4.086.96 5.141 2.014 1.419 1.42 2.379 1.538 3.683.456 1.537-1.276 13.201-.443 23.551 1.682 1.338.274 1.652-2.2 1.37-10.8-.22-6.66.22-11.866 1.09-12.914 2.044-2.462 11.551-7.263 14.384-7.263 1.297 0 3.053-.695 3.902-1.544.983-.983 6.653-1.52 15.613-1.48 7.737.034 14.398-.471 14.801-1.124 1.075-1.738 30.403-1.491 32.166.271 1.054 1.054 2.21 1.054 4.179 0 1.497-.801 4.601-1.457 6.898-1.457 2.296 0 5.266-.583 6.599-1.297 1.333-.713 6.843-1.945 12.245-2.738 5.402-.792 11.39-2.048 13.308-2.79 1.917-.741 5.817-1.517 8.667-1.723 2.849-.207 7.58-1.583 10.514-3.06 2.933-1.476 7.943-3.084 11.132-3.575 3.19-.49 6.682-1.774 7.762-2.854 1.08-1.08 3.365-1.963 5.078-1.963s6.02-1.45 9.571-3.224c3.552-1.774 8.707-3.6 11.457-4.06 2.75-.46 5-1.42 5-2.135 0-.714 1.35-.97 3-.57 2.054.498 4.261-.371 7-2.757 2.2-1.917 5.95-4.303 8.333-5.302 2.384-.999 4.334-2.446 4.334-3.217 0-.77 1.5-1.401 3.333-1.401 1.833 0 3.333-.482 3.333-1.071 0-.59 2.99-2.54 6.646-4.334 3.655-1.794 6.655-3.712 6.667-4.262.013-.55.59-1 1.287-1 2.093 0 14.792-9.569 21.677-16.333 3.546-3.484 7.034-6.334 7.751-6.334.718 0 1.306-1.08 1.306-2.4 0-1.32.5-2.97 1.112-3.666.613-.697 2.193-4.267 3.512-7.934 1.32-3.666 3.572-7.962 5.007-9.546 2.527-2.791 2.535-3.038.251-8-1.296-2.816-3.343-6.62-4.55-8.454-1.205-1.833-3.564-6.633-5.24-10.666-8.813-21.2-15.485-32.574-24.092-41.071-11.856-11.702-13.676-13.258-17.418-14.887-1.787-.779-5.05-2.563-7.25-3.965-2.2-1.402-5.236-2.593-6.749-2.647-1.512-.053-5.163-1.263-8.113-2.689-2.95-1.425-6.94-2.802-8.867-3.06-1.926-.258-3.925-.892-4.442-1.409-.517-.516-3.12-.939-5.784-.939-2.664 0-5.442-.598-6.172-1.328-4.109-4.109-79.517-10.224-90.888-7.37-1.671.42-4.308.084-5.86-.747-2.104-1.127-4.718-1.116-10.305.04-4.117.853-11.986 1.749-17.486 1.992-8.834.39-25.225 2.98-46 7.268-3.666.757-14.766 2.686-24.666 4.288-9.9 1.6-19.2 3.655-20.667 4.564-1.467.91-7.412 2.056-13.21 2.548-5.8.491-12.216 1.758-14.26 2.814-2.774 1.436-4.617 1.578-7.284.564-2.512-.955-4.103-.915-5.368.134-2.18 1.809-29.135 2.366-38.37.794-14.501-2.47-27.282-24.719-21.172-36.857 1.848-3.67 3.42-4.85 7.597-5.7 2.897-.59 6.197-1.878 7.333-2.86 1.137-.983 3.867-2.214 6.067-2.736 2.2-.522 4.9-1.756 6-2.743 2.005-1.797 10.512-5.233 18-7.27 2.2-.598 6.7-2.343 10-3.879 3.3-1.535 7.071-2.805 8.38-2.82 1.31-.017 3.71-.83 5.334-1.809 1.624-.978 6.853-1.916 11.62-2.084 4.766-.168 11.286-.886 14.488-1.595 3.203-.71 6.868-.958 8.145-.552 1.278.405 3.082-.177 4.008-1.293 1.17-1.409 4.186-2.037 9.855-2.051 4.494-.013 15.37-.695 24.17-1.517 8.8-.823 18.4-1.618 21.334-1.768 2.933-.15 5.933-.485 6.666-.747.734-.262 2.66-.024 4.283.53 1.691.575 4.182.344 5.836-.541 2.23-1.193 3.121-1.166 3.914.117.565.914 2.257 1.341 3.759.948 2.852-.746 46.056 2.167 62.208 4.194 12.926 1.623 31.463 5.21 34.667 6.709 1.467.686 4.467 1.525 6.667 1.864 7.097 1.095 21.186 5.09 26.666 7.562 9.377 4.23 14.508 6.36 21.14 8.778 3.559 1.298 7.159 3.038 8 3.866.84.828 5.427 4.14 10.194 7.359 4.766 3.22 9.321 6.486 10.122 7.26.8.774 3.451 2.907 5.89 4.74 2.44 1.833 5.085 4.09 5.879 5.015 1.578 1.84 8.05 8.196 19.547 19.2 4.092 3.915 9.152 10.118 11.246 13.785 2.093 3.667 5.415 8.767 7.383 11.333 1.967 2.567 3.973 5.942 4.458 7.5 1.332 4.28 11.083 7.63 16.608 5.703 2.361-.822 5.921-1.18 7.913-.794 2.28.442 4.498-.087 5.995-1.431 2.114-1.898 2.595-1.912 4.38-.127 1.964 1.964 2.302 7.95 1.723 30.483-.104 4.034 0 13.334.22 20.667.223 7.333-.034 14.69-.574 16.348-1.043 3.21-10.92 8.808-13.13 7.443-.72-.445-3.256-1.249-5.636-1.785l-4.327-.976-.71 17.485c-.588 14.507-1.325 19.188-4.325 27.485-5.494 15.188-6.906 17.238-26.865 38.982-3.189 3.474-5.809 6.774-5.823 7.334-.013.56-3.002 2.817-6.641 5.017-3.64 2.2-6.628 4.45-6.642 5-.013.55-.952 1-2.086 1-1.133 0-3.533 1.473-5.333 3.273-1.8 1.8-3.272 2.907-3.272 2.46 0-.447-1.05.097-2.334 1.21-1.283 1.114-4.293 2.394-6.687 2.845-2.395.451-7.629 2.37-11.63 4.262-4.001 1.893-7.606 3.381-8.012 3.307-.405-.075-2.372.737-4.37 1.802-4.511 2.405-10.304 4.412-15.968 5.53-2.383.471-4.333 1.322-4.333 1.89 0 .57-4.95 2.082-11 3.362-6.05 1.28-12.2 3.08-13.667 4.001-3.082 1.936-16.977 5.488-26.666 6.818-3.667.503-7.756 1.48-9.087 2.17-1.33.691-3.43 1.464-4.666 1.717-4.288.88-15.591 3.72-17.58 4.42-1.1.387-2.3.794-2.667.904-8.643 2.61-12.302 4.12-13.513 5.578-.814.982-2.757 1.787-4.317 1.79-1.56 0-4.637 1.1-6.837 2.44-2.2 1.34-5.753 2.875-7.895 3.412-2.142.536-5.334 2.107-7.094 3.49-1.759 1.385-5.864 2.917-9.121 3.406-3.258.488-6.25 1.418-6.652 2.067-.4.649-3.58 1.18-7.066 1.18-3.609 0-8.714 1.148-11.857 2.666-3.779 1.826-8.248 2.667-14.172 2.667-4.759 0-9.023.6-9.476 1.333-1.258 2.035-4.837 1.593-7.64-.944-2.037-1.843-2.946-1.968-4.772-.658-4.071 2.923-5.842 3.348-6.89 1.654-.732-1.184-1.297-1.24-1.944-.194-.982 1.589-6.43 2.022-7.829.623zm-246.62-131.953c-.443-.443-1.593-.49-2.555-.105-1.064.426-.748.742.805.806 1.406.057 2.193-.258 1.75-.7zm163.738-296.262c-.22-.22-1.82-.565-3.556-.764-1.735-.2-4.748-.82-6.696-1.379-2.033-.583-4.673-.411-6.194.403-2.016 1.08-3.035.955-4.258-.518-.884-1.065-3.797-2.333-6.473-2.817-2.676-.484-6.366-1.594-8.2-2.466-1.833-.873-4.327-1.36-5.542-1.082-1.215.278-2.6-.128-3.079-.902-.478-.774-2.484-1.413-4.457-1.42-4.714-.017-17.587-6.06-19.878-9.33-.992-1.415-4.332-3.695-7.423-5.065-3.091-1.37-6.444-3.49-7.45-4.709-1.007-1.219-2.45-2.216-3.21-2.216-.758 0-5.457-4.35-10.442-9.667-10.028-10.695-9.993-10.66-18.608-18.67-9.168-8.526-15.704-12.619-25.769-16.139-10.927-3.82-20.023-11.845-26.328-23.225-2.326-4.198-4.964-8.833-5.864-10.3-.899-1.466-2.015-5.234-2.48-8.372-.466-3.138-1.993-9.438-3.394-14-4.793-15.613-8.39-36.874-9.972-58.96-1.587-22.15-7.462-49.027-13.94-63.778-1.557-3.544-2.83-7.795-2.83-9.446 0-1.65-2.25-6.252-5-10.226-2.75-3.973-5.775-8.729-6.721-10.568-.947-1.84-5.297-7.208-9.667-11.93-4.37-4.723-7.946-9.026-7.946-9.562 0-.537-1.95-2.36-4.333-4.053s-7.444-6.234-11.246-10.09c-3.803-3.858-7.3-7.014-7.774-7.014-1.38 0-12.171-9.17-23.998-20.393-7.754-7.358-13.026-11.18-18.059-13.093-3.909-1.485-9.24-4.372-11.848-6.414-2.608-2.043-6.156-4.457-7.885-5.364-9.81-5.15 15.984-7.616 38.477-3.68 2.745.48 18.666 10.418 18.666 11.651 0 .548 2.039 1.378 4.53 1.846 3.547.665 8.975 5.255 25.01 21.148 33.2 32.906 34.194 34.216 50.94 67.123 3.403 6.687 6.187 12.544 6.187 13.015 0 .91 4.719 11.92 6.776 15.81.673 1.273 1.224 3.396 1.224 4.717 0 1.322 1.106 4.572 2.457 7.223 1.352 2.651 3.218 7.728 4.146 11.282 2.142 8.198 5.557 18.06 6.861 19.813.553.743 1.725 4.343 2.604 8 .88 3.657 2.308 7.849 3.174 9.316.867 1.466 2.351 5.366 3.299 8.666.947 3.3 2.562 6.946 3.588 8.102 1.026 1.156 2.393 4.927 3.038 8.381.645 3.454 2.09 7.309 3.209 8.565 2.446 2.747 12.957 23.429 12.957 25.495 0 .801.471 1.457 1.047 1.457.912 0 6.911 5.344 22.287 19.85 2.2 2.075 6.14 5.039 8.754 6.586 2.615 1.546 5.81 3.978 7.1 5.404 1.29 1.425 5.001 3.376 8.246 4.334 3.245.958 5.9 2.196 5.9 2.75 0 .556 2.671 2.227 5.936 3.714s6.428 3.583 7.029 4.656c.6 1.074 3.78 2.242 7.063 2.597 3.285.354 8.068 1.273 10.63 2.043 2.561.77 7.476 1.4 10.921 1.4 3.445 0 6.62.575 7.054 1.278.47.76 10.37 1.137 24.412.93 22.583-.336 24.161-.537 35.902-4.57 14.584-5.01 31.342-12.774 33.696-15.61.926-1.116 2.628-2.028 3.782-2.028 2.24 0 11.584-5.933 14.905-9.464 1.102-1.172 5.35-4.906 9.439-8.298 5.602-4.647 7.813-5.79 8.968-4.634 2.12 2.12 5.446-1.103 12.48-12.096 3.11-4.863 7.225-10.942 9.142-13.508 3.737-5.004 9.586-22.293 11.954-35.334.799-4.4 1.69-14 1.982-21.333.291-7.333 1.488-17.533 2.658-22.667 2.483-10.884 5.23-60.2 3.79-68-.543-2.933-1.144-13.733-1.335-24-.192-10.266-.664-23.766-1.05-30a14719.13 14719.13 0 0 1-1.96-32.666c-.692-11.734-1.873-27.934-2.626-36-.753-8.067-1.96-20.967-2.681-28.667-.722-7.7-2.23-20.6-3.351-28.667-1.122-8.066-2.397-19.455-2.835-25.308-.437-5.853-1.108-11.148-1.491-11.767-.383-.619-1.224-5.73-1.869-11.358-4.752-41.448-10.55-79.19-12.848-83.647-.733-1.423-1.694-7.686-2.136-13.92-.44-6.233-1.942-14.333-3.335-18-1.393-3.666-2.925-10.266-3.404-14.666-.48-4.4-2.008-12.8-3.397-18.667-4.233-17.874-6.5-30.07-8.055-43.333-1.926-16.422-4.884-36.28-7.648-51.334-1.212-6.6-2.365-14.1-2.563-16.666-.198-2.567-1.605-11.267-3.126-19.334-1.52-8.066-3.385-17.966-4.142-22-.757-4.033-1.659-9.433-2.004-12-.346-2.566-1.487-7.366-2.535-10.666-1.049-3.3-2.291-9.9-2.762-14.667-.47-4.767-1.659-11.967-2.642-16-.983-4.033-2.45-12.433-3.259-18.667-.809-6.233-2.317-14.333-3.35-18-1.035-3.666-2.187-9.991-2.562-14.055-.374-4.064-1.603-9.594-2.73-12.29-1.126-2.696-2.041-6.572-2.034-8.612.013-3.995-5.853-22.917-8.8-28.376-5.038-9.338-9.88-20.631-9.88-23.045 0-1.212-2.263-6.873-5.03-12.58-2.766-5.706-6.708-14.575-8.76-19.708-2.051-5.134-4.585-11.134-5.63-13.334-6.915-14.549-14.837-47.438-12.71-52.762.712-1.78 1.332-2.767 1.379-2.19.047.575 1.17.465 2.498-.245 1.933-1.035 3.604-.183 8.405 4.286 5.748 5.352 7.988 8.198 13.848 17.597 2.658 4.264 6.042 8.742 13.004 17.211 2.02 2.456 4.637 6.784 5.817 9.618 1.18 2.833 2.577 5.452 3.104 5.819 2.792 1.943 20.075 30.54 20.075 33.218 0 .858 1.05 2.694 2.333 4.08 2.325 2.512 5.149 7.762 8.266 15.368 4.156 10.14 9.027 18.951 12.161 22 3.372 3.28 8.706 16.87 10.73 27.334.567 2.933 1.666 8.033 2.442 11.333.777 3.3 2.011 9.6 2.744 14 .732 4.4 1.886 10.4 2.564 13.333.678 2.934 1.955 10.734 2.838 17.334.882 6.6 2.112 13.35 2.731 15.003.62 1.651 1.232 9.451 1.36 17.333.144 8.915.912 15.69 2.032 17.93.99 1.98 1.8 6.322 1.8 9.648 0 3.326.57 8.606 1.267 11.733.697 3.127 1.928 9.886 2.734 15.02 2.365 15.047 5.339 28.583 8.788 40 1.772 5.866 3.22 11.583 3.216 12.703 0 1.12.87 3.286 1.939 4.812 1.07 1.527 2.575 6.61 3.346 11.297 2.974 18.084 5.123 28.666 6.554 32.274.819 2.065 1.488 5.279 1.488 7.143 0 3.17 2.224 14.558 5.554 28.437 3.026 12.612 3.984 16.856 5.113 22.667.642 3.3 1.829 8.7 2.638 12 .81 3.3 1.518 6.9 1.574 8 .204 4.006 3.837 20.737 5.066 23.333.695 1.467 2.798 12.567 4.675 24.667 1.876 12.1 3.964 24.7 4.64 28 1.95 9.532 3.938 25.937 5.413 44.666.75 9.534 2.013 21.534 2.804 26.667.792 5.133 1.702 13.233 2.023 18 1.082 16.067 2.867 32.559 5.775 53.333 1.59 11.367 3.442 25.573 4.113 31.568.672 5.996 1.82 13.496 2.551 16.667.731 3.17 1.344 9.555 1.362 14.186.017 4.632.592 9.466 1.275 10.742 3.4 6.353 3.905 116.114.667 144.837-.993 8.8-2.784 19.3-3.981 23.334-1.198 4.033-2.7 9.871-3.34 12.974-.641 3.102-2.385 8.32-3.877 11.593-1.49 3.274-2.711 6.597-2.711 7.385 0 .787-1.8 4.804-4 8.927-2.2 4.123-4 8.312-4 9.308 0 .997-.568 1.813-1.262 1.813-1.382 0-9.542 11.833-12.165 17.64-.905 2.003-2.75 3.993-4.1 4.421-1.352.43-3.236 1.49-4.188 2.36-.952.868-2.695 2.179-3.872 2.912-1.177.733-4.923 3.277-8.323 5.653-3.4 2.376-7.638 4.685-9.415 5.13-1.778.447-3.93 1.653-4.784 2.681-.853 1.028-2.634 1.87-3.958 1.87-1.323 0-3.667 1.602-5.208 3.561-2.122 2.698-3.176 3.188-4.345 2.018-1.17-1.169-2.05-1.099-3.629.29-1.146 1.007-5.085 3.431-8.751 5.386-3.667 1.955-7.567 4.076-8.667 4.714-6.053 3.51-21.203 10.453-24.577 11.264-2.15.517-5.647 2.4-7.769 4.186s-4.649 3.247-5.615 3.247c-.966 0-3.556 1.65-5.756 3.667-5.012 4.596-8.995 7-11.598 7-1.11 0-2.018.493-2.018 1.095 0 .603-3.15 2.514-7 4.246-3.85 1.733-9.766 4.775-13.147 6.76-5.136 3.016-8.06 3.688-17.778 4.087-6.397.263-11.811.298-12.032.076zm409.957-808.34c1.418-.97-1.881-1.292-11.333-1.109-13.654.265-32.79-1.94-37.054-4.269-1.313-.717-5.213-1.888-8.666-2.603-11.89-2.459-18.757-4.692-21.185-6.89-1.339-1.211-3.933-2.853-5.765-3.648-1.832-.795-5.13-2.619-7.33-4.052-2.2-1.434-5.8-3.603-8-4.82-2.2-1.218-7.718-5.944-12.26-10.503-9.358-9.39-17.74-25.023-17.74-33.083 0-4.196.603-5.11 4.64-7.025 4.006-1.901 5.6-1.977 11.666-.555 3.865.906 7.751 2.221 8.637 2.922 2.264 1.793 16.342.487 29.723-2.757 6.234-1.51 14.484-2.877 18.334-3.035 3.85-.159 7-.785 7-1.393s1.292-1.105 2.87-1.105c1.58 0 6.109-1.532 10.065-3.403 4.52-2.138 8.222-3.076 9.962-2.524 1.523.483 3.156.252 3.63-.515.474-.766 6.249-2.062 12.834-2.88 6.584-.816 15.572-2.653 19.972-4.082 4.4-1.428 11.016-2.597 14.703-2.597 11.47 0 16.59-6.418 8.793-11.024-4.672-2.76-18.831-17.84-18.826-20.051 0-.875-1.16-3.991-2.584-6.924-4.571-9.421-7.21-25.048-6.383-37.805 1.028-15.87 4.582-32.43 9.139-42.586 2.104-4.69 3.49-9.071 3.08-9.735-1.175-1.902-9.105-1.411-13.623.843-2.26 1.128-7.603 2.677-11.872 3.444-4.268.766-10.46 2.246-13.76 3.289-3.3 1.043-7.85 1.893-10.112 1.89-2.26 0-4.531.413-5.045.927-1.788 1.788-16.21 5.693-21.098 5.713-2.707.01-5.256.56-5.664 1.222-.41.66-4.345 1.62-8.748 2.13-4.403.512-8.34 1.47-8.748 2.132-.409.661-2.387 1.202-4.397 1.202-2.01 0-4.225.55-4.922 1.221-2.906 2.801-19.494 1.553-28.31-2.13-3.745-1.566-5.38-1.629-8.515-.33-3.375 1.397-4.263 1.256-6.827-1.084-1.621-1.48-5.348-3.503-8.281-4.494-7.094-2.4-18.276-10.614-22.91-16.83-2.058-2.761-4.105-5.32-4.548-5.686-2.534-2.095-7.875-19.248-7.875-25.291 0-8.316 3.102-11.819 12.838-14.494 8.196-2.252 18.642-5.484 23.828-7.371 2.2-.8 6.536-1.324 9.636-1.164 4.453.231 6.552-.474 10-3.36 6.584-5.511 12.247-8.275 15.312-7.474 1.513.396 3.154.067 3.647-.73.493-.797 2.21-1.463 3.817-1.48 1.607-.015 4.422-1.202 6.255-2.636 1.833-1.434 4.335-2.62 5.56-2.637 1.225-.016 7.225-1.772 13.334-3.9 6.108-2.13 13.806-4.3 17.106-4.822 3.3-.523 7.2-1.592 8.667-2.375 2.36-1.26 7.199-2.398 17.862-4.2 1.757-.298 3.599-1.194 4.092-1.993 1.284-2.078 35.093-10.898 48.533-12.66 2.102-.277 6.302-1.415 9.334-2.53 6.038-2.222 16.138-4.242 27.512-5.502 7.938-.879 19.62-4.236 22.39-6.435.95-.753 5.45-1.563 10-1.8 8.569-.447 23.126-3.188 28.943-5.45 1.834-.713 6.572-1.354 10.53-1.425 3.957-.071 7.827-.76 8.6-1.533.772-.773 4.184-1.405 7.581-1.405 3.398 0 6.63-.45 7.181-1 .552-.55 2.902-1.08 5.222-1.178 15.9-.671 25.475-1.935 27.384-3.615 1.35-1.188 5.437-1.974 10.836-2.082 14.08-.283 23.1-1.182 27.093-2.7 2.06-.784 7.758-1.43 12.66-1.436 4.902-.01 16.413-.937 25.58-2.067 9.167-1.13 18.467-2.255 20.667-2.5 2.2-.244 13.9-.848 26-1.342 12.1-.494 25.3-1.22 29.333-1.613 4.033-.394 8.683-.63 10.333-.527 3.553.223 11.93.25 31 .096 7.7-.062 16.7.367 20 .953 5.769 1.023 16.424.266 22-1.563 1.859-.61 5.09.718 10.667 4.384 14.409 9.473 24.667 23.285 24.667 33.215 0 3.395-1.066 5.567-4.142 8.44-2.277 2.128-4.972 3.868-5.988 3.868s-2.603 1.267-3.526 2.815c-1.952 3.274-11.636 7.831-16.788 7.9-1.956.025-4.998.845-6.76 1.822-1.76.976-4.314 1.484-5.673 1.128-1.36-.355-3.32.058-4.357.919-1.037.86-5.983 1.72-10.992 1.91-5.01.19-10.308.981-11.774 1.759-3.41 1.808-18.58 4.414-25.698 4.414-3.013 0-5.887.66-6.386 1.468-.5.808-2.543 1.14-4.55.739-2.004-.401-4.211-.162-4.905.531-1.095 1.096-6.024 1.768-23.795 3.246-2.2.183-6.564 1.039-9.697 1.901-3.134.862-6.271 1.213-6.973.78-.7-.434-2.53-.116-4.064.704-4.882 2.613-17.783 5.457-21.042 4.64-1.73-.435-3.838-.237-4.685.44-.846.676-4.839 1.85-8.872 2.61-4.033.76-12.22 2.635-18.194 4.167-10.957 2.812-17.727 3.856-31.14 4.804-4.033.285-11.833 1.67-17.333 3.077-5.5 1.408-14.5 3.327-20 4.265-5.5.938-10.57 2.213-11.266 2.833-.697.62-3.097 1.132-5.334 1.137-2.236 0-5.6.808-7.473 1.786-1.873.977-6.867 2.184-11.098 2.681-8.323.978-16.778 3.993-18.443 6.576-1.292 2.004.02 20.008 1.906 26.17.767 2.504 3.265 6.475 5.551 8.823 6.81 6.994 8.415 9.311 14.006 20.213 5.129 10.002 5.325 10.852 5.015 21.742-.328 11.508-.677 12.522-8.066 23.483-3.877 5.75-22.968 25.85-24.553 25.85-1.843 0-9.578 7.444-9.578 9.218 0 1.633 9.394.774 14-1.28 1.467-.654 7.167-2.064 12.667-3.133 5.5-1.068 13.3-2.927 17.333-4.13 4.033-1.204 10.933-2.675 15.333-3.271 4.4-.596 11.48-2.055 15.732-3.243 4.252-1.188 9.226-2.16 11.053-2.16s5.726-1.227 8.665-2.726c2.938-1.5 9.064-3.233 13.613-3.854 10.376-1.415 33.423-6.526 39.604-8.783 2.567-.937 10.667-2.759 18-4.049 19.3-3.394 34.167-7.15 49.333-12.465 2.2-.77 6.876-1.754 10.39-2.186 4.402-.54 7.767-1.993 10.818-4.672 3.907-3.431 5.743-3.98 15.61-4.676l11.182-.787 3.7 5.358c4.714 6.827 7.634 15.1 7.634 21.632 0 4.019.433 4.958 2.01 4.353 1.427-.548 2.733.915 4.502 5.042 3.694 8.615 4.4 13.95 2.098 15.86-1.07.887-1.944 2.67-1.944 3.964 0 1.293-.896 4.07-1.992 6.17-1.095 2.1-1.995 3.033-2 2.073-.015-3.033-2.433-.389-3.314 3.623-.853 3.883-6.027 9.89-6.027 6.996 0-.847-.9-1.54-2-1.54s-2 .924-2 2.052c0 3.267-9.505 11.983-17.412 15.968-3.99 2.01-8.755 4.694-10.588 5.964-1.833 1.269-6.633 3.38-10.667 4.69-4.033 1.31-11.144 4.115-15.802 6.234-4.658 2.119-9.48 3.531-10.718 3.139-1.236-.393-4.602.486-7.48 1.953-2.876 1.467-6.106 2.667-7.177 2.667-1.07 0-3.064 1.012-4.43 2.248-1.367 1.237-4.92 2.367-7.896 2.51-3.254.159-7.572 1.678-10.833 3.814-2.983 1.952-6.288 3.218-7.344 2.812-1.057-.405-4.112.469-6.788 1.943-2.676 1.473-10.565 4.166-17.532 5.983-6.966 1.817-15.966 4.267-20 5.445-4.033 1.177-9.733 2.723-12.666 3.434-2.934.711-7.206 2.393-9.494 3.738-2.553 1.5-4.853 2.016-5.955 1.335-1.023-.633-2.528-.502-3.5.305-.937.778-2.878 1.107-4.314.732-1.435-.376-2.788-.269-3.007.237-.455 1.054-24.56 6.931-32.072 7.82-2.755.326-5.34 1.129-5.746 1.785-.405.655-2.54 1.192-4.746 1.192-2.204 0-5.258.669-6.784 1.486-2.509 1.342-7.43 2.14-19.05 3.09-5.154.422-11.598 2.145-13.458 3.599-.802.627-4.702 1.23-8.667 1.338-3.964.11-9.907 1.085-13.207 2.168-3.3 1.083-9.843 2.17-14.538 2.416-4.696.245-9.166 1.074-9.934 1.841-.767.768-4.236 1.395-7.708 1.395-3.473 0-8.003.66-10.067 1.465s-7.653 1.567-12.42 1.692c-4.767.126-9.366.671-10.222 1.212-.855.541-3.242.342-5.305-.442-2.644-1.005-3.89-1.008-4.223-.013-.26.779-1.772 1.407-3.361 1.396-2.387-.017-2.542-.258-.89-1.388zm-1528.667-7.57c-2.933-.235-6.533-.96-8-1.61-2.967-1.318-13.308-4.097-17.148-4.608-1.365-.182-3.044-1.338-3.733-2.568-.688-1.23-2.348-2.236-3.689-2.236-1.34 0-3.164-.877-4.054-1.948-.889-1.072-2.9-2.356-4.47-2.855-3.608-1.144-9.649-5.46-14.278-10.197-1.971-2.017-4.14-3.667-4.821-3.667-1.213 0-9.788-10.703-13.875-17.319-2.46-3.98-7.311-17.451-8.649-24.014-.523-2.567-1.626-5.108-2.45-5.646-1.064-.695-1.015-.986.167-1 .917-.011 1.667-.847 1.667-1.857s.922-2.603 2.05-3.538c1.692-1.405 3.262-1.145 9 1.489 3.822 1.754 7.43 3.946 8.016 4.87.586.925 1.98 1.682 3.095 1.682 1.116 0 2.93.9 4.03 2s3.121 2 4.492 2 2.825.537 3.23 1.193c.432.7 3.04.676 6.299-.056 3.67-.824 5.846-.788 6.4.107 1.267 2.052 4.053 2.135 30.054.9 13.2-.627 33-1.357 44-1.621 18.633-.448 33.696-2.005 40-4.133 1.467-.496 3.753-.742 5.08-.548 1.327.194 3.159-.266 4.07-1.023.982-.814 6.67-1.164 13.951-.859 8.885.374 13.302-.01 15.93-1.38 2-1.043 7.266-1.9 11.703-1.905 4.436 0 8.645-.586 9.351-1.293.707-.706 4.877-1.697 9.267-2.202 4.39-.504 8.282-1.347 8.648-1.872.699-1.001 10.689-3.16 25.315-5.47 4.756-.752 9.256-1.863 10-2.47.744-.608 6.152-1.81 12.019-2.673 16.427-2.416 22.208-3.626 28-5.857 2.933-1.13 7.45-2.08 10.036-2.113 2.587-.032 6.103-1.038 7.813-2.236 2.87-2.01 19.953-5.73 26.15-5.695 4.756.027 21.208-2.554 26-4.078 2.567-.817 9.33-2.037 15.03-2.712 5.7-.675 11.683-2.152 13.297-3.282 1.614-1.13 4-2.055 5.304-2.055 1.303 0 2.37-.52 2.37-1.154 0-.635 4.05-1.525 9-1.978 14.477-1.325 36.814-4.428 39.198-5.445 1.21-.516 2.6-.288 3.092.508.492.795 1.423 1.119 2.068.72 2.154-1.331 3.982 4.433 3.253 10.26-.89 7.116-4.578 15.756-6.725 15.756-1.754 0-3.22 2.945-3.22 6.471 0 1.24-1.695 4.34-3.767 6.891-2.072 2.55-4.153 5.688-4.625 6.97-.471 1.284-2.116 2.334-3.653 2.334-4.474 0-7.955 2.519-7.955 5.756 0 2.407-1.2 3.35-6.111 4.8-3.362.992-7.728 3.164-9.703 4.826-1.976 1.662-6.047 3.683-9.048 4.491-3 .808-6.925 2.625-8.72 4.037-1.796 1.413-7.868 3.437-13.493 4.5-5.626 1.062-11.585 2.815-13.243 3.896-4.607 3.004-23.843 9.298-29.682 9.713-.733.052-4.633 1.772-8.666 3.822-6.51 3.31-13.198 5.176-38 10.605-3.667.803-6.981 1.897-7.366 2.431-.707.984-6.106 2.368-20.634 5.29-4.4.885-8.573 1.92-9.273 2.302-.7.38-3.1.877-5.334 1.102-2.233.225-6.16 1.285-8.727 2.356-2.566 1.07-11.47 3.203-19.785 4.74-8.316 1.536-16.344 3.514-17.841 4.396-2.142 1.262-2.851 1.247-3.328-.07-.334-.922-1.014-1.424-1.513-1.116-.498.308-5.493.938-11.099 1.4-5.606.462-12.197 1.46-14.646 2.218-4.116 1.272-94.262 2.558-107.12 1.528zm87.098-99.638c-4.896-.761-9.346-1.834-9.889-2.384-.542-.55-2.26-1-3.815-1-1.555 0-4.905-1.776-7.444-3.946-2.54-2.17-5.265-3.97-6.057-4-1.888-.07-15.226-12.348-15.226-14.015 0-.708-1.444-2.528-3.208-4.044-3.332-2.863-8.778-17.21-8.812-23.215-.01-1.896-.9-5.975-1.976-9.064-1.122-3.22-1.605-7.38-1.131-9.747 1.082-5.414-1.77-10.954-5.098-9.898-2.042.648-25.879.866-37.109.34-1.833-.086-6.033-.037-9.333.109-7.294.323-28.311-4.21-32.626-7.037-1.72-1.127-6.032-2.78-9.583-3.675-8.302-2.09-14.588-5.677-25.401-14.495-.886-.722-2.125-1.313-2.753-1.313-.629 0-2.167-1.95-3.42-4.333-1.251-2.384-3.436-6.144-4.855-8.357-3.697-5.769-4.403-25.776-1.029-29.16 1.284-1.288 2.334-3.104 2.334-4.038 0-3.686 6.02-8.779 10.376-8.779 2.36 0 4.29.589 4.29 1.308 0 .72 1.65 1.711 3.667 2.204 2.017.492 5.028 1.949 6.692 3.237 4.139 3.204 14.156 4.322 22.975 2.566 14.774-2.944 34.281-5.632 45.263-6.237 7.078-.391 11.785-1.277 12.667-2.384 1.814-2.278 14.545-5.822 21.403-5.959 5.82-.115 22.667-1.165 22.667-1.411 0-.084 4.045-.369 8.989-.632 5.886-.314 9.716-1.207 11.095-2.586 1.159-1.158 3.113-2.171 4.344-2.252 1.231-.08 4.038-.344 6.238-.586s7-.727 10.667-1.078c3.667-.35 9.967-1.344 14-2.208 4.033-.864 15.208-1.752 24.833-1.973 9.777-.225 18.758-1.076 20.352-1.93 2.01-1.075 4.911-1.152 9.82-.26 3.866.703 7.905.765 9.073.14 1.158-.62 3.994-1.074 6.301-1.008 2.308.066 5.135-.66 6.283-1.613 1.565-1.299 5.348-1.52 15.1-.88 10.105.662 13.61.433 15.689-1.023 1.849-1.295 7.403-1.969 17.946-2.177 8.594-.17 17.86-1.125 21.194-2.184 6.02-1.914 33.805-2.742 42.469-1.267 2.416.412 5.788.218 7.492-.43 2.352-.894 4.077-.483 7.16 1.707 4.34 3.084 5.524 7.82 5.833 23.338.122 6.16-.386 7.643-3.886 11.333-2.215 2.335-4.964 6.106-6.108 8.38-2.256 4.484-10.708 12.532-13.159 12.532-.833 0-2.51.9-3.725 2-1.215 1.099-3.962 2.218-6.104 2.485-2.143.268-8.696 2.142-14.563 4.166-6.235 2.15-13.99 3.78-18.667 3.924-4.4.135-10.232 1.223-12.96 2.417-2.729 1.195-8.579 2.352-13 2.57-4.422.22-8.04.843-8.04 1.384 0 2.885-17.595 7.01-28.307 6.637-3.462-.12-4.085 2.01-1.408 4.814 2.532 2.652 4.959 6.465 8.197 12.882 1.096 2.17 2.255 8.5 2.578 14.07.519 8.96.182 10.92-2.926 17.054-1.931 3.812-3.952 6.931-4.49 6.932-.537.001-2.777 3.962-4.977 8.802-3.19 7.017-5.013 9.319-9 11.359-3.659 1.872-5 3.409-5 5.73 0 2.508-1.602 4.005-7.667 7.165-4.216 2.198-10.934 6.197-14.927 8.888-3.994 2.69-8.956 5.231-11.028 5.645-2.072.415-4.09 1.276-4.484 1.915-.395.638-2.17 1.16-3.946 1.16-1.775 0-5.49.854-8.254 1.897-6.677 2.52-21.588 3.2-32.596 1.488zm443.158-255.414c-7.099-1.034-8.73-1.99-17.834-10.444-3.617-3.359-5.312-6.356-6.434-11.377-2.322-10.391-3.817-13.522-7.906-16.545-2.063-1.525-4.173-4.46-4.687-6.522-.515-2.062-1.713-4.649-2.663-5.749-.95-1.1-2.404-4.1-3.23-6.666-.853-2.655-3.257-5.817-5.574-7.334-2.24-1.466-6.24-5.666-8.887-9.333-2.647-3.667-7.137-9.115-9.977-12.108-2.84-2.992-6.177-6.892-7.417-8.666-1.24-1.775-3.767-4.732-5.617-6.573-1.85-1.841-4.21-4.981-5.243-6.978-1.034-1.997-2.982-3.98-4.328-4.408-1.346-.427-6.5-5.355-11.453-10.951-4.953-5.596-12.306-13.2-16.34-16.897-4.032-3.698-12.432-11.66-18.666-17.696-6.233-6.035-13.837-12.762-16.896-14.948-3.06-2.186-6.06-4.805-6.667-5.82-.607-1.015-5.903-5.064-11.77-8.998-9.813-6.58-17.51-12.132-25.956-18.724-1.81-1.411-4.07-2.566-5.025-2.566-2.127 0-16.113-7.37-19.078-10.053-1.183-1.071-3.754-1.947-5.713-1.947s-3.562-.505-3.562-1.123c0-.617-2.373-1.833-5.273-2.702-2.9-.87-6.217-2.523-7.37-3.676-1.153-1.153-4.62-2.435-7.706-2.849-3.085-.414-6.41-1.553-7.39-2.533-.98-.979-3.388-2.121-5.354-2.538-1.965-.417-8.373-1.914-14.24-3.327-5.867-1.413-15.167-2.723-20.667-2.91-10.317-.353-35.748 1.345-37.636 2.512-.587.362-4.209.905-8.049 1.207-3.84.3-10.281 1.507-14.315 2.68-4.033 1.174-9.283 2.452-11.666 2.842-2.384.39-4.334 1.175-4.334 1.744 0 .57-2.85 1.438-6.333 1.929-3.483.49-9.786 2.059-14.005 3.485-4.22 1.425-8.834 2.592-10.255 2.592-1.42 0-2.953.6-3.407 1.333-.453.734-1.799 1.334-2.99 1.334-1.192 0-4.607 1.122-7.589 2.494-2.981 1.372-8.87 3.528-13.085 4.79-4.215 1.263-8.003 2.843-8.416 3.513-.414.67-3.41 1.117-6.66.994-3.674-.139-6.792.549-8.25 1.819-2.354 2.051-6.36 3.29-15.01 4.643-2.566.401-5.266 1.18-6 1.73-1.53 1.15-11.023 4.357-14 4.73-2.273.284-4.57 1.054-14.025 4.704-3.681 1.42-7.438 2.583-8.348 2.583-.91 0-4.5 1.248-7.974 2.774-12.292 5.399-14.4 6.21-22.32 8.598-4.4 1.326-8.975 2.285-10.168 2.13-1.193-.155-2.492.56-2.886 1.586-.394 1.027-3.228 2.27-6.296 2.76-3.07.49-6.464 1.775-7.543 2.855-1.08 1.08-3.294 1.963-4.92 1.963-1.625 0-5.31 1.2-8.186 2.667-2.877 1.467-6.554 2.667-8.171 2.667-1.617 0-3.151.632-3.409 1.404-.257.773-2.557 1.627-5.11 1.897-8.95.949-22.061 3.384-31.31 5.814-6.499 1.708-9.62 2.016-10.278 1.013-.66-1.006-1.442-.942-2.6.216-.91.91-3.036 1.656-4.722 1.656-2.405 0-3.067-.74-3.067-3.429 0-3.867 2.76-7.238 5.923-7.238 2.362 0 6.546-2.22 10.431-5.533a438.73 438.73 0 0 1 4.112-3.467c1.01-.834 2.03-.586 2.993.73 1.27 1.737 2.307 1.567 8-1.312 3.598-1.82 10.741-4.697 15.874-6.395 5.134-1.697 15.188-5.697 22.342-8.888 7.155-3.19 14.008-5.802 15.229-5.802 1.22 0 3.167-.776 4.324-1.724 1.158-.948 4.505-2.507 7.439-3.464 8.474-2.765 15.333-5.904 15.333-7.017 0-.564 2.55-1.674 5.667-2.466 3.116-.792 6.866-1.98 8.333-2.64 1.467-.66 4.767-1.61 7.333-2.11 2.567-.5 6.26-2.036 8.206-3.411 1.947-1.376 4.721-2.501 6.166-2.501 1.445 0 4.952-.81 7.794-1.8 2.842-.99 5.855-1.562 6.696-1.269.84.293 3.54-.695 6-2.195s6.386-2.728 8.726-2.731c2.34 0 4.626-.605 5.08-1.338.452-.734 3.073-1.334 5.823-1.334 2.75 0 6.164-.88 7.588-1.957 1.423-1.077 4.097-1.977 5.941-2 1.844-.023 5.62-1.258 8.391-2.743 2.77-1.485 7.712-3.066 10.98-3.514 3.269-.448 5.943-1.258 5.943-1.8s4.35-2.311 9.666-3.932c5.317-1.621 10.939-3.448 12.493-4.06 1.555-.611 5.755-1.525 9.334-2.03 3.579-.506 7.836-1.754 9.46-2.775 1.624-1.02 4.474-1.855 6.333-1.855 1.86 0 3.38-.487 3.38-1.082 0-1.01 21.547-6.049 32-7.484 8.878-1.22 14.007-2.441 15.613-3.72.886-.706 3.332-.906 5.435-.444 2.102.462 5.36.255 7.238-.459 6.08-2.311 23.232-1.853 45.048 1.205 19.561 2.742 26.991 4.062 29.105 5.174 1.226.644 5.828 1.95 10.228 2.902 4.4.952 9.2 2.463 10.667 3.358 1.466.894 5.213 2.037 8.326 2.537 3.113.501 5.998 1.46 6.412 2.129.414.67 1.85 1.217 3.19 1.217 1.342 0 5.492 2.1 9.223 4.667 3.732 2.566 7.306 4.666 7.943 4.666.637 0 2.901 1.5 5.032 3.332 2.13 1.832 4.368 3.332 4.971 3.333.604.001 3.304 2.508 6 5.572 6.068 6.893 7.65 8.417 15.672 15.097 3.522 2.933 9.952 8.617 14.288 12.631 4.337 4.014 9.473 8.284 11.414 9.49 1.94 1.204 4.983 3.77 6.761 5.701 1.778 1.931 4.028 3.51 5 3.51.972 0 2.861 1.05 4.197 2.334 6.839 6.568 12.317 11 13.596 11 .786 0 2.804 1.374 4.483 3.054 1.68 1.68 6.153 5.042 9.94 7.472 3.787 2.43 6.885 4.987 6.885 5.681 0 .695 2.25 2.199 5 3.343 2.75 1.144 8.453 5.614 12.674 9.932 4.22 4.318 8.253 7.852 8.96 7.852.707 0 2.617 1.8 4.244 4 1.626 2.2 3.47 4 4.098 4 2.703 0 29.024 23.93 29.024 26.387 0 .326 5.933 6.415 13.185 13.531 7.251 7.116 14.458 15.295 16.014 18.176a982.612 982.612 0 0 0 3.941 7.239c2.936 5.28 4.194 8.081 4.194 9.344 0 .759 1.518 3.675 3.375 6.48 3.074 4.645 3.32 6.042 2.762 15.638-.589 10.125-3.146 17.99-6.555 20.158-2.446 1.556-14.645 5.733-16.198 5.547-.761-.091-4.57-.63-8.462-1.197z" style="fill:#000;stroke-width:1.33333"/>
</svg>
