<svg xmlns="http://www.w3.org/2000/svg" xml:space="preserve" width="210mm" height="297mm" viewBox="0 0 210 297">
  <path d="M185.978 282.502c-.003-.122-.793-.774-.937-.774-.04 0-.14-.068-.222-.15a.625.625 0 0 0-.386-.15c-.147 0-.26-.074-.299-.197-.034-.109-.164-.278-.289-.376-.125-.098-.21-.23-.188-.293.02-.064-.058-.146-.174-.183-.136-.044-.192-.122-.155-.218.036-.096-.015-.169-.143-.202-.11-.029-.2-.081-.201-.116-.001-.035-.17-.25-.375-.48a9.39 9.39 0 0 1-.554-.676c-.1-.143-.223-.234-.275-.202-.051.032-.094-.004-.094-.08 0-.142-.438-.573-.582-.573-.045 0-.214-.16-.374-.355-.16-.195-.463-.544-.673-.774-.209-.23-.6-.666-.869-.968a172.093 172.093 0 0 0-2.784-3.059 16.25 16.25 0 0 1-1.204-1.448c-.485-.697-.568-.803-.946-1.214a3.079 3.079 0 0 1-.37-.493 2.53 2.53 0 0 0-.203-.323 43.408 43.408 0 0 1-.654-.896l-.898-1.248a5.319 5.319 0 0 1-.422-.665c-.05-.114-.32-.457-.6-.763-.279-.307-.508-.604-.508-.66 0-.057-.11-.236-.246-.397-.136-.16-.41-.602-.608-.981s-.415-.734-.481-.789c-.148-.123-.476-.671-.973-1.627-.209-.401-.516-.902-.684-1.114-.167-.211-.304-.416-.304-.454 0-.039-.065-.212-.144-.385-.334-.734-.767-1.631-.9-1.863-.239-.42-.73-1.527-.853-1.923-.064-.206-.158-.375-.209-.375-.05 0-.092-.05-.092-.112 0-.103-.528-1.502-.844-2.235a17.22 17.22 0 0 1-.8-2.447c-.179-.77-.434-1.571-.557-1.748-.12-.173-.356-1.444-.603-3.236-.056-.407-.167-.833-.247-.947-.08-.114-.145-.404-.145-.646 0-.241-.065-.647-.144-.901-.165-.53-.355-1.747-.355-2.269 0-.195-.038-.33-.083-.303-.046.029-.042-.227.007-.568.05-.34.06-1.047.023-1.568-.094-1.303-.098-4.258-.007-4.745.058-.314.049-.368-.043-.25-.097.125-.105.117-.048-.05.038-.11.09-.47.118-.799.027-.33.11-.734.185-.899a9.65 9.65 0 0 0 .303-.826c.092-.29.298-.667.457-.837.244-.261.338-.3.611-.247.414.078.832.564.911 1.06.034.21.151.593.261.85.11.256.2.592.2.745 0 .154.068.441.15.638.083.197.15.509.15.693 0 .183.063.42.14.524.126.172.146.123.213-.505.05-.475.15-.807.31-1.044.13-.191.237-.416.239-.5 0-.083.084-.398.185-.7.1-.303.215-.768.255-1.034.04-.266.098-.457.13-.425.032.032.117.01.19-.05.094-.08.114-.27.071-.681-.056-.538-.041-.593.253-.928a1.5 1.5 0 0 0 .376-.82c.04-.292.129-.5.238-.559.095-.05.203-.247.238-.436.035-.188.125-.366.2-.394.074-.029.19-.291.259-.584.068-.293.225-.645.349-.782a1.47 1.47 0 0 0 .291-.621c.037-.205.12-.407.187-.45.174-.112.498-.602.764-1.159.13-.27.33-.518.454-.566.138-.052.247-.2.284-.388a.641.641 0 0 1 .349-.452c.34-.176 1.217-1.17 1.217-1.378 0-.044.066-.08.146-.08.08 0 .194-.09.253-.199.058-.11.139-.188.178-.176.04.013.254-.156.476-.376.347-.342 1.247-1.162 2.384-2.17.66-.586 1.4-1.174 1.475-1.174.044 0 .339-.225.655-.5l.75-.649c.097-.082.21-.15.25-.15.042 0 .233-.138.425-.307a6.93 6.93 0 0 1 .6-.471 5.2 5.2 0 0 0 .449-.337c.74-.639 1.168-.979 1.461-1.161.185-.115.394-.304.465-.42.07-.114.168-.184.217-.153.049.03.247-.137.44-.371.193-.234.533-.538.756-.674.224-.137.406-.281.406-.32 0-.04.203-.322.45-.625a9.03 9.03 0 0 0 .807-1.228c.196-.371.438-.765.537-.875.099-.11.239-.436.31-.724.073-.289.182-.525.243-.525.15 0 .315-1.247.307-2.322-.004-.48.03-.874.076-.874.107 0 .024-5.266-.12-7.741-.156-2.659-.28-13.045-.158-13.241.02-.034.065-.574.1-1.201.035-.627.105-1.41.156-1.74.052-.33.119-.778.149-.996.03-.219.092-.578.138-.8.16-.775.29-1.507.402-2.249.061-.412.155-.974.208-1.249.053-.274.141-.859.196-1.298.055-.44.144-.957.197-1.149.053-.192.099-.62.102-.949.003-.33.048-.801.1-1.049.054-.247.163-.943.244-1.548.186-1.393.4-2.617.606-3.446.088-.357.206-.896.263-1.198.057-.303.143-.593.192-.645.05-.052.09-.193.09-.313 0-.223.153-.806.502-1.908.108-.34.196-.706.196-.813 0-.107.067-.323.15-.48a1.55 1.55 0 0 0 .15-.599c0-.172.067-.368.15-.437a.465.465 0 0 0 .15-.313c0-.104.042-.267.095-.362.052-.096.209-.668.348-1.272.14-.605.349-1.481.465-1.948.116-.467.253-1.164.304-1.548.05-.385.14-.924.196-1.199.09-.435.142-1.14.328-4.463.02-.367 0-1.042-.046-1.498a50.367 50.367 0 0 1-.144-1.98c-.033-.632-.1-1.283-.151-1.448-.05-.165-.16-.84-.242-1.499a32.162 32.162 0 0 0-.445-2.746c-.05-.248-.158-.81-.242-1.249-.084-.44-.24-1.091-.347-1.448a50.085 50.085 0 0 1-.414-1.499 61.463 61.463 0 0 0-.802-2.647c-.972-2.993-1.205-4.762-.932-7.092.264-2.251.477-3.49.635-3.695.042-.055.109-.325.148-.6.04-.274.114-.58.166-.678.05-.1.182-.504.292-.9.11-.395.284-1.011.388-1.368.104-.357.272-.942.373-1.299.101-.357.234-.739.294-.849.06-.11.205-.56.322-.999.188-.706.278-.97.614-1.798.186-.456.614-1.82.66-2.097.026-.165.09-.39.14-.5.218-.474.623-1.763.8-2.547.105-.467.254-1.006.33-1.198.077-.193.192-.665.256-1.05.064-.384.249-1.454.41-2.377.278-1.586.292-1.797.252-3.796-.023-1.164-.087-2.476-.141-2.916-.054-.44-.147-1.248-.206-1.798a183.9 183.9 0 0 0-.254-2.197c-.352-2.878-.393-3.697-.398-7.941-.006-4.62.096-8.037.257-8.558.057-.185.074-.956.04-1.848-.03-.842-.076-2.385-.1-3.428-.05-2.217-.264-4.371-.616-6.193-.32-1.658-.615-2.684-1.362-4.739-.775-2.13-.774-2.129-1.164-2.953a52.384 52.384 0 0 1-.504-1.098 28.66 28.66 0 0 0-1.254-2.497 17.89 17.89 0 0 1-.56-1.05 4.282 4.282 0 0 0-.198-.399 4.013 4.013 0 0 1-.188-.378c-.147-.342-1.188-2.093-1.331-2.24-.174-.18-.767-1.161-.767-1.27a.143.143 0 0 0-.085-.124c-.047-.018-.204-.213-.35-.433-.585-.884-.959-1.41-1.156-1.626-.114-.126-.207-.266-.207-.313 0-.154-2.217-2.834-2.747-3.32-.729-.667-1.049-.983-1.049-1.036 0-.142-2.875-2.838-3.171-2.973-.124-.057-.225-.135-.225-.174 0-.039-.19-.195-.424-.348a5.325 5.325 0 0 1-.661-.511c-.384-.378-1.37-1.093-2.211-1.606a5.371 5.371 0 0 1-.643-.45c-.107-.098-.236-.178-.288-.178-.051 0-.346-.171-.655-.38a8.74 8.74 0 0 0-.932-.552c-.204-.095-.394-.211-.424-.259-.029-.047-.172-.116-.317-.152a2.052 2.052 0 0 1-.585-.31c-.176-.135-.345-.245-.376-.245-.031 0-.713-.315-1.517-.7-.803-.384-1.5-.699-1.55-.699-.099 0-1.451-.521-1.998-.77a6.732 6.732 0 0 0-.8-.285 34.59 34.59 0 0 1-2.38-.808 1.864 1.864 0 0 0-.565-.134c-.131 0-.256-.054-.278-.12-.024-.07-.319-.135-.732-.16-.382-.022-.736-.081-.788-.13-.052-.05-.187-.092-.3-.094-.112-.002-.384-.072-.604-.154-.22-.082-.714-.217-1.099-.3a80.604 80.604 0 0 1-1.548-.342 16.674 16.674 0 0 0-.999-.189l-1.249-.193c-1.675-.26-2.6-.344-4.16-.376a63.263 63.263 0 0 1-1.748-.049.575.575 0 0 0-.185.007c-.055.012-1.088.03-2.297.04-2.148.02-4.643.168-6.143.366-.412.054-1.244.12-1.848.147a21.14 21.14 0 0 0-1.748.146c-1.425.215-8.255.292-9.589.107-.467-.064-1.164-.16-1.548-.21-.385-.052-1.014-.14-1.399-.196a47.45 47.45 0 0 0-1.498-.189c-.879-.094-3.65-.617-4.595-.867-.33-.087-.832-.195-1.118-.24-.285-.045-.568-.113-.63-.15-.06-.038-.299-.09-.53-.115-.23-.025-.846-.13-1.367-.232a26.882 26.882 0 0 0-1.549-.258c-.33-.04-1-.2-1.49-.355a12.583 12.583 0 0 0-1.649-.391 28.28 28.28 0 0 1-1.693-.316 24.241 24.241 0 0 0-2.111-.336c-.647-.07-1.313-.2-1.481-.287-.168-.087-.501-.158-.74-.158-.24 0-.485-.05-.546-.112-.062-.061-.374-.127-.695-.147-.607-.036-1.788-.184-2.73-.34-.302-.05-1.133-.119-1.848-.152-1.647-.078-1.94-.107-2.247-.225-.138-.053-.492-.064-.79-.025a3.82 3.82 0 0 1-.99-.014c-.247-.046-1.127-.086-1.957-.089-1.952-.006-3.131-.05-3.505-.128-.384-.082-2.956-.191-3.995-.17l-7.242.151c-1.181.026-2.327.07-2.547.097-.797.1-2.24.168-4.295.204-1.154.02-2.412.063-2.797.095-.385.031-1.62.074-2.747.095-4.91.09-7.428.172-8.64.28-.714.064-1.41.11-1.548.105-.5-.023-2.664.194-3.316.333a6.742 6.742 0 0 1-1.112.142c-.277 0-.49.057-.57.154-.07.085-.244.143-.387.13-.51-.049-1.8.227-2.856.611-.33.12-.777.238-.994.262-.217.024-.419.078-.45.12-.03.04-.279.132-.554.203-.274.071-.622.19-.773.265-.15.075-.42.165-.599.2-.18.035-.415.1-.525.144-.297.12-.856.283-1.224.358-.179.036-.325.105-.325.153s-.168.117-.374.153c-.206.036-.626.188-.934.338a8.13 8.13 0 0 1-1.034.414c-.26.077-.516.219-.568.315-.051.096-.163.175-.25.175-.085 0-.274.082-.42.183-.146.1-.524.286-.841.412-.317.126-.725.347-.907.491a4.662 4.662 0 0 1-.722.452c-.216.104-.46.228-.542.275-.082.047-.423.226-.757.398-.334.172-.694.441-.8.599-.105.157-.22.286-.256.286-.036 0-.35.181-.7.402-.348.22-.917.535-1.264.698-.378.177-.605.34-.565.404.037.06.006.098-.068.086-.201-.034-.467.104-.816.423-.172.157-.365.285-.43.285-.064 0-.26.135-.437.3-.177.164-.361.3-.41.3-.05 0-.09.044-.09.1 0 .054-.067.1-.15.1-.082 0-.15.034-.15.076 0 .043-.168.166-.374.275-.206.109-.454.296-.552.416-.097.12-.259.245-.358.277-.1.031-.241.169-.314.305-.073.137-.17.248-.216.248-.082 0-.214.102-.726.561-.146.131-.311.238-.367.238-.056 0-.345.248-.643.55-.297.302-.576.55-.62.55-.044 0-.258.177-.477.395-.218.218-.453.398-.521.4-.07.002-.125.043-.125.091 0 .134-.932 1.01-1.074 1.01a.126.126 0 0 0-.126.126c0 .069-.181.304-.402.524-.22.22-.456.46-.524.534a21.6 21.6 0 0 1-.376.4 5.29 5.29 0 0 0-.5.64c-.134.206-.323.4-.42.43-.096.032-.174.115-.174.185 0 .07-.094.212-.209.316-.208.188-.79 1.003-.79 1.105 0 .03-.233.368-.519.752-.285.383-.524.779-.531.88a.666.666 0 0 1-.181.349c-.092.092-.167.205-.167.253 0 .047-.06.145-.131.217-.072.073-.2.267-.286.432-.743 1.442-1.022 2.073-1.007 2.277.007.1-.054.207-.136.238-.106.041-.13.139-.086.344.035.158.024.287-.023.287-.078 0-.187.302-.693 1.907-.175.556-.204 4.026-.043 5.185.164 1.176.29 1.807.389 1.932.084.109.173.578.284 1.514.026.22.152.67.28 1 .128.329.263.733.3.898.038.165.126.435.197.6.12.278.203.557.452 1.523l.156.599c.033.124.102.225.154.225.05 0 .093.048.093.107s.067.174.15.257c.082.082.15.278.15.436 0 .158.038.31.086.34.047.03.14.268.207.53.1.395.403 1.085 1.12 2.549a.827.827 0 0 1 .085.27c0 .054.157.43.35.834.192.405.349.792.349.86 0 .067.225.593.5 1.168.274.575.499 1.113.499 1.196 0 .082.063.25.14.371.076.122.237.536.356.92.235.754.295.901.842 2.06.198.42.36.807.36.862 0 .055.067.156.15.225.082.068.15.205.15.305a.53.53 0 0 0 .141.322c.079.078.19.397.247.71.06.319.216.711.358.898.139.182.252.363.252.402 0 .095.517 1.194.591 1.258.072.062.694 1.318 1.1 2.223.167.37.366.674.443.674.078 0 .438-.139.801-.309.67-.313 1.13-.745 1.717-1.607.16-.237.342-.476.402-.531.16-.146.74-1.044.74-1.146 0-.047.16-.236.357-.42.196-.182.423-.457.503-.609.15-.283.363-.542 1.118-1.357.237-.255.517-.62.623-.813a7.84 7.84 0 0 1 .49-.75 7.86 7.86 0 0 0 .463-.698 6.3 6.3 0 0 1 .486-.7 6.15 6.15 0 0 0 .596-.968c.152-.313.31-.583.35-.6.06-.024.703-1.247 1.42-2.7a.885.885 0 0 0 .086-.322c0-.081.064-.295.142-.476.078-.18.212-.492.3-.692.086-.2.158-.45.158-.555 0-.104.046-.235.102-.292.057-.056.13-.331.163-.61.076-.642-.083-.884-1.145-1.744a18.21 18.21 0 0 1-.818-.686c-.028-.035-.23-.18-.45-.32a7.688 7.688 0 0 1-.849-.67c-.247-.228-.57-.478-.717-.557-.147-.078-.296-.233-.331-.343-.035-.11-.095-.201-.133-.201-.115 0-.95-.826-1.26-1.249a4.331 4.331 0 0 0-.364-.45c-.165-.12-.727-1.294-.86-1.796-.213-.813-.18-2.608.057-3.073.049-.096.226-.455.392-.798.439-.9 1.79-2.197 2.466-2.365.165-.04.561-.249.88-.462.32-.214.748-.416.95-.45.203-.034.631-.15.953-.257a6.53 6.53 0 0 1 1.048-.25c.455-.053 1.609-.287 2.92-.592.36-.083.732-.123.825-.087.093.035.224.019.292-.037.068-.056.349-.13.623-.166.622-.08 1.5-.215 2.348-.363.786-.136.789-.137 2.097-.283a28.325 28.325 0 0 0 1.548-.21c.275-.052.994-.103 1.599-.113.604-.01 1.233-.058 1.398-.105 1.014-.29 9.613-.386 13.934-.154 2.297.123 6.483.683 7.495 1.002.245.078.693.2.995.27.303.071.638.19.747.265a.85.85 0 0 0 .406.136c.114 0 .392.089.616.197.224.108.61.242.859.298.893.2 6.74 3.012 7.357 3.539a1.2 1.2 0 0 0 .308.185c.35.123 3.099 2.058 3.888 2.738.469.404 1.18 1.116 1.58 1.583.4.467.77.85.824.85.053 0 .096.047.096.106s.195.43.432.824c.238.395.463.8.5.9.037.1.225.42.418.712.319.48.35.59.337 1.183-.013.601-.041.68-.345.975-.319.31-.345.317-.77.21-.375-.095-1.018-.401-2.42-1.153-.164-.088-.376-.16-.47-.161-.202 0-1.722-.656-2.077-.895a8.13 8.13 0 0 0-.84-.443c-.325-.15-.775-.4-1-.555-.224-.155-.57-.372-.768-.484l-.6-.336a3.75 3.75 0 0 1-.388-.253c-.083-.065-.712-.407-1.399-.76a38.204 38.204 0 0 1-2.047-1.134c-.889-.547-1.09-.644-2.097-1.007a12.223 12.223 0 0 1-1.199-.51c-.636-.328-1.14-.513-1.41-.514-.21-.002-1.057-.337-1.736-.688-.493-.254-2.577-.813-3.03-.812-.119 0-.576-.108-1.016-.241-.44-.133-1.248-.34-1.798-.46a20.328 20.328 0 0 1-1.444-.364 5.144 5.144 0 0 0-.749-.185c-.724-.093-2.022-.361-2.252-.465-.137-.063-.454-.128-.703-.146-.25-.018-.902-.175-1.449-.349-.547-.173-1.241-.349-1.543-.39a6.256 6.256 0 0 1-.873-.177c-.177-.058-.657-.107-1.067-.109-.409-.002-.858-.032-.997-.067-.14-.035-.477-.007-.75.063-.508.13-.552.126-2.128-.22-.259-.057-.528-.066-.6-.02-.07.046-.735.134-1.476.196-.742.062-1.529.166-1.748.23-.22.065-.714.141-1.098.17-.384.028-.72.082-.749.119-.028.037-.388.084-.8.104-.412.02-.87.099-1.02.175a1.354 1.354 0 0 1-.509.138c-.254 0-.775.147-1.136.321-.12.058-.285.08-.366.049-.08-.031-.47.053-.865.186-.395.134-.757.243-.804.243-.047 0-.369.128-.715.285-.792.36-2.163.814-2.454.814-.122 0-.222.04-.222.088 0 .048-.191.14-.425.202a4.11 4.11 0 0 0-.774.309 5.138 5.138 0 0 1-.524.259c-.096.035-.175.104-.175.152 0 .049-.062.089-.137.089-.076 0-.193.066-.26.147-.068.081-.374.272-.682.425-.308.152-.64.355-.739.451-.099.097-.225.175-.28.175-.188 0-.1.41.138.63.13.12.703.601 1.273 1.068 1.164.953 2.036 1.818 2.454 2.433.154.228.337.473.406.546.068.073.124.22.124.326 0 .106.09.27.2.364.11.094.2.22.2.281 0 .06.132.257.293.438.16.18.414.581.563.892.148.31.348.721.444.913.096.193.322.934.502 1.647.296 1.17.318 1.357.227 1.898-.055.33-.108.893-.118 1.25a8.72 8.72 0 0 1-.126 1.198c-.139.707-.754 2.581-.941 2.869a1.03 1.03 0 0 0-.145.48c0 .143-.269.78-.598 1.418-.33.638-.685 1.388-.79 1.667-.226.599-.382.902-.673 1.309a4.24 4.24 0 0 0-.377.692c-.202.485-.793 1.402-1.162 1.804a6.686 6.686 0 0 0-.522.67 15.906 15.906 0 0 1-1.196 1.49 2.956 2.956 0 0 0-.35.513c-.096.18-.467.592-.824.918-.357.325-.747.684-.865.797a5.43 5.43 0 0 1-.35.31c-.535.408-1.04.803-1.083.845-.174.174-.608.336-.985.367-.241.02-.482.063-.534.096-.142.088-.014.474.322.972.164.243.298.507.298.587 0 .08.087.223.192.319.106.095.361.518.568.94.206.42.41.788.45.817.042.028.127.163.19.3.123.27.274.54.806 1.446.194.33.46.824.591 1.098.132.275.293.554.359.621.065.067.263.471.44.899.177.428.515 1.16.752 1.627.236.467.46.993.495 1.169.036.176.15.428.255.56.104.133.298.573.43.98.133.405.359.981.503 1.28.144.299.262.616.262.705 0 .089.157.552.35 1.028.192.477.35.96.35 1.072 0 .113.07.313.157.445.086.132.26.67.388 1.195.127.526.303 1.066.392 1.202.089.135.161.35.161.478 0 .127.09.408.2.624.11.215.2.525.2.688 0 .164.09.57.202.903.358 1.074.397 1.216.397 1.431 0 .117.049.242.109.28.06.036.084.158.055.27-.049.187.08 1.01.214 1.372.03.082.067.24.082.35.014.11.071.402.127.649.22.982.342 1.78.372 2.447.018.385.106 1.418.197 2.297.09.88.186 2.34.213 3.247.027.906.092 1.7.145 1.765.053.065.119.47.145.9.027.43.119 1.478.204 2.329.085.852.192 1.998.238 2.547.15 1.787.382 3.328.551 3.656.102.197.146.444.114.643-.03.183.008.438.087.59.076.148.13.344.12.437-.031.281.128 1.324.323 2.116.101.412.215.962.253 1.223.038.261.105.475.148.475.044 0 .1.213.126.474.105 1.068.743 2.611 1.408 3.406.2.238.363.48.363.535 0 .056.236.34.524.632a855.444 855.444 0 0 1 6.493 6.69c1.338 1.41 3.37 3.75 3.37 3.882 0 .029.112.172.247.318.208.224.81 1.173.942 1.486.021.05.183.28.358.51.176.23.491.728.702 1.106.21.379.42.703.465.722a.144.144 0 0 1 .084.124c0 .05.201.52.448 1.044.247.525.48 1.076.516 1.225.037.148.173.468.3.71.129.241.234.517.234.612 0 .096.067.303.149.46.082.157.15.385.15.505s.046.247.1.28c.056.035.094.255.085.49-.009.236.02.486.063.556.117.189.161 4.78.047 4.85-.052.033-.095.204-.095.38 0 .177-.093.657-.207 1.068-.114.411-.209 1.033-.211 1.381-.003.48-.062.735-.241 1.049-.13.228-.238.52-.238.649-.001.129-.092.348-.201.488-.11.14-.2.363-.2.497 0 .133-.04.318-.088.41-.048.093-.112.401-.141.685-.05.47-.21.952-.492 1.477-.058.107-.184.512-.28.899-.162.656-.378 1.3-.89 2.65-.113.301-.207.695-.207.874 0 .18-.035.326-.077.326-.087 0-.322.934-.322 1.278 0 .123-.041.301-.091.397-.05.095-.185.555-.3 1.022a43.51 43.51 0 0 1-.368 1.398 6.476 6.476 0 0 0-.19.879 6.51 6.51 0 0 1-.183.849c-.232.808-.38 1.477-.438 1.968-.028.247-.1.48-.159.517-.06.037-.141.352-.183.7-.1.838-.157 1.161-.282 1.58-.134.448-.14 4.395-.006 4.395.053 0 .073.124.043.275-.055.279.347 2.434.551 2.96.062.158.157.486.211.728.086.38.499 1.18.688 1.331.035.027.151.252.259.5.107.247.316.63.464.852.148.222.302.534.342.694.04.16.194.472.343.695.464.695.638.962.947 1.455.165.263.49.756.724 1.095.234.339.425.65.425.69 0 .041.078.162.174.268.097.107.464.576.817 1.043.354.467.86 1.128 1.124 1.47.265.342.482.659.482.704 0 .046.354.469.787.94.432.472.803.896.824.944.048.114.653.536.766.536.05 0 .172.092.274.205.101.112.398.32.659.462.26.142.497.32.526.395.03.075.358.286.73.469.373.183.99.525 1.37.76.381.235 1.078.63 1.549.879.47.248 1.395.8 2.054 1.227.66.426 1.37.83 1.58.896.21.067.406.184.435.261.03.077.116.14.193.14s.14.045.14.1c0 .055.063.1.14.1.078 0 .157.044.175.098.019.055.27.182.56.284.29.102.626.276.749.387.123.11.628.37 1.122.577l1.199.502c.76.32 1.004.382 1.455.372.266-.006.573-.059.681-.117.109-.058.333-.105.498-.105.165 0 .328-.045.362-.1.038-.061.46-.074 1.13-.034.587.036 1.688.06 2.446.054 1.734-.013 1.707-.048.997 1.328a2.268 2.268 0 0 0-.196.644c-.038.32-.522.904-.749.904-.045 0-.082.054-.082.119s-.085.21-.19.324c-.134.145-.236.526-.347 1.284-.086.593-.22 1.223-.299 1.399a7.234 7.234 0 0 0-.2.5c-.033.098-.208.24-.389.316-.205.086-.391.27-.496.49-.207.435-.535.515-1.764.433-.955-.063-1.659-.225-2.616-.603a23.157 23.157 0 0 0-1.165-.42c-.289-.093-.525-.202-.525-.242 0-.04-.168-.146-.374-.236-.516-.223-1.835-.947-2.02-1.11a1.285 1.285 0 0 0-.403-.207c-.137-.04-.661-.27-1.164-.511-.504-.24-.942-.437-.975-.437-.033 0-.246-.135-.473-.3-.228-.164-.492-.3-.587-.3a.443.443 0 0 1-.295-.147c-.067-.08-.42-.284-.786-.451a13.261 13.261 0 0 1-.814-.397 13.28 13.28 0 0 0-.55-.307 3.953 3.953 0 0 1-.598-.39 1.825 1.825 0 0 0-.528-.287c-.18-.06-.392-.168-.47-.239-.303-.271-.429-.362-.71-.51-.16-.083-.515-.356-.79-.606-.274-.25-.532-.456-.572-.458-.04-.002-.265-.215-.5-.473a25.91 25.91 0 0 0-.7-.746c-.152-.152-.275-.322-.275-.379 0-.057-.041-.103-.09-.103-.05 0-.246-.214-.435-.474-.19-.261-.587-.749-.884-1.084a11.413 11.413 0 0 1-.689-.838 4.838 4.838 0 0 0-.374-.48c-.124-.137-.226-.277-.227-.31 0-.033-.378-.45-.84-.928-.46-.477-.919-1.006-1.018-1.174-.1-.168-.216-.306-.26-.306-.042 0-.078-.057-.078-.127s-.078-.204-.175-.296c-.367-.355-.506-.54-.713-.95-.118-.234-.252-.425-.297-.425-.046 0-.163-.177-.26-.394a2.339 2.339 0 0 0-.422-.623c-.135-.126-.475-.702-.758-1.28-.282-.576-.55-1.094-.594-1.149l-.277-.338c-.108-.13-.377-.558-.598-.948-.448-.792-.626-1.087-.7-1.16-.142-.143-1.378-2.81-1.458-3.147-.04-.165-.098-.322-.13-.35-.12-.1-.403-.76-.515-1.199a6.344 6.344 0 0 0-.321-.898 4.45 4.45 0 0 1-.283-.85 10.85 10.85 0 0 0-.19-.799c-.184-.649-.494-2-.56-2.447a15.07 15.07 0 0 0-.132-.699 2.747 2.747 0 0 1-.044-.8c.029-.191 0-.64-.064-.998a12.978 12.978 0 0 1-.138-1.601c-.012-.524-.05-.997-.083-1.051-.034-.055-.04-.862-.014-1.795.025-.933.042-1.966.037-2.295-.004-.33.06-.824.144-1.099.084-.275.153-.725.154-1.002 0-.316.066-.593.176-.749.096-.136.183-.449.193-.696.033-.784.094-1.183.2-1.318.131-.165.218-.544.326-1.43.09-.735.301-1.447.429-1.447.041 0 .075-.172.075-.38 0-.21.066-.469.147-.575.08-.107.148-.36.15-.563.001-.203.049-.397.104-.431.166-.103.413-.783.359-.988-.028-.105.037-.372.144-.594.107-.221.195-.519.195-.661 0-.142.068-.356.151-.475.083-.119.195-.455.247-.746.097-.535.241-1.047.656-2.329.124-.384.279-.946.343-1.248.065-.302.225-.774.355-1.049.13-.275.29-.837.355-1.249.064-.412.223-.981.353-1.266.277-.608.477-1.464.406-1.737-.028-.106-.011-.169.037-.139s.114-.071.145-.225c.032-.153.098-.436.146-.628.257-1.032.443-3.16.283-3.258-.044-.027-.08-.154-.08-.282 0-.463-1.542-3.252-1.797-3.252-.036 0-.16-.169-.277-.375a3.626 3.626 0 0 0-.568-.707c-.196-.183-.356-.387-.356-.453 0-.065-.098-.185-.22-.266-.253-.17-1.278-1.207-1.278-1.295 0-.032-.43-.434-.954-.894a31.35 31.35 0 0 1-1.302-1.195c-.994-1.028-1.21-1.233-1.44-1.356-.322-.174-2.497-2.462-2.497-2.628 0-.04-.102-.185-.227-.321a19.575 19.575 0 0 1-.694-.848 96.22 96.22 0 0 0-.831-1.05c-.466-.575-.968-1.37-1.399-2.214-.187-.367-.386-.696-.442-.73-.056-.035-.103-.167-.103-.294 0-.127-.084-.338-.186-.469a1.657 1.657 0 0 1-.258-.562c-.039-.179-.109-.325-.155-.325s-.116-.146-.155-.325a5.37 5.37 0 0 0-.296-.824c-.249-.553-.337-.814-.41-1.22-.028-.15-.082-.297-.122-.326-.068-.049-.22-.617-.373-1.397a2.623 2.623 0 0 0-.144-.5c-.125-.252-.498-1.949-.498-2.267 0-.163-.062-.518-.139-.79-.077-.27-.165-.863-.197-1.317-.031-.453-.102-.908-.157-1.01-.054-.103-.128-.519-.163-.924-.036-.405-.1-.782-.144-.837-.044-.055-.112-.571-.152-1.148-.039-.577-.114-1.103-.167-1.17-.053-.066-.068-.167-.033-.223.035-.057.02-.362-.036-.679-.125-.723-.295-2.316-.364-3.41-.029-.46-.096-.918-.149-1.017-.053-.1-.098-.577-.099-1.061-.002-.484-.044-1.06-.094-1.28-.051-.22-.12-.917-.153-1.548-.108-2.07-.237-3.695-.302-3.8-.035-.057-.104-.765-.152-1.573-.05-.836-.153-1.642-.238-1.87a2.86 2.86 0 0 1-.153-.804c-.002-.223-.07-.493-.15-.6a.914.914 0 0 1-.15-.462c-.005-.422-.297-1.575-.51-2.016-.106-.22-.193-.528-.193-.684 0-.156-.059-.429-.131-.606a6.997 6.997 0 0 1-.259-.92c-.07-.33-.168-.678-.218-.773a.859.859 0 0 1-.091-.33c0-.086-.135-.474-.3-.861-.165-.387-.3-.79-.3-.895a.983.983 0 0 0-.085-.364c-.394-.803-1.113-2.601-1.113-2.785 0-.061-.068-.167-.15-.235a.457.457 0 0 1-.15-.306c0-.22-.743-1.845-.884-1.932-.055-.034-.154-.23-.22-.435-.066-.206-.183-.447-.261-.536-.148-.17-.527-.853-.99-1.785a10.458 10.458 0 0 0-.566-.98c-.16-.236-.47-.775-.688-1.198a27.721 27.721 0 0 0-.577-1.072c-.568-.951-2.606-4.934-2.606-5.092 0-.067-.101-.273-.225-.46a4.79 4.79 0 0 1-.414-.888c-.104-.302-.245-.616-.312-.699-.068-.082-.184-.33-.258-.55a5.462 5.462 0 0 0-.365-.798c-.373-.65-.704-1.4-.97-2.198a5.16 5.16 0 0 0-.345-.799c-.097-.165-.256-.56-.353-.877-.096-.318-.232-.635-.302-.705-.07-.07-.158-.268-.196-.44-.038-.17-.133-.365-.212-.43-.079-.066-.144-.17-.144-.232s-.134-.398-.3-.746c-.164-.348-.299-.697-.299-.776 0-.079-.112-.32-.25-.538-.137-.218-.25-.487-.25-.598 0-.11-.044-.201-.1-.201-.054 0-.099-.16-.099-.353 0-.209-.057-.375-.139-.406-.076-.03-.165-.189-.199-.355-.065-.327-.237-.75-.63-1.549-.14-.283-.226-.561-.19-.617.034-.056-.073-.303-.239-.548-.166-.246-.301-.5-.301-.563 0-.133-.34-1.01-.556-1.436-.079-.155-.143-.359-.143-.451 0-.093-.121-.346-.269-.564-.147-.217-.282-.53-.3-.697-.039-.378-.227-.852-.338-.852-.046 0-.138-.18-.204-.4-.066-.22-.154-.399-.196-.399-.042 0-.105-.146-.14-.325-.076-.384-.21-.776-.452-1.324a8.504 8.504 0 0 1-.35-1.09 9.132 9.132 0 0 0-.403-1.208 4.99 4.99 0 0 1-.3-.91c-.039-.213-.127-.454-.197-.537-.142-.166-.27-.626-.448-1.598-.065-.357-.137-.74-.16-.849a10.94 10.94 0 0 1-.09-.59c-.028-.215-.098-.448-.156-.518-.058-.07-.114-.433-.125-.808-.011-.374-.051-.73-.089-.788-.038-.06-.098-.531-.135-1.05-.036-.517-.124-1.034-.195-1.147-.097-.155-.105-.33-.032-.7.053-.27.071-.874.04-1.341-.035-.515-.012-1.006.057-1.249.063-.22.127-.669.142-.999.048-1.03.154-1.776.302-2.13.078-.188.142-.407.142-.487 0-.08.13-.47.288-.864.158-.395.308-.932.334-1.193.026-.262.116-.53.2-.598.084-.067.259-.402.389-.746.13-.343.27-.624.312-.624.041 0 .075-.072.075-.16 0-.088.135-.36.3-.605.165-.244.3-.501.3-.571 0-.07.112-.233.25-.362.137-.13.249-.272.249-.318 0-.046.139-.274.308-.507.348-.479.591-1.007.591-1.285 0-.117.07-.187.19-.187.206 0 .809-.514.809-.69 0-.06.067-.11.15-.11.082 0 .15-.048.15-.107 0-.06.173-.28.386-.49.212-.211.416-.501.452-.645.066-.261.486-.513.668-.4.05.03.092-.005.092-.08 0-.136 1.077-1.274 1.206-1.274.037 0 .122-.131.189-.291.066-.16.217-.316.336-.346.185-.047.426-.244.916-.75.332-.342.943-.81 1.057-.81.074 0 .226-.106.338-.235.112-.128.304-.287.428-.353.123-.065.225-.173.226-.24 0-.11.61-.571.753-.571.103 0 .785-.53 1.085-.844.161-.168.329-.305.373-.305.045 0 .152-.1.238-.224.087-.124.25-.225.361-.225a.266.266 0 0 0 .254-.194c.03-.111.171-.22.332-.256.155-.034.306-.127.337-.206.03-.079.166-.143.303-.143.136 0 .283-.06.327-.133a.585.585 0 0 1 .261-.199c.105-.038.151-.115.11-.182-.042-.068-.029-.09.031-.053.102.063.602-.269 1.167-.773.16-.142.348-.259.419-.259.12 0 .827-.372.94-.494.106-.117.503-.305.643-.305.082 0 .194-.085.25-.19.056-.104.46-.374.899-.6.439-.226.91-.522 1.046-.66.137-.136.312-.248.39-.248.079 0 .199-.067.267-.15.068-.082.19-.15.269-.15.08 0 .287-.108.462-.241.175-.133.438-.272.585-.309.147-.037.293-.132.324-.213.03-.08.257-.234.502-.343.246-.109.474-.241.507-.295.033-.053.164-.097.292-.097.224 0 .909-.294.705-.302-.143-.007.372-.29.534-.293.074-.002.277-.067.45-.143.173-.077.396-.166.496-.2.1-.032.159-.095.132-.138-.054-.087 1.161-.7 1.526-.77a.94.94 0 0 0 .354-.148c.236-.196 1.063-.603 1.233-.606a.767.767 0 0 0 .363-.15.75.75 0 0 1 .37-.146c.097 0 .46-.13.805-.29.813-.372 2.564-.909 2.969-.909.173 0 .437-.088.586-.195.149-.108.45-.219.67-.246.706-.09.987-.146 1.598-.319.33-.093.79-.16 1.024-.15.264.012.424-.024.424-.095 0-.063.068-.09.15-.058.082.032.385.014.674-.038 1.042-.191 3.611-.377 3.866-.28a.949.949 0 0 0 .5.024c.356-.098 2.076-.14 5.448-.135 1.594.001 2.976 0 3.072-.003.405-.016.689-.01 1.909.043.706.03 1.32.078 1.366.106.045.028.276.045.513.04.238-.007 1.151.01 2.03.036.999.03 1.646.01 1.724-.053.085-.068.481-.062 1.22.02.602.066 1.132.098 1.177.07.046-.029.418-.008.828.045.515.067 1 .061 1.57-.018.614-.084.862-.085.962-.001.096.079.215.082.402.011.172-.065.502-.069.936-.01.369.05 1.322.122 2.119.162.796.039 1.628.08 1.848.092.22.012.43-.025.467-.083.047-.072.358-.062 1 .03.511.075 1.2.15 1.53.169l1.398.075c.44.023 1.495.095 2.347.16.851.065 2.287.137 3.19.16.903.022 1.667.08 1.698.13.031.049.686.091 1.455.093a40.01 40.01 0 0 1 2.597.102c.659.053 1.828.125 2.597.16.769.034 1.713.106 2.097.16.385.054.88.093 1.1.088.219-.005 1.41.063 2.646.152 1.236.09 2.349.144 2.472.122.141-.024.225.01.225.094 0 .097.09.117.325.072.178-.034.34-.074.358-.09.02-.015.244.036.5.113.256.078.603.142.772.143.17 0 .628.113 1.02.25.617.215.794.237 1.327.164.374-.05.796-.045 1.078.016.255.056.608.11.785.12.176.011.379.066.45.122.07.056.599.133 1.175.17.687.046 1.103.12 1.207.214.087.079.193.143.235.143.043 0 .219.062.392.137.314.137 2.145.363 2.941.363.231 0 .42.045.42.1 0 .055.11.1.244.1s.274.049.311.109c.038.061.228.09.43.066.22-.026.454.014.59.102.133.087.34.124.505.09.154-.03.457-.01.673.045.217.055.978.208 1.692.339.714.131 1.544.308 1.845.393.3.085.776.154 1.057.154.281 0 .54.03.576.065.2.2 1.28.441 2.415.54.715.062 1.456.173 1.649.246.192.073.901.159 1.576.19 1.147.053 1.522.107 2.592.376.233.059.817.123 1.299.144.843.035 2.193.165 2.923.28a16.9 16.9 0 0 0 1.298.1c.522.025 1.22.095 1.549.156.33.06 1.116.159 1.748.219.631.06 1.17.141 1.198.181.107.155.525.221.603.095.061-.1.155-.09.44.045.202.096.45.143.563.108a.421.421 0 0 1 .359.066c.136.113 1.2.29 1.77.294.105 0 .324.07.487.155.163.084.381.131.485.104.103-.027.214-.006.246.046s.147.066.255.032c.109-.035.3.005.428.09.13.085.33.126.455.093.122-.032.252-.01.288.047.035.058.357.157.714.22.356.063.828.158 1.048.21 1.16.276 2.176.547 2.832.757.404.129.778.208.83.175.053-.033.186.022.296.121.171.155.213.16.293.035.063-.098.119-.11.169-.04.094.134.974.399 1.823.55.357.064.872.223 1.143.354.272.131.6.239.73.239.129 0 .357.063.506.14.15.077.52.187.822.242.62.115 1.794.496 1.938.629a.392.392 0 0 0 .23.087c.075 0 .324.086.555.19.23.105.688.268 1.018.363.33.095.757.255.949.355.569.296 1.21.571 1.822.782.316.108.72.308.9.445.178.136.46.28.624.32.165.041.597.27.96.508.364.238.708.434.766.434.058 0 .12.037.139.084.035.088.298.24 1.141.655.428.211 1.286.789 1.698 1.143.06.052.24.162.4.244.16.083.38.249.488.369.108.12.432.333.72.474.288.14.634.373.77.516.135.143.498.44.807.66.308.22.817.639 1.13.931.314.292.906.787 1.317 1.099.853.647 3.543 3.287 4.204 4.127.935 1.186 1.296 1.64 1.422 1.784.464.533 1.568 2.243 1.568 2.428 0 .038.079.155.175.26.38.412.805 1.076.92 1.435.066.207.222.5.345.649.242.293.317.427.965 1.72.233.467.53 1.017.658 1.222.128.205.233.423.233.484s.066.23.146.377c.378.687.91 2.018 1.464 3.66.717 2.131 1.168 4.599 1.195 6.543.022 1.583-.105 4.9-.193 5.045-.034.055-.065.437-.069.849-.015 1.42-.377 3.75-.565 3.633-.044-.027-.08-.002-.08.056 0 .059.04.106.09.106.112 0 .053 2.63-.079 3.48-.073.475-.06.882.053 1.645.106.706.119 1.024.044 1.049-.144.048-.138.392.009.44.078.027.112.33.103.921-.007.485.037.975.098 1.089.061.114.148.569.193 1.01.045.443.219 1.228.385 1.745.167.517.303 1.027.303 1.134 0 .106.203.398.45.649.267.27.45.548.45.683 0 .358.27 1.423.557 2.187.552 1.475.64 1.75.64 1.984 0 .132.067.46.148.726.548 1.815.579 2.108.585 5.53.005 3.047-.037 4.06-.178 4.287-.032.053-.098.447-.147.876-.048.43-.18 1.185-.293 1.68a39.25 39.25 0 0 0-.372 1.898c-.091.549-.227 1.116-.302 1.26-.235.455-.748 1.916-.854 2.433-.096.472-.242.841-.374.951-.167.14-1.1 2.307-1.553 3.606a6.948 6.948 0 0 1-.51 1.042c-.194.32-.392.743-.44.939-.209.83-.382 1.374-.53 1.658a3.055 3.055 0 0 0-.229.69c-.04.213-.133.504-.208.646-.074.143-.135.337-.135.433-.001.274-.213 1.1-.352 1.374-.196.386-.391 1.648-.416 2.697a25.709 25.709 0 0 1-.086 1.572c-.04.388-.004 1.008.096 1.648.087.564.206 1.924.264 3.023.061 1.164.182 2.352.29 2.847.1.467.213 1.164.25 1.548.085.888.315 2.279.462 2.797.062.22.134.78.16 1.245.026.466.105.96.176 1.1.246.484.476 1.635.415 2.078-.032.238-.026.411.015.386.04-.025.082.164.092.42.044 1.088.129 2.388.177 2.725.036.245.006.401-.089.48-.103.086-.126.26-.087.644.03.29 0 1.144-.065 1.898-.096 1.097-.094 1.402.006 1.523.218.263.209 1.051-.015 1.29-.139.148-.197.353-.2.701-.015 2.22-.054 2.806-.207 3.09-.09.165-.194.524-.234.8-.04.274-.144.58-.233.679-.14.155-.143.21-.025.399.086.138.15.623.174 1.318.063 1.824.2 3.38.323 3.692.065.163.087.41.05.55-.065.24-.171 1.652-.275 3.65-.078 1.498-.223 2.992-.304 3.123-.042.068-.114.337-.16.597-.124.69-.682 2.743-.8 2.945a.85.85 0 0 0-.103.363.449.449 0 0 1-.139.304c-.077.064-.169.272-.204.462-.036.19-.104.346-.151.346-.048 0-.138.326-.2.724-.062.399-.23.978-.372 1.288-.228.497-.259.694-.259 1.649 0 .596.034 1.433.074 1.86.047.486.036.88-.03 1.05-.159.414-.252 6.435-.11 7.113.14.671.138.847-.014 1.316-.106.324-.095.406.097.715.157.256.24.615.306 1.332.143 1.57.387 3.422.466 3.55.04.065.062.32.049.569-.022.427.054.68.502 1.665.103.225.185.632.185.915 0 .28.108.973.239 1.541.263 1.14.402 2.073.553 3.73l.217 2.369c.066.727.085 1.623.044 2.097-.04.455-.064 1.221-.055 1.702.015.73-.017.93-.19 1.21-.115.185-.208.43-.208.545 0 .288-.373 1.603-.716 2.527a.757.757 0 0 1-.34.372c-.208.095-.243.18-.244.588 0 .476-.033.565-.526 1.445-.284.508-.857 1.13-1.296 1.409-.151.096-.275.216-.275.267 0 .125-.496.851-.581.851-.037 0-.309.257-.604.571-.295.315-.744.67-.999.79-.254.119-.552.3-.662.402-.467.433-1.077.884-1.196.884-.07 0-.184.068-.253.15a.455.455 0 0 1-.304.15c-.099 0-.313.112-.477.25-.163.137-.36.25-.44.25-.078 0-.246.11-.373.245-.126.135-.258.24-.292.233-.166-.032-.695.178-.97.386-.17.129-.376.234-.459.234-.082 0-.231.09-.33.2-.1.11-.236.2-.303.2-.206 0-2.31 2.119-2.581 2.6a3.888 3.888 0 0 1-.56.743c-.166.16-.302.33-.302.377 0 .048-.203.376-.45.73s-.45.7-.45.768c0 .07-.081.26-.18.425-.099.165-.286.57-.415.9-.129.329-.272.641-.319.693a.403.403 0 0 0-.084.232c0 .076-.067.205-.15.287-.082.083-.15.27-.15.418 0 .147-.09.402-.2.567-.109.165-.198.395-.199.512a.495.495 0 0 1-.15.337c-.082.068-.15.25-.15.404 0 .155-.067.348-.15.43-.082.083-.15.21-.15.284 0 .211-.361 1.144-.582 1.502-.114.184-.232.61-.272.976-.038.357-.133.721-.21.81-.077.088-.182.415-.232.726-.05.311-.162.635-.247.72-.085.086-.155.312-.155.504s-.043.43-.096.529a2.144 2.144 0 0 0-.154.518c-.13.76-.713 2.137-1.071 2.53-.097.106-.177.245-.177.308 0 .064-.086.194-.19.289a.967.967 0 0 0-.25.405c-.043.174-.11.22-.259.181-.128-.033-.2-.003-.2.084-.002.08-.25.214-.588.32-.459.142-.66.16-.923.08-.753-.227-1.224-.432-1.53-.666-.179-.136-.373-.246-.433-.246-.127 0-.073.525.124 1.198.073.247.187.697.254.999.189.852.694 2.304.959 2.755.131.224.267.619.303.877.035.258.103.493.15.522.047.03.086.14.086.247 0 .107.039.194.086.194.118 0 .577.904.665 1.313.12.552 1.136 2.383 1.483 2.67.09.076.163.193.163.262s.068.181.15.25a.45.45 0 0 1 .15.303c0 .099.036.194.08.213.044.018.254.348.468.732.406.733.573.95.732.95.052 0 .123.078.156.174.09.254.7 1.302.84 1.443.067.066.121.167.121.225 0 .058.293.442.65.854.358.412.716.891.797 1.065.08.174.348.481.594.683.397.325.717.766 1.119 1.54.069.133.386.522.705.866.319.344.782.856 1.03 1.14.247.282.564.634.704.781.14.147.384.448.542.667.158.22.448.567.644.772.196.204.47.513.607.685.137.173.397.478.577.677.18.2.392.48.47.623.078.143.29.392.47.553.182.161.578.583.88.939.301.355.57.668.599.696.027.027.133.198.234.38s.304.457.45.611c.146.154.338.365.426.469.088.103.295.301.46.44.164.14.357.431.428.65.072.218.255.666.406.996.151.33.328.801.393 1.048.065.248.209.72.32 1.05.11.329.212.644.225.698.106.454.185.737.266.955.053.14.114.874.136 1.63.037 1.247.02 1.415-.168 1.776-.114.22-.317.441-.45.492-.36.137-1.028.116-1.031-.033zM66.594 280.7c-.205-.059-.397-.18-.426-.271-.028-.09-.242-.27-.475-.397-.658-.36-1.744-1.529-1.886-2.03-.066-.231-.173-.488-.238-.57-.184-.235-.246-.484-.131-.522.058-.02-.035-.242-.205-.495-.171-.254-.311-.572-.311-.709 0-.136-.138-.59-.307-1.007-.169-.418-.28-.802-.248-.855.033-.052-.007-.285-.087-.518-.098-.285-.115-.482-.052-.6.124-.231.12-.66-.005-.738-.055-.034-.1-.232-.1-.44 0-.433.22-.59.999-.71a7.92 7.92 0 0 0 .593-.109c.08-.022.2.075.273.222.122.242.16.255.531.175l.803-.174c.222-.048.484-.16.582-.25.1-.09.25-.163.335-.163a.43.43 0 0 0 .279-.15c.068-.082.171-.15.229-.15.057 0 .175-.064.262-.144.519-.477.615-.554.685-.554.043 0 .15-.079.236-.175.086-.096.355-.343.596-.548.724-.615.954-.86 1.248-1.325.104-.165.295-.385.425-.49.13-.105.287-.254.35-.332.063-.078.182-.218.264-.311.417-.472 1.197-1.52 1.346-1.81.093-.18.256-.35.362-.377.106-.028.221-.168.257-.313.058-.237.295-.684.43-.812.264-.249.931-1.214 1.175-1.698.097-.192.21-.365.25-.383.042-.018.076-.09.076-.16 0-.069.09-.207.2-.306.11-.1.2-.257.2-.35 0-.092.09-.25.199-.35.11-.099.2-.244.2-.321 0-.078.112-.288.25-.468.137-.18.25-.356.25-.39 0-.035.112-.309.249-.609s.25-.59.25-.644c0-.054.036-.113.08-.131.108-.044.619-1.084.619-1.258 0-.075.054-.235.12-.355a1.07 1.07 0 0 0 .125-.318c.007-.167.298-.75.374-.75.039 0 .101-.168.139-.374a2.42 2.42 0 0 1 .175-.574c.06-.11.095-.245.079-.299-.042-.14.209-.887.324-.966.053-.037.11-.171.126-.3.101-.798.14-.966.28-1.234a2.67 2.67 0 0 0 .213-.647c.032-.193.164-.62.293-.95a5.57 5.57 0 0 0 .298-1.148c.108-.944.231-1.628.394-2.197.12-.417.138-.7.074-1.176-.064-.477-.053-.652.047-.734.097-.08.115-.296.07-.83-.044-.519-.023-.788.075-.963.104-.185.136-.794.138-2.565 0-1.277-.037-2.322-.084-2.323-.047 0-.066-.168-.041-.374a1.563 1.563 0 0 0-.11-.724c-.265-.597-.287-2.235-.056-4.046.13-1.012.19-1.236.393-1.44.224-.228.265-.235.652-.119.355.106.442.19.613.592.24.564.374.866.76 1.716.161.358.343.807.403 1 .06.192.182.574.27.848.253.79.543 2.069.546 2.41.001.172.077.487.169.7.091.212.202.634.246.936.176 1.217.381 2.132.493 2.202.08.048.133.58.164 1.607.105 3.487.02 6.585-.214 7.877a19.876 19.876 0 0 0-.207 1.372c-.02.232-.068.524-.108.649-.088.273-.116.487-.2 1.525-.035.44-.13.905-.212 1.035a.786.786 0 0 0-.085.564c.04.217.015.376-.075.465-.074.075-.166.398-.204.717-.037.32-.135.74-.216.935a2.049 2.049 0 0 0-.148.646c0 .16-.145.593-.323.961-.177.369-.328.715-.334.77a1.28 1.28 0 0 1-.07.25 3.009 3.009 0 0 0-.108.5c-.092.643-.29 1.398-.366 1.398-.042 0-.107.124-.145.275a1.246 1.246 0 0 1-.197.424c-.07.083-.158.307-.194.498-.036.192-.2.606-.363.92-.164.315-.297.653-.297.753 0 .1-.063.27-.138.379-.14.2-.162.261-.162.453 0 .058-.04.08-.09.05-.076-.047-.175.179-.265.605-.04.189-.35.883-.665 1.486-.086.165-.302.601-.48.97-.178.368-.367.66-.42.65-.054-.012-.156.168-.226.399-.07.23-.28.611-.464.845-.185.233-.325.438-.31.455.057.063-.276.605-.4.653-.073.028-.22.222-.329.431-.108.21-.322.516-.476.681a2.966 2.966 0 0 0-.43.616c-.171.362-.502.743-.643.743-.053 0-.096.058-.096.13 0 .141-.497.853-.899 1.29-.137.148-.475.527-.75.84a26.32 26.32 0 0 1-.873.95c-.206.208-.375.415-.375.46 0 .128-.416.459-.799.635-.192.088-.622.43-.955.76-.702.695-1.333.961-2.54 1.072-.413.038-.84.084-.95.102-.11.018-.368-.016-.573-.074zm53.263-42.021c-.082-.052-.294-.09-.47-.083-.201.007-.466-.088-.706-.254-.21-.146-.45-.265-.533-.265-.083 0-.238-.066-.345-.147-.106-.08-.262-.148-.345-.15-.083-.002-.552-.434-1.042-.96-.648-.697-.994-1.17-1.268-1.733-.208-.426-.447-.833-.532-.903-.085-.07-.354-.124-.6-.12-.244.006-.469-.029-.498-.076-.185-.3-1.565-.784-2.501-.877-.275-.027-.55-.09-.611-.14-.062-.05-.369-.074-.683-.052-.313.022-.72-.006-.903-.062-.183-.057-.415-.068-.516-.026-.101.043-.768.096-1.482.119-1.323.042-2.324-.063-3.17-.332-.26-.082-.52-.12-.58-.082-.142.087-1.385-.146-1.644-.308-.223-.14-.847-.258-1.598-.301-.86-.05-1.674-.213-2.348-.47-1.107-.422-2.236-.774-2.478-.773-.128 0-.321-.047-.43-.105-.11-.059-.477-.15-.818-.202a4.394 4.394 0 0 1-2.172-1.034l-.676-.606c-.335-.301-.982-1.224-1.257-1.793-.313-.648-.828-2.357-.905-3.001-.158-1.33-.568-2.775-.89-3.133-.117-.13-.437-.387-.712-.572-1.003-.677-1.91-1.36-2.462-1.855a11.57 11.57 0 0 0-.803-.67c-.13-.09-.695-.616-1.254-1.17-.56-.555-1.21-1.136-1.445-1.292-.457-.303-1.372-1.23-1.379-1.397-.002-.055-.14-.233-.306-.396a2.824 2.824 0 0 1-.494-.732 3.698 3.698 0 0 0-.445-.736c-.138-.164-.252-.36-.252-.434 0-.074-.157-.302-.35-.506-.192-.203-.349-.405-.349-.448 0-.044-.104-.206-.23-.361-.227-.277-.328-.474-1.167-2.28-.23-.495-.474-.967-.544-1.049-.07-.082-.207-.397-.304-.7-.097-.301-.216-.616-.264-.698-.18-.307-.587-1.227-.587-1.328 0-.057-.158-.39-.35-.74-.192-.35-.35-.694-.35-.765 0-.071-.112-.235-.25-.364-.137-.129-.249-.289-.249-.355 0-.119-.525-1.345-.704-1.642-.19-.32-1.993-3.973-1.993-4.042 0-.1-1.094-1.737-1.208-1.807-.05-.031-.09-.126-.09-.211 0-.163-.418-.747-.954-1.332-.176-.192-.509-.705-.738-1.14-.404-.762-.42-.827-.463-1.897-.025-.61-.003-1.22.048-1.358.05-.137.171-.52.267-.849.206-.706.606-1.548.736-1.548.05 0 .118-.085.151-.189s.16-.297.282-.43c.121-.131.31-.417.42-.635.11-.217.272-.507.361-.644.089-.137.194-.43.233-.65.039-.22.127-.489.196-.599.069-.11.196-.514.283-.899.172-.762.18-3.477.018-6.392-.134-2.42-.092-3.38.255-5.844.263-1.865 1.234-5.006 1.822-5.893.091-.137.195-.371.232-.52.037-.15.13-.323.207-.387.077-.064.14-.167.14-.229.001-.169.69-.862.856-.862.118 0 .122-.035.023-.194-.103-.165-.084-.231.124-.44.351-.352.495-.542.495-.654 0-.054.13-.24.29-.415.256-.28.296-.296.338-.131.04.155.05.148.06-.039.008-.154.074-.224.21-.224.123 0 .202-.068.204-.175.003-.18.295-.638.298-.469 0 .052.044.027.097-.055a.415.415 0 0 0 .049-.303c-.028-.089.1-.293.302-.483.192-.181.35-.37.35-.421 0-.05.062-.092.138-.092.08 0 .167-.153.207-.364.091-.486.31-.802.608-.877.177-.044.245-.13.245-.307 0-.18.068-.263.25-.309.137-.034.25-.125.25-.202 0-.076.038-.139.085-.139.047 0 .283-.27.524-.602.242-.332.605-.718.807-.858.203-.14.348-.309.323-.374-.025-.065.067-.272.206-.46.139-.188.252-.393.252-.457 0-.063.09-.218.2-.345.11-.127.2-.292.2-.367 0-.076.138-.165.308-.2.17-.033.331-.133.36-.221.134-.415.339-.787.525-.956.113-.102.205-.242.205-.312s.089-.156.197-.19c.12-.039.237-.21.297-.432.055-.203.191-.425.302-.494.112-.07.204-.182.206-.25.005-.171.408-.629.62-.705.123-.043.176-.17.176-.418 0-.424.196-.916.488-1.22.116-.121.274-.458.35-.749.077-.29.238-.775.36-1.077.152-.381.232-.83.26-1.466.021-.504.084-1.035.14-1.18.055-.145.1-.395.1-.554 0-.16.09-.45.2-.646.11-.196.2-.467.2-.602 0-.136.044-.247.1-.247.054 0 .1-.091.1-.203 0-.111.063-.227.14-.257.077-.03.167-.152.2-.271.103-.387 1.235-1.425 2.905-2.665.259-.192.57-.449.693-.57a1.64 1.64 0 0 1 .472-.316c.138-.053.601-.324 1.03-.604.427-.28.821-.508.874-.508.053 0 .216-.083.362-.185s.4-.218.564-.258c.419-.101.452-.21.246-.792-.104-.294-.14-.527-.086-.547.104-.037.022-.654-.125-.938-.05-.095-.105-.343-.125-.55a93.787 93.787 0 0 0-.364-3.151c-.101-.704-.164-2.485-.25-7.163-.029-1.511-.068-2.95-.089-3.197-.161-1.981-.285-5.447-.261-7.341.009-.714-.037-1.58-.1-1.924-.088-.473-.089-.66-.001-.764.068-.083.108-.443.098-.886-.01-.411.008-.79.04-.84.031-.051.065-.382.075-.736.01-.354.056-.846.103-1.093.09-.477.328-3.638.312-4.145-.005-.165.051-.525.125-.8.184-.679.378-2.266.301-2.465-.034-.088-.013-.342.047-.563.144-.536.209-2.617.088-2.845-.061-.115-.058-.438.008-.899.057-.395.107-.966.111-1.268.014-1.082-.085-3.087-.157-3.204-.075-.121-.234-1.496-.288-2.49a6.992 6.992 0 0 0-.147-1.037 3.495 3.495 0 0 1-.053-1.049 2.89 2.89 0 0 0-.09-1.11 8.936 8.936 0 0 1-.219-1.149c-.037-.33-.13-.75-.207-.936a1.89 1.89 0 0 1-.14-.581c0-.134-.05-.336-.11-.448-.06-.111-.194-.614-.298-1.117a25.37 25.37 0 0 0-.38-1.563c-.515-1.766-.601-2.095-.708-2.697a15.728 15.728 0 0 0-.357-1.448c-.231-.77-.421-1.806-.502-2.747a14.81 14.81 0 0 0-.152-1.072c-.136-.755-.056-5.395.096-5.547.179-.179.397.006.657.556.14.296.255.59.255.652 0 .062.108.35.24.64.45.993.56 1.282.56 1.473 0 .104.04.215.088.245.05.03.113.201.141.38.029.18.147.64.263 1.025.116.385.24.848.273 1.03.034.183.145.496.247.696.103.2.186.415.186.477 0 .063.07.254.156.426.085.171.182.482.214.69.033.207.12.466.194.574a.813.813 0 0 1 .135.379c0 .1.092.36.204.58.112.22.18.437.151.484-.029.047.018.303.104.57.086.268.194.644.24.836.211.894.421 1.666.503 1.848.048.11.137.402.196.65.06.247.169.606.243.799.074.192.18.574.236.849.105.516.288 1.196.577 2.147.091.302.224.932.295 1.399.07.467.198 1.034.283 1.261.085.227.185.744.222 1.148.036.405.106.84.154.968.049.127.09.577.092 1a6.5 6.5 0 0 0 .165 1.366c.133.497.165 1.294.185 4.672.013 2.24-.015 4.243-.062 4.452-.047.21-.103 1.006-.125 1.771-.021.765-.066 1.459-.098 1.54-.032.083-.082.42-.11.75-.154 1.82-.36 3.59-.496 4.283a13.464 13.464 0 0 0-.198 1.535c-.023.412-.08.777-.128.812-.047.034-.102.512-.121 1.061-.02.55-.077 1.05-.127 1.111-.05.062-.063.184-.03.27.055.145.139 2.665.152 4.612.003.44.076 1.451.16 2.248.086.796.165 1.88.177 2.406.012.527.054 1.01.093 1.074.04.063.072 1.7.072 3.636.001 3.371.111 5.263.383 6.568.051.248.165.967.253 1.598.15 1.082.245 1.598.466 2.548.051.22.132.826.18 1.348.047.522.114 1.106.149 1.299.035.192.06.515.057.717-.003.202.04.395.096.43.056.035.102.22.102.41 0 .746.664 1.679 1.376 1.933.204.073.597.242.871.374.493.238 1.824.467 2.55.439.194-.007.666.035 1.05.095.382.06.988.147 1.345.193.357.046.941.132 1.298.19 1.304.21 3.954.502 4.245.466l.85-.104c.302-.037.718-.13.925-.207.206-.078.412-.13.456-.117.045.014.339-.233.653-.55.314-.315.63-.574.703-.574.072 0 .48-.337.905-.749.426-.412.813-.749.861-.749.117 0 .167-.28.242-1.348.044-.623.107-.924.206-.98.092-.051.143-.247.143-.555 0-.263.065-.561.146-.669.081-.106.148-.382.15-.612.002-.23.049-.447.105-.482.056-.034.079-.1.05-.144-.027-.045.017-.137.1-.205.099-.083.148-.31.148-.692 0-.442.047-.619.213-.797.192-.206.208-.304.153-.95-.034-.398-.023-.764.024-.814.08-.087.721-2.065.864-2.665.036-.15.099-.274.139-.274.04 0 .22-.525.401-1.166.408-1.448.383-2.14-.099-2.78-.165-.22-.487-.669-.715-.999-.53-.764-.75-.968-1.345-1.251a6.759 6.759 0 0 1-.75-.413c-.391-.271-.464-.232-.537.291-.115.834-.527 2.038-.744 2.172-.056.034-.101.131-.101.215 0 .346-1.184 1.607-1.588 1.691l-.44.09c-.1.02-.372-.048-.606-.152-.605-.267-.92-.952-.892-1.935.011-.386.075-.805.142-.93.096-.18.095-.277-.008-.47-.077-.143-.098-.317-.052-.424.043-.1.114-.587.158-1.081.043-.494.124-1.146.179-1.448.157-.867.19-1.174.255-2.39.034-.629.11-1.202.17-1.274.139-.167.131-.797-.014-1.179-.09-.238-.084-.316.032-.401.101-.074.177-.491.257-1.401.062-.713.158-1.79.213-2.395.056-.604.113-1.72.128-2.479.015-.758.07-1.41.123-1.448.153-.11.249-3.764.118-4.496-.052-.287-.043-.41.025-.368.056.034.105.026.11-.018.084-.909.196-4.835.192-6.723-.005-2.08-.08-4.367-.215-6.543-.061-.989-.1-1.888-.087-1.998.056-.436-.085-4.543-.16-4.663-.205-.333-.366-9.374-.215-12.118a111.6 111.6 0 0 0 .124-3.396c.042-2.314.13-3.544.3-4.2a9.8 9.8 0 0 0 .212-1.172c.037-.341.129-.742.204-.89.075-.149.137-.431.137-.628s.063-.51.14-.696c.079-.186.123-.358.1-.381-.12-.12.165-1.4.376-1.694.128-.179.312-.501.41-.717.271-.6 1.329-1.616 1.945-1.867.289-.117.525-.27.525-.34 0-.16.38-.217 2.347-.353 1.415-.098 2.146-.222 3.596-.612.22-.059.691-.171 1.049-.249.357-.078.817-.185 1.023-.238.206-.053.544-.138.75-.188.409-.1.376-.09 1.673-.459.494-.14 1.19-.326 1.548-.413.357-.087.79-.22.964-.296.173-.077.38-.139.46-.139.08 0 .59-.106 1.133-.237a85.28 85.28 0 0 1 1.788-.405 34.66 34.66 0 0 0 1.298-.3 34.606 34.606 0 0 1 2.78-.604c.486-.083.913-.17.95-.192.038-.023.494-.073 1.014-.11.52-.037 1.02-.107 1.112-.156.143-.077 2.5-.34 3.897-.436.255-.017.508-.059.562-.092.054-.033.654-.106 1.334-.16a2732.806 2732.806 0 0 0 4.783-.39c.082-.007.621-.029 1.198-.05 1.587-.056 2.63-.173 2.797-.314.27-.23.761-.275 1.096-.101.373.193.85.217 2.05.104 1.416-.133 1.929-.115 2.116.072.153.153.14.184-.166.444-.816.69-.957.989-.638 1.346.244.273 1.94 1.082 2.267 1.082.14 0 .28.04.31.088.03.048.156.112.28.14.768.182 2.098.578 2.524.752.727.298 1.76.632 2.048.664.494.055 1.05.181 1.155.263.058.046.26.104.45.128.43.056.852.216.94.36.037.06.255.102.484.093.423-.015.801.049 2.414.407.495.11 1.36.245 1.922.3.562.056 1.214.168 1.448.25.234.08.55.148.702.15.152 0 .354.04.45.089.095.048.304.127.465.174.555.166.59.9.068 1.406-.159.154-.364.515-.457.803-.092.287-.21.548-.26.58-.051.031-.092.147-.092.256 0 .22-.584.81-.72.726-.046-.03-.072.004-.057.074.015.07-.063.142-.172.162-.11.02-.425.145-.7.278-.5.244-1.682.47-2.018.386-.204-.05-2.398-.336-2.926-.38a5.511 5.511 0 0 1-.799-.152 13.675 13.675 0 0 0-.949-.212c-.75-.136-1.402-.331-1.57-.47-.08-.067-.39-.168-.687-.224-.466-.087-.98-.295-2.088-.847a38.35 38.35 0 0 1-1.149-.639 27.418 27.418 0 0 0-1.448-.776c-.302-.143-.572-.295-.6-.336-.027-.042-.207-.148-.399-.237a5.844 5.844 0 0 1-.65-.359 4.407 4.407 0 0 0-.541-.304c-.133-.058-.405-.252-.603-.432a9.835 9.835 0 0 0-.857-.667 6.722 6.722 0 0 1-.879-.743c-1.065-1.119-1.23-1.279-1.41-1.376-.14-.075-.205-.072-.233.01-.02.063-.15.114-.286.114-.136 0-.33.044-.43.098-.102.054-.38.115-.618.135a3.44 3.44 0 0 0-.585.089c-.138.048-.796.184-1.898.39-.247.047-.899.132-1.448.19-.55.058-1.117.152-1.262.208-.144.057-.549.098-.899.092-.35-.006-1.375-.012-2.28-.013-.903-.002-1.68-.027-1.726-.055-.047-.029-.139-.008-.205.045-.066.053-.517.101-1.002.107-.484.005-.926.038-.981.072-.055.034-.445.1-.867.145-1.204.131-2.805.378-2.923.45-.058.036-.249.08-.423.098-.175.017-.857.146-1.516.287-.66.141-1.356.284-1.548.317-.192.034-.395.096-.45.138-.055.042-.257.103-.45.135-.43.073-.603.115-1.298.316-.302.088-.999.27-1.548.406-.55.135-1.134.296-1.298.357-.323.12-1.281.357-1.848.455-.193.033-.395.094-.45.136-.055.04-.347.107-.65.147-.301.04-.728.13-.948.2-.22.07-.883.185-1.473.257-.59.072-1.074.155-1.074.186 0 .03-.236.063-.524.071a7.21 7.21 0 0 0-1.908.286 3.784 3.784 0 0 1-.869.148c-.492 0-.862.307-1 .83-.061.23-.192.599-.291.819-.2.441-.402 1.228-.404 1.574 0 .123-.065.405-.142.627-.15.429-.367 2-.415 2.993-.046.944-.229 3.449-.29 3.961-.155 1.31-.191 2.602-.156 5.594.007.641-.017 1.288-.055 1.439-.044.175-.032.25.034.21.152-.094.228.565.22 1.9-.004.648.037 1.296.091 1.44.055.142.127.682.162 1.198l.15 2.237c.109 1.626.157 3.513.133 5.194-.01.714-.015 1.86-.011 2.547s.006 1.406.005 1.599l-.015 1.997c-.007 1.01-.07 1.925-.16 2.363-.135.661-.192 2.498-.147 4.78.036 1.876-.003 8.556-.055 9.288a9.62 9.62 0 0 0 .03 1.52c.068.566.059.732-.044.771-.076.03-.133.21-.134.428a4.205 4.205 0 0 1-.09.753c-.05.219-.05.398.002.43.149.092.101.444-.06.444-.122 0-.15.165-.15.886 0 .58-.054 1.017-.156 1.262-.098.234-.179.837-.215 1.607-.037.787-.095 1.21-.159 1.17-.122-.076-.009.569.124.701.197.198.298-.059.258-.66-.028-.428-.014-.544.045-.372.085.25.085.25.155.028.056-.179.106-.204.252-.125a.61.61 0 0 1 .249.322c.258.872.682 1.373 1.16 1.373.19 0 .703.205.784.312.028.036.231.16.452.275.626.326 2.269 2.207 2.877 3.296.743 1.329.98 1.802 1.13 2.253.092.279.273.674.401.88.13.204.235.433.235.507 0 .074.116.356.258.626.323.616.576 1.806.55 2.584-.01.327.034.82.1 1.094.09.374.091.51.005.538-.063.02-.115.166-.115.322s-.067.352-.15.434c-.088.089-.15.333-.15.596 0 .306-.047.464-.15.504-.116.044-.137.15-.09.447.041.258.01.504-.092.727-.123.27-.153.738-.15 2.335.005 1.92-.019 2.187-.224 2.57a1.19 1.19 0 0 0-.092.463c0 .159-.062.34-.137.402-.075.063-.211.309-.302.546-.091.239-.265.48-.388.538-.758.36-1.028.44-1.338.405-.26-.03-.37.005-.443.14-.054.102-.208.18-.352.18-.173 0-.273.066-.309.204-.029.112-.182.27-.34.352-.158.082-.288.204-.289.27-.002.117-.718.772-.844.772-.172 0-.752.722-.752.937 0 .181-.045.233-.175.201-.226-.054-.807.463-.742.66.027.083.203.282.39.444.499.429 1.161 1.336 1.74 2.383.278.505.561.986.628 1.069.194.241.83 1.362.903 1.59.036.114.103.208.147.208s.18.232.303.516c.122.283.432.744.69 1.023.257.28.532.643.61.808.132.278.961 1.713 1.468 2.54.378.617 1.508 2.932 1.686 3.453.24.702.527 2.402.506 2.997-.018.519-.32 1.234-.569 1.352-.079.037-.29.145-.471.24-.399.208-.832.138-1.293-.208-.49-.367-1.239-1.132-1.6-1.634-.179-.247-.47-.637-.65-.867-.179-.23-.572-.826-.874-1.325a94.676 94.676 0 0 0-.974-1.569c-.234-.365-.425-.719-.425-.786 0-.068-.064-.177-.144-.243-.08-.066-.22-.352-.314-.636-.094-.285-.199-.54-.234-.567-.035-.027-.192-.365-.35-.75a95.732 95.732 0 0 0-.413-.998 9.218 9.218 0 0 1-.293-.899c-.417-1.515-1.186-3.581-1.427-3.833-.072-.075-.156-.261-.186-.413-.073-.364-.567-.898-.832-.898-.115 0-.323.075-.463.167-.317.208-1.894.24-2.785.056a20.96 20.96 0 0 0-1.398-.22l-1.649-.2c-.467-.057-2.068-.148-3.557-.203-1.936-.07-2.83-.142-3.134-.25a2.97 2.97 0 0 0-.818-.15c-.371 0-.963-.265-2.57-1.154-.242-.134-.518-.244-.613-.244-.095 0-.534-.36-.974-.803-.831-.833-1.325-1.667-1.665-2.812a10.702 10.702 0 0 0-.487-1.218c-.185-.39-.398-.89-.473-1.11a2.81 2.81 0 0 0-.306-.628c-.153-.206-.175-.21-.22-.05-.028.099-.048.68-.045 1.29.004.612-.02 1.153-.05 1.203-.03.05.035.426.147.836.173.633.195.927.146 1.952-.036.755-.112 1.311-.203 1.486-.08.154-.176.51-.214.792-.038.28-.126.623-.197.76-.158.31-.396.92-.563 1.449-.07.22-.158.444-.196.5-.064.094-.21.35-.698 1.223-.115.206-.25.417-.3.47a.458.458 0 0 0-.09.273c0 .099-.09.235-.2.304-.11.069-.2.204-.2.3 0 .097-.078.257-.174.356-.275.282-1.068 1.23-1.478 1.767-.205.269-.461.581-.57.694a7.968 7.968 0 0 0-.46.556 8.05 8.05 0 0 1-.514.608c-.137.142-.45.49-.696.774-.246.284-.523.54-.616.57-.093.03-.216.186-.272.348-.088.252-.447.674-1.407 1.656-.113.115-.205.252-.205.303 0 .05-.133.171-.296.267-.162.096-.466.382-.674.635a17.65 17.65 0 0 1-.725.82c-.19.199-.335.399-.322.445.014.046-.056.104-.154.13-.099.026-.255.18-.348.341-.097.168-.253.294-.365.294-.137 0-.304.194-.555.643-.198.354-.443.67-.544.702-.227.072-.696.591-.954 1.056a6.61 6.61 0 0 1-.537.77c-.189.234-.316.425-.282.425.034 0-.016.087-.113.193-.361.398-.433.511-.379.6.031.049.022.104-.02.123-.105.046-.624 1.07-.624 1.23 0 .073-.136.404-.302.738-.165.334-.329.822-.363 1.084-.034.263-.112.54-.173.617-.061.076-.17.369-.243.649-.237.924-.251 1.077-.106 1.169.1.063.103.087.013.088-.076.001-.125.14-.125.351 0 .193-.04.35-.087.35-.048 0-.082.37-.075.824.007.453-.095 1.498-.227 2.322-.131.825-.25 2.016-.264 2.647-.035 1.574-.04 1.609-.255 1.883-.105.133-.19.317-.19.408a.436.436 0 0 1-.104.27c-.057.057-.144.324-.194.594-.142.767-.381 1.557-.587 1.94a3.117 3.117 0 0 0-.25.608 1.289 1.289 0 0 1-.297.5 1.36 1.36 0 0 0-.306.526 5.052 5.052 0 0 1-.257.699c-.343.758-.34.803.106 1.632.231.429.593 1.065.804 1.414.212.349.385.655.385.68 0 .053.463 1.008.598 1.232.049.083.41.802.8 1.599.391.796.771 1.56.844 1.698.073.137.284.562.469.944.185.383.392.756.46.83.068.075.305.445.525.823.22.377.457.745.527.817.07.072.303.379.519.68.495.694 1.9 2.452 2.277 2.848.156.164.351.425.433.579.213.398.462.67.616.67.073 0 .231.1.352.225.121.124.422.403.669.62.247.218.521.531.61.697.089.165.275.37.413.453.466.28 1.022.733 1.528 1.243.277.279.906.887 1.399 1.352 1.476 1.393 2.318 2.383 2.722 3.2.204.412.408.777.454.81a.23.23 0 0 1 .088.15c.006.131.082.367.175.545.044.085.134.422.198.749.064.326.197.818.296 1.093.298.824.408 1.202.411 1.405.002.106.07.28.15.387.08.106.147.27.147.363 0 .445.799 1.325 1.85 2.04.324.22.765.568.98.774.214.206.427.374.472.374.046 0 .141.081.213.18.09.123.28.185.61.198.264.01.578.086.697.17.12.083.314.152.433.152s.367.152.552.337c.394.397 1.14.69 2.184.858.412.066.881.192 1.043.278.17.092.696.188 1.248.229.525.038 1.478.164 2.116.28.82.147 1.392.194 1.948.158 1.055-.068 1.519-.054 1.93.058.277.075.382.06.534-.077.319-.289 1.63-.225 2.013.097.053.043.322.082.6.085.277.004.729.05 1.004.104.274.054.634.123.799.154.287.053.844.274 1.514.602.442.216 1.04.792 1.437 1.381.4.596.882 1.053 1.494 1.416.247.147.598.406.78.575.183.169.374.296.425.282.051-.014.093.02.093.075 0 .055.068.1.15.1.082 0 .15.045.15.1 0 .054-.07.1-.156.1-.318 0-.034.173.378.23.235.033.709.197 1.053.364.344.168.695.304.779.304.084 0 .288.07.453.155.165.086.384.128.488.096.103-.033.446.015.76.106.38.11.742.147 1.074.107.313-.037.552-.016.638.055.173.144 5.581.196 5.856.056.102-.052.51-.108.904-.125.396-.018.919-.087 1.163-.154s.595-.117.779-.111c.184.005.456-.053.605-.13.254-.131 1.345-.31 2.606-.425.302-.027.572-.083.6-.123.06-.09 1.631-.495 2.447-.631.33-.056.779-.15.998-.209.22-.06.49-.097.6-.083.11.013.29-.017.4-.068.319-.147.999-.314 1.282-.314.144 0 .43-.066.638-.147a3.7 3.7 0 0 1 .726-.192c.6-.076 1.454-.24 1.91-.366.24-.066.617-.135.837-.152.492-.04 2.08-.362 2.148-.437.027-.03.162-.064.3-.076.643-.056 1.372-.264 2.047-.583.82-.388.876-.46.909-1.165a8.87 8.87 0 0 1 .146-1.177c.064-.302.132-.693.15-.869.019-.176.121-.513.228-.75.106-.235.226-.673.266-.972.04-.299.135-.605.21-.681a.546.546 0 0 0 .139-.336c0-.223.256-.758.462-.964.075-.075.137-.195.137-.266 0-.07.083-.236.185-.367s.237-.396.3-.588c.064-.192.273-.547.465-.788.191-.241.348-.5.348-.575 0-.074.059-.135.13-.135.072 0 .19-.169.264-.375.074-.206.163-.397.197-.424.035-.028.31-.34.61-.693.301-.353.817-.92 1.147-1.26 1.234-1.27 1.548-1.62 1.548-1.724 0-.058.086-.133.19-.166.216-.069 1.009-.893 1.009-1.05 0-.056.063-.102.14-.102.153 0 1.058-.875 1.058-1.024 0-.05.191-.282.425-.513.632-.628.944-1.009 1.02-1.246.037-.117.131-.213.21-.213.079 0 .143-.045.143-.099 0-.054.22-.32.489-.59.268-.27.639-.776.823-1.124.332-.628.481-.83 1.21-1.638.205-.228.462-.613.57-.855.108-.241.311-.57.45-.73.14-.159.254-.35.254-.424 0-.074.045-.134.1-.134.055 0 .1-.053.1-.118s.082-.212.183-.325c.101-.113.244-.363.317-.556.192-.505.31-.642.413-.479.053.083.083.009.084-.205.001-.183.09-.459.2-.611.108-.153.383-.834.61-1.514.228-.68.528-1.48.667-1.777.139-.297.267-.68.284-.849.043-.411.245-1.06.407-1.304a1.09 1.09 0 0 0 .135-.5c.002-.166.067-.415.146-.552a1.25 1.25 0 0 0 .147-.5c.003-.137.096-.541.208-.898.113-.357.228-.858.256-1.113.061-.541.087-.682.165-.885.069-.181.238-1.177.374-2.198.466-3.51.498-5.778.098-6.792-.12-.302-.286-.75-.37-.995-.139-.408-.971-2.167-1.258-2.66a5.536 5.536 0 0 0-.402-.549 6.773 6.773 0 0 1-.499-.71c-.12-.202-.69-.957-1.266-1.677-.577-.72-1.176-1.475-1.33-1.679-.155-.203-.47-.575-.7-.826-.23-.25-.617-.69-.86-.977a32.824 32.824 0 0 0-.75-.853c-.168-.183-.508-.554-.755-.826a154.245 154.245 0 0 0-4.046-4.287c-1.255-1.266-1.7-1.75-2.197-2.388a8.722 8.722 0 0 0-.556-.643 9.152 9.152 0 0 1-.6-.705 16.78 16.78 0 0 0-.842-.983c-.275-.296-.589-.679-.698-.852-.11-.173-.409-.527-.664-.786a12.64 12.64 0 0 1-1.018-1.248 14.957 14.957 0 0 0-.934-1.189 56.28 56.28 0 0 1-.931-1.04 28.29 28.29 0 0 0-.757-.842 2.293 2.293 0 0 1-.3-.374c-.131-.233-1.117-1.357-1.603-1.828-.227-.22-.663-.7-.97-1.066-1.119-1.338-2.692-3.022-3.802-4.07a408.5 408.5 0 0 1-2.188-2.105l-2.131-2.063a21.489 21.489 0 0 0-.859-.788c-1.511-1.27-3.237-2.939-3.921-3.793a9.37 9.37 0 0 0-.51-.598c-.202-.186-1.038-1.333-1.038-1.426 0-.05-.13-.273-.29-.493-.405-.558-1.068-1.961-1.265-2.676a57.09 57.09 0 0 0-.317-1.099c-.248-.823-.516-3.018-.521-4.276-.004-1.029.14-2.536.255-2.657.072-.076.44.32.44.475 0 .084.084.335.186.558.103.224.265.586.36.806.096.22.237.53.313.69.077.16.14.343.14.408 0 .205.795 1.636 1.051 1.893.136.135.247.293.247.35 0 .058.06.105.134.105.073 0 .42.322.771.715.351.393.91.933 1.24 1.2.968.784 1.541 1.28 2.462 2.13.476.44 1.104.98 1.395 1.2.29.219.775.657 1.077.973.301.316.606.574.677.574.12 0 2.908 2.65 4.415 4.195 2.328 2.386 3.099 3.197 3.595 3.783.31.364.945 1.046 1.413 1.515.933.935 1.747 1.858 2.034 2.305.101.159.219.289.261.289.042 0 .19.171.33.381.138.21.47.603.737.874.267.272.64.696.829.943.189.247.563.67.832.943.268.271.54.568.605.66.064.09.564.647 1.11 1.236.547.589 1.131 1.259 1.298 1.488.167.23.46.552.652.716.397.341.654.605 2.051 2.103a84.23 84.23 0 0 0 1.41 1.482c.226.226.6.636.833.91.232.275.699.796 1.037 1.158.339.362.723.789.853.949.13.16.378.453.55.652.171.199.424.51.561.692.137.181.295.378.35.437.792.843 2.247 2.73 2.247 2.914 0 .027.115.17.256.32.141.148.372.472.513.72.142.246.41.686.596.975.186.29.568.964.849 1.499.28.534.705 1.31.943 1.724.238.414.496.93.574 1.148.078.218.297.734.488 1.146.666 1.438.96 2.168 1.031 2.556.039.215.15.615.247.89.098.275.253.77.347 1.099.093.33.21.689.26.799.05.11.133.514.183.899l.239 1.848c.081.631.174 1.688.205 2.347.059 1.226-.148 5.117-.284 5.337-.041.067-.112.714-.157 1.438-.084 1.37-.331 3.295-.489 3.813a6.08 6.08 0 0 0-.154.799 8.547 8.547 0 0 1-.22 1.049c-.087.302-.214.796-.283 1.099-.07.302-.199.81-.288 1.128-.089.319-.161.765-.161.991 0 .227-.063.483-.139.57-.076.086-.213.491-.305.9-.091.408-.196.79-.233.849-.078.125-.086.153-.22.798-.057.27-.171.567-.255.66-.083.092-.123.241-.089.331.039.1.002.187-.095.224-.086.033-.186.225-.222.425a2.43 2.43 0 0 1-.252.677c-.104.171-.188.38-.188.463 0 .083-.067.28-.15.437-.081.158-.149.36-.15.45a.432.432 0 0 1-.15.286c-.082.068-.15.183-.15.255 0 .072-.067.198-.15.281-.083.083-.242.345-.353.581-.43.915-.795 1.581-.966 1.765-.307.33-1.527 2.173-1.527 2.305 0 .042-.09.157-.2.257-.11.1-.2.224-.2.277 0 .053-.123.242-.274.42a68.866 68.866 0 0 0-2.186 2.724c-.308.398-.594.724-.636.724-.12 0-.7.625-.7.754 0 .065-.291.375-.648.69-.357.316-.65.619-.65.673 0 .185-1.236 1.442-1.87 1.903-.233.169-.45.39-.482.49-.032.102-.112.185-.176.185-.065 0-.219.147-.341.325-.226.329-.481.602-1.144 1.223-.201.19-.399.447-.438.572-.039.125-.237.43-.44.677-.203.247-.399.53-.435.63-.036.1-.111.153-.167.12-.055-.035-.1-.011-.1.052 0 .064-.101.257-.225.43-.123.174-.214.338-.202.366.012.027-.18.358-.425.735-.246.377-.447.746-.447.821 0 .075-.094.304-.21.51-.204.363-.27.683-.497 2.379-.059.44-.189.98-.29 1.201-.1.222-.233.593-.295.825-.173.64-.777 1.17-1.487 1.3-1.377.256-1.951.32-2.893.32-.657 0-1.016.038-1.041.112-.06.178-1.54.29-3.825.293-1.217 0-2.238.047-2.433.109-.25.08-.393.076-.567-.017-.181-.097-.483-.101-1.35-.02-.615.059-1.177.084-1.248.056-.07-.027-.234.019-.362.102-.148.095-.524.16-1.032.174a5.2 5.2 0 0 0-1.498.26c-.53.18-.978.247-1.853.276-.634.022-1.275.07-1.423.107-.172.043-.27.027-.27-.043 0-.157-.305-.138-.492.032-.112.102-.618.168-1.774.234-1.228.069-1.678.131-1.872.258-.144.095-.474.173-.758.179-.276.006-.535.062-.575.123-.113.173-.297.185-3.12.2-2.056.01-2.7.043-2.891.151-.161.092-.622.145-1.349.158-.632.01-1.199.07-1.328.139-.138.074-.225.081-.225.02 0-.067-.095-.064-.274.007-.151.06-.365.123-.475.138-.11.016-.267.055-.35.087a.378.378 0 0 1-.299-.037zM94.354 139.27c-.032-.08-.055-.055-.06.06-.005.106.02.165.052.132.034-.033.037-.12.009-.191zm.057-.978c.23-.002.241-.62.014-.847-.116-.116-.142-.255-.095-.505a.919.919 0 0 0-.335-.919c-.262-.2-.335-.146-.26.197.065.298.09.72.072 1.223-.03.904-.015.971.21.91.12-.032.298-.059.394-.06zm-.006-.451c.002-.165.025-.22.05-.123a.571.571 0 0 1-.004.3c-.027.067-.048-.012-.046-.177zm22.222-18.854c-.028-.068-.05-.012-.05.125 0 .138.022.194.05.125a.386.386 0 0 0 0-.25zM121.1 229.54c-.163-.123-.168-.147-.032-.15a.423.423 0 0 1 .287.147c.16.192-.004.194-.255.004zm15.738-29.207c-.12-.072-1.187-.252-2.098-.355-.247-.027-1.098-.4-1.098-.481 0-.042-.135-.075-.3-.075-.164 0-.58-.106-.923-.236a28.09 28.09 0 0 0-1.202-.416c-.317-.1-.623-.238-.682-.309-.058-.07-.36-.176-.672-.237-.312-.06-.881-.177-1.266-.26a12.174 12.174 0 0 0-1.049-.187c-.6-.058-.795-.133-1.221-.471-.31-.246-.553-.344-.97-.392a6.327 6.327 0 0 1-1.155-.28c-.33-.118-.757-.261-.949-.318a5.747 5.747 0 0 1-.55-.193c-.698-.31-1.04-.397-1.562-.397-.388 0-.786-.08-1.168-.235-.361-.147-.698-.218-.897-.189-.177.026-.386-.008-.469-.076-.117-.098-.18-.098-.296-.001-.113.093-.261.097-.624.014a8.983 8.983 0 0 0-1.026-.155 50.935 50.935 0 0 1-1.7-.195 16.603 16.603 0 0 0-2.222-.115c-.59.019-1.073-.001-1.073-.044 0-.126-1.14-.19-1.217-.068-.05.077-.257.076-.725-.005-.514-.088-.779-.083-1.23.021-.478.111-1.435.153-3.97.17-.11.002-.484.069-.831.15-.43.101-.894.13-1.449.092a23.816 23.816 0 0 0-1.317-.056c-.51.001-1.098-.292-1.597-.795-.344-.347-.4-.445-.633-1.087-.202-.555-.225-.79-.21-2.097.017-1.402-.08-2.022-.314-2.022-.042 0-.13-.168-.195-.374a4.98 4.98 0 0 0-.408-.85c-.158-.263-.287-.543-.287-.624 0-.08-.15-.21-.333-.286a2.147 2.147 0 0 1-.579-.384c-.233-.234-.275-.241-.856-.145-.52.086-.65.076-.868-.067-.226-.148-.243-.197-.143-.417.096-.21.182-.249.547-.249.239 0 .434.045.434.1 0 .142.375.124.423-.02.03-.093.168-.09.598.014.668.16 2.26.096 3.057-.122.404-.111.64-.259.97-.608.486-.516.608-.55.967-.267.203.16.26.312.306.824.05.554.095.66.382.901.547.458 1.162.696 1.728.668.28-.013.576.002.658.035.083.032.308.086.5.12 1.32.228 1.591.257 1.948.208.22-.03.871.02 1.448.112s1.566.175 2.197.184c.849.012 1.233.06 1.468.182.215.112.34.131.385.06.118-.193.471-.262.886-.174.224.047.655.126.957.174.302.049.752.139.999.2 1.046.258 1.327.306 1.794.306.27 0 .516.04.547.09.03.048.224.112.43.14.207.028.847.142 1.424.253l1.648.316c.33.062.802.154 1.05.203 2.605.515 3.642.688 3.839.639.141-.036.395.024.647.153.228.116.458.184.51.152.054-.033.154-.025.222.018.069.043.234.094.367.112.133.018.321.075.418.127.25.134.664.117.713-.028.031-.094.135-.085.433.038.6.247 1.362.398 1.902.376.268-.01.824.035 1.236.101.412.066 1.222.117 1.798.113 1.38-.009 1.306-.005 2.398-.159a39.682 39.682 0 0 1 1.748-.203c.44-.038.866-.122.949-.186.082-.064.273-.178.425-.254.151-.076.342-.208.424-.295.366-.389.649-.799.649-.942 0-.195.198-.665.365-.867.07-.085.195-.422.279-.75.376-1.477.513-1.926.627-2.063.184-.218.627-1.446.627-1.735 0-.139.159-.546.353-.906.194-.36.33-.73.3-.82-.067-.212-.793-.58-1.275-.649-.204-.029-.59-.163-.86-.298a3.968 3.968 0 0 0-.914-.317 2.602 2.602 0 0 1-.741-.258c-.283-.166-1.919-.691-2.156-.691-.052 0-.333-.107-.623-.239a5.415 5.415 0 0 0-.877-.312 3.477 3.477 0 0 1-.699-.248 3.28 3.28 0 0 0-.699-.244c-.34-.066-.486-.115-.999-.337a10.55 10.55 0 0 0-.699-.257 19.763 19.763 0 0 1-1.068-.403 5.23 5.23 0 0 0-1.199-.314c-.319-.032-.917-.13-1.329-.218-.503-.107-1.257-.159-2.297-.158-1.449 0-1.574.016-1.948.237-.22.13-.422.267-.45.304-.027.037-.252.18-.499.319-.525.293-.614.611-.344 1.235.374.868.58 2.164.374 2.37a.515.515 0 0 0-.094.24c-.088.617-.175.842-.429 1.114-.3.322-.677.388-1.398.244-.338-.068-1.25-.901-1.357-1.241-.034-.107-.097-.194-.141-.194-.044 0-.198-.259-.342-.575-.335-.731-.52-.952-1.014-1.215-.22-.117-.549-.303-.732-.413-.469-.281-1.47-.678-1.9-.752-.2-.034-.566-.13-.814-.212-.247-.083-.836-.162-1.31-.176-.473-.014-.911-.056-.974-.095-.062-.038-.151-.046-.198-.018-.046.03-1.002.059-2.122.066-1.121.007-2.083.048-2.138.09-.055.043-.455.1-.89.127-.595.036-.822.091-.917.221-.077.106-.198.15-.31.115-.102-.033-.499.008-.882.089-.383.08-.868.148-1.078.149-.21 0-.452.072-.538.157-.085.086-.221.13-.301.1-.08-.03-.266.01-.412.09-.146.081-.578.24-.96.354-.382.113-.764.267-.85.341-.293.257-.996.558-1.304.558-.17 0-.474.112-.676.25-.202.137-.418.25-.48.25-.06 0-.286.125-.5.279-.215.153-.727.44-1.14.636-.411.197-.848.454-.969.57-.121.117-.3.228-.4.247a2.48 2.48 0 0 0-.328.092 4.275 4.275 0 0 1-.449.123c-.164.036-.326.11-.36.165-.113.183-.932.299-1.638.232-.735-.069-1.036-.217-1.928-.945-.416-.34-1.219-1.446-1.219-1.679 0-.063-.112-.369-.25-.68-.137-.31-.25-.643-.25-.739 0-.096-.093-.386-.208-.646-.15-.338-.225-.773-.266-1.536-.09-1.635-.068-1.922.184-2.463a5.02 5.02 0 0 0 .287-.748c.063-.284.415-.482 1.426-.802.37-.118.7-.256.731-.307.032-.051.09-.074.128-.05.205.127 1.542-.29 1.914-.597.082-.068.352-.174.6-.236a51.876 51.876 0 0 0 2.646-.806 1.95 1.95 0 0 1 .5-.088c.165-.006.344-.072.4-.147.098-.133 1.143-.275 2.222-.301.288-.007.524-.04.524-.072 0-.112.775-.29 1.536-.355.419-.036.761-.092.761-.125s.249-.045.553-.026c.372.023.627-.014.78-.115.157-.102.373-.132.695-.096.742.084.907-.2.429-.742a6.85 6.85 0 0 1-.557-.73 3.388 3.388 0 0 0-.307-.399 1.116 1.116 0 0 1-.176-.261c-.095-.182-1.072-1.465-1.589-2.086-.248-.299-1.441-1.67-1.645-1.89a1.24 1.24 0 0 1-.236-.375c-.032-.1-.1-.182-.15-.182-.052 0-.094-.064-.094-.142 0-.078-.034-.156-.075-.175-.08-.035-.762-.946-1.052-1.403-.094-.149-.172-.351-.172-.45 0-.097-.202-.58-.45-1.072-.246-.492-.448-.98-.448-1.084 0-.104-.062-.33-.136-.504-.314-.727-.364-.888-.364-1.175 0-.166-.046-.387-.102-.492-.103-.192-.263-.931-.351-1.614a3.769 3.769 0 0 0-.126-.6c-.172-.497-.01-3.673.2-3.922a4.93 4.93 0 0 0 .215-.29c.119-.172.15-.174.421-.033.403.21 1.441 1.424 1.441 1.685 0 .043.207.427.46.855.253.427.619 1.091.813 1.476.342.679.901 1.472 1.622 2.302.193.223.588.74.877 1.149.288.41.746 1.036 1.016 1.393s.495.681.499.72c.004.039.12.241.257.45.71 1.075 1.05 1.326 1.798 1.328.376 0 .573.06.799.24.286.23.3.272.288.973-.006.404-.012.87-.012 1.034-.001.45-.02.927-.066 1.648-.03.458.013.814.144 1.209.149.451.395 2.154.395 2.735 0 .18.441.325 1.199.395 2.033.189 3.855.648 5.48 1.38.54.244 1.8.574 1.853.485.071-.122-.071-2.009-.152-2.009-.212 0 .698-.749 1.15-.946.815-.357 1.909-.587 2.388-.503.23.04.541.068.693.062.15-.006.42-.007.599-.004.178.004.857.004 1.507 0 .65-.004 1.227.02 1.28.053.054.033.33.077.616.097.284.021.765.107 1.067.191.302.084.819.2 1.148.259.33.058.69.145.8.194.39.172 1.158.397 1.355.397.247 0 1.354.356 1.693.544.138.077.588.21.999.296.907.19 2.542.614 2.672.695.052.032.45.124.883.205.433.08 1.168.283 1.632.452.465.168.961.306 1.104.306.143 0 .483.108.754.24.272.133.838.354 1.258.492.42.139.942.343 1.159.453.964.492 3.295 3.085 4.02 4.474.138.263.39.681.562.93.172.249.36.61.42.802l.337 1.099c.339 1.104.313 2.211-.068 2.91-.362.667-.553.886-.771.886-.26 0-.502.426-.422.742.036.146.018.454-.04.685a9.138 9.138 0 0 0-.169.897c-.034.262-.098.453-.144.425-.122-.076-.204.205-.204.699 0 .24-.045.463-.1.497-.055.034-.1.256-.1.493s-.096.649-.214.915c-.118.267-.21.618-.206.78.005.163-.073.411-.173.552-.11.156-.207.528-.245.948-.035.38-.12.757-.187.839-.068.082-.18.4-.25.707-.07.308-.165.717-.21.91a4.499 4.499 0 0 1-.305.798 2.077 2.077 0 0 0-.218.919c.006.447-.163.78-.396.78-.051 0-.093.057-.093.128 0 .07-.09.305-.2.52-.11.216-.2.446-.2.51 0 .066-.152.253-.34.417-.186.165-.389.392-.45.505-.232.434-2.118 1.124-3.08 1.127-.26.001-.79.022-1.174.046-.384.024-.766.004-.849-.045zM59.376 111.02a45.673 45.673 0 0 1-2.347-.188c-.522-.062-1.585-.18-2.362-.26-.778-.082-1.722-.21-2.098-.285-.377-.075-1-.186-1.384-.247l-1.348-.211c-1.535-.241-2.992-.666-3.446-1.006-.35-.262-.456-.603-.408-1.32.064-.944.168-1.606.274-1.74.05-.062.112-.286.14-.496.058-.457.07-.468.643-.632.247-.07.607-.184.8-.254.933-.337 1.398-.463 1.493-.404.057.035.204-.005.326-.092.122-.085.348-.155.501-.155.153 0 .357-.044.452-.098.096-.054.488-.164.873-.245.384-.08.991-.212 1.348-.293.94-.211 2.777-.439 4.895-.606 1.582-.125 2.43-.182 4.595-.306.506-.029.479-.253-.074-.596-.775-.48-1.154-.95-1.428-1.766-.276-.824-.311-2.01-.096-3.283.18-1.068.251-1.03-1.928-1.024-1.019.003-1.901.035-1.961.072-.06.037-.187.042-.283.012-.095-.03-.758-.079-1.472-.109-1.924-.08-2.491-.216-3.205-.768-.593-.46-.757-.703-1.09-1.628-.398-1.105-.231-2.91.33-3.57.08-.094.2-.408.265-.697.104-.462.156-.535.432-.614.254-.073.419-.04.861.169.653.309 1.635.495 2.257.43 1.679-.18 2.18-.252 2.429-.35.154-.062.536-.113.849-.113.312 0 .725-.044.917-.098.192-.053.89-.142 1.548-.198 1.127-.096 1.826-.204 2.647-.408.193-.048.698-.115 1.124-.15.426-.034.774-.101.774-.15 0-.049.068-.062.15-.03.082.031.15.006.15-.054 0-.066.208-.11.524-.11a4.26 4.26 0 0 0 .91-.108c.69-.192 1.95-.389 2.711-.423.22-.01.43-.06.467-.111.036-.051.149-.1.25-.11a28.217 28.217 0 0 0 1.43-.21c.844-.17 6.072-.658 7.542-.703 1.78-.055 2.056-.085 2.373-.256.366-.198.704-.12.901.206.088.147.69.803 1.336 1.458 1.342 1.36 1.933 2.12 2.363 3.037.32.686.37 1.235.133 1.504a1.24 1.24 0 0 0-.208.383c-.092.302-1.141.595-2.203.617-1.12.022-5.313.387-6.393.555-.494.077-1.146.167-1.448.2-.302.032-.969.134-1.48.227l-.932.17.065.353c.035.194.145.601.244.905.242.743.15 1.752-.196 2.145a1.36 1.36 0 0 0-.24.415c-.037.119-.18.29-.32.382-.573.376-.734.57-.63.765.055.102.165.186.246.186.08 0 .146.036.146.081 0 .045.154.155.342.245.189.09.627.403.974.696 1.228 1.036 2.451 1.774 2.939 1.774.563 0 .837.293.986 1.052.033.166.226.526.43.799.4.534.907 1.265 1.075 1.549.057.096.163.245.234.331.071.086.103.198.071.25-.031.051.012.26.097.464.085.203.161.669.169 1.034l.014.665-.558.58-.558.582-.935-.123a28.066 28.066 0 0 0-1.734-.165c-.994-.054-2.225.137-2.267.353-.029.144-.476.27-2.228.632-.274.056-.599.167-.72.245-.122.079-.414.143-.65.143-.235 0-.765.072-1.177.16a14.22 14.22 0 0 1-1.248.21c-.275.028-.553.093-.618.147-.066.053-.315.067-.556.03-.312-.046-.61-.008-1.041.134a4.653 4.653 0 0 1-1.192.199c-.324 0-.948.047-1.388.104-1.219.158-2.65.196-4.195.113zm13.534-9.138a1.4 1.4 0 0 1 .575-.146c.178-.002.324-.046.324-.097 0-.05.072-.164.159-.25.145-.146.13-.21-.167-.732a63.767 63.767 0 0 1-.433-.773c-.26-.483-.995-1.348-1.144-1.348-.302.001-.96.218-1.136.375-.097.085-.175.126-.175.09 0-.036-.09.024-.2.134-.138.138-.2.333-.2.63 0 .236-.04.472-.089.524-.049.052-.23.361-.402.687-.24.456-.283.612-.185.679.07.048.52.059 1 .024.742-.052.875-.039.875.09 0 .136.182.192.799.243.082.006.262-.052.4-.13zm58.09 6.153c-.036-.059-.165-.107-.285-.107-.866.001-1.724-.125-2.095-.308-1.367-.673-1.565-.808-2.2-1.494-.369-.397-.67-.765-.67-.817 0-.052-.066-.161-.147-.242-.221-.222-.563-1.477-.62-2.277-.06-.84.1-1.4.477-1.68.229-.17.31-.18.691-.077.238.064.654.303.925.532l.492.415 1.114-.032c1.524-.044 1.947-.081 2.412-.213.22-.063.714-.155 1.099-.206.384-.05.811-.114.949-.142.803-.16 1.256-.292 1.314-.382.038-.06.265-.078.56-.043.359.042.556.016.712-.093.119-.083.473-.176.788-.207.314-.03.627-.1.695-.153a.307.307 0 0 1 .27-.042c.215.083 1.337-.117 1.59-.284.12-.078.43-.163.689-.189.258-.025.514-.073.569-.107.054-.034.246-.08.426-.104a9.62 9.62 0 0 0 .907-.196c.318-.084.7-.154.849-.155a.918.918 0 0 0 .464-.15.893.893 0 0 1 .462-.147c.147 0 .449-.064.67-.142.222-.078.425-.12.452-.094.026.026.244-.04.483-.146.794-.353 1.08-.44 1.24-.38.086.034.287-.005.446-.088.158-.082.379-.149.49-.149.11 0 .439-.107.729-.238.29-.13.782-.268 1.093-.306.338-.04.588-.123.62-.206.037-.098.156-.121.411-.08.276.045.41.012.58-.144.121-.112.377-.236.567-.276.44-.094.964-.583 1.042-.974.07-.348.312-.565.634-.57.124-.001.225-.046.225-.098 0-.187 1.01.377 1.722.962.399.327 1.085.856 1.524 1.175 1.057.766 1.915 1.688 2.052 2.204.058.22.17.607.25.862.196.624.183.91-.054 1.212-.11.14-.2.301-.2.358 0 .305-1.527 1.294-2.142 1.388a.82.82 0 0 0-.358.177.757.757 0 0 1-.439.148c-.152 0-.39.09-.53.2-.14.11-.332.2-.428.2a.447.447 0 0 0-.297.148c-.068.082-.166.123-.217.091-.05-.031-.147-.014-.213.04-.066.053-.278.12-.47.15-.193.03-.552.104-.8.163a65.46 65.46 0 0 1-1.897.415 8.428 8.428 0 0 0-.92.251c-.203.074-.788.185-1.298.247s-.999.15-1.084.196c-.086.045-.558.114-1.049.153-.491.038-.946.11-1.01.161-.064.051-.434.11-.823.133-.389.023-.794.088-.9.145a1.277 1.277 0 0 1-.5.104c-.17 0-.307.042-.307.093 0 .052-.172.092-.382.089a1.702 1.702 0 0 0-.675.144c-.208.108-.422.13-.75.08-.253-.039-.545-.037-.65.005-.104.041-.45.078-.766.082-.316.004-.654.048-.749.099-.095.05-.668.165-1.272.255a23.37 23.37 0 0 0-1.449.251c-.42.106-3.067.303-4.05.302-.387-.001-.753.048-.813.107-.077.077-.128.078-.174.002zm7.436-9.153c-1.137-.241-1.434-.374-2.072-.927-.65-.563-1.358-1.667-1.456-2.266a2.745 2.745 0 0 0-.109-.45c-.033-.082-.122-.621-.198-1.198-.112-.856-.114-1.077-.009-1.199.07-.082.16-.499.2-.925.05-.534.132-.853.265-1.023.107-.135.216-.415.243-.622.07-.535.256-1.126.355-1.126.046 0 .084-.068.084-.15 0-.084.05-.231.11-.328.148-.237-.04-.928-.352-1.29l-.235-.273-.486.246c-.267.135-.544.325-.616.421a.499.499 0 0 1-.356.176.818.818 0 0 0-.418.146c-.107.081-.338.149-.513.15-.175.002-.347.05-.382.105-.034.056-.098.08-.143.052-.044-.027-.524.113-1.066.312-.543.2-1.133.383-1.312.409-.178.025-.324.086-.324.135 0 .05-.05.09-.11.09s-.234.088-.386.196c-.152.109-.471.222-.71.252-.238.03-.457.09-.487.136-.03.045-.415.14-.854.212-.44.071-.839.165-.887.208-.048.043-.149.055-.225.025-.076-.029-.242.015-.368.098-.426.279-1.61.31-2.613.069-.895-.216-1.206-.376-1.835-.945a4.138 4.138 0 0 0-.474-.381c-.078-.044-.141-.124-.141-.176 0-.053-.158-.424-.35-.825-.387-.804-.418-1.054-.308-2.515.1-1.334.36-2.084.944-2.706.253-.27.46-.535.462-.588.002-.128.659-.235 1.783-.29.503-.024 1.05-.073 1.215-.109.83-.18 1.212-.295 1.348-.408.169-.14 1.028-.444 1.252-.444.08 0 .147-.061.147-.136 0-.09.178-.157.524-.197.36-.042.578-.127.696-.272.115-.14.237-.19.367-.148.106.034.22.02.252-.032.032-.052.224-.094.427-.094.242 0 .416-.064.507-.185.075-.102.186-.171.246-.155.06.017.145-.028.19-.1.053-.087.318-.13.814-.13.567 0 .775-.04.91-.174.096-.097.25-.175.343-.175.229 0 1.914-.406 2.18-.526.119-.054.27-.064.336-.023.067.041.15.028.186-.03.036-.058.536-.157 1.111-.22.576-.064 1.076-.164 1.113-.222.037-.061.195-.081.368-.046.167.033.318.022.335-.025.036-.095 1.267-.222 2.005-.207.362.008.474-.026.474-.142 0-.093.058-.13.149-.094.082.031.273.014.424-.037.153-.053.407-.059.57-.014.161.044.476.038.699-.014.312-.072 2.599-.182 4.152-.2.966-.01 2.984.082 3.08.142.069.042.182.029.253-.03.086-.071.237-.075.458-.012.218.063.396.06.526-.01a.726.726 0 0 1 .447-.042c.138.035.629.085 1.09.111.462.027.963.1 1.113.164.151.064.432.125.624.136.192.012.53.07.749.128.22.059.692.169 1.049.244.777.165 2 .794 2.837 1.461.66.526 1.158 1.045 1.158 1.205 0 .055.035.1.077.1.093 0 .415.727.48 1.086.1.552.042.565-2.265.535-1.811-.024-2.14-.006-2.29.13-.147.133-.291.142-.96.06-.487-.06-1.202-.062-1.884-.006-.604.05-1.727.12-2.496.158-.954.047-1.439.11-1.53.202a.527.527 0 0 1-.301.14c-.843.03-3.534.497-4.163.72a6.1 6.1 0 0 1-.798.216 2.46 2.46 0 0 0-.599.187c-.11.062-.387.12-.614.128-.228.008-.464.046-.525.084-.065.04-.111.365-.111.782 0 .668.025.75.388 1.268.634.906 1.379 2.418 1.504 3.056.065.327.145.662.179.744.118.29.335 1.256.426 1.898.05.357.115.773.143.924.036.19.01.274-.083.274-.089 0-.156.181-.197.525-.108.928-.183 1.273-.274 1.273-.049 0-.089.107-.089.238 0 .13-.07.296-.157.368-.086.071-.24.292-.34.489-.1.197-.438.56-.75.806-.31.246-.677.548-.813.671-.136.124-.29.225-.342.225-.052 0-.187.092-.3.205-.149.149-.413.229-.973.293-.423.048-.837.11-.92.137-.082.026-.441-.014-.798-.089z" style="fill:#000;stroke-width:.0998865"/>
</svg>
