<svg xmlns="http://www.w3.org/2000/svg" xml:space="preserve" width="210mm" height="297mm" viewBox="0 0 210 297">
  <path d="M7.974 271.474c-.077-.09-.164-.148-.194-.13-.207.129-.972-1.062-1.255-1.953-.063-.199-.21-.436-.325-.526-.155-.123-.21-.247-.215-.484-.003-.175-.055-.378-.116-.452-.06-.073-.132-.421-.159-.774-.032-.423-.086-.655-.161-.684-.072-.027-.113-.18-.113-.416 0-.205-.04-.448-.09-.54-.068-.129-.05-.247.085-.523.208-.43.216-.555.036-.555-.107 0-.125-.055-.083-.262.028-.144.056-.38.06-.523.008-.253.011-.254.076-.053.056.175.068.149.075-.161.009-.398.167-.927.276-.927.037 0 .067-.134.067-.297a.74.74 0 0 1 .16-.469c.089-.094.186-.27.216-.389s.121-.313.204-.431a1.59 1.59 0 0 0 .205-.445c.03-.126.093-.23.138-.23.045 0 .082-.056.082-.125 0-.07.035-.126.078-.126.079 0 .34-.465.34-.605 0-.098.81-.902.908-.902.04 0 .145-.094.231-.21.087-.115.202-.209.257-.209.054 0 .205-.104.336-.23.13-.128.575-.474.99-.77.414-.297.784-.589.82-.649.037-.06.117-.11.178-.11.062 0 .159-.056.216-.125a.383.383 0 0 1 .257-.125c.083 0 .207-.078.273-.174.067-.095.307-.293.534-.44.386-.248.883-.63 1.327-1.019.39-.341.543-.46.59-.46.042 0 .861-.664 1.394-1.129.08-.07.177-.127.215-.127.038 0 .144-.085.237-.189.24-.268.692-.657 1.034-.89.161-.11.372-.28.469-.377.356-.36.69-.638.765-.638.043 0 .124-.087.181-.193.057-.107.315-.38.573-.608.258-.227.552-.498.653-.601.1-.104.217-.189.26-.189.041 0 .32-.23.618-.51a75.023 75.023 0 0 1 2.225-1.987c.18-.153.571-.453.87-.665.3-.213.714-.525.921-.693.208-.169.471-.355.587-.414.115-.06.265-.159.334-.221.434-.393 1.075-.898 1.235-.974.104-.049.189-.12.189-.159 0-.038.075-.07.167-.07.092 0 .168-.037.168-.082 0-.044.122-.144.272-.221.15-.078.46-.305.69-.505.229-.2.464-.364.522-.364.059 0 .107-.038.107-.084 0-.046.047-.084.104-.084.058 0 .444-.263.858-.583.415-.321.95-.7 1.19-.843.24-.143.458-.33.486-.417.027-.087.198-.224.38-.304.182-.08.33-.173.33-.206 0-.072.68-.41.826-.41.109 0 .486-.223.665-.394.06-.057.248-.165.418-.239.171-.074.368-.164.439-.2.07-.037.242-.092.381-.122.14-.03.436-.148.66-.262.225-.113.468-.206.541-.206.074 0 .326-.07.56-.156.235-.086.574-.183.753-.216.18-.034.439-.129.577-.211.14-.084.517-.176.855-.207.332-.031.708-.108.837-.17.283-.139 1.223-.277 2.243-.33.917-.05 1.367-.113 1.958-.277.248-.07.579-.105.736-.08.184.03.514-.026.93-.158.354-.113.814-.206 1.022-.208.627-.006 3.097-.38 3.202-.485.055-.055.341-.098.656-.098.42 0 .608-.039.758-.157.11-.087.37-.177.577-.2a38.42 38.42 0 0 0 1.59-.263c.668-.121 1.497-.22 1.842-.219.345.001.964-.032 1.374-.073.41-.041 1.014-.063 1.34-.047.326.015.744-.006.928-.046.545-.12 1.635-.26 2.219-.282.534-.021 2.605-.326 3.182-.469.16-.04.644-.17 1.073-.288.43-.12.914-.216 1.076-.216.162 0 .395-.07.517-.157.212-.149.356-.192 1.018-.306.16-.028.368-.081.46-.119l.402-.161c.129-.052.32-.095.426-.095.106 0 .415-.078.687-.173a17.02 17.02 0 0 1 1.08-.328c.323-.085.736-.233.919-.329.182-.096.42-.174.528-.174.107 0 .355-.073.55-.162.323-.147.83-.262 2.274-.515.276-.049.728-.145 1.005-.215.753-.19 1.05-.261 1.465-.354.207-.047.697-.16 1.088-.252.89-.209 1.133-.247 1.968-.308.368-.027.831-.103 1.029-.169a2.78 2.78 0 0 1 .727-.119c.203 0 .62-.058.929-.13.308-.07.67-.105.804-.076.134.03.29.018.345-.026.056-.044.303-.102.55-.13.246-.028.491-.086.544-.13.087-.072.24-.108.91-.213.298-.047.4-.114.4-.262 0-.139.132-.162.21-.037.068.111.521.107.559-.006.016-.05.207-.099.424-.111.246-.014.46-.083.571-.183.105-.095.42-.201.77-.26.325-.055.694-.176.82-.268.125-.093.505-.235.844-.316.339-.08.673-.206.742-.28.069-.072.336-.27.594-.44.4-.26.514-.398.767-.917.334-.686.564-1.48.567-1.963.001-.178.076-.546.168-.82.172-.515.16-.753-.045-.831-.094-.036-.11-.161-.07-.585.046-.484.03-.567-.155-.82-.2-.272-.357-.705-.606-1.663-.342-1.317-.423-1.507-.718-1.687a1.458 1.458 0 0 0-.536-.191c-.137-.009-.264-.062-.282-.116-.018-.054-.116-.099-.217-.099a.774.774 0 0 1-.37-.13 1.13 1.13 0 0 0-.332-.16 3.945 3.945 0 0 1-.523-.197c-.208-.091-.66-.211-1.005-.267-.651-.105-1.836-.557-2.343-.894-.16-.107-.333-.194-.384-.194-.051 0-.209-.122-.35-.272-.14-.15-.56-.497-.932-.772-.623-.46-2.16-1.985-2.384-2.365-.19-.322-.686-.982-.87-1.16-.104-.1-.189-.21-.189-.246 0-.1-.539-.889-.796-1.165a1.724 1.724 0 0 1-.314-.494c-.089-.253-.13-.312-.555-.78-.13-.145-.258-.353-.283-.461-.081-.36-.269-.776-.417-.927a.53.53 0 0 1-.147-.308c0-.087-.056-.18-.125-.207a.206.206 0 0 1-.126-.176c0-.07-.03-.128-.068-.128-.037 0-.134-.15-.215-.335-.081-.184-.183-.335-.225-.335-.043 0-.078-.053-.078-.118 0-.064-.132-.35-.293-.636-.161-.285-.294-.561-.296-.615-.001-.053-.058-.17-.125-.259a.701.701 0 0 1-.123-.36c0-.21-.434-1.146-.634-1.368a.473.473 0 0 1-.12-.26c0-.07-.112-.292-.25-.495-.137-.203-.25-.446-.25-.54a.67.67 0 0 0-.125-.336.703.703 0 0 1-.126-.35c-.001-.104-.038-.19-.08-.19-.043 0-.14-.216-.217-.48a7.328 7.328 0 0 0-.25-.733 6.84 6.84 0 0 1-.245-.729c-.074-.262-.168-.498-.21-.524-.043-.027-.057-.18-.03-.34.03-.188.013-.291-.048-.291-.056 0-.095-.15-.095-.37 0-.203-.038-.382-.085-.398-.116-.039-.396-1.635-.489-2.79-.081-1.014-.051-3.51.052-4.313.05-.39.11-.944.131-1.229.022-.284.061-.553.088-.597.028-.044.069-.451.092-.906a13.11 13.11 0 0 1 .117-1.245c.082-.455.033-.986-.084-.914-.04.025-.073.008-.073-.036 0-.116-.79-.682-.953-.682-.075 0-.135-.035-.135-.078 0-.042-.142-.122-.314-.178a1.608 1.608 0 0 1-.458-.225.388.388 0 0 0-.359-.071c-.285.072-.875-.09-1.106-.304-.136-.127-.25-.158-.436-.121-.138.028-.273.015-.3-.029-.086-.139.118-.72.335-.954.115-.124.21-.277.21-.34s.028-.127.062-.142c.073-.033.694-1.249.692-1.355 0-.04-.115-.19-.255-.335-.472-.49-.583-.616-.583-.667 0-.097-.898-1.349-1.189-1.656a2.083 2.083 0 0 1-.269-.396c-.07-.135-.183-.267-.252-.294-.069-.026-.2-.19-.29-.366-.092-.175-.371-.55-.622-.835-.25-.284-.543-.642-.65-.795-.107-.153-.244-.309-.303-.346-.06-.036-.11-.116-.11-.176 0-.06-.281-.403-.626-.763s-.647-.717-.671-.794c-.025-.077-.144-.194-.266-.259a1.158 1.158 0 0 1-.369-.358 1.457 1.457 0 0 0-.37-.388 7.73 7.73 0 0 1-.706-.597 18.725 18.725 0 0 0-.976-.84 18.02 18.02 0 0 1-.662-.544 8.226 8.226 0 0 0-.662-.489c-.561-.38-.814-.585-1.42-1.15-.233-.22-.45-.399-.483-.399-.094 0-1.695-1.616-1.91-1.929a12.96 12.96 0 0 0-.585-.75c-.488-.582-.99-1.33-1.18-1.758a1.596 1.596 0 0 0-.204-.335c-.06-.07-.137-.286-.169-.482-.032-.195-.088-.355-.125-.355-.088 0-.588-.98-.591-1.159a.63.63 0 0 0-.123-.298c-.066-.087-.101-.19-.078-.227.023-.037.007-.135-.036-.218-.043-.082-.18-.432-.305-.778a23.54 23.54 0 0 0-.344-.904c-.131-.308-.52-1.986-.624-2.696a12.646 12.646 0 0 0-.105-.628 17.12 17.12 0 0 1-.186-1.549 9.985 9.985 0 0 0-.109-.846c-.178-1.061-.268-2.811-.259-5.057.006-1.243.009-2.317.008-2.386 0-.07.051-.634.116-1.256s.125-1.432.135-1.8c.01-.369.067-.816.127-.994.061-.179.11-.537.11-.796s.055-.772.122-1.14c.154-.842.298-2.007.298-2.413 0-.17.098-.715.218-1.21.12-.494.249-1.257.287-1.694.037-.438.106-1.154.153-1.591a37.19 37.19 0 0 0 .13-1.591c.026-.438.102-1.06.169-1.382.092-.44.129-1.386.148-3.81.027-3.485.014-3.903-.153-4.855a7.908 7.908 0 0 1-.112-1.032c-.002-.221-.036-.466-.077-.544-.04-.077-.094-.348-.12-.601-.056-.533-.364-1.83-.467-1.962-.038-.05-.092-.288-.12-.53a2.942 2.942 0 0 0-.17-.711 6.236 6.236 0 0 1-.22-.585c-.054-.172-.132-.334-.175-.36-.043-.027-.078-.136-.078-.243a.43.43 0 0 0-.12-.294c-.066-.055-.143-.22-.172-.366-.075-.384-.201-.66-.852-1.857-.15-.276-.366-.697-.48-.934-.115-.238-.248-.457-.297-.487-.048-.03-.088-.13-.088-.223 0-.143-.143-.41-.755-1.412-.182-.298-.673-1.38-.764-1.68-.054-.182-.126-.33-.16-.33-.1 0-.56-.764-.69-1.145a2.728 2.728 0 0 0-.374-.67 2.233 2.233 0 0 1-.347-.667c-.051-.19-.145-.388-.21-.442a.72.72 0 0 1-.173-.323c-.03-.125-.158-.397-.283-.604a12.07 12.07 0 0 1-.51-1.005c-.156-.345-.308-.647-.337-.67-.03-.023-.139-.268-.242-.544a9.501 9.501 0 0 0-.31-.74c-.066-.13-.12-.29-.12-.357s-.128-.376-.285-.687c-.157-.311-.306-.702-.333-.868-.061-.387-.419-1.095-.51-1.012-.04.035-.047.021-.017-.031.03-.052-.024-.316-.12-.586a13.996 13.996 0 0 1-.462-1.705 2.602 2.602 0 0 0-.217-.536 1.999 1.999 0 0 1-.2-.555c-.053-.448-.469-1.883-.564-1.943-.07-.044-.065-.062.014-.063.087 0 .084-.027-.01-.123-.068-.066-.148-.294-.18-.505a5.928 5.928 0 0 0-.22-.855c-.088-.259-.161-.556-.161-.662 0-.105-.035-.212-.077-.238-.07-.044-.185-.533-.216-.926a1.274 1.274 0 0 0-.062-.293 7.279 7.279 0 0 1-.15-.753c-.215-1.319-.256-1.555-.303-1.759a3.019 3.019 0 0 1-.042-.576c.003-.202-.032-.439-.079-.526-.11-.206-.169-.975-.161-2.11.004-.521-.031-.954-.082-1.015-.13-.156-.195-2.007-.088-2.463.05-.212.107-.893.127-1.515.04-1.267.139-2.188.326-3.056.288-1.342.321-1.52.327-1.78.004-.149.034-.271.067-.271.034 0 .104-.217.157-.482l.163-.816c.079-.39.257-.802.4-.921.055-.046.163-.31.24-.586.204-.739.343-1.141.492-1.424.072-.138.132-.331.132-.429 0-.098.057-.225.126-.282.07-.058.126-.156.126-.22 0-.063.034-.115.074-.115.041 0 .1-.132.13-.293.03-.161.086-.293.123-.293.038 0 .137-.18.22-.398.145-.387.301-.631.688-1.082.104-.12.189-.28.19-.354 0-.073.054-.228.12-.343.065-.115.201-.389.302-.607.1-.219.217-.398.26-.398.041 0 .1-.066.13-.147a.88.88 0 0 1 .166-.257.443.443 0 0 0 .109-.272c0-.089.056-.161.124-.161.151 0 .492-.512.627-.943.055-.173.13-.296.168-.273.083.052.188-.194.125-.295-.024-.04.07-.156.21-.26.139-.102.253-.236.253-.296s.038-.11.084-.11c.046 0 .083-.055.083-.121 0-.067.104-.184.23-.26.218-.132.636-.642 1.256-1.53.15-.213.46-.588.69-.833.231-.245.42-.482.42-.526 0-.043.05-.08.111-.08.062 0 .165-.103.23-.23.066-.126.186-.28.267-.34.081-.06.219-.25.306-.419.162-.317.628-.852.743-.852.084 0 .52-.498.52-.595 0-.041.054-.075.12-.075.065 0 .263-.187.439-.415.176-.229.343-.417.37-.419.027-.002.253-.192.502-.421.25-.23.554-.503.678-.607.123-.104.227-.234.23-.287.003-.054.138-.18.3-.28.161-.1.333-.255.38-.344.048-.09.12-.142.16-.117.041.025.098-.03.128-.123s.091-.169.137-.169c.092 0 .659-.574.659-.668 0-.032.15-.108.332-.168.182-.06.314-.14.291-.175-.022-.036.045-.125.15-.197.198-.137.845-.702 1.423-1.241.184-.173.378-.314.43-.314.052 0 .233-.122.401-.272.621-.551.743-.649.81-.649.039 0 .236-.154.44-.343.203-.189.577-.48.83-.646.253-.166.517-.364.586-.44.07-.075.248-.2.398-.277.15-.077.272-.177.272-.222 0-.045.068-.081.152-.081.083 0 .26-.113.392-.252.133-.138.279-.25.325-.25.114 0 .69-.392 1.084-.737.177-.154.488-.352.691-.439.204-.087.37-.195.37-.24 0-.046.286-.224.635-.396.348-.173.68-.38.737-.461a.843.843 0 0 1 .308-.236c.21-.09.33-.159.837-.483.163-.105.338-.19.387-.19.112 0 .895-.365 1.277-.594.158-.096.438-.234.622-.307.184-.074.404-.203.487-.287.084-.084.21-.152.278-.152.07 0 .126-.04.126-.089 0-.049.033-.068.074-.043.04.026.12-.01.178-.078a.38.38 0 0 1 .254-.125c.083 0 .222-.09.31-.2.086-.111.324-.259.529-.328.204-.07.742-.319 1.196-.553.454-.235.865-.426.914-.426.049 0 .27-.116.49-.258.222-.142.442-.234.49-.205.047.03.086.016.086-.031s.143-.124.318-.171c.174-.047.394-.158.489-.246a.431.431 0 0 1 .394-.117c.133.026.222.005.222-.05 0-.052.09-.094.2-.094a.444.444 0 0 0 .303-.126c.057-.07.153-.126.213-.126s.22-.094.358-.209c.136-.115.301-.21.366-.21a.327.327 0 0 0 .197-.076c.044-.042.193-.087.331-.101a.89.89 0 0 0 .377-.122c.069-.053.236-.123.37-.155.135-.032.337-.131.45-.22.114-.09.272-.163.352-.163.08 0 .246-.079.368-.175.123-.097.383-.197.577-.222.194-.025.372-.075.395-.11.061-.092 1.161-.497 1.35-.497.086 0 .157-.038.157-.084 0-.046.05-.084.113-.084.062 0 .298-.098.523-.218.226-.12.505-.234.62-.253.115-.02.322-.087.46-.15s.44-.172.67-.241c.23-.07.645-.21.921-.311.276-.102.71-.237.963-.302s.536-.152.628-.193a5.25 5.25 0 0 1 .565-.185c.219-.06.398-.159.398-.22 0-.085.038-.089.176-.015.128.068.202.069.268.003.05-.05.19-.092.31-.092s.261-.044.315-.097c.143-.143.69-.319.999-.32.147 0 .298-.054.335-.12.067-.117.993-.467 1.237-.467.071 0 .29-.074.484-.165.196-.09.694-.239 1.107-.33.414-.091.765-.205.782-.254.016-.049.226-.089.466-.089.24 0 .477-.04.527-.09.05-.05.217-.12.373-.159.155-.037.715-.179 1.245-.314 1.455-.371 1.742-.434 2.47-.534 1.01-.139 1.286-.168 1.926-.203l1.256-.068c.368-.02.908-.08 1.199-.133.943-.17 1.873-.252 3.122-.277.856-.017 1.264-.057 1.356-.134.091-.076.544-.124 1.456-.154.728-.025 1.387-.078 1.464-.12.078-.04.424-.074.77-.074.345 0 .652-.039.681-.086.032-.052.212-.065.451-.033.22.029.603.013.852-.036.25-.048.888-.109 1.417-.134l2.721-.138c2.756-.142 4.627-.167 5.4-.072.48.058.901.06 1.291.004a3.36 3.36 0 0 1 1.214.032c.35.064 1.216.14 1.925.168.71.03 1.463.09 1.675.136.211.045.761.117 1.222.16.46.042 1.054.118 1.32.168.265.05.52.067.566.039.046-.029.281-.012.522.038s.533.109.648.13l.419.082c.115.024.379.06.586.08.64.06 2.186.3 2.847.44.345.073.91.15 1.256.17.345.022.673.077.728.123.056.045.14.059.187.03.076-.047.57.054.927.189.069.026.4.056.737.067.337.01.676.048.754.083.078.036.198.074.267.085.38.065 1.617.21 2.051.242.276.02.69.08.921.131.23.052.588.113.796.137.207.024.414.07.46.102.046.033.235.07.419.081.184.012.467.055.628.094.16.04.557.134.879.21.322.076.78.213 1.02.304.238.091.652.186.92.21.532.046.949.174.949.29 0 .04.057.074.127.074s.268.088.44.196c.171.108.422.223.558.257.135.033.348.133.473.222.125.09.294.162.375.162.081 0 .34.108.573.24.234.132.558.266.719.298.161.032.368.089.46.127l.402.162c.129.052.34.094.471.094.13 0 .284.057.341.126a.438.438 0 0 0 .298.125c.106 0 .431.118.722.261.291.143.699.34.906.436.207.097.652.34.987.54.336.201.788.412 1.005.469.217.056.714.322 1.104.59.655.449 1.428.856 1.918 1.01.154.048.173.079.084.135-.083.053-.054.074.106.075.128 0 .41.144.67.341.246.187.573.394.727.46.154.065.418.225.586.354.169.13.467.306.663.391.195.085.356.187.356.226 0 .04.05.071.11.071.062 0 .2.094.308.21.108.115.226.209.262.209.035 0 .162.09.282.201.12.111.34.26.488.33.149.07.382.227.52.348a3.1 3.1 0 0 0 .5.351c.138.073.392.25.565.393l.628.522c.172.144.508.38.745.525.237.146.453.32.479.388.026.068.11.123.185.123.076 0 .401.264.722.586.321.323.63.587.685.587.094 0 1.645 1.42 2.435 2.228.678.694 2.105 2.135 2.452 2.476.195.192.356.382.356.422 0 .04.207.28.46.536s.46.493.46.528c0 .073.196.311.694.843.614.657.93 1.054 1.232 1.548.162.263.446.654.633.868.187.214.459.577.604.807.269.428.553.772 1.074 1.305.162.165.284.335.27.377-.038.128.572 1.248.84 1.542.138.151.273.363.3.47.027.108.167.395.31.638.143.242.307.598.365.79.058.193.18.457.272.587.215.306.69 1.679.692 1.998.001.136.136.568.3.96.453 1.08.598 1.565.704 2.344.053.391.15.88.214 1.088l.245.777c.07.22.127.542.127.714 0 .173.06.399.132.503.107.152.121.31.075.805-.047.499-.034.63.066.688.152.087.22.461.302 1.662.035.507.102.997.15 1.089.134.258.369 2.746.367 3.893 0 .3.08 1.26.177 2.135.322 2.885.26 7.67-.124 9.713-.07.368-.167.933-.216 1.256-.287 1.878-.505 2.996-.693 3.555a2.875 2.875 0 0 0-.113.422c-.007.069-.11.429-.23.8a8.756 8.756 0 0 0-.266 1.016c-.028.188-.162.657-.298 1.042-.136.385-.248.799-.249.919 0 .12-.11.46-.242.754a6.261 6.261 0 0 0-.337.953c-.052.23-.172.701-.266 1.047-.094.345-.19.76-.216.92a2.606 2.606 0 0 1-.156.545c-.105.24-.284 1.273-.456 2.637a81.853 81.853 0 0 1-.205 1.474c-.172 1.16-.151 6.971.029 7.862.101.505.247 2.466.336 4.527.036.832.111 1.651.167 1.821.056.17.08.413.055.539-.026.126-.069 1.247-.095 2.49-.026 1.243-.082 2.411-.124 2.596-.043.184-.079.803-.08 1.376-.002 1.065.004 1.032-.513 2.747a6.61 6.61 0 0 0-.207 1.005 5.438 5.438 0 0 1-.166.859l-.297.963c-.1.322-.236.694-.303.825-.067.132-.176.45-.243.707-.067.257-.153.507-.192.556-.04.049-.099.22-.132.382-.034.16-.091.33-.127.376-.113.144-.476 1.386-.547 1.87a2.45 2.45 0 0 1-.212.614c-.094.184-.24.643-.322 1.019a7.66 7.66 0 0 1-.289 1.01 2.972 2.972 0 0 0-.173.753c-.069.836-.154 1.436-.232 1.642-.08.211-.186 1.635-.161 2.177.007.161.025.65.04 1.088.014.438.071 1.116.127 1.508.055.391.12.974.145 1.295.024.32.073.622.109.67.036.047.11.312.167.588.102.503.18.726.396 1.144.064.122.116.303.116.403 0 .1.044.263.098.364.095.177.128.3.316 1.18.048.226.201.587.34.803.137.215.25.428.25.473 0 .145.352.818.556 1.061.109.13.198.274.198.32 0 .046.207.516.46 1.045.254.53.46 1.03.46 1.114 0 .084.051.194.113.246.061.05.157.244.213.428.055.185.135.336.179.336.043 0 .156.18.252.398l.248.565c.04.092.099.262.13.377.03.115.203.52.383.901.381.805.524 1.215.66 1.89.054.27.15.611.211.76.347.829.66 4.146.473 5.018-.05.238-.154.922-.23 1.52-.075.599-.205 1.24-.287 1.424-.083.184-.225.526-.316.76-.09.233-.294.593-.452.8-.159.209-.374.655-.48 1-.107.341-.266.7-.354.796a3.897 3.897 0 0 0-.388.6c-.3.554-.86 1.348-1.315 1.86-.2.226-.389.488-.419.583-.03.095-.09.173-.133.173-.043 0-.078.052-.078.115 0 .062-.07.204-.157.314-.087.11-.28.426-.429.702-.149.276-.295.52-.324.544a3.5 3.5 0 0 0-.275.335 9.651 9.651 0 0 1-.523.617c-.166.179-.301.409-.301.511 0 .198-.45.881-.581.881-.043 0-.104.081-.135.18-.06.191-.092.23-1.262 1.521-.409.452-.789.927-.844 1.057a1.499 1.499 0 0 1-.356.45c-.14.118-.255.248-.255.29 0 .04-.112.185-.25.319-.136.134-.249.286-.25.338-.002.052-.135.239-.297.415-.161.177-.327.444-.369.594-.041.15-.169.36-.283.465a2.365 2.365 0 0 0-.386.535 2.423 2.423 0 0 1-.394.542 1.967 1.967 0 0 0-.334.43 2.314 2.314 0 0 1-.295.42c-.241.26-.909 1.337-.91 1.467 0 .058-.211.411-.469.786-.258.374-.506.788-.552.92-.046.132-.118.24-.16.24-.041 0-.075.051-.075.114 0 .195-.449 1.013-.712 1.297-.138.15-.523.543-.856.874-1.198 1.193-1.168 1.18-2.343 1.116-.882-.047-.953-.04-.917.095.021.08.14.541.263 1.025.123.484.278 1.056.343 1.272.066.216.12.48.121.586 0 .106.059.438.129.738.279 1.192.372 1.78.543 3.432.256 2.478.234 5.89-.043 6.553-.07.17-.128.418-.128.553 0 .135-.106.447-.235.694-.129.246-.325.673-.436.949-.25.62-.533.991-.988 1.296-.1.068-.183.172-.183.23 0 .06-.036.108-.08.108-.043 0-.238.17-.432.377s-.416.376-.494.376c-.078 0-.42.285-.76.632-.342.348-.734.693-.872.766-.138.073-.27.158-.293.19-.054.074-1.015.59-1.098.59-.035 0-.452.188-.927.418-.475.23-.981.418-1.125.418-.143 0-.488.073-.765.161-.631.202-1.136.28-1.988.304-.368.011-1.028.076-1.465.145a14.12 14.12 0 0 1-1.675.134 42.2 42.2 0 0 0-1.727.063c-.542.034-.996.017-1.258-.046-.335-.08-.5-.075-.903.03-.356.093-.523.103-.601.038-.078-.064-.191-.063-.399.006-.159.053-.689.128-1.177.167-.489.04-.937.112-.997.161-.06.05-.2.073-.311.051-.518-.1-.664.225-.246.546.138.106.251.234.251.285 0 .051.076.14.168.198.092.057.167.143.167.191 0 .048.125.208.278.356.152.147.386.437.52.644.134.207.38.547.545.754.166.207.405.666.533 1.02.127.355.258.656.291.67.098.042.429.806.429.99 0 .093.087.31.193.482.458.739.792 2.037.848 3.298.022.483.077.974.121 1.092.049.126.067.932.045 1.962a76.57 76.57 0 0 0 .018 3.414l.055 1.666.39.406c.234.242.466.406.575.406.1 0 .183.038.183.084 0 .046.068.083.15.083.084 0 .187.034.23.075.077.072 1.432.428 1.63.428.052 0 .152.056.22.125.117.116.207.135.784.164.235.012.97.34 1.05.469a.168.168 0 0 0 .15.071c.247-.03.404.02.536.175.079.092.22.168.313.17.094 0 .26.095.37.211.155.163.271.207.52.192.191-.011.38.033.47.11.082.07.329.213.547.317.22.103.398.222.398.264 0 .042.153.076.34.076.242 0 .448.073.707.251.2.138.384.251.407.251.083 0 .933.546.992.637.033.05.24.16.46.244.221.083.552.248.736.366.515.33.585.371 1.019.593.222.114.461.257.53.317.07.06.314.25.544.42.23.172.469.36.53.417a.389.389 0 0 0 .217.104c.209 0 .621.26 1.065.67.247.227.476.415.51.417.032.002.25.17.482.377.232.207.516.4.63.428.115.029.209.084.209.122 0 .039.148.158.329.266.18.108.541.384.8.612.26.229.507.42.55.426.044.006.133.015.199.021.066.006.144.086.173.178.03.092.108.167.175.167.067 0 .156.09.198.2.041.109.182.24.312.291.324.128.504.251.921.63.415.378.902.721 1.023.721.046 0 .114.053.15.117.038.064.313.278.612.475.3.197.563.38.586.407.023.027.202.157.398.29.195.133.356.274.356.314 0 .04.056.072.125.072.068 0 .171.075.229.167.058.093.166.168.242.168.075 0 .184.057.241.126.14.17 1.343.795 1.528.795.086 0 .146.063.146.152 0 .095.108.194.292.266.161.063.394.22.518.35.125.13.271.237.326.237.055 0 .146.056.203.124.057.069.135.106.174.082.038-.024.108.029.156.117.047.088.18.183.294.212.115.03.25.128.299.22.049.09.144.166.211.166.068 0 .123.037.123.082 0 .089.614.504.745.504.075 0 .226.116.787.607.145.126.308.23.362.23.054 0 .296.206.539.457.242.252.47.44.506.417.037-.023.112.044.168.15.09.17.46.567.53.567.015 0 .192.155.393.344.543.51.596.552.847.666.127.058.23.155.23.216 0 .06.095.171.21.247.115.075.21.19.21.253 0 .064.027.111.062.106.162-.026.267.044.774.512.3.277.578.503.619.503.04 0 .399.325.795.723.397.397.853.82 1.014.94.162.12.674.604 1.14 1.077.464.473.875.86.913.86.037 0 .165.108.284.24.12.133.392.32.605.417.213.096.41.233.437.303.027.07.126.128.22.128.1 0 .17.056.17.135 0 .087.045.117.13.085.07-.028.107-.015.081.028-.026.042.019.074.1.07.082-.004.388.13.68.298.292.168.582.306.643.306.123 0 .917.469 1.133.67.074.068.223.182.33.25.226.147.635.508 1.388 1.226.529.504.538.52.538.955 0 .513-.213 1.062-.44 1.134-.088.027-.137.072-.11.098.07.071-.21.355-.35.355-.066 0-.215.075-.331.166-.188.148-.293.16-.955.113-.536-.038-.745-.025-.745.044 0 .053-.057.096-.127.096-.167 0-.767-.38-.812-.515-.02-.058-.178-.115-.353-.126-.175-.011-.38-.074-.455-.14-.226-.198-.66-.391-.877-.391-.112 0-.225-.054-.25-.119-.025-.065-.283-.251-.574-.414a5.011 5.011 0 0 1-.947-.726c-.23-.236-.598-.521-.817-.633-.218-.112-.397-.26-.397-.328 0-.069-.07-.125-.157-.125-.085 0-.25-.074-.365-.164-.115-.09-.233-.141-.263-.112-.029.03-.053-.024-.053-.12 0-.116-.072-.19-.222-.227-.205-.052-.95-.748-.95-.888 0-.034-.092-.084-.204-.112-.112-.028-.227-.127-.256-.219-.03-.092-.102-.167-.162-.167-.06 0-.236-.132-.392-.292-.156-.16-.318-.293-.36-.293-.084-.001-.384-.264-.922-.805-.188-.19-.454-.403-.593-.475-.138-.072-.4-.285-.582-.473-.182-.188-.378-.341-.435-.341-.058 0-.135-.05-.172-.111-.036-.061-.198-.202-.36-.314a3.196 3.196 0 0 1-.334-.254 1.895 1.895 0 0 0-.335-.2 2.107 2.107 0 0 1-.51-.389c-.12-.132-.263-.24-.32-.24-.149 0-.845-.42-.845-.51 0-.042-.073-.076-.163-.076a.388.388 0 0 1-.272-.15c-.103-.143-.814-.52-.98-.52-.043 0-.09-.028-.106-.063-.015-.036-.301-.228-.635-.429-.334-.2-.607-.394-.607-.431 0-.037-.113-.093-.251-.123s-.251-.087-.251-.127c0-.039-.085-.097-.189-.128a1.086 1.086 0 0 1-.335-.186c-.08-.071-.146-.103-.146-.071s-.154-.094-.342-.28c-.188-.186-.395-.338-.46-.338-.066 0-.12-.03-.12-.065 0-.036-.14-.138-.313-.228a2.702 2.702 0 0 1-.514-.354c-.11-.105-.25-.19-.311-.19s-.152-.076-.2-.168c-.05-.092-.141-.167-.203-.167-.062 0-.133-.077-.158-.17-.024-.094-.076-.161-.114-.15-.118.032-.59-.252-.753-.454a1.853 1.853 0 0 0-.367-.327c-.198-.127-.747-.59-1.1-.93-.084-.08-.19-.146-.236-.146-.046 0-.084-.03-.084-.068 0-.036-.34-.306-.754-.598s-.753-.563-.753-.602c0-.04-.044-.072-.098-.072-.053 0-.33-.217-.614-.481-.652-.607-1.178-1.026-1.287-1.026-.046 0-.279-.187-.517-.415a4.55 4.55 0 0 0-.84-.627c-.38-.2-1.006-.596-1.616-1.026-.144-.1-.31-.185-.371-.188-.061-.003-.23-.096-.377-.208a1.706 1.706 0 0 0-.497-.26c-.127-.032-.23-.11-.23-.174 0-.145-.222-.154-.28-.012-.029.073-.044.075-.048.007-.004-.054-.139-.141-.3-.195-.161-.053-.293-.131-.293-.174 0-.042-.041-.077-.092-.077-.05 0-.187-.075-.304-.167a.926.926 0 0 0-.49-.168c-.17 0-.308-.053-.354-.136-.042-.074-.168-.145-.28-.158-.259-.028-.876-.239-1.201-.41-.138-.073-.315-.132-.393-.132-.078 0-.162-.035-.188-.075-.04-.066-.42-.155-.8-.188-.07-.006-.213-.09-.32-.186-.138-.126-.21-.148-.254-.076-.047.076-.112.073-.278-.013a1.144 1.144 0 0 0-.415-.116c-.11-.002-.5-.086-.869-.186-1.08-.293-1.222-.323-1.926-.419a9.805 9.805 0 0 1-.92-.161c-.907-.255-1.483-.468-1.627-.603-.092-.085-.195-.155-.23-.155-.07 0-1.015-.648-1.185-.813-.06-.06-.137-.108-.17-.108-.084 0-1.1-1.221-1.1-1.323 0-.046-.132-.317-.294-.603-.16-.285-.293-.539-.293-.565 0-.048-.341-.795-.564-1.235a3.166 3.166 0 0 1-.196-.502 13.823 13.823 0 0 0-.245-.754 7.948 7.948 0 0 1-.26-.92 32.73 32.73 0 0 0-.167-.796 9.099 9.099 0 0 1-.128-.712 2.626 2.626 0 0 0-.151-.586c-.128-.297-.255-1.125-.384-2.512a34.232 34.232 0 0 0-.205-1.716c-.061-.392-.117-1.368-.123-2.17-.006-.801-.03-1.489-.055-1.527-.024-.039-.074-.46-.113-.938-.085-1.066-.223-1.384-.853-1.962-.265-.243-.505-.517-.534-.608-.03-.092-.166-.288-.305-.437-.138-.149-.363-.502-.498-.785-.136-.283-.308-.566-.384-.628-.075-.063-.208-.274-.295-.47-.086-.195-.19-.355-.228-.355-.039 0-.094-.093-.123-.207a.891.891 0 0 0-.204-.356c-.084-.082-.26-.407-.392-.723-.29-.696-.477-.839-1.022-.783-.326.034-1.094.196-1.488.314-.046.013-.215-.002-.377-.034-.31-.062-1.412.132-1.499.264-.027.042-.332.07-.678.063-.409-.008-.704.03-.846.108-.17.093-.33.103-.712.045-.335-.051-.707-.042-1.161.029-.662.103-.964.07-1.41-.159-.095-.048-.191-.048-.252 0-.101.08-2.936.235-3.53.192-.637-.045-3.021-.03-4.94.033-1.06.035-2.02.062-2.136.06-.532-.006-1.698-.107-1.772-.153-.045-.027-.47-.101-.944-.164-1.033-.135-1.08-.145-1.14-.224-.026-.035-.214-.098-.419-.141-.204-.044-.532-.12-.728-.169-.195-.049-.999-.144-1.786-.21-.786-.066-1.474-.155-1.528-.197-.185-.146-1.182-.185-2.48-.098-1.551.104-2.686.147-5.153.198-1.013.02-2.03.062-2.26.09-.231.03-.608.072-.838.094-.672.066-2.792.043-3.475-.037-.345-.04-.684-.064-.753-.052-.07.01-.333.046-.587.078a7.532 7.532 0 0 0-.9.18c-.281.077-.494.095-.586.047-.08-.041-.41-.082-.732-.091a14.909 14.909 0 0 1-1.214-.097c-.346-.044-.788-.056-.984-.027-.333.05-.356.07-.356.32 0 .146.031.302.07.346.038.044.119.343.18.665.061.323.157.7.213.838.056.138.127.55.16.916.03.365.083.704.115.753.031.049.06.315.064.591.004.277.037 1.049.074 1.717.045.83.034 1.452-.035 1.967a115.2 115.2 0 0 0-.374 3.098c-.155 1.41-.279 2.181-.38 2.371a9.712 9.712 0 0 0-.297.77c-.418 1.187-1.076 2.289-1.774 2.97-.31.303-1.89 1.132-2.156 1.132-.074 0-.283.094-.466.21-.285.18-.396.203-.773.16-.32-.037-.51-.014-.691.082a1.333 1.333 0 0 1-.52.133c-.149 0-.445.06-.658.133-.373.126-.397.125-.573-.04-.17-.162-.196-.164-.374-.04a.562.562 0 0 1-.432.085c-.133-.026-.264-.012-.292.033-.027.045-.158.081-.291.081-.133 0-.265.038-.293.084-.029.046-.23.083-.447.083-.234 0-.477.058-.596.14-.11.078-.524.213-.918.301-1.512.337-2.235.475-2.491.478-.146.002-.5.063-.787.136-.287.073-.63.112-.764.085-.243-.048-.468-.009-1.679.294-.356.09-.883.184-1.172.21-.288.025-.572.086-.63.134-.06.05-.455.119-.88.155a11.6 11.6 0 0 0-1.149.149c-.898.199-1.725.463-1.933.616-.123.091-.464.215-.757.275-.464.096-1.617.39-2.48.635-.15.042-.395.11-.544.15-.15.04-.442.134-.65.208-.206.074-.437.135-.511.136-.075 0-.231.077-.348.169-.117.092-.29.167-.386.167a1.47 1.47 0 0 0-.447.117 7.598 7.598 0 0 1-.735.247 43.42 43.42 0 0 0-1.132.343c-.37.118-.758.214-.864.214-.106 0-.369.074-.584.165-.476.199-1.29.388-2.025.468-.3.033-.63.092-.734.13-.291.109-1.868.35-2.192.336-.159-.007-.486.044-.727.114-.24.07-.752.16-1.135.201-.383.04-.734.085-.78.1-.046.015-.45-.002-.896-.037-.647-.05-.86-.038-1.051.061-.236.122-.635.179-1.822.26a5.548 5.548 0 0 0-1.005.167c-.23.07-.539.127-.687.127-.147.001-.468.072-.711.159a7.645 7.645 0 0 1-1.07.261 8.2 8.2 0 0 0-1.183.303c-.305.11-.72.2-.921.2a4.857 4.857 0 0 0-.877.122c-.281.066-.857.147-1.28.179-.423.031-.789.09-.813.13-.024.039-.207.07-.407.07-.412 0-1.678.219-1.93.333-.247.113-.972.245-1.091.2-.057-.023-.235.015-.396.082-.16.067-.664.148-1.12.18-.454.032-.988.112-1.186.177-.262.086-.405.094-.525.03-.124-.066-.21-.056-.349.042a.756.756 0 0 1-.358.129c-.096 0-.21.035-.254.078a.679.679 0 0 1-.289.117c-.375.068-.586.157-.586.247 0 .049-.024.064-.053.035-.029-.029-.131.002-.228.07a.925.925 0 0 1-.45.123c-.26 0-.489.089-.776.302-.07.052-.236.12-.37.152-.135.032-.399.167-.587.3-.187.133-.444.267-.571.297-.127.03-.23.09-.23.134 0 .125-.43.469-.82.656-.198.095-.38.228-.407.296-.026.068-.083.123-.128.123-.044 0-.203.095-.354.21-.151.115-.309.21-.35.212-.042.002-.207.115-.366.252-.16.136-.332.247-.383.247-.133 0-.709.53-.709.651 0 .057-.028.097-.063.09-.187-.04-1.169.677-1.938 1.414-.157.15-.311.273-.343.273-.032 0-.167.095-.301.21-.134.115-.29.209-.348.209-.058 0-.105.075-.105.168 0 .092-.05.167-.113.167-.18 0-.649.259-.697.386-.025.064-.092.116-.15.116-.058 0-.195.087-.305.193-.43.413-.972.808-1.031.749-.034-.035-.051-.025-.038.021.026.088-.654.796-.764.796-.035 0-.218.15-.406.332-.189.183-.436.357-.55.385a.703.703 0 0 0-.35.274c-.21.33-.882 1.012-1.122 1.14-.115.062-.304.267-.419.454-.115.188-.282.366-.371.396-.09.03-.278.162-.42.294-.14.132-.303.24-.36.24-.058 0-.179.086-.268.19-.412.48-.573.631-.912.857a3.32 3.32 0 0 0-.586.51c-.122.147-.36.34-.528.429a3.02 3.02 0 0 0-.592.449c-.387.388-.942.823-1.242.972-.136.068-.247.156-.247.197 0 .04-.134.099-.298.13-.205.038-.284.091-.254.17.025.064-.004.116-.063.116-.06 0-.185.085-.28.188-.394.435-.776.733-.939.733a.632.632 0 0 0-.342.144 4.14 4.14 0 0 1-.583.364 2.72 2.72 0 0 0-.646.484c-.128.145-.293.264-.367.264-.073 0-.222.094-.33.21-.109.115-.247.209-.308.209s-.111.041-.111.092c0 .088-.271.462-.545.752-.069.073-.125.16-.125.194s-.056.118-.125.188c-.07.069-.129.245-.133.391-.003.147-.026.218-.05.158-.07-.174-.265.04-.36.398-.047.172-.16.4-.253.505-.092.107-.167.28-.167.386 0 .105-.035.213-.078.239-.042.026-.102.163-.133.304-.074.336-.512.83-.74.833a.695.695 0 0 0-.342.125c-.213.161-.272.156-.44-.04zm128.057-60.726c.227.019.131.02 2.366-.011 1.54-.021 2.291-.078 3.432-.261.116-.019.549-.111.963-.205.415-.094.952-.172 1.193-.173.242 0 .44-.035.44-.077 0-.042.217-.094.481-.116a7.36 7.36 0 0 0 .859-.128 23.35 23.35 0 0 1 1.256-.222 23.307 23.307 0 0 0 1.44-.264c.308-.072.742-.141.963-.154a4.2 4.2 0 0 0 .736-.115c.185-.051.472-.094.64-.095.166-.002.43-.055.585-.119.367-.15 2.143-.32 3.192-.303.173.003.314-.034.314-.08 0-.114.56-.112.63.001.031.05.097.058.152.018.157-.114.719-.287.789-.243.087.053 1.966-.095 2.49-.197a12.97 12.97 0 0 1 1.682-.21c.28-.02.612-.074.738-.122.125-.048.33-.088.453-.088.215-.002.792-.169 1.146-.332.092-.043.356-.093.586-.111.38-.03 1.507-.376 1.926-.59 1.21-.616 1.603-.927 2.147-1.699a6.46 6.46 0 0 1 .427-.549c.081-.083.147-.203.147-.266 0-.064.052-.16.116-.212.309-.256.355-2.315.09-3.985-.389-2.453-.481-2.955-.586-3.182-.063-.138-.194-.59-.29-1.003-.095-.413-.228-.836-.296-.939-.067-.103-.122-.231-.122-.285 0-.054-.072-.254-.159-.443-.087-.19-.258-.653-.379-1.03a7.704 7.704 0 0 0-.499-1.18c-.153-.27-.3-.583-.327-.695-.059-.246-.516-1.636-.728-2.212a15.71 15.71 0 0 1-.296-.92 79.63 79.63 0 0 0-.254-.88c-.265-.888-.395-1.41-.46-1.842a68.32 68.32 0 0 0-.155-.963c-.115-.68-.26-2.876-.26-3.92.001-1.195.24-3.21.508-4.285.293-1.177.437-1.671.67-2.302.145-.392.337-.949.427-1.238.09-.29.255-.71.367-.933.113-.224.205-.451.205-.504 0-.054.072-.237.16-.407.088-.17.198-.404.244-.519.14-.345.549-1.225 1.178-2.534.327-.68.595-1.263.595-1.297 0-.034.145-.345.323-.69.434-.847 1.77-4.94 1.77-5.426 0-.055-.066-.167-.147-.25a4.772 4.772 0 0 1-.383-.496c-.131-.19-.366-.408-.524-.482-.157-.075-.286-.19-.286-.255s-.084-.164-.188-.219a1.142 1.142 0 0 1-.272-.198c-.136-.16-.85-.712-.919-.712-.063 0-.384-.253-.965-.758-.465-.405-.692-.582-.745-.582-.028 0-.15-.085-.273-.188a48.22 48.22 0 0 0-.584-.482 9.635 9.635 0 0 1-.524-.453c-.09-.089-.37-.33-.623-.535-.65-.53-1.412-1.313-1.477-1.517-.03-.096-.086-.174-.122-.174-.037 0-.53-.452-1.094-1.005-.565-.552-1.05-1.004-1.078-1.004-.028 0-.146-.092-.261-.203l-.608-.586c-.219-.212-.398-.417-.398-.457 0-.04-.107-.095-.239-.12-.131-.027-.442-.223-.69-.435a9.602 9.602 0 0 0-.83-.63 9.679 9.679 0 0 1-.46-.312c-.244-.197-.898-.606-.969-.606-.044 0-.277-.135-.515-.3-.24-.163-.54-.319-.668-.345-.129-.025-.234-.074-.234-.107 0-.057-.3-.198-.9-.423-.15-.056-.272-.135-.272-.175 0-.04-.073-.074-.163-.074-.089 0-.183-.033-.208-.074-.025-.04-.3-.179-.612-.308-.311-.129-.644-.303-.739-.386a.633.633 0 0 0-.346-.153c-.095 0-.469-.168-.83-.374s-.761-.397-.888-.425c-.127-.028-.253-.086-.279-.128-.026-.043-.136-.078-.243-.078-.108 0-.216-.052-.24-.116-.047-.122-.515-.386-.685-.386-.055 0-.168-.075-.251-.167-.084-.092-.196-.168-.25-.168-.054 0-.187-.094-.295-.21-.109-.116-.394-.3-.634-.41-.24-.11-.514-.277-.608-.37-.094-.095-.39-.35-.657-.568-.268-.217-.58-.527-.696-.687a7.551 7.551 0 0 0-.575-.67c-.2-.207-.42-.536-.486-.73-.066-.194-.212-.44-.325-.545-.113-.106-.205-.238-.205-.292 0-.055-.15-.426-.335-.824-.184-.4-.335-.786-.335-.86 0-.075-.071-.253-.158-.397a2.106 2.106 0 0 1-.22-.629 3.435 3.435 0 0 0-.17-.632c-.1-.241-.174-.752-.46-3.206-.14-1.212-.035-1.398.416-.73.142.21.257.408.257.44 0 .033.135.247.3.478.165.23.378.569.473.753.095.184.296.48.448.658.152.177.336.45.41.607.075.156.169.284.21.284.04 0 .098.075.127.166.072.23 1.245 1.174 1.457 1.174.094 0 .234.094.309.209.082.125.216.21.335.21.12 0 .303.115.464.292.178.196.341.293.492.293.123 0 .296.08.383.175.173.192.749.495.94.495.065 0 .256.072.423.16.167.088.36.182.43.209.07.027.182.08.251.12.34.192.537.28.694.311.095.018.196.07.224.116.028.045.181.14.341.212.16.072.347.165.416.207.069.042.382.2.696.35.314.152.59.305.612.342.023.036.107.066.188.066.08 0 .228.076.326.168.1.092.238.167.31.167.07 0 .128.037.128.083 0 .104.546.336.793.336.116 0 .22.078.28.21.053.114.156.209.23.209.073 0 .247.113.385.25.138.139.317.252.397.252.08 0 .222.085.315.188.243.273.616.555.93.706.15.072.348.235.438.361.09.127.27.252.4.278.13.026.329.138.442.25.112.11.362.3.554.42.192.12.372.286.399.368.027.083.237.282.465.443.229.161.417.322.418.357 0 .036.133.127.295.204.16.077.293.169.293.204 0 .035.098.17.22.298.12.13.309.376.419.549.11.173.25.314.31.314.062 0 .244.141.405.314.162.173.53.521.818.774.288.254.595.536.682.628l.397.419c.257.27 1.059.964 1.235 1.069.059.035.26.214.445.397.185.184.392.334.46.334.067 0 .197.094.287.21.09.115.203.209.25.209.048 0 .099.031.114.07.015.038.235.211.488.384.253.173.73.584 1.06.914l.687.683c.553.544 1.434 1.528 1.434 1.603.001.053.055.116.121.142.066.025.26.264.43.532.17.267.34.498.38.513.088.034.772 1.008 1 1.423.55 1.007.666 1.237.666 1.332 0 .059.034.107.076.107.042 0 .178.273.301.607.124.334.297.767.384.962.088.195.16.388.16.429 0 .04.072.239.16.44.09.202.208.762.264 1.246.122 1.058.055 3.126-.116 3.534-.063.151-.14.426-.171.61-.052.305-.396 1.322-.554 1.636a2.31 2.31 0 0 0-.127.418c-.034.16-.09.328-.124.374-.034.046-.087.215-.118.376-.03.16-.147.43-.26.6-.112.17-.283.543-.379.828-.096.285-.428 1.013-.737 1.618-.31.605-.632 1.28-.715 1.5-.084.219-.2.446-.258.503-.057.058-.183.312-.278.564-.49 1.292-.56 1.467-.611 1.505-.116.087-.312.562-.416 1.005-.06.253-.209.686-.331.963-.315.706-.88 2.455-1.085 3.353-.184.806-.217 1.778-.092 2.717.078.584.387 1.741.503 1.882.04.047.098.236.13.42.056.312.224.783.514 1.445.169.384.33.345.39-.094.095-.69.634-2.115.912-2.41.06-.062.202-.25.317-.417.236-.342.97-1.02 1.194-1.102.082-.03.183-.146.226-.258.042-.112.192-.272.333-.355.141-.084.256-.202.256-.263 0-.205.246-.59.635-.998l.704-.738c.174-.185.402-.503.505-.708.102-.205.355-.541.56-.746.205-.206.431-.462.502-.57.146-.222.276-.255.276-.07 0 .153.2.166.313.021a.985.985 0 0 0 .134-.314c.029-.115.175-.346.326-.513.544-.603 1.018-1.253 1.155-1.586.108-.259.333-.336.333-.115 0 .072.04.106.09.076.048-.03.069-.108.044-.172-.026-.068.06-.195.203-.3.137-.102.249-.22.249-.263 0-.043.122-.22.272-.395.344-.399.606-.772.607-.863 0-.04.1-.152.22-.251.122-.1.302-.341.4-.537.098-.195.232-.356.297-.356.065 0 .145-.084.178-.186.067-.211.294-.552.663-.993a5.18 5.18 0 0 0 .418-.586l.44-.746c.149-.254.307-.536.35-.628.045-.092.174-.254.29-.36.114-.106.252-.332.307-.502.16-.51.32-.716.461-.6.099.083.12.065.115-.098-.003-.11.13-.576.296-1.036.165-.46.395-1.12.51-1.465.391-1.174.466-3.286.154-4.366a8.59 8.59 0 0 1-.195-.867c-.094-.596-.515-2.015-.697-2.345-.294-.534-.542-1.027-.59-1.173a1.749 1.749 0 0 0-.129-.292 24.17 24.17 0 0 1-.425-.851c-.192-.399-.403-.77-.47-.825-.066-.055-.258-.388-.428-.74a8.21 8.21 0 0 0-.635-1.085 4.63 4.63 0 0 1-.45-.732c-.065-.159-.154-.288-.196-.288-.043 0-.104-.083-.136-.185a.874.874 0 0 0-.173-.299.428.428 0 0 1-.115-.26c0-.079-.107-.293-.238-.475a2.791 2.791 0 0 1-.326-.588 1.61 1.61 0 0 0-.294-.481 2.262 2.262 0 0 1-.356-.622c-.081-.219-.2-.457-.262-.53a.465.465 0 0 1-.114-.238c0-.058-.056-.206-.124-.328-.187-.337-.546-1.28-.546-1.433 0-.075-.077-.285-.17-.467-.094-.183-.225-.646-.292-1.03-.068-.383-.14-.725-.162-.76-.088-.142-.17-2.256-.151-3.877.015-1.34.05-1.816.153-2.093.074-.197.164-.529.202-.736.038-.208.127-.584.199-.837.072-.253.155-.705.186-1.005.03-.299.108-.67.171-.826a1.57 1.57 0 0 0 .115-.455c0-.094.15-.483.335-.864.184-.38.335-.778.336-.885.003-.37.24-1.311.442-1.755.112-.246.231-.674.265-.95.034-.276.09-.54.125-.586.095-.126.166-.423.298-1.256.066-.414.18-.96.253-1.214.073-.253.187-.835.253-1.292.067-.457.181-.922.254-1.034.097-.148.14-.459.16-1.137.039-1.46.2-3.804.303-4.45.089-.552.191-4.988.159-6.907-.03-1.767-.024-2.09.071-4.186.141-3.107.157-3.323.263-3.644.053-.16.087-.64.075-1.066-.025-.908.063-1.802.227-2.306.064-.197.116-.655.116-1.018s.059-.955.13-1.316c.073-.36.183-.995.246-1.41.062-.414.15-.904.195-1.088.176-.718.267-1.25.267-1.56 0-.177.095-.615.212-.972.362-1.11.374-1.155.374-1.505 0-.212.043-.357.115-.385.081-.031.114-.199.11-.574a7.678 7.678 0 0 1 .098-1.116c.228-1.33.364-2.019.431-2.177.157-.37.242-.788.297-1.463.032-.39.105-.786.164-.88.058-.093.13-.565.159-1.048.03-.484.106-1.331.171-1.884.065-.553.142-1.831.17-2.841.03-1.067.106-2.118.18-2.51.07-.37.105-.824.077-1.01a2.77 2.77 0 0 1 .028-.756c.052-.277.05-.453-.007-.522-.056-.067-.067-.551-.032-1.381.034-.818.017-1.58-.048-2.116a22.816 22.816 0 0 1-.107-2.105c-.005-1.043-.03-1.296-.141-1.423-.088-.101-.14-.33-.15-.65a5.173 5.173 0 0 0-.092-.838 3.642 3.642 0 0 1-.081-.655 4.07 4.07 0 0 0-.094-.712l-.161-.692a50.042 50.042 0 0 1-.48-2.554c-.023-.184-.07-.353-.105-.376-.035-.023-.122-.25-.193-.503-.34-1.222-.462-1.598-.55-1.705-.053-.063-.155-.318-.228-.566-.151-.52-.5-1.297-.614-1.368-.043-.026-.137-.251-.21-.5-.072-.249-.165-.465-.206-.48-.041-.015-.327-.518-.636-1.116-.309-.599-.699-1.292-.867-1.54-.943-1.393-1.1-1.642-1.1-1.73 0-.053-.16-.264-.356-.47-.422-.44-1.068-1.212-1.068-1.274 0-.073-.41-.46-.588-.555-.09-.049-.24-.235-.332-.415-.091-.18-.233-.376-.315-.437-.082-.06-.35-.353-.596-.651a16.62 16.62 0 0 0-1.162-1.214l-1.09-1.026c-.205-.195-.445-.376-.531-.404-.087-.027-.159-.101-.159-.164s-.066-.135-.147-.161c-.081-.026-.41-.293-.733-.593-.882-.823-1.15-1.057-1.38-1.201-.342-.215-.955-.713-1.072-.87-.06-.082-.166-.147-.234-.147-.069 0-.302-.162-.519-.36-.344-.312-.638-.527-1.59-1.162a1.465 1.465 0 0 1-.26-.21c-.07-.095-.343-.265-.61-.381a.764.764 0 0 1-.32-.27c-.124-.222-.647-.604-1.382-1.009-.322-.177-.727-.447-.9-.6-.173-.153-.377-.279-.454-.279-.076 0-.114-.025-.083-.055.03-.03-.18-.175-.468-.32-.949-.48-1.202-.634-1.469-.893a2.867 2.867 0 0 0-.517-.332 9.74 9.74 0 0 1-.783-.469c-.224-.151-.446-.275-.491-.275-.046 0-.18-.075-.296-.167-.117-.093-.286-.168-.375-.168-.09 0-.327-.114-.529-.252-.202-.14-.491-.276-.643-.305a1.164 1.164 0 0 1-.444-.19c-.22-.182-.834-.509-.955-.509-.053 0-.339-.188-.635-.418-.297-.23-.593-.42-.658-.42-.064 0-.164-.056-.222-.125-.057-.069-.153-.125-.213-.125s-.161-.052-.224-.115a.935.935 0 0 0-.32-.18 1.97 1.97 0 0 1-.457-.25 2.09 2.09 0 0 0-.418-.242c-.092-.033-.463-.255-.823-.494-.36-.24-.681-.439-.712-.443a2.167 2.167 0 0 1-.292-.104 1.277 1.277 0 0 0-.345-.098c-.06 0-.157-.057-.215-.126a.436.436 0 0 0-.298-.125c-.107 0-.324-.077-.483-.17-.16-.094-.321-.163-.36-.153-.04.01-.299-.088-.575-.216a5.89 5.89 0 0 0-1.005-.345c-.848-.187-2.14-.58-2.763-.84-.255-.106-1.151-.282-2.512-.495a12.608 12.608 0 0 1-1.046-.2c-.161-.046-.82-.123-1.465-.172a24.136 24.136 0 0 1-1.424-.137c-.43-.083-4.045-.102-4.718-.026-.352.04-1.003.093-1.446.117-.442.025-1.008.103-1.256.174-.247.071-.668.15-.933.176-.266.026-.503.08-.528.12-.025.04-.168.074-.318.074a.846.846 0 0 0-.435.123.676.676 0 0 1-.332.125.774.774 0 0 0-.355.132c-.101.072-.232.122-.29.112-.152-.025-.573.086-.818.216-.115.06-.492.136-.837.168-1.053.096-1.707.215-1.91.348a.697.697 0 0 1-.377.108 1.29 1.29 0 0 0-.392.039 4.261 4.261 0 0 1-.503.093c-.273.033-.67.108-1.59.3a5.699 5.699 0 0 1-.838.09c-.253.005-.524.043-.602.083-.157.08-.749.186-2.068.367-.479.066-.946.144-1.038.173-.286.091-2.015.269-2.141.22-.066-.025-.164.015-.217.088-.072.098-.3.144-.876.178-.428.024-.821.079-.874.12-.053.042-.303.099-.557.128-.253.028-.8.108-1.214.176-.414.069-1.036.165-1.381.214-.346.049-.91.144-1.256.211s-1.061.138-1.591.157c-1.172.042-2.712.174-3.391.291a9.068 9.068 0 0 1-.905.106c-.221.01-.421.05-.445.087-.023.037-.296.068-.608.068-.311 0-.733.056-.937.125-.204.07-.69.197-1.082.284-1.037.231-2.379.6-2.428.67-.023.032-.212.108-.419.168-.207.06-.463.144-.569.185a1.203 1.203 0 0 1-.36.075c-.092 0-.323.075-.514.168-.19.092-.409.167-.484.167-.076 0-.163.025-.194.056-.064.063-.741.315-1.354.503-.23.07-.512.18-.628.242-.115.063-.465.19-.779.283a9.951 9.951 0 0 0-1.115.422c-.3.139-.635.252-.744.252-.11 0-.222.038-.25.084-.029.046-.126.084-.216.084s-.229.033-.309.073c-.398.202-.797.345-.958.345a.552.552 0 0 0-.31.115c-.074.063-.36.182-.635.264-.277.083-.539.182-.582.22a.387.387 0 0 1-.222.071c-.078 0-.37.113-.648.251-.279.139-.549.252-.6.252-.052 0-.414.15-.805.335-.392.184-.756.334-.81.334-.053 0-.38.137-.727.304a14.38 14.38 0 0 1-1.635.701c-.752.277-1.012.402-1.129.543a.388.388 0 0 1-.26.127c-.085 0-.289.075-.453.167-.164.093-.35.168-.414.168s-.129.032-.144.07c-.036.09-.885.516-1.03.516-.059 0-.153.055-.21.122-.055.068-.31.201-.566.297-.255.095-.558.248-.673.338-.115.09-.27.165-.344.166-.075.002-.354.148-.62.325-.267.177-.7.388-.963.47-.263.08-.538.198-.61.26-.073.064-.172.115-.22.115-.049 0-.135.057-.192.126a.436.436 0 0 1-.299.125c-.107 0-.216.036-.242.079-.06.098-.54.34-.672.34-.054 0-.186.094-.295.21-.108.115-.257.209-.33.209a.652.652 0 0 0-.3.115c-.09.063-.372.2-.625.303-.87.355-1.215.52-1.362.65-.176.156-.44.316-.753.456-.126.057-.23.15-.23.209 0 .058-.103.13-.23.16-.278.067-1.221.72-1.392.964-.068.097-.168.16-.224.142-.056-.019-.203.062-.327.179-.436.411-.844.754-1.322 1.11-.265.197-.555.425-.644.505-.09.08-.19.147-.223.147-.107 0-1.235 1.055-1.927 1.802-.212.229-.773.774-1.245 1.212-.472.437-.907.842-.968.9-.06.058-.15.105-.2.105-.049 0-.09.053-.09.118 0 .127-1.556 1.724-1.68 1.724-.04 0-.128.103-.194.23s-.303.428-.525.67c-.59.64-.99 1.106-1.279 1.486-.14.184-.285.373-.322.419l-.587.725c-.286.352-.52.67-.52.707 0 .035-.15.205-.335.377-.184.172-.335.34-.335.375 0 .035-.062.132-.139.217a2.4 2.4 0 0 0-.23.303c-.337.555-.438.686-.53.686a.107.107 0 0 0-.107.105c0 .058-.104.26-.23.45s-.332.51-.458.712c-.126.201-.4.592-.609.869a6.77 6.77 0 0 0-.482.71c-.096.194-.564.939-.712 1.132-.202.264-.596.95-.648 1.13-.034.115-.103.26-.153.323-.128.16-.275.418-.46.807l-.463.976c-.168.353-.305.68-.305.728 0 .048-.076.217-.17.375-.286.486-.703 2.031-1.132 4.201a2.64 2.64 0 0 1-.12.419c-.283.668-.457 4.87-.298 7.2.103 1.507.358 3.21.556 3.71.042.105.135.482.206.837.071.354.199.795.283.98.084.184.18.541.215.795.034.253.113.562.177.686.064.125.116.316.116.425 0 .19.33 1.258.498 1.61.109.228.306.858.381 1.214.034.161.17.534.303.828.133.294.241.603.241.687 0 .083.047.181.105.218.114.073.396.767.46 1.135.022.126.072.23.11.23.04 0 .097.141.128.314.03.173.084.352.118.398.034.046.147.347.251.67.104.322.232.642.284.711.198.262.386.66.386.816 0 .09.076.231.168.314.092.084.168.212.169.286 0 .073.114.337.25.586.138.25.25.486.25.526 0 .04.155.345.345.677.189.333.353.642.364.689.046.191.17.433.343.67.1.137.229.391.284.563.055.172.135.335.178.361.042.027.077.14.077.252 0 .113.047.206.105.207.137.004.356.314.428.607.032.127.205.472.385.766.18.294.4.68.49.856.727 1.435 1.2 2.352 1.266 2.458.135.213.738 1.537.802 1.758.066.228.385.854.47.921.03.023.116.287.192.586.115.453.56 1.508.89 2.113a.78.78 0 0 1 .08.315c0 .094.036.235.08.315.168.308.335.748.429 1.13.054.22.13.42.171.445.04.025.073.126.073.223 0 .098.035.294.078.435l.252.843c.096.323.175.708.174.857 0 .148.05.412.114.586.064.173.183.749.264 1.278.081.53.182 1.007.223 1.06.047.06.04.12-.016.154-.058.036-.063.093-.014.154.068.086.111.355.22 1.383.015.155.054.45.085.655.03.206.056 1.7.056 3.32 0 2.216-.036 3.256-.142 4.2a74.313 74.313 0 0 0-.209 2.136 19.264 19.264 0 0 1-.156 1.41c-.05.293-.074.56-.053.594.055.088-.235 2.712-.37 3.355-.043.207-.139.81-.212 1.34a33.717 33.717 0 0 1-.207 1.339c-.04.207-.116.829-.168 1.381-.142 1.492-.248 2.247-.392 2.784-.07.265-.14.859-.153 1.32-.013.46-.054 1.345-.092 1.967-.037.621-.055 1.168-.04 1.214.014.046.02.798.012 1.672-.007.873.024 1.758.069 1.967.082.383.22 1.433.342 2.606.074.72.494 2.15.834 2.84.125.255.25.557.28.672.028.115.309.472.623.794.864.886 2.534 2.385 2.657 2.385.033 0 .165.103.292.23.128.127.412.362.632.523.22.162.611.505.87.764.258.259.591.54.741.625.15.085.272.183.272.217s.594.658 1.319 1.385c.725.728 1.62 1.662 1.989 2.076.368.414.862.94 1.097 1.171.236.23.452.496.482.59.047.15.669.87 1.34 1.554.118.12.386.447.597.727.21.28.504.637.652.792.372.389.723.842.862 1.109.064.124.292.42.507.657.214.238.44.553.503.701.062.148.184.307.27.353.086.046.22.208.297.36.279.547.483.848.683 1.005.112.088.203.242.204.343 0 .1.069.295.153.433.084.138.179.354.21.48.054.216.535.818.653.818.03 0 .095-.113.143-.25.085-.245.576-.936.705-.993.036-.015.194-.165.352-.332.296-.314.45-.621.637-1.272a2.61 2.61 0 0 1 .28-.626c.163-.24.176-.367.12-1.174a4.05 4.05 0 0 1 .05-.69c.057-.375.047-.44-.066-.44-.073 0-.266-.066-.43-.147-.24-.118-.32-.226-.422-.56a7.654 7.654 0 0 0-.3-.795 15.306 15.306 0 0 1-.409-.968c-.056-.138-.16-.421-.23-.628a5.476 5.476 0 0 0-.337-.754 6.138 6.138 0 0 1-.357-.795 21.47 21.47 0 0 0-.317-.837 12.788 12.788 0 0 1-.938-4.775c0-1.014.13-2.162.284-2.51l.305-.69c.169-.385.223-.44.436-.44.27 0 .366-.082.599-.506.53-.968.855-1.492 1.06-1.713.128-.138.357-.398.51-.577.393-.462 1.644-1.374 2.032-1.482.181-.05.401-.182.49-.295a1.3 1.3 0 0 1 .446-.323c.157-.066.285-.158.285-.205 0-.113.758-.593 1.613-1.02.379-.19.741-.387.804-.438.171-.139.691-.304.96-.306.15 0 .328-.093.488-.253a1.44 1.44 0 0 1 .642-.343c.555-.13.865-.281 1.104-.54.114-.124.378-.298.585-.388.207-.09.565-.305.795-.479.23-.173.592-.414.804-.534a6.12 6.12 0 0 0 .74-.516c.196-.164.393-.297.437-.297.422 0 4.803-4.255 5.346-5.19.115-.2.642-.804 1.172-1.344.53-.541 1.113-1.2 1.298-1.466.184-.265.52-.685.747-.932.226-.248.452-.53.502-.628a.747.747 0 0 1 .256-.27c.092-.05.23-.167.31-.26.888-1.045 2.302-2.542 2.975-3.148.082-.074.244-.26.359-.414a7.52 7.52 0 0 1 .596-.66c.213-.21.468-.52.567-.688.099-.168 1.103-1.204 2.232-2.302 1.129-1.098 2.142-2.128 2.251-2.29.142-.21.187-.368.157-.556-.035-.217.007-.31.247-.544.634-.618.95-.893 1.14-.991.181-.094.193-.14.145-.534-.085-.695-.062-3.184.034-3.786a3.13 3.13 0 0 0 .007-1.028c-.045-.26-.143-.85-.219-1.311-.076-.46-.23-1.026-.34-1.257-.112-.231-.203-.48-.203-.554 0-.074-.076-.23-.168-.347-.092-.117-.167-.264-.168-.325 0-.062-.077-.239-.171-.393-.096-.158-.225-.618-.294-1.047a111.07 111.07 0 0 0-.248-1.478c-.152-.861-.112-3.177.075-4.27.112-.658.239-1.654.26-2.051a3.9 3.9 0 0 1 .11-.544c.099-.369.297-1.593.434-2.68.038-.299.107-.713.155-.92.047-.208.112-1.008.145-1.778.049-1.15.034-1.532-.082-2.135-.078-.404-.175-.923-.217-1.153-.274-1.53-.25-1.461-.72-1.917-.537-.519-.978-.877-1.382-1.123a1.967 1.967 0 0 1-.512-.498 4.365 4.365 0 0 0-.414-.523c-.292-.298-.703-.936-.83-1.29-.06-.165-.14-.3-.177-.3-.037 0-.067-.086-.067-.19 0-.103-.06-.3-.132-.439-.203-.39-.459-1.721-.587-3.056a49.099 49.099 0 0 0-.53-4.019 7.95 7.95 0 0 1-.084-1.01c-.007-.661-.218-2.137-.387-2.71a3.55 3.55 0 0 1-.122-.832c0-.493-.267-1.109-.515-1.187-.192-.061-.737.023-.872.135-.16.132-1.294.33-1.612.282-.17-.026-.647-.062-1.062-.081-2.884-.131-4.14-.203-4.395-.25-1.653-.302-8.584-.335-10.482-.05-.29.044-.905.105-1.366.136-.787.053-3.152.406-3.29.49-.034.022-.495.063-1.024.093a55.147 55.147 0 0 0-3.389.287c-2.256.281-2.757.36-3.235.506-.293.09-.868.22-1.278.29-.41.071-.89.205-1.07.299-.179.093-.38.17-.448.17-.067 0-.452.146-.855.325-.403.18-.827.352-.942.384a5 5 0 0 0-.565.218c-.195.088-.4.16-.455.16-.091 0-.602.24-2.413 1.129-.974.478-1.628.832-1.686.913-.03.04-.314.091-.633.114-.48.035-.639.011-.93-.138-.194-.098-.352-.23-.352-.292 0-.063-.058-.162-.13-.222-.212-.176-.48-.846-.516-1.294-.02-.23-.075-.501-.125-.602-.049-.101-.07-.33-.046-.509.024-.178-.008-.604-.073-.946-.152-.813-.146-.794-.272-.946-.125-.15-.223-1.03-.149-1.328.078-.31.344-.567.589-.567.12 0 .22-.033.22-.073 0-.066.129-.106.73-.227.102-.02.309-.109.46-.197.152-.087.577-.261.945-.387a6.323 6.323 0 0 0 1.089-.492c.23-.146.55-.315.711-.376a42.2 42.2 0 0 0 1.926-.803c.371-.185.618-.276 1.13-.42.277-.076.693-.23.926-.342.233-.112.635-.238.894-.28.45-.073.638-.152 1.195-.504.237-.15 1.055-.339 2.177-.503.277-.04.601-.11.721-.157.141-.053.344-.054.573-.003.293.066.399.052.618-.08.16-.096.512-.18.892-.215 1.041-.093 1.275-.12 1.842-.215.3-.05 1.034-.106 1.633-.125a31.07 31.07 0 0 0 2.219-.165c.622-.073 1.978-.154 3.014-.18 1.036-.026 1.99-.087 2.12-.136.13-.05.506-.081.837-.07a21.67 21.67 0 0 0 2.36-.02 63.839 63.839 0 0 1 2.219-.055l1.744-.011c.46-.005.653.029.768.133a.5.5 0 0 0 .349.114.55.55 0 0 1 .285.03c.049.032.194.003.323-.065.31-.16.436-.153.753.043.198.122.434.167.931.178.366.007.741.055.833.106.191.106.378.146.796.171.16.01.368.058.46.108.447.242 1.536.453 2.533.49.574.022 1.077.06 1.118.086.041.026.075.01.075-.034 0-.139.367.006.587.232.115.119.31.423.432.677.123.254.32.566.44.695.118.128.216.27.216.315 0 .045.132.273.293.508.16.234.293.468.293.52 0 .053.094.206.21.34.114.133.208.274.208.313 0 .04.066.138.147.22.507.515 1.26 1.562 1.468 2.043.214.494.327.78.325.822 0 .023.046.099.104.168.159.188.46 1.19.551 1.834.09.629.153.845.251.845.115 0 .186.344.432 2.093.16 1.133.085 2.88-.146 3.391-.229.506-.472 1.346-.46 1.587a.72.72 0 0 0 .136.384c.068.074.123.183.123.242 0 .058.055.206.123.328.067.122.29.58.494 1.018.205.437.47.925.59 1.083.119.16.216.37.216.47 0 .205.197.634.46 1 .1.139.231.412.293.607.061.196.143.356.182.356.038 0 .07.042.07.092 0 .13.56 1.043.939 1.53.174.226.317.457.317.515 0 .057.094.166.21.242.114.075.21.183.211.24.004.15.467 1.057.634 1.242.286.316.703 1.168.703 1.435a.58.58 0 0 0 .14.33c.077.085.187.37.244.635.058.263.185.78.283 1.15.207.773.194.947-.175 2.47-.353 1.455-.708 2.433-1.152 3.18-.041.07-.252.494-.468.942-.43.892-.428.875-.13 1.906.27.934.656 2.448.758 2.972l.176.921c.043.23.133.55.2.712.066.16.156.538.199.837.043.3.136.77.208 1.047.071.276.132.69.133.92.002.23.06.527.129.66.069.131.125.3.126.376 0 .27.17.744.335.933.091.106.166.26.166.343 0 .143.163.792.312 1.247.184.561 1.238 1.926 1.487 1.926.055 0 .263.15.462.335.2.184.397.335.44.335.096 0 .565.465.565.56 0 .04.113.171.251.293.16.14.251.3.251.44 0 .12.054.347.12.504.133.32.328 2.048.253 2.245-.027.07-.008.152.04.182.05.03.09.149.09.263 0 .114.06.23.134.258.31.12 2.241-.356 2.602-.64.12-.093.278-.17.352-.171.157-.002.645-.17.89-.308.093-.052.32-.121.503-.153s.578-.176.877-.32c.3-.145.695-.306.88-.36.656-.189 1.425-.486 1.533-.592.061-.06.145-.108.187-.108.041 0 .274-.088.517-.196.491-.218 1.14-.398 2.318-.642.468-.097.91-.245 1.089-.364.165-.111.424-.224.575-.252.374-.068 2.47-1.101 2.927-1.442.254-.19.73-1.07.86-1.59.124-.494.024-1.866-.192-2.631-.071-.253-.173-.913-.225-1.465a20.676 20.676 0 0 0-.175-1.41 4.404 4.404 0 0 1-.08-.627c-.002-.355-.474-1.553-.666-1.69-.033-.022-.102-.23-.154-.46-.34-1.497-.429-1.963-.434-2.26-.003-.185-.1-.561-.218-.838-.44-1.033-.456-1.345-.082-1.545.198-.106.469-.69.465-1.002-.002-.147.479-1.835.835-2.937.127-.391.295-.957.374-1.256.079-.3.185-.676.235-.837.155-.493.107-1.758-.083-2.184a4.383 4.383 0 0 1-.218-.595 2.071 2.071 0 0 0-.228-.502c-.617-.98-.746-1.204-.746-1.3 0-.06-.068-.176-.15-.259-.084-.083-.388-.544-.677-1.025-.642-1.068-.642-1.067-.787-1.378a20.373 20.373 0 0 0-.424-.812c-.168-.31-.306-.62-.306-.691 0-.071-.037-.13-.08-.13-.045 0-.12-.14-.166-.313a4.046 4.046 0 0 0-.255-.646c-.093-.182-.17-.397-.17-.476 0-.08-.032-.166-.072-.19-.04-.025-.097-.197-.126-.382a4.126 4.126 0 0 0-.263-.807c-.114-.26-.208-.532-.208-.606 0-.14-.447-1.656-.78-2.643-.177-.524-.225-.59-.493-.683-.39-.135-.965-.516-1.256-.83-.35-.38-.57-1.187-.652-2.387-.125-1.86.12-3.418.658-4.17.108-.153.287-.447.397-.654.43-.81 1.172-1.855 1.633-2.301.266-.258.508-.566.538-.685.033-.134.161-.267.338-.35.156-.075.35-.227.432-.338.207-.284 1.701-1.788 2.088-2.103.176-.143.414-.313.53-.377a5.3 5.3 0 0 0 .627-.483c.23-.202.57-.439.754-.526.525-.248.97-.536 1.397-.904.216-.186.43-.338.476-.338.046 0 .34-.208.655-.462.314-.253.764-.554 1.002-.668a5.71 5.71 0 0 0 .795-.48c.475-.357 1.057-.734 1.132-.734.032 0 .136-.072.232-.159.095-.087.368-.26.607-.383s.479-.278.533-.344c.055-.065.136-.12.181-.12.045 0 .191-.078.326-.173.281-.2 1.164-.658 1.288-.668.047-.004.254-.137.461-.295.478-.367.849-.538 1.165-.538.136 0 .269-.033.293-.073.025-.04.268-.156.54-.258.273-.102.676-.276.896-.387.22-.112.449-.203.508-.203.098 0 .714-.184 1.036-.31.719-.28 1.258-.443 1.472-.443.142 0 .284-.026.315-.058.275-.275 2.327-.44 3.446-.278 2.013.292 2.808.347 4.395.306.898-.023 1.746-.082 1.884-.131.138-.05.534-.126.88-.171 1.276-.166 1.646-.249 2.26-.505a7.31 7.31 0 0 1 1.047-.35c.23-.047.496-.135.592-.195.095-.06.33-.157.523-.215.192-.057.35-.132.35-.165 0-.06.377-.239.597-.283.063-.012.22-.066.35-.12a1.41 1.41 0 0 1 .438-.096c.12 0 .255-.08.333-.2.158-.242.488-.386.85-.372.145.006.443-.073.66-.175.258-.121.47-.168.608-.133.123.03.32 0 .47-.071.141-.07.532-.172.868-.23.336-.056.63-.135.654-.173.023-.038.149-.07.278-.07.129 0 .33-.075.448-.167.404-.318.974-.155 1.484.424.184.21 1.23.916 1.355.916.19 0 .504.19.927.561.172.152.352.276.4.276.28 0 1.445 1.027 1.758 1.55.11.183.249.384.308.445.13.132.144.88.021 1.109-.08.148-.187.162-1.318.164-.999.002-1.32.034-1.693.165-.253.09-.555.166-.67.17-.192.008-.196.015-.042.081.135.058.108.073-.141.078-.17.003-.331.041-.358.084-.026.043-.152.075-.28.072a1.451 1.451 0 0 0-.522.124c-.16.072-.607.229-.996.348-.389.12-.788.27-.888.335a1.58 1.58 0 0 1-.507.172 28.9 28.9 0 0 0-1.331.297c-.553.133-1.164.26-1.359.283a7.367 7.367 0 0 0-.837.166c-.266.07-.876.188-1.356.264-.48.075-.963.171-1.073.213-.11.042-.269.076-.352.076-.083 0-.316.15-.518.335-.201.184-.432.335-.513.335-.08 0-.146.032-.146.072 0 .04-.16.181-.356.314a5.73 5.73 0 0 0-.398.286c-.023.024-.23.137-.46.25-.23.115-.485.261-.566.326-.08.065-.146.092-.146.062 0-.031-.254.07-.565.225-.311.155-.754.351-.984.435-.23.084-.519.222-.641.306-.122.083-.3.152-.393.152-.094 0-.348.094-.565.21-.217.114-.456.209-.533.209-.077 0-.329.091-.56.203-.232.111-.56.229-.728.26-.17.032-.329.091-.354.132-.025.041-.166.076-.313.077-.147.002-.568.112-.937.245-.368.133-.858.308-1.088.388a8.3 8.3 0 0 0-.688.275c-.148.07-.295.103-.327.07-.031-.031-.174.014-.317.1a2.135 2.135 0 0 1-.636.22c-.207.033-.706.187-1.11.34-.402.154-.787.259-.855.233-.067-.026-.295.07-.506.212-.211.142-.43.26-.485.26-.15 0-1.062.383-1.17.491a.444.444 0 0 1-.273.094c-.1 0-.402.078-.674.173a9.603 9.603 0 0 1-.704.223 1.973 1.973 0 0 0-.46.203c-.139.085-.318.154-.398.154-.081 0-.147.032-.147.07 0 .039-.085.11-.188.16-.696.337-1.165.524-1.314.524-.095 0-.172.033-.172.072 0 .04-.364.192-.809.338-.444.146-.906.318-1.025.38-.12.064-.594.298-1.054.521l-.835.406.375.05c.401.054.882-.042 1.087-.216.069-.058.39-.149.712-.2.322-.053.774-.138 1.004-.191.23-.053.689-.1 1.019-.105.33-.004.625-.034.656-.065.031-.03.181-.036.333-.011.152.025.403.003.558-.047.27-.089 2.636-.127 3.253-.053.162.02.651.06 1.089.089.437.03.833.077.879.105.046.029.517.1 1.047.159.53.059 1.094.124 1.256.144.731.095 2.276.232 2.846.254.346.013 1.118.059 1.717.102 2.7.196 4.333.03 4.766-.484.262-.311.476-.408 1.003-.453.427-.036.47-.022.624.194.228.32.514 1.2.514 1.583 0 .174.066.433.147.576.304.537.488.82.698 1.072.12.143.303.448.408.678.105.23.222.48.26.556.104.21.13 1.746.03 1.814l-.458.317a2.904 2.904 0 0 1-.792.364c-.594.149-1.93.187-3.056.088-.53-.046-1.32-.101-1.758-.122-.753-.036-1.528-.116-2.763-.284-.3-.041-.678-.13-.842-.2-.164-.068-.635-.17-1.047-.225-.412-.055-.843-.136-.958-.179-.28-.106-1.416-.228-2.606-.28-1.157-.052-1.267.005-1.187.605.039.286.097.384.288.483.19.098.24.18.24.399 0 .151.066.348.146.437.08.09.222.313.314.497.091.185.213.394.27.465.13.163.347 1.1.447 1.922a12 12 0 0 0 .121.817c.025.104-.012.299-.081.433-.115.221-.112.304.03.87.086.345.188.677.226.74.228.365.048 1.994-.31 2.812-.273.625-.217.658.906.536a38.71 38.71 0 0 1 1.74-.143 22.67 22.67 0 0 0 1.466-.129 20.73 20.73 0 0 1 1.088-.115c.253-.017.611-.055.796-.084a29.03 29.03 0 0 1 2.009-.262c.276-.023.559-.063.628-.09.07-.028.483-.08.921-.116a23.82 23.82 0 0 0 1.381-.156c.674-.104 1.888-.178 3.391-.207.576-.012 1.16-.05 1.298-.083.52-.128 1.01-.401 1.146-.637.149-.259.574-.398.9-.295.21.067.488.606.595 1.158.043.221.135.46.205.53.07.07.127.19.126.267 0 .315.286 1.324.42 1.48.19.22.265.648.2 1.137a1.07 1.07 0 0 1-.334.684c-.24.247-.355.297-.785.342-.277.03-.646.116-.819.193-.173.077-.54.166-.816.197-.646.073-1.901.336-2.01.421-.046.037-.264.093-.486.126-.22.033-.451.11-.513.171-.06.061-.313.135-.56.165a5.46 5.46 0 0 0-.702.127 3.36 3.36 0 0 1-.628.092c-.207.01-.508.073-.67.14a2.52 2.52 0 0 1-.685.145c-.217.012-.637.12-.936.239-.298.119-.602.194-.675.166-.073-.028-.274.016-.446.098a3.446 3.446 0 0 1-.732.224c-.723.128-1.577.248-1.95.273a3.952 3.952 0 0 0-.586.085c-.125.033-.66.071-1.19.086-.53.014-1.076.05-1.214.08-.138.03-.402.07-.586.086-.184.017-.486.05-.67.071-.184.023-.655.063-1.047.09-.859.06-1.316.112-1.925.22-.487.085-.646.108-1.717.249-.648.085-2.086.239-2.428.26-.092.006-.6.083-1.13.172-1.744.293-3.929.28-5.766-.033-.435-.074-.546-.07-.609.025-.088.134-.031.848.14 1.749.352 1.84.016 4.464-.856 6.698-.117.3-.24.582-.276.628-.034.046-.148.343-.252.66-.14.425-.177.69-.143 1.005.062.587.38 1.955.538 2.312.07.161.159.588.196.948.038.36.104.7.149.754.044.054.1.306.125.559.025.253.086.686.136.963.274 1.517.473 3.418.527 5.023.032.979-.182 2.759-.44 3.657-.33 1.147-.43 1.443-.504 1.493a1.564 1.564 0 0 0-.218.3c-.314.517-1.425 1.29-1.853 1.29-.112 0-.304.052-.426.116-.348.18-.838.385-1.52.638-.346.128-.878.347-1.183.487-.305.14-.692.28-.86.312-.167.032-.324.09-.348.13-.08.13-.698.254-.854.172-.105-.055-.277-.014-.607.144-.547.262-1.01.43-1.186.43-.07 0-.19.068-.265.152-.129.142-.123.181.086.586.123.239.254.434.292.434.038 0 .068.056.068.125 0 .07.035.126.077.126.043 0 .104.12.136.265.031.145.223.592.425.992.202.4.367.756.367.79 0 .035.052.182.115.327.277.632.471 1.176.471 1.316 0 .084.033.172.073.197.067.041.167.616.308 1.765.048.396.559 1.373.962 1.842.079.092.213.318.298.502.085.184.24.464.347.622.106.157.25.482.32.722s.197.5.285.579c.144.13.25.505.298 1.05.01.115.044.307.077.427.072.268-.108.725-.48 1.218-.294.391-.477.442-.867.239a1.153 1.153 0 0 0-.428-.126c-.103 0-.188-.038-.188-.084 0-.046-.108-.084-.24-.084-.14 0-.37-.104-.556-.25-.173-.139-.36-.252-.416-.252-.099 0-1.727-1.558-1.97-1.885-.374-.503-1.088-1.944-1.089-2.195 0-.127-.094-.417-.209-.644-.115-.226-.209-.515-.209-.642 0-.324-.305-.997-.451-.997-.212 0-.86-.855-1.128-1.49-.245-.579-.259-.671-.27-1.8-.014-1.36.052-1.61.555-2.098.174-.169.295-.328.27-.354-.04-.038-.618.233-1.153.54-.069.04-.295.153-.502.252-.387.185-1.349.752-1.424.84-.07.081-1.101.563-1.549.723-.738.264-.708.171-.652 1.998.047 1.537.04 1.647-.167 2.482-.12.48-.243 1.006-.274 1.167a3.252 3.252 0 0 1-.25.674 3.97 3.97 0 0 0-.282.837c-.218 1.091-.258 1.268-.31 1.35-.029.048-.083.5-.12 1.005-.064.86-.086.941-.346 1.287-.316.419-.382.439-.678.206-.117-.092-.277-.168-.355-.168-.172 0-1.129-.972-1.129-1.147 0-.114-.234-.596-.337-.695-.117-.111-.312-.482-.351-.67a15.804 15.804 0 0 0-.188-.711 9.129 9.129 0 0 1-.308-2.135c-.007-.3-.044-.585-.082-.634-.038-.049-.036-.218.005-.376.04-.159.095-.632.122-1.052.05-.812.205-1.526.418-1.938.071-.137.184-.396.251-.574.067-.178.256-.644.42-1.036.329-.783.407-1.57.187-1.886-.064-.09-.143-.363-.176-.605s-.086-.44-.119-.44c-.032 0-.11-.14-.172-.313a3.925 3.925 0 0 0-.31-.627c-.108-.171-.197-.346-.197-.387 0-.3-1.282-.711-1.71-.547-.086.033-.132.156-.134.355-.006.736-.452 1.695-.837 1.796-.105.027-.17.152-.208.405-.05.32-.096.384-.381.517-.245.115-.345.223-.405.44-.043.159-.19.43-.325.602a9.5 9.5 0 0 0-.475.68c-.127.203-.54.693-.92 1.09-.38.396-.73.835-.778.976-.105.31-1.183 1.758-1.748 2.349l-.922.963c-.281.294-.589.662-.683.817-.189.31-1.095 1.35-1.69 1.937-.21.207-.49.527-.622.711-.257.36-.646.785-1.642 1.798-.345.35-.91.955-1.256 1.343-1 1.122-3.12 3.18-3.276 3.18-.075 0-.716.447-1.464 1.022a4.595 4.595 0 0 1-.659.402c-.2.097-.41.23-.465.298-.056.066-.154.12-.218.12-.145 0-.704.348-.858.534-.062.075-.157.137-.211.137-.054 0-.247.08-.43.177-.784.418-1.602.812-1.796.866-.182.05-.838.33-2.554 1.092-.23.102-.588.247-.795.323-.208.076-.64.307-.96.514-.322.207-.63.377-.684.377-.055 0-.299.188-.542.419-.242.23-.47.418-.505.418-.035 0-.168.141-.295.314-.128.173-.39.488-.584.7a3.392 3.392 0 0 0-.862 1.75 3.473 3.473 0 0 1-.263.866c-.169.324-.176.42-.125 1.79.051 1.414.068 1.563.22 1.906.117.266.428 1.087.42 1.11-.053.158.034.402.197.553.112.104.25.374.307.6.057.225.185.53.285.677.1.147.227.393.283.548.056.154.194.46.307.678.113.219.205.47.205.56 0 .09.034.184.076.21.134.082.575.925.684 1.308.058.204.152.427.208.497.056.069.128.257.16.418.032.161.134.453.226.648.13.275.165.52.16 1.1-.004.636-.054.896-.34 1.764-.185.56-.428 1.213-.54 1.453-.113.24-.241.53-.285.645-.237.625-1.941 2.607-3.06 3.558a30.33 30.33 0 0 0-.905.817c-.282.265-.541.481-.576.481-.062 0-.74.598-1.472 1.298-.193.184-.55.467-.796.628-.245.161-.69.541-.99.844-.3.303-.686.653-.857.776-.472.343-.488.622-.08 1.42.184.359.395.791.47.962.074.17.225.46.335.645.11.184.263.454.339.6.076.147.193.287.258.312.066.025.12.116.12.203 0 .087.112.323.249.526s.25.41.251.46c0 .05.075.158.164.239.09.081.187.256.216.39.03.132.107.271.172.308.113.063.453.637.754 1.273.076.161.228.4.338.53.11.13.2.279.2.329 0 .05.066.164.146.252.08.089.24.323.356.52l.522.892c.172.294.511.746.753 1.004.569.606.734.83.734.995 0 .073.151.3.335.503.185.203.336.39.336.415 0 .025.13.134.29.242.16.109.312.269.34.356.028.087.142.181.254.21.112.028.204.09.204.139 0 .049.232.308.517.577.374.355.58.489.749.489.128 0 .263.047.3.105.068.108.577.313.776.313.061 0 .35.113.643.252.293.138.626.25.74.25.116 0 .21.038.21.084 0 .047.11.084.244.084s.445.072.69.16c.246.086.617.205.824.263.34.095.55.177 1.382.543.138.06.446.126.685.145.239.02.634.133.88.252.633.308 1.258.436 1.498.308.155-.083.206-.078.284.029.125.17 1.276.33 2.277.315.453-.007.79.024.82.075.032.05.386.087.835.087.582 0 .806.031.882.123.089.107.124.107.29-.001.157-.104.327-.11 1.06-.035.479.048 1.097.121 1.373.162.277.04.628.052.782.027a.962.962 0 0 1 .46.038c.367.167.854.237 1.145.164.16-.04.386-.074.499-.074.113 0 .28-.053.372-.117.142-.099.185-.099.296 0 .09.082.542.145 1.457.204.729.048 1.376.129 1.438.18.086.072.156.051.292-.086.152-.151.234-.17.53-.116.191.034.405.06.474.058l1.088-.043c.528-.022 1.087-.01 1.242.024a.919.919 0 0 0 .558-.052c.24-.1.291-.1.38.007.128.154.365.156.86.006.364-.11.401-.106.636.067.27.2.681.22.891.046.147-.122.838-.05 1.276.133.158.066.313.104.345.085.118-.073 1.16-.059 1.666.023.35.056.608.057.764.003.181-.063.363-.043.77.086.36.114.87.184 1.556.213.67.03 1.116.09 1.298.175.245.117.328.118.737.011.301-.078.511-.093.608-.042.082.042.346.068.586.058.707-.032 2.409.102 2.92.229.26.065.793.117 1.183.117.426 0 .856.052 1.076.13.202.07.442.112.534.092.092-.02.337-.007.545.028a3 3 0 0 0 .753.017c.207-.027.462-.042.565-.034zm9.357-30.465c-.322-.034-1.622-.081-2.889-.105-1.882-.035-2.47-.076-3.223-.222-.507-.098-1.097-.212-1.31-.251a2.843 2.843 0 0 1-.646-.205c-.143-.074-.468-.133-.74-.134-.267-.002-.58-.057-.695-.123-.115-.066-.365-.121-.555-.123-.206-.002-.389-.055-.453-.131-.08-.096-.195-.116-.455-.077a2.055 2.055 0 0 1-.72-.05 5.19 5.19 0 0 0-.577-.127 46.2 46.2 0 0 1-.628-.085 4.981 4.981 0 0 0-.715-.047 3.94 3.94 0 0 1-.754-.084c-.253-.052-1.2-.1-2.105-.104-1.496-.008-1.66-.024-1.822-.17-.14-.126-.372-.175-1.077-.228-.494-.037-1.03-.106-1.19-.153a2.475 2.475 0 0 0-.581-.086c-.158 0-.403-.036-.545-.08a29.18 29.18 0 0 0-1.797-.43c-.202-.042-.413-.114-.47-.16a.547.547 0 0 0-.301-.081c-.11.002-.578-.04-1.038-.092a14.17 14.17 0 0 0-1.633-.075c-1.204.031-1.254.029-1.884-.109-.947-.206-1.787-.33-1.873-.277-.044.027-.262.013-.485-.031a9.34 9.34 0 0 0-.907-.12 4.436 4.436 0 0 1-.796-.132c-.184-.058-.563-.072-1.025-.038-.45.034-.772.023-.837-.029-.119-.095-1.028.046-1.654.257-1.3.437-1.571.574-2.084 1.053-.146.136-.375.272-.51.302-.35.076-.93-.279-1.122-.69a7.162 7.162 0 0 0-.428-.734c-.153-.23-.318-.55-.366-.711l-.213-.715c-.347-1.169-.487-2.083-.43-2.802.03-.391.082-1.277.113-1.967.032-.691.083-1.295.114-1.342.085-.13.253-1.445.248-1.941-.002-.24.07-.65.16-.913s.164-.585.164-.716c0-.17.126-.378.44-.726.241-.268.495-.569.562-.669.068-.1.143-.182.168-.183.024 0 .044.254.044.564 0 .688.125.757.601.336.176-.155.499-.385.718-.51.219-.126.398-.258.398-.293 0-.069.585-.348.73-.348.047 0 .133-.056.19-.125a.448.448 0 0 1 .307-.126c.275 0 .866-.31.866-.455 0-.065-.055-.337-.123-.606-.132-.526-.227-1.315-.217-1.786.005-.213.075-.355.257-.522.138-.126.25-.258.25-.293 0-.036.07-.11.157-.163.086-.054.208-.277.272-.497.08-.276.252-.542.556-.86.242-.252.496-.545.565-.65.07-.106.248-.255.398-.331a3.84 3.84 0 0 0 .617-.442c.451-.395 1.332-.935 1.704-1.044a1.86 1.86 0 0 0 .494-.238c.11-.083.245-.15.301-.15.171 0 .654-.266 1.015-.56.189-.153.398-.278.465-.278a.334.334 0 0 0 .2-.076c.085-.08.48-.31.96-.555.16-.083.349-.182.418-.22a2.27 2.27 0 0 1 .251-.118c.07-.027.257-.107.419-.179.16-.072.488-.138.726-.146.239-.008.493-.064.565-.124.245-.203 1.385-.343 2.63-.323.659.01 1.215.046 1.236.079.02.033.244.085.497.117s.48.09.506.132c.025.04.262.073.527.073.423 0 .51.03.717.245.129.135.285.226.347.202.106-.04.333.047 1.208.467.462.222.815.43 1.295.761.1.07.47.314.822.544.352.23.66.476.685.547.04.116.848.97 1.438 1.518.214.2.462.446.635.632.034.037.272.32.528.631.265.32.559.588.678.618.21.052.549-.073.775-.289.065-.06.32-.225.567-.364.247-.14.506-.334.574-.432a1.62 1.62 0 0 1 .41-.35c.158-.095.517-.376.8-.624.52-.458 1.575-1 2.515-1.292.253-.079.526-.18.607-.223.11-.06.146-.049.146.046 0 .2.164.147.251-.083.09-.236.113-.244.346-.12.092.05.212.06.267.021.183-.126 2.287.001 2.44.148.043.042.167.077.274.077.108 0 .288.06.402.135a.629.629 0 0 0 .49.081.992.992 0 0 1 .482.032c.274.119 2.01.25 2.173.165.08-.042.172-.033.229.025.113.113.438.137 2.294.175 1.22.024 1.423.048 1.572.183.164.148.183.148.48.006.197-.094.57-.159 1.022-.178.672-.028.737-.015 1.133.225.232.14.732.58 1.112.979l.753.79c.035.036.223.213.419.394.195.181.356.386.356.455 0 .07.075.167.167.216.092.05.168.127.168.174 0 .046.077.167.173.269.095.102.217.35.27.551.055.202.147.385.205.407.07.027.105.226.105.593 0 .514-.02.573-.284.85l-.284.296-.093 1.381c-.098 1.464-.176 2.1-.429 3.517a25.893 25.893 0 0 0-.21 1.381c-.03.277-.11.729-.18 1.005-.07.276-.145.616-.168.754a5.27 5.27 0 0 1-.24.757 7.67 7.67 0 0 0-.283.893c-.048.213-.216.663-.373 1.001-.157.338-.344.765-.416.949-.798 2.063-2.106 4.563-2.388 4.563-.037 0-.248.17-.467.378-.22.208-.5.401-.62.43-.122.029-.259.08-.305.114-.046.034-.291.109-.544.166a7.403 7.403 0 0 0-.683.186 1.072 1.072 0 0 1-.42.054 1.094 1.094 0 0 0-.447.074c-.138.055-.665.115-1.171.135-.507.02-.978.056-1.047.08-.273.094-.654.11-1.214.051zm3.71-7.96c.467-.226 1.078-.816 1.152-1.113.03-.118.082-.214.116-.214.035 0 .241-.349.46-.775.218-.426.45-.834.515-.906a.46.46 0 0 0 .117-.24c0-.06.072-.245.159-.412.087-.168.2-.512.253-.765.052-.254.225-.725.384-1.047.159-.322.328-.756.376-.963.048-.207.195-.81.328-1.34.133-.529.23-.975.215-.99-.086-.09-.372.11-.46.321-.128.311-.35.555-.878.966-.23.18-.486.393-.568.475-.083.083-.201.15-.264.15-.062 0-.134.055-.16.121-.025.067-.19.196-.365.287-.174.09-.365.242-.422.337-.06.1-.264.213-.484.269-.209.052-.49.199-.625.325s-.267.209-.292.184c-.025-.025-.154.058-.286.185a1.051 1.051 0 0 1-.606.277c-.201.026-.403.072-.45.104a2.667 2.667 0 0 1-.46.166c-.207.06-.546.165-.753.234-.208.069-.579.14-.825.159-.247.018-.527.089-.624.156-.116.082-.278.106-.483.074-.215-.035-.373-.007-.525.093-.203.133-.241.133-.579.005-.286-.11-.438-.12-.73-.055a1.807 1.807 0 0 1-.793-.007 3.507 3.507 0 0 0-.654-.082c-.204.007-.702-.176-1.067-.392a7.04 7.04 0 0 0-.419-.214c-.43-.204-.647-.337-.845-.517-.157-.141-.336-.162-1.57-.184-.767-.013-1.602-.06-1.855-.104a13.525 13.525 0 0 0-1.356-.115c-.493-.019-.937-.06-.988-.092-.051-.031-.364-.108-.696-.17a37.454 37.454 0 0 1-1.188-.246c-.652-.149-1.922-.08-2.303.124a.901.901 0 0 1-.358.083c-.11 0-.424.078-.696.174-.272.096-.664.22-.871.276a5.43 5.43 0 0 0-.712.257c-1.411.654-1.725.789-1.949.838-.14.03-.397.129-.572.218-.176.09-.398.163-.495.163-.096 0-.3.092-.451.204l-.277.204.323.054c.178.03.455.096.616.148.161.05.356.084.432.072.077-.011.164.02.194.069s.092.066.137.039c.045-.028.127-.014.183.03.055.045.251.103.436.128.325.045.953.17 1.548.307.162.038.595.13.963.206.369.076.82.176 1.005.223.184.047.558.12.83.164.272.044.535.111.586.15.05.04.34.094.643.121.303.027.642.084.753.128.383.149 1.124.294 1.411.276.158-.01.384.02.502.069.119.048.441.123.717.167.866.137 1.913.329 2.261.415a25.74 25.74 0 0 0 2.303.374c.207.019.734.096 1.172.173.824.143 1.952.206 4.605.256.852.016 1.7.061 1.884.1.184.04.931.063 1.66.053 1.18-.017 1.37-.04 1.715-.207zm-22.02-12.298c.21-.077.33-.079.486-.007.114.051.26.094.323.094.135 0 .252-.296.221-.56-.017-.152.034-.194.289-.242l.31-.058-.423-.201c-.603-.287-1.712-.348-2.683-.148-.4.082-.816.218-.926.302-.11.084-.251.153-.314.153-.133 0-.153.134-.03.21.045.028.083.156.083.284 0 .127.023.254.05.282.09.09 2.328-.004 2.615-.109zm-49.552.689c0-.087.181-.268.268-.268.123 0 .069.232-.066.284-.173.067-.202.064-.202-.016zm-3.668-47.876a4.203 4.203 0 0 1-.586-.19c-.078-.04-.36-.1-.626-.133-.266-.032-.938-.225-1.492-.429-.553-.203-1.06-.37-1.127-.37-.066 0-.12-.03-.12-.068 0-.038-.132-.131-.293-.208-.161-.077-.293-.174-.293-.215 0-.041-.107-.119-.237-.173-.472-.195-.985-1.004-1.2-1.89-.242-.998-.268-1.225-.17-1.497.055-.15.1-.402.102-.56.006-.587.241-1.363.655-2.163.234-.452.408-.84.386-.862-.022-.022.036-.109.128-.192a.609.609 0 0 0 .171-.411c.004-.344.214-.576.635-.701.68-.202.78-.156 1.313.604.083.118.2.214.262.214s.22.057.352.125c.132.07.303.126.381.126.202 0 .285.323.114.448-.125.091-.123.114.023.27.206.222 1.929.457 3.639.496.655.016 1.297.07 1.428.12.13.05.281.063.335.029.053-.034.748-.086 1.544-.115 1.226-.045 1.471-.076 1.612-.203.14-.128.15-.171.055-.284-.199-.238-.644-1.237-.644-1.445 0-.112-.031-.239-.07-.283-.038-.043-.15-.282-.25-.53-.204-.506-.232-1.1-.099-2.124l.175-1.338c.087-.658.346-1.37.88-2.429.111-.218.202-.468.202-.556 0-.142-.052-.154-.524-.117-.915.072-1.781-.163-2.27-.617-.21-.194-.308-.22-.795-.217-.316.002-.79.078-1.1.175-.517.164-1.034.29-2.26.551a8.29 8.29 0 0 0-.922.255 8.16 8.16 0 0 1-.628.204 3.04 3.04 0 0 0-.534.211.977.977 0 0 1-.544.108.976.976 0 0 0-.503.083c-.197.1-.278.105-.435.02-.116-.062-.321-.082-.517-.05-.332.052-1.059-.153-1.342-.38-.372-.299-.749-.731-.85-.975a1.213 1.213 0 0 0-.306-.424c-.106-.083-.33-.44-.497-.792-.342-.72-.34-.908.016-1.561.321-.59 1.116-1.097 1.116-.712 0 .07.075.126.17.126.094 0 .192-.057.219-.126.026-.07.085-.126.13-.126.044 0 .293-.14.553-.314.577-.384.579-.385 1.587-.889.449-.224.873-.441.942-.482.069-.04.182-.097.25-.126.07-.029.334-.146.587-.26.253-.114.536-.24.628-.28a19 19 0 0 1 .949-.319c.43-.136.83-.315.892-.398.085-.116.226-.152.603-.153.59-.002 1.018-.27 1.026-.64.002-.122.061-.268.13-.325.07-.057.126-.161.126-.23 0-.07.044-.276.099-.457.126-.421.37-.548 1.26-.656.381-.046.813-.122.96-.17.148-.047.657-.12 1.13-.16.475-.04 1.372-.136 1.993-.212a32.51 32.51 0 0 1 1.55-.162c.23-.012.72-.063 1.088-.112.368-.05 1.065-.137 1.549-.193.483-.057.965-.134 1.07-.172.106-.039.633-.11 1.172-.161.539-.05 1.018-.12 1.064-.157.047-.037.291-.093.543-.125.493-.062 1.113-.197 1.384-.299.32-.121-.378-.18-1.238-.106-.45.04-.865.042-.92.006-.071-.045-.057-.066.045-.066.082-.001.292-.092.468-.203.249-.158.517-.222 1.214-.292.492-.05.997-.142 1.123-.206.126-.063.469-.136.762-.161.293-.026.574-.087.623-.137.05-.05.187-.091.305-.09.316 0 1.009.449 1.009.653 0 .044.084.136.188.205.104.069.32.242.482.386.16.143.359.282.44.309.08.026.146.079.146.117 0 .037.132.131.295.208.162.077.53.317.818.533.287.216.663.487.835.602.172.115.334.274.36.353.025.08.194.285.376.457.181.172.33.352.33.4 0 .049.172.276.381.507.21.23.496.625.636.879l.498.902c.134.242.243.491.243.553 0 .062.151.284.336.493.246.28.358.498.419.819.166.876.081 1.12-.488 1.414-.221.115-1.163.142-1.9.056-.276-.032-.69-.074-.92-.092-.23-.019-.737-.073-1.124-.12-.388-.047-.785-.066-.881-.042-.097.024-.39.01-.652-.03-.262-.042-.506-.046-.543-.01-.036.036-.31.084-.61.106-1.787.13-2.713.258-2.898.401-.051.04-.142.359-.202.709-.09.523-.09.69 0 .938.12.33 1.402 1.653 1.72 1.774.12.046.293.277.463.622.148.302.302.55.342.55.04 0 .073.065.073.146.001.18.27.682.71 1.33.184.27.362.557.396.638.033.08.091.146.129.146.037 0 .14.123.228.272.088.15.35.5.583.78.233.28.536.653.675.831.138.178.307.379.376.447.07.067.182.223.252.346.28.499.86 1.343.922 1.343.116 0 .575.892.676 1.313.053.222.154.495.223.606.07.112.156.464.19.784.078.706-.11 1.617-.432 2.09-.329.485-1.255 1.142-1.746 1.24-.393.079-1.762.466-2.387.676a32.16 32.16 0 0 1-1.616.455c-.612.157-1.184.324-1.27.37a.914.914 0 0 1-.364.085c-.112 0-.34.057-.505.126a1.97 1.97 0 0 1-.635.126c-.184 0-.496.051-.694.114a8.171 8.171 0 0 1-.945.21c-1.938.312-2.292.357-2.674.338a3.714 3.714 0 0 0-.717.036c-.16.03-.519.074-.795.096-.276.022-1.105.092-1.842.157-.847.073-1.395.087-1.49.038-.158-.083-2.084.039-2.906.184-.809.142-4.331.166-4.84.033zm19.112-9.668c.582-.205 1.269-.543 1.342-.661.079-.128-.034-.61-.192-.819l-.141-.185-.503.488c-.628.611-1.214 1.24-1.214 1.302 0 .087.21.05.708-.125zm-.42-19.213c.154-.116.149-.123-.104-.123-.182 0-.268.04-.268.126 0 .158.161.157.372-.003zm41.693 28.644c-.084-.217.022-.374.218-.323.121.031.169.1.151.222-.03.213-.298.286-.37.101zm-51.641-27.64c-.055-.142.137-.254.283-.164.066.041.064.09-.006.175-.127.153-.215.15-.277-.01zm-1.978 72.806a.084.084 0 0 0-.084-.084.084.084 0 0 0-.083.084c0 .046.037.083.083.083a.084.084 0 0 0 .084-.083zm56.557-58.83c.09-.453.242-.701.428-.701.062 0 .196-.113.298-.251.106-.143.263-.252.365-.252.099 0 .268-.094.377-.21a1.4 1.4 0 0 1 .538-.31 1.97 1.97 0 0 0 .615-.333c.219-.187.357-.235.677-.235.22 0 .428-.027.461-.06.101-.1.817-.266 1.412-.326.311-.031.601-.1.645-.153.044-.052.099-.471.122-.93.06-1.178.18-1.916.423-2.592.115-.322.21-.654.211-.738.001-.083.087-.394.19-.69.17-.487.21-.54.419-.54.127 0 .23.037.23.083 0 .045.092.105.204.133a.825.825 0 0 1 .348.21c.25.277.395.184.773-.491.435-.778.489-1.076.188-1.042-.112.012-.326.116-.476.23-.15.114-.33.208-.401.208-.18 0-1.023.461-1.466.803-.203.157-.415.285-.471.285-.056 0-.406.226-.778.502-.372.277-.702.503-.734.503-.032 0-.252.129-.489.286-.45.298-1.103.613-2.098 1.012-.527.212-.691.236-1.633.243-1.225.009-2.138-.166-2.874-.55-.101-.053-.19-.049-.263.011-.09.075-.074.228.085.837.107.41.23.815.272.898.042.083.122.396.177.696.056.299.17.695.253.879.084.184.18.459.212.61.033.152.202.51.376.796.173.286.42.727.546.98.304.605.373.683.58.653.135-.02.191-.118.258-.454zM5.185 266.28c0-.246.025-.422.055-.391.063.062.051.73-.013.795-.023.023-.042-.159-.042-.404z" style="fill:#000;stroke-width:.0837283"/>
</svg>
