<svg xmlns="http://www.w3.org/2000/svg" xml:space="preserve" width="210mm" height="297mm" viewBox="0 0 210 297">
  <path d="M173.3 278.768c-.13-.139-.261-.196-.387-.168-.155.034-.166.024-.06-.052.11-.079.1-.094-.057-.095-.104-.001-.397-.142-.653-.314-.255-.172-.574-.335-.71-.362-.135-.027-.245-.102-.245-.166 0-.065-.08-.16-.175-.211-.097-.052-.176-.15-.176-.218 0-.069-.177-.247-.394-.396-.217-.15-.395-.312-.395-.36 0-.05-.182-.265-.405-.478a5.109 5.109 0 0 1-.65-.775c-.135-.213-.365-.476-.512-.584-.146-.109-.247-.228-.223-.266.023-.039-.037-.113-.135-.165-.098-.052-.178-.13-.178-.172 0-.043-.158-.242-.35-.443-.193-.2-.351-.403-.351-.45 0-.114-.404-.647-.789-1.04a7.826 7.826 0 0 1-.526-.602c-.12-.159-.457-.532-.748-.83a9.291 9.291 0 0 1-.729-.824c-.11-.157-.263-.285-.34-.285-.077 0-.115-.025-.083-.056.03-.032-.061-.19-.205-.354-.144-.164-.261-.325-.262-.36-.001-.034-.196-.22-.434-.413-.238-.193-.435-.4-.437-.46-.002-.06-.038-.1-.08-.088-.041.012-.252-.155-.47-.372-.451-.452-.88-.818-.944-.807-.024.004-.072-.068-.106-.161-.04-.106-.113-.15-.198-.117-.083.032-.134.003-.134-.075 0-.07-.196-.28-.435-.47-.24-.188-.436-.372-.438-.408-.005-.099-.273-.343-.686-.625-.203-.14-.37-.287-.37-.33 0-.04-.052-.075-.117-.075s-.28-.148-.477-.328c-.825-.753-1.018-.913-1.258-1.036-.138-.072-.25-.187-.25-.258 0-.07-.097-.151-.214-.18-.136-.035-.196-.099-.166-.178.026-.068.003-.123-.051-.123-.087 0-2.725-2.598-2.725-2.684 0-.034-.027-.064-.719-.794-.468-.493-.99-1.195-1.126-1.514a1.609 1.609 0 0 0-.332-.438c-.308-.286-1.066-1.187-1.066-1.267 0-.034-.136-.247-.303-.473l-.57-.77c-.146-.198-.266-.399-.266-.447 0-.048-.074-.154-.165-.236-.09-.082-.395-.493-.678-.912-.282-.42-.562-.794-.623-.833a.256.256 0 0 1-.111-.19.413.413 0 0 0-.111-.237 3.31 3.31 0 0 1-.26-.335c-.2-.293-.549-.757-1.053-1.4-.23-.292-.417-.56-.417-.598 0-.036-.118-.196-.263-.354-.144-.159-.263-.325-.263-.37a.085.085 0 0 0-.087-.083c-.048 0-.088-.05-.089-.11 0-.06-.137-.241-.304-.403-.166-.162-.326-.369-.355-.46-.03-.091-.09-.166-.136-.166-.046 0-.149-.138-.23-.307-.08-.168-.178-.307-.217-.307-.04 0-.072-.057-.072-.127s-.147-.284-.328-.473a5.74 5.74 0 0 1-.618-.826c-.16-.265-.406-.585-.548-.711-.142-.127-.258-.282-.258-.346 0-.063-.099-.208-.22-.321-.12-.113-.219-.255-.219-.315s-.098-.227-.219-.37c-.12-.143-.219-.298-.219-.345 0-.046-.1-.191-.221-.323-.122-.13-.34-.472-.483-.757-.144-.286-.302-.52-.35-.52-.05 0-.123-.088-.165-.196-.042-.109-.218-.409-.392-.666-.174-.258-.317-.52-.317-.581 0-.062-.056-.16-.126-.217-.069-.057-.15-.217-.18-.355-.03-.138-.111-.297-.18-.353-.142-.118-.516-.893-.598-1.24a1.497 1.497 0 0 0-.254-.482c-.231-.287-.475-.794-.633-1.315a2.59 2.59 0 0 0-.285-.613 1.98 1.98 0 0 1-.233-.437.729.729 0 0 0-.187-.295.392.392 0 0 1-.128-.263c0-.156-.425-1.054-.538-1.137-.033-.024-.106-.296-.162-.604-.056-.308-.154-.643-.218-.745a1.79 1.79 0 0 1-.18-.491c-.034-.169-.092-.346-.128-.395-.124-.162-.699-1.835-.83-2.414a4.919 4.919 0 0 0-.487-1.324c-.043-.08-.105-.347-.138-.592-.032-.245-.089-.446-.126-.446-.037 0-.087-.148-.111-.329-.08-.6-.244-1.11-.583-1.818a9.957 9.957 0 0 1-.487-1.227 9.36 9.36 0 0 0-.302-.876 6.107 6.107 0 0 1-.267-.877c-.064-.289-.15-.563-.19-.609a.391.391 0 0 1-.074-.224c0-.077-.119-.328-.264-.557-.226-.356-.293-.408-.46-.352-.185.061-.375.093-.985.164-.845.098-1.242.164-1.368.228-.077.04-.412.082-.745.092-.332.012-.623.048-.647.08-.07.097-1.456.433-1.784.433-.164 0-.347.059-.406.13-.06.073-.144.11-.186.083-.043-.026-.125-.019-.183.017-.058.036-.285.072-.504.08-.624.025-1.77.219-2.094.355-.163.067-.326.104-.363.081-.037-.023-.26.013-.495.08-.425.12-.479.128-1.018.15-.157.006-.335.052-.396.1-.061.048-.278.086-.482.084a3.67 3.67 0 0 0-.842.129c-.334.094-.652.116-1.095.075a6.565 6.565 0 0 0-1.282.039c-.362.053-1.131.097-1.71.098-.578.001-1.426.04-1.884.085-.458.045-1.05.095-1.314.11-.717.043-2.016.261-2.016.34 0 .037-.113.068-.252.068-.323 0-1.442.282-1.895.477-.45.195-1.096.394-1.096.34 0-.024-.153.078-.34.227-.189.149-.425.27-.525.27-.209 0-1.063.5-1.063.621 0 .044-.055.08-.122.08-.068 0-.374.158-.68.351a9.1 9.1 0 0 1-.741.432c-.102.044-.206.134-.23.198-.026.065-.343.27-.706.453-.363.185-.75.43-.859.547-.109.116-.226.21-.261.21s-.27.139-.52.307c-.25.169-.509.307-.573.307-.065 0-.18.088-.254.195-.092.13-.138.152-.14.065-.002-.111-.017-.111-.11.003a1.356 1.356 0 0 1-.362.263c-.497.253-.576.304-.576.37 0 .037-.043.068-.094.068-.052 0-.147.049-.212.11-.064.06-.32.247-.568.415-.248.17-.582.416-.743.548-.16.133-.333.241-.385.241-.051 0-.128.062-.17.137-.042.075-.236.242-.432.372-.43.285-1.459 1.254-1.822 1.716a9.693 9.693 0 0 1-.373.45c-.06.065-.11.14-.11.166 0 .028-.137.23-.306.452-.169.22-.307.436-.307.478 0 .175-.567.897-1.033 1.316-.613.549-.938.727-1.206.66-.112-.028-.228-.011-.258.037-.095.154-.617.095-1.238-.138-.331-.125-.622-.253-.646-.285-.048-.063-.24-.19-.65-.434-.289-.17-.44-.312-.753-.702-.12-.15-.25-.275-.286-.277-.037-.002-.24-.172-.45-.377-.21-.204-.606-.57-.882-.81a15.618 15.618 0 0 1-.813-.767c-.173-.18-.366-.329-.428-.329-.063 0-.284-.171-.49-.38a4.416 4.416 0 0 0-.704-.577c-.181-.108-.33-.233-.33-.277 0-.044-.062-.08-.139-.08-.076 0-.24-.08-.362-.176-.123-.096-.272-.175-.332-.175s-.15-.05-.2-.11c-.05-.06-.291-.187-.536-.282-.245-.095-.446-.2-.446-.235 0-.034-.158-.151-.35-.26-.193-.108-.35-.229-.35-.268 0-.04-.07-.073-.154-.074-.085-.001-.269-.12-.41-.263-.14-.143-.285-.26-.323-.26-.037 0-.242-.173-.456-.383-.213-.21-.504-.452-.646-.535-.141-.084-.41-.362-.595-.619-.186-.257-.41-.485-.499-.508-.088-.024-.16-.105-.16-.182s-.044-.14-.097-.14c-.158 0-.785-.534-.731-.622.027-.044-.012-.104-.087-.133-.076-.029-.137-.11-.137-.18 0-.07-.04-.102-.09-.071-.05.03-.132-.066-.184-.214-.052-.148-.12-.27-.153-.27s-.135-.148-.228-.328a3.126 3.126 0 0 0-.329-.513.94.94 0 0 1-.193-.355c-.058-.297-.29-.795-.405-.866-.066-.04-.088-.033-.056.02.106.17.264.597.248.668-.01.039.03.236.088.438.057.202.11.485.118.63.143 2.61.149 2.988.052 3.615-.213 1.39-.375 2.27-.503 2.738-.073.266-.183.7-.245.964a3.77 3.77 0 0 1-.281.79 4.722 4.722 0 0 0-.295.7 5.63 5.63 0 0 1-.309.745c-.1.193-.236.548-.3.789s-.17.5-.235.577c-.065.076-.118.171-.118.212 0 .04-.054.136-.12.212-.067.076-.21.395-.318.708-.108.313-.23.607-.273.653a.41.41 0 0 0-.078.24c0 .088-.04.159-.088.159-.048 0-.087.06-.087.135 0 .12-.406 1.005-.62 1.355-.045.072-.121.23-.17.35a3.36 3.36 0 0 1-.174.371.7.7 0 0 0-.088.288.218.218 0 0 1-.131.186.227.227 0 0 0-.132.199.4.4 0 0 1-.097.246c-.125.125-.308.44-.434.748-.055.132-.135.24-.178.24-.044 0-.08.046-.08.101 0 .136-.524.925-1.199 1.804-.304.397-.553.763-.553.814 0 .136-1.138 1.51-2.134 2.574a17.5 17.5 0 0 0-.657.755c-.176.217-.376.43-.444.472-.26.164-.884.8-.884.9 0 .145-.917 1.08-1.064 1.086-.066.002-.277.2-.47.437-.193.238-.379.433-.413.434-.035.001-.184.12-.332.264-.148.145-.304.263-.346.263-.043 0-.268.178-.501.395-.233.217-.493.417-.577.444-.084.027-.153.097-.153.156 0 .138-.69.67-.87.671-.076 0-.276.131-.445.29-.169.16-.563.425-.876.59a7 7 0 0 0-.614.345c-.024.026-.26.145-.526.264-.265.12-.502.244-.526.276-.024.032-.201.086-.394.12a2.65 2.65 0 0 0-.701.26c-.255.145-.404.18-.547.126-.148-.056-.216-.036-.279.082-.046.086-.248.21-.449.277-.2.066-.385.172-.409.235-.024.062-.109.115-.188.116-.08 0-.317.119-.53.262-.212.144-.478.262-.591.262-.113 0-.206.036-.206.08 0 .045-.127.11-.282.143-.277.06-.371.097-.729.278a2.4 2.4 0 0 1-.466.153c-.158.035-.309.119-.335.187a.206.206 0 0 1-.177.123c-.072 0-.23.079-.353.175-.123.097-.277.175-.343.175s-.12.036-.12.08c0 .043-.126.123-.282.177a1.676 1.676 0 0 0-.507.314 1.82 1.82 0 0 1-.616.334c-.406.123-.709.338-1.17.831-.149.16-.478.428-.732.597-.253.168-.461.343-.461.389 0 .045-.045.083-.101.083-.105 0-.772.696-.774.808 0 .035-.238.29-.528.565-.289.275-.61.674-.712.885a3.35 3.35 0 0 1-.438.66c-.138.152-.251.324-.251.383 0 .06-.06.141-.132.182-.073.04-.269.289-.435.552a8.5 8.5 0 0 1-.394.584.37.37 0 0 0-.091.186c0 .045-.057.128-.126.185-.069.058-.21.27-.313.471-.103.202-.234.406-.291.454-.057.049-.296.482-.53.964a90.11 90.11 0 0 1-.548 1.11c-.066.127-.12.289-.12.359 0 .069-.08.217-.176.328-.096.111-.175.242-.175.291 0 .05-.053.152-.119.228-.065.076-.225.454-.355.84-.13.385-.273.77-.319.853a.676.676 0 0 0-.083.252c0 .055-.113.322-.25.593-.138.27-.28.588-.318.705a1.195 1.195 0 0 1-.143.307l-.296.37c-.12.151-.22.3-.22.33 0 .232-.46.96-.825 1.304-.608.574-.73.613-1.294.415-.617-.218-1.514-1.159-1.597-1.677-.032-.203-.103-.341-.174-.341-.07 0-.141-.14-.174-.343-.03-.19-.085-.357-.12-.373-.083-.037-.46-1.084-.51-1.413a1.54 1.54 0 0 0-.126-.413.525.525 0 0 1-.067-.281c.012-.062-.022-.105-.077-.095-.139.026-.123-1.263.02-1.537.06-.117.222-.286.358-.375.136-.09.256-.232.265-.318a2.88 2.88 0 0 1 .293-.915c.042-.08.214-.495.38-.92.167-.425.457-1.074.645-1.442a9.34 9.34 0 0 0 .503-1.178 3.48 3.48 0 0 1 .454-.894c.161-.211.293-.486.293-.61s.097-.353.215-.508c.119-.156.191-.307.161-.337-.03-.03.006-.123.08-.208.074-.084.16-.263.192-.397a.981.981 0 0 1 .209-.395c.083-.084.322-.487.53-.896.21-.41.508-.902.663-1.095.156-.193.35-.488.433-.657.178-.362.344-.64.419-.701.03-.024.124-.182.21-.35.086-.17.23-.36.319-.422.09-.063.162-.176.162-.251 0-.15.583-.994.764-1.107.062-.038.113-.121.113-.184 0-.062.256-.377.57-.7.313-.323.569-.637.569-.7 0-.061.102-.207.228-.324.125-.117.3-.35.387-.52.088-.168.495-.602.905-.964.41-.361.749-.706.752-.766.004-.06.047-.11.096-.11.05 0 .257-.152.46-.338.228-.208.498-.362.7-.399a.8.8 0 0 0 .517-.315c.104-.14.301-.294.438-.342.137-.048.25-.128.25-.179 0-.05.04-.092.088-.092.049 0 .212-.118.363-.263.152-.145.324-.263.383-.263.06 0 .159-.061.22-.136.063-.075.281-.212.486-.305.205-.094.385-.2.402-.237.066-.15 1.466-.724 1.765-.724.059 0 .306-.134.549-.298a8.716 8.716 0 0 1 1.006-.558c1.044-.48 1.177-.548 1.578-.798.22-.137.6-.316.848-.398.246-.082.494-.204.55-.27.055-.068.294-.187.531-.266.237-.078.452-.176.477-.218.026-.041.154-.133.286-.203l.546-.291a3.7 3.7 0 0 0 .597-.426c.16-.144.515-.38.79-.525.274-.144.662-.43.863-.635.201-.205.405-.373.453-.373.049 0 .205-.108.348-.24.337-.313.524-.46.582-.46.025 0 .358-.306.738-.68.381-.374.845-.817 1.031-.986.186-.169.441-.465.566-.657.126-.193.431-.562.68-.82.248-.257.45-.522.45-.589 0-.066.1-.185.22-.264.12-.08.22-.179.22-.22 0-.123.37-.517.486-.517.058 0 .157-.128.22-.285.062-.157.264-.468.448-.692.184-.223.335-.45.335-.503 0-.054.04-.098.088-.098.048 0 .087-.06.087-.134a.21.21 0 0 1 .125-.182c.068-.026.188-.193.265-.37.077-.177.223-.46.325-.628.356-.588 1.135-2.176 1.147-2.337a1.474 1.474 0 0 0-.046-.383c-.049-.19-.11-.225-.418-.237-.199-.008-.407-.05-.463-.094-.133-.103-1.213-.367-1.502-.367-.123 0-.292-.035-.376-.077l-.547-.278a15.649 15.649 0 0 0-.526-.26c-.734-.318-1.429-.716-1.757-1.005a5.807 5.807 0 0 0-.697-.527c-.672-.396-1.055-.67-1.443-1.03-.194-.18-.385-.327-.424-.328-.092 0-.723-.497-1.061-.833-.146-.145-.295-.254-.333-.241-.038.012-.069-.017-.069-.063 0-.047-.581-.67-1.292-1.386a197.376 197.376 0 0 1-1.96-1.996c-.366-.383-.76-.778-.876-.878a41.04 41.04 0 0 1-1.218-1.227c-.554-.575-1.136-1.152-1.292-1.28-.157-.13-.285-.26-.285-.289 0-.03-.245-.278-.545-.553-.3-.276-.704-.673-.898-.884-.195-.21-.502-.53-.683-.71-.18-.18-.328-.354-.328-.388 0-.034-.209-.326-.463-.649a14.661 14.661 0 0 1-.764-1.069 7.075 7.075 0 0 0-.348-.525c-.141-.131-.528-.706-.693-1.03-.104-.205-.228-.373-.276-.373-.047 0-.085-.097-.085-.215 0-.119-.158-.464-.35-.767-.192-.303-.35-.6-.35-.661-.001-.06-.041-.11-.09-.11-.047 0-.087-.06-.087-.135 0-.074-.114-.38-.253-.679-.14-.3-.394-.967-.567-1.485-.172-.518-.37-1.051-.44-1.186a2.449 2.449 0 0 1-.186-.593 8.426 8.426 0 0 0-.222-.873c-.09-.29-.208-.782-.262-1.096a16.174 16.174 0 0 0-.262-1.183 22.006 22.006 0 0 1-.528-2.693c-.043-.35-.117-.874-.164-1.163-.215-1.304-.257-1.644-.215-1.751.024-.064.002-.142-.05-.173-.057-.036-.072-.194-.039-.403.03-.19.016-.394-.032-.455-.1-.128-.213-.966-.255-1.907-.084-1.86-.116-2.452-.16-2.892-.027-.265-.064-1.29-.082-2.278-.019-.989-.042-1.817-.053-1.84a.583.583 0 0 1-.004-.19c.008-.078-.05-.414-.127-.744a9.978 9.978 0 0 1-.187-1.39 12.88 12.88 0 0 0-.167-1.405c-.066-.34-.16-.966-.208-1.393-.08-.697-.179-1.191-.578-2.88-.066-.28-.102-.557-.08-.614.022-.058-.022-.52-.099-1.025a44.622 44.622 0 0 1-.217-1.665c-.043-.41-.116-.972-.161-1.25-.196-1.19-.299-4.369-.195-6.024.115-1.835.338-3.901.45-4.163.042-.097.1-.393.132-.658.03-.265.19-.886.353-1.38.163-.494.31-1.036.328-1.205.017-.168.058-.333.09-.365.032-.032.059-.145.059-.25 0-.105.078-.262.175-.35a.582.582 0 0 0 .175-.372c0-.25.225-1.088.394-1.468a9.18 9.18 0 0 0 .265-.722c.088-.27.187-.436.24-.402.052.031.066.014.033-.04-.032-.052.015-.265.106-.473.091-.208.255-.654.364-.992.109-.337.246-.732.304-.876.234-.578.86-2.48.954-2.9.056-.246.146-.503.201-.57.055-.068.151-.3.213-.518.061-.217.161-.454.223-.527.061-.073.155-.407.209-.743.053-.335.127-.63.164-.656.108-.073.174-.306.407-1.43.837-4.039.592-6.246-1.055-9.527a19.88 19.88 0 0 1-.396-.92c-.157-.386-.337-.761-.4-.835-.063-.074-.216-.356-.34-.627-.124-.27-.284-.54-.355-.6-.07-.059-.129-.155-.129-.215 0-.152-.446-1.021-.681-1.326a25.159 25.159 0 0 1-1.067-1.625c-.44-.754-.706-1.184-.798-1.287-.058-.065-.248-.397-.422-.738-.467-.91-.556-1.064-.67-1.16-.057-.049-.153-.216-.215-.373-.061-.157-.144-.285-.183-.285-.04 0-.232-.334-.428-.743a14.803 14.803 0 0 0-.648-1.205 12.78 12.78 0 0 1-.567-1.032c-.277-.572-.36-.719-.65-1.157-.085-.13-.156-.29-.156-.352 0-.063-.099-.26-.22-.437-.12-.178-.218-.372-.218-.431 0-.06-.27-.663-.6-1.341-.33-.678-.671-1.45-.757-1.715-.086-.265-.203-.541-.261-.614-.058-.072-.174-.328-.258-.57-.183-.523-.22-.613-.57-1.39-.15-.33-.271-.667-.271-.749a.394.394 0 0 0-.077-.231c-.042-.046-.243-.596-.447-1.223a44.168 44.168 0 0 0-.458-1.358c-.049-.12-.164-.515-.257-.876a16.78 16.78 0 0 0-.245-.877c-.098-.28-.432-1.44-.531-1.84a30.35 30.35 0 0 0-.265-.947c-.104-.352-.165-.702-.136-.778.029-.076.02-.182-.021-.236-.04-.055-.123-.375-.183-.712-.06-.338-.152-.83-.204-1.096a9.594 9.594 0 0 1-.111-.657 20.666 20.666 0 0 0-.266-1.665 15.041 15.041 0 0 1-.177-1.622c-.032-.554-.098-1.033-.148-1.063-.05-.031-.143-.78-.208-1.665-.066-.886-.157-1.984-.204-2.442a134.86 134.86 0 0 1-.314-3.462c-.028-.386-.09-.848-.137-1.028-.048-.18-.104-.713-.124-1.184-.02-.47-.045-.855-.053-.855-.016 0-.035-.242-.12-1.49a13.776 13.776 0 0 0-.153-1.315c-.055-.29-.112-.88-.125-1.315a43.423 43.423 0 0 0-.162-2.716c-.137-1.35-.165-9.254-.036-10.245.072-.548.067-.707-.022-.762-.09-.056-.092-.129-.006-.366.06-.165.107-.72.107-1.258 0-.53.038-1 .083-1.046.046-.045.102-.418.125-.828.068-1.204.146-2.008.275-2.848a57.17 57.17 0 0 0 .22-1.621c.054-.458.138-1.09.185-1.403.048-.313.118-.828.157-1.144.039-.317.132-.711.207-.877.075-.165.154-.42.177-.564.083-.536.355-1.494.46-1.621.06-.073.136-.339.17-.592.033-.253.093-.48.133-.504.04-.025.098-.202.13-.394.033-.193.096-.372.14-.4.044-.027.08-.16.08-.296 0-.136.052-.29.115-.342.063-.053.208-.294.322-.537.113-.243.24-.44.279-.44.04 0 .073-.096.073-.213 0-.287.089-.499.184-.44.043.027.079-.032.079-.132 0-.099.036-.18.08-.18.043 0 .174-.19.289-.42.241-.485.485-.85.704-1.054.085-.078.154-.193.154-.254 0-.062.039-.112.087-.112.048 0 .088-.071.088-.158 0-.087.158-.311.35-.5.193-.188.351-.396.351-.46 0-.066.044-.093.097-.06.064.04.079.003.043-.11-.039-.122.003-.202.144-.279.213-.115.68-.72.68-.882 0-.053.1-.135.223-.182.142-.054.214-.14.197-.239-.014-.086.023-.144.084-.132.06.012.11-.02.11-.07 0-.15.374-.61.498-.61.063 0 .115-.08.115-.177 0-.104.082-.209.199-.253a.735.735 0 0 0 .32-.301c.066-.125.154-.206.195-.18.041.025.075.007.075-.04 0-.163 2.79-2.878 3.082-2.998.16-.066.514-.348.785-.627.271-.278.548-.506.614-.506.067 0 .22-.09.34-.198.12-.108.377-.333.57-.499.192-.166.34-.333.328-.37-.012-.038.097-.13.24-.205.145-.074.263-.174.263-.22 0-.048.052-.086.115-.086s.198-.077.3-.172a1.12 1.12 0 0 1 .41-.228c.125-.032.227-.109.227-.172 0-.063.112-.14.25-.17s.3-.147.36-.26a.803.803 0 0 1 .32-.301c.116-.053.2-.143.188-.2-.013-.057.115-.145.284-.195.169-.05.353-.135.409-.19.056-.055.224-.15.372-.212.149-.062.27-.147.27-.19 0-.042.064-.076.14-.076.077 0 .16-.08.186-.175.025-.097.11-.176.19-.176s.218-.098.309-.219c.09-.12.195-.219.232-.219.112 0 .784-.464.784-.541 0-.04.08-.072.178-.072.098 0 .199-.054.224-.12.025-.065.205-.171.4-.236.196-.064.376-.168.4-.231.024-.063.138-.115.254-.115.115 0 .21-.04.21-.091 0-.103.44-.515.554-.52.04 0 .293-.16.562-.353.269-.192.552-.35.63-.35.076 0 .19-.08.25-.179.062-.098.146-.158.188-.132.042.026.098-.012.126-.084a.216.216 0 0 1 .184-.131c.074 0 .134-.042.134-.093 0-.05.043-.066.096-.034.052.033.22-.061.372-.208.153-.147.376-.31.496-.362.434-.187 1.092-.604 1.238-.784.082-.101.187-.184.234-.184.046 0 .13-.055.187-.123a.74.74 0 0 1 .335-.182 1.15 1.15 0 0 0 .445-.27c.117-.116.244-.191.283-.167.039.024.094.006.121-.038.066-.106.927-.535 1.075-.535.063 0 .114-.059.114-.131 0-.073.038-.132.084-.132.046 0 .227-.097.402-.216.176-.12.473-.284.661-.368.189-.083.343-.183.343-.222 0-.04.158-.135.35-.212.193-.077.35-.175.35-.218 0-.043.074-.078.163-.078.089 0 .232-.078.318-.174.086-.095.187-.154.223-.132.036.022.115-.018.174-.09a.45.45 0 0 1 .307-.13c.11 0 .222-.06.25-.132.028-.072.12-.131.207-.131.086 0 .209-.083.272-.184.063-.101.137-.162.164-.135.066.067.552-.191.552-.293 0-.045.162-.13.36-.19.198-.06.38-.16.404-.223.024-.063.091-.114.15-.114.058 0 .337-.119.62-.263.283-.145.566-.263.63-.263.063 0 .115-.032.115-.07 0-.039.148-.123.328-.186.478-.17 1.418-.627 1.474-.718.027-.043.135-.079.24-.08.106 0 .291-.079.412-.173.12-.094.288-.172.372-.174.084 0 .154-.031.154-.067.001-.075.422-.285.573-.285.055 0 .172-.079.26-.175.086-.097.22-.176.297-.176.077 0 .259-.08.403-.175.145-.096.326-.174.403-.175.077 0 .211-.079.298-.175.088-.097.194-.176.237-.176.166 0 2.399-1.08 2.609-1.263.074-.064.292-.166.485-.227.192-.06.514-.22.714-.353.2-.133.516-.295.701-.36.186-.065.554-.246.82-.403.265-.157.533-.285.596-.286.063 0 .09-.04.06-.087-.03-.051.056-.088.207-.088.144 0 .274-.032.29-.072.016-.04.41-.219.877-.398.465-.18.894-.384.952-.454a.41.41 0 0 1 .28-.128c.094 0 .277-.055.405-.122.3-.158 1.833-.48 2.937-.619.186-.023.388-.083.449-.134a.28.28 0 0 1 .253-.037c.084.032.143.01.143-.053 0-.077.125-.097.43-.067.236.022.485.01.553-.029.069-.038.556-.068 1.082-.068.527.001 1.09 0 1.25-.004.161-.003.337.02.39.053.148.092 3.063.113 3.23.023.082-.044.733-.103 1.449-.132.715-.028 1.458-.084 1.65-.124.369-.077 1.028-.053 1.181.042.05.03.09.01.09-.044 0-.068.092-.08.285-.035.157.036.403.057.548.046.145-.01.973.022 1.84.07.868.05 2.006.113 2.53.14a23.05 23.05 0 0 1 1.804.178c.469.07 1.303.167 1.853.214.55.048 1.158.126 1.35.174a3.4 3.4 0 0 0 .636.089c.156 0 .285.041.285.09 0 .048.185.087.41.087.394 0 1.129.11 1.78.265.17.04.643.155 1.052.255.41.1.903.2 1.096.22.632.068 1.723.336 1.995.49.086.049.342.113.57.144.228.03.44.094.471.142.031.047.228.103.437.124.21.02.424.074.477.118.054.045.12.059.147.031.055-.055.843.196.985.313.095.08 2.47.878 2.61.878.12 0 1.933.717 2.031.803.046.04.17.073.275.073.104 0 .24.06.3.132.06.072.16.131.222.131s.127.03.143.066c.04.091.79.46.95.466.071.003.328.119.569.257.24.138.675.373.964.521.289.15.585.307.657.35.072.044.316.164.54.266.226.102.457.243.515.313a.39.39 0 0 0 .261.127c.085 0 .175.05.199.11.024.06.196.186.382.28.275.14 1.674.947 2.222 1.283.072.044.23.122.35.174.12.051.345.19.498.306.154.118.323.214.375.214.052 0 .251.098.442.219.191.12.388.219.438.219.05 0 .4.157.779.35.378.193.744.35.812.35.068 0 .201.054.296.118.095.064.45.207.787.317 1.292.42 1.93.646 2.016.711.049.038.265.133.482.212 1.287.47 1.712.608 2.541.83.507.136 1.078.329 1.271.429.193.1.606.247.92.327.313.08.819.28 1.124.444.305.164.747.34.983.39.236.051.63.19.875.307.244.118.478.194.518.17.08-.05.713.15 1.282.406.196.088.393.16.439.16.045 0 .268.099.494.219.226.12.482.23.57.243.087.013.255.092.374.176.119.083.27.15.337.15.142 0 1.01.452 1.052.549.016.036.084.065.15.065.068 0 .266.08.44.179.325.182.94.43 1.177.474.355.065 2.016.981 2.016 1.111 0 .042.06.077.132.077.073 0 .517.248.986.552.938.607 1.592.938 1.855.938.094 0 .282.046.418.102.135.056.266.108.29.116.086.026.572.24.722.317a.775.775 0 0 0 .293.078c.166 0 .546.159 1.395.582.817.407 1.81.914 1.972 1.007.072.04.368.194.657.34.29.145.625.32.745.39s.436.23.701.356c.266.126.72.366 1.008.533.29.168.595.327.678.355.084.028.131.086.105.129-.027.043.023.102.11.132.454.155 1.094.495 1.135.602.026.068.177.166.335.218.158.052.411.23.563.397.15.166.373.327.493.357.12.03.218.09.218.133 0 .043.08.078.176.078.096 0 .254.079.35.175.097.097.2.176.229.176.029 0 .16.088.29.197.132.108.37.296.532.416.161.12.375.304.476.409.1.104.38.338.62.52.924.696 2.355 2.125 3.04 3.037.246.325.474.591.507.591.033 0 .19.181.35.402.158.221.431.554.606.74.533.566.975 1.118.975 1.218 0 .052.03.094.069.094.084 0 .72.84.72.951 0 .044.148.242.328.442.667.734.938 1.08 1.438 1.829.282.421.601.878.71 1.016.108.137.262.367.343.51.08.144.202.328.27.408.069.08.174.272.235.425.06.153.185.347.277.43.092.083.167.204.167.27 0 .064.037.117.082.117.045 0 .11.089.144.197.034.109.203.414.375.68.173.265.416.679.541.92.125.24.393.655.594.92.202.265.367.517.367.56 0 .044.133.24.295.439.161.197.323.452.359.566.036.113.15.338.254.5.554.865.67 1.088.67 1.285 0 .119.079.287.175.375.097.087.176.195.176.24 0 .046.079.194.176.33.096.136.2.368.23.516.029.147.107.313.174.368.066.056.12.146.12.2 0 .056.08.248.176.428.096.18.175.381.175.447s.08.22.176.343c.096.122.175.267.175.322 0 .055.113.344.251.643.139.3.28.702.315.895.035.193.116.45.18.57.241.447.568 1.253.568 1.396 0 .081.058.224.13.318.07.093.129.223.13.288.002.065.075.223.163.35.087.128.207.41.265.628.059.216.26.828.447 1.358.187.53.42 1.3.517 1.709.097.41.25.942.34 1.183.169.45.293.974.467 1.972.055.313.13.61.166.657.036.048.115.344.174.658.06.313.163.707.23.876.16.4.3 1.31.302 1.972.001.29.061.695.133.902.192.55.204 4.707.017 5.978a32.339 32.339 0 0 0-.195 1.62 8.156 8.156 0 0 1-.19 1.184 6.594 6.594 0 0 0-.168.818c-.02.186-.115.577-.211.87-.097.292-.175.705-.175.916 0 .212-.055.491-.121.621-.067.13-.15.411-.186.624-.035.214-.177.746-.315 1.184-.138.437-.252.86-.253.94 0 .08-.077.297-.17.482-.3.6-.769 1.646-.838 1.87a2.867 2.867 0 0 1-.299.57c-.127.193-.345.647-.484 1.008-.139.362-.352.835-.473 1.052-.363.649-.618 1.196-.682 1.46a3.073 3.073 0 0 1-.22.556c-.137.267-.242.501-.607 1.358a3.065 3.065 0 0 0-.135.482c-.033.169-.21.622-.393 1.008-.182.386-.358.879-.391 1.096a3.643 3.643 0 0 1-.3.876c-.132.265-.27.6-.305.745a1.15 1.15 0 0 1-.178.394c-.062.073-.141.287-.175.478-.035.19-.138.442-.23.56-.093.117-.169.269-.169.337 0 .069-.207.41-.46.76-.562.776-.63.884-.839 1.327-.09.193-.25.426-.353.518-.103.091-.188.218-.188.281 0 .063-.079.157-.175.209-.097.052-.176.136-.176.188 0 .052-.151.277-.336.5a5.98 5.98 0 0 0-.417.55c-.043.08-.257.34-.474.582-.216.24-.552.643-.744.893-.193.25-.441.555-.551.676-.11.12-.352.423-.538.672-.186.249-.515.62-.732.823-.217.204-.603.628-.858.942-.255.315-.495.572-.533.572-.039 0-.127.108-.196.24-.069.133-.277.403-.462.6-.6.639-.995 1.1-.995 1.166 0 .035-.084.155-.188.266-.287.309-.78.97-.847 1.136-.066.163-.306.548-1.134 1.82-.3.462-.547.871-.547.908 0 .037-.06.09-.132.118-.076.029-.131.16-.131.31 0 .144-.04.286-.088.315-.048.03-.087.136-.087.236 0 .1-.076.305-.169.455-.284.463-.595 1.915-.968 4.524-.115.803-.2 3.45-.189 5.872.005 1.133-.023 2.264-.064 2.514-.065.41 0 2.552.113 3.664.025.241.048.813.052 1.271.004.458.046 1.129.092 1.49.307 2.408.359 2.893.347 3.27a2.8 2.8 0 0 0 .167.9c.135.36.18.69.18 1.301 0 .451.055 1.13.122 1.509.068.379.168.965.223 1.302.12.724.154 7.162.066 11.963-.036 1.925-.025 3.53.026 4.031.048.458.143 1.543.212 2.41.069.868.148 1.637.176 1.71.027.072.087.446.133.832.157 1.308.441 2.904.673 3.776.128.478.265 1.06.305 1.294.04.234.131.589.204.789.072.2.15.525.174.722.024.197.083.453.13.57.11.265.38 1.802.368 2.095-.016.387.178 1.613.298 1.884.144.325.134.09.14 3.287.008 3.826-.075 7.172-.189 7.705-.054.253-.077.565-.05.694.05.247-.156.928-.353 1.16-.064.076-.117.274-.119.439-.001.164-.082.516-.179.781-.097.266-.228.687-.291.938-.086.339-.208.541-.479.793-.2.187-.363.405-.363.486 0 .201-.462.66-1.116 1.106-.301.205-.623.468-.714.585-.092.116-.233.212-.313.212-.08 0-.307.177-.505.394-.197.217-.408.394-.47.394-.06 0-.123.036-.139.079-.063.17-1.106 1.206-1.451 1.441-.2.138-.604.502-.896.811-.291.309-.582.561-.646.561-.063 0-.228.119-.367.263-.138.145-.304.263-.368.263-.065 0-.162.099-.217.22-.055.12-.153.218-.217.218-.065 0-.118.036-.118.08 0 .043-.227.228-.504.41a9.964 9.964 0 0 0-.888.666c-.212.184-.422.334-.466.334-.078 0-.919.364-1.23.532a.811.811 0 0 1-.307.085c-.085.002-.29.12-.458.263-.166.143-.352.26-.413.26-.132 0-1.251.603-1.415.763-.064.062-.253.113-.421.113-.168 0-.284.036-.257.079.071.115-.557.46-.885.487-.154.012-.342.085-.419.16-.076.077-.326.165-.554.195-.228.03-.675.17-.992.312-.317.141-.721.257-.898.257-.207 0-.386.064-.5.178a1.032 1.032 0 0 1-.46.231c-.155.03-.322.083-.37.119-.048.036-.225.094-.394.13-.169.034-.346.093-.395.13a1.276 1.276 0 0 1-.306.134c-.12.037-.397.147-.614.245a14.205 14.205 0 0 1-.728.308 1.353 1.353 0 0 1-.402.102c-.084 0-.246.099-.36.22-.113.12-.297.219-.41.219-.111 0-.203.043-.203.097 0 .088-.048.08-.4-.065-.05-.02-.208.062-.35.184s-.301.222-.354.222c-.053 0-.167.079-.255.175a.57.57 0 0 1-.36.175c-.194 0-.529.122-1.152.419-.157.074-.31.11-.34.08-.031-.03-.16-.001-.285.065-.71.376-1.296.596-1.895.71-.37.071-.71.151-.753.178-.12.075-.095.358.09.993.093.318.213.816.267 1.105.087.467.438 1.537.748 2.278.06.145.219.599.351 1.008.133.41.355.99.493 1.29.138.299.251.583.251.63 0 .048.135.356.3.683.344.684.613 1.273.75 1.638.052.14.3.574.552.966l.567.886c.06.096.247.45.415.787.167.337.48.787.693.998.213.212.44.488.505.614s.14.248.167.272c.027.024.104.182.172.35.068.17.156.347.196.395.073.088.466.634 1.092 1.521.182.258.46.612.616.785.157.174.285.343.285.377 0 .095.602.97.867 1.261.132.145.385.48.562.745.178.265.5.699.718.964.218.265.46.62.538.789.079.168.407.661.729 1.095.322.434.76 1.038.974 1.342.214.304.586.817.828 1.14.722.964 1.094 1.502 1.094 1.58 0 .085.307.451.855 1.022.205.213.372.423.372.466 0 .044.404.494.899 1.001 1.076 1.105 2.607 2.73 2.683 2.85.03.046.144.112.252.146.109.034.198.098.198.143 0 .045.036.082.08.082.084 0 .848.673 1.18 1.037.102.113.324.33.493.482.168.152.553.517.854.81.301.294.55.511.551.483.002-.028.063.057.135.19.071.132.162.24.202.24.233 0 4.483 4.462 5.53 5.807.217.277.42.504.454.504.033 0 .185.217.336.482.152.265.305.482.341.482.036 0 .15.148.252.329.102.18.308.46.457.622.149.16.28.337.29.392.01.054.11.173.22.264.112.091.184.184.161.207-.022.023.114.2.302.395.19.194.344.408.344.474 0 .067.059.121.131.121.072 0 .132.042.132.093 0 .09 1.12.657 1.24.628.032-.008.105.044.164.115.059.07.157.128.217.128.187 0 .745.686.745.916 0 .117.04.238.087.268.049.03.088.133.088.229s.1.354.222.573c.123.22.2.468.173.554-.03.095.003.177.084.208.074.028.135.15.135.269 0 .12.064.253.143.297.182.102.385.648.43 1.156.02.217.057.611.084.876.065.65-.105.874-.707.935-.238.024-.47.08-.516.124-.134.13-.267.094-.477-.129zm-83.332-55.116c.108-.134.266-.322.35-.417.085-.095.153-.183.153-.196 0-.154 1.97-2.141 2.193-2.212a.504.504 0 0 0 .255-.207c.045-.083.298-.261.562-.395.265-.133.55-.319.634-.412.083-.092.203-.168.266-.168a.25.25 0 0 0 .183-.11c.074-.116.229-.22.728-.495.168-.093.46-.31.646-.483.187-.173.373-.314.413-.314.04 0 .209-.119.373-.263.165-.145.369-.263.453-.263.085 0 .218-.074.296-.165.079-.09.399-.299.712-.464.312-.164.726-.4.919-.523a14.78 14.78 0 0 1 1.096-.588c.902-.442 1.657-.887 2.103-1.24.182-.145.417-.263.521-.263.104 0 .335-.076.513-.168.178-.093.502-.239.719-.324.217-.085.453-.2.525-.256.073-.056.33-.152.57-.212a6.13 6.13 0 0 0 .827-.285c.214-.095.52-.195.682-.221.16-.026.313-.082.339-.123.026-.042.17-.076.32-.076s.395-.037.543-.081c.148-.045.486-.129.75-.187.266-.058.522-.135.57-.172.049-.037.246-.069.44-.07a2.1 2.1 0 0 0 .597-.098c.135-.051.549-.096.92-.099.37-.003.969-.042 1.33-.087.362-.044 1.348-.101 2.191-.126.844-.024 1.75-.07 2.016-.1.265-.032.699-.067.964-.08.265-.012.817-.068 1.227-.123.41-.056.938-.08 1.175-.055.342.036.454.015.542-.105.095-.127.141-.133.292-.041.238.145.73.138 1.1-.016.163-.068.374-.104.467-.08.094.024.362-.025.597-.11.422-.153.825-.21 2.7-.38.601-.054.982-.129 1.028-.2.042-.066.072-.073.073-.016 0 .067.147.073.488.02.268-.042.516-.059.552-.037.035.022.359.001.718-.048.36-.048.87-.105 1.135-.126.265-.021.6-.055.745-.075l.964-.132c.386-.052 1.096-.12 1.578-.15s.937-.085 1.011-.123c.075-.038.468-.115.874-.17.406-.056.878-.164 1.048-.24.17-.076.586-.17.923-.209 1.012-.116 1.818-.313 1.902-.464.043-.076.17-.14.283-.14a.458.458 0 0 0 .313-.13c.06-.073.153-.133.208-.133.198-.002 1.019-.95 1.316-1.522.169-.323.428-.74.576-.927.148-.188.35-.521.447-.742.098-.22.21-.401.247-.401.039 0 .145-.138.235-.307.091-.169.193-.307.227-.307s.09-.089.124-.197c.086-.273 1.64-2.68 1.932-2.993.055-.058.164-.232.244-.386.178-.345.503-.806.995-1.413.205-.253.372-.511.372-.573 0-.062.062-.165.138-.227.076-.063.21-.256.298-.427.089-.172.263-.431.388-.576.125-.145.228-.288.228-.32 0-.099.717-1.245.977-1.562.137-.168.25-.332.25-.364 0-.032.138-.264.307-.515.168-.25.306-.502.306-.558 0-.056.105-.256.232-.443.128-.188.281-.505.341-.704.06-.199.213-.515.34-.702.127-.187.255-.442.284-.566.03-.124.103-.285.164-.357.06-.072.139-.27.174-.438.036-.169.139-.412.229-.54a.996.996 0 0 0 .164-.484.87.87 0 0 1 .121-.425c.194-.277.583-2.416.581-3.197 0-.17-.084-.466-.187-.658-.625-1.173-.804-1.493-.857-1.532-.06-.045-.292-.426-.69-1.14a16.258 16.258 0 0 0-.543-.876l-.701-1.051a49.842 49.842 0 0 1-1.316-2.052c-.201-.333-.418-.657-.481-.72-.063-.063-.204-.303-.314-.534a9.375 9.375 0 0 0-.48-.857c-.37-.575-.448-.73-1.552-3.024-1.256-2.61-1.739-3.537-2.166-4.158-.146-.213-.266-.411-.266-.44 0-.03-.07-.13-.154-.221-.084-.092-.25-.356-.37-.588-.12-.231-.263-.46-.316-.509a12.22 12.22 0 0 1-.597-.723c-.274-.35-.53-.635-.567-.635-.037 0-.16-.168-.274-.373-.114-.204-.723-.885-1.354-1.511-.63-.627-1.209-1.219-1.285-1.315a7.642 7.642 0 0 0-.57-.572c-.236-.219-.487-.485-.558-.592-.07-.107-.166-.194-.211-.194-.045 0-.322-.223-.616-.496-.294-.272-.85-.784-1.235-1.137a19.22 19.22 0 0 1-.876-.84 32.46 32.46 0 0 0-1.051-1.032 406.66 406.66 0 0 1-4.28-4.182 13.762 13.762 0 0 1-.673-.762c-.217-.264-.443-.482-.504-.485-.06-.003-.11-.035-.11-.071-.001-.036-.16-.244-.354-.46l-.853-.956a34.837 34.837 0 0 0-.961-1.028c-.253-.256-.46-.522-.46-.59 0-.069-.169-.316-.375-.55-.396-.45-.852-1.115-.852-1.243 0-.042-.07-.139-.155-.216-.085-.077-.292-.408-.46-.736-.168-.328-.369-.66-.446-.737a3.031 3.031 0 0 1-.345-.505c-.112-.2-.234-.363-.27-.363-.159 0-1.079-1.044-1.236-1.402a6.38 6.38 0 0 1-.48-1.943c-.04-.457-.084-.593-.204-.625a.397.397 0 0 0-.273.036.723.723 0 0 1-.319.076c-.11.001-.222.06-.25.13-.035.093-.175.126-.5.117-.507-.014-.819.063-1.04.258-.083.072-.214.107-.292.077-.153-.058-.977.181-1.055.307-.026.042-.18.077-.344.077-.163 0-.323.043-.355.095-.032.052-.14.074-.238.049-.098-.026-.287.009-.419.077a2.42 2.42 0 0 1-.622.18c-.21.031-.559.116-.776.188a2.652 2.652 0 0 1-.76.122c-.221-.006-.418.041-.498.121-.072.073-.246.132-.386.132-.244 0-1.898.24-2.08.303a21.16 21.16 0 0 1-.285.093c-.218.07-.257.287-.088.493.153.188.767.526.767.423 0-.143.558-.094.897.078.176.09.446.189.6.22.153.03.343.128.42.217.079.089.35.23.603.314.253.083.46.184.46.223 0 .04.187.192.416.34.229.146.554.405.723.575.169.17.348.31.399.311.05.001.178.19.282.42.105.229.308.613.453.854.406.68.514.933.577 1.358.061.407.371 1.467.474 1.622.033.048.149.364.258.7.11.338.28.812.38 1.053.099.24.212.517.25.613.04.097.096.353.126.57.03.217.153.71.272 1.097.172.554.212.853.192 1.403-.015.404-.063.692-.114.683-.048-.009-.215.063-.37.16-.156.096-.324.15-.373.12-.049-.03-.09 0-.09.07 0 .287-.216.32-.66.103-.24-.117-.502-.214-.585-.215-.083-.001-.239-.121-.346-.266-.106-.145-.228-.263-.269-.263-.089 0-.273-.146-.527-.416-.335-.357-.587-.224-.596.314-.004.267-.516.873-.9 1.066-.184.092-.285.099-.4.027a.61.61 0 0 0-.377-.054c-.321.062-.841-.235-1.331-.759-.716-.765-1.63-2.99-1.632-3.974a1.09 1.09 0 0 0-.104-.438c-.057-.106-.134-.629-.17-1.162-.064-.944-.378-2.322-.648-2.844a3.719 3.719 0 0 1-.225-.664c-.057-.236-.298-.824-.535-1.306-.237-.482-.486-1.093-.552-1.358-.066-.266-.194-.68-.284-.92l-.164-.439-.6-.067c-.329-.036-.722-.032-.873.01a.881.881 0 0 1-.493-.007c-.12-.045-.426-.065-.68-.045-.256.02-.48.011-.5-.02-.046-.076-.924-.047-1.116.037-.083.036-.418.02-.745-.035a6.837 6.837 0 0 0-.944-.096c-.318.003-.679-.031-2.259-.22-.278-.033-.527-.095-.553-.137-.026-.043-.16-.077-.299-.077a1.66 1.66 0 0 1-.492-.092c-.427-.162-1.515-.434-1.737-.434-.118 0-.237-.035-.263-.078-.026-.042-.236-.104-.465-.138a3.783 3.783 0 0 1-.872-.273c-.25-.117-.504-.212-.563-.212-.06 0-.175-.06-.256-.134-.234-.212-.492-.22-.918-.032-.371.164-.394.194-.394.52 0 .235.039.347.12.347.224 0 .363.77.341 1.884-.015.812-.05 1.074-.15 1.147-.076.056-.155.315-.189.614-.032.285-.108.577-.17.65-.062.072-.158.38-.213.686-.108.6-.216.898-.452 1.247-.083.123-.373.892-.643 1.709-.27.816-.55 1.608-.62 1.76-.07.152-.127.316-.127.363 0 .048-.178.328-.395.623-.217.294-.394.557-.394.583 0 .026-.08.131-.175.235-.097.103-.176.242-.176.308s-.032.1-.07.077c-.04-.024-.146.095-.237.265-.092.17-.333.428-.537.574-.204.147-.48.44-.613.65-.134.212-.274.384-.312.384-.039 0-.175.119-.304.263-.129.145-.27.263-.311.263-.043 0-.291.212-.553.472-.261.26-.756.68-1.098.933l-.871.646c-.74.549-1.366 1.044-1.413 1.119-.029.046-.202.136-.384.199-.545.187-1.886 1.43-1.886 1.747 0 .047-.056.147-.124.223-.217.242-.419.9-.537 1.76-.147 1.068-.278 1.65-.438 1.942-.07.128-.128.285-.13.35-.003.174-.966 1-1.246 1.07-.133.032-.241.098-.241.145 0 .048-.076.086-.168.086-.243 0-.621.49-.621.804a.926.926 0 0 1-.175.487c-.097.122-.176.3-.176.394 0 .093-.083.492-.184.886-.222.86-.187 1.78.099 2.572.101.28.238.72.303.975.066.255.159.512.207.57.17.206.29 1.838.189 2.573-.247 1.792-.367 2.2-.846 2.882-.1.142-.228.402-.285.578-.116.357-.426.815-.885 1.306-.169.18-.405.512-.526.736-.12.224-.377.571-.57.771-.424.44-.794 1.01-1.277 1.97-.2.396-.417.765-.484.82-.066.055-.101.132-.077.17.024.04-.001.183-.055.32-.311.782-.63 2.663-.749 4.41-.037.545.008.884.259 1.973.167.723.391 1.57.499 1.884.208.607.34 1.013.396 1.227.079.293.307.866.576 1.446.157.337.29.633.296.657.071.288.25.701.304.701.037 0 .153.287.257.638.104.351.307.887.451 1.191.144.304.262.6.262.655 0 .122.516 1.467.61 1.592.036.048.138.363.226.7.088.338.227.703.31.811.082.109.255.523.383.92.129.398.287.842.351.987.22.494.486 1.23.486 1.343 0 .063.093.318.207.568.113.25.256.613.318.805.061.193.139.39.172.439.034.048.11.255.168.46.058.205.144.372.19.372.047 0 .085.074.085.164 0 .09.078.263.175.386.096.123.175.246.175.275 0 .03.118.216.263.416.145.2.263.394.263.432 0 .072.7 1.228.79 1.307.028.024.145.179.26.344.516.736 2.796 3.024 4.003 4.014.483.396 1.063.919 1.29 1.16.227.243.44.441.474.442.103 0 .664.546.928.903a9 9 0 0 0 .633.732c.212.218.386.423.386.456 0 .033.145.138.323.233.358.192 1.868 1.65 1.868 1.803 0 .053.127.215.282.36l.281.263.245-.294c.135-.161.334-.403.442-.537zm21.614-33.262c-.308-.116-.75-.265-.985-.33-.235-.067-.473-.159-.53-.206-.056-.047-.412-.15-.79-.227a8.472 8.472 0 0 1-1.118-.312 2.693 2.693 0 0 0-.816-.169c-.213 0-.615-.063-.895-.14a3.983 3.983 0 0 0-.953-.127 4.121 4.121 0 0 1-.876-.091c-.238-.057-.807-.113-1.264-.125a41.291 41.291 0 0 1-.964-.032 40.244 40.244 0 0 0-1.227-.005c-2.159.01-5.226-.083-5.828-.177a48.642 48.642 0 0 0-1.304-.18c-.38-.046-.892-.178-1.14-.292a4.92 4.92 0 0 0-.712-.271c-.144-.035-.598-.225-1.007-.424-.41-.198-.836-.35-.946-.337-.111.014-.359-.058-.55-.158-.193-.1-.405-.182-.473-.182a.417.417 0 0 1-.242-.12.89.89 0 0 0-.304-.178c-.103-.033-.21-.164-.242-.296a3.877 3.877 0 0 0-.256-.633c-.176-.351-.272-.746-.449-1.862-.042-.268-.139-.395-.516-.68-.255-.192-.509-.35-.563-.35-.16 0-1.051-.443-1.163-.578a.354.354 0 0 0-.231-.123c-.071 0-.234-.056-.362-.125a18.472 18.472 0 0 0-.846-.398c-.993-.443-1.358-.636-1.358-.716 0-.042-.05-.076-.112-.076s-.42-.207-.797-.46c-.472-.317-.743-.569-.874-.81a3.176 3.176 0 0 0-.237-.395c-.136-.124-.533-1.219-.63-1.734-.135-.718-.136-2.357-.003-3.656.171-1.674.644-2.749 1.413-3.213a5.41 5.41 0 0 0 .646-.481c.18-.159.436-.315.57-.347.256-.062.739-.284.812-.375.103-.126 1.375-.711 1.546-.71.264 0 1.1-.27 1.266-.41.076-.064.177-.116.224-.116.048 0 .163-.071.256-.158.094-.087.407-.254.696-.372.29-.117.802-.394 1.14-.615.337-.221.741-.453.898-.516.156-.062.285-.148.285-.19 0-.043.055-.077.122-.077.153 0 .528-.32 1.232-1.052.976-1.015 1.362-1.442 1.362-1.506 0-.14.908-1.141 1.122-1.238.127-.058.33-.198.453-.313.509-.478.974-.526 1.707-.175.532.254 1.45.463 1.558.355.063-.063.162-.042.32.07.142.098.547.2 1.06.266.455.06.916.147 1.023.196a.509.509 0 0 0 .355.021c.156-.067.344-.066.86.002 1.432.19 1.855.14 2.237-.266.112-.119.246-.217.298-.218.051 0 .245-.154.43-.342.386-.393.826-.497 1.232-.293.248.125 1.103.092 1.324-.051.048-.032.403-.063.789-.07a75.59 75.59 0 0 0 1.962-.076c1.038-.052 1.347-.038 1.752.079.271.078.946.202 1.5.275.555.074 1.304.232 1.665.35 1.107.366 1.172.38 1.534.342.193-.02.651-.052 1.018-.071.368-.02.747-.078.843-.13.097-.05.2-.069.229-.04.03.03.236-.016.46-.101.33-.126.546-.145 1.142-.096.405.033.782.03.839-.004.16-.1.971-.109 1.153-.014.11.057.195.053.259-.011.134-.134 1.682-.125 1.9.012.14.088.218.08.42-.039.333-.196 1.13-.222 1.467-.047.226.117.304.12.541.02.458-.192 1.129-.19 1.343.004.144.13.217.145.338.07.093-.06.649-.097 1.407-.097 1.123 0 1.301.02 1.716.204.255.113.477.237.494.276.044.1.576.465.679.465.047 0 .334.2.639.446.304.245.67.507.812.581.142.075.307.18.365.233.059.055.31.217.557.361.248.145.677.48.954.745.277.266.622.57.766.675.697.512 1.66 1.633 2 2.327.173.352.246.666.283 1.213.061.886.013.964-.896 1.443-.334.176-.669.375-.745.442a.575.575 0 0 1-.329.123c-.104 0-.19.038-.19.084 0 .046-.156.126-.347.178-.19.051-.37.132-.4.178-.028.047-.138.086-.244.087-.106 0-.364.099-.574.219-.21.12-.456.218-.547.218-.092 0-.167.033-.167.074 0 .097-.829.364-1.13.364a.882.882 0 0 0-.43.138.693.693 0 0 1-.391.118.789.789 0 0 0-.327.038c-.289.126-1.559.091-2.279-.062a16.45 16.45 0 0 0-.98-.187 1.055 1.055 0 0 1-.35-.099c-.064-.04-.313-.1-.554-.133-.39-.054-1.056-.234-1.84-.496a91.728 91.728 0 0 0-1.008-.325c-.41-.13-.864-.288-1.008-.35a3.447 3.447 0 0 0-.726-.175c-.254-.034-.517-.117-.585-.184a.499.499 0 0 0-.307-.123c-.102 0-.37-.094-.598-.208a3.227 3.227 0 0 0-.808-.265 3.788 3.788 0 0 1-1.222-.397c-.167-.092-.488-.106-1.446-.063-.678.03-1.35.08-1.495.108-.299.06-1.247.165-2.278.253-.386.033-.78.093-.877.133-.39.164-.786.263-1.045.263a.97.97 0 0 0-.474.14c-.113.08-.283.12-.39.092a.395.395 0 0 0-.343.09c-.085.078-.303.156-.485.174-.182.018-.527.07-.768.116-.882.169-1.735.262-1.935.212-.202-.051-.699.217-.847.456-.078.126-1.034.092-1.668-.059-.23-.055-.513-.075-.629-.046a.886.886 0 0 1-.459-.047c-.138-.056-.822-.106-1.561-.115-1.328-.016-2.861-.155-3.506-.317-.193-.05-.922-.106-1.621-.127-.7-.02-1.461-.072-1.694-.115-.536-.098-1.24.038-1.86.36-.258.133-.74.616-.74.742-.001.078-.537.721-.943 1.131-.156.158-.284.345-.284.415s-.027.196-.059.28c-.054.14.01.146.942.072.806-.064 2.914-.083 4.594-.043.145.003.55-.016.902-.044.454-.036.679-.018.774.06.091.076.38.105.895.09.52-.014.858.02 1.073.11.172.073.468.152.657.176.19.024.57.122.848.22.277.096.809.218 1.18.27.373.05.716.132.763.18.047.046.208.085.357.085.15 0 .316.044.37.098.054.054.407.171.784.261.377.09.699.203.715.25.015.048.173.114.35.147.178.033.461.13.63.218.168.087.642.224 1.051.303.41.08.878.221 1.04.313.164.094.368.145.46.116.092-.03.165-.011.165.04 0 .052.09.095.198.095.108 0 .441.075.74.166.298.09.56.146.584.123.022-.022.126.004.23.06.103.056.393.14.643.186.848.16 1.748.376 2.207.532.347.118.854.234 1.446.33.265.044.718.144 1.008.223.289.079.666.159.838.178.172.019.487.107.7.197.215.09.606.17.872.179.265.009.58.055.7.102.648.256 2.43.353 4.383.24 1.803-.103 2.053-.131 2.087-.232.017-.052.234-.095.483-.097.25-.002.611-.061.804-.13.193-.07.486-.127.651-.128.166-.001.472-.084.68-.185l.378-.183v-.5c0-.275-.038-.538-.084-.584-.105-.105-.146-.668-.06-.81.092-.147.29-.132.35.026.029.072.102.131.164.132.061 0 .203.134.315.298.111.164.309.352.438.417.509.256 1.068.62 1.068.695 0 .043.054.079.12.079s.547.414 1.069.92c.52.505 1.013.94 1.093.965.156.05.698.682.698.814 0 .045.09.215.2.378.344.511.5 1.051.5 1.724 0 .52-.024.633-.138.633-.077 0-.34.175-.584.389-.295.258-.56.408-.788.447-.188.032-.363.113-.389.18-.026.068-.097.123-.158.123-.062 0-.161.06-.222.132-.06.073-.282.21-.492.302-.211.093-.383.207-.383.253 0 .046-.264.13-.586.186-.721.125-.817.176-1.273.67-.2.218-.505.455-.676.526a2.07 2.07 0 0 0-.488.293c-.097.09-.413.278-.702.418-.29.14-.615.301-.723.359-.446.235-.551.279-.666.279-.067 0-.215.072-.33.161-.27.21-.522.277-1.21.327-.31.022-.616.085-.682.14-.082.068-.356.079-.883.034-.42-.036-.824-.063-.896-.06-.326.01-1.428.08-2.147.139-.434.035-1.321.078-1.972.096-1.259.034-1.662.063-3.462.247-.626.064-1.178.116-1.227.116-.503-.002-.57.036-.87.507-.337.526-.412.56-1.288.599a2.484 2.484 0 0 1-1.14-.186zM98.74 158.04c-.297-.14-.564-.327-.593-.416-.03-.088-.19-.318-.359-.51-.168-.193-.31-.38-.316-.417a6.652 6.652 0 0 0-.024-.132 4.84 4.84 0 0 0-.212-.474c-.194-.397-.213-.41-.656-.45-.53-.047-1.078-.183-1.383-.344-.657-.345-1.55-1.336-1.732-1.923l-.276-.88c-.366-1.17-.431-2.845-.14-3.62.072-.192.133-.454.136-.58.005-.342.348-1.056.53-1.103.096-.025.18-.156.212-.331.1-.529.48-.645 1.232-.378.29.103.586.234.659.292.072.058.23.127.35.154.716.157 1.715.438 1.753.492.024.035.123.069.22.076.095.006.296.038.445.068.24.05.283.026.378-.203.122-.295.537-.634.776-.634a.41.41 0 0 0 .245-.08c.046-.043.389-.184.763-.312a9.25 9.25 0 0 0 .92-.359c.219-.115.253-.111.38.043.225.27.453 1.339.346 1.62-.05.13-.1.737-.11 1.35-.023 1.134.001 1.266.393 2.25.223.559.175 1.565-.104 2.177a30.3 30.3 0 0 0-.271.607c-.047.109-.253.442-.458.74-.66.96-.835 1.29-.898 1.692a2.83 2.83 0 0 1-.185.65c-.068.14-.123.303-.123.362 0 .184-.466.617-.78.726-.422.146-.513.134-1.118-.152zm-31.054 64.515c.09-.097.143-.196.118-.221-.025-.025.02-.146.1-.269.081-.122.122-.263.09-.313-.032-.053-.001-.07.072-.042.213.082.235-.087.093-.718-.074-.332-.192-.9-.262-1.26-.19-.98-.395-1.845-.527-2.209-.065-.178-.126-.665-.136-1.083-.014-.635.007-.774.131-.843.082-.046.125-.121.097-.167-.029-.046.075-.138.23-.203.252-.106.328-.1.686.058.221.097.567.29.769.427.201.138.393.25.426.25.077 0 1.529 1.514 1.53 1.595 0 .1.886 1.081.95 1.051.088-.042.02-.278-.213-.746-.116-.233-.211-.497-.211-.587 0-.09-.04-.187-.088-.217-.048-.03-.087-.127-.087-.217s-.084-.353-.186-.586a8.45 8.45 0 0 1-.302-.818c-.192-.651-.572-1.701-.65-1.796-.04-.048-.118-.258-.173-.465-.056-.208-.186-.476-.29-.596-.105-.12-.316-.561-.47-.98a16.69 16.69 0 0 0-.561-1.334 7.16 7.16 0 0 1-.392-.964c-.202-.715-.305-.98-.847-2.169a23.527 23.527 0 0 0-.306-.649 1.092 1.092 0 0 1-.118-.375c0-.079-.098-.338-.219-.575-.12-.238-.219-.493-.219-.567 0-.074-.035-.134-.077-.134-.098 0-.188-.237-.582-1.534a51.397 51.397 0 0 0-.45-1.422c-.072-.204-.108-.408-.08-.454.029-.046-.003-.254-.07-.462-.125-.392-.25-1.23-.408-2.745-.095-.9-.006-3.503.182-5.346.05-.482.089-1.41.088-2.06-.003-3.869.075-8.175.157-8.617.051-.28.072-.622.045-.757-.028-.136.017-.478.1-.76.082-.283.16-.85.172-1.259.022-.724.076-1.027.542-3.003l.222-.944-.281-.54c-.275-.529-.346-.98-.216-1.388.059-.186-.102-.786-.211-.786-.073 0-.36-.858-.36-1.077a.27.27 0 0 0-.122-.211c-.128-.074-.461-1.605-.55-2.526-.042-.435-.018-.59.136-.875.102-.191.186-.407.187-.48.002-.172.183-.67.374-1.027.083-.154.15-.32.15-.37 0-.05.136-.303.303-.563.166-.26.328-.586.36-.725.103-.438.642-1.466.945-1.801.202-.223.439-.366.766-.464.261-.078.692-.255.957-.395.401-.21.477-.287.45-.456a14.368 14.368 0 0 1-.055-.992c-.021-.691.001-.838.185-1.183.115-.216.209-.437.209-.49 0-.34.988-1.702 1.235-1.702.085 0 .232-.098.326-.219.095-.12.207-.219.249-.219.041 0 .125-.079.185-.175a.416.416 0 0 1 .354-.175c.181 0 .391-.14.802-.536.306-.295.686-.59.845-.657.159-.066.458-.28.666-.474a7.92 7.92 0 0 1 .822-.653c.245-.165.58-.428.745-.586.165-.157.33-.288.367-.29.074-.003.247-.166 1.484-1.395.468-.465.918-.96 1-1.1.083-.14.233-.291.334-.337.106-.049.249-.267.34-.522.087-.241.23-.516.318-.61.132-.142.318-.543.286-.617-.023-.051.625-1.395.772-1.601.091-.129.184-.332.206-.451.076-.42.775-1.727 1.172-2.19.22-.259.455-.598.52-.755.066-.157.15-.285.186-.285.037 0 .145-.147.24-.326a4.82 4.82 0 0 1 .524-.726 7.65 7.65 0 0 0 .61-.813c.141-.227.294-.413.34-.413.093 0 .496-.447.496-.55 0-.038.138-.19.307-.339.169-.148.307-.314.307-.37 0-.117.345-.507.616-.697.102-.071.196-.203.208-.292.013-.09.158-.254.323-.365.164-.111.312-.24.328-.285.016-.045.082-.082.146-.082.064 0 .13-.034.146-.076.016-.042.252-.218.523-.391l.494-.315.043-1.866c.05-2.159.181-2.763.735-3.4.106-.12.288-.402.406-.626a4.4 4.4 0 0 1 .316-.526c.421-.494.914-1.438 1.062-2.032.05-.2.167-.621.26-.934.64-2.153.668-3.027.184-5.714a18.055 18.055 0 0 0-.359-1.577 30.312 30.312 0 0 1-.267-.947c-.199-.793-.981-3.162-1.136-3.44a.707.707 0 0 1-.085-.28c0-.072-.064-.32-.143-.55a10.43 10.43 0 0 1-.251-.901c-.06-.265-.171-.719-.249-1.008a16.21 16.21 0 0 1-.277-1.534c-.076-.554-.174-1.244-.218-1.533-.044-.29-.107-1.433-.14-2.542-.032-1.109-.098-2.065-.146-2.125-.107-.135-.696-.145-.827-.014-.052.052-.228.11-.39.127-.663.073-1.442.252-1.572.362-.083.07-.358.116-.685.116-.3 0-.623.041-.716.091-.117.063-.17.063-.17 0 0-.12-.24-.117-.28.002-.038.118-2.42.18-2.491.065-.028-.045-.17-.055-.315-.022-.39.085-.942.097-1.34.028-.192-.034-.39-.029-.438.01-.089.074-.505.06-.745-.024-.21-.073-3.021-.246-4.074-.25-.625-.001-1.068-.046-1.26-.127-.199-.083-.645-.124-1.359-.125-.896 0-1.491-.045-2.903-.216a3.759 3.759 0 0 1-.395-.078c-.181-.046-1.69-.243-2.76-.359a7.88 7.88 0 0 1-.824-.175c-.308-.08-.683-.135-.833-.122-.15.013-.313 0-.36-.03-.048-.029-.323-.08-.613-.112a5.758 5.758 0 0 1-.798-.143c-.15-.046-.584-.104-.964-.128l-.867-.057c-.096-.007-.786.016-1.533.052l-1.359.066-.505-.408c-.367-.296-.567-.542-.73-.901-.39-.852-.501-2.163-.263-3.088.068-.263.148-.634.178-.825.03-.19.087-.368.127-.394.04-.026.123-.206.184-.398.061-.193.14-.39.177-.439.035-.048.115-.244.177-.436a3.44 3.44 0 0 1 .39-.745c.151-.218.302-.464.333-.547.092-.245.747-.15 1.002.146.11.128.203.28.206.338.007.134.772.72 1.053.807.117.036.386.166.598.289.267.155.54.23.888.247.564.026 1.364.253 1.597.454.084.072.153.101.153.064 0-.038.054-.024.12.03.065.055.235.076.38.047.145-.03.514.011.82.09.307.078.665.119.796.09a.828.828 0 0 1 .485.073c.136.068.44.15.677.18.236.031.483.101.548.155.065.055.582.138 1.148.186l1.424.123 1.358.12c.53.046 1.34.124 1.797.173.458.049 1.128.083 1.49.076a60.65 60.65 0 0 1 1.796.01c2.172.044 2.37.039 3.03-.076.526-.092.766-.094 1.165-.012.368.077.534.079.62.008.064-.053.23-.091.368-.085.783.037 3.501-.549 4.283-.923.24-.116.556-.236.7-.268.145-.032.559-.197.92-.367.362-.17.836-.39 1.053-.49.217-.1.414-.21.438-.244.024-.034.212-.15.417-.257.605-.314 2.252-2.277 2.427-2.892.034-.12.12-.348.19-.505.072-.157.106-.325.076-.372-.03-.048-.026-.13.007-.184.042-.068.08-.064.13.015.037.062.048-.483.023-1.211-.062-1.808.077-2.216.727-2.14.269.03.437.142.842.553.28.283.507.572.507.642a.26.26 0 0 0 .113.196c.13.08.549.996.633 1.385.031.144.094.362.14.483.208.555.233 1.16.076 1.803-.085.35-.183 1.103-.216 1.673-.058.984-.463 2.896-.667 3.147-.042.052-.137.27-.21.482-.144.417-.406.973-.491 1.044a1.337 1.337 0 0 0-.168.263c-.201.385-1.329 1.66-1.475 1.669-.032.002-.191.118-.355.258-.297.254-.298.258-.244.833.03.318.084.625.122.684.103.161.294.683.374 1.026.231.991.562 2.187.675 2.439.072.16.167.682.212 1.159.045.477.12.97.168 1.094.047.125.086.392.085.594 0 .37.332 2.275.572 3.273.072.297.13.607.13.688 0 .081.054.272.12.424.127.294.462 1.338.707 2.204.081.29.188.644.236.789.048.144.1.322.117.394.017.073.155.506.306.964.247.749.883 3.07 1.055 3.856.038.17.128.528.202.798.2.74.356 3.025.3 4.421-.062 1.533-.345 3.434-.687 4.616-.41 1.411-.436 1.547-.358 1.846.056.217.14.3.374.369.166.049.35.12.41.16.06.038.317.063.57.054.612-.022 2.015.1 2.126.185.048.036.316.07.594.072.28.003.545.029.592.057.085.053.554.088 2.582.191 1.957.1 5.514.035 5.738-.103.051-.032.547-.074 1.101-.094.667-.024 1.095-.081 1.265-.169.141-.073.416-.133.61-.133.443 0 1.542-.16 1.89-.274.145-.048.673-.142 1.174-.21.5-.068.929-.143.952-.166.102-.102-.092-.673-.33-.974-.144-.18-.262-.373-.262-.427 0-.135-.557-.952-.853-1.25a14.379 14.379 0 0 0-.757-.675 12.05 12.05 0 0 1-.755-.681c-.131-.138-.28-.25-.332-.25-.115 0-1.422-1.287-1.422-1.401 0-.046-.118-.218-.262-.382-.286-.326-.72-1.288-.957-2.123-.084-.291-.186-.586-.227-.653-.162-.261-.43-.525-.535-.525-.118 0-.136.047-.303.789-.145.649-.352 1.013-.713 1.258-.429.291-.727.347-1.026.192-.283-.146-1.06-1.014-1.06-1.183 0-.06-.07-.213-.156-.341-.161-.24-.36-.76-.42-1.096-.03-.168-.174-1.038-.482-2.905a9.879 9.879 0 0 0-.312-1.247 15.64 15.64 0 0 1-.387-1.513c-.096-.483-.217-.987-.268-1.12-.123-.323-.024-1.947.158-2.562.182-.619.444-1.216.643-1.47l.158-.2.058.265c.032.146.087.266.123.266.035 0 .131.212.213.472.16.509.375.78.449.567.242-.693.309-.953.31-1.215.001-.168.083-.622.181-1.007.098-.386.219-.879.267-1.096.05-.217.124-.473.166-.57.072-.164.149-.489.48-2.028.073-.344.134-.778.135-.964a4.57 4.57 0 0 1 .134-.864c.072-.289.193-1.019.267-1.621.21-1.7.355-2.58.595-3.637a6.18 6.18 0 0 0 .14-1.1c.002-.268.05-.535.11-.594.06-.06.134-.483.168-.96.157-2.209.627-6.031.822-6.68.065-.217.16-.73.21-1.14.051-.409.172-.98.268-1.27.343-1.03.643-2.377.68-3.044.03-.553-.005-.808-.19-1.394-.201-.64-.225-.861-.225-2.06 0-1.052.031-1.423.147-1.716.165-.419.568-1.033.929-1.417.13-.14.238-.305.238-.367s.07-.135.153-.163c.085-.027.243-.188.352-.356.109-.169.252-.306.319-.306.113 0 .403-.58.403-.806 0-.265.277-.411.688-.363.381.045.442.022.933-.354.29-.221.702-.56.917-.754.215-.194.442-.353.504-.353s.113-.03.113-.067c0-.038.236-.245.524-.46.288-.216.525-.422.526-.459 0-.036.039-.065.084-.065.045 0 .212-.119.37-.263.158-.145.327-.263.375-.263.048 0 .276-.186.506-.413.35-.344.42-.467.42-.733 0-.324-.317-1.216-.47-1.321-.049-.034-.057-.369-.019-.832.067-.82.126-.934.598-1.149l.453-.208c.242-.112 1.182-.15 1.606-.063.314.065.858.368 1.1.615.269.275.46.22 1.863-.52.094-.05.338-.16.543-.244.205-.085.373-.18.373-.213 0-.056.787-.329 1.157-.4a.916.916 0 0 0 .368-.207c.277-.259 1.25-.692 1.8-.802.268-.053.645-.168.838-.255.546-.247.923-.342 1.446-.363.265-.011.578-.055.695-.097a2.77 2.77 0 0 1 .57-.108 2.91 2.91 0 0 0 .488-.077c.122-.043.45-.076 1.928-.197 1.064-.087 1.706-.12 3.286-.166 1.133-.034 1.674-.085 1.921-.184.25-.099.768-.147 1.884-.175.848-.021 2.034-.1 2.637-.175a32.527 32.527 0 0 1 2.629-.172c.843-.02 1.83-.082 2.19-.138.362-.056 1.486-.115 2.499-.132 1.012-.017 2.096-.072 2.41-.124.83-.136 2.372-.251 2.65-.198.133.025.29.006.351-.045.156-.128 1.605-.281 2.74-.289 1.009-.007 1.518.036 2.102.176.193.047.627.11.964.142.338.032.655.09.704.131.05.04.208.071.35.069.144-.003.577.022.962.055.386.033 1.411.069 2.279.08 1.295.015 1.624.045 1.84.167.437.246.628.45.87.928.137.27.572.799 1.064 1.296.458.462.938.983 1.066 1.158.128.175.276.358.33.406.267.245 1.008 1.208 1.008 1.312 0 .066.048.136.106.155.118.04.21 1.158.124 1.501-.029.116-.122.235-.207.265-.6.215-.651.215-1.325.014a8.156 8.156 0 0 1-1.113-.425 3.103 3.103 0 0 0-1.002-.278c-.314-.031-.688-.11-.833-.175-.36-.161-2.115-.47-3.024-.53-.713-.048-3.392-.122-5.683-.157-.595-.009-1.1.013-1.122.05-.023.035-.147.065-.277.065-.13 0-.512.062-.85.137a18.15 18.15 0 0 1-.866.175c-.14.021-.297.072-.35.115-.21.164-1.577.476-2.569.585a2.974 2.974 0 0 0-.583.123c-.119.045-.466.109-.772.142-.305.034-.663.115-.794.182-.131.066-.466.157-.745.202a17.16 17.16 0 0 0-2.203.494c-.403.116-.859.211-1.013.211-.153 0-.317.038-.363.085-.047.046-.38.13-.74.184-.362.055-.724.135-.807.177-.082.042-.319.1-.526.13-.206.03-.553.106-.77.171a6.25 6.25 0 0 1-.789.17c-.89.12-1.544.262-1.707.37-.095.064-.312.116-.482.116-.17 0-.585.078-.922.175-.337.096-.751.176-.92.176a2.417 2.417 0 0 0-.658.128c-.192.07-.516.128-.718.13-.202.003-.391.044-.421.092-.03.048-.27.087-.534.087s-.621.06-.794.132a1.791 1.791 0 0 1-.56.131c-.136 0-.304.057-.373.127a.463.463 0 0 1-.292.123c-.394-.009-1.698.22-1.698.298 0 .047-.077.066-.171.041-.095-.025-.34.013-.545.084-.216.074-.494.106-.66.075a.814.814 0 0 0-.485.055c-.278.153-.376.172-1.118.212-.362.02-.894.057-1.183.082-.29.024-.615.048-.723.053-.108.004-.175.043-.148.086.063.102-.231.1-.392-.002a.255.255 0 0 0-.267.011c-.263.164-3.546-.21-3.793-.432-.138-.123-.19-.122-.553.017-.22.084-.447.228-.504.319-.057.091-.142.166-.188.166-.196 0-.857.54-1.731 1.417-.516.517-1.054 1-1.198 1.074a1.532 1.532 0 0 0-.42.34 1.377 1.377 0 0 1-.305.286c-.079.045-.375.289-.657.542-.55.493-1.429 1.161-1.525 1.161-.032 0-.252.177-.488.393-.236.216-.47.395-.517.398-.049.003-.246.145-.439.315l-.35.309-.02 2.157c-.013 1.313-.056 2.192-.11 2.246-.05.05-.09.269-.092.488-.004.522-.178 1.553-.56 3.335-.492 2.287-.576 2.64-.673 2.82-.05.094-.125.434-.168.756-.042.323-.117.823-.165 1.112a53.69 53.69 0 0 0-.231 1.707c-.118.969-.124 1.24-.034 1.511.106.321.119.33.459.286a.92.92 0 0 1 .647.132c.188.11.447.173.71.17.227-.002.619.015.87.039.253.023.982.093 1.622.155.64.062 1.42.121 1.733.132.313.011.983.067 1.49.125.506.057 1.018.097 1.139.088.573-.044 1.292-.037 2.498.026.723.037 1.373.07 1.446.072.072.002.836-.02 1.698-.048 1.588-.054 1.978-.1 3.472-.406.458-.094.98-.194 1.16-.221.2-.03.364-.118.42-.222.072-.134.064-.172-.036-.172-.07 0-.147.05-.171.11-.032.078-.066.082-.117.013a.34.34 0 0 0-.204-.111c-1.186-.14-1.753-.228-1.753-.272 0-.03-.258-.038-.573-.018-.43.027-.61.003-.723-.097-.082-.074-.347-.164-.588-.199a2.134 2.134 0 0 1-.743-.27c-.168-.114-.385-.208-.482-.209-.098-.001-.276-.079-.396-.173-.12-.095-.274-.173-.34-.174-.068 0-.21-.09-.32-.199a6.561 6.561 0 0 0-.62-.504c-1.207-.873-2.1-2.522-2.316-4.278-.052-.418-.146-.813-.208-.877-.075-.075-.42-.126-1.001-.146-.488-.017-.935-.061-.995-.098a.875.875 0 0 0-.3-.088c-.106-.01-.355-.123-.556-.25a3.834 3.834 0 0 0-.683-.335c-.217-.072-.442-.262-.698-.588a14.325 14.325 0 0 0-.662-.786c-.485-.517-.757-1.029-1.017-1.913-.301-1.021-.5-2.81-.419-3.768.05-.579.091-.707.298-.91.132-.129.319-.245.415-.258.206-.026.77.094.833.178.104.138.726.256.935.177.118-.045.425-.082.68-.082.333 0 .528-.05.688-.176.123-.097.415-.201.648-.232.233-.031.5-.11.596-.175a.745.745 0 0 1 .35-.119c.098 0 .281-.054.407-.12.327-.17 1.352-.493 1.569-.493.1 0 .29-.056.422-.124s.387-.151.566-.185c.179-.033.325-.096.325-.139 0-.043.129-.078.285-.078.157 0 .403-.062.547-.137.145-.076.559-.21.92-.3.362-.089.875-.224 1.14-.3.266-.075.603-.137.75-.138.147 0 .306-.04.354-.088.048-.048.208-.102.355-.119s.398-.096.557-.175c.16-.08.417-.145.573-.145.155 0 .331-.059.391-.131.067-.08.26-.132.497-.132.214 0 .495-.054.625-.12.13-.067.513-.15.85-.184a8.13 8.13 0 0 0 1.271-.265c.69-.212 1.095-.31 1.315-.32a3.11 3.11 0 0 0 .51-.13c.208-.067.41-.103.448-.08.037.023.202.002.366-.048.38-.116.873-.207 2.425-.445.351-.054.659-.132.684-.173.026-.041.18-.075.344-.075.163 0 .526-.062.805-.137.782-.211 3.73-.632 4.885-.698 1.026-.058 1.658-.137 1.76-.22.094-.076 1.236-.108 4.249-.115 2.439-.006 2.522.019 3.474 1.04.379.408.72.741.757.742.089.002 1.115 1.01 1.115 1.096 0 .036.153.296.34.576.237.354.37.675.436 1.055.111.63.02.927-.338 1.097-.705.336-.657.33-1.906.216-2.154-.197-2.84-.221-3.966-.137-.313.024-.944.06-1.402.08-.458.02-1.286.101-1.84.179-.555.078-1.205.162-1.446.188a5.553 5.553 0 0 0-.965.224 4.89 4.89 0 0 1-.815.205c-.159.016-.344.074-.411.13-.068.056-.351.16-.631.23l-.86.217a2.257 2.257 0 0 0-.554.222c-.113.073-.29.145-.395.159a1.622 1.622 0 0 0-.343.09.45.45 0 0 1-.29.013c-.074-.029-.363.062-.64.202-.278.14-.66.28-.85.311-.64.104-.747.138-.694.224.04.064-.233.117-.418.08-.06-.011-1.272.47-1.424.565-.097.06-.466.202-.821.315-1.182.375-1.442.832-.827 1.447.179.179.414.359.523.4.11.042.289.213.399.382.324.495.878.644 1.2.321.143-.142.156-.222.086-.531-.08-.354-.298-.776-.462-.891-.133-.095.015-.338.207-.338.098 0 .596.197 1.105.438.51.241.944.438.965.438.021 0 .205.107.409.237s.516.318.694.416c1.139.633 2.525 1.902 2.869 2.627.248.523.376 1.082.313 1.368-.06.27-.45.998-.794 1.478-.118.164-.214.373-.214.465 0 .204.24.684.342.684.04 0 .168.137.283.306.114.168.247.308.296.31.048.003.206.16.35.348.145.188.312.344.373.346.06.002.11.062.11.133 0 .07.078.17.174.222.097.051.176.136.176.188 0 .052.197.366.439.698a7.788 7.788 0 0 1 1.272 2.748c.15.644.118 1.158-.109 1.8-.152.43-1.196 1.752-1.383 1.752-.064 0-.208.109-.321.241-.113.133-.37.371-.573.53-.202.158-.39.355-.419.438-.05.142-.627.453-1.097.59a4.2 4.2 0 0 0-.558.235 3.518 3.518 0 0 1-.789.253c-.666.122-1.654.264-1.837.264-.089 0-.266.043-.395.095-.213.085-1.249.29-1.899.375-.144.02-.48.08-.745.134-.265.055-.718.136-1.008.18-1.101.165-1.23.194-1.358.298-.072.06-.506.15-.964.201-.458.052-1.01.156-1.227.232a2.67 2.67 0 0 1-.712.14c-.175 0-.489.061-.698.135-.22.078-.487.111-.634.079-.17-.038-.371.003-.616.124-.346.17-1.533.376-2.133.368-.154-.002-.306.038-.337.089-.038.061-.099.056-.187-.017-.104-.087-.168-.085-.316.006-.102.063-.459.129-.794.145-.334.017-.691.06-.793.094-.102.035-.387.053-.632.039-.326-.018-.486.015-.594.123-.101.1-.181.12-.255.06-.151-.121-1.202-.131-1.202-.01 0 .065-.319.09-.986.076-.542-.011-1.006-.011-1.03-.001-.024.01-.524.023-1.11.028-.765.006-1.107-.024-1.207-.106-.09-.076-.277-.1-.54-.07a3.029 3.029 0 0 1-.898-.081c-.272-.07-.842-.16-1.264-.2-.442-.043-.86-.135-.984-.215-.118-.078-.409-.183-.646-.234-.238-.05-.502-.169-.586-.262-.085-.094-.202-.17-.26-.17-.059 0-.36-.17-.671-.379-.72-.482-.83-.523-.91-.339-.036.082-.137.819-.226 1.638-.193 1.777-.286 2.391-.454 2.992-.07.247-.174.8-.232 1.227-.137 1.006-.438 2.419-.538 2.525-.043.046-.078.243-.078.438 0 .196-.102.75-.226 1.232-.124.482-.28 1.113-.345 1.403a7.67 7.67 0 0 1-.217.785c-.054.142-.122.644-.15 1.116l-.053.859h.498c.274 0 .625.054.78.12.352.151 1.52 1.377 1.715 1.8.08.173.171.334.203.359.088.067.862 1.21.862 1.274 0 .03.256.309.57.62.313.31.57.602.57.649 0 .047.055.085.123.085.171 0 3.3 3.116 3.588 3.574.13.203.274.37.322.37.048 0 .209.116.357.258.15.143.297.27.328.285.032.015.23.254.442.532.211.278.527.657.701.842.52.55.933 1.08 1.242 1.59.16.264.383.603.494.752.111.15.202.329.202.399s.039.166.086.213c.047.047.111.421.143.832.044.567.023.864-.086 1.238-.078.27-.142.545-.14.61.002.206 1.01 1.213 1.212 1.213.103 0 .188.044.188.099 0 .054.433.522.964 1.04.53.519.964.987.964 1.04 0 .054.158.197.351.32.465.293 2.228 2.057 2.412 2.413.167.323 1.306 1.666 1.513 1.784.076.044.49.428.918.855.428.426.814.775.856.775.043 0 .125.089.181.197.122.232 1.39 1.498 2.129 2.125 1.016.863 1.296 1.135 1.73 1.681.243.305.492.554.553.554.148 0 .502.34.65.625.064.126.266.313.448.415.313.176 1.016.914 1.168 1.226.04.08.22.25.403.381.182.13.466.432.63.67.165.24.42.5.566.579.146.079.361.297.477.484.115.187.3.38.409.43.109.05.28.252.38.448.101.197.342.502.537.677.194.176.427.465.519.644.09.178.277.437.413.576.136.138.38.468.54.733.26.428.522.773 1.035 1.362.085.1.252.386.37.639.117.252.262.5.322.549.06.05.195.256.299.457.104.202.286.494.403.65.27.358 1.663 3.136 1.747 3.486.09.375.958 2.006 1.348 2.533.18.245.39.604.465.797.126.327 1.474 2.45 1.763 2.776.071.08.177.238.235.35.058.112.194.303.303.423.11.12.348.515.531.876.183.362.592 1.052.91 1.534.316.482.669 1.074.783 1.315.586 1.241.833 1.695 1.068 1.964.141.162.257.34.257.398 0 .056.098.307.22.557.12.25.218.511.218.58 0 .07.04.152.088.182.048.03.087.182.087.338 0 .156.035.321.077.367.042.046.145.32.23.61.083.288.204.683.267.876.185.561.327 2.724.26 3.964-.075 1.381-.421 3.336-.688 3.88-.06.12-.222.573-.362 1.007-.14.434-.302.848-.359.92-.057.073-.153.29-.213.483a5.18 5.18 0 0 1-.264.657c-.242.478-.613 1.37-.613 1.474 0 .114-.301.64-.632 1.102-.134.188-.244.386-.244.44 0 .053-.09.195-.2.315a3.35 3.35 0 0 0-.396.596 3.952 3.952 0 0 1-.283.482c-.208.246-.534.74-.676 1.025-.184.366-.394.668-.827 1.186-.177.213-.347.466-.378.564-.031.098-.09.178-.132.178-.042 0-.103.084-.136.187-.073.232-.542.863-1.044 1.406-.208.226-.438.522-.51.657l-.306.574c-.165.309-.462.71-.853 1.15a3.72 3.72 0 0 0-.386.61c-.117.228-.265.457-.33.51a.335.335 0 0 0-.116.218c0 .067-.04.121-.088.121a.087.087 0 0 0-.087.087c0 .15-.768 1.103-1.08 1.341-.221.17-.313.32-.355.58-.03.192-.11.382-.174.42-.16.094-.32.412-.32.632 0 .21.337.328.584.205.089-.044.398-.134.687-.2.29-.064.605-.167.701-.226.097-.06.334-.137.526-.172.193-.034.429-.116.524-.181a.69.69 0 0 1 .315-.12c.078 0 .213-.078.3-.175a.553.553 0 0 1 .346-.175c.103 0 .41-.079.685-.175.275-.097.573-.176.663-.176.09 0 .325-.116.52-.257.36-.26 1.568-.879 1.73-.886.048-.002.185-.12.303-.263.155-.187.292-.259.492-.259.176 0 .398-.096.608-.263.182-.144.38-.263.44-.263.059 0 .158-.06.219-.133.06-.074.13-.114.154-.09.024.023.152-.035.286-.13.133-.095.286-.172.338-.172.053 0 .096-.04.096-.088 0-.048.044-.088.097-.088.053 0 .22-.054.372-.122l.408-.179c.072-.031.388-.211.7-.4.314-.189.906-.512 1.315-.718.41-.206.795-.421.855-.48a.87.87 0 0 1 .286-.16c.097-.031.24-.182.32-.335.079-.153.202-.321.273-.373.073-.054.149-.295.173-.55.032-.327.108-.523.274-.704.196-.213.251-.403.376-1.291.08-.573.209-1.318.286-1.655.077-.337.182-.81.233-1.052.05-.24.124-.517.164-.613.295-.715.519-1.613.623-2.498.037-.313.154-1.003.26-1.534.23-1.141.316-3.319.184-4.65-.13-1.314-.363-2.867-.456-3.039a.94.94 0 0 1-.082-.373c0-.279-.316-1.43-.43-1.568-.047-.056-.125-.417-.174-.801-.117-.91-.334-2.02-.434-2.212-.043-.083-.106-.448-.139-.81a15.885 15.885 0 0 0-.236-1.49 18.67 18.67 0 0 1-.257-1.62 74.868 74.868 0 0 0-.214-1.797c-.225-1.701-.301-3.177-.304-5.872a104.323 104.323 0 0 0-.097-4.379c-.052-.987-.07-1.965-.038-2.175.031-.21.02-.427-.025-.485-.08-.101-.155-.893-.25-2.645a14.344 14.344 0 0 0-.17-1.534 8.024 8.024 0 0 1-.124-1.22c0-.31-.057-.881-.126-1.27a15.574 15.574 0 0 1-.171-1.41c-.025-.385-.067-.82-.094-.964-.044-.239-.188-1.898-.27-3.111-.227-3.372-.368-13.758-.21-15.512.14-1.562.26-2.565.367-3.062.098-.462.104-.47.198-.24.095.232.1.228.213-.224.14-.552.432-1.207.54-1.207.093 0 .342-.574.342-.79 0-.085.059-.178.131-.206.072-.027.132-.129.132-.225 0-.097.193-.553.429-1.014.236-.46.453-.932.482-1.047.029-.114.168-.318.31-.452.16-.15.28-.373.316-.58.031-.185.151-.45.267-.588.116-.137.211-.29.211-.34 0-.05.093-.202.207-.338.114-.136.281-.381.373-.544.306-.549.361-.634.544-.844a2.9 2.9 0 0 0 .322-.481c.078-.15.356-.49.619-.754.262-.264.477-.505.477-.534 0-.029.14-.224.312-.434s.292-.382.267-.382c-.025 0 .042-.092.148-.205.353-.376.631-.709 1.111-1.328.261-.338.547-.685.636-.773.088-.088.252-.305.365-.483.112-.179.269-.378.348-.443.079-.066.143-.174.143-.24 0-.067.04-.12.088-.12a.086.086 0 0 0 .087-.084c0-.109.392-.53.493-.53.043 0 .126-.109.185-.241.121-.273.744-1.125.996-1.362.092-.086.167-.217.167-.291 0-.074.118-.306.263-.516.144-.21.263-.422.263-.47 0-.048.053-.141.119-.207.065-.065.218-.315.34-.554.12-.239.46-.908.756-1.486.295-.579.537-1.088.537-1.133 0-.22.887-2.139 1.136-2.46.037-.049.093-.195.124-.325a3.89 3.89 0 0 1 .158-.482 5.03 5.03 0 0 0 .113-.289c.006-.024.117-.247.245-.496a8.4 8.4 0 0 0 .422-1.007c.228-.679.859-2.003.954-2.003.038 0 .095-.166.128-.37.033-.203.112-.43.176-.504.065-.073.206-.38.314-.681.109-.302.23-.548.27-.548.04 0 .116-.168.17-.372.104-.401.85-2.713.97-3.002.135-.328.43-1.3.43-1.416 0-.063.114-.46.254-.883s.281-.926.313-1.12c.032-.192.152-.783.266-1.314l.359-1.665c.083-.385.158-.76.166-.832a5.59 5.59 0 0 1 .074-.395c.032-.144.077-.48.1-.745.023-.265.08-.817.127-1.227.253-2.203.377-7.156.188-7.518-.044-.083-.146-.742-.227-1.464-.081-.723-.181-1.377-.222-1.454a.752.752 0 0 1-.073-.308c.002-.226-.249-1.461-.412-2.028a8.408 8.408 0 0 1-.208-1.096c-.074-.623-.358-1.464-.59-1.738a.652.652 0 0 1-.115-.362c0-.232-.122-.563-.508-1.384-.125-.266-.222-.502-.217-.526.005-.024-.04-.103-.103-.176-.063-.072-.163-.338-.222-.591-.059-.254-.143-.483-.186-.51-.044-.026-.19-.273-.327-.547s-.29-.578-.341-.674a7.19 7.19 0 0 1-.19-.394 3.596 3.596 0 0 0-.177-.35 5.354 5.354 0 0 1-.22-.44c-.184-.402-.614-1.19-.729-1.333a5.755 5.755 0 0 1-.326-.55c-.13-.241-.351-.616-.491-.833a6.535 6.535 0 0 1-.314-.526 11.206 11.206 0 0 0-.42-.7 176.6 176.6 0 0 1-.47-.746c-.361-.58-.48-.745-.536-.745-.035 0-.148-.148-.253-.328a5.031 5.031 0 0 0-.489-.668 4.917 4.917 0 0 1-.55-.821 4.217 4.217 0 0 0-.578-.822c-.18-.188-.329-.383-.329-.435 0-.104-.596-.874-.758-.978-.055-.036-.248-.293-.428-.57a5.9 5.9 0 0 0-.513-.691c-.292-.295-.433-.485-.7-.942-.276-.471-.391-.623-.843-1.108-.17-.18-.524-.61-.79-.954-1.44-1.87-1.689-2.154-2.76-3.161-.908-.854-1.344-1.29-1.67-1.668a8.263 8.263 0 0 0-.787-.74 13.686 13.686 0 0 1-.788-.7 3.696 3.696 0 0 0-.491-.416 8.712 8.712 0 0 1-.627-.482 12.94 12.94 0 0 0-.714-.554 9.368 9.368 0 0 1-.642-.504c-.18-.156-.377-.285-.437-.285s-.11-.03-.11-.07c0-.066-.846-.693-1.767-1.31-.233-.155-.424-.314-.424-.352 0-.038-.109-.118-.241-.177a4.612 4.612 0 0 1-.42-.217c-.485-.295-1.152-.736-1.291-.853-.163-.137-.425-.299-1.378-.849-.314-.18-.61-.36-.658-.398a6.241 6.241 0 0 0-1.023-.673 52.707 52.707 0 0 1-2.362-1.354 9.1 9.1 0 0 0-.788-.444c-.291-.133-.604-.315-.69-.401-.025-.025-.616-.332-1.315-.684a79.674 79.674 0 0 1-1.403-.716 9.947 9.947 0 0 0-.744-.319c-.338-.133-.673-.288-.745-.345a1.249 1.249 0 0 0-.395-.167c-.144-.034-.536-.197-.87-.362-.335-.165-.643-.3-.685-.3-.042 0-.241-.074-.443-.164-.771-.346-1.97-.782-2.56-.932-.336-.085-.652-.186-.7-.223-.048-.037-.462-.153-.92-.257-.458-.104-.99-.264-1.184-.355-.503-.237-1.997-.698-2.262-.698-.124 0-.246-.034-.272-.075-.025-.042-.226-.1-.446-.13s-.488-.103-.594-.162a1.015 1.015 0 0 0-.282-.113c-.193-.015-.706-.158-.788-.22-.049-.037-.206-.087-.351-.113-.145-.025-.598-.168-1.008-.316-.41-.149-.84-.271-.958-.272-.242 0-1.5-.433-2.153-.74a43.383 43.383 0 0 0-1.227-.538 15.937 15.937 0 0 1-1.076-.491c-.158-.088-.343-.16-.41-.16-.068 0-.183-.06-.257-.135a.58.58 0 0 0-.204-.144c-.038-.005-.216-.102-.396-.216-.18-.113-.352-.206-.382-.206-.03 0-.239-.131-.462-.292a4.102 4.102 0 0 0-.713-.411c-.169-.066-.326-.145-.35-.177-.054-.07-.457-.286-.898-.483-.18-.08-.307-.18-.28-.224.027-.043-.036-.078-.14-.078-.104 0-.289-.08-.411-.176-.123-.096-.271-.175-.33-.175-.058 0-.177-.079-.264-.175-.087-.097-.19-.175-.23-.175-.04 0-.284-.098-.543-.216a11.06 11.06 0 0 0-.901-.36 16.448 16.448 0 0 1-1.713-.739c-.08-.043-.393-.143-.696-.221-.304-.079-.632-.2-.73-.268a.957.957 0 0 0-.465-.124c-.158 0-.287-.035-.287-.078s-.182-.105-.405-.139a7.357 7.357 0 0 1-.942-.234 11.898 11.898 0 0 0-.888-.25c-.193-.041-.646-.16-1.008-.263a43.262 43.262 0 0 0-.989-.27 2.996 2.996 0 0 1-.482-.16c-.136-.07-1.856-.366-2.385-.41-.12-.01-.673-.08-1.227-.154a54.198 54.198 0 0 0-3.462-.367 34.791 34.791 0 0 1-.964-.085l-.832-.087a12.343 12.343 0 0 1-.959-.145c-.512-.102-3.296-.045-5.264.108a92.82 92.82 0 0 1-1.972.131c-.482.026-.935.067-1.008.093-.072.025-.447.082-.832.126-.856.097-1.756.276-2.087.415a1.357 1.357 0 0 1-.414.103c-.092 0-.316.077-.498.17-.182.093-.48.196-.66.229-.18.033-.33.104-.33.159 0 .055-.208.197-.46.316a4.365 4.365 0 0 0-.592.324c-.214.172-1.202.307-2.16.294-.81-.012-1.134.051-1.344.261a3.14 3.14 0 0 1-.35.212c-.17.093-.408.25-.53.35-.123.101-.38.258-.57.35-.19.09-.415.2-.499.24a.788.788 0 0 1-.286.075.767.767 0 0 0-.286.078c-.214.109-1.107.448-1.18.448-.033 0-.158.099-.279.22-.12.12-.284.218-.363.218-.08 0-.223.099-.318.22-.099.126-.262.218-.385.218-.13 0-.212.051-.212.132 0 .072-.073.131-.162.131-.09 0-.232.078-.319.174-.086.095-.187.154-.225.13-.037-.023-.081-.01-.098.028-.016.039-.177.16-.358.27-.18.111-.328.238-.328.282 0 .044-.114.08-.254.08s-.275.057-.302.127c-.027.07-.211.175-.41.235-.198.06-.408.173-.464.253-.057.08-.212.173-.345.205-.133.033-.241.099-.241.146 0 .047-.096.086-.214.086s-.24.042-.271.093c-.073.117-2.247 1.173-2.357 1.144-.102-.026-.664.271-.664.352 0 .032-.118.1-.263.15-.144.051-.262.138-.262.194 0 .056-.058.08-.13.052-.07-.027-.149-.015-.174.026-.026.041-.32.158-.655.26-.335.102-.66.234-.723.294-.192.183-.597.423-.597.353 0-.035-.062.023-.137.13a.474.474 0 0 1-.35.195c-.118 0-.214.04-.214.087 0 .049-.074.088-.163.088-.09 0-.309.098-.486.219-.178.12-.374.22-.437.22s-.185.077-.27.172c-.087.095-.322.253-.523.35a2.924 2.924 0 0 0-.624.424 2.073 2.073 0 0 1-.542.361c-.156.063-.262.15-.235.192.026.043-.028.078-.12.078-.093 0-.342.137-.554.306-.211.168-.409.306-.44.306-.03 0-.205.14-.389.308-.184.169-.384.307-.445.307-.06 0-.292.128-.516.284-.224.157-.482.329-.575.382a4.5 4.5 0 0 0-.526.416c-.196.176-.392.32-.436.32-.045 0-.081.03-.081.068 0 .037-.146.145-.324.24-.178.096-.442.28-.585.41-.143.131-.293.217-.334.192-.04-.024-.096.017-.125.092-.03.076-.098.137-.154.137-.056 0-.15.08-.21.175a.389.389 0 0 1-.29.176c-.098 0-.155.04-.125.087.03.049-.022.088-.116.088a.422.422 0 0 0-.283.137c-.16.193-.563.389-.802.39-.126.001-.162.026-.096.068.068.044-.04.143-.307.283-.226.118-.464.265-.528.326-.063.06-.152.11-.197.11-.045 0-.081.05-.081.112s-.177.19-.394.285c-.216.095-.394.198-.394.227-.001.074-.676.516-.788.516-.05 0-.295.197-.545.438-.25.241-.507.438-.572.438-.064 0-.14.06-.169.135-.028.074-.155.189-.282.255a2.996 2.996 0 0 0-.493.355c-.145.13-.363.3-.484.38-.486.32-1.225.917-1.225.99 0 .042-.06.076-.132.076-.072 0-.131.04-.131.088 0 .048-.1.088-.221.088-.151 0-.246.064-.3.203-.042.112-.189.277-.326.366-.137.09-.292.22-.345.292-.053.071-.142.101-.197.067-.064-.04-.101.004-.101.12 0 .115-.089.22-.241.286-.258.11-.378.21-1.222 1.003-.62.585-1.278 1.164-1.621 1.429-.13.1-.26.26-.29.355-.031.095-.113.173-.182.173-.07 0-.21.098-.314.217a3.45 3.45 0 0 1-.548.46c-.197.133-.39.292-.428.353a.262.262 0 0 1-.198.11c-.07 0-.118.029-.108.065.022.08-.242.389-.945 1.103-.292.297-.568.604-.613.682-.045.078-.309.39-.586.693-.277.302-.504.594-.504.647 0 .054-.079.147-.175.207-.097.06-.175.167-.175.237 0 .07-.08.17-.176.222-.096.051-.175.131-.175.178 0 .085-.145.272-.504.644-.108.113-.197.236-.197.274 0 .038-.138.237-.307.443-.169.206-.307.4-.307.43 0 .032-.118.157-.263.279-.144.121-.262.27-.262.331 0 .06-.08.182-.176.269-.096.087-.175.206-.175.264 0 .059-.088.219-.196.356a6.574 6.574 0 0 0-.704 1.198c-.056.133-.133.241-.17.241-.039 0-.07.094-.07.208 0 .114-.083.314-.186.445-.196.249-.367.795-.798 2.546-.142.579-.315 1.269-.385 1.534-.07.265-.163.758-.208 1.095l-.171 1.271a39.28 39.28 0 0 0-.179 2.06c-.049.77-.15 2.23-.223 3.242-.183 2.522-.283 5.711-.208 6.654.034.43.068 1.63.075 2.666.007 1.036.04 1.927.073 1.979.055.087.122 1.733.115 2.833-.002.265.036.46.09.46.05 0 .08.129.066.285-.022.25.034.905.151 1.775.072.537.313 3.102.387 4.119.042.578.12 1.426.173 1.884.054.458.13 1.208.17 1.665.039.458.094.892.12.964.028.073.074.64.104 1.262.03.621.086 1.193.125 1.27.04.078.059.18.042.23-.017.047.047.797.141 1.664.095.868.195 1.834.223 2.147.028.314.108.82.177 1.123.07.305.127.681.127.838 0 .156.104.795.23 1.419.128.623.279 1.37.336 1.66.057.289.128.585.156.657.03.072.098.29.154.482.055.193.133.43.172.526.04.096.121.41.18.697.059.286.135.582.17.657.036.075.192.53.347 1.012.248.768.446 1.299.72 1.928.042.097.159.432.26.745.1.314.23.629.289.701.058.073.234.447.393.833.286.697.62 1.422 1.315 2.848.199.41.362.794.361.855 0 .06.032.11.072.11.04 0 .169.206.285.46.117.252.242.473.278.489.036.016.066.069.066.118 0 .125.257.665.514 1.08.12.192.334.567.477.832.143.265.35.604.46.752.193.26.37.557.782 1.307.105.193.275.49.377.658.102.168.388.672.635 1.118.247.447.54.92.651 1.052.112.133.302.418.423.635.121.216.383.65.58.963.199.314.408.669.466.79.058.12.295.527.526.904.23.378.419.707.419.733 0 .025.118.22.262.434.145.214.346.575.447.802.101.227.234.511.295.632l.509 1.008c.424.839.678 1.394.678 1.481 0 .091.616 1.662.745 1.898.067.123.204.533.306.911.1.378.223.76.27.849.155.29.421 1.246.52 1.865.052.333.11.63.128.659.018.029.118.624.224 1.322.169 1.121.184 1.476.133 3.065-.093 2.929-.202 3.673-.88 6.003a12.901 12.901 0 0 0-.364 1.556c-.03.18-.098.329-.153.329-.054 0-.187.364-.295.81-.342 1.41-.473 1.859-.584 1.994-.122.15-.751 1.667-.751 1.811 0 .053-.063.147-.139.21a.347.347 0 0 0-.099.32c.022.113.006.225-.035.25-.1.063-.604 1.102-.604 1.247 0 .064-.08.29-.177.505-.098.214-.2.518-.226.674-.056.33-.286.927-.43 1.118-.055.072-.172.388-.26.701-.088.313-.214.657-.278.764a.795.795 0 0 0-.118.3c0 .06-.077.268-.17.464a4.406 4.406 0 0 0-.268.838 75.368 75.368 0 0 1-.482 2.235c-.132.578-.26 1.249-.284 1.49-.125 1.225-.02 5.033.164 5.916.055.265.13.718.166 1.007.066.522.088.644.268 1.49.103.485.289 1.193.472 1.797.066.217.166.67.222 1.008.056.337.157.81.226 1.052.257.907.59 2.386.662 2.935.096.745.149 1.176.205 1.696.025.233.075.47.11.526.037.055.073.278.08.495.022.564.192 2.406.245 2.646.024.111.065.972.09 1.912.102 3.817.237 5.661.536 7.361.073.41.15.916.17 1.124.022.209.094.544.161.745.067.201.15.603.183.892.06.52.334 1.414.537 1.753.057.096.13.382.161.636.034.268.149.595.276.782.12.177.243.423.274.547.032.124.188.43.349.681.16.251.292.486.292.52 0 .111 1.053 1.344 1.511 1.77.085.078.154.192.154.254s.04.112.09.112c.05 0 .504.404 1.01.898a634.506 634.506 0 0 0 3.727 3.615c.253.241.655.685.892.986.237.302.457.549.49.55.031 0 .35.282.707.626.964.928 1.688 1.523 2.12 1.742.212.107.405.222.429.254.194.259 2.95 1.21 3.705 1.279.23.02.625.094.877.163.251.069.635.128.851.132.217.003.67.046 1.008.095 1.05.153 1.13.16 1.518.134.242-.016.438-.088.543-.2zM78.99 99.318c-.12-.037-.624-.046-1.118-.022-.697.035-.972.015-1.227-.092a5.637 5.637 0 0 0-.875-.244c-.3-.059-.592-.16-.646-.226-.055-.066-.148-.12-.207-.12s-.178-.079-.266-.175c-.087-.097-.208-.176-.268-.176-.16 0-.875-.824-1.143-1.316-.144-.263-.327-.464-.484-.529-.14-.057-.696-.118-1.238-.135-.542-.016-1.163-.074-1.38-.128a7.616 7.616 0 0 0-.763-.143c-.203-.024-.415-.1-.471-.167a.372.372 0 0 0-.245-.124c-.151-.001-.504-.25-.879-.618-.517-.509-.63-.74-.932-1.9-.263-1.015-.289-2.368-.073-3.937.132-.959.168-1.073.482-1.512.187-.26.34-.542.34-.624 0-.083.207-.33.46-.549.253-.218.69-.618.972-.887.281-.269.56-.489.621-.489.06 0 .354-.158.653-.35.298-.193.57-.353.605-.355.034-.002.28-.172.545-.378.386-.3.476-.418.451-.588-.038-.264.011-.228-.475-.358-.33-.088-.473-.088-.715 0-.252.09-.356.086-.63-.028-.264-.111-.386-.118-.64-.037-.173.055-.351.134-.397.177a.373.373 0 0 1-.22.077c-.074 0-.234.052-.354.115-.21.108-1.191.272-2.165.36-.25.023-.573.103-.718.177a1.478 1.478 0 0 1-.571.137c-.17 0-.478.055-.684.122-.207.067-.533.15-.726.183a7.2 7.2 0 0 0-.852.228c-.276.092-.653.168-.84.168-.422 0-1.347.174-1.459.275a.476.476 0 0 1-.267.075.459.459 0 0 0-.283.1.642.642 0 0 1-.303.13c-1.364.212-1.909.31-2.122.384-.14.048-.455.088-.701.089a5.18 5.18 0 0 0-.973.125c-.728.17-3.83.545-5.537.668-1.567.113-1.948.068-2.833-.342-.265-.122-.542-.233-.616-.247-.527-.093-1.487-.801-1.487-1.096 0-.067-.06-.209-.135-.315-.074-.106-.21-.538-.3-.961-.135-.623-.159-1.01-.126-2.04.023-.7.054-1.38.07-1.512.017-.133.036-.302.042-.377.013-.163.528-.653.686-.653.205 0 1.296-.386 1.412-.5a.485.485 0 0 1 .296-.113c.099 0 .66-.237 1.247-.526.587-.29 1.117-.526 1.179-.526.06 0 .17-.06.243-.131a.495.495 0 0 1 .3-.132c.093 0 .17-.04.17-.088 0-.048.04-.087.092-.087.135 0 1.085-.456 1.118-.536.026-.065.599-.352.92-.46.087-.03.134-.094.104-.143-.03-.05.04-.088.165-.088.12 0 .246-.044.279-.097.032-.053.202-.156.377-.229.175-.073.423-.207.55-.298.129-.09.302-.165.385-.165.083 0 .274-.074.425-.165.15-.091.371-.193.492-.226.12-.034.456-.172.745-.307.811-.379 1.446-.608 1.945-.7.25-.047.6-.146.778-.22.177-.074.398-.135.49-.135.094 0 .296-.068.45-.151.32-.173 1.035-.339 1.99-.461a11.41 11.41 0 0 0 1.007-.172c.193-.048.627-.092.964-.096.338-.005.83-.044 1.096-.087 1.751-.286 7.227-.552 7.808-.38.184.055.354.08.379.055.024-.024.608-.033 1.297-.02.688.015 1.856.02 2.595.013.748-.008 1.415.024 1.505.073.09.047.697.105 1.35.127.81.027 1.25.08 1.386.164.141.088.51.127 1.257.133.753.006 1.153.049 1.391.148.22.092.448.121.665.085.181-.031.5-.007.711.053.21.06.45.1.532.089.081-.012.338.035.57.103.284.083.672.11 1.197.081.434-.024.8-.007.832.04.096.138.957.291 1.644.291.404 0 .727.046.847.121.107.067.484.146.838.177.354.03.72.096.812.145.092.05.598.128 1.125.174.526.046 1.06.123 1.188.172.127.048.365.087.529.087.164 0 .6.099.97.22.369.12.754.219.857.22.102 0 .288.053.414.119s.461.147.745.18c.554.065 1.774.376 1.919.488.048.037.225.096.394.131s.425.115.57.179c.144.063.487.178.762.254.275.077.524.179.553.226.03.048.167.087.306.087.139 0 .275.036.303.08.027.045.164.107.304.138.14.03.275.109.3.173.025.065.167.145.316.178.3.066 1.544.879 1.993 1.304.16.15.366.412.458.58.454.834.775 1.582.872 2.026.188.872.708 1.367 1.756 1.674.502.147.597.302.42.689a5.84 5.84 0 0 0-.244.67c-.078.272-.25.502-.641.86-.294.27-.673.622-.841.783-.17.161-.5.376-.738.478-.414.178-.577.184-1.257.044-.11-.022-.453-.257-.765-.52-.31-.265-.62-.48-.686-.48-.066 0-.188-.075-.27-.166-.082-.09-.394-.253-.693-.36-.299-.108-.626-.272-.728-.365-.102-.093-.22-.159-.263-.146-.043.013-.182-.046-.308-.13a1.446 1.446 0 0 0-.438-.193c-.194-.036-.498-.151-1.186-.45a1.74 1.74 0 0 0-.35-.12c-.041-.002-.311-.12-.6-.262-.29-.142-.593-.26-.674-.26-.082-.002-.173-.042-.203-.09-.03-.049-.185-.088-.345-.088-.16 0-.432-.06-.605-.131a1.837 1.837 0 0 0-.582-.132c-.147 0-.335-.036-.419-.08-.32-.168-.96-.344-1.432-.393a4.562 4.562 0 0 1-.876-.19c-.212-.075-.682-.15-1.043-.165-.362-.016-.795-.089-.964-.162-.775-.335-1.2-.377-1.862-.182-.23.067-.186.346.087.555.885.679 1.242.938 1.884 1.364.683.454 1.168.799 1.625 1.156.334.26 1.501 1.455 1.663 1.702.084.127.31.443.504.701.477.638.667 1.078.721 1.67.096 1.038-.3 1.795-1.07 2.05-.242.08-.543.144-.668.142-.292-.006-1.131-.28-1.131-.369 0-.037-.098-.092-.217-.122s-.365-.22-.548-.423c-1.12-1.247-1.1-1.231-1.385-1.105a1.94 1.94 0 0 0-.426.267c-.092.082-.377.194-.635.247a2.931 2.931 0 0 0-.885.384c-.51.35-1.113.705-1.484.874-.153.07-.322.21-.376.31-.054.1-.137.183-.186.183-.048 0-.242.157-.431.35-.19.193-.422.35-.516.35-.251 0-.448.237-.448.539 0 .302.114.554.394.864.108.12.257.337.33.482.072.145.284.559.47.92.319.624.336.7.338 1.48v.821l-.525.477c-.29.263-.605.514-.701.558a3.66 3.66 0 0 0-.307.162 4.59 4.59 0 0 1-.482.225l-.57.236-.482.2c-.144.06-.637.2-1.095.31-.458.111-.872.225-.92.255-.049.029-.226.061-.395.072-.459.03-.646.068-.79.158-.071.044-.623.126-1.225.18-.603.056-1.155.122-1.227.148a.707.707 0 0 1-.35-.02zm-6.778 119.428c-.025-.06-.044-.01-.044.11s.02.17.044.11a.338.338 0 0 0 0-.22zm85.915-77.96c0-.242-.023-.29-.086-.192-.113.174-.113.639 0 .57.048-.03.087-.2.086-.378zm-24.275-38.114c0-.11.026-.124.099-.05.057.057.177.071.285.034a1.41 1.41 0 0 1 .449-.048c.144.01.657-.062 1.14-.158.855-.17 1.018-.194 1.933-.28.244-.023.755-.107 1.136-.185.38-.079.803-.12.94-.093.135.027.413-.008.616-.08.203-.07.454-.129.557-.13.103 0 .247-.093.321-.205.105-.161.192-.197.405-.166.258.038.27.026.27-.272 0-.171-.039-.335-.086-.364-.046-.029-.15-.189-.229-.356a3.591 3.591 0 0 0-.468-.668l-.325-.366-.449.146c-.246.081-.504.147-.571.147-.068 0-.193.077-.278.17-.097.108-.328.192-.628.23-.261.032-.504.104-.539.158-.106.165-.825.614-1.817 1.135-.227.12-.506.236-.657.275-.063.016-.525.287-.833.488-.407.265-.495.294-.562.186-.045-.073-.108-.065-.232.028a.812.812 0 0 1-.411.132c-.198.002-.241.042-.241.222 0 .12.04.219.087.219.049 0 .088-.067.088-.15zm-5.477-8.09c.28-.096.663-.175.85-.175.51 0 .768-.295.782-.894.006-.255.02-.556.033-.668.022-.215-.225-.391-.287-.206-.02.057-.071.082-.116.054-.045-.028-.214.03-.376.13-.161.1-.355.182-.431.182-.076 0-.406.138-.735.306-.328.169-.664.307-.746.307-.262.001-.546.177-.75.465l-.197.28.198.149c.113.086.404.163.68.181.264.018.505.04.533.048.029.009.282-.062.562-.158z" style="fill:#000;stroke-width:.08764"/>
</svg>
