<svg xmlns="http://www.w3.org/2000/svg" xml:space="preserve" width="210mm" height="297mm" viewBox="0 0 210 297">
  <path d="M199.168 284.986c.064-.025.14-.022.17.007.03.03-.023.05-.116.047-.103-.005-.124-.025-.054-.053zm-102.493-7.945c-.137-.127-.288-.232-.336-.232-.048 0-.508-.418-1.021-.93-.513-.511-.97-.93-1.015-.93-.045 0-.082-.097-.082-.216s-.04-.24-.088-.271c-.05-.03-.089-.17-.089-.311a.73.73 0 0 0-.221-.478c-.13-.13-.222-.324-.223-.47a2.53 2.53 0 0 0-.052-.468c-.039-.17-.03-.191.041-.09.067.095.09-.05.081-.532-.013-.813.056-1.505.174-1.732.048-.094.115-.588.15-1.098.033-.51.104-.98.156-1.043.054-.064.107-.6.12-1.22.027-1.15.087-1.605.237-1.791a.275.275 0 0 0 .037-.244c-.029-.074-.013-.24.036-.367.048-.127.11-.774.136-1.438.026-.664.093-1.486.15-1.827a6.9 6.9 0 0 0 .085-1.085c-.011-.323.016-.457.091-.443.075.015.13-.247.178-.864.114-1.423.12-1.468.266-2.303.077-.438.163-1.395.19-2.126.062-1.668.185-3.27.26-3.391.032-.051.081-.604.109-1.228.028-.623.069-1.163.091-1.2.023-.036.04-1.219.038-2.629-.002-2.926-.091-3.62-.47-3.675a.627.627 0 0 1-.256-.118c-.066-.054-.284-.142-.486-.196-.201-.054-.415-.157-.476-.23a.417.417 0 0 0-.282-.132c-.094 0-.299-.095-.454-.21a1.75 1.75 0 0 0-.509-.263 1.32 1.32 0 0 1-.443-.232l-.31-.255c-.05-.043-.25-.13-.442-.192a5.01 5.01 0 0 1-.658-.278c-.17-.09-.37-.165-.446-.165-.16 0-1.494-.552-1.788-.74-.112-.072-.442-.16-.735-.194-.292-.035-.675-.135-.85-.224-.176-.088-.405-.138-.51-.11-.104.027-.19.01-.19-.04 0-.096-.346-.215-.712-.245-.124-.01-.536-.183-.916-.384s-.747-.366-.817-.366c-.07 0-.285-.1-.478-.221-.193-.122-.411-.221-.485-.221-.074 0-.135-.035-.135-.078 0-.042-.476-.362-1.058-.71-.583-.348-1.083-.672-1.113-.72-.03-.048-.131-.087-.226-.087-.094 0-.172-.036-.172-.08 0-.08-.52-.431-.838-.564a5.955 5.955 0 0 1-.635-.379c-.254-.168-.484-.305-.512-.305-.029 0-.124-.07-.212-.155a13.039 13.039 0 0 0-.598-.51c-.404-.327-2.672-2.499-2.904-2.78a19.243 19.243 0 0 0-.533-.576c-.236-.25-.511-.612-.61-.807a2.758 2.758 0 0 0-.46-.62 1.962 1.962 0 0 1-.384-.51c-.057-.133-.145-.243-.195-.243a.093.093 0 0 1-.09-.094c0-.052-.1-.225-.222-.385s-.221-.337-.221-.393c0-.056-.038-.102-.083-.102-.045 0-.106-.074-.135-.164-.028-.09-.17-.28-.313-.421-.144-.141-.263-.302-.264-.358-.002-.056-.112-.221-.246-.367-.257-.28-.408-.506-.645-.96a4.024 4.024 0 0 0-.336-.521c-.106-.135-.193-.28-.193-.325 0-.083-.548-.846-.87-1.21-.1-.115-.198-.25-.215-.303-.018-.053-.19-.09-.381-.08a4.223 4.223 0 0 1-.837-.087c-.268-.056-.547-.096-.62-.09-.49.044-1.248.006-1.452-.07-.133-.051-.517-.111-.854-.133-.337-.022-.69-.082-.786-.133-.095-.051-.356-.093-.578-.093-.248 0-.58-.084-.854-.216a5.215 5.215 0 0 0-.934-.325c-.266-.06-.505-.142-.53-.183-.025-.04-.121-.073-.214-.073s-.212-.08-.264-.178c-.053-.098-.333-.284-.624-.414-.29-.13-.527-.267-.527-.306 0-.039-.052-.051-.116-.027-.064.025-.223-.076-.355-.224-.132-.148-.284-.268-.337-.268-.123 0-1.852-1.803-2.008-2.092-.062-.116-.168-.211-.235-.211-.067 0-.226-.13-.353-.288-.126-.159-.33-.395-.45-.526a2.077 2.077 0 0 1-.313-.443c-.138-.306-.269-.509-.673-1.046-.201-.268-.395-.587-.431-.71a1.181 1.181 0 0 0-.201-.376c-.075-.085-.103-.155-.062-.155.041 0-.03-.11-.158-.243a3.513 3.513 0 0 1-.447-.646c-.118-.22-.258-.48-.312-.575-.054-.096-.18-.354-.281-.573-.1-.219-.285-.571-.409-.783-.124-.21-.238-.49-.253-.62-.016-.13-.073-.226-.126-.213-.054.012-.098-.055-.098-.149a.492.492 0 0 0-.129-.3c-.07-.07-.101-.155-.069-.188.033-.033.011-.09-.049-.127-.06-.036-.168-.297-.242-.58-.073-.281-.193-.597-.265-.7a.898.898 0 0 1-.132-.44c0-.144-.037-.227-.088-.196-.052.032-.089-.054-.089-.205 0-.143-.06-.31-.133-.37a.402.402 0 0 1-.133-.27c0-.086-.076-.37-.169-.63-.358-1.003-.62-1.909-.677-2.334-.032-.243-.107-.482-.167-.531-.06-.049-.135-.278-.166-.51-.032-.232-.116-.51-.187-.62-.071-.11-.136-.418-.144-.686a3.722 3.722 0 0 0-.282-1.329c-.048-.121-.121-.46-.162-.752-.042-.293-.137-.89-.213-1.33a43.204 43.204 0 0 1-.227-1.494c-.049-.384-.113-.736-.141-.781-.028-.046-.069-.33-.09-.631a9.35 9.35 0 0 0-.124-.973 6.156 6.156 0 0 1-.087-.974 4.882 4.882 0 0 0-.087-.904c-.14-.593-.359-5.23-.364-7.735-.003-2.031.112-5.08.236-6.26.021-.195.06-.673.086-1.063.026-.39.067-.808.09-.93.023-.122.062-.52.086-.886.024-.365.085-1.162.136-1.771l.179-2.126c.22-2.623.466-7.978.394-8.592-.026-.22-.072-.877-.103-1.461a87.102 87.102 0 0 0-.079-1.373c-.012-.17-.05-.729-.083-1.24-.033-.512-.095-1.01-.137-1.108-.043-.097-.121-.615-.175-1.151-.053-.536-.134-1.114-.178-1.284a29.41 29.41 0 0 1-.262-1.24c-.1-.512-.297-1.25-.439-1.64-.141-.389-.382-1.047-.534-1.46a47.218 47.218 0 0 1-.424-1.197 6.897 6.897 0 0 0-.38-.885 6.133 6.133 0 0 1-.35-.798c-.063-.194-.29-.703-.502-1.13a20.739 20.739 0 0 1-.653-1.46c-.324-.838-.698-1.593-.906-1.829a.744.744 0 0 1-.155-.425c0-.137-.039-.249-.086-.249-.047 0-.36-.548-.694-1.218a90.29 90.29 0 0 0-.707-1.396 37.733 37.733 0 0 1-.534-1.106c-.557-1.185-.708-1.498-.857-1.771a68.33 68.33 0 0 1-.624-1.24 58.424 58.424 0 0 0-.843-1.64c-.186-.34-.34-.687-.344-.769-.003-.082-.191-.5-.418-.93-.226-.43-.57-1.1-.763-1.489-.193-.39-.426-.854-.518-1.03-.092-.178-.167-.382-.167-.455 0-.073-.06-.181-.132-.242-.073-.06-.256-.354-.407-.653-.151-.299-.328-.603-.393-.676-.065-.073-.113-.153-.107-.177.006-.024-.316-.706-.715-1.515-.4-.809-.726-1.498-.726-1.532 0-.033-.16-.277-.354-.54-.195-.264-.355-.522-.355-.572a.09.09 0 0 0-.088-.093c-.049 0-.09-.07-.092-.155-.001-.085-.12-.354-.264-.598a7.729 7.729 0 0 1-.317-.575c-.226-.551-1.036-2.2-1.391-2.835-.691-1.234-1.652-3.355-1.877-4.14-.031-.11-.094-.2-.14-.2-.045 0-.082-.07-.083-.155 0-.085-.1-.351-.221-.59-.122-.24-.221-.52-.221-.623a.788.788 0 0 0-.114-.362 2.993 2.993 0 0 1-.233-.529 2.801 2.801 0 0 0-.285-.59c-.091-.129-.165-.29-.165-.358a.385.385 0 0 0-.107-.23c-.082-.083-.082-.106 0-.106.059 0 .107-.04.107-.089 0-.048-.085-.088-.188-.088-.143 0-.166-.027-.094-.114a.206.206 0 0 0 .02-.235.326.326 0 0 1-.025-.256c.031-.08.014-.11-.043-.075-.106.066-.379-.543-.379-.844 0-.106-.077-.354-.17-.552-.095-.198-.279-.719-.41-1.157-.132-.439-.269-.817-.304-.842-.122-.084-.343-.666-.403-1.063-.034-.219-.113-.458-.177-.531-.13-.148-.465-1.033-.47-1.24-.008-.272-.182-.825-.281-.887-.057-.034-.103-.248-.103-.475 0-.263-.052-.464-.145-.557-.195-.195-.371-.546-.371-.74 0-.086-.06-.18-.133-.208-.084-.032-.133-.167-.133-.363 0-.208-.041-.313-.123-.313-.079 0-.144-.15-.182-.421-.09-.63-.13-.728-.283-.67-.103.04-.131 0-.116-.159a.943.943 0 0 0-.029-.345c-.027-.073-.12-.372-.206-.664-.086-.292-.21-.563-.273-.602a.27.27 0 0 1-.117-.208c0-.075-.075-.243-.168-.373-.092-.13-.212-.4-.266-.602-.055-.202-.158-.39-.231-.418-.073-.027-.132-.151-.132-.274 0-.124-.04-.225-.088-.225-.05 0-.09-.09-.09-.199 0-.11-.06-.313-.133-.453-.072-.14-.132-.287-.132-.328 0-.04-.12-.25-.266-.467-.146-.217-.265-.453-.265-.524 0-.072-.12-.265-.265-.43-.146-.165-.248-.345-.228-.4a.188.188 0 0 0-.037-.177c-.133-.14-.445-.745-.445-.863 0-.112-.454-1.114-.628-1.385a1.556 1.556 0 0 1-.137-.285.375.375 0 0 0-.219-.205.256.256 0 0 1-.167-.229c0-.197-.21-.638-.45-.947-.088-.113-.14-.256-.117-.318.024-.063-.076-.242-.222-.398-.146-.156-.29-.362-.32-.458-.03-.096-.09-.152-.133-.126-.042.026-.116-.092-.163-.263s-.15-.375-.226-.452c-.162-.161-.184-.305-.047-.305.052 0 .069-.04.038-.09-.03-.05-.092-.067-.138-.039-.045.028-.082-.028-.082-.124 0-.269-.095-.455-.231-.455-.072 0-.124-.09-.124-.215 0-.119-.09-.29-.199-.38-.302-.25-.455-.51-.545-.922a.494.494 0 0 0-.311-.34c-.144-.06-.26-.174-.26-.255 0-.266-.067-.462-.218-.639a.644.644 0 0 1-.15-.345c0-.094-.04-.196-.088-.226-.049-.03-.089-.128-.089-.217 0-.09-.06-.185-.132-.214-.073-.028-.133-.151-.133-.275 0-.14-.05-.224-.133-.224-.074 0-.133-.079-.133-.177 0-.097-.045-.177-.099-.177-.055 0-.078-.078-.053-.177.026-.098.02-.178-.013-.178s-.137-.149-.231-.332c-.226-.438-.407-.65-.505-.588-.045.028-.056-.047-.025-.17.03-.12.014-.244-.036-.275-.05-.03-.118-.238-.151-.46-.034-.222-.118-.425-.188-.452-.07-.026-.106-.101-.082-.165.06-.156-.2-.665-.432-.85-.13-.101-.194-.265-.21-.529-.012-.21-.062-.407-.112-.437-.05-.031-.113-.231-.14-.446-.027-.214-.099-.449-.159-.522-.06-.073-.108-.327-.106-.566.002-.308-.04-.465-.148-.543-.195-.143-.32-.59-.324-1.149-.002-.248-.06-.519-.133-.615-.087-.115-.13-.387-.13-.815 0-.445-.037-.665-.12-.714-.13-.077-.26-.626-.247-1.042a.942.942 0 0 0-.125-.465c-.073-.111-.092-.202-.042-.202.05 0 .09-.16.09-.355 0-.256-.036-.354-.132-.354-.153 0-.17-.344-.048-.974.049-.256.044-.418-.013-.453-.11-.068 0-1.407.116-1.407.043 0 .078-.08.078-.178 0-.097-.035-.177-.079-.177-.043 0-.099-.08-.124-.177-.051-.196.153-.253.239-.066.028.06.027.016-.002-.098-.029-.115-.178-.323-.331-.463l-.28-.254.289-.002c.237-.003.289.032.297.196.008.18.092-.09.219-.708.022-.11.1-.2.172-.2.094 0 .13-.1.13-.354 0-.256-.036-.354-.132-.354s-.133-.099-.133-.354c0-.195.034-.355.075-.355.04 0 .126-.17.189-.376.098-.324.124-.352.189-.2.045.106.06-.213.038-.784-.031-.817-.02-.937.081-.8.108.147.128.127.235-.228.09-.302.092-.397.01-.425-.06-.02-.108-.182-.108-.362 0-.236.051-.357.189-.443.154-.096.202-.097.26-.004.038.063.048-.053.02-.257-.033-.247-.016-.372.05-.372.06 0 .1-.156.1-.38 0-.218.066-.47.156-.597.085-.12.16-.359.166-.53.02-.566.145-1.324.212-1.283.036.023.113.23.171.462.116.461.202.412.307-.175.049-.272.097-.332.268-.332.142 0 .223-.063.258-.2.028-.111.132-.29.23-.396.1-.106.182-.245.182-.309 0-.063.094-.217.209-.34.214-.232.448-.615.396-.65a4.349 4.349 0 0 0-.251-.119l-.222-.1.28-.006c.155-.003.301.044.326.105.025.06.048.013.052-.105.003-.119.093-.308.198-.42.178-.189.183-.23.075-.56-.128-.387-.054-.58.127-.332.14.19.227.198.227.022 0-.073.06-.133.133-.133.073 0 .132-.074.132-.164 0-.184.293-.488.384-.397.033.032.06-.046.06-.174 0-.172.035-.22.133-.182.192.073.412-.139.35-.336-.036-.112-.009-.164.086-.164.077 0 .139-.075.139-.167a.41.41 0 0 1 .133-.276c.073-.06.133-.163.133-.228s.137-.222.305-.35c.168-.129.35-.37.406-.537.055-.167.177-.345.27-.395.094-.05.17-.15.17-.22 0-.072.074-.13.164-.13.22 0 .442-.262.51-.604.04-.196.154-.34.378-.477.177-.108.361-.244.41-.303a.51.51 0 0 1 .265-.138c.104-.018.19-.113.206-.229.015-.109.065-.198.11-.198.046 0 .083-.08.083-.177 0-.098.053-.177.117-.177.153 0 .503-.406.503-.582 0-.076.038-.114.085-.085.095.059.25-.094.712-.7.206-.27.376-.405.51-.405.113 0 .199-.054.199-.127 0-.07.09-.139.2-.155a.252.252 0 0 0 .227-.227c.015-.11.09-.2.164-.2.075 0 .213-.097.306-.216.094-.119.25-.24.345-.271.097-.03.175-.112.175-.18 0-.068.08-.166.177-.218.097-.052.333-.253.524-.446.192-.193.395-.351.451-.351.057 0 .314-.22.572-.488.257-.268.515-.487.574-.487.058 0 .24-.13.404-.288.487-.47.657-.598.797-.598.146 0 .316-.133.842-.664.193-.195.352-.398.353-.45 0-.054.17-.148.375-.21.206-.061.44-.187.52-.28.08-.092.192-.167.25-.167.057 0 .25-.141.427-.313.185-.18.376-.293.45-.264.162.062.37-.108.37-.303 0-.142.56-.435.73-.382.04.013.096-.037.124-.11.028-.074.128-.134.222-.134.093 0 .19-.054.216-.12.029-.075.13-.103.276-.075.142.027.209.01.175-.046-.073-.118.256-.413.378-.338.057.035.094-.034.094-.178 0-.209.026-.23.225-.18.181.046.282-.004.52-.256.162-.172.36-.313.439-.313.08 0 .144-.04.144-.088 0-.049.09-.089.2-.089a.32.32 0 0 0 .29-.2c.054-.123.15-.188.252-.17.09.015.25-.05.353-.145.105-.095.38-.254.61-.355.232-.1.421-.221.421-.268 0-.047.319-.239.708-.426.39-.187.708-.39.709-.451 0-.06.047-.11.104-.11.17 0 1.314-.552 1.314-.634 0-.041.063-.075.14-.075.078 0 .243-.08.367-.177.124-.098.274-.178.333-.178s.199-.08.311-.177c.113-.097.278-.177.368-.177.09 0 .164-.038.164-.085 0-.047.17-.132.376-.19.207-.058.443-.18.524-.27a.538.538 0 0 1 .346-.164c.109 0 .326-.097.483-.216a1.75 1.75 0 0 1 .54-.278 1.2 1.2 0 0 0 .376-.157c.131-.104.644-.309.964-.385.191-.045.216-.085.235-.38.008-.12.745-.346 1.205-.372a.497.497 0 0 0 .221-.072 1.25 1.25 0 0 1 .332-.122c.134-.032.244-.097.244-.145 0-.048.06-.087.133-.087.073 0 .133-.04.133-.088 0-.048.16-.113.357-.144.197-.032.408-.129.47-.217.06-.087.228-.185.372-.216.41-.09.785-.239.882-.348.22-.25.653-.476 1.019-.533.618-.095.708-.136.708-.32 0-.206.25-.23.325-.031.03.077.079.107.108.066.055-.075.6-.432.961-.63a.916.916 0 0 1 .355-.108c.086 0 .485-.16.887-.354.402-.195.848-.354.99-.354.144 0 .286-.04.316-.089.03-.049.13-.088.222-.088a.305.305 0 0 0 .244-.136c.041-.075.185-.156.319-.18.317-.057.904-.277 1.309-.49.177-.093.399-.169.493-.169.255 0 1-.27 1-.362 0-.045.19-.08.422-.08.326 0 .447-.041.532-.178.061-.097.178-.177.26-.177.08 0 .31-.074.508-.165.43-.198 1.506-.544 1.69-.544.072 0 .131-.054.131-.12 0-.082.173-.138.545-.177.3-.031.59-.095.646-.141.055-.046.299-.127.54-.18.242-.053.54-.169.661-.257.122-.088.361-.202.531-.252.171-.051.57-.173.886-.271.317-.098.815-.226 1.107-.284.293-.057.601-.14.686-.185a.848.848 0 0 1 .332-.081c.098 0 .258-.08.355-.177.098-.098.227-.178.288-.178.061 0 .225-.06.365-.133.14-.073.59-.159.998-.19.539-.042.797-.103.935-.223.105-.09.258-.143.34-.117.158.05.625-.093.704-.216.026-.04.258-.094.517-.122.259-.027.518-.085.576-.128.058-.043.583-.19 1.168-.326.584-.137 1.132-.283 1.217-.326.084-.044.349-.079.588-.079.305 0 .45-.04.486-.133.028-.073.148-.132.268-.132.119 0 .467-.065.773-.143.326-.084.722-.123.959-.095.401.046 1.245-.153 1.245-.295 0-.038.319-.097.708-.132.39-.034.71-.1.71-.144 0-.045.228-.075.508-.067.28.008.622-.031.76-.086a2.04 2.04 0 0 1 .62-.104c.203 0 .53-.045.724-.099a4.39 4.39 0 0 1 .709-.124c.686-.05 1.952-.23 2.23-.315.154-.047.388-.06.518-.027.133.034.263.02.295-.03.031-.049.672-.126 1.424-.172.915-.055 1.38-.117 1.403-.188.024-.072.32-.105.943-.105.982 0 2.34-.15 2.495-.275.054-.043.552-.096 1.108-.118.555-.022 1.132-.077 1.282-.123.15-.045.847-.112 1.55-.148.717-.036 1.332-.108 1.401-.164.138-.112 2.664-.192 4.129-.13.097.004.574-.017 1.06-.047.595-.036.9-.022.94.043.043.069.156.065.395-.014.243-.08.712-.094 1.716-.051 1.638.07 3.736.145 4.171.15.17.001 1.007.06 1.859.13.852.07 1.758.127 2.015.127.256 0 .466.033.466.074 0 .042.508.1 1.13.132.62.031 1.521.137 2.001.235.48.098 1.084.179 1.344.179.29 0 .485.04.507.107.024.072.258.11.694.111.361.002.68.032.706.068.027.036.246.071.487.078.242.008.573.068.738.135.164.066.416.12.56.12.27 0 .55.062 2.462.543 1.153.29 1.891.464 2.57.608.218.046.497.108.62.136.121.03.34.071.486.093.147.022.426.116.62.209.195.092.733.215 1.196.272.463.057.93.16 1.038.23a.984.984 0 0 0 .443.126c.136 0 .623.12 1.084.265.46.146.925.265 1.033.265.108 0 .21.038.226.086.016.048.308.145.65.217l.885.186c.146.031.326.08.399.109.164.065 1.372.333 2.436.54.438.085.877.2.974.256.245.14 1.361.466 1.594.466.106 0 .385.097.62.217.237.12.772.3 1.19.402 1.062.258 1.403.348 1.91.5.244.074.722.195 1.064.268.34.074.66.163.708.199.049.035.198.071.333.08.235.014.614.137 1.97.64.463.172 1.15.351 1.343.351.119 0 .33.059.468.13.139.072.426.158.638.19.212.034.525.135.694.225.17.09.376.164.458.164.082 0 .348.1.59.221.242.122.502.221.578.221.075 0 .16.038.188.084.029.046.24.108.47.138.795.105 1.594.39 1.94.69.105.093.563.258 1.018.368.455.11.995.286 1.2.39.205.105.412.19.46.19.047 0 .178.036.29.079.114.042.236.082.273.086.116.016.575.27.7.387.065.062.278.166.473.23.405.134.953.387 1.019.471.024.031.223.109.442.173.22.064.419.142.443.174.025.031.284.14.576.242.292.102.71.275.93.385.22.11.45.208.512.219.062.01.48.257.93.547.852.55 1.647.994 1.778.994.042 0 .188.09.326.199.65.52.755.595.829.597.076 0 .706.293 2.427 1.126.467.226.885.492.965.615.078.12.266.272.417.34.151.067.47.303.707.524.237.221.506.426.597.455.092.03.167.087.167.13 0 .042.075.1.167.13.161.05.466.32 1.52 1.341.272.263.538.477.594.477.055 0 .232.164.393.365.655.814.924 1.08 1.322 1.308.23.13.57.423.757.648.187.226.445.492.572.592.6.47 2.735 3.144 2.735 3.425 0 .065.082.175.182.245.172.121.604.716.874 1.204.07.126.17.273.222.327.128.133.415.617.975 1.646.424.779.557 1.127.712 1.87a.448.448 0 0 0 .271.33c.12.045.219.121.219.169 0 .047.111.257.247.467.292.449.439.854.517 1.426.032.229.09.416.13.416.04 0 .142.15.227.332.085.183.181.353.215.377.033.024.06.16.06.303 0 .142.064.306.143.364.089.065.145.238.148.45.007.624.142 1.076.425 1.42.154.185.28.385.28.443 0 .058.098.178.217.268.138.102.259.325.329.605.06.244.182.549.269.678.087.13.159.275.159.325 0 .05.037.103.082.119.044.016.12.31.167.652.067.491.138.679.339.896.14.15.347.548.461.883.115.336.318.85.451 1.142.5 1.094.56 1.247.602 1.55.023.17.132.509.243.753.278.615.555 1.439.624 1.86.032.195.17.593.307.885.137.293.274.671.304.841.03.17.19.669.353 1.108.163.438.366 1.116.451 1.506.086.39.273 1.104.417 1.588.145.483.244.978.22 1.099-.023.121-.007.323.037.45.16.469.363 2.224.426 3.688.035.831.096 1.561.134 1.623.092.15.174 1.204.167 2.137-.012 1.414-.089 3.144-.15 3.366-.035.122-.002.509.072.86.094.443.112.76.06 1.038-.04.22-.05.424-.02.454.064.064.076.707.08 4.114 0 1.388.003 3.52.004 4.739.002 1.218.046 2.713.098 3.321.052.61.134 1.805.183 2.658.049.852.132 1.738.185 1.967.07.299.07.544.002.86a2.3 2.3 0 0 0-.02.84c.09.485.027 4.815-.074 5.009-.064.123-.129 1.23-.224 3.827-.017.47-.071.93-.12 1.023-.05.092-.117.425-.15.739a9.118 9.118 0 0 1-.226 1.195 5.042 5.042 0 0 0-.16 1.151c.005.29-.064.927-.153 1.414-.089.487-.147 1.085-.13 1.329.07 1.002-.157 3.715-.348 4.163-.146.341-.242 1.67-.311 4.296a132.45 132.45 0 0 1-.079 2.17c-.05 1.084-.062 1.328-.233 5.27l-.132 3.012c-.019.414-.048 1.251-.066 1.86a30.561 30.561 0 0 1-.593 5.138 6.673 6.673 0 0 0-.086 1.006 7.122 7.122 0 0 1-.133 1.195c-.07.324-.169.967-.22 1.43-.146 1.314-.228 1.8-.34 2.005-.274.498-.399 1.097-.42 2.026-.016.655-.074 1.104-.175 1.372-.084.22-.2.68-.26 1.024s-.136.67-.17.724c-.033.054-.081.43-.107.836-.026.406-.085.878-.132 1.048-.046.17-.085.457-.085.637s-.04.352-.09.382c-.048.03-.087.182-.087.337 0 .321-.252 1.698-.36 1.966-.04.097-.095.416-.124.708-.162 1.67-.204 1.968-.306 2.157-.062.116-.099.402-.082.643.016.238.007.434-.021.433-.076 0-.26.852-.26 1.203 0 .167-.04.303-.088.303-.048 0-.088.178-.088.396 0 .218-.103.706-.228 1.085-.18.542-.217.79-.176 1.163.042.379.018.53-.12.753-.094.154-.192.502-.217.774-.025.272-.124.63-.22.797-.137.24-.167.432-.145.923.017.368-.022.77-.095.992-.068.205-.148.703-.179 1.107-.03.404-.11.93-.178 1.167-.067.237-.105.459-.085.492.02.033 0 .217-.047.41-.124.51-.116 5.39.009 5.624.058.109.075.329.041.532-.081.48-.075 1.476.014 2.475.103 1.153.082 3.604-.04 4.517a18.022 18.022 0 0 0-.118 1.64c-.017.813-.185 1.755-.423 2.374a1.692 1.692 0 0 0-.096.507c0 .142-.1.475-.222.741-.122.267-.221.55-.221.628 0 .138-.224.685-.507 1.24a3.02 3.02 0 0 0-.21.71c-.04.243-.271.841-.513 1.328-.242.487-.49 1.065-.55 1.285-.061.219-.24.682-.4 1.03-.158.346-.316.779-.35.96-.034.181-.17.441-.304.577-.173.177-.259.38-.303.714-.034.256-.12.578-.19.714s-.128.322-.128.412c0 .145-.217.688-.435 1.087-.04.075-.102.274-.137.443-.111.535-.298 1.03-.71 1.883-.22.456-.4.91-.4 1.01 0 .1-.09.293-.197.43-.35.446-.618.97-.79 1.546-.065.22-.203.478-.307.576a1.039 1.039 0 0 0-.245.359c-.031.1-.216.347-.41.55-.196.202-.355.414-.355.47 0 .055-.118.25-.263.433a2.783 2.783 0 0 0-.352.566c-.049.13-.152.235-.229.235-.08 0-.213.166-.312.388-.094.214-.311.5-.482.636-.17.136-.31.284-.31.329 0 .2-.299.682-.452.73-.093.03-.168.096-.168.147 0 .103-.311.446-1.38 1.523-.393.396-.85.9-1.015 1.118-.166.22-.576.678-.912 1.019-.335.341-.727.79-.87.997-.144.207-.289.377-.323.378-.092.003-.727.57-.727.65 0 .114-.555.765-.653.765-.05 0-.318.24-.593.532-.276.292-.542.531-.592.531-.05 0-.149.09-.22.2-.073.11-.247.26-.388.332a1.57 1.57 0 0 0-.417.332c-.088.11-.237.2-.33.2-.092 0-.232.096-.31.215a.74.74 0 0 1-.4.272c-.141.032-.28.094-.308.139-.028.045-.112.082-.186.082-.075 0-.242.081-.372.18-.506.39-1.168.794-1.299.794-.363 0-.184.527.48 1.411.2.265.362.518.362.564 0 .046.176.347.39.67.215.324.537.907.716 1.297.18.39.422.908.54 1.153.118.244.215.489.215.544 0 .056.144.314.32.575.175.26.351.557.39.66.04.102.23.52.424.93.193.409.48 1.023.638 1.364.807 1.743 1.593 3.112 2.194 3.82.432.509.462.55.462.633 0 .161.348.784.531.95.106.095.25.312.322.482.07.17.177.339.236.375.059.037.108.098.108.136.001.039.1.203.222.365.121.163.22.322.221.354.001.033.11.167.244.3.133.13.242.293.242.36s.101.216.225.332c.123.116.308.38.411.586.103.206.291.489.418.629s.35.406.496.591c.146.186.34.423.43.527a2.8 2.8 0 0 1 .297.446c.148.285.208.363.62.806.156.168.591.707.967 1.198.376.492.766.961.868 1.044.101.082.397.399.658.703.26.304.51.53.555.503.045-.028.139.084.207.249.07.165.741.918 1.493 1.674.753.756 1.399 1.47 1.436 1.587.037.116.271.415.52.662.249.248.557.588.685.756.128.167.477.556.776.864.298.307.542.592.542.633 0 .076.309.458.73.904.135.141.244.286.244.323 0 .036.11.188.244.337.483.538 1.596 2.09 1.835 2.558.074.146.215.385.313.532.097.146.235.388.305.538.07.15.189.324.263.386.129.106.583.982.583 1.124 0 .036.072.148.16.249.088.1.25.402.362.67.112.268.32.726.462 1.019.142.292.258.598.258.68-.001.083.039.176.088.206.05.03.067.093.04.138-.029.046-.014.083.031.083.072 0 .146.218.24.708.014.073.067.267.12.432.05.164.07.473.04.686-.038.279-.022.388.057.388.06 0 .089.055.063.122a.225.225 0 0 0 .051.22c.11.11.102.071.239 1.297.127 1.141.122 1.282-.055 1.477-.08.09-.12.189-.088.221.085.085-.21.383-.378.383-.181 0-1.07-1.11-1.07-1.335 0-.231-.18-.956-.316-1.278a11.27 11.27 0 0 1-.252-.673c-.218-.641-.395-1.037-.493-1.097-.05-.03-.09-.128-.09-.215 0-.088-.14-.342-.31-.565-.17-.224-.31-.462-.31-.53 0-.124-.84-1.144-.99-1.202-.042-.016-.136-.17-.207-.34-.169-.403-.656-1.017-.759-.954-.043.027-.06-.004-.034-.068.024-.064-.156-.33-.4-.59-.245-.26-.532-.628-.638-.818-.106-.189-.26-.344-.34-.344-.135 0-.635-.501-1.297-1.3a24.46 24.46 0 0 0-1.38-1.564c-.28-.292-.51-.564-.51-.605 0-.04-.051-.074-.114-.074-.062 0-.18-.11-.26-.244-.156-.259-.909-1.044-2.09-2.18-.399-.383-.725-.722-.725-.754 0-.032-.159-.127-.354-.211-.195-.084-.354-.195-.354-.245 0-.05-.14-.214-.31-.364-.17-.15-.31-.328-.31-.396s-.052-.123-.116-.123-.233-.159-.377-.353c-.143-.193-.306-.353-.361-.354-.056 0-.126-.102-.157-.223-.03-.122-.089-.222-.129-.222-.04 0-.165-.08-.278-.178a14.04 14.04 0 0 0-.587-.465c-.21-.158-.383-.33-.384-.383-.002-.053-.121-.212-.266-.354-.145-.142-.264-.289-.266-.325-.004-.111-.807-.87-.876-.827-.035.022-.179-.167-.32-.42-.242-.43-1.568-2.017-1.74-2.082-.043-.016-.078-.08-.078-.142 0-.111-.331-.526-.844-1.057a4.281 4.281 0 0 1-.472-.61c-.112-.182-.232-.332-.266-.332-.035 0-.134-.121-.222-.27-.173-.293-.47-.647-.92-1.094-.158-.158-.288-.328-.288-.378 0-.05-.12-.256-.265-.458-.146-.202-.266-.401-.266-.443 0-.042-.09-.179-.2-.304-.412-.47-1.037-1.364-1.161-1.66-.07-.17-.21-.411-.308-.537a1.506 1.506 0 0 1-.24-.465c-.032-.13-.087-.237-.122-.237-.034 0-.152-.16-.261-.354-.11-.195-.27-.392-.357-.438-.086-.047-.246-.316-.355-.598l-.367-.95c-.093-.24-.21-.478-.259-.528a.412.412 0 0 1-.09-.254c0-.166-.077-.336-.652-1.435-.178-.339-.323-.67-.323-.737 0-.066-.094-.327-.21-.58a5.826 5.826 0 0 1-.324-.99c-.063-.293-.148-.575-.188-.628-.102-.135-.387-1.64-.561-2.96-.08-.609-.183-1.251-.229-1.427a3.064 3.064 0 0 1-.082-.632c0-.588-.279-1.235-.734-1.705-.236-.244-.506-.592-.601-.774-.245-.468-.333-1.25-.209-1.84.165-.777.205-.854.813-1.55.195-.224.84-.664.973-.664.055 0 .17-.16.256-.354.086-.195.19-.354.232-.354.042 0 .144-.152.227-.336.082-.185.439-.633.79-.997.353-.363.643-.7.644-.749.002-.049.261-.343.578-.654.316-.311.574-.597.574-.636 0-.04.23-.305.51-.59.28-.286.648-.692.819-.901.17-.21.364-.427.43-.483.067-.056.247-.236.4-.4.152-.165.586-.606.963-.98.378-.375.687-.709.687-.742 0-.033.2-.264.443-.513s.443-.497.443-.55c0-.055.09-.193.199-.307.456-.474.576-.613.821-.95a14.2 14.2 0 0 1 .601-.753c.567-.659 1.302-1.64 1.302-1.74 0-.03.14-.209.31-.398.17-.188.31-.386.31-.44 0-.053.075-.202.167-.331a8.49 8.49 0 0 0 .449-.79c.154-.304.318-.553.364-.553.045 0 .083-.077.083-.172 0-.095.055-.205.122-.244.14-.081.498-.721.498-.89 0-.063.094-.263.208-.445a3.04 3.04 0 0 0 .27-.522.746.746 0 0 1 .19-.298c.07-.06.129-.16.129-.224 0-.063.116-.367.258-.675.142-.308.326-.772.41-1.03.084-.26.198-.519.254-.577.055-.057.164-.264.242-.459.336-.836.688-1.788.738-1.993.112-.465.258-.933.318-1.018.035-.05.091-.308.125-.576.035-.268.139-.785.232-1.148.094-.364.233-1.161.31-1.772.077-.61.196-1.31.264-1.553.068-.244.188-1.36.266-2.48.079-1.121.172-2.396.209-2.835.036-.438.047-1.435.024-2.214-.07-2.381-.034-6.48.07-7.884.053-.73.133-1.847.176-2.48.044-.633.122-1.43.173-1.771.091-.603.141-1.102.36-3.588.058-.657.15-1.275.204-1.373.055-.097.13-.436.168-.753.28-2.347.557-4.033.73-4.448.076-.18.139-.46.14-.62 0-.16.08-.59.175-.955.096-.365.176-.784.179-.93.003-.146.061-.365.131-.487s.128-.318.13-.435c.003-.208.151-.788.409-1.602.07-.22.126-.489.126-.598 0-.11.04-.2.088-.2.049 0 .089-.077.089-.173 0-.095.037-.264.084-.376.046-.112.19-.562.322-1 .13-.44.267-.838.303-.886.036-.05.093-.288.127-.532.033-.243.158-.738.278-1.098.119-.36.242-.82.273-1.019.031-.2.09-.385.13-.412.041-.027.114-.427.162-.89.048-.462.148-1.013.222-1.224.075-.211.136-.48.136-.597 0-.118.062-.308.138-.424.076-.116.172-.523.213-.905.04-.382.14-.969.22-1.304.08-.335.181-1.073.224-1.639.042-.565.12-1.527.175-2.136.08-.895.175-2.514.282-4.783.005-.122.003-.58-.006-1.019-.016-.783.02-2.44.128-5.742.03-.918.091-1.768.137-1.889.046-.12.084-.588.084-1.039 0-.45.037-1.036.083-1.3.046-.265.106-.86.132-1.323.083-1.457.211-2.693.304-2.936.05-.13.072-.252.05-.274-.022-.022.023-.634.099-1.36.076-.726.175-1.839.22-2.472.046-.633.13-1.49.186-1.904.12-.883.12-.87.247-3.853.054-1.267.136-2.921.182-3.676.047-.756.087-3.685.09-6.51.002-2.826.043-6.234.092-7.574.049-1.34.112-4.907.14-7.928.05-5.385.02-6.43-.241-8.415a62.824 62.824 0 0 1-.212-2.081c-.066-.755-.16-1.552-.208-1.772-.05-.219-.13-.657-.181-.974a14.06 14.06 0 0 0-.18-.93 73.518 73.518 0 0 1-.277-1.196c-.103-.463-.242-1-.307-1.196a5.433 5.433 0 0 1-.177-.708c-.032-.195-.09-.394-.13-.443-.039-.049-.134-.457-.21-.907-.077-.45-.202-.939-.278-1.086-.194-.374-.327-1.029-.312-1.536.007-.246-.043-.513-.118-.626-.165-.252-.5-1.334-.5-1.613 0-.28-.501-2.08-.667-2.4-.071-.136-.13-.312-.13-.391 0-.08-.06-.287-.133-.462a1.992 1.992 0 0 1-.133-.64c0-.177-.057-.447-.125-.6a16.1 16.1 0 0 1-.408-1.21 51.246 51.246 0 0 0-.584-1.782c-.165-.468-.3-.909-.3-.98 0-.07-.059-.204-.13-.299a.708.708 0 0 1-.133-.346c-.004-.22-.264-.934-.405-1.11-.058-.073-.177-.372-.265-.665-.087-.292-.205-.59-.26-.664a4.027 4.027 0 0 1-.288-.531c-.5-1.077-.96-2.007-1.051-2.126a6.095 6.095 0 0 1-.323-.532 25.44 25.44 0 0 0-1.12-1.845c-.783-1.163-.996-1.46-1.287-1.8a3.743 3.743 0 0 1-.451-.662c-.08-.167-.178-.282-.22-.256-.041.026-.167-.103-.278-.286-.555-.91-4.37-4.755-6.19-6.238a18.512 18.512 0 0 1-.62-.518 10.286 10.286 0 0 0-.62-.436c-.504-.338-.834-.592-1.44-1.112-.085-.073-.182-.133-.215-.133-.034 0-.25-.16-.481-.355-.231-.194-.445-.354-.475-.354-.03 0-.102-.04-.161-.09-.059-.05-.446-.328-.86-.619-.414-.29-.801-.568-.86-.618a.391.391 0 0 0-.205-.09c-.055 0-.155-.05-.223-.11a2.228 2.228 0 0 0-.71-.47 3.926 3.926 0 0 1-.57-.328c-.431-.321-1.02-.683-1.116-.685-.054 0-.167-.079-.253-.174a.96.96 0 0 0-.435-.233c-.153-.034-.325-.128-.383-.21-.057-.083-.269-.2-.47-.26-.2-.06-.387-.166-.414-.237-.027-.07-.117-.128-.2-.128s-.456-.169-.83-.376l-1.432-.797c-.415-.232-.826-.421-.912-.421-.087 0-.297-.094-.466-.21a5.6 5.6 0 0 0-.752-.4 5.914 5.914 0 0 1-.575-.28c-.227-.148-.903-.445-1.533-.674a7.474 7.474 0 0 1-.886-.381 2.856 2.856 0 0 0-.504-.226 7.131 7.131 0 0 1-.69-.275c-.257-.116-.543-.211-.636-.211-.094 0-.194-.04-.224-.089-.03-.049-.137-.088-.237-.088-.1 0-.406-.113-.681-.252a9.86 9.86 0 0 0-.81-.364 57.797 57.797 0 0 0-2.258-.765c-.293-.089-.57-.193-.616-.232a.5.5 0 0 0-.266-.071c-.1 0-.355-.1-.567-.222-.212-.121-.483-.22-.602-.22-.12 0-.382-.08-.583-.177-.202-.098-.415-.177-.473-.177-.059 0-.58-.154-1.157-.342a22.86 22.86 0 0 0-1.538-.451 5.052 5.052 0 0 1-.767-.234c-.153-.069-.34-.125-.415-.125-.075 0-.159-.036-.186-.08-.028-.045-.22-.107-.426-.139a3.059 3.059 0 0 1-.554-.131 5.365 5.365 0 0 0-.708-.179 9.982 9.982 0 0 1-1.041-.274c-.28-.094-.63-.171-.775-.171-.146 0-.266-.04-.266-.089 0-.049-.104-.088-.23-.088-.127 0-.476-.066-.776-.145a5.884 5.884 0 0 0-.854-.166 9.776 9.776 0 0 1-1.018-.175c-1.27-.277-2.192-.44-3.038-.537a4.417 4.417 0 0 1-.594-.103 2.193 2.193 0 0 0-.354-.074 9.613 9.613 0 0 1-.655-.118 6.704 6.704 0 0 0-1.12-.1c-.353 0-.955-.057-1.338-.127-1.064-.195-2.237-.25-6.136-.283-2.246-.019-3.619.002-3.684.057-.058.047-.12.07-.14.05-.02-.02-.455 0-.967.043a57.66 57.66 0 0 1-2.214.129c-.707.026-1.683.086-2.17.132-.488.046-1.783.124-2.88.174l-3.055.14c-.585.026-1.222.085-1.417.13a5.288 5.288 0 0 1-.947.085c-.325 0-.685.037-.8.08-.113.044-.794.129-1.513.19-.72.06-1.455.16-1.636.222-.21.072-.384.084-.479.033-.093-.05-.245-.044-.4.015-.136.052-.565.113-.951.136a8.355 8.355 0 0 0-1.063.124 3.61 3.61 0 0 1-.648.085c-.159.001-.288.037-.288.08 0 .075-.825.19-1.727.241-.548.031-1.276.184-1.411.296-.055.046-.598.102-1.205.124-.688.025-1.372.108-1.813.22-.616.155-1.087.221-2.923.414a7.85 7.85 0 0 0-.886.173c-.292.074-.873.135-1.29.136-.418 0-.956.059-1.196.129s-.747.152-1.126.182c-.379.03-.856.113-1.061.186-.205.072-.651.152-.992.177-.34.025-.644.086-.675.135-.03.049-.41.147-.843.219-.91.15-1.898.388-2.033.49-.052.039-.27.094-.488.123-.558.076-1.182.239-1.24.325-.028.04-.207.09-.4.111-.191.02-.727.123-1.19.228-.463.104-.992.222-1.176.26-.184.04-.406.136-.494.215a.608.608 0 0 1-.347.145c-.102 0-.209.035-.235.078-.027.043-.199.106-.382.14-.29.053-.77.24-1.284.5a.868.868 0 0 1-.31.083 1.932 1.932 0 0 0-.466.123c-1.083.419-1.526.565-2.031.67-.372.078-.514.139-.41.175.12.043.074.082-.194.162a2.529 2.529 0 0 1-.498.106c-.08 0-.145.04-.145.088 0 .05-.132.089-.294.089-.351 0-1.123.25-1.123.363 0 .044-.092.08-.204.08-.112 0-.241.034-.287.075-.047.042-.274.127-.505.189-.232.062-.421.138-.421.168s-.15.066-.332.079c-.183.013-.346.063-.362.111-.016.048-.062.068-.1.044-.04-.024-.121.015-.181.088-.06.072-.157.132-.214.132-.155 0-.581.21-.582.287 0 .037-.078.067-.173.067-.094 0-.193.035-.22.077-.04.067-.2.117-.749.238a.523.523 0 0 0-.217.122c-.052.052-.19.094-.307.094-.145 0-.199.04-.167.123.034.087-.107.163-.5.268-.3.08-.686.187-.856.238-.17.052-.49.141-.709.2-.22.058-.526.174-.682.258-.156.085-.326.153-.378.153-.087 0-.284.082-1.354.562-.231.104-.42.216-.42.25 0 .033-.123.087-.272.12-.15.033-.379.115-.51.183-.13.069-.288.125-.35.125-.16 0-.817.428-.817.531 0 .048-.11.113-.244.146-.134.032-.45.153-.703.267-.252.114-.501.208-.553.208-.052 0-.085.04-.072.09.012.05-.226.18-.528.289-.303.108-.646.281-.763.385-.117.103-.42.257-.674.341-.254.085-.483.208-.508.274-.026.067-.287.192-.581.28-.378.11-.562.216-.627.357-.064.141-.14.185-.256.149-.109-.035-.156-.013-.14.065.015.074-.081.127-.264.145-.164.016-.324.096-.372.186-.047.087-.336.249-.642.36-.307.11-.618.25-.69.31-.074.06-.353.184-.62.275-.269.09-.583.236-.7.322-.115.087-.265.158-.331.158-.067 0-.121.04-.121.089 0 .048-.053.088-.117.088-.063 0-.194.07-.29.155-.095.085-.435.285-.756.443-.321.159-.691.388-.822.51-.28.26-.695.486-.89.486a.14.14 0 0 0-.137.143c0 .085-.05.123-.123.095-.068-.026-.206.03-.306.123-.101.094-.222.17-.27.17-.046 0-.197.095-.335.21a5.08 5.08 0 0 1-.693.448c-.692.371-1.096.627-1.282.812-.291.288-.402.361-.499.329-.085-.029-.47.235-.995.683-.114.097-.258.176-.32.176s-.215.08-.339.177c-.123.098-.286.178-.36.178-.074 0-.16.08-.192.178-.03.098-.174.239-.318.313-.145.075-.24.174-.21.22.028.048-.025.086-.12.086a.417.417 0 0 0-.281.133.407.407 0 0 1-.274.132c-.09 0-.206.08-.258.178-.052.097-.157.177-.234.177-.076 0-.216.098-.31.217-.098.126-.225.197-.3.168-.078-.03-.155.021-.196.131-.063.17-.379.438-.93.79-.134.086-.243.2-.244.255 0 .055-.12.15-.266.21-.146.06-.266.165-.266.233 0 .067-.081.122-.181.122-.121 0-.212.086-.272.257-.051.148-.173.279-.285.307-.107.027-.282.13-.389.23-.107.099-.232.18-.28.18-.047 0-.164.1-.26.221-.096.122-.238.222-.316.222-.078 0-.142.05-.142.11 0 .129-.473.598-.602.598-.16 0-.81.696-.7.749.058.028-.026.03-.187.007-.175-.026-.27-.01-.239.042.029.046.003.175-.059.286-.061.11-.104.227-.096.258.01.031-.15.17-.354.31-.447.305-.592.445-.802.769-.089.136-.226.272-.307.303-.245.094-.463.32-.463.48 0 .083-.078.176-.173.206-.095.03-.152.107-.128.171.026.067-.033.137-.136.164-.1.026-.22.151-.269.278-.054.143-.155.23-.266.23-.12 0-.18.058-.18.174 0 .095-.08.216-.177.268-.097.053-.177.134-.177.18 0 .048-.07.163-.155.258a6.19 6.19 0 0 0-.332.413 7.206 7.206 0 0 1-.505.58c-.193.2-.352.468-.387.65-.042.225-.104.311-.225.311-.12 0-.168.063-.168.221 0 .136-.05.222-.13.222-.07 0-.177.09-.235.2a1.077 1.077 0 0 1-.278.32c-.095.068-.229.257-.297.422-.069.164-.16.298-.204.298-.043 0-.123.13-.178.288-.055.158-.176.348-.27.42a.674.674 0 0 0-.211.355c-.061.332-.154.531-.248.531-.047 0-.164.181-.262.402-.098.221-.375.726-.615 1.122-.24.396-.438.805-.438.91 0 .104-.101.393-.226.643-.124.25-.234.55-.243.666a.665.665 0 0 1-.164.358c-.08.08-.174.357-.208.614-.033.257-.117.583-.186.724a1.619 1.619 0 0 0-.124.592c0 .184-.055.39-.123.457-.068.068-.146.357-.174.642-.028.285-.099.547-.157.583-.303.188-.261 4.478.056 5.662.071.268.13.599.131.734 0 .136.057.335.124.443.068.108.15.356.182.55.096.584.33 1.228.402 1.11.036-.058.093.133.126.426.058.51.49 1.497.606 1.381.028-.028.1.178.158.46.1.486.288.837.648 1.21.097.1.144.242.116.348-.032.125.004.192.123.223.108.028.19.153.225.344.031.164.092.277.134.25.043-.026.128.138.188.364.06.226.18.449.267.495.086.046.157.153.157.238 0 .085.08.223.18.308a.866.866 0 0 1 .232.421c.03.148.121.317.204.376.182.13.8 1.261.802 1.466.001.119.017.123.08.025.056-.09.094-.041.14.177.036.164.123.366.195.447.154.175.353.516.788 1.351.175.337.373.666.438.732.065.065.169.258.23.428.062.17.141.309.177.309.036 0 .116.14.177.31.062.17.138.31.17.31.03 0 .104.16.163.357.059.196.145.333.191.304.047-.028.084.006.084.078 0 .071.14.376.31.678.17.302.31.585.31.629 0 .044.054.08.119.08.144 0 .324.37.324.668 0 .12.042.217.093.217.052 0 .135.12.186.266.051.146.129.266.173.266.044 0 .08.053.08.119 0 .11.527 1.255.719 1.564.045.073.183.332.305.576.123.243.258.502.3.575.04.073.146.313.233.532.088.219.21.46.274.537.063.076.125.281.138.456.013.175.054.3.09.277.038-.023.092.03.122.12.109.32.417.96.526 1.09.061.073.176.358.256.633.08.275.222.662.318.86.095.197.173.407.173.467 0 .059.056.17.124.247.068.077.165.28.214.45.143.492.799 2.214 1.038 2.726.12.257.219.53.219.608 0 .078.075.286.167.463.093.177.3.74.46 1.252.16.512.363 1.036.451 1.165.09.13.162.302.162.382 0 .081.057.334.126.562.07.229.194.655.275.947.082.292.202.651.267.797.24.542.572 1.468.572 1.596 0 .072.04.132.088.132.049 0 .089.08.089.18 0 .201.305 1.223.488 1.635.065.146.201.582.302.967.1.386.235.764.298.842.063.077.167.3.23.494.2.62.471 1.319.642 1.651.091.177.166.373.166.436s.051.177.114.254c.063.077.166.299.23.494.232.72.641 1.646.891 2.017.142.21.287.5.322.643.035.145.09.283.123.307.033.024.15.244.26.487.11.244.29.623.402.842.112.219.231.528.266.686.034.158.115.317.179.354.064.037.19.213.28.391l.586 1.138c.232.448.421.866.421.93 0 .062.058.136.128.163.07.027.155.19.187.364.033.174.096.338.14.366.099.06.697 1.235.697 1.367 0 .088.334.61.453.707.03.024.085.144.122.266.038.121.163.418.278.658.115.24.21.475.21.521 0 .068.569 1.234.891 1.827.263.482 1.766 3.646 1.766 3.716 0 .047.05.14.11.206.155.168.333.491.333.604 0 .052.1.241.221.42.122.18.223.387.225.46.001.075.103.335.225.578.123.244.305.656.405.916.1.26.31.699.464.975.154.275.557 1.059.894 1.74.337.683.685 1.336.773 1.452.087.116.159.28.159.366 0 .085.057.202.127.26.07.058.153.222.184.365s.094.26.139.26c.045 0 .081.057.081.128 0 .07.121.34.27.598.147.258.31.569.363.69.053.122.147.322.21.444.296.57.404.794.656 1.351.148.33.294.697.324.816a.7.7 0 0 0 .179.32c.068.057.124.157.124.222s.121.31.269.543c.148.233.349.683.446 1 .098.316.27.716.385.888.113.173.235.444.27.603.035.16.223.716.417 1.237.722 1.933.955 2.637.957 2.88.001.137.046.33.099.43.27.506.79 3.021.976 4.723.048.439.122.877.165.975.044.097.102.595.13 1.107.028.511.09 1.568.138 2.347.18 2.919.199 5.243.057 6.776-.075.804-.162 1.94-.195 2.525a99.51 99.51 0 0 1-.081 1.328c-.086 1.075-.162 1.721-.23 1.95-.11.37-.324 2.147-.444 3.675-.204 2.6-.24 2.983-.343 3.72-.408 2.918-.502 11.315-.147 13.051.079.382.143.91.143 1.175 0 .264.036.55.08.634.098.186.319 1.17.45 2.003.053.335.15.714.214.842.065.128.17.451.235.72.065.267.23.737.366 1.042.137.306.25.645.25.753 0 .109.099.397.218.64.12.244.22.51.221.592a.466.466 0 0 0 .114.266c.06.064.163.276.228.47.17.51.36.915.46.977.048.029.087.11.087.179 0 .07.134.336.297.593.164.256.325.552.358.658.033.105.118.24.19.298.07.06.129.16.129.226 0 .065.1.265.221.444.122.18.222.422.222.538 0 .117.057.234.126.26.07.027.191.213.271.413.08.2.236.47.346.601.11.13.252.363.315.515.063.153.15.278.193.278.042 0 .078.06.078.133 0 .073.033.133.074.133.04 0 .122.09.182.199l.257.478c.422.781 1.524 1.613 2.194 1.656.165.01.35.068.409.127.059.06.16.108.223.108s.115.04.115.087c0 .053.077.057.204.009.112-.043.262-.047.332-.008.165.089 1.515.274 2.033.279l1.607.018c1.43.017 1.513-.024 1.675-.815.057-.275.134-.54.172-.588.037-.049.095-.215.128-.369s.118-.303.188-.33c.07-.026.127-.143.127-.26 0-.116.098-.346.217-.512.12-.165.322-.51.45-.766.127-.255.289-.465.358-.465.07 0 .127-.05.127-.113 0-.062.11-.22.243-.35.134-.13.309-.304.388-.385.079-.081.218-.216.31-.298a6.01 6.01 0 0 0 .422-.454c.141-.167.35-.406.465-.53.2-.217.403-.984.533-2.01.027-.208.084-.377.128-.377.043 0 .08-.137.08-.305 0-.167.04-.33.088-.36.049-.03.088-.149.088-.265 0-.116.036-.233.079-.26.043-.026.106-.277.142-.558.035-.28.119-.618.187-.75.068-.131.124-.341.124-.466a1 1 0 0 1 .079-.381c.079-.154.432-1.305.63-2.058.059-.22.144-.445.19-.501.046-.057.12-.296.163-.532.175-.942.273-1.311.397-1.501.215-.328.501-1.536.544-2.294.152-2.699.111-4.377-.133-5.447-.096-.422-.308-1.773-.503-3.212-.065-.475-.14-.9-.166-.943-.083-.134-.254-2.914-.248-4.039.004-.939.21-2.686.463-3.941l.184-.93c.057-.293.159-.595.226-.672a.609.609 0 0 0 .122-.346c0-.114.028-.18.06-.147.034.033.171-.322.305-.789.134-.467.351-1.055.483-1.307.131-.251.37-.77.532-1.151.16-.382.394-.828.519-.991a7.27 7.27 0 0 0 .514-.858c.16-.308.397-.701.528-.873.132-.171.315-.481.408-.689.093-.207.274-.505.403-.662.38-.46.91-1.328.975-1.59.033-.134.218-.489.412-.789.195-.3.353-.582.353-.626 0-.043.16-.314.355-.601.194-.287.354-.542.354-.566 0-.025.113-.217.25-.426.139-.21.306-.52.373-.691.067-.17.273-.503.458-.739.185-.235.336-.485.336-.554 0-.117.163-.464.266-.567.098-.098.483-.976.756-1.727.16-.439.454-1.216.654-1.728l.362-.93-.005-1.659c-.004-1.21.03-1.785.125-2.126.136-.483.231-.924.423-1.956.078-.423.161-.631.278-.694.264-.14.371-.04.5.468.142.567.256.807.354.746.13-.08.335.249.532.851.106.325.248.611.314.637.066.025.174.156.239.29a.61.61 0 0 0 .4.317c.181.046.303.144.339.27.124.443.246.681.322.634.088-.054.422.304.427.458.002.052.103.188.225.303.121.114.221.295.221.4 0 .21.31.593.556.687.084.032.153.12.153.194 0 .075.06.136.135.136.075 0 .163.07.195.155.033.085.147.283.253.44.174.256.194.409.206 1.535.016 1.55-.085 2.125-.534 3.04-.515 1.052-1.074 2.057-1.252 2.25-.085.092-.155.214-.155.271 0 .057-.04.104-.088.104-.048 0-.158.134-.243.298-.587 1.122-.78 1.46-.97 1.695-.119.146-.453.584-.744.974a23.6 23.6 0 0 1-1.72 2.039l-1.217 1.275c-.524.547-.952 1.05-.952 1.118 0 .067-.15.276-.333.463a3.627 3.627 0 0 0-.507.668c-.096.18-.2.328-.23.328-.029 0-.167.229-.305.509-.139.28-.325.615-.413.744-.089.13-.161.314-.161.41a.43.43 0 0 1-.138.29c-.076.062-.194.247-.261.409-.068.162-.162.295-.21.295-.047 0-.113.13-.145.288a4.371 4.371 0 0 1-.263.73c-.401.879-.484 1.246-.67 2.968-.106.987-.102 3.07.007 3.853.53 3.808.603 4.749.61 7.943.006 2.244-.02 2.91-.128 3.333a7.45 7.45 0 0 0-.172 1.181c-.02.359-.08.872-.133 1.14a28.06 28.06 0 0 0-.178 1.018c-.201 1.322-.899 3.883-1.222 4.482-.141.263-.283.613-.316.777-.032.164-.208.542-.39.84-.514.84-.54.886-.633 1.09a.683.683 0 0 1-.185.25c-.054.034-.16.214-.234.4-.075.188-.193.363-.262.39-.116.044-.398.588-.658 1.271-.06.158-.141.288-.18.288-.04 0-.097.12-.13.266-.032.146-.085.266-.117.266-.116 0-.287.495-.383 1.107-.153.976-.036 2.26.282 3.1.037.097.115.416.174.708.169.848.262.943.91.92.3-.011.647-.073.77-.137.258-.135 1.066-.16 1.066-.034 0 .047.17.08.377.073a44.31 44.31 0 0 1 1.35.003l1.108.013a10.3 10.3 0 0 1 .664.053c.292.03.601.06.686.067.107.008.14.06.105.17-.037.115-.003.157.128.157.098 0 .202.04.232.089.03.049-.007.088-.083.088s-.138.058-.138.127c0 .07-.13.217-.288.328-.158.11-.38.297-.492.415-.173.181-.26.206-.553.159-.279-.045-.384-.02-.526.122a.704.704 0 0 1-.482.178c-.167 0-.36.057-.43.127-.07.069-.269.153-.443.185-.174.033-.338.116-.364.184a.21.21 0 0 1-.184.124c-.074 0-.135.034-.135.076 0 .042-.21.112-.465.156-.455.077-.465.086-.452.37.025.531.116.711.62 1.223.275.28.585.631.688.781.104.15.334.432.512.627.566.62 1.171 1.324 1.4 1.628.267.355.28.366.861.791.255.186.823.68 1.262 1.098.44.418 1.108.97 1.486 1.227 1.98 1.348 2.363 1.59 2.517 1.59.093 0 .191.06.22.132.027.073.1.133.16.133s.183.081.273.18c.09.1.212.162.273.139.06-.024.154.01.208.076.054.065.475.306.936.535.461.228.861.452.889.497.028.045.085.06.127.034.043-.026.215.073.383.22.167.147.335.268.372.268.11 0 2.011.9 2.08.985.023.03.171.083.327.117.157.034.438.136.627.227.188.09.455.194.595.229.139.035.421.177.627.315.205.14.41.253.456.253.045 0 .176.1.29.221.152.162.3.222.55.222.211 0 .36.047.39.124a.354.354 0 0 0 .196.174c.082.028.208.088.281.134.143.09.6.294 1.003.447.136.052.394.21.574.35.18.142.487.307.682.368.195.06.57.225.832.364.275.145.615.253.802.253.179 0 .403.059.497.13a.678.678 0 0 0 .32.133c.081.002.16.033.177.07.053.12.727.44 1.358.647.341.111.72.267.842.347.121.08.64.279 1.151.441.512.163.978.333 1.037.379.059.045.141.061.183.035.043-.026.194.016.337.094.142.078.558.192.923.253 1.181.199 1.372.245 1.462.35.048.058.427.173.841.256.414.084.958.215 1.209.291.25.077.496.114.546.083.05-.03.106-.007.126.053.023.068.24.112.585.118.398.007.58.05.658.157.098.13.147.133.464.022.327-.114.378-.11.664.063.17.103.33.215.354.248.062.084.792.145.74.061-.023-.037.06-.068.184-.068.127 0 .273.075.333.17.097.156.115.159.212.026.09-.123.128-.127.25-.025.1.083.29.104.62.07.261-.027.51-.016.552.025.087.084 2.602.349 3.256.343.238-.002.457.033.487.079a.86.86 0 0 0 .253.187c.152.08.2.08.2.001 0-.075.164-.086.597-.041 1.379.143 3.093-.003 3.59-.306.157-.096.35-.175.43-.175.079 0 .193-.06.254-.133.06-.073.2-.133.31-.133.126 0 .218-.066.247-.177a.237.237 0 0 1 .217-.177c.184 0 .555-.344.555-.515 0-.058.057-.105.127-.105s.15-.075.18-.167c.029-.092.216-.301.415-.465.2-.164.426-.368.504-.453.078-.085.175-.155.216-.155.108 0 1.116-1.081 1.176-1.262.028-.086.1-.155.158-.155.06 0 .165-.08.235-.178.07-.097.172-.177.226-.177.055 0 .151-.098.216-.218.064-.12.28-.325.48-.454.41-.266 1.112-.999 1.114-1.163.001-.06.056-.087.122-.062.074.029.162-.055.23-.218.069-.167.155-.247.233-.217.068.026.148-.016.178-.093.03-.078.204-.252.386-.386.183-.135.74-.623 1.237-1.086.497-.463.982-.878 1.076-.922.094-.043.171-.11.171-.145 0-.037.21-.2.465-.362a9.834 9.834 0 0 0 1.013-.785c.814-.725 1.272-1.103 1.383-1.143.054-.02.178-.11.274-.2.097-.09.242-.163.323-.163.08 0 .354-.2.608-.443.254-.244.518-.443.587-.443.068 0 .167-.08.22-.177.051-.098.172-.177.268-.177.096 0 .174-.037.174-.082 0-.045.15-.172.332-.284.183-.11.384-.274.448-.361a.416.416 0 0 1 .293-.16c.101 0 .4-.229.692-.53.286-.297.59-.532.688-.532.096 0 .224-.094.286-.208.06-.114.273-.28.47-.366.199-.088.544-.337.768-.554.224-.217.637-.505.917-.641s.574-.3.652-.365c.183-.152.433-.3.881-.518.198-.097.43-.252.514-.346.084-.093.31-.195.5-.225.191-.03.494-.155.673-.276.179-.122.398-.221.487-.221.09 0 .202-.075.251-.167.05-.092.2-.194.335-.227.35-.085 1.318-.564 1.441-.713.057-.068.24-.17.407-.224.166-.055.303-.132.303-.171 0-.039.196-.155.435-.258.24-.103.449-.218.465-.255.016-.037.259-.176.54-.31.28-.133.508-.282.508-.332 0-.049.043-.09.094-.09.19 0 .846-.346 1.016-.535.096-.108.484-.431.861-.72.378-.288.687-.557.687-.599 0-.04.09-.097.2-.125.11-.028.271-.17.358-.317.086-.147.295-.413.464-.592.168-.178.308-.349.31-.379.003-.03.183-.233.4-.452a4.27 4.27 0 0 0 .653-.906c.14-.279.34-.613.441-.743.102-.13.185-.268.185-.308 0-.04.112-.243.248-.453.254-.39.717-1.44.908-2.053.058-.19.2-.484.317-.655.116-.17.21-.415.21-.544 0-.129.062-.32.136-.428.075-.106.127-.328.116-.492a1.465 1.465 0 0 1 .127-.608c.165-.347.58-1.926.642-2.441.022-.184.077-.514.122-.733a16.49 16.49 0 0 0 .315-2.702c.025-.584.084-1.282.132-1.55.198-1.113.086-5.27-.168-6.243-.09-.342-.21-.96-.269-1.374-.118-.841-.984-3.163-1.238-3.32-.044-.027-.183-.258-.309-.513a16.7 16.7 0 0 0-.47-.878 36.239 36.239 0 0 1-.45-.798 3.711 3.711 0 0 0-.367-.559c-.088-.097-.284-.426-.436-.73-.152-.305-.31-.554-.351-.554-.041 0-.327-.387-.635-.86-.308-.474-.683-.99-.832-1.147a9.07 9.07 0 0 1-.626-.78 14.664 14.664 0 0 0-.56-.737 2.86 2.86 0 0 1-.353-.573c-.081-.182-.177-.332-.212-.332-.11 0-.54-.461-.993-1.063a8.776 8.776 0 0 0-.759-.886 3.588 3.588 0 0 1-.567-.753 5.3 5.3 0 0 0-.548-.797 21.88 21.88 0 0 1-.486-.576 41.589 41.589 0 0 0-.753-.882c-.317-.364-.71-.902-.874-1.196-.163-.294-.341-.525-.395-.513-.054.012-.203-.147-.333-.354a4.823 4.823 0 0 0-.442-.598c-.581-.62-.854-.946-.928-1.107-.12-.26-.45-.79-.672-1.077-.748-.968-.835-1.092-1.606-2.289-.345-.536-.689-1.037-.764-1.114-.076-.078-.138-.185-.138-.24 0-.054-.052-.13-.115-.17-.064-.038-.185-.22-.27-.404a2.573 2.573 0 0 0-.335-.532c-.224-.246-.7-.982-.903-1.393-.084-.17-.187-.37-.228-.443a7.035 7.035 0 0 1-.226-.482 6.569 6.569 0 0 0-.443-.798 4.073 4.073 0 0 1-.399-.778c-.058-.183-.155-.362-.216-.399-.161-.098-1.403-3.037-1.509-3.568a2.838 2.838 0 0 0-.14-.485c-.405-.909-.887-3.39-.757-3.906a.696.696 0 0 1 .262-.348c.303-.198.62-.03.763.404.062.187.303.543.536.79.233.25.662.84.954 1.313.292.474.653 1.02.804 1.215.15.195.418.564.596.82s.353.465.389.465c.036 0 .258.299.493.664.236.365.473.664.527.664.055 0 .234.21.399.465.365.566.425.645.697.919.233.234.319.37.675 1.08.13.26.292.494.36.52.068.026.124.088.124.14 0 .05.133.255.296.455.163.2.362.503.443.673.08.17.266.39.413.487.152.101.328.339.41.554.08.207.194.376.255.376.06 0 .16.12.22.268.062.148.16.297.22.332.06.036.215.224.345.419.13.195.353.514.495.709.142.194.28.438.306.54.027.103.191.342.366.532s.474.584.665.876c.19.293.443.631.56.753a4.4 4.4 0 0 1 .443.595c.126.205.35.461.495.57.147.107.288.264.315.348.026.084.224.341.44.573.215.23.45.544.523.695a1.6 1.6 0 0 0 .291.419c.089.078.28.29.426.468.147.179.455.53.687.779.231.25.42.507.42.572a.12.12 0 0 0 .123.119c.067 0 .17.118.23.263.06.145.195.36.3.477.338.38.72.866.765.973.024.057.137.204.25.325.406.436.947 1.203 1.139 1.613.107.23.39.653.629.94.239.287.547.766.685 1.065.138.3.276.544.307.544.132 0 .447.378.499.6.058.249.593 1.123.742 1.216.047.028.31.499.584 1.045.274.545.693 1.311.93 1.7.238.39.478.809.534.93.207.45.618 1.29.696 1.418.223.37.67 1.488.833 2.082.067.243.222.781.346 1.195.417 1.402.66 2.61.87 4.34.155 1.266.187 1.957.204 4.43.02 2.808-.061 4.802-.248 6.065-.079.535-.18 1.363-.225 1.84-.052.555-.148 1.007-.265 1.249-.101.208-.184.5-.184.648 0 .254-.1.653-.265 1.048-.04.098-.114.337-.162.532s-.174.653-.279 1.018a89.67 89.67 0 0 0-.286 1.019c-.053.195-.149.415-.212.49-.064.074-.178.372-.254.66-.143.552-.825 1.994-.942 1.994-.038 0-.093.08-.124.177a.846.846 0 0 1-.167.288c-.06.061-.214.33-.34.6a3.618 3.618 0 0 1-.549.814c-.174.18-.319.379-.32.442-.003.063-.13.195-.282.292-.153.098-.35.306-.437.463-.228.413-.644.821-.838.824-.092.001-.267.14-.389.307-.122.167-.321.34-.443.384-.122.044-.464.314-.76.601-.816.791-1 .92-1.308.92-.215 0-.375.094-.679.396-.219.218-.442.397-.497.399-.055.002-.15.062-.21.135a.428.428 0 0 1-.29.133c-.1 0-.324.11-.5.244a5.947 5.947 0 0 1-1.216.724c-.201.093-.393.212-.426.265-.032.053-.118.096-.19.096-.071 0-.411.16-.755.354-.344.195-.664.354-.712.354-.047 0-.213.095-.368.212-.155.116-.376.24-.49.274-.196.06-.723.375-.962.576-.059.05-.133.09-.165.09-.031 0-.208.12-.393.266-.184.146-.38.265-.437.265-.14 0-.685.391-1.274.916a3.265 3.265 0 0 1-.547.388c-.146.076-.4.262-.564.413l-.446.413c-.082.075-.276.19-.43.253-.155.064-.303.182-.33.262-.027.08-.386.504-.798.943-.412.438-.75.827-.751.865-.002.037-.112.163-.246.28a44.033 44.033 0 0 0-1.96 1.792c-.31.306-.638.58-.73.61a.541.541 0 0 0-.263.232c-.053.098-.272.257-.486.352-.215.094-.431.248-.481.342-.05.093-.236.238-.412.322-.177.084-.34.222-.362.307-.022.084-.16.203-.306.264-.147.06-.464.303-.706.539-.242.235-.467.428-.5.428-.034 0-.465.413-.958.916-.493.503-1.036 1.002-1.208 1.108a1.734 1.734 0 0 0-.457.413c-.08.121-.197.22-.26.22-.065 0-.286.2-.491.443-.206.244-.431.443-.501.443s-.128.035-.128.077c0 .042-.15.177-.332.3-.183.123-.658.537-1.056.92-.399.383-.75.703-.782.71-.093.024-.772.669-1.075 1.02-.153.177-.372.371-.487.432-.115.06-.429.298-.697.528-.268.23-.58.447-.692.482a.555.555 0 0 0-.295.263c-.05.11-.2.263-.332.341a3.002 3.002 0 0 0-.457.351c-.489.47-1.3 1.13-1.388 1.13-.053 0-.348.161-.658.357-1.13.715-1.008.688-3.353.75-1.23.033-1.737.014-2.037-.076a4.358 4.358 0 0 0-.93-.136 9.41 9.41 0 0 1-1.019-.093 11.028 11.028 0 0 0-1.151-.098 34.385 34.385 0 0 1-1.107-.051 116.36 116.36 0 0 0-1.329-.082c-.487-.028-.945-.075-1.019-.105-.14-.059-.887-.206-1.904-.375a9.107 9.107 0 0 1-.93-.2 3.598 3.598 0 0 0-.738-.119c-.305-.014-.491-.079-.644-.223-.16-.15-.305-.197-.56-.182-.213.012-.394-.031-.478-.116a.516.516 0 0 0-.314-.136c-.098 0-.203-.04-.233-.088-.03-.05-.142-.09-.25-.092-.106-.002-.392-.1-.636-.22s-.574-.219-.734-.22c-.16 0-.441-.076-.625-.17a3.011 3.011 0 0 0-.682-.234 1.547 1.547 0 0 1-.562-.229.834.834 0 0 0-.428-.164c-.12 0-.463-.116-.763-.257a17.38 17.38 0 0 0-.945-.408 7.573 7.573 0 0 1-.55-.228.406.406 0 0 0-.288-.026c-.075.029-.136.005-.136-.051 0-.057-.045-.076-.1-.042-.11.068-.059.83.106 1.588.156.717.321 2.895.245 3.233-.038.17-.072.688-.074 1.151-.003.463-.046 1.32-.098 1.905a46.391 46.391 0 0 0-.126 2.32 25.633 25.633 0 0 1-.23 2.569c-.108.721-.188 1.542-.178 1.824.01.281-.04.88-.111 1.328a24.44 24.44 0 0 0-.18 1.392 45.109 45.109 0 0 1-.266 1.993c-.118.78-.26 1.756-.313 2.17a34.11 34.11 0 0 1-.219 1.417l-.265 1.45c-.108.586-.12.816-.045.906.075.09.068.151-.027.246-.15.151-.488 1.421-.544 2.049-.022.243-.103.562-.18.708-.077.147-.14.327-.14.402-.001.214-.3.984-.514 1.326-.108.17-.195.376-.195.457 0 .082-.133.23-.294.33-.162.1-.347.28-.411.4-.148.277-.24.31-1.014.375-.591.05-.644.039-.877-.18zm23.12-35.45c-.029-.03-.105-.033-.169-.007-.07.028-.05.049.054.053.093.004.145-.017.116-.046zM10.783 68.78c0-.168-.04-.305-.089-.305-.049 0-.089.162-.089.36 0 .217.036.338.089.305.049-.03.089-.192.089-.36zm58.88-48.278c-.03-.03-.107-.033-.17-.008-.071.029-.05.05.053.054.093.003.146-.017.116-.047zm23.78 251.258c0-.17.019-.24.041-.155a.728.728 0 0 1 0 .31c-.022.086-.04.016-.04-.155zm25.384-66.833c-.026-.027-.562-.06-1.189-.074-1.51-.034-2.557-.112-3.045-.225a4.44 4.44 0 0 0-.814-.095c-.229-.001-.438-.038-.464-.08-.027-.044-.318-.128-.648-.187-.33-.06-.758-.181-.953-.271-.453-.209-1.674-.616-1.846-.616-.073 0-.245-.057-.383-.125-.482-.241-.785-.351-1.043-.38a.947.947 0 0 1-.464-.218.932.932 0 0 0-.453-.219c-.307-.033-.872-.263-.948-.385-.03-.05-.173-.09-.317-.09-.145 0-.42-.1-.613-.222s-.432-.221-.531-.221c-.099 0-.374-.137-.612-.304a12.968 12.968 0 0 0-1.261-.722c-.707-.357-.92-.423-1.441-.448-.35-.017-.7-.087-.817-.164a.856.856 0 0 0-.384-.134c-.1 0-.18-.047-.18-.104 0-.057-.12-.207-.268-.332-.207-.177-.284-.337-.345-.715l-.18-1.107c-.084-.519-.077-.722.044-1.24.259-1.109.257-1.228-.035-2.061-.304-.871-.51-2.427-.422-3.183.062-.527.265-1.352.392-1.593.176-.336.21-.89.072-1.158-.125-.241-.174-.262-.671-.277-.32-.01-.536.021-.536.075 0 .127-.503.114-1.405-.036a260.23 260.23 0 0 0-1.425-.232c-.363-.058-.714-.16-.781-.227-.067-.067-.25-.122-.406-.122a.955.955 0 0 1-.459-.12c-.096-.067-.374-.147-.617-.178-1.473-.187-1.435-.175-1.81-.58a4.85 4.85 0 0 1-.595-.838c-.227-.425-.242-.526-.247-1.606-.008-1.501.188-2.084 1.168-3.488.207-.297.376-.558.376-.58 0-.023.12-.219.266-.435.146-.217.266-.428.266-.47.002-.349.966-.892 1.257-.709.098.062.232.044.45-.06.172-.081.379-.148.46-.148a.899.899 0 0 0 .34-.103c.383-.205 1.535-.151 3.322.154.162.028.341.01.399-.037.07-.058.353-.042.843.049.932.171 1.437.513 1.552 1.048.108.506.302.924.458.984.153.058.905-.238 1.38-.545.175-.113.494-.256.708-.317.215-.061.51-.198.656-.305.146-.107.365-.223.487-.26.122-.036.369-.181.548-.323.18-.14.368-.256.419-.256.119 0 .917-.543 1.008-.687.122-.19.61-.396.986-.416.198-.01.62-.14.936-.286a12.55 12.55 0 0 1 1.24-.476c.366-.116.71-.263.766-.327.055-.065.34-.157.635-.204a4.605 4.605 0 0 0 1.006-.306c.26-.12.597-.22.75-.22.152-.001.322-.056.377-.123.09-.108.686-.242 1.219-.274a.639.639 0 0 0 .318-.117c.07-.058.15-.084.177-.056.028.027.212-.033.41-.134.197-.1.51-.185.694-.187a2.5 2.5 0 0 0 .69-.132c.195-.07.425-.128.51-.129a.841.841 0 0 0 .31-.079c.444-.224.839-.357 1.228-.413.238-.034.472-.092.521-.128.049-.036.437-.089.863-.117.426-.029.905-.113 1.063-.186.173-.08.678-.154 1.258-.184.728-.036 1.01-.085 1.132-.196.142-.13.216-.134.594-.037.279.072.49.082.596.029.09-.045.286-.146.436-.224.249-.129.285-.129.413 0 .128.128.163.124.399-.044.16-.114.332-.165.45-.134a.422.422 0 0 0 .335-.068c.12-.1.16-.094.253.034.137.187.277.195.345.019.063-.165.315-.171.546-.013.132.09.371.105.972.061.438-.032.937-.026 1.107.012.17.038.58.07.91.07.329.002.668.039.752.083.085.044.333.128.553.186a5.7 5.7 0 0 1 .762.275c.2.092.42.168.487.169.715.007 3.534 1.663 3.534 2.075 0 .077.349.488.775.914.589.588.857.939 1.117 1.458.189.377.394.727.457.779a.648.648 0 0 1 .163.293c.028.109.215.317.417.461.727.521 1.296 1.067 1.497 1.437.112.207.234.376.27.376.036 0 .114.118.174.262.06.143.197.32.306.39.132.087.262.347.39.78.105.357.248.83.317 1.048.14.443.043 1.344-.171 1.595a.78.78 0 0 0-.146.31c-.018.103-.115.189-.23.205a.536.536 0 0 0-.309.177c-.21.28-.657.46-1.149.46h-.478l-.633-.698c-.348-.383-.723-.883-.833-1.11-.118-.243-.275-.43-.381-.455-.382-.087-2.073-.331-2.749-.396a9.028 9.028 0 0 1-1.099-.17c-.215-.056-.713-.117-1.107-.136-1.503-.07-2.32-.14-2.577-.221-.255-.08-.732-.11-3.898-.246-2.27-.097-5.303-.045-5.953.102-.156.036-.346.03-.422-.012-.152-.085-1.702.11-1.857.234-.132.105-1.611.302-1.832.244-.114-.03-.344.051-.605.212-.24.147-.61.283-.855.313-.239.03-.541.129-.673.221-.132.093-.277.169-.322.169-.163 0-1.123.462-1.185.57-.035.062-.254.183-.487.27-.233.088-.495.234-.582.324-.087.09-.196.164-.24.164-.046 0-.214.112-.374.25-.52.445-1.136.748-1.523.75-1.144.005-1.842-.26-2.736-1.042-.426-.373-.445-.38-.724-.263-.306.128-1.6.885-2.04 1.194-.683.48-1.44.883-1.658.883-.201 0-.757.356-.824.528-.028.07-.002.293.057.493.104.353.128.37.735.554 1.327.4 5.242.603 10.902.565 1.805-.012 3.731.036 4.705.118.57.048.825.039.869-.032.086-.14.67-.123.937.027.122.069.38.21.576.312.194.103.493.263.664.357.17.093.377.171.46.174.082.003.174.044.204.093.03.048.144.088.254.088a.49.49 0 0 1 .301.103c.118.118.688.151 2.78.163 2.05.011 4.032-.2 4.392-.47.06-.045.208-.057.327-.027.12.03.24.018.268-.027.053-.086.449-.165 1.133-.225.231-.02.463-.064.516-.096.053-.033.203-.073.333-.089.76-.094 1.617-.23 1.964-.314.385-.092 2.235-.318 3.145-.383.243-.017.9-.079 1.461-.136.56-.058 1.278-.083 1.595-.056.316.027.68.051.81.054a.63.63 0 0 1 .39.179c.085.095.2.174.253.175.053.001.213.121.355.266.142.145.293.263.335.263.083 0 .578.432.945.826.128.137.363.373.521.525.158.152.288.313.288.357 0 .045.056.207.125.36.444.992.627 1.915.405 2.052-.05.03-.17.212-.267.404-.108.21-.241.348-.337.348-.088 0-.39.218-.671.484s-.697.59-.924.722a8.359 8.359 0 0 0-.723.475c-.17.13-.45.29-.62.355-.17.065-.41.209-.531.32-.231.21-1.115.653-1.307.655-.06 0-.11.036-.11.08 0 .043-.148.106-.329.14-.18.034-.44.156-.578.272a1.428 1.428 0 0 1-.58.265c-.18.03-.389.078-.462.106a2.693 2.693 0 0 1-.512.083 3.38 3.38 0 0 0-.752.172 2.816 2.816 0 0 1-.685.159c-.17.009-.41.072-.531.14-.122.067-.401.125-.62.128-.446.006-.42-.075-.3.94.039.32 0 .506-.187.901-.249.525-.404.65-.649.522-.082-.042-.275-.058-.429-.035-.222.034-.3.003-.383-.15-.18-.335-.576-.433-1.418-.35-.986.097-1.228.16-1.329.348-.06.112-.244.173-.656.217-.334.036-.619.117-.683.194-.06.073-.22.19-.356.26-.135.07-.345.226-.466.347-.128.128-.277.199-.355.169-.074-.029-.363.071-.641.222-.278.15-.557.274-.62.274-.063 0-.154.075-.203.167-.059.11-.234.188-.513.23a3.7 3.7 0 0 0-.815.24c-.215.098-.534.18-.708.18a2.051 2.051 0 0 0-.685.172c-.202.093-.56.19-.797.215-.236.025-.708.08-1.05.123-.34.042-1.122.076-1.736.074-.615-.002-1.196.021-1.291.051-.096.03-.196.034-.223.006zm5.675-33.499c-.17-.136-.567-.523-.88-.86-.314-.337-.682-.731-.82-.876-.137-.145-.329-.475-.425-.734-.097-.258-.294-.596-.437-.75-.144-.153-.261-.334-.261-.402s-.04-.124-.09-.124c-.05 0-.126-.09-.168-.199-.152-.394-.542-1.179-.715-1.44-.215-.322-.185-.247-.532-1.328-.157-.487-.4-1.105-.54-1.373-.639-1.222-.967-1.947-.968-2.139-.001-.114-.145-.547-.32-.961a12.097 12.097 0 0 1-.477-1.373 18.87 18.87 0 0 0-.376-1.24c-.12-.341-.27-.8-.334-1.019a6.39 6.39 0 0 0-.337-.841c-.154-.31-.232-.642-.26-1.107-.049-.78-.179-.992-.562-.915-.147.03-.311.005-.388-.06-.106-.087-.133-.087-.133 0 0 .077-.063.068-.219-.034-.213-.14-.463-.212-.78-.225-.087-.004-.22-.142-.304-.317-.137-.288-.292-.411-.292-.233 0 .043-.159.098-.352.124-.339.046-.854-.13-1.1-.377-.049-.05-.178-.09-.288-.09-.109 0-.223-.04-.253-.088-.03-.049-.13-.088-.224-.088-.154 0-.539-.15-1.294-.507a2.087 2.087 0 0 0-.62-.155c-.646-.046-2.417-.899-2.422-1.166 0-.056-.15-.13-.33-.163a2.513 2.513 0 0 1-.572-.187 1.213 1.213 0 0 0-.446-.127c-.112-.001-.303-.08-.425-.175-.122-.095-.509-.259-.86-.364-.35-.105-.71-.26-.8-.343-.235-.218-.597-.296-1.352-.29-2.691.025-2.56.014-2.875.221a1.65 1.65 0 0 0-.44.435c-.106.18-.254.262-.601.336-.254.055-.527.159-.608.232-.184.166-1.212.341-1.353.23a1.88 1.88 0 0 0-.412-.184c-.17-.057-.479-.253-.686-.434-.492-.433-.688-1.065-.683-2.205.002-.69.03-.847.182-1.019.343-.387.654-1.12.597-1.403-.059-.295-.149-.376-.468-.42-.12-.016-.316-.13-.438-.251-.134-.133-.287-.205-.384-.18-.098.026-.268-.053-.426-.198-.146-.133-.553-.333-.906-.445a3.977 3.977 0 0 1-1.12-.57 30.304 30.304 0 0 0-.865-.639c-.213-.149-.456-.398-.54-.554-.148-.273-.47-.693-.884-1.15-.11-.121-.2-.27-.2-.329s-.07-.203-.157-.319c-.221-.297-.348-.722-.457-1.526-.076-.557-.07-.75.029-.974.067-.154.174-.415.237-.58.063-.165.267-.502.453-.75s.339-.52.339-.604c0-.162.449-.641 1.02-1.092.186-.146.53-.445.764-.664.589-.55.926-.8 1.132-.84a3.98 3.98 0 0 0 .59-.217c.228-.1.5-.183.606-.183.106 0 .3-.05.431-.11.193-.09.239-.171.24-.426 0-.35.133-.538.326-.464.185.07.813-.238.874-.43.028-.09.09-.164.135-.164.045 0 .082-.059.082-.13 0-.071.148-.23.328-.352.29-.198.343-.208.472-.092.22.198.263.162.263-.218 0-.385.117-.52.312-.358.103.085.259-.014.837-.537.391-.353.711-.676.711-.718 0-.13.96-1.05 1.095-1.05.07 0 .368-.24.663-.531.294-.293.574-.532.622-.532.048 0 .142-.05.207-.11.066-.061.239-.178.383-.26.37-.21.383-.668.056-1.99-.32-1.295-.418-1.802-.542-2.822-.12-.981-.119-.853-.011-1.594.05-.341.092-.919.095-1.284.003-.366.046-.944.098-1.285.05-.34.09-1.078.087-1.638-.003-.56.034-1.577.083-2.26.26-3.629.265-10.392.01-11.78-.055-.292-.162-1.209-.239-2.037-.233-2.518-.278-2.924-.342-3.126-.034-.107-.096-.584-.139-1.059a25.861 25.861 0 0 0-.169-1.44c-.156-.977-.34-2.713-.54-5.093a17.579 17.579 0 0 0-.177-1.461c-.053-.268-.117-.946-.143-1.506a24.126 24.126 0 0 0-.27-2.348 460.4 460.4 0 0 1-.78-4.827c-.072-.463-.296-1.48-.498-2.259-.404-1.561-.54-2.247-.47-2.36.102-.167.386-.058.625.238.139.172.5.58.803.907.595.644 1.112 1.378 1.32 1.876.073.173.225.413.34.535.308.33.579.815.579 1.042 0 .11.08.268.177.352.098.083.178.199.178.257 0 .058.1.304.221.547.122.242.221.48.221.527 0 .047.075.18.167.297.091.117.27.53.395.92s.327.987.447 1.328c.12.341.265.86.322 1.152.057.292.14.69.184.886.215.951.347 2.236.44 4.296.144 3.197.424 7.332.572 8.459.026.195.107.892.18 1.55s.173 1.455.223 1.771c.107.69.228 2.164.344 4.2.046.824.124 1.78.172 2.126.229 1.656.302 4.324.199 7.222a345.799 345.799 0 0 0-.15 6.116 233.11 233.11 0 0 1-.115 4.888l-.07 1.654-.319.389c-.377.46-.91.675-1.24.5-.327-.174-.787-.543-1.146-.92-.393-.413-.379-.424-.782.576-.147.365-.343.823-.434 1.018-.32.686-.54 1.195-.54 1.254 0 .056-.365.406-.755.726a2.61 2.61 0 0 0-.377.426 8.427 8.427 0 0 1-.657.753c-.252.26-.675.732-.94 1.049-.265.316-.546.636-.626.711-.328.31-.898 1.06-1.016 1.338-.593 1.405-.61 2.513-.052 3.393.143.225.26.47.26.545 0 .174.527.656.718.656.08 0 .292.178.47.395.19.232.373.375.444.348.135-.052.157-.03.707.72.349.476 1.221 1.31 1.401 1.338l.14.022c.04.006.162.225.27.486.192.464.633 1.147.633.982.001-.169.325.464.524 1.024.225.632.42.89.892 1.172.171.103.383.26.47.349.087.089.24.162.341.162.101 0 .429.117.728.26.3.142.844.358 1.209.478 1.068.351 1.715.586 1.891.687.091.052.25.11.355.13.53.1.676.149.676.223 0 .045.11.083.244.084.134 0 .477.098.762.215.285.117.569.194.63.17.062-.024.138.022.168.1.038.1.113.127.237.087.107-.034.27 0 .396.083.118.077.285.14.372.139.087-.001.437.057.779.129 1.462.307 2.01.403 2.075.363.038-.024.464.02.946.096 1.823.288 6.436.231 8.788-.109.326-.047.403-.027.515.132.11.157.192.18.502.138a17.745 17.745 0 0 0 2.117-.454 5.17 5.17 0 0 1 .943-.168c.532-.04 1.106-.225 1.208-.39.03-.05.123-.09.206-.09.083 0 .33-.094.548-.21.22-.114.577-.236.794-.27.218-.033.417-.09.443-.127.026-.037.297-.24.602-.453.689-.478.973-.894.83-1.21a1.1 1.1 0 0 1-.1-.348c0-.071-.1-.336-.222-.588-.122-.253-.221-.492-.221-.533 0-.04-.178-.44-.394-.89-.406-.844-.897-2.247-.993-2.836-.03-.184-.088-.356-.13-.382-.043-.026-.078-.14-.078-.253 0-.113-.06-.351-.135-.53-.075-.178-.173-.631-.218-1.007a51.242 51.242 0 0 0-.266-1.79c-.228-1.373-.27-3.489-.114-5.713.246-3.512.245-3.352.028-3.824-.28-.612-.471-1.074-.563-1.367-.072-.23.114-.935.288-1.093.23-.207 1.023-.48 1.168-.402.067.037.292.095.5.13 1.178.193 2.01 1.861 1.786 3.576-.179 1.362.116 9.768.352 10.057.044.054.146.377.227.718.17.71.282 1.059.442 1.373.062.121.14.336.174.475a.94.94 0 0 0 .18.375c.067.066.15.29.185.499.07.419.264.855.935 2.105.249.463.515 1.001.592 1.196.077.195.225.494.33.664.248.407.957 2.175 1.2 2.996.15.503.18.76.133 1.151a9.221 9.221 0 0 0-.048 1.066c.01.448-.038.663-.232 1.063-.29.595-.708 1.142-.93 1.212-.087.028-.276.158-.42.29-.855.78-3.215 1.519-4.752 1.487-.43-.009-.778.029-.886.095-.097.06-.496.154-.886.209-.39.055-.842.122-1.005.148-.204.033-.432-.015-.727-.153-.425-.199-.432-.199-.677-.033-.224.152-.398.166-1.798.144-2.102-.033-2.49-.06-2.732-.19a.669.669 0 0 0-.41-.06c-.126.032-.246 0-.313-.08-.114-.138-.431-.17-.775-.077-.337.09-.26.472.178.887.704.668 1.098 1.138 1.2 1.43.054.161.18.395.278.519.098.124.203.362.234.527.031.166.094.301.14.301.046 0 .163.178.259.395.096.217.212.418.258.447.046.028.128.215.181.414.054.2.19.566.301.816.112.249.227.72.256 1.046.028.326.091.665.14.753.19.345.35.794.389 1.09.15 1.148.254 1.88.329 2.305.446 2.54.177 5.158-.533 5.19a1.24 1.24 0 0 0-.36.069c-.087.037-.256-.033-.45-.187zm-.81-21.514c-.03-.03-.106-.033-.17-.007-.07.028-.05.049.054.053.093.004.146-.017.116-.047zm-13.666 19.017c-.65-.352-1.484-1.223-1.842-1.924-.512-1-.749-1.558-.861-2.026-.059-.244-.158-.503-.22-.576-.167-.197-.368-1.094-.437-1.949-.033-.414-.11-.812-.173-.885-.062-.073-.154-.293-.206-.488-.272-1.035-.387-1.406-.51-1.643-.155-.3-.375-2.905-.277-3.293.033-.133.188-.387.343-.564l.282-.321.76.036c.654.031.827.076 1.253.32.28.16.602.437.741.637.135.196.271.355.302.355.101 0 .763.917 1.333 1.846.309.504.618.937.688.964.07.027.25-.042.4-.153.15-.111.347-.206.44-.211.09-.005.194-.05.229-.098.084-.118.802-.488.946-.488.063 0 .162.059.221.13.086.102.071.197-.07.465a2.821 2.821 0 0 0-.23.573.884.884 0 0 1-.188.374c-.076.076-.198.427-.271.782-.094.452-.204.716-.367.888-.233.243-.233.248-.248 1.816-.018 1.982-.135 3.064-.429 3.962-.127.39-.231.758-.231.82 0 .06-.033.111-.074.111-.041 0-.12.1-.176.221-.056.124-.175.222-.27.222-.093 0-.193.06-.22.133-.064.166-.288.154-.638-.036zm11.254-41.285a.63.63 0 0 0-.41-.178c-.193 0-.383-.136-.828-.597-.318-.329-.577-.667-.577-.753 0-.085-.04-.155-.089-.155a.088.088 0 0 1-.088-.088c0-.047-.12-.334-.266-.635-.146-.302-.266-.587-.266-.633 0-.086-.41-.987-.724-1.59a13.412 13.412 0 0 1-.472-1.152 131.83 131.83 0 0 0-.566-1.517 10.227 10.227 0 0 1-.325-.964c-.032-.146-.208-.59-.392-.984-.3-.647-.345-.84-.446-1.928-.102-1.104-.078-5.744.035-6.719.036-.319.078-.897.233-3.277a94.58 94.58 0 0 1 .359-4.252l.264-2.303c.241-2.119.352-2.94.406-3.029.025-.04.08-.382.122-.76.042-.376.138-1.043.214-1.481.215-1.242.388-2.327.496-3.1.132-.945.334-1.948.491-2.436.071-.22.129-.483.128-.585 0-.269.445-2.013.54-2.113.044-.046.08-.17.08-.277 0-.106.057-.33.128-.498.256-.614.483-1.68.5-2.35.021-.849.036-.888.383-1.033.239-.1.298-.189.388-.58a4.19 4.19 0 0 0 .107-.629c0-.12.042-.151.147-.111.116.044.137.017.099-.129-.038-.142-.016-.173.09-.132.1.038.122.013.082-.091-.06-.159.167-.684.297-.684.045 0 .082-.059.082-.13 0-.074-.052-.11-.121-.084-.067.026-.146-.016-.175-.093-.07-.18.168-1.457.39-2.09.094-.272.172-.564.172-.65 0-.224.205-.126.274.13.032.118.038.444.012.724-.025.28-.021.51.008.51.088 0 .329-.914.413-1.568a14.6 14.6 0 0 1 .185-1.073c.08-.352.082-.495.005-.57-.076-.077-.102-.06-.104.07-.004.207-.197.483-.339.483-.055 0-.1-.09-.1-.199.001-.255.214-1.054.338-1.272.086-.152.105-.14.2.129.102.288.108.291.269.131.17-.17.36-.946.281-1.151-.025-.065.004-.118.063-.118.072 0 .095-.109.068-.332-.022-.183-.009-.392.028-.465.314-.622.435-.914.435-1.05 0-.086.119-.27.264-.41.153-.147.32-.443.396-.71.073-.25.218-.533.322-.627.104-.094.38-.41.615-.702.302-.377.577-.607.943-.79a6.26 6.26 0 0 0 .649-.363c.153-.118.449-.226 1.196-.438.292-.083.65-.192.797-.24 1.056-.355 1.874-.454 3.942-.473 1.144-.01 2.11-.004 2.143.015.068.039 6.212.138 6.714.109.17-.01.44-.012.598-.004.38.019.87.024 1.063.012.085-.005.753-.002 1.484.009 1.314.019 2.111-.019 3.808-.18.562-.053.93-.051 1.035.004.106.057.22.055.333-.005.094-.05.403-.092.686-.093.284 0 1.034-.064 1.667-.14.742-.091 1.907-.143 3.277-.145 2.461-.005 2.927.026 4.252.287.536.105 1.114.211 1.284.236.364.053 3.12 1.383 3.48 1.679.135.112.394.226.575.253.182.028.46.092.618.143.159.05.806.106 1.439.124.632.018 1.188.056 1.235.085.047.029.256.013.466-.035.21-.048.8-.108 1.31-.132a25.956 25.956 0 0 0 1.95-.185c.56-.078 1.223-.155 1.474-.17.25-.016.49-.05.531-.075.128-.077 2.386-.191 3.93-.198 1.65-.007 2.072-.07 2.262-.341.118-.168.214-.189.876-.184.408.002.796.049.861.102.066.054.27.126.453.16.64.12.815.658.594 1.824-.098.516.025 1.398.212 1.515.065.042.092.338.077.853l-.023.79-.41.409c-.225.225-.444.41-.487.41a.715.715 0 0 0-.232.077c-.537.273-.994.454-1.145.454-.096 0-.203.028-.238.063-.107.106-.864.28-1.472.337-.317.03-.736.11-.93.176-.465.16-2.246.304-3.853.314-1.705.01-4.498-.162-5.27-.325a30.616 30.616 0 0 0-1.09-.208c-.26-.043-.561-.137-.672-.21a1.491 1.491 0 0 0-.49-.177c-.4-.063-1.476-.891-2.542-1.955-.977-.976-1.292-1.234-1.629-1.333a6.945 6.945 0 0 1-.682-.279c-.797-.369-2.405-.437-6.005-.255-.341.017-.71.058-.82.092-.113.034-.254.016-.324-.043-.07-.058-.146-.068-.175-.023-.095.155-3.327.305-5.9.275-.707-.008-1.723-.011-2.259-.007-.536.005-1.273.006-1.639.003a152.3 152.3 0 0 0-3.41 0c-1.325.019-2.736-.033-2.851-.104-.053-.033-.274-.005-.493.06-.218.066-.452.09-.52.055-.217-.116-1.788-.167-2.38-.077-1.287.195-1.424.244-2.086.743-.355.266-.659.523-.675.57-.016.047-.218.297-.448.555-.851.954-1.538 2.093-1.617 2.684-.032.243-.173.86-.312 1.372a46.04 46.04 0 0 0-.403 1.594c-.082.366-.207.844-.28 1.063-.07.22-.187.638-.258.93-.07.293-.148.611-.172.709-.093.371-.221.993-.302 1.461-.045.268-.144.707-.219.975-.192.69-.177.875.077.972.155.058.334.036.642-.082.235-.09.587-.213.782-.273.195-.06.46-.184.59-.275.151-.106.388-.165.666-.165.238 0 .51-.054.607-.12.096-.066.274-.143.396-.17.122-.029.457-.134.744-.235.288-.101.608-.184.711-.184a.505.505 0 0 0 .33-.165c.115-.134.227-.157.594-.122.345.033.51.005.697-.12.135-.089.365-.17.511-.177.33-.02 1.46-.268 1.993-.44.22-.07.486-.128.592-.128a.53.53 0 0 0 .326-.132c.08-.081.3-.133.56-.134.234-.001.586-.059.781-.13.195-.07.461-.129.592-.13.13-.003.35-.052.487-.11.137-.06.35-.113.471-.12.238-.012 2.327-.347 3.056-.49.244-.047.582-.101.753-.12.17-.018.968-.14 1.771-.27.804-.13 1.721-.25 2.038-.266a4.51 4.51 0 0 0 1.007-.178c.237-.081.616-.16.842-.174.225-.014.485-.057.577-.096.093-.038.277-.029.41.021.156.06.294.061.393.005.18-.1 1.734-.254 2.462-.242.28.004.51-.026.51-.067 0-.04.386-.083.858-.094.472-.01 1.439-.076 2.148-.146.709-.07 1.568-.126 1.91-.124.34.002 1.582-.03 2.758-.072 1.954-.069 2.156-.09 2.335-.252a1.11 1.11 0 0 0 .259-.342c.055-.147.108-.125.499.21.967.828 1.686 1.515 1.854 1.771.098.149.266.293.373.32.108.029.368.257.578.507.867 1.037 1.054 1.478.867 2.044-.113.343-.31.494-.643.494-.115 0-.25.041-.3.092-.051.05-.348.106-.66.124-.313.017-.735.054-.939.082-.446.06-1.446.073-2.642.034-.818-.026-3.958.056-5.549.146-.372.02-.758.081-.857.134-.1.053-.691.134-1.316.18-.624.047-1.275.127-1.445.178a3.29 3.29 0 0 1-.77.093c-.253 0-.485.04-.515.089-.03.049-.182.089-.337.09-.156 0-.478.06-.718.132a3.15 3.15 0 0 1-.735.132c-.166 0-.468.075-.673.166a3.72 3.72 0 0 1-.901.224c-.609.068-.642.09-.72.476-.052.263-.032.296.25.413.168.07.36.195.429.277.067.081.408.34.756.575.348.236.657.49.687.566.029.077.147.182.262.234.115.053.28.214.365.359.085.145.35.498.59.785.639.768.94 1.864.854 3.111-.04.594-.086.756-.264.95a2.024 2.024 0 0 0-.333.545c-.064.17-.143.35-.175.398a3.027 3.027 0 0 0-.171.487c-.063.22-.15.49-.194.602a1.566 1.566 0 0 0-.079.466c0 .143-.036.261-.079.261-.043 0-.104.098-.134.218-.03.12-.223.391-.43.603-.207.211-.545.571-.753.8-.207.23-.42.416-.47.416-.09 0-.619.366-.864.598a.417.417 0 0 1-.237.111c-.066 0-.232.093-.37.207-.138.114-.53.337-.87.494-.341.157-.768.363-.948.457-.18.094-.413.17-.518.17-.104 0-.296.056-.425.124-.392.207-.895.313-1.948.41-1.035.096-2.996.03-3.079-.104-.025-.041-.144-.075-.264-.075a.94.94 0 0 1-.37-.082c-.362-.193-.971-.444-1.218-.5-.146-.033-.385-.169-.531-.301a8.794 8.794 0 0 0-.62-.497c-.387-.28-1.279-1.166-1.598-1.587-.36-.475-.986-1.846-1.113-2.436-.172-.802-.147-2.67.042-3.178.154-.414.186-.872.072-1.05-.052-.083-.147-.068-.396.066-.18.097-.433.176-.56.176-.225 0-1.438.599-1.724.851a.515.515 0 0 1-.283.123c-.078 0-.167.04-.198.089-.03.048-.132.088-.226.088-.095 0-.172.04-.172.09 0 .05-.19.174-.42.277-.232.103-.501.23-.599.282-.447.237-2.136.4-2.765.268-.282-.06-.68-.11-.885-.114-.452-.007-1.898-.718-2.225-1.095-.204-.235-.796-.594-.98-.594-.197 0-.452.542-.548 1.162-.055.36-.154.754-.22.876-.066.121-.18.58-.252 1.018-.072.439-.17 1.017-.218 1.285a16.28 16.28 0 0 0-.136.974c-.068.657-.215 1.49-.417 2.363-.092.398-.168.857-.168 1.019-.001.162-.08.673-.176 1.135-.096.463-.176 1.005-.176 1.205-.001.199-.081.594-.179.877-.4 1.163-.515 2.233-.619 5.758-.112 3.803-.109 8.43.005 8.647.173.325.406 4.645.375 6.942-.011.797-.18 2.436-.29 2.805-.101.345-.438.818-.443.624-.002-.074-.07-.05-.196.066-.24.224-.272.224-.47.004zm-.23-45.38c-.008-.27-.012-.272-.08-.06-.101.318-.101.461 0 .398.05-.03.085-.182.08-.337zm.424-1.987c-.022-.085-.04-.015-.04.155 0 .17.018.24.04.155a.727.727 0 0 0 0-.31zm.233-1.07c-.11-.11-.145-.112-.207-.012-.047.077-.021.158.074.228.2.146.313-.036.133-.215zm.21-.74c-.029-.07-.05-.05-.054.053-.004.094.017.146.047.117.03-.03.032-.106.007-.17zM52.9 115.914a18.57 18.57 0 0 0-.797-.183c-.663-.143-1.722-.423-2.126-.56-.739-.253-1.62-1.006-1.87-1.6-.342-.806-.296-2.537.099-3.711.121-.362.22-.7.22-.752 0-.271.34-.77.742-1.087.442-.35.754-.505 1.207-.605.122-.027.33-.15.462-.273.132-.123.33-.225.443-.225.111-.001.425-.114.696-.252.342-.173.697-.27 1.152-.311.362-.034.671-.1.687-.147.016-.048.288-.087.604-.087s.643-.036.727-.081c.158-.085 1.465-.267 2.316-.323a5.18 5.18 0 0 0 .708-.09c.338-.087.468-.097 3.81-.298.852-.051 1.748-.133 1.992-.181a4.59 4.59 0 0 1 .842-.078c.219.006.857-.036 1.417-.093.56-.058 1.19-.12 1.4-.14.21-.018.598-.079.863-.134.265-.055.556-.076.648-.047.09.029.27.013.398-.036l.233-.088-.184-.467c-.1-.256-.215-.487-.254-.512-.126-.08-.526-1.438-.663-2.245-.116-.686-.116-.828-.003-1.151.07-.203.129-.558.13-.79 0-.41-.006-.42-.268-.42-.147 0-.514.103-.815.23-.455.191-.65.225-1.154.196-.334-.019-.635-.073-.668-.12-.034-.047-.221-.202-.416-.345-.36-.263-.831-.75-.838-.867-.002-.035-.1-.274-.217-.531a4.898 4.898 0 0 1-.304-1l-.205-1.195c-.062-.365-.114-1.282-.116-2.037-.003-1.188.023-1.445.188-1.905.105-.292.239-.71.297-.93.058-.219.141-.458.185-.531.219-.362.293-.647.382-1.46.077-.708.126-.891.244-.914.09-.017.194.067.266.216.11.226.158.243.672.248.304.003.553-.026.553-.065 0-.239.856-1.003 1.228-1.097.31-.078 2.321.156 2.255.263-.095.153 3.428.002 3.827-.165.23-.096.538-.132.965-.114.518.022.626.004.618-.108-.007-.098.056-.126.227-.1.13.018.414-.014.63-.073a6 6 0 0 1 1.041-.135c.357-.016.706-.076.775-.134.07-.057.126-.08.126-.051 0 .029.11.01.244-.042.134-.052.502-.094.818-.093.346.001.601-.04.641-.102.05-.078.067-.076.068.008 0 .085.08.078.333-.03.183-.077.682-.159 1.11-.18.427-.023.882-.08 1.01-.13.13-.049.623-.083 1.098-.075.474.007.898-.008.94-.035.067-.04 2.538-.173 2.95-.158 2.02.074 2.836.108 3.455.143a69.2 69.2 0 0 0 1.756.066l1.004.025-.052-.26c-.074-.368.119-.763.372-.763.148 0 .289.135.532.51.232.358.395.518.551.54.282.04.456.134.963.52.676.515 2.359 2.276 2.528 2.647.087.19.234.496.327.68.185.369.213.73.083 1.073-.102.267-.953.781-1.177.71-.085-.026-.155-.01-.155.038 0 .184-.91.28-2.613.278a378.17 378.17 0 0 0-2.201 0c-.245.001-.542.068-.69.156-.199.118-.277.129-.328.046-.075-.12-.93-.02-1.24.147-.095.05-.541.134-.991.185-.45.05-.863.12-.916.153-.11.068-.126.07-1.03.157-.366.035-.844.125-1.063.2-.22.075-.706.148-1.08.162-.376.014-.76.066-.853.116-.093.05-.603.173-1.133.273-1.983.374-2.427.551-2.426.97 0 .149.847.869 1.284 1.093.146.074.359.261.472.415.113.154.274.307.357.341.307.124.88.88 1.254 1.656.345.717.384.864.388 1.461.003.366-.032.744-.075.842-.044.097-.083.628-.086 1.18-.007 1-.008 1.005-.272 1.245-.332.3-.697.95-.631 1.122.027.07.128.129.224.129s.2.04.23.088c.03.049.122.089.204.09.082 0 .27.065.416.144.146.08.425.21.62.291.478.198 1.018.537 1.018.638 0 .046.07.112.155.147.327.134.812.513.946.74.077.13.379.483.67.785.512.528.532.565.532 1.01 0 .687-.212 1.308-.526 1.54-.145.108-.305.195-.356.195-.05 0-.092.038-.092.083 0 .045-.09.108-.2.14-.382.11-.82.336-.893.461-.055.093-.167.111-.424.068-.223-.038-.396-.021-.476.046-.07.058-.263.118-.429.133a2.319 2.319 0 0 0-.674.219c-.205.104-.5.2-.654.213-.154.013-.44.096-.635.184-.616.28-1.361.49-1.733.49-.099 0-.302.064-.451.141-.308.16-1.014.363-1.81.522-.298.06-.595.142-.66.182a.85.85 0 0 1-.302.092c-1.11.115-2.238.324-2.5.465-.107.058-.386.105-.62.105a7.14 7.14 0 0 0-1.066.122c-.35.066-.656.103-.678.08-.023-.021-.134.01-.247.07a1.637 1.637 0 0 1-.517.14 4.25 4.25 0 0 0-.62.115c-.627.175-3.243.693-4.03.798-.293.04-.642.115-.776.168a1.711 1.711 0 0 1-.576.085c-.551-.02-2.15.194-3.388.453a2.44 2.44 0 0 1-.708.038c-.193-.03-.495.02-.798.127-.268.096-.846.22-1.284.276-.438.055-1.435.199-2.214.318-1.084.167-1.898.228-3.455.26-1.12.022-2.077.027-2.126.01zM73.116 98.44c.038-1.09-.02-1.265-.371-1.106-.127.058-.256.172-.287.253-.076.198.136 1.428.3 1.746.215.416.32.15.358-.893zm61.673 13.696c-1.176-.17-1.57-.237-1.759-.297a2.973 2.973 0 0 0-.483-.093c-.155-.016-.548-.129-.873-.25-.324-.123-.613-.2-.642-.17-.028.028-.052.004-.052-.052 0-.057-.053-.104-.119-.104-.065 0-.19-.08-.28-.177-.087-.097-.23-.177-.315-.177-.357 0-1.82-1.204-2.615-2.154-.51-.607-1.277-1.969-1.277-2.264 0-.424.435-.47 1.042-.112.236.14.547.277.69.307l.543.11c.166.033.457.001.709-.08.235-.074.646-.162.914-.196.268-.033.547-.092.62-.13.073-.038.252-.093.399-.121.433-.084 1.74-.46 2.17-.625a7.31 7.31 0 0 1 1.063-.27c.365-.065.812-.181.993-.259a1.79 1.79 0 0 1 .56-.14c.126 0 .317-.048.423-.106.107-.058.254-.113.327-.122.268-.033 1.027-.242 1.34-.369.178-.072.404-.105.502-.073.1.03.206.015.237-.036.031-.05.13-.092.219-.092s.27-.057.405-.126c.133-.07.447-.154.696-.187.25-.034.494-.088.542-.121.191-.13.804-.299 1.146-.316.198-.01.42-.04.493-.07.446-.175 1.357-.407 1.785-.453a.74.74 0 0 0 .383-.174c.141-.14.387-.186.823-.15.111.009.37-.044.576-.118.206-.074.56-.159.788-.188.228-.03.461-.112.52-.182.076-.092.204-.112.454-.072.277.044.387.019.543-.126.123-.113.36-.196.638-.221a5.97 5.97 0 0 0 .93-.185c.268-.08.839-.206 1.269-.281.43-.076 1.007-.238 1.283-.36.401-.177.544-.203.707-.129.112.051.342.093.511.093.298 0 .377-.025.825-.26.304-.158.968-.366 1.429-.447.219-.039.63-.134.912-.213.282-.078.604-.143.714-.143.11 0 .277-.058.372-.13a.871.871 0 0 1 .437-.134c.321-.005 1.083-.2 1.363-.35.111-.06.257-.24.324-.4.14-.334.375-.4 1.422-.402.476 0 .673.037.81.156.328.284.791 1.272.853 1.817.06.521.19.848.388.976.061.039.11.125.11.192s.095.234.21.372c.115.138.236.35.269.472.033.122.103.367.157.546.125.42.034.768-.229.868-.133.051-.3.273-.462.617-.14.296-.301.538-.359.538-.058 0-.217.158-.354.352-.138.194-.286.353-.331.354-.045.001-.363.177-.709.39-.345.215-.756.417-.914.45-.158.034-.31.099-.337.144-.028.045-.127.081-.22.081s-.382.094-.642.209a4.31 4.31 0 0 1-.908.274c-.24.036-.537.137-.66.223a1.486 1.486 0 0 1-.533.205c-.862.13-1.756.319-1.993.42a3.83 3.83 0 0 1-.665.184l-.963.172c-.31.055-.7.177-.866.27-.166.093-.46.17-.653.17-.202 0-.588.109-.906.256-.304.142-.693.277-.863.302-.592.084-1.54.325-1.63.414-.048.05-.235.09-.415.09-.181 0-.374.059-.436.133-.064.078-.258.133-.469.133-.266 0-.476.08-.81.31-.276.19-.59.326-.804.347-.853.085-1.373.216-1.834.462-.185.098-.286.106-.425.031a.534.534 0 0 0-.378-.03 2.08 2.08 0 0 1-.417.085c-.441.036-1.023.139-1.196.211-.267.113-1.015.277-1.443.317-.21.02-.463.08-.564.134-.1.054-.459.112-.796.128-.337.017-.749.075-.915.13-.193.064-.361.07-.463.018-.09-.046-.388-.052-.69-.013-.66.086-1.53.08-2.17-.013zM27.326 88.64a2.633 2.633 0 0 0-.504-.275c-.38-.12-1.108-1.316-1.204-1.977a.793.793 0 0 0-.112-.31c-.138-.177-.312-1.435-.27-1.947.025-.299.113-.581.233-.75.107-.15.194-.335.194-.413 0-.098.081-.141.265-.141.174 0 .266-.045.266-.13 0-.139.543-.282.701-.185.139.086.716-.044.716-.16 0-.108.67-.444 1.097-.55.14-.035.274-.137.298-.228.033-.125.126-.165.387-.165.19 0 .344-.035.344-.078s.175-.105.39-.137c.282-.042.401-.106.434-.232a.236.236 0 0 1 .23-.173c.103 0 .186-.036.186-.081 0-.045.122-.109.272-.141.15-.033.294-.12.322-.192.038-.098.129-.118.349-.076.263.05.297.033.297-.136 0-.15.04-.181.186-.143.252.066.433-.015.375-.168-.034-.089.02-.126.186-.126a.957.957 0 0 0 .43-.122c.108-.068.342-.149.52-.18.177-.031.371-.115.431-.187s.154-.13.21-.13c.055 0 .25-.08.431-.178.182-.097.456-.177.609-.177.16 0 .338-.07.42-.164.18-.205.7-.478.798-.418.04.025.148-.012.24-.082a.84.84 0 0 1 .39-.14c.167-.01.181-.024.058-.056-.102-.026.128-.14.605-.3.423-.143.83-.32.905-.395a.9.9 0 0 1 .392-.187c.14-.028.255-.089.255-.134 0-.046.042-.057.094-.025.127.079.614-.131.614-.265 0-.059.06-.107.131-.107.207 0 .847-.213 1.326-.441.241-.115.49-.209.554-.209.063 0 .115-.033.115-.074 0-.101.407-.28.647-.283a.74.74 0 0 0 .367-.133.814.814 0 0 1 .42-.13c.137 0 .25-.036.25-.08 0-.044.199-.108.443-.141.266-.037.488-.123.554-.216.103-.146.257-.201.907-.326.394-.075 1.25-.503 1.387-.691.032-.045.331-.114.664-.154.333-.04.646-.126.694-.192.089-.119.465-.254.794-.286.095-.01.188-.062.207-.117.018-.055.11-.1.205-.1.095 0 .48-.116.857-.257a23.13 23.13 0 0 1 1.038-.366c.194-.06.394-.14.443-.178.048-.038.238-.097.42-.13.183-.035.332-.098.332-.142 0-.043.16-.078.355-.078.195 0 .354-.04.354-.089 0-.049.18-.088.399-.088.219 0 .398-.037.398-.08 0-.095 1.013-.452 1.282-.452.102 0 .27-.06.373-.132.104-.072.402-.175.662-.227.26-.053.623-.152.806-.222.182-.07.332-.102.332-.072s.058.007.129-.052c.07-.06.17-.082.221-.05.05.031.18-.006.29-.081.108-.076.263-.138.344-.138.081 0 .322-.079.534-.175.212-.097.513-.176.669-.177.155-.001.31-.046.342-.1.033-.053.162-.077.285-.053.243.046.632-.052 1.008-.254.13-.07.349-.127.487-.127.139 0 .531-.1.872-.22.341-.12.75-.22.908-.22.159-.002.288-.038.288-.08 0-.043.162-.103.36-.135.197-.031.706-.158 1.129-.282a16.08 16.08 0 0 1 1.523-.35 20.364 20.364 0 0 0 2.901-.673c.159-.05.37-.063.47-.032.099.032.228.02.287-.028.058-.047.365-.114.682-.148.317-.034.755-.102.974-.151.938-.21 3.04-.394 3.898-.341.38.023.88.024 1.452.003.238-.009.458.026.489.076.037.06.178.063.405.012.192-.043.39-.045.441-.004.05.04.271.095.49.12.22.026.753.11 1.186.189.434.078.859.12.945.092.087-.027.182-.01.211.037.03.048.241.115.47.15.228.034.47.116.535.182.066.066.188.12.272.12.083 0 .24.062.348.138.11.077.272.116.362.087.09-.028.531.089.98.26.45.172.897.312.994.312.096 0 .362.08.59.176.228.097.594.193.813.212 1.232.108 2.107.332 2.613.667.195.13.51.308.7.398.19.09.456.275.591.413.135.139.383.31.551.38.315.13 1.151 1.087 1.428 1.632.26.513.367 1.587.232 2.333-.066.36-.17.753-.23.875l-.342.688a5.349 5.349 0 0 1-1.818 2.073c-.334.228-.475.268-.913.262-.642-.009-1.032-.188-1.441-.662-.548-.636-.838-1.182-1.172-2.207-.228-.698-.303-.817-.997-1.562-.723-.775-.766-.806-1.134-.806-.21 0-.46.041-.554.092-.118.063-.17.063-.17 0 0-.141-.503-.11-.653.04a.495.495 0 0 1-.294.135c-.088 0-.32.053-.515.116-.198.064-.726.112-1.196.108-.463-.003-.862.014-.886.039-.177.182-.705.356-1.092.359a6.285 6.285 0 0 0-1.078.143c-.341.076-.88.152-1.196.168-.577.029-.766.049-2.081.223-.39.051-1.088.106-1.55.122-1.09.036-3.133.279-3.358.399-.096.051-.317.093-.491.093-.175 0-.686.076-1.136.17-.45.093-1.054.194-1.343.224-.29.03-.569.09-.622.134-.053.044-.374.126-.714.182-.34.056-.937.195-1.327.309-.641.187-1.1.312-2.613.714-.268.07-.707.166-.974.213-.727.125-2.06.417-2.237.49-.098.04-.155.023-.155-.046 0-.074-.036-.08-.11-.023-.062.047-.41.156-.776.242-.365.086-.963.253-1.328.371-1.117.361-1.204.386-1.36.386a.8.8 0 0 0-.349.128c-.108.07-.515.21-.904.313-.39.102-.785.228-.877.28-.214.12-1.056.415-1.512.529a4.304 4.304 0 0 0-.753.295c-.22.114-.639.256-.929.316-.29.06-.588.14-.664.177-.2.102-1.303.495-1.854.663a9.2 9.2 0 0 0-1.025.404c-.302.142-.675.284-.829.315-.158.032-.255.095-.223.147.035.056-.032.074-.178.046-.14-.027-.275.004-.334.075-.056.067-.226.12-.379.12-.171 0-.456.12-.742.313-.255.172-.464.269-.464.216 0-.054-.118-.013-.262.09-.144.102-.463.234-.708.292-.246.058-.447.136-.447.174 0 .037-.077.067-.172.067-.094 0-.194.037-.222.082-.028.045-.166.107-.308.138a1.39 1.39 0 0 0-.5.265c-.232.2-.49.287-1.057.354-.328.04-.922.285-1.125.465a.795.795 0 0 1-.399.154 1.341 1.341 0 0 0-.734.271 1.13 1.13 0 0 1-.374.165.97.97 0 0 0-.399.217c-.15.153-.979.514-1.101.48-.032-.01-.107.042-.166.114a.466.466 0 0 1-.318.13c-.116 0-.211.04-.211.088 0 .049-.058.089-.13.089-.071 0-.174.083-.229.185-.065.122-.157.17-.269.141-.093-.024-.193-.005-.222.042-.03.048-.116.063-.193.033-.076-.029-.162-.02-.19.02-.028.04-.319.184-.645.32-.327.138-.64.306-.698.374a.392.392 0 0 1-.265.125c-.09 0-.254.035-.366.077-.482.183-.894.292-1.233.326-.2.02-.41.07-.465.114-.055.043-.253.102-.441.13-.188.03-.392.122-.453.205-.09.123-.29.158-1.037.184-.863.03-.948.017-1.244-.183zM9.984 68.48c0-.094.04-.196.089-.226.05-.031.088.043.088.172 0 .124-.04.226-.088.226-.049 0-.089-.077-.089-.172zm.62-4.212c0-.073.04-.133.089-.133.049 0 .089.06.089.133 0 .073-.04.133-.089.133-.049 0-.089-.06-.089-.133zm2.859-9.434c0-.219.017-.309.038-.199.022.11.022.29 0 .399-.02.11-.038.02-.038-.2zm.685-.492c0-.076.04-.113.088-.083.049.03.089.092.089.138 0 .046-.04.083-.089.083-.049 0-.088-.062-.088-.138zm5.475-7.894c.064-.026.14-.023.17.007.029.03-.023.05-.117.046-.103-.004-.124-.025-.053-.053zm-9.366-9.115c.005-.103.025-.124.054-.053.025.063.022.14-.008.17-.029.029-.05-.024-.046-.117zm-.007-5.286c0-.11.08-.25.177-.31.16-.1.177-.09.177.116 0 .13-.038.204-.088.173-.049-.03-.089.007-.089.083s-.04.138-.088.138c-.05 0-.089-.09-.089-.2zm68.957-13.883c.03-.05.072-.089.094-.089.021 0 .039.04.039.089 0 .048-.042.088-.094.088-.051 0-.069-.04-.039-.088z" style="fill:#000;stroke-width:.088577"/>
</svg>
