<svg xmlns="http://www.w3.org/2000/svg" xml:space="preserve" width="210mm" height="297mm" viewBox="0 0 210 297">
  <path d="M184.881 290.045c-.107-.088-.377-.3-.6-.474-.266-.206-.427-.41-.464-.59a1.785 1.785 0 0 0-.197-.496c-.102-.16-.15-.523-.17-1.308-.02-.737-.066-1.11-.142-1.157-.088-.054-.085-.118.011-.299.1-.186.104-.35.019-.863a7.828 7.828 0 0 1-.105-.95 1.6 1.6 0 0 0-.108-.557c-.082-.181-.083-.253-.002-.303.08-.05.083-.323.013-1.105a69.398 69.398 0 0 1-.128-1.648c-.02-.334-.079-.689-.132-.788-.053-.099-.096-.357-.096-.574 0-.216-.06-.48-.135-.587-.075-.106-.18-.4-.235-.655-.054-.254-.136-.462-.182-.462-.046 0-.083-.106-.083-.236s-.086-.355-.19-.502c-.246-.345-.694-1.145-.817-1.459-.054-.135-.175-.27-.271-.3-.096-.031-.174-.112-.174-.181a.265.265 0 0 0-.115-.198 1.224 1.224 0 0 1-.266-.309 1.082 1.082 0 0 0-.428-.35c-.154-.064-.28-.173-.28-.242a.126.126 0 0 0-.125-.125c-.07 0-.197-.109-.285-.242a2.96 2.96 0 0 0-.42-.476 74.772 74.772 0 0 1-1.226-1.166c-.53-.512-1.06-.956-1.177-.985-.22-.055-.3-.216-.109-.216.059 0 .077-.029.041-.065-.035-.035-.185-.066-.332-.068-.147-.002-.27-.043-.274-.093-.004-.05-.065-.124-.137-.164-.071-.04-.13-.132-.13-.204 0-.072-.032-.131-.072-.131-.04 0-.295-.204-.567-.453-.272-.249-.522-.453-.554-.453-.033-.001-.298-.23-.589-.51-.29-.279-.641-.565-.78-.637-.137-.071-.25-.17-.25-.218 0-.049-.037-.089-.082-.089-.081 0-.517-.388-1.576-1.404-.31-.299-.592-.535-.625-.525-.033.01-.156-.109-.272-.265-.238-.317-.373-.457-1.1-1.14-.279-.262-.533-.558-.564-.658-.032-.1-.115-.181-.185-.181-.07 0-.174-.089-.232-.197-.058-.108-.267-.364-.465-.567a14.323 14.323 0 0 1-.773-.892c-.227-.287-.448-.522-.49-.522-.043 0-.078-.058-.078-.128 0-.071-.036-.143-.08-.16-.044-.016-.25-.293-.457-.616-.208-.323-.407-.608-.442-.635-.036-.027-.162-.243-.281-.48-.12-.237-.252-.43-.294-.43-.042 0-.137-.145-.21-.321-.075-.177-.198-.384-.274-.46a.513.513 0 0 1-.14-.31c0-.093-.075-.223-.168-.288-.092-.065-.223-.272-.29-.459-.067-.187-.155-.34-.195-.34-.04 0-.073-.037-.073-.082 0-.045-.163-.35-.362-.679-.2-.328-.363-.653-.363-.72 0-.069-.082-.198-.182-.289-.1-.09-.181-.234-.181-.32a.406.406 0 0 0-.136-.27.415.415 0 0 1-.137-.277c0-.091-.04-.19-.09-.221-.05-.031-.091-.13-.091-.221a.396.396 0 0 0-.125-.269c-.068-.057-.15-.256-.181-.442s-.178-.577-.326-.868c-.148-.29-.296-.667-.327-.836-.032-.169-.115-.354-.185-.412a.447.447 0 0 1-.13-.298c-.001-.106-.081-.356-.178-.556-.096-.2-.176-.403-.178-.452-.002-.05-.112-.315-.246-.59-.3-.62-.322-.681-.751-2.153-.105-.36-.228-.676-.272-.704-.045-.027-.149-.254-.232-.502-.082-.25-.187-.453-.233-.453-.046 0-.084-.051-.084-.113a1.05 1.05 0 0 0-.115-.34 1.838 1.838 0 0 1-.145-.545c-.036-.376-.234-.992-.483-1.497-.099-.2-.28-.69-.404-1.089-.124-.4-.26-.808-.302-.907-.16-.38-.214-.553-.251-.817-.021-.15-.09-.333-.154-.408-.146-.171-.34-.875-.33-1.192.004-.132-.046-.26-.111-.286-.066-.025-.173-.223-.238-.44a86.2 86.2 0 0 0-.29-.935c-.094-.297-.171-.635-.171-.752a1.01 1.01 0 0 0-.159-.455c-.195-.298-.373-.759-.672-1.739-.17-.558-.386-.671-.666-.35-.147.17-.267.23-.373.19-.106-.041-.135-.026-.09.045.04.064-.026.148-.167.212-.128.058-.232.155-.232.216 0 .06-.123.161-.272.223-.15.062-.272.149-.272.193 0 .044-.062.08-.137.08-.075 0-.136.08-.136.18 0 .1-.042.182-.094.182s-.205.102-.34.227c-.134.125-.289.227-.343.227-.055 0-.154.102-.22.227-.067.125-.166.227-.22.227-.15 0-.688.489-.688.625 0 .082-.07.103-.22.065-.18-.045-.226-.018-.25.149-.019.13-.087.2-.19.191-.09-.007-.275.095-.414.227-.377.358-.641.557-.741.557-.049 0-.14.082-.202.182-.063.1-.18.181-.262.181-.082 0-.2.062-.262.136a.422.422 0 0 1-.283.137c-.094 0-.26.102-.369.226-.108.125-.246.227-.305.227-.06 0-.16.061-.222.136a.483.483 0 0 1-.33.136c-.143 0-.253.076-.318.22-.056.121-.153.2-.218.174-.065-.024-.203.04-.307.144-.103.103-.243.188-.31.188-.187 0-.695.274-.695.375 0 .05-.039.065-.087.036-.048-.03-.283.081-.522.247a7.538 7.538 0 0 1-.91.523c-.262.123-.477.27-.477.328 0 .058-.11.132-.244.166a1.743 1.743 0 0 0-.476.224c-.241.169-.907.42-1.026.388-.038-.01-.068.043-.068.118 0 .085-.087.136-.231.136-.127 0-.333.102-.458.227-.125.124-.28.226-.347.226-.066 0-.217.072-.336.16-.311.228-.783.481-.868.467-.19-.033-.31.036-.688.394-.772.732-1.06.976-1.152.976-.05 0-.328.173-.616.385-.621.458-.816.583-1.089.701-.112.049-.204.125-.204.17 0 .045-.165.108-.366.14-.202.032-.39.117-.417.19-.028.072-.128.155-.223.185s-.173.112-.173.181c0 .16-.77.924-1.005.998-.096.031-.235.166-.308.3-.095.176-.133.199-.135.084-.005-.234-.11-.196-.448.162a2.691 2.691 0 0 1-.567.457c-.146.076-.24.177-.211.225.03.048-.01.112-.088.142-.078.03-.142.111-.142.18 0 .07-.065.127-.144.127-.08 0-.249.082-.375.181-.127.1-.309.182-.403.182-.095 0-.196.061-.225.136-.028.075-.096.136-.15.136-.053 0-.187.084-.297.187-.22.206-.675.487-1.06.653-.137.059-.25.139-.25.178 0 .039-.073.07-.163.07a.42.42 0 0 0-.25.082c-.136.128-.988.283-1.023.185-.04-.113-.352-.109-.423.006-.078.126-.621.114-.752-.016-.082-.082-.16-.078-.34.018-.203.108-.272.105-.524-.023a3.432 3.432 0 0 0-.494-.205c-.112-.032-.204-.096-.204-.143 0-.046-.16-.084-.356-.084-.196 0-.412-.055-.479-.122-.067-.068-.274-.151-.46-.186s-.338-.102-.338-.15-.112-.09-.25-.096l-.25-.009.228-.072c.258-.083.218-.096-.405-.132-.247-.015-.465-.073-.484-.13-.019-.056-.076-.076-.127-.045-.052.032-.12.022-.151-.022-.032-.044-.222-.16-.421-.259a6.097 6.097 0 0 1-.635-.367 3.038 3.038 0 0 0-.635-.31c-.2-.067-.453-.21-.563-.32a2.638 2.638 0 0 0-.545-.372 2.294 2.294 0 0 1-.526-.37c-.172-.184-.557-.361-.703-.322-.037.01-.068-.034-.068-.097 0-.062-.265-.21-.59-.325-.324-.117-.62-.26-.657-.317-.118-.183-.477-.351-.477-.224 0 .085-.024.085-.109 0a.435.435 0 0 0-.267-.108.294.294 0 0 1-.232-.124c-.095-.163-1.098-.512-1.64-.571-.235-.026-.493-.104-.572-.175a.525.525 0 0 0-.272-.131c-.07-.001-.208-.063-.305-.136a.812.812 0 0 0-.42-.133c-.268 0-.868-.225-1.082-.405-.075-.063-.28-.141-.454-.173a2.978 2.978 0 0 1-.59-.184c-.438-.202-.899-.327-1.205-.327-.158 0-.357-.075-.447-.168-.09-.092-.483-.282-.874-.423-.392-.141-.733-.31-.759-.377-.025-.067-.097-.12-.159-.12s-.313-.107-.557-.237c-.245-.13-.522-.252-.616-.27a.844.844 0 0 1-.334-.18c-.09-.082-.202-.125-.25-.096-.116.073-.621-.189-.685-.354-.028-.074-.132-.134-.23-.134s-.204-.041-.235-.09c-.03-.05-.176-.092-.323-.092-.147 0-.267-.04-.267-.09 0-.05-.055-.091-.122-.091-.156 0-.703-.27-.86-.426a.415.415 0 0 0-.238-.118c-.065 0-.17-.062-.232-.136a.43.43 0 0 0-.291-.137c-.099 0-.283-.081-.41-.181a1.007 1.007 0 0 0-.541-.182c-.17 0-.288-.036-.26-.08.027-.045-.09-.107-.258-.139-.17-.032-.358-.118-.42-.191-.06-.074-.161-.134-.223-.134-.12 0-1.783-.81-1.861-.907-.025-.03-.178-.11-.34-.175-.162-.066-.295-.155-.295-.2 0-.043-.082-.079-.182-.079-.1 0-.253-.082-.338-.181-.348-.407-.42-.12-.25 1.003.074.496.128.932.12.97-.014.067.035.219.21.652.12.298.289 2.339.214 2.58a3.887 3.887 0 0 0-.101.556c-.022.2-.121.715-.22 1.146-.098.43-.179.907-.179 1.06 0 .153-.038.302-.085.331-.047.03-.114.246-.148.482-.067.464-.207.818-.224.565-.012-.191-.26.725-.265.98-.002.117-.044.185-.095.154-.092-.057-.124.057-.095.34.009.088-.027.16-.08.16-.053 0-.097.062-.097.138a.22.22 0 0 1-.131.19c-.072.027-.182.277-.244.554s-.21.646-.327.82a1.984 1.984 0 0 0-.269.599c-.03.156-.11.317-.177.357a.269.269 0 0 0-.122.205c0 .147-.165.464-.34.655a.502.502 0 0 0-.114.294c0 .239-.429 1.02-.484.882-.025-.062-.049.018-.053.177-.004.16-.052.317-.107.351-.055.034-.158.19-.228.346-.07.156-.167.345-.214.42-.195.31-.91 1.93-.91 2.063 0 .079-.165.363-.368.63-.242.321-.35.545-.315.654a.275.275 0 0 1-.079.274c-.072.06-.158.267-.19.46-.033.193-.12.374-.194.402-.075.029-.11.094-.079.144.032.05-.068.278-.22.504-.154.227-.279.47-.279.54 0 .071-.081.173-.181.226a.368.368 0 0 0-.182.29c0 .34-.3 1.162-.425 1.162-.065 0-.12.077-.12.17a.404.404 0 0 1-.124.275c-.07.057-.151.232-.183.39-.031.157-.158.5-.283.763-.124.263-.226.532-.226.598 0 .065-.081.17-.181.233-.1.062-.182.15-.182.196 0 .045-.088.28-.196.52-.108.242-.188.49-.177.552.01.063-.014.114-.054.114s-.171.194-.293.43a5.702 5.702 0 0 1-.324.568c-.057.075-.158.32-.226.544-.067.225-.176.472-.24.55-.065.077-.153.301-.196.498-.044.197-.124.35-.179.338-.056-.012-.124.167-.155.408-.03.236-.095.49-.143.565l-.262.409c-.096.15-.215.318-.264.374-.05.056-.141.28-.205.499-.064.218-.14.417-.17.442-.03.025-.175.297-.322.605-.148.308-.335.579-.417.602-.091.025-.173.183-.211.407-.034.202-.14.437-.237.524-.096.087-.174.237-.174.333a.518.518 0 0 1-.14.313c-.076.076-.115.213-.087.303.036.114-.004.183-.13.223-.117.037-.223.197-.292.438-.06.21-.163.445-.23.524-.065.079-.12.177-.12.22 0 .042-.056.14-.124.22-.069.078-.214.437-.324.796-.11.36-.278.754-.374.876-.097.123-.176.282-.176.355 0 .072-.122.372-.27.666-.15.294-.272.585-.273.648 0 .062-.036.113-.08.113-.113 0-.622 1.077-.695 1.471-.034.186-.119.385-.188.442a.39.39 0 0 0-.127.262c0 .086-.081.23-.181.32-.1.09-.182.206-.182.257 0 .05-.057.156-.126.235-.07.08-.189.327-.264.552-.155.462-.354.93-.424.998-.132.127-.456.64-.456.722 0 .052-.032.094-.072.094-.04 0-.193.204-.34.452-.148.249-.32.453-.382.454-.104.001-.153.12-.123.299.006.038-.094.11-.222.158-.141.054-.207.13-.168.194.035.057.007.149-.063.204-.07.055-.187.215-.26.357a1.059 1.059 0 0 1-.386.388c-.147.076-.252.205-.252.31 0 .098-.06.179-.132.179-.072 0-.167.062-.21.139-.042.077-.197.171-.344.21-.176.047-.277.138-.296.27-.017.112-.095.198-.181.199-.084 0-.367.22-.629.488-.424.433-.518.487-.86.492-.211.003-.399.049-.416.102-.018.053-.121.096-.23.096a.426.426 0 0 0-.316.19c-.111.178-.175.187-.997.14a37.137 37.137 0 0 0-1.13-.053c-.178-.001-.28-.067-.354-.23-.102-.223-.228-.265-.71-.235-.177.011-.198-.006-.094-.076.118-.079.118-.095 0-.135a2.204 2.204 0 0 0-.36-.073.458.458 0 0 1-.342-.271c-.064-.135-.197-.27-.295-.301-.099-.032-.18-.116-.18-.187 0-.072-.05-.131-.113-.133-.219-.005-.821-.661-.923-1.006-.08-.272-.19-.392-.508-.563-.284-.152-.4-.269-.386-.389a.737.737 0 0 0-.037-.308 1.01 1.01 0 0 1-.065-.226c-.016-.165-.187-.38-.385-.484-.107-.056-.27-.287-.363-.513-.092-.226-.239-.433-.325-.461-.086-.028-.238-.166-.339-.307-.1-.141-.282-.281-.402-.312-.15-.037-.208-.105-.183-.214.04-.178-.111-.375-.644-.834-.2-.171-.366-.377-.372-.457-.017-.274-.223-.547-.411-.547-.135 0-.173-.04-.133-.143.03-.08-.007-.231-.081-.338-.188-.267-.188-.984 0-.913.099.039.136-.01.136-.18 0-.131.07-.27.159-.316.152-.078 1.524-.185 3.243-.253.45-.017 1.021.01 1.27.063l.658.136c.113.023.204.098.204.166 0 .343.986.486 1.361.197.075-.058.328-.196.561-.308.419-.201 2.252-1.922 2.252-2.114 0-.052.198-.326.44-.609a9.735 9.735 0 0 0 1.21-1.83c.064-.125.168-.26.231-.3.063-.039.115-.145.115-.235s.078-.233.174-.32a.93.93 0 0 0 .233-.394c.032-.13.173-.382.313-.56.328-.418.55-.857.55-1.087 0-.1.123-.322.273-.492.15-.17.272-.374.272-.452 0-.078.04-.167.09-.197.05-.031.091-.134.091-.228 0-.095.106-.278.235-.407.17-.17.21-.266.14-.348-.067-.082-.044-.144.084-.224a.417.417 0 0 0 .177-.316c0-.219.226-.606.425-.728a.27.27 0 0 0 .119-.204c0-.134.663-1.784.818-2.037.155-.252.452-.93.453-1.032 0-.106.096-.3.452-.918.115-.2.24-.486.278-.636.098-.384.301-.898.376-.955.035-.026.193-.353.35-.726.158-.373.336-.739.397-.814.06-.075.165-.32.233-.544.067-.225.156-.447.197-.495.042-.047.075-.175.075-.283a.45.45 0 0 1 .134-.309c.073-.06.161-.26.195-.442s.158-.483.275-.67c.117-.186.213-.376.213-.423 0-.047.037-.099.082-.115.046-.017.103-.153.127-.303.038-.233.479-1.164.687-1.45.037-.05.118-.3.18-.553a5.86 5.86 0 0 1 .38-.998c.147-.296.267-.61.267-.699 0-.089.062-.185.137-.214a.226.226 0 0 0 .136-.194.54.54 0 0 1 .118-.285c.064-.079.255-.47.424-.87.168-.398.374-.827.457-.952.083-.125.215-.393.294-.596.08-.203.228-.51.331-.68.318-.529.729-1.398.761-1.611a.591.591 0 0 1 .222-.336.766.766 0 0 0 .251-.406c.033-.15.097-.272.143-.272.046 0 .087-.072.09-.16.004-.086.085-.28.181-.43a7.75 7.75 0 0 0 .28-.476c.059-.113.14-.205.183-.205.042 0 .078-.071.08-.158.002-.088.102-.322.222-.522.37-.616.507-.89.7-1.396.101-.268.315-.636.475-.816.16-.18.425-.594.591-.918.29-.567.52-.904.91-1.335.1-.111.183-.259.183-.328 0-.07.071-.225.158-.345.183-.25.362-.554.554-.941.075-.15.16-.293.19-.318.03-.025.196-.229.368-.453a5.51 5.51 0 0 1 .371-.454c.032-.025.168-.278.302-.563.134-.285.364-.619.511-.743.147-.124.268-.27.268-.325 0-.055.065-.199.144-.32.29-.443.163-1.497-.182-1.497-.067 0-.189-.1-.27-.223-.085-.131-.304-.268-.531-.332-.213-.06-.427-.156-.477-.213-.05-.056-.234-.158-.408-.226a22.918 22.918 0 0 1-.797-.336c-.263-.117-.515-.212-.56-.212-.045 0-.196-.096-.338-.213-.243-.201-1.254-.513-1.664-.513-.105 0-.168-.037-.14-.082.067-.109-.441-.281-.83-.281-.332 0-.843-.221-.843-.365 0-.05-.133-.09-.295-.09-.316-.003-1.004-.278-1.106-.443-.034-.055-.148-.1-.254-.1-.202 0-.808-.19-.886-.277-.024-.028-.29-.108-.59-.177-.299-.069-.574-.174-.61-.234-.037-.06-.218-.137-.403-.171-.346-.065-1.119-.538-1.119-.685 0-.045-.165-.132-.368-.193-.338-.1-.408-.09-.84.13a4.856 4.856 0 0 0-.878.613c-.225.204-.49.41-.59.456-.348.16-.538.315-1.152.934-.34.343-.617.682-.617.754 0 .072-.037.108-.081.08-.044-.027-.19.095-.324.27-.134.176-.308.308-.386.294-.08-.014-.161.026-.183.088-.023.067.037.114.145.114h.184l-.187.351c-.106.198-.365.464-.59.606-.502.317-.756.535-.756.649 0 .048-.143.206-.317.352-.174.145-.62.55-.991.9l-1.082 1.017c-.224.21-.522.41-.664.445-.142.035-.41.22-.598.412-.187.192-.375.349-.417.349-.042 0-.145.075-.228.167-.083.092-.314.221-.513.287-.2.065-.362.17-.362.23 0 .062-.15.14-.335.175a1.522 1.522 0 0 0-.557.237c-.122.096-.27.174-.331.174-.06 0-.248.069-.417.153-.375.187-1.263.279-1.263.13 0-.066-.235-.102-.67-.102-.418 0-.768-.05-.93-.135a1.256 1.256 0 0 0-.469-.136c-.114 0-.31-.102-.434-.227a1.223 1.223 0 0 0-.45-.282c-.124-.031-.352-.174-.506-.318-.154-.145-.34-.263-.412-.263-.073 0-.11-.035-.084-.078.056-.09-.186-.32-.427-.405-.09-.032-.221-.197-.292-.367a.68.68 0 0 0-.415-.409c-.196-.068-.269-.141-.233-.235.03-.079.007-.127-.055-.115-.06.012-.124-.08-.142-.205-.019-.125-.078-.254-.132-.288a.31.31 0 0 1-.118-.195c-.01-.073-.105-.22-.21-.324a.706.706 0 0 1-.191-.427c0-.152-.06-.25-.168-.279-.1-.026-.25-.25-.376-.558-.115-.283-.265-.58-.334-.66-.068-.08-.1-.21-.07-.286.029-.077.011-.166-.04-.198-.051-.031-.07-.117-.042-.19.028-.074.009-.134-.043-.134s-.161-.235-.243-.521c-.083-.287-.201-.604-.263-.704-.152-.243-.385-.993-.464-1.497a3.862 3.862 0 0 0-.19-.715 3.139 3.139 0 0 1-.172-.68c-.065-.546-.136-.894-.223-1.1-.085-.202-.377-1.677-.408-2.06a.79.79 0 0 0-.124-.37c-.058-.07-.083-.15-.056-.177.028-.027-.019-.41-.103-.853-.084-.442-.17-.988-.19-1.213-.03-.346-.126-1.148-.359-3.027a4.684 4.684 0 0 0-.182-.761c-.101-.297-.111-.428-.037-.473.074-.046.075-.133.003-.322-.054-.141-.134-.644-.18-1.117-.044-.473-.118-.885-.165-.914-.046-.03-.114-.34-.15-.69-.037-.349-.123-.798-.192-.998-.07-.2-.127-.461-.128-.581-.001-.25-.252-1.165-.374-1.37-.083-.138-.101-.179-.223-.498-.088-.233-.087-.229-.168-.516-.038-.133-.123-.263-.19-.289-.066-.025-.1-.122-.077-.214.026-.1-.064-.304-.222-.503a4.145 4.145 0 0 1-.477-.859c-.115-.287-.263-.556-.328-.595a.275.275 0 0 1-.12-.212c0-.076-.112-.251-.249-.39-.137-.137-.264-.349-.281-.469-.018-.12-.089-.25-.159-.29a.27.27 0 0 1-.127-.209c0-.074-.102-.238-.227-.362-.125-.125-.227-.277-.227-.337s-.217-.335-.484-.61c-.266-.274-.511-.61-.545-.745-.034-.135-.143-.289-.242-.342-.1-.053-.18-.168-.18-.255 0-.093-.113-.201-.273-.261-.18-.068-.272-.166-.272-.288 0-.101-.053-.217-.118-.257-.065-.04-.212-.226-.326-.414a9.142 9.142 0 0 0-1.007-1.295c-.1-.102-.182-.232-.182-.289 0-.057-.084-.13-.186-.163-.102-.032-.37-.336-.594-.674-.225-.338-.513-.67-.639-.738a1.01 1.01 0 0 1-.355-.365.649.649 0 0 0-.355-.3c-.127-.031-.23-.1-.23-.152 0-.051-.12-.245-.266-.429a5.931 5.931 0 0 1-.492-.767c-.237-.451-.479-.752-1.125-1.4-.212-.213-.385-.448-.385-.52a.27.27 0 0 0-.12-.206c-.178-.108-.697-.9-.697-1.065 0-.079-.076-.142-.171-.142-.107 0-.228-.12-.322-.318-.083-.174-.19-.317-.237-.317-.048 0-.087-.053-.087-.118s-.24-.402-.532-.749c-.293-.347-.561-.722-.596-.835a.581.581 0 0 0-.239-.298c-.096-.051-.175-.153-.175-.226 0-.074-.04-.133-.09-.133-.05 0-.092-.078-.092-.172 0-.095-.06-.195-.136-.224-.075-.029-.136-.128-.136-.22 0-.178-.312-.564-.456-.564-.047 0-.112-.165-.145-.366-.032-.202-.124-.416-.205-.477a1.285 1.285 0 0 1-.282-.382 2.21 2.21 0 0 0-.182-.317c-.126-.126-.351-.617-.304-.664.03-.03-.013-.12-.094-.2-.08-.081-.146-.208-.146-.282 0-.075-.038-.112-.083-.084-.046.028-.11-.11-.143-.307-.034-.197-.118-.406-.188-.464-.15-.124-.766-1.376-.766-1.556 0-.068-.064-.214-.141-.325-.078-.11-.118-.24-.09-.286.03-.046.011-.11-.04-.141-.05-.032-.092-.174-.092-.317 0-.142-.041-.273-.092-.29-.05-.016-.108-.111-.127-.211a2.14 2.14 0 0 0-.18-.453 1.277 1.277 0 0 1-.145-.471c0-.11-.036-.221-.079-.248-.043-.026-.128-.243-.19-.481-.22-.86-.466-1.707-.546-1.885-.045-.1-.1-.345-.121-.545a12.37 12.37 0 0 0-.138-.862c-.246-1.248-.36-2.086-.375-2.767-.004-.177-.032-.231-.08-.156-.042.066-.082-.228-.092-.68-.01-.439-.057-.94-.104-1.116-.135-.504-.278-2.351-.317-4.098-.02-.882-.062-2.27-.094-3.085-.032-.814-.072-2.073-.09-2.796a54.95 54.95 0 0 0-.043-1.407 68.49 68.49 0 0 1-.001-1.724c.005-.898.008-1.854.006-2.124-.003-.27.015-.512.04-.536.025-.025.005-.092-.043-.15-.088-.107-.226-1.946-.32-4.267-.028-.699-.088-1.413-.133-1.588a7.575 7.575 0 0 1-.131-.966c-.028-.358-.092-.758-.142-.891-.05-.133-.092-.516-.092-.852 0-.337-.04-.651-.088-.7-.048-.047-.107-.27-.132-.494-.076-.703-.31-1.89-.41-2.076-.053-.098-.096-.382-.096-.63 0-.25-.037-.466-.082-.483-.046-.017-.105-.234-.133-.484a5.627 5.627 0 0 0-.273-1.058c-.123-.333-.206-.622-.186-.642.02-.02-.044-.268-.144-.55-.099-.282-.18-.597-.18-.7 0-.102-.097-.379-.216-.614a3.281 3.281 0 0 1-.369-1.34c-.014-.174-.086-.387-.161-.474a1.189 1.189 0 0 1-.2-.423 1.798 1.798 0 0 0-.223-.5c-.193-.28-.427-.924-.506-1.389-.031-.187-.096-.34-.144-.34-.047 0-.087-.05-.087-.113s-.101-.318-.224-.567c-.123-.25-.225-.523-.226-.608-.002-.085-.074-.196-.162-.247-.1-.058-.114-.093-.039-.095.083-.002.062-.077-.068-.242-.103-.131-.188-.277-.188-.324 0-.047-.06-.145-.132-.217-.073-.073-.112-.186-.086-.251.025-.066-.018-.172-.095-.236s-.14-.17-.14-.235c0-.065-.064-.182-.142-.26a.613.613 0 0 1-.156-.331.377.377 0 0 0-.172-.275c-.09-.047-.136-.143-.107-.218a.145.145 0 0 0-.085-.187c-.078-.03-.162-.225-.196-.454-.034-.221-.093-.402-.132-.402-.04 0-.145-.163-.234-.361a3.072 3.072 0 0 0-.422-.652c-.143-.16-.26-.331-.26-.381 0-.05-.084-.18-.186-.29a.81.81 0 0 1-.202-.408c-.009-.115-.109-.302-.222-.416-.113-.113-.206-.284-.206-.38a.426.426 0 0 0-.136-.288.42.42 0 0 1-.137-.283c0-.094-.054-.17-.121-.17s-.2-.163-.295-.362c-.095-.2-.204-.363-.241-.363-.038-.001-.068-.073-.068-.161 0-.088-.075-.206-.167-.264-.091-.057-.265-.332-.385-.61-.12-.28-.291-.53-.378-.56-.088-.028-.16-.12-.16-.205 0-.084-.099-.268-.22-.41a1.436 1.436 0 0 1-.278-.512c-.033-.153-.131-.275-.244-.304-.122-.032-.17-.098-.135-.186.063-.166-.148-.618-.498-1.067-.141-.182-.257-.373-.257-.426 0-.052-.082-.152-.181-.222-.1-.07-.16-.147-.134-.173.025-.026-.14-.218-.367-.427-.227-.21-.39-.417-.363-.46.027-.045.008-.107-.042-.138-.15-.092-.564-1.034-.5-1.136.032-.052.024-.083-.017-.07-.172.056-.526-.321-.616-.655a3.953 3.953 0 0 0-.211-.363c-.11-.175-.2-.362-.2-.417 0-.054-.082-.173-.182-.263-.1-.09-.182-.214-.182-.274 0-.06-.085-.218-.189-.35a1.83 1.83 0 0 1-.271-.54 1.417 1.417 0 0 0-.268-.497c-.102-.11-.154-.203-.114-.208.039-.005-.03-.038-.155-.072-.125-.035-.24-.143-.257-.24a.526.526 0 0 0-.137-.27c-.058-.049-.12-.192-.137-.317-.018-.124-.084-.256-.147-.292-.064-.037-.167-.19-.229-.34-.063-.152-.175-.275-.25-.275-.095 0-.122-.067-.092-.223s-.023-.285-.171-.425c-.118-.11-.214-.259-.214-.33 0-.171-.374-.837-.47-.837-.04 0-.074-.044-.074-.1 0-.054-.164-.284-.363-.511-.2-.227-.363-.505-.363-.619 0-.113-.03-.22-.068-.237-.092-.04-.477-.865-.477-1.02 0-.069-.065-.15-.145-.18-.086-.033-.123-.114-.092-.197.033-.084-.038-.225-.177-.355a.973.973 0 0 1-.27-.516c-.021-.166-.08-.315-.13-.332-.051-.017-.093-.089-.093-.16 0-.07-.037-.128-.083-.128-.045 0-.11-.16-.143-.357a1.316 1.316 0 0 0-.263-.576c-.325-.351-.6-.87-.736-1.395-.07-.269-.186-.547-.258-.62-.072-.071-.18-.336-.24-.587-.06-.251-.146-.457-.191-.457-.045 0-.082-.12-.082-.267 0-.147-.035-.288-.078-.315-.063-.039-.487-1.067-.509-1.233a.56.56 0 0 0-.073-.15c-.036-.058-.042-.18-.012-.273.04-.126.032-.136-.035-.042-.073.102-.104.096-.178-.036a.506.506 0 0 1-.046-.324c.023-.09-.084-.416-.238-.724-.154-.308-.254-.602-.222-.654.032-.051.015-.067-.038-.034-.093.058-.302-.744-.433-1.664-.08-.56-.29-1.266-.424-1.428-.06-.073-.141-.344-.179-.6-.14-.97-.244-1.513-.35-1.837-.063-.189-.09-.536-.062-.798.032-.294.021-.397-.027-.282-.067.155-.078.143-.084-.09-.004-.15-.066-.663-.138-1.139-.16-1.068-.266-4.442-.139-4.442.111 0 .113-.653.002-1.128-.05-.22-.05-.419.002-.516.056-.105.042-.347-.042-.705-.07-.3-.09-.558-.046-.573.109-.036.185-.856.213-2.295.013-.649.071-1.297.13-1.44.058-.143.13-.613.159-1.043.029-.431.079-.824.11-.874.033-.05.087-.377.12-.726.108-1.097.187-1.588.259-1.588.085 0 .186-.492.18-.874-.003-.173.05-.305.132-.337.099-.038.122-.129.082-.325-.032-.164.005-.422.093-.64.08-.203.147-.505.147-.672 0-.167.076-.4.17-.52.093-.119.199-.39.234-.602.036-.212.102-.385.148-.385.045 0 .083-.138.083-.306 0-.169.058-.472.13-.674.07-.201.107-.452.08-.555-.029-.108-.007-.19.051-.19.056 0 .102-.08.102-.18 0-.1.035-.182.079-.182.043 0 .13-.184.193-.408.063-.225.145-.409.182-.409.037 0 .093-.163.125-.363.032-.2.095-.362.141-.362.046 0 .131-.235.19-.522.058-.287.184-.607.28-.71.095-.104.146-.215.114-.247-.058-.058.131-.612.239-.699.03-.025.149-.277.262-.56.113-.283.285-.586.382-.674.123-.111.144-.179.071-.224-.076-.047-.064-.123.043-.276.082-.117.148-.283.148-.37 0-.204.284-.8.38-.8.04 0 .074-.146.074-.326 0-.242.044-.337.17-.37.124-.032.2-.184.273-.552.056-.279.158-.571.227-.65.276-.317.6-1.066.6-1.39 0-.23.041-.34.127-.34.069 0 .151-.102.182-.225a.947.947 0 0 1 .226-.386.993.993 0 0 0 .23-.445c.042-.19.112-.28.216-.272.115.009.188-.125.291-.533.185-.73.253-.884.362-.816.05.03.116-.007.146-.085.03-.078.104-.142.165-.142.114 0 .324-.743.324-1.144 0-.123.053-.243.118-.268.065-.025.235-.268.377-.539.142-.271.29-.473.33-.449.039.025.048-.1.02-.277-.045-.271-.03-.312.095-.264.123.047.148-.008.148-.316 0-.205.041-.373.091-.373.05 0 .09.062.09.137 0 .176.148.176.215 0 .029-.075.006-.137-.051-.137-.057 0-.022-.091.077-.204.1-.112.301-.438.447-.725.146-.286.28-.48.296-.43.06.18.196-.02.196-.289 0-.2.036-.263.128-.227.188.072.435-.25.452-.59.012-.23.065-.309.24-.357.14-.04.165-.066.066-.072-.149-.009-.149-.026 0-.35.087-.186.194-.366.238-.398.044-.032.1-.262.124-.51.038-.392.067-.446.218-.407.132.035.2-.024.282-.238.062-.166.171-.284.263-.284.11 0 .164-.087.184-.294.022-.232.065-.289.2-.266.126.022.156-.009.114-.118-.063-.163.333-.592.544-.592.08 0 .123-.11.123-.31 0-.42.08-.597.267-.597.177 0 .41-.373.349-.558-.023-.066.004-.171.057-.232.272-.308.325-.393.325-.522 0-.077.042-.13.093-.117.09.022.511-.86.607-1.27.026-.113.102-.205.17-.205.067 0 .17-.092.229-.204.12-.23.616-.703.736-.703.043 0 .066-.071.052-.159-.018-.107.032-.159.154-.159.221 0 .348-.152.202-.242-.073-.045-.058-.084.05-.125.086-.033.157-.11.157-.173 0-.36.527-1.046.808-1.049.112 0 .118-.018.025-.077-.092-.058-.067-.137.114-.352.138-.164.21-.336.178-.421-.038-.1.019-.172.183-.234.132-.05.265-.163.298-.251a.667.667 0 0 1 .111-.206c.126-.11.44-.611.5-.795.034-.112.115-.203.178-.203.127 0 .523-.413.684-.715.056-.106.151-.192.21-.192.164 0 .521-.458.525-.672 0-.105.164-.352.362-.55.198-.199.36-.391.36-.428 0-.037.121-.206.27-.374a2.38 2.38 0 0 0 .362-.552.628.628 0 0 1 .345-.334c.139-.048.374-.236.522-.418.149-.181.403-.477.566-.656.162-.18.318-.397.346-.485.028-.087.11-.159.181-.159.072 0 .13-.04.13-.09 0-.048.174-.197.386-.33.212-.133.402-.284.422-.336.06-.157.585-.605.71-.605a.116.116 0 0 0 .116-.115c0-.148.324-.429.493-.429.168 0 .505-.431.505-.647 0-.182.134-.228.226-.079.101.163.25.096.201-.09-.039-.15-.003-.182.202-.182.163 0 .345-.102.529-.295.154-.162.385-.368.513-.458.129-.09.234-.222.234-.295 0-.16.179-.178.189-.018.003.062.048 0 .098-.136.05-.137.139-.25.197-.25.058 0 .187-.123.287-.272.1-.15.243-.272.318-.272.162 0 .635-.39.635-.523 0-.124.24-.21.407-.145.078.03.16-.01.191-.093.031-.08.092-.123.136-.096.044.027.056-.014.026-.091-.034-.09-.002-.141.089-.141.078 0 .184-.077.234-.171a.555.555 0 0 1 .316-.227c.124-.031.278-.169.344-.306.08-.167.193-.252.345-.258a1.5 1.5 0 0 0 .51-.155c.155-.08.303-.126.327-.101.025.025.026-.056.002-.18-.035-.185-.013-.215.133-.177.111.029.329-.071.597-.277a4.23 4.23 0 0 1 .742-.455c.175-.073.319-.197.319-.274 0-.08.077-.141.176-.141.097 0 .204-.045.238-.1.034-.055.21-.159.39-.23.715-.284 1.009-.446 1.01-.559 0-.064.054-.105.12-.09.105.023.288-.05.99-.395a.918.918 0 0 1 .341-.078c.122 0 .183-.06.183-.181 0-.108.064-.186.159-.193.463-.034.585-.068.734-.203.09-.082.228-.149.306-.149a.216.216 0 0 0 .19-.124c.026-.069.199-.153.383-.188.184-.034.42-.142.523-.238.104-.097.277-.175.384-.175a.559.559 0 0 0 .353-.174.938.938 0 0 1 .4-.234 1.1 1.1 0 0 0 .397-.2.777.777 0 0 1 .415-.152c.143-.007.392-.125.555-.262.231-.194.331-.229.464-.158.122.066.204.055.297-.039.072-.071.279-.157.46-.191.182-.034.331-.099.331-.143 0-.044.071-.08.159-.081.087 0 .288-.08.447-.176.158-.097.434-.203.612-.237.177-.033.302-.094.276-.136-.059-.095.562-.273.729-.21.067.026.168-.037.223-.14.056-.105.181-.19.279-.19.298 0 1.3-.374 1.508-.563.137-.124.3-.17.544-.154.36.024 1.03-.17 1.03-.299 0-.04.073-.072.161-.072a.76.76 0 0 0 .34-.116 1.23 1.23 0 0 1 .45-.146.858.858 0 0 0 .46-.234c.134-.144.38-.239.817-.315.345-.06.668-.142.72-.183.05-.04.234-.102.41-.136.553-.109 1.218-.34 1.38-.48.085-.075.22-.111.3-.08.08.03.314-.026.52-.125.205-.1.445-.181.533-.181.087 0 .184-.041.215-.091.03-.05.126-.09.212-.09s.23-.086.319-.191c.109-.127.227-.173.357-.14.113.03.26-.009.353-.093a.405.405 0 0 1 .358-.092c.109.028.323-.013.475-.091.203-.106.287-.115.313-.035.027.08.075.074.185-.02.203-.173.877-.428 1.132-.428.113 0 .257-.05.32-.112.089-.09.13-.085.2.022.077.116.113.108.252-.058.09-.106.303-.22.475-.253.728-.14 1.083-.264 1.083-.382 0-.088.13-.124.453-.124.25 0 .454-.04.454-.09 0-.132.34-.112.388.022.023.062.076.08.119.04.042-.04.019-.109-.053-.153-.28-.174.158-.305 1.024-.306.396 0 .513-.03.479-.12-.032-.081.037-.119.218-.119.145 0 .292-.045.325-.1.034-.054.17-.077.3-.05.275.056.84-.112.947-.28.044-.07.276-.115.59-.116.496-.002 1.474-.156 2.241-.354.2-.052.483-.095.63-.096.146 0 .443-.088.66-.193.316-.153.42-.168.527-.08.108.09.134.084.134-.034 0-.147.26-.248.59-.228.31.019 1.526-.195 1.86-.327.312-.123.829-.204 1.814-.283.275-.023.622-.08.772-.127.15-.047.578-.108.952-.135a10.89 10.89 0 0 0 1.134-.144c.25-.051.677-.115.95-.14.274-.026.721-.106.995-.177a4.999 4.999 0 0 1 1-.135c.277-.003.973-.086 1.547-.184a22.05 22.05 0 0 1 1.769-.23c.4-.027.765-.087.812-.133.11-.106.867-.11.867-.004 0 .087.606.046 1.315-.09.25-.048.515-.09.59-.092a7.4 7.4 0 0 0 .635-.09c.274-.046 1.132-.125 1.905-.174 3.532-.225 4.167-.274 4.735-.359.334-.05.702-.058.817-.017.116.041.68.04 1.253-.004a58.59 58.59 0 0 1 2.45-.11 67.427 67.427 0 0 0 1.588-.05c.546-.051 3.968.086 4.343.173.33.078.472.077.566 0a.3.3 0 0 1 .268-.048c.08.03 1.681.078 3.56.107 1.878.03 3.443.07 3.477.09.034.022.95.064 2.037.094 1.33.037 2.092.096 2.334.182.207.073.711.127 1.187.127.456 0 1.277.04 1.826.09.55.048 1.223.106 1.497.128.275.022.744.086 1.044.143 1.083.207 1.645.286 2.268.322.85.05 1.08.078 1.134.14.053.061 1.602.27 2.405.324.3.02.755.097 1.012.17.257.074.586.134.73.134.145 0 .31.048.369.106.058.059.3.105.54.103.238 0 .475.03.525.07.05.039.439.131.862.205.424.074.934.196 1.133.271.314.118 1.488.36 3.312.684.512.09.72.146 2.11.553.162.048.478.135.703.194.469.123.64.182 1.11.386.186.08.401.122.477.093a.283.283 0 0 1 .251.037c.062.05.254.12.427.158.173.037.377.098.454.135.299.147 1.058.364 1.273.364.125 0 .344.06.487.135.143.075.334.136.426.136.09 0 .186.034.212.076.026.041.199.081.384.088.186.007.38.055.43.106.052.051.185.093.297.093.112 0 .227.039.257.087.03.047.107.066.172.04.065-.024.171.019.235.096.064.077.23.14.367.14.137 0 .297.057.355.126.057.07.242.153.41.184.168.032.355.118.416.191a.437.437 0 0 0 .298.134c.248 0 .789.2.789.29 0 .04.08.073.176.073.175 0 1.235.356 1.79.6.158.07.485.152.726.183.45.057 1.375.312 1.935.535.175.07.46.165.635.214.615.17 1.41.493 1.623.659.12.092.29.168.382.168.09 0 .393.16.671.355.282.197.716.403.98.463.26.06.643.207.852.326.208.12.439.217.512.217.073 0 .156.061.185.136.029.075.13.136.227.136.096 0 .198.061.227.136.028.075.127.136.218.136s.205.035.252.077c.048.042.33.128.626.192.297.063.604.147.681.186.42.209 1.168.53 1.366.585.124.035.4.142.611.238.212.096.448.174.525.174.077 0 .163.061.192.136.028.075.092.136.142.136.195 0 2.111 1.02 2.227 1.185.068.097.176.176.24.176.065 0 .19.08.279.179.088.098.35.247.58.333.232.085.476.197.543.248a.773.773 0 0 0 .298.12c.226.035.866.36.938.478.1.16.99.71 1.409.87.225.085.472.22.549.302.164.172.417.34.687.458.105.046.278.194.384.328.106.135.366.33.58.433.212.103.419.241.458.306.04.066.116.119.169.119.156 0 1.038.72 1.892 1.545.337.326.812.755 1.055.953.47.384 1.03.956 1.03 1.055.002.173.51.802.648.802.088 0 .193.053.233.117.04.064.195.21.345.325.15.115.313.283.363.375.05.09.233.324.408.517.37.41.618.761.853 1.213.093.178.297.412.454.52.312.213.783.945.975 1.515.067.2.194.443.282.54.087.097.137.245.11.33-.026.084.008.174.077.2.069.027.22.287.337.578.174.435.647 1.395 1.16 2.355.186.348.47 1.117.472 1.277.002.236.199.762.384 1.024.09.128.159.388.159.607 0 .21.035.404.078.431.044.027.107.256.14.509.042.311.111.479.216.52.226.086.46.404.404.55a.169.169 0 0 0 .066.196c.17.105.65 1.362.591 1.549-.028.089-.009.188.044.22.055.034.071.201.04.403-.048.295-.03.351.13.393.2.052.419.493.576 1.157.126.534.306 1.024.59 1.61.127.262.21.558.183.659-.05.195-.034.258.388 1.458.15.427.274.832.274.898 0 .067.103.34.23.607.127.268.273.721.326 1.007.053.286.15.65.216.809.066.159.146.526.177.817.06.57.11.778.452 1.889.122.399.25.879.283 1.066.033.187.092.34.131.34.04 0 .074.228.077.506.003.29.072.629.16.794.084.158.183.512.22.787.1.747.199 1.22.264 1.27.084.066.276.754.28 1.009.002.119.065.38.14.579.14.374.19.6.44 1.996.081.45.187.898.236.998.048.1.107.345.13.545.087.736.154 1.098.276 1.497.211.684.272 1.657.267 4.278-.003 2.005-.029 2.54-.13 2.66-.086.104-.131.434-.142 1.03-.017.968-.063 1.253-.334 2.058-.23.684-.451 2.12-.483 3.143-.017.554-.07.853-.179 1.02-.085.13-.129.237-.097.237s-.011.106-.096.236c-.098.149-.164.459-.179.84-.037.949-.132 1.578-.28 1.866-.076.146-.167.618-.203 1.049-.036.438-.134.921-.222 1.096-.213.422-.32.949-.421 2.081a24.92 24.92 0 0 1-.14 1.268 9.75 9.75 0 0 0-.084.862c-.016.3-.053.649-.082.774a14.096 14.096 0 0 0-.283 1.708c-.023.266-.064.521-.093.567-.028.045-.05.38-.05.744 0 .363-.043.823-.096 1.02a3.137 3.137 0 0 0-.082.746c.007.212-.033.471-.09.576-.056.106-.14.46-.186.788-.047.328-.12.64-.164.694-.084.103-.144.542-.266 1.958-.04.474-.125.957-.187 1.073-.062.116-.089.274-.06.352.03.077.01.194-.044.259s-.11.315-.124.555c-.024.41-.072.659-.325 1.662a13.96 13.96 0 0 0-.325 1.633 2.64 2.64 0 0 1-.135.59c-.174.376-.461 1.293-.596 1.906-.077.349-.194.737-.26.862-.18.342-.499 1.153-.499 1.27 0 .057-.06.165-.136.24a.572.572 0 0 0-.136.353c0 .325-.267 1.06-.463 1.273-.094.103-.172.242-.172.308 0 .067-.286.701-.635 1.41-.35.708-.635 1.335-.635 1.392 0 .058-.04.105-.09.105-.05 0-.091.058-.091.13a.435.435 0 0 1-.114.25c-.062.065-.235.364-.385.663-.149.3-.404.77-.567 1.044-.162.274-.295.564-.295.643 0 .08-.08.218-.178.306-.205.185-.548.81-.548.997 0 .069-.034.139-.076.156-.042.016-.27.418-.51.892-.773 1.54-1.228 2.393-1.302 2.444-.177.124-1.379 2.42-1.379 2.635 0 .15-.266.638-.463.85-.094.101-.174.268-.176.371-.002.103-.104.35-.227.55-.337.547-.581 1.07-.583 1.249a.857.857 0 0 1-.085.318c-.046.086-.15.361-.234.61-.181.545-.287.8-.512 1.238a1.89 1.89 0 0 0-.17.726c0 .23-.073.516-.175.683-.096.158-.222.546-.28.862a6.692 6.692 0 0 1-.189.802c-.108.29-.172.591-.222 1.033-.022.194-.077.398-.123.454-.135.162-.275 1.1-.363 2.432-.046.684-.112 1.29-.148 1.348-.035.057-.084 1.009-.108 2.114-.053 2.457-.061 2.176.082 2.826.129.582.145 1.557.037 2.223-.046.28-.023.536.071.817.124.367.164.687.281 2.223.02.25.076.576.126.725.175.523.286 1.379.286 2.212 0 .462.047.928.104 1.035.058.107.136.809.175 1.559.04.75.093 1.589.12 1.863.026.275.067.798.09 1.163.024.366.087.717.14.781.058.07.094.566.089 1.241-.004.619.034 1.235.086 1.368.052.134.12.686.15 1.225.03.54.094 1.02.14 1.068.047.047.085.235.085.417 0 .181.061.53.135.775.075.245.136.74.137 1.098 0 .36.036.675.08.701.043.027.105.289.138.582.034.294.12.61.191.706.072.094.132.306.133.47.001.164.066.395.144.513.099.15.166.608.224 1.517.095 1.503.168 2.077.28 2.216.043.055.085.422.092.817.013.696.128 1.344.273 1.539.04.052.078.41.087.794.01.39.056.698.106.698.054 0 .072.187.046.46-.028.29-.004.5.064.568.059.06.115.308.124.553.01.245.053.49.096.544.087.107.157.522.276 1.64.043.4.105.85.138.999.155.712.26 1.043.333 1.043.043 0 .08.194.081.431.001.237.038.595.082.794.044.2.108.72.142 1.157.034.437.092.776.129.754.11-.068.365 1.998.409 3.306.051 1.535.202 2.983.327 3.133.052.063.096.313.097.555.003.56.15 1.329.316 1.646.07.136.154.44.185.676.032.236.093.407.137.38.044-.027.08.053.08.178 0 .124-.041.252-.091.283-.12.073-.118.744.002.818.056.034.07.23.035.492-.037.281-.022.458.043.498.056.034.1.176.1.314s.03.281.067.318c.036.036.056.579.044 1.206-.014.711.015 1.185.076 1.258.149.18.184.83.085 1.583-.049.374-.11 1.011-.135 1.415a27.655 27.655 0 0 1-.13 1.401 3.94 3.94 0 0 0 .008 1.169c.052.277.065.767.03 1.094-.035.325-.06.978-.056 1.45.005.474-.031.882-.08.912-.05.03-.097.36-.105.73-.008.372-.033.709-.054.75-.022.04-.05.59-.064 1.224-.016.7-.078 1.311-.159 1.56-.095.292-.118.614-.08 1.134.061.815-.02 1.675-.167 1.766-.053.033-.088.161-.078.286.01.124-.028.346-.086.493-.057.147-.167.614-.244 1.038-.077.424-.181.785-.232.802-.05.017-.091.109-.091.204 0 .096-.063.174-.139.174-.15 0-.165.03-.311.604-.058.226-.26.559-.504.83-.224.25-.407.497-.407.552 0 .054-.143.158-.318.231-.174.073-.317.179-.317.234 0 .06-.074.078-.182.044-.13-.04-.181-.016-.181.087 0 .08-.112.187-.248.239-.136.052-.269.122-.295.156-.026.035-.23.16-.455.28-.225.12-.47.27-.545.334a1.212 1.212 0 0 1-.408.182c-.15.037-.37.13-.49.208-.12.077-.276.15-.348.16a.705.705 0 0 0-.288.162.693.693 0 0 1-.404.143c-.134 0-.268.061-.297.136-.029.075-.13.136-.224.136-.095 0-.172.032-.172.071 0 .04-.194.128-.43.197-.238.07-.54.206-.673.303-.139.102-.288.147-.354.106-.07-.043-.09-.033-.053.029.035.055-.028.124-.144.157-.3.087-1.199.532-1.234.612-.017.037-.068.068-.113.068-.046 0-.28.14-.52.313-.309.222-.496.298-.64.26-.14-.036-.26.008-.384.14-.099.107-.24.194-.315.194a.214.214 0 0 0-.185.128c-.027.07-.156.155-.286.188a1.708 1.708 0 0 0-.484.235c-.136.096-.31.175-.386.175-.077 0-.165.04-.195.09-.031.05-.128.091-.215.091a.429.429 0 0 0-.263.106c-.127.127-.727.345-.954.347-.09 0-.185.062-.214.137-.029.075-.13.136-.225.136s-.243.082-.328.182c-.086.1-.223.181-.306.181a.4.4 0 0 0-.263.136c-.062.075-.164.136-.227.136-.062 0-.163.06-.224.134-.061.074-.248.16-.414.19-.166.032-.373.135-.459.23-.086.095-.313.215-.505.267-.192.051-.348.133-.348.18 0 .049-.062.088-.137.088-.074 0-.136.04-.136.09 0 .05-.076.092-.17.092a.428.428 0 0 0-.287.14c-.064.077-.169.12-.233.095-.064-.025-.14.03-.17.123-.03.092-.164.2-.3.238-.286.08-.293.083-.473.152-.075.03-.331.124-.57.21-.239.087-.455.192-.482.235-.026.042-.12.077-.21.077-.088 0-.235.082-.326.181-.09.1-.219.182-.286.182-.067 0-.122.043-.122.097 0 .054-.077.072-.175.041-.103-.033-.205-.004-.25.07-.04.068-.217.202-.392.298a5.932 5.932 0 0 0-.533.333.87.87 0 0 1-.428.159c-.117 0-.346.124-.51.275-.164.15-.362.334-.442.408a.572.572 0 0 1-.335.133.35.35 0 0 0-.28.156c-.049.088-.216.165-.39.178a9.141 9.141 0 0 0-.772.11c-.35.065-.593.055-.951-.039-.285-.075-.515-.094-.563-.045-.24.239-.088 1.338.304 2.21.108.241.219.67.246.953.028.295.106.561.183.622.074.06.112.144.084.19-.07.113.207 1.065.614 2.107.068.175.199.563.29.862.09.3.192.586.226.636.034.05.091.391.127.76.037.367.097.62.134.559.082-.133.184.086.184.394 0 .11.047.248.105.306.058.058.12.237.137.398.018.16.093.36.167.442a.591.591 0 0 1 .135.34c0 .106.041.218.09.248.05.031.092.151.092.267 0 .116.06.261.136.323.074.062.136.154.136.204 0 .157.953 2.009 1.566 3.045.187.314.34.593.34.618 0 .126.559.788 1.195 1.413.39.383.71.723.71.755 0 .074.288.364.356.356.028-.003.23.212.449.477.218.265.424.482.457.482.074 0 .52.402 1.792 1.622.54.518 1.095.981 1.233 1.03.137.048.25.127.25.176 0 .048.206.279.458.512.252.234.709.66 1.015.947.307.287.592.521.635.521.07 0 .852.77 1.854 1.825.208.219.522.52.697.67.175.15.32.315.324.366.004.052.425.526.937 1.054a46.1 46.1 0 0 1 1.193 1.267c.889 1.037 1.324 1.61 1.324 1.744 0 .083.06.152.135.152.074 0 .16.103.192.229a.667.667 0 0 0 .296.36c.132.07.19.13.13.133-.059.002.094.296.341.655.247.358.449.7.449.761 0 .061.101.207.225.324.124.118.226.287.227.376 0 .089.063.185.138.214.074.028.136.104.136.167 0 .064.062.167.138.23.076.063.12.133.098.155-.066.067.53 1.434.66 1.515.045.028.108.194.141.369.036.19.113.318.192.318.077 0 .132.087.132.21 0 .114.048.256.108.316.124.124.149.22.258.988.043.31.14.779.217 1.044.075.265.153.643.172.84.019.198.081.375.139.394.057.019.104.125.104.235 0 .111.036.24.081.288.083.087.19.722.19 1.12 0 .119.046.384.102.59.056.204.12.556.144.78.023.225.074.42.113.435.038.014.051.437.028.94-.035.742-.075.946-.216 1.087-.128.128-.152.216-.088.334.1.188.146 1.23.068 1.56a6.91 6.91 0 0 0-.094.8c-.025.365-.095.635-.193.743-.084.093-.129.208-.1.255.03.048-.008.137-.082.199-.074.061-.135.23-.135.373 0 .155-.048.26-.119.26-.065 0-.175.144-.244.318-.074.19-.186.318-.278.318-.085 0-.177.087-.205.193-.037.145-.1.181-.242.144-.144-.038-.213.004-.275.17-.1.26-.26.278-.528.06zm-58.178-49.525c.405-.203 1.635-1.068 1.917-1.347.079-.079.176-.143.215-.143.039 0 .21-.122.38-.272.171-.15.35-.272.398-.272.049 0 .089-.051.09-.114 0-.095.496-.489.758-.6.044-.02.15-.101.236-.182.222-.21.5-.43.658-.522.17-.1.78-.577.978-.767a1.32 1.32 0 0 1 .278-.203 2.42 2.42 0 0 0 .627-.43c.076-.078.321-.245.546-.372.802-.453 1.679-1.011 1.709-1.088a.128.128 0 0 1 .11-.077c.043 0 .311-.164.596-.363.285-.2.555-.363.6-.363.095 0 .703-.433.85-.605.053-.063.464-.299.912-.523.448-.224.89-.49.981-.593.092-.101.243-.185.335-.185.092 0 .168-.042.168-.095 0-.052.15-.158.333-.235a4.15 4.15 0 0 0 .739-.449c.223-.17.456-.31.517-.31.062 0 .163-.06.225-.135a.411.411 0 0 1 .275-.137c.089 0 .325-.136.524-.302.2-.167.5-.358.666-.425.168-.067.402-.197.52-.287.12-.09.273-.165.34-.165.068 0 .358-.177.646-.393.287-.217.93-.631 1.43-.922 1.047-.61 1.897-1.172 2.142-1.418.094-.094.202-.17.24-.171.037 0 .21-.133.385-.295.175-.162.52-.39.765-.505.504-.238.836-.47 1.284-.9.169-.163.338-.296.377-.296.038 0 .2-.123.36-.272.159-.15.308-.272.33-.272.097 0 .992-.648 1.306-.945.188-.178.37-.324.403-.325.034 0 .116-.051.182-.114.066-.062.324-.274.573-.471.25-.198.556-.464.68-.593.125-.129.493-.453.817-.722a12.6 12.6 0 0 0 .78-.69c.105-.11.483-.393.84-.629.357-.235.649-.464.649-.51 0-.045.06-.082.136-.082.074 0 .136-.04.136-.09 0-.05.054-.092.12-.092.065 0 .202-.091.303-.204.1-.112.622-.612 1.158-1.111.535-.5 1.27-1.193 1.632-1.543.362-.349.94-.888 1.286-1.198 1.054-.946 1.793-1.683 2.166-2.159.195-.25.495-.596.665-.771a3.26 3.26 0 0 0 .525-.798c.118-.265.304-.608.414-.762.295-.414.633-1.718.702-2.704.062-.874-.04-1.863-.314-3.085a12.065 12.065 0 0 1-.185-1.044c-.028-.25-.102-.515-.164-.59-.063-.074-.102-.288-.088-.475.014-.186-.025-.39-.088-.453s-.164-.32-.225-.569c-.169-.695-.384-1.436-.46-1.587a4.641 4.641 0 0 1-.192-.613c-.067-.262-.155-.476-.195-.476-.04 0-.074-.14-.074-.312s-.044-.34-.098-.373c-.054-.034-.175-.24-.27-.46a5.29 5.29 0 0 0-.4-.736c-.126-.187-.23-.422-.23-.525a.782.782 0 0 0-.12-.364 3.914 3.914 0 0 1-.28-.61c-.087-.237-.197-.431-.242-.431-.046 0-.084-.063-.084-.14 0-.12-.286-.72-.539-1.13a3.721 3.721 0 0 1-.203-.431c-.065-.162-.15-.295-.187-.295-.038 0-.069-.055-.069-.122s-.158-.366-.35-.665c-.415-.642-.92-1.674-.92-1.88 0-.08-.071-.146-.159-.147-.123-.001-.131-.019-.035-.08.087-.055.093-.096.02-.14-.055-.035-.162-.21-.236-.387-.075-.179-.209-.39-.298-.47-.188-.17-.744-1.06-.744-1.192 0-.049-.081-.17-.181-.27-.1-.1-.182-.243-.182-.318 0-.075-.04-.136-.09-.136a.093.093 0 0 1-.091-.095c0-.052-.163-.341-.363-.642-.2-.3-.363-.567-.363-.592 0-.026-.143-.221-.318-.434-.174-.214-.317-.417-.317-.453 0-.07-1.187-1.632-1.584-2.085-.127-.145-.23-.289-.23-.319 0-.03-.093-.156-.205-.28a55.2 55.2 0 0 1-.67-.771c-.256-.3-.634-.728-.84-.952-.205-.225-.373-.437-.373-.472 0-.035-.286-.342-.636-.68l-.775-.754a75.492 75.492 0 0 1-.858-.885c-.395-.411-.752-.748-.795-.748-.042 0-.485-.398-.984-.885a51.773 51.773 0 0 0-1.525-1.429c-.34-.3-.767-.703-.948-.896a7.245 7.245 0 0 0-.783-.692c-.544-.409-.727-.566-1.506-1.297-.887-.833-1.05-.97-1.149-.97-.12 0-.542-.362-1.379-1.18a99.067 99.067 0 0 0-1.727-1.634 43.468 43.468 0 0 1-1.582-1.532c-.303-.32-.714-.75-.913-.958-.4-.415-1.011-1.146-1.227-1.466a6.258 6.258 0 0 0-.462-.554c-.178-.192-.351-.461-.386-.598-.034-.137-.195-.402-.358-.587a4.662 4.662 0 0 1-.555-.883c-.142-.3-.335-.642-.428-.76-.092-.12-.169-.303-.17-.409 0-.105-.122-.396-.27-.645-.148-.25-.27-.526-.271-.613-.001-.087-.063-.159-.138-.159-.088 0-.136-.089-.136-.255 0-.14-.096-.457-.213-.703a7.632 7.632 0 0 1-.368-.992c-.286-1.008-.34-1.179-.47-1.467-.071-.157-.105-.348-.076-.423.028-.076-.01-.233-.088-.351-.077-.118-.2-.478-.273-.801-.199-.88-.333-1.383-.421-1.586-.117-.267-.295-1.28-.25-1.418.04-.12.498.311 1.161 1.093.175.206.42.49.545.632.372.422.816.994.816 1.051 0 .198 2.923 3.085 4.276 4.222.267.225.725.643 1.018.93.293.287.568.522.611.522.044 0 .142.122.22.272.077.15.183.272.235.272.13 0 1.089.848 2.271 2.008.541.53 1.135 1.081 1.32 1.225.185.143.577.485.87.76.294.274.593.52.663.545.071.026.384.302.697.615 1.484 1.486 2.652 2.577 2.888 2.7.143.073.303.215.356.315.054.1.4.409.77.688.371.279.697.577.724.663.056.176.502.804.502.707 0-.034.231.193.514.504.283.312.773.817 1.09 1.123.315.305.573.605.573.665 0 .06.164.265.363.457.2.192.363.413.363.492 0 .079.043.143.095.143.101 0 .813.715.813.817 0 .034.103.108.228.166a.73.73 0 0 1 .32.31c.13.292.53.826.683.912.071.04.195.2.275.354.08.155.325.464.544.686.22.222.506.602.638.843.13.241.293.46.359.485.107.04.439.487.726.973.054.092.217.285.363.428.145.143.335.379.42.523.232.39.382.62.438.671.028.025.156.23.286.454.13.225.321.486.426.581.105.095.191.22.191.28 0 .058.164.287.364.507.2.22.407.56.46.755.054.195.268.582.475.862.84 1.134 1.696 2.518 1.696 2.747 0 .078.081.245.181.372.1.127.181.253.181.281 0 .028.123.244.273.48.15.236.272.5.272.588 0 .088.056.192.124.232.069.04.21.243.316.452.106.209.23.403.277.432.047.029.112.172.144.317.032.146.116.314.188.373.072.06.13.19.13.29 0 .099.081.328.18.51.1.181.222.432.272.557.05.124.13.288.176.363.109.177.42.895.5 1.156.036.113.096.205.134.205.039 0 .125.173.191.385.066.212.185.439.264.503.079.065.125.126.102.136-.023.01.073.305.214.654.14.35.27.721.29.826.02.106.218.612.44 1.126.224.514.385.968.36 1.01-.06.097.23.713.336.713.044 0 .08.112.082.25 0 .137.083.427.181.644.1.218.18.465.18.55 0 .084.049.202.109.262s.08.108.046.108c-.035 0-.006.154.064.34.07.188.177.606.24.93.062.325.142.631.178.681.035.05.093.417.128.816.039.448.116.784.203.88.076.084.12.207.098.272-.023.066.017.303.088.527.071.225.148.934.171 1.576.028.774.086 1.253.175 1.424.107.207.127.607.102 2.052-.017.988 0 1.938.04 2.113.04.174.036.338-.007.365-.044.027-.077.364-.073.748.004.385-.034.751-.086.815-.05.064-.112.36-.135.657-.024.297-.09.555-.148.574-.057.02-.104.096-.104.17a.46.46 0 0 1-.133.268c-.073.073-.157.284-.188.47a3.36 3.36 0 0 1-.109.473.488.488 0 0 0-.04.201c.008.036-.069.11-.17.165-.133.07-.169.151-.126.286.033.103.022.213-.023.244-.125.086-.637.877-.704 1.087a.397.397 0 0 1-.22.236c-.088.028-.252.214-.364.413-.111.2-.232.362-.268.362-.036 0-.132.113-.214.251-.158.268-.614.77-.813.897-.142.09-.47.552-.556.78a.259.259 0 0 1-.223.159c-.177 0-.712.413-1.146.885-.15.162-.318.295-.375.295-.057 0-.154.092-.215.206-.06.113-.23.287-.378.385-.147.1-.267.223-.268.275 0 .052-.162.195-.36.317-.199.123-.362.25-.363.282-.001.033-.203.204-.447.38-.245.175-.52.444-.61.598-.09.153-.235.301-.32.328-.137.044-1.273.951-1.602 1.28a.521.521 0 0 1-.322.122c-.22 0-.568.343-.53.522.014.062-.038.113-.116.113-.18 0-.45.162-.793.477-.15.137-.328.25-.397.25-.068 0-.188.097-.267.217a.73.73 0 0 1-.365.274c-.122.03-.222.096-.222.145 0 .049-.052.09-.116.09-.22 0-.453.586-.387.973.106.631.327.882.893 1.018.28.067.658.095.85.063.918-.153 1.186-.22 1.455-.36.16-.084.388-.152.508-.152s.312-.083.43-.184c.116-.102.316-.207.444-.235.726-.16 2.106-.772 2.714-1.205.148-.105.313-.191.368-.191.055 0 .1-.04.1-.09 0-.05.055-.092.123-.092s.222-.075.34-.168c.12-.092.425-.236.68-.32.254-.083.598-.253.765-.376.168-.123.353-.224.413-.224s.485-.223.944-.494c.46-.272.952-.52 1.093-.55.14-.031.305-.115.364-.187.06-.072.159-.13.22-.13.12 0 .846-.37 1.225-.624.126-.084.372-.223.547-.309.174-.085.379-.19.453-.232.37-.209.57-.311 1.452-.742.524-.256 1.075-.58 1.225-.723.29-.275.659-.51 1.316-.84.224-.113.428-.225.453-.25a1.42 1.42 0 0 1 .193-.136c.373-.231 1.985-1.601 2.453-2.086a1.03 1.03 0 0 0 .226-.385c.028-.113.084-.206.123-.206.039 0 .202-.419.362-.93.16-.512.346-1.093.412-1.293.067-.2.147-.567.179-.817.066-.53.208-1.113.325-1.337.045-.086.082-.393.082-.68 0-.288.059-.789.132-1.113.072-.324.176-.814.229-1.089l.24-1.225c.079-.399.156-.99.171-1.315.016-.325.071-.855.124-1.18.426-2.645.455-7.94.053-9.663-.07-.3-.21-1.157-.31-1.905-.184-1.377-.318-2.124-.471-2.645a8.987 8.987 0 0 1-.166-.726c-.045-.242-.208-.95-.363-1.574a29.759 29.759 0 0 1-.36-1.607 7.446 7.446 0 0 0-.17-.77 5.643 5.643 0 0 1-.15-.753 5.746 5.746 0 0 0-.14-.726c-.178-.59-.462-2.023-.496-2.495a9.145 9.145 0 0 0-.128-.953 36.606 36.606 0 0 1-.648-4.4c-.053-.575-.11-1.167-.127-1.316a60.26 60.26 0 0 1-.098-1.805c-.044-.993-.111-1.616-.191-1.77-.068-.13-.124-.42-.125-.644 0-.225-.065-.98-.142-1.679a36.49 36.49 0 0 1-.17-2.677c-.017-.781-.077-1.525-.135-1.673-.059-.147-.12-.748-.139-1.336-.018-.587-.081-1.215-.14-1.395-.06-.18-.088-.436-.062-.57.025-.132-.008-.568-.075-.968-.066-.4-.147-1.196-.18-1.77-.031-.574-.116-1.299-.187-1.611-.092-.409-.127-1.185-.125-2.768.002-1.21.015-2.33.03-2.49.014-.16-.009-.27-.05-.244-.042.026-.077.034-.077.019 0-.016-.044-.273-.096-.573-.113-.639-.25-2.292-.315-3.765a28.538 28.538 0 0 0-.093-1.452c-.118-1.002-.123-1.63-.013-1.61.062.013.098-.055.084-.16-.06-.416-.038-.86.064-1.322l.193-.879a3.9 3.9 0 0 0 .086-.685c0-.164.044-.342.098-.396.056-.056.118-.625.144-1.311.06-1.602.077-1.823.15-1.984.035-.075.118-.404.187-.732.111-.535.278-.958.428-1.083.03-.025.078-.255.108-.51a3.34 3.34 0 0 1 .242-.867c.103-.22.184-.542.179-.714-.016-.547.28-1.538.458-1.538.054 0 .093-.244.093-.579 0-.404.041-.613.136-.692a.423.423 0 0 0 .136-.285c0-.094.102-.334.227-.531.125-.198.227-.413.227-.478s.163-.432.363-.816c.2-.383.363-.815.363-.96 0-.146.06-.315.136-.377.075-.063.136-.221.136-.353 0-.132.081-.392.181-.578.1-.187.182-.416.182-.51 0-.094.061-.221.136-.283a.399.399 0 0 0 .136-.261c0-.081.062-.265.137-.408.074-.142.135-.31.135-.371 0-.062.082-.206.182-.321.1-.115.181-.262.181-.327 0-.064.08-.173.18-.243.099-.069.246-.285.327-.481.081-.196.205-.388.274-.428a.269.269 0 0 0 .126-.208c0-.074.065-.233.144-.354.08-.12.12-.259.09-.307-.056-.092.068-.239.39-.462.105-.073.256-.338.334-.59.207-.662.42-1.137.508-1.137.042 0 .077-.056.077-.125s.054-.17.121-.226c.067-.055.172-.267.233-.471.144-.483.8-1.873.916-1.945.05-.031.09-.121.09-.2 0-.079.066-.19.146-.25.136-.099.505-.94.818-1.864.076-.225.217-.476.314-.559.096-.083.175-.205.176-.272 0-.067.117-.351.26-.632.142-.28.287-.66.321-.844.035-.184.142-.414.24-.511.097-.098.223-.37.28-.608.057-.236.16-.559.227-.716.067-.157.122-.352.122-.432a.83.83 0 0 1 .078-.304c.17-.348.589-1.67.854-2.698.154-.6.314-1.103.355-1.12.04-.016.074-.11.074-.207a.87.87 0 0 1 .126-.378c.069-.11.148-.507.176-.881.028-.374.135-.913.237-1.198.102-.284.208-.704.236-.934a3.31 3.31 0 0 1 .145-.662c.052-.135.13-.572.173-.972.043-.399.144-1.011.224-1.36.08-.35.169-.901.197-1.225.028-.325.094-.617.146-.65.084-.054.225-.86.641-3.67.067-.454.146-.864.175-.91.028-.047.073-.329.1-.626.11-1.252.244-2.226.337-2.464.088-.226.24-.944.544-2.568.051-.275.131-.581.178-.68.046-.1.101-.334.123-.519a5.28 5.28 0 0 1 .219-.862c.099-.289.228-.832.287-1.206.166-1.062.202-1.221.284-1.275.042-.027.16-.394.26-.816.102-.422.225-.838.275-.924.049-.087.09-.276.09-.421 0-.145.06-.38.135-.523.074-.143.136-.444.137-.668.002-.407.271-1.87.375-2.042.03-.05.083-.335.117-.635.035-.3.118-.87.187-1.27.234-1.369.242-2.099.042-4.083-.362-3.583-.538-4.692-.95-5.988-.064-.2-.187-.73-.273-1.18a62.126 62.126 0 0 0-.418-1.925c-.143-.609-.26-1.222-.26-1.361 0-.14-.042-.396-.094-.57-.052-.175-.15-.706-.218-1.18a13.854 13.854 0 0 0-.189-1.088 3.755 3.755 0 0 1-.094-.568c-.017-.188-.057-.383-.088-.435-.047-.076-.154-.811-.237-1.629-.008-.075-.07-.442-.137-.816a30.938 30.938 0 0 1-.216-1.44c-.17-1.39-.575-3.334-.834-4.004a3.195 3.195 0 0 1-.133-.635c-.025-.225-.087-.46-.139-.522-.051-.062-.07-.113-.042-.113.027 0-.03-.276-.13-.613a81.95 81.95 0 0 1-.624-2.28c-.043-.168-.121-.35-.175-.403a.483.483 0 0 1-.098-.296c0-.11-.061-.315-.136-.458a1.24 1.24 0 0 1-.136-.46c0-.24-.454-1.502-.568-1.579-.076-.051-.162-.33-.334-1.08a2.833 2.833 0 0 0-.22-.59c-.081-.149-.148-.32-.148-.378 0-.059-.164-.444-.363-.857-.2-.413-.363-.799-.363-.858 0-.059-.062-.158-.136-.22-.075-.062-.137-.174-.137-.25 0-.182-.924-2.018-1.016-2.018-.04 0-.072-.102-.072-.227s-.031-.227-.07-.227c-.038 0-.109-.076-.158-.17-.338-.639-.539-.976-.63-1.054-.146-.126-.594-.84-.594-.945 0-.048-.075-.11-.167-.14-.092-.029-.224-.164-.295-.3a6.33 6.33 0 0 0-.43-.657l-.5-.678a4.156 4.156 0 0 0-.4-.464c-.112-.107-.204-.238-.204-.292 0-.053-.082-.122-.182-.154-.1-.032-.181-.087-.181-.122s-.45-.528-.998-1.095c-.549-.567-.998-1.066-.998-1.109 0-.043-.04-.078-.088-.078-.048 0-.206-.113-.35-.25a17.547 17.547 0 0 0-1.744-1.474c-.31-.225-.625-.467-.699-.54a2.506 2.506 0 0 0-.442-.295c-.323-.173-.511-.32-.937-.73-.143-.138-.32-.25-.394-.25-.074 0-.231-.122-.349-.272-.118-.15-.45-.417-.736-.595-.287-.178-.522-.354-.522-.39 0-.038-.183-.184-.408-.326-.225-.142-.408-.29-.408-.33 0-.07-.16-.172-.772-.491a7.918 7.918 0 0 1-.544-.32 4.913 4.913 0 0 0-.405-.24c-.073-.036-.39-.24-.704-.456-.314-.215-.632-.39-.706-.39-.075 0-.136-.042-.136-.092 0-.05-.081-.09-.181-.09-.1 0-.182-.04-.182-.09 0-.048-.099-.113-.22-.143a.894.894 0 0 1-.377-.229c-.086-.095-.23-.173-.318-.173a.543.543 0 0 1-.316-.156c-.086-.086-.364-.229-.619-.319s-.477-.203-.494-.252c-.016-.05-.09-.09-.162-.09-.072 0-.23-.065-.352-.145-.578-.379-2.792-1.488-2.97-1.488-.074 0-.24-.082-.366-.182-.127-.1-.296-.181-.375-.181-.08 0-.145-.04-.145-.09 0-.05-.077-.091-.17-.091a.41.41 0 0 1-.278-.13c-.059-.07-.266-.155-.461-.188a2.017 2.017 0 0 1-.698-.308 2.936 2.936 0 0 0-.777-.368c-.238-.066-.455-.155-.482-.198-.026-.043-.149-.079-.272-.079-.124 0-.248-.06-.277-.135-.035-.093-.122-.118-.273-.08a.411.411 0 0 1-.385-.094c-.09-.082-.385-.228-.654-.324-.27-.097-.48-.218-.467-.27.012-.052-.098-.095-.245-.095-.146 0-.292-.04-.322-.09-.031-.05-.156-.091-.278-.091-.121 0-.476-.12-.788-.265a7.975 7.975 0 0 0-.885-.355 11.569 11.569 0 0 1-1.239-.439c-.157-.066-.338-.12-.402-.12-.189 0-.84-.22-1.458-.49-.182-.08-.409-.146-.503-.146a.443.443 0 0 1-.274-.102c-.056-.056-.504-.178-.994-.272l-1.189-.229c-.163-.03-.319-.092-.345-.135-.027-.043-.13-.078-.23-.078-.194 0-.916-.207-1.441-.412-.445-.174-1.731-.453-1.962-.425a.376.376 0 0 1-.301-.11c-.06-.072-.169-.109-.24-.081a.276.276 0 0 1-.243-.04c-.062-.048-.296-.114-.52-.145-.944-.13-1.44-.226-1.6-.308-.093-.049-.64-.157-1.214-.241a71.166 71.166 0 0 1-1.814-.292 23.904 23.904 0 0 0-1.044-.168 88.9 88.9 0 0 1-.998-.125 25.819 25.819 0 0 0-1.428-.141c-.386-.025-.782-.088-.879-.14-.097-.052-.447-.094-.778-.094-.33 0-.68-.043-.777-.094-.1-.054-.175-.058-.175-.01s-.242.06-.567.03c-.312-.03-.982-.055-1.489-.058-.507-.003-.902-.035-.88-.073.036-.057-1.715-.125-2.145-.083-.075.007-.973.038-1.996.067-1.023.03-2.01.092-2.191.139-.182.046-.397.058-.478.027-.124-.048-1.913.114-3.184.288-.2.028-.648.085-.998.128-.35.044-.941.139-1.315.212a15.76 15.76 0 0 1-1.452.194c-.424.034-.894.097-1.044.14-.15.042-.598.1-.998.128-.399.028-.95.112-1.225.187-1.323.36-3.014.659-4.173.739-.474.032-.935.096-1.023.142-.136.07-1.79.181-2.506.169-.12-.002-.263.033-.318.078-.055.045-.427.107-.826.136-.4.03-.869.072-1.043.094-.175.022-1.053.063-1.951.09-.898.027-1.775.074-1.95.104-.173.03-.744.093-1.27.14a59.63 59.63 0 0 0-1.68.176c-.399.05-1.093.13-1.542.18-1.905.212-2.305.258-2.994.344-.4.05-.846.136-.991.192-.146.056-.316.083-.377.06-.062-.024-.31.018-.552.092-.247.076-.585.113-.772.084-.183-.027-.346-.017-.363.023-.044.105-1.182.44-2.027.597-.4.074-.839.177-.976.229a1.11 1.11 0 0 1-.52.04c-.174-.035-.273-.018-.273.047 0 .058-.151.102-.35.102-.193 0-.57.044-.84.097-.517.102-.533.104-1.924.258-.962.107-1.325.177-1.468.282-.05.037-.335.096-.635.132a6.55 6.55 0 0 0-1.078.243c-.294.098-.59.157-.658.13-.068-.026-.124-.015-.124.025 0 .073-.564.202-1.866.426-.402.07-.994.21-1.315.313-.322.103-.91.246-1.31.319-.4.072-.915.17-1.146.219-.232.048-.62.096-.862.106-.243.01-.483.049-.533.085-.05.036-.192.095-.317.131-.125.036-.39.14-.59.23-.474.216-1.255.452-1.493.452-.188 0-.252.025-.79.305-.157.082-.358.149-.446.149a.594.594 0 0 0-.326.15c-.129.116-.214.13-.37.059a.572.572 0 0 0-.386-.021l-.181.071.181.017c.1.01-.036.054-.303.098-.266.044-.571.141-.678.216a.963.963 0 0 1-.47.136.953.953 0 0 0-.457.122 1.59 1.59 0 0 1-.49.183c-.172.033-.389.13-.483.215a.73.73 0 0 1-.369.169c-.21.014-.3.042-1.014.308-.25.093-.699.239-.998.324-.693.196-.646.176-1.18.492-.25.147-.563.269-.698.27-.134.002-.269.044-.3.094-.03.05-.168.091-.305.091-.136 0-.287.035-.335.077-.047.042-.514.213-1.038.38s-.967.336-.983.377c-.017.04-.104.073-.194.073-.216 0-.547.18-.798.431-.112.113-.268.205-.348.205-.079 0-.248.081-.375.181-.127.1-.283.181-.347.181-.116 0-.184.031-1.13.51l-.725.366a4.437 4.437 0 0 1-.667.232c-.242.064-.478.188-.525.276-.046.087-.145.159-.219.159a.803.803 0 0 0-.291.078l-.43.21c-.15.074-.456.19-.68.26-.225.068-.43.15-.454.182-.025.032-.246.133-.49.226-.244.092-.539.262-.654.377-.115.115-.288.21-.384.21a.437.437 0 0 0-.293.142c-.065.079-.264.218-.442.31a2.769 2.769 0 0 0-.524.356c-.11.104-.24.19-.289.19-.08 0-.33.126-1.733.876-.225.12-.572.32-.771.444-.2.124-.537.315-.749.423-.212.11-.386.231-.386.271 0 .04-.163.14-.363.22-.2.079-.462.262-.584.407-.121.144-.244.262-.272.262-.071 0-.68.451-.959.71-.4.373-1.036.854-1.266.958-.124.056-.408.295-.632.532-.224.237-.453.431-.51.431-.055 0-.156.102-.222.227-.067.125-.153.227-.192.227-.039 0-.328.244-.642.543-.315.298-.603.543-.64.544-.038 0-.069.056-.069.123s-.102.168-.227.225c-.125.057-.227.147-.227.2 0 .054-.122.14-.272.193-.15.052-.272.132-.272.178 0 .045-.306.394-.68.776-.375.382-.681.73-.681.772 0 .044-.102.126-.227.182-.125.057-.227.165-.227.24 0 .15-.255.47-.373.47-.096 0-.533.44-.52.524.006.036-.08.112-.191.169a1.15 1.15 0 0 0-.363.363 3.931 3.931 0 0 1-.4.514c-.132.14-.24.313-.24.385 0 .072-.04.132-.09.132-.05 0-.091.06-.091.132 0 .074-.08.176-.176.227-.168.09-.624.798-.568.882.015.022-.077.123-.204.223s-.232.26-.232.357c0 .096-.03.175-.07.175-.037 0-.203.224-.367.499-.164.274-.334.499-.378.499-.155 0-.364.288-.364.502a.376.376 0 0 1-.182.314c-.1.054-.181.157-.181.23 0 .073-.036.133-.08.133-.045 0-.145.135-.223.3a1.784 1.784 0 0 1-.328.468c-.102.092-.186.239-.186.325 0 .087-.059.18-.132.209-.072.028-.225.221-.34.43-.307.56-.366.647-.64.935-.137.145-.249.31-.249.369 0 .058-.091.204-.204.324-.223.238-.33.402-.617.95-.362.69-.442.817-.604.953-.09.075-.207.238-.262.363-.088.2-.403.83-.839 1.678a2.44 2.44 0 0 1-.236.383c-.258.297-.323.387-.323.453 0 .04-.122.255-.272.48-.149.224-.271.5-.271.612 0 .113-.04.205-.09.205-.049 0-.114.098-.144.218-.03.12-.153.31-.274.424-.12.113-.219.258-.219.32 0 .153-.36.761-.45.761-.04 0-.097.165-.13.367-.032.201-.119.39-.193.418-.074.028-.134.126-.134.218 0 .091-.04.192-.09.222-.05.031-.091.133-.091.226s-.062.23-.137.306c-.074.075-.136.178-.136.228 0 .051-.102.203-.226.338-.125.134-.227.3-.227.367 0 .068-.031.123-.069.123-.038 0-.123.133-.19.295-.145.356-.375.875-.636 1.439-.107.23-.194.465-.194.522 0 .057-.04.103-.09.103-.05 0-.092.082-.092.182 0 .1-.04.181-.09.181-.05 0-.09.079-.09.174 0 .197-.283.732-.387.733-.037 0-.068.048-.068.107 0 .058-.054.17-.12.25a1.933 1.933 0 0 0-.239.46c-.233.631-.321.817-.389.817-.037 0-.068.043-.068.095 0 .053-.102.246-.227.43-.125.183-.227.41-.227.502 0 .093-.082.273-.181.4-.1.127-.182.285-.182.351 0 .175-.292.762-.38.762-.04 0-.074.072-.074.159 0 .087-.053.26-.118.386-.064.124-.21.479-.325.787-.115.309-.266.583-.336.61-.07.027-.128.17-.128.318 0 .149-.04.295-.09.326-.05.03-.091.16-.091.286 0 .127-.123.454-.272.726-.15.273-.273.577-.273.675a.86.86 0 0 1-.127.38c-.07.111-.193.46-.272.775-.08.316-.288.871-.462 1.235-.175.363-.318.726-.318.807 0 .08-.102.37-.227.642-.125.273-.227.57-.227.66 0 .091-.081.298-.18.46a2.058 2.058 0 0 0-.223.498 32.68 32.68 0 0 1-.484 1.839c-.126.415-.23.877-.337 1.51-.022.133-.127.541-.233.908-.207.716-.242.884-.323 1.551-.03.237-.09.431-.134.431-.045 0-.083.194-.085.431a6.129 6.129 0 0 1-.133 1.021 5.985 5.985 0 0 0-.133.981c-.002.216-.04.462-.087.549-.122.227-.235 2.996-.223 5.422.01 2.032.064 2.603.41 4.39.054.274.131.745.173 1.045.041.301.162.852.268 1.225.106.373.248.881.316 1.13.067.247.166.465.22.483.055.018.1.155.1.303 0 .319.183 1.102.273 1.167.035.025.114.262.177.527.063.265.232.725.376 1.022.144.297.262.602.262.676 0 .132.15.504.586 1.45.315.682.465 1.05.592 1.451.063.2.177.435.254.522.076.087.11.159.073.159-.036 0 .012.112.107.25.095.136.265.442.377.68.113.236.242.453.287.481.046.028.083.112.083.187 0 .074.102.286.227.47.125.183.227.42.227.528a.43.43 0 0 0 .117.292c.065.053.175.242.244.42.07.176.16.321.2.321.04 0 .074.055.074.122s.082.196.182.286c.1.09.181.243.181.338 0 .095.096.303.212.462.117.16.267.432.333.607.066.174.195.402.286.505.092.103.167.23.167.284 0 .092.44.801 1.01 1.63.143.208.26.42.26.471 0 .052.072.147.16.212a.531.531 0 0 1 .186.247c.015.07.165.336.333.59.169.254.35.574.402.71.052.138.136.25.187.25.051 0 .093.054.093.12 0 .065.072.197.16.294.088.097.21.288.27.426.061.137.15.25.196.25.047 0 .113.122.146.271.032.15.13.323.218.386.087.062.254.307.371.544.118.237.248.431.289.431.04 0 .074.056.074.125s.058.173.128.231c.07.059.195.237.276.397.082.16.227.413.323.563.097.15.24.387.319.526.079.14.206.324.283.409.195.215 1.119 1.68 1.12 1.775.001.095.65.998.748 1.04.038.017.07.083.07.148 0 .064.06.168.136.23a.417.417 0 0 1 .136.28c0 .092.077.209.17.26.095.05.197.19.228.313.03.123.107.277.17.343.061.066.206.304.32.528.21.415.31.6.473.885.05.087.224.424.386.748.162.325.345.644.408.71.062.066.113.16.113.21 0 .05.102.224.227.388.125.163.227.34.227.391 0 .052.066.149.147.216.081.068.367.583.636 1.145.268.563.528 1.023.578 1.023.05 0 .09.062.09.138a.8.8 0 0 0 .081.295c.232.452.549 1.192.603 1.405.033.133.115.288.183.343.067.056.168.242.225.412.056.171.14.31.186.31.046 0 .084.104.084.23 0 .127.188.623.418 1.102.23.48.425.918.433.975.009.058.123.328.255.6.132.273.287.675.345.894.057.219.139.464.18.544.176.338.364.827.596 1.553.135.425.28.853.323.953.08.19.622 1.916.87 2.767.079.275.166.56.193.636.079.218.276 1.149.464 2.19.096.532.214 1.043.262 1.135.103.199.288 1.166.288 1.508 0 .133.061.422.136.643.139.408.255 1.244.411 2.956.048.52.107 1.01.13 1.089.06.19.316 3.944.365 5.359l.108 3.13c.088 2.597.047 8.428-.066 9.301-.06.458-.058.83.006 1.134.052.25.114 1.25.138 2.222.024.973.084 1.974.134 2.223.05.25.13.679.178.953.105.596.402 1.954.566 2.586.064.25.188.554.276.678.087.123.159.308.159.41 0 .103.055.268.123.366.069.098.155.281.194.406.208.683 1.93 3.803 2.145 3.886.043.017.078.087.078.156s.082.169.182.222c.1.054.181.157.181.23 0 .073.032.133.071.133.04 0 .138.113.22.25.082.137.397.506.7.82.303.313.551.632.551.708 0 .076.042.113.092.082.05-.031.118.014.152.101.033.087.124.226.203.31.291.31.642.744.642.794 0 .087 1.272 1.29 1.364 1.29.049 0 .088.06.088.132 0 .117 1.955 2.145 2.692 2.792.155.137.308.355.341.487.033.131.191.37.351.53.559.558 1.29 1.41 1.376 1.605.086.193.249.401.843 1.08.162.186.295.382.295.437 0 .054.081.143.181.196.1.053.182.157.182.23 0 .073.042.133.093.133.052 0 .12.071.154.159a.98.98 0 0 0 .27.324c.114.09.208.257.208.37 0 .126.088.252.227.327.125.066.227.187.227.269 0 .144.078.266.544.852.212.265.34.468.584.92.054.1.282.467.507.817.226.349.46.747.52.884s.145.25.19.25c.043 0 .256.357.473.794.216.436.444.844.505.906.06.062.16.266.22.454.06.187.181.423.27.522.089.1.209.417.268.704.058.288.196.635.306.772.332.413.632 1.2.875 2.29.06.274.147.57.192.656a.877.877 0 0 1 .08.338c0 .099.082.325.182.503.1.178.182.414.182.526 0 .111.081.426.181.699.1.273.182.647.182.832 0 .184.044.45.1.59.054.141.134.46.176.71.043.25.142.759.22 1.132.078.373.124.728.1.788-.023.06-.006.123.037.138.043.016.164.688.268 1.493.103.806.247 1.631.32 1.835.071.204.155.648.185.986.03.338.09.839.135 1.113.044.275.107.765.14 1.09.033.324.12.875.193 1.224.073.35.15.737.172.862.183 1.061.37 1.53.638 1.598.478.12 1.548-.132 3.894-.918.25-.084.719-.207 1.043-.275.325-.067.733-.162.908-.212l.544-.154c.125-.036.288-.113.363-.173.075-.06.279-.164.454-.231.174-.068.451-.198.615-.288.164-.09.484-.206.71-.256.225-.05.516-.162.645-.246.129-.085.293-.162.365-.173a.706.706 0 0 0 .281-.147c.083-.07.294-.191.468-.27.448-.199 2.08-.705 2.276-.705.09 0 .189-.04.22-.09.03-.05.127-.091.214-.091.3 0 .378-.18.231-.532-.074-.178-.164-.346-.2-.372a2.964 2.964 0 0 1-.292-.388c-.124-.187-.27-.34-.324-.34-.054 0-.152-.103-.22-.228-.066-.125-.175-.227-.241-.227-.067 0-.125-.03-.129-.068l-.03-.28c-.013-.116-.127-.3-.253-.408-.273-.234-.534-1.037-.574-1.767l-.085-1.605c-.03-.6-.078-1.177-.105-1.285a.59.59 0 0 1 .04-.363c.115-.215.192-1.213.292-3.75.044-1.124.1-2.165.124-2.315.198-1.235.367-2.997.461-4.826.018-.34.055-.801.083-1.026.028-.224.066-.735.085-1.134.034-.724.216-1.982.485-3.357.078-.4.158-.93.177-1.18.02-.25.093-.617.164-.816.07-.2.157-.751.19-1.225.035-.474.095-.903.135-.953.07-.088.165-1.371.219-2.96.014-.43.058-.9.098-1.043.04-.144.077-.445.084-.67.041-1.52.071-1.931.13-1.784.04.101.07-.038.077-.357.007-.288.075-.812.152-1.165.208-.956.276-1.351.257-1.502-.023-.19.137-.888.438-1.906.59-1.997.667-2.238.826-2.558.168-.34.43-1.06.483-1.332.027-.137.75-2.306 1.046-3.142.035-.1.138-.426.228-.725.196-.655.709-1.76.93-2.003.24-.265.474-.653.474-.787 0-.065.12-.249.264-.408.576-.63.817-1.389 1.088-3.429.04-.3.115-.628.167-.726.051-.098.123-.362.16-.587.036-.224.097-.449.136-.499.039-.05.102-.397.14-.77.113-1.115.124-1.203.21-1.77.074-.485.06-.594-.13-.998a4.216 4.216 0 0 0-.397-.68c-.101-.125-.205-.411-.231-.636a9.522 9.522 0 0 0-.102-.672c-.03-.145-.06-.785-.067-1.421-.011-1.028.006-1.17.152-1.26.192-.12.516-.043.516.124 0 .063.184.287.408.497.225.21.408.419.408.462 0 .073.496.394 1.344.87.363.204 1.019.374 1.877.485.948.123 1.407.51 1.407 1.187 0 .155.055.392.123.527.068.134.147.424.175.643.028.22.104.432.168.472.082.05.106.231.08.599-.022.29-.031 1.11-.02 1.823.017 1.277.014 1.303-.252 1.814a6.238 6.238 0 0 1-.385.664c-.192.24-.675.445-1.05.445-.477 0-.832.193-1.201.652-.3.373-.632.947-.632 1.09 0 .137-.316.798-.382.798-.036 0-.093.208-.127.462-.034.255-.116.482-.184.508-.191.074-.34.742-.222 1 .054.12.098.335.098.48 0 .143.041.287.091.318.05.031.167.212.259.402.222.46.26 1.832.06 2.12a.773.773 0 0 0-.138.357c0 .09-.036.234-.08.32-.219.434-.404 1.277-.523 2.38-.03.275-.092.547-.139.606-.046.058-.08.303-.073.544.006.241-.034.622-.088.847-.232.957-.27 1.191-.33 1.98-.035.458-.098.833-.14.833-.042 0-.075.092-.073.204.002.112-.044.796-.103 1.52a50.678 50.678 0 0 0-.128 2.223c-.013.499-.09 1.657-.17 2.573-.081.916-.127 1.699-.102 1.739.025.04-.036.495-.134 1.01a23.236 23.236 0 0 0-.271 2.072 46.67 46.67 0 0 1-.134 1.452c-.024.175-.065.624-.093.998-.027.374-.094.79-.15.925-.054.134-.075.283-.045.331.03.049.008.49-.048.981a26.823 26.823 0 0 0-.13 1.528c-.04.945-.216 2.254-.316 2.354-.117.117-.111.842.007.915.052.032.072.13.044.219-.054.17-.058 1.384-.009 2.365.046.9.124 1.412.27 1.762.218.521.28 1.514.122 1.972-.38 1.106-.376 1.025-.064 1.595.157.288.34.554.407.592.066.037.146.189.179.336.032.147.127.29.21.316.085.027.235.172.335.322.1.15.23.272.29.272.06 0 .161.074.226.163.205.28 1.524 1.098 2.342 1.452.274.119.84.376 1.256.571.417.195.826.355.91.355.083 0 .301.102.485.227.183.125.387.227.452.228.154.002.777.22.857.3.034.034.142.062.24.062.096 0 .324.078.506.174.717.378 1.499.733 1.614.733.067 0 .122.04.122.09 0 .05.065.091.145.091.08 0 .253.077.385.171.133.094.537.274.898.4.361.125.892.385 1.18.577.554.371 1.021.605 1.021.51 0-.03.092.025.204.123.113.099.43.275.704.39.784.333 1.198.554 1.56.835.184.144.408.262.498.263.09 0 .267.082.391.18.125.097.26.178.3.179.07.002 1.687.754 1.969.916.273.157.932.447 1.017.447.047 0 .33.143.628.317.298.175.58.318.628.318.047 0 .086.036.086.079 0 .044.153.106.34.14.187.032.483.137.658.231.175.095.45.234.612.31.163.076.295.18.295.23 0 .05.164.136.363.19.2.053.363.128.363.166 0 .039.214.144.476.235s.64.255.84.364c.2.109.546.276.77.37a3.7 3.7 0 0 1 .766.471c.196.165.389.299.429.299.087 0 1.247.512 1.437.635.075.048.31.17.522.273.212.102.385.215.385.251 0 .037.133.124.295.195.163.07.393.202.512.294.119.092.278.166.354.166.076 0 .264.095.419.211.154.116.453.29.664.386.21.096.384.216.386.265.002.05.36.264.796.475.823.397.962.476 1.445.818.16.113.33.205.38.205.05 0 .144.053.21.12.28.279 1.058.768 1.392.874.198.063.442.165.542.226.1.062.293.14.43.173.136.033.386.183.556.332.17.149.364.27.433.271.068 0 .257.082.42.181.164.1.351.182.416.182.138 0 1.122.377 1.647.632 1.103.534 2.082.61 2.854.223zm2.703-32.494c-.289-.02-.522-.079-.522-.133 0-.058-.06-.047-.15.027-.118.098-.16.1-.19.012-.02-.063-.127-.114-.237-.114-.11 0-.423-.063-.696-.14a9.245 9.245 0 0 0-.695-.173 1.032 1.032 0 0 1-.302-.097c-.057-.035-.283-.075-.502-.089-.397-.025-1.286-.169-2.009-.326a5.066 5.066 0 0 0-.879-.082c-.274 0-.527-.045-.56-.1-.037-.059-.176-.077-.336-.045-.155.03-.329.01-.399-.048-.078-.065-.637-.111-1.507-.124-.76-.011-1.495-.051-1.633-.089-.138-.037-.301-.03-.363.017-.102.078-1.019.045-2.789-.1a187.44 187.44 0 0 0-1.36-.105c-.425-.031-.925-.096-1.112-.143-.226-.058-.399-.055-.518.009-.123.066-.297.066-.567.002a6.376 6.376 0 0 0-.798-.128l-1.225-.1c-.449-.038-.83-.102-.845-.143-.016-.042-.143-.053-.283-.025-.151.03-.37-.01-.546-.1-.161-.084-.345-.132-.41-.107-.151.058-2.23-.198-2.356-.29-.053-.039-.32-.125-.595-.19-.275-.066-.54-.15-.59-.185-.05-.036-.344-.118-.653-.181-.308-.064-.58-.167-.605-.23-.024-.062-.198-.142-.388-.177-.41-.077-.85-.291-.85-.415 0-.048-.076-.088-.17-.088-.276 0-.914-.388-1.439-.874-.127-.118-.266-.215-.309-.215-.043 0-.077-.062-.077-.139 0-.077-.276-.419-.613-.76-.576-.586-1.007-1.243-1.014-1.55-.008-.318-.125-.726-.208-.726-.137 0-.023-2.694.132-3.106.07-.186.154-.367.189-.401.034-.034.062-.175.062-.314 0-.138.04-.277.09-.308.05-.03.091-.12.091-.2 0-.08.099-.353.219-.608.12-.254.248-.625.284-.825.11-.604.348-.956 1.304-1.932l.916-.934.43.018c.237.01.5.052.583.094.196.098 1.186.237 2.162.304.993.067 1.529.12 2.314.225.349.047 1.084.108 1.633.135a47.4 47.4 0 0 1 1.588.106c.71.066 2.416.137 4.083.168.673.013 1.817.07 2.54.128 2.941.234 12.67.28 13.17.062.083-.036.178-.02.212.037.046.074.097.073.19-.003.068-.058.381-.118.694-.133.313-.016.916-.076 1.34-.133.424-.058.935-.125 1.134-.15.2-.023.445-.078.545-.12.1-.042.549-.126.998-.186.449-.06 1.047-.186 1.33-.28 1.25-.413 1.518-.544 1.705-.835.349-.545.45-.63.818-.698.359-.066.373-.059.52.26.211.459.814 1.17 1.053 1.243.11.034.301.158.426.276.125.119.329.297.454.397.333.266.884.736 1.21 1.031.158.143.573.444.922.67.35.224.91.7 1.245 1.056.336.355.734.771.885.924.15.152.274.344.274.425 0 .082.038.172.084.2.046.029.11.171.142.317.032.146.117.313.188.373.215.178.505 1.25.438 1.62-.088.492-.582 1.253-.852 1.313-.866.192-1.666.319-1.737.275-.046-.029-.582-.045-1.192-.037s-1.207.012-1.328.007c-.256-.009-.594.19-.914.54-.306.334-1.02.87-1.258.946-.107.034-.194.094-.194.134 0 .04-.112.054-.25.032-.175-.028-.213-.014-.127.046.162.114-1.248.324-1.648.246-.367-.072-.722-.24-.815-.386-.04-.062-.175-.113-.3-.113-.126 0-.368-.106-.537-.235-.196-.15-.35-.207-.425-.159-.132.086-1.188.308-1.5.317-.113.003-.205.031-.205.063 0 .033-.133.068-.295.08-.162.011-.34.083-.395.159-.056.075-.151.138-.212.138s-.281.137-.489.305c-.638.515-1.322.965-1.466.965-.075 0-.137.042-.137.094s-.08.181-.178.286c-.099.106-.15.237-.116.291.034.055.072.14.084.19.125.524.227.817.47 1.341.156.338.284.662.284.72 0 .057.049.239.108.403.08.222.082.35.006.505a4.566 4.566 0 0 0-.203.54c-.056.184-.15.374-.21.423-.15.123-.642.175-1.266.133zm-26.932-19.629c-.848-.052-1.224-.114-1.464-.242-.408-.219-1.16-.877-1.16-1.016 0-.057-.06-.127-.133-.155a.356.356 0 0 1-.18-.202c-.027-.082-.19-.263-.364-.401l-.316-.252-1.16.153c-.637.084-1.18.179-1.204.21-.072.09-1.216.639-1.334.639-.058 0-.159.053-.225.117-.066.065-.396.271-.734.46-.542.301-.66.334-1.016.28-.222-.033-.46-.106-.528-.164-.237-.197-.7-.856-.7-.996 0-.077-.041-.166-.092-.197a.107.107 0 0 1-.038-.145c.03-.049-.006-.182-.081-.296-.083-.127-.106-.256-.06-.332.043-.069.039-.195-.01-.284a.91.91 0 0 1-.066-.416c.01-.14-.009-.301-.043-.357-.107-.173.36-2.174.591-2.532.035-.055.108-.3.163-.545.054-.245.199-.597.321-.784.122-.186.222-.4.222-.474 0-.075.123-.362.273-.639.15-.277.272-.566.272-.644 0-.077.061-.201.136-.276a.552.552 0 0 0 .136-.34c0-.113.066-.398.146-.634.13-.381.174-.427.386-.402.178.02.263.102.332.316.12.372.536.755.818.755.372 0 2.65-.698 3.122-.958.302-.165.73-.553.73-.66 0-.046.163-.251.361-.456.593-.61 1.328-.818 1.692-.48.373.348 1.193.273 2.068-.19.196-.103.806-.305 1.358-.448.55-.143 1.024-.296 1.05-.338.028-.043.254-.147.503-.231.25-.084.522-.215.605-.29.082-.075.45-.17.816-.212.586-.067 1.173-.221 2.118-.556.433-.153.844-.263 1.815-.482.499-.113.968-.23 1.043-.26.223-.089 1.61-.348 2.304-.43 2.229-.264 3.257-.356 3.904-.351.403.003 1.135-.056 1.626-.132.601-.093.967-.11 1.118-.053.286.109.912.11.978.003.028-.046.347-.089.709-.097.797-.017 1.062-.045 1.27-.134.22-.096.126-.2-.24-.269-.225-.042-.53-.272-1.124-.85-.703-.683-.872-.909-1.233-1.653-.23-.474-.456-1.086-.503-1.36-.131-.77-.257-1.2-.369-1.27-.056-.035-.119-.202-.14-.372-.046-.386-.231-1.096-.317-1.217-.036-.05-.151-.336-.257-.635-.289-.82-.849-1.883-1.223-2.32-.238-.278-.333-.475-.333-.69 0-.232-.082-.376-.363-.641-.2-.188-.363-.373-.363-.412 0-.039-.318-.39-.706-.782-.743-.75-1.004-1.142-.809-1.22.112-.045-.602-.789-.922-.96-.095-.051-.19-.216-.213-.367-.04-.272-.036-.275.378-.275.23 0 .62.057.869.126l.995.28c1.56.443 1.591.448 1.783.256.14-.141.157-.22.084-.396-.24-.58-.199-.568-2.217-.586-1.016-.01-1.885-.04-1.929-.066-.044-.028-.631-.095-1.305-.15-1.11-.09-1.995-.22-2.36-.348-.074-.026-.85-.06-1.723-.076-.873-.015-1.73-.048-1.906-.072-.547-.076-2.834-.071-2.908.006-.113.119.212.693.459.81.124.06.346.163.492.23.146.067.493.343.771.613.278.27.628.565.777.656.296.181.68.664.93 1.17.088.176.248.414.355.53.108.115.224.358.258.541.034.183.092.373.129.423.287.394.425 2.083.244 2.998-.185.938-.332 1.506-.467 1.811-.067.15-.187.517-.268.817-.276 1.024-.633 2.086-.793 2.359-.088.15-.16.361-.16.47 0 .11-.04.224-.088.254-.049.03-.167.226-.262.436-.096.21-.291.512-.434.67-.143.158-.348.393-.457.522-.172.204-.267.234-.746.234-.622 0-.918-.141-1.333-.636-.3-.356-.647-.967-.763-1.34a17.181 17.181 0 0 0-.267-.746 4.09 4.09 0 0 1-.224-.96 2.6 2.6 0 0 0-.222-.83c-.143-.28-.206-.628-.253-1.4l-.062-1.028-.666-.648c-.366-.357-.665-.698-.665-.759 0-.06-.06-.238-.133-.395a2.868 2.868 0 0 1-.228-1.632c.042-.308.078-.83.08-1.159.001-.604.319-1.9.595-2.433.14-.272.19-1.22.083-1.616-.051-.19-.09-.2-.702-.157-.356.025-1.913.06-3.46.079-2.342.027-2.87.057-3.151.18-.541.235-2.329.218-2.974-.028-.635-.242-.636-.243-.989-.76-.687-1.01-.586-3.317.21-4.782.068-.125.152-.37.187-.545.036-.174.157-.46.27-.635l.62-.954c.228-.35.443-.759.479-.908.035-.148.096-.31.134-.36.22-.286.632-1.211.632-1.42 0-.277-.279-.976-.467-1.172-.165-.172-.35-.596-.35-.802 0-.223.286-.463.551-.463.121 0 .351.072.512.159.16.087.65.34 1.089.56.438.22.878.47.978.555.1.085.291.18.425.211a.918.918 0 0 1 .363.176c.066.065.507.306.982.536.535.259 1.068.603 1.406.908.3.27.626.527.726.57.223.094 1.085.183 3.04.313.823.054 1.741.139 2.04.187.3.048.872.089 1.271.09.4 0 .928.063 1.175.138.305.092 1.016.15 2.223.178.975.024 1.978.064 2.227.09.25.027 1.046.093 1.77.146l2.087.158c.424.034.969.032 1.21-.004a3.29 3.29 0 0 1 .908.026c.283.054 1.201.064 2.328.025a66.484 66.484 0 0 1 2.086-.051c.267.014 1.611-.21 2.133-.355.868-.243 1.315-.617 1.315-1.1 0-.15-.163-.578-.363-.952-.2-.375-.363-.737-.363-.806 0-.069-.036-.125-.08-.125-.044 0-.124-.178-.18-.396-.054-.217-.159-.445-.232-.506-.073-.06-.182-.26-.24-.444-.06-.183-.156-.394-.217-.469-.152-.19-.412-.773-.412-.926 0-.07-.122-.32-.272-.556-.15-.236-.272-.48-.273-.54 0-.06-.081-.233-.18-.382-.1-.15-.182-.354-.183-.454-.002-.227-.17-.707-.412-1.18a5.251 5.251 0 0 1-.305-.77 8.083 8.083 0 0 0-.194-.59c-.04-.1-.124-.345-.186-.545a8.118 8.118 0 0 0-.272-.726c-.088-.2-.17-.505-.184-.68-.013-.175-.07-.379-.127-.454-.057-.075-.155-.38-.217-.68-.062-.3-.149-.708-.193-.908-.044-.2-.125-.608-.18-.907a91.9 91.9 0 0 0-.498-2.436c-.083-.392-.132-.786-.108-.876.024-.09-.01-.525-.074-.966-.377-2.58-.59-8.614-.351-9.922.148-.814.186-6.103.05-7.077-.167-1.199-.407-2.197-.577-2.4a.373.373 0 0 1-.073-.206c0-.174-.565-.97-.918-1.292-.268-.245-.364-.276-.862-.276-.51 0-.597-.029-.956-.325-.445-.369-.802-.754-.802-.868 0-.154-.845-1.891-.92-1.891-.043 0-.078-.044-.078-.098 0-.054-.199-.33-.442-.613-.544-.634-1.056-1.366-1.14-1.631-.035-.11-.095-.199-.134-.199-.038 0-.121-.174-.185-.386a11.319 11.319 0 0 0-.183-.567c-.08-.211.053-.557.241-.629.072-.027.299.031.505.13.542.263.578.244.601-.317.018-.45-.105-1.056-.37-1.815-.2-.578-.277-1.419-.264-2.903.012-1.353.061-1.994.237-3.085.024-.15.085-.579.136-.953.301-2.22.48-3.332.558-3.479.049-.092.108-.337.132-.544.023-.208.079-.5.123-.65.045-.15.107-.497.138-.771.031-.274.09-.58.13-.68.13-.32.282-.98.375-1.634.05-.349.147-.778.214-.952.126-.326.346-1.189.536-2.103.06-.283.138-.545.175-.582.038-.037.068-.173.068-.302 0-.25.164-.8.504-1.686.115-.3.276-.785.358-1.079.082-.294.203-.62.27-.726.066-.105.189-.473.273-.817.084-.344.188-.691.23-.771.13-.249.7-2.02.856-2.661.081-.336.208-.753.28-.927.285-.68.149-1.207-.638-2.472-.248-.398-.272-.507-.272-1.228 0-.613.033-.824.149-.94.179-.178.936-.282 1.097-.15.063.052.298.143.523.203.224.06.432.147.46.194.03.046.205.109.39.139.273.044.379.015.56-.155.123-.116.224-.254.225-.308 0-.092.365-.836.8-1.639.108-.198.198-.464.2-.59.004-.322.164-.566.617-.943.217-.18.4-.331.408-.335.008-.004.665-.06 1.46-.122 1.433-.114 2.714-.07 3.215.111.131.048.464.138.738.2.589.135.94.302 1.261.6.13.119.264.216.3.216.036 0 .139.079.228.175.28.3 1.123.522 2.249.592.798.05 2.93.053 3.402.005a64.235 64.235 0 0 0 2.495-.266 74.419 74.419 0 0 1 1.543-.178 14.21 14.21 0 0 0 1.815-.28c.299-.066.973-.169 1.497-.229.524-.06 1.054-.146 1.18-.19.124-.046.348-.076.498-.069.363.018 2.294-.273 2.605-.392.135-.052.503-.133.817-.18 2.253-.335 2.975-.47 2.975-.551 0-.039.201-.07.448-.07.246 0 .554-.04.683-.09.13-.05.711-.134 1.29-.188.58-.054 1.202-.153 1.381-.22.18-.067.49-.146.69-.175a9.978 9.978 0 0 0 1.27-.252c.199-.054.75-.127 1.224-.164.474-.037 1.026-.116 1.225-.177.2-.06.594-.143.876-.183.282-.04.553-.097.604-.128.05-.031.513-.099 1.03-.15a23.657 23.657 0 0 0 1.845-.271c.5-.098 1.05-.197 1.225-.22l1.361-.181c.574-.077 1.23-.14 1.456-.141.228 0 .452-.038.5-.084.11-.107 2.716-.404 2.967-.338a.573.573 0 0 0 .357-.042c.228-.122 5.645-.184 6.514-.075.466.059.841.053 1.197-.017.372-.073.821-.076 1.59-.01 1.386.12 1.65.081 1.64-.239-.01-.4.111-.67.279-.618.442.135 1.144.432 1.273.537.08.067.33.214.555.327.447.224.52.27 1.639 1.037 1.296.888 2.626 1.992 2.626 2.18 0 .044.081.183.181.31.1.127.182.323.182.435 0 .111.058.251.128.31.164.135.36 1.275.282 1.631-.045.202-.156.316-.44.45-.614.292-3.252.21-6.866-.213-2.184-.256-7.628-.328-9.999-.132-.564.047-1.576.127-2.25.179-.674.052-1.368.13-1.542.175-.175.045-.767.107-1.316.138-1.174.066-3.15.278-3.91.419-.62.115-1.64.236-2.487.296-.324.023-.875.09-1.225.148-.349.06-.76.117-.912.128-.153.012-.323.05-.378.083-.055.034-.563.103-1.129.153-.565.05-1.335.136-1.709.19-.374.055-1.006.117-1.403.138-.424.022-.807.093-.927.172-.144.094-.458.134-1.063.134-.473 0-.967.041-1.1.091-.13.05-.858.125-1.616.166-.757.042-1.466.123-1.575.181-.109.059-.412.106-.674.106-.261 0-.601.039-.754.086-.153.047-.585.137-.96.2-.747.124-.807.131-1.862.24-.401.04-.782.107-.848.148-.065.04-.472.085-.904.1-.787.026-1.173.083-1.512.222-.526.216-.836.267-2.041.336-1.742.098-4.537.05-4.537-.077 0-.034-.235-.088-.522-.12a9.382 9.382 0 0 1-1.066-.196c-.3-.076-.646-.162-.771-.19-.125-.029-.268-.1-.318-.158-.05-.059-.483-.259-.963-.445-.829-.322-.89-.332-1.18-.208-.189.08-.446.33-.67.649-.199.284-.474.663-.612.84-.137.177-.25.355-.25.394 0 .04-.074.096-.165.125-.09.029-.256.215-.368.414-.112.2-.238.362-.281.362-.042 0-.234.17-.425.375-.191.206-.485.502-.653.658a7.09 7.09 0 0 0-.712.85c-.223.312-.447.567-.497.567-.057 0-.08.323-.06.863.03.831.042.872.304 1.093.311.263.975.584 1.329.643.309.052 1.703-.122 1.836-.228.056-.045.285-.112.51-.15.224-.036.725-.162 1.114-.278.388-.116.764-.189.835-.161.07.027.365-.04.655-.149a4.57 4.57 0 0 1 .98-.239c.444-.04.764-.103 1.769-.349.274-.067.723-.15.998-.184.679-.084.74-.097 1.289-.264 1.123-.343 1.451-.417 2.658-.597 2.166-.324 2.412-.368 2.8-.497.523-.174 1.616-.404 2.373-.499a36.85 36.85 0 0 0 1.451-.222c.449-.078.95-.142 1.115-.142.165 0 .418-.062.563-.137.145-.075.664-.177 1.152-.226 1.006-.101 1.939-.23 2.34-.324.15-.035.62-.08 1.044-.1.424-.019.874-.073.998-.12.29-.11 4.105-.412 6.216-.494.499-.02 1.152-.078 1.451-.13.775-.135 1.86-.211 4.673-.33 1.191-.05 1.469-.099 1.885-.332.329-.184.565-.216.565-.076 0 .05.08.09.176.09.182 0 .745.291 1.027.53.087.074.235.18.327.234 1.2.706 2.931 2.508 3.058 3.185.129.685-.11 1.026-.772 1.105a3.67 3.67 0 0 0-.583.122c-.143.047-.286.07-.318.051-.031-.018-.445 0-.92.04a39.99 39.99 0 0 1-2.313.092c-.798.009-1.52.052-1.604.096-.158.083-1.183.228-2.092.297a7.942 7.942 0 0 0-1.089.182 7.126 7.126 0 0 1-1.192.166c-.485.02-.669.067-.83.216-.25.233-.872.399-1.493.399-.315 0-.606.073-.917.23-.25.128-.83.314-1.29.416-.459.101-.936.237-1.061.301a2.312 2.312 0 0 1-.58.171c-.194.03-.51.158-.701.285-.192.126-.45.23-.573.23-.242 0-.419.063-1.303.466-.314.143-.634.26-.71.26-.157 0-.48.16-.636.316-.273.273.118.773.606.773.097 0 .167.05.154.113-.013.066.091.125.25.142.15.015.313.079.362.14.05.062.255.196.454.299l.953.49c.563.288 1.49 1.129 2.103 1.906.445.563.811 2.101.675 2.83-.083.438-1.025 1.505-1.584 1.792a5.24 5.24 0 0 0-.568.328c-.07.055-.32.173-.557.26-.236.09-.476.217-.533.286-.056.068-.195.124-.307.124a.465.465 0 0 0-.318.136.48.48 0 0 1-.329.136c-.118 0-.215.034-.215.075 0 .04-.315.123-.7.183-.384.06-.72.143-.748.185-.056.087-.625.39-.66.353-.014-.013-.147.06-.297.162a4.14 4.14 0 0 1-.544.305c-.249.11-.257.126-.09.188.099.037.385.054.634.037.25-.016.944-.056 1.543-.089.599-.032 1.157-.095 1.24-.139.084-.043.31-.073.501-.066a2.3 2.3 0 0 0 .665-.09c.173-.056.826-.14 1.45-.188.624-.047 1.247-.128 1.385-.181.138-.053.648-.12 1.134-.151.486-.03 1.088-.108 1.337-.173.397-.104 1.116-.199 2.112-.278.163-.013.352-.07.42-.125.067-.056.383-.105.7-.109a6.44 6.44 0 0 0 .942-.08c1.542-.31 2.19-.478 2.331-.606.091-.082.213-.316.27-.52.245-.86.778-1.027 1.262-.394.162.212.421.51.575.663.401.397.761.823 1.06 1.253.142.206.611.722 1.042 1.146.432.424.82.853.865.953.044.1.114.243.157.318.245.434.286.597.286 1.138 0 1.092-.243 1.686-.812 1.98a68.455 68.455 0 0 0-1.5.794c-.198.107-.749.31-1.224.449a325.918 325.918 0 0 0-2.27.675 6.518 6.518 0 0 1-1.044.178c-.661.058-1.225.16-1.996.363-.25.065-.842.188-1.316.273-.474.085-1.107.21-1.406.276-.3.067-.892.148-1.316.18-.424.033-.987.119-1.25.192-.264.072-.516.11-.56.082-.044-.027-.38-.005-.746.05a19.97 19.97 0 0 1-1.046.129 9.823 9.823 0 0 0-.862.124c-.264.052-.97.14-1.57.195-.599.055-1.19.124-1.315.151-.125.028-.39.048-.59.044-.2-.004-.807.072-1.35.169-.542.097-1.021.154-1.064.128-.14-.087-3.203.155-3.613.286-.221.07-.589.129-.817.13-.228 0-.467.034-.532.075-.064.041-.298.047-.518.014-.221-.034-.434-.032-.473.003-.04.035-.786.11-1.659.168-.873.057-2.078.144-2.677.193-.599.049-1.62.11-2.268.138-.649.027-1.343.096-1.542.152-.2.057-.386.1-.413.094a68.8 68.8 0 0 0-1.406-.058c-.835-.03-1.55-.104-1.856-.193a21.13 21.13 0 0 0-.726-.198c-.467-.11-1.218-.755-1.83-1.57-.143-.19-.319-.642-.44-1.134-.175-.703-.195-.954-.144-1.808.069-1.134.175-1.382.876-2.048.307-.291.592-.459.993-.585.878-.276 1.122-.244 1.558.205.421.434.658.521 1.143.42.186-.039.37-.064.406-.056.037.008.445-.045.907-.12a18.683 18.683 0 0 1 1.43-.172c.325-.02.835-.106 1.135-.19a13.791 13.791 0 0 1 1.588-.37 19 19 0 0 0 .521-.092c.271-.055.271-.368 0-.45a1.143 1.143 0 0 1-.34-.178c-.075-.064-.279-.145-.454-.181-.33-.069-1.222-.622-1.661-1.032-.14-.131-.497-.571-.793-.978-.534-.735-.78-1.342-.88-2.164-.024-.2-.088-.418-.143-.486-.055-.067-.101-.433-.103-.812-.003-.587-.033-.72-.204-.89-.276-.277-.66-.345-.985-.175-.395.206-.847.172-1.832-.14-2.039-.643-2.499-.894-3.697-2.02-.3-.281-.61-.533-.69-.559-.154-.051-.716-.707-.716-.837 0-.173-.788-.846-.929-.792-.21.08-.49.962-.668 2.108-.033.214-.096.41-.139.437-.043.026-.079.125-.079.218 0 .261-.47 1.66-.615 1.833-.07.084-.143.37-.161.634-.018.264-.076.495-.128.512-.051.017-.094.148-.094.29 0 .392-.26 1.448-.459 1.865-.097.202-.176.44-.176.527 0 .087-.097.37-.217.629-.119.259-.241.67-.272.915-.03.245-.117.568-.192.717-.074.15-.136.351-.136.446a.923.923 0 0 1-.1.361c-.097.182-.173.573-.348 1.797-.169 1.179-.29 1.781-.477 2.36-.104.324-.22.977-.256 1.451-.187 2.423-.37 4.128-.452 4.21-.05.05-.09.24-.09.424s-.06.477-.133.65c-.212.508-.095.898.418 1.402.245.24.528.567.629.727.1.16.253.315.338.345.293.104 1.117 1.245 1.69 2.339l.618 1.18c.136.26.249.516.25.57 0 .052.08.26.177.461.196.407.609 2.133 1.037 4.341l.251 1.316c.08.423.114 2.35.123 6.805.01 4.36.044 6.31.116 6.533.057.174.149.828.204 1.452.117 1.317.297 2.521.5 3.357.08.324.177.814.218 1.088.04.275.135.704.211.953.618 2.036.925 2.968 1.106 3.357.115.25.325.821.464 1.27.14.45.382 1.084.538 1.41.156.326.356.816.443 1.089.088.272.3.733.471 1.024.171.29.311.63.311.754 0 .125.087.438.194.697.32.779.539 1.274.675 1.528.071.132.13.324.13.426 0 .101.04.21.09.24.05.031.09.174.09.318 0 .144.037.284.08.31.045.028.11.324.146.658.036.335.132.711.215.837.12.184.155.53.181 1.8.03 1.51.022 1.6-.216 2.317-.287.868-.456 1.109-1.133 1.62-1.265.957-3.041 1.427-5.148 1.363-.962-.029-1.103.07-.76.534.106.144.194.291.194.327 0 .095.809 1.275.96 1.4.07.06.128.15.128.202 0 .052.179.384.397.737.219.354.452.806.52 1.006.067.2.253.618.415.93.161.312.278.567.258.567-.037 0-.016.076.369 1.316.17.548.276 1.144.323 1.814l.127 1.815c.032.45.095.855.14.903.233.244-.092 2.743-.432 3.318-.152.257-.316.371-.778.538-.154.056-.25.157-.25.263 0 .301.283.371 2.25.555.565.052 1.166.154 1.337.225.171.072.444.11.608.084.163-.025.46.01.66.08.291.102.434.105.725.019.287-.085.43-.084.68.009.175.064.471.142.658.173.188.031.34.09.34.129 0 .04.103.118.227.175.356.162 2.967-.063 3.093-.267.182-.296.939.248 1.114.801.073.23.257.465.558.708.247.2.49.48.54.623.111.313 1.597 1.806 2.542 2.555.739.585 2.272 2.1 2.82 2.787.518.648.816 1.35.87 2.048.084 1.078.058 1.7-.085 1.974-.274.53-1.023 1.021-1.574 1.033-.107.002-.373-.077-.59-.176-.218-.099-.48-.18-.583-.181-.244-.003-.907-.325-1.132-.55-.098-.098-.243-.178-.323-.178-.08 0-.274-.057-.43-.126-.258-.112-1.1-.37-1.965-.6a12.331 12.331 0 0 0-1.09-.189 91.156 91.156 0 0 1-1.315-.187c-.5-.077-4.297-.214-5.035-.182-.175.008-.849.008-1.497.001-2.418-.025-2.821-.01-4.129.156-1.365.174-1.323.166-1.465.283-.067.055-.622.122-1.233.148-.61.027-1.159.078-1.218.115-.06.036-.417.12-.795.184-.378.064-1.014.182-1.413.26-.4.08-.89.16-1.09.18-.513.05-.642.085-.8.216-.076.063-.307.117-.512.12-.343.005-1.255.228-1.046.256.256.034-.814.236-1.36.256-.479.018-.76.087-1.177.29a4.899 4.899 0 0 1-1.138.36c-.882.14-1.5.325-1.474.442.013.062-.104.103-.295.103-.175 0-.318.041-.318.091 0 .05-.155.09-.344.09-.19 0-.384.036-.431.078-.048.043-.28.13-.516.193-.236.064-.476.172-.533.24-.057.069-.158.125-.226.125-.067 0-.297.078-.51.173a17.67 17.67 0 0 1-1.341.473c-.524.165-.973.328-.998.36-.093.122-.621.146-1.731.079zm34.44-104.73c.35-.069.85-.198 1.112-.286.401-.135.488-.205.554-.445.043-.16.042-.353-.002-.44-.101-.2-.413-.37-.537-.293a1.452 1.452 0 0 1-.384.103c-.159.025-.512.123-.785.218s-.566.173-.652.173c-.3 0-1.438.584-1.438.738 0 .328.554.538 1.13.429.202-.038.653-.127 1.002-.196zm-38.456 49.99a4.029 4.029 0 0 1-.643-.467c-.285-.264-.778-1.138-.778-1.38a.729.729 0 0 0-.085-.277c-.046-.086-.212-.531-.368-.988-.28-.82-.283-.844-.195-1.791.056-.607.136-1.008.218-1.09.143-.142.192-.269.57-1.46.142-.45.327-.96.41-1.134a14.65 14.65 0 0 0 .644-1.588c.063-.2.148-.41.189-.466.17-.235.523-1.267.523-1.527 0-.366-.22-.696-.898-1.345-.22-.21-.444-.432-.5-.494a72.3 72.3 0 0 0-1.046-1.043c-2.74-2.7-2.98-2.953-3.214-3.396a1.81 1.81 0 0 0-.301-.41 2.603 2.603 0 0 1-.257-.273c-1.086-1.435-1.268-1.705-1.642-2.44-.17-.334-.371-.658-.445-.72-.075-.061-.136-.168-.136-.237 0-.069-.033-.125-.075-.125-.095 0-.702-1.343-.921-2.041a5.518 5.518 0 0 0-.274-.68 9.247 9.247 0 0 1-.55-1.431c-.063-.213-.17-.432-.236-.488-.067-.055-.121-.195-.121-.312a1.4 1.4 0 0 0-.08-.42 6.972 6.972 0 0 1-.194-.707c-.062-.274-.14-.54-.175-.59-.035-.05-.118-.274-.186-.499-.068-.224-.156-.451-.195-.504-.127-.172-.6-2.022-.902-3.533a19.91 19.91 0 0 0-.314-1.35 3.27 3.27 0 0 1-.132-.748c0-.169-.037-.307-.082-.307-.045 0-.11-.255-.144-.567a8.304 8.304 0 0 0-.183-1.02c-.067-.25-.172-.822-.233-1.27-.06-.45-.145-.856-.188-.904-.042-.047-.077-.253-.077-.457 0-.204-.067-.614-.148-.912-.223-.813-.478-2.321-.547-3.24-.025-.338-.083-.59-.13-.562-.045.028-.087-.064-.093-.204-.014-.356-.053-.7-.161-1.434-.052-.35-.115-.911-.14-1.249-.046-.636-.216-1.345-.342-1.433-.04-.028-.092-.402-.115-.832a9.558 9.558 0 0 0-.138-1.202 9.943 9.943 0 0 1-.147-.893c-.028-.259-.083-.511-.12-.561-.07-.092-.17-.475-.377-1.433-.063-.29-.148-.547-.189-.573-.041-.025-.075-.16-.075-.298 0-.138-.028-.28-.061-.313-.06-.06-.787-2.124-.93-2.646a3.182 3.182 0 0 0-.223-.544c-.08-.15-.146-.344-.147-.43 0-.088-.036-.16-.08-.16-.044 0-.101-.092-.126-.204-.06-.27-.562-1.62-.685-1.844-.053-.096-.165-.42-.248-.72-.084-.298-.25-.81-.369-1.135-.119-.326-.217-.673-.218-.771-.002-.1-.083-.483-.182-.854-.098-.371-.179-.863-.179-1.094 0-.977-.431-1.268-1.95-1.317-.574-.019-1.086-.06-1.139-.093-.09-.055-1.215.024-3.308.234-.499.05-1.724.107-2.722.127-2.707.054-2.72.055-3.992.19-1.35.145-2.015.19-3.856.267-.724.03-1.415.076-1.537.102-.122.026-.714.045-1.316.043a19.613 19.613 0 0 0-2.137.128c-.574.073-1.411.152-1.86.176-.45.023-1.327.104-1.951.18a64.82 64.82 0 0 1-3.947.357c-.4.022-1.032.1-1.406.173-.375.073-.926.14-1.225.15-.3.01-.83.074-1.18.143-.35.07-.962.151-1.36.182-.4.031-1.564.146-2.587.255-2.286.244-3.209.238-4.099-.029-.98-.293-1.93-.71-2.074-.911-.07-.097-.194-.177-.275-.177-.08 0-.225-.086-.32-.192-.095-.106-.387-.33-.65-.498-.261-.168-.475-.367-.475-.443 0-.075-.043-.137-.096-.137-.052 0-.138-.123-.19-.272-.052-.15-.152-.272-.222-.272a.127.127 0 0 1-.128-.126c0-.068-.204-.339-.453-.6-.25-.262-.454-.539-.454-.615 0-.077-.102-.273-.227-.437-.124-.163-.227-.368-.227-.455a.58.58 0 0 0-.146-.319c-.084-.093-.175-.424-.214-.784-.067-.61-.21-1.02-.354-1.02-.268 0-.336-1.995-.096-2.767.106-.338.79-.81.964-.666.073.06.206.066.366.015.32-.101.75-.05.752.09 0 .11.776.488.918.448.043-.013.079.034.079.103 0 .153.3.356.726.492.421.135 2.359.223 2.175.099-.092-.063.125-.082.705-.064.462.015.85.002.862-.028.013-.03.22-.076.46-.102.353-.04.427-.024.387.08-.06.156.409.129 4.302-.246.574-.055 1.33-.09 1.679-.076.35.014 1.166-.006 1.815-.043.648-.038 1.567-.089 2.041-.114.474-.025 1.046-.057 1.27-.071.225-.014.46.013.521.061a.292.292 0 0 0 .255.033c.12-.046 3.705-.269 3.988-.248.295.022 1.557.02 1.633-.001.05-.015.642-.033 1.316-.042a56.177 56.177 0 0 0 2.616-.11c.765-.053 2.46-.121 3.765-.152 1.306-.03 3.089-.084 3.962-.12 1.475-.059 3.514-.014 4.582.101.25.027.84.075 1.312.106.472.031.982.114 1.134.184.152.07.562.156.911.192.888.092 3.02.102 3.412.016.285-.063 2.072-.183 2.577-.174.869.016 1.497.259 1.497.578 0 .043.036.056.08.029.183-.113.185.401.005.78-.248.522-.51 1.007-.606 1.119-.266.313-.384.907-.39 1.972-.016 2.505-.018 2.48.18 2.847.102.193.187.399.187.458 0 .06.05.164.113.232.11.12.174.223.517.834.088.156.182.405.21.554.065.35.272.896.4 1.054.055.068.182.41.282.76.385 1.342.771 2.496 1.032 3.084.088.2.208.588.266.862.057.275.14.543.182.596.042.053.124.319.18.59.058.27.165.562.24.646.073.084.108.195.077.246-.032.05-.02.165.028.255.183.35.367 1.312.507 2.657.257 2.468.327 3.03.43 3.448.095.384.172.903.31 2.087.033.275.096.523.142.553.046.03.1.437.12.907.02.47.08 1.078.132 1.353.053.274.099.56.102.635.003.075.062.565.13 1.089.069.524.148 1.247.177 1.607.028.36.071.707.096.772.071.187.322 1.973.36 2.566.062.968.232 2.053.403 2.575.091.28.254 1 .361 1.598.266 1.484.395 2.079.462 2.133.07.056.334 1.09.411 1.61.032.212.095.408.14.436.046.028.083.135.083.238 0 .103.06.376.131.607.072.231.24.788.373 1.237.134.45.294.94.357 1.089.063.15.184.493.27.763.175.545.568 1.449.933 2.14.131.25.301.587.377.749.076.162.21.318.3.346.09.028.163.105.163.17 0 .065.133.264.296.442.162.178.387.438.499.578.314.396.827.966 1.473 1.64.325.34.753.818.953 1.066.2.247.6.716.888 1.041.29.326.698.866.908 1.202.21.336.422.612.472.614.05.002.19.204.31.449.12.245.375.622.566.838.192.216.349.434.349.485 0 .052.208.378.462.726s.541.796.639.996c.097.2.277.526.4.726.122.2.285.506.363.68.077.175.18.4.227.5.268.56.468 1.367.518 2.086.086 1.228.063 2.852-.047 3.312-.372 1.552-1.627 4.315-2.392 5.267a11.74 11.74 0 0 0-.634.852c-.089.146-.333.401-.542.567-.452.357-.853.382-1.384.086zM53.395 115.62a13.92 13.92 0 0 0-.817-.233 1.024 1.024 0 0 1-.386-.188c-.087-.076-.158-.112-.158-.08 0 .03-.31-.085-.687-.257-.378-.172-.715-.307-.749-.3a.483.483 0 0 1-.198-.043c-.376-.15-1.396-.364-2.045-.428a8.813 8.813 0 0 1-1.406-.277 9.284 9.284 0 0 0-.813-.22c-.254-.028-1.086-.333-1.138-.417-.029-.046-.175-.084-.325-.084-.16 0-.45-.122-.698-.293-.234-.162-.476-.283-.538-.269-.063.014-.114-.037-.114-.115 0-.077-.03-.14-.069-.14-.073 0-.103-.051-.504-.878-.231-.478-.25-.588-.2-1.163.032-.35.092-.717.134-.817.042-.1.167-.467.278-.816.11-.35.255-.697.32-.772.066-.075.164-.238.218-.363a4.19 4.19 0 0 1 .277-.499c.099-.15.205-.333.236-.408.03-.075.127-.3.214-.499.088-.2.187-.478.22-.618.044-.181.159-.296.393-.394.387-.162.79-.133 1.795.127.4.103 1.108.23 1.574.282.827.092.855.089 1.077-.117l.228-.212-.233-.581c-.365-.913-.438-1.387-.43-2.778.011-1.627.141-2.912.36-3.557.245-.72.325-1.633.163-1.854-.11-.148-.236-.173-.844-.165a9.9 9.9 0 0 0-1.305.113c-.731.128-1.9.28-2.475.32a3.762 3.762 0 0 0-.75.135 4.06 4.06 0 0 1-.656.145c-.605.072-.786.103-1.2.204-.225.055-.59.1-.81.101a4.39 4.39 0 0 0-.908.138c-.278.074-1.036.167-1.685.208-1.478.092-2.592-.036-3.357-.387-.889-.408-1.753-1.181-2.054-1.839-.098-.212-.217-.386-.266-.386-.049 0-.13-.112-.182-.25-.164-.437-.479-1.061-.597-1.182-.063-.064-.14-.268-.17-.453a4.288 4.288 0 0 0-.134-.564c-.331-.964-.39-1.345-.5-3.277-.048-.811-.033-.985.089-1.107.096-.097.125-.223.087-.376-.038-.15-.02-.23.05-.23.073 0 .088-.09.047-.277-.036-.165-.018-.327.045-.403.058-.07.195-.303.303-.517.159-.313.259-.4.512-.45.174-.035.33-.107.348-.161.042-.127.497-.127.623-.001.053.053.16.106.236.117.076.012.29.223.475.47.185.248.45.56.59.696.14.135.27.292.288.349.019.057.47.16 1.007.23 1.428.185 4.69.08 4.837-.158.027-.044.082-.06.12-.036.04.024.313.008.607-.037.294-.044.902-.105 1.351-.136.45-.03 1.817-.133 3.04-.228s2.63-.202 3.129-.237c.498-.034 1.018-.095 1.155-.135.147-.042.273-.035.305.017.033.054.095.056.16.005.058-.046.368-.09.688-.098.321-.008.757-.054.968-.101.211-.048.927-.11 1.59-.14.663-.028 1.248-.079 1.3-.112.053-.034.565-.089 1.14-.123 1.26-.075 2.014-.145 2.857-.267.35-.05.82-.116 1.044-.144.224-.03.45-.086.502-.127.136-.107.824-.265 1.403-.322.275-.027.652-.087.84-.132.187-.046.513-.124.725-.174.848-.2 1.157-.3 1.157-.372 0-.042.062-.052.137-.023a.286.286 0 0 0 .25-.035c.062-.048.316-.152.566-.232.65-.207 1.113-.41 1.179-.516.03-.05.116-.092.19-.092.131 0 .79-.396 1.02-.613.065-.062.147-.115.18-.116.034-.001.338-.039.674-.082.605-.078.617-.075.908.198.162.153.284.314.27.36-.013.044.038.466.114.937.076.47.138 1.132.138 1.47 0 .398.053.708.15.885.144.26.226.678.347 1.77.04.36.019.562-.078.725-.131.223-.26.483-.61 1.239-.176.377-.503.667-.753.667-.074 0-.439.245-.811.544-.372.3-.76.545-.862.545-.102 0-.208.035-.235.08-.027.043-.284.17-.572.282-.288.112-.768.319-1.068.46-.3.141-.7.284-.889.318-.19.033-.394.11-.455.172a.822.822 0 0 1-.336.162c-.464.106-1.502.348-1.677.392-.1.024-.487.067-.862.096-.374.028-1.007.126-1.406.218-.4.092-.869.195-1.044.229-.48.092-.635.276-.635.752 0 .437.307 1.193.485 1.195.058 0 .31.23.559.509.25.28 1.212 1.27 2.14 2.2.928.93 1.76 1.803 1.848 1.94.088.137.218.25.287.25.069 0 .125.057.125.127s.174.212.386.313c.337.162.46.175.975.1 1.217-.176 1.59-.268 1.701-.42.152-.208.92-.573 1.203-.572.377 0 .914.206 1.662.635l.897.512c.104.058.322.231.485.385.164.154.34.28.391.28.052 0 .127.057.167.126.04.069.267.255.504.415.237.159.473.368.525.464.051.096.143.175.204.175s.162.082.225.181c.062.1.16.182.218.182.058 0 .17.06.249.132.165.153 1.036.883 1.493 1.252.17.137.34.249.376.249.133 0 1.15 1.141 1.334 1.497.103.2.284.49.402.644.117.154.213.348.213.43 0 .083.041.151.091.151.053 0 .09.322.09.783v.783l-.396.397c-.218.218-.444.396-.502.396-.058 0-.307.102-.553.227-.246.125-.505.227-.576.227-.07 0-.178.061-.24.136a.477.477 0 0 1-.327.136c-.118 0-.43.098-.692.219a6.26 6.26 0 0 1-.842.312c-.2.051-.71.194-1.134.318a34.52 34.52 0 0 1-1.406.373c-.35.082-.843.208-1.097.28-.254.072-.553.131-.664.131a.915.915 0 0 0-.363.087c-.15.08-.325.108-1.46.234-2.064.23-2.996.319-3.81.36-1.45.075-2.252.136-2.839.216-.293.04-1.116.082-1.83.092-1.525.023-1.982.135-2.576.632-.747.625-1.13.774-2.053.798-.616.015-.966-.025-1.41-.164zm137.976 95.126c-.023-.088-.043-.038-.045.112-.002.15.017.222.042.16a.515.515 0 0 0 .003-.272zM16.376 55.729c0-.053-.058-.044-.136.02-.075.063-.137.128-.137.145 0 .017.062.008.137-.02.074-.03.136-.094.136-.145zM80.77 12.325c-.03-.03-.108-.034-.174-.007-.072.029-.05.05.055.054.096.004.15-.017.12-.047zm106.636 272.299c0-.075.04-.137.09-.137.05 0 .091.062.091.137 0 .074-.04.136-.09.136-.05 0-.09-.062-.09-.136zm1.368-101.357c.004-.105.026-.127.055-.054.026.065.023.143-.007.173s-.052-.023-.048-.119z" style="fill:#000;stroke-width:.0907331"/>
</svg>
