<svg xmlns="http://www.w3.org/2000/svg" xml:space="preserve" width="210mm" height="297mm" viewBox="0 0 210 297">
  <path d="M183.482 284.308c-.12-.054-3.311-1.77-3.311-1.823 0-.188-.356-.545-.694-.696-.189-.085-.343-.19-.343-.235 0-.044-.068-.075-.152-.069-.104.008-.16-.061-.178-.226-.015-.13-.06-.237-.098-.237-.039 0-.092-.082-.118-.182-.026-.1-.086-.158-.133-.129-.091.057-.213-.05-.488-.425-.095-.13-.192-.262-.216-.292-.024-.031-.153-.104-.286-.163-.133-.058-.219-.145-.19-.192.03-.048.009-.087-.047-.087-.055 0-.18-.1-.276-.222a1.088 1.088 0 0 0-.38-.3c-.118-.046-.204-.149-.204-.247 0-.094-.078-.194-.173-.224-.095-.03-.173-.089-.173-.13 0-.04-.136-.219-.302-.395-.167-.176-.303-.345-.303-.375 0-.131-.62-.959-.688-.917-.042.025-.12-.09-.176-.258-.055-.167-.178-.345-.273-.396-.095-.05-.152-.145-.128-.209.025-.064-.012-.164-.082-.222-.07-.058-.107-.124-.083-.148.023-.023-.044-.163-.15-.311-.293-.411-.494-.813-.494-.99 0-.089-.073-.244-.162-.347-.089-.103-.21-.371-.268-.597-.15-.574-.436-1.43-.514-1.533-.036-.048-.134-.32-.22-.605-.085-.286-.188-.556-.23-.601-.041-.045-.075-.185-.075-.311 0-.257-.115-.647-.343-1.163a3.477 3.477 0 0 1-.211-.777c-.062-.46-.195-.969-.534-2.05-.115-.367-.209-.737-.209-.822 0-.086-.074-.358-.164-.605a5.214 5.214 0 0 1-.225-.893c-.034-.244-.115-.546-.181-.673a1.157 1.157 0 0 1-.12-.301c0-.04-.133-.35-.294-.692-.705-1.491-.83-1.773-.83-1.863 0-.053-.04-.096-.087-.096-.048 0-.086-.07-.086-.154a.696.696 0 0 0-.118-.324c-.101-.147-.309-.683-.367-.948-.01-.048-.122-.378-.248-.735a13.433 13.433 0 0 1-.39-1.424c-.09-.427-.194-.786-.233-.8-.039-.012-.06-.596-.048-1.298.022-1.32.26-2.936.502-3.427.143-.29.165-.743.035-.743-.049 0-.124.094-.167.208-.044.114-.12.233-.171.264-.05.031-.092.13-.092.22s-.051.195-.114.233c-.142.086-1.01 1.235-1.01 1.337 0 .088-.423.767-.557.893-.05.047-.187.28-.304.518-.116.238-.272.495-.345.571-.333.347-.522.607-.522.716 0 .065-.058.167-.13.226-.071.059-.13.158-.13.22a.417.417 0 0 1-.107.23c-.155.169-.324.481-.324.598 0 .055-.117.29-.26.52-.142.233-.259.463-.259.513 0 .05-.097.303-.216.563-.119.26-.216.51-.216.556 0 .046-.032.084-.07.084-.073 0-.487.847-.577 1.18a.352.352 0 0 1-.22.229.231.231 0 0 0-.17.212c0 .168-.45.58-.637.582-.126 0-.537.411-.506.505.013.039-.045.051-.13.028-.326-.093-.762-.175-.828-.158-.123.032-.579-.277-.579-.393 0-.06-.032-.11-.07-.11-.09 0-.535-.673-.535-.81 0-.057-.066-.198-.147-.313-.081-.116-.175-.388-.209-.603-.19-1.21-.288-1.653-.47-2.12a9.684 9.684 0 0 1-.295-.883c-.051-.2-.148-.418-.214-.484-.158-.158-.48-1.14-.48-1.463 0-.359.126-.546.45-.668.157-.059.363-.139.458-.177.64-.261.751-.266 1.044-.043.156.12.338.195.404.17.067-.026.364-.54.662-1.145.297-.604.67-1.351.828-1.66.158-.31.464-.933.68-1.386.216-.454.51-.94.654-1.08.143-.142.262-.32.263-.396.001-.077.122-.29.268-.473.146-.184.287-.442.313-.574.026-.132.083-.24.126-.24s.116-.087.163-.194c.14-.317.547-.987.705-1.16.08-.089.217-.316.303-.505a5.68 5.68 0 0 1 .509-.82c.194-.261.404-.573.466-.691a4.36 4.36 0 0 1 .353-.522 3.35 3.35 0 0 0 .41-.811c.093-.278.233-.578.31-.667.076-.09.139-.188.139-.217 0-.03.112-.237.249-.46.137-.223.358-.752.492-1.176.134-.424.312-.869.395-.987.168-.24.463-1.578.39-1.77-.027-.066.024-.328.113-.58.157-.448.238-1.379.433-4.954.092-1.692.048-7.3-.068-8.6-.109-1.224-.454-3.372-.645-4.018a37.58 37.58 0 0 1-.274-.994c-.273-1.053-.41-1.512-.477-1.599-.036-.048-.137-.32-.223-.605s-.384-.994-.662-1.576a96.306 96.306 0 0 1-.59-1.253c-.09-.204-.287-.56-.987-1.795-.59-1.04-.581-1.026-.949-1.599a8.12 8.12 0 0 0-.485-.691c-.084-.095-.274-.399-.422-.675-.268-.499-.869-1.316-1.325-1.8-.13-.14-.238-.292-.238-.338 0-.078-.567-.935-.683-1.033a1.386 1.386 0 0 1-.161-.216l-.29-.454c-.098-.155-.214-.28-.257-.28-.043 0-.078-.052-.078-.114 0-.063-.078-.197-.173-.3-.095-.101-.173-.212-.173-.245 0-.034-.207-.337-.46-.674-.254-.337-.513-.71-.575-.829a2.24 2.24 0 0 0-.327-.432c-.117-.119-.354-.482-.527-.807l-.473-.886c-.087-.162-.194-.295-.239-.295-.044 0-.171-.204-.282-.453-.112-.25-.422-.781-.69-1.18-.27-.4-.489-.752-.489-.783 0-.031-.1-.19-.223-.354a3.431 3.431 0 0 1-.303-.47c-.09-.2-.22-.412-.475-.779-.099-.142-.351-.55-.56-.907l-.485-.821a5.904 5.904 0 0 1-.226-.432 3.096 3.096 0 0 0-.331-.519 3.172 3.172 0 0 1-.333-.518 10.751 10.751 0 0 0-.482-.821c-.198-.31-.47-.776-.605-1.038a5.081 5.081 0 0 0-.368-.622c-.168-.202-.535-.938-.535-1.071 0-.06-.09-.218-.2-.353-.11-.134-.36-.555-.553-.935-.194-.38-.495-.945-.668-1.254a16.204 16.204 0 0 1-.492-.95c-.393-.863-.88-1.778-.997-1.871-.068-.055-.163-.238-.21-.408-.046-.17-.135-.359-.197-.421s-.28-.462-.483-.889c-.204-.427-.457-.893-.563-1.035a2.004 2.004 0 0 1-.26-.476 1.685 1.685 0 0 0-.236-.432c-.305-.394-1.018-1.539-1.018-1.634a.092.092 0 0 0-.09-.094c-.049 0-.167-.166-.261-.368-.24-.51-.568-1.037-.712-1.143-.066-.048-.181-.205-.255-.347a2.719 2.719 0 0 0-.353-.495 3.502 3.502 0 0 1-.373-.497c-.085-.144-.202-.262-.26-.262-.057 0-.131-.083-.163-.185-.033-.102-.201-.345-.374-.54-.173-.195-.45-.53-.616-.744l-.431-.557a7.362 7.362 0 0 0-.382-.43 4.916 4.916 0 0 1-.504-.674c-.14-.227-.29-.413-.333-.413-.043 0-.079-.04-.079-.09 0-.05-.073-.195-.162-.324-.45-.651-.875-1.345-.875-1.427 0-.051-.07-.173-.156-.271-.085-.098-.248-.392-.36-.654-.113-.261-.3-.69-.415-.95-.48-1.085-.687-1.817-.793-2.81-.13-1.226.083-3.327.338-3.327.042 0 .159-.135.26-.3.198-.32.66-.518.951-.408.221.083.757.907.873 1.34.053.2.128.4.167.448.038.048.175.417.304.821.129.404.343.949.477 1.21.133.262.27.572.304.69.115.397.579.965 1.053 1.29.155.106.305.288.334.404.03.116.097.24.151.275.125.081.528.606.988 1.286.197.293.614.798.927 1.124.314.326.621.712.684.858.063.146.337.554.61.906.272.353.588.826.703 1.053.115.226.24.411.277.411.038 0 .123.137.188.303.065.166.141.302.17.302.027 0 .146.184.264.408.118.224.338.573.489.776.15.203.3.45.332.55.031.099.29.576.577 1.06.285.484.734 1.324.996 1.866.262.543.55 1.066.639 1.162.09.096.163.202.163.236 0 .121.689 1.536.773 1.589.048.029.13.217.184.417.054.2.229.577.389.839.16.261.338.611.394.777.056.167.173.406.261.532.088.127.16.274.16.328 0 .055.09.189.2.299.109.11.266.377.35.594.082.217.206.441.275.498.069.057.125.152.125.21 0 .059.118.269.261.467.144.198.368.583.497.855.13.272.297.562.37.645.075.082.27.411.433.731.164.32.416.739.56.93.144.193.391.6.549.904.158.305.409.733.559.952.15.22.346.534.436.7.091.165.235.368.32.451.085.083.222.297.303.476.082.178.232.441.335.584.102.142.278.453.39.691.111.238.298.53.414.648.116.119.288.381.383.584.095.202.202.367.238.367.035 0 .158.185.271.41.114.226.228.43.254.454.087.08 1.244 1.81 1.554 2.324.168.278.42.641.562.807.141.165.334.432.43.591l.388.654c.12.199.286.439.372.532.167.184.662.887 1.353 1.92.239.357.465.687.503.735.038.047.224.331.412.63.188.3.544.854.79 1.232.246.379.548.892.671 1.142.237.479.393.755.744 1.317.385.615.427.688.525.908.053.119.284.605.513 1.08.229.475.443.962.475 1.08.032.12.108.275.168.346.06.071.138.227.173.346.035.119.105.267.156.33.097.122.49 1.051.491 1.162 0 .06.112.32.527 1.23.086.19.196.521.243.735.048.214.2.72.34 1.124.14.404.34 1.123.445 1.598.105.476.227.978.27 1.115.042.138.077.362.077.498 0 .137.037.316.082.398.124.228.36 1.852.523 3.607.176 1.88.274 3.496.305 5.04.051 2.461.045 3.072-.044 4.338a27.09 27.09 0 0 0-.064 1.988c.025 1.173-.12 4.174-.207 4.285-.041.052-.11.441-.155.865-.109 1.04-.162 1.378-.307 1.937a27.17 27.17 0 0 0-.267 1.21c-.08.404-.187.785-.237.848-.05.062-.105.25-.123.418-.017.168-.087.39-.155.495-.068.104-.204.44-.301.748a5.234 5.234 0 0 1-.416.948c-.13.214-.412.748-.624 1.187-.213.44-.435.8-.495.8-.059 0-.108.1-.108.222 0 .141.035.2.097.161.132-.081.68.53.688.768.004.104.027.267.051.362.076.292.189 1.439.2 2.031.005.31.069.718.141.908.073.19.184.667.247 1.06.08.498.178.799.326.994.116.154.233.377.26.495.075.333.502 1.324.636 1.476.066.075.12.192.12.26 0 .067.074.278.164.468.512 1.074.994 2.424.912 2.557-.023.038.007.1.067.139.122.078.287.465.459 1.079.062.222.152.476.2.565.047.089.165.48.262.868.097.389.244.835.328.99a1.9 1.9 0 0 1 .173.666c.011.21.08.532.154.715.073.183.133.407.133.498 0 .09.055.22.122.287.068.067.148.294.179.503.075.51.096.617.154.77.133.352.328.958.452 1.41.078.284.296.719.501 1.003.2.276.421.585.491.687.07.101.17.184.222.184.052 0 .161.14.243.312.176.37.536.83 1.154 1.476.247.258.473.545.503.638.029.092.094.167.144.167.118 0 .848.762.848.886 0 .102 1.365 1.463 1.755 1.75.13.095.256.24.283.324.026.083.098.152.158.152.124 0 .483.287.483.385 0 .101 2.44 2.467 2.544 2.467.052 0 .133.087.18.194.05.113.193.217.344.249.235.05.24.056.044.066-.192.01-.167.043.216.29.237.154.529.368.647.475.118.107.242.195.275.195.033 0 .082.07.109.154.064.202.492.451.775.451.127 0 .225.049.225.112 0 .062.154.208.343.324.189.117.345.26.346.318 0 .058.157.194.347.302.19.109 1.619.977 1.619 1.016-2.3 1.17-3.21 1.396-3.705 1.628-1.615.756 3.98-2.013 3.704-1.617-.046.066-.159.142-.599.42-2.77 1.754-3.412 1.871-6.004.524zm-150.887-1.661c-.19-.045-.532-.141-.759-.214-.227-.074-.49-.113-.583-.089-.094.025-.17.007-.17-.04 0-.048-.105-.063-.238-.035-.16.034-.322-.005-.497-.122-.143-.095-.328-.173-.41-.174-.084 0-.152-.058-.152-.13 0-.136-.062-.148-.908-.17-.554-.014-1.052-.215-1.143-.46-.073-.2-.21-.282-.38-.23a.155.155 0 0 1-.192-.088c-.065-.17-.435-.171-.575-.003-.12.145-.575.177-.62.044-.015-.048-.318-.107-.672-.133-.505-.037-.705-.093-.924-.26-.153-.117-.325-.213-.38-.213-.057 0-.283-.15-.503-.335-.22-.185-.479-.35-.574-.368-.222-.042-.311-.68-.095-.68.073 0 .313-.114.533-.254.221-.14.514-.28.652-.31.137-.03.25-.086.25-.124 0-.039.132-.095.294-.125.161-.03.313-.106.337-.169.042-.108 1.306-.573 1.559-.573a.333.333 0 0 0 .217-.115c.053-.064.31-.188.573-.278.262-.089.477-.195.477-.235 0-.04.038-.05.084-.022.092.057.727-.138 1.131-.347.139-.072.262-.127.275-.123a.655.655 0 0 0 .171-.05c.215-.082.672.144.672.332 0 .21.271.13.95-.28.181-.108.677-.312 1.046-.43a1.56 1.56 0 0 0 .475-.248 2.01 2.01 0 0 1 .425-.267c.463-.212.775-.388.892-.504a.445.445 0 0 1 .27-.113c.086 0 .299-.06.473-.132.174-.073.352-.11.395-.084.043.027.12-.03.172-.126.051-.096.121-.17.155-.165.292.044.577-.057.883-.313.273-.228.413-.29.57-.25.144.036.223.01.26-.087.035-.091.116-.122.242-.09.115.029.272-.017.402-.118.116-.09.348-.229.514-.307.167-.078.416-.24.554-.358.138-.12.318-.217.4-.217a.377.377 0 0 0 .252-.124c.057-.068.214-.148.349-.178.135-.03.268-.112.295-.182.027-.07.196-.186.375-.257.675-.267 1.58-.772 1.885-1.051.174-.16.432-.313.574-.341.141-.029.302-.124.357-.212.055-.089.164-.161.242-.161a.38.38 0 0 0 .25-.13c.06-.073.268-.203.464-.291.343-.154 1.689-1.014 1.955-1.249.343-.303.757-.57.97-.622.128-.032.257-.133.286-.223.028-.09.144-.187.258-.216a.649.649 0 0 0 .329-.24c.067-.103.351-.302.63-.442.28-.14.522-.285.537-.322.016-.037.099-.068.184-.068a.4.4 0 0 0 .266-.134c.061-.073.159-.115.217-.092.058.022.188-.054.288-.17.1-.115.224-.209.274-.209.091 0 .605-.377 1.03-.757.12-.108.287-.217.37-.244.083-.026.152-.08.152-.118 0-.038.195-.154.435-.257.239-.103.413-.221.387-.263-.026-.043.024-.1.112-.127a1.19 1.19 0 0 0 .342-.221c.301-.282 1.246-.865 1.4-.865.079 0 .394-.255.7-.567.306-.312.663-.624.793-.693.13-.07.425-.29.656-.492.231-.201.545-.463.699-.582.153-.118.36-.303.46-.41.1-.107.225-.195.276-.195.121 0 1.065-.641 1.367-.929.13-.125.237-.273.237-.33 0-.058.092-.128.205-.156.112-.028.365-.207.562-.398.196-.191.387-.347.423-.347.036 0 .434-.349.886-.775.45-.427.845-.777.875-.778.12-.007 1.198-1.17 1.198-1.293 0-.036.282-.369.627-.74.344-.371.704-.78.8-.907.094-.128.247-.307.34-.398.261-.26 1.344-1.743 1.344-1.842 0-.049.078-.13.172-.181a.542.542 0 0 0 .226-.308.658.658 0 0 1 .217-.329c.16-.112.25-.263 1-1.693.212-.401.52-.88.684-1.062.165-.182.323-.447.351-.588.028-.14.085-.256.127-.256.042 0 .076-.07.076-.155 0-.086.116-.34.257-.563.142-.223.284-.511.317-.64.032-.127.172-.448.312-.711.216-.41.246-.544.204-.912-.028-.237-.09-.445-.138-.46-.049-.017-.088-.141-.088-.277 0-.136-.033-.267-.072-.292-.04-.024-.081-.289-.092-.588-.01-.3-.056-.58-.1-.626-.045-.045-.082-.247-.082-.449 0-.201-.039-.39-.086-.42-.048-.029-.087-.146-.087-.259 0-.253-.434-.68-1.253-1.232-.333-.225-.657-.479-.721-.565-.064-.086-.18-.144-.26-.128a.342.342 0 0 1-.25-.06c-.302-.248-1.146-1.095-1.146-1.15 0-.035-.373-.453-.828-.928-.456-.475-.886-.98-.956-1.123-.256-.523-.332-.648-.397-.648-.036 0-.066-.043-.066-.096 0-.052-.116-.242-.26-.422-.142-.18-.258-.368-.258-.417 0-.049-.09-.199-.2-.333-.11-.134-.29-.42-.399-.633-.109-.214-.223-.409-.253-.432-.14-.11-.424-.6-.564-.973-.085-.226-.2-.411-.255-.413-.056 0-.217-.263-.359-.583-.142-.32-.338-.646-.436-.725-.098-.078-.285-.35-.415-.605a9.785 9.785 0 0 0-.408-.72 2.453 2.453 0 0 1-.225-.418c-.042-.124-.07-.134-.127-.043-.057.09-.073.083-.074-.03-.001-.08-.09-.254-.198-.389a3.369 3.369 0 0 1-.318-.482 2.24 2.24 0 0 0-.362-.475c-.134-.13-.244-.28-.245-.333-.002-.086-.2-.341-.566-.733-.07-.075-.128-.179-.128-.23 0-.051-.194-.326-.432-.61-.238-.285-.432-.538-.432-.562 0-.052-.293-.409-.608-.738a6.378 6.378 0 0 1-.518-.678c-.165-.246-.368-.466-.451-.488-.084-.023-.152-.119-.152-.213 0-.095-.095-.283-.213-.419a8.47 8.47 0 0 1-.41-.525 33.874 33.874 0 0 0-.716-.938 16.628 16.628 0 0 1-.605-.801c-.158-.262-.843-1.179-.945-1.267-.056-.047-.248-.33-.427-.627-.18-.297-.392-.575-.471-.618-.08-.043-.255-.295-.389-.56-.134-.266-.295-.513-.358-.55-.062-.035-.23-.279-.371-.54a15.223 15.223 0 0 0-.572-.949c-.172-.26-.313-.523-.313-.583 0-.06-.036-.11-.08-.11-.044 0-.126-.146-.183-.324-.057-.179-.249-.558-.426-.843-.334-.538-.718-1.34-.64-1.34.024 0-.036-.113-.135-.25-.098-.139-.178-.345-.178-.46a.73.73 0 0 0-.127-.375.665.665 0 0 1-.13-.316c-.001-.096-.049-.131-.132-.1-.09.035-.13-.005-.13-.132 0-.1-.035-.182-.078-.182-.085 0-.44-.978-.44-1.21 0-.077-.069-.216-.152-.31-.33-.372-.754-1.368-.652-1.534.03-.046.008-.056-.047-.022-.061.037-.1.003-.1-.088a.565.565 0 0 0-.144-.308.901.901 0 0 1-.174-.434c-.017-.15-.088-.338-.159-.416a.525.525 0 0 1-.128-.295c0-.153-.157-.563-.394-1.03-.069-.134-.125-.301-.125-.372 0-.073-.042-.102-.099-.066-.067.042-.086-.007-.058-.15.022-.117-.011-.26-.074-.32-.063-.058-.115-.223-.115-.365 0-.15-.054-.28-.13-.308-.07-.028-.129-.145-.129-.26a.879.879 0 0 0-.123-.401c-.135-.21-.655-1.742-.655-1.932 0-.065-.041-.118-.092-.118-.055 0-.068-.075-.034-.184.035-.108.016-.21-.045-.247-.057-.035-.113-.193-.123-.352-.011-.158-.066-.302-.122-.32-.056-.02-.104-.1-.106-.179-.002-.08-.064-.3-.137-.49-.166-.429-.288-1.088-.19-1.028.111.07.086-.025-.1-.374a3.58 3.58 0 0 1-.271-.82c-.054-.273-.15-.54-.213-.593-.072-.06-.096-.188-.065-.347.029-.143.006-.305-.054-.377-.058-.07-.08-.166-.05-.216.033-.053.001-.068-.079-.037-.11.042-.134-.027-.134-.393 0-.264-.057-.531-.14-.658-.076-.117-.148-.417-.159-.666-.01-.25-.065-.564-.12-.698a1.408 1.408 0 0 1-.1-.433c0-.104-.071-.326-.16-.491-.087-.166-.184-.535-.215-.82-.091-.846-.123-.995-.244-1.142-.073-.089-.082-.15-.024-.17.094-.032.06-.633-.036-.633-.03 0-.062-.23-.071-.513-.01-.31-.073-.6-.161-.734-.111-.17-.137-.363-.11-.827.025-.452.006-.605-.077-.605-.07 0-.113-.12-.116-.324-.013-.846-.093-1.817-.174-2.118a3.422 3.422 0 0 1-.082-.782 5.85 5.85 0 0 0-.075-.925 8.907 8.907 0 0 1-.09-1.179c-.004-.508-.039-.716-.124-.748-.08-.031-.134-.287-.172-.81-.196-2.679-.221-2.922-.34-3.226-.028-.071-.072-.48-.098-.908-.05-.838-.162-1.648-.255-1.86-.032-.072-.113-.441-.181-.82-.234-1.304-.472-2.202-.664-2.505-.03-.048-.122-.417-.204-.821-.081-.404-.206-.848-.277-.986a1.499 1.499 0 0 1-.137-.54c-.005-.159-.04-.29-.078-.29s-.07-.075-.07-.167c0-.092-.038-.192-.086-.221-.047-.03-.086-.166-.086-.303 0-.137-.035-.27-.077-.296-.042-.026-.097-.155-.122-.286a7.227 7.227 0 0 0-.226-.75c-.099-.28-.18-.603-.18-.718 0-.21-.237-1.032-.344-1.19-.032-.048-.068-.256-.08-.462a3.803 3.803 0 0 0-.178-.826 6.331 6.331 0 0 1-.219-.835 2.607 2.607 0 0 0-.183-.618 1.416 1.416 0 0 1-.12-.54c0-.17-.034-.376-.075-.459-.145-.285-.27-.768-.27-1.037 0-.148-.04-.294-.087-.323-.047-.03-.086-.163-.086-.296 0-.134-.076-.48-.168-.77a6.734 6.734 0 0 1-.23-1.07c-.034-.299-.114-.668-.178-.821a1.795 1.795 0 0 1-.116-.579c0-.165-.032-.32-.072-.345-.04-.024-.077-.174-.083-.333-.006-.159-.09-.629-.187-1.044-.097-.416-.176-.85-.176-.965 0-.115-.086-.435-.191-.71-.105-.275-.198-.597-.207-.716-.09-1.218-.21-2.118-.286-2.144-.052-.017-.095-.213-.097-.434-.001-.222-.058-.477-.126-.567-.09-.12-.1-.207-.035-.328.06-.113.06-.253-.002-.442-.193-.593-.46-2.115-.448-2.556.007-.255-.028-.513-.077-.572-.049-.06-.132-.548-.185-1.087-.062-.63-.14-1.023-.222-1.104a.335.335 0 0 1-.083-.288c.057-.217-.107-1.39-.208-1.493-.044-.045-.08-.24-.081-.432 0-.193-.079-.597-.173-.898-.095-.302-.172-.637-.172-.747 0-.109-.056-.307-.125-.44-.07-.133-.149-.458-.177-.723a7.168 7.168 0 0 0-.217-1.043 17.382 17.382 0 0 1-.303-1.253c-.076-.38-.192-.808-.258-.95-.141-.308-.205-.617-.254-1.232-.021-.258-.11-.556-.205-.692a1.675 1.675 0 0 1-.224-.583c-.106-.642-.115-.69-.182-.95a1.246 1.246 0 0 0-.171-.39c-.145-.179-.39-.975-.39-1.27 0-.133-.1-.435-.219-.671-.12-.237-.202-.47-.184-.519.019-.05-.005-.187-.053-.305a1.177 1.177 0 0 1-.07-.447c.01-.126-.033-.262-.095-.302-.169-.107-.307-.44-.427-1.023-.058-.285-.177-.622-.264-.748-.087-.126-.158-.309-.158-.406 0-.096-.039-.2-.086-.229-.048-.03-.087-.187-.087-.35 0-.164-.034-.298-.075-.298-.042 0-.097-.108-.124-.24-.026-.133-.167-.499-.313-.814-.146-.315-.265-.647-.265-.737 0-.09-.057-.24-.127-.332a.717.717 0 0 1-.13-.357c-.001-.104-.042-.213-.09-.243-.047-.03-.086-.129-.086-.22 0-.093-.033-.169-.075-.169-.041 0-.123-.184-.182-.41a5.836 5.836 0 0 0-.285-.8c-.38-.827-.596-1.462-.532-1.565.027-.043-.014-.102-.09-.131a.196.196 0 0 1-.122-.194c.026-.212-.099-.597-.229-.705-.064-.053-.14-.21-.171-.35-.03-.138-.096-.252-.146-.252-.055 0-.049-.05.017-.13.085-.102.083-.137-.011-.173-.065-.025-.127-.167-.137-.315a1.207 1.207 0 0 0-.171-.496 2.874 2.874 0 0 1-.434-1.177c-.023-.19-.077-.382-.12-.428a.43.43 0 0 1-.077-.252.553.553 0 0 0-.116-.307c-.064-.075-.181-.406-.26-.737-.08-.33-.224-.685-.322-.79-.098-.104-.168-.242-.155-.307.034-.171-.185-.777-.365-1.009-.085-.11-.136-.251-.112-.314.025-.063-.036-.264-.134-.447s-.178-.441-.178-.573c0-.133-.102-.401-.225-.597a4.759 4.759 0 0 1-.38-.798 20.675 20.675 0 0 0-.424-1.063c-.147-.342-.268-.683-.268-.757 0-.073-.039-.134-.086-.134-.048 0-.087-.137-.087-.304 0-.167-.036-.37-.08-.453-.11-.204-.48-1.246-.664-1.866-.082-.278-.194-.55-.25-.606-.164-.164-.302-.462-.302-.652 0-.097-.075-.323-.167-.503a2.829 2.829 0 0 1-.226-.737c-.032-.226-.088-.41-.123-.41s-.107-.265-.16-.588c-.054-.323-.158-.71-.232-.858a4.904 4.904 0 0 1-.263-.773 6.963 6.963 0 0 0-.2-.677c-.2-.472-.626-1.968-.589-2.066.024-.06-.031-.276-.121-.477-.12-.267-.141-.41-.079-.527.124-.23.105-.479-.044-.603a.4.4 0 0 1-.13-.27c0-.09-.039-.162-.086-.162-.048 0-.086-.058-.086-.13 0-.071.048-.12.108-.108.143.029.119-.12-.135-.842a7.023 7.023 0 0 1-.429-2.464c.002-.404-.03-.756-.073-.783-.115-.072-.267-1.447-.203-1.83.037-.219.018-.377-.056-.467-.084-.1-.114-.574-.116-1.858-.003-1.44.017-1.736.126-1.805.11-.07.107-.082-.022-.083-.083 0-.151-.04-.151-.088 0-.047.058-.086.13-.086.07 0 .13-.04.13-.087 0-.047-.06-.086-.13-.086-.072 0-.13-.039-.13-.086 0-.048.051-.087.114-.087.086 0 .101-.102.06-.418-.029-.23-.022-.53.015-.67.038-.138.085-.504.106-.813.02-.31.08-.671.13-.805.052-.134.094-.387.095-.562a2.5 2.5 0 0 1 .125-.675c.069-.196.134-.517.145-.713.012-.196.047-.357.077-.357s.106-.282.167-.626c.061-.345.136-.646.166-.67.124-.098.442-1.017.442-1.277 0-.153.034-.279.076-.279.097 0 .243-.385.298-.788.024-.172.12-.483.215-.691.095-.209.238-.593.318-.854.216-.703.317-.951.386-.951.034 0 .113-.156.176-.346.063-.19.147-.345.187-.345.04 0 .072-.076.072-.168 0-.093.088-.23.195-.305.165-.117.175-.15.065-.222-.111-.073-.103-.106.056-.235.205-.167.549-.802.549-1.014 0-.074.098-.172.217-.218a.617.617 0 0 0 .307-.322c.146-.39.432-.918.597-1.103.086-.095.184-.27.218-.39.035-.118.151-.312.259-.431.108-.12.24-.304.296-.41.055-.108.157-.195.226-.195.07 0 .127-.078.127-.173 0-.095.039-.173.086-.173.047 0 .172-.185.277-.41.209-.449.365-.648.446-.568.095.096.297-.15.255-.311-.027-.104.066-.268.268-.47.17-.17.31-.334.31-.363 0-.03.136-.174.303-.321.166-.148.303-.31.305-.36.004-.123.306-.481.406-.481.101 0 .44-.39.551-.634.048-.105.225-.285.393-.4.169-.116.342-.304.385-.418.044-.114.156-.227.25-.252.095-.025.173-.096.173-.158 0-.063.09-.184.199-.271a.934.934 0 0 0 .256-.309c.032-.083.112-.151.178-.151.066 0 .213-.11.327-.244.113-.135.279-.271.367-.304.091-.033.14-.11.113-.18-.051-.134.209-.482.36-.482.052 0 .292-.195.533-.432.242-.238.478-.432.525-.432.047 0 .222-.137.389-.303.166-.166.332-.302.369-.302.101 0 .619-.557.619-.667 0-.053.175-.18.389-.284.214-.104.389-.237.389-.297s.202-.218.45-.353c.248-.135.588-.383.756-.551.168-.169.49-.399.717-.511.225-.113.41-.24.41-.284 0-.043.072-.078.16-.078.087 0 .202-.098.257-.216.054-.12.138-.217.186-.217.049 0 .089-.048.089-.108s.108-.157.241-.215c.133-.06.454-.302.713-.539.26-.237.596-.491.747-.564.152-.073.3-.207.329-.3a.382.382 0 0 1 .221-.22c.093-.029.169-.1.169-.157 0-.057.126-.173.28-.257.155-.084.48-.336.722-.56a9.61 9.61 0 0 1 .67-.57c.126-.09.229-.217.229-.281 0-.065.04-.118.087-.118.09 0 1.295-1.195 1.297-1.287.004-.14 1.253-1.328 1.49-1.417a.25.25 0 0 0 .153-.21c.003-.175.415-.658.632-.741.079-.03.144-.113.144-.183 0-.07.071-.179.159-.24.087-.063.206-.201.262-.308.057-.107.158-.194.224-.194.067 0 .146-.078.176-.173.03-.095.11-.173.177-.173.067 0 .189-.107.271-.238.083-.13.272-.393.421-.583.15-.19.297-.42.33-.51.032-.09.08-.14.108-.113.063.063.637-.455.637-.574 0-.13.706-.748.854-.748.07 0 .1-.025.07-.057-.032-.031-.011-.113.046-.182.057-.069.145-.208.196-.31a.436.436 0 0 1 .26-.216c.22-.043.9-.556 1.477-1.116.062-.06.24-.135.396-.166.157-.031.344-.128.416-.216.072-.087.25-.227.394-.31.974-.555 1.252-.744 1.374-.931.077-.117.193-.212.258-.212s.14-.059.168-.13c.027-.071.135-.13.239-.13.104 0 .316-.097.472-.216.156-.119.308-.216.338-.216.03 0 .179-.092.33-.206.151-.113.359-.231.462-.262a.71.71 0 0 0 .291-.183.45.45 0 0 1 .307-.127.36.36 0 0 0 .295-.172c.051-.096.145-.173.209-.173s.163-.057.22-.126c.134-.161 1.181-.739 1.34-.739.065 0 .235-.097.376-.216.141-.119.314-.216.383-.216s.215-.078.324-.173c.11-.095.252-.172.316-.172s.117-.042.117-.092c0-.05.038-.067.086-.038.115.071.605-.224.605-.364 0-.062.096-.111.213-.111a.357.357 0 0 0 .307-.176c.051-.096.128-.154.17-.128.042.026.1.008.13-.04.03-.049.131-.089.225-.089s.193-.06.222-.133c.06-.157.643-.472.874-.472a.657.657 0 0 0 .327-.126.674.674 0 0 1 .324-.13c.086-.001.133-.042.103-.09-.03-.048.017-.11.103-.139.598-.197 1.069-.43 1.106-.547.028-.089.285-.194.735-.302.381-.09.692-.197.692-.236 0-.04.046-.072.1-.072.056 0 .284-.117.507-.26a5.826 5.826 0 0 1 1.001-.469 11.56 11.56 0 0 0 1.192-.515c.328-.168.628-.287.667-.262.039.024.156-.042.26-.146a.81.81 0 0 1 .403-.213c.117-.013.255-.065.306-.116.051-.051.183-.093.292-.093.12 0 .199-.052.199-.13 0-.078.08-.13.205-.13a.458.458 0 0 0 .313-.129c.06-.071.22-.13.357-.13.136 0 .248-.038.248-.086 0-.048.075-.086.166-.086.091 0 .342-.076.558-.169.216-.092.534-.194.706-.227.172-.032.333-.112.358-.177.025-.065.139-.119.253-.119.113 0 .207-.035.207-.078 0-.044.273-.125.606-.181.334-.057.657-.152.718-.213a.88.88 0 0 1 .3-.17c.105-.034.19-.097.19-.141 0-.045.132-.081.292-.081.161 0 .341-.059.4-.13.06-.073.153-.123.206-.112.053.01.179-.027.279-.082.1-.056.314-.123.475-.15a2.49 2.49 0 0 0 .552-.172c.143-.068.61-.229 1.038-.357.427-.128.826-.27.884-.316a.262.262 0 0 1 .228-.037c.067.026.193-.004.282-.064.089-.06.37-.134.627-.164.256-.029.535-.116.621-.194.086-.077.189-.12.23-.095.04.026.242-.029.447-.12.205-.093.487-.168.627-.168s.359-.053.487-.117c.129-.064.477-.17.774-.234.297-.064.54-.147.54-.185 0-.038.09-.069.199-.069.11 0 .237-.039.285-.086.047-.047.317-.129.6-.181.283-.052.534-.124.558-.16.024-.036.199-.089.39-.119.234-.037.303-.027.215.029-.192.122-.036.102.3-.038.42-.176 1.568-.482 1.805-.482a.56.56 0 0 0 .357-.171c.177-.195.518-.275 1.283-.3a5.53 5.53 0 0 0 1.159-.205 4.567 4.567 0 0 1 1.278-.188c.422 0 .72-.044.843-.125.106-.069.445-.149.754-.178.309-.03.873-.09 1.253-.136.38-.045.95-.08 1.266-.076.32.004.6-.034.632-.085.031-.05.328-.092.662-.092.744 0 2.23-.159 2.42-.26.084-.043.177-.037.23.017.05.05.138.06.197.024.06-.037.228-.075.375-.086 1.116-.08 2.13-.209 2.281-.29.18-.097.404-.11 1.703-.104.38.001 1.1-.034 1.6-.08.498-.045 1.568-.08 2.376-.078a80.99 80.99 0 0 0 2.874-.053c.917-.037 1.404-.027 1.404.03 0 .047.078.066.173.041.095-.025.173-.075.173-.112 0-.121.287-.18.353-.073.047.076.654.11 2.254.125 2.683.025 4.093.104 4.444.25.2.082.39.088.769.023.37-.064.631-.058.987.023.266.06.97.115 1.564.12.773.009 1.134.047 1.268.134.148.097.253.103.491.03.3-.092.862.013 1.287.24.082.043.262.08.4.08.137 0 .39.058.563.13.176.074.409.108.53.078a.68.68 0 0 1 .366.011c.083.036.268.075.41.087.582.048 1.538.219 1.695.303.092.05.211.063.265.03.06-.038.074-.023.037.038-.044.07.064.1.365.1.462 0 1.64.235 1.797.359.054.042.345.097.649.122.535.045.767.1 1.513.355.197.067.391.114.433.105a.607.607 0 0 1 .247.048c.685.26.849.308 1.036.308.116 0 .34.053.495.118.64.266 1.692.573 1.967.573.088 0 .174.04.19.088.017.049.138.109.271.133.348.063 1.003.292 1.375.48.176.09.394.163.484.163.09 0 .432.101.76.225.328.123.683.245.79.27.107.024.195.075.195.112 0 .038.204.096.453.13.25.033.551.111.67.173.497.257 1.191.56 1.285.56a.73.73 0 0 1 .25.073c.392.192.8.351 1.274.496.285.087.561.207.614.268.052.06.115.09.14.065.025-.025.177.01.337.078.383.163 1.458.516 1.628.536.073.008.239.058.368.11.128.053.43.121.67.153.239.032.435.092.435.133 0 .042.07.076.156.076.085 0 .197.041.248.092a.66.66 0 0 0 .298.129l.508.086c.166.027.38.081.475.12l.415.167c.133.053.299.097.37.097.07 0 .272.096.45.214s.452.24.608.271c.156.031.427.13.6.218.174.089.405.161.514.161.116 0 .198.053.198.126 0 .073.148.17.347.23.19.058.39.156.442.22.053.064.15.116.217.116a.7.7 0 0 1 .27.082c.082.045.636.32 1.23.612.595.291 1.12.576 1.167.632.138.162.544.402.682.402.07 0 .236.092.37.203.135.112.36.232.503.266.142.035.278.091.302.125.08.11.7.443.827.443.068 0 .172.078.232.173.059.095.156.173.216.173s.11.034.11.076c0 .041.117.099.26.128.144.028.352.14.46.248.185.182.7.498 1.158.711.107.05.194.139.195.198 0 .06.056.108.123.108.068 0 .238.096.377.214.14.117.36.254.491.304.297.113 1.192.695 1.277.83.035.057.165.128.288.159.123.03.384.21.58.398.196.188.406.342.466.342s.237.112.393.249c.156.136.403.321.55.41.287.176.904.659 1.207.947.104.098.325.244.491.322.166.08.351.203.411.275.06.072.161.131.225.131s.158.078.209.173c.05.095.143.173.205.173.063 0 .204.078.313.173.11.095.234.172.275.172.042 0 .2.14.35.312.15.171.336.337.412.367.205.083 2.41 1.943 2.422 2.044.006.048.327.359.715.691 1.019.875 3.659 3.557 4.167 4.234.42.559.495.646.993 1.16.262.27.747.872 1.08 1.337.331.466.671.884.755.929.084.045.153.13.153.188 0 .058.088.202.195.32.305.34.67.845.67.931 0 .044.087.181.195.306.107.125.272.374.366.554.095.18.377.577.626.883.25.307.455.587.455.623 0 .036.112.232.25.437.381.568.7 1.167.7 1.317 0 .074.04.135.088.135.048 0 .142.126.209.28l.258.597c.075.173.137.352.137.398 0 .045.097.187.216.315.119.129.216.304.216.391 0 .087.057.206.127.264.07.058.246.477.39.931.144.454.294.868.334.92.13.17.791 1.922.791 2.095 0 .092.072.309.16.481.088.173.184.52.214.771.03.252.207.828.393 1.282.193.468.395 1.16.47 1.603.071.428.193 1.01.27 1.296.076.285.174.83.217 1.21.091.804.197 1.312.324 1.556.05.095.116.636.149 1.202.032.566.096 1.098.14 1.183.046.084.083.54.083 1.013 0 .474.058 1.167.128 1.54.165.872.3 2.24.382 3.883.035.716.095 1.35.13 1.408.115.185.316 1.483.398 2.562.043.57.129 1.426.19 1.902.143 1.108.131 8.573-.017 10.544a65.54 65.54 0 0 0-.136 2.895 49.306 49.306 0 0 1-.205 3.89c-.08.965-.206 3.478-.32 6.438-.088 2.263-.368 5.17-.583 6.053-.07.284-.146.75-.171 1.037-.025.287-.08.617-.123.735-.043.117-.145.738-.227 1.38-.082.642-.185 1.286-.23 1.432-.044.146-.08.504-.08.795 0 .292-.039.717-.085.945-.073.355-.262 2.029-.4 3.526-.182 2.005-.233 2.694-.295 3.976-.039.808-.114 2.072-.167 2.809-.052.737-.13 1.845-.172 2.463-.14 2.063-.264 3.541-.315 3.76-.028.118-.085.624-.128 1.123-.222 2.588-.734 5.875-1.219 7.822-.141.57-.31 1.27-.376 1.556-.065.285-.198.745-.294 1.023a5.96 5.96 0 0 0-.232.931c-.031.234-.09.447-.131.473-.042.025-.075.112-.075.192.001.14-.755 2.587-.993 3.214a6.537 6.537 0 0 0-.218.822 4.837 4.837 0 0 1-.218.777c-.063.143-.179.61-.256 1.038-.078.427-.204.924-.28 1.104-.076.18-.145.47-.154.648-.032.656-.237 1.577-.524 2.353-.079.214-.272.992-.43 1.728-.441 2.067-.552 2.536-.64 2.723-.16.339-.45 2.01-.586 3.37-.185 1.866-.245 7.287-.102 9.248.123 1.695.135 1.9.206 3.583.03.686.094 1.297.144 1.357.084.102.223 1.16.3 2.277.03.45.247 1.53.459 2.29.053.19.17.677.26 1.08.09.405.343 1.249.56 1.877.219.627.397 1.188.397 1.247 0 .058.114.4.253.76.14.36.3.888.358 1.173.058.285.217.869.355 1.296l.333 1.044c.046.146.084.342.084.436a.43.43 0 0 0 .078.253c.081.086.39 1.104.535 1.768.047.214.128.464.18.556.05.092.147.555.213 1.028s.195 1 .286 1.172c.177.333.289 1.204.455 3.553.116 1.64.123 1.845.191 5.402.034 1.761.018 3.463-.04 4.45l-.12 1.989a26.938 26.938 0 0 1-.326 2.506c-.053.261-.106.962-.118 1.556a23.609 23.609 0 0 1-.157 2.117c-.074.57-.136 1.258-.137 1.527a7.79 7.79 0 0 1-.13 1.156c-.07.367-.102.71-.071.76.08.13.039 1.674-.05 1.854-.15.303-.36 1.052-.408 1.458-.028.23-.122.574-.208.764a4.686 4.686 0 0 0-.39 1.663c-.008.285-.066.51-.157.611a.642.642 0 0 0-.145.37c0 .288-.15.828-.354 1.274-.094.205-.218.58-.276.834-.057.253-.136.454-.176.447-.101-.018-.31.383-.314.603a1.706 1.706 0 0 1-.133.494 1.81 1.81 0 0 0-.13.573c0 .163-.044.262-.117.262-.107 0-.185.276-.344 1.21-.096.564-.347 1.346-.452 1.407-.104.06-.166.268-.235.797a.865.865 0 0 1-.074.259c-.028.048-.14.45-.25.895-.11.445-.253.861-.317.925-.117.117-.585 1.489-.682 1.998-.028.152-.106.296-.173.322a.206.206 0 0 0-.121.179c0 .072-.034.132-.076.132-.042 0-.125.126-.185.28-.21.54-.462 1.016-.537 1.016-.042 0-.053.038-.025.084.029.047-.047.17-.167.275-.121.105-.22.254-.22.33 0 .09-.261.27-.713.497-.631.315-.805.362-1.516.41-.441.03-.904.092-1.03.14-.153.058-.255.057-.316-.004-.05-.05-.234-.09-.411-.09-.409 0-1.225-.182-1.299-.289-.03-.045-.138-.06-.237-.034-.1.026-.204.012-.23-.03-.027-.044-.173-.08-.325-.08-.456-.002-.645-.09-.752-.347-.1-.242-.046-.776.078-.776.065 0 .757-.944.931-1.271.292-.549.427-.766.511-.82.051-.034.146-.228.21-.433.064-.204.168-.432.231-.508a.502.502 0 0 0 .115-.264c0-.07.057-.203.126-.296a.72.72 0 0 0 .13-.359c.001-.105.12-.324.262-.487.143-.162.26-.322.26-.354 0-.033.116-.23.259-.437.142-.207.259-.419.259-.47 0-.112.173-.426.324-.591a.437.437 0 0 0 .108-.25c0-.072.054-.234.12-.36.152-.293.746-1.544 1.052-2.218.13-.285.281-.577.337-.648.056-.071.197-.377.312-.68.116-.303.259-.57.318-.593.06-.023.108-.127.108-.232 0-.104.032-.226.072-.271.039-.045.123-.257.186-.471.064-.214.223-.564.354-.778.132-.214.266-.535.299-.713.032-.178.091-.324.13-.324.039 0 .116-.224.172-.497.057-.274.153-.594.214-.713.062-.12.177-.47.258-.778l.258-.994c.253-.97.39-1.687.39-2.038 0-.204.056-.607.124-.895.12-.513.262-2.733.354-5.58.059-1.798.106-2.607.21-3.587.046-.428.125-1.556.176-2.506.051-.951.113-1.982.137-2.29.047-.61.045-4.748-.003-5.1-.016-.119-.112-.92-.211-1.782-.1-.862-.22-1.737-.266-1.945a38.424 38.424 0 0 0-.422-1.761 3.189 3.189 0 0 1-.098-.713c0-.236-.039-.368-.108-.368-.112-.001-.376-.746-.468-1.316-.03-.189-.088-.3-.14-.267-.049.03-.065.016-.036-.03.03-.048-.123-.647-.337-1.332a189.39 189.39 0 0 1-.61-1.98c-.12-.405-.277-.902-.348-1.105a16.6 16.6 0 0 1-.302-1.037c-.094-.367-.23-.882-.299-1.143-.184-.689-.383-1.553-.436-1.902a11.014 11.014 0 0 0-.212-.907 17.78 17.78 0 0 1-.295-1.34c-.07-.404-.171-.948-.224-1.21-.485-2.409-1.037-10.26-1.029-14.637.004-2.452.031-2.84.227-3.363.068-.18.124-.568.125-.864.003-.544.087-1.265.25-2.138.048-.261.165-.98.26-1.599.096-.618.229-1.318.296-1.555.068-.238.17-.744.229-1.124.057-.38.143-.764.19-.853.048-.089.104-.32.127-.512.022-.193.092-.452.156-.576.064-.124.144-.38.177-.568.033-.189.118-.435.19-.548.07-.112.126-.346.124-.518 0-.173.117-.742.263-1.265.146-.523.295-1.106.332-1.296.036-.19.144-.58.24-.865.342-1.015.534-1.656.612-2.035.135-.66.36-1.418.445-1.504.045-.045.082-.192.082-.327s.073-.39.161-.567c.088-.176.183-.515.21-.752a6.84 6.84 0 0 1 .22-.994c.094-.31.275-.951.402-1.426.128-.476.267-.932.31-1.015a.758.758 0 0 0 .08-.295c0-.174.247-1.05.356-1.262.043-.084.098-.355.121-.602.065-.675.227-1.568.303-1.666.037-.048.114-.398.17-.778.057-.38.177-1.061.267-1.513a22 22 0 0 0 .26-1.944c.052-.618.108-1.221.123-1.34.163-1.317.32-3.243.39-4.797.047-1.045.121-2.076.165-2.29.044-.214.126-1.38.182-2.593.056-1.212.158-2.457.227-2.766.07-.309.143-.95.164-1.426a17.3 17.3 0 0 1 .095-1.253c.03-.214.066-.544.078-.734.046-.71.294-2.604.381-2.905.05-.172.127-.93.17-1.685.045-.756.166-1.84.268-2.411a11.36 11.36 0 0 0 .183-1.941c-.003-.53.034-.95.089-1.017.059-.071.105-.864.125-2.164.018-1.128.075-2.382.127-2.786.052-.404.09-1.335.085-2.069-.006-.733.03-1.457.08-1.608a.757.757 0 0 0 .013-.481c-.048-.125-.045-.429.006-.769.046-.309.094-.834.108-1.167.044-1.108.297-5.163.428-6.87.072-.928.153-2.036.182-2.464.066-.974.062-2.517-.007-2.732-.028-.09-.018-.163.023-.163.11 0 .044-3.887-.107-6.223a117.068 117.068 0 0 1-.166-3.284c-.02-.69-.057-1.37-.082-1.513-.053-.3-.145-1.607-.18-2.55-.077-2.095-.473-5.783-.687-6.396-.074-.213-.135-.457-.136-.54a.819.819 0 0 0-.077-.303c-.149-.295-.27-.772-.27-1.065a1.53 1.53 0 0 0-.16-.599c-.09-.165-.19-.526-.223-.8-.034-.276-.117-.606-.185-.735a1.447 1.447 0 0 1-.123-.56c0-.178-.031-.323-.068-.323-.038 0-.16-.282-.273-.627a15.304 15.304 0 0 0-.353-.972 6.793 6.793 0 0 1-.213-.562 1.23 1.23 0 0 0-.168-.346c-.057-.071-.178-.363-.267-.648-.09-.285-.213-.562-.275-.615-.062-.052-.112-.146-.112-.208 0-.118-.764-1.679-1.036-2.116-.089-.142-.164-.327-.168-.41-.004-.083-.047-.151-.097-.151s-.148-.127-.219-.281c-.227-.5-1.112-1.947-1.255-2.053-.032-.024-.143-.206-.246-.405-.104-.198-.246-.41-.317-.468-.071-.059-.18-.23-.242-.378a2.13 2.13 0 0 0-.341-.517c-.125-.135-.228-.292-.228-.349 0-.057-.077-.174-.172-.26-.096-.086-.173-.208-.173-.272 0-.064-.032-.117-.07-.117-.04 0-.269-.282-.51-.626a10.956 10.956 0 0 0-.667-.872 3.984 3.984 0 0 1-.374-.476c-.186-.293-.61-.842-.874-1.13a16.325 16.325 0 0 1-.519-.612c-.172-.214-.343-.402-.378-.418-.036-.016-.065-.066-.065-.112s-.097-.173-.216-.284c-.12-.11-.216-.222-.216-.249 0-.026-.321-.372-.714-.768a22.866 22.866 0 0 1-1.071-1.15 14.93 14.93 0 0 0-1.29-1.358c-.14-.129-.33-.315-.426-.414-.42-.437-.717-.692-.809-.692-.054 0-.098-.033-.098-.073 0-.114-1.042-1.13-1.448-1.41-.202-.14-.367-.29-.367-.336a.083.083 0 0 0-.083-.082c-.045 0-.252-.166-.46-.368a13.31 13.31 0 0 0-.717-.643c-1.49-1.214-2.104-1.69-2.406-1.874-.147-.089-.298-.215-.336-.28-.038-.066-.12-.12-.184-.12-.062 0-.263-.136-.444-.302-.182-.167-.374-.303-.428-.303-.054 0-.19-.097-.3-.216-.113-.119-.239-.216-.281-.216-.043 0-.247-.117-.455-.26-.207-.142-.418-.258-.469-.258-.05 0-.092-.037-.092-.081 0-.045-.156-.169-.346-.275-.19-.107-.346-.222-.346-.256 0-.033-.175-.143-.389-.244-.214-.1-.389-.221-.389-.268 0-.048-.042-.086-.094-.086-.051 0-.275-.124-.496-.275-.788-.536-.873-.59-.927-.59-.03 0-.177-.087-.326-.194a6.896 6.896 0 0 0-.91-.564c-.197-.108-.358-.231-.358-.275 0-.043-.088-.106-.194-.14a4.756 4.756 0 0 1-.654-.33 20.51 20.51 0 0 1-1.14-.698c-.492-.32-1.347-.78-2.506-1.35-.5-.246-.92-.48-.937-.522-.015-.041-.08-.075-.144-.075-.063 0-.225-.058-.36-.129-.577-.303-1.6-.736-1.74-.736a.712.712 0 0 1-.322-.112c-.094-.062-.462-.223-.819-.358-.356-.135-.71-.298-.784-.363-.075-.064-.181-.117-.235-.117-.054 0-.246-.064-.425-.142-.18-.078-.405-.17-.5-.206a36.56 36.56 0 0 1-.519-.2 7.803 7.803 0 0 0-.648-.22 11.134 11.134 0 0 1-.777-.262c-.26-.1-.543-.18-.628-.18a.804.804 0 0 1-.303-.076c-.402-.203-.821-.356-.975-.356a.864.864 0 0 1-.322-.074l-.409-.205a2.55 2.55 0 0 0-.58-.189 2.371 2.371 0 0 1-.562-.183 1.311 1.311 0 0 0-.5-.128c-.252-.001-.508-.058-1.858-.408-.959-.249-1.533-.357-2.161-.409a66.498 66.498 0 0 1-1.383-.135 43.87 43.87 0 0 0-4.148-.205c-4.447.045-9.652.035-11.755-.023a258.696 258.696 0 0 0-8.815-.056c-.642.007-2.134.003-3.317-.01-1.182-.011-2.31.01-2.506.048-.332.064-2.29.187-4.635.293-1.152.051-1.435.085-1.68.2-.327.152-1.118.278-2.253.36-2.088.148-5.25.592-5.6.785-.139.077-.557.147-1.832.308-.238.03-.51.095-.605.144-.142.074-1.257.34-2.29.548a2.144 2.144 0 0 0-.39.122c-.188.086-.95.282-1.901.49-.333.072-.618.165-.634.207-.016.041-.16.075-.32.075-.404 0-1.247.23-1.422.388a.552.552 0 0 1-.315.13.427.427 0 0 0-.252.08c-.045.045-.251.106-.458.136a3.6 3.6 0 0 0-.59.136c-.116.045-.3.081-.408.081-.107 0-.367.112-.578.249a3.14 3.14 0 0 1-.857.355c-.262.059-.573.15-.691.202-.12.052-.255.1-.303.106-.048.006-.263.09-.48.187a3.777 3.777 0 0 1-.75.237c-.197.033-.441.132-.543.22-.167.145-.847.345-1.173.345-.07 0-.15.059-.177.13-.03.078-.16.13-.33.13a.608.608 0 0 0-.436.173.555.555 0 0 1-.338.175.704.704 0 0 0-.349.13.707.707 0 0 1-.362.127c-.107 0-.218.038-.246.084-.064.102-.8.434-.963.434-.066 0-.119.035-.119.078s-.117.119-.26.169c-.142.05-.259.13-.259.178 0 .048-.165.128-.367.177a3.26 3.26 0 0 0-.612.22c-.134.07-.32.129-.41.129-.092 0-.166.035-.166.078 0 .078-1.045.44-1.268.44-.063 0-.115.039-.115.085 0 .047-.107.111-.238.143-.13.032-.33.13-.444.218-.113.088-.291.16-.395.16-.104 0-.28.097-.392.216-.112.118-.292.216-.4.216-.107 0-.22.039-.249.086-.03.048-.216.167-.415.266-.2.098-.538.273-.751.388-.214.115-.453.209-.531.21-.078 0-.161.049-.184.108-.023.06-.218.16-.434.224a4.055 4.055 0 0 0-.85.41c-.253.163-.511.296-.575.296-.064 0-.095.034-.069.076.027.042-.175.185-.448.317-.273.133-.516.268-.54.3-.023.033-.185.086-.358.117-.174.032-.339.118-.367.19-.027.072-.166.172-.307.22-.141.05-.28.165-.31.256-.028.091-.105.166-.17.166-.064 0-.363.164-.664.364-.3.2-.594.372-.653.381-.179.028-.694.374-.742.499-.024.064-.188.144-.364.177a1.185 1.185 0 0 0-.53.27c-.115.115-.266.21-.335.21-.07 0-.126.038-.126.085 0 .046-.146.16-.324.254a3.496 3.496 0 0 0-.575.39c-.138.122-.298.222-.354.222-.057 0-.236.126-.397.281a2.42 2.42 0 0 1-.54.391c-.136.06-.267.187-.292.28-.046.179-.197.24-.197.08 0-.05-.04-.067-.088-.037-.048.03-.065.09-.038.135.028.045-.013.105-.09.135-.079.03-.28.185-.45.345-.17.16-.336.291-.368.291-.033 0-.285.175-.56.39-.276.213-.552.388-.614.388-.062 0-.184.09-.27.2-.087.11-.18.198-.208.195-.027-.003-.113.052-.191.124a9.682 9.682 0 0 1-.418.345 4.384 4.384 0 0 0-.45.41c-.097.108-.225.195-.286.195-.061 0-.159.16-.217.355-.058.195-.167.378-.241.405a.664.664 0 0 0-.24.186c-.058.074-.107.103-.108.064-.003-.082-.17.087-.328.334l-.365.558c-.142.214-.258.437-.26.497 0 .06-.04.108-.088.108-.048 0-.15.155-.225.346-.076.19-.176.345-.22.345-.046 0-.062.035-.036.077.026.042-.01.125-.08.183-.072.06-.13.158-.13.22 0 .063-.075.137-.166.167-.095.03-.192.165-.225.314-.031.143-.112.282-.179.308-.066.025-.121.123-.121.218 0 .1-.073.19-.175.217-.125.033-.16.093-.124.208.038.121.017.149-.084.11-.096-.037-.136 0-.136.122 0 .096-.204.39-.453.655-.25.264-.551.604-.67.755-.119.152-.343.41-.497.574-.155.163-.281.33-.281.37 0 .039-.112.151-.25.249-.137.098-.274.277-.305.398-.03.122-.09.199-.134.172-.043-.026-.149.052-.235.175-.137.195-.534.606-1.755 1.816-.167.164-.328.299-.359.299-.11-.002-.592.471-.592.58 0 .06-.079.11-.176.11-.096 0-.198.059-.225.13-.027.071-.104.13-.17.13-.066 0-.12.032-.12.071 0 .116-.733.88-.844.88-.088 0-.452.294-.985.799-.087.083-.21.151-.273.151-.062 0-.227.121-.367.27-.14.148-.422.375-.628.505-.206.13-.421.33-.478.444a.436.436 0 0 1-.338.235c-.13.015-.275.1-.322.188a.52.52 0 0 1-.26.217c-.097.03-.155.088-.13.128.064.103-.199.347-.374.347-.08 0-.242.116-.36.259-.118.143-.253.26-.302.26-.048.002-.3.206-.562.454-.262.248-.503.442-.537.431-.034-.01-.131.081-.216.204a4.502 4.502 0 0 1-.284.367c-.072.08-.22.26-.331.402-.111.142-.286.28-.39.305a.451.451 0 0 0-.267.225c-.044.1-.19.254-.324.343-.134.09-.244.194-.244.231 0 .083-.5.58-.586.583-.035.001-.177.157-.317.346-.14.189-.301.343-.36.343-.058 0-.119.036-.134.08-.033.09-.405.56-.829 1.045-.154.177-.28.362-.28.41 0 .05-.059.111-.13.139-.072.027-.196.187-.276.355-.08.167-.195.305-.257.305-.06 0-.167.107-.236.237-.068.131-.272.394-.453.584-.18.19-.368.407-.417.482-.247.377-.691.944-.74.944-.03 0-.146.194-.257.432-.112.238-.235.432-.274.432-.04 0-.072.056-.072.123 0 .068-.1.243-.224.39-.123.145-.193.265-.156.265.037 0-.022.083-.13.184a1.28 1.28 0 0 0-.285.432c-.047.137-.117.248-.155.248-.037 0-.094.107-.126.238-.032.13-.144.374-.25.54-.542.859-.89 1.5-1.052 1.945a3.726 3.726 0 0 1-.221.518c-.075.103-.104.33-.09.713.01.263.03.281.318.281.17 0 .383-.04.474-.088.091-.05.312-.105.491-.124.545-.06 1.012-.154 1.104-.224.047-.036.494-.093.994-.127.52-.034.988-.11 1.097-.18.185-.116.45-.16 1.582-.258.309-.027.62-.07.691-.095.072-.025.332-.055.58-.066.248-.011.5-.062.562-.112.111-.091 1.171-.186 2.59-.232.414-.014 1.33-.052 2.038-.086.981-.047 1.46-.03 2.015.068a74.2 74.2 0 0 0 2.846.444c.607.067 1.434.204 1.772.293.19.05.483.093.652.094.169 0 .344.036.39.077.114.104.836.27 1.172.27.154 0 .4.036.545.08.486.144 1.386.365 1.605.394.12.016.352.076.519.132.29.1 1.228.309 1.772.396.866.14 1.334.24 1.622.347.18.066.53.122.778.123.248.001.607.04.797.087.19.046.728.104 1.196.128.467.024.928.085 1.023.137a.62.62 0 0 0 .382.04c.152-.037.208-.016.208.08 0 .152.1.17.228.041.062-.062.163-.062.326 0 .13.05.457.09.727.09.27 0 .637.041.816.091.178.05.43.108.561.13.72.118 1.138.211 1.448.321.19.067.832.208 1.426.314.97.171 1.903.387 2.636.61.142.043.512.124.82.18.31.054.685.154.835.22.15.067.344.123.432.124.088 0 .32.074.515.163.196.089.525.19.732.225.206.035.435.094.509.132.073.038.385.153.694.256.31.103.667.243.794.311.128.069.264.115.303.104.065-.018.227.047 1.107.446.19.086.502.203.692.26.19.056.5.173.691.26.8.365 1.143.507 1.47.609a5.1 5.1 0 0 1 .654.263c.411.206 1.412.87 1.448.96.016.039.067.07.113.07s.306.148.576.327c.442.292 1.014.576 2.048 1.017.19.082.61.28.934.44.324.16.635.293.692.295.056.002.238.118.402.259.165.14.343.256.397.256.054 0 .163.072.243.16.08.088.426.35.77.581.343.232.803.578 1.021.77.218.19.68.58 1.028.866.347.285 1.27 1.14 2.05 1.9.782.762 1.516 1.442 1.632 1.512.115.071.23.193.255.272.025.078.149.254.275.39.657.707 2.047 2.367 2.272 2.712.071.11.291.402.489.65.197.247.544.717.77 1.044.226.327.472.659.548.737.075.078.267.331.425.562.159.23.47.668.692.971.222.304.45.632.506.73.173.3 1.349 1.712 1.66 1.995.483.438.634.604 1.15 1.271.272.351.737.852 1.034 1.113.297.262.697.646.89.855.192.21.515.56.718.778.203.22.45.563.548.765.098.202.21.387.25.411.04.024.191.359.338.743.501 1.313.263 2.436-.615 2.895a1.07 1.07 0 0 1-.38.122c-.282 0-1.06-.433-1.437-.8-.49-.475-.701-.842-.884-1.535-.221-.84-.846-1.486-2.01-2.077-.199-.101-.408-.239-.464-.306-.055-.067-.146-.122-.202-.122-.055 0-.255-.08-.443-.178a6.438 6.438 0 0 0-.731-.312 3.026 3.026 0 0 1-.692-.359c-.393-.294-1.372-1.218-1.981-1.872-.943-1.012-1.528-1.54-2.21-1.994-.647-.43-1.254-.998-3.004-2.806a17.067 17.067 0 0 0-1.083-1.036 3.64 3.64 0 0 1-.604-.647c-.129-.19-.604-.722-1.056-1.18-1.047-1.062-3.163-3.264-3.501-3.644-.253-.285-.928-.88-1.388-1.227-.127-.095-.352-.27-.501-.39-.788-.626-1.01-.777-1.154-.777-.086 0-.204-.076-.262-.169-.058-.092-.262-.215-.453-.273-.191-.057-.348-.136-.348-.176 0-.04-.041-.073-.093-.073-.267 0-1.849-.668-2.011-.85-.681-.761-1.17-1.053-2.354-1.405-.329-.098-.792-.237-1.03-.31a14.05 14.05 0 0 0-.82-.217 31.15 31.15 0 0 1-.692-.163c-.167-.041-.517-.12-.778-.176a4.968 4.968 0 0 1-.748-.218c-.15-.065-.326-.118-.391-.118a.665.665 0 0 1-.29-.117c-.093-.064-.477-.17-.853-.235-.376-.066-.733-.169-.794-.23a.444.444 0 0 0-.267-.112c-.234-.003-1.36-.313-1.64-.452-.136-.067-.48-.171-.765-.232a7.966 7.966 0 0 1-.82-.22 4.53 4.53 0 0 0-.822-.166 12.62 12.62 0 0 1-.907-.137 41.318 41.318 0 0 0-2.247-.393c-.5-.075-1.063-.178-1.254-.228-.324-.086-.511-.12-1.815-.34-.47-.08-.972-.116-2.636-.191-.309-.014-.62-.051-.691-.083-.071-.032-.266-.054-.432-.048-.415.014-2.682-.27-2.896-.363-.095-.041-.386-.094-.648-.118-.568-.053-1.243-.157-2.28-.353-.421-.08-.838-.127-.925-.104a.276.276 0 0 1-.26-.079c-.054-.066-.248-.12-.429-.12s-.439-.046-.573-.1a2.232 2.232 0 0 0-.546-.126c-.947-.08-1.374-.143-1.672-.242a1.425 1.425 0 0 0-.67-.05c-.185.034-.502.03-.704-.01-1.087-.21-5.825-.432-5.931-.277-.03.044-.327.122-.66.174-.332.051-.95.177-1.37.278-.423.101-.843.16-.934.131-.092-.029-.26.008-.376.084a1.098 1.098 0 0 1-.51.137c-.306 0-1.181.2-1.361.311-.055.034-.234.076-.398.094-.165.019-.436.09-.603.16-.166.07-.382.126-.48.126-.097 0-.42.12-.72.265-.298.145-.883.327-1.3.403-.647.12-.802.182-1.057.43-.29.28-.3.313-.328 1.044-.016.414-.044.795-.062.845-.018.05.004.42.048.821.045.401.098 1.119.12 1.594.039.898.136 1.68.3 2.42.053.238.137.685.188.994.122.746.386 2.033.506 2.463.11.396.33 1.411.403 1.858.027.167.102.38.167.473.066.094.119.24.119.325 0 .084.036.153.08.153.043 0 .103.127.132.281.078.407.23 1.038.285 1.188a.469.469 0 0 1 .035.195c-.007.036.025.065.073.065.047 0 .086.117.086.26 0 .143.033.328.074.41.249.508.358.808.44 1.215.05.252.17.63.264.838.095.208.173.427.173.486s.074.265.164.458a29.152 29.152 0 0 1 1.527 4.068c.083.285.199.577.256.648.058.072.193.402.3.735.108.333.233.652.278.709a.764.764 0 0 1 .11.302c.017.11.15.51.298.89.358.921.81 2.193 1.225 3.45.188.565.392 1.149.455 1.296.063.147.184.481.268.743.085.261.202.514.26.561.058.048.126.203.152.346.054.304.404 1.234.65 1.729.298.602.453.995.453 1.152 0 .084.042.195.093.246.051.051.127.244.169.429.041.184.141.49.222.68.081.19.16.441.174.56.014.118.066.228.116.244.05.017.09.126.09.244 0 .117.078.374.173.57.095.197.173.411.173.476s.075.283.166.484c.092.201.192.48.223.622.032.14.11.373.173.515.349.784.561 1.376.561 1.565 0 .117.054.3.12.405.067.105.162.435.212.732.05.298.152.628.226.733a.781.781 0 0 1 .134.37c0 .099.035.217.079.262.043.045.09.199.105.341.015.143.076.336.137.43.06.094.11.252.11.35 0 .1.058.257.128.349.07.092.128.286.13.431 0 .145.04.302.088.35.047.047.126.278.177.514l.163.76c.04.182.115.374.169.427.053.053.098.196.1.317 0 .122.077.376.17.566.091.19.168.49.17.665 0 .175.049.428.105.561.057.134.11.283.117.33.007.048.038.145.068.216.19.447.343 1.001.455 1.642.07.404.203.949.295 1.21.092.262.246.884.343 1.383.096.5.212 1.044.257 1.21.045.167.145.614.222.994.216 1.058.317 1.426.392 1.426.038 0 .092.224.12.497.077.733.218 1.74.306 2.183l.211 1.037c.073.356.157.959.185 1.34.03.38.083.73.12.777.037.048.094.398.127.778.059.68.084.821.346 1.945.072.309.17.899.215 1.312.047.412.121.82.166.907.045.087.183.76.306 1.497.123.737.278 1.592.345 1.901.328 1.53.59 2.86.656 3.328.04.285.18.927.31 1.426.132.5.244 1.044.249 1.21.005.166.053.38.107.476.055.096.119.349.142.562.024.213.084.495.135.625.051.13.072.291.047.357-.026.066.014.266.089.444.074.177.135.446.135.597 0 .152.042.317.093.368.051.051.126.225.167.385.04.16.14.466.223.68.082.214.177.584.212.821.035.238.182.765.328 1.172.145.407.282.841.305.965.022.124.077.296.122.384.046.087.109.302.14.477.032.176.172.676.313 1.113.14.436.234.826.21.867-.026.04.01.181.077.314.101.198.225.69.279 1.104a.974.974 0 0 0 .065.216c.157.371.593 2.629.633 3.275.025.41.104.9.176 1.09.072.19.165.734.208 1.21.042.475.115 1.097.16 1.383.255 1.587.363 2.57.315 2.865-.03.183-.001.608.064.944.066.337.1.74.078.895-.023.155.001.424.053.598.053.173.116.568.14.877.135 1.686.5 4.536.588 4.593.047.03.06.097.028.15-.033.05-.015.256.039.454.053.2.111.54.128.759.059.737.228 1.512.455 2.082.029.071.057.169.064.216.007.048.04.262.076.475.035.214.075.534.088.712.014.177.063.371.108.432.123.162.46 1.404.46 1.692 0 .1.098.363.216.587.131.245.217.548.217.766 0 .197.057.435.126.527a.64.64 0 0 1 .13.296c.003.15.285.902.567 1.514.11.237.284.724.388 1.08.104.357.242.746.305.864.064.12.193.434.287.7.094.265.245.615.335.777.09.162.27.566.402.896.131.33.313.706.405.835.091.128.166.288.166.356s.097.315.216.549c.118.234.216.488.216.566 0 .077.058.189.13.248.071.059.13.159.13.222s.097.297.215.52c.12.224.216.454.216.512 0 .057.146.373.325.7.369.679.565 1.069.757 1.503.166.377.322.646.489.842.071.083.193.293.272.465.078.172.328.56.554.864.226.303.535.746.685.984.455.716.84 1.259 1.045 1.474.107.112.196.234.197.272.002.038.157.242.346.454.189.213.343.428.343.48 0 .051.156.245.346.43.19.187.346.374.346.416 0 .043.237.356.528.696.623.729.856 1.015 1.207 1.482.143.19.312.408.375.485.063.077.15.202.192.277.043.076.268.354.5.618.234.265.466.555.518.645.051.09.327.45.613.798.286.349.584.731.663.85.08.119.249.333.377.475.128.143.333.415.456.605.122.19.306.443.408.562.103.119.325.45.495.735.17.285.409.612.53.726.122.115.304.367.405.562.101.195.388.626.638.959.25.333.518.731.598.886.079.154.182.28.228.28.047 0 .084.038.084.083 0 .045.107.25.238.454.13.204.277.435.324.514.048.078.213.323.368.544.154.221.28.436.28.477 0 .041.03.088.065.104.036.016.16.204.275.418.116.213.34.519.497.678.158.16.287.315.288.346 0 .03.127.192.28.358.32.346.683.779 1.059 1.263.441.57 2.24 2.366 2.37 2.367.067 0 .097.025.066.056-.03.03.06.187.202.349.141.16.257.33.257.376 0 .046.06.084.135.084.113 0 .104-.056-.056-.341a3.94 3.94 0 0 0-.432-.604c-.131-.144-.265-.342-.295-.44-.031-.096-.19-.32-.352-.498-.162-.177-.474-.684-.692-1.127-.22-.444-.42-.785-.446-.758-.067.066-.282-.363-.282-.56 0-.089-.078-.202-.173-.253a.358.358 0 0 1-.173-.306c0-.117-.04-.213-.088-.213-.049 0-.126-.096-.17-.215a9.439 9.439 0 0 0-.258-.578c-.096-.2-.175-.434-.175-.52 0-.087-.078-.224-.173-.306-.095-.081-.173-.215-.173-.296 0-.082-.036-.171-.08-.198-.044-.028-.125-.195-.179-.373a8.15 8.15 0 0 0-.168-.495c-.038-.096-.13-.368-.204-.605-.236-.758-.446-1.294-.55-1.404-.126-.134-.272-.57-.374-1.116-.173-.932-.267-1.285-.348-1.312-.046-.016-.085-.154-.085-.307s-.032-.315-.072-.36c-.13-.15-.344-.855-.346-1.147-.002-.158-.04-.333-.084-.389-.079-.099-.145-.386-.235-1.01a2.861 2.861 0 0 0-.14-.543 1.866 1.866 0 0 1-.112-.39 5.362 5.362 0 0 0-.325-1.296 1.74 1.74 0 0 1-.132-.911c.045-.43-.054-.99-.275-1.557-.053-.136-.093-.505-.088-.821a24.694 24.694 0 0 0-.094-1.785c-.115-1.357-.118-1.517-.06-3.154.053-1.515.455-4.754.59-4.754.042 0 .077-.194.077-.432s.034-.432.077-.432c.042 0 .102-.146.134-.324.03-.178.108-.5.171-.713.064-.214.163-.564.22-.778.059-.214.141-.456.184-.539a.791.791 0 0 0 .078-.306c0-.086.077-.306.17-.49.094-.183.153-.361.13-.397-.02-.035.017-.11.086-.167.069-.057.187-.324.262-.593.076-.27.19-.606.255-.75.065-.142.16-.356.212-.474a3.89 3.89 0 0 1 .17-.346c.098-.168.36-.933.413-1.21a.863.863 0 0 1 .166-.352c.068-.075.124-.178.124-.228 0-.05.057-.138.127-.196.07-.058.153-.238.183-.4.03-.161.09-.293.132-.293.042 0 .077-.064.077-.142 0-.078.152-.457.339-.843.186-.385.367-.856.4-1.046.035-.19.141-.502.238-.692.295-.58.319-.64.319-.798 0-.084.137-.435.304-.78.322-.663.788-1.934.897-2.442.036-.167.127-.4.202-.519.076-.118.2-.425.275-.683.075-.258.187-.55.25-.648.112-.18.265-.65.362-1.117.028-.135.146-.443.263-.685.116-.241.197-.454.179-.471-.018-.018.002-.177.045-.353.042-.176.138-.63.212-1.011.074-.38.187-.772.25-.87.108-.167.396-1.324.581-2.328.144-.78.352-1.639.439-1.808.047-.092.114-.384.15-.649a9.24 9.24 0 0 1 .245-1.094 7.36 7.36 0 0 0 .212-.907c.018-.163.12-.541.227-.842.156-.437.183-.644.137-1.04-.04-.353-.02-.593.074-.837.178-.463.308-2.113.22-2.805a3.861 3.861 0 0 0-.279-.994 7.209 7.209 0 0 1-.318-.778 4.581 4.581 0 0 0-.22-.562c-.27-.53-.605-1.668-.79-2.68-.339-1.848-.248-2.22.517-2.13.266.032.51.129.677.27.143.12.287.22.319.22.092.002.793.656.793.74 0 .042.165.234.367.426 1.158 1.103 2.571 2.832 2.571 3.145 0 .04.117.219.26.398.142.18.259.364.259.41 0 .045.072.185.16.311.087.127.182.308.21.403.027.095.153.464.28.82.357 1 .475 1.59.562 2.795.073 1.02.002 2.828-.135 3.429-.027.118-.083.585-.124 1.037-.133 1.448-.433 2.96-.61 3.07-.046.028-.084.225-.084.438 0 .212-.08.622-.176.91-.097.287-.19.704-.205.926-.04.568-.233 1.409-.369 1.61a.96.96 0 0 0-.114.451c0 .154-.074.486-.165.737-.09.252-.19.61-.223.797a3.58 3.58 0 0 1-.213.691 6.34 6.34 0 0 0-.251.698c-.053.19-.154.54-.224.778a6.16 6.16 0 0 0-.167.734c-.046.35-.45 1.47-.575 1.593a.387.387 0 0 0-.083.24c0 .084-.171.674-.38 1.308-.21.635-.43 1.384-.49 1.665-.06.28-.154.568-.21.64-.055.07-.149.304-.21.518-.06.214-.159.505-.22.648a6.767 6.767 0 0 0-.224.648 3.843 3.843 0 0 1-.161.476 3.326 3.326 0 0 0-.15.432c-.17.59-.356 1.037-.43 1.037-.04 0-.08.039-.091.086-.115.503-.244.888-.333.994-.06.072-.172.32-.25.552-.078.232-.234.62-.348.864-.114.243-.25.608-.303.81-.053.202-.131.367-.173.367-.043 0-.137.206-.21.459a5.906 5.906 0 0 1-.387.932c-.139.26-.3.647-.359.86a6.96 6.96 0 0 1-.401.977c-.174.35-.274.657-.244.752.032.1-.017.228-.13.34-.099.1-.17.228-.16.285.012.058-.065.278-.17.489-.104.211-.19.486-.19.61 0 .266-.24 1.123-.354 1.263-.043.052-.114.266-.159.475-.15.71-.267 1.157-.347 1.33-.043.096-.099.407-.123.692-.024.285-.086.81-.137 1.167-.052.356-.128 1.426-.168 2.377-.064 1.497-.052 1.884.09 2.895.09.642.237 1.439.326 1.772.09.332.21.838.268 1.123.107.528.392 1.64.521 2.031.04.12.096.44.127.712.03.273.088.516.128.54.04.025.1.21.133.412.033.202.169.698.302 1.102.133.404.328 1.026.434 1.383.105.356.24.706.301.778.06.071.178.343.26.605.149.465.367.95.466 1.037.072.062.382.611.888 1.571.092.175.223.365.291.421.069.057.124.157.124.222 0 .066.03.12.065.12.036 0 .161.146.278.324.117.178.312.445.432.594.12.15.317.4.435.556.12.157.644.706 1.167 1.22.523.515 1.145 1.13 1.383 1.369.238.238.49.433.562.432.072 0 .344.218.605.486.262.268.747.72 1.08 1.004.333.284.644.562.692.618.047.055.215.192.373.303.159.11.684.588 1.167 1.06a36.501 36.501 0 0 0 1.355 1.265c.261.223.814.736 1.229 1.14l.864.841a412.456 412.456 0 0 0 2.462 2.46c.656.65 1.278 1.292 1.382 1.426.104.133.561.625 1.016 1.094.454.468.825.877.825.91 0 .032.197.248.436.48.24.233.497.524.57.647.075.122.285.34.468.482.184.143.335.3.337.351.003.05.353.459.779.908.426.448 1.077 1.141 1.448 1.54 1.91 2.055 1.771 1.912 3.137 3.24 1.339 1.3 2.116 1.987 2.295 2.027.068.015.124.063.124.107 0 .043.126.132.28.198.155.066.385.212.511.325 1.158 1.04 2.905 1.973 3.813 2.035.284.02.637.086.786.147.15.062.485.104.746.096a6.14 6.14 0 0 1 1.08.093c.333.06.788.094 1.01.074.367-.032.421-.012.584.216.129.182.178.384.178.732 0 .405-.038.525-.247.764-.254.292-.617 1.187-.617 1.522 0 .103-.042.188-.093.188-.052 0-.226.136-.388.303-.161.166-.328.302-.371.302-.043 0-.131.082-.197.181a.383.383 0 0 1-.335.17c-.118-.008-.446-.024-.729-.038-.282-.014-.527-.066-.544-.117-.021-.063-.12-.063-.328 0-.259.08-.359.061-.754-.139-.25-.126-.522-.23-.603-.23-.081 0-.275-.078-.43-.172-.156-.095-.352-.173-.434-.173-.083 0-.2-.078-.259-.174-.06-.095-.15-.172-.203-.172-.053 0-.186-.078-.295-.173-.11-.095-.242-.175-.294-.178-.053-.003-.31-.158-.57-.346a5.688 5.688 0 0 0-.707-.444.725.725 0 0 1-.323-.302c-.05-.11-.151-.2-.226-.2-.074 0-.24-.097-.368-.216-.128-.118-.263-.216-.3-.216-.036 0-.361-.243-.722-.54-.36-.297-.716-.579-.79-.626a3.638 3.638 0 0 1-.445-.425c-.743-.808-1.5-1.495-1.8-1.631-.108-.05-.197-.118-.197-.152s-.21-.221-.469-.416c-.257-.195-.495-.438-.528-.54-.045-.143-.076-.16-.13-.07-.054.086-.097.054-.165-.126-.091-.24-1.944-2.128-2.089-2.128-.042 0-.076-.06-.076-.132 0-.073-.1-.17-.221-.216-.122-.046-.2-.12-.173-.162.026-.043-.113-.228-.31-.41a51.263 51.263 0 0 1-1.866-1.848 59.318 59.318 0 0 0-.893-.905 14.347 14.347 0 0 1-.347-.346 107.3 107.3 0 0 0-1.037-1.067c-.428-.437-.946-.878-1.031-.878-.039 0-.22-.162-.402-.36a18.19 18.19 0 0 0-.526-.55c-.107-.105-.194-.233-.194-.285 0-.052-.078-.137-.173-.188-.095-.05-.173-.074-.173-.052s-.347-.307-.77-.732c-.424-.424-.813-.771-.865-.771a.095.095 0 0 1-.094-.095c0-.093-1.056-1.156-1.266-1.273-.06-.033-.4-.342-.756-.686-.355-.344-.685-.626-.732-.626-.047 0-.162-.097-.255-.216-.094-.119-.195-.216-.226-.216-.129 0-1.086-.903-1.086-1.024 0-.055-.052-.1-.116-.1s-.23-.097-.368-.215c-.138-.12-.29-.216-.34-.216-.048 0-.15-.069-.227-.152-.418-.455-1.625-1.577-1.697-1.577-.046 0-.228-.165-.404-.367-.65-.746-1.531-1.59-1.825-1.748-.274-.148-.314-.15-.437-.027-.094.093-.235.122-.454.092-.401-.053-.604.137-.462.432.051.106.218.474.372.818.154.345.31.627.347.627.037 0 .094.088.126.194.033.107.108.312.167.454.47 1.13.738 3.254.526 4.183-.072.314-.173.794-.225 1.066-.052.273-.13.518-.175.546-.044.027-.08.143-.08.258 0 .144-.038.193-.124.16-.09-.034-.138.055-.181.344-.033.215-.133.457-.223.539-.09.081-.164.177-.164.213 0 .036-.136.272-.302.525-.167.253-.303.509-.303.57 0 .06-.04.11-.088.11-.084 0-.252.337-.294.59a.3.3 0 0 1-.102.173c-.045.031-.157.233-.248.446a3.52 3.52 0 0 1-.254.508c-.05.065-.188.303-.308.528-.433.813-.549 1-.792 1.28-.136.156-.247.336-.247.4 0 .065-.059.14-.13.168-.071.027-.13.123-.13.212 0 .09-.077.252-.172.362-.095.11-.173.222-.173.25 0 .03-.273.333-.605.676-.333.343-.605.685-.605.76 0 .19-.289.574-.994 1.325-.815.869-1.348 1.39-1.72 1.686-.171.136-.311.3-.311.365s-.107.176-.238.247c-.13.07-.205.13-.166.132.04.002-.048.104-.195.227-.146.123-.266.281-.266.351 0 .07-.033.106-.074.08-.042-.025-.253.119-.47.32-.486.45-.766.668-.856.668-.038 0-.069.04-.069.088 0 .14-.683.786-1.296 1.225-.31.221-.648.483-.753.582-.105.098-.248.179-.32.179-.07 0-.33.214-.577.475-.247.262-.484.476-.527.476-.11 0-.6.353-.808.583-.096.107-.213.196-.26.197-.126.004-.43.28-.495.451-.032.083-.102.151-.155.151-.054 0-.29.196-.525.436-.234.24-.462.413-.505.386-.044-.027-.122.03-.173.127-.052.096-.151.175-.22.175-.07 0-.127.051-.127.113 0 .138-.461.492-.64.492a.26.26 0 0 0-.199.113c-.038.062-.195.164-.349.226-.153.062-.26.145-.236.183.024.039-.036.096-.133.127-.098.03-.279.15-.403.265-.125.115-.319.21-.432.21-.114 0-.23.06-.259.136-.029.075-.144.171-.256.214-.113.042-.205.137-.205.21 0 .072-.043.131-.095.131-.053 0-.211.097-.353.216-.14.119-.35.216-.465.216-.199 0-.51.21-.805.54-.074.084-.175.153-.224.154-.049.001-.202.118-.34.26-.14.14-.317.256-.395.256-.078 0-.402.253-.72.562-.399.387-.646.562-.795.562-.118 0-.215.039-.215.086a.089.089 0 0 1-.09.087c-.05 0-.176.081-.281.18-.105.1-.281.217-.39.26-.11.043-.176.117-.147.164.03.048-.01.087-.089.087-.078 0-.342.175-.587.389-.244.214-.581.432-.748.485-.441.14-.69.316-.78.554a.44.44 0 0 1-.32.26c-.31.067-.74.297-.83.444-.037.063-.152.115-.253.115-.102 0-.275.085-.385.188-.144.135-.2.153-.202.065-.003-.09-.027-.082-.091.028a.337.337 0 0 1-.262.151c-.095 0-.15.04-.12.087.03.047-.02.086-.11.086s-.251.094-.36.21c-.108.115-.251.189-.317.163-.238-.09-.526.06-.687.36-.178.33-.348.393-.411.153-.029-.11-.043-.116-.052-.022-.017.187-.61.58-.976.65a1.088 1.088 0 0 0-.509.266c-.107.114-.261.208-.342.208a.384.384 0 0 0-.255.13c-.06.07-.154.13-.21.13-.056 0-.289.117-.517.262-.373.237-.443.254-.705.167-.203-.067-.338-.069-.445-.007-.145.085-.145.09-.003.093.083 0 .151.032.151.068 0 .036-.224.069-.498.072-.38.005-.583.06-.855.232-.342.216-1.4.439-1.644.346-.057-.021-.523.005-1.037.059-1.433.149-1.77.16-2.145.072zm41.442-42.765c0-.096-.057-.173-.13-.173-.109 0-.113.03-.023.173a.73.73 0 0 0 .13.173c.013 0 .023-.078.023-.173zm26.258 41.859c.062-.025.137-.022.166.007.028.029-.023.049-.114.045-.1-.004-.12-.024-.052-.052zm12.462-59.804c0-.041-.204-.07-.454-.065-.776.015-3.295-.165-3.695-.265-.118-.03-.488-.052-.82-.05-.693.005-2.075-.306-3.32-.746-.447-.159-.886-.288-.977-.288-.09 0-.305-.096-.477-.213-.47-.32-1.194-.527-1.431-.41-.239.118-.606.189-1.059.205-.279.01-.454-.06-.882-.352-.293-.2-.593-.478-.666-.618l-.272-.518c-.215-.41-.334-1.507-.218-2.008.053-.231.097-.573.097-.76 0-.186.039-.339.086-.339.048 0 .087-.117.087-.26 0-.144.034-.328.076-.411.148-.29.262-.585.343-.885.045-.166.182-.477.305-.691a6.33 6.33 0 0 0 .483-.994c.047-.119.125-.216.173-.216.049 0 .089-.06.089-.134 0-.074.06-.249.132-.389.163-.315.55-.35.809-.073.166.178.173.179.39.022.12-.089.22-.19.222-.226.008-.18.312-.02.634.334.453.499.677.592 1.04.435.15-.066.584-.167.965-.226.38-.058.73-.136.778-.172.047-.037.533-.114 1.08-.172.547-.059 1.091-.146 1.21-.194.326-.133 1.107-.328 1.322-.331a.714.714 0 0 0 .358-.13c.092-.07.328-.127.523-.127s.392-.033.437-.072c.094-.083.973-.249 1.984-.373.38-.047.905-.12 1.167-.162.261-.043.708-.113.993-.158.745-.115 1.018-.192 1.18-.332.092-.08.408-.134.907-.154.421-.017.902-.074 1.068-.126.166-.053.555-.116.864-.141.31-.025.615-.064.68-.086.064-.022.511-.06.993-.083a45.16 45.16 0 0 0 1.525-.103 19.1 19.1 0 0 1 1.34-.064c.41-.003.774-.051.894-.12.145-.083.533-.11 1.383-.1 1.13.015 2.07-.045 2.347-.15.338-.128 1.983-.186 2.14-.076.07.05.166.026.267-.065.086-.078.211-.142.279-.142.067-.001.209-.135.314-.298l.192-.296.531.208c.292.115.575.243.63.285.087.07.67.131 1.135.12.878-.018 1.23-.063 1.358-.172.257-.22.543-.06.936.52.416.615 1.147 1.368 1.518 1.563.217.114.576.423 2.099 1.807.162.148.426.559.593.923.165.36.35.714.41.786.27.322.195 1.044-.134 1.274-.092.065-.168.168-.168.23 0 .06-.1.155-.22.21-.256.117-.325.126-.269.036.022-.036-.219-.07-.535-.078a10.575 10.575 0 0 1-1.18-.11 19.78 19.78 0 0 0-1.08-.14 4.054 4.054 0 0 1-.726-.127c-.32-.109-.657-.11-.657-.002 0 .045-.166.125-.368.177a4.55 4.55 0 0 0-.626.212c-.52.238-1.194.478-1.34.478a.365.365 0 0 0-.248.116c-.052.063-.32.167-.594.23-.273.064-.537.142-.584.175a1.42 1.42 0 0 1-.346.122 3.897 3.897 0 0 0-.518.173c-.619.264-.755.308-.963.308a.855.855 0 0 0-.44.173.893.893 0 0 1-.467.173c-.136 0-.248.03-.248.068 0 .038-.243.121-.54.185-.297.065-.587.154-.645.2a.26.26 0 0 1-.216.044c-.061-.021-.247.045-.414.147-.166.102-.477.24-.691.307a9.223 9.223 0 0 0-.757.28c-.333.145-.363.182-.312.393.03.129.117.35.19.493.233.448.404 1.026.396 1.34-.018.688-.046.795-.256 1.006-.2.2-.266.215-.713.17a15.38 15.38 0 0 1-1.011-.146c-.286-.052-.85-.109-1.254-.126a27.333 27.333 0 0 1-.864-.045c-.071-.008-.557.026-1.08.075-1.585.147-1.915.148-2.182.006-.167-.09-.276-.08-.652.058-.378.139-.716.168-2.093.182-.903.01-1.788.043-1.966.076-.178.033-.324.026-.324-.015zm-14.085-16.225c-.056-.056-.479-.082-1.113-.066-1.013.024-1.027.021-1.41-.237-.212-.143-.451-.39-.53-.546-.212-.418-.58-1.378-.58-1.512 0-.064-.1-.534-.224-1.044-.334-1.387-.323-2.408.037-3.445.15-.433.274-.866.274-.961a.4.4 0 0 1 .12-.274c.067-.055.146-.235.177-.4l.056-.3.474.056c.47.055.51.044 1.267-.327a.866.866 0 0 1 .32-.074c.094 0 .315-.098.49-.217.177-.12.468-.24.648-.27.18-.028.345-.102.369-.163.023-.06.21-.139.414-.173.204-.035.45-.112.546-.172.096-.06.32-.134.496-.165.177-.031.371-.105.432-.164.061-.06.235-.117.387-.128.152-.01.456-.096.677-.19.22-.095.447-.173.503-.173.107 0 .23-.167.546-.734.298-.539.528-1.02.59-1.232.03-.107.107-.194.169-.194.062 0 .162-.059.22-.13.06-.071.218-.13.351-.13.134 0 .353-.045.487-.1.134-.055.276-.093.316-.084.073.017.52-.113.917-.265.544-.21 2.08-.415 3.1-.415 1.524 0 1.917-.161 1.917-.786 0-.095.107-.272.237-.393.192-.178.3-.212.555-.178.315.042.756.295.76.436.002.04.087.19.19.334.181.256.195.26.712.2.29-.034.644-.08.787-.102.576-.088 1.172-.132 3.976-.294a181.75 181.75 0 0 1 2.25-.119c.336-.013.686-.062.778-.109.093-.046.403-.07.688-.051.285.018.674.029.864.023 1.744-.053 4.033.047 4.748.206.329.073.632.112.673.087.041-.026.166.013.276.085.225.147 1.123.398 1.643.46.187.022.419.095.516.163.096.068.365.149.597.18.231.03.44.104.463.164.022.06.223.136.446.169.337.05.477.136.837.507.568.588.688.75.803 1.078.053.15.26.45.46.663.2.213.43.5.514.635.082.137.27.334.418.439.147.105.268.227.268.271 0 .103.174.31.836.99.522.537 1.238 1.442 1.238 1.565 0 .227.74 1.794 1.148 2.429.13.2.235.384.235.406 0 .022.114.21.254.416.342.508.462 1.04.424 1.897-.037.866-.244 1.226-.79 1.373-.384.104-1.173-.05-1.247-.242-.023-.06-.087-.11-.141-.11-.054 0-.216-.108-.358-.239-.654-.6-1.403-1.217-1.61-1.326a21.427 21.427 0 0 1-.48-.266c-.14-.08-.583-.185-.984-.234-1.315-.16-1.932-.264-2.414-.404-.953-.277-3.5-.604-4.365-.561-.143.007-.881.031-1.642.054-.76.022-1.441.065-1.513.095-.306.129-3.842.167-4.796.051-.38-.045-.774-.053-.875-.016-.11.04-.334.015-.562-.063-.546-.189-1.246-.172-2.107.05-.19.049-.488.09-.662.09-.175.002-.33.033-.346.07-.03.069-1.582.415-2.579.575a7.34 7.34 0 0 0-.561.126c-.19.05-.514.093-.72.094-.204 0-.447.042-.538.09-.22.118-2.236.132-2.891.021a9.502 9.502 0 0 0-1.096-.104c-.518-.014-.592.005-.71.184-.071.11-.156.361-.187.559a1.325 1.325 0 0 1-.307.631c-.137.15-.25.325-.25.388 0 .116-.879.826-1.023.826-.044 0-.192.058-.328.129-.136.07-.306.13-.377.13-.071 0-.232.055-.358.12-.685.357-1.135.434-2.642.446-.943.008-1.52-.021-1.578-.079zm7.07-18.725c-.39-.207-1.11-.851-1.11-.995 0-.058-.064-.16-.142-.224-.079-.066-.372-.592-.652-1.17s-.562-1.096-.627-1.15c-.133-.11-.462-.774-.58-1.17-.042-.142-.077-.68-.078-1.193 0-.883-.017-.97-.305-1.599-.436-.953-.45-.988-.516-1.227a6.745 6.745 0 0 0-.301-.734c-.376-.804-.523-1.32-.605-2.118-.04-.404-.118-.883-.17-1.064-.148-.505-.153-2.87-.009-3.37.19-.65.659-.806 1.1-.364.183.183.955 1.374 1.27 1.96.17.317.443.764.607.994.164.23.482.768.707 1.196.484.923.65 1.212 1.088 1.902.181.285.389.687.461.891.072.205.21.473.306.595s.175.275.175.34.194.527.432 1.026.432.955.432 1.015c0 .112.34 1.286.571 1.966.073.214.154.798.181 1.297.041.762.02 1.014-.135 1.578-.102.369-.185.752-.185.85 0 .22-.276.585-.547.726-.392.204-1.025.223-1.368.042zm13.822-.566c-.024-.024-.272-.045-.551-.048l-.509-.004-.607-.62a5.437 5.437 0 0 1-1.017-1.414c-.379-.733-.482-1.057-.67-2.1-.039-.214-.15-.758-.248-1.21-.098-.452-.179-.95-.18-1.109 0-.158-.134-.555-.298-.88-.2-.402-.315-.77-.35-1.14-.056-.56-.44-1.797-.56-1.797-.037 0-.114-.112-.17-.249-.102-.246-.912-1.134-1.035-1.134-.131 0-.747-1.583-.87-2.238-.15-.799-.112-1.292.133-1.711.126-.214.2-.442.17-.526-.053-.155-.592-.538-.756-.538-.052 0-.292-.15-.534-.334a10.919 10.919 0 0 0-.7-.493c-.243-.148-.535-.4-1.69-1.463-1.018-.938-2.212-1.758-2.804-1.925-.424-.12-1.648-.059-2.26.114a3.387 3.387 0 0 1-.706.125c-.143 0-.276.048-.296.106-.02.061-.215.113-.46.122-.648.025-1.332.131-1.384.216-.062.1-.518.096-.707-.005-.083-.045-.39-.186-.682-.314-.523-.23-.722-.452-.722-.806 0-.328-.413-1.17-.617-1.258a1.05 1.05 0 0 1-.247-.136 4.995 4.995 0 0 0-.336-.273c-.482-.37-.695-1.22-.334-1.33.107-.032.26-.115.338-.185a.678.678 0 0 1 .26-.145c.063-.01.337-.104.608-.207.402-.153.54-.17.758-.094.209.073.327.063.557-.046.161-.077.37-.14.465-.14.095 0 .42-.073.722-.164.302-.091.76-.209 1.018-.262.258-.053.511-.13.562-.17.05-.04.401-.099.78-.13.69-.059 1.516-.274 1.516-.395 0-.076.663-.192 1.167-.204.525-.012 1.545.117 1.638.208.045.045.19.08.32.08.288 0 1.897.814 2.267 1.146.146.13.311.238.368.238.057 0 .22.097.36.216.142.119.293.216.336.216.043 0 .231.158.42.351.187.193.477.433.644.534.34.206.419.27.915.756.195.19.375.347.4.347.026 0 .237.189.468.42.536.534.763.672 1.23.747.207.034.55.137.76.23.39.173 1.898.354 2.06.248.048-.031.507-.064 1.02-.074 1.01-.018 1.659-.178 2.088-.515.134-.106.274-.192.31-.192.192 0 1.206-1.172 1.206-1.392 0-.059.065-.178.143-.265.079-.087.217-.362.307-.612.393-1.09.422-1.286.416-2.744-.008-1.811-.061-2.433-.258-3.025a9.125 9.125 0 0 1-.27-1.167c-.06-.38-.2-.9-.31-1.156-.11-.255-.2-.538-.2-.63a.827.827 0 0 0-.12-.356 4.097 4.097 0 0 1-.269-.667 6.026 6.026 0 0 0-.234-.637 4.57 4.57 0 0 1-.198-.518c-.242-.75-.63-1.644-1.3-2.993-.224-.452-.463-.938-.532-1.08a57.988 57.988 0 0 0-.378-.763c-.14-.276-.254-.57-.254-.652a.405.405 0 0 0-.073-.232c-.04-.045-.163-.315-.274-.6-.11-.286-.33-.804-.488-1.152-.159-.348-.288-.653-.288-.678a1.95 1.95 0 0 0-.122-.318c-.22-.491-.589-1.562-.659-1.915a9.48 9.48 0 0 0-.202-.778c-.465-1.502-.583-1.945-.704-2.659a18.61 18.61 0 0 0-.3-1.407c-.165-.613-.288-1.571-.436-3.41-.104-1.29-.107-5.639-.005-6.527a78.67 78.67 0 0 0 .189-2.055c.06-.751.14-1.385.18-1.41.113-.07.085-2.99-.032-3.326a1.191 1.191 0 0 0-.323-.467 5.206 5.206 0 0 1-.353-.302c-.393-.387-1.685-1.063-1.9-.995-.093.03-.297.192-.452.36-.428.462-.864.706-1.424.797-1.394.224-2.074-.147-2.738-1.495l-.4-.81v-.949c0-.715.03-.975.123-1.051.068-.056.15-.265.181-.465.033-.199.109-.441.17-.538.061-.097.179-.486.26-.865.082-.378.244-.828.36-1 .116-.172.251-.464.301-.648.05-.185.162-.414.25-.509.086-.095.185-.29.218-.432.033-.143.106-.298.162-.346.134-.114 1.302-2.52 1.382-2.848a1.16 1.16 0 0 1 .265-.458c.11-.11.267-.346.348-.522.08-.176.235-.495.344-.71a65.498 65.498 0 0 0 1.244-2.592 5.4 5.4 0 0 1 .309-.562c.332-.532.526-.912.694-1.361.085-.226.203-.41.263-.41s.132-.13.162-.29c.03-.159.224-.508.432-.775.208-.268.402-.585.432-.705.03-.12.093-.218.14-.218.047 0 .085-.046.085-.102 0-.141.692-1.546.866-1.757.078-.095.212-.367.298-.605.157-.438.539-.998 1.266-1.858a5.5 5.5 0 0 0 .594-.857c.105-.21.306-.502.445-.648.14-.147.337-.412.44-.59.101-.179.214-.325.25-.325.035 0 .152-.155.259-.346.107-.19.22-.345.253-.345.032 0 .171-.163.308-.363.137-.2.341-.462.454-.583.112-.122.352-.396.532-.61l.833-.985c.634-.75 1.832-1.954 1.945-1.954.046 0 .136-.05.198-.112.062-.063.32-.286.573-.497.254-.212.559-.491.678-.622.12-.13.264-.238.32-.238.057 0 .117-.029.133-.065.016-.035.32-.282.677-.549.356-.266.804-.625.994-.797.19-.172.385-.314.433-.315.048-.001.328-.197.622-.434.294-.238.557-.433.585-.433.028 0 .333-.192.678-.427.345-.235.737-.469.87-.52.25-.095 1.184-.682 1.265-.795.025-.035.472-.228.994-.428.522-.201 1.041-.436 1.155-.524.113-.087.266-.158.339-.158.146 0 1.538-.661 1.745-.83.071-.057.304-.15.518-.207.214-.057.428-.134.476-.171.047-.038.222-.097.389-.133a4.58 4.58 0 0 0 .734-.262c.897-.41 1.496-.644 1.645-.644.084 0 .39-.112.68-.248.29-.137.858-.355 1.262-.485s.91-.307 1.124-.393c.213-.087.583-.215.82-.284.915-.268 1.909-.594 2.058-.674.186-.1.827-.249 1.335-.31.202-.023.367-.078.367-.121s.115-.078.254-.078c.14 0 .276-.035.303-.078.027-.043.252-.106.5-.14.248-.035.53-.112.627-.172.096-.06.466-.135.823-.167a5.255 5.255 0 0 0 1.105-.225c.251-.093.626-.168.832-.168.206 0 .535-.057.731-.126.196-.07.357-.099.358-.065 0 .034.03.015.066-.041.059-.092 1.484-.418 2.137-.489a1.85 1.85 0 0 0 .388-.079c.118-.046.537-.132.994-.204.096-.015.38-.031.634-.036.253-.005.622-.07.82-.145.388-.146.819-.219 2.176-.368a23.014 23.014 0 0 0 1.556-.231c.38-.075.925-.15 1.21-.17a18.53 18.53 0 0 0 2.174-.298 16.645 16.645 0 0 1 1.96-.296 37.943 37.943 0 0 0 2.262-.225c.38-.05 1.41-.124 2.29-.166a48.77 48.77 0 0 0 1.945-.12c1.238-.155 1.405-.153 1.787.02.336.154 1.261.821 1.636 1.18.076.074.212.279.301.456.09.177.216.388.28.468.075.092.097.239.061.401-.057.258-.232.327-1.04.406-.415.04-.884.16-1.124.287a1.558 1.558 0 0 1-.432.156c-.414.045-1.04.213-1.21.325-.101.066-.415.16-.697.21a21.98 21.98 0 0 0-2.112.49 12.99 12.99 0 0 1-1.772.389c-.332.054-.78.136-.994.183a9.423 9.423 0 0 1-.777.127c-.434.048-2.147.271-2.55.331-.143.022-.66.087-1.15.145-.488.059-.907.136-.93.173-.022.036-.166.046-.32.022s-.513 0-.798.05c-.285.052-.983.132-1.551.177-.568.045-1.249.128-1.513.183-.477.1-1.579.264-2.9.433-.38.05-.827.124-.993.167a5.784 5.784 0 0 1-.778.116c-.536.044-2.458.438-2.723.56a5.026 5.026 0 0 1-.562.185c-.213.059-.622.177-.907.262a8.468 8.468 0 0 1-.778.199c-.233.038-1.095.317-1.426.46a.994.994 0 0 1-.187.065.268.268 0 0 0-.123.072c-.035.036-.243.065-.46.065-.222 0-.51.067-.656.153a4.688 4.688 0 0 1-.778.311c-.285.088-.655.211-.82.274a5.76 5.76 0 0 1-1.038.268 2.916 2.916 0 0 0-.567.208c-.194.093-.398.169-.455.169a.698.698 0 0 0-.254.078c-.083.043-.675.24-1.317.438-.642.199-1.225.397-1.296.441-.072.044-.227.12-.346.168-.619.252-1.062.458-1.289.599a.828.828 0 0 1-.446.104c-.143-.015-.267.027-.31.104-.04.071-.5.35-1.023.618-1.417.73-2.006 1.056-2.534 1.41-.494.33-.525.35-1.097.704a6.659 6.659 0 0 0-1.027.83c-.173.167-1.25.901-1.323.901-.04 0-.118.076-.176.168-.057.092-.348.366-.647.608-.6.487-.971.827-1.238 1.137a5.852 5.852 0 0 1-.478.466 4.538 4.538 0 0 0-.554.605c-.14.19-.49.616-.778.949-.288.333-.629.747-.758.922a6.46 6.46 0 0 1-.344.432c-.308.324-.835 1.01-.953 1.239a1.767 1.767 0 0 1-.314.424c-.1.09-.182.215-.182.276 0 .119-.476.862-.601.94-.084.051-.02.38.104.54.107.137 1.126.055 1.506-.121.15-.07.336-.137.412-.148a.502.502 0 0 0 .24-.123c.056-.057.245-.103.42-.103s.45-.054.61-.12a2.93 2.93 0 0 1 .656-.161c.2-.023.462-.105.58-.183.119-.077.274-.14.346-.14.119 0 .567-.172.933-.357a.985.985 0 0 1 .37-.076c.122 0 .36-.058.53-.13a1.76 1.76 0 0 1 .543-.13c.127 0 .27-.038.316-.085.047-.046.434-.144.86-.216.426-.073.911-.204 1.077-.293.167-.089.517-.182.778-.208.262-.026.592-.108.735-.183a1.6 1.6 0 0 1 .622-.137c.2 0 .453-.035.562-.076.434-.165.867-.286 1.131-.316.359-.04.566-.09.873-.209.137-.053.267-.08.288-.058.02.02.16 0 .312-.047a12.622 12.622 0 0 1 1.76-.42c.634-.1 1.51-.285 2.28-.481a4.17 4.17 0 0 1 .82-.123c.187 0 .496-.046.686-.102.19-.056.374-.095.408-.087.034.008.17-.027.302-.078.133-.05.596-.145 1.03-.21.433-.066.982-.194 1.219-.283.244-.093.549-.146.705-.124.151.023.44 0 .64-.052.346-.088.547-.13 1.746-.368a10.2 10.2 0 0 1 .908-.137c.214-.018.72-.095 1.123-.17a20.55 20.55 0 0 1 1.47-.21c1.364-.133 1.671-.176 1.817-.254.08-.043.413-.104.741-.136.328-.032.635-.089.683-.126.047-.037.541-.088 1.098-.113.557-.026 1.084-.084 1.17-.13.087-.047.721-.105 1.408-.129.688-.023 1.386-.064 1.552-.09.167-.026.76-.066 1.32-.09.722-.029 1.071-.08 1.207-.174.311-.218.692-.17.974.125.136.143.3.26.362.26s.113.033.113.075c0 .042.123.127.273.19.15.061.46.241.69.399.229.157.482.286.563.286.218 0 1.226.677 1.672 1.123.58.58.95 1.42.95 2.154 0 .454-.027.533-.275.775-.152.148-.356.27-.454.269-.398-.001-1.213-.177-1.549-.334-.56-.262-1.095-.345-2.907-.45-2.158-.126-2.705-.131-4.754-.043-2.81.122-3.387.168-3.846.309-.142.043-.512.086-.82.095a4.685 4.685 0 0 0-.995.146c-.404.121-.683.164-2.117.324-.31.034-.605.096-.657.138-.053.041-.189.072-.303.068-.22-.007-.839.134-.913.209-.135.135.102.593.431.833.376.273 1.181 1.261 1.182 1.45 0 .059.035.107.077.107.041 0 .166.243.277.54.16.425.203.718.205 1.37.001.494-.036.878-.095.95a1.214 1.214 0 0 0-.158.404c-.061.287-.22.508-.714.998-.406.4-.523.492-.634.492-.082 0-.927.408-1.464.706-.071.04-.211.108-.311.152-.1.043-.265.219-.366.39-.101.172-.243.335-.315.362-.072.028-.133.095-.135.15-.002.054-.163.215-.356.358-.194.142-.46.366-.593.496-.132.131-.265.238-.296.238-.03 0-.138.078-.24.173-.103.095-.249.173-.325.173a.368.368 0 0 0-.222.078c-.045.043-.353.161-.685.263a5.63 5.63 0 0 0-.975.402c-.265.156-.55.232-.996.268-.343.028-.732.105-.864.171-.132.067-.277.099-.321.071-.045-.028-.2.011-.345.086-.33.17-2.704.23-3.034.076-.498-.233-.714-.294-.867-.245-.098.031-.418-.071-.804-.257-.353-.17-.673-.31-.713-.313-.086-.006-.685-.753-.957-1.193-.107-.173-.277-.587-.378-.92-.244-.803-.202-2.453.077-3.068.097-.214.242-.564.323-.778.08-.214.203-.486.27-.605.292-.507.54-1.138.494-1.255-.038-.1-.15-.115-.536-.071-.268.03-.565.108-.658.172-.094.065-.377.117-.63.117-.294 0-.642.077-.972.216-.282.12-.61.216-.727.216-.117 0-.24.043-.271.094-.032.052-.126.077-.21.055a.462.462 0 0 0-.296.042c-.08.045-.329.1-.552.123-.42.043-1.085.303-1.184.463-.03.05-.092.068-.136.04-.044-.026-.315.011-.6.084-.287.074-.778.175-1.092.225-.314.05-.683.15-.82.22-.242.125-1.037.268-1.95.351-.307.028-.532-.002-.71-.093a1.23 1.23 0 0 0-.45-.134c-.105 0-.37-.103-.588-.228-.902-.518-1.225-1.03-1.286-2.038-.036-.613-.052-.66-.197-.583-.087.047-.301.358-.477.692-.175.333-.43.686-.566.783-.136.096-.247.21-.247.252 0 .042-.117.25-.26.46-.143.213-.284.516-.313.675-.03.16-.1.328-.156.376-.057.047-.195.251-.308.453-.113.202-.236.368-.275.368-.04 0-.07.05-.07.111s-.079.264-.174.45c-.095.187-.174.38-.175.43-.001.049-.177.438-.39.865-.212.426-.385.82-.385.873 0 .055-.094.236-.207.404a2.03 2.03 0 0 0-.265.568c-.032.144-.114.309-.182.365a.399.399 0 0 0-.124.27c0 .093-.156.49-.346.882-.19.393-.346.76-.346.814 0 .112-.596 1.912-.844 2.548-.088.227-.246.472-.35.545a.46.46 0 0 0-.189.365c0 .128-.078.35-.172.492-.095.143-.172.338-.173.435 0 .096-.068.271-.151.389-.174.246-.365.749-.366.969-.001.083-.082.2-.18.26-.203.122-.89 1.43-.989 1.88a1.767 1.767 0 0 1-.155.44c-.134.216.151.758.47.892.25.105 1.66 1.284 2.19 1.832.313.323.853 1.029.9 1.18.02.058.107.2.195.313.088.113.16.258.16.321 0 .064.097.328.216.588.119.26.216.529.216.597 0 .069.055.256.121.416.2.483.335 2.098.276 3.32-.083 1.736-.146 2.412-.232 2.465-.044.027-.119.785-.167 1.686-.048.9-.122 1.928-.165 2.285-.145 1.223.025 3.934.38 6.05.151.91.409 1.825.694 2.469.12.27.217.543.217.606 0 .234.88 2.514 1.259 3.262.068.135.124.285.124.333 0 .048.196.56.435 1.138.24.578.554 1.342.699 1.699.144.356.297.713.34.793.041.08.155.38.252.668.096.287.272.734.39.993.119.258.337.833.486 1.276.148.444.343.951.432 1.128.09.176.164.4.164.498 0 .097.076.342.17.543.268.58.69 1.83 1.014 3.003.164.594.357 1.275.43 1.512.073.238.147.569.165.735.018.166.134.77.258 1.34.124.57.26 1.231.303 1.469.11.614.112 4.402.002 4.608-.083.154-.223.71-.45 1.781-.05.234-.162.584-.25.778a47.53 47.53 0 0 0-.33.756c-.203.475-.829 1.424-1.102 1.67-.654.592-1.112.961-1.276 1.03a4.142 4.142 0 0 0-.507.289c-.175.116-.363.183-.417.15-.054-.034-.154.018-.223.117-.084.119-.3.212-.648.281-.287.057-.584.164-.66.24-.107.107-.388.144-1.307.17-1.22.036-1.96-.05-2.944-.34-.305-.091-.616-.165-.691-.165-.075 0-.341-.078-.59-.172-.44-.167-.454-.168-.454-.012 0 .09.243.489.54.888.297.4.616.842.71.983.203.31.644 1.18.648 1.28.001.038.11.252.24.475.237.4.343.65.596 1.398.072.214.163.467.201.562.038.095.117.348.175.562.057.213.135.449.172.522.038.074.118.366.179.649.06.282.162.575.226.65.063.075.116.25.116.39.001.138.098.555.217.925.118.37.215.798.215.95 0 .153.054.38.12.506.065.126.147.618.18 1.094.055.757.04.94-.125 1.457-.103.326-.277.694-.385.82-.215.248-.52.44-.589.37zm21.58-86.684c.092-.07.306-.129.475-.131.434-.005.93-.2 1.121-.44.09-.113.25-.302.355-.42.306-.343.506-.85.436-1.111-.07-.26-.366-.442-.727-.444-.276 0-.718-.223-.92-.461-.12-.142-.177-.147-.564-.053a3.206 3.206 0 0 0-.668.241c-.233.133-.238.156-.257 1.004-.035 1.625.03 1.95.39 1.944a.715.715 0 0 0 .359-.13zm-80.002 19.618c-.017-.016-.32-.037-.676-.046-1.047-.026-2.193-.292-2.535-.59-.211-.182-2.341-.205-2.853-.03a2.421 2.421 0 0 1-.648.114c-.505 0-1.01.046-1.098.1-.083.051-2.07.186-2.847.192-.237.002-.483.037-.545.077-.062.04-.665.068-1.34.062-1.38-.012-1.712-.034-1.858-.125-.056-.034-.337-.1-.626-.147-.289-.046-.6-.122-.692-.168a176.31 176.31 0 0 1-.34-.17.923.923 0 0 0-.347-.086c-.096 0-.322-.093-.502-.207-.18-.114-.578-.324-.885-.468a3.52 3.52 0 0 1-.915-.64c-.355-.375-.446-.6-.803-1.97-.173-.662-.02-2.33.292-3.198a3.47 3.47 0 0 0 .169-.691c.035-.377 1.02-2.377 1.333-2.708.27-.287.502-.424.762-.452.103-.012.265-.045.36-.075.229-.073.478.177.415.417-.026.1-.094.455-.15.789-.144.857-.002 1.143.748 1.505.302.145.612.265.69.265a.82.82 0 0 1 .314.093c.35.187 1.917.522 2.754.589.071.006.265.03.432.053.166.024.458.062.648.084l1.124.136c.427.052 1.763.096 2.968.099 2.081.004 2.2-.004 2.365-.17.337-.337.048-.644-1.148-1.22a3.204 3.204 0 0 1-.702-.488c-.564-.548-1.19-1.965-1.192-2.703-.001-.385-.193-.735-.76-1.384-.648-.743-.842-1.018-1.092-1.55-.118-.25-.255-.454-.305-.454-.05 0-.091-.073-.091-.162a.4.4 0 0 0-.13-.27.371.371 0 0 1-.13-.241c0-.074-.1-.385-.222-.691-.26-.647-.205-.8.221-.624.147.061.315.175.372.254.252.346 1.61.726 2.626.736.427.004.573-.032.735-.179.11-.1.318-.22.46-.266.143-.046.273-.151.289-.234.042-.22-.065-.585-.156-.529a.092.092 0 0 1-.126-.03c-.059-.095-.782-.218-1.118-.19-.442.038-2.234-.336-2.68-.558-.14-.07-.307-.127-.37-.127-.064 0-.117-.035-.117-.078s-.174-.138-.387-.21c-.485-.166-1.298-.687-1.66-1.064a4.065 4.065 0 0 1-.518-.742c-.134-.25-.274-.478-.31-.505-.106-.078-.235-1.014-.236-1.704 0-.46.046-.722.173-.969.095-.186.172-.377.172-.423 0-.046.166-.258.368-.472.202-.213.433-.508.514-.654.241-.436.505-.503 1.087-.277.272.106.592.248.71.315.918.52 1.283.626 2.69.776.424.046.586.138.773.441.292.473.48.553 1.297.554l.945.003c.119.001.78 0 1.47-.005.688-.004 1.544.02 1.9.053.806.074 1.237.081 2.118.036.75-.037 3.303.063 5.143.204.261.02.864.06 1.34.087.948.057 1.36.091 2.462.204.404.04.949.073 1.21.07l.476-.005-.03-.465c-.021-.315.005-.487.08-.534.119-.072.561.114.612.258.016.046.155.231.309.412.153.181.533.679.844 1.107.311.428.671.912.801 1.076.258.326 1.025 1.525 1.11 1.733.028.071.108.256.176.41.08.182.115.498.099.901l-.025.622-.433.22c-.368.188-.547.22-1.21.22-.881.001-2.812-.102-3.986-.212-.79-.074-1.47-.035-1.547.089-.022.036.061.157.185.269.944.849 2.02 2.194 2.02 2.523 0 .06.058.186.128.278.076.101.128.366.13.664.002.485-.006.503-.36.759-.199.144-.462.287-.583.318-.46.115-.923.373-1.2.67-.16.168-.352.307-.43.307-.077 0-.301.157-.497.35-.334.327-.698.487-1.508.661a.949.949 0 0 0-.4.238 1.54 1.54 0 0 1-.476.3c-.16.06-.388.158-.507.22-.18.093-.36.147-.865.262-.457.103-.61.161-.696.264a.422.422 0 0 1-.287.125c-.1 0-.3.062-.443.136a2.382 2.382 0 0 1-.673.185c-.274.032-.442.102-.497.204-.108.201.02.282.334.213.32-.071 1.159-.15 1.744-.165.261-.007.566-.064.678-.127.112-.064.364-.13.562-.147l1.44-.118c.593-.048 1.223-.13 1.398-.18.175-.051.467-.087.648-.08.542.021 1.673-.09 1.845-.182.107-.057.307-.054.607.01.327.07.504.07.658 0 .115-.052.453-.095.751-.095.342 0 .603-.047.709-.127.092-.07.304-.129.47-.131a3.84 3.84 0 0 0 .778-.136c.261-.072.981-.19 1.599-.26.618-.072 1.136-.167 1.152-.213.073-.21.465.062.68.472.183.347.306.476 2.749 2.871.756.742.907.94 1.317 1.72.36.689.43 1.134.24 1.534-.125.265-.206.321-.575.4a4.24 4.24 0 0 1-.576.093c-.08.001-.316.098-.523.217-.243.138-.51.215-.753.215a2.84 2.84 0 0 0-.748.123c-.422.142-1.519.27-3.395.396-.713.048-1.447.123-1.631.166-.184.044-.383.06-.442.038-.058-.023-.55.023-1.091.1-.542.078-1.18.156-1.417.174a17.2 17.2 0 0 0-1.21.161 96.362 96.362 0 0 1-4.564.61c-.229.024-.462.072-.519.107-.119.075-1.018.205-1.399.203-.143 0-.376.036-.519.082-.244.079-2.59.19-2.653.127zm70.42-4.24a5.056 5.056 0 0 1-.993-.31c-.798-.387-1.91-1.722-1.91-2.294 0-.088-.078-.314-.174-.502a2.744 2.744 0 0 1-.228-.67l-.053-.328.25.102c.137.057.379.159.537.228.351.152 1.18.079 1.7-.15.46-.202.728-.291 1.58-.523.394-.106.736-.227.761-.267.025-.041.116-.074.202-.074.086 0 .346-.073.578-.163.232-.09.656-.232.94-.315.286-.083.597-.181.692-.218.739-.283.975-.354 1.289-.385.196-.02.527-.096.734-.17.207-.072.446-.132.53-.132.086 0 .17-.043.187-.095.017-.052.186-.126.374-.166.863-.18 2.19-.545 2.504-.688.19-.086.56-.206.821-.265.262-.06.553-.157.648-.216.096-.059.368-.134.605-.168.238-.033.48-.1.538-.147.058-.048.214-.098.346-.112.132-.014.434-.083.672-.155.238-.071.665-.194.948-.273.284-.078.579-.2.655-.268a.575.575 0 0 1 .334-.126c.23 0 1.53-.316 1.78-.432a3.94 3.94 0 0 1 .648-.171c.793-.152 1.958-.475 2.085-.58.065-.053.313-.126.55-.16.239-.035.577-.135.754-.224.176-.09.45-.162.61-.162.16 0 .46-.082.67-.183.301-.146.48-.174.881-.138.366.033.537.013.624-.075.067-.067.343-.179.614-.25.27-.07.545-.171.61-.225.164-.137.713-.266 1.084-.255.458.013.695-.31.598-.813-.03-.157.086-.48.173-.48.093 0 .52.285.81.543a1.1 1.1 0 0 0 .393.206c.12.028.295.12.39.203.198.174 1.65.949 1.778.949.354 0 2.01 1.553 2.302 2.16.246.51.372.904.372 1.165 0 .34-.16.823-.272.823-.045 0-.178.09-.296.199-.128.118-.432.244-.752.31-.296.061-.655.15-.798.197a4.21 4.21 0 0 1-.724.128c-.256.024-.56.08-.676.123-.115.044-.432.08-.703.08-.277 0-.699.076-.965.173-.26.095-.6.173-.754.173a3.5 3.5 0 0 0-.65.087c-1.449.34-1.899.432-2.123.432-.14 0-.304.059-.364.13-.077.094-.193.116-.4.078-.171-.033-.29-.02-.29.031 0 .094-.383.195-.864.23-.374.025-1.045.21-1.185.324-.057.047-.143.061-.192.031-.048-.03-.293.04-.544.156-.294.136-.7.231-1.145.269-.379.032-.73.092-.78.134-.091.075-.158.094-.908.252-.666.14-1.363.336-1.544.432a1.228 1.228 0 0 1-.475.093c-.167 0-.396.036-.51.08a3.67 3.67 0 0 1-.545.132c-.454.072-1.055.26-1.402.437-.158.08-.373.124-.481.097a.517.517 0 0 0-.364.063c-.092.062-.459.162-.815.223-.357.06-.707.132-.778.159a2.056 2.056 0 0 1-.385.078c-.14.015-.294.067-.341.114-.048.048-.173.087-.28.087-.107 0-.218.038-.247.086-.03.048-.17.086-.313.086s-.338.042-.433.093a1.41 1.41 0 0 1-.319.12c-.08.016-.32.076-.534.134-.214.058-.583.138-.821.178-.238.04-.627.115-.864.165a9.2 9.2 0 0 1-.981.135c-.302.023-.613.074-.691.113-.079.039-.297.079-.485.089-.188.01-.382.05-.432.089-.275.215-2.506.3-3.368.129z" style="fill:#000;stroke-width:.0864281"/>
</svg>
