<svg xmlns="http://www.w3.org/2000/svg" xml:space="preserve" width="210mm" height="297mm" viewBox="0 0 210 297">
  <path d="M196.84 286.457c.004-.107.026-.128.055-.055.026.066.023.144-.007.175-.03.03-.052-.024-.048-.12zm4.271.062c.07-.044.1-.122.069-.173-.035-.056.014-.074.125-.045.278.073.226.3-.068.299-.179-.001-.215-.025-.126-.081zm.56-.328c.062-.076.149-.137.193-.137.044 0 .08.061.08.137 0 .078-.082.136-.194.136-.162 0-.175-.022-.08-.136zm1.003-.229c0-.2.041-.365.092-.365.05 0 .09.165.09.365 0 .201-.04.365-.09.365-.05 0-.092-.164-.092-.365zm-1.917-.09a.092.092 0 1 1 .183 0 .09.09 0 0 1-.091.09.092.092 0 0 1-.092-.09zm-3.925-1.125c0-.085.055-.154.121-.154.067 0 .218-.103.336-.228.226-.24.365-.292.365-.134 0 .052-.072.12-.16.15-.088.031-.273.16-.41.288-.205.19-.252.204-.252.078zm2.191.029c0-.05.041-.092.091-.092.05 0 .092.042.092.092a.092.092 0 0 1-.183 0zm-177.3-2.202c-.116-.577-.064-.818.262-1.215.176-.215.32-.452.32-.528 0-.076.075-.236.167-.356.093-.12.322-.495.51-.834.188-.339.376-.616.417-.616.04 0 .117-.123.17-.274.052-.15.14-.274.196-.274.056 0 .207-.215.336-.479.471-.961.639-1.219 1.105-1.695.262-.267.476-.534.477-.593.001-.098.274-.455.71-.93.093-.1.24-.296.326-.436.087-.14.197-.23.245-.2.048.03.087-.034.087-.143 0-.12.071-.215.183-.244.1-.026.182-.08.182-.12 0-.041.154-.232.342-.425.189-.192.451-.493.584-.669.132-.175.348-.442.479-.592.13-.15.238-.321.238-.378 0-.058.062-.128.137-.157a.225.225 0 0 0 .137-.193c0-.076.061-.14.136-.14.074 0 .248-.174.387-.387a6.02 6.02 0 0 1 .298-.434c.025-.025.105-.158.176-.297.071-.138.179-.25.24-.25.06 0 .158-.117.217-.26.06-.145.246-.325.422-.41.173-.082.315-.205.315-.273 0-.068.102-.17.228-.228.125-.057.228-.158.228-.225s.329-.447.73-.846c.402-.399.73-.756.73-.794 0-.037.072-.143.16-.236.088-.092.22-.256.294-.365.074-.108.17-.197.212-.197.084 0 .513-.48.658-.736.05-.089.215-.3.365-.47.15-.171.336-.419.411-.55.29-.51 1.371-1.983 1.682-2.293.18-.18.326-.36.326-.4 0-.04.185-.275.411-.521.226-.246.41-.495.41-.553 0-.058.103-.201.229-.32.125-.117.228-.258.228-.312 0-.054.16-.248.355-.432.195-.183.43-.46.522-.616.092-.155.196-.282.232-.282.036 0 .09-.08.122-.178.031-.098.25-.376.485-.618.236-.241.48-.553.543-.691.062-.14.175-.277.25-.306.076-.029.138-.111.138-.183 0-.137.28-.558.594-.896.1-.108.244-.292.32-.408a3.53 3.53 0 0 1 .227-.316 3.32 3.32 0 0 0 .274-.46c.1-.197.285-.487.41-.645.126-.159.35-.48.498-.715.148-.234.302-.426.343-.426.04 0 .073-.056.073-.124 0-.069.102-.202.228-.296.125-.094.228-.205.228-.245 0-.124.833-1.526.906-1.526.038 0 .118-.161.177-.358.059-.198.22-.457.356-.576.245-.214.387-.417.637-.913.07-.137.165-.272.212-.301.046-.03.188-.266.315-.527.126-.26.308-.597.404-.748.096-.15.178-.343.181-.427a.501.501 0 0 1 .134-.28c.07-.07.214-.317.32-.55.105-.231.233-.446.283-.477.05-.031.091-.157.091-.28 0-.122.042-.222.092-.222.05 0 .091-.039.091-.086 0-.047.046-.2.102-.342.057-.141.114-.374.128-.518a1.2 1.2 0 0 1 .204-.504c.099-.133.209-.335.245-.448.036-.114.201-.339.367-.5.33-.322.504-.81.505-1.413 0-.214.042-.388.092-.388.05 0 .092-.072.093-.16 0-.088.055-.324.121-.525.068-.206.109-.643.093-1.004l-.034-.818c-.008-.195-.34-.78-.443-.78-.035 0-.118-.184-.185-.41-.067-.226-.157-.41-.2-.41-.045 0-.106-.104-.138-.229-.031-.126-.088-.228-.127-.228-.038 0-.093-.118-.122-.262-.03-.151-.126-.281-.224-.307-.112-.03-.214-.194-.292-.47-.065-.235-.15-.446-.19-.47-.039-.024-.161-.231-.272-.46-.206-.426-.208-.506-.04-1.774.035-.254.14-.5.278-.644.122-.128.222-.274.222-.325 0-.121-.398-.407-.939-.675-.28-.139-.455-.292-.489-.427-.037-.147-.12-.21-.271-.21-.12 0-.218-.042-.218-.092 0-.05-.054-.091-.119-.091s-.26-.143-.433-.317c-.174-.174-.357-.318-.407-.32-.098-.002-.918-.424-1.087-.557a14.577 14.577 0 0 1-.364-.31c-.145-.127-.3-.23-.345-.23-.044 0-.207-.144-.361-.32-.154-.176-.338-.32-.408-.32-.07 0-.127-.061-.127-.137 0-.075-.039-.136-.085-.136-.047 0-.238-.144-.424-.32-.186-.176-.374-.32-.417-.32-.043 0-.079-.06-.079-.133 0-.074-.092-.181-.205-.24-.404-.206-3.242-3.205-3.514-3.712a5.351 5.351 0 0 0-.53-.73 7.364 7.364 0 0 1-.668-.956c-.163-.288-.335-.547-.382-.576-.048-.029-.086-.134-.086-.234s-.1-.281-.221-.403a1.295 1.295 0 0 1-.285-.429 4.273 4.273 0 0 0-.223-.528 34.088 34.088 0 0 1-.332-.684 9.302 9.302 0 0 0-.377-.706c-.113-.187-.205-.399-.205-.47 0-.07-.062-.152-.137-.181-.081-.031-.137-.168-.137-.338 0-.157-.077-.394-.171-.528a1.761 1.761 0 0 1-.236-.539c-.035-.163-.091-.297-.125-.297-.103-.001-.29-.477-.29-.737 0-.134-.064-.297-.142-.363a.313.313 0 0 1-.093-.318c.031-.125-.017-.276-.128-.405-.2-.23-.22-.287-.367-1.027-.057-.288-.142-.547-.189-.576-.046-.029-.085-.176-.085-.327 0-.159-.038-.25-.09-.217-.051.031-.096.003-.1-.063l-.035-.564c-.014-.244-.069-.47-.12-.502-.052-.032-.121-.222-.154-.423a9.885 9.885 0 0 0-.114-.593c-.055-.228-.055-.228-.127.045-.048.187-.056.124-.023-.196.042-.412.027-.469-.115-.456-.138.011-.166-.071-.183-.534-.033-.874-.19-2.05-.292-2.172-.051-.061-.12-.522-.152-1.024-.067-1.032-.084-1.17-.227-1.87-.154-.747-.191-1.125-.225-2.282-.016-.578-.051-1.112-.078-1.187-.158-.459-.231-1.425-.134-1.787.08-.298.077-.593-.01-1.241-.202-1.504-.148-5.582.09-6.806.052-.263.066-.522.033-.575-.054-.088.036-.794.332-2.598.058-.352.124-.865.148-1.141.023-.276.074-.543.113-.594.038-.05.097-.304.13-.565.033-.26.12-.619.195-.796.074-.177.135-.497.135-.712a4.81 4.81 0 0 1 .142-.939c.078-.301.173-.691.211-.867.039-.176.115-.402.169-.502.054-.1.12-.388.148-.64.054-.481.363-1.788.46-1.947.033-.051.098-.271.145-.488.21-.959.443-1.89.578-2.31.08-.252.212-.724.293-1.05.08-.327.203-.8.27-1.05a8.49 8.49 0 0 0 .187-.959c.035-.276.096-.543.135-.593.039-.05.119-.338.178-.639.058-.301.208-.85.332-1.219.125-.371.265-1.081.313-1.587.048-.504.131-1.147.184-1.428.053-.282.154-.882.223-1.334.242-1.584.425-2.56.572-3.058.081-.276.143-.646.138-.821a2.915 2.915 0 0 1 .11-.73c.227-.785.415-1.967.414-2.615 0-.359.044-1.078.097-1.598l.13-1.264c.168-1.717.225-3.842.189-7.029-.023-2.033-.065-4.046-.093-4.473-.028-.426-.091-1.494-.14-2.373-.05-.879-.11-1.72-.131-1.871-.022-.15-.066-.582-.097-.959a13.502 13.502 0 0 0-.189-1.323 20.665 20.665 0 0 1-.223-1.415c-.225-1.891-.324-2.48-.597-3.56-.07-.276-.122-.584-.117-.685.006-.1-.053-.429-.132-.73-.078-.301-.17-.732-.205-.958a9.25 9.25 0 0 0-.24-1.004 39.362 39.362 0 0 1-.262-.913c-.348-1.314-.688-2.474-.814-2.784-.041-.1-.189-.532-.328-.959-.14-.426-.283-.817-.32-.867-.037-.05-.097-.235-.133-.41a2.44 2.44 0 0 0-.26-.64c-.107-.175-.184-.33-.172-.342.013-.013-.04-.172-.115-.354a2.704 2.704 0 0 1-.138-.377 3.13 3.13 0 0 0-.175-.423 7.752 7.752 0 0 1-.325-.892c-.083-.285-.203-.538-.267-.562-.063-.025-.19-.285-.282-.578a7.88 7.88 0 0 0-.486-1.127l-.391-.73c-.068-.128-.188-.389-.896-1.942-.155-.34-.282-.643-.282-.673 0-.15-.518-1.205-.702-1.431-.116-.142-.21-.376-.21-.52 0-.144-.039-.285-.086-.314-.108-.067-.553-1.033-.553-1.201 0-.07-.033-.126-.072-.126-.04 0-.124-.179-.189-.397a4.462 4.462 0 0 0-.256-.662 7.978 7.978 0 0 1-.321-.767c-.1-.276-.261-.676-.357-.889-.096-.213-.175-.428-.175-.479 0-.05-.12-.349-.267-.663-.157-.336-.266-.72-.264-.932 0-.2-.043-.378-.099-.396-.055-.018-.101-.122-.103-.231a1.087 1.087 0 0 0-.134-.426 1.047 1.047 0 0 1-.134-.397 1.59 1.59 0 0 0-.128-.457c-.164-.377-.45-1.423-.465-1.702-.011-.203-.317-1.87-.473-2.58-.075-.34-.124-.71-.11-.822a.563.563 0 0 0-.04-.31c-.036-.058-.071-.284-.078-.502-.007-.217-.058-.453-.114-.524-.083-.106-.147-1.172-.137-2.29.06-6.463.186-9.097.457-9.604.06-.113.055-.164-.017-.164-.073 0-.083-.104-.033-.342.04-.188.064-.48.055-.646-.009-.168.046-.543.121-.835.076-.292.138-.758.138-1.037 0-.278.034-.528.077-.554.042-.026.104-.519.137-1.095.033-.576.107-1.163.165-1.304.119-.29.168-.566.474-2.672.124-.847.264-1.517.322-1.536.065-.022.103-.316.103-.809 0-.426.047-.863.105-.97.058-.109.164-.61.236-1.113.21-1.48.257-1.727.359-1.92.104-.198.224-1.747.245-3.175.01-.663.047-.914.143-.974.095-.059.14-.353.17-1.114.023-.57.08-1.083.127-1.142.047-.058.08-.407.075-.776-.012-.712.135-2.556.246-3.088.036-.175.071-.73.078-1.232a46.77 46.77 0 0 1 .114-2.3c.059-.792.08-2.143.05-3.149-.06-1.948-.06-1.973-.039-2.492.008-.201-.004-.756-.026-1.233-.055-1.137.13-4.592.249-4.67.06-.041.053-.11-.021-.2-.09-.107-.091-.299-.008-.896.058-.418.102-1.003.098-1.3-.005-.44.027-.565.175-.668.13-.092.165-.188.125-.35-.03-.122-.019-.222.027-.222.045 0 .065-.149.044-.33-.021-.182-.002-.356.043-.388.14-.1.306-.903.248-1.195-.037-.184-.02-.278.052-.278.071 0 .103-.163.093-.48a6.188 6.188 0 0 1 .08-1.026c.052-.301.12-.958.15-1.46.03-.503.094-1.324.143-1.826.049-.502.107-1.55.13-2.328.07-2.373.22-3.753.516-4.746l.272-.913c.2-.674.615-1.552.734-1.552.043 0 .079-.062.079-.137 0-.075.043-.137.095-.137.052 0 .083-.054.068-.12-.03-.14.742-.971.904-.974.06 0 .163-.073.228-.16.066-.089.224-.214.351-.28a.793.793 0 0 0 .32-.32c.048-.11.231-.268.407-.351.176-.084.482-.32.68-.525.199-.205.445-.374.548-.375.103 0 .392-.114.643-.252s.63-.308.84-.377c.211-.07.375-.17.365-.224-.01-.054.146-.142.347-.196.685-.185 1.05-.388 1.05-.588 0-.103.035-.187.077-.187.043 0 .172-.082.288-.182.116-.1.285-.183.376-.183.09 0 .21-.082.263-.183.054-.1.17-.182.257-.182s.286-.113.441-.251c.69-.612.877-.75.955-.702.045.029.107-.013.137-.091.03-.079.098-.143.15-.143.052 0 .263-.136.47-.302.205-.166.6-.417.876-.558.276-.141.625-.386.776-.544.284-.299.67-.51.94-.515.085-.001.275-.125.421-.274.147-.15.324-.271.394-.271s.278-.12.464-.266c.185-.146.563-.358.839-.471.276-.114.563-.253.639-.31.075-.056.329-.194.564-.307.234-.112.44-.244.456-.293.017-.05.122-.107.235-.129.113-.022.257-.071.32-.11a.567.567 0 0 1 .312-.046c.235.03.845-.335 1.1-.66.112-.141.35-.27.628-.34a3.19 3.19 0 0 0 .785-.323c.186-.116.398-.189.47-.16.072.027.159.006.192-.048.033-.053.16-.097.283-.097.137 0 .223-.053.223-.137 0-.09.09-.137.258-.137.143 0 .29-.03.327-.069a.286.286 0 0 1 .13-.076 1.21 1.21 0 0 0 .198-.06c.075-.028.393-.102.707-.164.314-.062.57-.143.57-.181 0-.038.155-.098.343-.133.188-.035.383-.095.433-.133.05-.038.288-.122.528-.187.24-.064.457-.153.484-.196.027-.044.167-.08.312-.08s.288-.04.32-.09c.03-.05.32-.092.644-.092.323 0 .588-.037.588-.082 0-.045.215-.125.479-.178.263-.052.664-.138.89-.19.226-.052.655-.11.954-.129.299-.018.559-.08.578-.138.02-.06.238-.104.526-.104.27 0 .668-.06.884-.134.371-.126.815-.188 1.987-.278.276-.022.81-.103 1.187-.181a13.215 13.215 0 0 1 1.643-.19c.527-.027 1.04-.084 1.14-.128.196-.085 3.787-.643 4.131-.642.113 0 .206.044.206.096 0 .06.074.053.205-.018.233-.126.898-.144 8.694-.229 6.558-.071 6.266-.072 7.531.003a86.6 86.6 0 0 0 2.981.088c1.437.02 1.97.057 2.078.147.118.098.22.1.55.007a2.05 2.05 0 0 1 .753-.055c.95.16 1.306.193 1.306.12 0-.043.072-.056.162-.027.089.028.756.076 1.483.107.727.03 1.444.068 1.595.082.15.015.808.054 1.46.089.653.034 1.495.117 1.872.185.376.067.91.147 1.186.177.957.105 2.33.344 2.738.477.252.083.71.128 1.187.119.918-.018 2.018.139 2.465.352.202.096.48.14.753.121.239-.017.434.005.434.049 0 .044.195.133.433.199.239.066.589.177.778.248.19.071.488.129.663.129.175 0 .39.039.477.087.19.104.998.373 1.939.646.376.11.726.23.776.27.05.04.276.102.502.138.226.037.521.124.657.193.136.07.353.126.482.126.285 0 1.565.605 1.398.66-.065.022.195.066.578.099.468.04.844.134 1.154.289.252.127.534.232.628.233a.72.72 0 0 1 .346.137c.098.074.27.134.383.134.113 0 .23.041.261.091.031.05.144.092.25.092.244 0 .715.148 1.302.41.251.112.662.278.913.369.25.09.521.22.6.286.08.067.208.121.286.121a.37.37 0 0 1 .248.13c.06.07.317.157.573.192.508.07 1.24.375 1.483.619a.65.65 0 0 0 .4.156c.252 0 1.143.378 1.384.586.076.065.26.146.411.18.32.072 1.036.414 1.214.58.068.062.2.113.293.113.093 0 .224.051.292.114.067.063.44.279.827.48.388.2.705.395.705.433 0 .038.101.069.224.069s.25.042.281.094c.033.052.456.283.941.513.486.23 1.006.51 1.157.622.15.113.376.237.502.276.125.039.309.127.408.196a.707.707 0 0 0 .32.124c.078 0 .346.142.596.316.463.32 1.026.612 2.213 1.147.364.164.662.334.662.376 0 .043.046.078.102.078.056 0 .354.154.662.342.307.189.703.41.879.49a4.1 4.1 0 0 1 .674.434c.195.157.41.286.48.286.068 0 .124.041.124.091 0 .05.05.093.114.095.062.002.256.125.43.274.174.149.364.27.422.27.059 0 .155.058.213.129.059.07.239.195.4.278.16.082.4.219.533.305.133.085.476.3.763.475.287.176.615.38.73.456.115.076.47.298.789.494.32.196.663.424.763.506.1.083.408.267.685.41.698.36 1.46.865 1.46.968 0 .048.076.087.168.087.093 0 .243.082.334.182.091.1.22.183.288.183.068 0 .123.036.123.08 0 .045.133.15.296.235.443.23.916.523 1.264.787a3.6 3.6 0 0 0 .448.298c.075.034.242.134.37.221.129.087.432.282.674.433.243.15.517.353.611.45.094.098.352.283.573.411.221.129.738.48 1.15.782.41.301.814.589.896.639 1.23.753 2.103 1.37 2.377 1.68.082.094.56.448 1.062.786s1.098.794 1.324 1.014c.226.22.46.4.52.4s.142.055.183.122c.07.119.983.79 1.074.79.025 0 .19.142.369.315.178.173.568.462.866.643.513.312 1.114.815 1.964 1.643.206.201.52.441.7.534.348.179.489.296 1.753 1.459.446.41.884.787.972.837.088.05.483.394.877.765.394.37.82.738.945.818.126.08.974.886 1.885 1.791.911.906 1.918 1.893 2.236 2.195.32.302.642.618.717.703.075.086.406.414.735.73.629.603 1.427 1.584 1.666 2.046.078.15.244.32.37.377.127.058.43.389.673.735.44.627 1.082 1.419 1.449 1.788.105.106.29.408.41.672.12.263.248.479.284.479.146 0 .468.447.764 1.06.172.356.312.686.312.733 0 .047.165.267.366.489.2.222.365.444.365.494 0 .05.164.326.365.612.2.286.365.551.365.59 0 .037.119.256.264.487.145.23.295.521.332.647.037.125.094.248.127.273.165.128.646 1 .646 1.172 0 .109.038.198.085.198.047 0 .11.079.141.175.03.097.15.315.266.486.116.17.237.417.27.548a.943.943 0 0 0 .177.359c.16.164.899 1.593 1.428 2.758.111.246.258.502.326.57.13.131.502 1.055.502 1.25 0 .064.036.154.08.202.044.048.13.243.191.434.061.19.184.416.272.502.089.085.256.545.371 1.022.116.477.263.95.327 1.05.065.1.203.511.309.913.105.401.23.801.279.888a.84.84 0 0 1 .088.339c0 .099.097.323.216.498.255.376.47 1.018.555 1.652.033.251.125.596.203.766.078.17.181.581.23.913.09.626.162 1.03.393 2.22.076.386.137.863.137 1.058 0 .195.066.487.146.648.156.312.407 3.165.538 6.104.02.465.065.89.1.945.092.15.057 5.13-.053 7.565-.115 2.525-.342 5.264-.458 5.522-.045.1-.1.552-.123 1.004-.055 1.129-.232 2.854-.332 3.24-.045.176-.127.751-.182 1.279a28.537 28.537 0 0 1-.23 1.688 17.901 17.901 0 0 0-.187 1.437c-.03.39-.094.73-.14.759-.045.028-.083.19-.083.358 0 .169-.058.546-.13.84-.071.292-.196 1.168-.277 1.946-.08.778-.21 1.846-.289 2.373a21.58 21.58 0 0 0-.17 1.474c-.017.283-.07.592-.117.685-.097.19-.19.787-.26 1.675-.025.327-.082.799-.126 1.05-.045.251-.107.764-.138 1.14-.093 1.134-.243 2.232-.319 2.329-.039.05-.09.502-.112 1.004-.025.55-.104 1.075-.2 1.323-.148.387-.285 1.304-.51 3.423a43.22 43.22 0 0 1-.243 1.826 48.49 48.49 0 0 0-.21 1.46 5.404 5.404 0 0 1-.212.959c-.264.743-.612 2.87-.612 3.739 0 .36-.05.744-.11.854-.061.11-.143.487-.181.838-.113 1.027-.39 2.476-.576 3.012-.07.201-.154.694-.186 1.096-.033.401-.12.956-.193 1.232-.074.276-.278 1.323-.453 2.328-.438 2.502-.46 2.616-.617 3.166a43.579 43.579 0 0 0-.515 1.984c-.063.272-.194.63-.29.793-.28.472-.533 1.61-.7 3.139-.085.778-.21 1.513-.276 1.632-.076.137-.1.348-.066.567.057.356-.118 1.491-.359 2.327-.073.256-.133.566-.133.69 0 .123-.036.263-.08.31-.389.42-.95 5.6-.934 8.622.014 2.624.092 4.545.222 5.477.081.578.165 1.255.186 1.506.055.645.398 2.596.618 3.515.102.426.225 1.042.273 1.369.049.326.15.757.224.958.074.201.171.57.215.822.044.25.142.682.219.958.077.276.23.913.342 1.415.111.502.294 1.118.405 1.37.112.25.296.826.408 1.277.113.452.303 1.015.423 1.252.12.237.217.555.217.706 0 .151.16.676.357 1.167.197.49.385 1.097.418 1.348.034.25.12.547.19.658.072.112.13.26.13.33s.081.23.18.356c.098.126.222.42.275.655.052.234.132.496.178.582.045.087.213.527.374.979.16.452.385.986.498 1.187.112.2.231.573.264.828.032.255.123.686.202.958.078.273.152.7.164.952.012.25.13.99.26 1.643.196.979.409 3.26.362 3.88-.136 1.786-.728 4.996-1.074 5.824-.072.172-.13.475-.13.673 0 .198-.051.45-.113.56-.061.11-.159.405-.217.656-.223.97-.407 1.52-.622 1.86a4 4 0 0 0-.37.89c-.081.295-.187.607-.235.694a.697.697 0 0 0-.087.251c0 .05-.144.292-.32.537-.175.245-.32.522-.32.616-.002.095-.083.275-.181.4-.099.126-.18.262-.18.303-.002.04-.107.21-.233.376-.127.167-.314.55-.417.853-.11.328-.314.683-.501.876-.174.179-.34.46-.371.625-.069.374-.258.68-.594.963-.143.12-.26.27-.26.334 0 .063-.082.189-.183.28-.1.09-.182.217-.182.28 0 .064-.034.13-.076.146-.041.017-.303.38-.581.806-.279.427-.614.891-.746 1.032-.132.14-.24.273-.24.295 0 .095-.906 1.22-1.31 1.625-.242.244-.479.553-.526.687-.046.134-.266.387-.487.562-.222.174-.427.41-.457.523-.03.113-.108.205-.174.205-.066 0-.166.1-.221.22-.055.122-.182.247-.282.278-.1.032-.263.197-.364.367-.1.17-.298.382-.44.473-.142.09-.278.186-.303.212a1.369 1.369 0 0 1-.223.145c-.098.054-.216.213-.263.354-.047.14-.234.412-.416.602l-.853.891c-.287.3-.572.654-.632.786-.06.133-.246.325-.413.429-.167.103-.304.24-.304.303s-.082.19-.183.28c-.1.091-.182.218-.182.282 0 .064-.081.142-.18.174-.1.031-.27.183-.38.338-.11.154-.357.45-.55.656-.191.207-.35.417-.35.467-.001.05-.185.253-.408.45-.223.197-.384.392-.359.433.026.042-.003.076-.062.076-.114 0-.54.418-.54.53 0 .036-.246.323-.545.637-.3.315-.61.684-.692.82-.082.137-.33.387-.552.557-.586.446-1.096.94-1.217 1.175-.058.113-.146.206-.197.206-.108 0-.577.324-.902.624a1.756 1.756 0 0 1-.483.306c-.138.05-.25.13-.25.175 0 .083-.764.624-1.3.92a2.269 2.269 0 0 0-.375.252c-.053.053-.192.096-.31.096-.116 0-.234.058-.262.13-.063.164-.717.6-.9.6-.077 0-.14.037-.14.083 0 .113-.77.556-.967.556a.553.553 0 0 0-.304.123c-.079.068-.37.195-.646.282-.276.088-.563.212-.639.276-.219.187-1.918.352-2.07.2-.028-.028-.171.01-.317.085-.146.075-.298.117-.337.092-.04-.024-.521-.091-1.07-.149-.549-.057-1.121-.118-1.272-.135a8.154 8.154 0 0 1-.821-.17c-.301-.077-.93-.236-1.398-.353-.467-.117-.878-.252-.913-.3a.975.975 0 0 0-.245-.193c-.1-.059-.171-.154-.158-.213.015-.063-.04-.087-.136-.057-.236.071-.774-.466-1.004-1.002-.2-.464-.19-.95.016-.95.062 0 .184-.08.272-.177.088-.097.228-.179.31-.182l1.293-.051c1.645-.066 1.643-.066 1.643-.151 0-.043.2-.078.446-.078.284 0 .486-.05.558-.137a.408.408 0 0 1 .271-.137c.232 0 .75-.274.98-.518.147-.155.302-.213.573-.213.307 0 .389-.039.475-.228.057-.125.128-.231.158-.235.281-.036.42-.09.447-.17.018-.053.09-.097.158-.097.07 0 .2-.074.29-.164.09-.09.586-.444 1.104-.786.518-.343.99-.7 1.05-.795.058-.094.16-.172.226-.172.225 0 .645-.272.703-.455.032-.101.11-.184.172-.184.063 0 .202-.082.31-.182.107-.1.238-.183.29-.183.052 0 .146-.084.21-.188.062-.103.256-.276.43-.384.317-.197.642-.485.642-.567 0-.04.611-.648 1.126-1.12.123-.113.265-.205.314-.205.05 0 .163-.11.25-.243s.267-.35.399-.48a2.4 2.4 0 0 0 .37-.49c.072-.14.222-.276.334-.304.199-.05 1.257-1.009 1.326-1.202.019-.053.353-.427.742-.83.39-.405.708-.78.708-.833 0-.053.08-.127.178-.163.201-.074.886-.645 1.315-1.096.766-.805 1.483-1.479 1.574-1.479.102 0 .965-.946 1.03-1.131.054-.148.54-.604.646-.604.05 0 .15-.113.223-.25.074-.139.393-.524.71-.856.728-.763 1.214-1.332 1.218-1.424.01-.195.246-.467.451-.519.127-.031.23-.098.23-.148 0-.158.405-.725.552-.773.077-.025.276-.27.442-.544.166-.274.363-.549.438-.61.074-.062.24-.32.368-.575.128-.254.34-.594.472-.755.525-.644.637-.826.735-1.19.056-.21.139-.403.183-.43.157-.097.827-1.413.827-1.624 0-.118.045-.26.1-.315.138-.138.813-1.83.813-2.039 0-.093.035-.19.078-.217.043-.026.102-.244.13-.484.029-.24.142-.642.251-.893.11-.251.236-.744.28-1.095.044-.352.121-.886.172-1.187.384-2.303.339-4.51-.13-6.31a29.619 29.619 0 0 0-.544-1.849c-.13-.37-.237-.77-.237-.888 0-.272-.268-.948-.375-.948-.045 0-.082-.093-.082-.206a1.25 1.25 0 0 0-.137-.466 1.217 1.217 0 0 1-.136-.443c0-.1-.1-.373-.223-.606a5.16 5.16 0 0 1-.36-1.036 6.793 6.793 0 0 0-.359-1.096c-.121-.265-.374-.976-.562-1.578a49.611 49.611 0 0 0-.458-1.415c-.064-.176-.228-.69-.365-1.141a23.588 23.588 0 0 0-.321-1.004c-.04-.1-.134-.409-.208-.685a63.56 63.56 0 0 0-.384-1.323 15.544 15.544 0 0 1-.363-1.507 13.414 13.414 0 0 0-.592-2.269c-.204-.575-.415-1.546-.557-2.556a29.38 29.38 0 0 0-.277-1.552c-.175-.84-.26-1.34-.45-2.66-.164-1.14-.301-4.887-.237-6.49.133-3.334.341-5.504.707-7.384.044-.226.12-.657.169-.958.048-.302.152-.877.23-1.278.079-.402.184-.998.235-1.324.05-.326.134-.694.186-.817.052-.124.112-.37.134-.548.022-.178.119-.57.214-.871.096-.301.241-.938.322-1.415.168-.984.377-1.952.552-2.556.065-.226.167-.719.227-1.095.059-.377.142-.752.185-.833.043-.082.104-.308.135-.502.032-.195.16-.785.283-1.312.362-1.54.47-2.02.587-2.602.06-.301.212-.958.336-1.46.125-.502.246-1.036.27-1.187.022-.15.105-.644.182-1.095.077-.452.17-1.089.209-1.415.038-.327.114-.778.17-1.004.055-.226.146-.699.202-1.05.056-.352.16-.885.23-1.187.069-.3.19-1.184.269-1.962.078-.778.241-1.99.363-2.693.229-1.319.318-2.064.549-4.564.074-.803.156-1.686.184-1.963.243-2.454.301-3.202.362-4.64.022-.52.08-1.074.128-1.233.049-.158.115-.76.147-1.338a28.47 28.47 0 0 1 .143-1.688c.047-.352.106-.886.133-1.187a12.3 12.3 0 0 1 .134-1.004c.048-.251.154-1.032.235-1.734.148-1.269.212-1.735.4-2.876.138-.845.368-2.553.472-3.514.05-.452.13-.965.177-1.141.048-.176.088-.512.088-.748 0-.235.042-.453.092-.484.05-.031.091-.225.091-.43 0-.207.079-.83.174-1.387.296-1.717.375-2.322.433-3.328.031-.534.099-1.024.15-1.089.05-.064.122-.789.158-1.61.036-.82.095-1.54.13-1.597.098-.158.236-2.654.314-5.666.06-2.333.06-3.578.002-6.481-.018-.886-.157-2.708-.32-4.2-.144-1.315-.169-1.456-.442-2.515-.079-.305-.143-.657-.143-.783s-.103-.531-.228-.9c-.126-.369-.228-.8-.228-.96 0-.158-.028-.316-.063-.35-.07-.07-.216-.452-.528-1.383-.51-1.524-.99-2.835-1.102-3.008a5.124 5.124 0 0 1-.312-.689 23.246 23.246 0 0 0-.27-.684c-.044-.1-.13-.316-.192-.48-.061-.163-.14-.296-.177-.296-.036 0-.116-.168-.177-.372a3.447 3.447 0 0 0-.287-.662 16.11 16.11 0 0 1-.507-.974c-.182-.377-.382-.746-.445-.822a1.214 1.214 0 0 1-.18-.41 1.185 1.185 0 0 0-.182-.411c-.064-.076-.193-.343-.286-.594a4.11 4.11 0 0 0-.418-.806c-.138-.192-.3-.5-.36-.684a2.523 2.523 0 0 0-.316-.61c-.113-.15-.419-.684-.68-1.186-.26-.502-.53-.977-.6-1.057-.072-.079-.13-.177-.13-.218 0-.04-.17-.346-.38-.677-.21-.332-.536-.917-.725-1.3-.19-.382-.408-.72-.486-.75-.079-.03-.143-.098-.143-.152a.393.393 0 0 0-.096-.208c-.052-.06-.28-.402-.504-.758-.224-.356-.505-.7-.625-.763a.594.594 0 0 1-.265-.358c-.026-.133-.298-.508-.603-.833-.304-.326-.554-.645-.554-.71 0-.064-.061-.14-.137-.17-.075-.029-.137-.095-.137-.148 0-.052-.236-.328-.525-.614-.288-.285-.812-.84-1.163-1.232-1.124-1.254-3.547-3.664-3.948-3.925-.214-.14-.388-.31-.388-.377 0-.068-.213-.278-.473-.467a9.595 9.595 0 0 1-.936-.808 6.16 6.16 0 0 0-.844-.704 6.137 6.137 0 0 1-.807-.655c-.234-.227-.455-.413-.492-.413-.036 0-.35-.288-.699-.64-.348-.35-.681-.638-.74-.638-.06 0-.188-.103-.287-.228-.099-.126-.225-.229-.28-.229-.056 0-.102-.038-.102-.085 0-.047-.161-.2-.359-.342-.827-.592-2.527-1.903-2.664-2.056-.08-.09-.192-.164-.246-.164-.054 0-.132-.051-.172-.114-.04-.063-.32-.278-.62-.479a9.135 9.135 0 0 1-.725-.525c-.098-.088-.208-.16-.245-.16-.037 0-.094-.082-.126-.182-.032-.1-.117-.183-.189-.183s-.13-.04-.13-.091c0-.05-.044-.091-.098-.091-.15 0-1.058-.633-1.344-.936-.083-.088-.18-.16-.216-.16-.036 0-.202-.127-.368-.283a2.769 2.769 0 0 0-.576-.412c-.337-.158-.663-.405-1.288-.98-.265-.243-.638-.525-.83-.627a4.262 4.262 0 0 1-.66-.46 2.78 2.78 0 0 0-.616-.4c-.366-.153-1.227-.696-1.438-.907-.22-.22-1.554-1.096-2.033-1.336-.393-.196-.848-.63-.848-.809 0-.046-.081-.084-.18-.084-.22 0-.824-.28-.824-.382 0-.041-.057-.075-.126-.075-.07 0-.176-.06-.237-.134-.138-.166-.897-.596-1.054-.596-.063 0-.14-.061-.168-.137-.029-.075-.095-.137-.146-.137-.051 0-.282-.143-.512-.32-.23-.175-.472-.319-.539-.319-.066 0-.143-.06-.17-.132-.029-.073-.228-.223-.444-.332-.216-.109-.425-.255-.465-.323-.04-.07-.171-.125-.29-.125-.137 0-.29-.1-.408-.267-.12-.17-.39-.345-.739-.48a3.681 3.681 0 0 1-.934-.555c-.212-.188-.458-.366-.546-.394-.088-.028-.16-.09-.16-.136 0-.047-.096-.085-.214-.085a.597.597 0 0 1-.379-.183c-.09-.1-.238-.182-.327-.182-.088 0-.35-.144-.58-.32-.23-.176-.454-.32-.497-.32-.044 0-.134-.064-.2-.144-.066-.08-.404-.288-.753-.463-.348-.176-.74-.419-.871-.54-.131-.122-.268-.222-.303-.222-.036 0-.305-.14-.599-.313-.294-.172-.649-.342-.788-.377-.14-.035-.274-.116-.299-.18-.024-.064-.175-.169-.335-.232a3.311 3.311 0 0 1-.518-.27 2.752 2.752 0 0 0-.57-.265c-.188-.06-.373-.163-.41-.227-.039-.064-.193-.18-.344-.258l-.912-.471c-1.26-.65-1.789-.946-1.95-1.092-.09-.082-.225-.148-.299-.148-.074 0-.537-.206-1.028-.457-.492-.25-.948-.456-1.015-.456-.066 0-.134-.036-.15-.08-.04-.103-1.127-.65-1.292-.65-.07 0-.22-.083-.337-.183-.115-.1-.283-.182-.372-.182a.472.472 0 0 1-.287-.125.949.949 0 0 0-.349-.189 3.959 3.959 0 0 1-.406-.142c-.1-.044-.413-.161-.695-.262a4.62 4.62 0 0 1-.856-.417 2.872 2.872 0 0 0-.718-.335 2.217 2.217 0 0 1-.556-.228.742.742 0 0 0-.35-.128c-.093 0-.402-.11-.688-.245a13.6 13.6 0 0 0-.564-.257 4.267 4.267 0 0 1-.274-.114c-.21-.093-1.35-.508-2.83-1.03-.326-.115-.634-.238-.685-.274a2.473 2.473 0 0 0-.456-.174c-.2-.06-.447-.147-.548-.194-.424-.195-1.723-.622-1.782-.586-.035.022-.239-.045-.452-.148a3.815 3.815 0 0 0-.811-.264 16.207 16.207 0 0 1-1.108-.266c-1.149-.317-2.581-.649-2.967-.687-.2-.02-.55-.1-.775-.179a2.682 2.682 0 0 0-.695-.145c-.157 0-.618-.084-1.027-.186-.965-.24-2.457-.45-3.212-.452-.329-.001-.641-.045-.694-.098-.052-.052-.543-.115-1.09-.14-.548-.024-1.201-.082-1.452-.128-.642-.118-2.194-.266-3.377-.323a22.253 22.253 0 0 1-1.643-.139c-.352-.05-1.201-.106-1.888-.125-.687-.019-1.293-.062-1.348-.096-.285-.176-13.384-.288-15.431-.133-.778.06-1.826.116-2.328.126a14.64 14.64 0 0 0-1.323.078c-.226.033-.74.08-1.141.105a17.34 17.34 0 0 0-1.05.092c-.176.026-.71.07-1.187.098-.477.028-1.01.09-1.187.137a3.567 3.567 0 0 1-.759.087c-.241 0-.509.038-.594.083-.085.046-.34.107-.565.136-.225.029-.882.118-1.459.198-.577.08-1.234.165-1.46.189a2.924 2.924 0 0 0-.594.117c-.285.116-1.722.373-2.083.373-.179 0-.348.037-.375.082-.047.075-.945.25-1.375.268-.372.015-1.416.276-1.707.426-.166.085-.484.17-.706.186-.418.032-1.947.496-1.997.606-.016.034-.385.172-.822.306-.436.135-.916.3-1.067.368-.15.068-.561.223-.913.345-1.06.368-1.255.443-1.836.713-.308.143-.622.26-.699.26-.076 0-.41.164-.74.365-.33.2-.635.365-.677.365-.094 0-.781.315-1.205.554-.176.098-.586.312-.913.474-.326.163-.644.343-.705.401-.062.058-.236.16-.388.228-.152.067-.276.153-.276.19 0 .039-.047.07-.104.07-.164 0-.938.398-1.019.525-.04.062-.116.114-.169.114-.053 0-.279.123-.502.274-.223.15-.445.273-.493.273a.09.09 0 0 0-.086.092c0 .05-.077.091-.17.091-.094 0-.282.088-.418.195-.263.206-1.583.9-1.714.9-.063 0-.681.446-1.14.823a.461.461 0 0 1-.251.09c-.078 0-.141.036-.141.079 0 .043-.205.176-.456.295-.251.12-.457.248-.457.287 0 .038-.063.07-.14.07a.225.225 0 0 0-.192.136c-.029.076-.103.137-.165.137-.134 0-.451.347-.857.936-.163.238-.337.433-.385.433-.047 0-.086.056-.086.124s-.131.304-.292.525c-.225.31-.29.495-.291.814 0 .433.208 1.316.29 1.233.05-.049.205.187.39.59.058.126.14.29.182.366.074.131.264.528.64 1.333.097.207.176.453.175.548 0 .095.079.542.176.994.533 2.486.58 2.873.698 5.704.022.527.06 1.185.084 1.461.054.624.166 2.506.17 2.876.012.914-.215 2.123-.454 2.419-.12.15-.305.617-.522 1.324-.323 1.052-.476 3.643-.333 5.613.057.778.123 1.723.146 2.1.024.376.058.828.077 1.004.074.715.053 4.922-.035 6.8-.085 1.803-.133 2.368-.326 3.788-.09.665-.328 1.924-.465 2.461-.07.274-.128.693-.128.93 0 .238-.032.452-.071.476-.04.024-.081.175-.094.335a1.45 1.45 0 0 1-.11.458c-.05.091-.09.31-.09.484 0 .446-.431 2.946-.545 3.158-.052.096-.094.57-.094 1.054 0 .497-.046.966-.107 1.079-.058.11-.14.487-.181.838-.199 1.692-.253 2.046-.388 2.538-.08.29-.145.667-.145.836 0 .271-.078.719-.37 2.118-.11.535-.286 2.136-.325 2.964-.018.383-.082.815-.143.958-.067.16-.135 1.03-.172 2.225-.034 1.079-.11 2.414-.168 2.966-.115 1.094-.163 6.238-.074 7.85.031.552.101 1.312.157 1.689.055.376.137.993.18 1.37.155 1.31.333 2.15.778 3.65.082.276.19.665.239.864.05.199.124.404.166.456.042.053.149.403.237.78.088.376.312 1.013.497 1.415.186.401.368.853.404 1.004.037.15.224.602.415 1.004.192.401.604 1.301.915 2 .311.698.624 1.327.695 1.398.07.071.128.17.128.222 0 .05.138.366.307.7.168.335.437.876.597 1.202.16.327.337.676.394.776.208.366.626 1.266.794 1.712.052.138.133.25.18.25.048 0 .155.206.239.457.083.251.184.456.223.456.04 0 .127.196.193.434.067.239.173.486.237.55.063.065.142.26.175.434.032.174.095.317.14.317.043 0 .105.163.137.363.032.2.115.41.184.468.069.057.126.145.126.196 0 .05.117.323.262.607.144.284.292.654.33.822.036.169.165.502.285.741.12.24.218.516.218.614 0 .216.502 1.855.705 2.3.161.357.315.883.586 2.013.102.426.259 1.022.347 1.323.09.302.212.774.273 1.05.06.276.148.605.194.73.08.215.502 2.538.606 3.332.026.2.092.447.145.548.054.1.147.634.208 1.186.06.553.194 1.395.298 1.872.316 1.461.507 3.344.609 6.024.078 2.06.044 7.629-.05 7.946-.051.173-.083.87-.071 1.548.011.679-.006 1.278-.04 1.333-.034.054-.084.587-.111 1.185a50.772 50.772 0 0 1-.132 1.954c-.044.477-.084.95-.087 1.05-.032.991-.322 3.443-.427 3.614-.032.05-.075.326-.096.612-.043.58-.182 1.495-.322 2.118-.051.226-.125.657-.164.958-.04.301-.121.794-.18 1.096-.06.3-.149.745-.196.988a5.175 5.175 0 0 0-.087.822c0 .21-.042.525-.093.7a5.43 5.43 0 0 0-.14.73 8.857 8.857 0 0 1-.173.913 10.52 10.52 0 0 0-.191 1.05c-.037.3-.143.789-.237 1.084-.093.295-.171.603-.172.685-.002.13-.405 1.743-.993 3.981-.106.402-.232.813-.282.913-.049.1-.176.593-.282 1.095-.107.502-.224.954-.262 1.004-.065.089-.2.583-.376 1.392-.19.871-.299 1.26-.372 1.342-.043.048-.078.256-.078.463 0 .207-.066.597-.146.867-.08.27-.155.74-.165 1.044-.011.303-.063.634-.117.734-.053.1-.126.388-.162.64-.037.25-.098.497-.136.547-.089.115-.184.866-.24 1.871a32.598 32.598 0 0 1-.147 1.689c-.143 1.244-.143 6.295 0 7.667.064.603.155 1.61.203 2.237.048.627.125 1.387.172 1.689l.141.912c.031.201.094.712.138 1.135.116 1.1.36 2.325.609 3.057.118.347.215.707.215.8 0 .313.479 1.943.827 2.813.19.477.46 1.165.598 1.529.139.364.285.662.326.662.041 0 .075.054.075.12 0 .067.123.375.273.686.151.311.274.61.274.664 0 .054.077.208.171.341.094.133.276.45.404.704.128.255.294.514.37.577.076.062.248.327.383.587.135.26.341.576.458.702a63.253 63.253 0 0 0 2.339 2.305c.598.552 2.391 1.985 2.484 1.985.02 0 .18.134.354.297.435.406.553.493.763.56.1.031.354.24.567.462.212.223.477.432.588.465.11.033.304.158.43.277.503.479.763.678.883.678.07 0 .149.057.176.128.027.07.17.179.317.24.147.06.267.14.267.175 0 .036.204.165.453.286.249.121.454.271.456.333.002.062.148.173.323.247.176.073.32.176.32.229 0 .053.102.096.227.096.129 0 .277.08.342.182.062.1.18.183.262.183.081 0 .253.082.38.183.128.1.254.182.281.182.027 0 .39.158.807.351 1.207.559 1.295.595 1.505.619.109.012.314.078.456.146.177.084.587.118 1.308.109.948-.013 1.081.006 1.375.192.36.228 1.504 1.342 1.864 1.814.267.35.298.76.07.928-.088.064-.16.167-.16.228s-.082.157-.183.213c-.1.055-.323.2-.494.323-.293.208-.454.234-1.149.19-.1-.006-.334.037-.52.098-.36.117-.547.09-1.899-.265a48.27 48.27 0 0 0-1.414-.343c-.402-.09-.751-.187-.776-.215-.1-.113-.77-.416-.871-.393-.06.013-.227-.038-.372-.114-.145-.075-.342-.138-.438-.138-.097 0-.149-.027-.117-.059.072-.072-.52-.398-.722-.398-.096 0-.128.05-.091.145a.93.93 0 0 1 .055.182c0 .021.082.038.182.038.102 0 .183.061.183.137 0 .076.03.138.069.139.112.002.59.467 1.028.999.225.274.517.603.65.73.282.272.517.65.912 1.464l.366.752a.82.82 0 0 1 .079.301c0 .079.057.254.128.391.192.372.42 1.833.418 2.686-.002.876-.146 2.36-.269 2.759a11.09 11.09 0 0 0-.192.824 5.61 5.61 0 0 1-.325 1.021c-.12.26-.217.51-.217.555 0 .184-.483 1.253-.607 1.344-.073.053-.17.24-.215.414-.14.545-.315 1.002-.383 1.002-.035 0-.15.175-.256.388-.35.711-.54 1.016-.681 1.095a.317.317 0 0 0-.14.253c0 .096-.077.216-.172.267-.095.05-.2.205-.235.344-.035.139-.092.274-.126.3-.034.025-.178.279-.32.564-.141.285-.313.54-.382.566-.07.026-.215.245-.324.486-.11.24-.276.536-.37.656-.094.12-.17.28-.17.356 0 .076-.097.266-.215.421-.118.156-.27.437-.338.625s-.173.342-.234.342c-.061 0-.195.137-.298.303-.103.166-.288.357-.412.423a.92.92 0 0 0-.342.405c-.14.342-.634 1.06-.728 1.06-.111 0-1.128 1.1-1.163 1.258-.055.245-.422.776-.868 1.255-.233.25-.423.504-.423.567 0 .062-.14.205-.311.317-.171.113-.397.38-.5.595-.125.255-.25.39-.363.39-.175 0-.925.678-.925.836 0 .087-.576.732-1.027 1.151-.138.129-.251.284-.251.345 0 .062-.182.166-.405.232-.222.065-.398.142-.39.17.008.027-.102.173-.244.324-.143.15-.296.368-.34.484-.045.116-.125.184-.179.15-.054-.032-.118.017-.142.111-.025.094-.148.252-.275.352-.127.1-.409.355-.626.568-.217.214-.44.388-.494.388-.055 0-.1.06-.1.131 0 .072-.082.157-.182.189-.1.032-.183.137-.183.234s-.054.177-.12.177-.239.124-.384.276c-.146.152-.313.257-.372.235-.068-.026-.09.024-.061.134.03.118-.001.176-.095.176-.077 0-.258.113-.402.251-.399.383-.625.516-1.03.606-.207.046-.486.238-.936.643a.608.608 0 0 1-.345.143c-.112 0-.218.088-.27.223-.06.159-.199.255-.476.33l-.512.142c-.066.019-.098.07-.072.112.027.043-.063.134-.2.203-.311.156-.718.572-.795.814-.032.102-.168.245-.303.318-.135.073-.204.136-.154.14.05.004-.04.064-.2.134-.392.17-1.115.709-1.12.833-.004.122-.338.28-.758.359-.239.045-.362.141-.504.394-.255.454-.583.722-.972.795-.212.04-.327.114-.33.21-.005.103-.033.086-.09-.055-.108-.27-.254-.26-.361.023-.048.125-.13.228-.18.228-.052 0-.094.062-.094.137 0 .075-.055.137-.123.137-.067 0-.195.08-.283.177a.71.71 0 0 1-.357.206c-.12.017-.26.159-.363.37-.092.188-.222.342-.29.342-.067 0-.198.093-.289.206-.092.113-.283.28-.425.372a.983.983 0 0 0-.347.422c-.06.172-.213.31-.472.424-.21.093-.536.339-.722.547-.187.208-.464.43-.616.493-.153.063-.277.146-.277.186 0 .039-.134.117-.297.174-.229.08-.266.122-.164.186.103.064.08.094-.106.141-.13.033-.26.143-.286.246-.038.144-.098.173-.268.13-.167-.04-.31.023-.59.263-.205.175-.41.318-.457.318-.047 0-.158.08-.246.177-.194.214-.886.462-1.288.462-.254 0-.3-.037-.349-.285zm31.592-271.42c-.03-.03-.11-.034-.175-.008-.073.03-.051.051.055.056.096.004.15-.018.12-.048zm128.19 269.848c-.008-.25-.019-.257-.376-.196-.203.034-.418.022-.48-.026-.143-.113-.612-.198-.612-.11 0 .154-.588.171-1.02.03-.347-.114-.642-.136-1.236-.094-.44.03-.979.013-1.234-.042-.278-.06-.486-.065-.537-.013-.106.106-.645.035-.577-.076.028-.044-.032-.08-.132-.08s-.208-.042-.239-.092c-.076-.123-.44-.116-.567.01-.075.075-.21.06-.514-.055-.226-.086-.45-.133-.499-.103-.048.03-.139-.007-.2-.081-.065-.078-.275-.139-.49-.143-.208-.004-.46-.041-.56-.085-.17-.072-.166-.079.038-.085.325-.009.197-.079-.242-.131a2.775 2.775 0 0 1-.683-.184c-.165-.075-.536-.164-.825-.198-.295-.035-.623-.138-.745-.234-.12-.094-.277-.172-.349-.172a.321.321 0 0 1-.197-.067.323.323 0 0 0-.175-.076c-.202-.017-.701-.262-.701-.344 0-.046-.061-.032-.136.03-.11.091-.146.085-.19-.03-.03-.078-.185-.186-.344-.239-.159-.052-.437-.229-.619-.392-.34-.306-.453-.361-.765-.378-.1-.005-.215-.061-.255-.124-.04-.063-.174-.114-.297-.114-.163 0-.224-.05-.224-.183 0-.101-.06-.182-.137-.182-.075 0-.218-.081-.317-.18a1.08 1.08 0 0 0-.433-.243c-.14-.034-.377-.182-.528-.33a2.795 2.795 0 0 0-.527-.4c-.14-.073-.23-.172-.2-.22.03-.048-.017-.088-.103-.088-.15 0-.467-.212-.946-.632a4.512 4.512 0 0 0-.502-.37c-.153-.094-.402-.338-.552-.54-.15-.204-.314-.371-.365-.372-.05-.001-.148-.128-.216-.283-.068-.154-.223-.317-.344-.363-.121-.046-.244-.146-.273-.222-.03-.076-.092-.139-.14-.139-.088 0-.578-.537-.578-.633 0-.09-.444-.688-.566-.763a.272.272 0 0 1-.119-.207c0-.193-.278-.645-.616-1.002-.063-.066-.114-.168-.114-.227 0-.058-.158-.286-.352-.505-.32-.364-.89-1.41-1.059-1.943a1.15 1.15 0 0 0-.241-.388c-.096-.095-.174-.237-.174-.315 0-.078-.102-.293-.227-.477s-.314-.594-.42-.911a13.1 13.1 0 0 0-.548-1.307c-.196-.401-.356-.806-.356-.9 0-.093-.062-.193-.137-.222-.076-.028-.138-.146-.139-.26-.002-.249-.246-.98-.383-1.145-.054-.065-.113-.263-.133-.442a2.96 2.96 0 0 0-.203-.705 9.922 9.922 0 0 1-.513-1.705c-.097-.499-.32-1.208-.462-1.474a1.133 1.133 0 0 1-.13-.432c0-.268-.343-1.362-.553-1.763-.098-.186-.177-.416-.177-.513 0-.096-.145-.602-.323-1.123-.177-.521-.342-1.07-.366-1.22a3.685 3.685 0 0 0-.264-.914c-.061-.15-.185-.5-.275-.776-.09-.276-.206-.605-.258-.73a3.058 3.058 0 0 1-.115-.32c-.012-.05-.092-.317-.177-.593a169.57 169.57 0 0 1-.193-.622c-.02-.066-.08-.093-.134-.06-.054.034-.086.007-.07-.062.032-.144-.192-.717-.28-.717-.105 0-.62.588-.681.778-.032.1-.202.337-.378.528s-.32.378-.32.416c0 .038-.226.283-.502.544-.276.262-.502.514-.502.56 0 .046-.082.11-.183.141-.1.032-.182.098-.182.148 0 .172-.503.72-.662.72-.088 0-.16.037-.16.083 0 .046-.157.2-.349.342-.5.37-1.338 1.379-2.113 2.54-.368.553-.809 1.142-.979 1.31-.17.168-.417.476-.548.685-.32.508-.634.807-2.902 2.753-.38.326-.8.591-.937.592-.186.001-.974.39-1.053.52-.04.066-.155.12-.254.12-.1 0-.204.06-.233.134-.028.074-.201.159-.385.188a2.18 2.18 0 0 0-.575.185c-.134.073-.306.132-.383.132-.077 0-.196.08-.264.176-.068.097-.327.226-.576.286-.249.06-.544.166-.657.236-.132.082-.206.092-.206.028 0-.055-.068-.032-.151.05a.434.434 0 0 1-.365.111c-.118-.022-.214-.01-.214.028 0 .083-.04.085-1.734.122-.728.015-1.457.059-1.62.096-.165.038-.297.031-.297-.014 0-.1-.923-.078-1.735.04-.695.1-1.275.083-1.516-.044-.095-.05-.357-.078-.583-.063a2.919 2.919 0 0 1-.769-.063 6.11 6.11 0 0 0-.935-.125c-.318-.017-.618-.057-.668-.087-.049-.03-1.292-.076-2.761-.1-1.47-.025-2.713-.048-2.763-.051-.05-.003-.317-.003-.593.001a55.38 55.38 0 0 1-.685.005c-.5-.002-1.886.112-2.355.193-.292.05-.57.068-.617.039-.047-.03-.086-.001-.086.062 0 .089-.024.09-.11.005-.146-.147-.362-.138-.89.035-.35.114-.485.122-.642.038-.156-.084-.23-.08-.35.02-.084.07-.296.137-.472.15a8.08 8.08 0 0 0-.895.155c-.74.168-2.409.04-5.404-.415-.677-.103-1.54-.231-1.916-.285-.377-.053-.747-.152-.822-.22-.09-.08-.355-.12-.765-.113-.515.008-.651-.021-.753-.161-.069-.094-.125-.143-.125-.109 0 .034-.133-.02-.297-.119-.18-.11-.459-.18-.712-.181-.228 0-.455-.04-.505-.09-.049-.05-.273-.148-.497-.22a21.422 21.422 0 0 1-.909-.321c-.275-.105-.574-.19-.664-.19-.09 0-.186-.059-.214-.13-.027-.07-.262-.195-.522-.278-.26-.082-.534-.174-.61-.204a1.037 1.037 0 0 0-.227-.065c-.08-.008-1.114-.746-1.233-.88-.025-.03-.292-.104-.593-.166a7.848 7.848 0 0 1-.776-.197c-.205-.074-1.327-.164-2.207-.176-.19-.003-.404-.072-.493-.162a.627.627 0 0 0-.353-.166.757.757 0 0 1-.29-.066c-.051-.032-.459-.103-.906-.159-.566-.07-.86-.15-.965-.264-.109-.117-.355-.18-.87-.224-.393-.033-.73-.1-.747-.15-.016-.05-.101-.091-.188-.091s-.257-.093-.378-.206c-.121-.113-.235-.19-.253-.173-.018.018-.202-.104-.41-.27a15.614 15.614 0 0 0-.905-.657c-.291-.194-.508-.388-.481-.43.026-.042-.037-.103-.14-.136-.102-.032-.372-.22-.6-.417-.227-.197-.47-.358-.538-.358-.068 0-.285-.165-.482-.366-.197-.2-.438-.365-.536-.365-.099 0-.218-.038-.266-.086-.173-.172-1.138-.644-1.317-.644-.103 0-.184-.06-.184-.137 0-.075-.054-.137-.12-.137-.065 0-.332-.106-.592-.236-.261-.13-.534-.245-.607-.256a.762.762 0 0 1-.297-.157c-.215-.18-.53-.375-1.181-.727-.293-.158-.584-.362-.647-.452-.064-.09-.31-.287-.55-.437-.622-.392-2.925-2.675-3.045-3.02-.055-.155-.135-.283-.178-.283-.044 0-.06-.053-.035-.117.025-.065-.118-.239-.32-.388-.2-.149-.366-.322-.367-.385-.001-.063-.04-.114-.086-.114-.047 0-.172-.264-.28-.586-.107-.323-.254-.636-.326-.696-.073-.06-.132-.232-.132-.38 0-.15-.057-.381-.126-.514-.334-.646-.513-1.106-.513-1.32 0-.13-.041-.261-.091-.292-.05-.031-.092-.144-.092-.25 0-.26-.2-.8-.297-.8-.117 0-.342-.597-.342-.91 0-.169-.047-.277-.12-.277-.067 0-.213-.185-.326-.41-.113-.226-.244-.411-.29-.411-.047 0-.085-.056-.085-.125 0-.068-.081-.227-.18-.353-.099-.125-.153-.254-.122-.286.032-.032.014-.058-.04-.058s-.281-.277-.505-.616a9.986 9.986 0 0 0-1.043-1.255c-.35-.352-.662-.71-.694-.799-.031-.088-.1-.16-.152-.16-.052 0-.094-.057-.094-.127s-.14-.251-.313-.402c-.172-.151-.29-.298-.26-.327.06-.061-.353-.694-.454-.695-.038 0-.068-.081-.068-.18 0-.098-.088-.226-.195-.283-.156-.084-.17-.12-.069-.185.104-.065.1-.08-.018-.081-.137-.001-.357-.35-.357-.564 0-.054-.134-.288-.297-.52a8.848 8.848 0 0 1-.765-1.245c-.133-.251-.377-.67-.543-.93-.166-.26-.33-.629-.366-.82-.035-.193-.09-.37-.122-.395-.032-.025-.237-.6-.456-1.278a85.791 85.791 0 0 0-.511-1.552c-.063-.176-.164-.642-.224-1.037-.06-.395-.166-.936-.235-1.203-.14-.533-.1-2.875.057-3.365.046-.145.085-.371.085-.502 0-.13.062-.355.137-.498.075-.144.136-.358.136-.475 0-.218.15-.82.41-1.637.209-.662.334-1.622.326-2.51-.011-1.198.16-3.414.315-4.082.077-.33.12-.62.095-.645-.024-.024.016-.13.09-.235a.821.821 0 0 0 .133-.397c0-.113.104-.525.23-.915s.296-.935.377-1.211c.08-.277.202-.667.268-.868.067-.2.138-.467.157-.593.02-.125.077-.33.129-.456.087-.212.145-.816.26-2.693.059-.977.292-2.949.36-3.06.031-.05.092-.367.136-.706.09-.69.744-3.48.916-3.902l.184-.456c.04-.1.14-.392.22-.648.08-.256.227-.624.326-.818.099-.194.181-.436.183-.539a1.07 1.07 0 0 1 .134-.414c.072-.126.132-.323.133-.439.002-.115.147-.481.323-.812.176-.331.32-.668.32-.748 0-.08.128-.475.285-.876.156-.402.364-.956.463-1.233.098-.276.217-.54.263-.588.046-.048.084-.18.084-.292 0-.112.091-.269.203-.347.111-.078.173-.142.138-.142-.036 0-.006-.154.066-.342.072-.188.178-.527.236-.753.057-.226.157-.473.221-.548.065-.075.161-.28.215-.456.28-.922.702-2.102.88-2.465.112-.226.294-.777.405-1.225.111-.449.276-.921.367-1.05.157-.225.555-1.277.555-1.469 0-.104.253-.699.645-1.514.147-.306.268-.604.268-.661 0-.058.037-.105.083-.105.045 0 .135-.206.2-.457.064-.25.147-.456.184-.456.038 0 .245-.329.462-.73.217-.402.436-.732.486-.733.05-.002.232-.236.405-.521a6.82 6.82 0 0 1 .616-.853c.166-.184.303-.37.304-.415.001-.044.145-.238.32-.432.174-.194.317-.388.317-.432 0-.043.206-.294.457-.558.251-.263.48-.551.508-.64.028-.09.112-.163.185-.163.074 0 .161-.072.195-.16.033-.088.156-.235.272-.327a1.58 1.58 0 0 0 .349-.431c.074-.145.345-.476.6-.736.257-.26.613-.703.792-.984.179-.281.39-.558.469-.616.131-.096.243-.29.545-.945a5.34 5.34 0 0 1 .289-.516c.403-.631.632-1.84.815-4.295.085-1.155.28-2.345.463-2.825a1.56 1.56 0 0 0 .084-.47c0-.136.08-.513.18-.84.1-.326.272-.9.383-1.277a8.3 8.3 0 0 1 .413-1.115c.117-.237.212-.502.212-.588 0-.086.08-.324.176-.528.638-1.352 1.345-2.73 1.723-3.364.097-.16.251-.519.344-.795.092-.276.231-.578.308-.67.092-.111.144-.38.152-.791.01-.565.05-.692.434-1.357.233-.403.423-.755.423-.781 0-.027.138-.265.307-.53.169-.264.336-.573.371-.685.08-.253.298-.48.463-.48.068 0 .172.149.233.331.06.183.184.419.275.525.24.28.696 1.18.771 1.523.036.162.183.495.328.74.144.244.286.54.315.655.03.116.156.323.283.46.2.216.217.281.133.524-.097.276-.001.946.18 1.266.53.938.623 1.202.684 1.955.042.518.032.784-.03.784-.177 0-.352 1.087-.477 2.966-.044.653-.115 1.31-.157 1.46-.086.305-.072 2.716.022 3.802.043.495.02.88-.081 1.324-.078.344-.17.901-.204 1.239-.044.423-.115.66-.233.767a.603.603 0 0 0-.17.39c0 .131-.078.364-.172.518-.094.154-.202.38-.241.502-.039.122-.208.348-.377.502-.168.154-.306.316-.306.36 0 .185-.419.925-.61 1.076-.114.09-.285.337-.381.548-.17.374-.304.536-1.368 1.656-.284.299-.632.69-.774.867-.142.179-.717.814-1.278 1.411-.56.598-1.102 1.198-1.202 1.333-.1.135-.356.406-.566.603a3.103 3.103 0 0 0-.624.9c-.132.299-.319.599-.415.666-.097.068-.175.182-.175.254 0 .073-.103.327-.229.566-.255.485-.537 1.138-.639 1.483a1.33 1.33 0 0 1-.136.32c-.038.05-.14.378-.227.73-.087.351-.23.741-.316.867a2.122 2.122 0 0 0-.331.714c-.06.29-.77 1.955-1.187 2.785-.072.142-.13.32-.13.394 0 .075-.116.308-.258.518-.141.21-.311.525-.377.7a18.77 18.77 0 0 1-.473 1.057c-.194.406-.353.803-.353.883 0 .286-.54 1.439-.793 1.696a.461.461 0 0 0-.12.28c0 .087-.082.328-.182.536-.1.208-.183.443-.183.524 0 .08-.06.263-.135.408-.188.363-.378.957-.5 1.566a4.09 4.09 0 0 1-.282.863c-.098.193-.178.436-.178.542 0 .261-.35 1.693-.465 1.898-.05.092-.132.523-.18.959a15.91 15.91 0 0 1-.222 1.4c-.075.336-.159 1.28-.186 2.1-.053 1.54-.15 2.086-.568 3.18-.289.756-.413.995-.664 1.278a2.82 2.82 0 0 0-.366.585c-.09.197-.273.484-.407.64a7.187 7.187 0 0 0-.55.783c-.42.693-.752 1.1-1.154 1.418-.188.149-.343.3-.345.335-.01.137-.483.762-.644.848-.094.05-.17.125-.17.165.001.04-.098.205-.22.365a2.13 2.13 0 0 0-.287.497c-.036.113-.124.206-.196.206-.072 0-.13.037-.13.084 0 .085-.544.915-1.076 1.64-.162.222-.294.473-.294.559 0 .086-.082.261-.183.39-.101.128-.21.37-.241.537-.032.167-.089.345-.127.395-.037.05-.137.358-.222.685-.085.326-.192.664-.238.752a1.11 1.11 0 0 0-.084.427c0 .148-.067.57-.148.937-.106.477-.143 1.058-.131 2.037.032 2.633.055 2.999.216 3.304.085.161.154.47.154.688 0 .218.082.558.182.755.1.196.183.43.183.518 0 .339.546 1.625 1.175 2.768.568 1.032.87 1.558.919 1.597.03.025.157.242.282.482.264.511.797 1.242 1.344 1.842.213.234.388.466.388.515 0 .105.379.661.481.707.04.017.158.202.265.41.106.209.362.558.568.775.206.218.491.526.635.685.143.159.394.433.558.609.164.175.351.42.415.544.065.124.37.555.677.959.308.403.637.856.732 1.007.095.15.372.479.616.73s.593.757.777 1.124c.183.367.408.707.5.756a.334.334 0 0 1 .165.263c0 .096.08.23.176.298.097.068.327.347.511.621.185.274.365.518.4.544.037.025.222.281.411.57.19.289.383.525.428.525.045 0 .196.183.336.407.139.224.48.583.756.799.558.434.652.51 1.035.845.145.127.304.23.352.23.048 0 .295.166.548.368.254.202.568.393.698.425.13.031.257.085.283.118.025.033.286.201.58.374.295.172.682.4.86.506.18.106.399.174.487.15.088-.023.254.024.37.105.114.08.27.146.348.146.077 0 .19.078.25.174.06.096.23.201.38.234s.32.119.38.19c.06.073.166.132.235.132.07 0 .126.033.126.074 0 .04.195.166.433.278.546.257.8.404 1.004.576.088.075.407.272.708.438.301.165.58.357.62.426.04.069.123.126.183.128.06.002.273.166.472.365.2.2.418.362.486.362.067 0 .257.103.422.228.164.126.362.228.439.228.077 0 .19.062.253.137.063.076.227.137.364.137a.91.91 0 0 1 .468.166c.216.164 1.081.473 1.324.473.07 0 .126.037.126.081 0 .076.601.242.752.209.103-.023.827.271.983.399.075.062.267.14.427.174.16.034.34.12.399.193a.41.41 0 0 0 .277.13c.092 0 .213.084.267.186.055.102.139.16.187.13.165-.1 1.397.201 2.18.535.235.1.354.109.474.034.125-.078.201-.063.348.07.103.093.187.141.187.107 0-.035.075-.023.167.026.092.05.594.133 1.114.187.52.053.973.141 1.007.196.07.114 1.832.274 2.205.2a.84.84 0 0 1 .41.021c.186.08.44.108 1.715.187.502.031.965.1 1.03.152.063.052.144.067.179.032s.003-.106-.07-.158c-.101-.07-.078-.079.093-.031.305.084 1.967.089 2.407.006.239-.045.33-.035.29.031-.084.136.161.122.309-.017.096-.09.129-.09.162 0 .045.12.666.163.666.046 0-.038.277-.072.616-.076a66.497 66.497 0 0 0 1.94-.076c.728-.037 2.165-.1 3.195-.138 2.595-.096 8.052-.008 8.428.137a.33.33 0 0 0 .256-.015c.123-.076 2.145-.143 3.837-.127.78.007 1.137-.027 1.328-.125.144-.075.486-.134.76-.131.631.006 1.656-.11 1.775-.2a.512.512 0 0 1 .229-.079c.545-.041 1.095-.14 1.095-.197 0-.037.168-.09.372-.117.205-.028.444-.115.532-.195.088-.08.212-.144.276-.144.16 0 .958-.601 1.484-1.118.242-.239.481-.434.531-.434.05 0 .091-.06.091-.132 0-.072.074-.185.165-.25.091-.066.304-.326.474-.577.17-.25.342-.47.383-.486.04-.017.074-.093.074-.17 0-.122.128-.316.567-.858.138-.17.292-.397.508-.75.086-.142.29-.45.452-.685.162-.235.361-.572.443-.747.082-.176.178-.34.213-.366.034-.025.154-.195.265-.378.111-.184.263-.357.337-.385.075-.029.136-.096.136-.15 0-.095.364-.66.456-.707a13 13 0 0 0 .35-.21c.251-.152.286-.209.195-.318-.09-.108-.082-.134.037-.134.082 0 .148-.045.148-.1 0-.155 1.011-1.269 1.152-1.269.07 0 .126-.035.126-.078s.416-.484.925-.98c.508-.498 1.381-1.37 1.94-1.937.558-.568 1.148-1.097 1.311-1.174.163-.078.297-.172.297-.209 0-.077.862-1.007.933-1.007.072 0 .892-.837.892-.91 0-.037.432-.478.959-.982.527-.503.958-.953.958-.998 0-.046.158-.214.352-.374.193-.16.45-.435.57-.612.12-.177.25-.322.29-.322.038 0 .223-.168.41-.372.187-.203.474-.51.638-.681.163-.171.296-.345.296-.386 0-.041.123-.147.274-.236.15-.09.274-.216.274-.281 0-.066.188-.32.417-.565.23-.246.565-.64.746-.876.18-.236.365-.407.41-.379.045.028.105-.036.132-.141.028-.105.086-.192.129-.192.043 0 .145-.13.228-.29.082-.158.325-.462.54-.674.216-.212.42-.472.453-.578.033-.106.12-.192.191-.192.072 0 .131-.04.131-.087 0-.048.139-.222.308-.388.169-.165.334-.389.368-.496.033-.107.305-.473.605-.812.3-.34.545-.673.545-.74 0-.069.061-.124.137-.124.075 0 .137-.031.137-.069 0-.037.124-.2.274-.36.15-.16.273-.329.273-.374 0-.046.093-.184.206-.307a2.59 2.59 0 0 0 .34-.493c.232-.465.827-1.318.918-1.318.049 0 .088-.06.088-.132 0-.073.144-.288.32-.48.175-.19.318-.377.319-.413 0-.037.138-.283.306-.548.363-.57.972-1.772.972-1.917 0-.056.066-.174.146-.262.143-.159.95-2.048.95-2.226 0-.051.126-.4.28-.777a7.59 7.59 0 0 0 .373-1.183c.051-.274.15-.58.222-.682a.777.777 0 0 0 .128-.373c0-.105.044-.234.098-.287.053-.054.133-.462.178-.908.045-.447.125-.963.18-1.149.054-.186.136-.596.181-.913.046-.316.146-.9.223-1.296a47.21 47.21 0 0 0 .336-2.278c.175-1.384.187-1.701.101-2.84-.123-1.643-.341-2.583-.85-3.667-.145-.309-.264-.607-.264-.662 0-.056-.041-.101-.091-.101a.094.094 0 0 1-.092-.096c0-.142-1.582-3.342-1.963-3.97a22.4 22.4 0 0 1-.79-1.502c-.251-.527-.507-1.02-.568-1.096-.06-.075-.165-.3-.233-.502-.068-.2-.251-.57-.408-.821a17.673 17.673 0 0 1-.547-.959c-.145-.276-.335-.584-.423-.684-.088-.1-.273-.47-.41-.822-.137-.351-.342-.72-.455-.821-.112-.1-.295-.378-.406-.616-.111-.238-.243-.458-.293-.49-.05-.03-.164-.225-.254-.433s-.25-.456-.358-.552c-.107-.096-.194-.223-.194-.283 0-.06-.083-.183-.184-.274-.1-.092-.272-.345-.381-.562-.109-.218-.23-.396-.27-.396-.04 0-.14-.13-.222-.288-.163-.315-.25-.433-.574-.785a6.883 6.883 0 0 1-.542-.744 7.038 7.038 0 0 0-.742-.937 6.506 6.506 0 0 1-.6-.7c-.416-.622-.746-1.01-1.026-1.202-.163-.113-.297-.259-.297-.324 0-.105-.817-.941-1.848-1.891-.189-.174-.343-.35-.343-.393 0-.042-.19-.263-.422-.491l-.561-.551a8.239 8.239 0 0 1-.286-.299 32.47 32.47 0 0 0-.52-.55c-.206-.213-.44-.514-.52-.669-.08-.155-.343-.433-.584-.618a4.058 4.058 0 0 1-.667-.65c-.125-.172-.28-.314-.342-.315-.063-.001-.114-.034-.115-.071-.001-.038-.207-.295-.457-.57-.251-.277-.525-.657-.61-.845-.084-.187-.217-.362-.296-.387-.078-.026-.244-.2-.37-.389a5.187 5.187 0 0 0-.274-.388 7.68 7.68 0 0 1-.314-.41 7.132 7.132 0 0 0-.593-.69 5.089 5.089 0 0 1-.582-.731 15.24 15.24 0 0 0-.82-1.181 5.242 5.242 0 0 1-.319-.489 7.064 7.064 0 0 0-.57-.782c-.199-.236-.362-.478-.362-.538 0-.06-.038-.108-.084-.108-.046 0-.11-.12-.143-.267-.032-.147-.323-.66-.646-1.14-.323-.48-.587-.91-.587-.956 0-.099-1.008-1.648-1.553-2.388a7.89 7.89 0 0 1-.596-.959c-.341-.689-.583-1.075-.778-1.242-.097-.084-.177-.202-.177-.264s-.123-.312-.274-.557c-.15-.245-.274-.464-.274-.488 0-.023-.205-.348-.456-.722-.251-.373-.457-.7-.457-.724 0-.024-.143-.263-.319-.53-.176-.266-.32-.526-.32-.578-.001-.13-1.18-2.003-1.284-2.04-.047-.017-.085-.086-.085-.153s-.044-.136-.098-.154c-.095-.032-.361-.485-1.188-2.021-.212-.393-.44-.77-.509-.839-.184-.184-.267-1.164-.11-1.288.346-.272.909-.187 1.387.21.142.117.299.213.348.213.05 0 .268.167.485.37.217.204.6.502.851.662.604.386 1.561 1.177 2.176 1.798.837.845 1.77 1.854 1.77 1.914 0 .031.164.228.365.437.201.209.365.421.365.472 0 .102.304.544.913 1.327.226.29.452.595.502.676.05.082.183.28.297.439.113.16.205.331.205.381 0 .05.056.148.125.216.069.07.197.267.284.44.088.174.271.439.409.59.137.15.304.417.372.593.068.175.262.459.43.63.169.17.362.417.43.547.141.273 1.09 1.733 1.235 1.902.053.062.187.267.296.456.11.19.223.365.252.39.06.052.609.911.818 1.281.078.138.344.553.591.923.247.369.556.835.685 1.036.129.201.31.447.401.548.092.1.348.454.57.787.221.332.472.66.556.73.085.07.264.3.399.511.135.212.444.55.687.751.244.201.485.445.538.543.2.37.787 1.04 2.47 2.813.4.423.762.828.802.9.04.072.123.131.183.133.06 0 .25.21.423.464.172.254.5.658.73.897.425.444.967 1.07 1.259 1.453.089.117.361.445.604.73.244.283.522.67.618.858.097.188.21.342.253.342.043 0 .247.257.453.57.663 1.005.97 1.43 1.042 1.434.038.002.263.298.502.658.238.36.515.765.615.9.1.135.265.365.365.51.1.145.336.47.524.72.188.251.343.498.343.548 0 .05.148.297.328.548.18.25.364.548.409.661.044.113.12.206.17.206.049 0 .116.143.15.32.033.182.113.319.186.319.07 0 .127.042.127.093 0 .05.11.267.247.479.136.212.377.674.535 1.025.158.351.498.988.757 1.415.258.427.469.826.469.888 0 .061.082.246.182.41.1.165.183.36.183.436 0 .075.124.322.276.548.15.226.333.605.405.844.072.238.227.566.345.73.119.163.27.461.336.662s.173.427.236.502c.063.076.203.302.31.502.107.201.316.57.464.822.148.25.412.737.587 1.08.175.343.355.672.4.73.149.193.46.827.748 1.522.34.821.392.931.692 1.46.128.226.338.678.466 1.004.13.326.27.632.314.68.044.048.08.181.08.297 0 .115.037.21.081.21.072 0 .351.861.562 1.734.4 1.653.582 4.024.492 6.39-.067 1.771-.088 1.943-.36 3.018-.123.483-.242 1.059-.266 1.28a5.611 5.611 0 0 1-.145.768c-.057.2-.139.53-.182.73-.043.2-.167.653-.277 1.004-.11.352-.22.762-.246.913-.026.15-.08.315-.119.365-.04.05-.162.482-.273.959-.11.476-.238.912-.283.968-.104.131-.407 1.079-.482 1.51-.032.183-.119.383-.193.444a.417.417 0 0 0-.134.281c0 .093-.078.345-.173.56-.095.214-.266.616-.38.892-.367.89-.557 1.278-.628 1.278-.037 0-.223.328-.411.73-.189.402-.385.756-.436.788-.05.031-.171.235-.267.452-.096.218-.214.42-.261.449-.048.03-.15.187-.227.35a2.971 2.971 0 0 1-.414.595c-.15.164-.272.344-.272.4 0 .057-.157.29-.35.52-.191.23-.499.653-.683.942-.184.288-.37.524-.415.524-.045 0-.133.124-.195.274-.062.15-.15.274-.194.274-.044 0-.08.057-.08.126s-.061.177-.137.24a.413.413 0 0 0-.14.261c-.002.082-.134.231-.293.332-.159.1-.427.367-.596.593-.17.226-.391.513-.494.639a3.49 3.49 0 0 0-.362.616c-.12.262-.234.388-.354.388-.105 0-.274.146-.414.358-.13.197-.294.38-.362.406-.069.027-.21.233-.312.46-.103.225-.24.443-.305.483-.064.04-.273.289-.464.553-.19.264-.42.53-.507.593-.088.062-.27.278-.405.479-.454.675-.698.988-1.04 1.334-.188.19-.444.491-.57.671-.125.18-.305.418-.399.53a20.27 20.27 0 0 0-.527.682c-.197.264-.39.48-.431.48-.072 0-.739.759-1.19 1.354-.12.158-.267.289-.326.289-.06 0-.166.111-.238.248a2.26 2.26 0 0 1-.427.512 2.676 2.676 0 0 0-.443.51c-.08.136-.268.327-.418.424-.15.097-.3.246-.332.33-.034.084-.464.577-.956 1.095-1.502 1.58-1.443 1.505-1.374 1.786.057.235.601.845.753.845.037 0 .206.185.374.41.17.225.382.433.474.462.091.03.166.113.166.185s.082.202.183.288c.1.086.182.202.182.258 0 .055.165.233.365.394.201.162.366.353.366.424 0 .072.102.198.228.28.125.083.228.18.228.216 0 .037.227.31.505.606.802.856.864.927.864.988 0 .032.135.177.3.321.164.145.356.41.427.591.07.18.174.328.23.328.056 0 .192.185.302.41.11.227.24.411.292.411.05 0 .092.043.092.095 0 .124.32.577.777 1.1.218.25.453.665.58 1.027.118.334.246.608.284.608.039 0 .12.195.18.434.06.238.148.505.194.592.047.087.085.2.085.25 0 .05.123.29.274.536.15.244.273.513.273.596 0 .083.04.222.087.309.226.415.537 1.114.64 1.44.16.501.935 2.36 1.008 2.415.033.025.108.292.166.594.059.3.207.753.329 1.004.254.52.52 1.113.734 1.64.08.199.177.383.214.41.038.027.145.224.239.437s.216.389.271.39c.098.002.876 1.113.877 1.252 0 .038.144.167.32.287.175.12.318.248.318.285 0 .104.833.95 1.115 1.133.135.088.288.135.338.104.05-.031.158.046.24.171.082.125.235.255.34.288.105.033.296.159.425.279.13.12.367.255.53.3.16.045.414.168.561.272.147.105.37.191.497.191.142 0 .316.104.459.274.21.25.51.395.379.182-.105-.17.186-.092.344.092.086.1.222.182.303.182.137 0 .607.18.972.373a.972.972 0 0 0 .38.084c.122 0 .236.041.253.092.034.102.342.182.76.198.15.006.374.088.496.183.155.12.3.156.48.116.198-.043.325 0 .545.185.26.22.342.238.86.2.396-.03.587-.008.616.067.023.06.22.162.44.225.218.063.523.154.677.2.154.047.352.085.44.085.086 0 .344.105.572.232.235.13.487.209.58.179.092-.03.192-.011.223.04.031.05.173.068.314.04.185-.037.273-.01.313.094.031.08.135.146.23.146.096 0 .226.061.288.136.062.075.241.13.399.123.157-.007.43.015.605.048l.617.115c.163.03.296.091.296.136 0 .044.1.08.223.08s.247.04.276.087c.054.087.518.064.676-.033.046-.029.107.009.136.083.03.077.112.111.193.08.078-.03.205-.002.282.062a.805.805 0 0 0 .387.135c.662.048 1.353.166 1.457.25.067.052.315.068.583.037.257-.03.44-.028.407.005-.033.033.14.112.387.174.706.181 1.383.93 1.383 1.529 0 .173.05.331.11.351.081.028.087.152.022.487-.07.359-.138.474-.341.57a.542.542 0 0 0-.308.39c-.05.248-.082.266-.476.267-.232 0-.541.063-.687.139-.266.138-1.107.247-1.88.244-.39-.002-.64-.03-1.37-.156-.534-.091-.754-.07-.84.083-.044.08-.178.146-.297.146-.12 0-.237.051-.262.114-.026.063-.05-.003-.054-.145zm2.531.151c.066-.026.145-.023.175.007s-.024.052-.12.048c-.106-.004-.128-.026-.055-.055zm-63.697-66.346a3.25 3.25 0 0 1-.41-.135c0-.008-.202-.031-.448-.05-.56-.042-1.628-.407-2.409-.82-.326-.174-.65-.316-.717-.316-.068 0-.123-.062-.123-.137 0-.075-.041-.137-.091-.137-.05 0-.092-.055-.092-.123 0-.157-.384-.607-.518-.607-.056 0-.124.06-.152.132-.035.092-.14.118-.352.085-.166-.026-.61-.004-.986.047-.923.128-2.008.175-2.06.09-.024-.039-.238-.07-.475-.07s-.628-.039-.868-.085a3.845 3.845 0 0 0-.912-.04c-.974.092-2.454-.046-2.846-.266-.098-.055-.632-.108-1.186-.117-.66-.012-1.088-.061-1.237-.144-.126-.07-.41-.14-.631-.155-.284-.02-.534-.123-.845-.347-.243-.174-.478-.317-.523-.317-.075 0-.216-.15-.806-.85-.127-.151-.257-.22-.347-.186-.079.03-.419-.07-.755-.223-.336-.152-.828-.305-1.093-.34-.265-.034-.779-.176-1.141-.316a9.336 9.336 0 0 0-1.207-.365 5.853 5.853 0 0 1-.73-.188c-.101-.042-.364-.074-.584-.07-.31.005-.435-.038-.552-.193-.094-.124-.205-.178-.297-.143-.153.06-.934-.253-1.032-.412-.031-.05-.177-.091-.325-.091-.148 0-.269-.041-.269-.09 0-.05-.138-.183-.307-.297-.816-.549-1.725-1.325-1.872-1.6a1.615 1.615 0 0 0-.228-.317 2.824 2.824 0 0 1-.323-.486 23.907 23.907 0 0 0-.358-.633 5.02 5.02 0 0 1-.288-.594 5.05 5.05 0 0 0-.338-.66c-.116-.187-.21-.377-.21-.422 0-.045-.069-.241-.153-.436a2.48 2.48 0 0 1-.166-.505c-.03-.3-.31-.592-.677-.702-.205-.061-.374-.151-.374-.2 0-.048-.069-.087-.152-.087-.231 0-.94-.79-1.094-1.219-.086-.237-.14-.735-.145-1.337-.012-1.508.193-5.315.3-5.577.054-.13.229-.295.389-.367.16-.071.281-.18.269-.242-.013-.064.07-.112.194-.112a.48.48 0 0 0 .328-.134.748.748 0 0 1 .307-.193c.109-.033.32-.147.471-.254a7.27 7.27 0 0 1 .714-.423c.242-.126.517-.3.612-.388.095-.088.236-.16.314-.16.187 0 .177-.176-.054-.998-.168-.6-.188-.855-.15-1.944.027-.74.088-1.305.15-1.38.057-.069.225-.511.372-.982a55.5 55.5 0 0 1 .455-1.394c.11-.314.183-.74.176-1.025-.006-.268.036-.602.094-.741.098-.234.455-.481.696-.481.149 0 .487.415.553.679.098.388.276.468.648.29.442-.21.943-.601.943-.735 0-.06.129-.278.287-.484.208-.27.397-.404.687-.485.22-.062.43-.158.466-.214.036-.055.389-.265.783-.465s.835-.498.978-.662c.19-.216.34-.298.545-.298.242 0 .306-.051.432-.348.136-.317.625-.75 1.221-1.08.104-.058.258-.209.341-.336.187-.284.813-.792.978-.792.067 0 .265-.143.44-.318.189-.188.373-.297.452-.267.08.03.176-.025.236-.138.056-.104.18-.19.278-.19a.342.342 0 0 0 .267-.17c.118-.22.895-.587 1.12-.529.16.043.53-.242.53-.41 0-.097 1.184-.454 1.29-.388.048.029.136.012.197-.038.06-.05.367-.108.68-.13.314-.02.598-.065.63-.098.034-.033.213-.035.4-.005.205.033.548-.006.865-.098.542-.158 1.338-.173 1.62-.032.096.048.23.043.335-.014.126-.067.185-.063.211.015.028.082.106.08.327-.012.221-.092.35-.096.542-.019.138.056.58.143.98.195 1.511.192 1.865.256 2.274.412.23.088.42.196.42.24 0 .043.114.078.253.078.14 0 .342.062.45.138.11.076.354.152.546.169.191.017.62.158.951.313.332.156.709.31.838.342a.926.926 0 0 1 .392.233c.103.114.28.174.509.174.193 0 .35.035.35.077 0 .09.409.288.594.288.071 0 .285.107.475.237.42.285 1.43.767 1.61.767a.36.36 0 0 1 .234.126c.057.07.234.152.393.184s.353.112.431.179c.338.286 1.215.548 1.731.516.282-.017.594-.028.694-.025.15.005.984.01 3.37.015.096 0 .287-.08.425-.178.137-.097.295-.178.35-.178.055 0 .1-.037.1-.082 0-.045.206-.131.457-.192.289-.069.55-.207.707-.374.138-.145.291-.264.342-.263.05.001.488-.193.974-.431.594-.292.931-.516 1.032-.687.096-.163.226-.253.365-.253.12 0 .338-.102.488-.228.149-.125.297-.228.33-.228.032 0 .15-.086.26-.19a2.99 2.99 0 0 1 .567-.378c.543-.278.767-.478 1.078-.96.19-.295.287-.566.3-.845l.029-.568c.018-.337.635-.428.937-.138.19.182.916.479 1.098.448.092-.016.164.028.164.1 0 .086.08.114.25.09.139-.02.45.048.693.152.243.104.532.19.643.19.11 0 .362.082.559.182.197.1.49.183.652.183.161 0 .348.052.414.115.066.064.295.193.509.288.213.095.387.205.387.244 0 .04.123.145.272.233.149.088.313.265.365.393.051.128.179.385.283.572.17.304.18.389.087.834-.119.575-.875 1.68-1.324 1.935a2.91 2.91 0 0 0-.564.472 4.783 4.783 0 0 1-.776.627c-.268.172-.59.449-.716.615-.125.166-.526.558-.89.87-.364.313-.662.627-.662.698 0 .071.252.384.559.695.665.673 1.085 1.483 1.083 2.088-.002.556-.079.806-.268.866-.287.091-1.397-.119-1.66-.313-.14-.103-.318-.187-.396-.187-.079 0-.312-.113-.52-.252-.456-.304-.473-.313-.988-.548-1.125-.512-1.316-.514-1.845-.022a3.64 3.64 0 0 1-.802.553 19.18 19.18 0 0 0-.67.319c-.142.073-.307.132-.367.132s-.345.122-.633.272c-.466.241-.62.273-1.412.286a14.613 14.613 0 0 1-1.437-.045c-.62-.067-1.733-.341-2.028-.5a1.14 1.14 0 0 0-.452-.104c-.222 0-1.078-.359-1.87-.783-.409-.22-1.154-.168-1.551.108-.285.197-.354.308-.406.656-.052.345-.144.497-.52.858-.252.241-.524.44-.604.44-.615.004-2.049.729-2.271 1.148-.068.128-.324.26-.768.399-.366.114-.705.243-.753.288-.105.098-1.052.109-1.058.012-.002-.038-.208-.212-.456-.388-.248-.176-.451-.37-.452-.43-.003-.298-1.177-.552-1.518-.33-.147.096-.292.107-.594.043-.22-.047-.81-.133-1.312-.192-.502-.06-1.061-.146-1.243-.193a3.056 3.056 0 0 0-.628-.084c-.278 0-.457.037-1.415.295-.2.054-.653.231-1.004.394a7.03 7.03 0 0 1-1.141.41 6.685 6.685 0 0 0-1.482.551.851.851 0 0 1-.32.087.711.711 0 0 0-.338.137.723.723 0 0 1-.365.134c-.103 0-.39.103-.637.228-.247.126-.506.228-.576.228-.07 0-.259.097-.419.215-.277.205-1.344.516-1.768.516-.11 0-.222.036-.25.08-.027.044-.233.108-.456.142a2.12 2.12 0 0 0-.735.284c-.264.179-.445.224-.908.224-.402 0-.612.041-.691.136-.063.076-.243.139-.4.14-.503.005-.579.137-.591 1.032-.02 1.484-.669 2.713-1.753 3.322-.248.139-.451.319-.451.399 0 .182.248.405.547.492.215.061.555.213 1.872.836.3.142.747.393.99.556.244.164.49.298.548.298.057 0 .228.113.379.251.15.138.432.333.627.434.194.1.605.446.913.769.307.323.68.706.828.852.148.146.341.426.43.622.087.197.37.568.627.826l.469.468.636-.045c.468-.034.688-.095.837-.232.16-.147.293-.178.652-.15.321.026.519-.01.685-.12.128-.086.261-.148.296-.137.035.01.26-.025.502-.078.241-.053.685-.134.987-.18.3-.045.74-.117.977-.16.296-.054.535-.042.765.037.259.09.375.091.511.008.143-.086.198-.08.285.038.105.14.445.258.848.294a.696.696 0 0 1 .328.13c.075.063.277.138.448.166.613.104.71.134.841.265.288.288 2.057.344 2.246.07.066-.095.77-.35 1.194-.435.176-.034.566-.222.866-.417.301-.196.643-.355.76-.355.257 0 .482-.115.797-.407.131-.121.356-.246.499-.278.143-.031.313-.12.377-.198.123-.148.529-.345.654-.317.04.01.136-.046.212-.122a.51.51 0 0 1 .307-.139c.092 0 .182-.032.199-.072.046-.11.986-.475 1.223-.475.116 0 .235-.039.264-.086.078-.126.553-.347.893-.416a8.96 8.96 0 0 0 .822-.235c.29-.097.67-.176.845-.176.175 0 .319-.037.319-.081 0-.045.154-.11.342-.146a2.49 2.49 0 0 0 .57-.183c.51-.266 2.462-.777 2.97-.777.168 0 .331-.04.362-.091.031-.05.195-.091.365-.091.17 0 .419-.042.554-.094.135-.051.584-.105.999-.12.573-.02.792-.064.915-.187.11-.11.18-.129.224-.058.046.075.161.069.425-.022.245-.084.441-.098.608-.042a.87.87 0 0 0 .48.004c.129-.043.55-.052.936-.02.386.033.742.036.791.007.05-.03.933-.066 1.963-.082 1.498-.023 2.041-.067 2.717-.22.54-.124.844-.236.844-.313 0-.357.584-.108 1.187.507.19.195.385.313.483.293.09-.018.303.073.473.202.17.13.374.236.454.236.08 0 .226.041.325.091l.345.172a2.7 2.7 0 0 0 .55.145c.212.036.58.199.817.362.238.163.453.293.478.29.151-.027 1.46 1.168 1.46 1.333 0 .044.082.25.182.456.1.206.207.573.24.815.073.553-.084.82-.577.982-.303.1-.432.096-.848-.028a3.79 3.79 0 0 0-.879-.145c-.213 0-.492-.04-.618-.088-.202-.077-.257-.051-.437.202-.29.408-.706.769-1.079.937-.176.08-.381.184-.456.233-.46.297-1.396.656-1.826.698-.276.028-.547.086-.603.13-.055.043-.301.103-.547.133-.246.03-.559.133-.695.229a1.015 1.015 0 0 1-.482.173c-.13 0-.382.062-.562.137-.18.075-.42.137-.534.137a.468.468 0 0 0-.32.137c-.062.075-.154.137-.203.137-.05 0-.287.09-.528.2-.425.195-.44.217-.498.673-.064.513-.381.921-.776.997a.907.907 0 0 0-.357.168c-.081.07-.258.154-.393.186-.213.05-1.131.56-1.26.7-.2.213-.633.469-.934.55-.352.094-1.09.686-1.266 1.013-.066.124-.014.288.212.674l.415.71c.147.252.097 1.514-.08 2.024-.154.445-1.34 1.652-1.812 1.847-.178.073-.41.212-.513.308-.106.098-.348.184-.548.197-.197.012-.4.069-.45.127-.172.198-1.777.362-2.06.21-.128-.068-.25-.053-.461.056-.206.106-.4.13-.689.088-.22-.034-.534-.019-.695.033-.161.052-.643.118-1.07.149-.989.07-.997.07-1.323.046-.34-.024-2.124.066-2.373.12-.1.022-.368-.014-.594-.08zM32.9 209.964c.004-.106.026-.128.055-.055.027.066.023.144-.007.175-.03.03-.052-.024-.048-.12zm72.059-38.853c-.1-.06-.322-.12-.492-.132-.368-.025-.592-.222-1.252-1.097-.272-.36-.557-.719-.634-.796-.077-.077-.185-.274-.24-.439a1.752 1.752 0 0 0-.212-.436c-.124-.153-.185-.345-.364-1.141a13.58 13.58 0 0 0-.349-1.199 7.3 7.3 0 0 1-.291-1.14c-.036-.27-.096-.532-.133-.582-.037-.05-.12-.285-.183-.521-.143-.527-.07-.894.179-.894.098 0 .248-.107.333-.237a.917.917 0 0 1 .357-.313c.231-.088.77-.973.77-1.264 0-.107.034-.194.075-.194.078 0 .323-.73.428-1.278.095-.492.412-1.563.562-1.898.079-.177.177-.883.237-1.716.111-1.536.101-1.59-.426-2.212-.414-.488-1.45-1.203-1.744-1.203-.128 0-.256-.061-.285-.137-.029-.075-.126-.137-.215-.137-.09 0-.186-.09-.217-.205-.09-.334-.068-.418.126-.48.101-.032.164-.09.14-.13-.025-.04.31-.08.745-.09.435-.01.829-.041.875-.07.047-.029.116-.002.155.06.038.063.27.133.514.158.477.046 1.404.377 1.404.5 0 .041.116.075.259.075.289 0 .603.237 1.674 1.264.575.55.776.824 1.112 1.507.74 1.506.72 1.435 1.071 3.71.196 1.266.196 2.334.002 3.742l-.234 1.735c-.084.627-.212 1.26-.284 1.406-.073.145-.132.338-.132.428 0 .343-1.026 3.181-1.474 4.076-.365.729-.51.936-.655.936-.103 0-.271.079-.375.175-.25.234-.602.306-.827.17zm15.242-2.299a12.785 12.785 0 0 1-.523-.311c-.187-.117-.381-.186-.433-.154-.051.032-.12-.017-.154-.108a.518.518 0 0 0-.167-.23c-.058-.035-.226-.24-.372-.456a7.238 7.238 0 0 0-.312-.438 3.462 3.462 0 0 1-.228-.375c-.1-.182-.378-.618-.616-.969-.239-.351-.434-.683-.434-.737 0-.196-.514-.655-.798-.712-.318-.063-.512-.302-.716-.881-.108-.306-.115-.51-.035-1.088.053-.392.157-.855.23-1.03.09-.214.132-.653.132-1.348 0-.567.044-1.174.096-1.35.1-.33.256-1.407.331-2.282.037-.419.01-.546-.152-.753-.108-.138-.241-.25-.295-.25-.055 0-.234-.103-.398-.228-.165-.126-.34-.228-.39-.228-.049 0-.106-.052-.128-.114-.03-.09-.071-.087-.19.01-.089.074-.152.086-.152.03 0-.054-.195-.124-.433-.156a8.005 8.005 0 0 1-.886-.184c-.34-.094-.484-.1-.577-.021-.07.057-.297.12-.507.139-.21.019-.667.155-1.018.302-.35.147-.669.268-.707.268-.039 0-.07-.105-.07-.232 0-.24.615-.901.935-1.006.088-.03.16-.09.16-.138 0-.047.08-.085.177-.085.098 0 .205-.045.24-.1.034-.056.2-.159.37-.23.17-.07.308-.16.308-.199 0-.125.826-.325.926-.225.061.062.218.055.473-.02.33-.097.385-.15.41-.392a.65.65 0 0 0-.172-.51c-.346-.398-.789-1.276-1.455-2.888-.508-1.226-.52-1.34-.318-2.92.075-.585.012-.637-.64-.533-.545.087-.611.108-1.248.387a4.642 4.642 0 0 1-.818.239c-.266.05-.523.132-.573.181-.05.05-.2.09-.333.09a.902.902 0 0 0-.461.166c-.12.09-.403.217-.629.281a2.925 2.925 0 0 0-.611.245c-.11.07-.398.135-.64.143-.261.009-.522.08-.65.179-.116.09-.403.191-.638.225a3.8 3.8 0 0 0-.735.187c-.17.07-.438.126-.598.126-.16 0-.329.038-.377.083-.106.103-1.198.225-1.831.204-.257-.008-.605.043-.775.115-.215.09-.358.102-.476.04-.161-.087-1.49-.194-2.172-.175-.191.005-.378-.048-.443-.126-.062-.075-.263-.161-.446-.191a3.138 3.138 0 0 1-.756-.277c-.233-.121-.492-.22-.576-.22-.084 0-.128-.04-.098-.09.03-.048-.06-.115-.2-.148-.368-.086-1.181-.56-1.37-.8a.966.966 0 0 0-.322-.265c-.088-.034-.16-.103-.16-.155 0-.052-.035-.094-.078-.094-.09 0-.887-.803-1.272-1.278-.275-.341-1.389-2.201-1.389-2.32 0-.04-.074-.18-.164-.313-.196-.289-.773-1.79-.935-2.433a4.868 4.868 0 0 0-.272-.776c-.086-.176-.224-.607-.307-.959a62.11 62.11 0 0 0-.28-1.14 42.93 42.93 0 0 1-.283-1.187c-.083-.377-.208-.788-.277-.913-.121-.222-.521-1.096-.87-1.902-.214-.494-.226-1.307-.024-1.616.268-.408.815-.283 1.535.353.5.441 1.328 1.304 1.331 1.385.002.05.191.296.42.547.23.252.502.631.602.845.101.213.213.388.25.388.083 0 1.589 3 1.787 3.56l.45 1.288c.166.482.366 1.016.444 1.186.077.17.268.622.424 1.003.179.44.357.731.485.796.417.21 1.215.473 1.438.473.127 0 .325.067.441.148.13.09.375.143.637.136.234-.007.528-.01.653-.008 1.527.023 3.516-.026 3.636-.092.259-.14 1.478-.35 2.389-.411.843-.057 1.496-.185 1.695-.334.054-.04.218-.07.365-.066.147.004.678-.036 1.18-.089 1.561-.164 3.348-.19 3.892-.057.782.192 2.088.75 2.335.997.125.124.312.254.416.287.256.08 1.095.623 1.245.804.169.203.292.184.702-.105a6.4 6.4 0 0 1 .604-.38c.136-.07.358-.295.492-.5.25-.385.93-1.052 1.076-1.057.195-.006 1.736-1.758 2.266-2.576.156-.241.314-.439.35-.439.035 0 .118-.133.184-.296.066-.164.147-.318.18-.343.131-.1.818-1.48.818-1.643 0-.193-.252-.365-.532-.365-.243 0-.746-.485-.746-.718 0-.14.092-.215.365-.297.2-.06.365-.139.365-.175 0-.117.498-.167.624-.062.198.163 2.075.21 2.942.073.56-.089 1.344-.078 1.637.023a3.9 3.9 0 0 0 .593.087c.654.058 2.014.728 2.198 1.083.077.148.222.352.322.452.111.111.189.32.197.529.015.38-.211.787-1.14 2.048-.29.394-.527.786-.527.873 0 .087-.127.278-.282.426a2.759 2.759 0 0 0-.46.615c-.099.19-.239.37-.312.397-.073.028-.133.087-.133.13 0 .12-.774 1.286-1.018 1.534-.118.12-.381.345-.586.502-.91.696-1.556 1.22-1.843 1.494-.171.163-.347.297-.39.297-.089 0-1.004.722-1.366 1.076-.125.123-.398.34-.605.483-.207.143-.401.323-.43.4-.03.077-.135.14-.233.14-.112 0-.394.26-.752.692-.314.38-.687.75-.827.824-.141.072-.256.183-.256.246 0 .145-.403.586-.836.914-.183.14-.36.364-.395.5-.066.265-.296.567-.433.567-.046 0-.144.06-.218.135a1.578 1.578 0 0 1-.285.218c-.137.077-.136.104.013.33.117.179.213.233.35.197a.593.593 0 0 1 .37.047c.134.071.201.064.266-.028.06-.087.1-.092.13-.02.023.058.123.084.22.059.098-.026.278.019.4.099.123.08.4.172.617.205.217.033.456.11.531.173.075.062.441.272.813.467.829.434 1.869 1.432 2.284 2.19.57 1.042.892 3.014.699 4.28-.198 1.3-.268 1.663-.354 1.825-.052.1-.125.45-.161.776a5.92 5.92 0 0 1-.315 1.233c-.165.422-.29.997-.369 1.696-.092.814-.187 1.213-.416 1.734-.323.738-.501.997-.686.997-.108 0-.667.28-.902.451-.05.037-.174.022-.275-.033zm-4.05-38.88c-.136-.165-.43-1.332-.548-2.172a7.54 7.54 0 0 0-.289-1.219 9.335 9.335 0 0 1-.318-1.278 24.648 24.648 0 0 0-.586-2.601c-.106-.377-.275-.993-.378-1.37a10.803 10.803 0 0 0-.264-.867 3.054 3.054 0 0 1-.14-.547c-.032-.201-.096-.41-.14-.463-.045-.054-.146-.378-.225-.72-.08-.342-.324-.976-.543-1.408-.219-.433-.448-.95-.51-1.152-.061-.2-.185-.57-.276-.821a53.89 53.89 0 0 1-.494-1.506c-.182-.578-.39-1.235-.465-1.46-.463-1.408-1.034-3.908-1.23-5.386-.043-.327-.123-.86-.178-1.187a22.72 22.72 0 0 1-.178-1.689 24.702 24.702 0 0 0-.172-1.688 46.02 46.02 0 0 1-.33-2.921c-.087-1.205-.226-2.454-.32-2.876-.055-.25-.14-.929-.188-1.506a142.318 142.318 0 0 0-.471-4.518c-.156-1.311-.152-3.93.007-4.701.067-.326.154-.963.194-1.415.04-.452.117-1.006.172-1.232.16-.665.37-1.817.473-2.599.052-.4.132-.772.178-.827.045-.054.14-.323.213-.596.072-.273.173-.6.225-.725.143-.343.81-2.468.88-2.802.034-.161.135-.387.224-.503.09-.115.192-.332.228-.483.101-.427.647-1.77.958-2.36.155-.294.283-.602.284-.684.001-.083.085-.254.185-.379.243-.301 1.561-2.239 1.707-2.507.063-.115.288-.364.502-.553.213-.189.655-.583.981-.876 1.278-1.146 2.11-1.803 2.354-1.856.14-.03.369-.178.51-.327.14-.149.305-.27.365-.27s.271-.083.468-.183c.197-.1.405-.183.462-.183.057 0 .198-.082.314-.182.116-.1.261-.183.324-.183.062 0 .397-.14.744-.312s.793-.341.991-.377c.198-.036.403-.1.457-.14.127-.101.952-.33 2.322-.647.226-.052.657-.154.958-.227a8.47 8.47 0 0 1 .868-.166c.175-.018.627-.102 1.004-.187a9.09 9.09 0 0 1 1.232-.183c.58-.03.916-.078 1.14-.161.156-.057.988-.131 3.287-.292.427-.03.92-.086 1.095-.124.176-.038.521-.033.767.01.3.055.466.049.507-.017.04-.066 1.69-.116 5.121-.154 5.949-.068 5.37-.064 5.654-.039.313.028 2.248-.072 3.344-.172a27.747 27.747 0 0 1 1.76-.094c.473-.007.904-.04.958-.073.11-.068.694-.168 1.652-.282.351-.043.762-.14.912-.216.151-.077.338-.129.417-.116.078.012.489-.056.913-.153l1.135-.258c.2-.045.612-.17.913-.276.301-.106.703-.232.893-.28.19-.047.416-.124.502-.17a4.843 4.843 0 0 1 1.115-.416 4.26 4.26 0 0 0 1.095-.419c.076-.046.24-.128.365-.181a55.699 55.699 0 0 0 2.237-1.115c.83-.485 1.871-1.357 1.871-1.569 0-.123.884-1.487 1.188-1.833.507-.576 1.013-1.045 1.127-1.045.248 0 .543.51.793 1.37.066.225.148.451.182.501.034.05.086.36.115.69.036.397.131.734.286 1.004.284.498.306.989.052 1.206-.1.086-.183.213-.183.283 0 .07-.064.18-.142.245-.078.065-.198.251-.266.415-.147.35-1.387 1.68-1.567 1.68-.068 0-.299.17-.512.379-.466.455-1.275.99-1.502.992-.09.001-.267.082-.392.18-.126.099-.266.18-.313.181-.046.001-.15.062-.23.135-.081.073-.387.195-.68.272-.294.076-.586.182-.65.236-.115.095-2.062.708-2.509.79-.125.023-.639.138-1.14.255-1.143.267-2.002.405-2.857.457-.366.023-.7.063-.743.09-.043.026-.503.068-1.023.093-.52.026-1.357.075-1.859.11-1.138.078-3.937.076-7.85-.006-5.534-.115-9.365-.093-10.954.064-.803.08-1.665.162-1.916.184-.732.065-2.212.312-2.564.428a3.534 3.534 0 0 1-.751.13 5.352 5.352 0 0 0-.976.183c-.3.088-.841.214-1.2.28-.36.068-.73.163-.822.212-.206.11-1.407.47-1.567.47a.42.42 0 0 0-.225.093c-.061.05-.565.328-1.12.616a21.61 21.61 0 0 0-1.506.852c-.273.18-.784.508-1.136.727-.351.219-.727.482-.835.584-.108.102-.525.453-.925.78-.478.39-.844.78-1.066 1.14-.186.302-.496.774-.69 1.05-.195.276-.356.564-.358.64-.006.166-.251.846-.575 1.597-.279.644-.738 1.865-.765 2.035a1.185 1.185 0 0 1-.158.33c-.075.115-.177.41-.226.657-.049.245-.13.57-.181.72-.48 1.418-.545 2.117-.226 2.414.11.103.295.188.41.189.115 0 .263.035.327.076.173.11 1.214-.071 1.48-.257.125-.088.33-.183.456-.212.948-.217 1.53-.462 2.009-.844.075-.06.321-.137.547-.17.226-.033.822-.262 1.324-.509.502-.247 1.077-.489 1.278-.539.45-.11 1.025-.32 1.109-.405.034-.034.153-.062.264-.062a.462.462 0 0 0 .315-.137.429.429 0 0 1 .29-.137c.097 0 .296-.063.444-.139.147-.076.382-.152.522-.168a1.5 1.5 0 0 0 .445-.132c.105-.056.33-.117.501-.136.17-.019.412-.09.538-.159a1.5 1.5 0 0 1 .364-.147c.542-.086.738-.148.926-.293.118-.091.47-.218.78-.283.31-.065.585-.17.61-.234.024-.064.222-.143.439-.175.759-.112 1.218-.262 1.449-.475.128-.118.296-.215.374-.215.077 0 .21-.078.297-.173.121-.134.238-.163.516-.125.235.031.36.012.36-.055 0-.059.149-.104.342-.105.35 0 .917-.15 1.483-.393.176-.075.69-.223 1.141-.33.452-.106 1.17-.311 1.598-.456a13.067 13.067 0 0 1 1.323-.372c.301-.06.918-.213 1.37-.34 1.063-.3 1.843-.453 2.692-.531.377-.035.726-.094.776-.131.05-.037.646-.094 1.324-.126 1.1-.052 1.261-.04 1.506.11.151.092.55.26.888.372.337.112.81.303 1.05.425.239.121.487.221.55.221.192 0 1.063.482 1.19.658.067.09.175.164.24.164.067 0 .305.216.528.48.643.757.783 1.383.405 1.811-.115.13-.309.262-.43.292-.123.03-.469.12-.77.203-.301.082-.733.19-.958.242-.226.052-.555.13-.73.173-.371.091-1.605.361-1.872.41-.236.042-1.322.403-1.528.508-.087.044-.315.08-.506.08-.192 0-.391.043-.444.096-.053.052-.4.174-.771.27-1.336.347-1.632.447-2.272.768-.37.186-.786.327-.965.327-.173 0-.468.082-.655.182a2.72 2.72 0 0 1-.662.24c-.176.032-.362.088-.412.125-.05.037-.235.114-.411.17a1.994 1.994 0 0 0-.576.324c-.302.26-.27.28.677.415 1.185.168 3.9.942 4.235 1.207l.378.302c.158.126.326.23.374.23.048 0 .258.123.466.273.208.15.418.274.467.274.05 0 .153.122.23.271.077.15.217.312.31.362.15.08.263.276.558.965.148.345.16.696.043 1.306-.227 1.188-.757 1.883-1.995 2.619-.777.461-1.424.94-1.424 1.053 0 .048-.076.088-.169.088a.508.508 0 0 0-.315.162.684.684 0 0 1-.393.183.783.783 0 0 0-.369.122c-.067.056-.364.216-.66.356-.295.14-.565.299-.6.354-.033.055-.163.1-.288.1-.437 0-1.132.473-1.132.77 0 .162.856-.022 1.324-.284.72-.402 1.144-.598 1.482-.683.214-.054.39-.134.39-.178 0-.045.06-.08.133-.08.074 0 .328-.124.566-.275.237-.15.53-.274.65-.274s.323-.082.451-.182c.128-.1.279-.183.336-.183.058 0 .24-.123.404-.273.188-.172.399-.274.563-.274.145 0 .287-.039.316-.086.029-.047.288-.173.576-.28.287-.107.605-.27.705-.362.1-.091.398-.242.662-.334.264-.092.48-.2.48-.239 0-.039.318-.216.707-.394 1.099-.503 1.106-.507 1.165-.777.03-.14.113-.301.183-.36.164-.136.58-.18.65-.069.03.048.183.063.342.033.22-.041.326-.01.445.129a.57.57 0 0 0 .374.183c.12 0 .398.098.617.218.22.12.564.27.765.333.2.064.492.212.647.33.156.118.352.214.437.214.166 0 .556.22.8.452.081.078.282.244.445.37.164.125.364.304.445.396.08.093.279.315.44.493.313.347.464.929.342 1.315a2.44 2.44 0 0 1-.301.534c-.263.361-1.115 1.187-1.224 1.187-.135 0-1.712.924-1.712 1.004 0 .043-.092.108-.205.143-.113.035-.314.14-.448.234-.133.094-.311.17-.396.17-.085 0-.257.082-.383.18-.126.1-.38.208-.562.242a1.517 1.517 0 0 0-.588.274c-.14.117-.441.295-.668.395a6.43 6.43 0 0 0-.82.458c-.225.151-.52.303-.657.336a1.49 1.49 0 0 0-.465.229c-.12.093-.298.169-.396.169-.099 0-.284.082-.411.182-.128.1-.282.183-.343.183-.06 0-.185.082-.275.182-.091.1-.198.183-.236.183-.04 0-.33.119-.648.264a58.9 58.9 0 0 1-1.033.46 10.39 10.39 0 0 0-.698.329c-.304.167-.965.493-1.265.624-.125.055-.33.167-.456.248-.58.376-.83.513-1.58.87-.443.21-.874.443-.959.518-.085.075-.349.202-.587.281-.238.08-.665.27-.948.42-.284.152-.567.276-.629.276-.062 0-.16.058-.22.128-.135.164-1.027.602-1.225.602-.083 0-.15.035-.15.078 0 .042-.155.145-.343.229-.188.083-.63.315-.981.513-.867.49-1.195.64-1.402.64-.097 0-.199.06-.226.13-.027.072-.206.198-.398.28-.191.082-.594.268-.895.413-.57.273-1.454.527-2.122.61-.214.025-.388.083-.388.129 0 .125-.579.097-.925-.044-.175-.072-.386-.097-.49-.059-.107.04-.316.01-.502-.07-.594-.253-1.277-.476-1.461-.476-.069 0-.21-.074-.313-.165-.104-.091-.374-.243-.6-.337-.225-.094-.475-.225-.554-.29-.08-.066-.172-.12-.206-.12s-.136-.072-.229-.16a2.893 2.893 0 0 0-.387-.297c-.12-.075-.659-.572-1.196-1.104-.717-.71-1.04-1.104-1.21-1.478-.26-.568-.302-1.081-.102-1.248.215-.178 1.761-.157 2.177.03.3.134.378.138.593.03.726-.367 1.157-.563 1.245-.564.054 0 .333-.159.62-.35.287-.193.56-.327.606-.298.046.028.151-.05.233-.176a.458.458 0 0 1 .413-.227c.145 0 .278-.031.295-.069.091-.206.672-.579.836-.536.216.057.43-.047.74-.356.124-.124.3-.226.39-.226.09 0 .281-.062.425-.137.144-.075.336-.137.428-.137.092 0 .19-.036.217-.08.027-.045.225-.168.439-.275.214-.106.45-.228.526-.271.474-.27.713-.365.77-.308.036.036.105-.006.154-.093.049-.088.129-.16.178-.16.049 0 .298-.143.553-.319.256-.176.511-.325.569-.331l.287-.032a1.7 1.7 0 0 0 .457-.16c.15-.077.406-.168.57-.204.164-.035.502-.225.75-.422.25-.196.494-.357.544-.357.05 0 .246-.066.436-.147l.62-.261c.704-.293 1.232-.665 1.232-.867 0-.144-.127-.173-.309-.07a1.095 1.095 0 0 1-.376.12c-.236.017-1.675.208-2.353.312-.38.058-.721.044-1.214-.05-1.009-.193-1.709-.635-2.232-1.41a5.407 5.407 0 0 0-.471-.588c-.141-.148-.257-.304-.257-.348 0-.043-.266-.337-.593-.652-.326-.315-.593-.605-.593-.643 0-.04-.116-.22-.258-.403-.465-.6-.672-1.456-.663-2.732.009-1.247-.057-1.384-.504-1.033-.133.105-.301.192-.373.192-.234 0-1.072.299-1.32.47-.133.093-.287.169-.342.169-.055 0-.36.123-.68.273-.318.151-.604.274-.635.274-.031 0-.251.123-.488.274-.238.15-.524.274-.637.274-.113 0-.229.038-.257.084-.06.098-.923.406-1.191.425a3.31 3.31 0 0 0-.457.082 1.99 1.99 0 0 1-.456.061l-.958-.054a30.698 30.698 0 0 0-1.021-.047c-.135 0-.271-.043-.302-.094-.032-.05-.154-.092-.273-.092-.118 0-.332-.06-.474-.135a8.66 8.66 0 0 0-.623-.281 4.572 4.572 0 0 1-.502-.23 18.426 18.426 0 0 0-.594-.324c-.25-.132-.477-.266-.502-.297a5.014 5.014 0 0 0-.456-.343 9.671 9.671 0 0 1-.822-.661c-.225-.207-.451-.362-.502-.346-.17.057-.232.927-.174 2.48.04 1.063.098 1.631.187 1.804.077.15.144.616.164 1.141.019.489.077 1.32.13 1.847.125 1.254.11 5.306-.022 6.094-.061.361-.081.992-.049 1.528.034.561.02.983-.039 1.096-.12.233-.091 4.015.033 4.246.05.093.09.374.09.625s.04.564.09.696c.05.13.134.596.186 1.032l.182 1.525c.178 1.488.348 2.563.445 2.812.056.142.1.66.1 1.152 0 .492.045 1.115.098 1.386.053.27.111 1.272.13 2.226.017.954.054 1.796.082 1.871.028.075.093.56.144 1.076.051.516.155 1.058.23 1.205.077.146.139.442.14.658 0 .216.148 1.091.329 1.945.18.853.366 1.773.413 2.045.047.271.104.525.128.562.058.094.292 1.387.362 2.002.115 1-.26 2.24-.883 2.922-.277.304-.372.33-.522.149zm-20.696-.337a1.719 1.719 0 0 1-.735-.496c-.254-.294-.304-.424-.304-.793 0-.243.031-.441.07-.441.038 0 .142-.277.231-.616.09-.34.24-.883.334-1.21.232-.804.558-2.5.831-4.336.045-.3.141-.773.214-1.05.072-.275.18-.953.238-1.505.06-.553.148-1.138.197-1.302.05-.163.106-.636.126-1.05.02-.413.077-1.245.127-1.847.05-.603.118-1.61.15-2.237.068-1.306-.105-5.32-.255-5.933a6.189 6.189 0 0 1-.118-1.05 4.648 4.648 0 0 0-.25-1.323 25.64 25.64 0 0 1-.385-1.233 22.718 22.718 0 0 0-.564-1.618c-.228-.59-.466-1.267-.53-1.506-.064-.24-.286-.794-.494-1.232-.208-.439-.379-.831-.379-.873 0-.151-.442-.99-.584-1.107a.484.484 0 0 1-.146-.33 1.27 1.27 0 0 0-.131-.469c-.072-.142-.22-.484-.328-.76a16.77 16.77 0 0 0-.494-1.096 9.068 9.068 0 0 1-.46-1.114c-.088-.286-.238-.59-.332-.676a.562.562 0 0 1-.172-.358c0-.193-.136-.588-.408-1.183-.36-.79-.976-2.41-1.283-3.378a30.823 30.823 0 0 0-.548-1.597 15.258 15.258 0 0 1-.343-.959 50.758 50.758 0 0 0-.84-2.327 55.675 55.675 0 0 1-.37-1.004c-.408-1.14-.47-1.301-.73-1.913-.138-.324-.342-.686-.452-.806-.184-.198-.233-.208-.57-.118-.202.055-.419.16-.48.236a.454.454 0 0 1-.31.136.778.778 0 0 0-.377.126c-.1.07-.427.194-.728.278l-.913.252c-.2.055-.43.156-.51.224a.651.651 0 0 1-.364.125 1.31 1.31 0 0 0-.491.141 2.52 2.52 0 0 1-.678.197c-.224.03-.637.172-.917.314-.28.142-.59.26-.691.262-.1.002-.347.105-.548.229-.2.123-.447.225-.547.225-.1 0-.443.124-.762.274-.318.15-.618.274-.666.274-.049 0-.276.086-.506.19-.23.105-.566.214-.748.243-.182.028-.351.081-.376.117-.062.088-1.156.54-1.54.637-.17.042-.353.121-.407.175a.477.477 0 0 1-.293.099c-.107 0-.219.024-.248.053-.03.03-.375.167-.768.305-.631.223-1.017.385-2.084.877-.15.07-.438.153-.64.187-.2.033-.492.137-.649.232-.156.094-.364.171-.46.171a.45.45 0 0 0-.264.081c-.117.11-1.604.763-1.777.78-.076.009-.322.1-.547.204-.226.104-.562.257-.748.34-.186.084-.364.193-.396.244-.031.051-.13.07-.219.041-.195-.062-.412.17-.338.363.03.076.127.138.218.138s.246.056.345.124c.1.069.304.148.454.177.151.03.459.095.685.146.226.05.66.094.963.097.304.002.594.045.645.097.052.051.378.118.726.148.826.072 3.23.772 3.31.964.017.04.09.073.163.073.072 0 .156.061.184.136.03.076.151.137.271.137.121 0 .219.055.219.122s.102.176.227.243c.328.175.491.469.694 1.243.15.575.162.74.071 1.042-.059.198-.183.428-.276.512-.177.16-.233.58-.077.58a.09.09 0 0 0 .091-.09c0-.05.117-.092.259-.092.142 0 .287-.028.322-.063a.577.577 0 0 1 .253-.092c.105-.016.3-.09.432-.162.132-.074.394-.194.583-.269.188-.074.342-.177.342-.228 0-.14 1.082-.63 1.55-.704.226-.035.462-.116.526-.18.134-.134.668-.077 1.044.113.269.135 1.112.992 1.362 1.384.086.136.407.508.713.828.665.695.953 1.272.893 1.792-.036.314-.147.467-.79 1.096-.413.401-.88.858-1.038 1.015-.296.292-1.11.765-1.316.765-.063 0-.114.043-.114.096 0 .053-.299.233-.664.399-.365.166-.72.37-.787.451a.491.491 0 0 1-.335.149c-.274 0-.657.148-.83.32-.074.075-.253.136-.396.136-.142 0-.273.034-.29.074-.054.132-1.018.565-1.258.566-.128 0-.357.076-.508.168-.152.093-.44.198-.64.234-.2.036-.51.162-.69.28-.18.117-.753.34-1.273.496-.52.156-.968.317-.996.36-.028.042-.297.151-.598.243-.302.092-.63.221-.728.288a.836.836 0 0 1-.397.121c-.118 0-.32.082-.448.183-.138.108-.37.182-.572.182a.998.998 0 0 0-.573.183c-.128.1-.32.182-.428.182a1.2 1.2 0 0 0-.442.126 2.71 2.71 0 0 1-.56.194c-.173.037-.371.124-.44.193-.07.07-.305.126-.524.126-.232 0-.455.057-.535.137a.48.48 0 0 1-.28.137c-.079 0-.144.041-.144.091 0 .05-.1.092-.222.092-.123 0-.246.036-.273.08-.028.046-.164.108-.302.14-.53.123-1.908.538-2.183.658a1.503 1.503 0 0 1-.458.126c-.093 0-.395.087-.67.193-.793.305-1.468.533-1.535.52-.166-.036-.827.149-1.105.307-.177.102-.533.192-.821.209-.684.04-1.66.203-1.981.333-.215.086-.66.151-1.266.184-.726.04-3.482-.144-3.88-.258-.276-.08-.512-.139-.525-.13-.013.007-.239-.096-.502-.229-1.335-.675-2.257-1.8-2.28-2.781-.009-.38.032-.495.257-.733l.266-.283 1.004.07a19.73 19.73 0 0 0 1.324.055c.456-.02 1.29-.286 1.512-.484.104-.092.256-.168.34-.168.082 0 .344-.123.582-.274.237-.15.474-.274.526-.274.052 0 .3-.099.553-.22.898-.431 1.3-.601 1.426-.601.07 0 .365-.144.656-.32.292-.175.561-.32.6-.32.215 0 1.014-.294.974-.358-.026-.042.132-.121.35-.176.218-.055.449-.163.512-.24a.452.452 0 0 1 .31-.137c.18 0 1.085-.358 2.219-.879.26-.12.514-.217.563-.217.05 0 .226-.069.394-.153l.542-.272c.131-.065.26-.096.287-.07.026.027.436-.138.91-.367.473-.229.948-.416 1.054-.416.106 0 .218-.041.25-.092.03-.05.147-.09.26-.09.111 0 .364-.083.56-.183.198-.1.406-.183.464-.183.058 0 .21-.082.337-.182a.967.967 0 0 1 .51-.183c.152 0 .302-.041.333-.091.03-.05.117-.092.191-.092.075 0 .224-.082.332-.182.21-.197.177-.214-.354-.186-.158.008-.313-.026-.344-.076-.05-.08-.3-.108-1.01-.11a.97.97 0 0 0-.365.091c-.247.125-1.886.39-2.512.406-.276.007-.553.046-.614.085-.2.128-1.05-.17-2.043-.716-.311-.171-.768-1.041-.91-1.737-.094-.454-.092-.63.01-.973.12-.406.556-1.15.64-1.09.023.015.154-.014.291-.066.196-.075.335-.06.64.072.215.092.446.234.513.315.068.08.242.207.387.28.244.12.273.117.361-.049.102-.19-.037-1.123-.196-1.32-.045-.055-.045-.22.002-.38.103-.36-.018-.91-.237-1.08-.249-.194-.64-.365-1.354-.594-.352-.112-.7-.254-.776-.315a2.985 2.985 0 0 0-.42-.254c-.154-.079-.504-.377-.775-.662-.272-.285-.56-.586-.642-.667a2.25 2.25 0 0 1-.31-.467 3.612 3.612 0 0 0-.417-.615c-.22-.252-.63-1.33-.63-1.656a.714.714 0 0 0-.11-.28c-.115-.183-.115-.18.273-.993.08-.166.23-.347.333-.401a.807.807 0 0 0 .247-.19c.096-.147 1.783.065 2.398.301.516.198.56.2.959.064.23-.08.685-.17 1.01-.203.614-.06 1.256-.208 1.416-.325.05-.037.32-.11.602-.161a7.73 7.73 0 0 0 1.05-.292c.296-.11.786-.25 1.09-.31.303-.062.652-.177.776-.255.123-.078.412-.168.642-.2.23-.032.886-.225 1.46-.427 1.143-.404 1.33-.46 2.139-.635.3-.065.628-.173.727-.239a.812.812 0 0 1 .383-.12c.111 0 .225-.037.252-.082.028-.044.205-.109.394-.143.188-.034.692-.186 1.119-.336 1.293-.456 1.841-.626 2.015-.626.09 0 .188-.038.216-.083.028-.046.287-.152.576-.237.288-.085.607-.188.707-.229.1-.04.42-.118.712-.171.291-.054.592-.16.668-.236a.523.523 0 0 1 .317-.14c.098 0 .452-.124.787-.276.455-.206.773-.445 1.256-.944.427-.44.769-.71 1.002-.786.424-.14 1.525-.071 1.817.114.117.074.526.135 1.017.151l1.324.045c.276.01.626.077.776.15.15.072.428.119.616.103.307-.025.342-.054.342-.284 0-.14-.102-.407-.228-.591-.125-.185-.228-.375-.228-.421 0-.047-.082-.23-.183-.41-.1-.178-.182-.377-.182-.44 0-.064-.062-.196-.137-.294-.294-.382-.594-.876-.596-.981 0-.06-.165-.288-.363-.504a5.146 5.146 0 0 1-.508-.642c-.08-.137-.488-.473-.904-.747-.417-.275-.827-.613-.911-.752-.107-.177-.282-.287-.579-.366-.297-.078-.59-.263-.974-.617a10.27 10.27 0 0 0-1.162-.898c-.336-.215-.66-.45-.718-.52-.06-.072-.207-.13-.328-.13-.12 0-.243-.062-.272-.137-.03-.076-.13-.137-.226-.137-.095 0-.172-.04-.172-.09 0-.049-.103-.115-.229-.147-.125-.031-.228-.093-.228-.138 0-.045-.053-.082-.117-.082-.129 0-.378-.124-1.48-.738-.402-.224-.915-.466-1.141-.537a3.508 3.508 0 0 1-.593-.242c-.1-.062-.44-.165-.754-.229-.313-.063-.57-.159-.57-.212 0-.052-.134-.102-.297-.11-.4-.019-1.19-.196-1.812-.406-.28-.095-.63-.177-.775-.182a59.964 59.964 0 0 1-2.202-.213.362.362 0 0 1-.175-.08c-.035-.034-.213-.063-.395-.063-.183 0-.377-.045-.432-.1-.054-.054-.381-.116-.725-.138a8.706 8.706 0 0 1-.9-.095c-.347-.072-2.276-.144-3.88-.145-1.205 0-1.868.045-2.419.167-.15.033-.766.09-1.369.128-.602.038-1.26.12-1.46.184-.201.063-.495.12-.653.125-.159.006-.268.044-.243.085.025.04-.153.069-.397.063a8.681 8.681 0 0 0-1.126.09c-1.4.202-1.615.213-2.967.15-.845-.038-.987-.058-1.688-.238a29.17 29.17 0 0 0-.73-.177c-.436-.097-1.462-.677-1.746-.987-.304-.33-.628-.905-.628-1.111 0-.328.365-.366.91-.094.278.138.67.303.87.367.51.162 2.158.137 2.863-.043.316-.081.671-.148.789-.148a.55.55 0 0 0 .34-.125c.111-.112.547-.246 1.257-.388.416-.083 2.326-.698 2.414-.778.048-.043.185-.078.306-.078.12 0 .418-.1.661-.222.243-.122.63-.25.858-.284.229-.034.416-.099.416-.143 0-.045.074-.081.164-.081.09 0 .204-.037.251-.082.133-.125 1.348-.375 1.822-.375.232 0 .495-.039.585-.087.09-.048.59-.153 1.112-.234.522-.08 1.196-.186 1.497-.235 1.329-.217 8.165-.276 8.41-.073.066.055.255.053.514-.005.314-.07.524-.06.9.047.27.077.881.183 1.358.238.477.054 1.01.17 1.187.255.175.087.524.208.775.27.251.062.642.188.868.279.226.091.595.216.821.277.226.06.555.185.73.276.176.09.525.215.776.276.251.061.518.163.594.225.18.15.96.5 1.115.5.156 0 1.144.656 2.262 1.503.226.172.575.395.776.497.2.102.565.351.808.553.244.202.472.368.506.368.035 0 .338.265.674.59.336.325.724.652.863.728.139.076.334.211.435.3.213.19.685.806.685.896 0 .034.201.282.448.552.256.28.639.873.893 1.382.244.49.551 1.097.682 1.348.603 1.159 1.203 2.493 1.402 3.119.12.377.255.733.3.792.047.058.137.331.2.607.065.276.173.583.24.682.069.1.125.24.125.313 0 .072.058.197.129.276.07.08.219.39.329.692a74.524 74.524 0 0 0 .638 1.689c.106.276.288.769.405 1.095.117.326.325.88.462 1.232.205.525.658 1.788 1.308 3.651.053.151.156.48.23.73.15.515.62 1.637.873 2.088.092.164.196.425.23.58.034.154.264.686.511 1.18.248.495.45.945.451 1.002.002.147.44.91.598 1.04.074.062.134.16.134.217 0 .13.52 1.144.682 1.333.065.075.316.548.557 1.05.242.502.487.974.545 1.05.058.075.24.465.404.867.324.796.533 1.207.71 1.396a.486.486 0 0 1 .117.276c.002.084.107.359.234.61.127.25.291.651.365.89.075.238.168.433.208.433.076 0 .377 1.136.377 1.42 0 .09.066.236.146.325.173.19.28.86.408 2.545.05.678.112 1.397.136 1.598.024.2.06 1.063.079 1.917.042 1.852.19 3.977.31 4.444.049.191.054.509.012.733-.04.218-.045 1.052-.01 1.854.045 1.03.028 1.725-.058 2.37-.067.503-.15 1.468-.186 2.146-.035.677-.097 1.285-.139 1.35-.04.065-.11.414-.154.776-.098.818-.326 2.094-.442 2.472a9.574 9.574 0 0 0-.192.924 11.18 11.18 0 0 1-.24 1.095c-.073.251-.198.683-.276.959a5.29 5.29 0 0 1-.225.66.774.774 0 0 0-.082.291c0 .12-.42.927-.87 1.669-.098.16-.272.316-.388.345-.115.029-.187.09-.159.136.083.132-.401.523-1.003.81-.694.333-1.718.415-2.383.193z" style="fill:#000;stroke-width:.0912804"/>
</svg>
