<svg xmlns="http://www.w3.org/2000/svg" xml:space="preserve" width="210mm" height="297mm" viewBox="0 0 210 297">
  <path d="M197.73 289.826c0-.066.052-.089.115-.05.063.039.114.093.114.12 0 .028-.051.051-.114.051s-.114-.054-.114-.12zm-142.742-2.721c0-.087-.364-.227-.656-.253-.047-.004-.157-.067-.244-.139a.596.596 0 0 0-.305-.133c-.237-.003-.736-.496-.736-.729 0-.162-.112-.232-.457-.287-.251-.04-.457-.124-.457-.186s-.077-.113-.171-.113c-.094 0-.171-.051-.171-.114 0-.166-.657-.14-.717.028-.028.079-.091.106-.14.06-.05-.045-.024-.16.055-.257.088-.106.098-.174.024-.174-.066 0-.136-.113-.156-.252-.023-.155-.147-.283-.322-.331-.157-.043-.217-.084-.134-.09.165-.013-.446-.866-.814-1.137-.115-.085-.182-.226-.149-.314.036-.092-.01-.16-.106-.16-.19 0-.218-.13-.063-.29a.742.742 0 0 0 .143-.329c.02-.12.144-.337.274-.48.13-.142.356-.493.503-.779.198-.386.334-.52.527-.52a.699.699 0 0 0 .43-.17.66.66 0 0 1 .404-.172c.128 0 .286-.1.35-.22a.697.697 0 0 1 .347-.294c.126-.04.229-.162.229-.272 0-.109.143-.35.318-.534.175-.185.412-.567.526-.85.114-.282.247-.592.295-.689.048-.096.123-.336.167-.533.043-.196.147-.384.232-.416.084-.033.19-.23.236-.438.046-.209.18-.446.297-.528a.566.566 0 0 0 .213-.413c0-.145.103-.395.23-.556.126-.16.316-.566.422-.9.106-.335.235-.638.287-.674.112-.078.545-1.236.545-1.457 0-.086.07-.318.157-.516.086-.198.225-.59.309-.873.084-.283.184-.54.221-.571.09-.076.304-.657.398-1.085.041-.189.142-.42.223-.514.081-.094.184-.372.228-.616.044-.245.148-.553.231-.685.084-.133.19-.42.235-.639.046-.219.154-.45.24-.514.086-.063.167-.253.18-.421.014-.168.056-.287.094-.263.111.068.567-1.51.571-1.976.002-.233.075-.52.163-.635.088-.116.193-.424.235-.685.04-.261.178-.809.304-1.217.127-.408.321-1.106.433-1.55.218-.87.432-1.568.592-1.933.205-.468.478-1.85.498-2.527.015-.514.08-.763.242-.937.121-.13.285-.56.364-.956a9.61 9.61 0 0 1 .267-1.061c.068-.189.182-.6.253-.914.071-.314.17-.634.22-.711.05-.077.113-.444.14-.815.027-.37.106-.822.174-1.002.193-.503.467-1.527.563-2.097.107-.632.435-1.918.57-2.226.054-.126.129-.48.165-.788.037-.308.112-.616.167-.685.134-.168.47-1.87.47-2.379 0-.222.078-.467.172-.545.13-.108.171-.399.171-1.2 0-.716.055-1.163.17-1.385.094-.18.173-.455.176-.612a1.43 1.43 0 0 1 .168-.571c.32-.562.126-.882-.57-.94a.838.838 0 0 1-.48-.228c-.102-.111-.276-.203-.388-.203-.111 0-.235-.102-.275-.228-.046-.144-.173-.228-.343-.228-.17 0-.36-.128-.514-.343-.134-.188-.333-.343-.442-.343-.227 0-1.27-.633-1.27-.772 0-.05-.167-.188-.372-.305-.204-.116-.62-.462-.923-.766-.304-.305-.624-.555-.71-.555-.086 0-.214-.106-.284-.237-.07-.13-.431-.541-.803-.913-.372-.372-.677-.774-.677-.892s-.202-.398-.45-.621c-.255-.23-.497-.58-.56-.811a2.398 2.398 0 0 0-.35-.707c-.131-.167-.239-.4-.239-.517 0-.118-.099-.432-.22-.699-.473-1.033-.579-1.388-.579-1.933 0-.31-.052-.662-.116-.78-.27-.505-.398-1.869-.396-4.223 0-2.301.02-2.517.295-3.454.162-.55.328-1.034.37-1.076.041-.041.075-.147.075-.234 0-.087.257-.692.571-1.345.314-.653.571-1.23.571-1.281 0-.052.187-.376.415-.72.388-.587.858-1.491 2.724-5.25.421-.848.832-1.67.914-1.827.082-.157.318-.671.526-1.142.208-.471.548-1.084.755-1.36.207-.278.377-.586.378-.686.002-.22.268-1.003.378-1.113.08-.08.638-1.238.954-1.98.093-.22.217-.489.274-.598a.924.924 0 0 0 .105-.343c0-.079.152-.427.338-.772.186-.345.34-.713.343-.817.002-.104.1-.387.216-.628.273-.565.459-1.085.667-1.867.092-.345.261-.833.377-1.084.115-.252.274-.755.353-1.12.078-.363.185-.687.238-.72.052-.032.095-.145.095-.251 0-.106.153-.579.339-1.05.186-.47.34-1.01.341-1.199.002-.188.078-.574.168-.856.091-.283.222-.822.292-1.2.07-.376.265-1.121.432-1.655.4-1.275.508-2.693.519-6.795.007-2.846-.026-3.528-.235-4.853-.395-2.51-.5-3.004-.727-3.45a2.291 2.291 0 0 1-.22-.856c0-.238-.155-.791-.342-1.229-.186-.438-.34-.865-.34-.948 0-.084-.179-.492-.399-.906-.22-.414-.4-.816-.4-.893 0-.077-.074-.202-.165-.277-.09-.076-.254-.378-.363-.671a5.805 5.805 0 0 0-.52-1.01c-.177-.263-.322-.506-.322-.54 0-.033-.155-.28-.346-.55-.19-.269-.56-.797-.82-1.174-.262-.377-.54-.737-.619-.8-.079-.062-.4-.448-.712-.856a27.333 27.333 0 0 0-.87-1.085c-.734-.832-.972-1.132-.972-1.224 0-.053-.231-.322-.514-.597-.283-.275-.515-.543-.516-.595-.003-.115-.856-.838-.99-.838-.05 0-.324-.244-.606-.543a33.154 33.154 0 0 0-1.207-1.187c-.381-.355-.778-.774-.882-.932-.123-.19-.26-.269-.4-.233-.15.04-.301-.076-.527-.4-.219-.317-.549-.573-1.077-.835a6.686 6.686 0 0 1-1.389-.987c-.345-.334-.782-.683-.97-.775-.532-.259-.784-.424-1.09-.712-.154-.146-.543-.39-.863-.542-.32-.152-.706-.383-.857-.512l-.545-.469a2.91 2.91 0 0 0-.646-.39 1.833 1.833 0 0 1-.62-.468c-.22-.28-.27-.296-.488-.16-.202.125-.262.125-.365-.006-.158-.202-.83-.685-1.25-.9-.181-.092-.41-.336-.508-.543-.103-.216-.242-.352-.325-.32-.182.07-1.433-.49-1.556-.695-.05-.085-.142-.153-.203-.153-.062 0-.372-.206-.69-.457-.318-.251-.702-.457-.853-.457-.169 0-.276-.066-.276-.171 0-.105-.107-.171-.277-.171-.178 0-.304-.083-.35-.229-.051-.159-.173-.228-.402-.228-.181 0-.37-.07-.42-.153-.051-.085-.246-.248-.435-.364a2.964 2.964 0 0 1-.456-.332c-.126-.134-.786-.575-1.456-.972-.236-.14-.429-.3-.429-.357 0-.057-.334-.318-.742-.58-.408-.262-.742-.513-.742-.557 0-.045-.336-.277-.746-.517s-.993-.67-1.297-.957c-.882-.833-1.421-1.28-1.7-1.41a.673.673 0 0 1-.327-.39c-.037-.15-.229-.352-.426-.451-.196-.1-.833-.664-1.414-1.255-.58-.59-1.056-1.04-1.056-.998 0 .041-.119-.1-.264-.312a7.203 7.203 0 0 0-.6-.741c-.541-.571-1.118-1.324-1.346-1.756a3.977 3.977 0 0 0-.472-.688c-.143-.157-.362-.517-.487-.8-.124-.282-.361-.638-.527-.79-.165-.152-.3-.339-.3-.414 0-.076-.073-.198-.162-.272-.09-.073-.272-.35-.407-.613a26.652 26.652 0 0 0-.578-1.05c-.183-.315-.334-.666-.336-.782-.001-.116-.098-.347-.216-.514a2.496 2.496 0 0 1-.293-.56c-.044-.142-.128-.257-.186-.257-.059 0-.107-.092-.107-.204 0-.113-.102-.406-.228-.653-.126-.246-.228-.514-.228-.595 0-.08-.052-.147-.115-.147-.062 0-.114-.105-.114-.233s-.187-.783-.415-1.456c-.4-1.18-.736-2.373-.97-3.45a4.33 4.33 0 0 0-.335-.93c-.123-.23-.191-.5-.153-.6.039-.1.015-.183-.053-.183-.076 0-.097-.13-.055-.342.038-.188.016-.407-.047-.485-.064-.079-.154-.529-.2-1a11.7 11.7 0 0 0-.241-1.461 6.333 6.333 0 0 1-.165-1.256c-.006-.439-.038-.577-.098-.423l-.089.228-.064-.228c-.036-.126-.068-.973-.073-1.884-.01-2.035-.196-6.047-.286-6.137-.036-.036-.017-.124.042-.196.06-.071.124-.885.142-1.809.019-.923.067-1.679.108-1.679.06 0 .036-1.27-.027-1.484-.01-.032-.056.097-.104.285l-.087.343-.012-.4c-.015-.491.094-.93.213-.856.049.03.072-.318.052-.772-.023-.509-.005-.695.046-.485l.083.343.1-.343c.054-.188.086-.437.07-.553-.014-.117.04-.37.12-.564.111-.27.113-.363.008-.398-.083-.027-.136-.277-.135-.635.001-.374.038-.533.1-.435.067.105.123.115.175.03.098-.158.317-1.784.305-2.262-.005-.2.062-.435.15-.522.158-.159.304-1.341.164-1.341-.04 0-.048-.103-.015-.228.033-.126.105-.229.16-.229.056 0 .102-.176.102-.391 0-.216.083-.476.186-.578.148-.148.171-.319.113-.836-.044-.398-.033-.589.03-.492.08.123.123.098.194-.114.05-.15.079-.36.063-.466-.015-.107.079-.3.21-.43.16-.162.233-.375.226-.664-.014-.57.154-1.339.293-1.339.061 0 .112-.103.112-.228 0-.126.106-.408.236-.628.314-.532.52-1.142.433-1.282-.039-.063 0-.159.087-.214.114-.072.118-.1.015-.101-.079-.001-.14-.118-.135-.259.008-.244.013-.245.101-.028.084.205.101.193.173-.115.169-.725.398-1.324.574-1.5.123-.123.161-.287.115-.498-.047-.215-.008-.375.123-.507.144-.144.16-.226.063-.323-.19-.19-.161-.463.042-.385.116.044.171-.005.171-.152 0-.12.109-.295.242-.388.169-.118.26-.334.301-.72.051-.467.138-.625.57-1.036.465-.443.506-.526.467-.943-.024-.25-.01-.456.032-.456s.108-.127.147-.282a.712.712 0 0 1 .298-.404c.154-.082.228-.24.229-.489 0-.247.034-.317.1-.213.07.113.117.072.173-.153.049-.193.135-.285.231-.248.106.04.136-.01.096-.16-.031-.122.026-.347.127-.502.102-.155.185-.393.185-.53 0-.136.113-.433.252-.66.382-.625 1.354-1.84 1.471-1.84.057 0 .104-.2.104-.444 0-.347.05-.456.228-.503.176-.046.229-.156.229-.478 0-.366.028-.41.228-.346.185.06.228.02.228-.203 0-.151.103-.368.229-.482.125-.113.228-.276.228-.36 0-.085.072-.154.16-.154.088 0 .273-.217.411-.482.139-.266.35-.552.469-.635.119-.083.216-.229.216-.323 0-.095.052-.14.115-.101.062.039.114-.004.114-.094s.077-.228.171-.306a.578.578 0 0 0 .171-.394c0-.187.066-.25.253-.243.168.006.305-.097.406-.305.084-.173.202-.314.261-.314.06 0 .108-.11.108-.245s.105-.353.233-.485c.537-.555 1.347-1.649 1.275-1.721-.043-.043.01-.129.12-.19a.425.425 0 0 0 .2-.334c0-.122.076-.223.17-.223.095 0 .172-.047.172-.106s.099-.138.22-.176c.122-.039.252-.213.29-.388.04-.18.289-.5.58-.742.28-.234.509-.506.509-.604 0-.106.064-.153.161-.116.104.04.226-.073.342-.316a2.18 2.18 0 0 1 .515-.646c.184-.146.31-.307.279-.357-.03-.05.018-.118.108-.153.26-.1.944-1.113.786-1.165-.21-.07-.162-.232.092-.312.126-.04.229-.17.229-.29 0-.266.41-.522.495-.309.034.083.061.058.067-.06.005-.11.189-.376.408-.59.22-.213.4-.438.4-.498 0-.061.103-.138.228-.17a.304.304 0 0 0 .229-.292c0-.273.185-.426.263-.218.037.1.106.074.228-.085.096-.125.132-.254.08-.286-.175-.108.167-.42.74-.673.358-.158.518-.283.432-.336-.092-.057.051-.235.43-.535.312-.247.568-.512.568-.587 0-.076.115-.173.256-.216.372-.113.651-.39.58-.576-.058-.15-.014-.178.334-.206.23-.018.656-.569.51-.66-.076-.046.01-.137.21-.223.185-.08.497-.315.694-.522.197-.207.416-.376.486-.376s.127-.106.127-.236c0-.18.051-.22.219-.167.227.072.4-.097.406-.397.002-.094.093-.164.203-.155.11.009.2-.052.2-.135 0-.083.109-.186.242-.228.134-.042.48-.31.771-.593.29-.284.721-.639.957-.789.235-.15.428-.325.428-.39s.064-.11.142-.1c.384.05.47-.01.25-.173-.216-.162-.215-.164.02-.105.156.039.266-.004.31-.12.039-.1.12-.18.183-.18.142 0 .687-.54.617-.61-.03-.03.13-.113.354-.187.224-.074.471-.223.55-.331.079-.108.349-.32.6-.473.251-.152.632-.445.845-.651.215-.207.51-.375.657-.375.194 0 .268-.065.268-.235 0-.134.051-.204.12-.162.158.099.449-.154.583-.508.076-.198.136-.243.197-.145.065.105.141.083.296-.09.116-.126.28-.23.367-.23.086 0 .186-.075.22-.166.073-.189.672-.409 1.015-.372.125.013.217-.035.204-.106-.014-.072.128-.29.314-.485.186-.194.338-.407.338-.472s.156-.15.347-.187c.19-.038.409-.159.485-.267.076-.109.382-.309.68-.444.297-.135.699-.401.893-.591.194-.19.508-.376.697-.414.189-.038.369-.135.4-.215.03-.08.399-.31.818-.51l1.034-.493c.15-.071.348-.246.441-.388.093-.141.243-.258.332-.258.09 0 .277-.108.415-.241.14-.133.42-.314.624-.402.204-.087.37-.204.37-.259 0-.055.182-.134.404-.175.221-.042.372-.125.336-.184-.037-.06.065-.109.228-.109.216 0 .326-.083.413-.31.095-.25.138-.278.225-.143.089.138.12.125.175-.076.05-.18.19-.264.54-.32.26-.041.56-.156.67-.255.109-.098.367-.216.574-.26.206-.046.365-.137.351-.203-.013-.067.126-.184.31-.26.184-.076.394-.21.467-.298.073-.087.251-.159.397-.159.145 0 .296-.051.335-.114.039-.063.184-.114.322-.114a.524.524 0 0 0 .394-.228.545.545 0 0 1 .415-.229c.15 0 .3-.072.334-.16.034-.089.219-.196.412-.238.192-.042.35-.124.35-.182 0-.058.059-.105.13-.105.073 0 .394-.173.715-.385.32-.212.746-.421.946-.465.2-.043.423-.151.497-.24.18-.217.78-.509 1.045-.509.118 0 .244-.077.28-.171.036-.094.178-.171.315-.171.288 0 .928-.308 1.383-.666.173-.136.411-.248.528-.248.117 0 .213-.04.213-.089 0-.087 1.196-.482 1.462-.482.075 0 .137-.07.137-.157 0-.093.178-.185.442-.227.243-.039.508-.15.59-.248.08-.098.21-.153.287-.124.077.03.237-.036.355-.146.118-.11.457-.26.754-.335.298-.075.708-.238.912-.363.21-.128.574-.226.839-.227.319 0 .532-.071.67-.224.111-.123.466-.31.788-.416.323-.106.615-.236.65-.29.035-.053.369-.157.742-.232.373-.074.733-.208.8-.297.067-.09.375-.19.685-.223.31-.033.65-.135.756-.227a.47.47 0 0 1 .415-.096c.235.074.82-.135.82-.294 0-.051.282-.175.627-.275.344-.1.655-.23.692-.288.036-.059.243-.107.46-.107.218 0 .7-.124 1.073-.275.373-.151.834-.31 1.027-.352.192-.042.324-.117.293-.166-.06-.098.757-.235 1.4-.235.506 0 2.21-.337 2.376-.47.265-.211 2.439-.706 3.472-.79a14.515 14.515 0 0 0 1.999-.321 12.15 12.15 0 0 1 1.762-.295c.466-.033 1.006-.112 1.199-.174.556-.18 1.973-.359 3.09-.39.767-.022 1.159-.092 1.54-.273.281-.133.538-.198.572-.144.106.171 3.975.271 4.778.123.58-.108.758-.104.902.016.1.082.28.132.404.111.137-.023.194.01.147.086-.042.068-.022.123.044.123.067 0 .121-.051.121-.114s.154-.114.343-.114c.197 0 .343.06.344.142.001.1.027.105.086.016.209-.316 3.475-.23 3.693.098.038.058.483.102.988.098.609-.004 1.037.054 1.27.17.195.097.408.143.474.102.066-.041.187-.02.268.048.081.067.678.134 1.326.149.772.018 1.228.077 1.324.173.11.11.224.116.465.025.176-.067.282-.084.236-.038-.107.107.648.386 1.174.433.663.059 2.965.522 3.174.638.107.06.676.156 1.264.214.59.057 1.103.156 1.142.22.04.064.316.152.615.197.298.045.542.127.542.183 0 .055.158.1.35.1.365 0 .735.156.999.42.084.084.193.13.24.1.047-.029.246-.08.44-.115.275-.048.393-.009.521.174.138.196.237.223.587.157.232-.043.533-.027.669.036s.582.176.99.251c.408.076.791.185.85.243.06.058.22.105.357.105.136 0 .377.103.537.229.195.153.463.228.819.228.364 0 .548.053.593.171.036.094.188.171.338.171.378 0 1.253.213 1.933.47.315.118.725.216.911.216.46 0 2.123.575 2.042.706-.035.058.056.092.203.075.394-.044 1.586.145 1.526.241-.1.163 1.265.668 1.99.737.404.038.764.107.799.154.035.047.217.155.406.24.188.085.506.233.707.328.2.096.502.174.67.174.193 0 .326.072.358.193.033.127.176.199.414.208.2.008.84.065 1.424.128.889.095 1.097.156 1.28.377.122.145.222.303.225.35.002.047.119.087.26.09.142.002.386.077.543.167.157.09.448.165.647.167.199.003.379.043.4.09.065.148.748.485.983.485.124 0 .29.077.368.171.078.094.218.172.311.172.094 0 .27.128.394.285.235.298.664.39.667.143 0-.112.021-.112.094.002.05.08.21.168.354.196a.73.73 0 0 1 .391.224c.085.113.368.185.815.208.633.032 1.22.263 2.227.874.34.207 1.257.58 1.426.58.095 0 .172.054.172.12 0 .067.048.092.107.056.058-.036.37.09.693.28.323.191.76.419.97.507.21.088.542.312.738.5.243.231.525.365.891.42.295.044.674.178.842.297.168.12.362.218.43.218.07 0 .126.043.126.096 0 .09.375.301.628.353a.902.902 0 0 1 .285.163c.094.076.531.31.97.52 1.245.594 1.394.68 1.754 1.012 1.002.922 1.059.962 1.29.901.326-.085.768.103 1.033.44.122.156.298.283.39.283.091 0 .293.083.448.185.155.101.282.144.282.096 0-.048.09-.011.2.082.11.094.38.24.599.324.4.155 1.115.675 1.05.765-.088.123.566.49.875.49.43 0 .895.204 1.233.542a.926.926 0 0 0 .588.257c.201 0 .462.12.662.306.182.169.357.304.388.3.17-.019 1.508.578 1.805.805.42.322 1.398 1.397 1.463 1.61.04.128.298.5.574.826.276.325.493.633.481.685-.033.15.203.635.51 1.042.208.278.305.589.363 1.166.045.448.148.844.24.92.087.073.16.308.16.522 0 .215.078.578.174.808.097.23.148.49.115.576-.033.086 0 .269.075.406.284.523-.05 4.074-.383 4.074-.05 0-.194.201-.32.447-.27.532-1.137 1.44-1.477 1.547-.132.042-.24.116-.24.165 0 .17-1.244.386-1.853.323-.615-.063-1.39-.426-1.495-.7-.031-.081-.294-.214-.584-.296-.29-.08-.565-.208-.61-.283-.046-.075-.301-.257-.568-.405-.267-.148-.485-.311-.485-.362 0-.052-.082-.094-.181-.094-.1 0-.395-.173-.657-.385-.261-.212-.835-.578-1.275-.812-.44-.235-.885-.524-.989-.642-.104-.119-.254-.216-.332-.216-.078 0-.301-.119-.495-.264-.195-.145-.688-.434-1.096-.641-.408-.208-.823-.45-.923-.536-.099-.087-.238-.158-.31-.158-.072 0-.325-.11-.562-.245a33.43 33.43 0 0 0-1.003-.54c-.314-.162-.612-.36-.662-.44-.05-.08-.243-.224-.428-.32-.186-.095-.337-.237-.337-.314 0-.077-.216-.208-.479-.29a3.028 3.028 0 0 1-.852-.456c-.693-.569-1.008-.785-1.438-.988-.236-.11-.429-.27-.429-.352 0-.083-.094-.18-.21-.217-.115-.037-.45-.297-.744-.579-.294-.281-.585-.512-.648-.512-.165 0-.61-.263-.711-.42-.048-.075-.37-.297-.715-.494-.345-.198-.692-.42-.771-.493-.184-.171-.883-.564-.883-.496 0 .028-.228-.175-.508-.45-.28-.276-.582-.502-.671-.502-.09 0-.227-.077-.305-.17a.536.536 0 0 0-.362-.172c-.12 0-.56-.259-.978-.574-.417-.316-.89-.607-1.05-.648-.162-.04-.525-.232-.807-.426a7.618 7.618 0 0 0-.8-.486c-1.206-.565-1.831-.844-1.882-.84-.033.003-.251-.098-.486-.223-.234-.126-.491-.229-.57-.229-.08 0-.145-.046-.145-.102 0-.055-.17-.133-.38-.172-.208-.04-.607-.213-.885-.385a4.67 4.67 0 0 0-1.733-.66c-.235-.042-.428-.122-.428-.178 0-.056-.1-.102-.222-.102-.121 0-.253-.051-.292-.114-.039-.063-.189-.114-.333-.114-.145 0-.452-.129-.684-.286-.316-.215-.569-.285-1.02-.285-.33 0-.65-.048-.71-.106-.146-.143-1.99-.58-2.446-.58-.202 0-.491-.097-.644-.218-.167-.131-.719-.296-1.388-.414-.611-.109-1.171-.245-1.245-.303-.074-.058-.385-.129-.691-.157a7.69 7.69 0 0 1-1.179-.23 11.16 11.16 0 0 0-1.193-.262c-.314-.045-.683-.144-.82-.22-.137-.074-.33-.104-.43-.066a.366.366 0 0 1-.322-.042c-.078-.062-.367-.14-.643-.176-.276-.035-.537-.121-.58-.192-.044-.07-.307-.147-.584-.17a6.029 6.029 0 0 1-.96-.176 10.699 10.699 0 0 0-1.188-.235c-.401-.056-.857-.186-1.012-.288a.828.828 0 0 0-.621-.117c-.187.037-.45.006-.586-.069-.137-.075-.505-.172-.819-.216-.724-.1-2.108-.434-2.368-.57a1.375 1.375 0 0 0-.525-.103c-.18 0-.485-.08-.678-.176-.194-.096-.805-.226-1.36-.287-.554-.061-1.264-.184-1.578-.272-.835-.234-1.763-.415-2.284-.444-.251-.015-.52-.067-.6-.116-.078-.049-.142-.05-.142-.003s-.064.005-.143-.094c-.176-.22-.725-.334-2.37-.487-.282-.026-.77-.104-1.084-.173-.314-.069-.695-.095-.846-.058-.151.037-.31.01-.353-.06-.048-.077-.619-.145-1.47-.173-.766-.025-1.438-.074-1.494-.109-.056-.035-.401-.088-.767-.12-1.064-.089-6.592-.15-6.718-.072-.063.038-1.013.083-2.113.1-1.099.016-2.126.056-2.283.089-.157.033-.826.086-1.485.119-1.456.071-1.733.108-2.027.265a1.392 1.392 0 0 1-.557.12c-.18 0-.765.08-1.299.18-.533.1-1.416.222-1.961.27-.546.05-1.067.152-1.16.23-.102.084-.291.108-.482.06-.193-.048-.287-.036-.245.033.04.064-.298.168-.807.247-.482.075-.927.187-.988.248-.062.062-.217.111-.346.11-.129 0-.722.105-1.319.235-2.286.5-2.998.696-3.232.89-.107.09-.406.14-.73.123-.67-.033-1.276.144-2.234.655-.173.093-.404.157-.514.144-.238-.03-.599.113-.806.318a.544.544 0 0 1-.322.15c-.094 0-.283.063-.42.14-.256.145-.92.339-2.012.589-.342.078-.642.203-.667.277-.025.076-.258.135-.53.135-.363 0-.548.068-.741.274-.142.15-.446.305-.677.342-.23.037-.496.08-.59.098-.094.017-.3.115-.457.217a2.662 2.662 0 0 1-.57.273 3.613 3.613 0 0 0-.686.335c-.581.363-1.723.866-1.824.804-.048-.03-.18.05-.293.175-.114.126-.725.49-1.358.81-.632.32-1.23.652-1.33.739a.719.719 0 0 1-.406.158c-.124 0-.4.129-.613.286-.212.157-.467.285-.566.285-.099 0-.371.103-.605.229-.235.125-.504.228-.598.228a.173.173 0 0 0-.172.174c0 .096-.141.224-.314.286-.173.06-.37.15-.44.197-.069.047-.351.234-.628.416-.276.183-.528.367-.56.41-.03.043-.39.245-.799.45-.408.204-.87.485-1.027.624-.157.139-.587.404-.956.59-.368.184-.695.4-.726.479-.03.078-.153.142-.273.142-.119 0-.328.129-.465.286-.136.157-.355.285-.485.285-.308 0-1.412.688-1.494.93-.038.114-.144.168-.267.136-.123-.033-.397.108-.692.354-.268.224-.553.408-.633.408-.08 0-.319.154-.531.343-.213.19-.5.374-.638.41-.138.038-.333.193-.434.347-.1.153-.373.365-.605.471a5.368 5.368 0 0 0-.87.538 7.23 7.23 0 0 1-.76.517c-.58.315-1.477.951-1.477 1.047 0 .052-.065.095-.145.095-.08 0-.231.09-.335.2-.323.342-.531.485-.706.485-.093 0-.201.103-.241.228-.04.126-.124.229-.187.229-.062 0-.303.18-.534.401-.232.22-.588.516-.791.657-.204.14-.371.32-.371.398 0 .078-.154.206-.342.285-.394.166-1.269.913-2.539 2.17-.492.487-.915.885-.94.885-.075 0-1.09.994-1.09 1.067 0 .07-.263.335-1.47 1.487-.385.368-.7.713-.7.768 0 .054-.193.2-.428.324-.236.125-.388.229-.34.232.096.005-.668.804-.768.804-.087 0-1.005 1.012-1.23 1.356a5.785 5.785 0 0 1-.86 1.07c-.141.133-.257.311-.257.396 0 .085-.077.184-.171.22-.094.036-.171.107-.171.159 0 .05-.198.293-.44.537-.243.245-.461.495-.486.557-.025.062-.266.393-.536.735-.6.762-1.169 1.587-1.59 2.307-.174.298-.378.542-.452.542-.156 0-.734.675-.96 1.121-.146.285-.654 1.034-.791 1.163-.154.146-.455.693-.455.827 0 .083-.154.319-.343.525-.188.206-.342.402-.342.434 0 .033-.309.437-.685.898-.377.461-.686.921-.686 1.022a.285.285 0 0 1-.167.248c-.091.035-.2.175-.24.31-.041.136-.269.48-.506.766-.238.286-.656.98-.93 1.542s-.613 1.15-.754 1.306c-.142.157-.257.342-.257.412 0 .07-.232.479-.514.91-.283.43-.514.84-.514.912 0 .071-.128.356-.284.633a7.41 7.41 0 0 0-.347.675c-.035.094-.19.415-.344.713-.155.299-.281.614-.281.7 0 .087-.071.216-.157.288-.087.071-.223.373-.304.67a5.15 5.15 0 0 1-.414 1.007c-.147.257-.267.567-.267.689s-.07.323-.155.446a1.775 1.775 0 0 0-.22.511c-.092.405-.824 2.442-.947 2.636-.122.192-.454 1.35-.684 2.389-.09.408-.213.845-.272.97-.06.126-.142.46-.185.743-.042.282-.14.693-.218.913-.265.748-.425 1.277-.462 1.524-.153 1.01-.318 1.764-.46 2.104-.092.22-.197.765-.234 1.212-.036.447-.113.968-.17 1.159-.058.19-.154.832-.213 1.427-.06.595-.162 1.492-.228 1.993-.217 1.635-.132 9.549.113 10.58.07.29.113.6.097.685-.048.254.13 1.621.243 1.87.057.125.18.716.274 1.313.256 1.628.65 3.175 1.038 4.07.086.198.19.543.232.767.042.224.148.467.236.54.088.072.16.196.16.273 0 .214.631 1.562.884 1.886.122.157.257.427.3.6.041.173.126.314.188.314.061 0 .112.071.112.158 0 .086.427.587.95 1.113.523.526 1.042 1.097 1.155 1.27.113.173.255.314.317.314s.416.295.788.657c.76.74 1.407 1.284 1.525 1.284.043 0 .267.198.498.44.23.242.652.554.936.693.284.138.675.39.869.559.194.169.574.486.845.706.27.22.623.541.783.714.16.173.37.315.466.316.096 0 .432.182.746.403.314.22.776.535 1.027.699.252.163.549.393.661.51.113.117.298.213.413.213.114 0 .304.129.422.286.118.157.28.285.359.285.079 0 .242.098.362.218s.404.307.632.415c.228.108.465.292.528.41.063.117.186.213.273.213a.55.55 0 0 1 .312.143c.085.078.4.271.703.428.303.157.6.376.659.486.06.11.213.2.34.2.127 0 .204.043.17.097-.059.096.483.417.643.38.046-.01.136.082.202.204.065.122.31.313.546.423.498.235.63.328 1.057.751.175.173.4.314.5.314.1 0 .183.051.183.114s.097.114.216.114.246.078.282.173c.037.096.192.221.346.28.4.152 1.414.888 1.983 1.44.268.259.679.569.914.688.42.214.94.7.94.88 0 .051.044.066.098.033.054-.034.217.066.363.221.145.155.304.282.352.282.048 0 .256.154.462.343.206.188.439.342.516.342.078 0 .417.283.754.628.338.346.665.628.729.628.063 0 .247.142.409.314.161.173.767.751 1.345 1.285a116.9 116.9 0 0 1 1.843 1.742c.435.424.836.77.89.77.054 0 .37.347.7.771.332.424.94 1.113 1.353 1.53 1.018 1.031 1.3 1.361 1.45 1.696.07.157.418.602.773.988 1.151 1.252 1.32 1.464 1.322 1.664.001.108.156.31.345.45.188.139.342.318.342.399 0 .08.154.321.343.536.188.214.342.44.342.5 0 .062.14.26.312.443.171.181.316.356.322.387.048.253.347.685.473.685.086 0 .19.09.23.2.041.11.104.226.14.257.036.032.162.237.28.457.12.22.358.554.53.742.173.189.353.471.4.628a.948.948 0 0 0 .299.435c.117.082.212.243.212.357 0 .115.077.272.171.35.094.079.172.21.172.292 0 .082.07.22.158.307.087.087.267.373.402.636.134.263.288.478.342.478.054 0 .127.09.162.2.035.11.144.328.241.485.098.157.232.414.298.571.204.488.434.847.64.998.11.08.159.144.11.144s.022.18.157.398c.136.219.219.442.185.497-.034.054.064.268.216.476.153.207.252.419.22.47-.032.052.094.417.28.811.187.395.404 1.018.483 1.385.08.368.212.694.294.726.083.032.15.207.15.39 0 .182.052.42.115.53.187.326.59 2.402.703 3.624.311 3.347.273 8.927-.08 11.705-.099.785-.223 1.89-.276 2.455a30.32 30.32 0 0 1-.219 1.77 42.928 42.928 0 0 0-.244 1.807c-.066.586-.22 1.331-.344 1.656-.124.325-.225.772-.225.994 0 .221-.078.514-.174.65-.095.137-.219.47-.274.74-.175.846-.464 1.822-.633 2.133-.09.165-.297.736-.462 1.27-.164.534-.396 1.176-.513 1.427-.118.252-.29.663-.382.914-.091.251-.357.945-.59 1.541-.232.597-.592 1.548-.798 2.113a43.8 43.8 0 0 1-.847 2.17c-.053.125-.189.46-.302.742-.114.283-.274.595-.357.694a.695.695 0 0 0-.154.343c-.003.089-.132.368-.288.619a4.83 4.83 0 0 0-.35.656c-.038.11-.108.2-.154.2-.047 0-.221.302-.387.672-.166.369-.373.73-.461.804-.088.073-.194.266-.235.43-.04.163-.223.457-.404.652-.181.195-.508.694-.726 1.109-.219.415-.53.898-.692 1.073-.162.175-.295.41-.295.523 0 .113-.052.237-.114.276-.063.038-.115.17-.115.292 0 .122-.064.222-.142.223-.079.001-.371.502-.65 1.114-.28.611-.592 1.24-.694 1.397-.103.157-.362.696-.577 1.199-.214.502-.421.94-.46.97-.114.094-.56 1.362-.56 1.594 0 .118-.047.232-.106.253-.058.02-.14.176-.181.344-.068.273-.026.332.386.542.255.13.533.237.619.237.086 0 .277.128.424.285.148.157.382.285.52.285s.312.074.386.163c.074.09.35.198.614.242.263.043.575.13.693.192.15.078.24.071.298-.023.06-.098.103-.085.153.045.049.127.219.18.568.18.274 0 .537.04.584.086.115.116.638.12.638.005 0-.05.074-.09.164-.09.132 0 .175-.28.216-1.4.027-.769.074-1.552.104-1.74.03-.19.093-.652.14-1.029.144-1.16.672-1.607.978-.828.08.205.204.423.275.486.263.232.635.84.635 1.038 0 .112.105.315.233.451.128.137.257.379.286.539.029.16.2.59.38.958.179.367.357.8.395.96.039.161.189.469.334.684.308.458-.193.413 4.992.448 2.425.016 3.492-.014 3.52-.1.051-.151.594-.168.594-.02 0 .06.39.09.885.067.487-.021 1.733-.072 2.77-.112 1.036-.04 2.218-.12 2.626-.178.408-.058 1.262-.107 1.898-.108 1.264-.003 1.9-.089 1.805-.245-.034-.055.066-.1.223-.1s.321.058.364.128c.11.177 1.856.02 2.194-.198.187-.12.66-.176 1.656-.195.767-.014 1.468-.072 1.557-.127.089-.056.449-.12.8-.144a56.14 56.14 0 0 0 1.66-.145c.562-.056 1.065-.076 1.118-.044.052.033.22-.022.372-.121.187-.123.54-.182 1.087-.182.446 0 .923-.06 1.06-.133.138-.073.378-.146.535-.161.158-.016.517-.082.8-.147.283-.066.722-.122.976-.125.255-.003.522-.064.595-.137.097-.097.173-.098.285-.005.115.095.382.07 1.047-.096.492-.123 1.006-.223 1.142-.223.137 0 .303-.055.37-.122.086-.086.175-.068.304.06.166.167.201.165.415-.018.208-.178 1.272-.437 2.231-.544.189-.02.497-.069.686-.107.188-.038.522-.099.742-.136.22-.037.46-.117.534-.178a.392.392 0 0 1 .285-.08c.084.017.273-.037.422-.119.16-.089.416-.12.627-.079.362.073 1.426-.14 2.614-.522.362-.116.911-.21 1.221-.21.31 0 .596-.052.635-.115.038-.063.157-.115.263-.115.107 0 .332-.073.501-.161.225-.118.32-.125.354-.028.033.098.147.092.434-.025.214-.086.954-.281 1.645-.432a30.364 30.364 0 0 0 1.77-.436c.283-.088.822-.219 1.2-.291.376-.073.787-.197.913-.276.28-.177.814-.292 1.713-.37.376-.032.711-.101.743-.153.033-.052.392-.107.8-.122.407-.015.858-.098 1.003-.185.144-.087.516-.189.827-.226.312-.037.566-.116.566-.177 0-.061.082-.08.183-.04.1.038.416-.01.702-.107a6.621 6.621 0 0 1 1.014-.245c.272-.037.47-.105.443-.15-.029-.047.19-.114.487-.15.297-.035.706-.148.909-.25.233-.118.777-.206 1.482-.24.612-.03 1.16-.1 1.215-.155.056-.056.173-.075.26-.041.086.033.157.004.157-.066s.18-.127.4-.127c.22 0 .592-.103.826-.228.235-.126.523-.229.642-.229s.505-.122.858-.271c.75-.317 1.787-.575 1.938-.482.057.035.267-.016.465-.115.199-.1.441-.15.539-.112.097.037.41-.035.695-.161s.58-.229.657-.229c.076 0 .258-.103.403-.228.144-.126.448-.237.674-.248.4-.02.74-.046.992-.079.07-.009.244-.119.389-.244.145-.126.333-.229.417-.229.085 0 .154-.051.154-.114s.141-.114.314-.115c.173 0 .545-.154.828-.342.283-.187.578-.341.657-.342.158 0 .184-.307.207-2.512.027-2.425.206-4.107.56-5.245.166-.537.343-1.348.512-2.35.053-.313.133-.76.179-.993.062-.319.037-.467-.103-.607-.233-.233-.251-.676-.024-.589.088.034.233-.025.323-.13.214-.252.688-1.593.61-1.72-.034-.055.064-.235.217-.401.154-.166.326-.494.383-.728.056-.235.15-.632.208-.884.059-.256.166-.444.244-.428.076.016.138.013.138-.007 0-.174 1.046-2.522 1.282-2.876.167-.251.414-.757.55-1.124.136-.367.425-.98.641-1.364a39.84 39.84 0 0 0 1.866-3.907c.424-1.07.799-1.79 1-1.918.078-.05.142-.211.142-.357a.6.6 0 0 1 .174-.41c.197-.164.319-.424.91-1.94.233-.596.515-1.29.627-1.541.111-.252.318-.843.46-1.314.14-.47.378-1.098.527-1.395.15-.296.271-.684.271-.863 0-.424.425-2.171.617-2.538.082-.157.216-.696.297-1.199.08-.502.218-.996.305-1.098.088-.101.18-.487.205-.856.025-.37.184-1.032.354-1.472.17-.44.333-1 .364-1.247.03-.247.152-.607.27-.8.117-.193.214-.5.214-.684 0-.366.793-2.94.937-3.041.049-.035.163-.292.254-.571.395-1.211.651-1.884.81-2.125.093-.143.17-.415.17-.606 0-.465.434-1.718.695-2.006.241-.266.56-1.105.56-1.474 0-.138.155-.552.343-.92.188-.369.343-.777.343-.906 0-.13.095-.391.21-.58a5.6 5.6 0 0 0 .408-.941c.11-.328.24-.623.29-.654.052-.031.127-.283.168-.559.042-.276.26-.855.486-1.286.225-.431.451-.99.501-1.241.249-1.244.891-3.318 1.122-3.621a2.73 2.73 0 0 0 .323-.604c.176-.488.412-2.307.327-2.528-.039-.101-.025-.242.032-.313.212-.267.472-1.447.472-2.149 0-.503.07-.867.228-1.177.18-.353.229-.673.229-1.52 0-.656.06-1.211.156-1.431.298-.685.444-1.312.373-1.596-.04-.158-.076-.843-.08-1.524-.006-.873-.057-1.312-.173-1.493-.13-.2-.143-.397-.061-.913.058-.368.06-.711.006-.779-.115-.14-.126-.42-.114-2.791.005-.974-.02-2.233-.055-2.798s-.02-1.474.032-2.02c.072-.75.06-1.04-.052-1.191-.183-.25-.207-4.095-.029-4.563.099-.26.079-.346-.12-.531-.25-.234-.254-.636-.01-1.093.198-.37.157-.503-.13-.423-.142.04-.206.03-.143-.02.135-.11.153-1.174.023-1.375-.05-.077-.114-.694-.143-1.37-.089-2.073-.136-2.783-.266-4.018-.093-.872-.092-1.23.002-1.342.07-.085.093-.154.052-.154-.042 0-.017-.109.055-.242.094-.177.095-.265.004-.321-.07-.043-.18-.368-.245-.723-.106-.57-.091-.708.123-1.18.185-.404.23-.674.186-1.117-.106-1.076-.206-1.609-.317-1.677-.178-.11-.09-1.5.115-1.814.137-.211.187-.608.201-1.6.018-1.3.12-3.896.21-5.404a8.458 8.458 0 0 1 .243-1.47c.152-.543.166-.74.062-.908-.156-.249-.18-.901-.033-.901.056 0 .129-.106.163-.235.08-.309-.17-.4-.511-.186-.445.279-1.421.459-1.791.33-.193-.067-.392-.073-.486-.013-.087.055-.355.101-.595.102-.24.001-.54.058-.668.127-.129.068-.6.144-1.05.167-.448.024-.97.069-1.158.1-.188.031-.882.084-1.541.118-.66.033-1.688.089-2.284.123-.597.035-1.676.086-2.398.113-1.26.049-2.44.124-3.54.224-.283.026-1.336.058-2.341.072-1.05.013-1.893.074-1.982.142-.15.117-2.362.158-4.128.077a12.205 12.205 0 0 0-1.624.051c-.566.067-.814.052-.943-.054-.134-.112-.288-.117-.66-.023-.881.223-1.121.257-1.247.18-.068-.043-1.338-.086-2.82-.096-2.954-.02-4.223-.1-4.57-.285-.124-.066-.435-.12-.691-.12-.256 0-.555-.048-.664-.105-.11-.057-.61-.218-1.112-.357-.502-.14-.965-.289-1.028-.333-.062-.043-.448-.175-.856-.293-.408-.117-.901-.332-1.096-.477-.194-.144-.44-.263-.547-.263-.106 0-.395-.103-.641-.228-.246-.126-.545-.243-.664-.262-.229-.034-.682-.304-.947-.562-.088-.085-.453-.293-.813-.462-.36-.17-.719-.411-.798-.538-.08-.128-.2-.232-.267-.232s-.27-.154-.45-.342c-.181-.189-.387-.343-.458-.343-.072 0-.653-.502-1.292-1.116-1.096-1.053-1.945-2.143-1.976-2.534-.04-.52.05-1.55.14-1.584.056-.02.102-.12.102-.221 0-.463.92-1.311 1.292-1.193.052.017.221-.07.377-.193l.284-.223.48.326c.263.18.544.433.623.563.103.17.261.237.562.237.23 0 .51.084.624.186.177.16.272.167.694.045.269-.077.617-.136.774-.13.445.015 1.235-.224 1.3-.394.033-.085-.11-.401-.319-.704-.208-.302-.414-.664-.459-.804-.044-.14-.126-.254-.183-.254-.21 0-.378-1.018-.387-2.364-.009-1.274-.028-1.398-.229-1.45a.597.597 0 0 0-.38.032c-.09.05-.417.05-.73 0-.365-.057-.669-.044-.848.038-.201.091-.35.093-.535.004-.14-.068-.856-.124-1.59-.125-.734 0-1.437-.056-1.563-.124-.126-.067-.563-.122-.971-.122-.41 0-.775-.051-.814-.114-.039-.063-.172-.114-.296-.114s-.344-.077-.488-.172a1.126 1.126 0 0 0-.538-.166c-.482.01-1.423-.206-1.847-.423-1.117-.571-1.456-.773-1.456-.865 0-.055-.218-.197-.485-.315-.34-.15-.552-.346-.708-.65a4.564 4.564 0 0 0-.364-.608c-.078-.094-.254-.581-.39-1.081-.32-1.166-.245-2.643.202-3.942.284-.826.704-1.62.932-1.762.06-.037.223-.406.36-.82.21-.63.309-.777.609-.902.328-.136.877-.21 1.344-.182.167.01.556.893.556 1.26 0 .067.103.226.23.352.217.218.25.22.583.048.195-.1.32-.127.277-.06-.128.209.796.194 1.052-.015.099-.082.293-.077.628.014.333.091.602.098.862.021.208-.061.453-.083.544-.048.092.036.39.008.661-.06.307-.077.626-.086.843-.024.23.066.392.057.475-.026.17-.17 1.187-.423 1.952-.485.346-.027.962-.108 1.37-.178.409-.07 1.026-.139 1.371-.153.345-.014.73-.057.856-.095.126-.039.682-.099 1.236-.134.554-.034 1.103-.114 1.22-.177.117-.063.41-.115.649-.115.24-.001.718-.078 1.064-.17.345-.093.99-.17 1.433-.17.471-.001.861-.058.942-.138.075-.076.458-.174.85-.218a135.51 135.51 0 0 0 1.85-.227c.873-.112 1.145-.114 1.18-.01.024.075.1.102.168.06.067-.042.693-.093 1.389-.113 1.345-.038 1.958-.09 3.15-.266 1.078-.16 5.976-.459 6.265-.383.135.035.322 0 .415-.077.104-.086.316-.113.55-.069.21.04.419.033.465-.013.047-.047.439-.069.871-.049.591.028.87-.013 1.122-.162.221-.13.408-.166.548-.104.117.051.573.108 1.012.126.44.018.922.04 1.071.049.15.009.304-.033.343-.093.12-.183 1.1-.236 1.474-.079.236.1.486.115.785.05.24-.054.772-.12 1.18-.15.409-.028.846-.088.971-.132.562-.198.857-.277 1.713-.457.503-.106.99-.22 1.085-.255.19-.069 1.545-.33 2.512-.484a7.756 7.756 0 0 0 1.364-.395c.404-.162.8-.295.878-.295.079 0 .313-.098.52-.218.435-.251 1.777-.613 1.928-.52.056.035.308.007.56-.06.815-.22 1.108.145.763.952-.085.198-.22.565-.3.816-.08.252-.314.74-.521 1.085-.455.76-.962 2.071-1.016 2.63-.021.225-.147.647-.28.939-.133.291-.242.61-.242.71 0 .1-.192.546-.428.993-.235.447-.54 1.031-.678 1.298-.29.565-.818.98-1.19.939-.191-.021-.306.06-.423.299-.089.18-.245.352-.348.38-.103.029-.29.212-.416.407-.263.409-1.3.995-1.884 1.065-1.303.157-1.723.25-1.916.423-.127.116-.468.215-.834.243-.34.026-.747.078-.904.117-.157.038-.697.085-1.2.105-.503.019-1.027.095-1.164.168-.27.145-3.02.48-3.72.454-.239-.009-.493.044-.566.117-.073.073-.251.133-.396.133-.446 0-.292.183.423.504.377.17.685.35.685.401 0 .052.153.124.339.162.329.065.515.192 1.076.731.147.141.33.257.408.257.352 0 1.248.818 1.518 1.384.1.212.34.537.534.721.192.185.35.391.35.46 0 .067.132.317.293.554.373.549.728 1.605.732 2.176l.003.441.628-.078c.346-.043.628-.034.628.022 0 .055 1.185.09 2.655.078 1.46-.012 2.655-.033 2.655-.046 0-.014.52-.042 1.154-.062.635-.02 1.38-.099 1.656-.175.276-.076.676-.132.889-.126.212.006.444-.023.513-.067a.6.6 0 0 1 .242-.085c.353-.014 1.038-.358 1.303-.655.307-.344.996-.654 1.46-.658.463-.004.857-.698.958-1.69.104-1.016.255-1.672.555-2.412a11.1 11.1 0 0 0 .384-1.21c.533-2.13.667-2.594.799-2.769.059-.078.08-.142.045-.142s.062-.318.214-.707c.152-.389.277-.804.277-.922s.125-.43.279-.692c.153-.262.364-.862.47-1.333.113-.506.352-1.12.584-1.497.216-.352.407-.776.424-.942.018-.167.067-.337.108-.378.042-.042.076-.193.076-.336 0-.143.052-.292.115-.33.062-.04.114-.146.114-.237s.099-.383.22-.65c.122-.266.238-.586.259-.712.02-.126.097-.229.17-.229.072 0 .17-.038.217-.085.047-.047.017-.086-.065-.086-.118 0-.113-.044.02-.2.166-.193.348-.561.368-.746.005-.05.067-.127.136-.171.178-.115.844-1.413.844-1.645 0-.106.052-.225.114-.264.063-.038.38-.563.705-1.166.325-.604.805-1.307 1.065-1.564a8.99 8.99 0 0 0 .792-.903c.174-.24.349-.404.387-.365.04.039.013.107-.058.15-.07.045-.18.363-.244.708-.093.512-.083.663.054.816.213.237.14 1.189-.203 2.648-.147.625-.217 1.218-.182 1.53.038.34-.016.72-.163 1.139-.157.446-.201.782-.153 1.159.114.884.169 1.058.305.974.137-.084.113.045-.187 1.02l-.17.551.408.375c.393.36.407.4.369 1.047-.038.626-.022.677.216.71.151.022.257-.023.257-.108 0-.115.03-.116.142-.003.113.112.107.163-.028.246-.135.083-.14.134-.027.246.153.154.167.86.027 1.41-.048.188-.093.278-.1.2-.016-.164-.242-.198-.242-.037 0 .188.509.912.644.917.171.006.27.276.27.739 0 .205.084.542.187.748l.187.376.195-.258.195-.259.073.271c.04.15.073.503.074.786.001.46.223 1.722.381 2.17.033.094.09.83.126 1.637.036.806.093 1.512.128 1.567.034.056.01.296-.053.533-.063.237-.141.944-.173 1.572-.078 1.523-.27 2.832-.528 3.598-.129.38-.21.943-.209 1.427.002.44-.047.931-.108 1.092-.06.16-.17.773-.24 1.36-.072.587-.154 1.105-.182 1.151-.029.046-.08.745-.115 1.552-.034.808-.108 1.622-.163 1.81-.148.508-.242 1.306-.29 2.462-.023.567-.102 1.213-.176 1.436-.073.223-.108.542-.076.71.031.166.01.945-.049 1.73a41.72 41.72 0 0 0-.089 2.913c.024 2.188.024 2.36.005 2.797-.009.22.013.862.05 1.428.102 1.596.102 1.993 0 4.739-.105 2.822-.116 4.489-.083 12.447a79.18 79.18 0 0 0 .075 3.14c.18 3.343.274 5.84.227 5.995-.029.095-.059 1.277-.067 2.627-.008 1.35-.057 2.66-.108 2.912-.05.251-.125 1.073-.164 1.827-.04.754-.141 1.627-.225 1.941-.085.314-.213.998-.286 1.519-.073.521-.206 1.154-.295 1.406s-.152.494-.14.537c.011.043-.04.258-.113.478-.074.22-.192.734-.263 1.142-.278 1.595-.314 1.791-.445 2.44-.074.368-.311 1.07-.527 1.56-.215.49-.391.98-.391 1.089 0 .109-.128.46-.284.78-.157.32-.379.943-.494 1.382-.22.837-.761 2.162-1.003 2.455-.078.095-.178.377-.222.628-.045.252-.147.534-.228.628-.08.095-.208.403-.283.685-.075.282-.24.657-.365.834-.126.177-.204.347-.174.377.094.094-.483 1.785-.785 2.303-.157.267-.26.526-.23.575.03.049-.045.446-.167.884l-.388 1.406c-.21.771-.632 1.979-.743 2.13-.046.062-.116.322-.155.578a3.75 3.75 0 0 1-.345.98 4.06 4.06 0 0 0-.358 1.129c-.047.337-.189.813-.317 1.058-.172.331-.243.725-.275 1.547-.042 1.046-.09 1.316-.44 2.53-.081.282-.238.914-.35 1.404-.11.49-.243.917-.294.95-.052.03-.094.286-.094.566 0 .28-.043.597-.095.707-.634 1.316-.823 1.76-.936 2.196a5.003 5.003 0 0 1-.278.8c-.08.157-.267.67-.417 1.139-.156.49-.529 1.243-.875 1.769-.331.503-.653 1.104-.715 1.335-.063.232-.152.438-.198.458-.047.02-.26.372-.473.78-.213.408-.475.87-.582 1.028-.107.157-.172.35-.144.428.029.082-.014.119-.102.087-.097-.036-.256.16-.438.542-.157.33-.328.63-.38.668a2 2 0 0 0-.285.356l-.51.762c-.174.263-.431.53-.57.594-.273.127-.653.78-.653 1.122 0 .115-.176.344-.392.509-.215.164-.426.414-.469.556-.042.141-.27.462-.507.713-.297.316-.452.6-.5.92-.08.533-.321 1.06-.78 1.695-.176.245-.32.503-.32.574 0 .07-.12.254-.264.409-.235.25-.252.333-.155.76.089.386.076.512-.07.658-.1.1-.241.476-.315.837-.074.361-.175.79-.224.952a1.52 1.52 0 0 0-.03.611c.064.332-.168 1.53-.332 1.714-.14.16-.116.796.036.948.098.098.082.394-.066 1.193a20.24 20.24 0 0 1-.3 1.41c-.058.19-.136 1.321-.174 2.512-.108 3.38-.116 3.5-.279 4.131-.127.493-.128.721-.006 1.314.378 1.833.564 6.15.292 6.769-.083.188-.173.744-.2 1.235-.047.836-.082.937-.552 1.599l-.502.706.016 1.572c.01.865.067 1.636.128 1.713.13.164.274 1.036.305 1.854.012.314.054.648.094.742.082.196.136.7.306 2.855.067.848.177 1.78.245 2.072.067.292.14.703.162.913.078.728.207 1.297.31 1.365.057.038.23.552.383 1.142.153.59.365 1.357.47 1.702.105.345.2.705.211.8.012.094.08.315.151.492.072.177.13.398.13.492 0 .211.432 1.182.629 1.413.08.095.18.335.223.535.042.2.151.425.242.5.127.106.135.175.034.296-.105.127-.094.145.055.087.149-.057.188 0 .188.276 0 .192.051.38.114.419.063.039.114.175.114.304 0 .128.177.523.393.878.216.355.468.938.559 1.297.091.358.274.788.405.955.131.167.21.35.177.405-.035.055-.008.1.058.1.067 0 .122.09.123.2.002.235.237.926.398 1.171.174.264.742 1.632.742 1.786 0 .075.041.153.09.174.168.07.595.863.595 1.103 0 .242.222.83.353.934.039.031.107.25.15.485.043.236.124.428.18.428.056 0 .118.142.138.314.02.177.098.302.179.286.092-.018.142.11.142.364 0 .216.045.42.1.454.053.034.127.243.163.466.037.222.172.538.301.703.13.164.236.364.236.443 0 .079.077.173.17.21.1.037.172.208.172.404 0 .187.052.371.114.41.063.04.115.222.115.407 0 .184.051.336.114.336s.113.09.112.2c-.002.17-.018.174-.112.028-.082-.127-.111-.132-.113-.02 0 .082.076.227.17.321.094.095.2.31.238.478.036.168.096.383.133.477.036.094.07.208.076.252.005.044.092.147.193.228.2.16.71 1.39.843 2.032.045.22.2.528.345.685.144.157.343.606.442.996.098.391.285.817.414.946.13.13.266.389.303.577.038.187.113.369.168.402.055.034.1.145.1.246s.078.271.174.377c.133.147.148.263.061.49-.11.292.03.563.145.278.032-.079.063.088.069.37.008.376.04.468.121.343.097-.149.111-.147.113.015 0 .103.076.331.167.507.091.175.2.592.242.926.042.334.116.607.165.607s.117.193.151.429c.123.836.217 1.167.315 1.106.055-.034.07.089.033.272-.05.255-.005.39.195.577.155.144.2.243.111.243-.11 0-.116.04-.026.148.068.082.158.377.201.657.043.28.15.65.236.822.088.173.119.316.07.318-.049.002.002.056.112.12s.252.085.314.047c.063-.039.114-.016.114.05 0 .067-.09.123-.2.124-.165.002-.151.04.074.214.15.115.219.23.152.254-.082.03-.09.194-.023.5.307 1.409.333 1.59.238 1.65-.137.085-.364.929-.284 1.057.113.183-.28.632-.607.694-.4.077-.935-.222-1.023-.57-.134-.534-.611-1.573-.712-1.55-.057.014-.08-.067-.051-.179.03-.112-.027-.27-.126-.353a.547.547 0 0 1-.18-.366c0-.12-.076-.248-.17-.284-.095-.036-.172-.14-.172-.23 0-.188-.528-1.288-1.152-2.4-.12-.213-.218-.508-.218-.655 0-.148-.077-.332-.171-.41a.514.514 0 0 1-.172-.343.504.504 0 0 0-.165-.338c-.09-.075-.223-.428-.293-.784-.071-.357-.228-.787-.35-.958-.12-.17-.22-.378-.22-.462a.462.462 0 0 0-.094-.262c-.052-.06-.163-.327-.246-.594-.084-.266-.192-.485-.24-.485-.079 0-.255-.6-.413-1.407-.034-.178-.207-.48-.383-.673-.176-.193-.353-.485-.394-.648-.072-.288-.192-.58-.643-1.562-.117-.255-.213-.577-.213-.716 0-.138-.128-.455-.285-.704-.157-.248-.286-.498-.286-.554 0-.112-.304-.835-.81-1.93-.183-.392-.332-.765-.332-.827 0-.063-.045-.114-.101-.114-.056 0-.179-.167-.273-.371-.373-.803-.63-1.412-.712-1.685-.086-.287-1.13-2.534-1.327-2.855a11.23 11.23 0 0 1-.346-.68c-.133-.28-.312-.58-.397-.665-.086-.086-.155-.278-.155-.428 0-.15-.2-.557-.445-.906-.244-.35-.48-.825-.523-1.058-.044-.233-.172-.488-.285-.567-.113-.08-.241-.286-.285-.46-.044-.173-.114-.341-.156-.373-.125-.095-.476-.768-.476-.912 0-.073-.157-.361-.35-.64-.191-.28-.404-.674-.473-.877a3.235 3.235 0 0 0-.32-.656 3.375 3.375 0 0 1-.334-.712c-.077-.236-.208-.467-.292-.514-.261-.148-1.013-1.794-1.161-2.542-.066-.333-.26-.784-.444-1.028a2.933 2.933 0 0 1-.277-.57c-.082-.22-.268-.657-.412-.971-.475-1.033-.852-2.046-.921-2.476-.037-.232-.139-.45-.225-.483-.087-.033-.158-.21-.158-.392 0-.182-.099-.557-.22-.832-.12-.274-.279-.83-.351-1.235-.073-.405-.205-.84-.295-.968a1.108 1.108 0 0 1-.162-.542c0-.17-.051-.342-.114-.38-.063-.04-.115-.261-.116-.493a3.21 3.21 0 0 0-.166-.878 3.449 3.449 0 0 1-.17-.944 6.09 6.09 0 0 0-.17-1.142c-.09-.36-.22-1.4-.288-2.31-.232-3.085-.185-2.939-.875-2.755-.243.065-.58.146-.748.18a1.1 1.1 0 0 0-.476.233c-.094.093-.524.22-.955.281a8.993 8.993 0 0 0-1.58.411c-.436.165-1.025.303-1.308.308-.524.008-1.256.245-1.256.406 0 .177-.82.382-1.545.386-.406.003-.739.039-.739.082 0 .043-.321.148-.714.234-.392.087-.79.196-.885.243-.094.047-.633.199-1.199.338-.565.14-1.181.333-1.37.43-.188.096-.556.163-.817.148-.31-.018-.646.06-.97.226-.375.191-.73.26-1.447.28-.77.023-.997.072-1.199.259-.172.159-.488.255-1.023.311-.54.057-.816.141-.914.281-.165.236-1.637.64-2.743.754-.424.043-.798.123-.832.177-.033.054-.366.098-.739.098s-.678.045-.678.1c0 .08-.734.261-.975.24-.033-.003-.14.073-.236.17-.096.095-.338.168-.538.162-.2-.007-.75.092-1.22.219a15.61 15.61 0 0 1-1.37.307 6.339 6.339 0 0 0-1.085.29 5.995 5.995 0 0 1-1.228.286c-.361.038-.657.11-.657.16 0 .082-.466.173-1.407.273-.177.019-.357.088-.4.154-.042.067-.36.15-.705.187a12.13 12.13 0 0 0-1.199.198c-.314.072-.71.143-.88.158-.169.015-.374.081-.456.146-.148.118-.775.21-2.111.308-.39.029-.805.105-.924.169-.12.064-.434.129-.7.144-.265.016-.51.073-.543.128-.034.054-.159.01-.278-.098-.192-.174-.217-.175-.217-.015 0 .201-.309.33-.914.382-1.095.095-3.205.489-3.386.633-.107.085-2.07.223-3.237.227a.82.82 0 0 0-.457.147c-.116.099-.585.146-1.457.148-.851.002-1.343.051-1.456.145-.097.08-.31.114-.494.077-.177-.035-.54.01-.804.102-.27.093-1.08.187-1.845.214-.75.026-1.418.081-1.483.122-.066.04-.773.074-1.572.076-.798 0-1.549.054-1.667.117-.118.063-1.013.138-1.988.166-.975.027-1.856.095-1.957.149-.102.054-.955.098-1.895.097-2.903-.004-8.61.116-8.718.183-.056.035-.51.012-1.009-.05a30.554 30.554 0 0 0-2.04-.162c-1.173-.05-2.865-.287-3.089-.432-.07-.046-.22.02-.333.144-.203.224-.247.552-.46 3.421-.093 1.26-.266 2.306-.423 2.558-.082.132-.164.54-.18.908-.018.368-.074.779-.125.914-.052.135-.096.461-.1.725-.004.263-.06.578-.124.699-.065.12-.172.463-.239.76-.066.296-.197.614-.29.707-.092.093-.17.383-.172.646a3.23 3.23 0 0 1-.18.933c-.322.844-.702 2.505-.784 3.426a9 9 0 0 1-.42 1.885 26.905 26.905 0 0 0-.622 2.157c-.156.653-.41 1.548-.564 1.99-.154.441-.28.955-.28 1.14 0 .187-.056.55-.124.809-.291 1.111-.378 1.39-.467 1.492-.052.06-.094.223-.094.364 0 .14-.052.288-.115.327-.062.038-.114.218-.114.4 0 .18-.051.36-.114.399-.063.039-.114.186-.114.328 0 .141-.108.48-.24.753-.131.272-.284.815-.34 1.206-.055.391-.153.85-.217 1.018a1.965 1.965 0 0 0-.117.575c0 .148-.048.286-.107.307-.06.02-.135.167-.169.324-.033.157-.17.645-.304 1.084-.133.44-.285 1.005-.338 1.257-.11.535-.953 2.993-1.062 3.103-.041.041-.075.234-.075.428 0 .48-.176 1.057-.387 1.268-.096.096-.146.25-.11.343.035.092.01.168-.055.168-.066 0-.155.244-.199.542-.097.668-.483 1.457-.964 1.972-.303.324-.353.452-.3.773.053.327.037.365-.104.248-.134-.112-.165-.098-.165.071 0 .115-.206.503-.458.861-.398.568-.442.692-.342.955.152.4.152.401-.126.401-.167 0-.22.053-.175.172.036.094.029.171-.016.171s-.175.227-.288.502c-.114.276-.307.592-.429.703-.122.11-.222.268-.222.35 0 .083-.064.126-.143.096-.079-.03-.208.092-.289.276a2.83 2.83 0 0 1-.37.59c-.124.142-.225.328-.225.412 0 .085-.04.154-.089.154-.048 0-.19.193-.314.429-.267.507-.369.65-.712.995a1.96 1.96 0 0 0-.382.617c-.068.197-.194.357-.278.357-.233 0-1.023.495-.87.546.072.024.132.098.132.163 0 .072-.066.063-.17-.022a.397.397 0 0 0-.37-.06c-.186.077-.184.09.026.177.148.06-.105.097-.713.102-.518.004-.942-.038-.942-.094zm-36.92-181.603c-.037-.09-.064-.064-.07.07-.005.12.022.187.06.15.038-.039.042-.137.01-.22zM49.05 283.324a.114.114 0 1 1 .228 0 .115.115 0 0 1-.114.114.115.115 0 0 1-.114-.114zm11.305-.229c0-.062.055-.114.121-.114.067 0 .09.052.05.114-.038.063-.093.115-.12.115-.028 0-.05-.052-.05-.115zm-11.41-1.436c.005-.134.032-.16.069-.07.033.083.029.181-.01.22-.037.037-.064-.03-.06-.15zm18.052-12.952c0-.157.025-.221.057-.143a.44.44 0 0 1 0 .286c-.032.078-.057.014-.057-.143zm108.409-4.225c-.04-.063-.016-.114.05-.114s.12.051.12.114-.022.114-.05.114c-.027 0-.082-.051-.12-.114zm-22.668-68.107c0-.09.064-.188.143-.22.107-.044.1-.088-.029-.18-.116-.081-.125-.12-.028-.122.078 0 .143-.073.143-.16 0-.087.08-.305.177-.485.172-.318.175-.307.098.354-.07.6-.238.974-.438.974-.036 0-.066-.072-.066-.161zm-61.29-11.244a3.085 3.085 0 0 1-.799-.486c-.175-.161-.408-.325-.518-.364-.11-.039-.2-.145-.2-.236 0-.189-.328-.838-.542-1.072a.645.645 0 0 1-.143-.376c0-.121-.043-.22-.095-.22-.208 0-.325-1.768-.211-3.176.103-1.271.089-1.541-.147-2.827-.215-1.17-.239-1.508-.136-1.906a31.6 31.6 0 0 0 .311-1.442c.102-.527.275-1.118.384-1.314.11-.195.237-.507.283-.692.201-.81 2.318-3.343 3.154-3.775.187-.097.34-.228.34-.29 0-.063.314-.422.697-.797.494-.483.786-.683 1-.684.165 0 .37-.046.456-.1.355-.225 1.317.63 1.405 1.25.026.187.115.281.267.286.126.004.318.048.427.097.11.05.353.037.541-.029.27-.094.379-.083.514.053.153.153.288.14 1.23-.125.581-.162 1.262-.318 1.514-.346.25-.028.801-.107 1.223-.177.421-.07.822-.093.89-.05.068.042.197.015.287-.06.09-.075.45-.132.8-.128.382.004.867-.083 1.207-.217.357-.14.842-.224 1.307-.224.446 0 .738-.048.738-.122 0-.07.097-.09.234-.047.135.043.345 0 .498-.1.146-.095.593-.208.994-.252.807-.087 1.78-.478 2.348-.945.742-.609 1.055-.824 1.634-1.124.981-.51 1.525-1.59 1.152-2.293-.057-.11-.193-.704-.302-1.321-.208-1.187-.185-3.819.039-4.416.19-.508.268-1.256.13-1.256-.173 0-.894.337-1.264.592-.167.114-.38.179-.474.143-.093-.036-.482.092-.863.285-.382.193-.765.35-.85.35-.087 0-.249.1-.36.224-.111.122-.424.256-.694.297-.342.051-.584.176-.79.409-.165.184-.354.3-.42.26-.066-.041-.231-.024-.367.037-.135.061-.554.203-.93.314-.378.111-.848.273-1.046.358-.198.086-.417.157-.487.157a.944.944 0 0 0-.325.098c-.11.055-.558.211-.998.348-.65.202-1.088.249-2.355.253-.856.003-1.653-.047-1.77-.11-.424-.23-1.248-.577-1.528-.645-.157-.038-.465-.227-.685-.42a7.957 7.957 0 0 0-.656-.522c-.141-.094-.257-.208-.257-.253 0-.045-.198-.291-.441-.546-.806-.848-1.606-2.302-1.839-3.342a5.869 5.869 0 0 0-.225-.742c-.243-.607-.36-1.786-.368-3.712-.007-1.68.018-1.944.235-2.439l.243-.555.54.081c.298.045.628.128.734.184.106.057.397.103.647.103s.472.047.493.105c.023.063.243.06.552-.008.283-.062.77-.152 1.085-.2.314-.047.765-.17 1.001-.272.237-.102.764-.213 1.171-.246.407-.033.872-.145 1.032-.25.161-.106.583-.207.942-.227.944-.051 1.33-.106 1.507-.216.086-.053.648-.114 1.249-.135 1.366-.047 2.705-.205 2.891-.341.286-.209.998-.39 1.477-.374.27.009.697-.014.949-.049.25-.035.885-.089 1.41-.12.524-.03 1.115-.108 1.313-.172.198-.065.677-.139 1.066-.165.388-.026.75-.075.803-.108.053-.033.728-.064 1.5-.069.772-.004 1.499-.06 1.616-.122.29-.155.342-.145.342.07 0 .144.058.164.257.09.141-.051.63-.091 1.085-.088.455.003.828-.038.828-.09 0-.053.077-.096.171-.096.094 0 .171.052.171.116 0 .076.415.098 1.171.063a25.08 25.08 0 0 1 2.427.034c.69.049 1.365.05 1.498.003.134-.047.29-.038.35.021.063.064.316.067.63.009.324-.06.6-.055.725.016.112.062.575.103 1.03.091.455-.012.858.028.896.088.108.175.909.27 2.28.269 1.194 0 2.353.182 2.848.447.114.061.654.141 1.199.178.545.037 1.094.12 1.22.185.22.115.402.163 1.592.416.31.067.597.174.637.238.04.065.162.083.27.041.11-.041.311-.02.448.05.532.269 1.52.59 1.814.59.17 0 .356.085.414.19.097.171.143.165.52-.067.227-.14.415-.342.417-.447.002-.104.17-.37.376-.59.29-.31.55-.444 1.167-.6.437-.11.967-.2 1.178-.2.321 0 .37.033.297.2-.09.21-.091.237-.05 1.057.014.283-.032.976-.102 1.542-.188 1.518-.163 2.119.1 2.455.139.177.224.466.225.762.001.263.071.546.155.63.084.083.19.305.236.493.046.188.217.624.38.97.36.765.482 2.068.256 2.752-.086.259-.342.62-.601.848-.462.405-.697.485-.823.282-.038-.063-.218-.114-.4-.114-.18 0-.355-.043-.387-.095-.032-.052-.356-.158-.72-.237-.891-.19-1.495-.351-1.976-.524a6.25 6.25 0 0 0-.913-.228c-.283-.046-.567-.127-.633-.179-.065-.052-.322-.145-.57-.205-.41-.1-1.563-.487-1.995-.67a2.146 2.146 0 0 0-.342-.107 71.12 71.12 0 0 1-.914-.203c-1.058-.241-2.198-.321-6.709-.474-1.177-.04-1.855-.106-1.855-.182 0-.073-.123-.09-.314-.044-.173.042-1.445.101-2.827.132-1.381.03-2.64.099-2.797.152a15 15 0 0 1-.8.231c-.282.074-.668.189-.856.255-.189.065-.548.17-.8.234-.25.063-.79.207-1.199.32-.408.112-1.23.29-1.827.393-.596.104-1.174.215-1.284.247-.398.114-.13 1.137.424 1.617.166.143.4.49.52.77s.275.51.344.51c.178 0 .453.295.453.485 0 .088.211.336.47.55.258.216.628.624.823.906.455.661.518.741.962 1.228.205.223.373.488.375.588.002.1.182.36.4.577.255.254.396.503.396.7 0 .168.077.369.171.447.094.078.172.29.172.471 0 .28.045.329.305.329.169 0 .464-.05.657-.109.193-.06.839-.19 1.436-.288.596-.1 1.367-.233 1.713-.296.345-.064.756-.131.913-.15a2.87 2.87 0 0 0 .625-.173c.29-.12.36-.112.478.05.128.175.158.176.403.004.426-.3.915-.397 3.576-.708.25-.03.585-.073.742-.098.387-.06 1.603-.391 1.733-.471.057-.036.177-.004.267.07.128.106.2.099.332-.033.182-.182 1.597-.539 2.135-.539.18 0 .624-.099.985-.22.362-.12 1.043-.25 1.514-.289 1.148-.094 1.596-.177 1.964-.363.17-.085.463-.156.653-.156.503 0 .625-.318.593-1.544-.015-.567.026-1.17.092-1.342.131-.346.467-.414.695-.14a.508.508 0 0 0 .335.172c.107 0 .406.218.664.485 1.017 1.051 1.477 1.568 1.433 1.612-.026.025.124.152.333.28.208.13.502.366.654.527.15.161.33.293.399.293.181 0 1.338.794 1.61 1.104.127.147.3.266.384.266.131 0 .722.505 1.183 1.013.558.613 1.37 1.4 1.607 1.554.156.103.5.629.769 1.179.268.546.543 1.03.61 1.075.173.113.23 2.227.076 2.799-.07.257-.259.587-.421.735l-.486.438c-.105.094-.478.267-.828.384-.695.232-1.038.201-1.875-.17-.402-.177-.665-.207-1.387-.158-.491.033-1.124.113-1.406.178-.66.152-.654.152-1.236.06-.352-.056-.695-.015-1.199.144a11.67 11.67 0 0 1-1.676.348c-.534.068-1.15.152-1.37.185-.36.054-1.586.192-2.97.333-1.138.116-2.748.316-3.882.48-.66.097-1.662.192-2.227.212a39.26 39.26 0 0 0-2.626.228c-.88.105-1.984.237-2.456.292-2.62.308-5.284.723-6.868 1.07-.417.09-1.317.202-1.998.245-.682.044-1.42.155-1.64.246-.22.091-.784.193-1.256.225-.58.04-.956.13-1.165.277-.17.12-.432.217-.582.217a.752.752 0 0 0-.48.229c-.113.125-.264.228-.334.228-.071 0-.203.103-.293.228-.09.126-.237.229-.325.229-.087 0-.327.147-.532.328a1.793 1.793 0 0 1-.927.41c-.304.046-.682.174-.84.285-.159.11-.481.264-.718.34-.236.077-.495.2-.575.273-.283.259-.651.42-.964.42-.173 0-.459.076-.634.167-.175.092-.495.2-.71.24-.215.04-.45.145-.523.232a.503.503 0 0 1-.34.16c-.114 0-.242.056-.284.124-.047.076-.232.096-.475.05-.273-.051-.458-.023-.587.09-.103.09-.383.226-.622.303a2.32 2.32 0 0 0-.73.414c-.163.151-.368.275-.455.275-.087 0-.412.128-.722.285-.31.157-.668.286-.797.286-.128 0-.321.103-.429.228-.107.126-.262.229-.345.229-.082 0-.179.077-.215.17-.036.096-.206.172-.382.172-.174 0-.38.078-.46.173-.158.191-1.08.627-1.326.627-.086 0-.157.039-.157.087 0 .085-.09.143-.75.484a2.813 2.813 0 0 0-.515.342 4.25 4.25 0 0 1-.57.4c-1.577.931-1.884 1.138-2.242 1.51-.138.142-.302.26-.363.26s-.19.078-.284.173c-.165.164-1.151.411-1.544.386-.101-.006-.4-.098-.665-.203zm3.394-52.66c-.094-.062-.455-.105-.802-.095-.347.01-.742-.04-.878-.113a1.452 1.452 0 0 0-.576-.132c-.488 0-1.425-.304-1.875-.61-.217-.147-.532-.302-.698-.344-.167-.042-.358-.179-.425-.303-.067-.125-.198-.227-.292-.227-.094 0-.205-.09-.246-.2a.84.84 0 0 0-.221-.314c-.081-.063-.3-.546-.487-1.073-.3-.844-.35-1.17-.418-2.74-.077-1.746.036-3.193.424-5.423.124-.716.52-1.667.756-1.818a.334.334 0 0 0 .142-.25c0-.266 1.304-2.118 1.453-2.062.076.029.278-.138.448-.371.17-.233.637-.706 1.037-1.051.886-.765 1.33-1.187 1.873-1.777.227-.247.618-.63.869-.85 1.005-.883 1.705-1.583 2.06-2.064l.743-1c.975-1.315 1.64-2.386 1.748-2.818.09-.355.461-1.046.692-1.284.076-.078.221-.438.322-.799.102-.361.282-.913.4-1.227.119-.315.272-1.111.34-1.77.07-.66.152-1.38.184-1.6.11-.755.177-3.883.086-4.025-.05-.078-.098-.374-.105-.656-.016-.673-.37-4.518-.459-4.997-.038-.205-.114-.401-.17-.435-.056-.035-.102-.227-.103-.427 0-.35-.231-1.257-.44-1.735-.123-.279-.551-1.699-.656-2.17a2.627 2.627 0 0 0-.201-.57c-.07-.126-.184-.512-.256-.857l-.32-1.542c-.104-.502-.24-1.004-.301-1.115-.062-.11-.194-.907-.294-1.77-.223-1.934-.146-5.707.18-8.705.071-.66.157-1.56.19-1.999.074-.974.233-1.427.501-1.427.2 0 .299.184.587 1.085.08.25.18.508.223.57.042.063.115.293.162.51.047.218.13.475.185.572.19.33.688 1.887.833 2.601.079.392.22.803.312.914.196.234.534 1.038.54 1.285.003.094.083.48.18.856.096.377.203.876.237 1.11.034.233.149.511.255.618.127.127.22.474.269 1.003.168 1.83.337 2.9.555 3.518.126.36.23.858.23 1.107s.046.481.103.516c.056.035.138.385.182.778.043.393.149.858.234 1.035.086.177.213.742.283 1.256.07.514.171 1.038.225 1.164.141.329.227 1.119.354 3.254l.16 2.667a13 13 0 0 0 .222 1.599c.096.448.17 1.175.163 1.615-.017 1.103.097 2.41.232 2.662.062.116.11.386.106.601-.004.215.023 1.492.06 2.837.077 2.761-.116 4.514-.676 6.154-.1.295-.326 1.104-.502 1.799-.176.695-.422 1.466-.547 1.713-.124.247-.29.655-.368.906a5.247 5.247 0 0 1-.46.971c-.175.283-.352.63-.395.77-.042.142-.12.258-.172.258-.09 0-.318.337-.853 1.264-.323.56-1.582 2.07-2.377 2.85-.36.355-.656.698-.656.761 0 .064-.135.262-.3.44-.587.633.05.809 2.07.571.314-.037.892-.077 1.284-.09.393-.012.714-.052.714-.088 0-.136 1.379-.365 1.763-.293.272.051.516.016.76-.11.197-.103.468-.157.602-.122.224.058.628-.03 1.303-.287a.54.54 0 0 1 .49.044c.163.101.251.106.31.016.094-.144.78-.266 1.852-.329.408-.024.948-.132 1.2-.24.662-.285 1.27-.414 2.112-.448a9.002 9.002 0 0 0 1.37-.174 7.76 7.76 0 0 1 1.237-.165c.361-.011.646-.08.701-.17.058-.093.214-.127.41-.09.173.034.595-.036.938-.154.343-.118.663-.19.711-.16.116.072 1.3-.146 1.921-.353.272-.09.534-.14.583-.109.05.03.264.004.477-.06.213-.064.747-.161 1.187-.218.92-.117.974-.13 2.087-.47.783-.24.838-.243.975-.056.135.184.164.179.426-.079.181-.179.473-.302.823-.349a3.67 3.67 0 0 0 .985-.298c.244-.124.47-.198.504-.164.034.034.162.008.284-.057.122-.066.394-.15.605-.187.509-.09.677-.247.677-.634 0-.177.052-.354.116-.393.063-.04.086-.12.05-.178-.036-.059-.021-.107.033-.107.187 0 .794.516 1.277 1.085.266.314.817.92 1.224 1.346.407.426.8.914.875 1.085.198.45.53.944.907 1.351.296.321.342.477.45 1.551.253 2.501-.414 3.852-2.336 4.726-.203.093-.524.26-.712.371-.359.212-1.055.41-2.108.602-.342.062-.68.16-.749.218-.07.057-.354.132-.633.166a3.958 3.958 0 0 0-.793.176c-.157.064-.696.163-1.199.222-.502.058-1.299.186-1.77.284-.47.098-1.216.207-1.656.243-1.449.117-3.05.387-3.412.576-.54.282-1.132.38-2.697.449-.785.034-1.562.115-1.728.18-.165.064-.37.101-.456.082-.086-.02-.311.022-.5.092-.188.07-1.01.217-1.827.325-.816.108-1.533.243-1.593.299-.147.138-.491.129-.539-.015-.024-.073-.269-.047-.666.072a7.556 7.556 0 0 1-1.027.235c-.22.025-.785.098-1.256.163-.471.064-1.1.133-1.399.153-.298.02-.621.102-.717.182-.096.08-.54.162-.988.183-.447.021-1.101.089-1.453.15a7.613 7.613 0 0 1-1.267.094c-.402-.011-.73.047-.914.162-.2.127-.727.204-1.77.26-3.067.162-3.77.173-3.94.06zM84.165 92.28c-.126-.056-.511-.107-.857-.116a7.819 7.819 0 0 1-1.142-.12c-.282-.058-.853-.17-1.267-.25-.415-.08-.826-.203-.914-.274-.088-.071-.34-.168-.56-.215-.22-.046-.5-.155-.624-.241a.984.984 0 0 0-.475-.157c-.137 0-.472-.187-.745-.415-.273-.228-.625-.47-.782-.537-.286-.122-.667-.429-1.162-.934l-.55-.562a68.21 68.21 0 0 0-.663-.663c-.477-.47-.883-1.191-.988-1.754a3.407 3.407 0 0 0-.259-.778c-.143-.277-.161-.573-.098-1.577.043-.68.152-1.479.242-1.776.09-.296.165-.714.165-.929.001-.402.21-1.216.585-2.275.119-.336.216-.841.216-1.124v-.515l-.657.07c-.36.039-1.144.087-1.741.108-.597.02-1.316.082-1.599.137-.283.054-.565.106-.628.114l-.835.104c-.397.05-.791.16-.877.246-.196.196-.28.196-.506-.002-.14-.122-.321-.134-.808-.054-.346.057-.986.121-1.423.143-.455.023-.812.095-.837.168-.051.155-.505.172-.658.025-.06-.057-.721-.136-1.471-.175-.75-.038-1.418-.114-1.484-.168-.117-.093-.348-.155-1.986-.53-.397-.09-.801-.244-.898-.34-.097-.097-.44-.348-.763-.557-.596-.387-1.9-1.567-1.9-1.72 0-.046-.13-.186-.288-.31a1.805 1.805 0 0 1-.45-.616 2.579 2.579 0 0 0-.466-.691 2.035 2.035 0 0 1-.422-.658 1.985 1.985 0 0 0-.33-.588c-.23-.256-.553-1.206-.554-1.635-.001-.148-.1-.457-.22-.685-.336-.645-.525-1.985-.512-3.642.01-1.192.05-1.557.189-1.713.097-.11.244-.43.328-.713.178-.604.414-.917.63-.834.085.033.154 0 .154-.071 0-.094.062-.097.224-.01.246.13.518.658.631 1.22.04.199.146.39.235.424.094.036.133.139.093.244-.048.124.007.203.173.246.14.037.243.156.243.279 0 .175.085.215.457.215.251 0 .457.052.457.116 0 .069.194.091.485.055.373-.047.433-.034.257.055-.164.082.046.1.742.06.534-.03 1.6-.054 2.37-.052 1.23.002 1.398-.02 1.398-.188 0-.154.077-.177.406-.124.293.047.423.02.468-.098.054-.14.097-.14.305.006.303.212 1.094.22 1.394.016.315-.217 1.225-.298 2.166-.194.44.048.851.048.914 0 .214-.166 1.64-.34 2.785-.342.276 0 .7-.046.942-.1.262-.059.413-.057.375.005-.08.13 1.146.012 1.578-.15.18-.07.615-.088 1.028-.045.42.044.95.02 1.286-.058.314-.073 1.247-.139 2.074-.147.826-.008 1.53-.041 1.565-.075.034-.034.384-.031.777.007.463.044.868.015 1.15-.082.253-.087.846-.14 1.43-.127.549.012 1.562-.07 2.253-.183.691-.112 1.54-.23 1.885-.261s.69-.108.766-.17c.078-.064.337-.081.585-.039.291.05.679.007 1.117-.122.37-.109.786-.204.927-.211a.604.604 0 0 0 .4-.208c.222-.298 1.452-.687 1.65-.522.121.1.192.1.292 0 .073-.073.327-.133.566-.133.239 0 .434-.04.434-.09 0-.05.321-.076.714-.06.392.017 1.202-.04 1.798-.126.597-.086 1.214-.154 1.37-.151.158.003.661-.01 1.12-.03.472-.02.884.017.951.084.176.176.073.618-.178.761-.307.175-.743.668-.747.843-.002.08-.08.176-.175.212-.094.037-.171.134-.171.218 0 .083-.103.184-.228.223-.126.04-.229.118-.229.174 0 .056-.115.223-.257.372-.141.15-.346.37-.455.49a6.372 6.372 0 0 1-.54.506c-.189.157-.343.344-.345.416 0 .072-.074.158-.163.192-.088.034-.244.348-.345.698-.143.49-.236.635-.407.635-.127 0-.293.135-.386.314-.09.173-.322.514-.517.758-.194.244-.353.537-.353.65 0 .114-.096.274-.213.356-.116.082-.348.419-.515.749-.167.33-.357.6-.423.6-.065 0-.088.049-.05.11.037.06-.037.175-.165.255-.128.08-.233.21-.233.29 0 .079-.077.143-.171.143a.17.17 0 0 0-.172.17c0 .092-.128.252-.285.355-.157.103-.286.258-.286.345 0 .087-.05.158-.114.158-.063 0-.114.077-.114.172 0 .253.383.207.71-.086a3.703 3.703 0 0 1 1.117-.726c.22-.098.724-.33 1.12-.514.774-.361.936-.35.936.062 0 .146.064.318.142.383.222.184.063 2.004-.243 2.792-.067.173-.118.584-.114.914.004.33.004 1.008 0 1.505-.005.498.045.97.11 1.047.121.147-.02 1.23-.254 1.93a13.7 13.7 0 0 0-.556 2.224c-.111.665-.21.917-.447 1.142a4.224 4.224 0 0 0-.565.717c-.144.236-.309.429-.366.429-.058 0-.105.064-.105.144 0 .079-.158.271-.35.428-.193.156-.566.49-.829.74-.442.423-.847.627-2.27 1.145-.848.309-.943.472-.742 1.273.368 1.474-.218 3.127-1.336 3.77-.646.37-1.664.559-2.067.381zm2.431-17.24c.359-.184.793-.37.966-.411.173-.042.314-.118.314-.17 0-.05.193-.155.428-.231.236-.077.565-.235.732-.352.166-.117.375-.212.463-.212.161 0 .66-.588.66-.777 0-.055-.216-.096-.481-.09-.379.008-.51.065-.609.265-.217.436-.7.8-1.33 1.003-.333.108-.72.267-.86.355-.14.088-.422.173-.626.19-.261.021-.412.112-.51.306-.141.285-.107.46.089.46.062 0 .405-.15.764-.335zM17.882 90.217c.007-.37.014-.377.118-.117.073.182.07.316-.007.394-.08.08-.115-.006-.11-.277zm29.483-2.981c-.144-.144.008-.553.205-.553.132 0 .142.343.016.542-.068.107-.123.11-.221.01zm-18.07-9.353c0-.066.05-.089.114-.05.062.039.114.093.114.12 0 .029-.051.051-.114.051s-.114-.054-.114-.12zm3.311-22.375c0-.063.055-.114.121-.114.067 0 .09.051.05.114-.038.063-.093.114-.12.114-.028 0-.05-.051-.05-.114zM22.56 53.594c-.001-.141.05-.257.112-.257.143 0 .143.121 0 .343-.09.138-.11.122-.112-.086zm-5.712-1.97c0-.062.055-.114.121-.114.067 0 .09.052.05.114-.038.063-.093.115-.12.115-.028 0-.05-.052-.05-.115zm.59-18.156c0-.157.025-.222.057-.143a.44.44 0 0 1 0 .285c-.032.079-.058.015-.058-.142zM46.09 21.525c.005-.133.033-.16.07-.07.032.083.028.182-.01.22-.038.038-.065-.03-.06-.15zM12.622 18.45c0-.094.052-.171.114-.171.063 0 .115.077.115.171 0 .094-.052.171-.115.171-.062 0-.114-.077-.114-.171zm4.532-2.757c-.161-.162-.07-.383.159-.383.16 0 .224.062.2.19-.041.21-.236.315-.359.193zm8.144-1.525a.114.114 0 1 1 .228 0 .115.115 0 0 1-.114.114.115.115 0 0 1-.114-.114zm-8.45-1.827c0-.063.054-.115.12-.115.067 0 .09.052.05.115-.038.062-.093.114-.12.114-.028 0-.05-.052-.05-.114zm-3.71-2.058c.039-.064.119-.086.177-.05.159.098.13.166-.071.166-.098 0-.146-.052-.107-.116zm.771-.698c-.132-.132-.074-.442.084-.442.135 0 .218.289.125.438-.06.097-.115.098-.209.005zm.198-2.212c0-.157.02-.285.044-.285.024 0 .068.128.098.285.03.157.01.286-.044.286s-.098-.129-.098-.286z" style="fill:#000;stroke-width:.114194"/>
</svg>
