<svg xmlns="http://www.w3.org/2000/svg" xml:space="preserve" width="210mm" height="297mm" viewBox="0 0 210 297">
  <path d="M144.004 273.513c-.235-.125-.645-.177-1.368-.174-1.85.006-2.165-.006-2.62-.108-.248-.055-.5-.07-.56-.032-.147.09-1.344.043-1.996-.08-.321-.06-.603-.054-.732.015-.131.07-.259.072-.344.004-.074-.059-1.08-.144-2.234-.189-1.155-.045-2.22-.127-2.366-.183-.146-.055-.663-.108-1.148-.116-.485-.008-.934-.048-.996-.088-.063-.04-.524-.081-1.026-.091a26.368 26.368 0 0 1-1.652-.092c-.407-.04-1.074-.09-1.481-.11a43.396 43.396 0 0 1-1.653-.121 37.17 37.17 0 0 0-1.709-.117c-.439-.016-.965-.067-1.17-.112a1.276 1.276 0 0 0-.712.058c-.276.115-.375.112-.524-.011-.177-.147-1.233-.218-3.286-.22-.436 0-.975-.05-1.197-.11-.222-.06-1.737-.137-3.366-.173-1.63-.036-3.265-.112-3.635-.17-.37-.06-.71-.083-.756-.054-.047.028-.618-.023-1.27-.114-.65-.092-1.413-.164-1.693-.16a9.657 9.657 0 0 1-1.306-.125c-.439-.071-1.516-.15-2.393-.176-1.433-.041-2.575-.127-4.672-.353-.652-.07-1.653-.137-3.02-.203a13.662 13.662 0 0 1-1.394-.165c-.422-.074-.91-.13-1.082-.122-.753.03-4.43-.255-5.13-.398-.433-.09-1.54-.165-2.535-.173-.971-.008-2.202-.067-2.735-.13-1.095-.131-1.102-.131-3.154-.11-.826.009-1.697-.035-1.937-.098-.42-.111-4.65-.276-6.217-.241-.422.009-.823-.018-.89-.06-.192-.118-5.92-.145-5.992-.028-.055.09-2.248.134-3.802.077-.282-.011-.59-.016-.684-.012-.094.003-2.305.029-4.913.056-2.609.028-4.798.085-4.865.126-.068.042-.933.07-1.924.062-.99-.007-2.031 0-2.313.017a4.242 4.242 0 0 1-.912-.052c-.25-.05-.6-.02-.94.084-.298.09-.541.119-.541.062 0-.057-.183-.103-.406-.103-.223 0-.38.042-.347.094.032.051-.414.104-.99.117-.577.013-1.46.074-1.964.135-1.344.162-5.71.133-10.309-.068a51.856 51.856 0 0 0-2.095-.037c-.763.004-1.154-.038-1.212-.131-.055-.09-.52-.152-1.323-.179-1.438-.048-2.844-.19-3.574-.362a23.813 23.813 0 0 0-2.26-.422c-.773-.092-1.044-.184-1.044-.356 0-.106-.138-.158-.42-.158-.45 0-1.047-.161-1.535-.414a1.857 1.857 0 0 0-.716-.156c-.39 0-.602-.097-2.464-1.13-.66-.365-1.929-1.197-2.158-1.413a2.91 2.91 0 0 0-.541-.35c-.204-.105-.37-.235-.37-.29 0-.056-.206-.297-.457-.534-.25-.238-.455-.524-.455-.636 0-.113-.049-.205-.108-.205-.06 0-.268-.333-.462-.74-.195-.408-.394-.741-.444-.741-.105 0-.42-.709-.519-1.168-.037-.172-.117-.313-.179-.313-.061 0-.112-.153-.112-.339 0-.256-.042-.322-.173-.271-.132.05-.173-.013-.169-.26.008-.46-.211-1.98-.334-2.321-.056-.157-.132-.608-.168-1.002-.035-.395-.117-.816-.182-.937-.152-.283-.062-2.883.101-2.937.068-.023.09-.184.052-.377-.048-.236-.007-.404.136-.561.112-.124.169-.225.127-.225-.042 0-.004-.172.083-.382.088-.21.196-.658.242-.997.045-.338.148-.692.23-.786.08-.094.319-.521.528-.949.848-1.727 1.451-2.709 2.148-3.497.345-.39.675-.793.733-.894.059-.101.2-.284.314-.406.114-.123.207-.273.207-.335 0-.061.203-.321.45-.577.872-.896 1.097-1.176 1.054-1.307-.025-.073 0-.118.054-.1.094.03.587-.477 1.187-1.221.15-.187.62-.7 1.043-1.14.422-.439.854-.926.959-1.083.105-.157.8-.905 1.544-1.662.745-.758 1.482-1.565 1.638-1.795.156-.23.343-.417.416-.417.074 0 .61-.5 1.194-1.111s1.197-1.252 1.364-1.425c.166-.172.344-.313.397-.313.052 0 .094-.053.094-.117s.252-.385.56-.712a70.549 70.549 0 0 0 1.964-2.169c.147-.176.473-.545.724-.82.25-.275.508-.567.57-.648l.512-.662c.218-.282.448-.571.512-.643.063-.072.27-.322.457-.555a36.5 36.5 0 0 1 .551-.666c.115-.134.32-.388.456-.564.136-.176.464-.552.73-.834.267-.283.485-.558.485-.61 0-.054.043-.114.096-.135.163-.065 1.157-1.478 1.157-1.646 0-.087.051-.158.113-.158.062 0 .183-.169.27-.376.085-.206.296-.467.467-.579.171-.112.414-.435.539-.718a4.48 4.48 0 0 1 .587-.93 5.2 5.2 0 0 0 .581-.85c.122-.24.334-.556.471-.704.262-.283.487-.648 1.338-2.175.282-.506.642-1.11.8-1.343.158-.232.324-.588.368-.79.083-.38.402-1.132.972-2.293.182-.37.331-.746.331-.835 0-.09.123-.53.274-.98.15-.448.385-1.303.521-1.898.137-.596.296-1.186.353-1.31.135-.298.688-3.304 1.08-5.87.165-1.086.2-2.125.203-6.095.004-4.582-.102-6.948-.394-8.766-.07-.434-.144-1.05-.166-1.367-.08-1.218-.263-2.767-.39-3.313a16.307 16.307 0 0 1-.226-1.31 58.844 58.844 0 0 0-.287-1.88c-.278-1.64-.383-2.38-.493-3.479-.053-.534-.153-1.075-.222-1.204-.068-.128-.183-.69-.255-1.25-.251-1.97-.69-4.37-.855-4.687a1.828 1.828 0 0 1-.167-.709c0-.214-.078-.65-.17-.968-.094-.32-.3-1.272-.458-2.118-.266-1.416-.37-1.821-.63-2.45a3.718 3.718 0 0 1-.162-.644 3.244 3.244 0 0 0-.226-.74c-.087-.18-.24-.81-.34-1.4-.175-1.04-.39-1.828-.533-1.945-.038-.031-.105-.416-.149-.855-.082-.823-.258-1.458-.57-2.05a1.749 1.749 0 0 1-.181-.676c0-.336-.17-.978-.356-1.345-.054-.108-.127-.441-.162-.74-.073-.631-.286-1.285-.417-1.285-.05 0-.091-.107-.091-.237s-.125-.553-.277-.94a12.488 12.488 0 0 1-.407-1.216 16.096 16.096 0 0 0-.596-1.9c-.122-.326-.192-.686-.155-.803.037-.116-.035-.412-.16-.658-.126-.246-.228-.491-.228-.544 0-.054-.121-.364-.27-.689a5.168 5.168 0 0 1-.35-1.16c-.045-.314-.155-.684-.244-.823-.09-.14-.219-.524-.288-.855-.068-.33-.224-.775-.347-.988-.122-.213-.195-.457-.162-.543.033-.086-.011-.322-.097-.525-.538-1.261-.75-1.897-.752-2.249 0-.219-.156-.962-.345-1.652-.19-.69-.375-1.421-.412-1.626-.038-.205-.113-.4-.167-.434-.054-.034-.098-.122-.097-.197 0-.083.048-.07.122.035.183.26.01-.66-.18-.956-.084-.132-.19-.548-.236-.924-.045-.376-.174-.897-.285-1.157-.112-.26-.184-.493-.16-.517.022-.023-.082-.465-.232-.983-.15-.518-.243-1.021-.205-1.119.037-.098.005-.217-.07-.264-.148-.09-.193-.298-.329-1.495-.046-.413-.173-.885-.281-1.05-.108-.166-.197-.508-.197-.76 0-.253-.046-.46-.104-.46-.057 0-.135-.449-.173-.997-.038-.549-.117-1.151-.175-1.34-.058-.187-.136-.803-.173-1.367-.037-.564-.117-1.042-.177-1.063-.06-.021-.11-.135-.11-.253s-.072-.383-.16-.588c-.18-.416-.426-2.047-.422-2.794.002-.31-.046-.473-.132-.456-.074.015-.149-.101-.166-.258-.067-.608-.29-1.545-.4-1.682-.064-.078-.15-.305-.19-.504a.671.671 0 0 0-.962-.456c-.135.066-.775.181-1.423.256-.961.11-1.234.107-1.481-.017-.346-.173-1.044-.848-1.044-1.01 0-.058-.09-.174-.2-.256-.11-.081-.21-.225-.222-.32-.034-.26-.26-1.174-.337-1.367-.038-.094-.083-.453-.1-.797a12.534 12.534 0 0 0-.156-1.31c-.137-.757-.071-1.347.172-1.549.087-.073.159-.2.159-.284 0-.199.5-.694.794-.787a.7.7 0 0 0 .35-.294.448.448 0 0 1 .353-.22c.13 0 .337-.129.461-.286.124-.158.275-.256.335-.218.06.037.338-.04.617-.17a7.31 7.31 0 0 1 1.049-.38c.298-.077.61-.205.692-.284.083-.08.211-.144.285-.144.074 0 .282-.119.462-.263.29-.231.311-.29.184-.493a1.835 1.835 0 0 0-.442-.435c-.26-.177-.49-.434-1.525-1.696a41.21 41.21 0 0 0-.652-.759c-.248-.282-.452-.6-.453-.707-.005-.276-.255-.807-.458-.97-.094-.076-.135-.14-.089-.143.046-.002-.035-.221-.18-.487-.145-.267-.355-.83-.466-1.253-.111-.422-.251-.738-.311-.7-.066.04-.083-.106-.044-.372.045-.302.035-.368-.034-.21-.08.184-.126.101-.239-.435-.076-.365-.203-.688-.282-.718-.1-.038-.147-.352-.154-1.005-.01-1-.188-1.888-.407-2.029-.089-.056-.076-.085.04-.087.152-.003.152-.017 0-.121-.15-.105-.15-.133.012-.244.152-.104.164-.207.073-.593-.18-.756-.138-6.32.05-6.62.04-.064.106-.602.147-1.195.042-.593.13-1.144.196-1.224.068-.083.095-.377.061-.675-.066-.59.09-1.179.312-1.179.167 0 .249-.362.28-1.244.012-.34.074-.716.138-.836.088-.165.069-.27-.081-.436-.19-.209-.187-.218.044-.218.204 0 .253-.09.318-.58.043-.323.146-.605.232-.639.085-.032.155-.125.155-.205 0-.08.077-.292.17-.472.094-.18.17-.413.171-.519 0-.106.052-.224.115-.263.062-.039.114-.196.114-.349 0-.162.066-.278.16-.278.103 0 .177-.17.21-.484.064-.595.405-1.987.574-2.34.068-.143.182-.238.252-.211.082.031.112-.063.083-.259-.033-.225.049-.408.306-.684.194-.207.352-.499.352-.649 0-.166.066-.273.17-.273.18 0 .184-.008.228-.433.015-.144.137-.364.27-.488.268-.25.317-.446.11-.446-.074 0-.023-.119.114-.264.136-.145.247-.308.247-.362 0-.055.1-.308.222-.563.122-.255.277-.61.344-.788.079-.211.179-.303.285-.262.103.04.142.007.106-.088-.034-.087.046-.177.191-.215.16-.042.226-.125.185-.233a.178.178 0 0 1 .099-.231c.09-.035.164-.156.164-.269 0-.113.147-.384.326-.602.18-.218.363-.563.408-.766.045-.206.153-.37.243-.37.096 0 .162-.115.162-.281 0-.175.097-.333.256-.418.147-.079.198-.157.12-.183-.164-.054-.063-.37.12-.376.308-.01 1.1-.928 1.1-1.275 0-.082.127-.244.282-.36.156-.117.257-.255.225-.307-.032-.051.041-.147.163-.212.136-.073.2-.197.166-.326-.037-.142.038-.25.238-.34.161-.074.293-.212.293-.307 0-.117.112-.174.344-.174.31 0 .337-.028.272-.284-.043-.173-.023-.285.052-.285.068 0 .201-.15.296-.334.095-.184.263-.364.373-.4.11-.037.345-.272.522-.521.176-.25.39-.454.476-.454.086 0 .189-.103.229-.228.04-.126.158-.232.264-.236.131-.005.107-.04-.078-.115-.223-.089-.245-.137-.128-.277.159-.192.454-.229.454-.056 0 .284.307.06.513-.373.15-.315.37-.553.646-.695.26-.134.395-.275.358-.372-.035-.09.015-.155.12-.155.098 0 .233-.103.3-.228.068-.126.175-.228.239-.228.063 0 .29-.14.502-.309.29-.231.357-.345.266-.454-.088-.107-.073-.164.056-.214.097-.037.149-.14.115-.23-.036-.093.007-.16.103-.16.091 0 .256-.1.366-.222a.887.887 0 0 1 .444-.256c.163-.024.329-.216.502-.582.172-.362.307-.52.4-.466.078.044.102.037.054-.015-.106-.117.468-.739.682-.739.084 0 .183-.078.22-.175.037-.096.223-.255.413-.354.19-.098.402-.223.47-.279.704-.564.842-.659.892-.61.031.032.139-.067.239-.22.1-.152.478-.423.841-.601.758-.372.989-.56.89-.721-.078-.125.429-.686.62-.686.065 0 .119-.064.119-.143 0-.079.151-.21.337-.292.185-.082.454-.273.598-.425.151-.16.393-.276.574-.277.173-.001.314-.066.315-.145 0-.078.206-.24.456-.36s.454-.289.454-.376c0-.172.556-.707.741-.713.063-.002.263-.132.445-.289.182-.156.4-.284.484-.284.085 0 .154-.052.154-.114 0-.063.07-.114.157-.114s.186-.107.22-.238c.047-.18.12-.22.298-.164.13.042.236.026.236-.034s.117-.138.259-.174a1.37 1.37 0 0 0 .493-.283c.128-.12.473-.324.766-.454.295-.13.533-.313.533-.407 0-.095.082-.218.181-.273.1-.056.174-.142.164-.191-.01-.05.085-.148.21-.218.124-.07.559-.32.965-.555.407-.235.773-.428.814-.428.042 0 .155-.08.252-.176.097-.097.321-.206.498-.241.216-.043.334-.145.357-.308.02-.145.208-.335.462-.471.234-.125.427-.293.427-.371 0-.113.047-.115.218-.008.183.114.283.086.627-.176.225-.171.409-.375.409-.452 0-.077.237-.21.528-.296.343-.101.548-.232.585-.375.043-.167.123-.203.33-.151.201.05.343-.009.548-.23.152-.164.33-.265.396-.224.066.04.12.026.12-.033 0-.06.106-.135.236-.17a.449.449 0 0 0 .294-.283c.032-.123.17-.277.305-.343.136-.067.501-.24.812-.385.846-.394.973-.476.973-.622 0-.074.231-.246.513-.382.283-.137.487-.292.454-.345-.033-.053.17-.13.452-.173.298-.045.635-.19.806-.35.162-.15.42-.272.573-.272.154 0 .61-.23 1.014-.512.403-.282.76-.513.791-.513.032 0 .278-.148.548-.328.27-.18.606-.363.748-.407.142-.043.228-.127.192-.186-.036-.058.027-.137.14-.175.114-.037.791-.356 1.505-.707.714-.351 1.366-.648 1.45-.66.083-.013.376-.207.65-.432.295-.241.624-.41.802-.41.18 0 .301-.063.301-.156 0-.094.181-.185.456-.23.25-.04.456-.119.456-.176 0-.127.566-.316 1.253-.42.677-.101 1.906-.683 2.063-.976.1-.188.2-.22.512-.17.26.042.388.018.388-.073 0-.156.662-.48.767-.375.038.039.154-.006.257-.1.104-.094.463-.223.8-.286.335-.064.695-.193.798-.286a.744.744 0 0 1 .428-.17c.133 0 .276-.056.318-.125.043-.068.2-.101.349-.073.15.029.271.017.271-.027 0-.108.812-.35.93-.276.053.032.096.01.096-.048 0-.122.332-.257 1.31-.531.376-.106.924-.29 1.218-.41.293-.121.637-.22.762-.22.126 0 .26-.05.3-.113.038-.063.195-.114.348-.114.153 0 .278-.051.278-.114s.098-.114.218-.114.445-.097.722-.216c.277-.119.986-.276 1.576-.35.59-.073 1.227-.2 1.415-.282.188-.083.624-.185.969-.227.344-.042.918-.152 1.275-.243a8.203 8.203 0 0 1 1.452-.193c.44-.015.823-.081.848-.147.027-.07.55-.13 1.284-.146.68-.014 1.39-.07 1.579-.126.588-.173 2.172-.239 2.315-.097.093.094.202.095.399.006.428-.195 2.015-.401 2.496-.324.248.04.542.014.676-.058.132-.07.27-.084.31-.03.088.12.469.167.697.086.094-.033.535-.08.98-.105.446-.024.857-.057.913-.073.056-.016.378.04.715.123.42.105.869.126 1.424.069.446-.047 2.612-.103 4.812-.126 2.374-.025 4.128-.09 4.312-.16.17-.065.344-.097.386-.072.324.193 5.592.3 6.714.136.486-.07.845-.063 1.128.024.268.082.487.089.616.02.135-.072.357-.052.68.062.265.094.786.17 1.158.17.942 0 3.15.33 3.599.54.273.126.552.152 1.044.096.385-.043.7-.03.737.031.037.06.259.094.494.078.49-.033 1.51.146 1.51.265 0 .044.5.146 1.111.227 1.635.215 2.7.398 2.764.474.137.16 1.186.475 1.79.536.363.036.685.097.717.135.092.112.85.353 1.112.353.133 0 .27.046.305.102.035.057.333.167.662.245.329.078.629.188.666.245.037.057.37.134.74.17.441.044.744.14.878.279.112.117.287.212.388.212.232 0 1.34.322 1.818.529.197.085.392.155.433.155.041 0 .316.11.61.244s.857.336 1.25.449c.684.195 1.521.62 1.602.812.02.05.145.09.277.09.131 0 .417.064.635.143.306.11.408.11.443.006.055-.162.932.406.938.607.002.072.146.157.318.19.578.113.656.141.938.339.154.108.366.197.47.197.103 0 .246.07.317.155.075.09.486.188.978.232 1.208.11 1.94.367 2.985 1.05.324.212.624.386.666.386.042 0 .207.102.367.228.159.125.441.228.627.228.185 0 .473.093.64.208.166.114.481.277.7.362.22.084.5.222.624.304.124.083.303.151.4.151.095 0 .478.217.851.481.373.265.937.576 1.254.692.316.117.793.29 1.06.387.266.097.484.221.484.277 0 .055.099.1.22.1.122 0 .254.052.293.114.038.063.295.217.57.342.274.125.528.276.566.337.037.06.14.08.23.047.089-.035.639.2 1.22.521l1.23.678c.614.337.912.468 1.068.468.098 0 .367.166.597.368.376.33.798.543 1.47.74.125.036.355.154.512.261a3.3 3.3 0 0 0 .705.33c.23.076.436.173.456.216.02.044.497.306 1.061.582.564.277 1.102.568 1.196.647.094.078.248.16.342.18a.66.66 0 0 1 .314.228c.078.105.293.223.477.264.185.04.53.211.77.38.542.383.93.58 1.258.642.14.027.427.18.638.34.21.16.424.292.474.292.051 0 .252.12.446.266.193.147.495.302.67.345.176.044.36.191.413.333.058.15.277.317.538.408.242.085.671.342.953.571.7.568 1.34 1.04 1.411 1.04.127 0 1.666 1.07 1.666 1.159 0 .051.078.094.174.094a.28.28 0 0 1 .24.17c.036.095.156.172.266.172.11 0 .323.12.472.265.15.146.362.298.471.338.11.04.2.155.2.254 0 .1.046.153.103.118.057-.035.396.216.752.558.356.343.746.654.865.692.12.038.217.13.218.204 0 .074.268.39.595.704.684.656 1.879 2.12 2.14 2.621.098.188.373.645.612 1.016.449.697.82 1.674 1.2 3.158.12.472.351 1.133.513 1.468.162.336.295.75.295.921 0 .188.173.53.44.869.243.307.48.683.527.836.047.153.153.355.235.45.171.196.675 1.57.794 2.164.044.22.17.501.282.627.25.281.806 1.85.928 2.62.328 2.064.35 2.403.217 3.287-.128.856-.718 2.354-.926 2.354-.052 0-.218.133-.369.295-.15.162-.555.388-.899.501-.674.223-1.25.179-2.027-.154-.598-.257-1.632-1.304-1.87-1.895-.115-.282-.33-.77-.48-1.085-.207-.436-.27-.763-.27-1.386 0-.55-.047-.83-.143-.863-.105-.035-.148-.526-.163-1.86-.025-2.31-.09-2.699-.563-3.372-.212-.302-.385-.574-.385-.605 0-.031-.244-.37-.541-.752a21.643 21.643 0 0 1-.836-1.147c-.162-.249-.585-.727-.94-1.063-.355-.335-.646-.684-.646-.775 0-.09-.423-.577-.94-1.08-.517-.504-1.05-1.064-1.183-1.244a1.97 1.97 0 0 0-.57-.493c-.18-.091-.711-.536-1.181-.987a36.454 36.454 0 0 0-1.302-1.2 37.607 37.607 0 0 1-.796-.691c-.19-.173-.445-.345-.564-.383-.2-.063-.452-.26-1.19-.927-.156-.14-.316-.256-.355-.256-.04 0-.365-.27-.724-.598-.821-.754-1.282-1.111-1.434-1.111-.065 0-.251-.174-.413-.386a3.942 3.942 0 0 0-.718-.685 3.693 3.693 0 0 1-.708-.688 2.593 2.593 0 0 0-.623-.59 4.832 4.832 0 0 1-.745-.607 5.214 5.214 0 0 0-.904-.69c-.445-.256-1.186-.873-2.57-2.14-.25-.23-.815-.604-1.254-.833a58.996 58.996 0 0 1-1.311-.702l-1.083-.607a10.402 10.402 0 0 1-.922-.583c-.194-.145-.44-.263-.545-.263-.106 0-.447-.13-.758-.287-1.094-.554-4.606-1.781-4.841-1.691-.092.035-.334.003-.538-.071a6.683 6.683 0 0 0-.942-.23 14.382 14.382 0 0 1-.997-.208c-.235-.06-.427-.076-.427-.034 0 .088-1.198-.031-1.923-.192-.289-.064-.933-.075-1.533-.025-.62.051-1.196.04-1.438-.028-.234-.065-1.01-.084-1.84-.046-.948.045-1.475.027-1.555-.054-.081-.08-.187-.084-.322-.008-.137.077-.312.067-.552-.031-.193-.079-.69-.148-1.104-.153-.413-.005-.977-.086-1.253-.18-.753-.255-1.937-.519-2.34-.52a1.78 1.78 0 0 1-.684-.173c-.18-.093-.43-.17-.557-.17a.969.969 0 0 1-.462-.163c-.216-.151-.791-.338-1.985-.643a14.115 14.115 0 0 1-1.227-.404c-.393-.15-.839-.273-.99-.273-.152 0-.304-.044-.338-.099-.033-.054-.261-.13-.506-.17-.245-.039-.72-.199-1.057-.355-.336-.157-.723-.285-.86-.286-.138 0-.278-.047-.313-.102-.034-.056-.242-.135-.462-.176-.22-.042-.4-.12-.4-.173 0-.054-.1-.073-.221-.04-.122.03-.338-.025-.481-.125a1.26 1.26 0 0 0-.616-.183c-.427 0-2.08-.41-2.263-.563-.076-.062-.197-.066-.29-.008-.099.06-.274.041-.453-.05a3.36 3.36 0 0 0-.69-.233c-.22-.046-.45-.122-.513-.17-.062-.047-.396-.122-.74-.166a647.492 647.492 0 0 0-2.678-.335c-.188-.024-.88-.171-1.539-.326-2.519-.595-4.105-.812-5.754-.786-.376.007-1.889.004-3.361-.006-1.473-.01-3.037.015-3.476.056-.439.04-1.46.13-2.27.201-.897.079-1.573.194-1.727.295-.169.11-.267.124-.294.042-.029-.085-.194-.07-.526.046-.266.094-.624.173-.796.175-.172.002-.748.052-1.28.11a57.93 57.93 0 0 1-1.71.16 61.67 61.67 0 0 0-1.367.118c-.632.063-3.096.175-5.413.244-.69.021-1.33.064-1.424.096-.375.126-1.101.232-1.425.207-.188-.014-.597.023-.91.083-.385.073-.593.07-.643-.011-.049-.08-.237-.06-.57.06-.496.178-2.42.43-3.175.415-.501-.01-1.644.165-2.153.329-.213.069-.427.1-.476.07-.05-.031-.122-.004-.162.06-.04.063-.218.115-.397.115-.179 0-.344.056-.367.123-.023.07-.337.124-.721.126-.375 0-.79.071-.925.156-.145.092-.56.153-1.026.152-.43-.001-.935.057-1.123.13a11.07 11.07 0 0 1-.911.285 8.773 8.773 0 0 0-1.026.352 3.19 3.19 0 0 1-.848.23 1.624 1.624 0 0 0-.708.265c-.28.206-.58.31-1.976.686-.188.05-.675.2-1.083.33-.407.132-.88.24-1.05.24-.17.001-.504.087-.74.19-.83.363-1.458.667-1.514.735-.032.038-.211.102-.4.144l-.582.13c-.41.094-1.297.637-1.297.795 0 .175-.25.287-.64.287-.153 0-.31.08-.348.18-.04.105-.155.158-.274.127-.118-.031-.306.055-.449.207-.134.143-.54.393-.9.555-.36.162-.786.414-.944.561-.311.288-.999.636-1.99 1.007-.343.129-.653.308-.687.398-.035.09-.205.237-.378.326-.173.09-.461.32-.641.511-.18.192-.507.398-.728.457-.41.112-.6.237-1.34.884-.233.204-.49.37-.572.37-.081 0-.26.119-.399.264-.138.145-.584.444-.991.664-.408.221-.792.5-.855.62a.53.53 0 0 1-.327.255.861.861 0 0 0-.341.144c-.486.403-1.031.788-1.118.788-.057 0-.206.096-.332.213a3.54 3.54 0 0 1-.643.427 3.757 3.757 0 0 0-.607.386c-.42.374-.955.752-1.37.968-.24.126-.664.446-.943.712-.279.267-.563.485-.63.485-.068 0-.308.18-.533.398-.226.22-.461.4-.523.4-.061 0-.24.153-.399.341-.158.188-.36.342-.448.342-.089 0-.161.043-.161.096 0 .053-.192.194-.427.313-.235.12-.453.244-.485.275-.205.209-.929.678-1.329.863-.26.12-.558.36-.661.533-.103.172-.246.313-.318.313-.072 0-.342.218-.602.484-.516.53-1.247 1.141-1.454 1.215-.072.025-.283.218-.468.427-.185.21-.382.38-.438.38-.055 0-.29.18-.52.399-.23.218-.468.398-.527.398-.15.001-.747.587-.749.735 0 .066-.134.224-.296.349a5.103 5.103 0 0 0-.54.496c-.48.526-1.335 1.27-1.46 1.27-.044 0-.112.103-.152.228-.04.125-.135.228-.211.228-.077 0-.317.217-.534.481-.615.75-1.21 1.342-1.35 1.342-.07 0-.127.051-.127.114s-.09.213-.2.334c-.34.374-.484.565-.484.64 0 .079-.573.726-1.047 1.182-.342.33-.89 1.105-.89 1.26 0 .056-.104.134-.231.174-.127.04-.47.442-.763.891-.292.45-.675.986-.851 1.192-.176.206-.32.43-.32.496 0 .105-.154.325-.685.976a.5.5 0 0 0-.113.252c0 .13-.467.88-.736 1.18-.1.112-.295.444-.435.738-.3.636-.543.95-.672.87-.052-.031-.094.042-.094.164a.522.522 0 0 1-.162.354c-.232.193-1.062 1.62-1.153 1.982-.043.17-.12.333-.17.364-.05.032-.256.394-.457.806-.2.411-.435.775-.522.808-.086.034-.157.196-.157.362 0 .283-.083.473-.616 1.403a2.3 2.3 0 0 0-.257.715c-.021.184-.081.364-.133.399-.174.117-.5.857-.55 1.245-.026.211-.123.53-.216.71-.093.18-.2.555-.238.834-.039.28-.135.534-.216.564-.08.031-.182.226-.227.434-.045.208-.125.406-.178.44-.053.034-.122.29-.154.57-.06.531-.158.928-.46 1.875l-.28.878c-.062.195-.054.322.02.347.071.023.055.104-.04.204a.869.869 0 0 0-.194.394c-.204 1.295-.264 1.581-.367 1.775-.066.123-.093.269-.059.324.034.055-.014.528-.106 1.052-.093.523-.17 1.121-.17 1.328-.002.208-.041.354-.088.325-.047-.03-.086.783-.086 1.805 0 1.08-.043 1.832-.103 1.795-.056-.035-.07-.01-.028.056.04.066.078.667.084 1.334.005.667.062 1.531.126 1.92s.114.837.111.996c-.004.186.19.52.548.938.305.357.616.842.692 1.078.076.236.189.493.25.57.062.078.078.275.037.438-.086.346.15.96.37.96.084 0 .229-.077.323-.171a.703.703 0 0 1 .433-.171.592.592 0 0 0 .405-.171c.078-.094.208-.171.29-.171a.262.262 0 0 0 .213-.142c.053-.114.08-.114.133 0 .104.223.455.168.913-.143.23-.157.512-.285.625-.285.113 0 .233-.044.266-.099.034-.054.317-.133.63-.174.311-.041.6-.13.641-.196.041-.066.173-.095.292-.064a.444.444 0 0 0 .383-.108c.158-.159.782-.303 1.244-.289.12.005.344-.093.5-.215.155-.122.371-.222.48-.222a.52.52 0 0 0 .345-.176c.08-.097.21-.152.288-.122.167.064 1.323-.193 2.215-.492.344-.116.921-.296 1.282-.4.36-.104.655-.24.655-.301 0-.072.08-.07.22.005.274.147.728.155.64.012-.095-.152.066-.224.634-.28.275-.028.648-.108.829-.178.181-.07.356-.1.388-.067.033.033.128.002.212-.068.113-.093.194-.093.306 0 .084.07.188.092.231.05.043-.044.192-.094.331-.113.14-.02.536-.132.88-.251.345-.12.952-.243 1.348-.276.426-.034.802-.132.92-.24.11-.099.282-.18.383-.18.1 0 .262-.08.36-.18.262-.26.74-.368 1.411-.315.363.029.592.001.592-.071 0-.065.073-.118.162-.118.089 0 .18-.055.202-.122.022-.067.423-.147.89-.18.469-.03.886-.112.928-.18.042-.068.324-.133.628-.144.655-.024 1.179-.156 1.179-.298 0-.056.068-.102.152-.102.083 0 .475-.106.87-.236.396-.13.879-.238 1.073-.241.195-.004.816-.108 1.38-.232a32.11 32.11 0 0 1 1.652-.32 32.31 32.31 0 0 0 1.254-.223c.344-.07.96-.15 1.367-.179.407-.028.869-.097 1.026-.154.68-.246 3.208-.58 4.586-.606.172-.004.314-.037.314-.075s.654-.086 1.453-.106c.798-.02 1.657-.051 1.908-.069.25-.017.602.02.781.081.227.078.35.074.404-.014.056-.092.2-.094.51-.008.237.066.747.154 1.133.197.631.07.718.111.872.42.19.379.219 1.27.08 2.555-.07.657-.16.937-.4 1.253-.17.224-.386.556-.477.737-.092.181-.373.458-.624.615-.25.156-.497.354-.547.44a.368.368 0 0 1-.285.155c-.107.001-.322.074-.479.163-.698.396-1.66.861-1.779.861-.071 0-.195.079-.275.175-.08.097-.227.165-.328.153-.1-.012-.326.038-.502.11a1.849 1.849 0 0 1-.57.132c-.137 0-.66.085-1.16.188a18.61 18.61 0 0 1-1.311.23c-.22.023-.86.116-1.424.206-.564.09-1.385.219-1.823.285-.44.066-1.029.192-1.31.28a7.52 7.52 0 0 1-1.113.23c-.682.08-.959.166-.89.276.025.041-.161.055-.414.031s-.492.004-.532.06c-.04.057-.533.168-1.097.247-1.018.141-3.49.649-3.817.783-.224.092-1.74.437-2.963.674-.533.103-1.225.313-1.538.466a7.762 7.762 0 0 1-1.197.441c-.344.09-.729.21-.854.266-.126.056-.55.166-.944.243-.393.077-.742.183-.774.235-.032.052-.274.15-.538.216a5.59 5.59 0 0 0-.707.225 10.69 10.69 0 0 1-.74.277c-1.024.345-1.54.542-1.652.63-.063.05-.269.12-.457.155-.872.164-1.308.302-2.012.633-.418.197-.855.357-.972.357a.925.925 0 0 0-.437.157c-.124.086-.405.19-.624.232-.915.174-1.447.35-1.821.6-.218.145-.487.265-.598.265-.111 0-.202.051-.202.114 0 .062-.122.114-.27.114-.243 0-.723.158-1.382.454-.975.44-1.329.571-1.532.571-.129 0-.234.04-.234.09 0 .049-.41.182-.912.295-.501.113-.911.252-.911.308 0 .056-.231.16-.513.23-.323.082-.513.193-.513.3 0 .095.18.467.399.828.22.361.399.707.399.769 0 .062.1.24.224.397.123.157.29.536.369.842.079.306.174.582.21.613.103.087.238.473.3.855.03.188.102.39.16.45.057.06.104.216.104.347 0 .132.043.288.095.348.116.133.383 1.03.422 1.419.016.156.138.72.272 1.253.135.533.323 1.427.418 1.987.096.56.208 1.073.25 1.14.04.066.083.582.094 1.146.01.564.097 1.282.193 1.595.177.579.596 2.63.79 3.875.059.376.233.96.388 1.296.154.337.341.991.414 1.453.074.462.174.84.222.84.049 0 .089.196.089.436s.121.74.27 1.111a9.21 9.21 0 0 1 .414 1.473c.08.438.208.925.286 1.082.078.157.208.582.289.945.08.364.19.687.241.72.052.031.095.231.095.443s.045.413.1.448c.056.034.215.434.353.89.14.455.348 1.083.464 1.397.117.313.245.723.287.911.04.188.199.697.351 1.131.153.434.372 1.126.488 1.538.116.413.326 1.032.467 1.377l.35.854c.052.126.176.51.276.855.1.345.252.78.336.968.154.342.22.558.403 1.31.053.22.278.912.5 1.54.222.626.405 1.252.407 1.391.002.139.077.421.167.627.09.206.25.784.353 1.286.105.501.232 1.014.284 1.14.052.124.119.355.15.512.108.563.4 1.79.73 3.076.187.721.403 1.619.48 1.995.08.376.183.811.232.968.048.157.151.516.229.798.077.282.208.743.291 1.025.084.282.231.923.328 1.425.097.501.249 1.219.336 1.595.41 1.75.56 2.451.691 3.19.077.44.223 1.08.324 1.425s.266 1.037.366 1.538c.1.501.226 1.117.28 1.367.283 1.323.38 1.917.465 2.85.25 2.737.358 4.14.35 4.547-.006.245.046.513.114.596.069.082.169.651.222 1.263.053.613.152 1.473.22 1.911.068.44.17 1.362.227 2.051.057.69.156 1.536.22 1.88.064.345.173 1.089.242 1.653.069.564.172 1.384.23 1.823.404 3.093.764 12.478.552 14.415-.416 3.81-.699 5.81-.89 6.303a2.34 2.34 0 0 0-.124.705c0 .212-.046.413-.102.447-.055.034-.133.255-.173.491-.04.236-.145.736-.233 1.112a20.852 20.852 0 0 0-.28 1.57c-.067.486-.196 1-.286 1.139-.09.14-.252.613-.36 1.052a10.094 10.094 0 0 1-.462 1.396c-.147.33-.4.92-.564 1.31a45.798 45.798 0 0 1-.798 1.759c-.277.575-.503 1.08-.503 1.123 0 .042-.115.22-.256.396l-.469.586c-.116.147-.334.536-.483.865-.148.329-.318.598-.375.598-.058 0-.221.244-.363.541a5.4 5.4 0 0 1-.665 1.012c-.807.93-.963 1.133-1.27 1.653-.33.555-.64.957-1.161 1.499-.172.18-.313.368-.313.418 0 .05-.193.267-.428.48-.235.214-.5.528-.589.698-.089.17-.306.45-.481.622-.176.172-.32.38-.322.462-.003.082-.052.119-.112.082-.06-.037-.175.059-.256.213-.082.154-.456.548-.832.876-.376.328-.743.736-.814.906-.143.337-.59.705-.743.611-.052-.032-.095-.003-.095.064s-.231.343-.513.614c-.282.27-.513.526-.513.569 0 .246-.808 1.235-1.224 1.498a4.42 4.42 0 0 0-.876.782 4.2 4.2 0 0 1-.846.758c-.251.156-.511.4-.577.542-.065.141-.35.42-.634.62-.283.2-.515.396-.515.436 0 .12-.893 1.022-1.011 1.022-.06 0-.176.151-.257.335-.082.184-.33.437-.551.562-.221.126-.575.438-.786.694-.53.644-1.302 1.43-1.532 1.558-.105.059-.825.73-1.6 1.492-.83.817-1.537 1.418-1.724 1.465-.173.044-.63.393-1.013.776-.384.383-.82.773-.968.867-.54.342-.813.59-.813.735 0 .082-.218.33-.484.55-1.192.985-2.25 2.023-2.25 2.205 0 .073-.155.443-.343.822-.188.379-.341.773-.341.877 0 .104-.099.326-.22.496-.28.395-.806 2.72-.806 3.572 0 .621.054.72.37.67.047-.007.086.033.086.09 0 .057.243.215.541.35.298.135.638.298.756.362.445.242 1.191.457 2.35.678.657.125 1.35.273 1.537.328.692.202 1.88.363 3.09.42.682.031 1.65.09 2.152.13.778.062 9.239.081 11.281.026l2.426-.059c1.21-.029 2.243-.08 2.298-.114.055-.034 1.552-.091 3.327-.128 1.775-.037 3.317-.115 3.428-.174a.434.434 0 0 1 .414.006c.117.063.243.083.281.045.064-.063 10.707-.207 11.356-.153.157.013.439.02.627.015 1.652-.04 9.22.047 14.585.17 1.38.032 3.225.072 4.103.09.877.018 1.62.048 1.652.066.031.018.364.045.74.06 3.605.144 4.747.202 5.926.303.752.065 1.598.106 1.88.09.97-.05 1.816.05 2.269.27.212.104.286.103.32-.001a.144.144 0 0 1 .182-.092c.144.048 1.83.14 4.237.232.814.03 1.943.108 2.507.171.564.064 1.804.135 2.757.16.952.023 1.798.084 1.88.135.082.051 1.148.103 2.37.116 1.223.012 2.992.055 3.932.095s2.58.09 3.646.109c1.065.02 2.578.07 3.361.113 2.441.131 4.026.196 4.537.186.27-.005.572.035.67.09.099.055.357.06.574.012.216-.05.531-.041.699.017.179.062.592.067 1 .011.384-.052.805-.055.938-.006.222.082 3.795.235 6.025.258.517.005.94.047.94.092s.167.073.37.063c.88-.047 1.468.025 1.387.168-.065.114-.05.114.073 0 .161-.15.59-.192.711-.07.04.04.472.085.96.1.487.016 1.194.06 1.57.098.702.07 3.416.168 4.986.18.739.004.917.043 1.08.234.212.247.668.307.739.097.032-.097.151-.094.465.008.296.098.532.106.792.027.204-.061.73-.089 1.168-.061 4.048.253 16.617.243 17.034-.014.06-.038.214-.013.34.055.127.067.23.082.23.033 0-.108.787-.182 1.454-.137.601.04 3.669-.23 3.96-.35.188-.077.95-.159 1.692-.18.776-.024 1.417-.096 1.506-.17.087-.072.42-.112.757-.091.332.02.665-.002.74-.05.12-.077 1.44-.23 3.11-.362a4.6 4.6 0 0 0 1-.217c.269-.097.833-.186 1.254-.196.87-.022 1.672-.16 2.046-.351.21-.107.297-.093.485.077.196.178.229.182.229.027 0-.166.193-.243.949-.377 1.195-.213 2.668-.582 2.79-.7.123-.119.044-.146-.427-.146-.318 0-.578-.04-.578-.091 0-.215.788-.369 2.735-.534.282-.024 1.18-.17 1.994-.324a161.762 161.762 0 0 1 3.061-.551c.117-.021.27.053.342.164.15.236-.008.386-.53.5-.281.06-.299.09-.155.253.423.483.299 1.043-.36 1.63-.228.201-.423.284-.58.243-.178-.047-.263.01-.348.236-.067.175-.202.297-.329.297-.18 0-.513.212-1.215.772-.253.203-.84.38-1.147.346-.25-.027-.336.017-.37.193-.066.333-.427.63-.728.597-.23-.024-.258.017-.232.346.021.273-.025.39-.171.438-.63.203-.812.314-.873.537-.052.188-.091.21-.167.094-.077-.12-.162-.09-.393.142-.163.163-.392.295-.51.295-.117 0-.251.038-.297.084a.412.412 0 0 1-.219.097l-.34.03c-.114.009-.18.061-.147.114.033.054-.156.165-.42.248-.264.083-.615.273-.78.424-.165.15-.37.285-.456.3-.301.05-.857.4-1.205.755-.217.222-.38.313-.427.236-.09-.144-.86-.168-.86-.026 0 .053-.104.216-.23.361-.2.23-.337.285-.843.33-.058.006-.071.044-.03.084.04.041-.061.145-.226.23-.165.086-.306.142-.312.126-.23-.612-.524-.666-.524-.097 0 .45-.012.465-.38.465-.286 0-.416.068-.529.279-.183.343-.41.439-.687.29-.163-.087-.285-.05-.54.164-.377.317-.94.5-.94.305 0-.208-.448-.144-.71.101-.135.126-.347.228-.47.228-.269 0-1.214.534-1.214.686 0 .06-.124.05-.285-.023-.276-.126-.742-.046-1.481.253-.125.051-.51.124-.855.162-.344.038-.96.166-1.367.284a9.684 9.684 0 0 1-1.578.283c-.46.037-.947.127-1.082.2-.135.072-.758.148-1.385.17-.627.022-1.755.084-2.507.138-1.64.118-3.947.043-4.24-.139-.067-.04-.18-.004-.251.083-.098.117-.24.132-.566.058-.24-.053-.585-.056-.766-.005-.45.127-3.198.072-3.377-.067-.14-.108-1.245-.026-1.739.13-.125.039-.379-.009-.563-.107zm38.937-13.006a.649.649 0 0 0-.342-.004c-.11.03-.047.055.14.057.189.002.28-.021.202-.052zm-76.377-21.498c-.05-.048-2.715-.173-5.582-.261-1.385-.043-3.329-.137-3.988-.195a54.006 54.006 0 0 0-1.597-.094c-.597-.028-1.16-.097-1.254-.155-.093-.058-.502-.09-.91-.073a5.618 5.618 0 0 1-1.42-.146 5.85 5.85 0 0 0-1.211-.178c-.293 0-.68-.077-.86-.17a1.788 1.788 0 0 0-.692-.172 3.48 3.48 0 0 1-.855-.156 13.74 13.74 0 0 0-1.135-.291c-.355-.075-.708-.21-.783-.3a.502.502 0 0 0-.336-.165.513.513 0 0 1-.342-.17c-.078-.095-.277-.173-.441-.175-.273-.003-1.277-.306-1.553-.467-.063-.037-.473-.156-.912-.266-.439-.11-.9-.24-1.025-.293a3.6 3.6 0 0 0-.63-.16 3.268 3.268 0 0 1-.835-.297 4.024 4.024 0 0 0-.91-.33 7.248 7.248 0 0 1-1.044-.33 30.524 30.524 0 0 0-.92-.358c-.263-.096-.436-.3-.705-.834-.616-1.227-.649-1.462-.427-3.113.109-.808.262-1.648.341-1.867.08-.22.263-.773.408-1.231.145-.458.305-.859.356-.89.05-.032.092-.136.092-.232 0-.471.863-1.059 1.56-1.064.453-.003.412-.229-.043-.237-.388-.006-.408-.02-.185-.128.308-.15 1.19-.015.94.143-.123.078-.093.103.121.103.157 0 .362-.05.456-.11.14-.091.143-.111.01-.113-.232-.002-.051-.15.25-.203.535-.095 1.017-.06 1.103.08.107.173 1.03.058 1.03-.128 0-.126.839-.075 1.168.072.144.064.2.037.2-.095 0-.138.105-.18.427-.17l.427.014-.342.095c-.23.063.007.085.725.064.86-.024 1.086-.066 1.173-.222.147-.262.622-.242.923.039.148.137.319.2.423.154.096-.043.389-.083.65-.089.48-.011.854-.182.399-.182-.136 0-.247-.051-.247-.114s.07-.114.157-.114.238-.122.336-.271c.166-.254.252-.273 1.295-.287 11.018-.145 12.25-.12 12.673.264.248.225.54.232.66.016.05-.09.297-.212.547-.27l.57-.135c.231-.056.41.003.341.113-.097.158.046.362.192.272.147-.09 3.302-.157 3.441-.073.056.034-.021.131-.17.216-.235.133-.047.146 1.38.097.909-.032 2.093-.082 2.631-.112.539-.03 1.667-.083 2.507-.117 3.26-.13 3.754-.158 3.845-.214.083-.051.829-.102 3.494-.239.376-.019 1.556-.172 2.621-.34a73.318 73.318 0 0 1 2.906-.403 40.585 40.585 0 0 0 1.709-.215 59.539 59.539 0 0 1 1.823-.24c3.453-.403 3.19-.348 3.19-.672 0-.3.056-.324 1.037-.47a13.58 13.58 0 0 0 1.454-.303 4.57 4.57 0 0 1 1.139-.166c.291.006.779-.07 1.082-.17.466-.152.529-.206.399-.335-.147-.147-1.603-.428-2.09-.405-.126.006-.588-.065-1.026-.157a36.433 36.433 0 0 0-2.051-.342 88.296 88.296 0 0 1-1.937-.287c-1.425-.238-2.689-.331-4.756-.349-1.636-.014-2.164-.054-2.262-.172-.094-.113-.186-.123-.347-.037-.164.087-.262.073-.395-.06-.16-.16-.937-.243-1.983-.211-.157.004-1.644.008-3.305.008-1.66 0-3.363.009-3.783.02-.42.01-.869-.037-.997-.105a.437.437 0 0 0-.468 0c-.165.088-.279.09-.38.007-.1-.084-.181-.08-.272.009-.092.092-.17.094-.277.006-.1-.084-.496-.094-1.23-.032-.595.05-1.109.076-1.142.057-.26-.15-9.037.102-9.474.272-.237.092-.335.082-.442-.047-.076-.092-.196-.127-.266-.08-.18.124-4.991.073-5.881-.061a26.773 26.773 0 0 1-1.767-.356 31.73 31.73 0 0 0-1.68-.352c-.36-.06-.847-.193-1.083-.296a3.359 3.359 0 0 0-.681-.222c-.301-.04-1.698-.777-2.025-1.067a1.629 1.629 0 0 0-.43-.274c-.11-.039-.247-.194-.305-.345-.115-.303-.685-.757-.951-.757-.093 0-.202-.128-.241-.285-.04-.157-.122-.285-.183-.285-.14 0-.149-.533-.011-.619.056-.034.164.014.242.108.077.093.258.17.402.17.144 0 .279.048.3.107.055.158 1.397.35 3.285.47.909.057 2.421.172 3.361.254 3.184.28 15.97.129 22.163-.261 1.034-.065 2.906-.164 4.16-.22a97.616 97.616 0 0 0 3.083-.177c.791-.074.806-.07.943.229.137.3.147.303 1.018.234 2.138-.17 4.538-.307 6.065-.344a784.58 784.58 0 0 0 4.217-.12c3.669-.113 5.24-.136 5.298-.078.028.029.809.074 1.735.102.926.028 2.12.065 2.652.08 1.462.046 3.217.182 3.343.26.061.038.657.08 1.323.095.666.014 1.51.088 1.874.163.394.082.705.096.766.035.06-.059.45-.063.928-.009.454.052 1.21.118 1.68.148 1.548.099 2.89.252 3.988.456 1.352.251 1.285.251 1.765-.007.376-.203.42-.205.71-.028.171.103.359.333.417.51.06.178.247.45.417.608.377.346.86 1.364 1.035 2.18.136.635.063 2.16-.128 2.662-.07.186-.196.285-.36.285-.139 0-.374.115-.523.254-.218.205-.483.276-1.374.365-1.312.13-3.278.111-4.466-.044-.874-.113-3.77-.34-5.424-.425l-.922-.048-.146 1.06c-.133.975-.273 1.376-.887 2.533-.079.149-.432.519-.785.823a43.06 43.06 0 0 0-.854.752c-.116.11-.304.2-.417.2a.552.552 0 0 0-.34.135.817.817 0 0 1-.39.174c-.139.021-.36.14-.492.264-.132.123-.339.227-.46.23-.311.006-1.2.26-1.495.425a1.19 1.19 0 0 1-.485.14c-.129 0-.235.05-.235.113s-.125.114-.277.114c-.399 0-.888.208-.806.342.04.062.017.114-.05.114-.066 0-.12.05-.12.11s.082.08.182.04c.232-.089.415.192.253.387-.067.08-.266.147-.442.147s-.465.058-.641.13l-.32.13.511.131c.538.139.648.309.524.806-.047.185-.258.355-.687.551-.341.156-.687.391-.77.522-.081.132-.366.377-.633.545-.266.169-.484.348-.484.398 0 .05-.079.091-.175.091a.28.28 0 0 0-.24.171c-.036.094-.182.17-.324.17-.311 0-.469.172-.578.628-.08.333-.557.842-.797.85-.161.005-.849.722-.849.884 0 .07-.156.162-.347.204-.191.042-.409.174-.483.294-.075.12-.225.218-.334.218-.109 0-.366.102-.57.227-.256.155-.575.228-1.01.228-.564 0-.653.033-.791.29-.106.198-.235.28-.402.258a.649.649 0 0 0-.435.124c-.123.102-.346.135-.643.095-.392-.053-.454-.032-.454.156 0 .124-.086.224-.2.235l-.49.04a1.46 1.46 0 0 0-.57.2c-.383.248-4.98.425-5.12.198-.068-.109-.123-.086-.216.088-.095.178-.241.236-.61.24-1.128.013-2.396.124-2.519.22-.073.057-.557.135-1.077.173-.618.046-1.005.13-1.12.244-.108.109-.416.182-.82.195-.356.012-.852.039-1.103.06-.726.06-3.79.173-6.267.23a94.866 94.866 0 0 0-3.02.108c-.409.03-.768.03-.799 0zm-2.356-7.694c.12-.01.173-.07.127-.146-.05-.08-.278-.104-.625-.063-.383.045-.584.02-.672-.087-.143-.173-.803-.302-.803-.158 0 .052-.102.095-.228.095-.125 0-.228-.041-.228-.091 0-.134-1.996-.34-2.812-.291-.388.023-.736-.007-.774-.069-.04-.067-.17-.071-.327-.012-.142.054-.46.063-.708.02-.52-.091-3.459-.061-3.556.036-.105.105.058.207.392.244.172.018.545.064.83.1.284.036 1.415.122 2.511.19 1.097.07 2.456.158 3.02.199.89.063 3.242.083 3.853.033zm-12.114-.638c0-.027-.051-.082-.114-.12-.063-.039-.114-.016-.114.05s.051.12.114.12.114-.022.114-.05zm.104-6.972c.056-.05-1.046-.087-1.5-.052-.18.014-.313-.033-.313-.11 0-.102-.042-.1-.17.004-.328.272-.046.354.949.276.543-.042 1.008-.096 1.034-.119zm.838-.002a.649.649 0 0 0-.342-.004c-.11.029-.048.054.14.056.188.002.28-.02.202-.052zm.684 0a.649.649 0 0 0-.342-.004c-.111.029-.048.054.14.056.188.002.279-.02.202-.052zm6.787-.025c.251-.16-.069-.218-.836-.153-.49.042-.619.083-.455.147.308.121 1.104.124 1.291.005zm.93-.014c.19-.061.219-.095.086-.103-.11-.006-.2-.09-.2-.185 0-.152-.035-.15-.283.012-.465.305-.221.474.398.276zm-3.677-.07c-.037-.037-.136-.041-.218-.007-.09.036-.064.063.069.068.12.005.187-.022.15-.06zm4.96-.005a.44.44 0 0 0-.285 0c-.079.031-.015.057.142.057.157 0 .22-.026.143-.057zm2.535-.039c.039-.062-.01-.114-.107-.114-.098 0-.178.051-.178.114s.048.114.107.114c.06 0 .14-.051.178-.114zm30.411-2.59c.046-.044.259-.093.474-.107.215-.013.48-.08.591-.148.153-.093.036-.108-.482-.059-.376.035-.759.14-.85.23-.147.147-.146.167.008.167.097 0 .214-.037.259-.082zm2.349-.423c0-.027-.051-.082-.114-.12-.063-.04-.114-.017-.114.05 0 .066.051.12.114.12s.114-.022.114-.05zm-13.104-7.572c0-.072.207-.126.484-.127.267 0 .767-.025 1.111-.053.607-.051.613-.05.171.063-.753.192-1.766.259-1.766.117zm-24.385-34.884c-.094-.063-.402-.085-.684-.05-.299.039-.82-.006-1.253-.11-.902-.213-.947-.215-.84-.036.063.104.036.102-.1-.007-.142-.115-.241-.12-.426-.021-.18.096-.342.095-.641-.003-.22-.073-.505-.105-.632-.072s-.541.01-.921-.051c-.473-.076-.729-.074-.81.007-.066.065-.363.12-.66.12-.297 0-.573.053-.614.119-.048.077-.12.08-.206.009-.073-.06-.491-.086-.93-.056-1.534.102-1.698.08-3.134-.43-1.505-.534-3.31-1.596-3.755-2.208-.09-.125-.436-.499-.767-.83-.332-.33-.636-.741-.677-.911-.041-.17-.2-.537-.352-.814-.152-.276-.372-.943-.488-1.48a46.044 46.044 0 0 0-.392-1.662c-.218-.823-.27-3.837-.08-4.615a5.77 5.77 0 0 0 .127-1.104c.001-.325.053-.721.113-.88.061-.16.135-.56.164-.89.074-.823.246-1.883.395-2.428.068-.249.205-.914.304-1.478.335-1.89.798-4.106 1.085-5.185.058-.22.214-.963.347-1.652.581-3.022.994-5.014 1.135-5.478a2.68 2.68 0 0 0 .107-.638c0-.158.047-.437.104-.619.057-.181.187-.74.29-1.241a24.28 24.28 0 0 1 .402-1.653c.226-.772.315-1.31.402-2.436.03-.382.12-.725.212-.798.088-.07.222-.397.298-.726.076-.329.184-.627.24-.662.057-.035.103-.26.103-.5 0-.239.076-.582.17-.762.11-.21.17-.654.17-1.257.002-1.027.062-1.29.297-1.29.087 0 .15-.09.14-.2-.05-.605.03-.826.362-.997.231-.12.34-.26.333-.43-.005-.14-.035-.19-.066-.112-.114.282-.267.135-.267-.256 0-.22.051-.399.114-.399s.114.054.114.12c0 .067.051.09.114.051s.114-.205.114-.37c0-.288-.007-.291-.167-.079-.152.2-.168.203-.171.021-.005-.26.523-2.245.81-3.047.123-.345.345-1.089.491-1.653a62.66 62.66 0 0 1 1.454-4.842c.31-.91.59-1.78.62-1.937.031-.157.098-.388.148-.513.18-.453.917-3.008.917-3.183 0-.098.05-.179.11-.179s.166-.218.235-.484c.154-.59.652-2.108.795-2.421.057-.126.162-.459.234-.741.071-.282.17-.564.22-.627.049-.062.127-.293.174-.513.13-.605.632-1.595.81-1.595.086 0 .157-.077.157-.172 0-.094.102-.26.228-.367.125-.107.228-.313.228-.456 0-.144.18-.707.398-1.25.22-.545.4-1.084.4-1.2 0-.115.072-.323.161-.462.09-.138.252-.534.362-.879.11-.344.238-.653.285-.685.1-.067.416-.903.561-1.481.114-.455.475-1.259.792-1.765.118-.188.22-.47.226-.627.006-.156.139-.49.293-.74.154-.25.281-.563.281-.695 0-.131.097-.326.215-.432.118-.107.246-.384.284-.616.038-.232.198-.674.355-.983.158-.308.286-.62.286-.694 0-.074.103-.227.228-.34a.806.806 0 0 0 .228-.524c0-.175.051-.35.114-.388.063-.039.114-.166.114-.282 0-.117.075-.358.167-.535.344-.667.745-1.625.745-1.78 0-.087.102-.252.228-.366.125-.113.228-.318.228-.456 0-.137.101-.341.225-.453.124-.113.26-.39.3-.616.041-.227.358-.95.703-1.608a55.86 55.86 0 0 0 .84-1.653c.117-.25.32-.66.454-.911.133-.25.417-.808.63-1.238.215-.43.464-.857.556-.948.091-.092.166-.242.166-.335 0-.236.32-.844.622-1.182.27-.303.86-1.329.86-1.496 0-.055.171-.343.382-.64.906-1.283 1.118-1.825 1.184-3.027.05-.888.11-1.177.294-1.412l.232-.294.263.329c.145.181.264.384.264.45s.18.476.4.911c.219.436.398.9.398 1.034 0 .133.07.3.157.372.111.093.184.63.252 1.866.053.954.086 1.812.074 1.907-.012.094-.055.632-.095 1.196s-.143 1.174-.23 1.356a1.78 1.78 0 0 0-.157.634c0 .166-.076.402-.168.524a.915.915 0 0 0-.17.449c-.003.126-.18.59-.395 1.033-.215.443-.502 1.11-.639 1.481-.392 1.067-.505 1.351-.586 1.477-.042.065-.25.45-.463.855-.212.405-.442.84-.51.965-.069.125-.296.587-.506 1.026-.21.438-.412.823-.45.854-.04.032-.109.178-.155.325-.185.592-1.46 3.113-1.603 3.168-.084.032-.188.219-.231.415-.124.562-.907 2.166-1.174 2.405-.134.12-.243.275-.243.345 0 .07-.141.26-.314.422-.512.481-1.005 1.246-1.324 2.055-.164.418-.3.809-.3.868 0 .059-.256.496-.569.971-.313.475-.57.912-.57.97 0 .165-.558 1.122-.744 1.277-.092.077-.167.205-.167.286 0 .082-.04.165-.09.186-.138.058-.822 1.217-.822 1.392 0 .084-.114.299-.254.476-.14.178-.24.432-.222.565.017.135-.09.362-.244.518-.26.262-.875 1.463-.875 1.708 0 .063-.147.408-.326.766-.18.359-.518 1.254-.752 1.99-.235.736-.524 1.462-.643 1.614-.119.15-.216.36-.216.463 0 .25-.435 1.268-.755 1.77-.14.22-.34.706-.446 1.082-.106.376-.237.733-.293.792a.49.49 0 0 0-.102.29.535.535 0 0 1-.142.325c-.078.079-.227.46-.331.85-.24.896-.517 1.712-.792 2.328-.119.266-.216.668-.216.894 0 .227-.074.548-.166.714-.09.166-.214.533-.274.815-.06.282-.35 1.436-.642 2.564-.78 3.002-.724 2.728-.913 4.387a7.33 7.33 0 0 1-.234 1.14c-.09.281-.263 1.063-.387 1.737-.123.674-.27 1.315-.324 1.424-.054.11-.156.482-.225.827-.07.344-.229 1.113-.354 1.709a43.286 43.286 0 0 0-.282 1.424c-.029.188-.185.88-.346 1.539-.161.658-.294 1.365-.295 1.572a1.823 1.823 0 0 1-.158.684c-.085.169-.184.846-.22 1.504-.034.658-.138 1.453-.23 1.766-.092.313-.279 1.339-.415 2.279-.136.94-.297 1.9-.358 2.135-.06.234-.136.773-.168 1.197-.061.81-.517 3.931-.787 5.385-.088.47-.191 1.162-.23 1.538-.04.376-.202 1.428-.36 2.336-.361 2.09-.497 4.272-.36 5.79.11 1.214.28 1.617.682 1.617.108 0 .223.044.257.099.034.054.278.133.542.176.265.042.54.126.613.186.2.167 1.15.35 2.102.408.47.028.987.103 1.149.167.675.265 9.318.777 12.126.719 2.502-.052 5.085-.17 5.697-.26.376-.056.735-.062.798-.014.062.048.832.015 1.709-.072a59.15 59.15 0 0 1 3.148-.213c.854-.03 1.905-.113 2.336-.186.43-.072 1.27-.163 1.866-.2 1.04-.067 1.08-.08 1.047-.326-.025-.176.022-.256.15-.256.134 0 .165.063.113.228-.068.213-.02.227.762.227.458 0 1.141-.052 1.517-.115a43.753 43.753 0 0 1 3.703-.404c1.799-.106 2.056-.26.342-.205-.909.029-1.832.083-2.05.12a9.44 9.44 0 0 1-.86.093 69.73 69.73 0 0 0-1.453.107c-.654.055-.992.043-.992-.033 0-.24.696-.333 3.555-.474 1.298-.064 2.479-.161 2.624-.216.146-.056.904-.13 1.686-.165.782-.035 1.575-.092 1.763-.126.188-.034 1.086-.117 1.994-.183a56.654 56.654 0 0 0 2.45-.226c.439-.058 1.26-.133 1.823-.168.564-.034 1.18-.091 1.368-.126a27.6 27.6 0 0 1 2.792-.326 21.73 21.73 0 0 0 1.652-.17c2.315-.336 2.905-.385 2.905-.242 0 .068.103.125.228.125.126 0 .228.052.228.117 0 .19-.457.299-1.358.325-.465.013-.885.049-.934.079-.049.03-.31.08-.579.11-.27.031-.67.102-.89.157l-.398.1.382.012c.376.011 1.156.314 1.156.448 0 .038-.137.187-.304.33-.21.181-.377.238-.541.184-.481-.16-1.102.032-1.755.54-.2.157-.331.181-.541.102a.784.784 0 0 0-.59.025c-.52.217-1.332.416-1.435.352-.053-.033-.218.005-.367.085-.213.114-.306.115-.437.005-.137-.113-.223-.076-.472.203-.261.293-.412.352-1.062.416-1.64.16-1.687.172-2.207.551-.236.172-.522.233-1.183.253-.525.015-.905.08-.955.161-.046.075-.207.126-.356.113-.15-.012-.298-.01-.329.004-.031.015-.29.04-.573.055-.284.015-.72.132-.97.26-.25.126-.76.269-1.136.315-.448.056-.767.166-.929.321-.19.183-.406.24-.95.251-.388.008-.739.063-.78.12-.04.058-.29.16-.552.228-.394.101-.508.092-.653-.052-.158-.158-.202-.15-.441.074-.147.138-.401.25-.566.25-.164 0-.328.047-.363.104-.035.057-.333.1-.662.097-.606-.007-1.095.077-1.51.26a5.85 5.85 0 0 1-.698.22c-.26.065-.534.194-.61.287-.105.125-.379.165-1.084.155-.518-.007-1.012.03-1.098.083-.085.053-.36.105-.61.117-1.138.052-2.014.185-2.578.391-.635.233-1.686.3-1.873.12-.065-.063-.425-.04-.906.057-.78.158-4.01.379-5.8.397-.494.005-1.013.053-1.153.106-.147.056-.299.052-.36-.009-.065-.065-.32-.066-.656-.004-.32.06-.695.06-.9.002-.22-.063-.394-.058-.464.012-.148.147-1.67.143-1.89-.005zm29.114-6.947c.04-.065-.058-.114-.228-.114s-.268.05-.228.114c.039.063.141.114.228.114.086 0 .189-.051.228-.114zm1.88-.114c.126-.082.05-.11-.285-.11-.25 0-.533.05-.627.11-.126.081-.05.11.285.11.25 0 .533-.05.627-.11zm-36.236-58.691c0-.13-.05-.203-.114-.164-.062.038-.114.144-.114.234 0 .09.052.164.114.164.063 0 .114-.105.114-.234zm.31-.994c-.038-.158-.07-.14-.165.089-.065.157-.091.33-.058.385.089.15.278-.25.223-.474zm-52.455 19.92c-.03-.028-.25-.038-.492-.02-.241.017-.944-.024-1.562-.092a71.514 71.514 0 0 0-1.75-.172c-1.676-.13-2.994-.437-4.158-.97a12.354 12.354 0 0 0-.958-.4c-.36-.113-1.01-.71-1.107-1.015a.914.914 0 0 0-.21-.354c-.365-.313-.691-2.208-.53-3.077a891 891 0 0 1 .282-1.514c.098-.519.26-1.025.36-1.125.1-.1.156-.25.125-.33-.031-.082.017-.21.107-.285a.493.493 0 0 0 .164-.328c0-.106.145-.331.321-.5.283-.271.313-.365.254-.79-.125-.909.34-1.415 1.182-1.289.289.043.788 0 1.262-.11.432-.1.876-.159.987-.13.11.029.37-.037.576-.146a4.036 4.036 0 0 1 1.287-.406c.125-.017.715-.116 1.31-.219l1.823-.313c.408-.069.87-.175 1.026-.237.157-.06.746-.18 1.31-.266 1.879-.284 2.165-.339 2.336-.445.152-.093.394-.143 1.653-.34.188-.029.623-.104.968-.167.345-.064 1.048-.185 1.563-.271.515-.086 1.007-.214 1.093-.286.086-.072.183-.104.216-.07.033.032.191.007.353-.053l.293-.112-.562-.946c-.31-.52-.563-.98-.563-1.022 0-.082-.73-.248-1.88-.43-1.595-.25-1.926-.349-2.963-.876-.125-.064-.58-.292-1.01-.506-.431-.215-.878-.467-.992-.561a36.604 36.604 0 0 0-.425-.342 7.192 7.192 0 0 1-1.347-1.335c-.258-.327-.497-.565-.532-.53-.035.035-.153-.108-.26-.318a5.904 5.904 0 0 0-.514-.78c-.4-.505-1.244-2.113-1.244-2.37 0-.106-.146-.502-.325-.88-.263-.557-.311-.78-.256-1.194.05-.366.126-.52.273-.549a.468.468 0 0 1 .536.45c0 .117.073.213.163.213.09 0 .2.114.243.253.119.373 1.183 1.17 1.733 1.298.171.04.431.147.578.239.214.134.407.145.969.058.385-.06.82-.113.965-.118.145-.004.546-.066.89-.137.344-.072.705-.1.8-.063.097.037.517.009.934-.06.417-.069.835-.137.93-.15.822-.118 1.215-.338 1.708-.96.282-.354.588-.691.68-.75.092-.057.283-.22.424-.36.141-.142.374-.293.517-.337a1.41 1.41 0 0 0 .435-.232c.096-.084.404-.256.683-.383.28-.126.679-.381.886-.566.208-.186.528-.37.712-.41.185-.041.335-.121.335-.18 0-.057.068-.104.15-.104.083 0 .272-.14.42-.31.175-.2.286-.258.317-.164.035.106.084.095.183-.04.147-.202.754-.133.754.085 0 .066.072.055.17-.027.094-.078.171-.205.171-.283 0-.078.154-.335.342-.571.188-.237.342-.372.342-.3 0 .177.23.162.447-.03.121-.108.607-.18 1.49-.223.894-.044 1.546-.142 2.051-.31 1.03-.342 1.967-.255 2.777.258.56.354 1.632 1.152 2.237 1.664l1.134.958c2.246 1.9 3.183 3.205 3.193 4.456.003.411-.395 1.288-.653 1.434-.182.104-.164.181.22.946.449.894.531 1.093.82 1.972.207.63.25 1.713.072 1.823-.063.039-.114.173-.114.299 0 .685-1.03 2.14-1.795 2.535-.188.097-.373.256-.41.352a.285.285 0 0 1-.241.175c-.096 0-.175.04-.175.087 0 .09-.374.275-.988.488-.199.069-.39.198-.424.288-.037.098-.22.163-.458.163-.217 0-.425.048-.46.106-.037.058-.258.164-.492.235a15.29 15.29 0 0 0-.824.282c-.574.22-2.135.7-2.735.842-.282.067-.77.18-1.083.25-.313.07-1.467.132-2.563.135-1.78.006-2.062-.019-2.621-.238-.345-.134-.68-.245-.746-.245-.065 0-.373.23-.683.513-.311.281-.647.512-.747.512-.1 0-.3.103-.444.228-.24.208-.896.454-1.214.456-.071 0-.16.077-.195.17-.035.093-.273.202-.529.243-.255.04-.436.1-.403.134.033.033-.145.152-.395.264-.25.112-.456.255-.456.317 0 .153 1.939.04 2.869-.166a13.66 13.66 0 0 1 1.69-.223l1.58-.102c.335-.021.643-.092.683-.157.075-.12.85-.194 3.206-.309.72-.035 1.482-.12 1.693-.187.21-.068.748-.137 1.196-.154a10.172 10.172 0 0 0 1.44-.166c1.05-.227 3.169-.437 3.562-.353.203.043.447.04.541-.006.302-.15.624-.253.723-.23.053.011.267-.04.477-.116.301-.11.416-.108.554.006.095.079.233.106.307.06.073-.045.473-.091.888-.103a13.687 13.687 0 0 0 1.608-.168 9.234 9.234 0 0 1 1.745-.095c.537.03 1.119-.007 1.467-.098.382-.1.926-.128 1.617-.085 1.177.074 4.312-.213 4.89-.448.202-.081.749-.162 1.216-.179.467-.017.938-.078 1.047-.136.108-.058.318-.105.466-.105.297 0 .543-.192.543-.422 0-.088-.136-.148-.335-.148-.184 0-.362-.044-.396-.098-.07-.114.972-.472 1.374-.472.304 0 .497.315.277.45-.095.06-.018.16.24.313.4.238.636.736.744 1.573.032.25.097.507.144.57.047.062.122.266.167.452.044.185.182.56.307.833.124.273.269.865.322 1.315.052.45.143.94.2 1.09.129.33-.002 1.297-.184 1.358-.072.024-.203.215-.29.425-.172.412-1.073.965-1.57.965a.516.516 0 0 0-.394.213c-.156.249-.449.33-1.688.47a15.66 15.66 0 0 0-1.482.238 4.471 4.471 0 0 1-.989.118c-.23-.01-.45.032-.488.093-.037.061-.136.085-.219.054-.082-.032-.453.043-.822.165-.37.123-1.108.284-1.64.357-.534.073-1.149.179-1.368.236-.552.142-2.111.359-3.704.514-.438.043-.858.127-.933.186a.518.518 0 0 1-.342.078c-.113-.015-.514.007-.89.053-.376.044-.914.104-1.196.133a29.82 29.82 0 0 0-1.538.231l-1.596.277c-.313.055-.903.104-1.31.11a6.696 6.696 0 0 0-1.367.177 5.645 5.645 0 0 1-1.198.17 4.364 4.364 0 0 0-.967.115c-.218.062-1.012.192-1.765.289-.753.096-1.625.245-1.939.33a9.628 9.628 0 0 1-1.367.229c-1.744.157-2.99.308-3.525.426-.309.07-.822.14-1.14.159-.317.018-.936.09-1.374.16-.852.136-2.674.327-3.704.39-2.828.172-3.748.215-4.824.226-.679.007-1.258-.01-1.286-.04zm7.887-10.8c-.08-.079-.295.082-.295.22 0 .075.065.066.173-.024.096-.079.15-.167.122-.196zm95.706 5.895a18.649 18.649 0 0 0-1.902-.046c-.42.022-.907-.007-1.083-.065-.176-.058-1.114-.158-2.086-.223-.971-.065-1.945-.167-2.165-.227-.22-.059-.747-.136-1.173-.17-.426-.035-.862-.108-.969-.163-.106-.055-.424-.133-.706-.173a7.738 7.738 0 0 1-1.14-.29 93.111 93.111 0 0 0-2.982-.923c-.23-.068-.48-.198-.555-.289a.498.498 0 0 0-.332-.165c-.228 0-2.247-1.019-2.776-1.401a5.92 5.92 0 0 0-.674-.417 2.672 2.672 0 0 1-.513-.34 5.247 5.247 0 0 0-.63-.448c-.407-.25-1.24-.899-1.528-1.19-2.53-2.564-4.768-6.182-5.16-8.34-.056-.313-.16-.8-.232-1.082-.13-.516-.077-1.126.132-1.517.108-.2.124-.201.332-.013.12.11.219.328.219.487 0 .436.766 1.827 1.356 2.461 1.07 1.152 1.07 1.151 2.632 2.187.157.104.414.277.572.384.158.108.414.233.57.279.155.046.513.186.795.312.926.412 1.19.516 1.782.704.321.102.69.186.819.186s.26.042.293.094c.051.084.363.166 1.607.425.188.04.547.084.798.1.665.04 1.553.18 1.88.295.157.055.67.13 1.14.166.47.037 1.187.116 1.595.177.407.062 1.202.159 1.766.216a39.3 39.3 0 0 1 1.424.165c.862.134 1.476.19 2.735.248l2.067.098c.415.02.814.073.884.117.071.044 1.115.103 2.32.131 1.206.029 2.244.055 2.306.059.063.003 1.012-.025 2.109-.064 1.096-.04 3.122-.097 4.5-.128 1.38-.03 2.712-.076 2.963-.1.25-.025 1.123-.098 1.937-.163a101.17 101.17 0 0 0 2.564-.24c1.262-.141 2.892-.243 3.703-.232.314.004 1.34-.143 2.28-.329.94-.185 2.683-.472 3.874-.637 1.19-.164 2.318-.346 2.506-.403.188-.057.795-.155 1.348-.217.554-.062 1.17-.162 1.368-.222.383-.117 2.296-.43 2.805-.459.103-.005.125-.048.057-.113-.065-.062-.493-.037-1.077.063-.532.091-1.353.18-1.823.198-.47.018-.941.07-1.047.118a.492.492 0 0 1-.39-.024c-.246-.138.427-.302 2.007-.49.595-.07 1.313-.193 1.595-.273.282-.08.846-.201 1.254-.268.407-.067 1.228-.21 1.823-.317a25.969 25.969 0 0 1 1.424-.225c.188-.017.65-.079 1.026-.137.376-.059.748-.082.826-.052.078.03.142.003.142-.06 0-.125.305-.188 2.012-.414.636-.084 1.203-.181 1.259-.216.056-.035.174-.018.263.037.27.166-.187.569-.646.569-.262 0-.38.053-.38.17 0 .106.106.172.277.172.346 0 .434.133.339.511-.048.191-.21.35-.46.455-.211.09-.5.285-.641.435-.146.157-.51.334-.846.414-.324.077-.615.206-.646.287-.051.134-2.093 1.202-2.298 1.202-.048 0-.299.097-.556.216a8.678 8.678 0 0 1-.981.367c-.282.083-.585.22-.672.306a.435.435 0 0 1-.37.1c-.117-.031-.212-.002-.212.063 0 .205-.383.422-.75.426-.263.003-.385.075-.482.288-.072.157-.225.285-.341.285-.116 0-.463.128-.772.284-.308.157-.652.285-.764.285-.113 0-.352.11-.533.244-.215.159-.42.22-.588.176-.285-.075-.946.271-1.053.552-.036.092-.186.168-.334.168-.203 0-.267.061-.26.25.009.277-.281.404-.972.423-.228.006-.588.13-.806.278-.329.224-.498.26-1.022.216-.64-.053-1.35.178-1.35.44 0 .166-.242.39-.513.473a28.26 28.26 0 0 0-1.002.363c-.426.16-.99.294-1.253.296-.264.002-.578.077-.697.168a.623.623 0 0 1-.482.099c-.198-.05-.356.027-.637.31-.366.37-1.074.613-2.116.727-.207.023-.441.095-.52.16-.08.066-.32.094-.536.062-.215-.032-.802.025-1.303.126-.501.101-1.13.178-1.396.171-.267-.007-.484.04-.484.106 0 .065-.205.118-.456.118-.263 0-.456.055-.456.129 0 .086-.177.109-.535.068-.295-.033-.657-.014-.805.043-.229.086-2.274.218-4.13.266-.281.007-.626.077-.765.154a1.473 1.473 0 0 1-.57.151c-.264.007-1.73.015-2.225.011-.078-.001-1.142.013-2.364.03-1.223.017-2.735-.007-3.362-.055zm.684-18.454c-1.003-.112-2.029-.265-2.28-.34l-.805-.242a2.555 2.555 0 0 0-.59-.106.636.636 0 0 1-.39-.15 1.17 1.17 0 0 0-.342-.22c-1.297-.49-2.926-2.926-3.298-4.929-.185-.997-.072-4.2.169-4.771.102-.243.186-.546.186-.673s.128-.4.285-.605c.157-.206.285-.42.285-.478 0-.25 1.365-1.772 2.148-2.396.294-.234.473-.47.474-.626.001-.236.627-.763.905-.763.062 0 .086-.067.055-.148-.076-.199.383-.6.798-.7.184-.043.466-.172.627-.286.428-.304 1.508-.503 2.774-.511.678-.004 1.147-.057 1.196-.133a.603.603 0 0 1 .253-.19c.136-.052.13-.067-.029-.074-.11-.006-.2-.08-.2-.167 0-.212.636-.317 1.167-.194.233.055.858.072 1.388.039 1.058-.066 1.484.075 2.336.778.222.183.46.332.53.332.141 0 .371.188 1.291 1.05l.616.577 1.199-.077a33.68 33.68 0 0 0 1.692-.146c.607-.083.668.138.156.57-.306.257-.327.318-.228.664.06.21.109.388.109.397a.987.987 0 0 1-.228.075c-.437.114-.22 1.467.334 2.074.115.126.244.342.286.48.042.139.23.38.417.538.187.158.395.443.461.634.067.192.219.4.337.464.12.064.216.237.216.39 0 .15.09.34.2.423.11.082.341.438.515.792.174.354.392.707.484.783.093.077.169.205.169.284 0 .08.076.29.17.47.093.18.17.444.17.587 0 .143.078.444.173.67.135.325.148.55.06 1.098-.061.379-.151.719-.2.755-.049.036-.162.207-.25.38-.194.374-1.007.9-1.719 1.11-.282.084-.564.212-.626.285-.195.228-.549.373-1.115.458-.3.045-.726.203-.946.353-.22.149-.478.271-.575.271-.096 0-.588.105-1.093.234-.504.13-.986.208-1.07.176-.084-.032-.332.016-.55.107-.22.092-.527.167-.683.167-.157 0-.504.07-.773.155-.528.168-2.298.38-3.85.459-.54.028-1.776-.04-2.791-.154zm-1.41-7.771c.484-.145.53-.222.265-.442-.097-.08-.306-.42-.464-.755-.158-.334-.33-.608-.38-.608-.129 0-.982 1.148-1.078 1.451-.067.21-.027.262.24.321.176.04.371.088.434.109.232.077.555.052.984-.076zm-14.488-8.167c-.408-.105-.921-.296-1.14-.424a15.07 15.07 0 0 0-.966-.505c-.313-.149-.724-.42-.912-.602a3.784 3.784 0 0 0-.746-.54c-.41-.211-.678-.62-.678-1.034 0-.159.148-.29.494-.439.271-.116.638-.345.814-.508.176-.164.39-.297.475-.297.085 0 .154-.046.154-.102 0-.056.122-.132.27-.17.15-.037.356-.196.46-.354.102-.157.259-.286.347-.286a.56.56 0 0 0 .315-.142c.387-.357 2.833-1.57 3.994-1.982.453-.16 1.048-.372 1.321-.47.36-.127.58-.146.798-.065.223.081.418.061.756-.08.553-.23 1.937-.5 2.087-.408.06.037.263-.01.452-.105.19-.094.798-.226 1.353-.292.554-.066 1.11-.169 1.236-.229.125-.06.587-.155 1.026-.211a19.046 19.046 0 0 0 1.367-.228c.313-.07.877-.12 1.253-.112.376.007.914-.045 1.194-.116.281-.072.6-.107.71-.079.109.029.7-.021 1.312-.111.613-.09 1.884-.212 2.824-.271.94-.06 2.083-.16 2.54-.224a13.658 13.658 0 0 1 1.559-.116c.4 0 .873-.056 1.05-.124.551-.211 10.978-.45 14.45-.33 1.078.037 4.525-.115 4.98-.22.512-.117 1.154-.104 3.623.075.595.043 1.185.065 1.31.049.206-.027 4.334.238 6.04.387.375.032 1.17.082 1.766.11.595.028 1.57.108 2.165.18.595.07 1.364.141 1.709.157.93.042 1.934.142 3.988.397 2.296.285 3.16.483 1.99.455-.772-.018-1.861.168-2.275.389-.188.1-.51.183-.716.183-.206 0-.488.072-.627.158-.138.087-.483.149-.765.138a4.152 4.152 0 0 0-.968.094c-.251.062-1.02.117-1.71.122-.689.004-1.381.048-1.538.096-.157.048-.912.089-1.68.09-.767.003-1.423.052-1.46.11-.035.057-.33.105-.655.105-.326 0-.771.048-.99.107-.22.058-1.04.132-1.824.164-.783.032-1.589.108-1.79.169-.2.06-.867.124-1.48.141-.615.017-1.442.098-1.84.18-.397.083-.772.12-.833.082-.06-.038-.209.02-.329.129-.153.139-.33.18-.597.136-.208-.034-.658.015-1 .108-.34.093-1.184.189-1.873.214a97.302 97.302 0 0 0-3.818.224c-.22.017-.834.096-1.367.178a14.72 14.72 0 0 1-1.663.154c-.382.004-.773.072-.869.152-.146.12-3.166.352-5.16.395a48.88 48.88 0 0 0-1.652.114c-2.556.208-3.954.31-5.811.425-3.314.205-6.306.446-6.951.56-.345.062-1.32.22-2.165.351-.846.132-1.803.315-2.126.407-.323.092-.714.167-.868.167-.155 0-.505.079-.778.175a5.028 5.028 0 0 1-.954.222c-1.2.124-3.203.865-4.18 1.546-.355.248-.685.45-.734.45-.048 0-.194.096-.323.214-.427.387-1.33.818-1.698.809a3.832 3.832 0 0 0-.646.045c-.156.029-.619-.033-1.027-.137z" style="fill:#000;stroke-width:.113949"/>
</svg>
