<svg xmlns="http://www.w3.org/2000/svg" xml:space="preserve" width="210mm" height="297mm" viewBox="0 0 210 297">
  <path d="M1.471 284.907a1.48 1.48 0 0 1 .468 0c.129.024.023.045-.234.045s-.363-.02-.234-.045zm195.884-.622c.075-.03.164-.026.199.008.034.035-.027.06-.137.055-.12-.005-.145-.03-.062-.063zm13.717-1.042a1.48 1.48 0 0 1 .468 0c.129.025.023.045-.234.045s-.363-.02-.234-.045zm-170.275-1.252c0-.137-.804-.338-1.349-.338-.282 0-.445-.053-.485-.156-.033-.086-.16-.157-.282-.16-.257-.003-.617-.244-.516-.344.037-.037.025-.071-.028-.076-.295-.024-.496-.097-.65-.236a1.275 1.275 0 0 0-.46-.227c-.283-.07-.433-.21-.441-.413-.002-.057-.132-.095-.288-.084-.156.01-.283-.024-.283-.078s.046-.097.104-.097a.104.104 0 0 0 .104-.104c0-.058-.077-.104-.171-.104-.179 0-.318-.112-1.051-.842-.534-.533-.578-.923-.174-1.563.282-.446 1.124-1.338 1.264-1.338.045 0 .135-.087.201-.192.066-.105.29-.272.498-.371.27-.128.362-.229.323-.354-.044-.14.015-.176.291-.182.228-.005.45-.104.648-.292.351-.332.666-.524.666-.406 0 .045.147.148.328.228.29.128.342.125.453-.027.07-.094.175-.172.236-.172s.203-.117.316-.26c.112-.143.234-.26.27-.26.094 0 .684-.613.684-.71 0-.105.908-.677 1.126-.709.093-.014.187-.075.207-.137.11-.33.733-1.111.98-1.23.158-.075.286-.173.286-.219 0-.073 1.26-1.427 2.237-2.4.2-.201.364-.422.363-.492 0-.07.117-.205.26-.298.142-.094.26-.204.26-.244 0-.04.258-.347.574-.681.317-.335.677-.789.801-1.01.124-.22.322-.426.44-.455.244-.061.68-.644.68-.908 0-.097.035-.176.078-.177.254-.005 1.652-1.575 2.243-2.52.098-.157.243-.286.321-.286.078 0 .17-.105.203-.234.034-.128.237-.42.45-.65a4.73 4.73 0 0 0 .589-.78c.396-.729 1.26-1.661 1.54-1.662.237-.001.586-.466.665-.886.036-.19.154-.44.263-.557.109-.117.198-.255.198-.306 0-.052.213-.323.473-.602.26-.28.586-.702.725-.94.14-.237.393-.548.564-.692.29-.245.6-.68.828-1.164.054-.115.218-.344.365-.51.147-.166.268-.348.268-.404 0-.056.105-.21.234-.342.509-.523.597-.641.752-1.011.088-.212.197-.384.242-.384.044 0 .336-.352.648-.782a63.25 63.25 0 0 1 1.868-2.411.451.451 0 0 0 .103-.225c0-.055.187-.277.415-.494.23-.217.416-.439.416-.493 0-.055.258-.37.572-.699.315-.33.572-.668.572-.751 0-.083.106-.221.235-.306.129-.084.303-.288.386-.453.083-.165.227-.417.32-.56.42-.647.441-.636-1.073-.575-3.059.124-4.742.138-5.482.046a30.76 30.76 0 0 0-2.08-.144c-.714-.027-1.58-.091-1.923-.143-.343-.053-.659-.075-.702-.05-.043.026-.078.002-.078-.05 0-.053-.175-.125-.39-.16-.826-.134-1.418-.28-1.704-.423-.163-.082-.297-.106-.297-.053 0 .15-.176.113-.364-.075-.191-.19-.943-.32-.834-.144.037.059-.007.107-.096.107s-.162-.064-.162-.143c0-.219-.277-.42-.347-.251-.042.101-.092.09-.204-.048-.08-.1-.197-.182-.258-.182-.06 0-.242-.065-.404-.146a6.152 6.152 0 0 0-1.074-.432c-.306-.084-.642-.406-.54-.516.04-.042-.115-.048-.344-.014-.26.04-.338.032-.208-.022.196-.082.193-.09-.052-.157-.554-.15-1.654-.744-1.61-.869.024-.074-.078-.156-.239-.193-.564-.129-1.034-.381-1.022-.55.007-.1-.061-.162-.17-.153-.1.008-.182-.048-.182-.123 0-.076-.094-.167-.21-.204-.114-.037-.189-.099-.164-.138.08-.13-.192-.389-.561-.532-.2-.078-.411-.197-.468-.264a1.522 1.522 0 0 0-.364-.26 1.338 1.338 0 0 1-.396-.33.479.479 0 0 0-.338-.191c-.111 0-.202-.042-.202-.094 0-.051-.14-.143-.312-.202-.171-.06-.312-.182-.312-.27 0-.09-.086-.162-.192-.162-.105 0-.276-.093-.38-.208-.103-.114-.286-.21-.406-.211a.85.85 0 0 1-.42-.156.824.824 0 0 0-.415-.153c-.118 0-.401-.116-.63-.257-.229-.14-.488-.257-.577-.26a.485.485 0 0 1-.285-.126c-.125-.125-.361-.2-.646-.202-.371-.004-.726-.117-.936-.299-.176-.152-.282-.174-.485-.097-.29.11-.49.04-.383-.134.045-.073-.006-.093-.148-.056a.611.611 0 0 1-.437-.097c-.12-.085-.287-.128-.37-.096-.1.038-.152-.009-.152-.138 0-.15-.116-.221-.49-.3-.27-.058-.528-.082-.575-.053-.127.078-1.435-.08-1.38-.168.025-.042-.139-.058-.366-.035-.327.033-.412.007-.412-.126 0-.14-.116-.164-.702-.146-.808.025-2.641-.21-2.567-.33.027-.044.002-.11-.056-.146-.058-.036-.106-.016-.106.045 0 .06-.047.11-.104.11-.057 0-.092-.058-.078-.13.016-.078-.11-.143-.312-.162-.19-.019-.337.016-.337.078 0 .161-.199.135-.386-.052-.089-.09-.284-.152-.434-.138-.269.024-1.123-.07-1.728-.188-.269-.053-.283-.071-.106-.134.115-.04-.16-.08-.623-.089-.675-.013-.887-.058-1.138-.244-.221-.163-.486-.236-.936-.257-.866-.04-.86-.038-.628-.146.15-.07.077-.082-.26-.045-.336.037-.409.024-.26-.045l.208-.097-.208-.023a2.372 2.372 0 0 0-.397-.007c-.104.009-.389-.1-.633-.244-.244-.143-.58-.26-.749-.26a.684.684 0 0 1-.491-.217c-.105-.122-.253-.19-.342-.156-.086.033-.37-.038-.633-.157-.268-.122-.606-.198-.773-.173-.233.034-.296.003-.296-.145 0-.14-.108-.206-.416-.256-.229-.036-.416-.1-.416-.14 0-.04-.187-.136-.416-.211-.229-.076-.416-.177-.416-.225 0-.048-.048-.087-.107-.087-.06 0-.238-.134-.397-.297-.16-.164-.553-.379-.88-.482-.325-.102-.591-.222-.591-.267 0-.197-.658-.722-.905-.722-.212 0-.24-.028-.146-.142.09-.108.08-.173-.04-.273-.086-.071-.157-.101-.157-.066s-.093-.017-.208-.115c-.114-.098-.208-.23-.208-.295 0-.064-.093-.2-.208-.304-.114-.104-.21-.24-.212-.302-.002-.063-.206-.263-.453-.445-.301-.221-.47-.434-.512-.646a1.18 1.18 0 0 0-.263-.516.499.499 0 0 1-.149-.461c.037-.192-.008-.294-.164-.378-.118-.063-.264-.296-.323-.517-.07-.259-.183-.422-.316-.457-.167-.043-.21-.15-.226-.557-.01-.277-.013-.61-.006-.738.007-.129-.025-.234-.072-.234-.145 0-.508-1.163-.568-1.82a30.015 30.015 0 0 0-.205-1.559c-.082-.514-.118-.959-.08-.988.096-.074.083-1.109-.016-1.208-.045-.046.025-.164.156-.264.191-.144.213-.206.109-.31-.17-.17-.166-.45.008-.594.076-.063.14-.324.144-.58a1.72 1.72 0 0 1 .226-.82c.12-.195.22-.447.22-.56 0-.113.092-.29.205-.392.113-.102.184-.221.157-.264-.074-.12.174-.768.33-.861.077-.046.14-.141.14-.212 0-.071.163-.303.363-.515.2-.212.364-.48.364-.594 0-.114.047-.207.104-.207.057 0 .104-.062.104-.138 0-.076.122-.251.271-.39.15-.139.315-.346.368-.46a3.74 3.74 0 0 1 .697-1.038c.18-.198.328-.408.328-.467a.11.11 0 0 1 .11-.107c.157 0 .62-.574.886-1.097.123-.245.374-.6.556-.791.182-.191.4-.477.485-.636.085-.16.196-.264.246-.233.05.031.157-.073.237-.23.286-.569.447-.803.679-.995.13-.107.302-.32.383-.471.19-.355 1.403-1.617 1.642-1.709.1-.038.182-.136.182-.218 0-.081.62-.782 1.378-1.556.757-.775 1.634-1.7 1.949-2.057.314-.357.656-.722.76-.812.103-.09.258-.31.344-.489.154-.323.45-.634 1.436-1.507a18.138 18.138 0 0 0 1.745-1.768c.213-.25.634-.717.936-1.039.565-.602.898-.982 1.797-2.055.286-.342.556-.624.6-.628.045-.004.396-.34.78-.748.385-.408.758-.802.83-.876.07-.075.13-.186.13-.247s.041-.111.093-.111.184-.176.294-.39c.136-.265.305-.422.527-.489.2-.06.368-.202.432-.364.057-.146.34-.592.626-.993.61-.85 1.042-1.584 1.042-1.768 0-.071.064-.183.143-.248.078-.065.221-.34.318-.61a6.86 6.86 0 0 1 .273-.673.9.9 0 0 0 .098-.358c0-.097.09-.273.2-.39.302-.326.741-2.652.62-3.283-.251-1.303-.34-1.647-.518-1.994-.109-.214-.198-.478-.198-.588a.46.46 0 0 0-.138-.314c-.077-.063-.228-.385-.337-.715-.109-.33-.471-1.16-.805-1.847-.9-1.847-1.051-2.131-1.137-2.131-.043 0-.078-.114-.078-.254s-.042-.28-.093-.311c-.05-.031-.124-.186-.162-.344-.038-.158-.182-.459-.32-.668a2.777 2.777 0 0 1-.321-.676 2.089 2.089 0 0 0-.316-.616c-.134-.177-.244-.353-.244-.391 0-.038-.13-.25-.29-.47a3.677 3.677 0 0 1-.433-.831c-.078-.237-.18-.43-.227-.43-.046 0-.17-.175-.275-.39a16.138 16.138 0 0 0-.307-.597 3.62 3.62 0 0 1-.177-.364 4.919 4.919 0 0 0-.279-.519c-.387-.642-1.627-3.11-1.584-3.153.023-.023-.03-.1-.116-.173a.52.52 0 0 1-.159-.353c0-.122-.102-.385-.227-.585a9.101 9.101 0 0 1-.852-1.785 5.819 5.819 0 0 0-.479-1.004 5.37 5.37 0 0 1-.48-1.063c-.168-.564-1.117-2.574-1.42-3.007-.095-.135-.15-.28-.123-.323.027-.044-.116-.399-.316-.79-.2-.39-.365-.758-.365-.818 0-.06-.21-.539-.468-1.064-.258-.526-.468-1.028-.468-1.117a.253.253 0 0 0-.151-.218c-.084-.032-.182-.265-.22-.522-.039-.255-.128-.522-.199-.592-.07-.071-.228-.338-.349-.593a10.256 10.256 0 0 0-.314-.62c-.101-.167-.224-.457-.441-1.04a6.858 6.858 0 0 0-.405-.831 11.576 11.576 0 0 1-.455-.884 19.08 19.08 0 0 0-.437-.898c-.139-.265-.252-.56-.252-.657 0-.097-.112-.371-.25-.61a4.163 4.163 0 0 1-.323-.694 1.479 1.479 0 0 0-.284-.489c-.115-.125-.182-.298-.15-.383.033-.085.015-.17-.04-.187-.054-.019-.12-.139-.144-.267a1.463 1.463 0 0 0-.207-.465.98.98 0 0 1-.162-.47c0-.133-.07-.268-.156-.3-.085-.034-.156-.164-.156-.291 0-.127-.117-.566-.26-.975-.142-.41-.26-.813-.26-.897a.308.308 0 0 0-.141-.236c-.078-.045-.17-.223-.202-.395-.136-.712-.214-.94-.347-1.018-.078-.046-.141-.2-.141-.342 0-.142-.07-.285-.156-.317-.086-.033-.158-.184-.16-.335a.922.922 0 0 0-.148-.466c-.08-.106-.176-.375-.213-.598-.038-.223-.112-.432-.164-.464-.052-.032-.095-.173-.095-.313s-.049-.253-.109-.253c-.067 0-.083-.135-.042-.355.05-.265.002-.483-.185-.858a8.749 8.749 0 0 1-.443-1.127 6.3 6.3 0 0 0-.435-1.051 2.501 2.501 0 0 1-.281-.855c-.02-.235-.106-.533-.19-.664a1.786 1.786 0 0 1-.21-.497c-.03-.143-.225-.83-.432-1.528-.234-.791-.376-1.486-.376-1.846 0-.317-.047-.577-.104-.577-.057 0-.104-.093-.104-.207 0-.115-.042-.208-.093-.208-.145 0-.214-.268-.278-1.072-.032-.409-.108-.803-.169-.876-.078-.094-.07-.179.027-.296.112-.135.112-.179-.002-.249-.08-.049-.114-.179-.081-.304.031-.12.018-.195-.03-.165-.047.03-.11-.333-.138-.806a89.083 89.083 0 0 0-.22-2.574c-.217-2.198-.263-3.3-.152-3.691.048-.172.11-.85.138-1.508.06-1.45.157-2.097.333-2.235.073-.057.178-.455.234-.884.055-.429.147-.967.203-1.196.057-.228.186-.778.287-1.221.101-.443.212-.806.247-.806s.067-.199.072-.442c.01-.522.286-1.496.49-1.731.137-.158.212-.393.349-1.102.033-.172.147-.424.253-.56.107-.136.194-.343.194-.46 0-.116.066-.285.146-.375.08-.09.205-.539.278-.996.124-.782.303-1.275.303-.832 0 .396.199-.007.308-.624.06-.343.13-.694.153-.78.024-.085.047-.188.051-.227.004-.039.096-.098.204-.133.193-.06.636-.962.636-1.293 0-.094.143-.345.319-.557.175-.213.289-.434.253-.493-.036-.058.031-.24.15-.406.117-.166.214-.376.214-.468 0-.09.047-.166.104-.166.057 0 .104-.065.104-.144 0-.182.7-1.617.898-1.843a1.02 1.02 0 0 0 .194-.408c.026-.132.094-.288.153-.347.058-.058.106-.209.106-.334 0-.126.075-.257.167-.292.092-.035.141-.13.11-.212-.03-.08.01-.203.092-.27.082-.068.127-.159.101-.2-.026-.043.062-.127.195-.188a.602.602 0 0 0 .301-.405 1.29 1.29 0 0 1 .276-.526.98.98 0 0 0 .237-.493c.012-.145.059-.264.104-.264.044 0 .08-.076.08-.17a.41.41 0 0 1 .157-.286c.085-.064.22-.368.3-.677.08-.309.22-.604.312-.655.092-.051.168-.153.168-.227 0-.073.117-.196.26-.273.159-.084.31-.297.381-.537.066-.219.182-.398.259-.398.076 0 .14-.068.14-.15 0-.257.232-.678.337-.613.06.037.071-.031.026-.172-.075-.235.064-.617.35-.962.097-.118.109-.182.031-.182-.065 0 .091-.198.348-.44.257-.241.467-.51.467-.597 0-.087.094-.312.208-.5.114-.186.208-.409.208-.493 0-.084.046-.153.104-.153.057 0 .103-.089.103-.196 0-.11.094-.22.211-.251.116-.03.2-.095.188-.142-.053-.195.15-.55.585-1.024.258-.28.498-.664.547-.874.064-.271.15-.382.318-.406.127-.018.23-.1.23-.182 0-.082.096-.244.213-.36.116-.117.19-.245.165-.286-.025-.041.114-.236.309-.433.302-.307.427-.555.328-.655-.014-.014.08-.174.208-.354s.233-.377.233-.437.119-.236.263-.391c.144-.156.246-.332.227-.391-.032-.096.218-.371.697-.767.087-.072.134-.192.106-.267-.029-.074.043-.222.16-.327.116-.105.21-.254.21-.331 0-.077.084-.14.185-.14.107 0 .27-.163.39-.39.113-.214.339-.52.502-.682.19-.188.278-.364.245-.49-.034-.13.013-.219.139-.259.105-.033.252-.198.326-.367.075-.17.166-.307.202-.307.036 0 .121-.133.188-.295.074-.18.26-.348.473-.432.337-.132.474-.336.526-.78.05-.427.268-.805.723-1.253.258-.254.469-.51.469-.567 0-.057.035-.106.078-.108.043-.002.218-.12.39-.261.26-.216.286-.275.155-.359-.128-.083-.117-.101.06-.102.136-.001.34-.173.547-.46.18-.253.33-.49.33-.525 0-.108.448-.68.533-.68.19 0 .63-.524.571-.679-.034-.09-.019-.137.035-.104.053.033.146-.031.206-.143a.639.639 0 0 1 .318-.27.308.308 0 0 0 .21-.293c0-.172.023-.192.092-.082.07.11.153.05.35-.26a3.99 3.99 0 0 1 .532-.658c.178-.165.252-.318.213-.442-.044-.139-.006-.189.146-.189.235 0 1.056-.72 1.056-.926 0-.08.066-.11.16-.074.104.04.19-.023.251-.184.051-.134.214-.339.36-.454.148-.116.269-.232.269-.257 0-.115 1.117-1.224 1.233-1.224.07 0 .178-.14.238-.311.06-.172.15-.286.202-.254.174.107.321-.066.19-.224-.095-.115-.087-.146.038-.146.088 0 .278-.14.422-.312.144-.172.334-.312.421-.312.088 0 .21-.094.27-.208.062-.114.175-.208.253-.208.078 0 .17-.119.207-.264.037-.146.147-.294.246-.329.246-.088.503-.366.589-.638.04-.125.208-.297.373-.383.344-.177 1.14-.928 1.14-1.074 0-.053.111-.125.247-.159.353-.088 1.312-.999 1.312-1.245 0-.113.03-.176.066-.14.071.072.454-.368.454-.521 0-.051.199-.18.442-.284.583-.251.78-.433.86-.791.035-.165.155-.325.268-.362.256-.08.778-.562.743-.684-.014-.05.062-.092.17-.092.222 0 .464-.242.353-.353-.041-.04-.002-.046.085-.013.09.035.242-.03.35-.15.106-.117.233-.212.283-.212.096 0 .639-.462 1.178-1.004.18-.18.44-.344.579-.364.186-.026.26-.11.284-.321.024-.203.092-.286.237-.286.116 0 .254-.112.322-.263a.64.64 0 0 1 .365-.323.617.617 0 0 0 .35-.258c.057-.108.189-.196.293-.196.183 0 .532-.301.532-.46 0-.184.67-.696.85-.648.118.03.19-.007.19-.1 0-.081.116-.201.26-.266.142-.065.26-.156.26-.202 0-.22.98-.937 1.183-.864.064.023.272-.212.463-.522.224-.363.398-.544.491-.508.08.03.302-.101.494-.293.684-.682.93-.86 1.448-1.042.289-.101.53-.197.536-.213.084-.214.271-.452.426-.541.247-.143.553-.375.796-.605.106-.1.24-.182.297-.182a.103.103 0 0 0 .103-.102c0-.056.112-.13.249-.164.137-.035.38-.2.54-.366.16-.167.353-.304.43-.304.077 0 .167-.07.2-.156.032-.085.12-.156.196-.156.075 0 .271-.134.435-.298.164-.163.413-.334.554-.378.32-.1.793-.463.723-.555-.028-.037.103-.083.292-.101.19-.018.37-.1.401-.182.032-.082.158-.15.28-.15.133 0 .308-.127.431-.313.114-.172.334-.37.489-.439a.962.962 0 0 0 .399-.346c.084-.157.189-.207.365-.173.157.03.436-.07.772-.276.289-.178.561-.324.605-.324.043 0 .23-.138.416-.307.185-.17.399-.285.474-.256.076.03.198-.02.271-.108a.49.49 0 0 1 .329-.16c.107 0 .195-.072.195-.16 0-.087.082-.185.182-.217.318-.102 1.364-.551 1.585-.681.086-.05.245-.121.353-.157a6.16 6.16 0 0 0 .655-.309c.252-.134.52-.244.597-.244.075 0 .195-.07.267-.156a.542.542 0 0 1 .37-.156c.133 0 .27-.046.305-.104.036-.057.176-.104.312-.104.155 0 .27-.076.312-.208.05-.155.158-.207.43-.207.354 0 .76-.151.874-.325.031-.047.387-.133.791-.19.827-.117 1.076-.193 1.076-.328 0-.051.059-.094.13-.095.072 0 .24-.118.375-.26.135-.142.326-.258.425-.258.098 0 .215-.035.258-.078.043-.043.18-.078.303-.078a.375.375 0 0 0 .324-.226c.1-.229.57-.391 1.096-.38.524.012 1.413-.198 1.768-.417.2-.123.477-.234.616-.246.138-.011.443-.114.676-.228.502-.246.812-.361.914-.34.04.008.204-.04.364-.106.159-.066.402-.134.54-.15.138-.016.278-.07.312-.119.12-.179.425-.23.425-.072 0 .2.168.197.245-.003.033-.086.179-.156.323-.156.145 0 .264-.042.264-.094s.093-.07.207-.04c.115.03.323-.021.464-.114.142-.092.354-.168.472-.168s.24-.065.27-.145c.033-.086.29-.174.633-.217.318-.04.765-.138.994-.219a2.81 2.81 0 0 1 .767-.147c.193 0 .351-.043.351-.096 0-.053.27-.13.598-.17.329-.039.691-.122.806-.184.114-.062.264-.102.333-.088.069.014.297-.046.506-.134.21-.088.587-.16.837-.16s.455-.046.455-.103c0-.06.31-.104.72-.104.415 0 .734-.047.755-.111.02-.06.247-.137.503-.17s.512-.095.57-.138c.057-.043.314-.08.571-.083a12.28 12.28 0 0 0 1.066-.074c.52-.06.598-.098.601-.292.003-.221.005-.221.159-.019.127.169.19.184.348.085.107-.067.492-.153.856-.193.363-.04.74-.14.837-.224.096-.084.224-.123.283-.086.116.071.917-.127 1.116-.277.065-.049.44-.094.831-.1.429-.008.805-.073.944-.163.127-.083.595-.189 1.04-.236 1.19-.124 1.735-.213 1.795-.292.03-.039.147-.087.261-.107a.853.853 0 0 0 .312-.116c.057-.045.338-.115.624-.157.286-.041.601-.119.701-.172.1-.054.451-.147.78-.208.33-.06.644-.138.699-.172.055-.035.29-.07.523-.08a2.12 2.12 0 0 0 .732-.176 3.24 3.24 0 0 1 .776-.235c.257-.042.494-.118.525-.168.033-.051.387-.05.82.005.472.06.86.059 1.02-.002.157-.06.39-.06.602-.002.277.077.358.064.408-.066.052-.138.093-.128.27.062.116.123.275.224.354.224.27 0 .875.466.98.754.11.3.531.414.531.143 0-.078.135-.17.3-.203.164-.033.365-.126.445-.206.081-.08.45-.18.819-.22.37-.039.805-.086.97-.105.163-.018.331-.088.373-.156.046-.075.456-.14 1.053-.165.54-.024.992-.091 1.012-.15.02-.06.215-.107.434-.107.22 0 .417-.056.44-.123.03-.093.263-.096.964-.01.776.093.96.087 1.159-.043.13-.085.286-.123.348-.084.063.038.173.02.246-.04.073-.06.27-.11.437-.112.574-.003 1.137.054 1.253.126.064.04.2-.02.302-.133.211-.233 1.043-.294 1.114-.081.05.153 1.538-.084 1.673-.267.062-.085.1-.082.139.013.029.071.156.13.283.13.126 0 .282.051.344.114.073.072.339.091.723.052.72-.073.927-.076 1.752-.024 1.224.077 1.737.244 2.443.793.2.156.54.346.754.423.215.076.39.179.39.228 0 .048.14.137.312.197.171.06.312.15.312.202 0 .052.088.094.195.094.107 0 .253.07.325.156.07.086.247.156.392.156.314 0 1.444.522 1.74.803.24.228 1.925 1.069 2.143 1.069.08 0 .203.091.273.204.128.205 1.154.731 1.425.731.08 0 .277.11.439.246.161.135.402.28.535.321.133.042.218.1.188.13-.094.094.986.759 1.233.759.132 0 .263.063.292.14.03.076.304.305.61.508.305.203.683.49.84.636a3.2 3.2 0 0 0 .677.449c.214.1.605.413.869.694.288.307.579.518.728.528.136.009.237.071.223.138-.013.067.15.25.364.409.214.158.583.487.82.732.238.244.483.444.546.444.063 0 .114.047.114.104 0 .058.064.104.141.104.12 0 .659.473 1.814 1.589.62.6.956.981.956 1.088 0 .064.094.146.208.182.115.037.208.105.208.152 0 .132 1.002 1.19 3.093 3.267a1150.69 1150.69 0 0 1 1.998 1.988 397.67 397.67 0 0 1 3.596 3.705 95 95 0 0 0 2.001 1.995c.87.848 1.58 1.585 1.58 1.638 0 .052.071.096.158.096.124 0 2.546 2.336 2.546 2.455 0 .016.265.277.589.58.916.858 1.49 1.45 1.49 1.538 0 .044.142.139.316.21.174.073.376.217.449.32.072.105.386.39.697.635.311.245.753.656.981.913.23.258 1.001 1.043 1.716 1.745 1.583 1.556 1.345 1.313 1.998 2.045.302.34.626.69.72.78.683.653 1.547 1.527 1.832 1.854.186.213.596.669.91 1.012.313.342.57.65.57.684 0 .034.468.535 1.04 1.115.572.58 1.04 1.127 1.04 1.215 0 .089.128.273.285.411l.728.634c.243.211.442.437.442.502s.14.282.312.482c.171.2.311.406.312.457 0 .051.164.293.364.537.2.245.364.48.364.522 0 .042.131.198.292.346.263.242.446.503.955 1.365.553.937 1.047 1.646 1.436 2.063.247.264.518.62.602.792.084.172.242.452.352.624.11.171.292.509.405.75.113.241.33.569.481.728.152.16.415.531.585.827.17.295.376.593.458.661.082.069.125.164.096.211-.03.048.04.138.157.2.116.062.21.198.21.301 0 .104.094.273.209.377.114.103.208.242.208.308s.165.394.366.729c.202.335.418.823.481 1.085.1.417.29.811.784 1.62.07.115.176.325.236.468.06.143.155.341.212.44.057.1.104.272.104.382 0 .11.049.217.108.237.06.02.174.386.253.814.195 1.047.248 1.237.466 1.662.103.2.219.617.257.926.04.31.132.684.206.832.074.148.192.574.263.945.071.372.166.77.212.884.122.305.319 1.052.42 1.6.05.264.167.807.261 1.207s.186.892.204 1.092c.018.2.228 1.136.466 2.08.238.943.45 1.832.47 1.975.127.89.206 1.222.342 1.431.098.152.132.366.095.598-.033.2-.026.362.014.362s.133.246.207.546c.143.578.153.643.339 2.105.065.515.158 1.03.206 1.144.048.114.141.582.207 1.04.066.457.181 1.019.258 1.247.076.229.164.68.196 1 .033.322.13.72.215.885.086.164.157.416.158.559 0 .142.07.517.155.831.085.315.156.97.16 1.456.002.486.05 1.094.105 1.351.055.258.13 1.521.166 2.808.072 2.538.112 2.232-.485 3.69a3.751 3.751 0 0 0-.15.676c-.037.258-.185.725-.331 1.04-.146.314-.36.782-.476 1.04-.737 1.64-1.519 3.077-1.724 3.17-.125.056-.228.196-.228.311-.001.42-.226 1.003-.512 1.33-.161.184-.328.499-.37.699-.1.464-.265.783-.667 1.288-.177.222-.322.512-.322.644 0 .131-.048.269-.107.305-.059.036-.298.448-.53.916-.234.467-.56.959-.727 1.092-.166.134-.398.452-.514.707a4.129 4.129 0 0 1-.552.85 6.905 6.905 0 0 0-.684 1.008c-.19.343-.375.647-.412.676a2.49 2.49 0 0 0-.265.364c-.11.171-.302.393-.427.491-.126.1-.385.427-.575.728-.19.302-.43.624-.532.716-.102.093-.186.197-.186.232s-.227.404-.505.82c-.277.415-.562.865-.632.998-.131.25-.33.498-.92 1.148-.19.207-.747.892-1.24 1.52-.494.63-.937 1.16-.986 1.18-.075.03-.729.917-1.071 1.453-.172.27-.302.435-.504.64-.195.196-.259.301-.692 1.146a4.363 4.363 0 0 1-.524.78 2.28 2.28 0 0 0-.407.702c-.069.214-.186.39-.261.39-.075 0-.21.185-.302.412-.09.226-.272.482-.403.568-.14.092-.297.36-.381.654a3.909 3.909 0 0 1-.478.973 4.45 4.45 0 0 0-.479.883c-.078.225-.175.433-.215.463-.152.114-1.54 2.957-1.544 3.162a.846.846 0 0 1-.155.416.8.8 0 0 0-.153.402c0 .249-.277 1.13-.528 1.684a3.511 3.511 0 0 0-.243.832c-.03.228-.152.743-.273 1.143a27.353 27.353 0 0 0-.505 1.898 11.06 11.06 0 0 1-.3.961c-.112.315-.29 1.04-.393 1.612-.103.572-.249 1.166-.324 1.32a1.399 1.399 0 0 0-.137.494c0 .117-.042.213-.094.213s-.127.293-.167.65c-.04.357-.141.797-.225.978-.084.18-.215.578-.291.883-.264 1.053-.913 2.71-1.212 3.092-.107.136-.195.347-.195.469 0 .256-.565 1.132-1.031 1.598-.176.176-.32.383-.32.46 0 .078-.082.215-.182.304-.365.325-.65.722-.65.904a.785.785 0 0 1-.153.39.957.957 0 0 0-.156.484c-.002.173-.083.325-.211.393-.115.061-.276.274-.359.472-.082.198-.197.36-.255.36-.058 0-.156.199-.218.442-.122.482-.485 1.212-.684 1.377-.07.058-.147.462-.172.904-.042.716-.082.84-.375 1.173-.26.297-.328.467-.328.825 0 .263-.062.503-.148.574-.113.094-.134.3-.09.882.039.51.02.783-.06.832-.065.04-.118.166-.118.279 0 .113-.088.38-.195.592-.14.279-.208.692-.242 1.495-.035.796-.097 1.184-.221 1.374-.195.296-.227.642-.07.74.057.035.104.245.104.467 0 .297-.06.446-.226.563-.198.138-.21.192-.104.426.166.366.154.675-.028.675-.23 0-.254.113-.15.686.053.296.058.708.01.935-.07.326-.131.405-.314.398-.129-.005-.227.054-.227.136 0 .086.083.132.203.113.205-.033.236.012.172.252-.185.69-.207 1.042-.11 1.69.061.4.148.822.192.936.232.593.274.755.267 1.04-.024.988-.004 1.218.12 1.366.116.14.099.196-.114.368-.228.185-.24.238-.142.608.078.29.076.421-.006.46-.063.03-.017.031.102.003.18-.044.236.016.326.338.06.216.112.532.117.704.004.171.103.496.219.72.166.324.197.524.147.948-.054.464-.034.558.148.686.18.125.22.296.264 1.123.038.69.096 1 .2 1.058.099.055.156.3.171.734.013.358.073.71.133.783.061.073.08.286.044.48-.05.27-.018.389.145.536.115.105.209.267.209.362 0 .094.069.263.153.374.084.11.154.353.156.54.002.185.05.337.107.337.057 0 .105.176.106.39.001.214.095.594.208.843.137.3.206.678.206 1.121 0 .382.085.922.2 1.262.109.327.252.899.318 1.27a8 8 0 0 0 .232.988c.061.172.147.687.19 1.144.045.457.158 1.112.252 1.456.094.343.256.998.36 1.455.104.458.217.902.25.988.034.086.083.357.11.604.045.433.306 1.34.49 1.705.049.097.119.378.155.623.036.246.17.61.298.81.127.2.288.575.357.832.068.258.195.679.282.936.086.258.226.746.31 1.085.084.34.192.667.24.728.047.06.117.251.156.423.038.171.133.452.211.623.297.655.366.852.526 1.508.09.372.28.85.421 1.063.14.214.256.453.256.532 0 .079.145.49.322.912.347.829.624 1.87.672 2.535.017.23.086.995.153 1.702.135 1.418.064 2.551-.173 2.747-.084.07-.265.231-.402.36-.138.129-.301.234-.363.234-.061 0-.138.07-.17.155-.086.222-.822.4-1.547.375-1.011-.036-1.218-.014-1.819.193-.475.163-1.275.307-2.08.374-.403.033-.854.194-.903.321-.03.078-.166.141-.303.141-.137 0-.249.056-.249.125 0 .097-.028.097-.125 0a.499.499 0 0 0-.306-.125c-.1 0-.23-.082-.288-.182-.086-.147-.107-.11-.11.2-.002.347-.034.388-.34.449-.353.07-.645.183-1.43.558-.257.123-.521.223-.586.223-.065 0-.187.106-.272.235-.262.4-1.533.607-1.533.249 0-.064-.106-.014-.234.111-.63.61-.69.642-1.295.673-.331.017-.594.078-.584.136.026.14-.377.355-.673.36-.13.002-.423.098-.65.213-.226.116-.54.23-.697.253-.815.12-1.612.28-1.851.371a1.911 1.911 0 0 1-.567.102c-.165 0-.328.048-.364.105-.039.063-.13.07-.224.017-.237-.133-1.203-.017-1.416.17-.14.123-.427.161-1.196.16-.555-.001-1.035.035-1.065.08-.03.044-.229.041-.442-.007-.223-.05-.413-.047-.446.006-.078.127-.914.119-1.043-.01-.069-.07-.39-.068-.957.003-.869.109-3.251.07-3.581-.06-.113-.043-.182-.022-.182.056 0 .087-.09.103-.286.052-.157-.04-1.137-.09-2.176-.109-1.04-.02-2.07-.081-2.288-.137-.387-.1-1.488-.137-1.488-.05 0 .024.234.349.52.722.285.373.52.721.52.774 0 .053.156.257.347.454.192.197.58.771.863 1.276.54.964 1.493 2.867 1.493 2.984 0 .126.868 1.882.992 2.007.067.067.153.311.19.542.036.23.184.593.328.805.144.212.291.506.326.654.035.147.104.319.154.382.05.064.178.368.285.676.108.308.388.967.624 1.464.235.497.428.928.428.957 0 .03.117.226.26.437.142.21.26.453.26.538 0 .085.094.237.209.337.115.1.333.41.483.688.15.279.325.6.388.714.165.3 1.583 1.716 1.717 1.716.062 0 .289.153.503.34.51.446 1.2.907 1.358.907.068 0 .124.047.124.104 0 .058.092.104.204.104.235 0 .94.316.94.421 0 .04.222.154.494.255.271.1.538.224.592.274.054.05.248.09.43.09.2 0 .357.062.393.156.033.086.155.156.27.156.117 0 .305.093.42.207.19.19.453.284 1.455.514.2.046.595.185.877.31.337.148.612.203.805.16.207-.045.294-.023.295.074 0 .076.129.2.286.274.303.144 1.74.368 2.26.353 1.809-.053 2.488-.011 2.835.174.125.067.73.192 1.345.279.615.086 1.156.194 1.203.24.046.047.105.467.13.934l.047.85-.414.402a2.549 2.549 0 0 1-1.038.597c-.509.159-.623.235-.624.42-.001.31-.773.866-1.205.866-.244 0-.346.055-.386.208-.038.146-.142.208-.35.21-.461.001-.78.116-.725.26.04.101-.016.105-.254.015-.167-.063-.304-.152-.304-.197 0-.046-.192-.052-.426-.014-.273.043-.453.026-.499-.049-.092-.149-2.642-.39-2.687-.253-.07.21-1.898-.06-1.898-.279 0-.05-.2-.124-.442-.164-.243-.04-.527-.118-.63-.172-.124-.065-.235-.061-.323.011-.098.082-.183.056-.321-.096-.103-.115-.277-.208-.386-.208-.109 0-.173-.04-.142-.09.031-.05-.162-.116-.43-.146-.273-.031-.538-.128-.608-.223-.068-.093-.195-.14-.283-.107-.093.036-.388-.095-.7-.31-.298-.204-.605-.372-.683-.372-.195 0-1.082-.439-1.082-.535 0-.126-.975-.764-1.118-.732-.072.016-.13-.043-.13-.132 0-.103-.096-.16-.271-.16-.178 0-.254-.046-.22-.133.048-.127-.264-.61-.387-.6-.325.026-.488-.033-.697-.253-.134-.142-.299-.259-.365-.26-.066-.001-.306-.224-.534-.496a35.448 35.448 0 0 0-.838-.958c-.233-.255-.478-.592-.543-.75-.065-.157-.195-.312-.289-.344-.209-.07-.779-.915-.934-1.383-.062-.189-.2-.47-.305-.624-.251-.368-1.167-2.253-1.167-2.402 0-.063-.148-.407-.328-.765-.492-.973-.504-1-.504-1.142 0-.072-.14-.412-.312-.755-.17-.343-.311-.7-.311-.795 0-.094-.065-.195-.144-.225-.08-.03-.2-.305-.27-.61-.138-.608-.389-1.346-.596-1.749a1.281 1.281 0 0 1-.134-.473c0-.117-.042-.258-.092-.312-.05-.054-.15-.286-.221-.514-.072-.23-.164-.463-.205-.52-.04-.058-.204-.525-.362-1.04a17.683 17.683 0 0 0-.781-1.975 26.386 26.386 0 0 1-.678-1.532c-.21-.561-.8-1.224-1.091-1.224-.108 0-.226-.046-.261-.104-.036-.057-.179-.104-.318-.104-.14 0-.254-.045-.254-.101 0-.057-.117-.132-.26-.168-.143-.036-.26-.1-.26-.141 0-.103-.485-.317-.72-.317a.455.455 0 0 1-.308-.143c-.065-.078-.34-.222-.61-.32a14.592 14.592 0 0 1-.701-.268c-.422-.185-1.695-.517-1.987-.519-.225 0-.262-.025-.148-.098.122-.077.095-.118-.136-.206a3.951 3.951 0 0 0-.672-.167c-.527-.079-3.016-.268-3.4-.259-2.649.067-3.536.05-3.771-.071-.161-.084-.303-.099-.375-.04-.064.053-.677.086-1.364.074-.686-.013-1.399.01-1.584.05-.22.047-.315.036-.272-.033.043-.07-.074-.08-.339-.033-.222.04-.708.09-1.08.11-.371.021-.944.094-1.272.163-.47.098-.695.096-1.061-.006-.256-.072-.627-.1-.824-.063-.235.044-.372.025-.399-.055-.03-.087-.098-.091-.244-.015-.111.059-.53.115-.93.124-.4.01-1.547.036-2.548.057-1 .022-2.357.084-3.015.139-1.131.094-2.093.047-2.354-.114-.064-.04-.176-.002-.248.086-.106.127-.301.147-.994.103-.505-.032-.983-.01-1.154.056-.16.062-.9.13-1.644.15-.743.02-1.913.09-2.599.154a96.61 96.61 0 0 1-2.911.208c-.915.051-1.78.119-1.923.15-.227.05-2.127.152-2.93.158-.154 0-.311.052-.35.114-.038.063-.312.1-.628.086-.308-.014-.59.004-.626.04-.036.036-.353.04-.703.009-.362-.032-.84-.002-1.106.069-.493.132-1.812.311-2.339.319a1.685 1.685 0 0 0-.468.066c-.306.12-.71.14-.774.037-.086-.138-.683-.023-.913.175-.148.129-.232.134-.486.029-.178-.074-.408-.094-.548-.048a2.101 2.101 0 0 1-.632.053c-.225-.015-.39.022-.39.086 0 .074-.433.112-1.273.113-.7 0-1.438.045-1.638.1-.2.054-.735.144-1.19.2-.671.081-.86.145-1.01.341-.103.133-.187.324-.189.424 0 .1-.061.182-.133.182-.14 0-.198.087-.576.862-.131.27-.353.605-.494.745-.14.14-.255.312-.255.383 0 .07-.092.226-.204.345-.207.22-.636.937-.838 1.4-.06.138-.213.349-.34.468a3.388 3.388 0 0 0-.429.525 5.067 5.067 0 0 1-.593.777 1.353 1.353 0 0 0-.208.289c-.021.056-.335.432-.696.835-.362.403-.75.903-.861 1.112-.229.427-1.435 1.928-1.549 1.928-.04 0-.204.207-.364.46s-.377.482-.482.51c-.105.027-.235.165-.288.305-.054.141-.172.285-.263.32-.091.035-.21.181-.265.326-.055.144-.148.262-.207.262-.058 0-.106.063-.106.14 0 .077-.164.309-.364.515-.2.206-.364.408-.364.45 0 .04-.292.39-.65.775a37.203 37.203 0 0 0-1.221 1.398c-.667.813-.91 1.106-1.346 1.623-.175.207-.318.422-.318.476 0 .055-.175.262-.39.461-.214.2-.6.614-.858.922-.257.308-.678.78-.935 1.048a5.496 5.496 0 0 0-.77 1.076c-.279.545-1.128 1.513-1.327 1.513-.048 0-.087.06-.087.131 0 .072-.09.187-.2.256-.11.068-.259.29-.332.493-.073.202-.17.368-.216.368-.046 0-.083.073-.083.162 0 .09-.045.134-.1.1-.122-.075-.94.722-.94.915 0 .216-.486.623-.634.532-.09-.055-.11-.029-.066.086.035.09-.004.221-.086.29-.082.068-.15.19-.15.27 0 .08-.117.19-.26.244-.143.054-.26.147-.26.206s-.21.329-.468.6c-.257.272-.494.575-.526.675-.033.1-.26.381-.506.624s-.694.805-.996 1.248c-.302.443-.59.806-.641.806-.05 0-.126.083-.167.184-.173.426-.92 1.368-1.088 1.371-.1.002-.182.049-.182.103 0 .17-.484.63-.662.63-.093 0-.17.07-.17.155 0 .086-.094.25-.208.364-.114.114-.208.234-.208.265 0 .094-.564.56-.682.563-.153.005-.687.576-.61.652.034.035-.035.115-.155.179-.119.063-.216.184-.216.268 0 .084-.05.152-.11.152-.15 0-1.033.857-1.034 1.003 0 .065-.07.146-.157.179-.086.033-.145.119-.13.19.016.075-.17.182-.44.254-.258.069-.422.13-.365.135.068.006.067.037-.002.086-.058.042-.162.205-.231.363-.079.177-.206.286-.339.286-.131 0-.25.099-.311.26-.055.142-.169.26-.254.26-.085 0-.205.093-.266.207-.072.134-.218.208-.409.208-.168 0-.323.068-.357.156-.032.086-.173.156-.311.156-.14 0-.28.072-.314.16-.034.09-.226.23-.427.314-.201.084-.366.199-.366.255 0 .057-.166.103-.37.103s-.455.045-.557.1c-.102.054-.509.13-.903.167-.466.045-.763.127-.848.235-.111.14-.184.147-.462.042-.278-.105-.36-.098-.517.045-.218.197-1.749.341-1.749.165zm16.895-49.06c1.887-.034 3.595-.06 3.795-.054.2.005.504-.036.676-.09.265-.083 1.78-.201 4.574-.358 1.522-.085 2.608-.19 2.704-.264.057-.044.759-.113 1.56-.153.8-.041 1.501-.108 1.559-.149.057-.04.361-.086.675-.1.315-.015.617-.071.671-.125.054-.054.25-.098.433-.098.412 0 .664-.09.664-.238 0-.141.926-1.01 1.078-1.01.062 0 .293-.197.514-.438.321-.352.39-.495.343-.724-.031-.157-.01-.313.045-.348a.12.12 0 0 0 .04-.164c-.038-.062.043-.075.207-.034.147.037.268.026.268-.025 0-.051.129-.17.286-.262.236-.14.385-.15.856-.065.533.097.921.241 1.042.388.124.15.944.633 1.078.633.159 0 .824.454 1.539 1.051.365.306.56.387 1.041.434.443.043.624.02.716-.091.093-.112.159-.12.264-.033.143.119.56.091 1.6-.106.856-.162 2.934-.28 4.054-.229a5.02 5.02 0 0 0 .832-.036c1.783-.285 1.692-.277 4.615-.413.737-.035 1.392-.096 1.456-.138.063-.04.478-.058.921-.038.59.026.806.002.806-.093 0-.09.131-.113.442-.076.243.03.91.015 1.481-.032 2.045-.168 5.704-.349 6.628-.327.33.008.89.02 1.248.03 1.095.027 2.616-.071 2.834-.184.132-.068.623-.08 1.35-.033.63.04 1.612.058 2.184.037.572-.02 2.303-.054 3.847-.076 1.544-.021 3.078-.075 3.41-.118.427-.056.676-.04.854.056.19.102.286.105.396.015.091-.076.368-.1.757-.064.337.03 1.783.076 3.212.1 1.43.025 2.787.061 3.015.082.23.02.72.005 1.092-.035.372-.039.734-.04.806-.003.071.038.469.037.883-.002.424-.04.836-.027.94.028.228.12 2.551.215 4.423.18.523-.01.912.03.982.102.065.064.426.116.803.116.378 0 .731.041.785.092.055.05.48.061.947.025.467-.037 1.002-.035 1.19.004.19.038 1.492.062 2.896.052 2.192-.016 2.603.006 2.915.155.213.102.39.133.425.075.07-.112 1.167-.147 1.337-.043.196.122 2.008.154 2.22.04.147-.078.272-.072.45.023.207.11.275.104.435-.04.18-.163.774-.207 2.412-.178.291.005 1.638-.195 2.13-.316a.533.533 0 0 1 .26.036c.223.087.664.042.749-.077.04-.055.367-.09.727-.077.631.022 1.472-.127 1.702-.303.06-.046.482-.114.936-.152.454-.037.904-.109 1-.16.097-.05.46-.091.806-.091.351 0 .63-.046.63-.104 0-.057.182-.104.403-.104.244 0 .505-.082.666-.208.145-.114.36-.208.478-.208.117 0 .458-.096.756-.214.376-.148.66-.194.922-.15.276.047.416.02.514-.098.074-.089.199-.162.277-.162.08 0 .144-.042.144-.094s.234-.154.52-.228c.285-.073.52-.17.52-.214 0-.045.147-.12.327-.166.481-.125.55-.432.214-.951-.152-.234-.315-.426-.361-.426-.047 0-.291-.152-.543-.338-.487-.36-.644-.644-.668-1.207-.008-.192-.055-.426-.104-.52-.05-.094-.145-.451-.213-.794a8.693 8.693 0 0 0-.274-1.04 6.797 6.797 0 0 1-.247-1.092 15.932 15.932 0 0 0-.593-2.495c-.087-.257-.195-.8-.242-1.208-.046-.407-.169-.898-.272-1.092-.103-.193-.219-.632-.257-.975a29.24 29.24 0 0 0-.294-1.767 24.326 24.326 0 0 1-.287-1.797c-.034-.359-.103-.677-.152-.708-.05-.03-.09-.25-.091-.49-.001-.24-.075-.857-.164-1.372-.153-.888-.274-2.792-.427-6.758-.094-2.428-.094-2.493-.002-5.246.045-1.342.125-2.466.177-2.499.053-.033.144-.69.202-1.46.059-.77.15-1.577.202-1.793a2.61 2.61 0 0 0 .041-.807c-.065-.483.138-1.882.338-2.335.12-.272.257-1.288.309-2.293.009-.175.06-.386.113-.468.053-.082.101-.314.107-.514.019-.595.144-1.484.26-1.842.058-.184.094-.418.077-.52-.026-.167.023-.403.333-1.597.053-.205.143-.813.199-1.352a31.84 31.84 0 0 1 .259-1.863c.086-.486.158-1.082.159-1.325 0-.32.044-.442.155-.442.117 0 .149-.127.135-.546-.022-.67.105-3.2.19-3.769.034-.228.117-.51.186-.624.083-.138.118-.675.105-1.611l-.085-6.152-.066-4.749.223-.157.224-.156-.229-.472c-.27-.559-.255-.963.034-.913.205.035.205.032 0-.928-.045-.21-.012-.284.147-.325.235-.062.358-.547.355-1.405 0-.508.016-.546.249-.546.257 0 .293-.093.187-.487-.042-.155-.115-.208-.233-.167-.14.05-.147.034-.041-.08a.55.55 0 0 0 .13-.322c0-.1.08-.226.176-.28.168-.095.396-.863.493-1.667.053-.435.234-.648.368-.432.05.082.07.187.041.233-.028.045.022.083.111.083.117 0 .157-.094.144-.338-.01-.186.017-.555.062-.82.053-.319.042-.505-.034-.552-.063-.038-.114-.155-.114-.258 0-.14.068-.18.272-.157.27.03.272.023.205-.482-.056-.42-.04-.512.091-.512.122 0 .16-.122.16-.512 0-.47.025-.522.316-.65.292-.127.395-.31.4-.71.007-.377.207-1.061.362-1.233.093-.103.17-.237.17-.298 0-.06.063-.135.14-.164.078-.03.168-.187.2-.35.033-.162.184-.477.336-.701.218-.322.262-.48.21-.759-.054-.287-.022-.388.174-.551.131-.11.315-.201.407-.203.114-.002.243-.23.401-.705.129-.386.276-.747.326-.801.051-.054.093-.258.093-.452 0-.376.283-.957.467-.957.191 0 .629-.58.777-1.03.111-.335.19-.426.35-.403.166.024.228-.06.32-.438.085-.351.168-.476.332-.5.15-.02.261-.157.352-.433.073-.22.213-.423.311-.448.114-.03.202-.194.244-.45.039-.243.149-.457.275-.535.116-.072.21-.213.211-.312 0-.1.234-.439.52-.753.286-.315.55-.666.585-.78.035-.114.317-.489.627-.832.734-.813.778-.87 1.072-1.355.136-.227.404-.6.593-.828.855-1.03 1.054-1.268 1.562-1.863.297-.348.708-.82.913-1.048a6.44 6.44 0 0 0 .564-.728c.105-.171.407-.534.67-.805.263-.271.57-.672.681-.89.235-.462.365-.58.782-.714.19-.061.31-.175.319-.303.022-.306.296-.875.421-.875.178 0 .836-.752.981-1.12.074-.188.263-.433.42-.545.158-.112.32-.333.358-.491.04-.158.18-.404.314-.547a3.65 3.65 0 0 0 .459-.676 3.12 3.12 0 0 1 .529-.71c.173-.163.314-.372.314-.465 0-.094.182-.336.404-.537.315-.286.49-.596.797-1.407.217-.572.503-1.16.636-1.305.133-.146.242-.315.242-.374 0-.06.09-.212.2-.34.11-.126.231-.425.27-.665.097-.612.349-1.514.542-1.94.139-.306.145-.452.04-.961-.084-.405-.092-.728-.027-.99.116-.464.106-.096.105-3.874 0-3.355-.118-4.777-.5-6.03a2.9 2.9 0 0 1-.11-.698c0-.184-.065-.488-.145-.676-.08-.188-.201-.669-.27-1.07l-.27-1.559c-.081-.457-.192-1.112-.248-1.455a15.778 15.778 0 0 0-.26-1.227c-.087-.332-.159-.792-.159-1.024 0-.231-.065-.545-.146-.696-.232-.437-.582-1.795-.582-2.256 0-.23-.064-.675-.143-.988-.08-.312-.175-.801-.213-1.087a8.835 8.835 0 0 0-.216-1.04c-.169-.594-.574-2.391-.833-3.69-.097-.487-.213-.978-.258-1.092-.207-.522-.308-.863-.37-1.248-.036-.229-.197-.86-.357-1.404a29.416 29.416 0 0 1-.347-1.247c-.159-.748-.308-1.223-.487-1.555-.109-.203-.3-.72-.425-1.148-.124-.43-.26-.827-.302-.884-.041-.057-.16-.361-.261-.676a15.565 15.565 0 0 0-.586-1.423c-.22-.468-.4-.913-.4-.988 0-.075-.116-.323-.257-.552-.14-.229-.258-.485-.26-.57-.003-.214-.63-1.454-.742-1.473a2.988 2.988 0 0 0-.206-.026c-.116-.01-.402.687-.405.987 0 .092-.095.274-.21.406a.924.924 0 0 0-.208.51c0 .455-.197 1.011-.45 1.27-.13.137-.3.4-.374.585-.075.186-.171.338-.214.338-.043 0-.19.165-.325.366a1.796 1.796 0 0 1-.637.54c-.215.096-.39.207-.39.246 0 .04-.129.098-.286.13a25.05 25.05 0 0 0-.754.17c-.454.11-5.849.244-7.954.197a64.776 64.776 0 0 0-1.767-.014c-.4.005-1.734.008-2.963.008-1.23 0-3.218.015-4.419.035-2.269.037-3.779.022-5.964-.057-.707-.026-1.395-.005-1.53.046-.158.06-.268.054-.313-.019-.047-.075-.39-.086-1.07-.033-.55.043-1.304.068-1.676.055a179.9 179.9 0 0 0-3.639-.012c-1.63.006-3.255.007-3.613.003-.592-.007-.65.011-.65.21 0 .12.12.345.266.5.146.154.292.41.325.567.033.157.092.285.131.285.127 0 .393.664.524 1.303.07.342.17.714.22.829.439.982.632 1.918.649 3.132.017 1.257.016 1.262-.307 1.716-.178.25-.36.571-.405.714-.144.46-.556 1.021-.8 1.09-.984.273-1.642.777-1.642 1.254 0 .177-.093.757-.206 1.288-.167.779-.273 1.04-.546 1.348-.319.358-1.303 1.05-1.499 1.051-.049 0-.322.116-.608.257-.286.14-.65.257-.81.259-.158.002-.314.071-.346.154-.062.161-.458.309-1.131.42a3.697 3.697 0 0 0-.728.208c-.172.075-.546.22-.832.323a4.995 4.995 0 0 0-.735.321c-.118.075-.493.166-.832.203-.339.037-.71.127-.824.2-.19.122-.607.205-1.467.294-.177.018-.37.062-.427.097-.057.036-.49.074-.961.086-.6.015-.872.062-.91.159-.038.099-.297.137-.932.137-.483 0-.964.046-1.067.1-.121.066-.42.064-.843-.004a22.89 22.89 0 0 0-2.49-.214c-.368-.004-1.308-.259-1.81-.491a27.56 27.56 0 0 0-.582-.263 4.112 4.112 0 0 1-.468-.27c-.171-.111-.488-.3-.704-.417-.415-.227-1.545-1.318-1.894-1.828-.738-1.08-1.137-2.408-1.247-4.15-.035-.553.312-2.666.498-3.035.08-.16.176-.513.211-.784.036-.27.105-.574.154-.675.5-1.033.715-1.39.87-1.439.101-.031.282-.196.402-.364.24-.338 1.2-.859 1.784-.968.205-.039.43-.14.5-.224.07-.084.189-.153.264-.153.075 0 .17-.105.21-.234.04-.128.172-.336.292-.462.121-.125.313-.328.428-.45a1.09 1.09 0 0 1 .494-.278c.157-.032.286-.126.286-.21 0-.17-.382-.135-1.535.143-.359.087-.92.172-1.248.19-.328.018-.877.08-1.22.14-.823.144-2.466.273-3.125.246a5.06 5.06 0 0 0-1.04.087c-.283.06-1.31.13-2.281.156-.972.026-2.165.074-2.651.108-.795.055-1.365.015-3.64-.257-.371-.044-.825-.158-1.008-.254a1.673 1.673 0 0 0-.639-.172c-.176 0-.331-.067-.365-.156-.033-.086-.154-.156-.268-.156-.115 0-.397-.099-.627-.219-.23-.12-.59-.218-.8-.218-.209 0-.566-.066-.794-.146-.228-.08-.809-.191-1.29-.246-.483-.055-1.022-.171-1.198-.26a1.649 1.649 0 0 0-.608-.159c-.158 0-.424-.114-.59-.254-.166-.14-.515-.307-.775-.373-.337-.085-.507-.193-.59-.376-.228-.5.106-.765 1.235-.977.372-.07.816-.188.988-.261.45-.193 1.621-.462 2.008-.462.182 0 .331-.041.331-.09 0-.087.755-.205 1.768-.277 1.675-.12 2.195-.189 2.703-.357a6.83 6.83 0 0 1 .99-.246 3.93 3.93 0 0 0 .709-.167c.16-.061.4-.11.534-.11.135 0 .378-.067.54-.149.252-.127 2.087-.415 3.257-.512.584-.048 1.079-.183 1.262-.345a.585.585 0 0 1 .364-.136c.555.037 1.12-.012 1.235-.108.14-.116 1.26-.364 2.296-.51.349-.048.723-.134.832-.19.108-.056.431-.13.717-.166.56-.07.745-.108.988-.2.085-.032.503-.087.928-.122.424-.034.822-.103.883-.153.062-.05.3-.116.528-.15 2.303-.33 2.88-.404 4.112-.525.311-.03.964-.129 1.45-.218 1.181-.217 2.545-.358 2.806-.29.116.03.28-.002.365-.073.084-.07.218-.103.296-.073.078.03.605-.037 1.17-.15.761-.15 1.13-.178 1.414-.107.275.07.438.06.572-.033.103-.072.445-.139.759-.15 1.702-.057 2.45-.106 3.138-.205a12.24 12.24 0 0 1 1.489-.108c.4.001.985-.027 1.3-.063 1.196-.137 3.9-.29 4.366-.247a3.28 3.28 0 0 0 .58-.06c.323-.056.464-.033.59.093.186.186.458.22.51.065.02-.057.791-.134 1.75-.175 1.715-.073 8.763-.106 9.254-.044.143.018.61 0 1.04-.04.429-.039.85-.071.936-.071.43 0 3.667.127 4.21.164.343.024 1.49.095 2.548.157a64.28 64.28 0 0 1 3.17.267 99.12 99.12 0 0 0 2.443.262c.657.06 1.523.174 1.924.253.4.078 1.148.173 1.662.21.514.038.982.106 1.04.15.174.135 1.999.355 2.203.266a.718.718 0 0 1 .33-.06c.077.013.228-.056.336-.154.226-.204.49-.222 1.484-.103l.713.086-.072-.247c-.243-.833-.73-1.945-.938-2.142-.134-.127-.418-.595-.632-1.04a11.313 11.313 0 0 0-.736-1.303c-.19-.271-.347-.537-.347-.59 0-.052-.112-.228-.248-.39a6.258 6.258 0 0 1-.534-.813c-.158-.286-.37-.6-.472-.698a1.165 1.165 0 0 1-.258-.408 1.203 1.203 0 0 0-.17-.341 8.432 8.432 0 0 1-.324-.438c-.126-.18-.488-.647-.804-1.04a16.3 16.3 0 0 1-.74-.974 5.268 5.268 0 0 0-.49-.608c-.18-.192-.328-.38-.329-.416 0-.037-.305-.385-.675-.772-.371-.388-.675-.732-.675-.765 0-.033-.182-.254-.404-.49l-1.034-1.107c-.347-.372-.855-.914-1.13-1.205a61.82 61.82 0 0 1-.817-.884 20.635 20.635 0 0 0-.962-.957c-.354-.331-.643-.618-.643-.636 0-.019-1.743-1.785-3.873-3.925a1987.574 1987.574 0 0 1-5.673-5.714 34.34 34.34 0 0 1-.728-.754c-.304-.322-.599-.585-.656-.585-.056 0-.077-.042-.045-.093.032-.052-.106-.238-.306-.413-.2-.176-.363-.368-.363-.426 0-.06-.042-.108-.094-.108-.132 0-2.085-2.065-2.088-2.209-.001-.043-.08-.078-.175-.078-.095 0-.15-.024-.12-.053.029-.029-.291-.4-.711-.824-.42-.424-.763-.82-.763-.882 0-.062-.064-.112-.141-.112-.078 0-.433-.33-.79-.731-.759-.853-3.229-3.346-4.428-4.468-1.444-1.35-1.823-1.663-2.015-1.663-.103 0-.346-.106-.54-.234a9.114 9.114 0 0 0-.872-.486c-.286-.138-.543-.281-.572-.318-.028-.037-.332-.151-.675-.255-.343-.103-.718-.245-.832-.315-.114-.07-.489-.16-.832-.2-1.711-.196-1.888-.233-2.2-.455-.18-.128-.394-.233-.476-.233a.368.368 0 0 1-.226-.078c-.043-.042-.905-.083-1.915-.09-3.325-.02-6.747-.114-6.866-.187-.065-.04-.117-.028-.117.026 0 .062-.149.065-.39.01a4.235 4.235 0 0 0-.771-.094c-.21 0-.585-.09-.834-.196-.4-.172-.468-.176-.597-.038-.241.258-1.785.07-2.58-.314-.164-.079-.373-.081-.693-.008-.288.066-.523.069-.632.008-.096-.054-.335-.067-.531-.03-.246.046-.429.016-.59-.097-.41-.289-.98-.391-1.378-.247-.324.117-.38.107-.604-.103-.2-.189-.294-.213-.511-.13a1.059 1.059 0 0 0-.406.29c-.113.152-.313.193-1.05.215-.859.025-.91.015-.91-.189 0-.118-.044-.187-.099-.153-.055.034-.072.133-.038.22.04.105-.015.179-.162.217-.16.042-.265.208-.379.598-.11.38-.287.664-.597.96-.72.688-1.89 1.01-2.598.715-.633-.265-3.133-.048-4.34.377-.315.11-.918.292-1.34.403-.423.112-.832.255-.909.319a.329.329 0 0 1-.294.057c-.085-.033-.222.009-.306.092a.587.587 0 0 1-.359.151c-.23 0-1.804.606-1.887.726-.064.094-1.297.522-1.504.522-.208 0-.99.415-.99.525 0 .05-.235.061-.522.027-.381-.045-.57-.02-.702.092-.1.085-.461.211-.804.28-.343.07-.718.166-.832.214a8.013 8.013 0 0 1-1.82.519c-.371.058-.839.135-1.04.17-.2.034-.667.087-1.039.117-.371.03-.746.116-.831.191-.086.075-.644.19-1.24.256-.595.065-1.274.182-1.507.259-.234.077-.77.192-1.19.255-.422.064-.861.167-.977.229a1.785 1.785 0 0 1-.534.148c-.802.089-1.535.255-1.95.442a6.584 6.584 0 0 1-1.05.336c-.329.073-.598.164-.598.203 0 .039-.199.133-.442.21a5.436 5.436 0 0 0-.867.38c-.233.133-.523.242-.643.242s-.247.045-.28.1c-.035.055-.213.145-.397.2-.637.19-1.453.524-1.62.664-.094.077-.51.274-.925.437-.415.163-.807.359-.87.435-.064.077-.173.139-.243.139s-.235.094-.367.208c-.132.114-.319.208-.416.208-.097 0-.288.097-.424.215a1.398 1.398 0 0 1-.536.273c-.158.032-.287.095-.287.14 0 .046-.152.116-.338.157-.186.04-.468.183-.627.316-.16.133-.44.284-.624.335a3.128 3.128 0 0 0-.74.368c-.222.151-.472.275-.556.275-.084 0-.35.133-.591.296-.242.163-.565.328-.72.367-.154.039-.37.16-.478.268-.29.289-.576.42-.916.42a.786.786 0 0 0-.545.26c-.134.144-.294.262-.356.263-.061 0-.318.141-.57.311-.25.171-.528.31-.615.31-.087 0-.24.075-.34.166-.101.09-.377.209-.613.262-.237.053-.486.144-.553.203-.273.236-1.185.787-1.527.922-.2.08-.409.184-.463.232a.467.467 0 0 1-.267.087c-.093 0-.326.14-.518.312-.192.171-.388.312-.435.312-.047 0-.085.069-.085.154 0 .084-.113.182-.252.217a1.025 1.025 0 0 0-.432.262c-.099.11-.236.198-.304.198s-.208.094-.312.208c-.103.115-.23.208-.283.208-.12 0-.787.493-1.09.804-.125.13-.269.236-.319.236-.05 0-.274.14-.498.31-.225.169-.44.31-.479.311-.038.001-.249.182-.468.401a7.57 7.57 0 0 1-.998.792c-.33.216-.648.481-.706.59a.394.394 0 0 1-.309.195c-.112 0-.204.07-.204.156a.153.153 0 0 1-.149.156c-.082 0-.179.094-.215.208a.453.453 0 0 1-.294.265c-.125.031-.305.191-.399.355a1.69 1.69 0 0 1-.467.488 4.94 4.94 0 0 0-.677.58c-.21.215-.456.391-.546.391-.09 0-.164.067-.164.15 0 .081-.094.178-.208.214-.114.037-.208.11-.208.163 0 .054-.06.097-.133.097-.175 0-.907.714-.907.885 0 .073-.107.16-.238.192-.131.033-.445.245-.698.472-.253.226-.502.385-.555.353-.052-.033-.074.003-.05.08.051.15-1.564 1.762-2.31 2.304-.254.186-.708.584-1.007.885-.299.301-.58.549-.624.55-.044 0-.22.212-.392.468-.171.255-.354.465-.405.465-.05 0-.224.138-.384.306-.16.168-.4.362-.531.432-.132.07-.3.213-.375.318-.075.106-.187.192-.248.192-.062 0-.217.105-.344.234a6.024 6.024 0 0 1-.5.442c-.149.114-.273.266-.275.338-.003.071-.04.13-.083.13-.043 0-.19.164-.325.364-.136.2-.293.363-.348.363-.055 0-.411.335-.792.744-.38.41-.867.907-1.08 1.107-.212.199-.364.399-.336.444.028.045-.043.112-.159.148-.115.037-.209.157-.209.268 0 .11-.039.2-.086.2-.048 0-.293.187-.546.415-.253.228-.495.415-.538.416-.043 0-.078.068-.078.15 0 .082-.093.179-.208.215-.114.036-.207.11-.207.163 0 .053-.082.186-.182.294-.405.438-.65.762-.65.858 0 .055-.047.072-.104.037-.057-.036-.156-.033-.22.007-.082.05-.08.092.008.146.078.049.017.12-.173.198a.925.925 0 0 0-.425.416c-.071.161-.272.43-.446.595a4.005 4.005 0 0 0-.506.594c-.103.16-.468.585-.81.942-.341.358-.64.7-.662.76-.049.131-.835 1.064-1.315 1.561-.186.193-.338.395-.338.45 0 .055-.093.158-.208.23-.114.07-.208.21-.208.309 0 .098-.156.336-.347.527a2.85 2.85 0 0 0-.536.838c-.182.478-.364.72-.364.484 0-.063-.047-.087-.104-.052-.057.036-.104.132-.104.214 0 .083-.072.232-.16.332-.573.657-.977 1.194-1.035 1.375-.037.116-.11.21-.164.21-.053 0-.097.113-.097.25 0 .136-.07.275-.156.308-.086.033-.156.12-.156.193 0 .151-.588.81-.721.81-.049 0-.118.117-.154.262a1.17 1.17 0 0 1-.26.457 1.242 1.242 0 0 0-.265.414.649.649 0 0 1-.27.326c-.11.059-.201.177-.201.263 0 .085-.07.182-.156.215s-.156.127-.156.21c0 .159-.113.316-.509.707-.15.148-.223.31-.185.41.035.092.021.166-.03.166-.052 0-.126.106-.166.234-.04.129-.23.366-.423.528-.193.161-.35.373-.35.471 0 .098-.139.34-.308.539-.17.198-.31.431-.312.519-.002.087-.098.226-.212.308-.115.083-.208.208-.208.279 0 .07-.117.3-.26.511-.143.21-.26.47-.26.577 0 .106-.07.193-.156.193s-.156.065-.156.145c0 .08-.07.172-.156.205-.086.032-.156.158-.156.278 0 .12-.117.371-.26.558-.143.188-.26.42-.26.517 0 .096-.07.202-.156.235-.09.034-.156.19-.156.364s-.066.33-.156.364c-.085.033-.157.113-.16.178-.002.066-.162.376-.356.691a25.83 25.83 0 0 0-.63 1.092 8.393 8.393 0 0 1-.528.85 3.76 3.76 0 0 0-.355.572 8.92 8.92 0 0 1-.364.683c-.646 1.107-.785 1.358-1.022 1.849-.139.288-.324.583-.412.656-.087.073-.19.314-.227.536-.038.222-.137.461-.222.53-.16.134-.558.938-.558 1.128 0 .06-.07.11-.156.11-.09 0-.156.093-.156.218 0 .24-.448 1.19-.684 1.453a.606.606 0 0 0-.148.34.87.87 0 0 1-.102.355c-.056.1-.294.625-.53 1.168a63.611 63.611 0 0 1-.73 1.62c-.166.348-.301.701-.301.785a.44.44 0 0 1-.088.252c-.048.054-.197.38-.331.722-.135.344-.27.648-.303.676-.136.122-.419.753-.371.83.028.046-.019.252-.105.458a2.82 2.82 0 0 0-.154.428 2.79 2.79 0 0 1-.155.429c-.086.207-.157.439-.157.516 0 .076-.066.293-.146.48a9.77 9.77 0 0 0-.324 1.018 18.4 18.4 0 0 1-.267.936 4.38 4.38 0 0 0-.146.624c-.111.72-.175.935-.276.935-.056 0-.073.093-.037.206.036.114-.008.492-.097.84-.09.35-.162.738-.162.865s-.052.283-.116.346c-.063.064-.126.389-.139.723a12.04 12.04 0 0 1-.141 1.29 9.449 9.449 0 0 0-.116 1.351v1.241c-.009 1.471.016 2.17.099 2.8.36 2.725.636 4.206.878 4.722.136.288.346 1.02.69 2.403.057.227.147.465.2.53.055.064.072.144.039.177-.033.032.011.168.097.302.086.134.234.545.329.914.094.37.24.802.322.962.083.16.12.29.084.29-.037 0 .002.106.085.234.084.129.214.491.289.806.074.314.222.725.327.913.106.187.192.434.192.547 0 .113.04.287.087.387.194.4.566 1.233.637 1.428.25.684.343.964.393 1.196.032.143.09.283.129.312.117.085.315.744.254.843-.031.05-.007.092.053.092s.11.091.11.202c0 .111.047.23.104.266.057.035.104.16.104.276 0 .117.063.336.141.488.184.36.89 1.852 1.066 2.251a4.1 4.1 0 0 1 .202.59c.036.153.155.36.264.458.11.1.2.255.2.346 0 .091.14.441.312.778.17.337.31.655.31.706 0 .052.14.394.312.761s.312.716.312.775c0 .06.044.109.097.109.053 0 .128.105.166.234.038.128.182.476.32.773.137.297.249.613.249.702 0 .09.047.162.104.162.057 0 .104.065.104.143 0 .08.07.202.156.273.086.071.156.2.156.286 0 .086.145.466.321.845.706 1.511.912 1.964 1.186 2.612.157.372.327.72.377.775a.49.49 0 0 1 .091.285c0 .103.044.188.097.188.054 0 .128.105.166.234.038.128.228.574.423.991.195.417.354.787.354.822 0 .035.14.36.312.724.171.363.312.73.312.816 0 .085.047.155.104.155.057 0 .104.094.104.208 0 .115.043.208.096.208.052 0 .152.176.222.39.07.215.213.514.32.666.106.152.193.31.193.352 0 .042.258.604.572 1.248.315.644.572 1.217.572 1.273 0 .055.07.159.156.23a.55.55 0 0 1 .156.377c0 .136.046.247.101.247.09 0 .523.82.523.992 0 .037.088.192.196.343.108.152.344.568.525.923.181.356.373.675.428.708.054.034.098.15.098.26 0 .108.14.419.312.69.172.27.312.576.312.679 0 .103.044.187.097.187.054 0 .13.106.17.234.125.396.604 1.376.69 1.413.046.019.083.084.083.144 0 .06.149.349.331.641.423.679 1.121 2.054 1.123 2.212 0 .067.037.137.08.156.115.052 1.374 2.663 2.068 4.292.197.46.403.92.458 1.02.236.426.618 1.581.681 2.06.038.284.11.542.16.573.049.03.09.194.09.363 0 .17.067.576.15.904.267 1.058.4 2.628.331 3.877-.08 1.442-.126 1.882-.232 2.197a1.315 1.315 0 0 0-.054.473c.015.128-.064.409-.175.624a6.924 6.924 0 0 0-.377.963 6.865 6.865 0 0 1-.425 1.04 32 32 0 0 0-.471.918c-.122.248-.308.538-.415.645a2.896 2.896 0 0 0-.4.595c-.111.22-.407.631-.657.914-.25.283-.535.643-.635.8-.099.158-.25.286-.334.286-.084 0-.153.088-.153.196 0 .217-.621.74-.88.74-.1 0-.19.122-.228.312-.034.171-.103.312-.153.312s-.091.063-.091.14c0 .077-.094.224-.208.328-.114.103-.208.241-.208.307 0 .065-.397.49-.882.945-.485.455-.883.86-.884.9 0 .04-.27.355-.6.701l-1.195 1.258c-.329.345-.598.689-.598.763 0 .074-.209.317-.465.541-.255.224-.466.46-.467.525-.001.065-.12.195-.263.288-.143.094-.26.228-.26.298 0 .07-.16.291-.356.492l-1.04 1.054c-.376.38-.684.74-.684.799 0 .06-.087.136-.193.17-.298.094-2.165 2.036-2.292 2.383-.024.064-.388.467-.81.896-1.264 1.287-1.356 1.39-1.522 1.723-.146.294-.715.751-1.12.9-.092.034-.197.211-.233.393-.037.181-.207.462-.379.622-.172.16-.312.344-.312.406 0 .063-.098.115-.218.115-.13 0-.24.083-.272.208-.03.114-.099.208-.153.208-.117 0-.813.719-.813.838 0 .046-.06.144-.134.22a4.168 4.168 0 0 0-.383.553 6.74 6.74 0 0 1-.568.785 21.98 21.98 0 0 0-1.144 1.449c-.169.23-.344.417-.39.417-.046 0-.084.052-.084.115s-.129.286-.286.494c-.293.389-.41.58-.8 1.312a7.223 7.223 0 0 1-.462.745c-.274.37-.773 1.77-.683 1.916.033.053.17.097.305.097.135 0 .328.031.428.07.17.065.169.076-.017.149-.183.071-.18.079.037.085.13.004.355.085.498.178.143.094.364.186.49.203.609.085 1.892.454 1.925.554.02.062.14.112.266.112.125 0 .334.075.465.166.142.1.335.141.483.104.136-.034.38-.012.54.05.16.06.784.203 1.385.316.6.113 1.466.292 1.924.399.457.107 1.16.247 1.56.31 1.018.165 2.164.436 2.282.542.146.132.447.108.51-.041.04-.099.086-.092.19.027.146.168.966.415 1.377.415.137 0 .265.044.284.098.02.054.269.152.555.217.286.065.758.185 1.049.266.29.08.653.147.806.147.152 0 .452.093.665.208.213.114.494.208.623.208.13 0 .236.041.236.092 0 .05.222.124.494.164.271.04.68.158.91.262.228.105.567.247.753.316.186.07.338.168.338.218 0 .05.1.091.223.091.268 0 2.314.996 2.495 1.214.16.192.86.554 1.073.554.088 0 .16.048.16.106 0 .059.105.153.234.21.414.181.946.527 1.589 1.031.345.27 1.214.844 1.931 1.274.717.43 1.394.858 1.504.952.173.148 1.089.594 2.191 1.068.18.078.414.143.52.145.106.002.38.118.608.259.229.14.563.256.743.257.18 0 .35.06.377.132.092.24 1.917.552 4.306.738.87.067 1.615.158 1.659.202.043.043.268.053.5.023.231-.03 1.965-.084 3.852-.12zm26.616-35.296a31.1 31.1 0 0 1-1.82-.195c-1.118-.167-2.607-.325-2.91-.309-.659.035-2.18-.198-2.426-.37a1.043 1.043 0 0 0-.51-.154c-.16 0-.372-.042-.47-.093-.1-.051-.298-.148-.441-.214-1.376-.642-2.472-1.6-3.14-2.745-.504-.861-.918-1.835-1.026-2.407l-.196-1.04c-.183-.96-.245-3.523-.108-4.47.128-.895.403-1.89.57-2.071.172-.185.989-1.388.989-1.456 0-.127.559-.684.687-.684.073 0 .194-.086.268-.191.12-.167.79-.794 2.196-2.053.218-.195.459-.355.534-.355.076 0 .218-.123.317-.274a4.204 4.204 0 0 1 1.078-1.121c.208-.145.542-.475.742-.734.629-.815 1.908-2.097 2.283-2.29.198-.1.456-.306.572-.455.382-.488 1.218-1.26 1.364-1.26.078 0 .22-.117.313-.26.094-.143.219-.26.278-.26.059 0 .328-.199.597-.442.788-.71 1.273-1.067 1.663-1.224.2-.08.769-.393 1.263-.696.495-.302 1.014-.55 1.154-.55a.69.69 0 0 0 .443-.208c.269-.298.756-.52 1.143-.52.182 0 .44-.093.571-.207a.942.942 0 0 1 .51-.212c.149-.002.387-.07.53-.152.143-.082.364-.15.49-.152a1.95 1.95 0 0 0 .572-.148c.747-.314 1.406-.48 1.901-.48.286 0 .654-.07.818-.156.164-.086.477-.156.695-.156.22 0 .427-.046.463-.104.035-.057.433-.103.883-.103.451 0 .849-.047.884-.104.035-.058.356-.104.713-.104s.698-.049.757-.108c.071-.072.196-.074.37-.008.151.057.423.064.636.016.205-.046.394-.063.42-.037.026.026.19-.026.363-.115.178-.092.534-.157.816-.147.275.009 1.927-.035 3.67-.097 2.08-.074 3.35-.078 3.692-.011.285.055.601.097.701.092l.468-.02a75.15 75.15 0 0 1 2.054.02c.972.018 1.87 0 1.997-.042a.65.65 0 0 1 .44.038c.228.121 3.506.233 6.348.217.943-.006 1.96.03 2.257.08.353.058.987.04 1.82-.05a67.956 67.956 0 0 1 1.433-.148c.086-.004.624-.06 1.196-.123 1.085-.121 1.887-.435 2.4-.939.13-.126.385-.344.568-.482.441-.335 1.174-1.825 1.078-2.191-.037-.143-.083-.578-.1-.967a7.812 7.812 0 0 0-.222-1.403c-.167-.618-.188-1.113-.176-4.336.007-2.002.049-3.929.092-4.283.065-.528.048-.673-.091-.813-.094-.093-.17-.232-.17-.31 0-.197-.656-.848-.95-.94a2.34 2.34 0 0 1-.558-.315c-.171-.13-.662-.315-1.091-.41a34.279 34.279 0 0 1-1.3-.315 9.565 9.565 0 0 0-1.04-.213c-.286-.038-.576-.114-.644-.169-.07-.054-.218-.07-.33-.034-.114.036-.372-.004-.574-.089-.238-.099-.596-.14-1.012-.114-.439.027-.741-.011-.949-.118-.27-.14-.324-.14-.477-.003-.321.288-2.582.225-2.921-.082-.195-.177-.215-.177-.385-.006-.485.485-2.18.873-2.657.608-.348-.193-.494-.172-.938.135-.337.234-.436.258-.652.16-.14-.064-.277-.078-.306-.031-.029.047-.393.11-.81.142-.416.032-.874.106-1.016.165a3.624 3.624 0 0 1-.65.17c-.215.035-.481.16-.591.279-.183.196-.253.205-.805.11-.333-.058-.63-.072-.658-.033-.197.274-.758.53-1.16.53-.248 0-.59.074-.76.162-.17.089-.415.134-.546.101-.156-.039-.237-.013-.237.077 0 .142-.753.388-1.189.388-.148 0-.418.162-.665.399-.524.503-.947.498-1.14-.014-.134-.354-.292-.297-.35.128-.05.356-.552.488-.793.207-.253-.295-.39-.246-.497.18-.092.363-.129.389-.822.578-.399.108-.75.23-.78.272-.131.18-.654.443-.814.41-.097-.02-.31.089-.475.24-.293.27-.729.363-2.099.443-.358.021-1.09.318-1.538.623-.205.14-.504.21-.96.226-.552.02-.695.064-.858.265-.165.203-.303.245-.852.259-.567.015-.667.047-.738.24-.084.225-.23.25-1.571.268-.242.003-.286.049-.286.291 0 .304.031.294-1.009.33a.55.55 0 0 0-.372.204c-.117.16-.182.174-.362.078-.305-.163-.599-.146-.758.046-.088.107-.27.153-.53.134-.296-.022-.435.023-.546.175-.12.163-.281.206-.807.214-.713.011-1.307.122-1.392.259-.029.047-.122.06-.205.027-.098-.037-.153.006-.153.12 0 .128-.051.158-.182.105-.1-.04-.276-.084-.39-.098a2.042 2.042 0 0 1-.53-.193c-.178-.092-.365-.13-.416-.083-.192.172-1.428.413-1.614.314a1.112 1.112 0 0 0-.44-.097c-.141 0-.277-.059-.301-.13-.034-.101-.083-.098-.218.014-.149.122-.239.12-.615-.017-.404-.147-.88-.231-1.844-.325-.607-.059-2.092-.973-3.215-1.979-.652-.583-1.467-1.459-1.603-1.722a26.914 26.914 0 0 0-.248-.468c-.108-.195-.512-1.066-.906-1.952-.096-.217-.29-.918-.431-1.56-.141-.641-.298-1.265-.349-1.386-.05-.12-.149-1.384-.218-2.807-.096-1.977-.097-2.76-.004-3.315.067-.4.163-1.004.215-1.341.052-.337.143-.662.204-.723.06-.06.11-.238.11-.394 0-.157.046-.314.103-.35.057-.035.104-.16.104-.276 0-.116.064-.335.143-.487.178-.344.377-.967.377-1.177 0-.088.094-.267.208-.399.114-.132.208-.346.208-.476s.165-.452.367-.717c.202-.265.463-.748.58-1.074.27-.751.265-.74.502-1.112.11-.171.203-.39.207-.486.004-.095.118-.306.253-.468.135-.161.279-.41.319-.553.122-.437.305-.769.558-1.015.134-.13.314-.445.401-.702.088-.257.202-.493.254-.525.051-.032.094-.146.094-.255 0-.108.063-.234.14-.28.17-.1 1.315-2.408 1.315-2.651 0-.095.062-.234.137-.31.172-.173.877-1.654.967-2.034a1.48 1.48 0 0 1 .144-.39c.041-.057.105-.262.142-.456a1.27 1.27 0 0 1 .326-.593c.143-.132.26-.339.26-.458 0-.12.117-.327.26-.46.143-.132.26-.32.26-.42 0-.099.093-.298.208-.444a1.07 1.07 0 0 0 .208-.56c0-.334.485-1.61.941-2.475.168-.32.307-.65.31-.736.002-.15.24-.857.507-1.507a4.01 4.01 0 0 0 .186-.6c.032-.159.099-.314.148-.344.05-.031.09-.185.09-.342 0-.157.118-.444.26-.638.144-.194.26-.431.26-.527a.44.44 0 0 1 .145-.295c.152-.126.257-.538.294-1.153.019-.319-.011-.368-.24-.395-.144-.017-.485.065-.759.182-.273.117-.607.213-.741.213-.135 0-.274.046-.31.104-.035.057-.171.104-.302.104-.13 0-.496.089-.812.197-.554.191-2.104.45-3.512.588-.806.079-2.67.438-2.903.559-.09.047-.492.117-.892.156-.4.04-.868.113-1.04.164-.172.05-.593.112-.936.136-.343.025-.694.07-.78.1-.152.054-.996.213-1.819.342-.229.036-.72.073-1.092.083-.371.01-.74.058-.82.108-.13.084-.509.17-2.767.639-.4.083-.93.15-1.176.15-.247 0-.55.057-.676.125-.23.127-1.165.296-1.62.293-.137-.001-.3.041-.364.094-.236.196-1.555.432-2.021.362-.3-.045-.44-.033-.398.035.063.102-.402.202-1.386.3a6.993 6.993 0 0 0-.832.137c-.2.05-.593.123-.873.161-.28.039-.584.11-.676.16-.378.2-.81.283-.98.188-.097-.054-.225-.068-.285-.03-.06.037-.259.09-.441.119-.183.028-.347.093-.366.145-.02.052-.22.065-.445.03-.303-.05-.459-.022-.597.103-.103.093-.436.193-.74.222-.305.029-.608.097-.674.151a.546.546 0 0 1-.322.09c-.3-.014-2.044.336-2.267.455-.107.057-.598.116-1.092.132-.494.016-.969.056-1.055.09-.086.033-.46.081-.831.107-.372.026-1.144.1-1.716.166-1.574.18-3.541.14-5.005-.102-.7-.115-1.31-.201-1.357-.19a.518.518 0 0 1-.24-.05c-.26-.111-2.017-.704-2.183-.737-.707-.137-1.97-.62-2.496-.952a2.53 2.53 0 0 0-.842-.297c-.494-.069-1.34-.59-1.34-.825 0-.07-.094-.309-.209-.533-.114-.225-.208-.47-.208-.547 0-.077-.068-.271-.152-.433-.113-.219-.13-.428-.067-.826.078-.495-.017-.763-.125-.352-.026.1-.053-.06-.06-.357-.007-.297.03-.566.083-.598.051-.032.07-.151.04-.265-.03-.114.021-.395.113-.626.093-.23.168-.562.168-.736 0-.174.044-.398.097-.497.053-.099.12-.52.147-.934.053-.78.12-.923.634-1.364.49-.42.815-.496 3.177-.734l2.495-.254a72.8 72.8 0 0 1 2.6-.22c.543-.031 1.057-.084 1.143-.118.086-.034.554-.075 1.04-.09a20.881 20.881 0 0 0 1.715-.14c.458-.06 1.043-.13 1.3-.156.257-.025.702-.075.988-.111a12.69 12.69 0 0 1 1.247-.068c.4-.001.785-.05.855-.107.07-.057.488-.123.93-.146.442-.023.85-.089.908-.146.057-.057.575-.104 1.15-.104s1.209-.051 1.408-.113c.57-.177.833-.223 1.585-.273.481-.032.702-.09.702-.182 0-.074.07-.192.155-.263.197-.163.095-.34-.151-.262-.115.036-.211-.003-.248-.1a.283.283 0 0 0-.247-.16c-.398-.003-1.801-.405-1.958-.561a.596.596 0 0 0-.34-.169c-.185-.003-.773-.344-1.114-.645-.873-.772-1.297-1.223-1.444-1.535a16.3 16.3 0 0 0-.341-.676c-.257-.469-.537-1.27-.715-2.044-.273-1.184-.206-4.411.108-5.234.215-.563.388-.883.478-.883.054 0 .099-.092.099-.205 0-.112.09-.252.2-.31.109-.06.23-.248.267-.419.045-.205.242-.445.576-.703.279-.215.51-.418.512-.451.005-.062-.203-.103-.438-.087-.071.005-.597.032-1.168.06-.571.028-1.101.103-1.179.167-.077.064-.475.124-.885.133-.41.01-1.516.059-2.46.11-3.935.214-8.317.014-8.317-.379 0-.046-.223-.157-.496-.247-.507-.169-1.274-.747-1.273-.96 0-.065-.066-.144-.147-.175-.081-.031-.226-.235-.322-.453-.096-.218-.282-.63-.414-.916a4.616 4.616 0 0 1-.317-1.036c-.042-.284-.147-.586-.232-.671-.085-.085-.113-.169-.062-.186.094-.03.09-1.103-.005-1.616-.035-.185-.01-.287.073-.288.185-.003.596-.963.526-1.23-.032-.123-.015-.223.038-.223.054 0 .175-.163.27-.361.117-.246.264-.381.46-.423.16-.033.38-.08.491-.102.216-.044.89.233.89.365 0 .044.14.138.312.209.171.07.312.17.312.221 0 .05.339.069.754.04.535-.035.678-.022.493.047-.186.07-.082.08.364.037.343-.034.741-.11.884-.169.143-.059.377-.12.52-.135.143-.016.47-.056.728-.09a16.55 16.55 0 0 1 1.226-.086c.507-.017.788-.072.847-.167.063-.103.427-.154 1.317-.185.706-.024 1.258-.089 1.297-.152.04-.064.324-.096.68-.075.443.025.604 0 .585-.094-.016-.078.105-.134.312-.144.186-.009.501-.029.702-.045.2-.016.674-.03 1.053-.032.505-.003.705-.044.747-.155.035-.092.14-.13.266-.097.114.03.362.004.552-.058.19-.061.684-.13 1.1-.154.418-.024.83-.105.923-.183.11-.091.468-.142 1.028-.146.517-.004.92-.056 1.012-.133a.363.363 0 0 1 .325-.063c.093.036.23.017.301-.043.072-.06.668-.13 1.325-.156 1.211-.048 2.128-.17 2.363-.315.07-.044.13-.035.13.02 0 .091.424.015.935-.168a2.27 2.27 0 0 1 .468-.076c1.116-.074 1.95-.2 1.715-.26-.158-.04-.016-.065.365-.067.343 0 .72-.053.837-.116.118-.063.896-.138 1.729-.166.973-.034 1.643-.106 1.873-.203.198-.082.554-.132.793-.11.238.021.433-.001.433-.05 0-.119 2.653-.418 3.821-.43.129-.002.234-.05.234-.106 0-.057.046-.103.101-.103.055 0 .07.078.034.174-.053.139-.026.158.133.097.11-.043.528-.116.928-.162s.86-.146 1.021-.22c.212-.1.313-.105.365-.021.05.08.341.093.95.04 1.301-.112 1.578-.009 2.446.909.4.422.792.821.87.885.136.114.589.587 1.392 1.454.214.231.39.461.39.51 0 .103.636.943.753.995.043.02.078.119.078.222 0 .102.069.243.152.312.084.07.184.227.222.35.038.124.167.364.286.532.296.42.392 2.12.132 2.335a.488.488 0 0 0-.168.32c0 .13-.113.2-.39.247-.562.093-1.009.081-1.123-.03-.166-.16-.878-.256-.878-.117 0 .067-.037.099-.083.07-.087-.053-.832.182-1.789.566-.314.127-.708.225-.874.218-.166-.006-.537.107-.823.25-.286.144-.593.234-.68.2-.146-.055-.388.033-1.174.433-.153.078-.598.14-1.002.14-.55 0-.741.038-.787.156-.032.086-.166.156-.297.156-.13 0-.37.07-.535.156-.163.086-.362.156-.441.156-.08 0-.145.041-.145.092s-.128.125-.284.165c-.157.039-.314.118-.35.176-.043.07-.194.068-.456-.003-.358-.1-.414-.085-.675.175-.229.23-.391.289-.84.308-.354.016-.589.079-.641.173-.114.203-.684.475-.857.408-.078-.03-.28.09-.448.266-.212.221-.404.32-.626.32-.176 0-.35.046-.385.103-.035.058-.136.104-.224.104-.087 0-.278.094-.423.208-.146.115-.352.208-.459.208-.106 0-.193.045-.193.1 0 .168.694.24 1.082.111.203-.067.415-.093.472-.058.057.035.242-.008.413-.096.366-.19.703-.208.758-.042.03.088.1.086.275-.007a.892.892 0 0 1 .54-.058c.192.042.306.025.306-.045 0-.062.063-.113.14-.113.077 0 .224-.092.326-.205.102-.113.224-.182.27-.154.046.028.121-.012.168-.09.046-.078.306-.27.578-.428.272-.157.494-.352.494-.432 0-.104.136-.146.472-.146.61 0 1.199.429 1.817 1.325.246.358.487.65.535.65.048 0 .087.037.087.081 0 .045.304.4.676.791.371.39.675.75.675.8 0 .05.135.16.298.244.241.125.614.144 1.944.1 1.441-.047 1.697-.03 2.064.135.562.253 1.575 1.224 1.761 1.687.083.205.272.504.42.664.15.16.271.376.271.48 0 .103.11.3.246.436.487.493.586.838.586 2.045 0 1.044-.018 1.146-.234 1.33-.35.3-.672.46-.922.46-.123 0-.335.12-.47.267-.163.176-.313.246-.44.206a.313.313 0 0 0-.318.09c-.19.23-.917.581-1.202.581-.227 0-.707.169-1.221.429-.1.05-.295.09-.436.09-.14 0-.284.048-.32.105-.034.057-.155.104-.267.104-.111 0-.284.04-.383.09a4.514 4.514 0 0 1-1.532.421c-.344.038-.726.125-.851.194a1.06 1.06 0 0 1-.423.127c-.107 0-.389.093-.625.207-.237.115-.515.209-.618.209a1.24 1.24 0 0 0-.45.138c-.145.076-.777.198-1.404.271-.627.073-1.327.198-1.556.276-.228.079-.524.144-.656.145-.133 0-.328.048-.435.105-.199.106-2.327.334-3.067.327a4.559 4.559 0 0 1-.728-.068c-.271-.057-.387.003-.884.457-.343.313-.51.528-.416.537.933.09 1.981.002 2.825-.237.21-.06.467-.114.571-.122.105-.008.289-.07.408-.137a.97.97 0 0 1 .416-.118c.11.003.667-.07 1.239-.162a26.96 26.96 0 0 1 1.518-.206c1.042-.085 1.814-.194 1.912-.27.13-.1.776-.213 1.456-.254.584-.035 1.533-.214 2.235-.423.258-.076.913-.168 1.456-.205.581-.038 1.082-.127 1.218-.216a1.19 1.19 0 0 1 .553-.15c.177 0 .424-.057.55-.126.124-.07.577-.134 1.006-.143.89-.018 1.762-.178 1.862-.34.037-.06.354-.13.704-.154.35-.024.7-.084.776-.133.078-.049.422-.117.765-.15.62-.062 1.933-.363 2.239-.514.144-.07.345-.11 1.4-.273.171-.026.556-.21.856-.407.3-.198.591-.36.65-.36.058 0 .105-.04.105-.09 0-.05.194-.122.432-.16.517-.083.633-.144.545-.288-.046-.073-.09-.072-.137.006-.048.078-.178.083-.41.017-.185-.054-.41-.07-.498-.036-.14.053-.142.032-.021-.161.096-.154.322-.259.736-.34.328-.065.636-.17.683-.234.048-.065.148-.375.224-.689.075-.315.206-.708.29-.875.1-.195.138-.48.107-.802-.027-.275-.02-.513.014-.529.155-.073.426-.755.426-1.071 0-.192.047-.379.104-.414.058-.035.104-.207.104-.381 0-.318.19-1.542.466-2.998.08-.429.178-1.014.215-1.3a6.45 6.45 0 0 1 .213-.964c.093-.283.143-.878.138-1.63-.004-.693.041-1.276.11-1.404.125-.234.081-2.982-.059-3.633-.044-.206-.036-.33.019-.296.055.034.095-1.168.096-2.921.003-3.907.146-9.163.254-9.368.048-.089.119-.489.158-.89.04-.4.12-.914.18-1.143.06-.229.102-.65.094-.936-.008-.285.06-1.08.151-1.767.091-.686.188-1.432.216-1.658.028-.225.099-.499.157-.607.058-.109.124-.344.147-.524.022-.18.264-.655.536-1.056.576-.85.713-1 1.079-1.184.237-.12.331-.106.774.107.525.253.69.472 1.024 1.365.174.463.175.525.019.916-.093.23-.145.458-.116.504.03.047.083.477.119.955.036.479.108.95.16 1.049.137.264.273 2.067.342 4.552.03 1.048-.097 3.57-.292 5.822-.153 1.77-.18 2.387-.223 5.042-.073 4.468-.152 6.791-.258 7.597-.053.404-.126 1.574-.161 2.6-.035 1.025-.107 1.998-.159 2.162-.052.164-.19 1.042-.306 1.95-.116.908-.25 1.756-.299 1.885-.048.128-.122.558-.164.955-.041.396-.138.817-.214.935-.077.118-.173.519-.214.89-.04.372-.133.77-.204.884-.117.187-.215.62-.582 2.548-.06.314-.15.679-.202.81-.052.13-.146.575-.209.987-.063.413-.185.914-.27 1.114-.221.524-.454 1.39-.613 2.287-.228 1.292-.402 2.058-.484 2.14-.043.043-.078.178-.078.3a.833.833 0 0 1-.153.425c-.084.111-.154.349-.156.527a2.267 2.267 0 0 1-.159.699c-.086.205-.156.5-.156.655 0 .155-.042.426-.094.601-.12.407-.373 1.328-.53 1.93a6.073 6.073 0 0 1-.262.78 3.45 3.45 0 0 0-.205.676c-.036.2-.105.458-.153.572-.173.406-.42 1.29-.42 1.505 0 .12-.066.322-.148.448-.081.127-.207.535-.279.906-.072.372-.183.746-.246.832-.063.086-.2.437-.305.78-.104.343-.225.717-.269.832-.472 1.23-.672 1.728-.84 2.09-.11.235-.2.49-.2.565 0 .075-.187.523-.416.996-.228.472-.415.89-.415.927 0 .037-.094.186-.208.332-.115.145-.208.355-.208.465 0 .214-.899 2.766-1.036 2.942-.044.057-.138.35-.209.65-.07.3-.163.568-.207.595-.143.089-.827 1.58-.961 2.096-.073.278-.21.565-.307.636-.096.072-.205.267-.242.435-.037.167-.134.36-.216.428-.082.068-.15.177-.15.241 0 .065-.117.348-.26.63-.142.28-.26.562-.26.625 0 .063-.126.3-.28.528-.156.228-.435.765-.62 1.194-.186.429-.427.873-.534.987-.108.115-.23.349-.271.52-.078.322-.663 1.246-1.075 1.698-.129.14-.234.325-.234.41 0 .083-.194.58-.431 1.102-.531 1.17-.817 1.928-.817 2.17 0 .1-.041.183-.092.183-.05 0-.117.082-.149.182-.031.1-.133.39-.226.643-.17.466-.14.942.06.942.06 0 .35.115.648.255 1.311.62 3.48.915 6.153.837l3.567-.105c.875-.025 1.631-.07 1.68-.1.22-.136 1.419-.23 1.641-.128a.492.492 0 0 0 .469-.01c.128-.066.677-.168 1.22-.228.544-.06 1.34-.156 1.768-.212.429-.057 1.037-.1 1.352-.097.314.004 1.04-.068 1.611-.16a25.7 25.7 0 0 1 1.664-.216c1.023-.078 1.175-.106 1.348-.249.09-.075.191-.11.224-.076.034.033.184.009.336-.053.295-.122 1.087-.256 1.96-.333.297-.026.633-.097.746-.158.114-.06.41-.11.66-.11.25 0 .5-.047.557-.103.163-.163 1.163-.334 2.122-.363.486-.014 1.012-.078 1.17-.141.156-.064.351-.09.433-.058.082.031.245.006.363-.058.198-.106 1.368-.284 2.349-.358.229-.017.814-.105 1.3-.195.486-.09 1.562-.24 2.39-.334.83-.093 1.79-.234 2.132-.312.343-.079.917-.174 1.274-.212.455-.05.65-.114.65-.216 0-.123-.177-.191-.426-.163-.034.004-.362.029-.728.056-.366.028-.865.083-1.108.123-.261.043-.441.032-.441-.026 0-.092 1.122-.25 2.818-.4l.688-.061.063.319c.098.488.59.394.59-.113 0-.056-.09-.074-.2-.04-.11.036-.23.015-.266-.044-.044-.071.16-.106.59-.102.539.005.61.025.398.11-.238.094-.413.268-.417.412-.001.033.377.06.84.06h.84l-.058-.294c-.048-.239-.023-.294.134-.294.105 0 .253.073.328.163.074.09.213.142.309.117.095-.025.286.041.423.147.307.236.468.246.55.033.041-.108.132-.14.27-.097.16.05.233.004.31-.2.125-.33.269-.34.432-.034.069.13.2.29.29.36.17.13 1.653.174 2.264.067l.331-.057-.28-.241c-.343-.296-.283-.366.361-.422.822-.07 3.933-.064 4.326.01.425.08 1.195.835 1.427 1.4.129.316.593.94 1.484 1.992l.597.716c.2.242.515.598.7.792.184.193.412.502.506.687.094.185.23.407.302.493.073.085.278.523.457.972.514 1.294.448 2.858-.128 3.041-.116.037-.33.178-.477.314-.325.301-.477.306-1.107.037-.27-.116-.515-.187-.545-.157-.03.03.022.323.114.652.092.33.243.926.335 1.327.093.4.21.891.26 1.091.05.2.119 1.02.152 1.82.057 1.365.215 3.163.48 5.458.28 2.427.33 4.26.141 5.199a60.93 60.93 0 0 1-.458 1.819c-.207.753-.891 1.735-1.388 1.992-.16.083-.382.241-.494.353-.11.111-.307.203-.436.204-.129 0-.632.145-1.118.32-.486.175-1.117.366-1.403.424-.286.057-.576.15-.644.207-.069.057-.35.091-.624.077-.275-.014-.593.024-.708.085-.114.06-.549.134-.966.162-.418.028-.783.074-.81.102-.062.061.648.493.81.493.062 0 .433.327.825.728.391.4.773.727.848.727.076 0 .223.2.328.442.104.243.25.512.323.598.073.086.216.366.318.624.102.257.464.889.805 1.403l.792 1.196c.516.777 1.324 2.782 1.552 3.847.043.2.133.466.2.59.067.126.122.361.122.525 0 .345.294 1.212.538 1.588.093.143.203.423.245.622.042.2.135.457.207.572.072.115.163.644.203 1.175l.07.966-.414.415c-.411.411-.42.414-1.04.356-.381-.036-.65-.017-.69.05-.037.058-.405.107-.818.107-.5 0-.825.052-.973.156-.185.13-.317.137-.755.043a2.096 2.096 0 0 0-1.045.009c-.283.068-.698.091-.927.053-.23-.039-.667-.014-.98.056-.398.09-.654.095-.867.021-.227-.079-.351-.07-.496.035-.141.104-.393.124-.953.077-.556-.047-.805-.028-.926.072-.09.076-.48.153-.867.173-.434.021-.857.114-1.107.242-.223.113-.55.206-.727.206-.176 0-.37.049-.429.108-.072.073-.31.077-.72.012-.456-.071-.639-.063-.718.032-.215.257-1.606.613-1.998.51-.116-.03-.46.02-.764.11-.305.09-.73.164-.944.164-.215 0-.42.047-.456.104-.035.057-.28.104-.544.104s-.624.043-.8.095c-1.194.355-2.177.515-3.521.574-.552.024-.869.088-.992.2-.251.227-1.206.422-1.436.293-.128-.072-.252-.054-.427.06-.155.102-.545.175-1.045.194-.438.017-.812.077-.831.134-.064.19-1.421.38-4.907.683-.944.083-1.945.194-2.226.248a4.01 4.01 0 0 1-1.092.016c-.584-.082-1.408-.01-1.66.146-.138.086-2.57.192-3.952.173-.422-.006-.83.04-.905.103-.075.063-.186.084-.246.047-.19-.118-1.604-.13-1.955-.018-.24.078-.465.076-.778-.008-.242-.064-.464-.086-.493-.047-.074.097-1.818.101-3.068.007zm2.443-8.456c.944-.032 2.17-.057 2.727-.054.556.003 1.098-.04 1.204-.097.221-.119 1.28-.212 3.118-.274.704-.024 1.33-.075 1.394-.114.063-.039.587-.11 1.164-.158.578-.048 1.33-.13 1.674-.183.343-.052 1.264-.188 2.047-.302.783-.114 1.48-.243 1.55-.286.07-.043.311-.071.537-.063.225.01.46-.015.523-.054.062-.038.373-.085.691-.103 1.246-.073 3.182-.292 3.544-.401.087-.026.461-.073.832-.103.37-.03.954-.121 1.297-.202.343-.081.974-.2 1.403-.265.43-.065 1.178-.18 1.664-.257a64.728 64.728 0 0 1 1.871-.259 15.533 15.533 0 0 0 1.573-.27c.321-.084.66-.122.754-.087.175.067 1.334-.112 1.884-.29.403-.132 2.581-.365 6.483-.695.706-.06 1.349-.162 1.428-.228.08-.065.208-.095.286-.065.22.085 2.01-.297 2.307-.491l.264-.173-.219-.307c-.152-.214-.306-.308-.507-.308-.16 0-.44-.075-.625-.167-.202-.1-.455-.143-.636-.107-.414.083-2.058-.113-2.439-.29a3.951 3.951 0 0 0-1.144-.316c-.592-.06-1.26-.196-1.365-.279-.064-.05-.321-.11-.571-.132a3.284 3.284 0 0 1-.841-.206c-.213-.091-.45-.166-.526-.166-.077 0-.23-.069-.342-.153-.11-.084-.365-.156-.565-.16a2.773 2.773 0 0 1-.78-.17c-.229-.09-.767-.228-1.196-.309-.429-.08-.795-.192-.814-.249-.02-.056-.136-.104-.26-.106a1.233 1.233 0 0 1-.485-.153 1.302 1.302 0 0 0-.525-.152c-.146-.002-.31-.044-.364-.094-.055-.05-.426-.17-.827-.267-.4-.097-.891-.219-1.091-.27-.698-.175-1.205-.227-2.548-.26-2.017-.049-4.017-.149-4.108-.205-.044-.027-.28.02-.526.107-.315.112-.539.13-.765.064-.412-.12-1.307-.14-1.307-.028 0 .048-.503.117-1.117.155-1.074.066-2.42.242-2.505.328-.08.08.082.525.265.729.544.603 1.07 2.054 1.07 2.949 0 .691-.067.947-.249.947-.068 0-.308.098-.535.217-.39.206-.513.214-2.433.15-1.112-.038-2.095-.108-2.185-.157-.09-.048-.618-.112-1.173-.143-.554-.03-1.1-.105-1.213-.165-.112-.06-.34-.11-.506-.11-.167 0-.573-.093-.904-.206-.33-.114-.7-.183-.822-.154-.121.03-.478-.045-.793-.167a7.62 7.62 0 0 0-.949-.298 2.78 2.78 0 0 1-.728-.29 2.637 2.637 0 0 0-.75-.282c-.475-.085-1.117-.375-1.055-.476.024-.039-.062-.163-.191-.276-.145-.125-.287-.433-.368-.795-.085-.38-.185-.59-.28-.59-.083 0-.15.042-.15.093 0 .052-.147.145-.328.208-.18.063-.393.208-.473.322-.08.115-.214.208-.298.208-.186 0-.802.393-1.292.824-.2.177-.453.35-.562.384-.217.07-1.31 1.147-1.31 1.29 0 .05-.127.151-.283.226a.883.883 0 0 0-.39.447c-.058.172-.258.466-.444.653-.186.188-.338.387-.338.442a.1.1 0 0 1-.102.1c-.057 0-.172.165-.255.366-.084.201-.224.393-.31.426a.448.448 0 0 0-.22.257.995.995 0 0 1-.203.34c-.223.222-1.058 1.55-1.138 1.809-.04.128-.035.236.012.238.047.002.782.024 1.635.048.852.024 1.587.08 1.632.125.089.089 2.616.082 5.395-.015zm39.04-13.47c-.035-.057-.11-.104-.168-.104-.057 0-.075.047-.04.104.036.057.112.104.169.104.057 0 .075-.047.04-.104zm-12.093-31.092c.05-.15.917-.225.917-.078 0 .046-.064.083-.143.083-.079 0-.295.03-.482.068-.259.052-.328.035-.292-.073zm8.559-.515c.035-.057.108-.104.162-.104.054 0 .098.047.098.104 0 .058-.073.104-.162.104-.09 0-.134-.047-.098-.104zm-8.483-37.785c-.025-.024-.826-.093-1.782-.152-1.736-.109-2.465-.259-3.176-.654-.188-.104-.436-.189-.552-.189-.115 0-.592-.19-1.06-.424-.97-.485-1.992-1.444-2.33-2.19-.756-1.663-.71-1.44-.691-3.252.011-1.139.071-1.904.188-2.4.095-.4.217-.985.273-1.3.056-.314.158-.618.228-.675.069-.057.133-.375.143-.706.018-.646.151-.905.466-.905.243 0 .39.357.326.792-.029.188.023.463.124.658.095.183.26.605.365.937.106.331.291.818.412 1.083.183.403.265.48.507.48.159 0 .333.044.387.098.155.153 4.626.178 4.9.027.13-.07.63-.125 1.15-.125.544 0 .97-.048 1.038-.117.078-.078.25-.088.515-.03.413.09.5.088 1.022-.018.171-.035.507-.059.747-.053.24.006.464-.036.5-.093.035-.058.293-.105.572-.105.28 0 .532-.039.561-.086.03-.048.605-.088 1.28-.09 1.352-.003 1.985-.083 2.404-.301a1.58 1.58 0 0 1 .61-.146c.182 0 .356-.04.386-.089.055-.09 1.903-.32 2.538-.316.19.001.407-.05.484-.113.076-.063.256-.086.399-.05a.787.787 0 0 0 .485-.055c.124-.067.536-.123.915-.125.379-.002 1.226-.113 1.883-.246.656-.134 1.232-.219 1.278-.19.047.029.143.014.215-.032.071-.046.317-.089.546-.094a6.02 6.02 0 0 0 .987-.145c.683-.162 1.667-.172 1.937-.02.143.08.236.071.35-.032.087-.077.297-.158.469-.179.171-.02.417-.097.547-.168.144-.08.377-.104.599-.062.227.042.42.02.515-.058.173-.144 1.928-.413 2.714-.416.29 0 .558-.03.594-.067.035-.035.452-.083.927-.105.474-.022 1.01-.089 1.191-.148.182-.06.626-.103.988-.097 1.053.018 1.253 0 1.764-.151.354-.105.513-.112.598-.028.085.085.149.083.24-.009.156-.155.731-.163.882-.012.081.081.158.05.272-.113.114-.164.22-.208.376-.158.123.039.355.001.532-.087.186-.093.452-.134.655-.1.189.03.548-.015.799-.1.348-.117.501-.126.646-.036.125.077.216.082.265.014.092-.128 1.11-.135 1.518-.01.224.068.377.045.608-.092.257-.151.35-.16.548-.054.198.106.352.091.9-.085.703-.227 1.176-.297 2.583-.382.486-.03 1.866-.127 3.067-.216 1.201-.09 2.418-.18 2.704-.2a41.04 41.04 0 0 0 1.715-.19 22.81 22.81 0 0 1 2.027-.168c1.261-.022 2.663-.105 2.758-.164.046-.029.544-.078 1.107-.11a58.947 58.947 0 0 0 2.026-.142c.037-.003.045-.182.018-.397-.044-.341-.017-.404.218-.51.251-.112.317-.073 1.053.624 1.563 1.482 2.138 1.993 2.39 2.124.14.074.256.168.256.21.001.04.28.378.62.75.34.371.621.752.623.845.002.093.137.304.299.468.162.164.358.46.437.657.079.198.229.446.333.55.282.283.39.646.39 1.307-.001.72-.24 1.549-.52 1.81-.162.15-.427.204-1.22.245-.558.03-1.073.073-1.144.097-.172.058-2.74-.128-2.967-.215-.123-.047-.179-.016-.179.099 0 .164-.215.228-.342.102-.035-.036-.508-.065-1.05-.065-.809 0-1.07.041-1.469.235-.416.201-.586.225-1.197.168-.459-.042-.736-.027-.78.044-.038.063-.196.083-.364.046-.163-.036-.385-.018-.494.04-.145.079-.257.065-.422-.05-.2-.14-.224-.14-.224 0 0 .18-.296.242-1.48.313-.443.027-.858.08-.922.12-.108.067-.906.153-4.771.51-.83.077-1.809.193-2.177.259-.367.065-1.057.124-1.533.131-.476.007-.865.048-.865.09 0 .043-.27.083-.598.088-.633.01-2.085.154-2.521.25-.278.06-1.108.13-2.703.228-.544.033-1.105.101-1.248.15-.143.05-.648.113-1.121.141-.474.028-.919.096-.988.151-.07.056-.384.129-.698.162-.315.033-.76.084-.988.112l-1.3.162a88.34 88.34 0 0 1-2.079.224c-.782.074-1.257.168-1.374.271a.481.481 0 0 1-.39.102c-.116-.03-.948.037-1.848.15-.901.112-1.966.242-2.366.289-.4.046-.938.132-1.196.19a7.3 7.3 0 0 1-1.195.119c-.733.012-2.83.339-3.458.539-.186.06-.43.079-.542.043-.112-.035-.31-.006-.441.066-.13.072-.776.193-1.434.269-1.502.173-2.538.301-3.534.439-.43.059-1.201.134-1.716.167-.515.033-1.006.087-1.092.12-.148.057-1.258.101-3.067.123a22.77 22.77 0 0 0-1.715.104c-.592.063-.951.058-1.087-.015-.145-.077-.214-.074-.242.01-.04.12-.158.157-.24.075zm58.107-16.892c-.058-.396.146-.674.429-.584.17.053.216.154.216.477 0 .381-.02.409-.3.409-.252 0-.308-.049-.345-.302zm-.22 103.828c-.134-.428-.192-.464-.38-.238-.101.123-.073.204.15.427.152.152.293.258.313.237.021-.02-.016-.213-.083-.426zm-.67-4.768c.054-.035-.021-.183-.167-.329l-.265-.265.057.33c.03.18.08.398.111.484.05.139.061.139.11 0a.506.506 0 0 1 .154-.22zm-2.446-8.163c.02-.064-.08-.14-.226-.167-.254-.049-.36.102-.191.27.103.103.37.037.417-.103zm1.07-21.768a.104.104 0 0 0-.104-.104.104.104 0 0 0-.104.104c0 .057.046.104.104.104a.104.104 0 0 0 .103-.104zm-41.573-83.073c.209-.105.643-.24.965-.3.322-.06.736-.221.92-.36.31-.232.943-.449 1.152-.394.049.013.154-.03.234-.097.08-.067.28-.094.448-.06.192.038.345.009.419-.08.142-.17.614-.273.69-.149.072.117.46.118.46.001 0-.3-.269-.77-.487-.854-.3-.114-2.318-.035-3.204.125-.344.062-.852.13-1.13.15-.631.048-.744.14-.776.637-.018.284-.113.478-.338.69-.29.273-.342.524-.21.985.017.057.463-.096.857-.295zm11.63-.31c.981-.268 1.743-.498 2.008-.607.16-.066.397-.12.526-.12a.85.85 0 0 0 .435-.153c.11-.084.344-.155.518-.156.227-.002.443-.124.754-.423.367-.353.437-.485.437-.826 0-.223.051-.437.113-.476.24-.148-.114-.28-.703-.261-.333.01-1.326.037-2.207.059-.88.022-1.722.086-1.87.142-.15.056-.693.13-1.207.163-.515.033-1.427.11-2.028.17-.6.059-1.438.14-1.863.18-.435.041-.789.126-.811.194-.06.18.32.263.64.141.482-.183 1.174-.124 1.7.144.573.294 1.575 1.058 2.06 1.573.369.39.759.457 1.497.256zm-2.302-59.649c.155-.277-.21-.723-.604-.734-.463-.013-.494.167-.098.556.4.393.559.434.702.178zm-4.456-2.01c0-.054-.047-.098-.104-.098-.058 0-.104.073-.104.162 0 .089.046.133.104.098.057-.036.104-.109.104-.163zM32.688 231.955a.104.104 0 1 1 .208 0 .104.104 0 0 1-.104.104.104.104 0 0 1-.104-.104zM-3.617 16.254c.075-.03.165-.027.2.008.034.034-.027.059-.137.054-.121-.005-.146-.03-.063-.062z" style="fill:#000;stroke-width:.103969"/>
</svg>
