<svg xmlns="http://www.w3.org/2000/svg" xml:space="preserve" width="3453.333" height="3973.333">
  <path d="M3135.976 3524.72c0-.734.6-1.334 1.333-1.334s1.333.6 1.333 1.333c0 .734-.6 1.334-1.333 1.334s-1.333-.6-1.333-1.334zm25.333-.667c0-1.1.6-2 1.333-2 .734 0 1.334.9 1.334 2s-.6 2-1.334 2c-.733 0-1.333-.9-1.333-2zm22 .666c.453-.733 1.089-1.333 1.412-1.333.323 0 .588.6.588 1.333 0 .734-.636 1.334-1.412 1.334-.777 0-1.041-.6-.588-1.334zm-4.667-4c0-.733.6-1.333 1.334-1.333.733 0 1.333.6 1.333 1.333 0 .734-.6 1.334-1.333 1.334-.734 0-1.334-.6-1.334-1.334zm5.735-2.52c-1.914-3.063-1.134-4.088 2.407-3.162 1.476.386 2.477 1.604 2.256 2.744-.595 3.069-2.88 3.274-4.663.419zm-180.401-1.48c0-.733.635-1.333 1.412-1.333.776 0 1.04.6.588 1.333-.454.734-1.09 1.334-1.412 1.334-.324 0-.588-.6-.588-1.334zm179.444-14.487c-.575-.93-.685-2.05-.244-2.49 1.193-1.194 2.494.561 1.85 2.495-.452 1.355-.766 1.354-1.606 0zm.271-10.846c.323-2.2.82-4 1.103-4 .283 0 .515 1.8.515 4s-.496 4-1.102 4c-.607 0-.839-1.8-.516-4zm-579.357-7.59c1.298-.339 3.098-.317 4 .048.903.365-.158.642-2.358.615-2.2-.027-2.939-.326-1.642-.664zm500.308-15.077c-.453-.733-.188-1.333.588-1.333.777 0 1.412.6 1.412 1.333 0 .734-.264 1.334-.588 1.334-.323 0-.958-.6-1.412-1.334zm16.667-4.078c0-.777.6-1.042 1.333-.588.734.453 1.334 1.088 1.334 1.412 0 .323-.6.588-1.334.588-.733 0-1.333-.636-1.333-1.412zm.698-7.414c-1.187-1.187-1.936-2.38-1.664-2.652.755-.755 7.61 2.673 7.622 3.811.02 1.787-3.743 1.056-5.958-1.159zm15.302-3.174c2.609-1.686 5.333-1.686 5.333 0 0 .733-1.65 1.324-3.666 1.313-2.858-.016-3.226-.306-1.667-1.313zm-10.917-2.244c.963-.386 2.113-.338 2.556.105.443.443-.345.758-1.75.7-1.553-.064-1.87-.38-.806-.805zm24.698-3.846c-.44-1.15-.123-2.77.709-3.6 1.125-1.125 1.51-.592 1.51 2.09 0 4.011-.998 4.69-2.219 1.51zm-99.595-8.169c-1.502-1.501-.915-3.075 1.147-3.075 1.1 0 2 .565 2 1.255 0 1.681-2.082 2.885-3.147 1.82zm-2254.436-1.319c.962-.385 2.112-.338 2.556.105.443.444-.345.759-1.75.7-1.554-.063-1.87-.38-.806-.805zm1833.583-34.884c0-.778-2.55-1.427-5.666-1.444-11.295-.059-29-2.518-29-4.029 0-.56-3.286-1.018-7.3-1.018-4.016 0-8.066-.623-9-1.384-.936-.762-3.98-1.174-6.764-.916-3.611.335-5.287-.11-5.84-1.549-.425-1.11-1.552-1.72-2.504-1.354-2.426.93-8.57-2.144-8.582-4.295-.013-1.35-1.346-1.558-5.512-.854-3.607.61-5.214.463-4.665-.425.497-.805-.183-1.088-1.676-.698-1.382.361-4.31-.273-6.508-1.409-6.67-3.45-15.402-6.124-20.061-6.144-2.992-.013-4.106-.515-3.461-1.559.568-.919.368-1.178-.496-.644-1.453.897-10.965-2.95-10.965-4.435 0-.435-2.363-.658-5.252-.497-3.58.2-6.335-.558-8.653-2.381-1.87-1.472-4.457-2.544-5.748-2.384-1.29.16-3.476-.196-4.857-.792-1.514-.652-3.537-.44-5.1.536-2.082 1.3-3.944 1.176-9.49-.633-3.795-1.237-7.625-2.823-8.512-3.525-.886-.7-3.38-.886-5.54-.412-2.27.499-4.295.267-4.8-.549-.48-.776-2.308-1.411-4.064-1.411-1.755 0-4.702-.688-6.548-1.53-2.586-1.178-3.821-1.143-5.381.151-1.64 1.36-3 1.29-7.145-.368-3.54-1.417-9.035-1.978-17.808-1.818-9.577.175-13.282-.259-15.112-1.768-1.695-1.399-2.58-1.537-2.942-.46-.361 1.072-1.815 1.182-4.788.361-2.349-.648-6.068-1.11-8.265-1.024-8.323.323-23.61-1.45-25.414-2.949-1.034-.858-2.69-1.249-3.68-.869-2.472.948-16.554-2.446-19.18-4.622-2.02-1.673-7.411-2.105-27.996-2.244-5.156-.035-9.469-.838-11.44-2.13-1.74-1.14-3.616-1.62-4.168-1.068-1.544 1.545-42.525 1.567-44.443.024-1.054-.848-9.816-1.032-24-.507-30.666 1.137-67.844 1.285-69.475.277a1.59 1.59 0 0 0-2.181.515c-.458.742-2.75 1.345-5.092 1.34-2.343 0-5.736.024-7.54.067-1.92.045-4.23-1.179-5.565-2.95-2.11-2.797-2.468-2.866-4.719-.905-3.273 2.852-11.425 3.156-51.768 1.928-10.866-.33-17.553-.095-16 .563 1.466.622 1.897 1.174.957 1.225-.94.052-3.693-.735-6.116-1.747-2.67-1.116-5.205-1.395-6.432-.708-1.185.663-6.947.29-13.884-.9-27.58-4.73-27.438-4.72-37.095-2.658-5.08 1.084-9.757 1.65-10.392 1.258-.635-.393-2.033.015-3.106.905-1.425 1.183-5.99 1.375-16.942.713-21.117-1.276-25.585-1.217-37.657.493-5.867.831-12.467 1.471-14.667 1.422-2.2-.05-19.3-.16-38-.244-29.165-.132-34.568.155-38 2.027-4.225 2.306-12.006 3.033-10.753 1.006 1.264-2.045-2.178-2.48-13.913-1.755-6.234.385-13.434.492-16 .237-2.567-.254-11.06-.498-18.874-.542-7.92-.044-13.882-.604-13.474-1.264.413-.667-1.345-.795-4.022-.293-2.616.49-5.088.354-5.495-.303-.743-1.203-6.985-.57-9.469.959-1.283.79-14.663.963-30 .389-5.292-.199-6.776-.635-5.333-1.568 1.554-1.004 1.107-1.342-2-1.514-8.44-.468-12.22-.96-18.667-2.425-3.666-.834-8.274-1.212-10.24-.84-1.964.37-3.764.102-4-.598-.234-.7-9.726-1.596-21.093-1.99-29.085-1.01-32.162-1.281-36.667-3.232-2.328-1.009-10.13-1.835-18.666-1.978-8.067-.135-15.567-.617-16.667-1.072-2.36-.975-16.187-2.432-22.233-2.343-2.328.035-4.588-.512-5.021-1.213-.795-1.287-8.06-2.37-22.746-3.393-23.73-1.652-33.687-7.038-41.152-22.26-5.427-11.069-7.511-21.458-6.582-32.809.785-9.585.07-11.546-2.789-7.638-.815 1.116-3.281 2.35-5.48 2.745-2.198.394-4.197 1.282-4.441 1.972-.245.69-1.765 1.255-3.377 1.255-1.613 0-7.053 2.188-12.09 4.862-7.766 4.124-9.55 4.616-11.753 3.24-2.68-1.673-4.336-1.034-4.336 1.675 0 1.718-1.506 1.942-18 2.677-6.233.277-12.391.956-13.684 1.508-1.292.551-3.092.415-4-.303-.907-.717-5.483-1.635-10.17-2.04-4.686-.403-8.886-1.233-9.333-1.843-.447-.61-3.513-1.208-6.813-1.33-6.47-.236-22.922-7.605-19.78-8.859.979-.39-.205-.757-2.631-.815-3.475-.083-5.592-1.403-9.972-6.215-3.058-3.36-7.518-6.928-9.911-7.928-3.707-1.548-7.576-4.993-17.397-15.49-.93-.993-3.148-3.306-4.93-5.14-15.483-15.932-22.046-23.258-22.046-24.61 0-.875-1.556-3.045-3.458-4.823-1.902-1.778-5.866-7.346-8.808-12.374-5.31-9.073-9.438-14.192-11.446-14.192-.575 0-2.164-1.892-3.53-4.205-1.367-2.313-4.496-6.338-6.954-8.945-2.459-2.606-4.47-5.45-4.47-6.318 0-.869-.91-1.928-2.02-2.355-1.111-.426-2.597-2.29-3.3-4.142-.705-1.853-1.896-3.368-2.647-3.368-.752 0-1.367-.919-1.367-2.042 0-1.123-.877-2.378-1.949-2.79-1.072-.411-2.312-1.89-2.755-3.288-.444-1.397-2.267-2.907-4.051-3.355-1.785-.448-3.245-1.654-3.245-2.682 0-1.027-1.65-3.663-3.666-5.857-6.143-6.685-7-7.82-7-9.263 0-.764-.9-1.39-2-1.39s-2-.65-2-1.446c0-1.33-9.528-14.316-15-20.444-1.284-1.437-2.334-3.138-2.334-3.78 0-.643-1.734-2.627-3.853-4.41-2.12-1.784-4.772-5.495-5.894-8.248-1.123-2.753-3.589-7.071-5.48-9.597-1.892-2.526-3.44-5.613-3.44-6.86 0-1.248-1.489-3.681-3.31-5.408-1.82-1.727-3.32-4.454-3.333-6.061-.013-1.607-.534-3.237-1.159-3.623-.624-.386-2.22-3.572-3.544-7.08-1.325-3.506-2.898-6.702-3.496-7.1-1.162-.773-9.998-23.277-11.757-29.943-.58-2.2-2.366-7.828-3.967-12.507-3.343-9.766-5.104-17.321-6.808-29.214-.661-4.613-1.579-8.997-2.039-9.742-.46-.744-1.334-4.47-1.942-8.279-.607-3.808-1.78-9.594-2.607-12.857-1.383-5.455-2.022-9.567-5.402-34.734-.64-4.767-1.8-12.567-2.579-17.333-1.602-9.817-3.19-20.844-5.375-37.334-.827-6.233-2.033-12.533-2.681-14-.648-1.466-1.59-4.766-2.093-7.333-1.121-5.714-4.183-15.162-10.587-32.667-2.683-7.333-5.345-15.133-5.916-17.333-.571-2.2-2.281-6.7-3.8-10-1.52-3.3-4.087-10.5-5.706-16-1.619-5.5-5.558-16.38-8.754-24.178-3.196-7.797-5.811-15.46-5.811-17.026 0-1.567-1.5-6.54-3.333-11.052-1.834-4.512-3.334-8.685-3.334-9.274 0-.588-1.8-5-4-9.803-2.2-4.804-3.983-9.169-3.962-9.7.02-.532-1.707-4.567-3.84-8.967-2.132-4.4-5.075-10.7-6.539-14-2.587-5.833-8.952-19.64-11.208-24.315-.615-1.274-1.118-3.074-1.12-4 0-.927-2.701-6.926-6-13.332-3.298-6.406-5.997-12.483-5.997-13.503 0-1.021-.9-2.604-2-3.517-1.1-.913-2-3.035-2-4.717 0-1.681-2.098-6.858-4.662-11.503-4.53-8.208-5.49-10.13-8.542-17.113-.801-1.833-2.05-4.233-2.775-5.333-.725-1.1-2.86-5.6-4.746-10-1.885-4.4-3.978-9.2-4.65-10.667-2.573-5.605-13.292-34.327-13.292-35.613 0-.743-2.802-7.133-6.227-14.202-3.425-7.068-7.25-15.552-8.498-18.852-9.418-24.889-18.685-48.155-21.261-53.377-.555-1.124-1.448-4.124-1.985-6.666-.96-4.544-2.462-8.509-7.379-19.479-1.361-3.037-2.881-7.687-3.378-10.333-.496-2.646-1.289-4.811-1.762-4.811-1.638 0-9.51-22.851-9.51-27.606 0-2.281-4.038-11.383-5.51-12.42-1.02-.718-7.823-20.668-7.823-22.943 0-.712-.874-3.186-1.941-5.496-3.011-6.518-10.06-26.502-10.06-28.522 0-.995-1.19-4.272-2.644-7.283-1.455-3.01-3.045-7.631-3.535-10.269-.489-2.637-1.622-5.995-2.518-7.461-.895-1.467-2.677-5.967-3.96-10-1.282-4.034-2.859-8.375-3.503-9.649-.645-1.273-1.178-3.373-1.185-4.666-.007-1.294-1.488-5.352-3.292-9.019-1.803-3.666-3.3-7.566-3.326-8.666-.026-1.1-1.545-4.952-3.375-8.56-1.83-3.607-3.328-7.69-3.328-9.073 0-1.382-1.265-5.29-2.81-8.683-1.547-3.394-3.649-8.99-4.672-12.434-1.023-3.445-2.758-7.01-3.856-7.92-1.097-.911-1.995-3.407-1.995-5.547 0-2.14-1.26-6.36-2.801-9.38-1.54-3.02-3.692-8.545-4.78-12.28-1.09-3.734-2.713-7.99-3.608-9.457-.896-1.466-2.748-6.445-4.117-11.063-1.369-4.619-2.985-8.704-3.591-9.08-.607-.374-1.103-2.11-1.103-3.857 0-1.746-.534-3.505-1.186-3.908-.652-.403-1.59-2.341-2.083-4.307-.493-1.966-2.06-5.052-3.48-6.86-1.422-1.806-2.588-4.253-2.593-5.438-.004-1.184-.962-3.953-2.127-6.153-1.165-2.2-3.891-8.8-6.057-14.667-6.713-18.178-11.25-29.82-14.956-38.378-1.202-2.775-2.185-5.925-2.185-7 0-1.076-.573-1.955-1.273-1.955s-1.647-2.25-2.103-5c-.982-5.912-1.024-6.008-16.344-37.667-6.565-13.567-12.707-26.767-13.648-29.333-4.107-11.194-12.392-30.167-13.974-32-.949-1.1-3.348-5.9-5.331-10.667-5.666-13.62-11.51-25.333-12.638-25.333-.568 0-1.767-1.95-2.665-4.334-1.923-5.105-4.756-11.55-10.697-24.333a16575.8 16575.8 0 0 1-6.499-14c-1.189-2.567-2.911-5.146-3.828-5.733-.917-.586-1.667-1.64-1.667-2.34s-1.423-4.223-3.162-7.83c-1.74-3.605-3.534-8.033-3.987-9.84-.454-1.805-2.84-6.28-5.305-9.942s-4.845-8.478-5.29-10.703c-.445-2.224-4.163-10.103-8.262-17.507-4.1-7.405-8.25-15.707-9.222-18.45-.972-2.744-3.03-7.088-4.572-9.655-1.543-2.567-5.287-9.767-8.32-16-11.193-23.005-19.636-38.998-21.116-39.996-.546-.369-1.67-2.649-2.498-5.066-.827-2.418-2.784-6.018-4.349-8-1.564-1.983-4.523-7.3-6.575-11.817-2.052-4.517-4.922-8.85-6.376-9.628-1.455-.778-3.584-3.761-4.731-6.63-1.148-2.867-5.08-8.81-8.737-13.205-3.658-4.395-8.804-11.358-11.436-15.472-2.632-4.114-6.573-8.404-8.757-9.534-2.184-1.13-3.971-2.993-3.971-4.142 0-2.324-4.09-8.183-9.667-13.853-2.017-2.05-3.667-4.359-3.667-5.131 0-1.368-3.505-5.47-16.191-18.951-3.406-3.62-6.537-7.479-6.958-8.577-.422-1.1-1.62-1.998-2.664-1.998s-2.245-1.35-2.67-3c-.423-1.65-2.587-4.2-4.806-5.667-2.22-1.466-4.038-3.07-4.04-3.565-.003-.494-5.153-5.894-11.447-12-6.293-6.106-13.343-13.149-15.666-15.652-8.918-9.606-18.96-18.782-20.558-18.782-.916 0-1.666-.894-1.666-1.985 0-2.101-2.716-5.902-7.667-10.73-1.65-1.608-3-3.632-3-4.497 0-2.275-5.585-7.8-8.425-8.333-1.333-.25-3.433-2.21-4.666-4.353-1.233-2.144-3.142-4.95-4.242-6.238-4.283-5.01-4.929-6.07-5.785-9.483-.488-1.94-1.935-4.578-3.217-5.86-1.283-1.282-2.382-2.674-2.443-3.093-.062-.42-.812-2.451-1.667-4.515-.855-2.065-1.555-4.615-1.555-5.667 0-1.052-.572-1.913-1.27-1.913-.7 0-2.268-2.1-3.486-4.667-1.218-2.567-2.7-4.667-3.293-4.667-.592 0-1.802-2.25-2.688-5-.886-2.75-2.054-5.6-2.596-6.333-.541-.733-1.723-4.485-2.626-8.337-.903-3.853-2.22-7.361-2.924-7.797-2.894-1.788-7.99-19.618-8.536-29.866-.215-4.033-.798-9.891-1.294-13.018-1.633-10.27 3.726-14.458 12.495-9.765 2.356 1.26 2.853.908 4.081-2.89.77-2.38 2.055-11.527 2.856-20.327 2.35-25.805 5.284-45.866 10.631-72.667a522.105 522.105 0 0 0 2.565-14c.606-3.666 2.631-13.866 4.5-22.666 1.87-8.8 4.073-20.136 4.897-25.19.825-5.056 2.358-11.656 3.407-14.668 1.05-3.011 1.918-8.034 1.928-11.16.01-3.127.607-6.727 1.325-8 1.658-2.94 8.082-28.184 9.412-36.982.554-3.667 2.023-9.367 3.266-12.667 1.242-3.3 2.774-8.7 3.404-12 .629-3.3 1.694-8.55 2.366-11.667.864-4.007.786-5.678-.266-5.707-.818-.022-.437-.652.846-1.4 1.283-.747 2.321-2.079 2.306-2.959-.03-1.73 7.067-28.488 10.15-38.267 1.04-3.3 1.888-7.447 1.884-9.216-.008-3.634 3.34-15.906 6.136-22.496 1.021-2.408 1.857-6.528 1.857-9.154 0-4.455 2.002-12.016 6.126-23.134.952-2.567 2.112-6.767 2.577-9.333.466-2.567 1.959-7.967 3.318-12 1.359-4.034 3.135-10.034 3.947-13.334.812-3.3 1.956-7.2 2.542-8.666 2.92-7.315 6.824-20.31 6.824-22.717 0-1.495 2.1-7.772 4.666-13.95 2.567-6.178 4.667-13.132 4.667-15.453 0-2.321.884-4.954 1.965-5.851 1.08-.897 2.372-3.805 2.871-6.463.499-2.658 1.749-5.675 2.779-6.705 1.03-1.03 1.563-2.675 1.187-3.657-.377-.982-.18-2.098.438-2.48.619-.382 1.536-2.89 2.04-5.571.502-2.682 1.799-6.227 2.88-7.878 1.082-1.65 2.264-4.713 2.627-6.805.363-2.092 1.465-4.419 2.449-5.171 1.811-1.385 5.052-9.857 6.675-17.453.489-2.284 1.985-5.33 3.326-6.769 1.34-1.438 2.873-4.07 3.405-5.847.533-1.776 1.807-4.56 2.832-6.186 1.024-1.625 2.035-4.025 2.246-5.333.21-1.308 2.61-5.84 5.331-10.07 2.722-4.231 4.949-8.013 4.949-8.405 0-.391 1.5-2.919 3.333-5.617 1.834-2.698 3.334-5.73 3.334-6.736 0-1.008 1.509-3.718 3.353-6.024a6491.75 6491.75 0 0 0 4.465-5.587c.611-.767 1.652-3.014 2.313-4.994 1.548-4.637 9.885-15.302 12.725-16.28 1.205-.414 2.96-2.684 3.903-5.043 2.409-6.033 8.266-14.226 10.194-14.26.89-.016 2.34-1.379 3.222-3.029 2.51-4.7 14.215-19.783 19.916-25.666 22.799-23.526 45.784-46.001 47.048-46.004.84-.003 2.678-1.721 4.084-3.82 1.406-2.1 3.993-4.947 5.75-6.33 1.755-1.382 6.844-6.263 11.308-10.846 4.463-4.584 8.741-8.334 9.506-8.334.765 0 3.526-2.25 6.135-5 2.61-2.75 7.432-6.8 10.717-9s9.084-7 12.887-10.666c10.834-10.447 21.987-19.922 27.807-23.623 2.933-1.865 6.788-4.963 8.566-6.884 1.778-1.922 3.878-3.51 4.666-3.53.79-.02 3.185-1.82 5.324-4 2.138-2.18 4.769-3.963 5.844-3.963 1.076 0 3.226-1.379 4.778-3.064 3.97-4.31 17.425-14.27 19.278-14.27.85 0 1.544-.501 1.544-1.114 0-.612 8.55-7.306 19-14.875 10.45-7.568 19.9-14.61 21-15.648 1.1-1.038 4.063-3.194 6.585-4.792 2.522-1.597 6.722-4.264 9.333-5.927 2.612-1.663 5.949-3.544 7.415-4.18 1.467-.637 3.81-2.427 5.207-3.977 1.397-1.551 3.266-2.82 4.153-2.82.888 0 3.14-1.2 5.004-2.667 1.865-1.466 4.324-2.666 5.466-2.666 1.142 0 2.719-1.2 3.504-2.667.785-1.467 2.772-2.667 4.417-2.667 1.644 0 4.017-1.2 5.273-2.666 1.256-1.467 3.067-2.667 4.025-2.667 1.744 0 5.848-2.734 10.311-6.868 1.307-1.211 3.786-2.632 5.509-3.158 1.722-.526 4.031-1.738 5.131-2.695 1.1-.956 3.8-2.177 6-2.713s6.091-2.083 8.647-3.437c2.556-1.354 5.622-2.462 6.814-2.462 1.192 0 4.242-1.409 6.779-3.13 4.211-2.858 7.786-4.305 28.567-11.562 3.744-1.308 7.944-2.965 9.333-3.683 1.39-.719 8.527-3.264 15.86-5.656 7.334-2.392 13.934-4.772 14.667-5.289.733-.517 5.533-2.291 10.667-3.944 5.133-1.653 13.833-4.723 19.333-6.822 5.5-2.1 15.4-5.64 22-7.867 6.6-2.226 13.2-4.59 14.667-5.25 3.22-1.453 16.409-5.856 24.666-8.236 3.3-.95 10.2-3.337 15.334-5.303 5.133-1.966 13.083-4.335 17.666-5.265 4.584-.93 8.334-2.21 8.334-2.842 0-.633 1.244-1.151 2.765-1.151 1.52 0 7.344-1.538 12.942-3.417 5.598-1.879 14.103-4.324 18.902-5.434 4.798-1.11 14.809-4.072 22.246-6.583 7.437-2.512 14.657-4.566 16.043-4.566 1.386 0 5.801-.9 9.811-2 41.782-11.454 54.072-14.286 83.549-19.25 3.808-.642 7.64-1.609 8.515-2.15.874-.54 5.258-1.44 9.742-2 4.483-.559 14.451-1.986 22.151-3.171 7.7-1.185 16.4-2.396 19.334-2.691 2.933-.295 10.133-1.183 16-1.973 5.866-.79 12.311-1.089 14.321-.664 2.142.452 5.402-.099 7.872-1.331 2.773-1.383 7.829-2.104 14.766-2.104 5.802 0 11.729-.631 13.17-1.403 2.293-1.226 7.369-2.052 27.87-4.534 2.567-.31 8.867-1.171 14-1.912 5.134-.742 12.034-1.616 15.334-1.943 3.3-.327 9-1.2 12.667-1.94 3.666-.739 14.466-2.059 24-2.933 9.533-.874 18.533-2.127 20-2.785 1.466-.657 7.766-1.774 14-2.48 6.233-.707 15.533-1.907 20.666-2.666 18.124-2.68 30.88-4.07 37.403-4.078 3.629-.004 8.781-.614 11.45-1.355 2.67-.742 10.77-1.636 18-1.987 7.231-.35 23.947-1.521 37.147-2.601s30.9-2.276 39.334-2.66c18.323-.831 181.703-.961 184.234-.146.971.313 11.108.906 22.526 1.318 11.418.413 24.018 1.375 28 2.14 3.982.763 11.14 1.337 15.906 1.273 10.004-.133 32.173.89 46.667 2.156 5.5.48 14.5 1.075 20 1.322 21.48.967 32.069 1.799 47.398 3.725 15.414 1.937 47.823 4.344 53.269 3.956 1.466-.104 8.666.69 16 1.763 7.333 1.074 18.057 2.175 23.83 2.447 5.774.272 13.274 1.1 16.667 1.838 3.393.74 13.37 2.027 22.17 2.861 8.8.835 19 2.098 22.666 2.808 18.619 3.605 27.501 5.381 36 7.2 5.133 1.098 16.833 3.455 26 5.238 22.809 4.437 45.153 10.313 48.667 12.8.733.519 3.883 1.364 7 1.878 3.116.514 5.666 1.482 5.666 2.15 0 .67 1.465 1.217 3.255 1.217 1.79 0 3.559.492 3.93 1.093.372.602 4.907 2.797 10.079 4.879 5.172 2.082 9.403 4.242 9.403 4.8 0 .56 1.93 1.44 4.29 1.958 2.359.518 5.209 1.418 6.333 2 1.124.581 5.644 2.398 10.044 4.037 4.4 1.638 11 4.316 14.666 5.95 3.667 1.634 10.19 4.54 14.495 6.46s8.655 3.49 9.666 3.49c1.012 0 1.84.504 1.84 1.12 0 .616 2.429 1.921 5.398 2.901 2.969.98 5.819 2.5 6.333 3.38.514.878 3.035 1.901 5.602 2.272 5.108.738 18.604 6.196 35.588 14.39 6.006 2.899 11.82 5.27 12.92 5.27 1.1 0 2.343.554 2.762 1.231.419.678 3.754 2.226 7.412 3.44 3.658 1.216 6.65 2.762 6.65 3.436 0 .675.87 1.226 1.93 1.226 2.255 0 30.317 14.471 40.172 20.715 7.096 4.496 18.588 9.952 20.964 9.952.765 0 2.549 1.05 3.963 2.333 2.695 2.446 11.73 7.726 26.305 15.37 20.36 10.678 27.062 14.462 31.198 17.617 2.413 1.84 5.1 3.347 5.97 3.347.87 0 1.928.9 2.35 2 .422 1.1 1.547 2 2.499 2 .952 0 4.296 2.143 7.431 4.762 3.135 2.62 7.85 5.859 10.477 7.2 2.627 1.34 6.269 3.908 8.093 5.708 1.824 1.799 6.016 4.946 9.316 6.994 3.3 2.048 6.483 4.542 7.073 5.542.59 1 3.021 2.633 5.401 3.628 2.38.994 8.498 5.528 13.594 10.076 5.096 4.547 10.916 9.257 12.933 10.467 2.018 1.21 4.003 3.254 4.413 4.543.409 1.29 2.658 3.68 4.998 5.311 2.34 1.633 4.816 3.898 5.502 5.035 2.592 4.295 14.951 16.544 19.797 19.62 2.775 1.762 6.675 5.56 8.667 8.441 1.992 2.881 4.222 5.275 4.955 5.319.733.044 7.933 6.414 16 14.154s17.067 15.868 20 18.062c2.933 2.193 10.96 9.197 17.836 15.563 6.876 6.366 14.4 12.775 16.72 14.241 3.982 2.518 15.739 13.07 20.57 18.464 6.603 7.37 15.088 15.615 18.105 17.592 1.89 1.238 3.436 2.944 3.436 3.79 0 .847 5.73 7.228 12.735 14.18 7.004 6.953 13.905 14.514 15.336 16.803 1.43 2.29 6.65 7.576 11.598 11.748 4.949 4.172 10.797 9.925 12.997 12.783 2.2 2.858 5.02 5.552 6.265 5.987 1.246.434 2.595 1.809 2.997 3.055.403 1.246 2.833 4.548 5.402 7.34 2.568 2.79 4.67 5.68 4.67 6.421 0 1.477 6.21 10.337 8.806 12.565.893.767 3.789 4.967 6.434 9.333 2.646 4.367 5.358 8.84 6.028 9.94 4.828 7.93 13.001 29.085 15.327 39.674.519 2.362 1.497 4.637 2.174 5.055.677.419 1.23 3.006 1.23 5.749s.634 5.62 1.407 6.394c1.736 1.736 4.754 14.421 5.978 25.127.503 4.4 1.448 9.01 2.099 10.246.65 1.235 1.183 5.015 1.183 8.4 0 3.384.817 7.774 1.815 9.754.998 1.98 2.204 7.968 2.68 13.306.475 5.338 1.426 10.738 2.113 12 2.822 5.187 6.63 19.834 5.883 22.628-.514 1.923-.211 3 .843 3 1.046 0 1.36 1.085.864 2.984-.43 1.642-.237 5.092.427 7.667.665 2.575 1.939 10.082 2.832 16.682.893 6.6 2.136 13.02 2.762 14.268.626 1.247 1.446 6.493 1.823 11.658.377 5.165 1.192 10.744 1.812 12.399.62 1.655.632 9.308.027 17.008-.605 7.7-1.326 18.204-1.603 23.341-.276 5.138-1.325 10.838-2.33 12.667-1.005 1.83-2.002 5.675-2.215 8.547-.212 2.871-1.216 6.171-2.229 7.333-1.013 1.162-3.135 4.812-4.715 8.112-4.119 8.601-9.794 18.075-13.115 21.895-1.575 1.812-3.828 5.158-5.005 7.435-1.178 2.278-2.956 4.453-3.952 4.835-.995.382-2.19 2.212-2.656 4.066-.465 1.853-1.947 4.96-3.292 6.903-1.346 1.943-4.622 7.535-7.28 12.426-3.04 5.595-7.871 11.643-13.024 16.306l-8.192 7.412 2.864 8.723c1.575 4.797 2.867 10.06 2.871 11.694 0 1.635.905 4.69 2 6.791 1.096 2.1 1.992 5.512 1.992 7.58 0 2.068.646 5.45 1.436 7.514 1.534 4.011 7.156 24.636 12.652 46.42 1.85 7.334 3.852 14.239 4.449 15.345.596 1.107 2.113 6.807 3.37 12.667 1.258 5.86 3.143 13.708 4.19 17.439 1.047 3.731 1.903 8.992 1.903 11.691 0 2.7 1.156 9.246 2.57 14.55 2.593 9.73 6.348 34.884 7.411 49.642.873 12.106 5.817 58.206 6.651 62 .79 3.594 4.464 42.732 5.445 58 .945 14.703 1.695 34.91 2.498 67.333.409 16.5 1.096 31.658 1.528 33.685.43 2.027.992 10.127 1.247 18 .255 7.873 1.076 23.915 1.826 35.648.749 11.734 1.984 34.834 2.744 51.334.76 16.5 2.014 38.4 2.786 48.666.773 10.267 1.63 26.767 1.906 36.667.276 9.9 1.133 29.4 1.906 43.333.773 13.934 1.756 32.834 2.184 42 .429 9.167 1.025 17.567 1.326 18.667 1.534 5.62 3.327 217.333 1.841 217.333-1.249 0-2.293 15.682-3.056 45.877-.381 15.074-1.313 28.566-2.07 29.98-1.347 2.518-2.737 15.265-5.468 50.143-.746 9.534-1.886 19.434-2.534 22-.648 2.567-1.887 10.067-2.753 16.667-.866 6.6-2.076 13.2-2.69 14.667-.614 1.466-1.393 4.466-1.732 6.666-1.074 6.975-4.42 20.372-9.988 40-1.457 5.134-3.08 12.034-3.609 15.334-.529 3.3-2.017 8.4-3.307 11.333s-3.643 9.631-5.228 14.884c-1.584 5.253-3.755 10.276-4.824 11.163-1.069.887-1.943 3.663-1.943 6.17 0 2.505-1.128 6.782-2.507 9.503-1.379 2.72-4.173 9.147-6.21 14.28-8.694 21.909-27.197 56.944-33.293 63.04-1.762 1.762-4.459 5.999-5.992 9.415-5.61 12.494-10.038 20.532-11.665 21.174-.917.36-1.68 1.642-1.696 2.847-.016 1.205-1.203 3.69-2.637 5.524-1.434 1.833-2.621 4.363-2.637 5.622-.016 1.26-2.064 4.323-4.55 6.809-2.485 2.485-5.807 7.431-7.382 10.99-2.82 6.375-6.81 11.246-9.214 11.246-1.308 0-3.583 5.01-4.968 10.94-.463 1.984-2.884 5.165-5.379 7.068-2.495 1.903-4.537 4.247-4.537 5.207s-1.407 3.82-3.128 6.355c-1.72 2.534-3.552 6.3-4.07 8.368-.52 2.068-2.309 5.627-3.976 7.91-1.668 2.284-4.724 8.052-6.79 12.818-2.068 4.767-4.571 9.85-5.564 11.297-.993 1.447-1.805 3.797-1.805 5.222 0 1.426-.397 2.196-.882 1.71-1.096-1.095-6.414 6.6-7.674 11.105-1.516 5.42-5.278 13.935-6.557 14.837-.652.461-1.68 3.161-2.283 6-.604 2.84-3.882 12.663-7.286 21.83-3.403 9.166-6.83 19.066-7.614 22-3.478 13.004-7.91 28.22-8.931 30.666-.613 1.467-2.113 6.867-3.334 12s-2.858 11.433-3.637 14c-2.76 9.095-7.765 34.07-7.784 38.837-.013 2.66-1.014 7.16-2.232 10-1.217 2.84-2.69 9.663-3.273 15.163-1.358 12.806-3.244 26.594-5.02 36.697-4.125 23.458-4.967 88.561-1.483 114.636 1.408 10.545 2.225 20.393 3.374 40.667.436 7.7 1.63 20.3 2.65 28 3.807 28.69 4.88 64.692 2.712 91.044-1.099 13.359-2.241 28.93-2.54 34.604-.317 6.042-1.366 11.572-2.532 13.352-2.28 3.48-3.37 8.063-4.269 17.963-.348 3.83-1.556 8.75-2.685 10.934-1.13 2.184-2.054 5.65-2.054 7.703 0 2.054-1.198 6.883-2.661 10.733-1.464 3.85-2.398 7-2.075 7 .322 0-1.211 4.35-3.406 9.667-2.195 5.317-4.351 12.278-4.79 15.468-.44 3.191-2.12 7.391-3.731 9.334-1.612 1.942-3.976 7.131-5.254 11.531-2.08 7.16-5.718 16.437-8.63 22-.576 1.1-3.296 6.35-6.044 11.667-2.749 5.317-5.54 10.003-6.203 10.412-.663.41-1.206 1.91-1.206 3.333 0 1.424-.624 2.588-1.388 2.588-.764 0-3.253 3-5.533 6.667-2.279 3.667-4.654 6.667-5.278 6.667-.624 0-1.134 1.564-1.134 3.476 0 2.433-.56 3.26-1.869 2.759-1.101-.423-2.137.312-2.524 1.79-.36 1.38-2.572 3.673-4.915 5.098-4.328 2.632-8.025 8.137-8.025 11.95 0 1.688-.374 1.592-1.891-.483-2.152-2.942-3.485-2.23-3.806 2.035-.121 1.61-1.427 3.572-2.901 4.361-3.39 1.815-4.958 3.5-7.149 7.68-.96 1.834-5.225 6.034-9.478 9.334s-9.095 7.95-10.76 10.333c-1.664 2.383-3.942 4.333-5.061 4.333-2.754 0-11.184 6.55-10.29 7.995.392.635.035 1.573-.792 2.084-.827.511-2.011.108-2.632-.895-.927-1.501-1.904-1.367-5.504.76-2.407 1.422-5.672 2.478-7.257 2.347-2.885-.24-5.147 2.884-3.738 5.163 1.06 1.716-1.244 1.51-3.025-.271-1.09-1.09-2.125-.736-3.897 1.333-1.326 1.55-3.46 2.818-4.741 2.818-1.281 0-4.598 1.161-7.37 2.581-2.773 1.42-7.292 2.987-10.042 3.482-2.75.495-5 1.433-5 2.085 0 .652-2.135 1.185-4.745 1.185-2.888 0-4.416-.533-3.904-1.36.462-.75-1.452-.446-4.255.674-3.222 1.286-8.16 1.882-13.429 1.618-4.583-.229-8.333 0-8.333.504 0 .506-1.35 1.213-3 1.57-1.65.358-4.05 1.092-5.334 1.632-1.371.577-2.333.398-2.333-.433zm31.055-142.089c11.807-.1 16.004-.592 16.857-1.973.625-1.011 3.616-1.978 6.648-2.15 3.03-.17 6.545-1.176 7.81-2.235 1.263-1.058 4.997-3.067 8.297-4.463 7.55-3.195 11.846-6.24 20.637-14.628 9.916-9.46 26.333-25.735 28.696-28.447 1.1-1.262 5.15-5.847 9-10.19 3.85-4.343 7-8.976 7-10.296 0-1.32.6-2.4 1.334-2.4.733 0 1.333-.685 1.333-1.52 0-.836.821-2.186 1.825-3 1.004-.815 3.471-4.78 5.483-8.814 2.011-4.033 4.3-8.533 5.087-10 4.818-8.984 11.605-23.327 11.605-24.527 0-.778 1.47-4.577 3.266-8.443 1.796-3.867 4.235-10.63 5.42-15.03 1.185-4.4 4.017-13.848 6.293-20.997 2.276-7.148 3.792-13.343 3.37-13.766-.424-.423.374-4.773 1.774-9.666 1.399-4.893 2.544-10.887 2.544-13.321 0-2.434.607-5.56 1.35-6.948.742-1.387 1.35-10.497 1.35-20.245.002-9.748.002-21.233 0-25.521 0-6.88-3.303-38.519-4.96-47.536-.9-4.904-3.067-28.486-3.674-40-1.942-36.846-2.272-46.264-2.078-59.333.295-19.821 2.232-61.414 3.167-68 .417-2.934 1.734-15.234 2.928-27.334 1.193-12.1 2.76-24.7 3.482-28 .722-3.3 1.823-9.3 2.447-13.333 6.532-42.252 10.49-63.6 12.798-69.045 1.02-2.408 1.856-5.608 1.856-7.111 0-3.438 4.814-22.966 7.192-29.177.982-2.567 2.8-9.167 4.039-14.667 1.239-5.5 3.664-13.6 5.39-18 1.726-4.4 4.68-12.951 6.566-19.003 1.886-6.051 4.62-13.337 6.076-16.191 1.455-2.854 3.816-9.303 5.246-14.33 4.518-15.89 14.28-40.476 16.07-40.476.487 0 1.667-2.25 2.623-5 2.513-7.233 11.783-25.509 14.129-27.854 1.101-1.102 2.003-2.767 2.003-3.701 0-.934 1.2-2.784 2.666-4.112 1.467-1.327 2.667-2.893 2.667-3.48 0-1.063 5.404-9.728 7.981-12.797.744-.886 1.352-2.153 1.352-2.817 0-.663 4.697-8.339 10.437-17.056 5.74-8.717 10.863-16.75 11.385-17.85 1.372-2.89 3.78-6.819 6.961-11.36 1.531-2.185 3.205-4.873 3.72-5.973 1.8-3.847 4.418-8 6.507-10.324 1.159-1.289 4.317-6.543 7.019-11.676s5.657-10.233 6.568-11.333c.911-1.1 2.635-4.527 3.831-7.615 1.197-3.088 3.216-6.83 4.487-8.314 1.272-1.485 3.366-5.382 4.653-8.66 1.288-3.278 4.974-9.737 8.192-14.352 3.218-4.616 6.638-10.793 7.602-13.726.963-2.933 2.932-8.033 4.375-11.333 3.753-8.578 10.315-22.931 11.727-25.649.662-1.273 1.203-3.39 1.203-4.703 0-1.314 1.8-5.858 4-10.098 2.2-4.24 4-8.561 4-9.602 0-1.777 4.867-17.743 8.113-26.615 1.641-4.488 2.104-6.466 3.738-16 1.478-8.624 4.007-20.262 5.505-25.333 2.823-9.561 6.609-32.254 8.676-52 1.228-11.734 2.43-21.656 2.67-22.05.242-.395.582-6.995.758-14.667.175-7.673 1.153-20.55 2.174-28.617 2.47-19.518 2.982-36.288 3.114-102 .117-58.62-.765-106.234-2.783-150-2.46-53.376-2.694-57.517-3.429-60.73-.41-1.799-.67-9.015-.576-16.037.095-7.022-.746-20.222-1.868-29.333-2.33-18.925-4.321-55.253-6.12-111.646-.686-21.494-1.505-39.498-1.82-40.008-.315-.51-.966-13.524-1.445-28.92-1.972-63.29-5.329-128.683-7.278-141.772-.692-4.646-.917-9.336-.5-10.424.417-1.087.119-3.286-.664-4.886s-1.762-6.51-2.176-10.91c-.415-4.4-1.08-11.57-1.48-15.933-.398-4.364-1.218-8.564-1.822-9.334-.603-.77-1.5-9.358-1.992-19.084-.492-9.726-2.027-22.326-3.41-28-1.384-5.674-3.195-15.116-4.024-20.983-.83-5.866-2.066-12.766-2.748-15.333-.683-2.567-1.61-6.767-2.061-9.333-4.122-23.464-4.988-31.514-5.46-50.72l-.542-22.053-4.999-4.851c-7.796-7.567-9.041-10.7-7.115-17.9.892-3.335 2.96-7.956 4.596-10.27 1.636-2.313 3.573-5.203 4.305-6.421.731-1.219 6.025-7.743 11.763-14.498 5.738-6.756 11.438-14.459 12.667-17.119 1.228-2.66 2.598-5.135 3.045-5.502.446-.366 2.26-3.366 4.031-6.666 3.286-6.123 5.862-10.37 11.336-18.689 5.807-8.824 8.714-19.774 10.083-37.978 1.072-14.25.956-18.4-.65-23.333-1.076-3.3-2.026-7.8-2.113-10-.087-2.2-.71-5.5-1.386-7.334-.675-1.833-1.568-7.53-1.984-12.66-.416-5.13-1.365-9.53-2.11-9.778-.744-.248-1.352-2.986-1.352-6.085 0-3.098-.881-6.798-1.958-8.222-1.077-1.423-1.977-5.318-2-8.655-.023-3.336-.558-6.636-1.188-7.333-1.311-1.449-4.192-21.405-4.19-29.021 0-2.798-.665-6.335-1.482-7.86-.816-1.525-1.724-5.536-2.02-8.913-.294-3.376-1.095-7.64-1.779-9.473-.683-1.833-2.225-9.317-3.426-16.631-1.2-7.314-2.837-14.514-3.637-16-.8-1.486-1.909-4.802-2.465-7.369-1.263-5.829-4.982-17.24-6.621-20.315-.679-1.273-1.234-3.142-1.234-4.153 0-1.012-1.2-3.364-2.667-5.229-1.467-1.864-2.667-4.439-2.667-5.72 0-1.282-1.386-4.188-3.08-6.457-1.695-2.27-4.441-7.067-6.103-10.663-3.255-7.042-17.588-28.938-22.074-33.721-1.508-1.609-4.243-3.496-6.076-4.195-1.833-.698-4.526-3.582-5.984-6.408-2.924-5.668-18.203-23.911-37.353-44.6-3.669-3.963-7.709-9.455-8.978-12.205-1.27-2.75-3.053-5-3.963-5-.91 0-3.47-2.009-5.688-4.463-2.219-2.455-5.684-5.524-7.7-6.82-2.017-1.297-3.667-3.056-3.667-3.91 0-1.488-14.023-15.474-15.516-15.474-.398 0-7.53-6.9-15.846-15.333-8.317-8.434-15.742-15.334-16.5-15.334-.758 0-1.943-1.05-2.634-2.333-2.29-4.255-45.805-46.48-84.836-82.322-4.4-4.04-8.715-7.345-9.591-7.345-.876 0-2.377-1.087-3.335-2.415-.958-1.328-5.265-5-9.57-8.16-4.305-3.161-8.805-6.598-10-7.638-7.471-6.504-20.735-16.453-21.936-16.453-.783 0-2.957-1.455-4.83-3.232-5.01-4.752-33.757-24.768-35.574-24.768-.43 0-3.055-1.8-5.832-4-2.778-2.2-5.41-4-5.847-4-.438 0-3.567-2.115-6.953-4.7-3.387-2.584-8.739-5.875-11.894-7.313-3.156-1.437-5.94-3.072-6.188-3.634-.249-.56-4.88-3.32-10.293-6.13-9.561-4.965-11.209-6.023-15.932-10.223-1.237-1.1-4.944-3.168-8.238-4.595-3.294-1.427-7.489-3.548-9.322-4.713-1.833-1.166-6.17-3.483-9.636-5.15-3.467-1.668-6.653-3.597-7.08-4.287-.426-.69-1.997-1.255-3.49-1.255-1.494 0-4.308-1.132-6.255-2.515-1.946-1.382-5.716-3.421-8.376-4.53-2.66-1.11-5.246-2.678-5.746-3.486-.5-.808-1.737-1.47-2.75-1.47-1.014 0-7.128-2.457-13.588-5.46-6.46-3.005-15.046-6.97-19.08-8.815a3698.7 3698.7 0 0 1-18.666-8.63c-6.233-2.902-12.533-5.794-14-6.425-1.466-.632-7.466-3.229-13.333-5.77-5.867-2.543-12.167-5.066-14-5.607-1.833-.542-4.517-1.804-5.963-2.805-1.447-1.002-3.847-1.823-5.334-1.826-1.486-.003-4.668-1.202-7.069-2.666-2.4-1.464-5.124-2.662-6.051-2.662-.927 0-4.063-1.267-6.968-2.816-2.905-1.549-8.282-3.635-11.948-4.635-3.667-1-10.867-2.96-16-4.355-5.134-1.395-12.034-3.501-15.334-4.68-3.3-1.178-7.69-2.15-9.754-2.161-2.065-.011-5.065-.725-6.667-1.586-3.093-1.665-7.528-2.72-23.579-5.613-5.5-.991-12.7-2.772-16-3.959-3.3-1.186-8.229-2.165-10.953-2.176-2.724-.01-7.524-.843-10.667-1.851-3.142-1.008-11.113-2.56-17.713-3.45-6.6-.89-14.7-2.417-18-3.391-3.3-.975-12-2.44-19.333-3.258-7.334-.817-19.934-2.365-28-3.44-8.067-1.076-24.567-3.19-36.667-4.699-25.06-3.125-59.743-7.563-66.667-8.53-2.566-.36-9.166-1.02-14.666-1.47-5.5-.448-13.3-1.348-17.334-2-4.033-.651-21.433-2.11-38.666-3.243-17.234-1.133-38.834-2.704-48-3.492-46.185-3.97-257.27-4.393-308-.618-36.712 2.732-85.53 7.102-89.473 8.01-1.757.404-12.494 2.005-23.86 3.557-11.367 1.552-26.067 3.61-32.667 4.575-6.6.963-16.8 2.4-22.667 3.192-5.867.791-16.067 2.3-22.667 3.35-6.6 1.052-16.8 2.543-22.666 3.313-5.867.77-14.567 1.967-19.334 2.66-4.766.694-12.566 1.64-17.333 2.103-13.263 1.288-36.503 4.432-38.704 5.237-1.08.395-7.063 1.345-13.296 2.112-6.233.766-14.633 1.93-18.667 2.586-20.037 3.258-25.387 4.213-34 6.063-5.133 1.103-12.633 2.634-16.666 3.401-6.601 1.256-25.46 5.677-49.334 11.565-4.766 1.176-10.287 2.939-12.267 3.918-1.98.98-4.98 1.807-6.666 1.84-1.687.032-5.467.957-8.4 2.056-2.933 1.1-6.79 2.304-8.57 2.677-6.302 1.322-23.468 6.036-26.097 7.167-1.466.63-5.066 1.774-8 2.54-9.998 2.612-27.987 8.012-33.333 10.006-32.868 12.263-69.796 26.729-75.333 29.512-1.834.921-5.434 2.115-8 2.652-2.567.538-7.03 2.107-9.917 3.488-2.888 1.38-6.003 2.51-6.922 2.51-.919 0-6.656 2.31-12.75 5.136-6.093 2.825-13.943 5.907-17.446 6.85-3.502.942-6.687 2.23-7.078 2.863s-1.583 1.15-2.647 1.15c-1.065 0-4.48 1.114-7.588 2.475-5.429 2.377-23.98 9.536-32.32 12.473-2.2.774-4.9 1.93-6 2.567-1.1.637-3.5 1.771-5.332 2.52-4.924 2.01-14.855 6.615-18.667 8.654-1.833.98-7.533 3.99-12.667 6.686-5.133 2.697-10.28 5.74-11.438 6.764-1.158 1.024-2.794 1.862-3.637 1.862-.842 0-10.995 6.414-22.561 14.254-11.567 7.84-23.004 15.49-25.417 17-2.412 1.51-8.412 5.758-13.333 9.44-4.92 3.683-11.796 8.483-15.278 10.667-3.482 2.185-6.332 4.422-6.333 4.972-.001.55-.798 1-1.77 1s-3.222 1.551-5 3.448c-1.778 1.896-7.283 6.142-12.233 9.435-4.95 3.294-9 6.542-9 7.22 0 .676-.9 1.23-2 1.23s-2 .45-2 1-5.55 5.168-12.334 10.263c-6.783 5.094-14.765 11.394-17.739 14-2.973 2.605-8.023 6.837-11.221 9.404-3.198 2.567-7.065 6.08-8.594 7.81-1.528 1.728-5.405 4.96-8.616 7.18-3.21 2.222-8.646 6.808-12.079 10.191a10323.253 10323.253 0 0 1-23.496 22.998c-23.044 22.498-46.454 48.078-63.287 69.154a1662.71 1662.71 0 0 1-7.648 9.458c-9.37 11.51-10.986 13.789-10.986 15.498 0 .941-.588 1.711-1.308 1.711-.719 0-1.673 1.456-2.12 3.235-.446 1.78-1.958 4.273-3.358 5.54-1.401 1.268-2.553 2.962-2.56 3.765-.007.803-2.407 5.234-5.333 9.847-2.926 4.613-5.337 8.813-5.358 9.333-.02.52-1.82 3.304-4 6.184-2.18 2.88-3.963 5.913-3.963 6.74 0 .825-1.797 4.335-3.994 7.8-2.197 3.464-5.248 10.177-6.78 14.918-1.531 4.741-3.296 8.936-3.92 9.322-1.336.825-5.306 8.512-5.306 10.273 0 .668-1.421 4.325-3.16 8.128-1.737 3.803-5.134 11.715-7.55 17.582-2.414 5.866-5.192 11.85-6.173 13.296-.981 1.447-1.783 3.648-1.783 4.892 0 1.244-.84 3.96-1.865 6.037-1.025 2.076-2.895 7.375-4.154 11.775-1.26 4.4-2.776 9.2-3.368 10.666-.592 1.467-2.116 6.267-3.387 10.667-1.271 4.4-2.817 8.57-3.435 9.267-.619.696-1.125 2.667-1.125 4.38 0 1.712-.832 4.442-1.85 6.067-1.017 1.624-2.599 6.253-3.515 10.286-.916 4.033-3.003 11.233-4.639 16-1.635 4.767-4.888 14.967-7.23 22.667-2.34 7.7-4.82 15.041-5.51 16.315-.691 1.273-1.256 3.295-1.256 4.492s-1.16 5.855-2.58 10.35a1081.226 1081.226 0 0 0-4.555 14.843c-1.086 3.666-3.88 11.766-6.21 18-2.328 6.233-4.534 12.833-4.9 14.666-.367 1.834-1.837 5.931-3.267 9.106-1.468 3.258-2.233 6.93-1.757 8.429.474 1.495.033 3.635-1.01 4.894-1.02 1.231-2.917 6.398-4.216 11.482-1.3 5.085-3.22 10.468-4.267 11.964-1.047 1.495-1.918 4.535-1.934 6.755-.016 2.22-1.216 6.652-2.666 9.85-1.45 3.196-2.638 7.24-2.638 8.985 0 1.745-1.2 6.33-2.666 10.188-1.466 3.857-2.666 8.95-2.666 11.318 0 2.367-1.444 7.467-3.208 11.333-3.364 7.374-10.126 31.154-10.126 35.608 0 1.429-.544 2.934-1.209 3.344-.664.411-1.603 3.897-2.085 7.746-.482 3.849-2.04 10.898-3.462 15.665-1.422 4.767-3.474 12.567-4.561 17.333a1799.85 1799.85 0 0 1-3.897 16.667c-1.85 7.699-2.773 12.041-8.788 41.333-1.507 7.334-3.66 17.534-4.786 22.667-2.14 9.75-4.63 29.325-4.955 38.948-.15 4.449.564 6.401 3.443 9.406 1.998 2.085 3.633 4.373 3.633 5.084 0 .71 3.45 4.95 7.667 9.422 4.216 4.471 9.166 10.757 11 13.968 3.53 6.184 24.219 27.839 26.596 27.839.772 0 1.404.9 1.404 2s.45 2.002 1 2.006c.55 0 2.917 1.803 5.26 4 2.344 2.196 4.82 3.994 5.5 3.994.682 0 1.571 1.657 1.976 3.683.488 2.438 7.083 9.995 19.49 22.334 10.315 10.257 18.759 19.257 18.764 20 .005.742 1.455 2.435 3.223 3.762 1.767 1.328 3.568 3.83 4.003 5.561.434 1.732 1.942 3.514 3.35 3.961 1.408.447 4.705 3.187 7.326 6.089 2.622 2.902 5.31 5.276 5.974 5.276.663 0 1.83 1.787 2.59 3.972.762 2.184 2.026 4.734 2.81 5.666.783.933 3.96 4.996 7.061 9.029 3.1 4.033 6.356 8.087 7.234 9.008.879.92 1.956 2.806 2.395 4.19.44 1.382 1.918 2.807 3.285 3.164 1.368.358 3.58 2.373 4.917 4.478 3.046 4.796 10.032 14.027 11.968 15.813.803.741 2.874 3.447 4.601 6.014 1.728 2.566 6.3 8.566 10.16 13.333a8894.55 8894.55 0 0 1 10.257 12.688c1.782 2.212 4.604 6.712 6.271 10 1.668 3.288 4.919 8.379 7.225 11.312 3.693 4.699 11.044 15.658 18.78 28 1.379 2.2 3.794 6.738 5.367 10.084 1.572 3.346 5.039 9.118 7.703 12.826 2.663 3.708 4.843 7.647 4.843 8.753 0 1.106.861 2.725 1.914 3.6 1.053.873 2.3 3.346 2.772 5.494.472 2.149 1.863 4.657 3.09 5.575 1.228.917 3.968 4.968 6.089 9.001 2.12 4.034 4.543 8.234 5.382 9.334.839 1.1 2.592 4.1 3.897 6.666 1.305 2.567 4.118 7.667 6.251 11.334 4.227 7.265 5.607 10.033 13.954 28 3.067 6.6 6.568 12.824 7.78 13.83 1.212 1.006 2.204 2.622 2.204 3.59 0 2.435 5.327 11.246 6.799 11.246.66 0 1.201 1.8 1.201 4s.454 4 1.008 4 1.793 1.95 2.753 4.334c.96 2.383 2.317 5.233 3.016 6.333.699 1.1 3.983 7.55 7.297 14.333 3.315 6.784 6.604 12.334 7.31 12.334.706 0 1.283.881 1.283 1.959 0 1.91 2.841 8.352 8.074 18.305 1.426 2.712 2.593 6.044 2.593 7.405 0 2.466 20.344 43.854 22.74 46.264.693.697 1.26 2.202 1.26 3.346 0 1.144 1.115 2.776 2.479 3.628 1.43.892 2.848 3.852 3.35 6.987.477 2.991 1.415 5.439 2.083 5.439.668 0 1.902 2.25 2.744 5 .841 2.75 2.018 6.2 2.615 7.667.597 1.466 3.307 8.066 6.02 14.666 2.715 6.6 5.462 14.1 6.105 16.667.643 2.567 3.89 10.067 7.216 16.667 3.326 6.6 6.05 13.314 6.051 14.921.001 1.607.603 3.292 1.337 3.745.733.453 1.333 1.848 1.333 3.099 0 1.25 1.242 4.592 2.76 7.424 3.088 5.761 14.573 36.388 14.573 38.861 0 .875 1.165 3.07 2.589 4.88 1.423 1.81 3.58 5.941 4.79 9.18 1.212 3.24 2.667 7.09 3.234 8.556.568 1.467 1.74 5.367 2.604 8.667.865 3.3 2.076 7.924 2.69 10.275.616 2.351 2.04 5.195 3.164 6.32 1.125 1.124 2.429 4 2.898 6.391.47 2.391 1.39 5.547 2.046 7.014.656 1.467 3.032 8.367 5.28 15.333 3.898 12.08 5.56 16.471 8.194 21.649.648 1.273 1.178 3.195 1.178 4.27 0 1.751 7.938 23.684 14.989 41.415 4.617 11.611 8.896 23.936 8.954 25.794.031.987 2.2 6.31 4.817 11.827 2.619 5.517 4.81 11.78 4.871 13.92.061 2.137.628 4.207 1.26 4.597 1.779 1.1 5.109 9.819 5.109 13.376 0 1.754.568 4.23 1.262 5.504 3.964 7.272 18.272 47.365 23.226 65.08.835 2.988 2.567 6.48 3.849 7.762 1.281 1.282 2.338 3.337 2.349 4.568.026 3.044 3.078 11.397 7.395 20.238 1.97 4.034 4.343 9.734 5.274 12.667.932 2.933 3.31 9.533 5.285 14.667 1.975 5.133 5.543 14.795 7.93 21.47 2.385 6.676 5.333 13.56 6.55 15.297 1.218 1.738 2.213 4.275 2.213 5.64 0 2.822 6.244 18.032 11.875 28.926 2.085 4.033 4.203 9.086 4.707 11.228.504 2.142 2.043 5.326 3.419 7.076 1.376 1.749 3.516 6.296 4.755 10.105 3.016 9.27 6.758 17.507 28.471 62.662 5.925 12.322 10.773 22.876 10.773 23.453 0 .576 3 6.94 6.667 14.143 3.667 7.201 6.667 14.095 6.667 15.318 0 1.223 1.75 4.877 3.888 8.12 2.14 3.242 4.33 8.274 4.869 11.181.539 2.907 2.586 8.307 4.548 12 1.963 3.693 4.636 10.314 5.94 14.714 1.305 4.4 3.78 10.738 5.5 14.085 1.722 3.347 3.734 8.447 4.472 11.334 1.204 4.706 5.472 16.928 9.05 25.914 4.877 12.253 10.941 32.107 10.309 33.755-.416 1.085.397 3.084 1.808 4.442 1.41 1.359 3.793 6.37 5.295 11.137 1.502 4.766 4.562 13.011 6.799 18.322 2.237 5.31 4.73 13.31 5.54 17.776.81 4.467 1.976 9.422 2.593 11.011.616 1.59 2.718 8.59 4.672 15.557 1.954 6.967 4.114 13.709 4.801 14.982.687 1.274 1.249 3.863 1.249 5.755 0 1.891.577 4.516 1.281 5.832.705 1.317 1.61 5.928 2.013 10.246.402 4.319 1.275 9.352 1.94 11.185 2.013 5.55 5.428 22.689 6.775 34 .699 5.867 2.243 15.467 3.432 21.334 1.188 5.866 2.14 13.666 2.113 17.333-.027 3.787.352 5.664.878 4.346.522-1.306.974 1.028 1.033 5.333.058 4.21.758 10.654 1.554 14.321.797 3.667 2.445 12.367 3.661 19.333 4.725 27.054 10.698 40.645 24.609 56 3.654 4.034 8.395 10.104 10.536 13.49 2.141 3.387 6.356 8.137 9.367 10.557 3.589 2.884 5.475 5.471 5.475 7.51 0 1.71.45 3.039 1 2.952 3.022-.477 4.333.478 4.335 3.158 0 1.65 2.351 5.647 5.223 8.881 2.871 3.235 6.02 7.412 6.998 9.282.977 1.87 4.627 6.282 8.11 9.803 3.484 3.521 6.334 6.974 6.334 7.672 0 .699 1.65 3.058 3.666 5.243 5.248 5.686 6.262 7.003 10.218 13.269 1.947 3.084 4.57 6.75 5.828 8.148 1.258 1.397 5.288 5.89 8.954 9.982 11.285 12.597 23.43 24.72 24.765 24.72 1.566 0 6.952 2.95 8.015 4.39.43.58 4.33 2.863 8.667 5.073 4.338 2.21 9.987 5.184 12.553 6.609 3.225 1.79 7.242 2.591 13 2.592 4.584 0 8.334.525 8.334 1.164 0 1.912 12.554 3.403 36 4.277 10.046.374 33.166-1.44 37.019-2.906 1.735-.66 4.615-1.199 6.4-1.199 1.786 0 3.247-.612 3.247-1.359s1.35-1.024 3-.615c1.825.452 5.873-.649 10.334-2.81 4.033-1.954 9.598-3.858 12.365-4.23 2.768-.374 5.354-1.198 5.746-1.833.392-.634 2.02-1.153 3.62-1.153 4.316 0 14.258-4.414 14.264-6.333 0-.917-.895-1.667-1.995-1.667s-2-.758-2-1.684c0-2.426 10.46-4.967 34-8.262 3.666-.513 7.866-1.437 9.333-2.054 3.096-1.301 11.52-2.897 17.464-3.307 2.272-.157 4.844-.726 5.714-1.264.871-.538 5.312-1.567 9.87-2.287 4.557-.72 9.785-1.549 11.619-1.842 5.686-.91 8 .508 8 4.906 0 3.198-.779 4.32-3.787 5.455-3.561 1.344-3.792 1.902-3.862 9.346-.04 4.354-.737 8.578-1.546 9.388-.81.81-1.472 2.564-1.472 3.9 0 1.336-1.523 3.123-3.385 3.971-1.92.875-3.094 2.3-2.712 3.295.87 2.266-3.785 6.567-10.141 9.37-5.005 2.21-5.007 2.213-2.063 4.275 1.62 1.135 5.352 2.16 8.29 2.277 6.848.272 21.51 1.619 26.678 2.45 2.2.353 9.674 1.004 16.61 1.447 6.935.442 13.235 1.213 14 1.712.764.5 3.79.997 6.723 1.105 12.196.45 24.086 2.206 25.333 3.742.817 1.005 4.514 1.593 9.54 1.518 4.514-.068 7.882.401 7.485 1.043-.397.642 1.61.892 4.46.556 2.85-.336 7.282-.125 9.849.47 6.984 1.617 26.426 4.143 34 4.417 3.666.132 7.92.919 9.452 1.748s5.732 1.661 9.333 1.85c3.602.189 7.34.927 8.307 1.64.967.715 7.522 1.474 14.565 1.689 7.044.214 13.152.918 13.575 1.563 1.385 2.117 15.063 3.247 16.24 1.342.806-1.304 1.776-1.034 4.124 1.148 2.664 2.476 4.26 2.779 12.07 2.289 4.95-.31 9-.028 9 .627 0 1.941 26.452 4.844 43 4.719 4.217-.032 7.667.494 7.667 1.17 0 .675 1.463.86 3.252.412 1.788-.45 3.648-.175 4.132.61.494.797 4.781 1.38 9.749 1.323 19.733-.225 34.7.795 36.764 2.508 1.662 1.38 2.514 1.404 4.064.118 1.319-1.095 4.106-1.331 8.522-.724 3.94.542 6.891.37 7.385-.428.522-.845 2.232-.628 4.685.596 2.892 1.443 5.231 1.62 9.31.703 2.998-.674 5.156-.75 4.797-.17-.847 1.372 10.028 2.232 15.098 1.195 2.156-.44 7.401-.33 11.656.248 4.254.577 8.683.543 9.842-.077 1.158-.62 5.25-.903 9.092-.629 3.842.274 6.985.04 6.985-.522 0-.561 2.346-.991 5.213-.955 3.715.047 4.856.498 3.97 1.571-.905 1.097.433 1.317 4.925.811 4.19-.472 6.503-.153 7.213.996.819 1.325 2.451 1.371 7.53.214 3.565-.812 10.083-1.474 14.483-1.47 4.4 0 11.3-.088 15.333-.207 4.033-.119 21.733-.192 39.333-.163 17.6.029 35.6.053 40 .053 4.4 0 17 0 28 .013 11 0 26.9.406 35.334.892 8.433.487 22.833 1.04 32 1.23 16.083.331 34.023 1.383 49.333 2.89 4.033.397 9.283.839 11.667.981 2.383.142 4.333.694 4.333 1.225 0 .532 1.65.66 3.667.284 2.016-.376 9.666 0 17 .829 7.333.831 16.933 1.642 21.333 1.801 4.4.16 8.9.655 10 1.101 2.595 1.054 34.394 2.617 50.667 2.49 6.966-.054 15.066.509 18 1.25 6.437 1.627 12.181 2.061 40.357 3.054 11.93.42 22.382 1.191 23.227 1.713.845.522 4.783.818 8.752.658 3.968-.16 8.019.375 9.001 1.19 1.323 1.098 2.552 1.03 4.732-.26 2.335-1.382 3.07-1.397 3.55-.076.331.917 2.003 1.667 3.714 1.667 1.711 0 3.423-.75 3.805-1.667.51-1.226 1.177-1.075 2.52.57 1.28 1.567 4.599 2.422 11.085 2.853 5.091.34 10.946 1.283 13.01 2.097 2.065.814 5.217 1.48 7.005 1.48 1.788 0 5.49 1.2 8.227 2.667 2.736 1.467 6.784 2.674 8.995 2.684 2.21.013 7.826 1.21 12.477 2.668 4.652 1.459 9.001 2.316 9.665 1.906 1.7-1.05 12.104 5.383 10.882 6.728-.553.608.047.71 1.329.226l4.667-1.758c1.323-.498 1.866-.368 1.255.3-1.637 1.79 7.2 4.512 11.745 3.618 2.2-.433 11.074-.848 19.72-.922zm-911.627-733.794c-.547-.544-4.092-1.097-7.878-1.229-36.348-1.266-59.28-4.672-75.28-11.18-1.684-.686-4.236-1.246-5.67-1.246-1.435 0-4.848-1.2-7.585-2.667-2.736-1.467-6.613-2.667-8.615-2.667-2.248 0-4.173-.997-5.036-2.609-.82-1.534-3.45-2.974-6.38-3.493-5.534-.98-17.432-7.683-19.92-11.221-.882-1.255-5.226-4.92-9.654-8.145-4.427-3.226-8.055-6.565-8.063-7.42-.01-.855-2.413-4.129-5.347-7.274-2.933-3.146-5.333-6.652-5.333-7.791 0-1.14-1.114-2.768-2.476-3.618-4.796-2.995-10.719-18.775-14.925-39.762-.588-2.933-1.713-7.022-2.5-9.087-2.294-6.013-1.778-11.301 1.262-12.928 3.137-1.679 4.712-.904 9.29 4.57 1.842 2.203 4.76 5.23 6.486 6.725a370.48 370.48 0 0 1 6.62 5.922c6.335 5.824 22.162 10.962 39 12.662 1.883.19 4.187.816 5.119 1.393 1.947 1.203 12.109 2.038 32.124 2.64 14.257.43 19.959 1.46 21.565 3.9.61.926 1.467.913 2.667-.04 2.45-1.95 29.595-3.36 38.043-1.976 4.08.668 7.443.635 8.157-.08.668-.668 11.452-1.198 23.964-1.178 12.511.02 27.44-.568 33.176-1.306 5.735-.737 20.028-1.596 31.761-1.908 11.734-.312 24.934-1.146 29.334-1.853 4.4-.707 12.8-1.586 18.666-1.953 5.867-.367 13.367-1.265 16.667-1.995 3.3-.73 15.854-1.123 27.897-.872 17.65.369 22.48.075 24.906-1.514 3.022-1.98 5.831-2.463 21.894-3.763 4.784-.388 10.78-1.302 13.325-2.032s7.331-1.334 10.636-1.343c3.305-.013 9.309-.958 13.342-2.11 4.033-1.152 11.533-2.58 16.667-3.175 5.133-.595 13.533-2.045 18.666-3.223 5.133-1.178 10.883-2.142 12.778-2.142 1.894 0 3.803-.358 4.24-.796.438-.438 4.436-.916 8.885-1.063 4.45-.147 8.811-.989 9.693-1.87.883-.883 4.034-1.619 7.004-1.637 2.97-.017 7.8-.666 10.734-1.441 19.133-5.06 40.555-9.25 44-8.609 2.235.417 3.266.271 2.336-.33-1.024-.661 3.076-2.238 10.667-4.1 16.996-4.17 24.997-6.814 24.997-8.262 0-.674 2.988-1.226 6.64-1.226 3.651 0 9.06-.968 12.017-2.152 2.959-1.183 7.014-1.839 9.013-1.457 2 .382 4.54.212 5.649-.379 1.108-.59 3.814-1.265 6.014-1.498 2.2-.234 5.5-1.412 7.333-2.618 5.922-3.895 13.164-5.696 15.41-3.832 1.584 1.314 2.45 1.207 4.387-.546 1.327-1.202 3.41-2.184 4.627-2.184 1.218 0 5.223-1.144 8.9-2.54 3.678-1.398 7.816-2.246 9.198-1.885 1.38.361 2.914 0 3.407-.793.492-.797 2.24-1.449 3.883-1.449 1.644 0 3.558-.516 4.255-1.147.697-.63 6.64-2.186 13.208-3.456 13.92-2.692 22.003-5.865 22.194-8.712.376-5.616-.587-11.545-2.262-13.938-2.06-2.939-2.541-10.844-.73-11.963 2.167-1.34 9.488 1.692 12.502 5.178 1.662 1.922 5.209 4.816 7.883 6.433 5.73 3.463 22.713 15.55 28.589 20.347 4.289 3.501 10.9 7.388 23.036 13.545 3.935 1.996 7.49 4.548 7.901 5.671.843 2.305 4.42 5.83 10.82 10.662 2.395 1.808 5.282 5.083 6.417 7.277 1.135 2.195 4.095 6.116 6.578 8.714 2.483 2.597 4.826 6.222 5.207 8.056.38 1.833 1.87 5.552 3.308 8.264 3.062 5.772 3.662 24.45 1.051 32.757-1.478 4.704-7.189 10.82-10.793 11.558-.903.185-3.383.819-5.51 1.407-2.369.656-5.56.459-8.233-.508-3.284-1.187-7.249-1.22-16.003-.132-10.042 1.248-28.923 2.65-37.109 2.755-1.4.017-3.689.644-5.085 1.391-1.6.857-3.124.895-4.12.103-2.172-1.725-19.335-1.821-22.503-.127-1.415.758-7.186 1.61-12.826 1.894-5.64.284-15 1.743-20.8 3.243-5.8 1.5-12.1 2.727-14 2.727-5.623 0-25.453 4.27-25.453 5.484 0 .614-1.382.592-3.07-.05-1.828-.694-3.992-.651-5.344.106-1.251.7-2.829.93-3.507.51-.678-.419-4.723.818-8.99 2.748-7.778 3.52-10.983 4.424-18.423 5.202-2.2.23-5.8 1.165-8 2.08-4.256 1.767-16.531 3.975-21.894 3.936-1.776-.013-4.615.886-6.31 1.996-2.302 1.51-4.955 1.798-10.512 1.145-6.778-.797-7.496-.63-8.156 1.893-.43 1.641-1.464 2.483-2.543 2.069-1-.384-5.75.287-10.554 1.492s-9.225 1.888-9.823 1.518c-.6-.37-4.33.183-8.29 1.227-3.96 1.045-11.112 2.231-15.893 2.636-4.78.404-10.191 1.266-12.025 1.914-1.833.648-10.533 1.91-19.333 2.804-8.8.894-16.541 1.942-17.202 2.329-.662.387-3.362.88-6 1.094-2.64.215-5.698.493-6.798.618-12.811 1.455-55.294 3.838-65.267 3.662-7.08-.125-13.492.155-14.25.623-1.784 1.103-20.04 2.544-53.816 4.25-6.967.351-16.267 1.357-20.667 2.235-4.4.878-10.7 1.648-14 1.712-3.3.064-6.793.625-7.761 1.246-.97.622-4.39.736-7.604.254-4.349-.652-6.71-.307-9.24 1.351-1.912 1.252-4.653 1.9-6.263 1.478-3.634-.95-24.595 1.433-29.522 3.356-2.229.87-13.185 1.411-27.293 1.348-12.963-.057-24.243.454-25.066 1.137-.823.683-1.944.797-2.49.253zm-271.516-171.522c-1.076-1.075-20.224-4.768-34.888-6.728-16.326-2.182-22.035-3.593-26.575-6.567-5.056-3.313-14.777-20.372-16.053-28.172-2.523-15.423-2.634-25.257-.383-34 1.228-4.766 2.546-10.324 2.93-12.35.384-2.025 1.229-4.01 1.878-4.411.648-.401 1.18-2.1 1.18-3.777 0-3.076 4.008-7.814 6.166-7.289 3.052.743 14.213-2.088 17.06-4.326 1.756-1.382 3.868-2.513 4.691-2.513s3.34-2.1 5.595-4.667c2.253-2.567 4.574-4.667 5.158-4.667.584 0 4.182-2.1 7.996-4.666 3.814-2.567 8.224-4.675 9.8-4.685 5.359-.033 9.068-1.673 10.183-4.498.816-2.068 3.89-3.65 11.564-5.946 11.225-3.359 14.237-4.51 26.15-9.995 4.232-1.949 8.6-3.543 9.708-3.543 1.106 0 2.357-.9 2.78-2 .422-1.1 1.597-2 2.612-2 1.016 0 8.522-2.7 16.681-6 8.16-3.3 15.823-6 17.03-6 1.208 0 5.488-1.254 9.51-2.788 8.216-3.131 8.406-3.157 14.073-1.89 3.295.736 4.919.217 8.353-2.672 2.344-1.973 5.134-3.252 6.2-2.843 1.065.409 2.244.247 2.619-.36 1.05-1.7 8.513-3.114 18.07-3.424 4.767-.155 11.04-1.295 13.943-2.533 4.451-1.9 11.991-2.362 48.288-2.962 26.15-.432 43.9-.214 45.279.557 1.253.702 3.894.802 5.907.224 2.003-.574 8.653-.48 14.779.208 18.713 2.103 38.914 3.886 43.284 3.82 2.28-.035 4.828.76 5.661 1.765 1.026 1.235 5.012 1.892 12.325 2.031 5.945.114 14.797 1.145 19.672 2.293 4.874 1.148 11.054 2.3 13.733 2.563 14.364 1.403 37.057 5.117 50.463 8.257 4.766 1.116 9.897 2.158 11.4 2.316 1.504.157 3.453.73 4.332 1.273.998.617 4.356-1.992 8.946-6.95 4.04-4.364 8.991-8.346 11.001-8.847 2.01-.502 5.532-2.341 7.828-4.088 4.594-3.495 18.428-9.95 21.325-9.95 1.009 0 1.834-.635 1.834-1.412 0-.777.517-1.093 1.148-.702 1.775 1.096 30.76-1.743 33.667-3.299 1.419-.759 6.483-1.593 11.255-1.853 4.772-.26 9.408-1.07 10.303-1.8 1.345-1.097 15.863-2.502 37.627-3.642 2.2-.114 5.003-.65 6.23-1.187 1.226-.537 3.326-.434 4.666.23 1.34.663 6.638 1.1 11.77.97 10.192-.256 34.871-.489 52.542-.494 7.63 0 12.088.612 13.964 1.926 1.515 1.061 4.693 1.93 7.062 1.93 2.37 0 5.818.688 7.664 1.529 2.59 1.18 3.822 1.143 5.396-.163 1.418-1.177 2.547-1.276 3.706-.323 1.591 1.307 12.102 2.713 25 3.344 3.3.162 6.766.786 7.701 1.387.936.6 5.136 1.429 9.333 1.84 4.198.412 8.573 1.23 9.723 1.817 1.15.588 7.75 2.034 14.667 3.214 6.917 1.18 15.876 3.378 19.91 4.885 4.033 1.507 9.873 2.932 12.978 3.166 3.105.234 7.398 1.673 9.54 3.198 2.141 1.525 5.19 2.772 6.774 2.772 2.873 0 13.326 3.786 20.482 7.418 2.076 1.054 5.491 1.916 7.588 1.916 2.098 0 4.146.538 4.552 1.195.407.658 5.3 2.86 10.874 4.893 5.574 2.033 10.441 4.494 10.816 5.47.374.977 2.117 1.775 3.872 1.775 1.947 0 3.19.78 3.19 2 0 1.1.508 2 1.13 2 .994 0 3.076 1.514 9.182 6.674.904.764 3.632 2.563 6.06 3.996 4.46 2.631 10.295 9.394 10.295 11.931 0 .757 1.2 2.126 2.667 3.042 1.466.916 2.666 2.42 2.666 3.342 0 .922 2.4 4.224 5.334 7.338 2.933 3.115 5.333 6.386 5.333 7.27 0 .884.985 2.159 2.188 2.833 5.221 2.921 21.03 35.422 24.688 50.755 2.118 8.877 2.543 13.692 1.872 21.2-.969 10.846-1.813 13.942-3.514 12.89-.634-.391-2.067 1.474-3.183 4.145l-2.03 4.857-9.528-.957c-11.181-1.123-15.038-3.828-20.667-14.495-1.98-3.752-4.396-8.321-5.37-10.154-.976-1.834-1.777-4.262-1.781-5.396-.017-4.235-22.734-21.271-28.365-21.271-2.33 0-14.426-4.634-20.977-8.037-2.566-1.333-7.666-3.155-11.333-4.048-3.667-.893-7.677-2.497-8.912-3.563-2.52-2.176-45.758-17.142-57.088-19.759-14.54-3.359-24.69-6.261-25.933-7.416-.697-.647-3.158-1.177-5.468-1.177s-5.94-.565-8.067-1.255c-3.893-1.265-14.598-2.133-37.78-3.063-6.92-.278-12.782-1.105-13.027-1.84-.556-1.668-32.116-1.054-36.774.717-1.857.706-6.557.812-10.75.243-4.098-.556-8.215-.538-9.15.039-.934.577-5.603 1.057-10.375 1.067-19.127.036-41.459 2.591-44.28 5.066-1.573 1.38-6 2.11-14.418 2.38-16.17.515-20.1 3.686-15.419 12.44 5.848 10.938 7.369 20.334 4.78 29.54-1.255 4.462-5.808 8-10.298 8-3.412 0-11.918-6.457-23.183-17.596-9.507-9.4-12.473-11.534-17.956-12.92a419.86 419.86 0 0 1-13.055-3.573c-3.568-1.051-10.055-1.912-14.416-1.912-5.83 0-9.927-.945-15.475-3.57-4.15-1.963-9.363-3.723-11.585-3.911-15.642-1.324-48.484-4.646-57.187-5.786-5.766-.754-11.035-1.031-11.71-.614-.674.417-10.656.608-22.183.426-39.864-.632-51.666-.54-61.624.477-5.5.563-14.668 1.254-20.373 1.537-5.706.282-11.106 1.103-12 1.824-.895.72-3.727 1.728-6.294 2.24-9.936 1.98-14.72 3.546-14.066 4.603.374.606-7.258 2.141-16.96 3.412-9.703 1.271-18.54 3.067-19.64 3.99-1.1.925-3.753 2.098-5.896 2.609-2.142.51-5.373 2.091-7.18 3.512-1.806 1.422-4.703 2.584-6.437 2.584s-6.303 1.61-10.154 3.575c-10.866 5.549-11.415 5.759-15.03 5.759-3.562 0-9.885 3.404-11.703 6.301-.587.934-1.863 1.699-2.837 1.699-.974 0-2.518.9-3.43 2-.913 1.1-2.535 2-3.604 2-1.07 0-5.108 2.1-8.975 4.666-3.867 2.567-7.53 4.667-8.14 4.667-.61 0-2.348 1.142-3.862 2.538-1.514 1.396-6.953 4.767-12.086 7.491-5.133 2.724-10.533 5.953-12 7.174-1.467 1.222-5.367 3.636-8.667 5.366-3.3 1.73-7.533 4.56-9.406 6.288-1.874 1.729-4.643 3.143-6.154 3.143-1.51 0-4.272 1.2-6.137 2.667-1.864 1.466-4.067 2.666-4.893 2.666-.827 0-2.832.826-4.457 1.835-5.179 3.216-34.698 6.643-37.041 4.3zm516.755-309.687c-7.488-.456-20.636-3.068-22.667-4.503-.733-.518-3.133-1.289-5.333-1.713-11.575-2.232-22.916-5.032-24.83-6.132-1.19-.683-7.19-1.92-13.333-2.748-6.144-.828-13.06-2.088-15.37-2.8-6.274-1.932-30.224-1.798-33.94.19-1.717.92-7.638 2.215-13.158 2.88-5.52.663-12.136 1.488-14.702 1.833-2.567.345-8.142.835-12.39 1.088-4.248.254-8.077.814-8.509 1.246-.432.432-2.003.134-3.492-.663-1.489-.797-6.96-1.688-12.158-1.98-5.198-.292-11.506-1.497-14.017-2.677-2.51-1.18-8.146-2.568-12.522-3.084-5.42-.64-8.532-1.725-9.762-3.408-.993-1.358-2.858-2.606-4.145-2.773-9.37-1.216-20.068-3.988-22.112-5.73-1.342-1.143-4.757-2.078-7.59-2.078-3.942 0-5.307-.596-5.814-2.537-.409-1.562-1.415-2.249-2.618-1.787-1.075.412-3.048-.46-4.386-1.937-2.703-2.987-10.175-6.467-13.886-6.467-1.325 0-3.366-.956-4.535-2.126-2.323-2.322-9.014-5.085-29.398-12.137-7.333-2.537-15.433-5.758-18-7.158-6.763-3.688-38.987-14.29-50.666-16.67-17.668-3.599-29.504-6.761-37.334-9.975-3.3-1.355-7.5-2.831-9.333-3.282-3.734-.918-8.984-3.024-12-4.815-2.795-1.66-4.169-2.173-8.073-3.019-1.874-.406-6.074-2.545-9.334-4.753-3.26-2.21-7-4.027-8.313-4.04-4.562-.047-12.324-5.123-19.76-12.923-9.983-10.471-11.516-13.913-15.154-34.021-1.448-8.006 7.108-30.21 14.067-36.502 1.568-1.418 3.964-4.76 5.324-7.425 1.36-2.665 4.296-6.669 6.525-8.897 3.147-3.147 4.051-5.228 4.051-9.324 0-7.984 2.198-8.824 10.05-3.837 8.581 5.45 12.01 8.969 13.145 13.492 1.081 4.31 2.049 5.59 10.805 14.302 9.432 9.384 10.695 10.444 12.446 10.444.855 0 1.554.6 1.554 1.333s1.457 1.333 3.238 1.333 4.044.806 5.028 1.79c2.73 2.73 7.255 4.877 10.278 4.877 1.495 0 5.284 1.134 8.42 2.519 3.137 1.385 8.703 3.22 12.37 4.077 3.666.857 8.408 2.423 10.538 3.48 2.13 1.059 6.18 1.924 9 1.924 2.82 0 5.128.53 5.128 1.18 0 .649 3.3 1.592 7.334 2.096 4.033.504 7.333 1.537 7.333 2.296 0 .759.959 1.012 2.13.562 2.069-.793 10.68 1.515 20.84 5.586 3.908 1.566 5.383 1.647 6.906.383 1.568-1.301 2.23-1.063 3.467 1.248.84 1.57 2.318 2.553 3.283 2.182.965-.37 4.204.539 7.197 2.02 2.992 1.48 7.824 3.011 10.736 3.402 2.911.39 6.535 1.866 8.051 3.279 1.517 1.413 3.314 2.225 3.993 1.805.68-.42 2.69.806 4.468 2.723 2.82 3.041 3.58 3.27 5.942 1.795 2.269-1.417 3.073-1.328 4.943.542 1.23 1.229 3.023 2.234 3.987 2.234s3.47.897 5.571 1.992c2.1 1.096 4.75 1.996 5.886 2 1.137 0 2.787.728 3.667 1.608.88.88 1.6 1.14 1.6.576 0-.563 1.742.217 3.872 1.734 2.13 1.516 4.71 2.757 5.733 2.757 1.024 0 2.431.526 3.128 1.17.697.643 4.567 2.215 8.6 3.494 4.033 1.28 11.152 4.065 15.82 6.192 7.65 3.485 12.665 5.113 22.847 7.415 1.833.414 3.933 1.22 4.666 1.789.734.569 3.734 1.467 6.667 1.995 2.933.527 5.933 1.398 6.667 1.934 1.625 1.188 9.108 2.65 20.666 4.037 17.786 2.135 30.08 4.163 32.667 5.388 1.625.77 5.484.805 9.878.091 3.995-.65 9.05-.67 11.333-.044 2.267.62 11.022.938 19.456.703 8.433-.234 22.533.036 31.333.602 8.8.564 23.8 1.432 33.333 1.929 9.534.496 17.989 1.437 18.79 2.092.8.655 1.841.805 2.312.334.471-.471 5.216-.772 10.544-.669 9.253.18 22.354-2.75 22.354-5 0-.55 2.612-2.875 5.805-5.168 3.193-2.293 7.243-5.667 9-7.497 2.237-2.33 4.09-3.105 6.175-2.585 2.318.579 3.267-.013 4.27-2.648.71-1.866 3.03-7.18 5.157-11.807 2.127-4.627 4.705-12.313 5.729-17.08 2.597-12.093 2.288-48.356-.518-60.667-4.043-17.741-9.29-35.52-12.988-44-.639-1.466-2.112-5.596-3.274-9.177-1.161-3.581-3.947-10.781-6.192-16-2.244-5.22-5.494-13.69-7.223-18.823-1.729-5.133-4.373-12.624-5.875-16.647-1.503-4.023-2.732-8.247-2.732-9.385 0-1.139-1.175-4.375-2.611-7.191-1.436-2.817-3.005-7.751-3.487-10.965-.482-3.214-1.373-6.15-1.98-6.526-.606-.374-1.488-3.517-1.96-6.983-.858-6.307-3.795-16.263-6.08-20.618-.669-1.273-1.216-4.948-1.216-8.165 0-3.218-.941-8.476-2.092-11.685-1.152-3.21-2.644-9.135-3.316-13.168-.673-4.033-2.062-10.333-3.086-14-3.68-13.177-6.194-25.42-6.184-30.113 0-2.629-1.12-8.329-2.504-12.667-1.383-4.337-2.892-12.087-3.351-17.22-.868-9.684-1.6-13.637-6.047-32.667-2.955-12.646-3.613-18.539-4.76-42.666-.437-9.167-1.35-18.767-2.029-21.334-.679-2.566-1.909-19.666-2.732-38-2.811-62.57-2.773-62.035-4.89-67.333-.732-1.833-2.33-9.333-3.55-16.667-3.19-19.159-7.4-38.002-9.578-42.868-1.034-2.31-1.885-4.71-1.89-5.333-.016-1.883-9.245-25.92-13.233-34.465-2.053-4.4-4.512-10.1-5.465-12.667-.953-2.567-2.493-5.57-3.423-6.673-.93-1.103-3.76-6.803-6.288-12.666-2.53-5.864-7.002-15.76-9.94-21.994-2.937-6.234-5.661-12.534-6.054-14-1.282-4.795-7.23-18.176-8.76-19.706-.822-.822-1.497-2.724-1.5-4.228 0-1.503-1.784-5.414-3.958-8.69-2.174-3.277-4.31-7.586-4.747-9.575-.437-1.99-1.655-4.332-2.708-5.206-1.053-.874-1.915-2.415-1.915-3.425 0-1.01-.49-1.837-1.088-1.837-1.18 0-6.912-13.013-6.912-15.692 0-.903.9-1.641 2-1.641s2-.595 2-1.322c0-1.953 7.246-.812 11.17 1.758 1.871 1.227 3.912 2.23 4.533 2.23 1.485 0 22.963 21.965 22.969 23.49 0 1.335 6.71 9.392 16.957 20.38 3.829 4.105 7.66 9.564 8.515 12.13.853 2.567 4.112 8.567 7.24 13.334 3.128 4.766 6.132 10.166 6.676 12 .544 1.833 2.115 4.125 3.49 5.093 2.007 1.412 17.117 30.698 17.117 33.175 0 .364.985 2.853 2.188 5.53a4823.34 4823.34 0 0 1 5.457 12.202c1.797 4.033 4.113 8.925 5.145 10.872 1.032 1.946 1.877 4.728 1.877 6.18 0 1.454.896 4.361 1.991 6.462 1.096 2.1 1.996 5.049 2 6.552 0 1.504.559 3.304 1.232 4 .672.697 1.534 3.067 1.914 5.267.38 2.2 1.663 8.2 2.85 13.333 7.769 33.6 11.095 53.602 12.639 76a9484.23 9484.23 0 0 0 2.702 38c.677 9.167 1.571 29.867 1.986 46 .416 16.134 1.392 34.734 2.17 41.334.777 6.6 1.922 16.8 2.544 22.666.621 5.867 2.115 14.567 3.318 19.334 1.204 4.766 3.013 12.566 4.02 17.333 2.906 13.759 3.545 15.994 4.793 16.765.645.4 1.174 3.355 1.174 6.568 0 3.214.519 6.164 1.153 6.556.635.392 1.865 4.325 2.733 8.741.869 4.415 2.535 10.28 3.701 13.032 1.167 2.753 2.301 8.426 2.52 12.607.218 4.182.957 8.682 1.641 10 .685 1.319 1.677 5.398 2.206 9.064.53 3.667 1.494 7.313 2.143 8.103.65.79 1.798 5.788 2.552 11.107.755 5.32 1.892 10.673 2.528 11.897.636 1.225 1.869 6.392 2.74 11.482 1.97 11.51 6.19 27.894 11.529 44.745 1.045 3.3 1.897 8.214 1.894 10.921 0 2.707.512 5.242 1.147 5.634.634.392 1.472 3.088 1.86 5.99.39 2.903 2.17 8.467 3.955 12.366 1.785 3.899 4.014 9.789 4.952 13.089.939 3.3 2.84 8.93 4.226 12.51 1.386 3.582 2.52 7.356 2.52 8.387 0 1.032 1.2 4.228 2.667 7.103 1.466 2.875 2.661 6.6 2.655 8.28 0 1.68.875 6.953 1.957 11.72 1.083 4.766 2.62 12.266 3.416 16.666.796 4.4 2.29 11 3.32 14.667 5.953 21.177 7.734 63.423 3.242 76.874-.895 2.681-4.844 8.911-8.776 13.845-3.931 4.933-7.148 9.554-7.148 10.268 0 .714-.802.99-1.782.614-1.002-.384-5.942 3.3-11.288 8.417-7.382 7.067-11.079 9.565-16.55 11.185-3.876 1.147-9.746 4.256-13.046 6.908-3.3 2.652-9 6.338-12.667 8.191-3.667 1.853-7.11 4.126-7.65 5.052-.54.925-2.621 2.093-4.624 2.595-2.002.503-5.984 2.637-8.847 4.743-2.864 2.106-8.584 4.812-12.71 6.013-4.126 1.2-8.544 2.733-9.818 3.406-2.22 1.172-5.684 1.23-20.351.335zm-831.632-465.19c-.455-.454-4.324-.973-8.597-1.153-8.722-.367-22.286-2.753-24.79-4.361-.906-.582-4.048-1.754-6.981-2.605-7.869-2.283-14.78-5.025-16.845-6.682-1.002-.804-3.322-1.92-5.155-2.479-3.138-.957-15.208-9.657-22.627-16.31-1.84-1.65-4.061-3-4.936-3s-2.012-1.35-2.527-3c-.515-1.65-2.506-4.884-4.423-7.188a3741.865 3741.865 0 0 1-7.096-8.554c-1.985-2.4-4.012-6.197-4.503-8.435-.492-2.238-1.347-4.988-1.902-6.112-4.18-8.473-6.653-19.952-6.653-30.88 0-4.891.628-6.786 2.74-8.265 2.408-1.687 3.487-1.636 8.908.422 3.51 1.333 6.594 3.492 7.156 5.01.543 1.468 2.777 3.293 4.966 4.055 2.188.763 4.375 2.637 4.86 4.164.495 1.559 2.451 3.124 4.46 3.567 1.967.434 5.377 1.28 7.577 1.878 2.2.6 13.9.871 26 .603 12.1-.267 24.798-.484 28.217-.481 3.42 0 6.575-.574 7.011-1.28.743-1.203 15.013-1.04 16.237.184.67.669 12.073-2.114 13.174-3.215.422-.422 3.109-.34 5.97.183 2.862.524 10.795.365 17.63-.351 6.835-.717 15.224-1.378 18.643-1.47 3.418-.092 6.657-.607 7.198-1.144.54-.536 2.243-.662 3.785-.278 1.54.384 6.983-.182 12.093-1.256s9.711-1.694 10.224-1.378c.896.554 21.044-1.925 40.485-4.98a2725.14 2725.14 0 0 1 12.666-1.968c1.834-.274 6.334-1.13 10-1.902 3.667-.772 9.755-1.846 13.528-2.388 3.774-.541 7.674-1.642 8.667-2.447.993-.805 5.361-2.25 9.707-3.21 4.452-.984 10.697-3.669 14.302-6.149 3.52-2.42 7.313-4.401 8.43-4.401 1.119 0 3.188-1.155 4.599-2.566 1.41-1.411 3.764-3.207 5.228-3.991 4.306-2.304 21.008-8.11 23.332-8.11 1.175 0 4.85-1.318 8.166-2.93 5.955-2.893 6.054-2.897 7.993-.333 1.08 1.428 1.983 4.496 2.006 6.819.023 2.322.7 4.441 1.505 4.71 2.422.807 3.112 18.97.807 21.274-2.282 2.282-3.83 10.999-3.675 20.706.084 5.306-.67 8.062-3.243 11.853-1.843 2.717-3.352 6.55-3.352 8.516 0 6.324-3.92 15.558-7.393 17.417-1.8.963-3.273 2.446-3.273 3.294 0 2.27-5.816 7.34-8.42 7.34-1.236 0-2.247.464-2.247 1.03 0 .567-2.25 2.194-5 3.614-2.75 1.421-6.206 3.998-7.68 5.726-2.099 2.463-6.423 3.998-20 7.098a5923.084 5923.084 0 0 0-25.987 5.99c-4.766 1.118-10.466 2.262-12.666 2.542-10.201 1.298-16.188 2.46-18.317 3.553-1.274.655-7.858 1.505-14.631 1.888-7.056.4-12.716 1.349-13.255 2.221-.518.838-4.734 1.655-9.37 1.816-4.635.161-9.96.885-11.833 1.609-1.873.724-14.023 1.755-27 2.292-12.977.538-23.594 1.497-23.594 2.133 0 1.528-4.456 1.485-6.067-.06-.761-.73-4.192-.723-8.6.017-4.033.676-10.333 1.13-14 1.01-3.667-.122-7.598.19-8.736.692-1.139.501-2.442.54-2.896.085zm1023.632-99.408c-7.333-.478-18.442-.939-24.686-1.025-8.217-.113-12.637-.835-16-2.611-2.556-1.35-7.497-3.159-10.98-4.019-3.482-.86-8.282-2.754-10.666-4.207-2.384-1.454-5.113-2.645-6.065-2.648-.952 0-5.104-2.255-9.226-5.005-4.122-2.75-8.443-5.6-9.602-6.333-3.881-2.455-21.442-21.097-21.442-22.762 0-.42-.9-1.662-2-2.762-2.05-2.05-2.796-8.423-1-8.544.55-.037 10.3-.095 21.667-.126 15.881-.045 21.386-.517 23.774-2.034 1.71-1.086 3.848-1.69 4.752-1.343 2.155.826 15.718-1.65 17.612-3.215.81-.669 2.91-1.182 4.667-1.14 5.174.124 13.634-2.093 17.396-4.558 2.307-1.512 7.517-2.562 15.314-3.088 6.5-.439 13.564-1.679 15.697-2.756 2.133-1.078 7.233-2.524 11.333-3.214 4.1-.69 9.41-1.591 11.8-2.003 2.39-.412 4.676-1.283 5.08-1.936.402-.652 3.076-1.186 5.94-1.186 2.865 0 7.78-.867 10.922-1.928 5.473-1.848 11.48-3.454 23.046-6.163 4.824-1.13 9.62-2.066 23.153-4.52 2.467-.448 6.552-1.677 9.077-2.732 2.526-1.055 7.707-2.316 11.514-2.802 3.808-.486 8.723-1.819 10.923-2.96 2.2-1.143 7-2.514 10.667-3.046 8.728-1.268 24.954-4.683 33.333-7.016 3.667-1.02 10.867-2.798 16-3.95a11950.21 11950.21 0 0 0 18-4.054c4.767-1.079 11.317-2.33 14.557-2.78 3.24-.45 6.62-1.817 7.513-3.037 1.141-1.56 3.252-2.122 7.124-1.893 3.4.2 10.015-1.225 17.313-3.73 6.495-2.23 13.615-4.055 15.822-4.055 2.206 0 6.166-.9 8.799-2 2.632-1.1 6.655-2 8.94-2 3.628 0 15.209-2.494 30.599-6.59 2.566-.683 7.666-1.935 11.333-2.783 3.667-.848 7.867-2.042 9.333-2.655 1.467-.613 5.787-1.81 9.6-2.66 3.814-.85 7.638-2.394 8.497-3.43.86-1.035 2.498-1.882 3.64-1.882s4.519-2.588 7.503-5.751c5.295-5.612 15.045-10.586 24.247-12.372 3.474-.674 4.892-.085 8.667 3.603 2.482 2.425 5.562 6.533 6.844 9.13 1.282 2.598 4.387 8.551 6.899 13.23 2.512 4.678 4.96 10.078 5.44 12 .479 1.921 1.67 4.393 2.648 5.493 5.79 6.518 7.117 30.547 1.636 29.608-2.264-.387-2.817.874-2.358 5.388.141 1.391-1.618 3.424-4.37 5.047-2.533 1.495-4.898 3.833-5.255 5.196-.365 1.399-2.348 2.852-4.55 3.336-2.333.512-4.831 2.426-6.207 4.756-1.639 2.773-3.734 4.16-7.259 4.802-2.725.498-7.955 2.87-11.622 5.27-4.045 2.65-9.288 4.739-13.333 5.312-3.667.52-7.7 1.849-8.962 2.954-1.262 1.104-4.562 2.477-7.333 3.05-2.771.572-8.638 1.762-13.038 2.643-4.4.881-9.042 2.135-10.316 2.787-1.273.651-3.147 1.184-4.164 1.184-1.016 0-4.505 1.176-7.752 2.612-3.28 1.451-7.21 2.27-8.843 1.842-1.617-.422-3.687-.173-4.6.554-.912.728-4.659 1.757-8.325 2.288-3.667.532-9.067 2.132-12 3.557-3.185 1.547-9.632 2.911-16 3.385-5.867.436-11.323 1.307-12.125 1.935-.802.627-5.902 2.047-11.333 3.154-15.986 3.26-16.394 3.355-19.876 4.655-4.645 1.736-19.013 5.37-29.333 7.417-4.767.946-12.567 2.712-17.333 3.925-4.767 1.212-12.867 2.817-18 3.566-5.134.749-9.904 1.905-10.6 2.57-.697.664-2.347 1.207-3.667 1.207-1.32 0-2.4.537-2.4 1.193 0 1.398-6.282 2.46-24.667 4.17-19.257 1.791-25.095 2.745-27.187 4.44-4.567 3.7-67.81 7.761-94.146 6.046zm-1028.667-14.29c0-1.174-2.314-2.467-12-6.704-6.62-2.897-9.135-5.402-16.277-16.217-4.258-6.449-6.385-10.617-10.528-20.637-2.032-4.913-4.855-18.606-5.087-24.667-.126-3.3-.802-8.1-1.503-10.667-1.753-6.417 2.458-28.45 5.551-29.045 2.019-.389 5.776 5.982 10.445 17.712.876 2.2 2.599 5.5 3.83 7.333 1.23 1.834 2.836 5.985 3.57 9.226 1.636 7.234 5.384 9.52 4.274 2.607-2.999-18.682-3.73-26.914-3.028-34.07.507-5.168.288-8.56-.588-9.101-.768-.474-1.23-1.867-1.027-3.096.413-2.5-4.55-3.018-11.632-1.213-2.2.56-10.9 1.285-19.333 1.61-8.433.325-20.133 1.271-26 2.102-5.867.83-13.067 1.693-16 1.916-22.484 1.71-28.576 2.452-32.667 3.972-2.566.954-9.628 1.82-15.693 1.924-6.064.104-15.812 1.097-21.661 2.207-12.553 2.38-29.923.786-39.98-3.671-3.3-1.463-6.67-2.777-7.49-2.922-2.065-.363-11.176-10.187-11.176-12.05 0-.835-1.25-2.401-2.78-3.48-5.333-3.763-11.38-18.93-11.622-29.154-.115-4.86 2.552-14.745 4-14.83 2.545-.15 23.57-2.71 25.069-3.051 1.1-.251 5.6-1.213 10-2.138 9.45-1.987 18.091-4.743 23.284-7.429 2.552-1.32 5.84-1.688 10.325-1.157 4.6.545 7.77.165 10.532-1.263 2.173-1.124 6.33-2.473 9.238-2.998 2.908-.525 6.008-1.526 6.889-2.223.88-.698 5.015-1.3 9.189-1.337 4.173-.037 9.152-.885 11.065-1.883 1.913-.998 5.089-1.818 7.058-1.823 1.969 0 5.23-.635 7.245-1.402 3.243-1.232 8.42-1.928 22.508-3.024 2.2-.172 4.683-.741 5.517-1.266 2.67-1.68 35.277-5.57 63.623-7.59 15.804-1.126 52.822-2.726 68.194-2.946 8.94-.128 42.48 1.693 43.569 2.366.72.445 5.142.752 9.827.681 4.684-.07 10.186.522 12.227 1.316 2.04.794 8.21 1.411 13.71 1.372 5.5-.039 14.2.472 19.333 1.136 8.67 1.122 19.004 1.831 51.334 3.525 6.966.365 15.966.843 20 1.062 4.033.219 14.833 1.112 24 1.984 9.166.873 22.966 2.125 30.666 2.784 7.7.658 19.93 1.777 27.175 2.486 13.412 1.313 16.726.97 18.475-1.91 1.985-3.268 7.538-3.436 11.705-.355 4.776 3.531 15.762 18.074 19.973 26.44 1.661 3.3 4.029 7.5 5.261 9.333 1.233 1.833 3.377 6.78 4.766 10.993 1.971 5.976 2.173 8.013.919 9.267-.884.884-1.607 2.975-1.607 4.646 0 3.83-6.819 7.43-18 9.507-24.684 4.583-38.703 5.827-55.803 4.952-9.587-.49-17.942-1.207-18.566-1.593-.624-.385-10.846-1.25-22.716-1.921-11.87-.672-29.682-1.786-39.582-2.477-26.008-1.815-94.417-2.857-95.286-1.45-.402.65.773 2.97 2.61 5.156 1.839 2.184 3.345 4.485 3.349 5.113 0 .627 1.503 4.092 3.333 7.7 3.76 7.41 4.116 13.411 1.532 25.746-1.737 8.286-5.045 13.694-8.377 13.694-.967 0-2.752 1.95-3.965 4.334-1.213 2.383-10.416 12.433-20.45 22.333-10.033 9.9-19.406 19.517-20.827 21.372-1.422 1.854-6.635 5.729-11.585 8.61-4.95 2.881-9 5.714-9 6.295 0 .581-.711 1.056-1.58 1.056-.868 0-4.018 1.16-7 2.577-2.981 1.418-8.98 3.218-13.332 4-9.356 1.683-31.422 1.904-31.422.315zm39.321-91.017c3.488-2.882 7.733-5.59 9.435-6.016 5.206-1.307 23.244-19.628 23.244-23.61 0-.325-1.756-1.32-3.902-2.208-7.004-2.901-16.868 2.024-29.764 14.861-4.183 4.164-6.334 7.436-6.334 9.635 0 1.832-.81 3.81-1.798 4.397-1.93 1.144-3.957 7.533-2.767 8.723 1.424 1.424 5.659-.636 11.886-5.782zm1066.013-38.379c-1.1-.654-4.046-1.627-6.546-2.162-6.123-1.31-17.563-8.785-21.548-14.08-1.782-2.368-4.89-5.998-6.906-8.068-2.017-2.07-3.667-4.383-3.667-5.14 0-.759-.49-1.379-1.089-1.379-2.655 0-6.833-19.9-7.698-36.667-.727-14.092-1.368-17.937-3.426-20.562-1.392-1.775-3.184-5.825-3.984-9-.8-3.174-1.84-5.771-2.313-5.771-2.539 0-15.23 5.46-18.293 7.87-1.956 1.538-4.556 2.797-5.777 2.797s-2.79.552-3.487 1.227c-1.87 1.81-16.953 9.44-18.664 9.44-.809 0-2.88 1.5-4.602 3.333-1.723 1.833-4.077 3.337-5.233 3.341-1.155 0-3.82.905-5.92 2-2.1 1.096-4.389 1.992-5.085 1.992-.697 0-4.594 1.522-8.662 3.383-9.658 4.417-23.382 7.302-39.132 8.226-11.43.671-13.893.369-24.666-3.027-6.583-2.075-13.77-4.99-15.97-6.478-5.348-3.616-15.332-13.039-15.332-14.47 0-.63-1.489-3.096-3.308-5.481-5.406-7.088-7.537-15.035-7.845-29.258-.2-9.18.25-13.868 1.498-15.65.98-1.4 2.532-4.709 3.447-7.353 1.404-4.056 2.704-5.173 8.32-7.15 4.7-1.656 7.612-1.99 9.916-1.137 2.063.763 4.394.69 6.346-.2 1.696-.773 4.164-1.405 5.484-1.405 1.32 0 3.784-1.2 5.475-2.667 1.691-1.466 4.65-2.666 6.574-2.666 1.925 0 4.683-.802 6.13-1.78 1.446-.98 8.63-4.03 15.963-6.777 7.333-2.747 16.114-6.446 19.513-8.219 3.4-1.773 6.853-3.224 7.673-3.224.822 0 4.603-1.5 8.403-3.334 3.8-1.833 7.847-3.352 8.993-3.375 1.146-.023 3.249-.924 4.672-2 1.424-1.077 3.832-1.958 5.352-1.958 4.336 0 16.836-4.97 20.017-7.96 1.814-1.704 4.693-2.707 7.769-2.707 4.593 0 10.707-1.835 20.476-6.146 2.31-1.02 5.518-1.854 7.127-1.854 1.61 0 4.519-.817 6.465-1.815 6.247-3.204 12.77-5.14 16.705-4.96 2.108.097 7.08-1.039 11.05-2.524 3.97-1.486 9.004-2.7 11.186-2.7 2.182 0 5.01-.527 6.283-1.17 3.634-1.836 11.125-3.977 17.316-4.949 3.116-.489 5.666-1.348 5.666-1.91 0-1.44 15.157-3.943 18.534-3.06 1.54.403 2.8.128 2.8-.61 0-.739 1.95-1.661 4.333-2.05 17.115-2.789 28.057-4.901 34.642-6.687 4.204-1.14 13.804-2.808 21.334-3.706 7.53-.898 14.046-2.166 14.48-2.817.793-1.19 9.843-2.826 27.21-4.92 5.134-.62 12.634-1.766 16.667-2.548 4.034-.782 12.734-2.11 19.334-2.953 6.6-.842 15-2.084 18.666-2.758 3.667-.675 18.95-1.533 33.963-1.906 22.204-.552 27.501-1.046 28.4-2.65 1.598-2.858 5.982-2.421 6.97.693.466 1.467 1.8 2.667 2.965 2.667 2.106 0 11.299 6.265 12.147 8.278.244.58 1.251 1.055 2.238 1.055.987 0 4.02 2.1 6.742 4.667 2.722 2.567 5.593 4.667 6.38 4.667 2.755 0 14.39 14.071 18.189 22 5.833 12.171 5.75 14.255-.66 16.443-7.121 2.431-17.23 3.935-42 6.25-11.367 1.061-23.713 2.56-27.436 3.332-3.724.77-7.727 1.034-8.896.585-1.17-.449-3.41-.129-4.978.71-3.049 1.632-13.186 3.15-36.69 5.497-8.067.806-15.567 2.206-16.667 3.113-1.1.906-6.5 2.397-12 3.312s-12.4 2.458-15.333 3.43c-2.934.97-8.184 2.154-11.667 2.628-3.483.475-6.333 1.405-6.333 2.068 0 3.155-8.428 5.496-38.667 10.74-4.767.826-11.367 2.266-14.667 3.2l-12.437 3.515c-3.54 1.001-7.084 2.6-7.875 3.553-2.08 2.506 3.38 12.81 8.72 16.458 5.527 3.776 26.259 24.663 26.259 26.454 0 .758.547 1.378 1.216 1.378.669 0 1.622 2.404 2.118 5.341.5 2.959 2.05 6.144 3.474 7.142 3.169 2.22 6.531 14.575 6.508 23.916-.02 8.151-4.03 21.79-8.896 30.261-3.452 6.01-10.255 13.34-12.38 13.34-.621 0-4.336 2.613-8.257 5.806-6.357 5.179-10.142 7.225-14.948 8.079-.826.147-5.701 2.318-10.834 4.824-5.133 2.507-12.633 5.074-16.667 5.706-11.457 1.795-28.461 2.394-30.667 1.081zM501.07 1196.36c-3.431-3.102-7.18-7.557-8.33-9.9-4.147-8.45-2.387-37.425 2.9-47.74a606.49 606.49 0 0 0 3.193-6.315c.628-1.273 1.143-4.042 1.143-6.153 0-2.111 1.117-5.27 2.483-7.018 1.366-1.75 2.934-4.68 3.484-6.514 1.366-4.55 7.58-16 8.684-16 .491 0 .89-1.05.883-2.333-.037-8.566.421-9.667 4.027-9.667 1.96 0 4.54.886 5.736 1.968 1.841 1.666 4.063 1.744 14.502.51 10.767-1.273 13.09-1.167 18.338.837 5.642 2.155 6.639 2.16 16.27.084 21.964-4.733 24.106-5.076 26.34-4.22 1.34.515 3.283 0 4.641-1.229 1.309-1.184 5.77-2.419 10.14-2.806 4.293-.381 9.312-1.258 11.154-1.948 1.842-.691 6.342-1.803 10-2.47 3.658-.668 14.75-3.25 24.65-5.738 9.9-2.488 21.6-5.325 26-6.305 4.4-.98 16.1-3.84 26-6.357 19.712-5.01 27.261-6.806 31.347-7.46 1.473-.236 3.984-1.127 5.579-1.98 1.595-.854 5.34-1.553 8.32-1.553 2.982 0 5.422-.514 5.422-1.143 0-.63 5.25-2.476 11.666-4.103 6.417-1.628 14.667-3.781 18.334-4.786 3.666-1.004 12.666-3.42 20-5.368 7.333-1.949 17.533-4.734 22.666-6.19 5.134-1.458 11.134-2.946 13.334-3.308 2.2-.363 5.89-1.509 8.201-2.547 2.31-1.038 5.078-1.888 6.15-1.888 1.071 0 7.76-1.844 14.865-4.098 7.105-2.254 14.238-4.245 15.85-4.424 1.614-.18 4.244-1.036 5.846-1.902 1.602-.867 4.302-1.576 6-1.576 1.698 0 6.688-1.184 11.088-2.63 4.4-1.448 17-5.374 28-8.726 11-3.351 26.6-8.14 34.666-10.644 23.193-7.195 32.979-10 34.892-10 .976 0 1.775-.532 1.775-1.182 0-.65 2.703-1.587 6.007-2.083 3.304-.495 7.653-1.754 9.664-2.798 2.01-1.043 6.958-2.85 10.993-4.013 4.035-1.164 10.336-3.183 14.003-4.487a703.858 703.858 0 0 1 14-4.767c4.033-1.32 7.933-2.834 8.666-3.367.734-.532 3.134-1.294 5.334-1.692 3.966-.717 14.871-4.156 20-6.307 1.466-.615 5.066-1.83 8-2.702 2.933-.87 7.133-2.32 9.333-3.22 2.2-.899 7.3-2.572 11.333-3.716a3296.736 3296.736 0 0 0 16.667-4.796c5.133-1.493 10.683-3.09 12.333-3.549 1.65-.459 3-1.307 3-1.885 0-.577 4.802-2.088 10.67-3.356 6.376-1.377 11.34-3.22 12.333-4.58 1.114-1.522 5.06-2.752 11.935-3.72 5.649-.795 12.64-2.68 15.535-4.19 4.27-2.225 7.998-2.783 19.729-2.95 17.364-.25 30.138.921 36.465 3.342 2.567.983 7.667 2.548 11.333 3.48 3.667.93 7.419 2.737 8.338 4.013.919 1.277 3.769 3.013 6.333 3.86 2.564.846 4.663 2.296 4.663 3.222 0 .925 2.406 2.477 5.347 3.448 2.942.97 7.592 4.037 10.334 6.813 2.742 2.777 7.277 7.329 10.078 10.115 7.234 7.198 15.345 15.428 17.266 17.52 6.412 6.981 19.481 18.001 23.183 19.548 2.452 1.025 4.458 2.494 4.458 3.264 0 .771.866 1.402 1.925 1.402 1.058 0 2.988 1.8 4.288 4.001 1.3 2.201 3.562 4.382 5.025 4.847 1.464.464 3.777 2.263 5.142 3.998 1.364 1.734 3.1 3.154 3.858 3.154 1.276 0 7.052 4.185 11.762 8.522 1.1 1.013 4.966 4.094 8.59 6.846 10.056 7.638 10.15 7.717 13.861 11.632 1.912 2.016 4.406 3.666 5.543 3.666 1.137 0 4.14 2.4 6.673 5.334 2.533 2.933 5.67 5.333 6.97 5.333 1.3 0 2.363.556 2.363 1.236 0 1.757 28.189 30.064 31 31.13 1.284.486 2.334 2.097 2.334 3.58 0 1.484 1.2 3.447 2.666 4.363 1.467.916 2.667 2.721 2.667 4.012 0 1.29.6 2.346 1.333 2.346.734 0 1.334.655 1.334 1.456 0 .801 1.198 2.98 2.662 4.84 3.328 4.232 5.132 10.905 5.507 20.37.16 4.034.88 8.3 1.599 9.482.931 1.53.673 3.055-.897 5.297-1.212 1.731-2.205 4.256-2.205 5.61 0 3.927-11.299 14.532-18.327 17.201-7.376 2.802-11.251 2.976-19.987.901-15.661-3.72-21.289-5.82-25.083-9.363-2.234-2.087-5.311-3.794-6.836-3.794-1.526 0-3.467-.836-4.314-1.857-.848-1.021-3.321-2.594-5.497-3.495-2.176-.901-3.956-2.466-3.956-3.477 0-1.01-.787-1.838-1.75-1.838s-4.821-1.481-8.574-3.292c-3.753-1.81-8.978-3.529-11.612-3.819-2.633-.29-5.825-1.402-7.093-2.471-3.105-2.62-12.968-5.627-15.396-4.695-2.084.8-10.652-2.993-18.094-8.01-2.486-1.675-6.118-3.046-8.072-3.046-2.294 0-5.119-1.616-7.974-4.563-2.433-2.51-6-4.945-7.929-5.414-3.083-.748-18.392-10.428-20.172-12.754-1.15-1.502-11.884-7.936-13.24-7.936-3.44 0-14.949-9.241-31.623-25.394-4.508-4.367-8.708-7.957-9.334-7.979-.625-.022-4.569-3.241-8.764-7.155-4.195-3.914-9.445-7.869-11.667-8.789-2.221-.92-4.04-2.2-4.04-2.845 0-.644-.807-1.171-1.795-1.171-.988 0-3.148-1.172-4.8-2.605-5.119-4.44-30.24-6.24-44.07-3.159-4.034.9-13.334 2.531-20.667 3.627-12.81 1.914-22.71 4.396-32.667 8.187-2.567.978-7.067 2.492-10 3.366-2.933.873-6.3 2.428-7.48 3.456-1.18 1.028-4.195 2.13-6.7 2.452-5.983.766-15.82 4.274-18.42 6.57-1.137 1.003-3.753 1.812-5.813 1.798-2.06-.014-5.96.9-8.667 2.03-2.706 1.13-12.532 4.774-21.836 8.096-12.85 4.59-18.058 5.856-21.667 5.27-3.099-.503-4.75-.246-4.75.737 0 .83-1.067 1.508-2.37 1.508-1.304 0-3.737.957-5.406 2.126-1.8 1.261-4.304 1.808-6.152 1.345-3.053-.767-14.534 3.373-16.019 5.775-.398.644-3.814 1.596-7.592 2.116-3.778.52-8.727 1.72-10.999 2.67-2.271.949-5.724 1.42-7.672 1.048-2.298-.439-4.873.274-7.333 2.032-2.085 1.49-8.29 3.989-13.79 5.553-5.5 1.565-12.54 3.782-15.643 4.928-3.16 1.167-7.346 1.743-9.517 1.309-2.77-.555-4.5-.085-6.068 1.647-1.249 1.38-4.9 2.75-8.483 3.182-3.46.417-9.29 2.105-12.956 3.75-3.667 1.645-8.377 2.87-10.467 2.724-2.09-.147-5.632.646-7.871 1.764-2.24 1.117-4.73 2.037-5.534 2.044-.804.01-4.7 1.52-8.658 3.363-4.444 2.068-10.413 3.56-15.608 3.899-6.21.406-9.73 1.445-13.447 3.97-2.769 1.882-6.695 3.422-8.725 3.422-2.03 0-3.69.6-3.69 1.333s-1.82 1.333-4.042 1.333c-2.223 0-4.362.834-4.753 1.853-.392 1.021-1.801 1.567-3.141 1.217-1.337-.35-2.833.017-3.326.814-.493.797-2.168 1.45-3.722 1.45-3.412 0-10.963 2.248-16.124 4.8-2.077 1.026-5.036 1.866-6.576 1.866s-7.042 1.415-12.225 3.143c-5.184 1.73-12.725 4.115-16.758 5.302a794.54 794.54 0 0 0-13.713 4.19c-3.51 1.118-7.567 2.032-9.018 2.032-1.451 0-3.68.541-4.954 1.203-1.273.662-5.015 1.89-8.315 2.73-3.3.84-9.6 2.649-14 4.02-9.812 3.06-21.049 5.635-25.788 5.912-4.66.272-25.76 6.93-34.212 10.794-9.887 4.522-11.326 4.873-10.435 2.55.56-1.46-1.314-1.04-7.068 1.582-4.307 1.962-10.23 4.158-13.164 4.879-2.933.72-6.375 1.84-7.648 2.487-1.274.647-3.843 1.176-5.71 1.176s-5.325.806-7.685 1.791c-2.36.985-6.69 2.236-9.623 2.78-2.934.543-6.234 1.76-7.334 2.701-3.192 2.735-9.09 3.783-22.952 4.08-9.382.202-13.871.881-16.286 2.464-2.212 1.449-6.157 2.175-11.715 2.157-7.964-.026-8.69-.307-14.619-5.667zm31.572-100.617c2.462-.763 2.411-.9-.666-1.792-3.683-1.066-13.334-1.553-13.334-.673 0 .307-.396 1.59-.88 2.85-.785 2.047-.178 2.193 5.667 1.366 3.6-.509 7.747-1.297 9.213-1.751zm1393.334 28.886c-5.134-1.383-10.898-2.528-12.809-2.545-1.91-.017-6.225-2.13-9.586-4.697-3.362-2.567-6.537-4.667-7.057-4.667-.52 0-3.024-2.14-5.563-4.754l-4.618-4.755 2.858-3.042c1.572-1.674 4.49-3.873 6.483-4.887 6.172-3.141 14.194-8.418 16.336-10.747 1.124-1.223 4.724-3.599 8-5.28 3.275-1.681 6.256-3.424 6.622-3.872.367-.448 2.558-1.578 4.868-2.512 2.311-.934 5.566-3.15 7.233-4.925 1.667-1.774 3.629-3.226 4.36-3.226.731 0 2.333-.908 3.56-2.018 1.226-1.11 5.473-3.727 9.438-5.816 3.964-2.088 10.09-5.38 13.612-7.315 3.522-1.934 7.799-3.517 9.504-3.517 5.167 0 18.34-5.683 23.425-10.106 1.834-1.594 6.334-4.538 10-6.54 3.667-2.003 7.267-4.012 8-4.463.734-.451 1.934-.873 2.667-.937 2.782-.243 12.043-4.983 13.006-6.656.553-.962 3.853-2.796 7.333-4.076 3.48-1.28 8.238-3.729 10.572-5.442 2.334-1.712 5.784-3.114 7.667-3.114 1.882 0 3.422-.6 3.422-1.333s.812-1.333 1.805-1.333c.993 0 3.4-1.479 5.35-3.285 1.95-1.807 4.377-2.966 5.393-2.576 1.017.39 2.235.085 2.706-.677.47-.763 3.676-2.634 7.122-4.158 3.447-1.525 9.024-4.542 12.395-6.705 3.371-2.163 6.868-3.933 7.772-3.933.904 0 4.334-1.851 7.623-4.114 3.29-2.263 6.828-3.79 7.865-3.392 1.036.398 2.24.148 2.674-.555.434-.703 7.204-4.494 15.042-8.423 7.84-3.93 17.22-9.028 20.847-11.33 3.627-2.302 7.11-4.186 7.74-4.186 1.104 0 9.353-3.45 17.666-7.39 2.2-1.043 6.1-2.812 8.667-3.93 2.566-1.119 6.6-3.459 8.964-5.2 2.364-1.742 6.945-3.563 10.18-4.048 3.235-.485 6.944-2.056 8.242-3.49 1.298-1.435 3.118-2.608 4.045-2.608s6.067-2.1 11.422-4.667c5.356-2.567 10.459-4.667 11.34-4.667.88 0 3.352-1.75 5.492-3.89 5.2-5.2 12.32-9.432 15.878-9.438 1.593-.003 5.493-2.11 8.666-4.683 3.174-2.573 8.77-6.112 12.437-7.865 3.667-1.752 9.027-4.804 11.912-6.781 2.885-1.977 6.485-4.147 8-4.822 1.515-.675 4.555-2.402 6.755-3.84 2.2-1.436 8.2-4.764 13.333-7.395 5.134-2.631 9.904-5.347 10.6-6.035.697-.688 2.44-1.25 3.874-1.25 1.435 0 4.465-1.414 6.734-3.142s5.476-3.568 7.126-4.09c1.65-.522 3-1.461 3-2.088 0-.628 2.25-1.877 5-2.777 2.75-.9 12.62-5.447 21.936-10.104 9.314-4.656 17.251-8.466 17.637-8.466.386 0 5.365-2.164 11.064-4.807 22.153-10.277 44.7-19.188 48.611-19.213 1.697-.01 5.629-.905 8.738-1.989 4.542-1.582 7.033-1.681 12.667-.504 3.857.805 7.583 2 8.28 2.655.697.655 2.704 1.191 4.46 1.191 1.758 0 4.788 1.12 6.734 2.487 4.685 3.293 11.89 6.939 14.833 7.505 1.302.251 3.825 1.855 5.608 3.565 1.782 1.71 6.08 5.51 9.55 8.443 3.471 2.933 8.05 8.404 10.175 12.157s4.953 7.242 6.285 7.753c3.055 1.173 43.406.727 61.088-.675 7.334-.582 20.534-1.41 29.334-1.843 8.8-.432 22.3-1.36 30-2.06 7.7-.7 17.9-1.626 22.666-2.056 4.767-.43 13.99-1.025 20.495-1.323 6.505-.298 13.003-.915 14.44-1.371 1.436-.456 8.113-1.068 14.838-1.36 6.725-.291 16.427-1.052 21.56-1.69 5.64-.7 9.96-.67 10.915.08.983.77 2.535.73 4.1-.108 1.385-.741 13.274-1.762 26.419-2.269 13.145-.506 24.624-1.493 25.508-2.193.885-.7 2.333-.824 3.218-.277.885.547 6.615.938 12.733.868 8.187-.093 11.676-.678 13.212-2.213 1.147-1.148 4.293-2.147 6.99-2.22 2.698-.074 10.906-.655 18.239-1.291 28.38-2.463 35.653-2.765 65.976-2.736 42.186.04 44.637.558 38.69 8.16-1.433 1.834-2.62 4.619-2.636 6.19-.02 1.861-1.107 3.125-3.127 3.632-1.704.428-5.336 2.296-8.072 4.153-3.696 2.508-5.58 3.052-7.33 2.115-1.878-1.005-2.825-.466-4.67 2.658-1.691 2.863-3.328 3.919-6.076 3.919-2.07 0-4.447.825-5.284 1.834-.837 1.008-3.839 2.204-6.672 2.657-3.625.58-5.357 1.615-5.85 3.5-.582 2.226-1.813 2.676-7.328 2.676-4.265 0-7.22.713-8.288 2-.913 1.1-3.236 2.02-5.163 2.047-1.927.026-4.945.846-6.706 1.822-1.762.976-4.315 1.484-5.674 1.129-1.359-.356-3.339.074-4.4.954-1.06.88-3.12 1.223-4.578.76-1.615-.512-5.263.485-9.353 2.557-4.687 2.375-8.838 3.397-13.8 3.397-4.583 0-8.965.977-12.377 2.759-3.893 2.033-8.787 2.95-18.615 3.484-8.052.438-13.862 1.37-14.667 2.354-.733.895-7.633 2.329-15.333 3.185-7.7.857-19.7 2.19-26.667 2.962-13.597 1.508-24.17 3.286-32.6 5.484-7.737 2.017-30.576 5.192-42.067 5.848-10.859.62-22.926 1.863-38 3.912-2.933.399-6.833.637-8.666.529-8.591-.507-20.28.888-24.667 2.945-2.572 1.205-11.06 2.397-38 5.333-18.144 1.978-52.096-.477-56.667-4.097-.733-.581-3.21-1.457-5.505-1.948-5.486-1.171-24.466-18.891-28.267-26.39-1.587-3.13-4.329-9.293-6.092-13.693-3.411-8.51-6.915-10.745-10.78-6.88-1.982 1.983-5.434 3.34-22.69 8.915-5.132 1.659-10.832 4.356-12.666 5.995-3.221 2.878-22.525 12.516-29.333 14.645-1.833.573-5.15 2.425-7.371 4.116-2.221 1.691-6.421 4.165-9.334 5.498-7.155 3.275-18.03 9.637-21.295 12.459-1.467 1.267-4.767 3.429-7.333 4.804-2.567 1.374-8.46 5.037-13.095 8.14-4.635 3.103-9.25 5.641-10.254 5.641-1.005 0-2.179.569-2.608 1.263-.793 1.283-13.275 8.397-25.377 14.463-3.666 1.838-8.466 4.677-10.666 6.31-2.2 1.632-6.22 3.679-8.935 4.548-2.714.869-7.078 3.034-9.697 4.812-2.62 1.778-7.6 4.461-11.066 5.964-3.466 1.502-7.202 3.3-8.302 3.996-2.583 1.632-11.378 5.718-17.334 8.052-2.566 1.006-6.662 3.175-9.1 4.82-2.44 1.644-5.74 3.35-7.334 3.792-7.003 1.936-23.447 8.954-44.9 19.16-6.232 2.965-12.988 5.78-15.012 6.254-2.023.474-4.009 1.395-4.412 2.047-.403.652-1.909 1.186-3.347 1.186-2.701 0-12.364 5.523-13.839 7.91-.46.743-3.242 1.999-6.183 2.79-2.941.793-10.38 3.81-16.529 6.704-6.15 2.894-11.713 5.263-12.363 5.263-.65 0-2.592 1.5-4.314 3.333-1.722 1.833-4.491 3.333-6.154 3.333-1.662 0-3.408.625-3.88 1.388-.781 1.265-5.043 3.388-23.633 11.77-3.483 1.57-6.333 3.357-6.333 3.97s-3.45 1.882-7.667 2.82c-4.216.939-9.166 2.717-11 3.952-1.833 1.234-5.848 3.337-8.921 4.673-3.074 1.335-5.905 3.253-6.292 4.261-.386 1.008-1.606 1.833-2.71 1.833-1.878 0-10.476 3.517-18.091 7.4-1.841.939-9.767 4.118-17.613 7.065-7.845 2.947-16.239 6.217-18.652 7.266-7.482 3.252-14.617 5.823-26.387 9.51a3893.646 3893.646 0 0 0-17.334 5.468c-3.3 1.056-9.9 2.755-14.666 3.776-4.767 1.02-9.567 2.174-10.667 2.564-1.1.389-6.2-.424-11.333-1.807z" style="fill:#000;stroke-width:1.33333"/>
</svg>
