<svg xmlns="http://www.w3.org/2000/svg" xml:space="preserve" width="210mm" height="297mm" viewBox="0 0 210 297">
  <path d="M63.807 240.584c-.505-.032-1.049-.1-1.21-.152a2.4 2.4 0 0 0-.607-.093c-.2 0-.333-.044-.363-.122-.043-.113-.245-.215-.525-.264-.15-.026-.611-.359-.699-.504-.037-.061-.112-.11-.168-.11-.115 0-.387-.253-.803-.746-.158-.187-.334-.34-.39-.34-.058 0-.128-.075-.157-.166-.03-.092-.086-.167-.125-.167-.086 0-.334-.478-.334-.642 0-.063-.056-.2-.123-.303-.095-.145-.128-.547-.146-1.77-.026-1.775.074-4.333.178-4.536.037-.073.09-.333.118-.577.09-.802.375-1.261 1.407-2.272.519-.509 1.133-1.05 1.364-1.204.232-.153.588-.455.793-.67l.557-.586c.103-.107.325-.3.495-.429.17-.13.481-.4.69-.6.21-.201.498-.464.641-.584.264-.223 1.438-1.75 1.743-2.267.092-.155.237-.397.323-.536.142-.23 1.014-1.963 1.517-3.014.112-.234.205-.497.205-.584 0-.088.113-.38.25-.65.138-.27.25-.59.251-.71 0-.12.079-.499.174-.843.328-1.193.571-2.862.737-5.054.081-1.077.036-2.993-.075-3.2-.048-.09-.087-.305-.087-.48 0-.32-.179-1.45-.327-2.07a61.256 61.256 0 0 1-.173-.751 5.428 5.428 0 0 0-.16-.584 15.44 15.44 0 0 1-.4-1.19c-.072-.24-.163-.437-.203-.437-.039 0-.071-.065-.071-.144 0-.217-.328-1.26-.552-1.757-.11-.242-.2-.476-.2-.521a.082.082 0 0 0-.083-.081c-.046 0-.083-.076-.083-.168 0-.093-.108-.365-.24-.605-.133-.24-.263-.531-.29-.647a.995.995 0 0 0-.208-.383 1.094 1.094 0 0 1-.218-.434c-.032-.144-.167-.38-.302-.523-.134-.144-.244-.315-.244-.381 0-.19-.329-.784-.462-.835-.067-.026-.122-.11-.122-.189 0-.078-.066-.216-.146-.306a2.685 2.685 0 0 1-.297-.46 13.817 13.817 0 0 0-.521-.87c-.204-.317-.37-.643-.37-.725 0-.082-.057-.149-.126-.149s-.125-.036-.125-.08c0-.044-.108-.204-.24-.355a4.17 4.17 0 0 1-.46-.712c-.121-.24-.26-.438-.307-.438-.047 0-.134-.114-.193-.254s-.284-.45-.5-.689c-.552-.608-1.22-1.48-1.22-1.591 0-.052-.131-.199-.292-.326a1.846 1.846 0 0 1-.416-.474c-.068-.133-.204-.267-.3-.297-.097-.03-.24-.193-.317-.36-.077-.168-.185-.315-.24-.326-.13-.026-.855-.721-.855-.82 0-.042-.29-.362-.646-.71a17.39 17.39 0 0 1-.897-.935c-.138-.166-.296-.304-.353-.306-.056-.002-.155-.107-.22-.233a1.53 1.53 0 0 0-.4-.43 3.594 3.594 0 0 1-.529-.496 18.182 18.182 0 0 0-.459-.52 2.885 2.885 0 0 1-.3-.38.426.426 0 0 0-.267-.181c-.098-.015-.222-.134-.283-.272-.06-.134-.156-.245-.214-.245-.058 0-.208-.146-.334-.326a1.933 1.933 0 0 0-.479-.472 2.23 2.23 0 0 1-.38-.279 4.826 4.826 0 0 0-.405-.341c-.334-.255-.675-.602-.675-.688 0-.034-.054-.063-.12-.063-.123 0-1.632-1.474-1.632-1.593 0-.035-.122-.151-.271-.257-.15-.106-.498-.428-.776-.715s-.55-.522-.605-.522c-.055 0-.24-.123-.413-.274a6.874 6.874 0 0 0-.672-.505c-.197-.126-.38-.285-.405-.351a.198.198 0 0 0-.168-.121c-.067 0-.448-.317-.846-.705a48.023 48.023 0 0 0-.975-.928 56.933 56.933 0 0 1-.837-.776 29.078 29.078 0 0 0-1.034-.929c-.247-.206-.57-.497-.717-.646-.148-.15-.31-.271-.36-.271-.105 0-.39-.244-1.171-1.002a187.84 187.84 0 0 1-1.805-1.757 39.5 39.5 0 0 0-.542-.528 36.505 36.505 0 0 1-.91-.913c-.248-.26-.501-.473-.563-.473-.062 0-.112-.028-.112-.062 0-.136-1.546-1.773-1.673-1.773-.037 0-.091-.066-.12-.146-.027-.08-.236-.296-.462-.48-.227-.183-.413-.377-.414-.43 0-.054-.31-.412-.69-.796-1.103-1.122-1.632-1.717-1.833-2.068-.104-.18-.264-.347-.356-.372-.092-.025-.315-.252-.495-.505-.18-.252-.358-.46-.396-.46-.038 0-.069-.048-.069-.107 0-.06-.172-.275-.381-.48a8.698 8.698 0 0 1-.822-.998c-.242-.344-.504-.679-.582-.743-.078-.065-.213-.272-.299-.459a3.624 3.624 0 0 0-.492-.72c-.338-.38-.506-.6-1.045-1.376a4.945 4.945 0 0 0-.505-.619c-.117-.11-.212-.248-.212-.307 0-.06-.075-.148-.167-.197-.092-.05-.244-.24-.338-.426a3.015 3.015 0 0 0-.418-.593c-.135-.142-.246-.318-.246-.391 0-.214-.365-.874-.845-1.53a11.457 11.457 0 0 1-.584-.863 16.008 16.008 0 0 0-.314-.542c-.096-.157-.175-.35-.175-.428a.264.264 0 0 0-.119-.208c-.065-.037-.197-.267-.293-.51a6.21 6.21 0 0 0-.507-.945c-.183-.276-.333-.568-.333-.65 0-.081-.112-.313-.249-.515-.136-.202-.249-.4-.25-.439-.002-.134-.376-.888-.439-.888-.035 0-.063-.069-.063-.153 0-.085-.075-.222-.167-.305-.092-.083-.167-.218-.167-.3 0-.082-.037-.173-.083-.201-.046-.028-.084-.158-.084-.288 0-.13-.112-.451-.25-.713-.137-.262-.25-.554-.25-.648 0-.095-.025-.148-.056-.117-.05.05-.316-.578-.417-.987-.04-.162-.068-.236-.268-.734a1.4 1.4 0 0 1-.093-.428.436.436 0 0 0-.126-.298c-.068-.057-.125-.158-.125-.224s-.09-.315-.2-.553c-.194-.419-.521-1.56-.61-2.129-.024-.153-.096-.297-.16-.322-.077-.03-.114-.187-.114-.487 0-.262-.04-.456-.097-.475-.054-.018-.107-.2-.12-.404a2.523 2.523 0 0 0-.158-.692 3.145 3.145 0 0 1-.179-.751l-.087-.846c-.024-.23-.093-.474-.152-.543-.06-.068-.13-.331-.154-.584-.122-1.224-.165-1.865-.18-2.67-.008-.481-.061-1.044-.117-1.251-.097-.356-.079-2.179.03-3.159.023-.2.005-.432-.04-.516-.053-.1-.053-.17 0-.204.094-.057.07-.782-.03-.944-.036-.059-.02-.16.035-.228.064-.077.088-.315.066-.663-.033-.507.02-.682.132-.439.026.057.026.018 0-.088-.08-.318-.046-1.292.046-1.349.047-.03.109-.239.137-.466.028-.227.117-.508.2-.626.106-.152.142-.336.125-.647-.013-.238.008-.453.046-.477.039-.023.06-.344.046-.712-.02-.58-.003-.68.13-.752.085-.045.154-.137.154-.205 0-.067.034-.122.076-.122.041 0 .092-.197.112-.438.02-.24.118-.644.219-.897.1-.252.205-.75.233-1.105.034-.423.087-.647.153-.647.06 0 .122-.174.151-.42.027-.23.104-.473.171-.54.067-.067.146-.281.177-.477.09-.58.133-.69.218-.555.052.083.073.056.074-.098 0-.117.038-.25.083-.295.046-.045.096-.193.113-.33.03-.244.17-.63.315-.872a2.24 2.24 0 0 0 .125-.25c.175-.436.3-.668.36-.668.037 0 .093-.152.122-.338.031-.191.09-.315.137-.286.046.028.106-.064.134-.205.028-.14.077-.256.108-.256.03 0 .106-.14.168-.313.061-.172.135-.331.164-.354.06-.049.508-.967.508-1.042 0-.029.078-.222.173-.43.095-.21.154-.43.13-.49-.023-.06.012-.13.078-.156.066-.025.12-.125.12-.221 0-.284.333-.804.444-.694.025.026.094-.182.151-.462.064-.309.148-.51.214-.51a.11.11 0 0 0 .108-.11c0-.06.083-.198.185-.306.122-.131.15-.21.083-.232-.055-.018-.1-.07-.1-.115 0-.044.036-.059.08-.03.045.027.104-.056.132-.184.132-.603.377-1 .55-.892.04.024.072.007.072-.038s-.047-.098-.105-.119c-.072-.025-.047-.1.084-.241.103-.113.187-.25.187-.304 0-.054.076-.099.167-.099.117 0 .168-.056.169-.187.002-.24.693-1.606.812-1.606.143 0 .194-.086.307-.515.059-.222.148-.394.2-.383.05.01.07-.035.045-.103-.044-.115.101-.347.53-.847.103-.12.21-.345.24-.501.029-.156.124-.322.21-.368.086-.046.157-.14.157-.206 0-.068.03-.123.067-.123.036 0 .115-.135.175-.3.113-.312.365-.617.509-.617.046 0 .083-.073.083-.162 0-.09.038-.186.084-.214.046-.028.083-.115.083-.193 0-.079.113-.235.25-.35.138-.113.25-.265.25-.337 0-.072.076-.212.168-.31.092-.099.167-.205.167-.235s.15-.28.333-.555c.184-.275.334-.53.334-.567 0-.037.124-.194.276-.35.151-.156.325-.404.385-.55.06-.146.162-.266.225-.266.064 0 .115-.056.115-.125s.038-.125.084-.125c.046 0 .083-.096.083-.214 0-.166.033-.204.146-.17.107.034.224-.07.438-.39.16-.24.316-.494.346-.565.03-.072.245-.332.48-.579.234-.247.426-.494.426-.55 0-.055.122-.208.27-.34.15-.13.288-.275.308-.32.04-.096.025-.078.784-.868.314-.326.605-.593.647-.593.042 0 .076-.04.076-.091 0-.113.486-.576.604-.576.05 0 .064-.103.035-.25-.035-.176-.018-.25.058-.25.06 0 .197-.095.305-.21.107-.114.248-.208.311-.208.064 0 .254-.153.424-.34.169-.188.402-.442.517-.564.256-.273 1.065-.94 1.292-1.066.092-.05.167-.142.167-.204 0-.061.17-.234.376-.383s.45-.343.542-.43c.191-.183.653-.433.8-.433.085 0 .493-.376.493-.455 0-.093.505-.547.61-.547.085 0 .111-.054.08-.17-.038-.147-.015-.165.158-.121.16.04.227.006.317-.163.063-.117.183-.213.267-.213.084 0 .153-.037.153-.082 0-.045.095-.106.211-.135a.517.517 0 0 0 .295-.21c.046-.086.135-.157.197-.157.063 0 .135-.055.16-.12.026-.067.194-.161.375-.21.18-.049.374-.145.431-.213.057-.069.15-.125.208-.125.058 0 .152-.056.209-.125a.392.392 0 0 1 .264-.125c.088 0 .4-.244.692-.542.293-.298.568-.543.61-.543.122 0 .937-.764.937-.877 0-.132.984-.766 1.251-.806.115-.017.2-.076.189-.132-.012-.055.082-.121.208-.147.126-.025.344-.082.485-.126a1.94 1.94 0 0 1 .325-.08c.113 0-.026 1.116-.175 1.416-.102.203-.115.314-.051.416.047.077.067.24.044.363-.046.24.112.319.197.099.026-.07.094-.125.152-.125.057 0 .237-.104.401-.23l.784-.605c.268-.206.57-.419.67-.472.189-.1.331-.208.619-.47.09-.083.337-.246.547-.363a9.748 9.748 0 0 0 1.516-1.092c.2-.173.416-.344.48-.381.065-.037.217-.16.338-.271.121-.113.271-.205.333-.205.114 0 .251-.097.773-.554a5.04 5.04 0 0 1 .832-.532c.293-.148.55-.338.572-.42.021-.084.148-.19.28-.236.134-.046.243-.12.243-.162 0-.043.066-.1.146-.126.203-.067.862-.46 1.064-.634.091-.079.332-.191.534-.249.203-.058.423-.16.49-.226.166-.167 1.005-.698 1.101-.698.043 0 .172-.094.287-.21.114-.114.285-.208.379-.208.094 0 .17-.031.17-.07 0-.038.15-.141.333-.23.183-.087.333-.187.334-.221 0-.034.038-.063.084-.063.046 0 .337-.12.647-.269.31-.147.582-.271.605-.274.131-.018 1.335-.646 1.335-.697 0-.034.14-.112.313-.174.172-.062.353-.168.402-.236.052-.07.238-.126.438-.131.192-.005.348-.04.348-.075 0-.036.104-.108.23-.159.398-.16.809-.343.939-.416.301-.172 1.148-.572 1.208-.572.037 0 .22-.071.41-.158l.55-.25c.115-.05.266-.125.334-.165.216-.128.711-.261.967-.261.154 0 .283-.062.349-.167.057-.092.162-.167.233-.167.07 0 .284-.075.474-.167.19-.092.392-.167.45-.167.057 0 .32-.113.586-.25.266-.138.556-.25.646-.25.09 0 .373-.07.628-.156.256-.086.634-.2.84-.256.207-.055.545-.159.751-.231.207-.073.498-.15.647-.171.15-.022.293-.073.318-.113.026-.041.11-.075.187-.075.078 0 .251-.058.386-.128s.292-.11.349-.088c.057.022.145-.01.196-.072.05-.061.17-.092.263-.067.094.025.331-.036.528-.134.362-.18.631-.251 1.834-.48.364-.069.72-.157.792-.195.18-.095 1.042-.302 2.092-.502a57.61 57.61 0 0 0 1.419-.289c1.458-.327 1.846-.391 2.489-.413.382-.012.72-.061.75-.108.068-.103.706-.252 1.391-.324a5.16 5.16 0 0 0 .875-.176c.478-.156 1.525-.182 1.695-.041.092.076.134.079.157.009.053-.16.668-.336.796-.23.148.123 1.111.03 1.435-.137.308-.16.34-.16.34-.004 0 .16-.017.162.513-.08.493-.226.806-.271 1.218-.177.178.04.271.03.271-.029 0-.06.153-.073.467-.036.336.04.486.026.533-.05.14-.228 2.062-.447 2.286-.262.074.062.254.061.6-.001.272-.05.663-.102.87-.119.206-.016.517-.075.69-.13a.9.9 0 0 1 .586-.019c.184.057.335.056.464-.002.136-.06.237-.058.344.008.12.075.22.06.473-.072.245-.127.4-.153.655-.109.588.103.748.1.885-.02.1-.086.19-.095.348-.036.14.054.321.052.532-.007.233-.064.393-.062.592.01.15.054.352.073.45.042.098-.031.322-.01.496.048.244.08.372.083.551.008.325-.134 1.583-.138 2.094-.007.317.081.453.085.538.014.162-.134 1.423-.114 1.83.03.187.065.446.12.576.12.137 0 .27.06.317.145.076.135.096.132.28-.042.238-.223.291-.228.642-.052.192.095.321.112.445.056.105-.046.36-.049.632-.006.3.047.487.042.544-.015.13-.13.47-.105.524.038.048.125.447.181.447.063 0-.035.179-.069.397-.077.218-.007.64-.025.938-.04.299-.015.599.01.668.053.069.044.544.081 1.056.082.825.003.95.022 1.085.17.294.322.564.402 1.128.336 1.066-.126 1.582-.126 1.823-.001.169.087.243.094.266.025.022-.064.194-.018.507.136.345.169.538.217.705.175.636-.16.768-.152.936.05a.8.8 0 0 1 .167.426c.002.126.036.23.077.23.114 0 .181-.242.127-.457-.027-.106-.008-.218.042-.249.05-.03.09.003.09.075 0 .096.087.13.334.13.194 0 .334.04.334.095 0 .093.552.062 1.105-.063.177-.04.23-.02.23.083 0 .143.283.469.407.469.04 0 .092-.07.114-.156.036-.135.092-.147.447-.093.223.034.456.042.517.019.106-.04.175-.018.7.23.173.082.308.084.6.01.35-.087.391-.08.597.11.121.113.195.246.164.296-.062.1.097.335.227.335.046 0 .067-.132.048-.292-.023-.202 0-.292.075-.292.06 0 .108.028.108.063 0 .034.113.113.252.174.207.092.325.092.671.003.38-.097.45-.092.729.055.17.09.358.21.42.267.161.154.264.128.264-.068 0-.131.045-.166.188-.146.147.021.184.076.172.256-.014.197.016.23.209.23a.79.79 0 0 1 .343.078c.076.048.232.03.432-.05.237-.095.353-.103.483-.033a.63.63 0 0 0 .384.039c.124-.031.264-.01.34.053.07.06.322.11.559.114.372.006.445.035.537.216.103.204.105.204.106.02.002-.217.064-.23.289-.06a.614.614 0 0 0 .301.123c.077 0 .246.083.375.185.16.125.245.152.268.083.042-.124.491-.132.83-.014.245.086.248.094.16.426-.087.324-.08.348.158.538.302.242.59.273.495.054a2.125 2.125 0 0 1-.103-.43c-.034-.244-.019-.276.107-.228.08.031.195.016.254-.033.077-.064.243-.054.588.036.264.07.515.104.557.078.192-.118.812.34.812.6 0 .173.03.183.396.143.218-.024.422-.083.453-.13.078-.122.319.09.319.279 0 .08.06.17.132.198.186.071.202.066.202-.073 0-.068.103-.15.23-.182.372-.095 1.049-.07 1.085.04.019.054.074.099.124.099s.162.064.248.142c.17.153 1.133.436 1.5.44.16.001.257.067.339.231.064.13.166.215.234.197a.908.908 0 0 1 .705.125c.114.074.207.108.207.074s.056-.015.125.042a.387.387 0 0 1 .125.26c0 .228.124.193.243-.068.076-.168.12-.197.171-.113.05.079.185.099.463.067.294-.033.431-.01.545.093.31.28.41.345.525.345.186 0 .346.25.32.497-.013.128.033.272.106.333.072.06.13.188.131.286.001.137.019.15.076.06.041-.066.056-.239.032-.385-.024-.147-.002-.346.05-.442.088-.165.11-.168.436-.053.19.067.416.121.504.121.088 0 .25.09.358.198.139.139.338.216.663.257.255.031.485.093.512.135.026.043.113.078.193.078s.294.107.475.239.536.29.788.354c.253.063.523.169.602.235.079.067.334.17.567.23.234.06.564.218.733.351.17.134.525.304.789.379.317.09.48.179.48.264 0 .09.05.113.162.077.239-.076.823.105.919.283.094.176.27.263.629.31.138.018.262.068.276.11.015.043.196.16.404.26.207.1.395.232.418.291.023.06.193.134.377.165.185.031.404.124.486.207a.993.993 0 0 0 .346.21c.108.032.252.107.321.166.069.06.257.168.417.243.4.186.639.33.82.493.084.076.212.139.285.139.073 0 .145.028.16.062.016.035.193.174.393.31.2.137.404.334.452.439.057.125.16.19.302.192.12 0 .38.076.58.167.2.09.45.165.556.165.258 0 .466.084.414.168-.023.038.202.095.5.127.487.052.581.094.905.403.199.19.509.48.689.644.18.164.419.478.53.697.113.218.3.459.418.534.117.075.347.278.51.45.163.173.356.314.428.314.141 0 .401.339.401.522 0 .06.216.236.48.39.264.153.66.387.882.518.22.131.435.238.475.238.04 0 .104.051.14.113.037.062.265.253.505.425.241.172.439.339.439.371 0 .033.132.107.294.165.161.059.375.217.474.35.1.135.23.245.292.245.125 0 .743.373.787.476.042.093.561.358.704.358.065 0 .118.066.118.146 0 .191.537.618.699.556.077-.03.238.068.415.25.16.165.315.3.344.3.03 0 .173.115.32.255.146.14.37.31.496.377.126.068.23.154.23.19 0 .12.419.265.618.215.127-.032.209-.007.24.074.026.068.192.204.37.304.177.1.358.263.402.363.044.1.167.195.274.21.215.03.253.058.981.72.28.254.546.462.592.462.127 0 .36.287.36.442 0 .085.104.164.271.207a.797.797 0 0 1 .438.328c.092.142.261.28.376.307.248.057.632.355 1.206.937.231.235.543.49.692.566.149.075.27.173.27.217 0 .044.17.236.377.427.207.19.424.444.48.564.058.12.217.266.354.326.44.193.5.24.525.409.014.093.152.226.316.304.16.076.312.195.338.264.027.069.116.125.198.125.083 0 .227.131.323.294.095.161.212.34.26.396.047.057.172.234.276.395.104.16.329.358.499.439.17.08.31.188.31.24 0 .05.194.266.431.478.703.63.913.868 1.087 1.237.09.193.302.454.47.582.489.37.808.714.954 1.032.075.162.241.392.37.511.128.12.34.334.47.477.13.143.267.26.304.26.037 0 .09.092.119.205.028.113.135.297.238.409.414.45.53.607.634.857.06.144.255.385.435.537.275.23.328.325.328.59 0 .25.06.372.292.598.16.156.292.321.292.368 0 .046.07.174.155.283.087.111.174.393.197.637.032.345.087.473.262.61.121.096.22.24.22.318 0 .08.045.189.1.243a.497.497 0 0 1 .117.247c.03.219.26.814.498 1.284.129.254.19.481.159.582-.03.095.005.254.08.37.074.112.155.383.18.6.048.404.267 1.024.363 1.024.028 0 .057.39.063.868.01.64.047.922.145 1.072.1.153.135.427.138 1.113.007 1.321-.007 1.605-.087 1.819-.04.106-.052.423-.027.706.038.413.019.546-.095.671-.09.1-.166.392-.21.812-.048.464-.132.766-.286 1.031-.12.207-.218.442-.219.522 0 .08-.032.146-.07.146-.038 0-.198.26-.355.577-.183.37-.374.63-.533.725a3.517 3.517 0 0 0-.514.403c-.147.14-.405.368-.574.506-.17.137-.352.288-.407.333-.16.134-.407.281-.683.406-.356.161-.85.611-1.092.993a2.5 2.5 0 0 1-.57.58c-.2.141-.414.374-.473.516a1.423 1.423 0 0 1-.338.454c-.161.135-.233.276-.236.459-.003.215-.078.321-.41.578-.401.308-.408.322-.408.772 0 .336-.046.515-.173.677-.095.12-.173.261-.173.313 0 .05-.19.256-.422.456-.232.2-.4.387-.371.415.028.028.085-.003.125-.07.062-.099.085-.092.136.04.035.09.024.172-.025.188-.047.016-.069.122-.047.235.035.18.01.205-.205.205-.312 0-.693.382-.693.693 0 .124-.037.225-.083.225-.046 0-.084.051-.084.114 0 .172.402.065.462-.123.082-.26.18-.18.23.186.036.272.011.382-.121.522-.125.133-.158.254-.128.482.037.284.023.307-.201.34-.133.02-.242.002-.242-.039 0-.04-.037-.05-.083-.022-.124.077-.102.262.074.626.157.324.157.326-.02.444-.176.117-.176.118.097.348.29.244.305.407.087.974-.078.204-.107.215-.333.136-.136-.047-.27-.063-.299-.035-.028.029.007.052.079.052.159 0 .231.172.231.549 0 .198.039.285.126.285.084 0 .125.085.125.26v.26l-.16-.198-.161-.197-.096.25a1.566 1.566 0 0 1-.247.418c-.116.126-.134.214-.078.363.067.173.112.19.374.141l.298-.055-.046.425c-.036.329-.018.437.076.473.142.055.168.535.037.667-.056.055-.06.158-.01.287.078.208.054 1.483-.033 1.757-.027.085-.116.155-.197.155-.082 0-.215.074-.297.164-.138.152-.14.194-.022.563.217.686.246.99.104 1.107-.176.147-.158.313.048.423.13.07.16.14.118.274-.03.1-.053.282-.048.405.004.124-.04.255-.097.292-.201.129-.302.567-.18.786.067.121.111.484.113.925.002.632-.018.74-.164.842-.123.086-.18.252-.22.63-.036.346-.09.514-.165.514-.16 0-.38.368-.317.531.082.213-.04.72-.173.72-.084 0-.113.098-.103.343.009.223-.031.376-.114.438-.196.146-.383.534-.588 1.222-.102.344-.267.738-.366.876-.218.304-.457.816-.457.98 0 .066-.074.187-.164.27a.888.888 0 0 0-.22.319c-.058.184-.069.2-.447.653-.14.166-.253.34-.253.386 0 .045-.058.13-.128.189-.07.058-.249.351-.396.651-.148.3-.353.638-.457.751-.103.113-.187.253-.187.312s-.088.176-.194.26a.834.834 0 0 0-.25.427c-.05.25-.429.854-.578.92-.035.015-.063.067-.063.115s-.131.212-.292.363c-.16.152-.292.334-.292.406 0 .072-.037.131-.083.131a.085.085 0 0 0-.084.087c0 .121-.287.417-.515.53-.105.053-.272.245-.372.428-.1.182-.237.388-.305.457a.888.888 0 0 0-.176.302c-.063.205-.688.866-.819.866-.112 0-.31.256-.313.405-.002.062-.098.188-.215.28a1.538 1.538 0 0 0-.354.47c-.079.166-.209.315-.289.33-.08.016-.362.259-.625.54-.264.281-.565.6-.668.707-.103.108-.188.248-.188.311 0 .064-.084.142-.187.174-.389.122-1.677 1.253-1.975 1.736-.1.162-.265.32-.366.35-.1.032-.427.236-.726.454-.298.218-.622.42-.72.451-.1.03-.268.185-.376.343-.108.16-.224.29-.257.29-.032 0-.25.17-.482.376-.233.206-.45.376-.483.376-.032.001-.225.151-.428.334-.203.183-.416.333-.473.333-.058 0-.23.14-.382.314-.153.172-.382.367-.51.432-.127.065-.253.202-.278.305-.028.112-.135.207-.27.24-.299.073-.762.393-.763.527 0 .06-.113.172-.25.25-.138.079-.25.17-.25.205 0 .034-.044.063-.097.063-.053 0-.225.15-.382.333-.158.184-.331.334-.386.334-.152 0-1.383 1.227-1.799 1.793-.203.276-.439.552-.525.613-.35.249-.613.63-1.133 1.64a2.16 2.16 0 0 1-.308.435c-.1.101-.27.364-.379.584-.109.22-.247.46-.307.532-.06.072-.206.41-.325.75-.118.341-.303.807-.409 1.037a3.59 3.59 0 0 0-.252.876 5.13 5.13 0 0 1-.17.792c-.121.364-.316 1.861-.32 2.462-.002.206.005.826.014 1.376.009.55.016 1.246.016 1.544 0 .298.04 1.162.091 1.919.147 2.217.31 3.436.577 4.337.193.649.42 1.653.42 1.858 0 .081.07.306.157.501.087.194.24.635.342.98.236.802.301.962 1.036 2.523.225.476.383.933.383 1.101 0 .163.052.317.12.355.119.067.545.904.547 1.074 0 .05.095.178.21.286.114.108.208.24.208.292 0 .054.094.282.208.507.115.226.209.448.21.494 0 .046.06.196.132.334.073.138.207.447.298.688.09.241.192.438.226.438.033 0 .111.141.173.313.062.172.182.362.267.422.085.06.155.165.155.233 0 .069.072.275.16.458.09.183.185.454.214.601.03.147.103.38.164.518.062.138.149.344.194.459.375.949.549 1.343.607 1.38.037.022.048.165.023.316-.036.225-.009.3.152.404.108.071.247.275.31.454.063.178.164.38.224.45.06.068.182.293.27.5.09.206.245.563.347.792.38.86.422.97.422 1.132 0 .172.422 1.506.5 1.58.024.023.137.182.251.354.114.172.233.313.263.313s.082.157.114.348c.06.354.449 1.495.615 1.806a.87.87 0 0 1 .092.337c0 .091.041.179.091.196.1.033.254 1.193.183 1.377-.024.063.015.18.087.26.157.173.226.564.267 1.517.017.39.054.942.084 1.228.03.285.022.68-.018.876a3.514 3.514 0 0 0-.018.857c.057.542.005 1.228-.088 1.17-.032-.019-.14.24-.241.576-.101.336-.277.719-.39.85-.114.133-.207.273-.207.312 0 .132-1.628 1.64-1.77 1.64-.046 0-.233.118-.416.263-.57.451-.843.615-1.36.814a27.64 27.64 0 0 0-.96.395c-.252.111-.55.218-.66.239-.112.02-.228.076-.258.125-.112.182-.678.416-1.005.416a2.1 2.1 0 0 0-.73.183c-.215.1-.448.175-.517.165-.069-.01-.445.09-.836.223-.436.147-.813.225-.975.201a.487.487 0 0 0-.456.141c-.133.125-.253.164-.39.13a.38.38 0 0 0-.357.093c-.132.12-.192.126-.378.041-.214-.097-.356-.03-.361.173-.003.144-1.413.33-2.635.35-.52.008-.707.044-.82.156-.124.125-.432.185-.864.169-.057-.002-.104.027-.104.064 0 .038-.247.056-.548.042-.481-.024-.573-.003-.76.17-.213.197-.699.344-.842.256-.04-.026-.268.005-.505.067-.236.062-.784.14-1.217.173-.712.053-.791.076-.832.239-.039.153-.143.195-.696.282a8.827 8.827 0 0 1-.9.104c-.284.002-.799.165-.973.31-.064.053-.427.135-.807.183-.38.047-.736.114-.79.148-.054.034-.32.05-.591.038-.322-.016-.514.011-.555.078-.035.056-.264.11-.51.121-.245.01-.53.023-.633.029-.105.006-.188.063-.188.132 0 .19-.268.29-.892.33-.314.02-.677.078-.805.126a2.07 2.07 0 0 1-.598.089c-.2 0-.385.033-.41.074-.026.04-.178.099-.34.129-.16.03-.292.09-.292.134 0 .044-.161.08-.358.08a1.75 1.75 0 0 0-.688.172c-.22.114-.423.157-.608.13a1.153 1.153 0 0 0-.5.045c-.123.049-.43.108-.683.13-.252.023-.48.076-.506.117-.026.042-.344.132-.707.202s-.693.159-.732.198c-.04.04-.22.053-.402.028-.181-.024-.563.014-.847.084-.285.07-.612.127-.727.126-.115-.001-.678.063-1.252.141-1.493.205-1.898.23-5.84.35-1.832.057-3.529.05-5.089-.018-1.72-.075-2.42-.087-2.42-.041 0 .025-.403.057-.897.07-.493.014-1.234.044-1.647.068-1.092.063-1.554.046-1.684-.062-.089-.074-.157-.058-.3.07-.17.152-1.05.35-1.52.342-1.003-.019-1.598.051-1.77.207-.168.152-.202.156-.376.043-.267-.173-.647-.255-.762-.163-.053.042-.321.139-.596.215a5.368 5.368 0 0 0-.68.228c-.223.112-.78-.05-.78-.227 0-.193-.13-.137-.257.11-.168.326-.2.337-.844.319a3.153 3.153 0 0 0-1.012.124 5.89 5.89 0 0 1-.789.195c-.345.051-.358.045-.406-.198-.054-.27-.172-.33-.25-.127-.026.069-.098.125-.16.125s-.148.065-.192.143c-.044.079-.172.147-.284.152a1.716 1.716 0 0 0-.47.119c-.145.06-.287.087-.314.06-.028-.028-.125-.01-.217.038-.121.065-.219.061-.362-.015-.171-.092-.239-.076-.552.132a1.35 1.35 0 0 1-.775.25c-.229.007-.48.041-.558.075a.366.366 0 0 1-.286-.02c-.113-.063-.199-.028-.385.158-.292.292-.81.442-1.279.372-.253-.038-.385-.019-.473.07-.17.17-.707.385-.97.388a.734.734 0 0 0-.37.116.42.42 0 0 1-.316.07.384.384 0 0 0-.312.09c-.08.073-.288.15-.462.172-.173.021-.361.077-.418.124-.056.047-.182.065-.278.04a.573.573 0 0 0-.355.051c-.248.132-.484.185-.892.199-.19.007-.415.074-.5.15-.085.077-.418.18-.739.228-.321.05-.767.127-.99.173-.223.047-.493.062-.6.036-.132-.034-.282.016-.47.157-.196.146-.434.222-.818.262a8.775 8.775 0 0 0-1.127.212c-.837.223-1.523.29-1.676.163-.102-.085-.148-.07-.251.077a.44.44 0 0 1-.369.18c-.157 0-.274.059-.332.167-.074.139-.176.167-.608.17-.29.002-.61.055-.727.122-.114.066-.368.12-.563.122-.195.002-.354.031-.354.066 0 .108-.613.262-.75.188-.078-.042-.188-.026-.28.041-.082.06-.368.136-.635.167-.267.03-.588.11-.713.174a1.14 1.14 0 0 1-.432.118c-.308 0-.944.166-1.339.35a1.65 1.65 0 0 1-.807.142c-.251-.012-.506.017-.566.063-.314.241-1.442.478-1.883.395-.19-.035-.323-.012-.42.073-.274.238-.733.332-2.126.435-.22.016-.531.108-.693.204-.163.095-.387.174-.498.174-.382 0-1.415.184-1.692.302-.152.065-.305.1-.34.078-.035-.021-.264.014-.51.079-.244.064-.472.1-.505.08-.033-.02-.21.015-.392.08-.369.13-1.59.314-2.23.335-.23.008-.474.036-.543.061-.386.143-.956.24-1.564.268-.379.017-.735.068-.793.113-.132.105-1.204.184-1.481.11-.115-.03-.359-.025-.542.014-.503.104-1.233.123-2.253.059zm7.792-11.15c.247.03.429.008.51-.06.11-.095.781-.22 1.918-.357.207-.025.432-.092.5-.148.07-.056.385-.108.702-.115.317-.007.626-.054.687-.105.061-.05.202-.07.312-.042.11.028.365-.01.565-.083.334-.123.777-.198 1.99-.334.252-.028.515-.1.584-.161.07-.06.313-.13.543-.156.947-.105 1.211-.151 1.253-.218.024-.04.22-.096.438-.127.217-.03.488-.114.602-.187.145-.091.41-.13.876-.13.553 0 .687-.025.777-.152.06-.084.212-.152.34-.152.127 0 .675-.098 1.217-.217.793-.174 1.026-.198 1.193-.122.114.052.217.084.228.07.01-.012.061-.104.112-.203.083-.159.183-.184.867-.222.425-.024.96-.086 1.19-.139.23-.052.624-.125.876-.163.253-.037.59-.11.75-.162.16-.051.449-.094.64-.094s.642-.061 1.002-.136c.36-.075.785-.152.946-.17.727-.081 1.387-.18 1.501-.223.07-.027.498-.088.954-.137.455-.049.868-.12.917-.16.168-.132.868-.189 1.06-.085.152.08.203.074.285-.04.078-.106.3-.149.967-.188.475-.027.877-.083.893-.123.015-.04.146-.073.292-.074.145-.001.433-.044.64-.095.206-.05.465-.087.575-.081.11.006.241-.023.292-.065.05-.041.317-.093.592-.116.276-.022.99-.102 1.586-.178 1.666-.211 2.867-.317 3.452-.304.355.008.578-.027.668-.106.128-.112.698-.186 2.054-.265.791-.047 1.18-.1 1.512-.21.154-.051.42-.104.593-.118.791-.065 2.108-.226 2.525-.309a8.87 8.87 0 0 1 .876-.122l.86-.065c.243-.018.551-.079.685-.134.134-.056.392-.087.573-.07.186.018.309-.002.282-.045-.028-.044.123-.057.362-.03.224.026.738-.007 1.141-.072.721-.116 1.483-.184 2.745-.243.389-.018.75-.086.917-.173.195-.101.526-.151 1.112-.169a15.2 15.2 0 0 0 1.168-.072l.918-.13c.635-.09 2.176-.257 2.377-.257.07 0 .276-.035.46-.079.183-.043.502-.097.709-.119 1.137-.12 1.746-.211 1.954-.29.128-.049.632-.112 1.12-.14.489-.03.956-.087 1.039-.13.082-.042.345-.092.584-.11.238-.02.79-.094 1.226-.168a49.668 49.668 0 0 1 1.335-.205 7.21 7.21 0 0 0 .868-.169c.179-.053.412-.08.519-.06.106.021.178.013.16-.017-.019-.03.198-.055.482-.057.526-.003 1.367-.115 2.466-.326.347-.067.67-.089.738-.05.071.04.323.016.595-.056a6.332 6.332 0 0 1 1.013-.157c.299-.018.618-.066.71-.106.091-.04.458-.095.814-.121a8.64 8.64 0 0 0 1.293-.217c.423-.111.764-.152.987-.119.257.038.42.008.666-.123.22-.119.478-.175.8-.175.262 0 .582-.043.711-.096a2.51 2.51 0 0 1 .652-.118c1.047-.056 1.568-.12 1.668-.202.118-.098 1.342-.26 1.502-.198.054.02.264-.006.466-.058.203-.053.594-.127.87-.166 1.132-.159 1.676-.259 1.81-.332a1.64 1.64 0 0 1 .417-.122c.152-.024.444-.079.65-.122l.585-.12c.115-.022.453-.103.75-.179a9.45 9.45 0 0 1 .877-.18c.183-.024.37-.076.413-.118.043-.04.21-.074.369-.074s.349-.05.421-.11c.124-.103.986-.397 1.258-.43.222-.025.625-.152.668-.21.066-.088.769-.403 1.042-.468.138-.032.35-.128.472-.213.122-.085.28-.155.35-.155.072 0 .25-.15.398-.333.148-.184.331-.334.408-.334.077 0 .208-.075.291-.167.083-.092.204-.167.268-.167.145 0 .678-.51.82-.787.06-.113.167-.41.24-.659.225-.776.305-2.904.121-3.247-.045-.084-.059-.364-.03-.622.027-.259.013-.567-.032-.685-.045-.119-.103-.722-.128-1.342l-.09-2.169c-.039-.963-.08-1.31-.293-2.461-.042-.23-.155-.9-.25-1.49-.094-.591-.208-1.142-.252-1.226a1.009 1.009 0 0 1-.082-.394c0-.134-.079-.465-.176-.736a9.459 9.459 0 0 1-.244-.785c-.038-.16-.16-.555-.27-.876a52.058 52.058 0 0 1-.335-1c-.272-.854-.417-1.261-.57-1.592-.086-.186-.157-.367-.157-.401 0-.034-.088-.257-.196-.495a10.536 10.536 0 0 1-.35-.913c-.086-.264-.181-.48-.212-.48s-.078-.065-.104-.145c-.025-.08-.138-.39-.25-.689a92.22 92.22 0 0 1-1.842-5.298c-.541-1.707-.55-1.739-.55-1.95 0-.102-.064-.306-.143-.452-.078-.147-.168-.512-.2-.81a8.234 8.234 0 0 0-.236-1.168 9.4 9.4 0 0 1-.21-.837 10.895 10.895 0 0 0-.16-.751c-.131-.533-.238-2.587-.143-2.735.027-.042.134-.103.237-.135.248-.077.24-.281-.015-.345-.112-.028-.205-.113-.208-.19a9.79 9.79 0 0 0-.074-.636 4.316 4.316 0 0 1-.047-.75c.013-.14.042-.508.064-.82.023-.311.061-.63.086-.709.025-.079.06-.454.08-.834.023-.453.083-.763.174-.902.104-.159.116-.24.046-.324-.069-.083-.068-.128 0-.17.054-.033.073-.147.044-.261-.058-.23.154-.744.336-.813.065-.025.118-.122.118-.215 0-.095.055-.17.126-.17.07 0 .125-.075.125-.173 0-.095.056-.229.125-.298.176-.176.155-.59-.042-.84-.218-.279-.231-.562-.014-.316.139.158.461.376.555.376.024 0 .043-.057.043-.125 0-.07.038-.126.084-.126.204 0 .062-.258-.167-.304-.271-.054-.298-.117-.16-.375.056-.106.138-.149.222-.117.177.068.269-.094.27-.474.001-.239.05-.343.21-.448.115-.075.209-.172.209-.215 0-.148.338-.82.412-.82.041 0 .1-.112.13-.248.03-.137.084-.24.121-.23.037.01.186-.068.332-.174.2-.146.251-.234.21-.363-.03-.094-.005-.393.056-.665.087-.394.147-.504.295-.541.125-.032.205-.134.242-.31.031-.145.086-.301.122-.347.037-.046.12-.271.187-.5.101-.353.155-.422.341-.444.122-.015.222-.062.222-.105 0-.042.08-.078.178-.078.166 0 .175-.03.132-.454-.048-.46.069-.715.27-.59.116.071.112-.066-.006-.183-.112-.112-.017-.3.112-.221.054.033.066.017.03-.041-.033-.054-.003-.119.068-.146.07-.027.15-.12.177-.208.028-.087.104-.159.168-.159.065 0 .174-.108.242-.24s.182-.262.252-.29c.07-.027.129-.119.129-.204 0-.086.111-.256.248-.377.137-.122.27-.326.297-.452a1.99 1.99 0 0 1 .17-.452.992.992 0 0 0 .119-.361c0-.202.589-.772.832-.807a.454.454 0 0 0 .303-.224c.053-.107.139-.236.19-.288a.447.447 0 0 0 .093-.274c0-.1.056-.229.125-.286.07-.057.125-.152.125-.211 0-.06.122-.21.272-.335.149-.124.29-.323.313-.44.03-.158.164-.28.5-.455.492-.257.594-.376.637-.744.033-.283.27-.668.372-.605.04.025.14-.11.22-.299.154-.358.279-.393.724-.204.143.06.154.04.106-.197-.053-.269-.019-.3.294-.27.12.013.146-.079.167-.592.022-.541.046-.618.22-.705.26-.129.758-.63.762-.766.01-.427.928-1.11 1.256-.934.1.054.174.046.232-.024.063-.076.023-.104-.16-.111-.327-.012-.374-.076-.241-.325.137-.256.296-.267.424-.028l.097.181.11-.201c.067-.125.079-.232.03-.281-.097-.1-.101-.439-.006-.497.039-.024.12.048.18.162.122.227.185.245.419.12.13-.07.144-.123.078-.297-.138-.362-.1-.685.086-.744.092-.03.167-.106.167-.17 0-.065.112-.176.25-.247.138-.071.25-.196.25-.276 0-.081.113-.214.25-.295.138-.081.251-.211.252-.29 0-.077.112-.204.25-.282.153-.087.25-.21.25-.317 0-.237.214-.636.373-.697.071-.027.165-.142.207-.254a.694.694 0 0 1 .31-.315c.129-.062.248-.187.264-.278.04-.211.256-.459.402-.459.062 0 .112-.054.112-.12 0-.067.094-.223.209-.346.115-.124.208-.267.208-.318 0-.113.395-.55.496-.55.107 0 .589-.756.589-.922 0-.079.152-.276.337-.439.35-.306.572-.648 1-1.539.137-.287.281-.521.32-.521.037 0 .206-.272.374-.605.168-.333.352-.68.41-.77.057-.091.2-.317.319-.501.118-.184.302-.523.409-.752.107-.23.24-.474.296-.543.134-.165.488-1.33.423-1.395-.028-.028-.05-.011-.05.037 0 .1-.483.32-.552.25-.025-.025 0-.132.058-.238.056-.106.125-.4.152-.654.046-.426.067-.463.28-.487.21-.024.229-.056.229-.386 0-.484.206-.952.461-1.049.202-.077.287-.25.123-.25-.105 0-.108-.207-.005-.397a1.61 1.61 0 0 0 .123-.36c.024-.118.14-.317.255-.442a.738.738 0 0 0 .21-.51c0-.155.036-.304.078-.33.042-.026.1-.155.13-.287.028-.131.144-.364.256-.516.112-.152.204-.363.204-.469 0-.106.075-.267.167-.36a.654.654 0 0 0 .167-.4c0-.129.095-.363.212-.522.117-.158.271-.493.343-.746.072-.252.199-.534.28-.625a1.41 1.41 0 0 0 .235-.46c.297-1.023.857-2.33 1.07-2.498.14-.11.196-.238.196-.45 0-.162.033-.316.074-.341.04-.025.1-.187.131-.36.032-.172.11-.394.174-.493.063-.1.157-.362.208-.584.084-.366.204-.697.549-1.513.063-.15.116-.309.116-.352 0-.043.088-.276.197-.519.109-.242.28-.815.382-1.274.101-.46.223-.907.271-.995.048-.089.095-.37.105-.626.02-.55.144-.819.394-.855.232-.035.305-.236.085-.236-.09 0-.183-.047-.205-.104-.049-.129-.009-1.355.066-2.002.092-.803.215-.554.154.312-.05.708-.04.793.084.793.217 0 .297-.343.268-1.152-.028-.794-.08-.972-.266-.9-.162.062-.146-.01.05-.22.17-.183.23-.682.091-.768-.042-.026-.056.028-.032.12a.366.366 0 0 1-.057.289c-.055.066-.076.16-.046.208.03.048-.001.087-.067.087-.158 0-.253-.622-.175-1.142.058-.386.06-.389.204-.212.194.24.249.159.249-.366 0-.323-.037-.461-.138-.518-.097-.054-.118-.124-.071-.234.114-.266.133-.388.147-.965.01-.416-.022-.597-.125-.71-.109-.12-.123-.22-.067-.469.042-.186.037-.51-.012-.79a7.655 7.655 0 0 1-.096-.851c-.007-.207-.033-.395-.057-.417a1.868 1.868 0 0 1-.167-.292l-.123-.25-.026.456c-.016.271.01.47.062.487.107.036.12.571.015.636-.18.11-.283-.254-.387-1.371-.082-.888-.09-1.263-.023-1.304.036-.022.066.187.066.465s.016.505.035.505a.87.87 0 0 1 .167.05c.174.067.173-.181-.003-.961-.119-.526-.156-.595-.311-.573-.23.032-.448-.418-.588-1.219-.057-.326-.148-.675-.202-.775a.877.877 0 0 1-.099-.343c0-.088-.107-.363-.238-.61a5.957 5.957 0 0 1-.345-.783 2.24 2.24 0 0 0-.168-.418 2.235 2.235 0 0 1-.168-.417 2.382 2.382 0 0 0-.219-.498.746.746 0 0 1-.113-.359c0-.107-.074-.333-.164-.503-.09-.17-.216-.421-.28-.559a39.039 39.039 0 0 0-1.159-2.031 6.877 6.877 0 0 1-.275-.482 1.98 1.98 0 0 0-.338-.453c-.112-.105-.204-.24-.204-.298 0-.06-.15-.269-.332-.466-.183-.197-.334-.396-.334-.443-.001-.046-.176-.267-.39-.49-.213-.222-.506-.56-.651-.749-.145-.19-.467-.55-.716-.803a6.486 6.486 0 0 1-.687-.822 3.068 3.068 0 0 0-.5-.584c-.272-.226-.486-.438-1.529-1.524a57.554 57.554 0 0 0-1.251-1.253c-.363-.35-.727-.736-.81-.856-.082-.12-.213-.218-.292-.218-.078 0-.28-.132-.449-.292-.17-.16-.33-.292-.357-.292-.028 0-.227-.18-.444-.4a12.974 12.974 0 0 0-.997-.88c-.332-.262-.697-.57-.81-.683-.113-.113-.233-.206-.267-.206-.033 0-.232-.144-.442-.32a4.731 4.731 0 0 0-.556-.414 4.148 4.148 0 0 1-.505-.368 4.282 4.282 0 0 0-.66-.441c-.18-.092-.374-.229-.43-.304a.673.673 0 0 0-.326-.192c-.133-.033-.734-.571-1.5-1.344-.702-.71-1.31-1.289-1.353-1.289-.041 0-.203-.112-.358-.249-.155-.137-.31-.25-.345-.25-.034 0-.063-.041-.063-.09 0-.05-.112-.184-.25-.3-.138-.116-.25-.256-.25-.312 0-.109-1.558-1.719-1.663-1.719-.035 0-.172-.097-.306-.216a2.758 2.758 0 0 0-.597-.372c-.195-.086-.354-.196-.354-.243 0-.048-.066-.087-.146-.087-.08 0-.252-.091-.382-.203-.13-.111-.44-.266-.688-.345-.25-.078-.453-.165-.453-.193-.001-.165-3.178-1.511-3.567-1.511-.066 0-.225-.075-.353-.166-.24-.171-1.362-.38-1.52-.283-.046.029-.114.005-.15-.053-.036-.058-.192-.102-.346-.099l-.467.013c-.107.003-.188.058-.188.127 0 .077-.049.103-.134.07-.073-.028-.16-.007-.194.048-.062.1-1.133.16-1.225.07-.026-.027-.198.005-.382.07-.185.065-.371.096-.415.069-.044-.028-.5-.064-1.014-.08-.513-.017-.97-.035-1.016-.04a.883.883 0 0 0-.259.045.3.3 0 0 1-.3-.07c-.08-.08-.164-.098-.241-.049-.216.137-.924.091-1.039-.066-.092-.127-.13-.13-.318-.03-.179.096-.277.096-.612.002-.22-.061-.507-.103-.64-.093-.132.01-.292-.025-.355-.077-.088-.073-.164-.063-.324.041-.192.126-.225.127-.413.004-.116-.076-.342-.126-.521-.116a2.278 2.278 0 0 1-.526-.03c-.64-.149-1.688-.317-1.727-.278-.026.026-.178-.008-.338-.075a1.664 1.664 0 0 0-.522-.122c-.126 0-.28-.06-.34-.133-.08-.098-.193-.12-.418-.084-.322.051-1.893-.22-2.223-.385-.102-.05-.365-.084-.584-.074-.219.01-.473.014-.565.008a31.019 31.019 0 0 0-1.314-.075c-.22-.006-.312-.045-.312-.134 0-.083-.08-.126-.23-.125-.582.006-1.932-.17-1.986-.258-.026-.04-.154-.075-.285-.075-.132 0-.251-.037-.267-.083-.015-.046-.328-.101-.695-.123-1.322-.08-1.96-.153-1.96-.223 0-.04-.228-.071-.507-.071-.278 0-.577-.039-.665-.086-.088-.047-.564-.123-1.058-.169-.495-.046-1.18-.14-1.525-.207-1.15-.229-2.042-.382-2.253-.387-.536-.012-2.718-.34-2.911-.437-.126-.064-.674-.13-1.304-.16-.847-.038-1.174-.088-1.486-.225-.329-.146-.49-.167-.916-.122-.504.054-1.295-.043-2.8-.343-.46-.092-.683-.1-.882-.035-.203.067-.35.059-.614-.035-.271-.095-.406-.102-.613-.03-.237.082-.282.071-.424-.104-.137-.17-.182-.182-.326-.092-.13.081-.195.083-.287.006-.065-.054-.223-.078-.351-.052-.128.026-.682-.006-1.23-.071a17.911 17.911 0 0 0-1.598-.12c-.33 0-.62-.033-.643-.071-.024-.038-.29-.054-.594-.035-.352.022-.593-.002-.67-.066-.089-.073-.216-.077-.476-.017-.195.046-.688.07-1.096.054-.579-.023-.792 0-.974.108-.218.129-.264.128-.672-.003-.336-.109-.452-.118-.5-.04-.046.074-.114.078-.256.013-.107-.048-.494-.094-.861-.101a8.437 8.437 0 0 1-.934-.062c-.146-.026-.315-.016-.375.022-.13.084-.215.093-1.194.14-.435.02-.796 0-.857-.05-.074-.058-.152-.041-.26.057-.13.117-.191.123-.375.04-.175-.08-.263-.078-.427.01-.162.086-.254.09-.42.013-.29-.131-.499-.122-.623.028-.13.157-.42.162-.627.01-.137-.1-.204-.096-.496.033-.516.229-1.092.33-1.987.35-.449.01-.858.044-.91.076-.052.032-.166.015-.253-.038-.13-.08-.174-.07-.243.053-.05.088-.143.131-.225.105-.122-.039-.672.034-1.35.178a7.59 7.59 0 0 1-.625.085c-.23.023-.458.075-.508.116-.05.04-.238.07-.418.066-.77-.018-1.265.023-1.577.129a6.727 6.727 0 0 1-.96.2 17.5 17.5 0 0 0-1.168.209 18.58 18.58 0 0 1-1.21.216c-.718.101-1.446.294-1.813.478-.125.063-.425.13-.667.147a4.605 4.605 0 0 0-.94.201 5.981 5.981 0 0 1-.958.228c-.251.032-.603.11-.782.172a2.072 2.072 0 0 1-.547.115c-.123 0-.54.133-.928.295-.431.18-.78.276-.895.248a.559.559 0 0 0-.375.075 1.734 1.734 0 0 1-.521.18 2.496 2.496 0 0 0-.573.18c-.132.067-.31.103-.396.08-.087-.023-.157-.012-.157.024 0 .036-.122.09-.27.12-.148.029-.427.13-.621.224a2.589 2.589 0 0 1-.795.2c-.61.042-.931.137-1.61.476-.321.16-.762.34-.98.399-.218.059-.397.14-.397.18 0 .04-.15.072-.333.072-.184 0-.334.035-.334.078 0 .107-1.082.609-1.208.56-.056-.021-.164.033-.239.12a.474.474 0 0 1-.304.16c-.092 0-.406.113-.697.25-.292.138-.559.25-.594.25-.102 0-1.537.733-1.796.918-.13.092-.287.167-.35.167-.064 0-.264.076-.444.167-.18.092-.37.167-.424.167-.054 0-.144.057-.201.125-.058.07-.159.125-.225.125-.067 0-.177.057-.246.126a.471.471 0 0 1-.286.125c-.089 0-.161.037-.161.082 0 .045-.092.105-.205.133-.112.028-.473.216-.8.419-.328.202-.631.367-.674.367-.043 0-.099.053-.124.119-.025.065-.183.18-.352.256-.516.233-.682.33-.682.396 0 .035-.05.063-.112.063s-.18.075-.263.167c-.083.092-.185.167-.226.167-.096 0-1.73 1.06-2.274 1.476a6.711 6.711 0 0 1-.708.473 5.11 5.11 0 0 0-.553.356c-.143.109-.304.198-.359.198-.054 0-.12.053-.144.118-.025.064-.127.14-.227.166-.1.027-.326.18-.504.341-.177.161-.35.293-.383.293-.034 0-.17.093-.303.208-.134.115-.271.209-.305.209-.035 0-.222.15-.417.334-.195.183-.398.333-.452.333-.054 0-.11.03-.126.066-.015.037-.168.152-.34.257-.172.106-.313.226-.313.268 0 .042-.047.078-.105.079-.057 0-.251.134-.432.297-.18.162-.433.316-.563.342-.13.026-.235.073-.235.105s-.178.143-.396.245a16.34 16.34 0 0 0-.542.265.696.696 0 0 1-.271.079c-.07 0-.283.112-.473.25-.29.21-.424.25-.834.25-.268 0-.488.036-.488.08 0 .043-.223.073-.497.065-.403-.01-.533.02-.688.163-.145.134-.338.188-.794.222-.34.025-.625.01-.652-.034-.07-.113-.175-.097-.32.048-.089.089-.292.124-.694.12a15.932 15.932 0 0 0-.693.003c-.283.021-.755-.066-.868-.16-.175-.145-.41.028-.618.457a3.51 3.51 0 0 1-.415.633c-.134.154-.296.38-.36.5-.143.27-.796 1.144-1.006 1.348-.085.082-.154.206-.154.276 0 .07-.225.338-.5.596-.276.258-.501.518-.501.579 0 .06-.118.212-.263.339-.144.126-.53.507-.855.845-.326.339-.684.695-.796.793-.607.528-1.323 1.207-1.507 1.428a4.743 4.743 0 0 1-.449.46c-.688.595-3.055 3.038-3.055 3.152 0 .045-.132.182-.293.305a1.892 1.892 0 0 0-.453.538 2.207 2.207 0 0 1-.379.517c-.12.11-.292.344-.384.518-.091.174-.23.383-.309.464-.203.211-.518.66-.518.739 0 .036-.112.172-.25.302s-.25.29-.25.355-.04.118-.086.118c-.048 0-.11.065-.14.146a.982.982 0 0 1-.165.27 8.455 8.455 0 0 0-.361.46 15.1 15.1 0 0 1-.332.434c-.046.056-.084.123-.084.149 0 .026-.15.313-.334.637-.184.323-.334.637-.334.697 0 .06-.052.129-.116.153-.064.025-.17.151-.237.28-.235.46-.5.905-.615 1.035a.492.492 0 0 0-.117.274c0 .078-.052.162-.117.187-.106.04-.193.208-.331.64-.026.08-.051.174-.056.208-.005.034-.101.183-.215.333a3.05 3.05 0 0 0-.322.542c-.063.149-.284.513-.49.808-.289.413-.358.572-.298.683.106.2.097.242-.04.19-.07-.028-.14.023-.173.127-.03.096-.09.173-.132.173-.043 0-.078.056-.078.124 0 .11-.332.896-.511 1.211-.205.359-.657 1.331-.657 1.413 0 .05-.13.28-.287.51-.158.23-.31.501-.34.603-.11.394-.737 1.726-.812 1.728-.035 0-.063.08-.063.175 0 .096-.113.43-.25.744-.138.314-.25.615-.25.669 0 .087-.505 1.203-.792 1.75-.149.285-.373 1.06-.321 1.113.023.023-.037.12-.132.215a.632.632 0 0 0-.177.362.69.69 0 0 1-.121.345c-.066.086-.144.323-.175.526-.03.202-.103.416-.162.475-.058.058-.2.46-.313.892-.114.433-.268 1.004-.342 1.27a3.874 3.874 0 0 0-.135.855c0 .205-.038.372-.084.372-.046 0-.083.152-.083.338 0 .205-.033.319-.084.287-.05-.03-.083.07-.083.25 0 .34-.156 1.048-.255 1.158-.036.04-.044.2-.02.355.028.17-.01.43-.093.65-.077.201-.133.53-.124.729.009.2-.027.7-.08 1.113a10.957 10.957 0 0 0-.066 1.502c.074 1.85.168 3.138.233 3.178.04.024.071.174.071.333 0 .272.234 1.343.419 1.918.045.141.083.385.085.542.001.158.056.38.122.495.066.115.12.34.123.5.001.161.056.395.121.519.065.125.161.434.214.688.053.254.131.462.174.462.042 0 .077.072.077.16 0 .088.03.173.065.188.035.015.21.469.387 1.008.178.54.356.98.395.98.039 0 .07.056.07.123 0 .068.082.265.18.438.1.174.231.556.294.851.074.346.173.577.28.651.09.064.165.19.165.278 0 .09.029.162.065.162.036 0 .115.17.176.377.061.207.159.404.217.438.108.063.46.776.46.933 0 .048.13.27.291.494.161.223.292.46.292.526a.35.35 0 0 0 .093.212c.111.111.252.356.48.837.093.195.205.355.248.355.078 0 .681 1.174.681 1.325 0 .041.057.097.127.124.07.027.165.134.212.238.118.261.273.523.402.678.06.072.084.17.054.218-.03.048-.003.087.058.087.061 0 .167.08.234.177.068.097.18.235.248.307.069.071.125.162.125.201 0 .04.04.099.088.131.048.033.263.327.479.654.215.326.448.64.517.698.07.058.126.152.126.21 0 .058.113.195.25.303.139.108.37.392.515.63.145.237.335.45.422.472.087.023.146.092.132.155-.028.123.085.282.484.682.143.143.274.305.292.36.046.143.63.824 1.096 1.278.218.212.396.421.396.465 0 .043.216.306.48.584.264.277.574.642.689.811.114.17.23.307.257.308.093 0 .66.522.66.607 0 .119.265.305.438.308.08.002.137.037.125.078-.024.087.079.209.72.857.259.26.47.513.47.563 0 .05.056.09.124.09.07 0 .126.052.126.115 0 .064.112.162.25.219.138.057.25.134.25.17 0 .038.32.396.71.797.39.4.709.762.709.803 0 .042.03.056.07.032.097-.06.43.187.43.32 0 .06.157.255.348.433.191.178.51.483.706.678.197.195.397.355.445.355.047 0 .086.05.086.111 0 .062.094.155.209.207.115.052.208.134.208.18 0 .047.032.086.071.086.04 0 .276.197.526.438 1.594 1.532 2.52 2.36 2.666 2.384.092.015.209.118.26.23.05.11.138.201.195.201.056 0 .18.085.273.188.472.52.598.677.598.744 0 .04.103.118.23.172.28.121.847.605 1.036.886.077.114.294.31.482.436.206.139.3.246.235.272-.058.023-.021.045.082.049.12.004.188.06.19.153 0 .124.012.127.081.02.072-.11.081-.11.082.002.001.12.277.415.386.415.072 0 .613.614.615.697 0 .04.058.05.127.024.094-.036.125.014.125.2 0 .189.038.247.161.247.089 0 .217.057.286.125.069.07.149.126.177.126.078 0 2.166 2.033 2.902 2.826.219.235.444.428.5.428.058 0 .18.113.27.25.093.138.23.271.306.295.077.025.233.166.348.313.115.147.531.598.925 1 .394.404.716.762.716.796 0 .035.113.13.25.21.15.088.25.218.25.32 0 .115.04.155.122.124.077-.03.186.059.299.241.097.159.212.288.254.288.042 0 .077.057.077.127s.084.16.187.2c.209.08.646.462.648.566 0 .037.206.292.457.567.25.276.56.621.687.768.128.147.278.27.335.271.057.002.157.133.222.29.066.156.195.325.287.375.19.1.68.792.68.957 0 .06.085.188.189.285l.609.577c.232.22.502.53.6.69.1.161.295.4.435.53a.984.984 0 0 1 .307.567c.039.243.085.319.174.284.076-.029.138.017.166.121.024.092.074.167.112.167.067 0 .48.595.79 1.14.083.146.235.303.338.35a.517.517 0 0 1 .246.278c.033.106.168.343.301.527.133.183.473.69.755 1.126.283.436.564.823.625.86a.247.247 0 0 1 .11.187c0 .067.066.19.147.272.08.084.22.3.31.48s.248.432.35.558c.101.127.305.474.452.772.146.298.299.542.338.542.04 0 .073.066.073.146.002.244.392 1.003.564 1.095.089.048.245.321.349.611.103.29.254.641.335.783a3.6 3.6 0 0 1 .251.584c.057.18.163.42.236.535.257.407.766 1.462.767 1.59 0 .07.035.165.078.208.118.12.673 1.7.673 1.915 0 .103.052.231.115.283.063.053.138.242.166.42.03.18.106.432.17.562.066.13.162.443.216.696.053.252.146.571.207.709.06.138.146.344.19.459.045.114.139.343.21.508.071.165.177.596.236.96.059.362.156.733.216.824.06.09.111.372.113.626a2.9 2.9 0 0 0 .124.794c.066.184.12.49.122.682 0 .19.044.362.097.38.061.02.106.344.124.903.016.48.064 1.097.107 1.373.121.777.178 4.864.086 6.257a22.66 22.66 0 0 1-.419 3.156c-.043.221-.078.56-.078.754 0 .193-.058.575-.13.849a16.79 16.79 0 0 0-.21.914c-.042.23-.168.718-.277 1.085l-.514 1.71c-.172.574-.472 1.35-.665 1.725-.193.375-.376.78-.406.9-.03.12-.16.328-.288.462-.25.262-.405.546-.662 1.216-.163.423-.163.423.009.562.158.128.188.129.376.006.145-.095.316-.121.589-.09zm34.41-39.567c-.098-.042-.59-.114-1.09-.161-.501-.047-1.09-.146-1.309-.22-.219-.075-.42-.114-.446-.087-.026.026-.126-.001-.221-.062a4.037 4.037 0 0 0-.564-.255 2.559 2.559 0 0 1-.667-.39c-.27-.238-.382-.28-.665-.253-.075.007-.274-.08-.441-.194a4.373 4.373 0 0 0-.552-.316c-.135-.06-.246-.134-.246-.164 0-.167-.468-.738-.605-.738-.269 0-.73-.304-.73-.482 0-.041-.09-.117-.201-.167-.128-.058-.222-.192-.26-.368-.033-.156-.187-.395-.352-.548a3.235 3.235 0 0 0-.314-.27c-.012 0-.068.112-.125.25-.105.254-.31.323-.474.16-.065-.066-.164-.053-.352.044-.227.117-.356.122-.98.04-.572-.077-.73-.075-.783.01-.051.083-.154.068-.473-.07-.38-.162-.48-.17-1.477-.099-1.462.104-2.554.032-2.701-.177-.107-.152-.118-.15-.335.05-.253.235-.493.255-.976.08a2.247 2.247 0 0 0-.584-.124c-.226-.004-.691-.098-1.67-.34a7.57 7.57 0 0 0-.735-.132c-.25-.03-.437-.104-.493-.194a.227.227 0 0 0-.245-.104.356.356 0 0 1-.28-.064c-.07-.058-.15-.083-.178-.055-.027.027-.163-.008-.3-.08a4.673 4.673 0 0 0-.657-.25c-.224-.066-.407-.156-.407-.2 0-.045-.048-.08-.106-.08-.059 0-.166-.067-.238-.147-.137-.154-.277-.255-.72-.522-.149-.09-.27-.199-.27-.242 0-.043-.123-.119-.273-.168-.202-.066-.346-.215-.556-.57-.155-.263-.349-.544-.43-.623-.205-.2-.287-.896-.271-2.318.013-1.154.159-2.05.442-2.711.04-.092.242-.675.45-1.297.525-1.567.656-1.845 1.004-2.127.168-.136.463-.39.657-.564.194-.174.484-.378.645-.454.16-.076.313-.169.34-.206.047-.068.374-.17 1.69-.524.405-.11.83-.26.944-.335.257-.168 1.299-.392 1.696-.365.162.011.373-.022.468-.074a.549.549 0 0 1 .344-.05c.093.024.427-.04.743-.144a7.009 7.009 0 0 1 1.284-.252c.943-.085 1.602-.189 1.739-.274.062-.038.343-.081.626-.095.482-.023.774-.07 2.015-.316.275-.055.65-.08.834-.054.225.03.424-.001.609-.095.151-.077.395-.13.542-.117.147.012.693-.03 1.212-.096.52-.066 1.008-.1 1.085-.077.077.023.478.005.89-.04 1.125-.123 1.52-.158 2.253-.195.568-.03.884-.073 1.788-.25.131-.025.423-.517.425-.716 0-.07.239-.446.53-.836.53-.71 1.096-1.175 1.582-1.297a.714.714 0 0 0 .365-.261c.073-.111.249-.261.391-.333.342-.172.717-.524.808-.758.04-.103.13-.188.2-.188s.127-.035.127-.077c0-.043.07-.1.155-.127.248-.08.764-.642.938-1.024.088-.194.245-.396.347-.45.182-.094.73-.636.73-.722 0-.023.168-.207.374-.407.408-.396.793-.955.793-1.15 0-.068-.043-.219-.096-.335-.08-.174-.155-.213-.418-.213-.176 0-.32.038-.32.083 0 .116-.477.106-.55-.01-.038-.063-.232-.079-.58-.046-.418.039-.547.022-.633-.083-.086-.102-.21-.12-.571-.083-.254.027-.518.014-.586-.028-.09-.056-.17-.018-.296.138-.134.168-.26.221-.584.244-.466.034-.92-.083-.985-.254-.055-.144-1.331-.113-1.512.037a.476.476 0 0 1-.31.077 2.367 2.367 0 0 0-.53.04c-.193.035-.435.024-.566-.026-.133-.05-.288-.057-.372-.016-.372.185-.652.222-.936.122-.409-.143-.93-.135-1.149.018-.102.072-.185.095-.185.053 0-.043-.206-.095-.458-.116-.252-.021-.524-.098-.605-.17-.16-.144-.585-.115-.731.05-.127.145-1.02.153-1.29.013-.238-.122-1.357-.234-2.161-.216-.247.006-.498-.031-.56-.082-.061-.051-.15-.069-.198-.04-.047.03-.302.013-.567-.037-.264-.05-.753-.126-1.086-.17-.332-.042-.708-.13-.834-.193s-.66-.197-1.189-.298c-1.126-.216-1.668-.356-1.668-.434 0-.03-.204-.08-.453-.112-.25-.031-.498-.11-.553-.176a.383.383 0 0 0-.26-.12c-.087 0-.298-.07-.469-.156a2.535 2.535 0 0 0-.678-.202c-.208-.027-.4-.104-.442-.179-.04-.072-.127-.13-.192-.13s-.26-.08-.434-.179c-.173-.098-.418-.176-.543-.172-.126.003-.248-.027-.273-.067-.025-.04-.297-.192-.605-.337-.308-.146-.606-.331-.663-.412-.057-.081-.38-.279-.718-.44-.432-.205-.78-.456-1.17-.845-.306-.304-.557-.592-.557-.64 0-.095 0-.095-.582-.73-.42-.46-1.026-1.407-1.13-1.769a1.045 1.045 0 0 0-.168-.333c-.06-.07-.213-.37-.34-.668a8.054 8.054 0 0 0-.424-.853c-.106-.172-.192-.389-.192-.483 0-.094-.058-.31-.129-.479-.234-.559-.444-4.857-.3-6.11.15-1.3.184-2.574.069-2.554-.228.04-.78.251-.957.366-.152.1-.653.13-2.544.161-1.295.02-2.392.04-2.438.043a1.845 1.845 0 0 1-.336-.05c-.16-.037-.307-.017-.404.054-.127.093-.235.09-.659-.013-.419-.102-.638-.107-1.257-.03-.508.065-.8.068-.906.011a.46.46 0 0 0-.3-.04c-.079.023-.819.044-1.645.046l-1.877.006c-.206.001-.845-.005-1.418-.014a99.737 99.737 0 0 0-1.565-.013c-.286.002-.521-.028-.521-.065 0-.037-.366-.062-.814-.057a36.689 36.689 0 0 1-1.564-.02c-.413-.016-.838 0-.946.034-.14.046-.245.019-.375-.097-.162-.143-.26-.154-.932-.103-.413.032-.787.037-.831.012-.045-.026-.402-.053-.793-.062-1.902-.04-3.813-.144-3.944-.213-.08-.043-.387-.053-.683-.022-.295.03-.606.027-.689-.007-.083-.035-.376-.074-.652-.089-.838-.042-1.204-.123-1.154-.254.033-.085-.06-.07-.35.059-.32.141-.433.157-.598.081-.113-.051-.24-.071-.282-.045-.042.026-.077.012-.077-.032 0-.049-.12-.053-.308-.01-.17.038-.348.044-.397.013-.048-.03-.332-.063-.63-.071-.298-.01-1.068-.093-1.71-.186-.643-.093-1.236-.149-1.32-.124-.346.103-1.636-.29-2.476-.755a5.736 5.736 0 0 0-.72-.284 3.944 3.944 0 0 1-.918-.467l-.761-.559c-.195-.143-.355-.31-.355-.372s-.187-.291-.417-.51c-.23-.22-.417-.447-.417-.505 0-.058-.038-.105-.085-.105-.126 0-.254-.382-.35-1.043-.1-.69-.1-.712-.032-1.251.102-.803.458-1.774.782-2.128a3.04 3.04 0 0 0 .274-.397c.265-.45.624-.623 1.163-.562.505.058.582.058 1.53.003.359-.02.702-.077.761-.126.06-.05.366-.083.682-.075.315.008.676-.015.802-.05.187-.052.23-.037.23.08 0 .104.04.127.146.082.08-.034.24-.078.354-.099.115-.02.284-.07.376-.11.307-.132.998-.226 1.366-.186.201.023.514-.008.695-.068.274-.09.341-.09.399.003.054.088.121.092.306.021.198-.076.989-.169 1.948-.229.114-.007.274-.042.355-.077.08-.036.277-.04.437-.01.16.03.431.017.604-.03.173-.045.832-.102 1.464-.125.633-.023 1.194-.069 1.246-.101.052-.033.53-.068 1.06-.078 1.83-.035 2.61-.015 2.485.064-.146.093-.022.08.248-.025.295-.114 1.766-.119 2.319-.007.298.06.473.057.625-.013.116-.054.343-.089.503-.078.161.01.349.016.418.012.515-.027 1.65-.074 2.67-.11a28.701 28.701 0 0 0 1.97-.137c.544-.067.808-.068.928-.004.2.107.94.044 1.37-.117.213-.08.43-.094.72-.048.4.063.852-.055.852-.223 0-.081.611-.268.879-.268.266 0 .41.314.492 1.075.032.293.112.587.177.653.066.066.12.25.12.41 0 .16.035.27.078.244.043-.027.102-.01.13.038.033.051.237.069.507.042.25-.024.453-.013.453.025 0 .113.796-.023 1.03-.176.119-.078.27-.142.335-.142.165 0 .2-.137.168-.645-.015-.24.007-.53.051-.644.059-.155.05-.224-.04-.274-.064-.036-.142-.221-.172-.411-.05-.307-.032-.36.151-.481.408-.268.856.13.823.731-.01.174.031.249.155.281.093.025.17.096.17.158 0 .063.093.138.208.166.128.033.208.112.208.208 0 .085.082.198.181.251.1.054.334.246.522.427.187.182.434.381.549.443.114.062.34.268.5.457.16.19.404.446.54.569.137.123.513.494.835.824 1.515 1.55 1.766 1.877 2.085 2.717.083.218.2.396.262.396.146 0 .318-.276.484-.775.073-.22.19-.487.26-.594.07-.107.164-.411.207-.676.043-.264.132-.541.198-.615.066-.074.198-.376.295-.67.096-.296.226-.596.288-.668.063-.073.14-.242.172-.377a1.59 1.59 0 0 1 .21-.459c.293-.413.906-1.638 1.006-2.008.104-.388.406-.98.671-1.317.085-.107.2-.333.255-.501.055-.169.208-.48.338-.693.13-.212.237-.42.237-.464 0-.044.073-.157.161-.252.089-.095.294-.437.457-.76.163-.324.334-.612.38-.64.045-.028.148-.19.228-.36a2.81 2.81 0 0 1 .214-.394c.038-.046.224-.327.414-.625.19-.299.39-.58.444-.626.055-.046.257-.375.45-.732.194-.356.439-.75.543-.876.105-.125.265-.378.355-.561.287-.585.536-.995.733-1.21.106-.115.276-.378.38-.584.103-.207.276-.492.385-.634.108-.142.196-.284.196-.316 0-.032.037-.104.082-.16.355-.435.501-.639.637-.892.086-.161.257-.424.38-.584.122-.161.356-.544.518-.852.299-.563.698-1.161 1.185-1.777.146-.183.341-.484.434-.67.093-.184.342-.564.552-.845.211-.28.384-.535.384-.566 0-.031.112-.152.25-.267.138-.116.25-.252.25-.302 0-.05.207-.36.46-.69.251-.33.458-.622.458-.65 0-.027.076-.136.17-.24a16.85 16.85 0 0 0 1.005-1.26c.56-.786.66-.914 1.096-1.393.618-.68.709-.795.766-.971.028-.085.205-.324.394-.53.188-.207.427-.507.53-.668.103-.16.432-.536.73-.834.298-.298.57-.632.604-.74.034-.11.334-.485.667-.835.332-.35.771-.861.976-1.137.204-.275.472-.613.595-.75.123-.138.528-.617.9-1.064.373-.448.706-.814.74-.814.033 0 .155-.131.27-.292.114-.16.467-.58.784-.932.875-.97 1.152-1.291 1.404-1.63.127-.17.3-.332.384-.358.085-.027.24-.188.346-.358.167-.268.192-.42.194-1.144.002-.667.035-.9.168-1.162.258-.508.486-.63 1.21-.65.345-.009.664.006.71.034.045.028.242.094.437.146.195.053.355.131.355.176 0 .044.044.08.099.08.116 0 1.57 1.46 1.57 1.576 0 .203.236.126.511-.168.27-.288.347-.324.7-.324.388 0 .958.252.958.424 0 .042.041.077.092.077.05 0 .204.094.34.208.157.133.35.21.528.21.155 0 .304.037.333.082.028.046.157.084.286.084.13 0 .284.058.343.129.063.076.161.105.24.071.236-.102.952-.215 1.55-.244.321-.016.79-.058 1.043-.092a4.21 4.21 0 0 1 .734-.04.887.887 0 0 0 .485-.115c.215-.14.687-.108.79.055.029.044.153.026.293-.043.533-.263.847-.338 1.286-.31.847.055 1.535.028 2.836-.11.712-.076 1.47-.136 1.688-.133.217.003.472-.036.568-.087.122-.066.206-.068.28-.006.057.048.196.069.307.047a2.89 2.89 0 0 1 .495-.034c.75.017.903.007 1.293-.083.23-.053.905-.11 1.502-.128 1.625-.047 2.882-.134 3.09-.213.101-.039 1.287-.078 2.635-.087 3.51-.025 3.66-.03 3.66-.109 0-.039.066-.042.147-.007.08.036.671.075 1.314.088a53.41 53.41 0 0 1 1.96.077c.436.03 1.482.064 2.325.077.873.013 1.554.059 1.585.105.03.045.523.086 1.098.092.617.006 1.276.063 1.61.14.31.073.597.112.637.087.04-.025.18-.002.31.05.332.131 2.487.359 3.172.334.147-.006.29.027.318.073.028.046.216.083.417.083.201 0 .386.032.41.071.051.083.848.19 1.655.22.31.013.61.06.668.105.113.089.579.188 1.105.235.779.07 1.695.194 2.044.277.207.05.648.09.98.091.386.002.605.036.605.095 0 .05.06.07.131.042.142-.055.82.077 1.057.204.08.043.354.078.61.078s.548.045.648.1c.1.056.426.109.725.118.868.028 1.897.161 2.018.262.062.051.431.134.82.184 1.141.147 1.185.154 1.709.252 1.248.234 1.522.274 1.823.265.177-.006.496.045.71.113.212.068.65.138.97.155.322.017.641.052.71.077.069.025.426.068.794.095.368.027.8.087.96.133.16.047.484.065.722.04.255-.027.453-.01.485.04.029.047.255.085.502.085.248 0 .63.038.85.085.31.065.533.055.985-.048a22 22 0 0 1 1.493-.259c.824-.113.978-.112 1.627.01.395.074 1.375.17 2.178.215 2.591.145 2.971.176 3.093.254.098.063.1.09.008.149-.062.04-.1.101-.084.137.053.125-.64.413-1.01.42-.443.008-.542.172-.18.298.289.1.333.219.113.3-.08.03-.229.14-.33.247-.101.107-.264.194-.362.194-.099 0-.277.078-.398.172-.167.132-.32.168-.648.153-.396-.019-.47.01-.942.37-.285.217-.604.39-.716.39-.112 0-.226.037-.254.083-.029.046-.125.084-.213.084-.192 0-.58.317-.58.474 0 .06-.035.11-.077.11-.042 0-.185.09-.316.2-.132.111-.463.266-.736.344-.274.078-.573.21-.665.291-.203.183-.722.332-1.155.332-.193 0-.42.071-.57.178-.192.137-.382.18-.84.188-.39.007-.603.046-.626.114-.02.058-.1.105-.178.105a.385.385 0 0 0-.238.094c-.092.093-1.503.122-1.592.033-.023-.023-.088-.003-.145.043-.056.047-.135.079-.174.07a.51.51 0 0 0-.227.051c-.086.037-.818.04-1.627.006-.81-.034-2.072-.077-2.806-.096-.733-.019-1.465-.079-1.627-.133-.16-.054-.705-.105-1.21-.112-1.154-.017-1.933-.11-2.245-.268-.165-.084-.55-.128-1.21-.138-.581-.009-1.04-.056-1.152-.118-.102-.056-.402-.12-.668-.14-.522-.042-1.236-.176-1.367-.257-.068-.042-1.62-.128-2.515-.14-.126-.002-.23-.03-.23-.062 0-.113-.378-.222-.583-.167a.788.788 0 0 1-.398-.013c-.108-.039-.37-.03-.605.02-.285.061-.498.063-.686.003-.15-.047-.966-.09-1.815-.096a70.895 70.895 0 0 1-1.75-.026c-.288-.02-.334.251-.06.355.113.043.257.193.319.334.062.14.138.256.168.256s.171.205.312.456c.142.25.37.539.509.641.138.102.253.226.255.275.002.048.189.332.416.63.316.415.414.613.414.84 0 .184.08.403.21.579.125.17.208.395.208.564 0 .154.041.359.092.453.068.127.066.308-.006.683-.206 1.073-.343 1.413-.703 1.741-.188.172-.395.313-.46.313-.064 0-.243.096-.396.213a2.386 2.386 0 0 1-.55.306 2.31 2.31 0 0 0-.53.288c-.142.107-.346.194-.453.194-.293 0-1.155.161-1.594.297-.213.067-.543.12-.734.12-.191 0-.46.058-.596.129-.16.082-.294.102-.379.055-.087-.049-.234-.022-.433.08a1.495 1.495 0 0 1-.555.154c-.14 0-.532.058-.872.129-.34.07-.673.107-.741.081-.068-.026-.206.007-.307.073-.186.121-.558.19-1.371.256-.248.02-.473.067-.5.105-.134.185-.538.357-.842.357-.187 0-.48.06-.65.134-.17.074-.544.144-.83.156-.287.012-.574.066-.64.12-.064.053-.468.14-.897.191-.429.052-.799.116-.822.143-.17.198-.342.27-.442.187-.078-.064-.236-.059-.563.02-.75.183-2.249.394-2.916.412-.344.009-.678.05-.742.09-.063.04-.89.096-1.835.123-2.955.086-3.756.03-4.407-.309-.193-.1-.412-.183-.487-.183-.074 0-.402-.13-.728-.292-.326-.16-.64-.292-.698-.292-.058 0-.135-.047-.172-.106a1.111 1.111 0 0 0-.275-.24c-.368-.239-.889-.77-1.09-1.114-.108-.183-.25-.375-.317-.425-.208-.159-.822-1.428-.944-1.952a4.257 4.257 0 0 0-.198-.626 2.581 2.581 0 0 1-.153-.626 12.181 12.181 0 0 0-.122-.792l-.14-.725c-.124-.64.377-2.74.702-2.94.27-.167-.172-.33-.576-.215-.126.036-.411.03-.635-.012-.224-.042-.5-.091-.615-.108-.838-.125-1.671-.317-1.72-.395-.023-.038-.15-.07-.283-.07-.132 0-.26-.033-.286-.074-.026-.04-.187-.093-.36-.116-.59-.08-1.356-.328-1.356-.441 0-.064-.133-.133-.313-.161a1.845 1.845 0 0 1-.458-.13.665.665 0 0 0-.253-.078c-.06 0-.256-.075-.436-.167a1.789 1.789 0 0 0-.805-.167c-.262 0-.583-.042-.712-.094-.13-.052-.535-.094-.902-.093-.638 0-.936-.072-1.057-.256-.03-.047-.142-.094-.25-.106l-.26-.028c-.035-.004-.106-.1-.158-.214-.14-.305-.31-.32-.951-.08-.318.117-.71.23-.87.248-1.028.12-1.103.152-1.696.733-.314.307-.607.557-.651.557-.045 0-.135.128-.2.285-.065.156-.303.473-.528.704-.225.23-.435.525-.467.654a1.252 1.252 0 0 1-.244.443 2.72 2.72 0 0 0-.349.562c-.09.195-.187.354-.217.355-.03 0-.242.254-.472.564-.23.31-.515.654-.634.766-.119.11-.216.236-.216.278 0 .082-1.274 1.562-1.95 2.266a9.921 9.921 0 0 0-.626.716 7.93 7.93 0 0 1-.364.452c-.08.089-.166.23-.193.313-.027.084-.083.152-.126.152-.095 0-.277.183-.662.666-.16.2-.375.45-.476.551a5.145 5.145 0 0 0-.477.645c-.16.252-.43.57-.596.708a4.06 4.06 0 0 0-.59.655c-.158.222-.53.649-.825.947-.297.298-.576.58-.62.626a10.68 10.68 0 0 0-.34.392c-.142.17-.33.332-.42.36-.088.028-.182.152-.208.275-.083.399-.276.755-.478.888-.161.105-1.014 1.12-1.218 1.449-.028.045-.143.094-.256.11-.152.022-.22.096-.257.283-.058.282-.24.64-.245.477-.005-.225-.153-.086-.29.27-.251.66-.51 1.083-.727 1.188-.116.057-.317.272-.449.48-.13.207-.268.377-.305.377-.037 0-.067.047-.067.104 0 .058-.157.311-.348.564-.192.252-.514.702-.717 1a9.745 9.745 0 0 1-.556.752c-.103.114-.236.33-.294.48-.06.148-.14.27-.18.27-.04 0-.074.05-.074.111 0 .06-.092.197-.204.303a.978.978 0 0 0-.254.416c-.041.188-.229.46-.787 1.142a5.877 5.877 0 0 0-.317.542 8.51 8.51 0 0 1-.507.815c-.147.202-.267.401-.267.442 0 .042-.131.28-.291.531-.16.25-.438.746-.617 1.101-.18.356-.501.943-.716 1.306a9.785 9.785 0 0 0-.559 1.085c-.091.233-.319.762-.505 1.175-.51 1.136-.566 1.269-.566 1.373 0 .053-.073.257-.162.452-.152.335-.376.915-.479 1.241-.025.08-.079.146-.12.146-.04 0-.073.047-.073.105 0 .057-.108.31-.24.563-.13.252-.264.66-.295.905-.032.246-.168.75-.303 1.122-.136.371-.247.778-.247.905 0 .216-.046.413-.37 1.573a3.84 3.84 0 0 0-.13.818c0 .198-.038.517-.084.71-.124.516-.233 4.358-.138 4.84.064.323.162.481.505.811.234.226.49.41.57.412.079 0 .267.076.417.168.15.092.358.167.462.167.103 0 .305.112.448.249.143.136.396.273.563.303.166.03.484.126.706.212.222.087.448.148.501.135.053-.012.181.062.284.165.103.103.28.188.394.188.114 0 .443.071.73.158.288.087.768.203 1.066.258.298.054.585.134.637.177.052.044.353.13.667.193.315.062.724.17.908.237.184.068.503.15.71.18.363.057.523.104 1.04.31.139.055.27.104.293.11.41.105.939.213 1.173.24.164.018.37.072.46.12.088.047.348.113.578.147.23.033.521.114.649.178.127.065.261.1.297.078.036-.023.326.054.644.17.319.116.772.222 1.008.237.42.026.58.066 1.538.387.255.085.575.168.709.183.134.015.32.068.413.118.092.05.317.116.5.147.183.03.407.085.5.122a8.7 8.7 0 0 0 .833.213c.368.08.762.192.877.25.253.127.93.292 1.201.292.11 0 .362.074.562.165.2.09.448.166.552.167.103 0 .187.04.187.085 0 .046.077.084.17.084a.8.8 0 0 1 .36.124c.132.087.368.118.774.104.464-.016.615.01.731.126.08.08.254.146.386.146s.264.04.294.09c.03.048.174.078.318.065.415-.037.994.1 1.238.294.123.097.364.27.536.385.632.422 1.316 1.198 1.682 1.908.292.567.366.804.41 1.323.042.51.029.65-.072.724-.148.109-.486.976-.486 1.246 0 .104-.035.225-.078.268-.043.044-.19.38-.326.747s-.307.78-.38.918c-.073.138-.133.306-.133.375-.001.07-.082.257-.181.417-.515.835-1.468 2.818-1.404 2.921.053.087.429.119 1.625.138.856.014 1.587.044 1.625.068.038.024.176-.013.307-.081a1.12 1.12 0 0 1 .421-.125c.1 0 .21-.043.241-.094.122-.198 1.76.15 2.455.52.267.144.4.279.463.47.048.148.168.345.268.437.099.093.22.315.268.493.047.178.139.366.202.419.155.128 1.244.227 2.22.2 1.697-.045 2.038-.033 2.603.09.225.05.412.028.69-.078.336-.128.425-.133.721-.035.262.087.373.09.495.014.106-.066.224-.073.36-.021.222.084.86.104 1.513.048 1.25-.109 2.448-.132 2.5-.05.062.1.378.123.379.027 0-.035.44-.063.98-.063s1.243-.031 1.564-.07c.321-.038.81-.063 1.085-.055.275.008.613.008.75 0 .138-.008 1.206-.029 2.373-.046 1.168-.018 2.173-.051 2.234-.075.07-.027.094-.114.063-.236-.031-.124.01-.267.115-.4l.163-.208 2.094.017c1.152.009 2.094-.01 2.094-.04s.104-.061.23-.068c.126-.007.323-.02.438-.028.115-.008.424-.007.688.003.441.016.48.033.48.211 0 .157-.058.205-.3.25-.165.031-.48.035-.699.01-.34-.04-.398-.027-.388.093.009.112-.074.145-.407.162-.563.028-.96.099-.96.171 0 .111.664.267 1.139.267.471 0 .472 0 .318.17a2.29 2.29 0 0 1-.472.35c-.174.098-.317.205-.317.237 0 .057-.151.093-.876.21-.183.029-.403.114-.488.19-.11.096-.329.139-.751.146-.52.008-.672.05-1.18.322-.322.172-.66.396-.751.497-.145.16-.258.187-.855.196-.54.008-.689-.015-.689-.106 0-.362-.41-.09-.596.395-.051.134-.15.23-.24.23-.083 0-.264.14-.402.312-.257.32-.931.761-.931.61 0-.045-.077-.123-.17-.174-.15-.08-.226-.036-.592.331-.474.477-.74.536-1.106.247-.297-.233-.475-.156-.448.194l.022.273-.465.042c-.286.026-.521.098-.61.188-.17.17-.225.182-1.387.321-.59.071-1.026.176-1.334.32-.413.192-.568.215-1.544.225-1.086.012-1.588.071-1.76.208-.051.04-.277.07-.501.064-.486-.01-1.277.12-1.523.253-.185.099-.596.04-.596-.086 0-.115-.274-.083-.453.052-.142.108-.178.107-.303-.007-.152-.137-.579-.089-.579.066 0 .114-1.288.003-1.607-.14-.081-.035-.269-.037-.417-.001-.216.05-1.53.063-2.523.025-.428-.017-1.377.056-1.377.106 0 .123-.336.13-.877.018-.427-.088-.627-.094-.79-.027-.33.137-2.328-.038-2.457-.214-.081-.111-.131-.115-.326-.027-.185.085-.38.084-.998-.002-.422-.059-.888-.157-1.035-.218-.517-.214-2.797-.11-2.947.133-.086.14-1.073.273-1.206.163-.055-.045-.117-.066-.137-.045-.021.02-.3.073-.618.116-.32.044-.788.137-1.04.207-.252.07-.815.145-1.251.166-.436.021-1.056.1-1.377.176-.321.075-.772.13-1.001.123a3.314 3.314 0 0 0-.459.004c-.023.01-.284.035-.58.056-.296.02-.587.078-.646.127-.079.066-.144.061-.237-.016-.096-.08-.173-.083-.313-.014-.225.112-1.247.267-1.762.267-.207 0-.576.071-.818.159-.243.087-.503.156-.578.153a1.292 1.292 0 0 0-.402.104c-.298.123-.21.248.178.25.123.001.282.06.353.13.092.092.172.107.277.051.237-.126 1.849-.054 2.265.101.2.075.545.137.766.137.246 0 .449.048.527.126.088.088.296.125.694.124.838-.003 1.366.043 1.694.15.16.051.555.109.876.127.322.02.885.079 1.252.132 1.587.233 1.828.258 2.403.258.334 0 .83.06 1.104.132.274.072.873.147 1.332.166.459.019.853.04.876.049.023.008.192.026.375.039 1.18.084 1.548.123 1.92.199.592.121 2.522.045 2.905-.115.169-.07.306-.167.306-.216 0-.049.211-.189.469-.31.529-.251.668-.219.856.198.097.215.175.263.5.309.213.03.561.084.776.12.274.048.447.036.584-.04.24-.133.672-.145.794-.022.066.066.143.064.277-.008.101-.055.328-.086.502-.07.175.018.302.007.284-.024-.02-.03 1.364-.035 3.073-.01 1.709.024 3.229.04 3.378.034l.459-.018c.103-.005.976.017 1.94.047.963.03 2.052.064 2.42.074.64.017.828.054 1.145.223.194.104.458.098.526-.01.03-.05.146-.124.257-.166a.551.551 0 0 0 .279-.28.471.471 0 0 1 .25-.258c.251-.08 1.021.323 1.202.628.082.139.24.343.35.454.112.112.203.241.203.289 0 .123.502.926.733 1.173.395.422 1.073 2.186 1.147 2.982.05.527.033.65-.127.956-.195.374-.385.56-.578.564a.509.509 0 0 0-.25.111c-.147.12-.87.414-1.386.562-.367.105-1.119.072-2.167-.097-.61-.098-2.259-.12-3.504-.048a9.206 9.206 0 0 1-1.126-.027c-.344-.031-.668-.024-.72.016a.244.244 0 0 1-.214.027c-.066-.026-.21-.014-.318.027-.128.047-.326.035-.555-.034-.239-.072-.442-.083-.616-.033-.39.112-1.887.002-2.44-.18-.353-.115-.524-.135-.64-.073-.09.048-.745.085-1.49.085h-1.33l-.09.23c-.05.126-.101.338-.115.471-.013.135-.096.283-.187.334a3.39 3.39 0 0 0-.46.364c-.44.406-1.504.662-3.048.732-.55.025-1.114.08-1.251.123-.142.044-.531.05-.896.013-.471-.046-.674-.036-.751.039-.145.14-1.068.319-1.32.256a1.07 1.07 0 0 1-.39-.222c-.213-.2-.635-.22-.94-.045-.115.065-.31.12-.433.122-.124.002-.244.035-.269.074-.099.16-2.624.317-2.94.183zm33.691-19.533c.162-.087.163-.095.016-.206-.204-.154-.4-.15-.534.01-.192.232.185.374.518.196zm1.313.014c.202-.128-.19-.268-.577-.206-.34.054-.356.146-.039.222.277.067.494.061.616-.016zm-8.417-64.958c.38-.075.56-.08.598-.018.062.097.96-.08 1.038-.206.024-.038.106-.041.184-.007.077.034.266.063.419.063.313 0 .357-.083.688-1.292.094-.343.197-.644.228-.668.077-.058.771-1.442.769-1.532-.001-.038-.2-.05-.44-.024-.241.026-.683.062-.98.082-.3.02-.6.054-.668.077-.734.245-1.457.34-1.652.219-.12-.074-.222-.059-.48.072-.304.154-.768.251-1.956.408-.253.033-.497.05-.543.037-.24-.07-2.457-.016-2.604.063-.097.052-.532.083-1.02.073l-.85-.018.214.183c.118.101.214.22.214.266 0 .044.047.13.104.191.162.172.595.758.697.944l.278.52c.212.4.553.613.823.514.105-.04.2-.031.231.019.03.047.171.078.316.068.144-.009.322.008.394.04.073.031.448.043.835.026.386-.017.796-.007.91.024.292.076 1.604.005 2.253-.124zm10.971-2.792c.551-.09 1.131-.158 1.29-.153.179.006.301-.036.325-.109.022-.065.18-.249.352-.41.172-.16.326-.366.342-.456.036-.203-.374-.614-.675-.678a2.89 2.89 0 0 1-.4-.12c-.126-.05-.258-.035-.417.048a1.491 1.491 0 0 1-.573.121c-.292 0-.396.055-.722.376-.21.207-.414.376-.455.376-.071 0-.777 1.016-.777 1.118 0 .096.719.048 1.71-.113zm6.3-1.009c.784-.197.791-.201.817-.422.042-.36-.156-.441-1.042-.423-.438.01-.83.037-.87.062-.101.063-.092.429.015.63.102.19.395.333.579.282.069-.019.294-.077.5-.129zm-25.072 28.531c-1.414-.114-2.568-.309-3.186-.538-.474-.175-.705-.33-1.17-.779-.558-.54-1.025-1.304-1.025-1.677 0-.08-.094-.253-.208-.387-.124-.143-.247-.437-.303-.722-.052-.264-.123-.48-.157-.48s-.088-.23-.12-.514a5.056 5.056 0 0 0-.174-.855c-.267-.787-.315-3.3-.086-4.508.149-.783.247-1.047.388-1.047.137 0 .56.505.618.739.03.117.128.29.218.384.56.583.818.893.866 1.043.03.093.108.17.173.17.066 0 .186.066.266.146.183.183 1.24.377 1.448.266.222-.119.725-.094.8.039.058.1.12.099.434-.007.28-.095.409-.103.543-.032.125.067.303.069.624.007.247-.047.673-.085.947-.085.322 0 .583-.051.743-.146.201-.119.258-.125.315-.033.057.093.107.088.278-.024.167-.11.279-.12.557-.058.327.073 1.796-.002 2.092-.107.108-.038 1.176-.109 1.96-.129.195-.005.223-.025.126-.088-.086-.056-.004-.066.263-.03.239.031.623-.001 1-.085.338-.074.764-.13.948-.124a8.43 8.43 0 0 0 .876-.04c2.084-.198 2.469-.242 2.542-.287.045-.028.496-.06 1.002-.073 1.09-.027 1.133-.03 1.295-.084.166-.057 1.05-.059 1.14-.002.04.024.24.008.446-.036.206-.044.44-.09.519-.102a.438.438 0 0 0 .201-.08c.032-.031.384-.057.783-.057a8 8 0 0 0 1.171-.084 32.862 32.862 0 0 1 2.248-.295c.913-.086 2.513-.28 2.647-.322.081-.025.596-.064 1.144-.088.714-.03 1.015-.015 1.058.055.045.073.096.068.202-.02.078-.065.345-.124.592-.132.247-.007.507-.06.576-.118.11-.092.448-.128 1.623-.175.16-.007.721-.067 1.246-.135.524-.068 1.125-.105 1.334-.081.21.023.57-.007.799-.066.229-.06.443-.092.477-.071.033.02.465-.02.96-.092.494-.07 1.262-.142 1.705-.16.443-.017.842-.054.886-.082.045-.027.246-.047.446-.043.2.003 1.022-.058 1.825-.137a62.711 62.711 0 0 1 2.044-.173 161 161 0 0 0 1.92-.123c.733-.052 1.54-.107 1.793-.123 1.593-.103 2.638-.209 2.895-.294.162-.053.525-.094.807-.09.626.006.584.008 1.553-.043.436-.022.845-.085.91-.138.068-.057.456-.103.934-.112.45-.008.886-.035.969-.06.082-.025.533-.064 1.002-.088.473-.023.986-.099 1.154-.168.255-.107.341-.11.566-.016.215.09.359.09.773.007.534-.11.655-.12 1.327-.121.806 0 1.31-.086 1.26-.214-.029-.077.032-.134.182-.167.42-.091.449-.112.394-.285-.045-.14-.014-.169.182-.174.578-.018 1.16.027 1.295.1.206.11.276.462.143.711-.11.207-.068.29.198.384.037.013.089.238.116.5.037.362.017.525-.088.684-.153.234-.178.512-.053.59.11.067.107.4-.005.644-.097.213-.648.43-.873.344-.111-.042-.13-.002-.108.23.024.254.05.28.256.26.16-.018.23.013.23.101 0 .07-.104.18-.23.246-.321.167-.585.473-.618.717-.02.146-.102.23-.279.283a4.037 4.037 0 0 0-.553.23 1.596 1.596 0 0 1-.61.157c-.189 0-.423.08-.613.208-.323.22-.557.265-.644.124-.029-.047-.088-.063-.132-.036-.043.027-.059.08-.035.12.099.16-.23.349-.513.296-.153-.03-.279-.02-.279.021 0 .04-.298.07-.663.066-.414-.005-.7.03-.763.093-.069.069-.149.075-.25.021-.138-.074-.372-.032-1.223.219-.103.03-.188.092-.188.137 0 .046-.148.069-.333.051-.216-.02-.334.002-.334.065 0 .164-.79.423-.874.286-.168-.27-1.275.048-1.502.433-.149.252-.294.305-.294.106 0-.194-.184-.148-.378.095l-.175.22-.309-.147c-.185-.088-.3-.197-.286-.273.012-.07-.023-.143-.077-.162-.06-.021-.109.073-.125.241l-.026.277-.522.024c-.287.014-.521.061-.521.105 0 .043-.047.08-.105.08-.057 0-.212.057-.345.126-.133.07-.377.14-.542.156-.166.016-.456.057-.645.09-.21.038-.41.026-.515-.03-.206-.11-.29.029-.165.273.058.112.05.177-.032.228-.145.092-.321.094-.321.003 0-.039-.206-.078-.457-.086-.36-.012-.492.021-.626.155-.136.135-.2.15-.32.075-.119-.074-.238-.048-.587.128-.24.122-.456.272-.48.332-.023.06-.143.111-.267.114-1.057.021-1.284.047-1.395.16-.108.107-.123.106-.123-.009 0-.147-.374-.186-.459-.048-.028.046-.171.084-.318.084-.146 0-.37.056-.499.122-.264.138-.763.185-1.033.097-.126-.041-.227-.01-.334.1-.266.278-.525.368-.899.312-.202-.03-.456-.012-.595.043-.446.177-.776.23-.81.13-.022-.067-.093-.065-.257.01-.125.057-.411.104-.636.104-.411 0-.835.133-.835.263 0 .038-.258.062-.574.052-.316-.009-.626.023-.689.073-.105.084-.803.173-1.905.244-.431.028-.88.11-1.613.298-.637.162-1.786.329-2.519.365-.413.02-1.164.094-1.669.164-.504.07-1.274.145-1.71.167-.436.023-.924.06-1.084.085-.988.147-1.956.226-3.13.255-.733.018-2.029.074-2.878.126-.848.051-1.831.109-2.184.127-.352.018-.728.066-.834.106a.608.608 0 0 1-.356.014c-.09-.032-.334-.024-.543.017a9.935 9.935 0 0 1-1.13.11c-.844.038-2.139.144-3.504.287-.505.053-1.275.13-1.71.172-.437.042-1.018.113-1.294.158-.275.045-.782.099-1.126.119-1.392.083-2.038.13-2.244.162-.12.019-.593.004-1.052-.033zm-66.912-2.33c-.029-.047-.323-.076-.663-.066-.415.013-.655-.018-.748-.095-.098-.081-.282-.1-.662-.064-.432.04-.573.02-.792-.113-.147-.09-.309-.162-.36-.162-.086 0-.721-.31-1.551-.758-.544-.293-1.606-1.418-1.606-1.7a.805.805 0 0 0-.09-.31c-.194-.36-.478-2.68-.349-2.843.045-.057.106-.313.134-.568.075-.668.362-1.766.605-2.315a3.82 3.82 0 0 0 .258-.85c.027-.207.12-.515.205-.686.085-.17.155-.363.155-.429 0-.065.056-.14.125-.167.069-.027.125-.129.125-.227 0-.378.779-1.088 1.224-1.116.054-.003.335-.197.626-.43.82-.66.882-.688 1.425-.64.263.025.48.077.48.117 0 .04.1.073.224.073.305 0 1.202-.168 1.378-.258.079-.04.2-.05.271-.023.07.027.129.007.129-.044 0-.052.145-.092.333-.092.241 0 .334-.035.334-.125 0-.13.59-.186 1.53-.146.359.015.428-.012.626-.244.122-.144.245-.297.274-.34.029-.045.267-.082.529-.084.476-.003.478-.002.977.51.275.282.544.513.597.513.054 0 .22.178.368.396.148.218.462.565.696.771.418.368.67.62 1.137 1.131.173.19.286.245.441.217.335-.062.569-.256.668-.555.094-.286.391-.542.628-.542.194 0 .787.517.788.688.001.08.077.221.169.313.092.092.167.205.167.252 0 .047.094.128.208.18.115.052.209.121.209.153 0 .109.698.833.803.833.058 0 .21.141.338.313.28.378 1.175 1.272 1.272 1.272.038 0 .113.104.165.231.053.127.2.278.329.334.128.057.315.25.415.428.1.179.239.346.308.373.068.026.188.18.265.342.077.162.171.295.208.295.038 0 .068.05.068.112s.095.221.211.355c.116.133.232.324.258.424.026.1.097.2.157.224.06.023.173.26.25.527.076.267.193.57.26.673.132.207.168.96.07 1.481-.137.724-.955 1.348-1.7 1.297l-.59-.04a1.222 1.222 0 0 1-.36-.083c-.092-.043-.27-.023-.458.05a1.052 1.052 0 0 1-.6.058c-.33-.07-1.002-.002-1.002.101 0 .037-.253.065-.563.062-.31-.003-.77.016-1.022.043-.252.027-.797.07-1.21.098-.413.028-.807.073-.876.1a2.02 2.02 0 0 1-.417.077c-.16.015-.498.087-.75.16-.337.098-.783.131-1.67.124-.849-.007-1.31.026-1.544.108-.183.064-.741.145-1.241.179-.576.039-.866.088-.793.135.147.093.036.092-.375-.003-.222-.052-.372-.045-.48.022-.117.073-.193.073-.309.002-.094-.06-.198-.068-.27-.022-.157.1-.305.097-.369-.007zm125.19-12.014a.084.084 0 0 1 .166 0 .084.084 0 0 1-.167 0zm.792-.5c-.029-.046-.012-.084.037-.084.048 0 .088.038.088.084 0 .045-.017.083-.037.083-.02 0-.06-.038-.088-.083zM36.149 113.94c-.16-.034-.235-.068-.166-.075.094-.01.085-.037-.038-.108-.111-.065-.171-.067-.191-.007-.037.109-.35.039-.533-.119a3.29 3.29 0 0 0-.46-.29 581.9 581.9 0 0 0-.552-.294c-.127-.067-.448-.347-.714-.621l-.484-.5-.642-.012c-.455-.009-.641-.043-.641-.118 0-.058-.122-.168-.271-.245-.33-.171-.814-.55-.814-.638 0-.035-.15-.378-.334-.76-.183-.383-.333-.772-.333-.864a.4.4 0 0 0-.125-.272c-.068-.057-.11-.127-.093-.156.017-.03.056-.424.087-.877.053-.776.194-1.38.41-1.762a.895.895 0 0 0 .103-.25c.02-.216.154-.618.316-.955.172-.359.83-1.09.98-1.09.04 0 .074-.054.074-.12 0-.068.098-.13.229-.145.186-.022.225-.064.208-.224-.016-.146.011-.184.105-.148.07.027.212.016.316-.024.236-.09.476.067.476.308 0 .399 1.302.68 1.852.4.154-.078.21-.073.283.023.075.099.143.102.397.018a1.26 1.26 0 0 1 .556-.046c.142.031.25.02.25-.025 0-.05.135-.051.374 0 .298.063.43.052.646-.055.17-.085.281-.103.3-.049.035.106.24.116.279.015.015-.04.361-.096.768-.124.569-.04.767-.086.853-.199.061-.08.113-.104.114-.051.004.108.749.2.879.109.147-.103 1.392-.244 2.253-.255.459-.006.909-.052 1-.102.171-.093 1.274-.187 3.13-.266 1.496-.064 1.69-.082 1.877-.181a.435.435 0 0 1 .333-.022c.247.099.663.092.768-.013.05-.05.348-.102.663-.115.314-.014.736-.07.938-.124.2-.054.456-.076.566-.048.11.027.34.012.51-.033.811-.218 1.585-.286 2.604-.228.253.014.497 0 .543-.033.097-.069.964-.15 1.938-.181.441-.014.701-.058.726-.123.026-.068.275-.1.773-.097.98.004 2.495-.064 2.583-.116.164-.097 1.042-.174 1.76-.153.468.013.771-.01.771-.06 0-.048.137-.065.326-.04.212.03.421-.003.597-.09.313-.157.672-.176.804-.045.066.066.224.064.572-.009a6.99 6.99 0 0 1 .99-.116c.279-.009.797-.063 1.151-.12.477-.078.73-.081.98-.014.207.056.392.062.483.015.08-.041.618-.08 1.195-.085a17.712 17.712 0 0 0 1.627-.083c.318-.041.653-.078.745-.081.957-.036 2.031-.135 2-.184-.049-.08.955-.144 1.522-.097.241.02.418.068.394.107-.024.039.118.012.314-.058.201-.072.762-.146 1.276-.169 3.39-.146 4.727-.168 4.87-.08.057.036.205.025.329-.023.609-.237.91-.268 1.168-.12.22.126.278.13.466.03.17-.091.283-.096.53-.023.349.103 1.298.288 1.58.309a.66.66 0 0 1 .32.127c.157.131.857.165.893.043.012-.044.106-.17.208-.28.184-.199.186-.2.45-.044.368.214.535.59.736 1.657.095.504.206 1.086.248 1.293.147.737.358 1.38.507 1.543.163.181.23.538.304 1.615.045.648.032.727-.18 1.126-.265.496-.524.805-.673.805-.057 0-.223.1-.368.222-.185.156-.35.219-.555.21a.646.646 0 0 0-.467.154c-.097.09-.226.165-.286.165-.06 0-.11.037-.11.083 0 .046-.216.087-.48.09-.475.006-.889.064-1.772.248a4.836 4.836 0 0 1-.898.086c-.278-.006-.515.04-.646.127-.114.074-.27.111-.346.082-.076-.03-.255-.017-.397.027-.142.044-.54.1-.884.127-.344.026-.87.073-1.168.104-.535.056-.8.063-1.126.03-.092-.01-.505.024-.918.075-.91.112-1.301.119-3.337.058-.872-.026-1.715-.086-1.873-.132-.205-.06-.304-.058-.345.009-.036.058-.164.072-.338.037-.38-.076-.398-.076-1.49-.025-.528.025-1.14.007-1.361-.04-.298-.062-.467-.057-.655.021-.155.064-.657.107-1.288.11-.57.001-1.035.024-1.035.048 0 .025-.31.05-.688.055-1.156.016-2.04.096-2.24.203-.191.102-.757.15-2.245.19-.438.013-.878.069-.983.127-.123.068-.322.086-.557.05-.202-.03-.637-.009-.968.047-.483.081-.667.08-.927-.006-.287-.095-.386-.087-.844.069-.285.096-.856.2-1.269.231-.413.031-.82.093-.905.138-.085.045-.422.09-.75.101-.329.01-.654.044-.723.073-.069.03-.538.073-1.043.096-.504.022-1.049.062-1.21.087-.29.046-.509.077-1.272.176-.218.029-.396.09-.396.136 0 .046-.056.062-.124.036-.068-.026-.275.006-.461.072-.264.093-.384.098-.55.022-.16-.073-.3-.072-.582.003-.204.055-.524.1-.71.1-.19 0-.393.055-.463.125-.084.084-.2.107-.348.07a1.973 1.973 0 0 0-.473-.045c-.756.035-1.407.098-1.873.182-.288.053-.54.079-.561.058-.02-.02-.175-.007-.343.032-.194.044-.345.037-.412-.02-.06-.049-.17-.059-.253-.021a1.145 1.145 0 0 1-.278.08 7.293 7.293 0 0 0-.46.083 6.27 6.27 0 0 1-.577.09c-.402.038-.908.124-1.043.178-.07.028-.2.062-.292.076-.092.014-.411.069-.71.123a6.1 6.1 0 0 1-1.02.085c-.312-.008-.73.066-1.21.213-.72.222-1.218.281-2.262.27-.357-.004-.512.024-.475.084.03.049.043.084.03.078a5.733 5.733 0 0 0-.319-.073zm156.41-7.398c.035-.093.02-.119-.045-.078-.066.04-.097-.016-.095-.174.002-.224.008-.228.125-.073.139.184.164.464.042.464-.045 0-.057-.062-.028-.139zm-.288-2.406c.003-.367.02-.592.039-.5.018.092.07.265.116.384.062.16.052.292-.039.5-.12.28-.122.275-.116-.384zm-21.913 49.623c-.085-.085-.155.043-.086.156.053.085.073.085.1 0 .02-.058.013-.129-.014-.156zm1.478-1.656c-.066-.174-.194-.144-.194.046 0 .108.04.148.12.118.066-.025.1-.1.074-.164zm13.82-20.304a.723.723 0 0 0 .086-.25c0-.139-.226-.104-.283.043-.131.343.032.515.197.208zm6.741-.288c.077-.169.061-.228-.102-.38l-.193-.182-.033.288c-.019.159-.02.33-.003.381.053.16.236.1.331-.107zm-5.82-1.806c0-.144-.026-.156-.168-.08-.091.049-.166.125-.166.17 0 .044.075.08.166.08.113 0 .167-.056.167-.17zm5.506-.08c0-.181-.062-.205-.24-.092-.135.086-.055.259.12.259.066 0 .12-.075.12-.167zm-.584-3.296c0-.069-.036-.125-.079-.125-.105 0-.18.13-.114.197.094.094.193.057.193-.072zm1.159-2.91a.283.283 0 0 0 .041-.254c-.048-.126-.07-.123-.214.032-.088.095-.138.21-.11.255.071.114.17.103.283-.032zm.384-2.137c.029-.046-.007-.084-.078-.084-.072 0-.13.038-.13.084 0 .046.035.083.078.083s.102-.037.13-.083zm-.208-9.804c0-.13-.048-.208-.125-.208-.126 0-.175.256-.07.361.113.114.195.05.195-.153zM156.79 64.834c0-.072-.044-.117-.099-.099-.155.052-.18.231-.033.231a.132.132 0 0 0 .132-.132zm-1.28-.413c.075-.196-.006-.22-.121-.035-.064.103-.07.163-.015.163.048 0 .109-.058.136-.128zm1.364-.372c0-.092-.034-.167-.075-.167-.094 0-.181.217-.114.284.1.1.189.045.189-.117zm-7.969-.166c.03-.047-.004-.062-.078-.033-.145.055-.171.115-.051.115.043 0 .101-.037.13-.082zm-3.227-1.748c.021-.063-.01-.094-.073-.073a.26.26 0 0 0-.146.146c-.02.063.01.094.073.073a.26.26 0 0 0 .146-.146zm1.016-.944c0-.08-.036-.146-.082-.146-.046 0-.083.122-.082.271 0 .206.02.241.082.146a.6.6 0 0 0 .082-.27zm-3.95-1.037c-.115-.116-.21.076-.114.23.1.165.102.165.13-.01.015-.098.008-.197-.016-.22zm.864-.027c0-.045-.056-.083-.125-.083s-.125.038-.125.083c0 .046.056.084.125.084s.125-.038.125-.084zm-12.014-2.34c0-.09-.056-.162-.125-.162-.11 0-.12.098-.048.4.023.098.173-.109.173-.239zm61.072 70.55c0-.07.037-.13.083-.13.046 0 .084.036.084.079 0 .043-.038.102-.084.13-.046.028-.083-.007-.083-.078zM10.833 77.324c-.025-.041.01-.096.079-.123.076-.029.125 0 .125.075 0 .135-.13.166-.204.048z" style="fill:#000;stroke-width:.0834317"/>
</svg>
