<svg xmlns="http://www.w3.org/2000/svg" xml:space="preserve" width="210mm" height="297mm" viewBox="0 0 210 297">
  <path d="M9.802 278.905a1.524 1.524 0 0 1-.585-.337c-.165-.157-.303-.226-.342-.17-.114.162-.522.388-.825.454-.269.06-.297.042-.353-.212-.072-.329.064-.582.428-.797.143-.084.313-.206.38-.271.098-.097.98-.805 1.328-1.068l.548-.415c.25-.19.495-.346.543-.346.08 0 .836-.565 1.05-.786.115-.118.43-.304.928-.547.374-.181.624-.354 1.202-.83.17-.14.36-.255.42-.255.093 0 .705-.415 1.095-.743a.464.464 0 0 1 .256-.094c.078 0 .143-.037.143-.082 0-.045.125-.134.279-.197.153-.064.279-.167.279-.229 0-.146.476-.367.55-.255.03.046.117.108.194.137.106.04.097.055-.035.06-.21.01-1.445 1.217-1.244 1.217.077 0 .19-.06.251-.134.061-.073.23-.16.374-.19a.945.945 0 0 0 .426-.24c.09-.099.199-.18.242-.18.042 0 .27-.147.504-.326.234-.179.48-.325.544-.325.065 0 .192-.081.282-.18.09-.1.282-.208.426-.24.145-.031.313-.117.374-.19.061-.074.21-.134.333-.134a.585.585 0 0 0 .384-.189c.088-.104.316-.23.506-.281.19-.051.4-.146.465-.21.195-.19.93-.661 1.307-.839.191-.09.348-.203.348-.25 0-.047.23-.195.512-.328.281-.133.511-.282.511-.33 0-.05.095-.13.21-.181a7.725 7.725 0 0 0 1.24-.73c.138-.108.325-.196.418-.196.092 0 .194-.042.225-.093.032-.052.16-.093.285-.093.125 0 .227-.037.227-.082 0-.195.647-.758 1.119-.973.283-.129.592-.321.688-.427.096-.106.23-.193.3-.193.069 0 .125-.041.125-.093 0-.05.058-.093.13-.093.072 0 .353-.167.625-.372.273-.204.533-.372.578-.372.046 0 .214-.105.375-.235.953-.768 1.378-1.067 1.59-1.12a.753.753 0 0 0 .377-.26c.076-.109.316-.303.534-.43.885-.52 1.038-.621 1.507-1 .268-.218.51-.396.538-.396.028 0 .191-.131.363-.292.171-.16.459-.385.639-.499a2.44 2.44 0 0 0 .453-.359c.07-.083.181-.152.249-.152s.189-.094.27-.21c.08-.114.31-.334.51-.487a55.966 55.966 0 0 0 1.958-1.62c.179-.158.375-.287.436-.287.06 0 .302-.188.535-.419.234-.23.46-.418.505-.418.044 0 .326-.255.627-.565.301-.311.652-.622.78-.69.128-.068.818-.697 1.534-1.397.717-.7 1.526-1.441 1.8-1.646.563-.421 1.688-1.5 1.688-1.618 0-.043.285-.353.634-.69.348-.336.794-.853.99-1.15.197-.296.52-.645.716-.775.196-.13.357-.287.357-.348 0-.062.125-.234.277-.383.152-.15.277-.322.279-.384 0-.062.19-.306.42-.543.231-.237.42-.469.42-.515 0-.047.073-.159.162-.249.282-.283.767-.984.767-1.106 0-.065-.16-.161-.357-.214-.196-.053-.434-.182-.529-.286-.094-.104-.226-.168-.294-.143-.124.048-.667-.261-1.002-.569a1.087 1.087 0 0 0-.372-.219c-.104-.028-.273-.183-.375-.345-.108-.17-.353-.365-.581-.461-.217-.092-.395-.197-.395-.234 0-.038-.29-.258-.642-.49-.353-.233-.693-.485-.756-.56-.062-.076-.17-.138-.24-.138-.14 0-.426-.213-.718-.535-.104-.115-.226-.21-.271-.21-.137 0-1.263-.855-1.774-1.348a52.721 52.721 0 0 0-1.269-1.162 133.65 133.65 0 0 1-1.013-.907c-.125-.115-.263-.21-.307-.21-.044 0-.08-.062-.08-.14 0-.076-.046-.139-.103-.139-.102 0-.594-.378-.966-.742-.102-.1-.235-.228-.295-.285-.484-.456-.761-.746-.96-1.007-.128-.167-.338-.361-.465-.43a3.42 3.42 0 0 1-.541-.412c-.17-.157-.348-.286-.398-.286-.049 0-.128-.101-.175-.226-.047-.124-.236-.297-.42-.384-.184-.088-.397-.279-.473-.425-.075-.147-.175-.267-.221-.267-.098 0-.808-.634-1.293-1.155-.187-.2-.44-.451-.562-.558a26.6 26.6 0 0 1-.616-.566 14.798 14.798 0 0 0-.743-.65 18.03 18.03 0 0 1-.821-.721c-.26-.243-.499-.442-.53-.442-.031 0-.14-.094-.242-.21a10.619 10.619 0 0 0-.727-.674c-.738-.632-2.845-2.668-3.698-3.572-.19-.201-.427-.392-.527-.423-.099-.032-.346-.238-.55-.458-.203-.22-.437-.427-.52-.459-.083-.032-.15-.12-.15-.197 0-.137-.745-.912-1.48-1.54-.21-.18-.38-.408-.38-.511 0-.118-.155-.29-.417-.466-.23-.154-.417-.307-.419-.341 0-.034-.138-.191-.304-.349-1.309-1.24-2.263-2.272-2.704-2.922a10.791 10.791 0 0 0-.64-.815l-.701-.807c-.166-.19-.302-.374-.302-.408 0-.033-.148-.222-.327-.418-.547-.6-1.05-1.295-1.26-1.745-.111-.234-.239-.426-.284-.426-.046 0-.083-.046-.083-.102 0-.1-.186-.366-.668-.953-.137-.167-.277-.415-.311-.55-.035-.137-.121-.296-.193-.356-.071-.06-.133-.218-.137-.353-.006-.238-.16-.705-.173-.526-.022.306-.785-1.2-1.083-2.136-.146-.46-.288-.858-.315-.884-.028-.025-.064-.234-.082-.463-.017-.229-.088-.526-.158-.66-.245-.474-.512-2.105-.615-3.76-.058-.92-.135-1.695-.171-1.72-.063-.044-.189-.874-.239-1.564-.012-.17.015-.442.06-.605.045-.163.12-.924.17-1.69.048-.768.116-1.5.15-1.629.036-.127.101-.546.146-.93.097-.83.25-1.458.421-1.738.069-.111.17-.404.226-.65.089-.397.286-.874.818-1.979.085-.176.252-.427.372-.557.257-.279.425-.656.52-1.168.1-.541.308-.95.814-1.594.246-.314.448-.636.448-.716 0-.08.094-.247.21-.372.52-.566.686-.768.86-1.043.102-.161.353-.507.558-.767.204-.26.506-.653.67-.873.164-.22.474-.59.688-.82.214-.23.628-.695.922-1.034.293-.34.695-.779.895-.977.199-.198.486-.528.638-.732.152-.205.4-.477.553-.605a4.72 4.72 0 0 0 .466-.456c.528-.624 1.773-1.776 1.92-1.776.046 0 .084-.048.084-.107 0-.136 1.129-1.243 1.657-1.625a3.11 3.11 0 0 0 .631-.628c.126-.185.265-.337.308-.337.043 0 .398-.314.79-.698.39-.383.742-.697.78-.697.039 0 .302-.22.586-.488.284-.269.655-.593.825-.721.17-.128.514-.432.767-.674.252-.243.487-.442.522-.442.035 0 .391-.314.791-.698.4-.383.76-.697.799-.697.039 0 .235-.157.436-.35a48.96 48.96 0 0 1 2.325-2.067c.455-.38 1.026-.892 1.269-1.137.243-.245.482-.446.532-.446.049 0 .217-.125.374-.279.157-.153.326-.279.376-.279.05 0 .09-.062.09-.14 0-.076.042-.139.093-.139.052 0 .188-.109.302-.243.115-.133.46-.412.767-.619.307-.206.98-.798 1.494-1.314a62.07 62.07 0 0 1 1.545-1.499c.335-.308.637-.65.672-.759.035-.11.177-.272.315-.361.314-.201 2.431-2.379 2.437-2.506.002-.05.286-.455.63-.897.345-.442.69-.899.766-1.014.077-.116.234-.295.349-.399.115-.103.21-.254.21-.334.002-.08.103-.242.227-.358.123-.117.314-.4.425-.628.11-.228.239-.438.285-.467.047-.029.085-.144.086-.256 0-.112.084-.33.185-.483.102-.153.185-.353.186-.444 0-.09.147-.456.326-.812.179-.355.325-.75.325-.875 0-.127.039-.253.085-.282.047-.03.113-.22.148-.424.034-.204.1-.394.147-.423.047-.03.085-.178.085-.33 0-.154.065-.403.143-.555.107-.207.143-.583.143-1.517 0-1.38-.053-1.89-.247-2.408a2.133 2.133 0 0 1-.131-.605c0-.14-.06-.442-.133-.672-.073-.23-.2-.816-.282-1.302a46.473 46.473 0 0 0-.237-1.302c-.048-.23-.132-.837-.187-1.349-.054-.511-.14-1.097-.192-1.302-.052-.205-.118-.749-.147-1.21-.029-.46-.094-.914-.144-1.01-.05-.096-.115-.682-.142-1.302-.027-.62-.086-1.175-.13-1.231-.261-.332-.297-5.141-.043-5.75.081-.195.148-.538.148-.76 0-.224.04-.585.09-.803.048-.218.17-.794.27-1.28s.289-1.177.42-1.535c.132-.358.24-.718.241-.8.001-.082.106-.343.232-.581.127-.238.192-.433.146-.433-.15 0-.198-.344-.085-.594.061-.133.143-.243.183-.243.164 0 .363.312.363.568 0 .151.1.514.222.807.44 1.056.895 2.42.895 2.684 0 .15.056.354.126.455.07.1.175.455.235.788.06.332.173.939.253 1.348.32 1.648.34 3.871.046 5.376-.242 1.242-.244 1.866-.014 3.205.181 1.053.373 1.764.847 3.138.141.41.327.995.413 1.302.086.307.216.69.288.851.072.161.132.37.133.465 0 .095.085.42.186.721.1.303.184.639.184.748 0 .11.084.364.188.567.103.203.212.536.241.74.05.35.215 1.072.414 1.814.238.888.336 5.225.142 6.324a38.92 38.92 0 0 0-.246 1.675c-.06.486-.188 1.06-.286 1.277a3.516 3.516 0 0 0-.233.837 2.43 2.43 0 0 1-.227.744c-.094.166-.218.48-.274.698-.188.725-.592 1.693-.896 2.143-.165.244-.324.516-.352.605-.028.089-.143.203-.256.253-.118.053-.239.222-.283.395-.042.166-.114.302-.16.302-.045 0-.11.121-.142.27-.033.148-.181.43-.33.627-.15.197-.273.388-.274.424-.004.107-.563.93-1.049 1.544-.14.177-.256.35-.256.384 0 .034-.25.326-.558.65-.307.323-.558.625-.558.67 0 .045-.073.155-.163.246-.248.25-.767.924-.767.995 0 .087-.249.328-.342.33-.042.002-.516.473-1.053 1.047-1.544 1.65-3.753 3.825-4.455 4.385-.354.283-.734.64-.844.795-.11.155-.26.282-.334.282-.073 0-.133.033-.133.073 0 .04-.304.33-.675.645-.37.315-.925.803-1.232 1.085a40 40 0 0 1-.884.79c-.179.153-.534.463-.79.689-.256.225-.565.49-.687.587-.526.418-1.857 1.604-2.21 1.967-.21.218-.424.395-.475.395-.05 0-.444.346-.875.768-.874.856-1.78 1.655-2.015 1.778-.086.044-.514.442-.952.883a46.921 46.921 0 0 1-1.463 1.408c-.367.332-.93.87-1.25 1.197-.32.325-.803.812-1.071 1.08-.269.27-.488.552-.488.63 0 .077-.115.215-.254.307-.218.142-1.513 1.415-1.513 1.485 0 .06-.542.664-.86.96-.193.178-.35.377-.35.443 0 .065-.25.41-.558.765-.307.356-.558.686-.558.733 0 .047-.094.17-.209.275a3.311 3.311 0 0 0-.395.453c-.395.56-1.02 1.393-1.078 1.437-.034.026-.141.193-.239.372-.313.575-.683 1.116-.762 1.116-.042 0-.157.167-.255.371-.097.204-.209.372-.247.372-.038.001-.07.058-.07.127 0 .068-.084.2-.186.293-.102.093-.186.214-.187.27-.001.122-.535 1.19-.63 1.261-.09.067-.299.676-.299.87 0 .086-.035.157-.078.157-.09 0-.26.526-.344 1.07a3.827 3.827 0 0 1-.237.78c-.265.604-.33 2.207-.14 3.451.083.537.191.99.242 1.008.05.017.092.111.092.21 0 .416 1.102 2.245 1.814 3.008.102.11.288.344.412.521.125.177.303.377.396.443.092.067.168.182.168.256 0 .074.041.134.09.134.05 0 .155.124.233.275.078.15.53.668 1.003 1.15a69.714 69.714 0 0 1 1.212 1.26c.194.211.413.385.487.385.074 0 .192.136.261.302.07.166.395.544.722.839.328.295.638.58.689.633.415.428 1.3 1.298 1.726 1.696a492.824 492.824 0 0 1 3.088 2.905c.346.33.66.6.698.6.038 0 .295.252.573.558.277.307.55.558.606.558.056 0 .331.211.612.469.28.258.714.645.965.86.418.36 1.636 1.51 2.66 2.514.23.225.513.44.628.475.115.037.21.105.21.153s.059.087.13.087c.073 0 .299.208.502.464.203.255.657.72 1.008 1.034 1.084.968 1.336 1.212 1.336 1.29 0 .04.162.14.36.219.233.093.48.309.705.614.19.26.405.47.477.47.073 0 .538.379 1.034.84.495.463 1.123.988 1.394 1.168.272.18.494.36.494.398 0 .039.169.193.376.344.206.15.541.43.744.622.202.192.403.35.445.35.042 0 .303.212.58.473.278.26.662.554.854.653.192.098.35.215.35.258 0 .044.114.104.255.134.14.03.423.205.628.39.315.287.872.66 2.444 1.644.274.171.57.328 2.624 1.392.742.384 1.433.727 1.535.762.246.083.564.273.772.46.164.15 1.481.623 1.731.623.111 0 .613-.563.613-.688 0-.055.307-.513.662-.987a1.98 1.98 0 0 0 .31-.744c.093-.59.129-2.974.046-3.026-.038-.023-.07-.294-.07-.6 0-.627.08-.678.586-.382.217.127.301.264.376.614.053.249.157.472.23.496.128.043.22.138.786.806.13.153.262.415.293.582.031.167.136.403.232.525.207.264.92 1.976.92 2.21 0 .09.08.238.179.33.098.091.205.292.239.445.033.153.116.426.183.605.068.179.175.618.238.976.064.358.151.72.194.804.11.214.617.372.978.304a.95.95 0 0 1 .611.1c.444.227 1.892.474 3.278.56.512.032.983.1 1.047.154.112.093 1.652.224 3.656.311.537.024 1.186.083 1.441.132.836.16 2.107.224 4 .203 3.134-.035 7.92-.184 9.44-.293l2-.145a32.758 32.758 0 0 0 1.59-.181 24.118 24.118 0 0 1 1.86-.176 16.647 16.647 0 0 0 1.748-.192c.506-.086 1.038-.134 1.181-.105.144.029.378.012.522-.037.143-.049.992-.152 1.888-.23.895-.077 2.066-.183 2.603-.234.537-.052 1.03-.073 1.098-.047.067.026.218-.016.335-.093.141-.093.572-.16 1.274-.198.583-.032 1.165-.11 1.293-.173.128-.063.818-.145 1.534-.182.715-.036 1.376-.107 1.468-.156.092-.05.633-.128 1.202-.174.569-.046 1.078-.127 1.13-.18.054-.054.355-.097.67-.097.314 0 .692-.06.841-.133.149-.073.647-.161 1.107-.196.46-.035.904-.099.986-.142.277-.147 4.167-.595 5.96-.687.34-.018.672-.064.736-.103.208-.129 1.631-.277 2.27-.236.31.02 1.308-.123 1.552-.222.101-.041.215.003.32.126.163.19.164.19.458.008.163-.1.396-.18.517-.177.122.003.41-.041.64-.098.377-.093 3.261-.378 3.953-.39.154-.003.782-.046 1.395-.095.614-.049 1.326-.104 1.582-.123.255-.02.862-.1 1.348-.18 1.408-.233 2.256-.354 2.57-.368.16-.007.35-.06.42-.119.07-.058.36-.127.645-.154a9.17 9.17 0 0 0 .743-.095c.817-.17 2.077-.481 2.543-.628.303-.095.664-.173.803-.173.14 0 .373-.063.52-.14a1.27 1.27 0 0 1 .47-.139c.218 0 1.581-.46 2.237-.754.216-.097.428-.176.47-.176.18 0 .866-.393 1.151-.659.17-.159.456-.384.635-.5.576-.372 1.285-1.141 1.531-1.663.133-.28.303-.56.379-.622.197-.164.439-.7 1.07-2.37.115-.306.236-.578.268-.604.031-.025.113-.172.18-.325.171-.389.681-1.163.766-1.163.038 0 .098-.136.133-.302a1.36 1.36 0 0 1 .219-.489c.44-.529.608-.858.618-1.207.01-.289.047-.37.168-.36.115.01.156-.064.157-.28 0-.224.022-.26.093-.152.081.124.101.124.182 0a.424.424 0 0 0 .037-.314c-.03-.096-.016-.2.03-.233.125-.085.494-1.153.494-1.428 0-.129.062-.287.139-.35.077-.064.14-.172.14-.24 0-.142.6-1.206.836-1.481a1.74 1.74 0 0 0 .22-.325c.033-.077.183-.35.333-.605.15-.256.275-.535.278-.622.003-.086.08-.18.17-.209.089-.029.25-.21.356-.401l.502-.907c.17-.307.448-.733.62-.946.171-.213.312-.426.312-.474 0-.047.1-.202.22-.343.122-.142.277-.43.345-.642a2.73 2.73 0 0 1 .433-.755c.171-.203.332-.475.357-.604.099-.501.261-.897.472-1.15.12-.144.219-.338.219-.43 0-.092.063-.22.14-.283.076-.064.139-.168.139-.231s.095-.257.212-.43c.239-.355.532-1.2.532-1.533 0-.12.087-.386.194-.59.205-.393.425-1.163.54-1.882.037-.239.114-.49.17-.558.056-.068.166-.371.245-.673.079-.303.185-.576.236-.607.051-.032.091-.329.088-.66-.007-.886.068-1.7.175-1.908.052-.1.121-.517.155-.926a9.95 9.95 0 0 1 .198-1.302c.076-.307.158-.872.182-1.256.095-1.5.147-1.766.379-1.918.12-.078.196-.197.17-.264-.028-.072.07-.174.238-.248.323-.143.378-.407.1-.48-.139-.036-.187-.003-.187.129 0 .253-.175.219-.279-.056a.657.657 0 0 1 .014-.488c.056-.14.115-.598.132-1.017.016-.418.079-.942.138-1.162.06-.221.148-.653.196-.96.111-.714.36-2.269.4-2.511.228-1.345.78-5.428.836-6.185.045-.61.098-.97.205-1.395a2.36 2.36 0 0 0 .04-.569c-.017-.28.016-.347.195-.401.133-.04.17-.084.097-.114-.082-.034-.103-.18-.068-.482.027-.239.066-.79.087-1.224.02-.435.082-.98.137-1.21.055-.23.121-.669.148-.976.027-.307.09-.872.141-1.255.051-.384.116-.95.145-1.256a149.86 149.86 0 0 0 .223-2.511c.057-.716.194-1.951.302-2.744.109-.793.206-1.717.215-2.053.017-.615.122-1.463.372-3.016.187-1.158.229-1.483.285-2.232.027-.358.094-.742.15-.854a.695.695 0 0 0 .042-.419c-.09-.341.139-1.192.322-1.192.173 0 .283-.291.174-.466-.04-.064.028-.338.152-.618.199-.45.216-.586.162-1.29-.034-.434-.095-.788-.137-.788-.042 0-.051-.066-.02-.147.035-.09.08-.11.117-.05.036.058.165-.014.32-.179.203-.214.263-.369.268-.694.003-.23.041-.418.084-.418.111 0 .098-.873-.014-.986-.163-.163-.143-.885.026-.98.084-.047.13-.142.104-.21-.027-.07.022-.341.107-.604.12-.363.133-.537.06-.732a3.366 3.366 0 0 1-.142-.654c-.044-.38-.033-.402.225-.453.312-.063.304-.037.16-.52-.1-.33-.093-.385.062-.498.162-.118.163-.137.018-.298-.17-.189-.203-.636-.062-.854.078-.122.09-.12.091.012.002.158.242.265.444.197.162-.054.144-.267-.04-.482-.14-.163-.168-.167-.263-.037-.083.113-.098.014-.068-.447.05-.8.184-1.29.35-1.29.18 0 .174-.277-.01-.541-.127-.18-.132-.28-.038-.672.06-.253.16-.46.219-.46.06 0 .175-.2.258-.442.172-.51.132-1.16-.092-1.502-.173-.264-.154-.582.078-1.31.138-.432.155-.653.09-1.218-.074-.658.026-1.388.19-1.388.036 0 .14.169.234.375.103.228.203.342.254.29.092-.091-.157-.661-.338-.778-.144-.093-.14-1.808.005-2.19.063-.167.165-.293.226-.28.078.018.105-.141.092-.533-.04-1.167-.019-1.598.13-2.597.32-2.15.436-2.65.647-2.805a.341.341 0 0 0 .013-.54c-.182-.143-.054-1.448.196-2.01.295-.66.308-.73.164-.874-.182-.182-.175-.52.012-.52.084 0 .207-.155.29-.365.086-.22.221-.385.341-.418.186-.05.177-.074-.156-.39-.307-.293-.346-.376-.294-.629.108-.532.268-.94.435-1.108.27-.27.361-1.07.118-1.028-.112.02-.061-.91.057-1.034.047-.049.085-.237.086-.419.001-.244.024-.294.09-.19.062.098.082.019.068-.27-.012-.258.023-.423.097-.449.063-.022.116.025.116.106 0 .194.15.19.225-.006.032-.084-.008-.226-.09-.316-.225-.249-.147-.778.12-.816.116-.016.21-.069.21-.116 0-.048.075-.087.167-.087.173 0 .39-.166.39-.297 0-.041-.06-.075-.137-.075-.075 0-.197-.094-.27-.209-.164-.256-.07-.969.122-.926.087.019.105-.041.063-.208-.044-.175-.005-.284.152-.427l.365-.334c.162-.15.264-.82.257-1.686-.002-.268.03-.488.071-.489.156 0 .305-.482.207-.666-.133-.248-.018-.537.254-.64.127-.048.206-.127.177-.175a.099.099 0 0 1 .028-.137c.045-.028.07-.26.056-.518-.03-.58.033-.84.19-.78.067.026.119-.009.116-.076-.025-.562.037-.913.16-.913.075 0 .19-.094.253-.21.16-.285.367-1 .362-1.25-.005-.259.14-.354.542-.354.265 0 .332-.043.406-.262.072-.216.053-.3-.11-.473l-.197-.21.231-.342c.127-.187.188-.34.135-.34-.054 0-.031-.067.05-.147.204-.205.37-.517.39-.737.102-1.13.631-1.75.871-1.023.115.347.25.418.341.179.077-.2-.155-.87-.334-.965-.282-.148-1.081-.197-1.541-.095-.788.175-1.78.259-3.814.32-1.074.032-2.078.058-2.232.057a4.08 4.08 0 0 0-.72.098c-.413.092-1.444.125-6.488.209-1.1.018-2.523.079-3.162.136-1.339.12-4.461.27-7.022.34-.972.027-1.976.07-2.232.096-.783.08-3.285.237-4.464.28-1.303.048-3.207.142-3.674.183-.18.016-.728.047-1.22.07-.49.023-.938.069-.992.103-.055.033-.637.082-1.294.107-.657.026-1.298.068-1.425.093-.127.026-.733.089-1.347.14a49.23 49.23 0 0 0-1.814.186c-.667.088-.92.118-1.86.222-.23.026-.983.089-1.674.14-.69.052-1.402.125-1.581.163a6.83 6.83 0 0 1-.977.082c-.358.007-1.425.045-2.371.084-2.273.093-5.85.095-7.554.004-1.094-.059-1.403-.106-1.54-.233a1.61 1.61 0 0 0-.491-.266 3.518 3.518 0 0 1-.646-.314 5.288 5.288 0 0 0-.662-.349c-.186-.077-.541-.329-.791-.559-.463-.427-1.244-1.327-1.244-1.433 0-.032-.11-.232-.244-.444a2.246 2.246 0 0 1-.287-.812c-.024-.235-.071-.437-.105-.45-.122-.046-.04-1.38.109-1.79.084-.23.153-.494.153-.585.003-.35.69-1.368.923-1.368.042 0 .302-.209.578-.463.275-.254.542-.463.593-.465.052 0 .156.196.233.437.105.33.197.455.372.502.363.097 2.02-.003 2.78-.169.522-.113.728-.124.856-.045.116.073.319.08.66.02.566-.097 2.402-.278 3.425-.338a21.47 21.47 0 0 0 2.184-.231 9.787 9.787 0 0 1 1.21-.092c.306.002.83-.039 1.162-.09.332-.05.94-.11 1.348-.132.41-.021 1.016-.085 1.349-.14 1.006-.17 1.775-.22 1.874-.12.099.1.7-.004 1.074-.183.123-.06.564-.08 1.116-.05.766.04.986.019 1.377-.136.364-.144.749-.192 1.779-.22.723-.019 1.433-.08 1.578-.135.145-.055.83-.12 1.522-.146a42.61 42.61 0 0 0 2.52-.182c.693-.075 1.394-.11 1.558-.077.163.033.297.021.297-.026s.408-.094.907-.104c.498-.01 1.351-.065 1.895-.123.544-.057 1.172-.075 1.395-.04.224.036.623.072.887.08.264.01.512.048.55.087.132.131.463.07.622-.117.133-.154.275-.186.844-.186.437 0 .79-.053.978-.147.23-.115.384-.127.706-.059.283.06.443.057.513-.013.073-.073.153-.07.287.014.149.093.227.093.393 0 .321-.18 3.319-.188 3.524-.008.124.108.197.113.36.026a.82.82 0 0 1 .47-.057c.145.029.286.017.313-.027.081-.132 1.423-.299 3.353-.417.358-.022.807-.08.999-.13.46-.12 1.9-.067 2.073.077.146.122.333.095.96-.137.29-.108.863-.163 2.045-.197 2.01-.058 2.244-.076 2.48-.194.103-.052 1.11-.101 2.278-.112 1.15-.01 2.448-.052 2.883-.094.474-.044.896-.039 1.053.014.181.062.296.057.368-.015.064-.065.49-.105 1.114-.105.757 0 1.083-.038 1.306-.154.164-.084.599-.183.967-.22.528-.051.73-.116.96-.31.16-.135.346-.246.413-.246.21 0 .369-.286.373-.676.003-.326.037-.389.256-.462.194-.065.305-.045.48.085.124.093.224.233.22.31-.002.076.101.453.232.836.321.945.445 1.504.385 1.734-.028.107.036.354.143.553.107.199.194.522.194.717 0 .196.05.448.11.56.068.128.105.626.1 1.342-.007.735.024 1.14.087 1.14.093 0 .02 1.382-.08 1.485-.07.074-.214-.218-.216-.439 0-.123-.059-.21-.14-.21-.178 0-.183.315-.008.46.159.132.03.61-.185.693a.23.23 0 0 0-.133.2c0 .23-.467.973-.613.973-.189 0-.394.566-.411 1.134-.027.885-.02.912.228.912.222 0 .225.008.108.347a1.23 1.23 0 0 0-.04.703c.044.197.056.396.026.444-.03.048.03.087.132.087.193 0 .24.092.343.677.034.193.133.402.22.465.252.182.28.288.178.677-.052.202-.106.702-.119 1.11-.019.605-.088.911-.37 1.628-.19.486-.449 1.083-.573 1.326-.124.243-.226.505-.226.582 0 .077-.104.23-.232.342-.128.111-.233.278-.233.371 0 .094-.041.17-.093.17-.05 0-.093.052-.093.116-.001.16-1.567 2.238-1.755 2.33-.195.094-.477.582-.477.825 0 .103-.207.42-.46.703-.254.285-.49.645-.524.802a4.597 4.597 0 0 1-.252.707 1.9 1.9 0 0 0-.165.918c.02.404-.014.537-.18.714-.168.178-.21.348-.233.946-.033.823-.16 1.483-.314 1.637a.377.377 0 0 0-.104.225c0 .067-.084.205-.186.307-.102.103-.186.27-.186.374a.81.81 0 0 1-.109.361c-.086.139-.073.247.066.533.096.198.246.57.335.825.136.394.14.486.033.605-.213.236-.254.618-.29 2.697-.07 4.11-.1 4.65-.269 4.838-.086.095-.134.208-.107.252.062.1.07 2.053.011 2.676l-.082.883a60.44 60.44 0 0 0-.097 2c-.031.87-.101 1.853-.155 2.186-.054.332-.113 1.609-.13 2.836-.032 2.236-.109 4.22-.184 4.744-.022.153-.102.65-.178 1.105-.122.73-.122.857 0 1.092.123.239.119.424-.04 1.732-.098.806-.183 1.632-.189 1.837a29.03 29.03 0 0 1-.195 2.465c-.046.332-.094.995-.107 1.474-.013.478-.072.962-.13 1.076-.06.114-.136.414-.17.665-.195 1.419-.248 1.713-.39 2.18a7.788 7.788 0 0 0-.227 1.162c-.04.358-.113.776-.164.93-.147.445-.287 1.16-.354 1.813-.035.333-.104.71-.155.837-.081.207-.298 1.002-.748 2.744-.32 1.236-.463 1.978-.538 2.783-.043.464-.146 1.075-.229 1.356-.157.537-.38 1.578-.507 2.383-.042.262-.117.555-.166.65-.085.164-.138.53-.261 1.803a18.99 18.99 0 0 1-.143 1.07c-.14.84-.267 1.988-.277 2.51-.005.257-.047.57-.094.698-.094.257-.273 2.43-.315 3.814a39.632 39.632 0 0 1-.085 1.627c-.141 1.756-.342 4.035-.394 4.465-.032.255-.07.8-.086 1.209a35.177 35.177 0 0 1-.33 3.366c-.057.348-.13.884-.164 1.191-.034.307-.1.62-.148.694-.097.154-.19.608-.374 1.817a27.45 27.45 0 0 1-.218 1.256c-.05.23-.143.711-.207 1.07-.065.357-.172.781-.239.94-.067.16-.095.318-.063.35.032.032.01.058-.05.058-.06 0-.109.1-.109.221a.493.493 0 0 1-.139.337.42.42 0 0 0-.14.28c0 .091-.125.3-.279.464-.153.164-.279.315-.279.334 0 .107-.625 1.05-.83 1.25-.45.444-1.282 1.113-1.382 1.113-.055 0-.128.09-.163.198-.067.212-.929 1.146-1.9 2.061-.206.194-.375.39-.375.436 0 .046-.081.109-.181.14a.412.412 0 0 0-.239.238c-.081.257-.696.921-.996 1.077-.188.097-.291.261-.4.635-.114.393-.243.588-.582.882-.24.208-.49.379-.557.379-.09 0-.106.087-.061.326.069.369-.066.604-.347.604-.206 0-.557.715-.486.992.029.114-.127.355-.47.728-.338.367-.497.612-.465.715a.48.48 0 0 1-.044.326c-.268.48-.458 1.044-.411 1.223.029.11.012.201-.039.201-.05 0-.229.28-.397.623-.169.342-.41.718-.537.836-.165.152-.203.246-.136.33.159.2.204 1.102.057 1.159-.085.032-.126.212-.126.545 0 .324-.045.523-.128.571-.146.085-.358.958-.233.958.045 0 .082.2.082.443 0 .342-.043.47-.186.559-.103.064-.186.197-.186.295 0 .098-.128.27-.283.38-.226.161-.261.228-.175.332.078.094.08.13.004.13-.062 0-.104.178-.104.445 0 .33-.048.485-.186.604-.259.22-.233.44.093.797.294.321.353.532.167.594-.078.027-.051.164.093.472.235.5.248.593.091.645-.088.03-.089.118-.003.403.12.394.103 1.482-.036 2.47-.048.338-.058.724-.022.856.035.132.021.42-.031.64a3.228 3.228 0 0 0-.08.75c.008.193-.018.402-.059.465-.04.062-.073.392-.073.731 0 .458-.043.665-.163.798-.097.107-.163.328-.163.545 0 .516-.476 1.763-.78 2.041a1.437 1.437 0 0 0-.196.242c-.052.081-.212.318-.357.526-.19.274-.263.49-.263.78.001.537.477 1.498.852 1.72.154.09.28.213.28.273 0 .124.868 1.085 1.813 2.008.817.797.72.7 1.195 1.192.413.428.994 1 1.302 1.283.094.087.408.4.697.694.29.294.575.535.635.534.06 0 .252.167.427.372.176.205.393.372.483.372.09 0 .345.178.565.395.878.866 1.242 1.186 1.347 1.186.06 0 .227.115.37.256.144.14.461.423.705.628.245.204.55.487.681.628.13.14.29.255.354.255s.249.146.41.324c.162.178.383.35.491.384.108.034.353.202.545.374.192.173.41.313.483.313.074 0 .194.085.266.188.118.169.393.367 1.204.868.141.087.256.213.256.28 0 .068.107.171.237.23.223.102.398.253 1.39 1.201.226.218.456.396.51.396.054 0 .24.146.415.325.174.18.382.326.463.326.081 0 .147.041.147.093 0 .05.084.093.186.093.104 0 .186.062.186.14 0 .076.033.139.073.139.04 0 .324.24.63.535.306.294.659.597.783.674.125.077.438.328.696.558.258.23.616.493.796.584.18.09.41.29.511.441.102.152.346.391.543.532.197.141.494.37.66.51.166.139.497.336.735.438.238.102.433.228.433.28 0 .052.1.12.22.15a.56.56 0 0 1 .324.28c.057.125.167.226.244.226.078 0 .142.042.142.093s.053.093.118.093.368.188.674.418c.306.23.598.418.65.42.05 0 .237.15.413.331a3.8 3.8 0 0 0 .559.477c.442.272.77.762.907 1.352.167.724.103 1.038-.201.98-.157-.03-.206-.007-.172.082.026.07.005.125-.047.125-.053 0-.112-.049-.132-.11-.06-.18-1.074-.096-1.362.113-.212.155-.3.166-.663.08a3.998 3.998 0 0 1-.617-.193c-.149-.072-.255-.057-.434.06-.222.146-.26.144-.639-.022-.621-.273-.93-.373-1.323-.428-.2-.027-.456-.139-.571-.247-.135-.127-.232-.161-.272-.097-.09.147-.474.122-.608-.038-.116-.14-.511-.11-.69.053-.046.043-.307-.127-.588-.384-.303-.277-.591-.46-.722-.46-.12 0-.232-.044-.25-.098-.017-.053-.136-.11-.263-.126-.373-.046-.764-.259-1.15-.625-.2-.188-.48-.366-.625-.395-.28-.056-2.037-1.157-2.037-1.276 0-.038-.136-.1-.302-.135-.175-.038-.473-.237-.707-.472-.222-.225-.446-.408-.496-.408-.05 0-.266-.14-.479-.31a3.412 3.412 0 0 0-.713-.436c-.18-.07-.55-.307-.822-.527-.274-.22-.542-.401-.597-.401-.055 0-.075-.025-.044-.056.064-.064-.993-.967-1.132-.967-.05 0-.146-.074-.213-.164a1.696 1.696 0 0 0-.377-.328c-.408-.26-1.772-1.39-1.99-1.647-.11-.129-.44-.423-.735-.652a58.4 58.4 0 0 1-2.219-1.88c-.852-.752-3.404-3.37-3.822-3.922a7.8 7.8 0 0 0-.545-.651 4.485 4.485 0 0 1-.426-.522c-.125-.179-.303-.38-.395-.447-.093-.067-.169-.181-.169-.255 0-.073-.086-.186-.191-.25-.106-.065-.379-.4-.607-.745-.228-.345-.449-.628-.49-.628-.042 0-.211-.21-.377-.465-.166-.256-.361-.465-.434-.465-.073 0-.133-.055-.133-.122s-.128-.252-.284-.412c-.156-.16-.41-.534-.565-.832-.417-.803-.602-1.127-.731-1.284-.065-.077-.088-.14-.053-.14.036 0-.003-.068-.086-.151-.14-.14-.169-.135-.382.065a.97.97 0 0 1-.576.238c-.19.011-.512.108-.714.213-.203.106-.455.193-.561.193a.818.818 0 0 0-.39.138c-.109.077-.422.186-.695.242-.273.057-.58.155-.683.218a4.48 4.48 0 0 1-.688.276c-.41.132-.517.14-.583.04-.066-.1-.103-.095-.196.024-.074.096-.343.171-.765.214-.358.036-.665.106-.682.155-.017.048-.216.088-.44.088-.407 0-1.171.147-1.432.274-.075.037-.322.032-.549-.01-.286-.054-.454-.043-.547.033-.073.061-.345.124-.603.14-.26.015-.524.072-.59.126-.072.06-.408.083-.847.058-.4-.023-1.257-.015-1.905.018-.647.032-1.16.032-1.14 0 .065-.106-.709-.178-.888-.082-.21.112-2.329.129-2.329.018 0-.085-3.17-.265-4.324-.246-.41.007-1.032-.022-1.383-.064s-.686-.045-.744-.008c-.058.038-.461.075-.896.082a41.32 41.32 0 0 0-3.023.188c-.667.063-1.272.075-2.418.05-.555-.011-.936.007-1.284.062-.042.007-.05.054-.018.105.07.114.206.098-1.581.184-1.58.076-3.37.305-3.677.47-.126.067-.342.07-.672.01-.35-.064-.59-.055-.859.03-.706.222-1.633.35-2.118.293-.347-.041-.554-.019-.72.078-.528.31-.693.351-1.039.262a.903.903 0 0 0-.638.037c-.163.068-.37.125-.461.125-.091 0-.28.059-.42.131-.288.15-.848.1-1.076-.098-.226-.195-.344-.152-.41.148-.073.334-.269.409-1.05.404-.32-.002-.602.029-.627.07-.09.143-.807.21-.886.081-.057-.092-.105-.095-.205-.012-.072.06-.495.137-.94.171-.446.034-.832.098-.859.141-.027.044-.3.08-.608.08-.307 0-.636.04-.73.091-.15.08-.51.103-1.286.081a.651.651 0 0 0-.372.124c-.306.252-.854.362-1.802.36-1.185-.001-1.337.017-1.774.213-.198.089-.447.132-.572.1-.133-.033-.49.041-.889.185-.61.22-.744.236-1.59.18-.67-.044-.925-.031-.925.046 0 .14-.324.137-.722-.008-.276-.1-.333-.094-.435.045-.138.19-1.056.293-1.24.141-.084-.07-.187-.067-.348.006-.162.074-.373.077-.717.012-.432-.082-.516-.07-.746.1-.147.108-.31.161-.373.121-.063-.038-.26-.08-.44-.091-.884-.058-1.264-.034-2.233.14a7.17 7.17 0 0 1-.956.1c-.28.003-.463.052-.493.13-.052.137-.555.134-1.844-.008-.405-.044-1.672-.065-2.816-.045-1.737.03-2.144.012-2.473-.112-.216-.081-.728-.166-1.137-.188-.906-.05-2.822-.29-3.395-.427a13.07 13.07 0 0 0-1.116-.187c-.384-.048-.802-.125-.93-.17a2.429 2.429 0 0 0-.623-.087c-.215-.003-.501-.078-.636-.166-.216-.142-.725-.277-1.299-.346a1.84 1.84 0 0 1-.496-.188 1.31 1.31 0 0 0-.632-.138c-.178.015-.352-.013-.388-.064-.108-.15-.505-.305-.946-.367-.228-.032-.442-.1-.475-.153-.032-.053-.243-.119-.467-.146-.225-.028-.46-.115-.523-.194-.062-.078-.309-.172-.547-.209-.347-.052-.464-.034-.584.092-.17.18-.708.943-1.148 1.63-.164.256-.32.487-.348.512-.129.12-.83 1.095-.935 1.302a1.3 1.3 0 0 1-.177.28c-.207.166-.75.893-.75 1.003 0 .074-.162.29-.36.482-.197.192-.427.48-.511.64l-.299.57a1.19 1.19 0 0 1-.472.433c-.18.085-.362.245-.403.355-.14.368-.683 1.116-1.205 1.658-.285.296-.539.592-.564.657-.058.146-.203.32-.767.912-.243.256-.442.503-.442.55 0 .048-.063.087-.14.087-.076 0-.14.032-.14.07 0 .04-.09.113-.2.163a.758.758 0 0 0-.303.277c-.14.256-.43.513-.58.513-.069 0-.125.06-.125.134 0 .162-1 1.21-1.233 1.29-.09.032-.162.1-.162.152 0 .051-.252.34-.558.641-.307.301-.559.576-.559.61 0 .118-.68.8-.797.8-.064 0-.214.115-.334.256-.12.14-.332.314-.47.386-.258.133-1.157.916-1.958 1.706-.29.285-.53.442-.677.442-.125 0-.228.043-.228.096 0 .148-.497.6-.8.727-.148.062-.353.23-.455.374-.224.313-1.533 1.5-1.655 1.5-.047 0-.062-.062-.032-.14.029-.076.018-.139-.024-.139-.096 0-.754.615-.754.704 0 .088-.452.502-.563.517l-.18.023c-.05.006-.185.107-.302.224-.327.329-1.4 1.103-1.629 1.176-.113.036-.196.113-.184.172.012.058-.067.113-.175.12-.26.018-.424.125-.358.233.03.048-.043.093-.161.1l-.37.024c-.084.005-.263.103-.395.218-.133.115-.315.21-.404.21-.089 0-.287.109-.44.242-.248.215-1.338.778-1.515.782-.037.001-.166.106-.286.233-.12.127-.299.23-.397.23-.097 0-.408.13-.689.29-.343.193-.583.27-.728.234a.508.508 0 0 0-.393.08.862.862 0 0 1-.437.138 1.09 1.09 0 0 0-.491.155c-.128.083-.259.126-.29.094-.033-.033-.112-.015-.177.04-.085.07-.202.054-.41-.054-.311-.16-.559-.073-.559.197 0 .079-.101.129-.26.129-.143 0-.31.049-.37.109-.081.081-.167.082-.336.006-.185-.084-.238-.077-.282.04-.034.087-.115.12-.207.085-.284-.109-.786.05-.892.283-.08.174-.173.221-.442.221-.188 0-.37.029-.406.064-.176.176-1.564.215-1.62.046a.178.178 0 0 0-.16-.11.204.204 0 0 1-.174-.116c-.034-.084-.078-.07-.152.047-.07.11-.172.146-.318.109-.146-.037-.233-.007-.271.092-.07.18-.71.202-.892.03-.095-.089-.133-.09-.165-.004-.029.079-.108.086-.271.024-.281-.107-.784.078-.982.36-.104.148-.252.194-.686.213-.305.013-.63.06-.722.105-.092.045-.49.1-.883.123-.976.058-1.14.084-1.212.195a.913.913 0 0 1-.275.208c-.171.09-.267.085-.493-.028-.28-.14-.55-.114-.55.051 0 .048-.199.081-.442.073a2.213 2.213 0 0 0-.798.14c-.29.125-.384.132-.499.037-.115-.096-.16-.09-.25.03-.082.113-.342.16-1.105.197-.58.03-1.02.013-1.052-.038-.046-.075-.303-.059-.876.056-.077.015-.279-.005-.45-.045zm17.749-3.12c0-.08-.042-.12-.093-.088-.051.031-.093.096-.093.145 0 .048.042.087.093.087.05 0 .093-.065.093-.145zm-14.006-.939c.05-.127.036-.133-.083-.035-.161.134-.178.188-.058.188.045 0 .11-.069.141-.153zm.752-.498c.032-.051.016-.093-.035-.093-.051 0-.119.042-.15.093-.032.051-.016.093.035.093.051 0 .119-.042.15-.093zm1.4-1.03c.093-.152.018-.16-.237-.025-.223.117-.224.122-.029.124.112 0 .232-.044.265-.098zm142.105-44.63c.1-.162-.152-.215-.304-.064-.138.14-.134.15.05.15.11 0 .225-.038.254-.086zm5.325-29.835c-.162-.162-.206-.071-.1.205.042.11.088.125.159.053.07-.07.054-.145-.06-.258zm1.455-8.561c-.03-.114-.092-.208-.137-.208-.096 0-.111.405-.018.498.111.111.211-.075.155-.29zm.371-1.84c-.03-.078-.075-.123-.1-.099-.024.025-.016.09.018.144.092.148.145.12.082-.044zm3.316-26.084a.093.093 0 0 0-.186 0 .093.093 0 0 0 .186 0zm2.712-21.53c0-.05-.045-.104-.1-.122-.055-.019-.1.036-.1.121 0 .086.045.14.1.122.055-.018.1-.073.1-.122zm1.007-7.511c-.002-.17-.165-.4-.234-.33-.082.081.04.446.149.446.048 0 .086-.052.085-.116zm6.9-25.002c-.07-.189-.084-.193-.142-.042a.633.633 0 0 0-.005.356c.052.162.071.168.142.041.045-.08.047-.24.005-.355zm-.202-.691c0-.128-.042-.232-.093-.232-.104 0-.127.306-.03.403.102.102.123.073.123-.171zm1.86-5.08c0-.051-.042-.067-.093-.035-.051.031-.093.099-.093.15 0 .051.042.067.093.036.051-.032.093-.1.093-.15zm.465.063c0-.022-.042-.067-.093-.098-.05-.032-.093-.014-.093.04 0 .055.042.1.093.1s.093-.02.093-.042zm-57.013 93.42c-1.014-.075-2.16-.404-2.84-.815a2.462 2.462 0 0 0-1.016-.34c-.305-.033-.661-.114-.791-.179-.13-.064-.442-.128-.693-.141-.252-.013-.524-.056-.604-.096-.081-.04-.312-.081-.513-.092-.356-.02-1.101-.198-2.425-.582a6.623 6.623 0 0 1-1.135-.46c-.267-.147-.55-.244-.629-.213-.079.03-.243-.01-.363-.089-.121-.08-.55-.235-.953-.347a10.756 10.756 0 0 1-1.026-.332c-.161-.07-.35-.128-.421-.128-.07 0-.23-.071-.355-.158-.124-.088-.416-.189-.648-.225a6.72 6.72 0 0 1-.971-.26c-.302-.106-.684-.194-.85-.194-.164 0-.351-.063-.415-.14a.495.495 0 0 0-.338-.139c-.123 0-.421-.101-.663-.225a3.035 3.035 0 0 0-.812-.272 4.323 4.323 0 0 1-.778-.197c-.223-.082-.49-.122-.592-.09a.626.626 0 0 1-.385-.03c-.374-.17-1.438-.395-1.888-.398-.247-.002-.53-.064-.63-.14-.119-.089-.407-.136-.837-.138a11.205 11.205 0 0 1-1.301-.095c-.625-.09-2.835-.218-3.495-.202-.179.004-1.58.02-3.115.037-1.535.016-2.832.056-2.883.089-.052.033-.754.066-1.562.073-.807.008-1.568.052-1.69.099-.123.046-.51.06-.862.03-.453-.037-.792-.008-1.16.099a4.614 4.614 0 0 1-1.065.152c-.3 0-.801.042-1.115.093-.314.051-1.172.11-1.907.13-1.352.036-1.825.133-2.36.484-.167.109-.474.17-.937.188-.796.03-.919-.049-1.314-.85-.127-.255-.298-.59-.382-.743-.209-.383-.247-2.348-.065-3.302.491-2.57.543-2.77.884-3.441.09-.18.194-.555.23-.836.071-.572.325-1.048.684-1.285.278-.183 1.038-.356 2.157-.49a86.672 86.672 0 0 0 1.349-.17c.307-.042.581-.04.61.004.029.044.279.04.558-.01.458-.08 3.028-.269 3.482-.254a14.6 14.6 0 0 0 .954-.064c.654-.06.776-.049.824.076.071.185.222.19.222.006 0-.077.031-.142.07-.144l.534-.04c.27-.022.67.026.954.114.483.149.491.148.688-.064.179-.192.255-.208.717-.153.284.033.593.13.687.215.156.14.193.141.423.009.229-.132 1.595-.305 2.298-.29 2.51.051 3.467.097 3.581.17.077.05.453.094.837.099 1.504.02 3.073.217 5.44.684 1.327.262 1.67.293 1.896.172.16-.086.238-.091.262-.018.117.348.293.434 1.012.498.405.035.835.117.955.182.12.064.307.094.414.066.107-.028.245-.01.306.041.142.118 1.68.533 2.409.65.39.064.619.157.764.314.136.147.271.206.396.173.104-.027.346.026.538.118.192.092.496.194.675.226.179.032.315.108.302.169-.028.134.129.147.21.017.096-.157.232-.103.232.093 0 .193.224.257.325.093.1-.16.34-.101.392.096.036.137.1.173.23.131.115-.036.308.028.524.175.188.128.593.284.9.347.307.063.688.187.847.276.159.09.724.254 1.256.365 1.703.358 2.887.659 3.17.805.15.078.323.125.384.105.06-.02.328.04.596.134.267.094.653.17.858.17.205 0 .663.05 1.018.111.528.09.673.088.796-.015.197-.163 1.057-.56 1.214-.56.285 0 2.278-1.84 2.278-2.102 0-.067.167-.257.372-.421.204-.164.372-.332.372-.373 0-.041.157-.325.348-.63 1.267-2.018 1.807-3.356 2.068-5.124.042-.282.118-.68.17-.884.31-1.225.353-2.733.105-3.708-.112-.443-.096-1.337.066-3.663l.06-.86h-.427c-.236 0-.538-.05-.672-.11-.199-.091-.259-.087-.326.022-.05.08-.355.172-.754.228-.632.087-.68.111-.85.418-.267.484-.723.9-1.09.996-.519.135-1.23.08-1.533-.12a3.325 3.325 0 0 0-.602-.293c-.412-.143-1.44-.152-1.698-.015-.193.104-.387.141-1.213.236-.243.028-.442.092-.442.142 0 .05-.12.079-.267.063-.147-.015-.325.02-.395.078-.07.058-.442.15-.826.203-1.307.182-1.777.277-1.903.381-.069.058-.454.118-.855.135-.401.017-.792.051-.87.076l-.604.197c-.255.084-.868.194-1.36.244-.493.05-1.009.134-1.146.187a2.212 2.212 0 0 1-.64.094 2.98 2.98 0 0 0-.714.099c-.179.054-.709.109-1.178.122-.47.013-.91.07-.977.127-.068.056-.458.122-.867.147-.41.025-.974.093-1.256.152a9.7 9.7 0 0 1-.93.141c-.23.02-.69.08-1.023.135-.332.055-.818.1-1.079.1-.26 0-.6.044-.752.097-.152.053-.86.132-1.571.176-.712.043-1.462.124-1.667.18-.204.055-.665.103-1.023.106-.358.003-.818.042-1.023.089-.204.046-.979.108-1.72.138-.742.029-1.84.075-2.44.103-.61.028-1.246.009-1.442-.043-.193-.052-.829-.12-1.414-.154-.836-.047-1.215-.116-1.767-.322a12.365 12.365 0 0 0-1.383-.411c-.373-.082-.75-.188-.837-.235-.087-.047-.547-.215-1.022-.374-.476-.159-.947-.37-1.047-.47-.1-.1-.254-.183-.344-.184-.163-.002-1.14-.874-1.14-1.017 0-.043-.054-.098-.12-.123-.067-.026-.177-.23-.245-.452a8.837 8.837 0 0 0-.24-.684c-.177-.42-.314-1.418-.284-2.056.032-.7.455-2.044.992-3.153.148-.307.271-.6.274-.65.002-.052.127-.239.278-.416.152-.177.276-.368.276-.424 0-.056.125-.223.279-.37.214-.205.279-.35.279-.62 0-.39-.072-.352 1.005-.53.698-.115.905-.044 1.219.413.204.298.216.382.161 1.088-.033.421-.104.924-.158 1.117-.164.587-.084.675.775.844a8.51 8.51 0 0 0 1.434.143c.368-.004.712.019.763.05.05.032.273.014.493-.04.22-.053.818-.113 1.33-.132.511-.019 1.6-.084 2.418-.145a96.65 96.65 0 0 1 2.3-.145c.448-.02.9-.082 1.006-.139.107-.057.696-.141 1.31-.188.613-.046 1.158-.11 1.21-.143.124-.076 1.128-.221 2.172-.313.46-.04 1.13-.123 1.489-.182.358-.06.944-.15 1.302-.2.358-.051.902-.143 1.209-.204a7.133 7.133 0 0 1 1.023-.122c.256-.005.528-.031.604-.059.403-.142 1.016-.232 1.315-.193.192.025.365 0 .4-.058.035-.056.239-.104.453-.106a2.79 2.79 0 0 0 .762-.138c.205-.073.707-.18 1.116-.235.41-.056 1.071-.162 1.47-.236.946-.173 3.551-.503 3.976-.503.181 0 .37-.037.418-.083.049-.045.543-.128 1.098-.185 1.192-.122 1.45-.228 1.591-.65.186-.556.508-.651.903-.265.387.378.584.439 1.423.438.462 0 1.091-.04 1.398-.09.962-.152 1.99-.2 2.174-.102.127.068.316.044.697-.09.332-.117.862-.199 1.451-.225.51-.023 1.087-.084 1.28-.136.192-.051.727-.116 1.187-.143a240.34 240.34 0 0 1 3.767-.192c.435-.018 1.088-.06 1.452-.096.753-.073 1.244.045 1.5.36.09.112.28.263.422.336.142.074.283.231.313.35.03.119.175.288.323.375.148.087.269.181.269.208 0 .028.293.364.65.748.359.383.755.907.881 1.162.126.256.419.663.65.904.233.24.423.463.423.494 0 .031.098.19.218.352.22.298.413.79.68 1.738.307 1.089-.076 2.256-.78 2.376-.617.105-.97.266-1.21.55-.127.152-.495.387-.817.523-.322.136-.78.378-1.017.538-.238.16-.453.291-.478.291-.04 0-1.045.777-1.805 1.394-.128.104-.358.283-.512.398-.154.114-.524.467-.822.784l-.543.575.11.448c.06.246.142.698.183 1.005.09.692-.066 3.048-.231 3.488-.068.179-.169.97-.224 1.759-.06.84-.148 1.49-.215 1.569-.062.075-.12.35-.129.613-.018.533-.24 1.605-.389 1.885-.054.1-.127.452-.162.782-.036.33-.123.741-.193.914-.07.172-.128.386-.128.475 0 .197-.602 2.044-.834 2.56-.304.675-.664 1.389-.891 1.766a8.53 8.53 0 0 0-.29.512c-.101.216-.442.694-.52.728-.038.017-.069.083-.069.146 0 .063-.126.234-.28.381-.153.147-.278.31-.278.36 0 .052-.199.288-.442.526-.243.237-.49.49-.55.563a4.963 4.963 0 0 1-.464.432c-.942.789-1.296 1.05-1.423 1.05-.076 0-.224.1-.33.222-.236.275-.995.707-1.242.707-.101 0-.198.032-.215.071-.064.148-1.35.662-1.752.7-.23.022-.816.01-1.302-.026zm-20.625-39.433c-.269-.041-1.169-.064-2-.05-.83.012-1.552-.002-1.603-.033-.05-.032-.407-.062-.79-.067-2.1-.03-4.75-.151-5.107-.233a3.081 3.081 0 0 0-.883-.036c-.261.032-.663.02-.893-.028-.23-.047-.69-.06-1.023-.03-.373.036-.758.014-1.006-.057a2.996 2.996 0 0 0-.698-.11c-1.95.028-3.078-.062-3.644-.291-.308-.125-1.002-.176-1.17-.086-.105.056-.25.04-.428-.05-.148-.074-.512-.154-.81-.179-.296-.024-.638-.11-.76-.189a1.055 1.055 0 0 0-.479-.147c-.142-.002-.426-.106-.631-.232-.205-.126-.464-.23-.577-.23-.112 0-.238-.053-.279-.118-.1-.158-1.233-1.091-1.326-1.091-.1 0-1.06-.962-1.425-1.428a5.312 5.312 0 0 1-.484-.758 8.648 8.648 0 0 0-.482-.816c-.164-.244-.327-.531-.36-.637a2.73 2.73 0 0 0-.285-.523c-.122-.18-.223-.41-.223-.51 0-.1-.08-.296-.18-.435a1.833 1.833 0 0 1-.245-.526 3.78 3.78 0 0 0-.254-.645c-.213-.423-.486-1.37-.67-2.325a8.947 8.947 0 0 0-.273-1.063c-.082-.226-.168-.707-.193-1.07a77.016 77.016 0 0 0-.147-1.727c-.127-1.308-.157-3.77-.056-4.464.041-.282.133-.721.205-.977.071-.256.155-.59.185-.744.155-.785.222-1.005.322-1.067.06-.038.147-.21.19-.384.195-.76.605-1.74 1.205-2.874.095-.179.258-.519.362-.755.105-.237.245-.488.313-.558.068-.07.205-.317.305-.547.233-.535 1.699-2.81 2.134-3.312.182-.21.331-.416.331-.457 0-.042.059-.142.13-.223a4.19 4.19 0 0 0 .359-.565l.528-.972c.285-.527.469-.782 1.056-1.469.143-.167.284-.408.314-.535.03-.128.104-.275.165-.326a.704.704 0 0 0 .169-.248c.032-.086.15-.17.262-.186.153-.023.21-.102.226-.316.028-.359.403-.959.817-1.307.176-.148.35-.393.386-.545.037-.152.223-.424.415-.604.191-.18.398-.455.46-.61.062-.154.206-.322.32-.372.113-.05.248-.219.3-.376.05-.157.165-.36.255-.449.09-.089.163-.203.163-.252 0-.056-.712-.08-1.884-.063-1.08.015-2.347-.023-2.972-.09a39.56 39.56 0 0 0-2.372-.161 49.263 49.263 0 0 1-3.189-.2c-.179-.02-1.042-.049-1.917-.065-1.024-.019-1.696-.072-1.882-.149a1.226 1.226 0 0 0-.64-.058 3.57 3.57 0 0 1-.607.053c-.236-.008-.9-.01-1.697-.005h-.674a40.61 40.61 0 0 0-1.698.09 87.1 87.1 0 0 1-3.022.135c-.921.023-1.926.066-2.232.095-1.033.097-4.812.18-8.046.179-2.606-.001-3.391-.032-4.185-.163a44.174 44.174 0 0 0-1.255-.195 10.459 10.459 0 0 1-1-.224 527.5 527.5 0 0 0-1.395-.37 12.48 12.48 0 0 1-1.163-.37c-.268-.107-.488-.17-.488-.142 0 .029-.11-.035-.245-.14-.135-.107-.35-.193-.478-.193-.354 0-.965-.207-1.017-.344-.026-.067-.137-.122-.247-.122a1.16 1.16 0 0 1-.438-.125 2.75 2.75 0 0 0-.5-.19 1.01 1.01 0 0 1-.395-.2c-.074-.075-.273-.136-.442-.136-.17 0-.466-.066-.66-.147-.442-.185-2.338-.158-2.556.037a3.45 3.45 0 0 1-.429.294 1.33 1.33 0 0 0-.429.436c-.075.145-.206.39-.289.543-.083.154-.152.35-.152.436 0 .087-.043.183-.094.215-.05.032-.093.132-.093.223 0 .166-.386.565-.71.732-.324.168-.878.22-1.205.112-.424-.14-1.476-1.17-1.563-1.532-.037-.153-.09-.405-.116-.558a2.927 2.927 0 0 0-.181-.574 3.293 3.293 0 0 1-.19-.581c-.032-.158-.083-.287-.115-.287-.103 0-.021-3.38.091-3.791.122-.447.718-1.11 1.041-1.156.29-.042 1.086.174 1.276.345.143.13.202.13.57.005a4.72 4.72 0 0 1 .922-.182c.28-.023.844-.086 1.252-.14a11.98 11.98 0 0 1 2.649-.06c.383.031.823.056.976.055l1.962-.015c.944-.008 1.822.029 2 .083.2.062.744.073 1.479.031.885-.05 1.096-.085.884-.146-.154-.044-.451-.22-.661-.39-.21-.172-.42-.312-.469-.312-.128 0-.677-.943-.792-1.36-.054-.198-.146-.39-.203-.425-.191-.12-.087-3.19.131-3.858.053-.162.087-.512.075-.777-.017-.37.014-.502.134-.57.104-.057.157-.206.157-.436 0-.192.038-.389.085-.437.048-.049.149-.331.225-.628.148-.57.61-1.187 1.117-1.49.146-.087.286-.23.312-.32.026-.089.378-.328.782-.532.404-.204.734-.405.734-.447 0-.042.15-.139.334-.215.183-.077.686-.305 1.118-.507.43-.202.886-.367 1.01-.367.125 0 .323-.04.44-.087a3.33 3.33 0 0 1 .473-.142.475.475 0 0 0 .346-.286c.076-.198.146-.23.517-.23.237 0 .541-.06.677-.133.41-.221 1.669-.796 1.751-.8.169-.007.572-.446.942-1.026.215-.336.39-.634.39-.662 0-.028-.324-.057-.72-.066a21.061 21.061 0 0 1-1.512-.103c-.434-.048-1.9-.092-3.255-.098a428.96 428.96 0 0 1-2.604-.017c-.077-.003-.81.045-1.628.105-.906.066-2.087.084-3.022.045-1.896-.079-3.802-.056-5.209.063-1.482.126-7.182-.007-7.508-.174-.09-.046-.389-.11-.663-.14-.274-.031-.548-.098-.609-.148a.506.506 0 0 0-.292-.087c-.287.01-.967-.248-1.598-.604-.635-.358-1.883-1.43-1.887-1.62-.001-.038-.113-.173-.248-.301-.329-.31-.774-1.017-.774-1.23 0-.17-.098-.358-.535-1.02-.124-.188-.199-.387-.165-.442.034-.054 0-.123-.075-.151-.077-.03-.163-.24-.2-.488-.036-.24-.112-.493-.17-.562-.127-.156-.34-.747-.341-.955a.412.412 0 0 0-.141-.267c-.077-.064-.142-.247-.144-.407-.003-.16-.102-.667-.221-1.128-.128-.497-.188-.912-.147-1.023a.656.656 0 0 0 .008-.372c-.033-.102-.06-.6-.058-1.106.003-.738.033-.938.152-1.013.35-.22.709.079 1.08.9.068.148.26.4.426.558.167.16.42.488.56.73.142.243.371.5.51.57.437.22 1.39.39 2.717.482.332.023 1.148.106 1.813.184.865.102 1.395.12 1.86.06.358-.045 1.137-.05 1.73-.009.942.065 2.282.102 7.85.22.665.015 1.649.028 2.186.03 3.331.007 4.257.031 4.508.114.358.118.614.122 4.056.065 1.953-.032 2.966-.014 3.236.058.27.072.438.075.543.009.105-.067.284-.061.586.017.278.072 1.114.109 2.335.102 1.366-.007 1.984.024 2.193.11.25.103.835.108 1.748.014.22-.022 5.357.173 5.906.225.629.059 1.599.096 4.861.189 1.063.03 2.026.09 2.142.135.116.044.538.061.937.039.399-.023.858.003 1.02.056.167.055 1.549.115 3.185.138 1.59.023 2.992.063 3.116.09.124.027 1.16.071 2.304.1 1.144.027 2.126.079 2.183.114.058.036.357.055.665.044a5.54 5.54 0 0 1 1.004.063c.478.09.595.025.448-.25-.151-.283.315-.666.81-.666.215 0 .396.042.403.093.006.051.017.124.023.163.006.038.1.195.208.348.264.375.61 1.15.651 1.459.018.137.138.404.267.594.129.19.234.42.234.512 0 .093.037.19.082.219.204.126.636 2.976.48 3.164-.047.057-.082.228-.078.38.014.485-.088.7-.675 1.415a.391.391 0 0 0-.069.276c.017.1-.043.17-.159.19-.495.08-.595.124-.55.24.026.069-.007.168-.073.22-.135.108-.731.242-1.124.253-.142.004-.289.051-.325.105-.038.056-.441.105-.924.113-.517.009-.96.065-1.117.143-.198.099-.496.114-1.28.067-.564-.034-1.212-.024-1.442.021-.23.046-1.026.058-1.768.027-.741-.031-2.637-.075-4.213-.098-1.575-.022-2.914-.07-2.975-.109-.06-.037-.718-.074-1.46-.08-1.49-.015-4.89-.178-6.698-.323a70.53 70.53 0 0 0-2.232-.136c-.588-.025-1.655-.074-2.371-.11a65.261 65.261 0 0 0-2-.071l-.698-.007.034.464c.04.554.057.58 1.151 1.755.474.508.922 1.012.996 1.12.075.107.2.243.28.302.079.059.437.511.795 1.006.358.495.766 1.05.906 1.232.141.182.256.384.256.448 0 .186.154.203 1.614.177 1.251-.023 1.4-.044 1.587-.219.17-.159.325-.193.876-.193.804 0 1.41-.166 1.41-.386 0-.252-.391-.91-.576-.969-.094-.03-.23-.195-.302-.368-.072-.172-.218-.368-.324-.434-.235-.147-.254-.51-.03-.576.387-.114 1.712-.26 1.772-.196.036.039.013.09-.051.112-.202.073-.128.173.279.38.32.161 1.74 1.404 2.288 2.002.5.546.812.851 1.537 1.504 1.063.959.944.841 1.69 1.678.356.399.71.792.789.875.21.221.648 1.091.648 1.287 0 .093.04.208.088.257.266.268.386 1.524.24 2.514-.091.624-.601 1.1-1.543 1.439-1.33.478-1.604.55-2.133.563-.281.007-.637.04-.79.075l-.28.063.272.071c.15.04 1.09.071 2.09.07 1.182 0 1.859.035 1.939.101.084.07.187.073.33.01.267-.121 1.536-.066 1.704.073.098.081.16.081.259 0 .084-.07.535-.105 1.279-.1 1.568.011 2.126.076 2.062.241-.067.175.196.167.343-.01.1-.121.544-.134 3.31-.097 2.128.029 3.214.011 3.253-.052.032-.053.274-.09.538-.081.263.008.568.01.678.006.231-.01.777-.457.777-.637 0-.066.06-.144.131-.172.072-.027.154-.141.182-.253.028-.112.201-.35.384-.528.183-.179.473-.534.644-.79.17-.256.389-.55.485-.654.095-.104.319-.376.496-.605.177-.228.355-.43.395-.446.04-.017.073-.084.073-.15 0-.064.126-.249.28-.41.153-.16.278-.342.278-.405 0-.062.085-.199.19-.303.294-.295 1.102-1.342 1.247-1.617.071-.135.206-.315.3-.4.093-.083.463-.563.821-1.064.358-.502.756-1.023.884-1.157.127-.135.294-.361.37-.504.075-.142.227-.292.337-.334.11-.041.228-.191.264-.333.06-.243.157-.375.942-1.29.175-.204.319-.416.319-.472 0-.055.191-.348.426-.65.234-.301.48-.68.548-.84.067-.161.315-.485.55-.721.236-.236.429-.483.429-.55 0-.113.28-.493.674-.918.09-.096.163-.23.163-.3 0-.068.088-.204.196-.302.108-.097.314-.407.458-.689.143-.28.37-.655.501-.831.132-.177.24-.38.24-.452 0-.072.105-.214.233-.314.127-.1.232-.246.232-.323 0-.077.126-.266.28-.42.153-.153.278-.328.278-.388s.112-.231.25-.38c.137-.147.356-.467.488-.71.131-.242.49-.85.797-1.35.923-1.506 1.07-1.752 1.154-1.947a1.94 1.94 0 0 1 .303-.424c.122-.131.347-.48.499-.776.157-.307.366-.573.485-.62.115-.045.21-.153.21-.24 0-.086.059-.223.131-.304.215-.24.891-1.478.891-1.632 0-.078.147-.346.326-.595.354-.492.406-.857.222-1.547-.055-.205-.158-.81-.23-1.345l-.129-.973.239-.25c.335-.349.673-.39 1.394-.166.93.287 2.04 1.229 2.475 2.099.115.231.295.515.398.63.104.115.257.331.342.48.085.148.312.346.504.44.344.168.365.167 1.102-.03.413-.112.825-.242.915-.29a.652.652 0 0 1 .397-.028c.128.032.284.017.347-.034.064-.05.47-.1.903-.108a11.515 11.515 0 0 0 1.72-.21 34.149 34.149 0 0 1 1.445-.27c.282-.042.784-.122 1.116-.178.333-.055 1.308-.152 2.167-.215 1.05-.076 1.586-.152 1.635-.23.04-.065.341-.16.67-.211.328-.052.738-.14.911-.195.235-.075.404-.071.671.017.248.082.395.089.477.023.066-.053.359-.095.652-.094.312 0 .595-.05.683-.123.153-.127 1.87-.286 2.947-.273.294.004.745-.056 1.002-.133.258-.076.526-.116.596-.09.07.028.247-.01.393-.082.416-.209 1.381-.381 1.563-.28.104.058.32.044.638-.041.546-.148.793-.18 1.969-.257.46-.03 1.046-.114 1.302-.186.54-.152 1.788-.328 2.325-.328.438.001 1.64-.217 1.824-.33.07-.044.463-.112.872-.15.41-.04 1.143-.119 1.63-.175a57.43 57.43 0 0 1 1.234-.132c.193-.017.5-.101.684-.188.183-.087.63-.199.993-.25.364-.05.768-.165.898-.255.3-.208 1.211-.4 1.827-.383.26.007.763-.05 1.116-.124.352-.076 1.101-.162 1.664-.193.563-.03 1.63-.097 2.372-.148.742-.05 2.206-.132 3.255-.18a97.222 97.222 0 0 0 2.627-.15c.62-.053.721-.041.721.084 0 .233-.118.259-1.39.303-.663.024-1.285.074-1.383.111-.098.038-.292.205-.432.37-.27.325-.55.39-.678.162-.066-.118-.13-.095-.393.14-.173.154-.382.28-.465.28a.402.402 0 0 0-.24.083c-.1.094-1.49.568-1.665.568-.063 0-.211.084-.33.186a.842.842 0 0 1-.455.19 1.176 1.176 0 0 0-.474.136 1.178 1.178 0 0 1-.477.136c-.135.002-.292.06-.351.132-.059.07-.23.153-.382.183a.886.886 0 0 0-.44.254c-.212.256-.887.55-1.264.55-.162 0-.432.085-.6.187-.167.102-.395.185-.506.185-.255 0-.886.432-.957.655-.06.187-.79.607-.79.454 0-.154-.393.007-.623.253-.222.238-.355.274-.449.122-.104-.169-.323.098-.323.393 0 .15-.037.25-.082.222-.046-.028-.134.012-.198.088a.436.436 0 0 1-.295.138c-.099 0-.154.042-.122.093.031.052.013.093-.041.093-.055 0-.099-.041-.099-.093 0-.05-.087-.093-.194-.093-.13 0-.229.092-.3.28-.099.264-.476.462-.878.464-.064 0-.116.062-.116.137 0 .076-.12.17-.268.21-.336.09-1.89 1.514-1.83 1.675.07.181-.034.142-.368-.138-.865-.727-.997-.72-.956.058l.027.523-.282-.02c-.24-.018-.3.023-.392.267-.088.233-.148.278-.314.235-.22-.058-.636.188-.965.57a.801.801 0 0 1-.512.245c-.665.062-.866.35-.441.636.115.077.293.219.395.314.254.237 1.027.777 1.535 1.073.23.134.507.341.616.461.11.12.367.365.572.544 1.16 1.01 1.633 1.471 1.762 1.72.08.154.276.426.437.606.41.458 1.007 1.556 1.087 1.999l.133.716c.268 1.4-.615 2.459-2.189 2.626-.553.059-1.35.239-3.116.704-.358.094-.881.22-1.162.28-.282.06-.637.163-.79.229-.282.12-.825.278-1.256.366-.693.14-1.762.412-1.86.473-.063.038-.684.15-1.382.248-.698.099-1.52.223-1.827.278-.739.13-3.767.19-3.767.074 0-.049-.097-.088-.215-.088s-.705-.126-1.304-.28c-.6-.153-1.21-.278-1.355-.278-.146 0-.742-.088-1.323-.195a85.11 85.11 0 0 0-1.476-.261c-.23-.037-.51-.116-.622-.177a1.067 1.067 0 0 0-.43-.111c-.125 0-.464-.105-.753-.233-.29-.128-.566-.232-.616-.232-.198 0-1.278-.57-1.54-.812-.725-.668-1.505-2.438-1.529-3.467-.018-.793.101-2.045.243-2.546.07-.249.109-.484.086-.522-.024-.037-.452-.097-.952-.133-.96-.068-1.607-.197-1.607-.322 0-.04-.165-.129-.368-.196-.5-.165-1.02-.522-1.696-1.166l-.57-.541-.218.272c-.12.15-.263.439-.316.643-.149.577-.62 1.417-1.017 1.814a4.665 4.665 0 0 0-.27.465c-.123.23-.28.485-.349.565a.527.527 0 0 0-.125.276c0 .07-.142.276-.315.457a4.462 4.462 0 0 0-.566.795 4.44 4.44 0 0 1-.511.744c-.142.153-.421.55-.62.883-.414.695-.629 1.008-.988 1.439-.14.168-.256.331-.256.361 0 .03-.188.346-.418.702-.23.356-.419.69-.419.745 0 .054-.188.271-.418.484-.23.212-.419.457-.419.545 0 .088-.083.236-.186.328-.102.093-.186.227-.186.298a.44.44 0 0 1-.092.24c-.05.063-.238.302-.416.532-.178.23-.411.523-.518.65a8.233 8.233 0 0 0-.46.652c-.148.23-.458.617-.691.86-.233.243-.53.651-.66.907-.129.256-.275.465-.325.465-.05 0-.195.207-.323.46s-.29.493-.36.535a.817.817 0 0 0-.233.278.6.6 0 0 1-.293.262c-.102.032-.186.115-.186.184 0 .068-.134.238-.299.376a2.056 2.056 0 0 0-.456.59c-.086.185-.328.52-.538.745-.21.224-.381.419-.381.434 0 .094-1.051 1.53-1.12 1.53-.046 0-.153.136-.237.303-.216.427-.502.716-.852.863-.23.097-.302.184-.302.368 0 .284-.56 1.074-1.16 1.636-.232.217-.421.436-.421.486 0 .154-.781 1.366-.882 1.37-.079.003-.441.504-.932 1.289a5.798 5.798 0 0 1-.349.454c-.14.169-.257.336-.259.373-.002.036-.213.297-.47.578-.256.281-.527.652-.6.823-.123.285-.598.967-1.235 1.77a5.188 5.188 0 0 0-.334.465.973.973 0 0 1-.14.197c-.067.057-.755 1.068-.911 1.339-.151.262-.302.477-.608.87-.14.18-.256.358-.256.395 0 .054-.592.908-.999 1.442-.039.051-.192.281-.34.511-.148.23-.389.598-.535.817-.146.219-.265.431-.265.471 0 .08-.702 1.043-.82 1.126-.04.028-.127.182-.192.342-.065.16-.24.41-.39.553-.15.143-.273.305-.273.36 0 .054-.272.475-.603.935-.33.46-.602.884-.603.94-.001.058-.13.246-.285.42-.374.415-1.112 1.543-1.112 1.698 0 .067-.084.198-.186.29-.103.093-.186.22-.186.282 0 .063-.06.163-.132.224-.139.114-.71 1.02-1.263 1.998-.18.317-.42.706-.535.864-.115.159-.21.313-.21.343 0 .03-.137.235-.306.456a4.99 4.99 0 0 0-.506.861c-.11.253-.328.598-.484.768-.157.17-.285.332-.285.362 0 .03-.141.268-.314.53a7.74 7.74 0 0 0-.466.8c-.172.37-.347.661-1.048 1.742-.273.422-.497.806-.497.854 0 .048-.191.499-.425 1-.414.89-.641 1.5-.875 2.356-.063.23-.175.594-.25.81-.15.43-.13 2.005.034 2.678.114.467.42 1.07.646 1.268.202.178.912.545 1.054.545.053 0 .275.08.492.178.691.312 1.199.44 3.322.838.281.053 1.16.095 1.953.094.794 0 2.238.027 3.21.061 2.64.095 4.351.098 4.54.01.112-.051.247-.027.397.07.17.112.273.125.406.054.242-.13.749-.115 1.008.029.157.087.39.097.884.04.369-.043 1.236-.07 1.926-.058.691.011 1.36-.01 1.489-.046.273-.078 2.08-.14 6.184-.211 4.069-.07 4.007-.07 4.13.006.061.037.173.016.249-.047.099-.083.37-.098.964-.056.46.032 1.058.015 1.35-.039.38-.07.614-.067.846.01.236.077.487.078.948.004.66-.106 1.494-.181 2.581-.233 1.883-.09 4.296-.252 4.418-.296.077-.028.767-.069 1.535-.092.767-.023 1.541-.078 1.72-.123.18-.045.975-.113 1.767-.152.793-.038 1.672-.087 1.954-.108.28-.022.804-.048 1.162-.06.358-.011.735-.05.837-.084.102-.036.584-.105 1.07-.155.725-.074.906-.124 1.01-.28.105-.155.228-.19.67-.19.297 0 .565-.038.593-.085.03-.047.242-.177.473-.289.24-.116.48-.317.558-.468.075-.146.206-.304.29-.351.193-.108.236-.663.066-.834-.07-.07-.126-.158-.126-.198 0-.13.452-.565.586-.565.193 0 .468.344.405.508-.03.078-.025.143.012.144.037 0 .138.157.224.348l.396.869c.13.286.237.62.238.744 0 .247.208.934.642 2.13.158.434.287.907.287 1.052 0 .144.05.354.11.465.22.405.254 1.126.077 1.657-.098.294-.132.536-.083.588.2.214.086.352-.238.29-.311-.058-.323-.049-.385.281-.04.215-.126.357-.231.385-.092.024-.146.097-.121.162.027.072-.058.145-.216.184-.144.035-.414.211-.6.392-.288.279-.367.313-.529.226-.29-.155-.361-.127-.47.184-.08.233-.135.275-.294.224a.365.365 0 0 0-.351.079c-.088.078-.313.135-.512.129-.195-.006-.383.033-.418.087-.035.054-.231.127-.436.162-.618.104-1.296.273-1.398.348-.054.039-.312.066-.574.06-.29-.007-.563.045-.695.132-.292.191-.645.26-1.425.275-.358.007-.702.053-.764.1-.062.05-.46.112-.883.14-.463.032-.86.111-.996.2-.213.138-.494.175-1.838.242-.316.015-.63.062-.697.104-.068.042-.38.065-.693.05a3.48 3.48 0 0 0-1.024.117c-.502.157-3.49.347-5.466.348-.67 0-1.49.002-1.822.005-3.864.029-6.648.022-8.929-.021-.69-.013-1.402 0-1.581.028-.18.029-.546.019-.815-.023zm33.534-5.078.028-.272-.144.266c-.174.323-.178.365-.028.316.064-.021.129-.16.144-.31zm-64.504-45.12a1.323 1.323 0 0 0-.418 0c-.116.022-.021.04.209.04.23 0 .324-.018.21-.04zm1.511-.028c.074-.118-.142-.118-.325 0-.114.074-.102.09.064.092.112.001.23-.04.261-.092zm56.642-20.956c.102-.024.658-.099 1.235-.166 1.035-.121 1.049-.126 1.117-.389a.768.768 0 0 1 .346-.422c.153-.085.291-.187.309-.225.017-.039.073-.07.125-.07.051 0 .205-.078.34-.172.4-.28.7-.315.88-.104.2.234.437.236.437.003 0-.218.156-.331.457-.331.123 0 .24-.047.259-.104.062-.182-1.01-.25-1.328-.086-.15.078-.363.142-.475.143-.111 0-.31.041-.443.091-.131.05-.51.111-.84.135-.33.024-.682.087-.783.141-.1.054-.375.098-.61.098-.307 0-.444.043-.485.15-.045.115-.137.136-.412.092-.266-.042-.479 0-.847.168-.347.158-.736.241-1.325.281-.458.032-.855.093-.883.137-.028.044-.344.106-.702.138-1.315.116-1.72.176-1.72.254 0 .12.347.183 1.453.26 1.027.072 3.555.058 3.895-.022zm59.596-11.304a75.06 75.06 0 0 1-.633-.681c-.18-.196-.469-.367-.795-.47-.283-.089-.598-.24-.702-.337a1.611 1.611 0 0 0-.507-.278c-.422-.136-1.562-.312-1.654-.255-.089.055-2.047-.3-2.254-.408-.21-.11-.983-.188-2.232-.226-.613-.018-1.17-.082-1.292-.147-.118-.063-.527-.13-.908-.15-.42-.022-.859-.11-1.114-.223-.232-.102-.477-.186-.545-.186-.067 0-.157-.06-.198-.134-.105-.188-1.784-.313-4.382-.327-.6-.003-.664-.02-.543-.141.145-.146.248-.148 6.712-.158 1.483-.002 2.885-.007 3.115-.01.23-.003.586 0 .79.006.206.007 1.103.016 1.995.02.892.003 1.668.044 1.723.09.055.046.54.11 1.075.145l.974.061.531.572c.293.315.645.74.783.945l.502.744c.426.63.44 1.745.024 1.883-.062.02-.271-.13-.465-.336zm12.612-.669c-.506-.083-1.382-.649-1.576-1.018-.412-.786-.552-1.14-.552-1.388 0-.363-.445-2.053-.606-2.299-.07-.11-.159-.421-.195-.693-.07-.532-.307-1.025-.656-1.367-.12-.117-.217-.286-.217-.375 0-.09-.084-.327-.187-.528-.102-.2-.186-.414-.186-.475 0-.06-.062-.134-.139-.163-.077-.03-.14-.139-.14-.242 0-.104-.036-.19-.08-.19-.044 0-.264-.3-.488-.668-.225-.368-.522-.789-.66-.934-.139-.146-.363-.512-.499-.814-.135-.302-.35-.625-.476-.717-.126-.093-.37-.378-.543-.635-.172-.257-.42-.56-.55-.674-.13-.114-.238-.263-.238-.332 0-.07-.083-.202-.186-.294-.102-.093-.186-.217-.186-.275 0-.18-.531-.842-.783-.977-.13-.07-.26-.193-.287-.275-.028-.08-.278-.395-.556-.697a8.545 8.545 0 0 1-.757-.948c-.138-.22-.362-.445-.496-.5-.134-.056-.484-.33-.777-.61-.293-.28-.592-.508-.664-.508-.073 0-.156-.073-.185-.163-.106-.32-.578-.743-1.507-1.347-.519-.338-.971-.66-1.005-.715-.034-.055-.149-.1-.255-.1-.106 0-.354-.147-.553-.326-.198-.179-.43-.325-.515-.325-.146 0-.6-.213-1.797-.844-.282-.148-.562-.27-.624-.27-.061-.002-.146-.065-.189-.141-.043-.076-.276-.176-.52-.221-.242-.045-.513-.142-.6-.214-.088-.072-.37-.23-.625-.352a6.317 6.317 0 0 1-.712-.391c-.136-.094-.296-.171-.356-.171-.154 0-2.255-1.031-2.403-1.18-.068-.067-.172-.123-.233-.123-.06 0-.214-.056-.342-.124-.45-.239-1.26-.684-1.615-.888-.556-.318-1.769-1.137-1.873-1.264-.05-.062-.344-.248-.65-.413-.937-.503-1.417-.79-1.604-.961-.098-.09-.246-.163-.328-.163-.083 0-.177-.043-.21-.097-.033-.053-.217-.196-.41-.317a4.41 4.41 0 0 1-.482-.345c-.221-.205-.72-.543-.804-.543-.043 0-.302-.199-.576-.442-.498-.442-.97-.766-1.392-.953-.124-.055-.435-.256-.692-.446a11.292 11.292 0 0 0-1.594-1 4.06 4.06 0 0 1-.703-.47c-.259-.243-4.4-2.361-4.982-2.55-.32-.103-1.553-.748-2.453-1.284-.516-.306-1.4-.73-1.907-.912-.256-.092-.8-.368-1.209-.613-.578-.347-.801-.435-1-.392-.14.03-.256.016-.256-.031 0-.087-.5-.328-.93-.447a1.66 1.66 0 0 1-.495-.285c-.145-.12-.354-.22-.465-.222-.111 0-.307-.084-.435-.184-.128-.1-.28-.182-.338-.184-.058 0-.225-.064-.372-.14-.146-.077-.33-.14-.406-.14-.077-.001-.345-.106-.597-.234-.252-.127-.527-.232-.612-.232-.085 0-.182-.027-.215-.06s-.26-.133-.504-.223-.632-.236-.862-.325a4.96 4.96 0 0 0-.89-.232 3.643 3.643 0 0 1-.878-.266c-.223-.108-.454-.196-.513-.196-.06 0-.355-.12-.657-.269a5.926 5.926 0 0 0-1.061-.385 6.8 6.8 0 0 1-1.012-.336c-.275-.12-.573-.219-.663-.219a.4.4 0 0 1-.27-.129c-.094-.113-.92-.261-1.59-.284a.944.944 0 0 1-.325-.06 4.263 4.263 0 0 0-.512-.173 5.979 5.979 0 0 1-.837-.33c-.322-.16-.597-.212-1.196-.223-.428-.008-.858-.058-.956-.11-.097-.052-.209-.075-.248-.05-.04.024-.53-.034-1.088-.13-.56-.094-1.123-.152-1.252-.127-.13.026-.419-.02-.643-.1-.25-.088-.88-.164-1.628-.194-.67-.028-1.44-.097-1.711-.155-.371-.08-.518-.079-.6.003-.128.128-1.388.148-1.518.024-.048-.046-.967-.112-2.041-.146a85.064 85.064 0 0 1-2.604-.113 9.648 9.648 0 0 0-.93-.035c-.154.009-1.18.014-2.279.012-1.1-.002-2.397.037-2.883.085-.486.048-1.784.115-2.883.148-1.1.033-2.028.077-2.062.098-.034.02-.766.06-1.627.089-.862.029-1.796.067-2.078.084-.281.018-1.034.06-1.674.094-.64.033-1.56.12-2.046.193a12.32 12.32 0 0 1-1.349.134 3.67 3.67 0 0 0-.79.09c-.18.05-.786.132-1.349.182-.562.05-1.211.137-1.441.193-.23.057-.65.121-.93.143-.282.023-.889.086-1.349.141a31.46 31.46 0 0 1-1.382.135c-.319.02-.61.094-.704.18a.675.675 0 0 1-.393.145c-.127 0-.623.083-1.102.186-.478.102-1.02.187-1.202.19a1.384 1.384 0 0 0-.565.135c-.128.073-.408.135-.622.136-.215.002-.415.044-.446.094-.03.05-.232.135-.447.189-.215.053-.664.178-.996.277-.333.1-.827.209-1.099.243-.272.035-.551.12-.621.19-.07.07-.278.127-.463.127-.184 0-.5.084-.7.186-.2.102-.45.186-.553.186-.204 0-1.349.336-1.608.473-.09.047-.304.085-.478.085s-.436.062-.583.139c-.146.076-.398.14-.558.14-.161 0-.314.055-.34.122-.025.066-.311.195-.635.285-.324.09-.649.213-.721.274-.073.06-.43.2-.793.312-.363.112-1.142.376-1.73.586a51.25 51.25 0 0 1-1.534.527 9.65 9.65 0 0 0-.755.267c-.16.068-.578.195-.93.282a6.342 6.342 0 0 0-1.08.38c-.24.121-.496.22-.568.22-.071 0-.23.079-.352.174-.122.096-.397.204-.612.24-.214.036-.439.125-.5.198a.456.456 0 0 1-.307.134c-.109 0-.863.336-1.676.744s-1.576.742-1.697.742c-.12 0-.22.042-.22.093 0 .052-.056.093-.125.093-.07 0-.415.19-.768.423-.352.232-.871.53-1.153.663-.281.133-.532.268-.558.301-.06.08-1.297.846-1.364.846-.028 0-.209.125-.403.279-.194.153-.442.279-.55.279-.11 0-.224.062-.253.14-.03.076-.128.139-.22.139-.09 0-.233.104-.317.232-.084.128-.19.233-.236.233-.046 0-.248.167-.448.372-.2.204-.402.372-.448.372-.046 0-.189.102-.317.227-.458.446-.867.796-.93.796-.036 0-.187.108-.335.241-.149.133-.44.353-.646.489a5.656 5.656 0 0 0-.707.572c-.182.179-.951.911-1.709 1.627-1.63 1.542-2.3 2.216-2.742 2.76-.18.22-.528.612-.774.872-.451.477-.494.537-.882 1.243-.117.214-.274.413-.348.441-.075.029-.136.08-.136.115s-.27.576-.599 1.202c-.33.626-.627 1.232-.66 1.346a8.153 8.153 0 0 1-.364.81c-.166.333-.33.725-.367.871-.035.146-.144.44-.24.651a5.648 5.648 0 0 0-.431 1.564c-.03.221-.11.528-.176.681a1.706 1.706 0 0 0-.124.558 4.133 4.133 0 0 1-.096.698c-.052.23-.095 1.03-.097 1.778 0 .748-.047 1.562-.102 1.809-.056.247-.105 1.434-.11 2.64-.006 1.792-.034 2.24-.153 2.469-.08.153-.134.352-.12.44.016.11-.11.226-.398.366l-.421.205-.537-.47c-.57-.497-.946-1.111-1.327-2.169-.12-.332-.246-.646-.28-.697-.035-.051-.116-.344-.18-.651a9.408 9.408 0 0 0-.249-.934c-.072-.206-.146-.644-.164-.972-.019-.331-.08-.613-.139-.632-.07-.023-.059-.08.034-.174.145-.144.134-.376-.062-1.41-.08-.416-.07-.523.055-.662.083-.09.131-.224.109-.295-.101-.313-.157-1.664-.07-1.664.052 0 .112.094.134.21.023.114.027-.183.01-.662-.02-.537.008-.946.074-1.07.058-.108.122-.549.142-.977.024-.515.082-.825.17-.914.075-.074.135-.191.135-.26a.99.99 0 0 1 .063-.288c.044-.115.028-.141-.054-.09-.087.053-.093.028-.027-.101.214-.418.39-.89.39-1.047 0-.317.372-1.728.555-2.102.1-.205.206-.571.237-.814s.1-.442.155-.442c.054 0 .076-.084.05-.186-.027-.102-.011-.163.035-.134.046.029.084-.052.084-.18s.045-.26.099-.294c.087-.054.288-.476.285-.6 0-.026.082-.135.183-.242.108-.116.159-.257.124-.349-.036-.094-.013-.154.059-.154.065 0 .094-.025.063-.055-.03-.03.04-.23.158-.442.117-.213.242-.543.276-.735.035-.192.1-.35.144-.35.043 0 .126-.114.183-.255.134-.332.483-.844.782-1.146.13-.132.264-.349.298-.482.033-.132.203-.408.377-.612.175-.204.318-.395.318-.424 0-.075.823-1.15.909-1.188.039-.017.23-.25.425-.52.196-.268.396-.487.446-.487.05 0 .067-.038.04-.084-.03-.046.01-.107.087-.136a.23.23 0 0 0 .139-.198c0-.08.1-.183.223-.23.123-.047.341-.245.485-.44.331-.45.583-.7.823-.822.104-.052.336-.293.515-.534.179-.242.398-.44.488-.44.09 0 .163-.042.163-.093 0-.05.063-.093.14-.093.076 0 .128-.038.116-.085-.035-.128.815-1.003 1.137-1.17.154-.08.281-.185.281-.235 0-.05.053-.09.117-.09s.249-.145.41-.321c.162-.176.497-.474.744-.662.247-.188.483-.4.524-.47.04-.07.125-.129.186-.129s.3-.17.53-.378c.23-.208.607-.51.837-.67.542-.379.617-.438.925-.732.142-.135.358-.275.48-.312.477-.145 1.067-.53 1.218-.793.095-.166.235-.277.35-.277.104 0 .19-.042.19-.093s.055-.093.123-.093.221-.105.341-.233a.704.704 0 0 1 .486-.232c.331 0 .817-.242.817-.406 0-.067.104-.17.232-.228.128-.059.233-.151.233-.207 0-.055.035-.078.079-.051.1.061.665-.146.665-.244 0-.084.909-.538 1.075-.538.061 0 .163-.063.227-.14a.479.479 0 0 1 .327-.14c.116 0 .235-.062.264-.139a.23.23 0 0 1 .196-.14c.079 0 .143-.04.143-.09 0-.05.115-.12.256-.154.14-.035.4-.182.579-.328.178-.145.408-.266.511-.267a.753.753 0 0 0 .369-.14.703.703 0 0 1 .349-.136c.092 0 .168-.042.168-.093s.065-.093.144-.093c.08 0 .278-.07.442-.156.164-.086.416-.148.56-.138.154.011.239-.02.205-.074-.031-.05.06-.12.203-.154a1.21 1.21 0 0 0 .4-.176c.076-.063.243-.138.371-.165.312-.068 1.587-.515 1.79-.628a.75.75 0 0 1 .299-.09c.076 0 .359-.103.629-.229.97-.45 2.457-.96 3.142-1.078.383-.066.808-.196.944-.29.136-.094.358-.17.494-.17s.332-.046.435-.1c.103-.056.383-.12.622-.143.618-.06 1.345-.308 2.248-.767.179-.091.472-.174.65-.185.18-.01.473-.088.652-.172.337-.159 1.232-.393 1.72-.45a4.23 4.23 0 0 0 .604-.131c.18-.054.579-.099.889-.099.31 0 .605-.042.656-.093.052-.051.343-.156.647-.234a6.9 6.9 0 0 0 .739-.222l.547-.242a1.36 1.36 0 0 1 .793-.102c.313.041.487.018.637-.087.123-.086.366-.137.602-.125.446.022.816-.071.816-.205 0-.165.929-.423 1.848-.513.224-.022.452-.068.506-.101.053-.033.33-.076.615-.095a4.09 4.09 0 0 0 .788-.123c.148-.05.426-.09.616-.09.191 0 .396-.06.457-.132.15-.18.639-.344.706-.236.086.139 1.434-.016 1.672-.192.05-.038.595-.061 1.209-.052.752.012 1.216-.023 1.423-.107.401-.163 1.91-.3 3.878-.352 3.448-.092 3.845-.11 4.714-.226.636-.084 1.072-.093 1.488-.03.323.049 1.843.081 3.378.071 1.534-.01 2.91.016 3.055.058.161.045.563.022 1.023-.06 1.026-.18 1.42-.17 2.153.056.65.2.61.2 3.023.052 1.012-.063 1.425.014 1.528.285.03.078.116.117.193.087.076-.03.139-.013.139.037 0 .164.27.094.372-.096.131-.245.5-.24.855.013.26.185.313.19.776.08.388-.094.556-.096.763-.01.146.061.431.106.633.101a8.67 8.67 0 0 1 1.065.087c1.257.175 1.61.194 1.73.093.084-.069.181-.064.334.019.118.064.693.149 1.277.188.664.046 1.087.115 1.131.186.045.072.48.14 1.198.184.62.039 1.262.113 1.426.164.164.052.549.123.855.16.306.035.662.14.79.232.26.186 1.37.365 1.833.295.171-.025.422.019.595.105.165.082.524.15.798.15s.571.037.66.084c.282.147 1.15.38 1.416.38.26 0 .737.165 1.263.436.218.112.33.123.474.046.2-.107.773.02 1.3.29.146.075.412.167.591.206.18.038.42.144.536.235.116.09.461.194.768.23.306.035.557.101.557.148 0 .046.097.083.215.083.12 0 .402.058.628.13.227.07.6.182.83.249a2.9 2.9 0 0 1 .652.278c.128.086.379.179.558.205.318.048.964.258 1.548.503.162.068.34.124.397.124.105 0 .186.033.736.31.17.085.385.155.477.155.202 0 1.247.464 1.29.573.018.043.125.078.239.078.113 0 .288.061.387.136.1.075.234.138.299.14.065.002.284.107.486.235.203.128.417.233.477.233.146 0 1.073.454 1.466.718.19.128.455.212.669.212.194 0 .377.038.406.085.074.119.886.566 1.028.566.064 0 .17.063.233.14.135.163.783.464 1.191.554.155.034.375.142.49.242.113.099.284.18.379.18.094 0 .172.058.172.128s.136.178.302.238c.166.06.487.201.713.312.226.11.603.266.837.345.26.088.416.192.4.27-.018.08.025.105.117.07.175-.068.82.248 1.238.607.168.144.385.262.481.262.097 0 .232.053.3.119.067.065.332.252.587.416.256.163.516.34.578.393.062.052.146.095.187.095.041 0 .284.138.539.308.255.169.637.357.849.419.222.064.449.21.536.343.084.128.213.232.286.232.074 0 .176.078.227.174.057.105.243.197.472.234.249.04.482.163.68.361.491.489.818.708 1.292.865.246.082.604.303.795.492.192.188.548.459.79.6.244.142.442.292.442.333 0 .162.781.835 1.147.989.811.34 1.197.566 1.464.858.153.167.336.303.408.303.071 0 .248.14.393.313.144.173.367.345.495.383a1.5 1.5 0 0 1 .465.276c.437.39 1.38 1.074 1.48 1.074.127 0 .955.812 1.077 1.058.052.102.39.335.75.517.772.389 1.136.652 1.65 1.192.208.217.419.395.47.395.05 0 .157.064.238.142.645.623 1.35 1.253 1.403 1.253.035 0 .14.084.233.186.092.102.24.186.329.186.088 0 .327.166.53.37.399.399.49.396.49-.013 0-.488.41-.263.605.332.071.217.142.281.29.26.237-.032.383.255.202.397-.066.053-.121.198-.121.324 0 .186.06.24.325.295.187.039.372.027.438-.028.154-.127.864 0 .928.166.028.072-.007.2-.076.285-.115.139-.107.143.08.043.188-.1.228-.076.443.264.13.206.278.374.33.374.052 0 .134.104.182.231.06.158.134.213.236.174.165-.063.602.134.602.271 0 .048.145.232.322.409.264.264.312.37.268.59-.045.225-.024.266.126.255.165-.013.443.105 1.038.44.12.067.33.242.465.388.135.146.35.35.478.453.128.102.484.479.79.836.307.358.663.734.79.836.294.236 1.296 1.268 1.696 1.748l.475.564c.094.11.366.483.605.829l.736 1.068c.166.242.302.513.302.603 0 .09.102.363.226.606.32.624.423 1.191.48 2.615.036.917.096 1.362.229 1.698.099.25.223.8.276 1.222.053.421.134 1.01.18 1.31.173 1.127.215 2.365.1 3.006-.23 1.302-.495 2.317-.665 2.556-.096.136-.175.288-.175.338 0 .123-.716.764-.854.764-.06 0-.207.09-.324.2-.222.209-.522.256-1.064.167zm-30.792-3.22c.067-.027.148-.024.178.006.031.031-.024.053-.122.05-.108-.005-.13-.027-.056-.057z" style="fill:#000;stroke-width:.0930064"/>
</svg>
