<svg xmlns="http://www.w3.org/2000/svg" xml:space="preserve" width="210mm" height="297mm" viewBox="0 0 210 297">
  <path d="M98.27 271.028c-.06-.061-.754-.1-1.351-.076-.08.003-.531-.02-1.004-.053-1.157-.08-1.305-.074-1.384.054-.05.079-.098.073-.178-.023-.14-.169-2.034-.207-2.136-.044-.069.112-.568 0-1.197-.268-.199-.084-.316-.095-.338-.03-.022.068-.261.067-.765-.003-.433-.06-.907-.07-1.157-.023-.49.091-1.04.034-1.138-.12-.048-.075-.102-.07-.186.014-.14.14-.975.159-1.218.029-.278-.15-2.058-.251-2.425-.14-.11.034-.168 0-.168-.098 0-.172-.2-.2-.351-.048a.712.712 0 0 1-.33.14c-.125.02-.292.047-.37.062-.08.014-.518-.008-.976-.052-.651-.06-.84-.112-.874-.237-.035-.128-.057-.117-.112.056-.08.246-.087.247-.853.122-.381-.063-.605-.061-.685.005-.065.054-.305.09-.533.08a2.819 2.819 0 0 0-.51.011.448.448 0 0 1-.24-.03c-.24-.097-1.154-.179-1.96-.176l-1.854.007c-.598.003-1.244-.034-1.434-.08-.51-.127-2.39-.12-2.63.01-.274.148-.847.103-.982-.077-.08-.105-.12-.113-.15-.028-.027.083-.293.114-.89.105-.548-.008-.877.027-.92.097-.05.081-.103.08-.207-.006-.092-.077-.215-.087-.366-.032-.255.095-1.418.034-1.565-.081-.123-.097-1.578-.075-1.578.023 0 .108-1.408.087-1.905-.027-.319-.074-.44-.069-.495.02-.054.088-.154.093-.39.02a1.252 1.252 0 0 0-.603-.02c-.157.042-.32.041-.363-.002-.117-.116-2.378-.026-2.634.105-.172.088-.238.087-.294-.004-.093-.15-1.828-.249-1.828-.104 0 .054-.05.067-.112.029-.188-.117-1.073-.126-1.21-.013-.077.064-.153.07-.192.017-.035-.05-.253-.09-.483-.09-.262 0-.492-.063-.613-.167-.22-.19-.418-.217-.47-.063-.037.112-.2.117-1.06.03-.327-.034-.601-.017-.672.042a.219.219 0 0 1-.256.015c-.074-.046-.258-.059-.409-.029-.212.043-.306.006-.423-.16-.113-.16-.169-.183-.226-.09-.104.169-3.23.194-3.326.027-.076-.134-.48-.187-.698-.091-.166.072-.527.04-1.5-.13-.331-.06-.654-.099-.717-.088a1.165 1.165 0 0 1-.366-.053c-.167-.047-.353-.02-.546.08-.359.186-.75.188-1.067.007-.148-.085-.518-.138-.98-.14-.408-.002-.741-.045-.741-.096 0-.053-.407-.088-.968-.084-.647.005-.99-.03-1.037-.105-.043-.069-.167-.088-.323-.049-.202.05-.254.03-.254-.1 0-.125-.06-.155-.24-.12-.13.025-.238.02-.238-.013 0-.032-.173-.058-.383-.058-.21 0-.383.032-.383.071 0 .125-.213.078-.324-.071-.058-.079-.235-.159-.393-.178a4.692 4.692 0 0 1-.75-.193 5.247 5.247 0 0 0-.86-.21c-.218-.027-.438-.09-.488-.14a.433.433 0 0 0-.267-.092c-.096 0-.2-.063-.229-.14-.029-.076-.166-.134-.307-.13-.415.015-1.157-.173-1.34-.339-.131-.119-.196-.128-.284-.04-.062.062-.113.072-.113.022 0-.05-.097-.094-.215-.1-.549-.021-1.144-.216-1.063-.346.042-.068-.018-.082-.177-.043-.167.042-.287.007-.397-.113-.108-.12-.252-.16-.467-.135-.232.029-.275.014-.17-.059.119-.082.111-.107-.048-.163-.41-.143-1.046-.434-1.094-.5-.092-.126-1.027-.57-1.35-.641-.172-.038-.515-.193-.761-.345-.246-.152-.478-.276-.515-.276-.069 0-.616-.41-1.212-.908-.514-.43-.68-.556-.995-.757-.158-.1-.547-.445-.864-.765-.318-.32-.804-.776-1.08-1.012a6.36 6.36 0 0 1-.79-.813c-.157-.21-.306-.372-.33-.359-.124.067-.236.007-.236-.127 0-.083-.127-.278-.283-.434-.285-.286-.433-.519-.72-1.137a2.19 2.19 0 0 0-.412-.573c-.142-.132-.258-.304-.258-.383 0-.079-.077-.137-.17-.13-.126.011-.156-.033-.115-.163.03-.097-.014-.284-.1-.415a1.302 1.302 0 0 1-.176-.368c-.01-.072-.114-.233-.231-.358-.117-.125-.212-.31-.212-.411 0-.101-.102-.264-.227-.362-.141-.11-.25-.324-.288-.567-.035-.214-.125-.413-.202-.443-.083-.032-.166-.246-.202-.524-.035-.26-.096-.492-.137-.517-.04-.025-.05-.134-.023-.243.038-.144-.003-.21-.152-.25-.112-.029-.204-.113-.204-.187a.764.764 0 0 0-.092-.3c-.05-.09-.138-.38-.194-.644-.12-.56-.13-.595-.26-.908a11.111 11.111 0 0 1-.267-.813 44.213 44.213 0 0 0-.293-.956 5.637 5.637 0 0 1-.181-.95c-.032-.313-.105-.625-.162-.694-.058-.069-.067-.127-.021-.129.046-.002.018-.055-.062-.12-.14-.111-.338-.848-.444-1.646a2.975 2.975 0 0 0-.185-.684c-.074-.166-.134-.585-.134-.932 0-.347-.04-.631-.087-.631-.047 0-.094-.377-.102-.837-.022-1.129-.038-1.306-.125-1.37-.04-.03-.096-.332-.123-.67a9.588 9.588 0 0 0-.096-.835c-.026-.121 0-.48.057-.796.075-.411.075-.612.002-.7a.311.311 0 0 1-.043-.28.317.317 0 0 0-.03-.276c-.05-.065-.081-.269-.07-.453.012-.184.05-.937.084-1.673.034-.737.104-1.555.157-1.818.052-.263.131-.8.176-1.195.045-.395.13-.838.189-.987.059-.148.108-.492.109-.765 0-.272.09-.84.197-1.26.108-.421.255-1.088.327-1.483.073-.394.18-.91.24-1.148.058-.236.132-.56.163-.717.03-.158.157-.447.28-.644.124-.196.226-.434.226-.529 0-.095.086-.417.19-.717.106-.299.192-.61.192-.691 0-.08.043-.233.096-.337l.18-.361c.045-.094.115-.363.154-.598.038-.235.105-.47.147-.523.114-.142.377-.928.378-1.132.001-.097.09-.3.197-.451.108-.151.262-.502.343-.78.081-.278.316-.856.523-1.284.206-.428.35-.842.32-.92-.029-.078.01-.205.089-.284.078-.078.171-.298.207-.49.036-.192.096-.349.134-.349.07 0 .111-.077.463-.86.525-1.168.637-1.394.736-1.483.059-.052.164-.267.234-.478.07-.21.251-.568.402-.794.151-.226.275-.468.275-.538s.066-.182.147-.25c.1-.082.13-.208.09-.383-.044-.205-.004-.301.188-.452.134-.106.506-.703.826-1.326.321-.624.622-1.175.67-1.225a.377.377 0 0 0 .087-.227c0-.183.463-.934.791-1.284.146-.155.341-.504.434-.775.093-.27.281-.667.418-.88.137-.213.41-.708.606-1.1.197-.392.46-.834.585-.982.124-.15.226-.327.226-.395 0-.069.062-.176.138-.238.075-.063.23-.294.344-.514.115-.22.326-.575.469-.788.143-.213.308-.524.366-.69.058-.166.295-.615.527-.999.232-.383.45-.812.484-.953.035-.141.128-.32.207-.4.079-.079.143-.183.143-.232 0-.146 1.157-2.36 1.252-2.395.048-.018.087-.143.087-.278 0-.139.164-.464.374-.742.205-.272.418-.642.473-.821.322-1.064 1.006-2.718 1.163-2.814.05-.032.162-.3.249-.597.086-.298.216-.6.288-.672a.47.47 0 0 0 .13-.278c0-.082.085-.304.187-.496.358-.67.675-1.42.675-1.6 0-.1.06-.296.132-.434.073-.139.207-.483.3-.765.091-.282.2-.556.241-.609.068-.087.236-.531.633-1.669.082-.234.205-.513.274-.621.07-.108.154-.412.189-.675a5.45 5.45 0 0 1 .236-.956c.285-.785.567-1.888.672-2.624.054-.38.135-.763.18-.85.18-.348.178-4.93-.004-6.185-.053-.368-.131-.95-.174-1.291a16.189 16.189 0 0 0-.242-1.34 42.739 42.739 0 0 1-.386-1.84c-.037-.198-.106-.359-.153-.359s-.06-.103-.028-.229c.032-.125.014-.255-.039-.288-.053-.033-.124-.307-.157-.608-.112-1.03-.394-2.127-.546-2.127-.042 0-.077-.185-.077-.41 0-.227-.05-.462-.11-.523-.155-.155-.481-1.922-.532-2.882-.032-.613.008-1.001.167-1.649.115-.465.188-.902.162-.971-.045-.115.192-1.383.396-2.12.05-.183.051-.37.003-.447-.1-.155-.007-.939.131-1.112.144-.18.337.02.46.48.058.213.262.607.455.877.194.27.411.595.485.723.34.597.68 1.298.68 1.409 0 .067.037.122.084.122.046 0 .11.075.14.167.08.239.281.537.421.627a.29.29 0 0 1 .12.218c0 .18.536 1.25.667 1.33.054.033.098.133.098.222 0 .136.474 1.229.756 1.743.044.081.112.34.151.574.039.235.104.47.146.523.042.052.127.44.19.86.063.421.15.831.193.911.043.08.125.748.183 1.483.111 1.413.336 3.113.489 3.69.05.19.091.484.091.652 0 .168.047.393.103.5.057.105.122.538.145.96.022.422.065.806.094.853.03.048.074.527.1 1.066.026.538.088 1.267.138 1.62.05.351.09.932.09 1.29s.043.91.095 1.225c.166 1.004.106 4.782-.088 5.48-.062.227-.103.485-.09.575a.924.924 0 0 1-.04.353c-.035.105-.103.542-.15.972-.065.581-.138.836-.29.998-.212.228-.233.314-.204.832.01.174-.022.367-.07.43-.048.064-.142.373-.21.689a6.8 6.8 0 0 1-.198.765c-.043.105-.152.428-.242.717-.09.29-.243.68-.338.866-.096.186-.22.552-.276.813-.094.44-.477 1.499-.68 1.883a.816.816 0 0 0-.088.315c0 .082-.086.327-.192.545-.105.218-.19.447-.19.509s-.087.222-.192.355c-.105.134-.191.293-.191.354s-.102.334-.226.607c-.123.273-.299.722-.39.998-.09.276-.207.502-.258.502-.05 0-.154.148-.23.328-.075.18-.176.352-.223.382-.048.03-.115.172-.148.317-.075.32-.363.921-.462.965-.04.018-.072.104-.071.192 0 .214-.572 1.65-.733 1.84a.558.558 0 0 0-.129.298c0 .155-.712 1.592-.866 1.746-.05.05-.09.175-.09.278 0 .103-.1.32-.222.483-.312.417-.742 1.213-1.166 2.16l-.583 1.3c-.12.268-.286.542-.368.61-.081.067-.148.176-.148.242 0 .143-.382 1.032-.473 1.1-.101.077-.929 1.557-1.003 1.794-.036.118-.102.215-.146.215s-.303.452-.577 1.004c-.274.552-.537 1.004-.584 1.004-.047 0-.086.042-.086.093s-.102.32-.228.598a8.656 8.656 0 0 0-.293.72c-.036.118-.097.215-.135.215-.039 0-.123.145-.187.322a2.05 2.05 0 0 1-.306.54c-.104.12-.19.299-.19.396 0 .097-.036.177-.08.177-.044 0-.138.183-.208.406-.07.224-.185.474-.255.557-.07.083-.126.183-.126.222 0 .039-.108.305-.24.593-.13.287-.238.55-.238.582 0 .033-.115.211-.256.395-.322.422-.988 1.68-.988 1.865 0 .077-.144.35-.32.606-.176.256-.55 1.067-.829 1.804-.28.736-.545 1.352-.588 1.37-.044.017-.08.095-.08.173 0 .123-.2.67-.485 1.325-.046.105-.144.363-.22.574-.402 1.134-.562 1.539-.641 1.62a.436.436 0 0 0-.088.264c0 .095-.037.172-.083.172-.045 0-.063.1-.04.223.025.126-.044.367-.156.55-.11.18-.199.42-.2.534 0 .114-.035.222-.08.24-.09.035-.494 1.64-.493 1.962 0 .115-.043.236-.096.269-.052.032-.096.198-.096.369 0 .17-.049.359-.108.419-.06.06-.164.402-.23.76s-.193.91-.282 1.225c-.315 1.116-.49 2.613-.574 4.925-.027.763-.074 1.538-.104 1.722-.03.184-.08.485-.112.67-.082.474-.06.807.107 1.625.08.395.171.911.202 1.148.092.722.22 1.46.331 1.913.059.236.151.645.206.908.092.444.25 1.023.637 2.343.085.29.305.757.489 1.04.183.283.39.734.46 1.004s.17.505.223.523c.052.017.094.085.094.15 0 .065.128.287.285.494.156.207.285.452.287.544.005.3.298.71 1.15 1.608.499.525 1.287 1.135 1.472 1.139.047 0 .133.06.191.133.058.073.537.358 1.063.634.526.276 1.01.57 1.076.652.083.105.15.12.22.05.11-.11.855.204.855.36 0 .047.089.085.196.085.108 0 .322.065.476.145.153.08.313.137.354.128a.52.52 0 0 1 .218.041c.079.032.23.071.334.088.106.017.192.095.192.173 0 .109.164.154.683.19.465.033.743.102.869.216.198.18.408.221.408.08 0-.103.406-.014.487.107.03.046.267.1.526.12.258.02.59.083.739.14.148.056.413.103.59.103.176 0 .335.043.353.097.018.054.361.135.763.18.402.045.77.106.817.135.047.03.31.079.584.11.275.031.617.102.76.158.145.055.521.102.837.104.365.002.632.054.734.144a.38.38 0 0 0 .368.075c.303-.096.863-.081.97.027.051.05.276.072.5.046.263-.03.51.006.696.103.157.081.433.147.613.146.18 0 .757.026 1.283.06.526.033 1.262.072 1.635.088.374.015.737.063.807.107.07.043.346.07.612.06.267-.01 1.044.028 1.728.084 1.407.117 3.121.211 4.112.226.369.005.695.044.725.085.03.04.688.084 1.462.096 1.064.015 1.426.052 1.487.15.058.095.168.11.403.054.177-.042.362-.066.41-.053.047.012.52.039 1.051.058 1.894.069 2.797.113 3.835.188 1.599.116 2.346.15 4.022.184.845.017 1.61.073 1.701.124.098.054.41.063.76.021.327-.04.768-.033.98.014.335.074.978.102 1.861.083.44-.01 2.233.104 2.385.15a.39.39 0 0 0 .282-.036c.127-.08.807.083 1.176.281.106.058.173.049.198-.026.029-.087.238-.085.892.007.47.066.961.111 1.092.1.132-.01.39-.016.574-.013 1.953.041 2.774.085 2.774.149 0 .042.387.063.86.048.474-.016.86-.06.861-.1 0-.04.086-.072.191-.072.106 0 .192.048.192.106 0 .064.066.078.167.035.2-.084.286-.08 2.367.108.894.081 1.798.137 2.009.124.515-.032 1.134-.02 1.769.032.29.024.595.008.68-.034.086-.043.184-.049.22-.013.064.064.936.128 1.603.118.192-.003.378.04.413.096.034.055.102.076.15.045.05-.03 1.163-.068 2.476-.083 1.94-.024 2.395-.004 2.435.1.054.14.343.183.343.051 0-.104-.034-.1 1.913-.162l1.865-.059c.105-.003.492-.005.86-.004l1.196.002c.29 0 .718.001.953.003s.48-.04.543-.093c.077-.064.244-.06.507.01.216.058.441.076.5.039.06-.037.262-.084.45-.104.187-.021.374-.09.414-.153.05-.078.074-.08.074-.008.001.059.163.134.36.167.287.048.39.023.515-.127.085-.103.185-.157.222-.12.098.098 1.982.018 2.19-.094.114-.06.212-.06.27-.003.108.109 1.39.037 1.638-.091.095-.05.59-.114 1.1-.143.51-.029.981-.096 1.047-.149.08-.065.207-.06.389.016.182.075.393.084.648.026.208-.046.463-.051.567-.01.32.124.644.095.833-.076.15-.137.212-.144.373-.043.154.096.223.097.336.003.08-.067.447-.123.845-.13.423-.007.763-.063.854-.139.102-.084.152-.09.152-.018 0 .15.205.133.566-.047.174-.086.421-.132.565-.103a.613.613 0 0 0 .44-.084c.119-.087.305-.115.53-.079.217.035.482 0 .704-.093.196-.082.417-.125.491-.097.074.029.37.003.657-.056.287-.06.774-.13 1.082-.154l1.007-.084c.246-.021.541-.089.656-.15.114-.061.343-.087.509-.057.165.03.473.01.683-.045a5.83 5.83 0 0 1 .671-.13c.159-.019.46-.077.67-.131.21-.054.607-.127.883-.162.276-.036.526-.104.555-.151.03-.048.39-.087.801-.087.522 0 .782-.04.858-.133.128-.153.583-.263.583-.14 0 .045-.05.082-.111.082-.062 0-.084.027-.05.061.034.035.236-.053.45-.194.303-.201.456-.244.704-.198.234.044.361.015.487-.11.12-.12.324-.173.685-.176.38-.004.502-.037.467-.129-.035-.093.035-.108.283-.061.24.045.373.02.484-.092.118-.118.351-.153 1.014-.153.638 0 .898-.037 1.004-.144.09-.09.325-.143.631-.143.32 0 .548-.055.663-.159.096-.087.175-.112.175-.056 0 .112.362.049.549-.097a.306.306 0 0 1 .268-.035c.082.032.304-.006.492-.085a2.08 2.08 0 0 1 .738-.128c.219.008.495-.037.615-.101s.46-.137.758-.161c.297-.025.61-.108.696-.185.103-.094.365-.14.785-.14.671 0 .963-.066.882-.197-.028-.045.112-.107.311-.14.199-.032.563-.102.81-.156.303-.066.504-.067.621 0 .13.071.218.056.346-.06.104-.094.36-.162.644-.171.259-.008.526-.059.592-.111.067-.053.266-.095.441-.093.176.002.348-.041.383-.095.034-.054.278-.127.541-.164l.765-.104c.306-.041 1.991-.34 3.252-.575.42-.079.88-.143 1.022-.143.142 0 .282-.04.311-.087.056-.09.614-.185 1.464-.248.277-.02.555-.07.62-.11.064-.039.376-.124.693-.189.317-.064.92-.206 1.341-.314.421-.109.875-.198 1.01-.199a.844.844 0 0 0 .43-.141.778.778 0 0 1 .385-.144c.11-.002.23-.032.265-.069a.464.464 0 0 1 .231-.083 11.96 11.96 0 0 0 1.266-.31.526.526 0 0 1 .227-.03c.046.01.14-.062.21-.162.092-.13.296-.199.73-.244.362-.037.644-.119.708-.205.058-.079.155-.143.216-.143.06 0 .27-.086.466-.191.196-.106.412-.192.479-.192a.77.77 0 0 0 .288-.088c.092-.049.23-.114.31-.145.079-.03.272-.14.43-.244.311-.205.686-.383.804-.383.041 0 .153-.086.248-.192.095-.105.227-.19.292-.19.065 0 .143-.065.173-.144.03-.08.136-.144.235-.144.098 0 .257-.086.352-.191.095-.105.218-.191.273-.191.142 0 1.072-.98 1.242-1.309a1.11 1.11 0 0 1 .382-.405c.132-.07.263-.22.291-.331.028-.112.215-.378.414-.59.2-.214.654-.73 1.01-1.148.356-.418.732-.848.837-.955.286-.293.246-.462-.094-.394-.325.065-.45-.052-.241-.225.078-.065.142-.155.142-.2 0-.046.237-.39.526-.764.29-.374.526-.74.526-.814 0-.074.039-.134.087-.134.047 0 .198-.19.334-.423a3.99 3.99 0 0 1 .38-.556c.074-.073.23-.324.347-.557.118-.233.392-.683.609-1 .562-.82.598-.881.955-1.624.5-1.043.73-1.574.73-1.685 0-.057.082-.217.18-.356.1-.14.204-.426.234-.637.03-.21.102-.662.162-1.004.06-.353.084-1.014.053-1.53-.117-1.933-.162-2.45-.243-2.774-.095-.38-.269-1.534-.338-2.245a4.548 4.548 0 0 0-.152-.797 3.748 3.748 0 0 1-.128-.815c-.012-.272-.072-.589-.134-.703-.061-.115-.111-.424-.111-.688 0-.263-.043-.505-.096-.538-.053-.032-.096-.25-.096-.483 0-.234-.043-.425-.095-.425-.053 0-.096-.172-.096-.383 0-.21-.046-.382-.103-.382-.064 0-.08-.105-.042-.278.035-.161.018-.305-.042-.341-.247-.153-.634-1.533-.665-2.373-.022-.601-.454-2.08-.649-2.222-.11-.08-.158-.287-.168-.725-.008-.337-.043-.677-.077-.756-.033-.079-.08-.38-.102-.67a4.927 4.927 0 0 0-.256-1.1 6.525 6.525 0 0 1-.29-1.099 10.82 10.82 0 0 0-.237-1.1l-.293-1.052a6.607 6.607 0 0 1-.178-1.003c-.025-.288-.18-.977-.345-1.53-.573-1.919-.665-2.255-.665-2.429 0-.102-.05-.155-.121-.128-.088.033-.112-.053-.087-.315a1.564 1.564 0 0 0-.114-.682c-.082-.176-.14-.385-.131-.464.036-.293-.15-1.012-.327-1.262-.102-.144-.197-.469-.216-.735-.02-.268-.116-.595-.22-.746-.136-.196-.176-.378-.146-.666.026-.25-.011-.479-.101-.621-.078-.124-.172-.441-.209-.704a7.057 7.057 0 0 0-.238-1.004c-.094-.29-.2-.688-.235-.885-.035-.197-.105-.358-.155-.358s-.091-.138-.091-.306c0-.31-.463-1.902-.579-1.99-.034-.026-.12-.413-.191-.86-.071-.448-.243-1.05-.383-1.34-.39-.805-1.003-3.111-1.114-4.19-.044-.423-.092-.524-.28-.596-.168-.064-.227-.16-.227-.37 0-.156-.043-.31-.095-.342-.053-.033-.096-.188-.096-.346 0-.275-.523-1.759-.686-1.945-.043-.05-.079-.22-.079-.376 0-.318-.142-.83-.344-1.238-.074-.15-.134-.336-.134-.416 0-.08-.062-.26-.137-.399-.076-.14-.208-.512-.294-.827a38.42 38.42 0 0 0-.388-1.303c-.128-.401-.233-.816-.233-.922 0-.106-.085-.38-.19-.61-.216-.479-.245-.957-.074-1.232.146-.234-.003-.524-.269-.524-.197 0-.36-.515-.278-.88.032-.142-.01-.243-.128-.306-.182-.098-.399-.677-.401-1.073-.001-.125-.066-.413-.145-.64-.08-.227-.118-.456-.085-.509.032-.052-.014-.149-.103-.214-.114-.083-.168-.278-.182-.654-.01-.294-.065-.593-.122-.664-.056-.07-.128-.3-.16-.511-.03-.21-.034-.331-.005-.269.064.145.325.051.325-.117 0-.07-.07-.196-.154-.281-.148-.148-.278-.53-.393-1.15-.029-.158-.111-.322-.183-.364-.146-.085-.182-.736-.041-.736.1 0 .04-.568-.107-1.004-.053-.158-.112-.603-.132-.99-.041-.835-.104-1.067-.287-1.067-.163 0-.183-.299-.03-.451a.246.246 0 0 1 .239-.057c.076.03.132-.01.132-.092 0-.078-.082-.164-.182-.19-.141-.037-.193-.162-.233-.56a26.475 26.475 0 0 0-.134-1.064c-.065-.43-.056-.55.042-.55.154 0 .158.064-.054-.784-.146-.587-.16-.8-.077-1.208.06-.29.153-.495.226-.495.144 0 .168-.3.035-.435-.134-.135-.281-.877-.192-.968.084-.085.12-1.816.067-3.283-.034-.98.081-1.722.268-1.722.13 0 .256-.499.144-.573-.205-.136-.283-.456-.153-.633.079-.108.11-.29.078-.454-.052-.258-.043-.268.157-.16.159.084.244.085.343.003.17-.14.095-.33-.181-.455-.208-.095-.214-.13-.14-.744.107-.893.335-1.381.512-1.096.032.053.095.096.14.096.118 0 .002-.402-.176-.606-.156-.18-.161-.546-.015-1.068.256-.91.426-1.387.495-1.387.043 0 .052-.187.02-.416a1.381 1.381 0 0 1 .086-.741c.078-.179.2-.514.27-.744.07-.231.144-.371.164-.311.077.232.203.093.151-.167-.031-.157-.01-.303.05-.34.058-.036.107-.203.109-.37.002-.168.066-.39.143-.491a.79.79 0 0 0 .14-.405c0-.121.13-.43.287-.685.158-.256.315-.612.349-.79.034-.18.14-.436.233-.57a1.92 1.92 0 0 0 .241-.526c.039-.154.128-.337.198-.407a.442.442 0 0 0 .127-.257c0-.164.903-2.04 1.299-2.697a2.48 2.48 0 0 0 .354-1.026c.03-.29.122-.625.205-.743.083-.118.15-.271.15-.34 0-.174.841-1.602 1.062-1.801.1-.091.182-.237.182-.326 0-.088.172-.299.382-.468l.383-.307v.712c0 .551.033.724.147.767.129.05.13.083.008.274-.19.297-.224 1.246-.07 1.934.093.416.1.614.024.735-.078.125-.066.258.047.53.084.201.194.391.245.423.051.033.09.504.085 1.054-.006.799.027 1.06.17 1.327.14.26.168.464.13.93-.05.627.064.921.32.823.208-.08.167.23-.054.42-.106.09-.191.23-.19.31 0 .13.012.13.095.003.084-.127.105-.127.189 0 .051.08.094.24.095.36.001.117.045.214.097.214.053 0 .096-.06.096-.135 0-.16.327-.089.623.135.178.134.185.215.121 1.244-.037.605-.066 1.5-.063 1.989.002.489-.041.944-.096 1.01-.056.067-.17.522-.255 1.013-.084.49-.193.996-.242 1.124a1.85 1.85 0 0 0-.088.543c0 .171-.06.502-.132.735-.174.557-.374 1.88-.302 1.996.031.05.011.277-.044.503-.056.226-.14.82-.186 1.32-.046.5-.127 1.102-.18 1.339a45.813 45.813 0 0 0-.317 1.936c-.123.829-.255 1.507-.295 1.507-.04 0-.045.248-.014.551.04.374.012.69-.085.98-.414 1.237-.213 8.476.266 9.61.067.158.168.61.225 1.004.108.75.184 1.103.446 2.057.086.315.193.767.236 1.004.043.237.168.75.278 1.141.11.391.2.888.2 1.105 0 .216.038.434.086.484.103.11.679 1.896.679 2.108 0 .082.111.339.247.572.137.232.312.735.39 1.116.078.382.208.797.289.922.08.125.226.506.323.846.097.34.216.668.263.729.137.175.4 1.029.4 1.299 0 .135.087.387.192.559.105.172.19.443.19.601 0 .159.087.458.192.664.105.206.191.454.191.55 0 .097.04.217.09.267.05.05.134.263.187.474.053.21.19.64.305.956.115.316.241.703.282.86.213.832.598 2.027.764 2.371.104.216.19.505.19.644 0 .233.36 1.421.566 1.863.16.345.485 1.47.485 1.68 0 .112.062.318.136.458.276.515.816 2.366.82 2.806 0 .142.039.28.085.31.123.075.389.937.452 1.464.03.25.136.713.236 1.029.1.316.243.81.318 1.1l.242.925c.058.219.19.843.293 1.386.238 1.256.362 1.743.584 2.28.097.236.205.602.24.812.034.21.094.426.133.479.097.13.43 1.134.572 1.721.063.263.2.642.306.841.105.2.17.42.143.49-.054.14.247 1.37.408 1.67.056.105.101.35.101.545 0 .195.06.402.133.46.072.059.202.45.289.871.086.421.18.852.21.957.03.105.093.383.142.617.049.235.174.668.28.963.104.295.19.632.19.748 0 .117.067.372.15.568.082.195.167.495.19.664.022.17.087.515.143.766.057.25.17.95.251 1.556.27 2.01.58 3.699.725 3.958.097.173.146 1.16.17 3.406.01.977-.165 2.597-.386 3.584-.208.929-1.052 2.127-1.69 2.402-.168.072-.334.224-.37.338-.07.222-.865 1.04-1.01 1.04-.047 0-.086.07-.086.155 0 .189-.543 1.289-.702 1.423-.062.052-.166.214-.23.358-.064.145-.16.263-.214.263-.053 0-.097.063-.097.14 0 .162-.472.625-.637.625-.105 0-.154.138-.27.755a.948.948 0 0 1-.19.39c-.08.089-.147.21-.147.27 0 .166-.489 1.014-.634 1.1-.098.058-.103.115-.02.249.088.14.07.212-.093.374-.11.111-.27.451-.353.756-.083.304-.19.618-.239.697-.295.483-.573 1.177-.573 1.429 0 .16-.036.292-.08.292-.044 0-.14.119-.215.263-.075.145-.17.288-.211.32-.042.03-.116.525-.165 1.099-.098 1.133-.166 1.474-.297 1.474-.047 0-.085.1-.085.22 0 .122-.102.36-.226.529-.181.245-.24.48-.293 1.151-.037.464-.128.963-.204 1.109-.075.146-.137.342-.137.435 0 .094-.15.303-.335.465-.184.161-.335.335-.335.386 0 .052-.165.417-.366.813-.297.584-.39.698-.492.604-.102-.095-.114-.082-.063.063.086.242-.085.424-.464.496-.204.038-.35.139-.418.289-.058.127-.166.23-.24.23-.073 0-.187.065-.252.144-.066.08-.254.18-.419.222-.248.064-.296.122-.287.342.01.25-.006.262-.31.205-.232-.043-.323-.025-.324.064-.001.088-.028.082-.095-.02-.082-.128-.093-.128-.097 0-.006.212-.399.649-.45.502-.064-.18-.252-.144-.389.075a.84.84 0 0 1-.358.285c-.13.05-.236.153-.236.231 0 .086-.131.166-.336.205-.185.034-.368.114-.406.177-.039.063-.329.174-.644.246-.316.073-.609.189-.65.258-.043.069-.135.125-.206.125-.07 0-.151.06-.18.135-.037.097-.172.123-.488.093-.338-.031-.437-.01-.437.1 0 .195-.094.235-.754.325-.396.054-.59.047-.614-.023-.02-.057-.086-.006-.15.111-.063.119-.18.215-.258.215-.079 0-.246.067-.37.149-.16.104-.375.136-.725.105-.376-.033-.573.001-.808.14-.171.1-.478.2-.683.219a2.758 2.758 0 0 0-.659.153c-.158.064-.604.129-.992.143-.439.016-.733.071-.78.147-.049.08-.192.1-.428.063-.224-.037-.43-.011-.56.07-.112.072-.554.158-.982.193a9.15 9.15 0 0 0-1.267.193c-.27.072-.465.088-.433.037.066-.107-.65 0-.727.11a.561.561 0 0 1-.19.13c-.082.036-.05.046.07.023.12-.022.243.004.276.058.04.064-.103.075-.422.03-.374-.05-.537-.03-.728.096-.136.09-.318.135-.404.102a.303.303 0 0 0-.273.037c-.101.084-.572.123-1.245.104-.734-.022-1.102.063-1.327.306-.202.218-.311.254-.758.248-.287-.003-.602.036-.701.087-.099.05-.405.12-.681.156-.277.035-.654.153-.84.263-.267.158-.423.185-.764.134-.279-.042-.429-.029-.429.037 0 .057-.19.102-.427.102-.246 0-.588.083-.807.197-.208.109-.662.238-1.008.287-.345.049-.703.127-.795.173-.231.118-1.029.299-1.315.299-.131 0-.238.046-.238.102 0 .057-.081.076-.183.044-.101-.032-.213-.01-.249.047-.038.062-.179.08-.342.044-.173-.038-.278-.022-.278.042 0 .057-.17.104-.377.104s-.4.037-.43.084c-.079.13-.53.19-.597.08-.036-.06-.108-.032-.18.067-.112.153-.142.154-.419.01-.308-.159-.484-.129-.484.083 0 .08-.16.125-.474.132-.26.006-.56.056-.664.112-.104.056-.407.112-.673.125-.265.013-.483.056-.483.096 0 .039-.127.071-.28.071-.376 0-.582.089-.582.25 0 .164-.16.176-.214.016-.044-.132-.676.033-1.153.3-.223.125-.28.128-.348.019-.046-.075-.131-.1-.2-.057-.065.04-.39.066-.723.057-.499-.014-.62.013-.698.159-.077.145-.227.18-.842.198-.41.012-1.091.088-1.512.167-1.174.222-1.282.239-2.152.325-.447.045-1.071.126-1.387.18a8.815 8.815 0 0 1-1.339.086c-.459-.007-.855.037-.99.11-.14.075-.355.096-.568.056-.305-.057-.329-.047-.217.087.11.134.089.144-.197.09-.178-.034-.376-.103-.44-.153-.076-.06-.28-.058-.574.005-.497.105-.723.126-1.341.124-.224 0-.407.04-.407.09 0 .05-.045.091-.101.091-.056 0-.076-.041-.044-.092.031-.05-.085-.034-.258.038-.24.099-.518.111-1.173.05-.483-.044-.881-.043-.91.004-.029.046-.288.114-.576.151a4.646 4.646 0 0 0-.745.15c-.123.045-.198.045-.17-.001.053-.085-2.901-.052-2.986.033-.027.026-.106 0-.177-.059-.095-.078-.165-.076-.268.01-.08.067-.253.092-.406.059-.147-.032-.6-.016-1.008.036-.46.06-.915.062-1.201.007a3.855 3.855 0 0 0-1.021-.011c-.309.042-.706.043-.884.003-.178-.04-.556-.041-.84-.003-.381.052-.53.038-.564-.05-.054-.14-1.025-.087-1.361.076-.14.067-.26.067-.379.002-.096-.054-.402-.074-.68-.045-.372.038-.506.02-.506-.07 0-.133-.719-.062-.904.09-.13.108-1.38.17-1.475.075zm26.792-1.376a.551.551 0 0 0-.287-.004c-.093.024-.04.045.118.047.157.002.234-.017.169-.044zm38.706-82.645a.68.68 0 0 0-.095-.306c-.068-.106-.093-.05-.094.221 0 .22.037.341.094.305.053-.032.095-.131.095-.22zm-3.196-12.332a3.36 3.36 0 0 0 .097-.502l.022-.239-.096.24a5.993 5.993 0 0 1-.183.404c-.11.212-.11.36-.001.36.047 0 .119-.118.16-.263zm-1.202-5.619c0-.078-.04-.143-.09-.143-.12 0-.207.15-.13.226.107.107.22.065.22-.083zm0-16.072c0-.082-.043-.123-.096-.09-.052.032-.095.1-.095.149 0 .05.043.09.095.09.053 0 .096-.067.096-.15zm-.03-.59c-.024-.093-.045-.04-.047.117-.002.158.018.234.044.17a.542.542 0 0 0 .003-.287zm1.53-5.07c-.024-.092-.045-.04-.047.119-.002.157.018.233.044.169a.542.542 0 0 0 .003-.287zm4.877-3.486c-.03-.076-.053-.053-.058.058-.004.1.019.157.05.125.032-.031.036-.114.008-.183zm1.178-.89c0-.08-.07-.144-.155-.144-.127 0-.134.026-.036.144.065.078.135.143.155.143.02 0 .036-.064.036-.143zm0-.676c0-.14-.114-.183-.217-.08-.086.086.033.332.131.271.047-.029.086-.115.086-.19zm-.199-2.265c.058-.151.039-.265-.063-.38-.188-.213-.312-.133-.312.202 0 .434.235.545.375.178zm-147.13 121.77c-.032-.053-.016-.096.037-.096.052 0 .122.043.155.095.032.053.016.096-.037.096-.052 0-.122-.043-.155-.096zm79.884-30.562c-.037-.037-1.156-.067-2.486-.066-1.33 0-2.484-.034-2.565-.076-.132-.069-.488-.121-2.554-.376-.328-.04-.651-.116-.717-.167-.067-.052-.361-.1-.655-.105-.295-.005-.652-.055-.796-.11a1.688 1.688 0 0 0-.497-.099c-.13 0-.34-.068-.467-.151-.128-.084-.274-.126-.325-.094a.112.112 0 0 1-.153-.04c-.033-.054-.225-.097-.426-.097-.208 0-.416-.062-.484-.144a.478.478 0 0 0-.322-.145c-.262-.002-.318-.046-.781-.62-.58-.719-.852-1.687-.788-2.811.028-.479.094-.924.147-.99.053-.066.128-.4.167-.742.044-.39.167-.798.332-1.1.145-.262.291-.635.326-.826.035-.192.148-.457.252-.59.104-.131.189-.305.189-.386 0-.08.045-.175.1-.209.056-.034.208-.284.339-.555.13-.272.32-.644.42-.828.101-.185.186-.432.188-.55.004-.119.047-.216.099-.216.051 0 .123-.116.159-.26.036-.142.142-.342.236-.443.094-.1.245-.42.337-.712.091-.29.26-.637.374-.77.196-.227.264-.242 1.154-.248l.945-.005.03.456c.022.347-.008.469-.124.514-.116.044-.148.172-.132.527.012.26-.028.518-.091.58-.062.063-.114.223-.115.357 0 .193-.02.214-.094.1-.076-.118-.092-.11-.092.049 0 .236.154.495.243.407.036-.036.183-.004.328.07.144.076.285.114.313.086.028-.028.135.002.238.067.146.09.315.092.75.008.458-.09.635-.084.946.028.21.076.6.14.866.142.265.002.532.054.593.115.084.084.146.082.257-.01a.319.319 0 0 1 .315-.05c.093.04.34.085.551.1.56.038.976.108 1.095.181.057.036.256.015.441-.046.255-.085.448-.085.796-.001.253.06.606.113.785.116.18.004.378.048.441.098s.202.064.307.03a.568.568 0 0 1 .382.04c.104.056.212.064.24.017.03-.047.242-.048.492-.002.4.075 3.21.14 3.437.08a.474.474 0 0 1 .24.03c.434.167 2.581.29 2.581.149 0-.079.59-.003 1.035.132.263.08.338.068.438-.07.105-.143.167-.15.466-.052.189.063.562.119.829.125.266.006.484.048.484.094 0 .045.076.042.168-.006.244-.13.922-.145 5.283-.113.921.006 2.105-.025 2.63-.07.527-.047 1.064-.056 1.196-.02.131.034.366.028.522-.015.18-.049.306-.04.347.026.043.07.14.053.3-.052.13-.085.382-.15.561-.145.18.005.573-.02.874-.056.441-.052.579-.034.705.092.145.145.17.145.34-.01.233-.21 1.685-.25 1.922-.053.125.103.171.095.278-.053.13-.181.28-.213 1.035-.223.235-.003.473-.042.528-.087.054-.046.593-.107 1.197-.136 1.76-.086 2.676-.169 2.723-.246.07-.111.562.005.688.163.098.124.142.115.333-.062.237-.221.589-.345.731-.256.05.03.342-.013.651-.095.312-.082.753-.128.99-.103.384.042 1.253-.067 1.629-.203.14-.05 1.565-.127 2.354-.126.319 0 .416-.043.518-.233.142-.266.24-.296.316-.097.066.173 1.054.1 1.375-.1.116-.072.518-.175.892-.229.375-.053.76-.139.858-.191.098-.052.32-.096.495-.098a1.36 1.36 0 0 0 .556-.14 1.13 1.13 0 0 1 .443-.14c.113-.002.328-.068.478-.147.151-.078.41-.143.575-.143.179 0 .323-.059.356-.144a.234.234 0 0 1 .198-.144c.171 0 .949-.389.994-.497.018-.042.194-.076.392-.076.238 0 .418-.065.533-.192.095-.105.229-.191.297-.191.068 0 .162-.068.209-.152.047-.084.124-.153.172-.154.048 0 .247-.083.442-.182.195-.1.44-.181.545-.181a.357.357 0 0 0 .282-.164c.05-.09.236-.213.411-.271.24-.08.327-.17.35-.362.017-.142-.017-.255-.076-.255s-.279-.083-.489-.185a3.737 3.737 0 0 0-.689-.25 2.344 2.344 0 0 1-.605-.245c-.164-.1-.357-.181-.43-.182-.073 0-.246-.06-.386-.133-.14-.073-.591-.227-1.004-.344-.413-.117-1.095-.31-1.516-.432a15.655 15.655 0 0 0-2.534-.473 5.97 5.97 0 0 1-.717-.126c-.21-.052-.9-.169-1.53-.259-.632-.09-1.273-.203-1.425-.25-.153-.047-.494-.086-.759-.086-.264 0-.613-.04-.774-.09-.162-.049-.703-.14-1.203-.202-.5-.062-.93-.14-.956-.173-.026-.034-.316-.069-.643-.078-.327-.01-.64-.044-.695-.078-.055-.034-.794-.082-1.643-.107-.85-.024-1.575-.064-1.613-.087-.039-.024-.537-.048-1.109-.054-.571-.005-1.082-.037-1.135-.07-.053-.033-.483-.064-.956-.068-.474-.004-.956-.04-1.073-.08a.577.577 0 0 0-.412.036c-.15.08-.235.08-.334-.003-.073-.06-.296-.102-.496-.093-.2.01-.385.01-.411.003a9.2 9.2 0 0 0-.622-.04 66.674 66.674 0 0 1-1.883-.139c-1.456-.124-6.55-.259-8.11-.215-.553.016-1.22.024-1.483.018-1.37-.03-2.128-.08-2.343-.154-.132-.045-.993-.094-1.913-.108-.92-.014-1.781-.031-1.913-.038-.43-.02-9.46-.016-10.28.005-.241.006-1.236-.107-1.274-.145-.024-.023-.13.004-.236.06-.113.061-1.034.122-2.211.147-2.607.055-2.857.048-2.939-.085-.052-.084-.103-.082-.21.006-.162.134-2.975.219-3.483.104-.171-.038-.311-.034-.311.01 0 .044-.334.081-.741.083a8.593 8.593 0 0 0-1.172.081c-.237.043-1.108.075-1.937.07-.828-.003-1.506.025-1.506.065 0 .039-.344.064-.765.055-.616-.013-.766-.045-.768-.163-.003-.121-.026-.117-.133.024-.079.104-.256.171-.451.172-.177.001-1.304.015-2.504.031-1.743.024-2.208.003-2.312-.1-.17-.17-.335-.167-.335.008 0 .099-.116.14-.407.141-.223.002-.815.036-1.315.077a9.681 9.681 0 0 1-1.737-.028c-.477-.058-.923-.066-1.05-.019-.121.045-.836.064-1.589.043-.773-.021-1.392 0-1.423.05-.03.048-.125.057-.212.019-.18-.079-1.759-.23-2.405-.23-.644-.001-2.628-.583-2.895-.85-.06-.059-.145-.107-.191-.107-.046 0-.148-.065-.227-.144a.623.623 0 0 0-.385-.143c-.165 0-.423-.176-.81-.55-.52-.503-.59-.62-.809-1.363-.367-1.249-.426-2.037-.275-3.69a39.24 39.24 0 0 1 .243-2.103c.06-.365.124-.761.14-.882a.794.794 0 0 1 .128-.339c.054-.065.144-.323.2-.573.07-.316.197-.537.411-.724.89-.773 1.442-1.166 1.79-1.275.211-.066.385-.15.385-.185s.155-.16.345-.277c.19-.118.45-.31.578-.43.128-.118.478-.33.778-.47.3-.14.62-.293.71-.342a.422.422 0 0 1 .303-.034c.082.031.183-.027.244-.141.065-.12.241-.217.462-.252.395-.064.854-.289 1.075-.526.079-.085.315-.212.526-.282.21-.07.516-.229.678-.352.163-.124.41-.225.55-.225.14 0 .254-.036.254-.08 0-.115.445-.303.716-.303.126 0 .254-.04.285-.09.078-.126.624-.388.808-.388.084 0 .207-.086.273-.191.078-.125.223-.192.418-.192.465 0 1.062-.2 1.333-.448.16-.146.447-.258.808-.317.324-.053.596-.153.643-.237.045-.08.203-.145.352-.145.19 0 .286-.057.321-.192.033-.126.13-.19.287-.19.13 0 .287-.062.349-.137.062-.075.293-.164.514-.198.61-.095.735-.145.735-.294 0-.08.093-.137.221-.137a.792.792 0 0 0 .407-.14c.213-.162.903-.197.903-.046 0 .056.046.073.102.039.056-.035.08-.085.053-.112-.027-.027.046-.146.161-.266.201-.208.422-.29 1.091-.4.188-.032.33-.122.365-.233.062-.193.407-.424.499-.332.03.03.188-.045.35-.168.446-.334.914-.542 1.227-.542.156 0 .457-.124.679-.28.24-.17.587-.308.876-.35.263-.037.521-.12.574-.183.053-.063.365-.212.695-.332.33-.12.623-.256.652-.302.028-.045.162-.083.297-.083.135 0 .38-.082.544-.182.164-.1.643-.297 1.064-.437.42-.14.872-.324 1.004-.41a9.48 9.48 0 0 1 .621-.36c.27-.143.392-.274.412-.446.026-.218.083-.25.54-.304.28-.033.74-.167 1.023-.298.281-.131.609-.24.727-.24.119 0 .215-.04.215-.088 0-.048.26-.21.577-.359.507-.238.588-.315.675-.639.084-.31.073-.398-.07-.556-.146-.16-.15-.2-.03-.276.198-.125.27-.114.606.09.164.1.557.235.872.3.768.156 1.48.481 1.853.846.168.164.372.299.452.299.136 0 1.181.997 1.19 1.134.002.034.131.21.287.393.156.182.283.377.283.434 0 .058.15.398.335.758.184.36.334.774.334.922 0 .147.043.38.095.516.166.437-.04 1.885-.352 2.466-.148.276-.295.514-.326.53-.032.014-.312.187-.622.384-.665.423-1.12.592-1.589.592-.215 0-.361.053-.396.144-.036.092-.184.143-.42.143-.202 0-.535.086-.741.191-.206.105-.449.168-.539.14-.09-.029-.328.036-.528.143-.2.108-.43.196-.51.197-.24.002-.967.282-1.113.428-.075.075-.197.113-.271.085-.074-.029-.262.043-.419.158-.156.116-.331.181-.39.146-.057-.036-.13.002-.162.084-.036.094-.175.15-.372.15-.178 0-.336.056-.364.13-.028.073-.216.163-.417.2-.202.038-.442.136-.534.218-.101.092-.167.108-.167.041 0-.06-.232.04-.515.22-.283.181-.534.31-.559.285-.056-.057-1.09.397-1.16.508-.027.046-.365.185-.75.31-.384.124-.827.318-.985.432-.29.209-.909.46-.909.37 0-.028-.125.04-.277.148-.153.109-.342.198-.42.198-.077 0-.164.086-.191.191-.038.146-.13.191-.388.191-.186 0-.362.039-.391.086-.064.104-.788.488-.92.488-.051 0-.377.172-.724.383-.346.21-.686.382-.755.382-.156 0-1.028.37-1.096.465-.027.038-.243.13-.48.204a2.529 2.529 0 0 0-.707.36 1.534 1.534 0 0 1-.545.278.92.92 0 0 0-.432.234.58.58 0 0 1-.366.18c-.315 0-1.795.655-2.068.916a.815.815 0 0 1-.554.232c-.17 0-.512.108-.76.24-.246.131-.519.239-.605.239-.178 0-.429.26-.338.352.104.103 2.004.187 2.386.105.224-.048.434-.04.55.023.118.063.25.068.355.012.092-.048.511-.097.932-.109 1.508-.042 2.208-.085 2.727-.166a6.17 6.17 0 0 1 1.147-.04c.853.06 1.585.051 2.82-.034.58-.04 1.34-.077 1.69-.084.35-.006.67-.044.71-.083.039-.04.234-.072.432-.072.199 0 .388-.043.42-.096.035-.056.126-.063.221-.015.23.114 1.816.121 2.233.01.226-.06.435-.06.594 0 .165.063.265.06.307-.007.034-.055.148-.077.253-.05a.516.516 0 0 0 .352-.05c.109-.067.385-.071.848-.011.465.06.72.056.788-.011.069-.07.152-.067.27.007a.308.308 0 0 0 .343.01c.095-.052.329-.072.52-.044.192.028.748.022 1.236-.015.489-.037.954-.03 1.034.014.09.05.203.033.298-.046.114-.094.493-.122 1.475-.108.726.011 1.34-.012 1.364-.05.024-.039.294-.056.6-.038 1.28.075 2 .07 2.115-.014.077-.056.211-.048.363.021.3.137.997.144.997.01 0-.062.078-.056.215.018.253.138 1.889.19 1.889.062 0-.049.076-.064.169-.035.093.03.749.016 1.458-.03 1.027-.067 1.326-.058 1.471.043.135.095.233.102.371.028.137-.073.25-.068.413.019.153.082.262.089.346.023.068-.053.423-.106.79-.117.366-.012.692-.037.723-.056.031-.02.635 0 1.342.044.707.044 1.33.043 1.386-.002.155-.124 1.382-.05 1.468.088.056.092.168.095.495.013.232-.059.52-.13.641-.16a.45.45 0 0 1 .395.107c.156.141.182.142.232.011.081-.21.359-.182.418.044.06.227.176.249.253.048.07-.18.844-.189 1.256-.013.25.107.303.1.43-.054.122-.148.197-.16.479-.078.184.053.595.097.913.097.323 0 .63.05.694.115.09.09.14.09.23 0 .197-.198.434-.13.503.142l.064.257.115-.232c.15-.3.757-.418 1.142-.22.215.11.375.117.839.033.315-.057.605-.084.645-.06.04.025.781.072 1.648.104 1.784.066 2.145.113 2.3.3.07.084.164.103.266.05.087-.044.38-.105.652-.136.368-.04.524-.02.61.083.12.144.473.192.473.064 0-.084 1.357-.08 1.494.003.072.045 1.155.154 1.973.198.092.005.168.042.168.083 0 .04.106.024.236-.035.176-.08.27-.08.369.003.077.064.258.085.433.05.19-.038.356-.013.453.067.084.07.353.13.598.135 1.475.03 1.73.056 1.866.192.182.183.294.181.449-.006.112-.135.132-.135.21.005.137.243.503.342.838.226.242-.085.327-.074.475.06.114.104.252.14.379.1.11-.035.618-.011 1.13.053.693.087.963.16 1.052.287.092.13.201.158.45.118.232-.038.446.007.72.15.214.111.455.202.536.202.08 0 .24.051.356.114.115.062.383.117.596.121.246.005.487.087.657.22.175.138.345.194.484.16.117-.03.273.002.347.072.115.109.775.325 1.615.528.132.031.261.083.287.115.027.032.339.202.694.378.355.175.645.353.645.395 0 .042.169.144.375.226.206.083.402.195.436.25.034.054.125.1.203.1.235 0 1.09.666 1.09.848 0 .046.13.11.287.141.158.032.287.113.287.18 0 .067.23.363.51.658.281.294.54.61.575.702.038.1.123.146.207.113.079-.03.143-.019.143.025 0 .043.15.268.333.499.184.23.335.457.335.503.001.045.141.282.313.526.171.243.397.614.502.823.105.209.266.457.358.55.092.093.167.232.167.308 0 .075.077.194.172.263.094.068.25.34.348.603.097.263.208.52.248.574.039.052.102.246.14.43.039.184.102.378.14.43.298.405.42 2.437.204 3.395-.065.29-.165.763-.222 1.052-.057.29-.226.717-.375.95-.15.232-.272.457-.272.5 0 .042-.162.324-.36.626-.483.741-.456.708-.606.73-.24.037-.373.167-.373.364 0 .201-.818 1.028-1.024 1.035-.063.002-.253.175-.42.384-.242.3-.353.37-.524.326-.157-.039-.246.001-.323.146-.059.11-.192.2-.296.2-.104 0-.313.138-.465.308-.232.259-.349.31-.74.325-.255.01-.511.022-.57.027-.057.005-.203.095-.325.2-.12.105-.271.191-.334.191s-.192.086-.287.192c-.115.126-.295.19-.533.19-.198 0-.375.047-.394.104-.019.056-.248.123-.51.149-.262.025-.592.129-.735.231-.41.295-1.637.628-2.61.71-.596.05-1.195.17-1.195.24 0 .064-.162.116-.766.246-.502.108-1.041.277-1.273.398-.152.08-.37.115-.503.082-.138-.035-.359.006-.54.1-.287.148-.954.256-1.51.246-.228-.004-.973.209-1.185.34-.117.073-.056.064-1.492.21-.605.06-1.252.1-1.437.087-.186-.013-.398.014-.473.06-.074.046-.266.093-.427.105-.161.013-.68.069-1.154.125-.473.057-1.13.104-1.461.105-.405.001-.683.055-.852.166-.206.135-.513.167-1.721.182-.809.01-1.523.06-1.587.11-.064.052-.476.124-.914.16-.665.057-.826.042-.968-.087-.159-.143-.175-.14-.222.04-.043.163-.136.199-.562.213-.281.01-.648.009-.814-.003-.167-.011-.331.024-.365.078-.034.055-.412.1-.844.102-.431.002-1.085.048-1.453.103-1.07.16-2.36.193-2.663.07-.219-.09-.288-.085-.355.024-.067.108-.484.138-2.119.151-2.103.017-2.602-.017-2.51-.167.03-.049.012-.088-.04-.088a.195.195 0 0 0-.148.084c-.094.152-.643.205-2.685.261-1.133.031-2.06.098-2.127.153-.065.053-.237.067-.382.03-.318-.08-5.745-.078-6.29.003-.21.031-.414.026-.451-.01zm70.184-20.748c-.03-.079-.014-.143.037-.143s.093.064.093.143c0 .08-.017.144-.037.144-.021 0-.063-.065-.093-.144zM139.47 180.77c-.082-.046-.34-.082-.573-.08-1.229.013-1.918-.023-2.15-.111-.142-.054-.685-.121-1.205-.149a36.936 36.936 0 0 1-1.303-.088c-.196-.02-.585-.04-.864-.043-.28-.003-.488-.038-.464-.077.025-.04-.35-.074-.83-.078a42.198 42.198 0 0 1-2.072-.087c-.657-.044-1.432-.092-1.721-.106a73.34 73.34 0 0 1-1.291-.083c-1.99-.146-4.338-.25-5.117-.228-.856.024-1.722-.034-1.775-.12-.027-.044-.154-.032-.282.026-.177.08-.268.077-.38-.015-.095-.08-.277-.101-.518-.063a1.677 1.677 0 0 1-.788-.088c-.23-.081-.675-.146-.991-.144-1.751.01-2.741-.16-2.962-.509-.082-.13-.123-.115-.301.108-.181.227-.234.246-.432.15-.391-.191-.749-.23-.97-.106-.259.145-3.089.193-3.353.056-.125-.065-.222-.049-.34.058-.196.178-.795.27-1.076.167-.11-.041-.443-.04-.739 0-.472.065-.556.051-.682-.112-.142-.184-.147-.184-.424-.002-.2.13-.328.158-.446.095-.11-.059-.178-.053-.202.016-.045.135-1.084.21-1.302.094a.354.354 0 0 0-.343.01c-.238.134-1.323.262-1.443.17-.1-.076-.854-.054-1.1.032-.361.126-.447.126-.696 0-.232-.117-.285-.115-.414.014a.66.66 0 0 1-.404.15 7.02 7.02 0 0 0-.685.062c-.237.033-1.12.065-1.961.07-.842.004-1.584.043-1.649.085-.065.042-.775.094-1.578.116-2.365.063-3.83.144-4.14.227a.981.981 0 0 1-.506-.003c-.249-.092-1.063-.062-1.237.046-.065.04-.688.064-1.385.053-.698-.01-1.333.005-1.412.035-.3.114-.943.14-1.04.043-.071-.07-.169-.072-.32-.003-.24.109-3.726.09-3.905-.02-.059-.037-1.405-.077-2.992-.09-1.586-.013-2.992-.05-3.124-.084-.131-.032-.814-.103-1.516-.156-1.187-.09-1.787-.193-2.261-.39a2.8 2.8 0 0 0-.526-.128c-.72-.106-1.01-.182-1.148-.301a1.198 1.198 0 0 0-.43-.19c-.329-.075-1.345-.453-1.922-.715-.215-.098-.46-.282-.543-.41a.781.781 0 0 0-.422-.291c-.248-.054-1.435-1.122-1.731-1.557-.406-.596-.822-1.495-.97-2.092-.064-.262-.165-.506-.223-.543-.228-.14-.377-4.475-.167-4.856.042-.075.03-.237-.025-.358-.073-.161-.068-.293.018-.483.066-.144.154-.542.196-.885.082-.663.425-1.68.64-1.895.071-.072.236-.352.366-.624s.42-.699.644-.948a7.33 7.33 0 0 0 .696-.93c.158-.263.316-.479.352-.48.037 0 .205-.195.375-.432s.368-.43.44-.43c.071 0 .16-.08.199-.178.117-.305.915-1.23 1.216-1.41a2.94 2.94 0 0 0 .574-.504c.158-.183.405-.461.55-.617.144-.157.263-.321.263-.366 0-.045.038-.081.085-.081.048 0 .4-.323.782-.718.382-.394.748-.717.812-.717.065 0 .142-.065.173-.145.03-.08.211-.237.4-.349.19-.112.384-.305.43-.428.048-.124.152-.226.232-.226.084 0 .146-.084.146-.196 0-.133.106-.24.328-.333.18-.075.355-.223.388-.328.076-.239.73-.89 1.269-1.262.223-.154.406-.328.406-.386 0-.133.566-.687.79-.773.093-.035.21-.171.26-.302.05-.13.253-.342.453-.47.405-.259 1.366-1.246 1.366-1.402 0-.096 1.106-1.241 1.2-1.241.106 0 .809-.778.809-.897 0-.144.42-.655 1.273-1.55.306-.321.645-.73.753-.91.109-.179.32-.465.47-.636.543-.622 1.943-2.8 2.384-3.712.113-.233.243-.425.288-.425.045 0 .173-.204.284-.454.11-.25.358-.734.552-1.076.193-.342.471-.965.618-1.384.147-.42.31-.804.361-.856a.37.37 0 0 0 .094-.227c0-.073.086-.242.19-.376a1.05 1.05 0 0 0 .192-.56c0-.173.043-.342.096-.374.052-.033.096-.292.096-.575 0-.469.037-.627.295-1.243.044-.105.101-.406.128-.669.06-.59.288-1.861.438-2.439.062-.236.093-.74.07-1.119-.025-.408 0-.73.058-.789.157-.156.121-5.646-.053-8.134a51.598 51.598 0 0 1-.117-3.888c.047-2.395.216-5.549.323-6.01a9.1 9.1 0 0 0 .141-1.052c.029-.368.142-.97.252-1.339.11-.368.238-1.1.284-1.626.225-2.592.502-4.607.653-4.758.06-.06.11-.216.11-.345 0-.353.45-1.065.673-1.065.27 0 .825.615 1.12 1.243.086.184.186.356.221.383.105.078.543 1.085.648 1.49.053.206.17.719.258 1.14.088.42.242 1.11.341 1.533.202.856.234 1.953.08 2.733-.057.284-.14.752-.187 1.041-.242 1.505-.296 1.785-.376 1.961-.094.206-.355 1.528-.5 2.534-.237 1.637-.27 5.462-.078 9.277.212 4.246.236 5.004.215 6.743-.032 2.715-.192 4.341-.696 7.077-.058.315-.14.853-.183 1.195-.161 1.301-.952 4.218-1.355 4.996a.792.792 0 0 0-.086.292c0 .158-.116.425-.74 1.704-.277.565-.503 1.066-.503 1.112 0 .047-.075.17-.167.274-.274.31-.598.789-.598.886 0 .12-.421 1.024-.55 1.18-.055.068-.28.468-.5.89-.22.42-.497.872-.614 1.003a9.671 9.671 0 0 0-.581.79c-.203.302-.416.55-.473.55-.058 0-.157.118-.221.263-.138.31-.456.707-1.162 1.445-.283.296-.611.69-.729.875-.117.185-.53.668-.92 1.074-.388.405-.783.846-.877.978-.095.133-.228.242-.295.242-.068 0-.256.204-.42.454-.162.25-.503.653-.756.895-.254.242-.707.705-1.008 1.028-.3.323-.587.587-.637.587-.05 0-.185.151-.3.336-.113.184-.246.31-.295.28-.048-.03-.114.013-.145.095-.04.103-.128.131-.286.091-.19-.047-.23-.02-.23.152 0 .115-.137.345-.306.512-.169.167-.566.605-.882.973-.317.368-.62.687-.674.709-.054.021-.243.194-.42.382-.741.793-1.022 1.06-1.116 1.06-.054 0-.179.14-.277.312-.155.27-.864 1.005-1.6 1.657-.123.11-.399.39-.613.622a8.631 8.631 0 0 1-.574.575 3.602 3.602 0 0 0-.423.464c-.271.352-.48.56-1.103 1.105-.24.21-.54.533-.663.717a6.471 6.471 0 0 1-.531.663c-.292.313-.298.335-.129.459.098.071.286.153.417.182.132.028.304.075.383.105.079.03.402.06.717.069.316.008.703.07.861.137.279.12.986.168 2.965.204.526.01.984.035 1.02.056.034.021.96.057 2.055.08 1.097.023 2.09.07 2.21.107.118.036.272.017.342-.04.143-.12.345-.129 1.785-.083.635.02 1.092-.01 1.243-.08.14-.067.318-.081.43-.036.105.042.937.08 1.848.083 1.01.004 1.732.048 1.852.112.147.079.254.075.42-.013.132-.07.383-.097.622-.065.235.031.475.007.58-.058.13-.081.223-.083.343-.007.122.077.292.071.637-.02.28-.074.533-.09.624-.042.084.045.272.06.416.032.144-.028.327.003.405.068.096.08.183.088.263.026.072-.057 1.304-.09 3.129-.084l3.01.01.108.219c.107.214.112.214.242.03.163-.23.353-.259 1.064-.164.302.04.598.042.658.005.15-.094 4.963-.16 4.963-.068 0 .04.7.078 1.554.084 2.103.013 4.946.147 5 .235.025.039.297.048.605.02.31-.028.64-.006.736.047.128.072.235.06.398-.048.204-.133.24-.13.418.03.152.138.23.153.363.07.11-.069.32-.08.593-.031.232.041 1.262.105 2.287.142a66.12 66.12 0 0 1 2.343.114c.263.025.974.063 1.579.082.604.02 1.218.04 1.362.047.145.005.49.01.765.01.277 0 .782.012 1.124.026 1.205.05 2.918.077 3.013.048.052-.017.184.02.292.08.113.062.251.075.326.029.071-.044.176-.063.234-.042.057.02.879.058 1.826.082 3.552.092 5.64.21 5.868.332.163.088.254.092.33.017.123-.123 1.275-.142 1.348-.022.028.045.407.061.843.036a69.809 69.809 0 0 1 2.178-.07c2.428-.041 3.436-.186 4.352-.627.21-.101.469-.161.574-.133a.513.513 0 0 0 .378-.086c.181-.133.178-.144-.113-.32-.383-.233-.29-.408.273-.51.488-.09.657.006.657.375 0 .14.074.359.164.488.192.274.252 1.646.086 1.96-.195.369-.22 2.905-.033 3.247.104.188.11 1.356.01 1.702a.254.254 0 0 1-.233.167c-.132 0-.185.067-.185.233 0 .158-.07.255-.215.3a1.723 1.723 0 0 0-.443.246c-.167.13-.388.178-.822.178-.473 0-.63.039-.767.191-.22.243-.342.24-.662-.01-.242-.192-.266-.194-.437-.039-.1.09-.231.132-.293.094-.062-.038-.14-.024-.174.031-.038.062-.12.068-.211.017zm28.419-37.16c.004-.112.027-.135.058-.059.027.07.024.152-.007.184-.032.031-.055-.025-.05-.126zM25.646 130.826c-.367-.32-.742-.943-.742-1.233 0-.09-.05-.18-.11-.2-.075-.025-.122-.433-.142-1.226-.016-.655-.053-1.298-.082-1.43-.09-.41.105-1.18.337-1.34a4.49 4.49 0 0 0 .431-.347c.262-.241 1.38-.8 1.6-.8.084 0 .431-.13.772-.287.341-.158.71-.287.82-.287.11 0 .2-.039.2-.086 0-.048.183-.108.406-.134.655-.077 1.619-.293 2.06-.461a1.65 1.65 0 0 1 .491-.084c.15 0 .322-.062.386-.138.063-.076.272-.137.466-.135.193.002.588-.049.877-.113.29-.063.73-.123.98-.133.25-.01.506-.068.569-.132.063-.063.297-.114.52-.114.224 0 .433-.043.465-.096.033-.053.261-.096.508-.097.247 0 .664-.066.927-.147.263-.08.702-.166.976-.192.273-.025.704-.09.956-.142.564-.118 1.378-.245 2.754-.429.579-.077 1.44-.204 1.913-.28a11.244 11.244 0 0 1 1.345-.144c.267-.002.699-.067.96-.145.262-.077.603-.136.759-.13.156.007.577-.034.937-.091.36-.057.71-.082.781-.055.07.028.217.002.325-.056.108-.058.531-.145.94-.194a37.492 37.492 0 0 0 1.352-.19 19.81 19.81 0 0 1 1.243-.152 60.129 60.129 0 0 0 3.265-.414c.305-.05.564-.05.616 0 .124.115.436.107.436-.011 0-.053.19-.096.422-.096.239 0 .439-.048.46-.112.02-.062.272-.144.558-.182 1.035-.137 2.25-.4 2.624-.568.21-.094.543-.227.739-.294a2.5 2.5 0 0 0 .62-.334l.264-.21-.17-.322c-.458-.859-.447-.847-.777-.847-.175 0-.369.062-.431.137a.413.413 0 0 1-.275.138c-.089 0-.42.072-.735.16a16.71 16.71 0 0 1-1.435.302c-.473.078-.953.186-1.066.24-.114.054-.252.07-.308.035-.056-.035-.24.008-.408.095-.194.1-.434.14-.66.11a2.795 2.795 0 0 0-.773.04c-.503.107-.846.148-1.853.223-1.76.13-2.446.133-3.443.013-1.008-.121-1.058-.119-1.202.059-.12.15-.217.172-.503.119-.198-.037-.406-.025-.472.028-.126.1-.573.204-1.123.26-.838.086-1.304.18-1.489.302-.11.072-.6.19-1.088.263-.489.073-.922.186-.962.25-.04.066-.11.098-.156.071-.045-.027-.34-.01-.656.037a50.3 50.3 0 0 1-3.11.311c-.24.012-.478.049-.532.082-.054.033-.828.09-1.719.124-.891.035-1.634.098-1.65.14-.015.042-.198.053-.406.025-.208-.028-.378-.012-.378.034s-.247.091-.55.1c-4.029.108-4.276.104-4.997-.069-1.2-.288-1.747-.45-2.231-.657-.254-.109-.52-.198-.59-.198-.07 0-.251-.103-.401-.23a4.432 4.432 0 0 0-.665-.434c-.216-.112-.47-.289-.563-.392-.093-.103-.242-.188-.33-.188-.15 0-.862-.699-.862-.845 0-.035-.118-.117-.263-.18-.261-.117-1.111-1.194-1.269-1.609-.045-.119-.128-.244-.184-.279-.055-.035-.101-.146-.101-.248 0-.103-.04-.186-.09-.186-.106 0-.675-1.09-.675-1.294a.138.138 0 0 0-.135-.14c-.085 0-.161-.153-.204-.407-.037-.224-.126-.49-.197-.592-.111-.16-.107-.211.026-.359.188-.207.51-.229.51-.035 0 .076.094.204.21.285.114.08.182.174.148.207-.098.098.741.768 1.287 1.026.67.317 1.484.456 2.785.475 1.128.016 3.577-.154 4.703-.327.368-.056.842-.12 1.052-.142a54.9 54.9 0 0 0 1.46-.192c.593-.084 1.163-.13 1.268-.103.104.028.21.015.236-.027.026-.042.403-.108.837-.146.434-.037.897-.123 1.029-.19.14-.07.32-.09.433-.047.111.042.358.02.574-.052.209-.069.667-.142 1.018-.163.352-.02.698-.086.769-.145.117-.097 1.267-.304 1.901-.343a.822.822 0 0 0 .408-.147c.116-.096.322-.118.747-.08.502.046.626.024.867-.154.154-.114.395-.215.535-.223.514-.032 1.306-.286 1.316-.422a.606.606 0 0 1 .037-.184c.015-.026.035-.156.045-.287.065-.865.552-2.812.73-2.922.156-.096.566-.792.566-.96 0-.095.053-.135.135-.103.119.045 1.2-.792 1.28-.99.038-.097-.469-.028-1.112.151-.298.084-.779.21-1.068.282l-.88.221c-.195.05-.373.071-.396.048-.038-.037-.56.098-1.805.466-.196.058-.337.135-.315.172.023.036-.158.073-.401.082-.244.01-.49.054-.546.1-.058.045-.34.107-.63.138-.29.03-.677.083-.86.117-.185.034-.416.06-.515.057a.5.5 0 0 0-.318.133c-.076.076-.275.14-.442.142-.167.002-.605.09-.973.198a7.905 7.905 0 0 1-1.244.247c-.399.036-.64.113-.794.253-.188.173-.233.182-.312.061-.08-.121-.111-.117-.224.031-.091.12-.245.167-.5.157-.403-.016-1.456.32-1.593.51-.058.08-.068.065-.032-.05.03-.092.015-.167-.034-.167-.177 0-.575.225-.577.326 0 .057-.04.042-.09-.035-.073-.116-.125-.119-.317-.016-.176.095-.355.1-.774.022-.473-.087-.566-.079-.711.064-.321.317-2.365.843-3.151.812-.224-.008-.406.02-.406.064 0 .169-.642.365-1.148.35-.29-.006-.76.06-1.047.15-.362.113-.574.134-.693.07-.117-.062-.173-.059-.173.01 0 .072-.055.073-.187.002-.144-.077-.258-.057-.497.088-.23.14-.342.162-.436.085-.092-.077-.234-.064-.53.046a3.117 3.117 0 0 1-.932.143c-.29-.004-.85.033-1.246.08-.976.118-3.136-.102-3.378-.343-.055-.056-.216-.101-.357-.101-.14 0-.31-.065-.375-.144-.065-.079-.181-.143-.257-.143-.24 0-1.751-1.34-1.751-1.553 0-.026-.15-.206-.335-.4-.184-.196-.362-.471-.396-.612-.08-.336-.32-.812-.454-.9a.283.283 0 0 0-.226-.028c-.065.024-.12.005-.12-.04 0-.047.044-.1.097-.118.062-.02.054-.143-.022-.344-.093-.247-.093-.352 0-.5.142-.229.15-.319.021-.24-.052.033-.095.035-.095.006 0-.03.172-.123.382-.208.21-.084.383-.184.383-.223 0-.27 1.241-.477 1.439-.239a.424.424 0 0 0 .284.139c.093 0 .194.064.224.143.069.18.313.187.415.013.072-.122.2-.158 1.103-.312.196-.033.331-.101.3-.151-.033-.054.139-.08.425-.065.265.014.538-.022.608-.08.157-.13 1.103-.376 1.777-.464.276-.036.502-.1.502-.141 0-.042.13-.141.287-.22.158-.079.287-.111.287-.072 0 .039.261.04.581.002.4-.047.652-.135.806-.28.186-.175.289-.199.612-.144.286.048.427.028.532-.077.079-.079.327-.17.551-.203.225-.033.624-.12.887-.193.263-.074.758-.184 1.1-.245.341-.06.673-.153.735-.205.063-.052.427-.137.81-.19.383-.054.77-.136.86-.185.09-.048.272-.087.404-.087s.266-.043.299-.096c.032-.053.18-.096.328-.096.148 0 .443-.061.656-.136.213-.075.59-.167.837-.204.316-.048.464-.119.496-.239.034-.133.111-.16.347-.122.174.029.702-.057 1.253-.204.523-.139 1.06-.246 1.195-.237.397.024.483.002.483-.13 0-.078.227-.17.597-.242 1.364-.264 2.076-.452 2.207-.582.057-.057.268-.103.47-.103.356 0 1.837-.318 2.225-.478.419-.173.605-.211 1.401-.287.455-.044.928-.143 1.052-.22.123-.077.461-.163.75-.191.29-.028.656-.12.813-.202a1.61 1.61 0 0 1 .622-.153c.263-.003.304-.024.191-.104-.11-.079-.082-.089.12-.045.166.036.35.001.495-.094.127-.083.482-.176.789-.206.306-.03.606-.093.665-.14.06-.046.232-.078.383-.07.15.01.389-.03.53-.087.14-.057.494-.113.785-.125.423-.017.57-.068.728-.248.108-.125.234-.204.28-.176.045.028.227-.007.403-.08.177-.071.376-.11.442-.086.066.024.31-.049.543-.161.356-.173.453-.186.617-.084.165.104.226.093.413-.078.212-.193.705-.337 1.606-.47.237-.034.473-.095.526-.135.052-.04.3-.102.55-.139.25-.036.638-.17.861-.297.273-.156.556-.233.863-.234a2.5 2.5 0 0 0 .796-.142c.187-.078.619-.17.96-.205.343-.035.673-.113.735-.174.062-.06.256-.168.432-.24.273-.112.332-.111.405.004.08.126.13.05.095-.141-.008-.047.146-.06.343-.027.237.038.41.014.507-.07.14-.122.373-.195 1.008-.314.158-.03.33-.088.383-.128.052-.04.274-.075.493-.077.218-.002.576-.053.794-.111.218-.059.48-.08.582-.048.127.04.187.015.187-.078 0-.158.398-.258 1.029-.258.254 0 .553-.074.729-.18.164-.1.449-.21.633-.245s.604-.128.934-.207c.33-.078.64-.117.69-.087.049.031.167.017.26-.03.393-.197.836-.299.924-.211.056.056.213.038.42-.048.21-.088.385-.107.481-.053a.368.368 0 0 0 .301.012c.608-.29.744-.342.895-.34a.36.36 0 0 1 .263.147c.076.117.102.104.152-.076.054-.196.112-.216.604-.2.38.01.621-.035.8-.153.142-.092.257-.14.257-.106 0 .034.079.02.175-.031.096-.051.361-.116.59-.144.228-.027.46-.094.514-.149.054-.054.321-.099.593-.099.273 0 .67-.061.884-.137.214-.075.52-.133.678-.129.16.004.347-.04.418-.098.07-.058.222-.081.338-.05.116.03.273.003.35-.06.083-.07.252-.091.42-.054.169.036.309.019.348-.044.038-.063.307-.098.654-.087.328.01 1.007-.074 1.529-.19.517-.115 1.12-.203 1.339-.195.22.009.658-.036.973-.099.316-.062.843-.145 1.172-.183.708-.083.859-.19.678-.48-.07-.11-.176-.202-.237-.202-.096 0-.226-.203-.226-.353 0-.07.593.044 1.387.269.368.104.841.235 1.052.29.6.159 1.12.383 1.452.624.167.122.35.222.406.222.056 0 .102.04.102.087 0 .048.192.295.426.55.234.255.519.566.632.692.114.126.27.384.346.574.076.19.203.487.283.66.51 1.116.714 2.44.512 3.319-.06.263-.132.616-.16.786-.065.396-.738 1.085-1.25 1.28-.35.132-1.793.102-2.197-.047-.789-.29-2.771-.44-3.05-.232-.059.044-.27.059-.471.033-.2-.025-.42 0-.486.055a.35.35 0 0 1-.294.047c-.095-.03-.388-.014-.65.036l-1.292.242a17.46 17.46 0 0 1-1.434.206c-.342.029-.708.106-.813.171-.196.122-1.195.287-2.391.394-.368.033-.713.095-.766.139-.052.043-.46.128-.904.189-.445.06-.888.153-.984.205-.194.103-1.158.294-1.454.287a.525.525 0 0 0-.287.075c-.055.044-.25.1-.435.126-.929.128-2.184.384-2.438.498-.158.07-.524.158-.813.194-.29.036-.677.101-.861.145-.184.044-.572.132-.86.196-.29.064-.57.148-.622.186-.053.039-.348.099-.656.133-.308.035-.652.114-.765.175-.113.062-.445.142-.739.177-.293.036-.68.133-.86.216-.18.083-.435.15-.567.149-.5-.005-.87.085-1.067.26-.147.131-.216.149-.246.063-.055-.159-.23-.151-.565.023-.15.078-.349.143-.441.143-.092 0-.167.044-.167.096 0 .053.096.097.215.098.332.003.95.325 1.26.656.155.164.315.299.355.299.091 0 .777.46.845.567.028.043.188.161.357.264.17.102.398.3.51.442.24.306.345.322.426.065.034-.105.102-.19.151-.19.05 0 .281-.09.514-.2.59-.277.865-.223.869.171.002.182.09.399.216.533.259.276.516 1.213.478 1.74-.02.268.009.378.092.361.083-.016.12.127.12.472 0 .341.053.558.172.694.094.108.249.498.343.866.094.368.217.698.274.733.217.134.254 1.22.07 1.985-.097.4-.203.89-.236 1.09-.033.2-.144.436-.247.523a.579.579 0 0 0-.185.38c0 .122-.063.245-.14.275-.077.03-.166.135-.198.236-.032.1-.114.182-.182.182-.213 0-.057.434.265.738.166.157.359.453.428.658.07.205.162.46.206.565.226.544.473 1.727.526 2.522.05.746.028.995-.13 1.482a10.43 10.43 0 0 0-.29 1.16c-.057.316-.158.617-.226.67-.069.052-.181.246-.25.43-.171.46-.252.66-.43 1.066-.084.192-.153.411-.153.486 0 .076-.108.195-.24.265-.13.07-.238.182-.238.248s-.11.249-.242.407c-.133.158-.23.325-.215.372.033.108-.56.664-.902.845-.142.075-.292.19-.334.257-.096.152-1.984 1.09-2.372 1.179-.158.036-.33.098-.383.138-.101.077-.63.153-1.721.247-.368.032-.721.1-.785.151-.063.052-.386.107-.717.124-1.12.055-2.61.223-2.866.322-.246.095-1.853.204-2.948.2-1.029-.004-1.33.02-1.483.113-.052.032-.493.053-.98.046-.486-.006-.885.02-.885.062 0 .04-.226.07-.502.063-.586-.013-2.145.15-2.397.25-.097.04-.278.015-.408-.055-.18-.097-.261-.1-.348-.013-.062.062-.317.113-.566.113-.25 0-.477.038-.505.084-.068.109-.935.194-2.533.25-.705.024-1.424.09-1.597.147-.23.076-.37.075-.517-.004-.155-.082-.238-.078-.353.017-.083.07-.414.134-.735.144-.322.01-.692.026-.824.035-.131.008-.697-.01-1.257-.042-.853-.048-1.026-.034-1.073.086-.044.117-.268.144-1.182.144-.62 0-1.278.044-1.461.097-.501.146-1.791.213-1.863.097-.09-.145-.24-.12-.24.04 0 .156-.432.261-.957.236-.184-.01-.636.06-1.004.152a8.993 8.993 0 0 1-1.483.206c-.803.036-.817.033-1.17-.276zm38.63-25.914c-.155-.096-.275.05-.2.245.058.15.07.15.186-.007.092-.126.096-.187.013-.238zm-10.037-9.507c-.032-.032-.114-.035-.183-.007-.077.03-.054.053.057.057.101.005.158-.018.126-.05zm59.035 30.615c-.066-.08-.164-.145-.218-.145-.2 0-1.152-.908-1.284-1.225a5.687 5.687 0 0 0-.354-.675c-.344-.55-.463-1.193-.39-2.114.143-1.785.81-3.371 1.902-4.53.272-.289.343-.44.343-.735 0-.482.283-.762.771-.762.44 0 .576.158.675.786.09.565.217.724.724.902.382.133 1.511.045 2.212-.173.263-.081.35-.069.507.073.154.14.224.15.37.06.099-.062.42-.136.715-.164.294-.029.62-.105.723-.17.15-.094.23-.092.391.008.132.082.235.094.296.033.051-.05.264-.07.473-.042.291.04.443.004.651-.15.391-.288.645-.327 1.38-.21.579.093.667.086.772-.057.089-.122.203-.148.465-.106.207.034.374.015.412-.047.041-.068.109-.043.191.07.12.163.139.164.304.015a.715.715 0 0 1 .414-.16.82.82 0 0 0 .423-.14c.116-.089.416-.143.807-.146a5.808 5.808 0 0 0 1-.094c.253-.058.42-.054.502.013.067.056.196.068.29.027.189-.083 1.072-.207 2.081-.294.368-.031.715-.093.77-.137a.532.532 0 0 1 .286-.08c.103.002.66-.07 1.24-.16.578-.088 1.274-.155 1.547-.147.273.007.523-.032.557-.087.036-.057.196-.075.374-.041.172.032.48.013.686-.041.206-.055.756-.121 1.222-.147.467-.026.873-.071.902-.1.029-.03.152.04.274.154.201.19.237.195.39.06.425-.372 1.364-.625 1.364-.367 0 .055.113.051.288-.01a1.09 1.09 0 0 1 .521-.042c.165.041.26.01.326-.11.079-.14.138-.15.368-.063.196.074.321.074.443 0 .133-.082.197-.066.301.074.13.174.14.174.378-.014.15-.119.474-.22.836-.262.512-.06.606-.045.721.11.125.17.138.17.227.012.116-.205.451-.217.724-.025.18.125.21.125.258-.002.03-.08.173-.189.318-.244.216-.082.285-.07.39.073.123.165.134.166.254.004.117-.158.136-.153.287.077.115.176.213.229.346.186.13-.041.186-.014.186.091 0 .083.045.15.1.15.068 0 .068-.057 0-.185-.172-.321-.111-.434.305-.564.39-.122.412-.118.601.12l.196.245.215-.214c.195-.195.306-.215 1.211-.215.65 0 1.037-.04 1.112-.115.08-.08.169-.086.293-.02.098.052.317.07.488.037.559-.104 1.07-.12 1.286-.038.124.048.235.044.268-.01.03-.05.15-.083.266-.075a1.3 1.3 0 0 0 .414-.052c.145-.048.222-.021.264.09.05.126.088.134.202.04.077-.065.205-.093.283-.063.078.03.208-.012.29-.093.11-.11.303-.14.744-.118.328.016.639.004.691-.029.053-.032.785-.05 1.626-.04 1.195.015 1.566-.01 1.692-.115.13-.11.226-.114.502-.022.362.12 1.562.086 1.782-.05.155-.096.84-.06 1.045.054.092.05.203.025.309-.07.134-.122.193-.127.31-.03.09.075.242.093.408.05.145-.038.603-.085 1.018-.105.414-.02.81-.084.882-.142.096-.08.163-.073.265.03.133.133.844.146 1.66.03.239-.033.334 0 .41.144.137.255.251.234.403-.077.087-.177.19-.253.316-.233.426.07 1.232.025 1.49-.082.206-.086.309-.087.407-.005.095.078.312.082.789.013 1.088-.157 1.632-.128 1.86.1.192.192.205.193.454.025.186-.126.46-.177 1-.187.408-.007.765.024.793.07.028.045.151.017.273-.062.156-.103.287-.12.449-.06.135.05.512.048.928-.006.632-.083.713-.075.83.085.124.168.142.168.41.01.191-.111.473-.162.87-.157.326.005.65-.042.725-.105.097-.08.296-.09.692-.03.305.045.748.05.985.008.255-.044.553-.035.73.023.213.07.368.067.543-.013.203-.092.273-.084.405.048.13.13.187.137.303.04.089-.073.48-.125 1.018-.134.481-.008.94-.039 1.018-.069.079-.03.402-.075.717-.101.316-.026.746-.07.957-.096.244-.031.458 0 .592.087.183.119.25.116.526-.022.174-.087.384-.19.467-.228.082-.039.34-.035.573.01.384.071 2.146-.09 2.717-.25.45-.124.72-.262.72-.367 0-.062-.187-.476-.416-.92-.228-.445-.446-.938-.485-1.096a1.45 1.45 0 0 0-.312-.542c-.307-.322-.23-.478.179-.361.166.047.327.124.357.17.03.047.184.15.342.232.321.165.742.56 1.1 1.034.33.438 2.568 2.675 2.91 2.91.364.249.724.607.724.72 0 .048.144.22.32.38.176.16.445.537.597.838.152.3.438.709.636.906.3.3.36.425.36.759 0 .219.063.468.14.554.084.092.148.38.158.714.018.529 0 .576-.307.838-.818.695-1.114.826-2.478 1.095-.976.193-1.567.24-1.82.147-.116-.043-.454-.038-.75.011a5.845 5.845 0 0 1-.825.082c-.158-.004-2.052-.002-4.208.005-3.296.01-5.174.001-6.217-.03a4.998 4.998 0 0 0-.631.061c-.264.04-.518.025-.633-.037-.106-.056-.22-.076-.252-.043-.05.05-1.908.092-5.675.13-.431.004-.861-.032-.956-.08-.13-.065-3.956-.165-4.572-.12-.414.031-3.534.103-3.874.09-.513-.02-.402-.024-2.008.07-1.111.065-3.572.09-4.089.04-.392-.037-2.408.088-2.869.178-.305.06-.59.065-.727.013-.215-.081-1.797-.057-2.078.032-.075.024-.587.07-1.14.102-.552.033-1.155.08-1.339.105a6.713 6.713 0 0 1-.797.039c-.254-.003-.515.038-.58.091-.116.097-4.073.329-4.158.244-.024-.025-.14.019-.26.096-.17.112-.35.124-.868.06-.359-.044-.682-.064-.717-.044-.17.098-1.094.216-2.088.268-1.258.065-1.792.134-2.034.261-.094.05-.503.108-.909.13-1.099.062-1.56.113-1.96.219-.2.052-.62.077-.933.055-.322-.022-.571 0-.571.05s-.14.09-.311.09c-.49 0-.97.061-1.096.14-.063.039-.225.044-.36.01-.14-.035-.303-.012-.383.054-.226.187-3.245.527-3.678.413a.428.428 0 0 0-.34.066c-.078.065-.204.094-.28.065-.075-.03-.186.006-.246.078a.438.438 0 0 1-.27.141l-1.08.051c-.504.023-1.042.09-1.195.149-.152.058-.772.184-1.377.279a20.21 20.21 0 0 0-1.626.315c-.29.08-.956.194-1.482.256-1.337.157-2.218.318-4.447.815l-1.602.355c-.276.06-.502.146-.502.19 0 .044-.1.08-.224.08-.122 0-.252.03-.288.066-.218.218-2.248.587-2.47.45-.048-.03-.144-.007-.214.05-.094.079-.157.069-.246-.039zm28.04-12.114a5.962 5.962 0 0 0-.716-.195c-.397-.055-1.524-.919-1.91-1.464-.206-.29-.413-.526-.462-.526-.048 0-.088-.075-.088-.167 0-.092-.125-.473-.277-.847-.245-.602-.284-.836-.336-2.05-.032-.753-.076-1.387-.098-1.409-.022-.022-.145.126-.273.33-.128.202-.304.428-.392.5-.087.072-.135.203-.108.291.11.347-1.212 1.777-2.027 2.191-.759.386-1.724.202-2.441-.466-.113-.104-.239-.19-.28-.19-.042 0-.102-.104-.134-.232a.943.943 0 0 0-.241-.397c-.1-.091-.183-.247-.183-.347 0-.1-.074-.319-.164-.487-.134-.251-.164-.573-.165-1.789v-1.482l.44-.882c.568-1.134 1.043-1.652 1.515-1.652.19 0 .396-.052.459-.115.09-.09.115-.068.115.095 0 .116-.043.21-.096.21-.053 0-.096.068-.096.15 0 .112.055.134.216.083.118-.036.236-.098.263-.136.026-.038.306-.194.621-.346.316-.152.588-.308.606-.348.018-.04.093-.072.167-.072.074 0 .188-.086.254-.191.065-.105.168-.191.228-.191s.163-.066.23-.146c.066-.08.194-.122.285-.093a.29.29 0 0 0 .284-.093c.098-.118.091-.207-.034-.471a1.916 1.916 0 0 1-.155-.689c0-.331.011-.347.132-.181.123.168.15.145.396-.34.145-.286.315-.563.378-.617.063-.053.276-.322.473-.598.197-.276.388-.502.423-.503.034 0 .227-.15.427-.334.2-.184.426-.335.502-.335.076 0 .138-.037.138-.083 0-.045.259-.195.574-.332.51-.22.574-.28.574-.522 0-.345-.35-.551-.9-.529-.475.02-3.006.403-3.5.53-.39.1-1.307.387-1.434.447-.079.038-.272.043-.43.012a1.316 1.316 0 0 0-.526.015c-.516.154-1.51.38-2.056.468-.316.051-.962.194-1.435.318a24.87 24.87 0 0 1-3.754.7c-.223.027-.406.086-.406.134 0 .047-.162.087-.359.088-.197.001-.53.048-.741.104-.366.096-.609.147-1.75.362-.278.052-.58.118-.67.145-.302.091-2.153.343-2.594.352a6.42 6.42 0 0 0-.963.12c-1.355.284-4.99-.342-6.047-1.04-.196-.13-.417-.237-.49-.237-.074 0-.189-.065-.255-.145-.066-.08-.329-.262-.583-.405-.267-.15-.533-.393-.632-.576-.094-.175-.265-.38-.381-.456-.208-.136-.495-.852-.386-.96.03-.031.3-.006.597.056s.564.089.593.06c.028-.028.117.015.198.096.099.099.23.126.395.084.137-.036.41-.087.608-.114.197-.028.383-.09.412-.136.029-.047.201-.086.383-.086s.405-.038.496-.084c.304-.154 1.12-.395 1.335-.394a1.7 1.7 0 0 0 .526-.133c1.05-.444 1.299-.527 1.553-.52.156.004.3-.04.319-.1.02-.06.116-.108.213-.108.098 0 .201-.037.23-.083.028-.045.234-.107.46-.136.62-.082 1.336-.27 1.702-.45.08-.04.296-.103.478-.142.183-.04.388-.116.455-.171.085-.069.155-.069.223-.001s.298.013.737-.174c.351-.15.747-.273.88-.275a.918.918 0 0 0 .43-.132c.104-.071.422-.16.706-.197.285-.036.637-.129.784-.205.147-.076.46-.138.697-.138.236 0 .452-.036.48-.08.027-.045.384-.156.794-.247.41-.092.857-.209.993-.26a.963.963 0 0 1 .485-.034c.157.04.28.009.362-.09.068-.082.245-.15.393-.15.149 0 .295-.04.326-.09.03-.05.259-.116.507-.149.249-.032.567-.12.706-.196.14-.076.39-.138.555-.138.165 0 .433-.069.595-.153.162-.083.403-.131.535-.106.132.025.525-.035.872-.135.347-.099.726-.18.84-.18a.578.578 0 0 0 .355-.147c.096-.095.23-.125.39-.084.135.033.298.018.363-.035.066-.053.528-.149 1.027-.213.5-.064.995-.149 1.1-.188.554-.208.968-.31 1.461-.358.301-.03.698-.129.882-.22.184-.09.636-.2 1.004-.24.852-.095.888-.1 1.305-.184.22-.044.37-.032.412.034.087.142.506.133.554-.013.023-.068.235-.123.51-.13a3.494 3.494 0 0 0 1.485-.364c.187-.094.423-.137.57-.104.138.03.548.003.911-.06.364-.064.769-.125.9-.137.132-.011.304-.045.383-.075.238-.09 1.614-.204 2.056-.17.428.033 1.413-.084 1.532-.183.095-.079.15-.064.219.06.085.153.13.147.617-.083a3.7 3.7 0 0 1 1.23-.31c.388-.034.802-.108.92-.166.157-.077.28-.075.458.006.182.084.357.084.694.005a3.37 3.37 0 0 1 .738-.094c.157.007.695-.047 1.195-.12.5-.072 1.074-.11 1.276-.085.211.027.467-.006.603-.079.188-.1.341-.103.774-.013.499.105.553.099.72-.08.102-.11.25-.173.34-.144.088.028.417.009.731-.042.314-.051.607-.056.652-.012.044.044.253.021.463-.051.328-.113 1.999-.253 2.762-.232.131.004.481-.041.778-.1.371-.072.593-.075.714-.007.128.072.252.059.459-.048.206-.107.462-.134.932-.1.357.025.676.02.708-.013.032-.032.26-.066.505-.076.245-.01.769-.035 1.164-.056.394-.022.787-.005.874.039.097.048.275.019.465-.076.226-.113.47-.14.92-.104.336.027.633.015.659-.027.025-.041.832-.072 1.792-.067 1.646.007 2.567-.043 3.294-.18.203-.038.316-.021.316.047 0 .059.086.107.191.107.105 0 .192-.042.192-.093 0-.103 1.691-.052 2.6.077.299.043.61.04.69-.004.08-.045.265-.06.412-.032.146.027 1.318.074 2.603.104 1.286.03 2.534.096 2.774.145.56.116 1.19.168 2.748.224 1.024.038 1.281.02 1.375-.092.17-.205.688-.168 1.275.091.506.224.523.244.638.759.108.483.1.566-.087.964-.113.24-.205.501-.205.58 0 .079-.129.267-.287.418-.157.15-.287.36-.287.467 0 .264-.218.424-.53.389-.197-.022-.268.017-.29.157-.08.513-.199.7-.853 1.34-.567.557-.784.708-1.088.756-.232.037-.392.022-.412-.04-.021-.063-.172-.04-.414.063-.65.275-1.668.42-2.964.424a27.05 27.05 0 0 0-2.247.108c-.552.057-1.456.123-2.009.146-1.89.078-2.152.097-2.322.17a.909.909 0 0 1-.43.027c-.246-.044-1.404.03-2.46.156-.263.032-1.231.076-2.152.099-1.698.042-2.288.084-3.49.251-.643.09-4.828.225-6.217.202a5.98 5.98 0 0 0-1.1.081c-.393.085-1.972.198-3.395.243-.315.01-.832.05-1.147.09-.633.077-.73.082-1.148.055-.36-.024-3.068.141-4.59.28-1.485.136-4.197.37-5.595.483-1.326.108-2.965.383-2.965.498 0 .046-.049.054-.108.017-.074-.046-.081-.02-.024.083.108.192.77.642.944.642.073 0 .16.043.192.096.033.052.121.095.197.095.076 0 .224.086.33.191.104.106.255.192.334.192.079 0 .143.042.143.093s.125.158.278.237c.302.156.367.217.87.812.184.218.432.509.55.645.164.19.215.368.215.753 0 .676-.063.819-.332.751-.174-.043-.23-.006-.277.183-.033.13-.321.489-.641.796-.519.498-.575.59-.525.844.032.156.164.438.295.627.13.188.237.439.237.557 0 .118.1.309.22.425.446.424.758.935.988 1.615.13.383.363.895.518 1.137.155.242.282.528.282.635 0 .107.066.38.146.608.202.573.048 2.019-.302 2.829-.072.166-.13.347-.13.403 0 .161-1.624 1.734-1.79 1.734-.045 0-.152.076-.238.168-.388.414-.723.67-1.033.788-.184.07-.4.18-.478.244a2.33 2.33 0 0 1-1.207.464c-.242.019-.468.076-.502.129-.172.27-2.979.348-3.722.105zm2.992-17.197c.123-.239.19-.276.41-.232.42.084.638-.225.56-.793-.035-.249-.102-.492-.151-.541-.055-.055-.506-.045-1.17.026-1.224.13-1.417.172-1.417.306 0 .18.595.834.86.944.145.06.356.214.467.342.11.128.222.232.248.232.025 0 .112-.128.193-.284zM29.094 109.553c.07-.028.152-.024.184.007.031.032-.025.054-.126.05-.111-.005-.134-.027-.058-.058zm32.353-36.647a.628.628 0 0 1-.335-.254 1.596 1.596 0 0 0-.153-.237c-.24-.24-.67-.88-.67-.998 0-.082-.037-.15-.084-.15-.046 0-.106-.096-.133-.214a5.718 5.718 0 0 0-.15-.503c-.348-.986-.603-2.264-.71-3.547-.147-1.783-.14-4.789.015-5.49.384-1.74.67-2.868.783-3.081.092-.175.262-.796.347-1.27.029-.159.108-.352.176-.431.069-.079.155-.273.192-.43.038-.158.213-.53.39-.826.178-.296.323-.59.323-.655 0-.063.08-.23.18-.37.099-.14.251-.426.338-.636.086-.21.21-.426.274-.478.338-.278.998-1.393.947-1.6-.01-.039.09-.14.222-.226.13-.086.238-.23.238-.321 0-.09.172-.41.383-.71.21-.301.382-.584.382-.63 0-.046.172-.247.383-.446.21-.2.382-.44.382-.533 0-.094.13-.294.287-.445.158-.15.287-.315.287-.364 0-.049.215-.343.477-.653s.524-.706.581-.88c.058-.175.159-.317.225-.317.164 0 .726-.628.726-.81 0-.083.083-.147.19-.147.128 0 .192-.063.192-.19 0-.106.043-.192.096-.192a.094.094 0 0 0 .095-.092c0-.137.739-.864.881-.868.208-.005.54-.34.609-.61a.799.799 0 0 1 .315-.413c.324-.2.602-.49.76-.79.068-.132.284-.315.478-.408.194-.092.46-.317.592-.499.131-.182.292-.333.358-.334.066-.002.12-.064.12-.14 0-.075.075-.161.167-.19.092-.03.374-.238.626-.461.252-.224.607-.533.789-.686.182-.154.33-.332.33-.396 0-.065.098-.142.217-.172.118-.03.373-.196.564-.369a4.6 4.6 0 0 1 .526-.418.78.78 0 0 0 .265-.298c.049-.107.232-.272.406-.366.175-.094.318-.207.318-.252 0-.044.063-.08.14-.08.076 0 .238-.106.358-.235s.357-.258.526-.287c.329-.057.657-.32.935-.75a1.43 1.43 0 0 1 .47-.42c.163-.084.4-.254.527-.38a1.17 1.17 0 0 1 .478-.28c.362-.079.678-.248.682-.366.004-.111.627-.582 1.096-.828 1.062-.558 1.299-.693 1.345-.768.03-.047.156-.086.282-.086.137 0 .392-.154.632-.382.221-.21.423-.363.448-.338.025.025.22-.093.435-.262.214-.17.445-.296.514-.28.068.015.15-.038.181-.12.031-.081.138-.148.238-.148.1 0 .18-.064.18-.143 0-.08.08-.144.179-.144.17 0 .866-.416.971-.58.074-.115.552-.28.81-.28.124 0 .355-.13.513-.287.158-.158.374-.287.481-.287.262 0 .867-.308.87-.442.001-.06.177-.136.391-.17a1.12 1.12 0 0 0 .617-.308c.125-.135.27-.22.322-.187.051.032.305-.067.564-.22.258-.152.574-.31.7-.349.126-.04.26-.12.298-.178.037-.059.102-.113.143-.12.244-.041.506-.164.506-.237 0-.047.105-.085.234-.085a.5.5 0 0 0 .358-.167c.118-.158.49-.314 1.918-.802.33-.113.684-.24.79-.285a.865.865 0 0 1 .334-.067c.32.028.478-.025.478-.16 0-.08.072-.144.16-.144.087 0 .348-.112.58-.247.232-.136.73-.332 1.108-.435a8.463 8.463 0 0 0 1.019-.34c.182-.086.502-.17.71-.187.341-.029.476-.114.56-.352.027-.075 1.083-.409 1.633-.515.149-.029.293-.11.32-.18.031-.083.14-.109.314-.074.187.037.38-.02.659-.195.216-.137.502-.249.635-.249.134 0 .317-.038.409-.085.091-.047.403-.14.692-.206.532-.122.78-.228 1.067-.457.087-.07.302-.112.478-.095.178.017.362-.023.415-.09.053-.067.352-.132.67-.147.323-.014.678-.093.813-.18.131-.084.433-.181.67-.214a5 5 0 0 0 .812-.198c.21-.075.56-.138.776-.14.251-.004.514-.087.73-.234.318-.216.735-.328 1.477-.397.178-.016.44-.055.583-.085.143-.03.488-.074.767-.097.278-.022.687-.128.908-.235.261-.126.67-.21 1.167-.238a7.634 7.634 0 0 0 1.313-.197c.526-.147.822-.19 1.986-.296.29-.026.655-.068.813-.094.158-.026.567-.08.909-.12.342-.039.677-.106.745-.15a.219.219 0 0 1 .24.017c.157.13.659.172.824.07.155-.096.556-.153 1.108-.157.21-.002.583-.047.829-.1.323-.071.503-.067.654.013.175.094.244.078.432-.098.206-.194.295-.207 1.188-.168.689.03.992.009 1.062-.074.121-.147.65-.231.69-.11.045.135 1.214.19 1.366.063.071-.059.271-.099.445-.09.173.01.337.01.363.001.12-.042 3.156-.045 3.156-.003 0 .026.269.051.598.056.329.004.748.014.932.022.58.025.71.011.767-.081.033-.054.295-.029.652.062.608.154 1.245.112.967-.064-.076-.048-.104-.088-.063-.09.041 0 .177.066.302.148.125.082.248.114.274.072.083-.134 3.1-.094 3.236.042.158.158.46.152.648-.013.119-.105.282-.115.767-.047.385.054.65.052.707-.005.058-.058.226-.023.463.098.33.168.437.178.942.087.396-.072.626-.073.755-.005.234.126.818.129 1.244.007.185-.053.372-.058.43-.011.057.045.24.066.409.047.168-.02.331.005.362.055.03.05.12.065.2.034.08-.03.401-.002.713.065.389.082.606.09.689.023.081-.066.31-.067.695-.003.315.051.681.09.813.087l.562-.019c.178-.006.358.044.4.112.057.093.13.098.303.02.3-.137.912-.102 1.27.073.213.104.503.127 1.143.09.544-.031.978-.007 1.19.065.182.063.442.112.577.11.292-.005 1.7.16 2.636.31.368.059.97.136 1.339.172.368.036.804.137.969.226.23.124.371.14.614.07.21-.06.355-.056.437.012.067.056.21.074.316.04a.516.516 0 0 1 .356.029c.096.054.278.056.454.006.238-.068.4-.031.868.198.565.276 1.485 1.053 1.485 1.254 0 .146.488.722 1.557 1.838.748.78.963 1.07 1.074 1.443.077.257.179.515.227.574.155.19.585 1.329.585 1.55 0 .118.048.23.107.25.29.098.307 1.687.026 2.547-.355 1.082-.705 1.416-1.842 1.753-.42.124-1.253-.175-1.787-.642-.707-.618-.76-.687-.893-1.154-.146-.514-.409-.863-.776-1.031-.244-.112-1.153-.643-1.61-.94a16.2 16.2 0 0 0-1.02-.554c-.42-.214-.937-.493-1.147-.622-.21-.129-.459-.234-.552-.235-.093-.001-.34-.11-.548-.241-.208-.131-.423-.239-.476-.239a.097.097 0 0 1-.098-.096c0-.052-.06-.095-.132-.095-.072 0-.185-.065-.25-.144a.51.51 0 0 0-.35-.143c-.126 0-.518-.145-.872-.323-.354-.177-.88-.373-1.168-.434-.289-.061-.612-.168-.717-.237-.106-.068-.48-.153-.832-.189-.352-.036-.825-.134-1.052-.22a3.555 3.555 0 0 0-.795-.185c-.766-.061-1.534-.188-1.674-.276-.214-.134-4.184-.192-6.264-.091-.737.035-2.092.072-3.013.08-.92.009-1.738.058-1.817.109-.177.113-1.71.311-1.745.224-.013-.034-.476-.021-1.029.029-.552.05-1.262.104-1.578.119-.7.034-.703.035-.526.152.111.073.078.093-.143.088-1.267-.029-3.439.109-3.837.244a3.51 3.51 0 0 1-.987.146c-.948-.016-2.763.073-2.872.14-.15.093-1.139.226-2.202.297-.5.033-.952.094-1.005.135-.094.074-1.101.187-1.976.222-.245.01-.478.05-.519.09-.04.04-.212.047-.38.016-.17-.032-.392-.013-.494.041-.102.055-.462.12-.8.145-.336.024-.742.112-.9.195-.157.083-.359.151-.448.152-.089 0-.19.047-.226.104-.035.057-.169.077-.301.043-.133-.033-.299-.01-.376.055-.1.083-.168.086-.243.011-.075-.075-.2-.052-.45.082-.218.118-.44.166-.6.131-.14-.03-.282-.01-.317.047-.034.055-.207.1-.383.1-.177 0-.336.039-.353.085-.018.047-.484.157-1.036.245-1.596.255-1.625.262-1.68.35-.03.048-.156.086-.28.086-.126 0-.255.043-.288.096-.032.052-.188.095-.346.095-.159 0-.381.05-.495.111-.114.06-.337.126-.496.144a4.559 4.559 0 0 0-.719.176c-.237.078-.57.158-.74.178-.17.02-.372.088-.45.151a.543.543 0 0 1-.36.09.804.804 0 0 0-.41.078c-.196.107-.919.32-1.005.297-.026-.008-.153.043-.282.112-.213.114-.903.33-1.391.434a8.464 8.464 0 0 0-.813.29c-.342.136-.88.306-1.196.379a9.103 9.103 0 0 0-.956.276c-.21.08-.465.147-.566.15-.245.004-.917.306-.917.41 0 .046-.036.06-.08.033-.044-.027-.378.058-.741.19a77.76 77.76 0 0 1-1.115.393c-.25.085-.454.19-.454.235 0 .045-.07.081-.157.081-.334 0-1.926.617-2.893 1.12-.558.292-1.144.564-1.302.605-.351.092-.94.314-1.004.38a1.714 1.714 0 0 1-.335.158c-.82.318-1.406.594-1.562.735-.096.087-.225.158-.286.158-.062 0-.112.04-.112.088 0 .049-.125.116-.277.15-.152.032-.476.187-.72.341-.245.155-.483.282-.53.282-.12 0-.715.32-.753.406-.017.04-.105.072-.194.072-.089 0-.257.067-.374.15-.117.08-.214.113-.216.07-.002-.042-.047-.001-.1.091-.054.092-.147.167-.206.167-.06 0-.198.079-.306.175-.109.096-.391.232-.628.303-.237.07-.474.175-.526.232-.174.187-.799.63-.89.63-.213 0-.991.41-1.359.718-.22.183-.436.333-.48.333-.046 0-.199.108-.34.24-.142.13-.317.239-.388.239-.071 0-.13.035-.13.079s-.269.24-.597.436c-.88.526-.938.565-1.18.8-.122.118-.269.215-.326.215-.057 0-.199.088-.314.196-.116.107-.478.345-.804.527-.326.182-.67.43-.766.55-.095.12-.24.245-.324.277-.316.12-1.226.75-1.723 1.193-.284.254-.764.628-1.067.831-.302.204-.55.408-.55.454 0 .046-.04.084-.09.084-.05 0-.427.32-.837.713-1.13 1.081-1.757 1.647-2.2 1.99-.221.17-.454.433-.518.583a.737.737 0 0 1-.374.364.714.714 0 0 0-.365.324c-.058.129-.17.234-.247.234-.078 0-.215.155-.304.344-.09.189-.221.365-.292.392-.07.028-.128.085-.128.128s-.199.286-.441.539a9.859 9.859 0 0 0-.734.868c-.16.224-.326.407-.366.407-.041 0-.13.106-.2.236-.225.426-1.237 1.846-1.472 2.067-.126.12-.23.274-.23.345 0 .07-.086.201-.191.291-.106.09-.192.198-.192.24 0 .076-.756 1.228-.864 1.316-.086.07-.344.575-.478.932-.063.171-.152.311-.197.311-.044 0-.193.237-.33.526-.137.29-.288.526-.337.526-.049 0-.089.067-.089.149 0 .081-.108.307-.24.5-.13.194-.238.425-.238.514 0 .09-.055.22-.121.289-.119.124-.293.465-.771 1.513-.572 1.25-.882 2.174-1.013 3.012a13.82 13.82 0 0 1-.184.957c-.121.483-.21 2.136-.249 4.59-.029 1.87-.102 2.353-.386 2.557-.116.084-.487.08-.806-.01z" style="fill:#000;stroke-width:.095637"/>
</svg>
