<svg xmlns="http://www.w3.org/2000/svg" xml:space="preserve" width="210mm" height="297mm" viewBox="0 0 210 297">
  <path d="M91.308 278.237c-.476-.035-.896-.044-.935-.02-.038.024-.07-.004-.07-.062 0-.076-.228-.087-.843-.038-1.491.12-6.31.02-6.642-.138-.19-.09-.282-.09-.454.002-.268.144-.81.27-.81.19 0-.034-.4-.067-.89-.075-.488-.007-1.01-.06-1.158-.117-.148-.057-.788-.126-1.423-.153-.965-.041-1.201-.025-1.447.102-.234.121-.35.132-.573.055-.153-.054-.491-.098-.75-.098-.26 0-.88-.055-1.377-.124-1.08-.147-2.154-.14-2.206.016-.051.155-.203.134-.203-.028 0-.106-.12-.137-.524-.139-.288 0-.893-.042-1.344-.092a38.925 38.925 0 0 0-1.823-.144c-.55-.03-1.104-.103-1.23-.164-.15-.072-.703-.107-1.619-.1-.764.004-1.39-.027-1.39-.07 0-.042-.05-.046-.112-.007-.176.109-.412.13-1.432.127-.526-.002-.976-.044-1.007-.093-.03-.05-.259-.089-.507-.087a21.47 21.47 0 0 1-1.18-.043c-.646-.041-.733-.068-.758-.232-.038-.24-.2-.244-.2-.004 0 .1-.04.182-.09.182-.05 0-.091-.035-.091-.078 0-.08-.99-.203-1.949-.242-.458-.019-.542.003-.58.149-.025.094-.085.17-.135.17s-.068-.058-.04-.13c.077-.2-.18-.374-.349-.235-.138.115-.636.053-.56-.07.045-.074-.388-.102-2.343-.153-1.009-.026-1.39-.068-1.503-.167-.098-.085-.475-.153-1.06-.192-.5-.034-.93-.096-.957-.139-.064-.1-1.317-.295-1.485-.23-.07.026-.33-.042-.576-.151-.428-.19-.59-.225-1.15-.252a.682.682 0 0 1-.391-.16c-.104-.103-.25-.135-.485-.104a.893.893 0 0 1-.61-.125c-.44-.269-.713-.366-.894-.318-.094.024-.353-.054-.577-.173-.225-.119-.468-.193-.541-.165-.073.028-.189.005-.257-.052-.068-.056-.283-.112-.477-.124-.23-.014-.376-.075-.417-.174-.04-.096-.128-.135-.24-.106-.098.026-.205.002-.239-.053-.033-.054-.123-.099-.199-.099-.076 0-.202-.064-.28-.142-.078-.078-.203-.118-.278-.09-.075.03-.192-.02-.259-.108-.08-.105-.123-.12-.125-.042-.002.075-.12.03-.318-.122-.173-.132-.355-.216-.403-.186-.048.03-.142 0-.209-.066s-.326-.176-.577-.245c-.25-.07-.51-.2-.575-.291-.065-.091-.194-.166-.287-.166-.092 0-.264-.102-.382-.226-.118-.125-.311-.227-.43-.228-.304-.002-1.137-.298-1.224-.435a.26.26 0 0 0-.192-.114c-.065 0-.246-.12-.4-.269a3.75 3.75 0 0 0-.743-.503c-.254-.128-.461-.27-.461-.316 0-.045-.121-.109-.27-.141-.148-.033-.393-.2-.544-.372-.15-.172-.31-.313-.354-.313-.044 0-.153-.08-.243-.18-.175-.193-.912-.58-1.106-.58-.065 0-.096-.036-.068-.081.028-.045-.035-.105-.14-.133-.106-.027-.192-.11-.192-.184s-.081-.156-.181-.182c-.1-.026-.159-.084-.131-.128.027-.045.008-.081-.044-.081-.051 0-.228-.123-.393-.272-.548-.498-.617-.549-.752-.549-.073 0-.177-.082-.23-.182-.054-.1-.179-.182-.277-.182-.099 0-.18-.038-.18-.084 0-.045-.121-.198-.27-.338-.149-.14-.295-.369-.325-.506-.035-.16-.219-.371-.504-.58-.246-.18-.526-.428-.621-.55-.096-.121-.22-.22-.275-.22a.101.101 0 0 1-.1-.102c0-.055-.103-.181-.229-.28-.125-.098-.227-.234-.227-.302 0-.068-.095-.24-.21-.38-.116-.143-.332-.514-.48-.827-.147-.313-.316-.569-.374-.57-.059 0-.134-.124-.167-.274-.033-.15-.116-.304-.185-.343-.07-.038-.224-.255-.345-.482-.336-.633-.462-.843-.587-.978a.503.503 0 0 1-.113-.295c0-.093-.041-.196-.092-.227-.05-.03-.09-.133-.09-.228s-.058-.205-.127-.245c-.07-.04-.194-.337-.276-.658-.082-.322-.226-.712-.321-.866a2.224 2.224 0 0 1-.238-.646c-.082-.456-.207-.705-.32-.635-.047.03-.086-.057-.086-.192 0-.241-.067-.544-.32-1.451a7.367 7.367 0 0 1-.183-.955c-.03-.275-.088-.541-.127-.593-.039-.051-.123-.462-.187-.913-.064-.452-.146-.862-.182-.912-.036-.05-.117-.399-.18-.775l-.193-1.139c-.043-.25-.06-.579-.038-.73.056-.385-.044-.837-.148-.672-.063.1-.08.093-.081-.034-.001-.087.044-.16.1-.16.063 0 .079-.078.042-.204-.197-.675-.304-4.787-.19-7.27.03-.626.068-1.549.085-2.05.045-1.284.2-2.919.415-4.375.052-.351.12-.884.15-1.185.03-.3.09-.616.136-.7.044-.085.08-.308.08-.496 0-.303.102-.826.36-1.857.045-.176.127-.729.182-1.229.056-.5.141-.949.19-.998.05-.049.09-.337.09-.64s.077-.798.17-1.098c.093-.301.22-.896.28-1.322.062-.426.146-.84.187-.92.04-.079.122-.469.18-.865a7.92 7.92 0 0 1 .25-1.132c.078-.225.2-.758.27-1.185.296-1.807.419-2.381.615-2.877.161-.405.311-1.073.377-1.678.025-.225.085-.448.134-.497.048-.048.088-.247.088-.44 0-.194.046-.438.1-.541.09-.167.145-.43.313-1.503.073-.463.475-2.303.634-2.9.08-.3.166-.65.192-.775.054-.268.15-.606.349-1.23.08-.25.145-.587.144-.746 0-.16.047-.406.105-.547.058-.141.136-.462.174-.712.038-.251.094-.6.125-.775a5.36 5.36 0 0 0 .065-.661c.004-.188.042-.342.082-.342.041 0 .096-.072.123-.16.084-.276.443-2.321.516-2.939.122-1.032.258-2.033.353-2.598.05-.3.136-1.018.19-1.595.11-1.17.12-1.244.266-2.142.177-1.09.198-1.258.229-1.868.035-.698.21-2.004.33-2.472.047-.18.085-.707.085-1.168 0-.461.046-.924.102-1.028.11-.206.226-.924.357-2.214.046-.45.128-1.005.182-1.23.054-.226.117-.677.14-1.003.022-.326.1-.859.17-1.185.073-.326.152-.859.178-1.185.026-.325.113-.777.195-1.002a3.66 3.66 0 0 0 .177-.82c.032-.471.468-2.276.653-2.703.069-.158.125-.4.125-.537s.038-.397.085-.578c.047-.181.152-.617.235-.968.083-.35.185-.72.227-.82.041-.1.101-.285.133-.41.163-.648.333-1.22.39-1.311a.8.8 0 0 0 .086-.193l.127-.502c.058-.225.117-.492.132-.592.014-.1.111-.367.215-.592.104-.226.19-.522.19-.659.002-.136.108-.485.236-.774l.312-.71c.044-.1.108-.346.144-.546l.095-.547c.082-.47.303-1.212.435-1.459.081-.15.147-.33.147-.4 0-.071.105-.35.233-.619.127-.269.203-.536.168-.592-.037-.06-.023-.078.035-.042.063.039.136-.13.201-.465.057-.288.142-.607.19-.707.048-.1.122-.379.166-.619.044-.24.149-.512.233-.605.084-.094.188-.416.23-.717.043-.3.122-.628.175-.728.138-.257.39-1.022.428-1.293.069-.505.155-.828.231-.875.045-.028.08-.17.08-.316 0-.145.08-.42.176-.61.096-.189.203-.65.239-1.024.035-.374.1-.743.142-.82.077-.138.36-1.377.375-1.645a.287.287 0 0 1 .107-.2c.07-.046.068-.146-.009-.349-.111-.296-.074-.506.128-.71.065-.067.12-.251.122-.41.003-.27.123-.861.354-1.749.052-.2.095-.539.097-.752 0-.213.035-.387.075-.387.131 0 .322-1.382.366-2.643.024-.677.039-2.106.034-3.176-.009-1.785-.025-1.971-.196-2.26-.232-.395-.347-1.252-.192-1.439.117-.14.37-.098.37.061 0 .052.068.144.151.204.098.072.154.252.16.512.007.314.046.411.184.45.182.05.358.315.789 1.19.138.28.31.57.384.644.147.146.611 1.087.611 1.237 0 .051.06.144.134.205.162.134.595 1.057.595 1.267 0 .082.078.198.174.258.096.06.225.264.288.455.063.19.21.518.328.728.117.21.213.441.213.513 0 .176.466 1.193.564 1.233.126.05.318.487.388.88.035.2.122.454.192.564.148.23.292.75.424 1.532.223 1.32.068 3.523-.344 4.895a20.698 20.698 0 0 0-.37 1.44c-.077.376-.182.733-.231.792-.143.173-.44 1.229-.443 1.578-.002.175-.085.606-.185.957-.1.351-.204.782-.232.957a3.05 3.05 0 0 1-.123.501 8.962 8.962 0 0 0-.464 1.778c-.059.376-.175.765-.258.866-.268.323-.444.717-.55 1.23-.132.645-.381 1.475-.482 1.607-.043.057-.14.343-.217.636-.076.292-.193.595-.26.671-.068.077-.153.283-.19.459a3.27 3.27 0 0 1-.257.683c-.104.2-.181.395-.171.431.01.037-.06.283-.156.547-.27.747-.828 2.579-.828 2.722 0 .07-.083.251-.182.402-.1.15-.182.345-.182.433 0 .088-.037.16-.08.16-.045 0-.11.092-.144.204-.1.326-.592 2.247-.734 2.86a9.05 9.05 0 0 1-.26.912 14 14 0 0 0-.282.9l-.316 1.139c-.09.326-.216.839-.279 1.14-.362 1.733-.444 2.06-.541 2.178-.06.072-.144.473-.187.891-.043.419-.122.863-.175.988-.053.124-.137.513-.187.864a55.47 55.47 0 0 1-.23 1.459c-.076.45-.14.994-.14 1.207 0 .213-.038.388-.084.388-.047 0-.08.215-.074.478a2.96 2.96 0 0 1-.14.889c-.084.227-.193.96-.245 1.64a30.835 30.835 0 0 1-.18 1.778c-.08.51-.15 1.005-.23 1.629-.018.143-.08.758-.135 1.367-.056.608-.143 1.454-.192 1.88-.049.426-.13 1.343-.181 2.038-.05.694-.133 1.338-.182 1.43-.049.091-.089.377-.089.635s-.06.968-.135 1.579c-.307 2.51-.518 4.044-.6 4.355a2.837 2.837 0 0 0-.085.584c0 .266-.249 1.618-.553 3.006-.099.451-.179.926-.178 1.056 0 .13-.025.262-.057.294-.124.124-.391 1.034-.394 1.339 0 .175-.068.524-.148.775-.27.846-.311 1.014-.311 1.26a1.1 1.1 0 0 1-.078.404c-.185.374-.378 1.122-.378 1.468 0 .205-.102.678-.228 1.052-.125.373-.227.824-.227 1.002 0 .177-.103.724-.227 1.214-.125.49-.228.98-.228 1.089 0 .108-.047.213-.104.232-.056.018-.138.237-.182.486a46.876 46.876 0 0 1-.543 2.685 9.835 9.835 0 0 0-.164 1.14c-.035.401-.09.77-.12.82-.03.05-.08.254-.111.455-.031.2-.134.61-.228.911-.095.301-.22.875-.278 1.277-.059.4-.128.81-.155.911-.067.252-.188.965-.3 1.777-.053.376-.137.78-.188.897-.051.118-.118.528-.15.912-.03.384-.089.74-.13.793-.04.052-.101.36-.135.683-.034.324-.094.673-.133.777-.038.103-.048.538-.021.967.033.53.015.8-.055.843-.066.04-.103.395-.103.976 0 .501-.043.991-.094 1.088-.052.096-.117.842-.145 1.657-.028.815-.079 1.605-.113 1.755-.093.406-.048 3.697.064 4.694l.195 1.732c.054.476.135.948.18 1.048.044.1.102.421.128.713.025.292.085.579.133.638.048.06.116.251.151.427.036.175.135.442.22.592.085.15.227.467.317.704.09.237.195.422.236.41.04-.01.403.318.805.732.403.413.76.752.793.752.034 0 .237.143.45.319.215.175.43.319.48.319.05 0 .292.184.538.41l.63.573c.1.09.303.224.452.297.15.073.343.204.432.29.088.087.349.206.58.264.23.058.442.165.47.237.037.096.134.116.357.074.185-.034.306-.02.306.036 0 .051.113.152.25.224.139.072.333.209.434.303.272.257.664.457 1.297.663.313.101.698.263.855.359.158.096.34.154.405.13.065-.026.16.034.212.131.06.11.235.2.47.237.224.036.457.15.583.286.161.174.3.226.609.226.22 0 .517.062.66.137.144.075.38.136.526.136.145 0 .335.039.422.086a2.1 2.1 0 0 0 .5.141c.189.03.342.094.342.142 0 .048.083.087.184.087.1 0 .357.078.57.174.212.096.571.2.798.23.227.031.535.12.684.198.255.134.666.226 1.73.389.25.038.588.14.751.225.188.098.473.15.778.14.265-.008.686.03.934.087.25.057.648.127.886.156.238.029.433.095.433.148 0 .058.095.071.242.035.143-.036.267-.02.304.04.035.056.683.16 1.467.236.773.074 1.651.172 1.952.218.3.045 1.06.125 1.686.179 2.296.195 2.946.27 2.999.346.03.043.239.08.465.08 1.044.009 3.898.137 4.967.223.652.053 1.677.112 2.279.132 1.258.04 2.51.114 3.242.19.279.028 1.53.067 2.78.087 1.25.02 2.58.055 2.956.078.608.037 2.604.055 3.463.031.176-.005.676.019 1.112.053.466.036.814.026.845-.024.032-.053.161-.048.332.012.168.058.467.07.75.03.259-.038 1.004-.077 1.655-.088.652-.01 1.564-.053 2.028-.093.583-.051 1.005-.04 1.373.039.388.082.625.086.879.016.268-.074.419-.066.654.032.263.11.34.11.554-.001.17-.088.392-.11.707-.072.252.031.52.05.596.043.075-.007 1.285-.034 2.689-.06a226.75 226.75 0 0 0 2.78-.061c.125-.007.392-.007.592.002.2.008.66-.005 1.021-.03.361-.024.68-.007.707.036.027.045.237.025.469-.045a1.43 1.43 0 0 1 .828-.035c.351.079.452.066.702-.088.432-.267.983-.331 1.335-.155.161.08.327.124.37.097.079-.048.202-.058 2.726-.222.777-.05 1.65-.116 1.938-.146.293-.03.65-.01.807.045.211.073.47.066 1.025-.03.414-.073 1.335-.13 2.084-.13 1.306 0 1.756-.048 1.674-.182-.023-.036.561-.06 1.297-.052.736.007 1.44-.025 1.564-.07.124-.047.67-.102 1.214-.123.544-.021 1.03-.064 1.08-.095.05-.031.564-.052 1.142-.048.579.005 1.099-.02 1.156-.056.057-.037.608-.067 1.224-.068.759 0 1.14-.037 1.186-.11a.23.23 0 0 1 .202-.093c.074.007.441-.041.816-.109a8.865 8.865 0 0 1 1.276-.125c.327-.001.645-.041.706-.088.06-.047.374-.094.698-.105.323-.01.65-.071.726-.135.107-.088.186-.09.332-.012.139.074.428.078 1.032.014.46-.049.93-.09 1.043-.091.66-.01.914-.045 1.134-.16.139-.071.511-.127.849-.127.562 0 1.14-.176 1.14-.347 0-.038.35-.074.777-.08.428-.007.833-.057.9-.112.117-.098.688-.222 1.512-.328.226-.029.698-.09 1.048-.138.351-.046.876-.112 1.165-.146.29-.033.549-.096.575-.139.027-.042.187-.077.357-.077.17 0 .333-.041.364-.092.031-.05.167-.091.302-.092.135 0 .446-.061.691-.136.246-.074.84-.173 1.322-.22.533-.051 1.113-.175 1.481-.315a5.574 5.574 0 0 1 1.094-.286c.268-.031.652-.113.853-.182.2-.069.6-.167.889-.219.288-.05.603-.135.7-.187a.924.924 0 0 1 .366-.094c.105 0 .343-.1.53-.223.197-.13.552-.25.842-.286.275-.034.562-.11.638-.17.188-.15 1.068-.394 1.64-.455.426-.046 1.293-.25 1.593-.375.165-.07.388-.109.496-.088.11.021.34-.06.525-.185.18-.123.46-.224.62-.224.161 0 .412-.057.558-.126.792-.38.939-.43 2.315-.794.426-.113 1.026-.317 1.848-.63.264-.1.61-.181.769-.181.159 0 .316-.044.349-.097.107-.173.638-.34 1.709-.541.24-.045.658-.186.929-.315.27-.128.587-.232.702-.233.116 0 .345-.082.51-.182.164-.1.354-.182.422-.182s.242-.061.385-.136a1.29 1.29 0 0 1 .49-.137c.125-.001.366-.086.537-.19.17-.104.6-.291.957-.416.645-.227 1.973-.835 2.06-.942.14-.176.72-.544.942-.6.143-.035.45-.16.684-.28.234-.118.476-.215.539-.215.062 0 .114-.035.114-.077 0-.042.092-.125.205-.183.113-.06.328-.188.478-.287.15-.1.335-.205.41-.236.447-.179.64-.302 1.055-.673a16.4 16.4 0 0 1 .759-.641c.163-.125.352-.33.421-.456a3.81 3.81 0 0 1 .45-.575c.178-.19.406-.527.506-.747.1-.22.285-.511.41-.646a.814.814 0 0 0 .228-.537c0-.16.075-.595.166-.967.092-.371.175-.807.184-.969.009-.161.057-.4.107-.531.06-.157.06-.428.002-.79-.083-.52-.185-.803-.186-.52-.001.206-.27-.36-.5-1.055a31.98 31.98 0 0 0-.39-1.106c-.1-.258-.208-.832-.242-1.276-.106-1.402-.24-2.245-.47-2.965a9.05 9.05 0 0 1-.306-1.57c-.046-.479-.11-.915-.144-.97-.034-.054-.097-.312-.14-.572-.169-.998-.197-1.12-.321-1.397-.07-.157-.169-.67-.218-1.14l-.135-1.273a8.315 8.315 0 0 0-.136-.82 4.354 4.354 0 0 1-.095-.79c0-.213-.084-.684-.184-1.046a5.61 5.61 0 0 1-.182-1.367c0-.39-.06-1.088-.131-1.551-.166-1.07-.293-3.562-.222-4.374.01-.113-.012-.554-.048-.98-.059-.707-.129-2.796-.133-3.994-.001-.267-.04-.534-.087-.593-.083-.105-.178-1.137-.252-2.75a32.263 32.263 0 0 0-.127-1.641c-.048-.451-.13-1.333-.183-1.96-.052-.626-.114-1.324-.136-1.55a51.706 51.706 0 0 1-.253-5.388c.006-2.394.1-3.056.505-3.515.148-.167.175-.332.168-1.034-.006-.665.03-.907.174-1.19.1-.197.15-.358.111-.36-.038-.002-.008-.053.067-.114.078-.063.146-.293.16-.539.027-.493.513-1.786.612-1.626.128.207.305-.178.193-.419-.12-.26-.236-.28-.236-.039 0 .098-.041.203-.091.234-.05.03-.092.016-.092-.033a.841.841 0 0 0-.055-.233c-.034-.09-.006-.144.075-.144.072 0 .227-.103.345-.228.118-.126.166-.228.107-.228-.059 0-.107-.041-.107-.091 0-.05.084-.091.186-.091.16 0 .171-.027.083-.191-.085-.158-.067-.23.104-.41.113-.121.174-.22.136-.22-.038 0 .037-.126.167-.28.13-.154.236-.386.236-.514 0-.129.064-.28.142-.338.088-.064.144-.25.147-.488.004-.264.045-.385.131-.385.07 0 .126-.052.126-.115s.077-.163.17-.221c.124-.077.183-.248.214-.616.038-.461.08-.545.457-.906l.415-.398-.084-.461c-.072-.398-.056-.523.121-.9.113-.242.276-.5.361-.576.086-.075.222-.403.303-.729.08-.326.186-.606.234-.623.049-.017.09-.099.091-.182a.701.701 0 0 1 .137-.329.75.75 0 0 0 .134-.384c0-.114.123-.348.273-.519.15-.171.273-.397.273-.501 0-.184.109-.476.462-1.245.092-.2.186-.544.21-.763.028-.258.16-.568.372-.876.203-.296.306-.533.27-.626a.473.473 0 0 1 .012-.31 1.82 1.82 0 0 0 .095-.288c.015-.071.11-.243.212-.381.113-.153.208-.462.24-.783.03-.291.134-.687.232-.879.098-.192.216-.581.262-.866.046-.284.13-.701.185-.927.056-.226.135-.574.176-.775.04-.2.16-.549.266-.774.106-.226.194-.466.195-.534 0-.067.057-.252.126-.41l.24-.56c.064-.15.13-.56.145-.912.015-.35.049-.781.074-.957.026-.175.067-.562.092-.86a7.29 7.29 0 0 1 .16-.985c.086-.337.088-.485.008-.612-.115-.185-.17-2.049-.067-2.306a.312.312 0 0 0-.04-.286c-.08-.097-.067-.139.056-.186.114-.044.128-.08.05-.13-.06-.036-.155-.391-.21-.787-.092-.662-.087-.73.066-.836.328-.226.405-.322.375-.472-.019-.097-.101-.14-.23-.123-.25.036-.344-.272-.25-.824.037-.214.072-.762.079-1.217.007-.565.052-.879.14-.984.095-.115.101-.181.025-.258-.102-.102-.064-1.321.05-1.621a.486.486 0 0 0 .038-.206c-.022-.106.232-1.44.343-1.799.054-.175.099-.45.099-.612 0-.16.075-.51.168-.775.093-.265.217-.687.276-.938.06-.25.184-.62.278-.82.093-.2.218-.508.279-.684.261-.76.468-1.245.622-1.458.09-.125.261-.474.38-.775.117-.3.252-.596.298-.656.046-.06.155-.245.242-.41.452-.86 1.355-2.26 1.456-2.26.155 0 .166.12.062.672-.06.316-.232.796-.383 1.067-.39.7-.419.801-.215.748.092-.024.217-.163.277-.309.193-.466.531-.22.41.298-.062.265-.164 2.13-.176 3.22-.005.451-.044.873-.085.938-.083.128.036.75.312 1.631.11.35.173.8.167 1.185-.006.36.046.755.123.94.074.176.114.373.09.439-.023.065.018.188.093.273.19.217.307.615.331 1.134.005.088.068.16.142.16.216 0 .457.429.328.584-.073.088-.076.147-.01.188.052.032.095.182.095.332 0 .15-.035.252-.078.225-.043-.026-.059.054-.035.18.04.208.054.214.16.069.098-.134.138-.14.262-.037.08.067.146.188.145.27 0 .12-.017.124-.08.023-.044-.069-.127-.11-.185-.09-.058.02.06.206.263.418.283.295.368.454.368.694 0 .435.099.88.195.88.147 0 .714.409.716.515 0 .057.056.125.124.151.075.03.146.27.182.617.04.388.127.659.273.851.299.394.492 1.052.597 2.032.055.51.153.934.25 1.081.123.19.187.645.288 2.078.16 2.287.155 2.06.078 3.522-.035.677-.087 1.887-.115 2.69-.03.867-.103 1.62-.18 1.861a3.49 3.49 0 0 0-.132.866 3.596 3.596 0 0 1-.18.964c-.096.275-.177.59-.179.699-.005.293-.281 1.334-.391 1.469-.053.065-.127.313-.164.551-.038.239-.196.65-.35.912-.156.263-.283.553-.283.644 0 .09-.1.313-.223.494-.234.346-.59 1.14-.88 1.97-.096.271-.227.558-.292.637-.065.079-.233.39-.374.69-.14.3-.368.67-.504.82-.136.15-.483.593-.771.983-.289.39-.684.903-.879 1.14-.195.236-.51.626-.7.866-.189.24-.562.67-.829.957-.53.57-1.198 1.5-1.207 1.682-.004.063-.128.32-.275.57-.148.251-.39.709-.538 1.018-.15.313-.392.648-.546.758-.152.108-.276.275-.276.37 0 .096-.082.309-.182.473-.1.164-.182.37-.182.458 0 .087-.033.16-.073.16-.04 0-.149.225-.243.5-.093.276-.22.502-.282.502-.15 0-.223.211-.223.639 0 .193-.051.406-.114.474-.214.233-.326.5-.39.925-.035.234-.146.53-.246.657-.188.238-.296.572-.437 1.346-.044.243-.116.49-.16.547-.282.377-.743 2.968-.708 3.975.013.379-.017.811-.067.962-.05.15-.104.745-.119 1.321-.06 2.305-.127 3.934-.163 3.993-.046.077-.196 3.91-.188 4.803.03 3.238.061 3.906.227 5.003.1.657.224 1.52.276 1.916.051.397.132.794.18.883.047.089.086.282.086.43 0 .147.062.319.137.381.162.135.174.308.037.527-.076.122-.045.314.135.83.13.37.215.703.19.743-.073.118.06.365.163.301.064-.04.078.127.043.52-.044.483-.024.614.123.8.104.133.175.366.175.576 0 .193.036.352.08.352.045 0 .098.266.118.591.032.487.091.666.34 1.02.251.355.294.486.255.775a.82.82 0 0 0 .15.645c.206.31.282.466.59 1.207.225.544.334.919.47 1.61.057.284.16.538.228.565.193.073.778 1.33.833 1.785.026.223.144.572.26.775.117.203.241.507.277.676.035.168.162.45.282.628.12.177.218.393.218.48 0 .087.062.306.138.487.075.18.13.36.122.398-.008.039.036.193.098.344.063.15.136.406.163.568.028.162.106.341.175.399a.412.412 0 0 1 .125.28c0 .097.033.156.074.13.041-.025.058.07.037.212-.02.142.007.286.062.32.055.033.1.175.1.315 0 .475.652 2.253.813 2.217.08-.018.105.097.087.39-.018.293.022.47.136.603.124.144.148.273.102.545-.04.232-.026.356.039.356.055 0 .1.123.1.273 0 .15-.039.273-.086.273-.052 0-.052.114 0 .296.047.163.085.53.085.815 0 .286.04.543.087.573.155.096-.023 1.2-.362 2.236-.041.125-.1.502-.13.837-.057.641-.244 1.217-.358 1.104-.037-.037-.043-.006-.015.069.03.075-.071.331-.223.57-.151.239-.275.488-.275.554 0 .065-.133.263-.296.438-.655.706-1.21 1.377-1.237 1.496-.017.07-.068.127-.114.127-.047 0-.085.062-.085.137 0 .075-.045.137-.1.137-.055 0-.215.123-.355.273-.141.15-.32.274-.397.274a.282.282 0 0 0-.214.113c-.04.063-.232.195-.425.294-.194.099-.373.232-.398.296a.2.2 0 0 1-.174.117c-.072 0-.154.061-.182.137-.03.075-.161.138-.294.14-.288.003-.602.218-.518.355.035.056-.016.097-.121.097-.1 0-.243.062-.318.137a.525.525 0 0 1-.32.136c-.1 0-.206.037-.233.081-.028.045-.19.107-.361.14-.171.032-.361.118-.423.192a.482.482 0 0 1-.329.134.89.89 0 0 0-.376.09c-.254.142-.872.39-1.068.427-.099.02-.283.132-.41.25a1.423 1.423 0 0 1-.458.283 1.985 1.985 0 0 0-.47.239c-.134.094-.421.182-.639.196-.227.014-.387.067-.376.125.01.055-.174.15-.41.21a6.858 6.858 0 0 0-.611.185c-.841.339-1.654.544-1.755.443-.058-.058-.206-.01-.425.138a4.805 4.805 0 0 1-.605.347c-.148.066-.269.15-.269.189 0 .037-.222.068-.495.068-.31 0-.544.05-.627.133-.073.073-.153.112-.177.087-.16-.16-.532-.111-.739.095a1.22 1.22 0 0 1-.483.285c-.238.056-1.229.477-1.602.681a.722.722 0 0 1-.277.087c-.065 0-.28.082-.476.182-.197.1-.428.16-.513.133-.086-.027-.182-.006-.215.047-.088.142-.67.367-.951.367-.135 0-.283.038-.331.084-.048.046-.28.103-.518.127-.457.047-1.04.335-1.006.498.021.102-.466.246-.588.174-.128-.075-.481.11-.481.253 0 .1-.096.14-.342.14-.209 0-.589.125-.977.32-.508.256-.708.311-1.003.276-.27-.033-.469.01-.744.158l-.857.463c-.28.15-.734.295-1.082.344-.33.047-.614.125-.631.173-.017.05-.136.089-.265.089s-.369.103-.533.228a1.07 1.07 0 0 1-.692.23c-.288 0-.357.024-.257.089.098.063.008.089-.32.09-.337 0-.547.062-.793.229-.185.125-.434.228-.553.228-.12 0-.249.03-.286.068a.286.286 0 0 1-.13.076 1.279 1.279 0 0 0-.197.062c-.075.029-.398.08-.718.112-.32.032-.672.117-.782.19a.806.806 0 0 1-.435.111c-.207-.017-.445.07-1.115.41-.098.05-.425.107-.726.127-.301.02-.57.07-.596.11-.027.04-.29.098-.587.128-.296.03-.562.093-.592.141-.03.048-.28.157-.556.241a6.93 6.93 0 0 0-.717.259c-.119.057-.457.104-.752.104s-.536.036-.536.08c0 .044-.124.062-.275.04-.163-.024-.316.009-.376.08-.055.067-.198.122-.317.122-.12 0-.217.038-.217.084 0 .047-.133.084-.296.083-.163 0-.501.046-.752.104a9.31 9.31 0 0 1-1.116.155c-.373.028-.661.092-.661.146 0 .053-.023.074-.05.046-.028-.028-.232.005-.454.07-.283.086-.421.093-.464.024-.039-.063-.09-.045-.143.05-.047.085-.198.15-.347.15-.145 0-.288.04-.318.088-.032.051-.344.07-.74.045-.426-.028-.757-.005-.88.061a1.12 1.12 0 0 1-.472.098c-.15-.005-.327.035-.391.089-.064.053-.237.073-.384.043-.155-.03-.28-.012-.299.044-.054.161-2.965.481-3.117.343-.047-.042-.134-.006-.198.08-.1.137-.292.155-1.531.148-.78-.005-1.397.023-1.373.062.024.039-.07.069-.208.066-.14-.003-.468.078-.732.18-.477.184-.48.184-.605.005-.091-.13-.138-.147-.167-.06-.022.066-.18.129-.351.14-.172.01-.64.062-1.04.114-1.043.138-1.98.171-2.164.079-.092-.047-.41-.04-.774.02-.34.054-1.233.112-1.985.128-1.643.036-1.582.03-1.413.146.095.065-.122.074-.712.032-.616-.045-.909-.03-1.066.055-.162.086-.283.091-.473.02-.385-.147-1.927-.003-2.05.19-.044.071-.122.07-.273-.002-.385-.185-.541-.21-.723-.112-.162.086-3.589.143-5.777.095a21.826 21.826 0 0 0-1.52.034c-.493.031-.813.015-.849-.043-.079-.127-.684-.117-.684.012 0 .074-.152.083-.525.033-.81-.11-1.335-.124-1.44-.04-.052.043-.299.056-.547.029-.786-.085-2.312-.097-2.264-.02.068.111-.528.093-.869-.026-.22-.077-.463-.076-.96.005-.846.136-1.866.165-2.964.085zm25.867-.414c.066-.026.144-.023.174.007s-.023.052-.12.048c-.105-.005-.127-.026-.054-.055zm7.474-.73c.066-.026.144-.022.175.008.03.03-.024.052-.12.048-.106-.005-.128-.026-.055-.056zm-17.576-61.124c-.024-.022-.823-.065-1.776-.096-1.774-.058-2.456-.108-2.593-.193-.042-.026-.461-.089-.93-.139-1.207-.128-1.426-.16-1.54-.231-.055-.034-.415-.096-.8-.137-.899-.095-2.4-.389-2.96-.579a3.132 3.132 0 0 0-.832-.147c-.249 0-.415-.046-.444-.123-.03-.08-.288-.143-.74-.181-.4-.034-.792-.123-.923-.21-.126-.082-.254-.125-.284-.095-.03.03-.19-.003-.358-.072-.167-.07-.725-.193-1.241-.274-.516-.081-1.062-.204-1.212-.273-.15-.07-.561-.143-.914-.165-.352-.021-.72-.084-.82-.14-.281-.16-1.028-.382-1.283-.382-.127 0-.308-.041-.403-.092-.365-.195-1.88-.436-3.188-.507-.476-.025-.956-.091-1.065-.146-.128-.064-.373-.074-.684-.028-1.02.152-3.016-.009-3.583-.287-.15-.074-.397-.327-.547-.562l-.274-.428.006-1.55c.006-1.839.057-2.086.848-4.101.177-.452.373-.903.434-1.003.062-.1.14-.338.175-.527.035-.19.157-.483.271-.652.114-.168.238-.403.274-.52.036-.119.117-.277.18-.352.25-.296.502-.921.503-1.25.003-.572.077-.62.906-.59.49.017.733-.007.733-.075 0-.062.149-.09.388-.073.357.026.389.05.414.307.02.197-.04.35-.205.528-.128.138-.232.267-.232.286 0 .082.517.58.7.673.11.057.356.104.547.104.191.001.512.06.712.13.245.086.555.111.943.076.38-.035.6-.018.641.048.056.09 1.011.207 1.926.236.175.006.371.044.435.086.064.041.447.093.85.114.404.022.81.08.903.13.093.05.346.091.563.093.216 0 .557.047.758.101.2.055.651.134 1.002.177 1.028.124 1.69.234 2.37.395.351.083.823.188 1.048.233.226.044.594.127.817.184.224.056.562.076.751.044a.81.81 0 0 1 .642.123c.215.131.518.193 1.1.226.638.035.828.079.924.21.095.13.15.143.248.061.138-.114 1.424.05 2.309.293.428.118.98.173 2.734.275.401.023 1.12.087 1.595.14 1.284.146 3.126.239 3.28.166a.352.352 0 0 1 .273.008c.2.104 2.409.29 3.375.286.175-.001 1.118.006 2.096.017 1.587.016 2.834.017 5.013.005.376-.003.95-.003 1.276 0 .561.004 1.002-.039 3.6-.346 1.027-.121 1.689-.249 2.553-.492.2-.056.55-.103.777-.103.228 0 .72-.102 1.094-.226.374-.124.81-.227.97-.228.269-.002.64-.135 1.534-.547.2-.092.672-.258 1.048-.369.376-.11.765-.272.866-.358.1-.086.448-.251.773-.367.324-.115.735-.322.911-.46.177-.14.423-.283.549-.32.212-.062.717-.37.82-.501.09-.115 1.251-.726 1.379-.726.072 0 .273-.136.447-.302.31-.295.873-.61 1.093-.61.21 0 1.638-1.1 1.638-1.261 0-.052.082-.12.181-.15.1-.032.344-.21.543-.394.373-.347 1.106-.838 1.251-.838.046 0 .155-.123.244-.273.089-.15.22-.274.293-.274.073 0 .132-.038.132-.085 0-.047.108-.098.241-.114a.5.5 0 0 0 .342-.21c.205-.37.395-.581.924-1.025.3-.25.649-.554.777-.675.128-.12.518-.461.866-.756 1.941-1.647 4.712-4.371 4.67-4.592-.026-.133-.45-.29-1.258-.463a3.546 3.546 0 0 1-.638-.22 2.743 2.743 0 0 0-.774-.191 8.406 8.406 0 0 1-.912-.142 8.326 8.326 0 0 0-1.002-.14l-1.231-.093a81.723 81.723 0 0 0-2.863-.097c-1.199-.025-2.204-.06-2.233-.077-.03-.017-.546 0-1.148.04-.648.04-1.16.035-1.255-.016-.089-.046-.194-.064-.234-.04-.04.025-1.104.066-2.365.091-1.26.025-2.365.085-2.455.133-.089.047-.469.115-.844.15-.374.033-.754.1-.844.149-.092.05-.453.06-.84.025-.592-.053-.718-.037-1.002.13-.208.123-.61.225-1.122.283-.438.05-1.145.138-1.571.195-.426.058-.878.1-1.003.092-.342-.02-1.381.177-1.64.311-.126.065-.546.148-.935.184-.388.036-.706.091-.706.123s-.093.065-.205.074c-.113.01-.431.065-.707.123-.275.058-.809.167-1.185.24-.376.075-.912.194-1.19.266a4.3 4.3 0 0 1-.85.13c-.188 0-.418.04-.511.09-.094.05-.306.111-.473.136-.166.024-.467.09-.667.145-.2.055-.576.13-.834.165s-.524.108-.592.162c-.068.054-.42.119-.783.144-.363.024-.718.093-.788.151-.071.06-.27.12-.444.136-.173.015-.351.047-.396.071-.146.077-.795.238-1.403.349-.325.059-.838.21-1.14.334-.556.23-.616.247-1.3.357-.212.034-.387.098-.387.141 0 .044-.12.08-.267.08-.363 0-1.563.257-1.69.362-.056.047-.326.124-.6.172-1.383.242-1.696.304-1.863.373-.354.146-.936.277-1.225.277-.16 0-.37.043-.467.094-.096.052-.37.113-.609.137a11.73 11.73 0 0 0-1.981.332c-.4.1-.843.158-.984.13-.14-.028-.326-.016-.412.027-.256.13-1.025.29-1.659.346-.326.03-.634.083-.684.12-.09.067-.852.187-1.55.244-1.043.086-1.658.112-3.858.164-1.957.047-2.478.033-2.825-.075-.234-.072-.72-.183-1.08-.246-.586-.103-.7-.158-1.072-.525-.229-.226-.416-.446-.416-.49 0-.044-.105-.238-.233-.431-.294-.445-.585-1.815-.586-2.767a8.45 8.45 0 0 1 .182-1.531c.1-.453.177-.934.17-1.07-.008-.136.092-.525.223-.866.131-.34.266-.832.299-1.093.092-.73.443-1.4.878-1.673.202-.128.496-.276.652-.328.45-.15.675-.472.737-1.057.093-.871.136-1.07.271-1.252.104-.14.164-.155.295-.075a.829.829 0 0 1 .257.273c.133.249.4.652.78 1.176.182.25.45.736.595 1.078.418.98.404.973 1.71.973.992 0 1.185-.027 1.705-.237.439-.176.802-.246 1.439-.276a9.761 9.761 0 0 0 1.595-.227 12.758 12.758 0 0 1 1.632-.268c.488-.044.968-.122 1.065-.174.097-.052.292-.095.433-.097.141-.002.544-.082.895-.18.35-.097.812-.178 1.026-.18.214-.001.46-.04.547-.085.243-.128 1.5-.464 1.732-.464a.957.957 0 0 0 .364-.08c.547-.278 1.175-.444 1.945-.515.33-.03.714-.113.853-.185a1.55 1.55 0 0 1 .599-.131c.19 0 .722-.123 1.182-.274.46-.15.95-.273 1.088-.273.138 0 .44-.057.67-.127.231-.069.442-.105.468-.079.111.112 1.828-.196 2.228-.4.233-.117.509-.214.614-.214.105 0 .324-.067.488-.148.38-.19 1.842-.414 1.96-.3.124.12.33.102.634-.057.185-.096.493-.133 1.01-.12.41.01.8-.018.87-.061a.94.94 0 0 1 .327-.1c.11-.011.31-.091.44-.178.18-.117.56-.175 1.535-.232.712-.042 1.459-.116 1.66-.164.2-.049.426-.089.5-.089.076 0 .445-.04.821-.088 1.617-.205 2.842-.304 3.125-.25.167.03.527.012.8-.042 1.264-.252 2.703-.315 6.694-.294 7.404.039 8.182.06 8.432.236a.967.967 0 0 0 .469.155c.136 0 .353.04.483.09.13.049.525.11.878.137.353.027.781.107.95.178.17.07.525.156.791.19.266.033.545.092.62.131.076.039.33.099.565.133.235.034.604.162.82.284.45.254.427.244 1.031.435 1.252.395 1.611.55 1.74.746.08.12.27.234.452.268.173.033.315.09.315.126 0 .037.112.116.25.175.138.06.333.16.433.225.436.28 1.091.76 1.274.933.109.103.277.254.374.335.15.127.49.506.879.983.2.244.709 1.007.709 1.061 0 .03.205.36.456.733.25.374.455.701.455.729 0 .027.103.273.228.547.126.274.228.517.228.539 0 .022.146.339.325.704.178.364.348.857.377 1.094.029.236.086.41.126.384.145-.089.197.625.092 1.259-.058.353-.126.675-.15.715-.103.166-.911.647-1.128.67-.129.015-.405-.025-.613-.087-.402-.12-.459-.106-1.353.326-.2.097-.395.176-.431.176-.037 0-.427.17-.866.378-.97.458-1.616.973-1.758 1.402-.057.174-.173.367-.257.43-.135.1-1.105 1.52-1.61 2.356-.311.515-.352.571-.82 1.14-.251.305-.518.649-.593.764-.075.114-.347.418-.604.674-.256.257-.534.6-.617.763-.083.163-.184.296-.224.296-.063 0-.46.542-.79 1.079-.051.083-.632.69-1.29 1.35-.658.659-1.223 1.282-1.256 1.385a.416.416 0 0 1-.237.243c-.097.031-.177.116-.177.187 0 .072-.06.131-.132.131a.27.27 0 0 0-.206.119c-.04.065-.263.246-.496.4-.233.156-.5.35-.592.433-.3.268-1.072.78-1.4.928-.175.08-.352.202-.392.272a.29.29 0 0 1-.228.127c-.085 0-.306.14-.492.31-.185.17-.563.42-.839.555-.276.136-.55.304-.608.374-.059.07-.162.128-.23.128-.122 0-.938.417-1.367.698-.12.078-.219.12-.219.09 0-.122-.892.418-1.175.713-.17.177-.392.322-.494.322a.597.597 0 0 0-.329.12c-.08.067-.39.229-.69.361-.302.133-.773.364-1.049.515-.276.151-.756.398-1.066.55-.311.15-.705.397-.876.547-.176.154-.528.329-.814.403-.278.073-.63.197-.784.276-.153.08-.384.145-.511.145-.128 0-.233.033-.233.073 0 .127-.724.4-1.17.442-.234.022-.671.085-.972.14-.3.056-1.47.11-2.598.118-1.127.01-2.124.05-2.214.09-.09.039-.336.041-.547.005-1.208-.205-3.865-.316-4.804-.2a24.19 24.19 0 0 1-1.205.097c-.438.025-.885.093-.993.151-.126.068-.522.093-1.096.07-.494-.02-.899-.006-.899.03 0 .097-.458.16-1.478.206-.488.021-.925.063-.972.092-.047.029-.742.07-1.545.093-.803.021-1.596.065-1.764.096-.168.032-.325.04-.349.018zm68.46-34.48c.005-.106.026-.128.055-.055.027.066.023.145-.007.175s-.052-.024-.048-.12zm-57.566-9.126c-.15-.023-.319-.08-.374-.125-.059-.05-.594-.042-1.329.018-1.128.092-1.256.087-1.541-.065-.43-.228-.798-.26-.99-.087-.133.12-.326.137-1.153.096a29.219 29.219 0 0 1-1.313-.088 38.171 38.171 0 0 0-1.048-.098c-.401-.032-.9-.12-1.108-.196-.208-.076-.46-.112-.559-.08-.187.06-.653-.102-.768-.266-.038-.053-.367-.082-.782-.067-.602.022-.753-.003-.947-.156-.128-.1-.432-.227-.677-.282a3.125 3.125 0 0 1-.747-.276c-.166-.098-.392-.178-.504-.178a.794.794 0 0 1-.382-.124c-.099-.068-.45-.192-.781-.274a5.575 5.575 0 0 1-1.54-.648.589.589 0 0 0-.337-.062c-.11.015-.306-.043-.436-.129a1.522 1.522 0 0 0-.592-.185c-.482-.04-1.328-.334-1.555-.54-.184-.166-1.282-.583-1.548-.587-.075-.001-.186-.08-.245-.176-.074-.118-.248-.187-.547-.217a5.193 5.193 0 0 1-.802-.153c-.2-.06-.488-.13-.638-.157a3.168 3.168 0 0 1-.644-.22c-.204-.095-.421-.173-.483-.173s-.244-.07-.404-.153a2.799 2.799 0 0 0-.657-.22c-.76-.142-1.231-.318-1.366-.51-.092-.132-.279-.221-.546-.261-.223-.034-.453-.118-.511-.188-.13-.156-.763-.177-.667-.022.048.077-.14.092-.712.056-.58-.036-.893-.106-1.236-.279-.401-.201-.51-.22-.852-.143-.41.093-.74-.005-.955-.278-.087-.11-.151-.11-.457.013-.327.13-.427.129-1.24-.025-.485-.092-.957-.205-1.047-.252-.09-.047-.358-.113-.595-.148-.238-.034-.485-.115-.549-.18-.064-.064-.69-.207-1.39-.317-.702-.11-1.378-.245-1.503-.299a2.226 2.226 0 0 0-.572-.125c-.228-.018-.453-.123-.664-.308-.182-.16-.422-.281-.558-.281-.396 0-1.48-.361-1.95-.65-.243-.15-.539-.283-.657-.296a1.125 1.125 0 0 1-.433-.176.904.904 0 0 0-.43-.154c-.231 0-.887-.305-.98-.456-.032-.051-.196-.151-.365-.222-.169-.07-.489-.296-.71-.5-.222-.204-.432-.372-.468-.372-.036 0-.123-.05-.195-.113-.071-.063-.32-.258-.552-.433-.59-.445-1.375-1.234-1.534-1.543-.074-.142-.203-.285-.287-.317-.084-.032-.126-.086-.093-.119s-.037-.165-.155-.294a8.415 8.415 0 0 1-.578-.78l-.744-1.12c-.209-.315-.38-.608-.38-.65 0-.042-.068-.236-.152-.43a3.106 3.106 0 0 1-.173-.49 5.551 5.551 0 0 0-.212-.635 5.077 5.077 0 0 1-.25-.957c-.033-.252-.088-.479-.123-.504-.034-.025-.112-.23-.173-.456-.28-1.038-.387-1.653-.414-2.382-.015-.432-.061-.84-.101-.904-.063-.102-.253-2.449-.239-2.957.056-2.076.196-3.464.383-3.805.048-.087.087-.333.087-.546 0-.405.237-1.804.36-2.12.039-.101.132-.327.208-.503a4.12 4.12 0 0 0 .204-.638c.037-.175.273-.728.525-1.23.252-.501.49-1.034.531-1.185.139-.515.324-.949.478-1.12.085-.093.155-.237.155-.318a.29.29 0 0 1 .114-.22c.192-.124.445-.459.478-.635a.584.584 0 0 1 .046-.168.876.876 0 0 0 .052-.205c.035-.192.014-.202-.303-.15-.908.147-1.035.147-1.199-.002-.141-.127-.18-.13-.272-.02-.125.15-.783.332-1.206.332-.162 0-.42.038-.575.086-.578.178-2.065.352-3.47.408-.35.014-.732.055-.847.092-.127.04-.263.023-.344-.044-.107-.09-.17-.08-.315.052-.143.13-.383.172-1.16.203-.539.021-1.02.069-1.07.105-.051.036-.256.078-.457.092-.2.014-.426.057-.5.095-.076.037-.522.072-.992.078-.599.006-.898.048-1.002.14-.186.162-1.144.259-1.275.128-.066-.066-.17-.046-.339.064-.169.111-.461.167-.958.183-.394.012-.772.07-.841.127-.07.057-.57.122-1.12.144-1.192.049-2.746.252-2.999.392-.218.12-1.64.389-2.067.39-.167 0-.423.063-.57.14-.146.076-.547.16-.89.185a17.33 17.33 0 0 0-2.196.304c-.24.052-.567.08-.728.06-.182-.02-.449.047-.709.178-.258.131-.644.228-1.015.255-.33.024-.683.09-.786.144-.103.055-.331.1-.507.1s-.345.041-.376.091c-.03.05-.177.092-.324.092-.186 0-.268.045-.268.146 0 .104-.047.127-.16.08-.198-.082-.194-.082-1.025-.002-.376.037-.745.099-.82.138-.076.039-.547.158-1.049.265-.93.199-1.456.276-2.46.362-.153.013-.16.03-.046.104.1.065.03.089-.256.09-.241 0-.371-.034-.336-.09.032-.053-.047-.045-.182.016-.185.085-.307.084-.552-.005-.173-.062-.358-.086-.411-.053-.053.033-.218.01-.365-.051-.2-.083-.3-.085-.393-.007-.094.078-.152.07-.238-.034-.073-.088-.193-.117-.335-.081a.424.424 0 0 1-.377-.08 1.657 1.657 0 0 0-.475-.24c-.373-.12-.907-.585-1.113-.97-.244-.456-.527-1.241-.527-1.463 0-.116-.041-.236-.091-.267-.05-.03-.092-.148-.092-.26a.506.506 0 0 0-.107-.312c-.133-.133-.113-2.203.036-3.803.056-.601.1-1.247.096-1.435-.004-.188.024-.323.062-.3.037.024.12-.192.183-.478.063-.287.166-.583.23-.658.063-.075.139-.5.168-.946.057-.841.196-1.15.52-1.15.152 0 .635.6.635.79 0 .054.144.195.32.315.175.119.34.284.368.367.067.208.266.275.934.313.316.018.642.071.724.117.101.057.217.04.353-.048.111-.073.3-.144.42-.156a.969.969 0 0 0 .328-.093c.062-.038.224-.057.36-.043.138.014.3-.006.362-.044s.53-.069 1.042-.068c.593.001 1.03-.044 1.209-.124.154-.069.628-.173 1.054-.232.427-.059.898-.161 1.049-.228.405-.18.756-.24.818-.14.062.1.582.023.754-.112.076-.06.157-.054.245.019.146.121.459.005.533-.2.033-.092.08-.092.235 0 .135.08.195.084.195.014 0-.056.065-.077.145-.046.08.03.188.028.24-.004.053-.033.403-.076.778-.096.433-.023.808-.1 1.028-.212.337-.172.357-.172.85-.01.412.136.513.144.552.043.026-.067.1-.123.164-.123s.24-.066.39-.146c.15-.08.54-.165.866-.19.326-.025.64-.084.697-.132.068-.055.117-.05.138.012.023.069.323.054.989-.047.526-.08 1.284-.14 1.685-.135 1.189.015 1.934-.047 2.087-.174.078-.065.359-.129.623-.14.264-.013.542-.048.617-.08.277-.115 2.317-.426 2.796-.426.272 0 .777-.064 1.123-.143.45-.102.677-.116.803-.049.097.052.195.075.218.052.04-.04.61-.157 1.367-.282.165-.027.547-.065.848-.084.78-.048 1.955-.221 3.28-.483.25-.05.515-.056.588-.015.073.04.237.034.365-.016s.366-.09.53-.09c.162-.002.296-.042.296-.091 0-.049.174-.079.387-.066.213.012.53-.024.706-.081.176-.057.606-.123.957-.147 1.584-.108 3.666-.445 3.784-.613.026-.036.436-.076.912-.088.475-.013.946-.054 1.047-.092.1-.038.417-.14.704-.224.287-.085.503-.186.48-.224-.024-.038.044-.092.15-.12.144-.037.176-.092.127-.215-.192-.478-.123-1.217.114-1.212.166.004.3.173.331.416.02.15.185.427.378.63.189.201.506.703.704 1.117.199.414.397.753.441.753.044 0 .07.03.059.068-.03.098.373.902.509 1.014.131.11.514.034.514-.1 0-.05.308-.408.684-.794.376-.387.684-.731.684-.766 0-.035.174-.24.387-.455.623-.63.954-1.024 1.104-1.312.077-.149.503-.636.947-1.082a31.204 31.204 0 0 0 1.288-1.373c.263-.309.594-.609.735-.667.158-.066.319-.244.419-.466.152-.339.858-1.086 1.025-1.086.042 0 .169-.164.282-.364.112-.2.263-.365.335-.365.072 0 .131-.062.131-.139 0-.076.1-.184.222-.24a.757.757 0 0 0 .325-.35.867.867 0 0 1 .348-.375c.135-.07.325-.226.424-.348.098-.121.297-.327.442-.455.25-.224 1.062-1.037 2.573-2.582.38-.388.73-.706.777-.706.046 0 .197-.176.335-.39.22-.342.608-.73 2.043-2.04.184-.168.37-.305.414-.305.103 0 .756-.78.756-.903 0-.109.827-.92.94-.92.099 0 .701-.639.701-.744 0-.045.072-.109.16-.142.205-.078 1.298-1.157 1.298-1.282 0-.052.192-.252.426-.444a6.65 6.65 0 0 0 .615-.568 5.79 5.79 0 0 1 .404-.41 5.14 5.14 0 0 0 .365-.365c.082-.095.249-.259.37-.364.12-.106.335-.315.477-.466.894-.949 1.364-1.413 1.777-1.754.257-.213.532-.524.612-.692a1.47 1.47 0 0 1 .386-.478c.467-.337 1.792-1.84 1.942-2.203.067-.163.152-.296.188-.296.037 0 .262-.267.501-.593.24-.325.489-.592.554-.592.066 0 .167-.144.225-.319.058-.175.14-.319.182-.319.12 0 .781-.71 1.293-1.39.255-.338.5-.615.542-.615.044 0 .079-.077.079-.171 0-.094.227-.448.506-.787.278-.34.566-.735.64-.878.074-.143.175-.26.224-.26.048 0 .088-.043.088-.095 0-.1.3-.55.574-.858a2.66 2.66 0 0 0 .296-.436l.272-.517c.077-.145.2-.288.273-.316.074-.028.236-.268.36-.533.125-.265.392-.769.594-1.12.372-.647.5-.9.78-1.542.208-.477.252-2.627.067-3.27-.151-.524-.088-.793.186-.792.222 0 .55.433.648.852.033.143.134.28.223.303.11.028.244.28.406.762.134.395.347.954.474 1.241.127.287.247.648.267.8.02.154.086.402.146.553.06.15.144.437.184.638.04.2.141.672.224 1.048.271 1.235.385 3.82.217 4.91-.12.77-.122.78-.176.832-.055.053-.25.713-.357 1.21-.04.19-.136.416-.212.502-.13.147-.706 1.392-.706 1.524 0 .033-.24.354-.532.714-.292.36-.61.776-.705.927-.234.369-1.086 1.516-1.252 1.686a5.38 5.38 0 0 1-.514.408c-.244.176-.475.461-.649.803-.332.654-.335.658-1.196 1.54-.386.395-.729.804-.762.91-.068.214-.362.55-1.545 1.763-1.132 1.161-1.595 1.663-1.595 1.727 0 .106-.984 1.202-2.058 2.291-.598.607-1.254 1.283-1.46 1.504-.436.47-.95.932-1.276 1.145-.127.083-.443.37-.703.638-.26.267-.527.486-.592.487-.066 0-.291.19-.501.42-.21.23-.546.596-.747.811-.2.215-.436.478-.524.583-.087.105-.23.193-.319.196-.088.003-.339.228-.558.501-.218.273-.451.497-.517.497-.135 0-.296.15-.498.465a3.25 3.25 0 0 1-.387.458c-.138.134-.25.294-.25.356 0 .096-.82.957-3.117 3.279-.273.275-.608.576-.744.667a2.03 2.03 0 0 0-.462.501c-.117.185-.865.999-1.66 1.81-1.497 1.525-1.674 1.716-1.674 1.807 0 .106-.503.683-.595.683-.129 0-.681.514-.681.634 0 .102-.302.478-.798.991-.163.17-.296.335-.296.37 0 .033-.085.122-.188.195-.104.074-.275.288-.381.475-.106.188-.265.364-.354.392a.371.371 0 0 0-.214.216c-.028.09-.246.35-.483.575-.454.434-.586.589-1.492 1.758-.312.4-.619.76-.684.8-.064.04-.266.296-.448.57-.182.274-.366.498-.41.498-.043 0-.186.185-.32.412-.132.226-.308.463-.39.525-.173.131-.32.355-.505.763-.071.158-.19.322-.265.364-.14.08-.975 1.259-.976 1.378 0 .037-.144.247-.32.467-.174.22-.317.433-.317.473 0 .04-.074.095-.163.124-.089.028-.21.164-.267.302-.128.305-.597 1.145-.675 1.208-.03.025-.144.21-.251.41-.245.456-.405.716-.478.775-.09.071-.9 1.346-.9 1.414 0 .034-.086.18-.19.326-.103.146-.162.265-.13.265.031 0-.035.164-.148.365-.112.2-.233.364-.268.364-.034 0-.152.195-.262.433-.109.238-.255.536-.324.66-.31.562-.684 1.466-.686 1.659 0 .116-.123.43-.271.7-.148.269-.296.628-.328.797-.031.17-.088.309-.126.309-.038 0-.158.481-.267 1.07-.11.59-.238 1.243-.286 1.454-.048.21-.087.907-.087 1.55.001 1.108.014 1.188.251 1.59.307.518 1.032 1.351 1.177 1.353.059 0 .295.144.525.32.23.175.441.319.47.319.027 0 .232.125.454.278.222.153.404.251.404.22 0-.032.117.04.259.16.143.12.583.377.98.571.396.195.734.388.751.429.017.04.11.074.208.074.177 0 1.95.774 2.086.911.098.099.744.365.892.368a.705.705 0 0 1 .333.136c.097.074.313.134.478.134.166 0 .579.132.917.294.339.161.65.283.694.27.042-.013.135.024.206.083.07.058.322.142.56.185.426.078 1.042.338 1.099.463.016.036.272.092.57.126.297.034.54.093.54.132 0 .04.174.1.387.134a5 5 0 0 1 .89.268 12 12 0 0 0 1.637.562c.274.074.521.172.55.218.028.045.286.144.573.219.288.075.56.159.606.187.045.028.294.092.553.14.258.05.58.167.713.261.134.094.474.238.756.32.281.08.564.21.629.288.064.077.182.13.262.119a.652.652 0 0 1 .337.083c.105.058.29.125.41.149.477.094 1.498.379 1.54.43.026.03.149.079.274.108.286.066 1.806.58 2.051.694.1.047.798.279 1.55.516s1.408.459 1.458.494c.05.034.44.139.866.231.426.093.945.24 1.154.328.208.087.577.187.82.223.243.035.482.094.532.132.05.037.338.097.639.133.3.036.672.124.825.196.154.072.44.135.638.141.198.006.462.062.587.123.197.097 1.497.387 2.444.546.165.027.473.11.683.183.21.073.465.134.565.135.1.001.299.063.441.137.158.082.657.157 1.276.19.56.032 1.284.091 1.61.133 2.145.277 3.508.425 4.511.49.708.046 2.244.221 2.598.296.125.027.618.064 1.094.082.476.019 1.05.074 1.276.122.94.203 1.084.186 1.64-.192.187-.126.477-.158 1.572-.17 1.462-.018 1.619.026 1.619.456 0 .135.06.325.134.422a.85.85 0 0 1 .136.43c.006.464-.687 1.615-.97 1.615-.066 0-.121.031-.122.069 0 .037-.198.287-.438.554-.423.47-.449.483-.812.43-.226-.034-.398-.018-.434.04-.102.166-1.257.646-1.687.702-.226.03-.492.099-.592.154-.1.055-.531.127-.957.16-.427.033-.878.08-1.003.104a1.713 1.713 0 0 1-.501.001zm-93.1-41.643c.004-.106.026-.128.055-.055.026.066.023.145-.007.175s-.052-.024-.048-.12zm102.714-5.05c-.686-.035-1.325-.113-1.444-.176a.692.692 0 0 0-.425-.06c-.253.063-1.48-.18-1.66-.33a.807.807 0 0 0-.362-.13c-.13-.013-.28-.068-.332-.12a.415.415 0 0 0-.256-.096c-.152 0-1.254-.475-1.854-.799-.28-.15-1.18-.888-2.014-1.649-.463-.423-1.255-1.385-1.475-1.794a1.483 1.483 0 0 0-.327-.381c-.206-.162-.696-1.235-.696-1.523 0-.08-.107-.237-.238-.35-.274-.235-.418-.552-.342-.75.087-.226.3-.158.683.218.2.196.617.488.928.65.504.265.7.308 1.84.412.725.066 1.318.082 1.372.037.053-.044.586-.1 1.185-.124a75.272 75.272 0 0 0 1.271-.06c.44-.036 1.618-.273 1.776-.358.094-.05.382-.092.64-.092.257 0 .66-.057.894-.127.574-.171 2.416-.497 3.121-.552.228-.018.597-.115.82-.217.24-.11.686-.204 1.09-.23.375-.026.86-.11 1.076-.187.375-.135 1.397-.347 2.486-.516.28-.043.622-.121.758-.173.137-.052.404-.094.593-.094.19 0 .474-.065.631-.143.158-.079.33-.116.385-.082.053.033.172-.007.264-.09.116-.105.342-.153.746-.158a3.769 3.769 0 0 0 1.036-.173c.593-.217 1.778-.458 2.125-.432.15.012.327-.024.395-.078.068-.055.287-.12.488-.144.2-.023.754-.128 1.23-.23a13.846 13.846 0 0 1 1.367-.23c.276-.024.604-.082.73-.13.125-.047.586-.14 1.025-.207.439-.066.797-.157.797-.202 0-.045.036-.06.079-.034.043.027.402-.011.797-.085a38.138 38.138 0 0 1 1.859-.275c.626-.077 1.279-.178 1.45-.224.17-.047.346-.063.389-.036.043.027.222.001.397-.056.175-.058.656-.122 1.07-.142.412-.02.934-.08 1.16-.135.226-.054.71-.137 1.077-.184.367-.047.742-.126.834-.175.092-.049.727-.151 1.412-.227.685-.076 1.324-.18 1.42-.232.096-.051.501-.11.901-.131.4-.02.811-.083.914-.138.104-.056.465-.123.803-.151.338-.028.75-.092.917-.142.166-.05.453-.092.638-.092.184 0 .382-.037.438-.084.056-.046.302-.102.547-.125a25.74 25.74 0 0 0 2.208-.312c.269-.054.524-.076.568-.049.044.027.173-.002.287-.065.123-.067.604-.12 1.186-.13.728-.012 1.038-.054 1.205-.163.124-.082.372-.148.552-.148.18 0 .305-.037.277-.083-.029-.045.306-.112.746-.148.44-.035.873-.103.964-.151.092-.048.358-.101.593-.118a5.58 5.58 0 0 0 .654-.084c.125-.028.629-.11 1.118-.18.49-.07.99-.194 1.112-.273a.657.657 0 0 1 .5-.09c.16.033.278.018.278-.034 0-.05.233-.117.518-.15.285-.034.572-.107.639-.162.07-.058.298-.08.542-.052.232.026.55.007.706-.042.652-.204 4.377-.823 4.87-.81.117.005.404-.074.639-.173a5.834 5.834 0 0 1 1.565-.411 5.87 5.87 0 0 0 .73-.135 46.24 46.24 0 0 1 1.868-.43c.15-.028.328-.095.394-.148.175-.14.049-.693-.22-.962-.12-.12-.22-.274-.22-.34 0-.068-.086-.288-.192-.49-.421-.81.092-.874.822-.104 1.007 1.061 1.467 1.595 1.467 1.702 0 .06.113.156.25.213.138.057.333.256.433.443.1.186.295.393.433.459s.25.19.25.275c0 .14.786 1.158 1.468 1.9.16.176.265.39.265.544 0 .14.159.565.353.942.552 1.076.576 2.078.075 3.171-.052.113-.175.205-.274.205-.1 0-.298.123-.442.274-.143.15-.317.273-.386.273-.068 0-.171.056-.228.125-.058.07-.276.153-.486.187-.21.033-.43.1-.489.15-.059.05-.43.148-.824.22-1.15.209-1.801.34-1.948.395-.25.092-1.405.296-1.914.337-.276.023-.85.084-1.276.135-.426.052-1.205.134-1.732.183a111.2 111.2 0 0 0-1.732.177 35.51 35.51 0 0 1-1.412.133 44.48 44.48 0 0 0-1.504.143c-.477.054-1.338.135-1.914.18a20.26 20.26 0 0 0-1.276.128c-.618.124-1.792.226-2.727.237-.572.006-1.073.032-1.113.057-.176.108-1.998.272-2.083.187-.059-.06-.16-.052-.296.02-.114.06-.371.128-.572.151-.2.024-.605.082-.898.129-.294.047-.59.064-.66.037-.07-.027-.466.036-.88.14-.413.105-.855.188-.98.186-.537-.009-1.634.085-1.737.149-.062.038-.547.079-1.079.09-.532.013-1.079.067-1.216.121-.138.055-.305.079-.372.053-.067-.026-.238-.003-.38.052-.143.054-.649.119-1.123.144-.475.026-.97.1-1.102.166-.13.066-.718.145-1.308.175-.589.03-1.16.103-1.27.162-.137.073-.478.089-1.075.05-.535-.035-.998-.02-1.19.04a2.348 2.348 0 0 1-.604.093c-.18-.003-.308.05-.342.138-.044.114-.142.13-.495.082-.367-.05-.507-.024-.843.16-.289.16-.603.237-1.113.274-.468.034-.84.119-1.088.248-.313.163-.463.186-.9.135-.505-.059-.543-.048-.961.271-.292.223-.497.317-.624.285-.104-.026-.305.013-.447.086a1.265 1.265 0 0 1-.478.134c-.12 0-.367.061-.547.137-.18.075-.447.136-.593.136-.146 0-.359.061-.473.136-.199.13-.9.305-1.472.366a4.31 4.31 0 0 0-.684.162c-.226.073-.697.205-1.048.294-.351.09-.749.218-.884.286a1.465 1.465 0 0 1-.547.125c-.166 0-.568.085-.893.188a8.649 8.649 0 0 1-1.393.272c-.47.05-.948.16-1.159.267-.197.1-.48.183-.629.183-.15 0-.387.045-.528.1-.14.055-.687.156-1.213.225-.527.069-1.08.144-1.23.168-.151.024-.684.104-1.186.177-.501.074-.973.158-1.048.186a2.65 2.65 0 0 1-.456.09 3.266 3.266 0 0 0-.617.148c-.164.06-.452.092-.638.07a1.847 1.847 0 0 0-.693.08c-.194.068-.358.117-.365.109a28.842 28.842 0 0 0-1.243-.077zm-85.996-.457a.198.198 0 0 1 .148-.09c.05 0 .065.04.034.09-.03.05-.097.092-.147.092-.05 0-.066-.041-.035-.092zm5.287-3.386a15.545 15.545 0 0 0-1.55-.191c-.15-.008-.327-.089-.392-.178-.07-.097-.235-.164-.402-.164-.433 0-1.158-.393-1.712-.928-.704-.68-.983-1.083-1.103-1.593a19.655 19.655 0 0 0-.24-.897c-.142-.475-.203-3.021-.078-3.223.076-.122.406-1.679.506-2.383.09-.629.31-1.42.497-1.777.079-.15.143-.358.144-.461 0-.104.123-.28.274-.39.278-.206.358-.498.168-.616-.058-.035-.162.013-.233.109-.07.095-.187.161-.26.146-.072-.014-.131.016-.131.069 0 .054-.21.095-.49.095-.328 0-.529.046-.606.139-.103.124-.131.124-.267 0-.137-.123-.19-.118-.508.044-.195.1-.449.181-.564.181-.114 0-.208.041-.208.091 0 .05-.123.091-.274.091-.15 0-.273.031-.273.069 0 .037-.113.076-.25.086-.827.06-2.834.407-3.02.522-.049.03-1.072.198-1.654.272a.754.754 0 0 0-.25.086c-.062.039-.156.043-.21.01-.053-.032-.17.007-.26.09-.096.086-.314.146-.52.143-.798-.01-1.495.07-1.64.19-.085.07-.179.123-.208.117a.407.407 0 0 0-.17.033.591.591 0 0 1-.296-.003c-.1-.026-.181-.015-.181.025s-.11.1-.245.134-.292.126-.35.205c-.094.13-.125.129-.325-.002-.186-.122-.465-.14-1.77-.107-1.48.036-2.232-.046-2.232-.243 0-.042-.175-.077-.388-.078-.276-.001-.348-.026-.252-.087.1-.063.03-.102-.273-.15-.252-.04-.5-.156-.647-.301a2.89 2.89 0 0 0-.57-.41c-.182-.095-.331-.226-.331-.292 0-.065-.107-.273-.237-.464-.343-.501-.987-1.785-.962-1.917.012-.062-.028-.204-.088-.317-.27-.506-.262-1.498.027-3.033.161-.86.256-1.412.349-2.04.047-.319.125-.627.174-.685.172-.209.388-1 .353-1.3-.027-.233-.003-.3.102-.282.095.015.156-.084.195-.314.031-.186.106-.397.166-.47.06-.072.098-.182.084-.244-.015-.062.072-.121.192-.132a.515.515 0 0 0 .328-.169c.06-.082.242-.205.403-.273.161-.068.28-.16.264-.204-.015-.044.146-.114.359-.156.256-.051.387-.125.387-.218 0-.088.052-.121.137-.089.075.029.137.013.137-.036 0-.048.12-.088.268-.088.147 0 .292-.04.323-.088.03-.049.257-.116.505-.149.247-.032.497-.116.554-.185a.395.395 0 0 1 .267-.125c.09 0 .188-.051.217-.114.043-.09.064-.09.106 0 .07.149.22.147.22-.002 0-.081.153-.112.517-.103.436.011.548-.02.717-.203.222-.24.372-.275.43-.102.03.085.071.088.168.012.188-.149 1.38-.403 1.977-.422.17-.006.251-.038.19-.076-.125-.077.331-.143 1.481-.216.432-.027.924-.106 1.094-.175.17-.07.472-.119.673-.11.2.01.497-.033.659-.096.162-.062.572-.135.911-.16a71.94 71.94 0 0 0 1.62-.152 59.44 59.44 0 0 1 1.413-.134 29.93 29.93 0 0 0 1.458-.181c.577-.084 1.204-.15 1.394-.146.19.004.328-.023.305-.06-.022-.036.13-.074.338-.083.208-.009.83-.04 1.381-.07a30.11 30.11 0 0 1 1.345-.048c.26.004.341-.03.341-.147 0-.133.084-.147.637-.107.692.05.885-.044.795-.386-.026-.1-.01-.182.035-.182a.635.635 0 0 0 .37-.098c.179-.096.332.056.38.378.03.194.093.227.513.27.33.034.526.01.63-.074.11-.09.12-.135.036-.17-.222-.093-.11-.317.228-.459a9.182 9.182 0 0 1 1.067-.318c.399-.095.798-.24.886-.32.136-.122.204-.127.433-.032.15.062.394.242.541.4.909.97 1.194 1.299 1.198 1.38.007.15.533.683.673.683.07 0 .303.093.517.206.286.151.397.175.427.09.113-.334.52-.461 1.269-.398a.403.403 0 0 0 .32-.146c.082-.11.249-.164.53-.168.806-.013 1.587-.105 1.615-.191.017-.049.27-.07.573-.048.39.028.637-.005.87-.115.225-.107.433-.137.671-.097.255.043.438.01.7-.126.28-.144.428-.168.689-.108.183.041.388.04.456-.003.067-.044.369-.074.67-.068.3.006.741-.03.98-.08.26-.055.432-.058.432-.007 0 .047.092.02.203-.057.145-.102.437-.144 1.025-.149a10.213 10.213 0 0 0 1.324-.095c.712-.125 1.201-.15 1.418-.074a.455.455 0 0 0 .324-.01c.075-.042.753-.118 1.506-.168.755-.05 1.53-.15 1.727-.225.197-.074.764-.158 1.26-.186.62-.036.95-.096 1.056-.19.084-.077.173-.119.198-.094.077.077 1.93-.13 2.027-.227.061-.061.048-.091-.04-.092-.073 0-.01-.082.14-.182.15-.1.347-.18.437-.181.09 0 .254-.086.365-.19.168-.157.268-.178.611-.124.686.106 1.1.133 2.023.132.528 0 .908.038.944.096.033.054.114.077.181.05.067-.025.222.033.344.13.204.16.216.21.144.595-.117.625-.282 1.133-.369 1.133-.042 0-.077.072-.078.16 0 .19-.6.603-.745.513-.06-.037-.077-.022-.04.038.082.133-.255.348-.8.512-.501.151-.783.372-.783.614 0 .093-.062.168-.137.168-.075 0-.137.045-.137.099 0 .061-.1.076-.268.04-.231-.051-.286-.023-.404.204-.075.145-.2.316-.278.38-.078.066-.122.15-.099.188.024.038-.1.092-.275.12-.175.029-.39.123-.477.21-.147.148-.16.148-.188.007-.016-.084-.113-.153-.216-.153-.148 0-.165.026-.083.125.122.147.04.422-.125.422-.066 0-.137.16-.165.374a1.17 1.17 0 0 1-.286.62c-.129.136-.235.296-.235.357 0 .07-.077.091-.21.057-.179-.044-.257.02-.502.415-.16.257-.29.567-.29.69 0 .174-.048.221-.223.221-.122 0-.244.035-.271.079-.027.043-.153.06-.28.035-.156-.03-.23-.004-.23.083 0 .229-.65.804-1.24 1.098-.319.159-.56.306-.539.328.022.022-.05.114-.16.204-.18.145-.219.148-.352.028-.135-.12-.174-.11-.374.106a.983.983 0 0 1-.6.29c-.207.029-.354.087-.327.13.027.044-.025.08-.116.08-.09 0-.287.065-.435.142-.15.078-.363.118-.475.09-.178-.045-.492.069-1.142.412-.086.045-.332.106-.547.136-.215.03-.49.103-.611.161-.172.084-.229.082-.259-.007-.052-.155-.34-.143-.475.019-.06.073-.291.16-.513.193-.222.033-.427.096-.454.14-.027.045-.157.081-.289.081a2.17 2.17 0 0 0-.518.086c-1.048.319-1.655.414-1.742.273-.03-.049-.103-.058-.162-.02-.15.094-1.225.38-1.612.428-.175.022-.585.066-.91.099-.325.032-.648.106-.717.164-.077.063-.385.093-.789.076-.395-.016-.687.011-.722.069-.033.053-.179.071-.33.041-.156-.03-.27-.015-.27.039 0 .05-.112.112-.25.137l-1.05.193c-.439.082-.95.13-1.136.107-.229-.029-.39.005-.498.102-.175.159-.698.29-1.389.35a2.98 2.98 0 0 0-.842.224c-.22.104-.58.184-.823.184-.237 0-.608.068-.823.15-.361.138-.382.163-.253.305.077.085.37.27.649.412.28.142.533.323.562.402.03.08.22.311.424.515.734.735 1.328 1.4 1.328 1.488 0 .152.377.216.594.1.138-.074.258-.082.363-.023.15.084.563-.007.847-.19.069-.044.174-.03.251.035.086.071.173.08.247.024.285-.215 2.348-.687 2.49-.57.063.053.17.018.293-.097.107-.1.26-.18.34-.18.081 0 .237-.05.346-.11a.77.77 0 0 1 .39-.087c.11.014.317-.095.49-.256.164-.154.36-.269.435-.256.091.016.147-.065.167-.24.036-.32.122-.38.643-.452.22-.03.492-.115.604-.189.113-.073.372-.16.576-.193.334-.053.387-.034.533.19.131.2.143.29.062.47-.086.188-.066.267.127.521.285.374.285.49-.004 1.122-.129.28-.258.636-.289.792-.03.155-.146.426-.257.601-.111.176-.279.54-.372.81-.095.272-.263.552-.376.626a.452.452 0 0 0-.205.402c0 .146-.08.353-.18.458-.097.106-.205.38-.239.612-.07.49-.177.72-.426.922-.111.09-.193.288-.213.517-.03.327-.513 1.524-.597 1.478-.017-.01-.124.011-.236.047-.213.067-.354.41-.266.64.03.08-.12.31-.377.579-.479.499-.795.716-1.11.762a.484.484 0 0 0-.312.21c-.177.314-.227.35-1.122.819-.254.133-.534.321-.623.42-.088.097-.24.178-.338.178-.097 0-.274.077-.395.171-.12.095-.403.2-.63.234-.225.034-.41.097-.41.141 0 .044-.072.082-.16.085-.636.02-1.742.167-1.896.254-.118.066-.236.074-.32.021-.179-.113-1.248-.109-1.286.006-.03.09-.527.136-2.388.225-.494.023-.966.058-1.048.077-.082.02-.354 0-.604-.043zm4.859-.14c.066-.026.144-.023.175.008.03.03-.024.051-.12.047-.106-.005-.128-.026-.055-.055zm101.537-13.333c-.166-.089-.518-.192-.78-.228-.263-.036-.5-.102-.528-.147-.028-.046-.305-.059-.616-.03-1.408.13-2.76.189-2.845.122-.051-.04-.38-.12-.73-.177-.635-.105-1.635-.381-1.935-.535l-.66-.337c-.49-.25-.769-.464-1.262-.97-.607-.624-1.199-1.414-1.199-1.601 0-.07-.059-.237-.131-.37-.306-.562-.41-1.16-.422-2.43-.007-.701.035-1.583.094-1.959.06-.376.13-.93.157-1.23.047-.519.372-1.647.616-2.142.062-.126.164-.523.226-.884.103-.598.149-.69.517-1.028.334-.308.433-.356.578-.279.252.135.317.432.184.835-.097.296-.091.452.041 1.015.124.524.146.912.107 1.833-.03.718-.014 1.236.043 1.342.077.144.196.174.698.174.333 0 .732-.039.886-.086.154-.047.508-.13.787-.185.28-.055.805-.244 1.169-.42.814-.396.94-.62.838-1.486-.061-.523-.104-.61-.448-.929-.209-.193-.38-.432-.38-.532 0-.338.205-1.147.308-1.216.267-.178 2.571.403 3.054.77.12.09.296.164.391.164.096 0 .271.097.39.215.118.119.358.304.533.412.2.124.374.336.468.57.082.205.332.598.556.873.224.274.407.539.407.587 0 .19.577.605.903.648.616.083 1.676-.038 1.922-.22.284-.209 1.06-.51 1.768-.684.72-.177 1.159-.422 1.997-1.116.816-.674 1.026-.976 1.115-1.604.036-.25.1-.5.142-.553.043-.053.089-.238.103-.41.021-.264-.006-.317-.18-.342-.16-.022-.234-.134-.344-.513-.123-.421-.124-.532-.014-.854.075-.217.11-.556.084-.826-.063-.648.023-.922.286-.922.28 0 .642.29.781.627.063.153.204.291.325.322.118.03.24.136.272.236.032.1.095.182.141.182.046 0 .167.154.27.342.365.67.597 1.018.93 1.398.185.212.362.496.391.631.03.136.175.362.323.504.166.159.27.35.27.5 0 .133.098.357.219.498.12.14.246.43.278.643.047.313.101.4.281.444.123.031.224.1.224.152 0 .053.062.158.137.233a.558.558 0 0 1 .14.335.76.76 0 0 0 .136.376.666.666 0 0 1 .134.32c0 .08.164.343.365.585.2.243.367.488.37.546.028.465.116.762.277.934.219.233.402 1.4.313 1.995-.03.2-.054.492-.053.648a.63.63 0 0 1-.18.447c-.1.09-.182.209-.184.264-.006.166-.3.724-.562 1.06-.135.173-.521.46-.858.635-.337.175-.684.386-.77.469-.087.083-.398.218-.691.301-.53.15-.803.261-1.766.721-.276.132-.584.24-.683.241-.1 0-.299.078-.442.173-.2.131-.434.173-.988.177-.4.003-.774.044-.832.092-.059.048-.312.117-.562.153-.251.036-.506.105-.566.153-.06.048-.153.06-.206.028-.052-.032-.228-.017-.391.034-.543.17-2.558.378-4.004.414-1.24.03-1.47.013-1.733-.128zm-17.71-12.67c-.1-.044-.4-.084-.665-.087-.53-.007-.835-.134-1.52-.633a5.612 5.612 0 0 0-.794-.484c-.187-.084-.643-.454-1.013-.82a22.545 22.545 0 0 0-1.108-1.032 23.24 23.24 0 0 1-1.254-1.122 5.46 5.46 0 0 0-.596-.526c-.163-.13-.297-.284-.298-.342 0-.059-.189-.311-.419-.562-.799-.872-.89-1.228-.412-1.604.25-.197.51-.199 1.217-.01.256.068.378.06.501-.034a.654.654 0 0 1 .315-.126c.083-.002.165-.035.182-.074.03-.071.542-.296 1.215-.534.201-.071.447-.167.547-.212.1-.046.386-.17.635-.275.25-.105.482-.24.519-.298.048-.078.111-.066.232.044.174.157.453.165.559.016.09-.129.542-.31.771-.311.11 0 .319-.062.462-.137.144-.075.333-.136.422-.136.088 0 .34-.065.559-.143.39-.14 2.047-.552 2.586-.644.15-.025.356-.08.456-.122l.501-.209c.176-.073.524-.186.775-.25a4.69 4.69 0 0 0 .707-.244 2.03 2.03 0 0 1 .592-.158 7.797 7.797 0 0 0 1.023-.225c.375-.106.783-.193.905-.193.123 0 .35-.037.504-.083.628-.187 1.511-.372 1.77-.372.15 0 .338-.065.416-.143.079-.078.186-.116.239-.083.052.032.145.02.206-.03.06-.048.253-.11.429-.139.175-.028.536-.103.803-.166.413-.099.497-.096.571.017.075.114.1.11.181-.026.052-.088.197-.16.324-.16.126 0 .31-.043.41-.096.128-.069.268-.068.48.001.238.079.45.063 1.032-.075.403-.097.81-.217.904-.267.095-.051.366-.07.604-.044.27.03.48.008.563-.06.16-.133 2.015-.217 2.23-.102.089.047.452.043.878-.01.4-.05.961-.106 1.248-.123.287-.017.595-.052.684-.078.171-.05 1.578-.128 3.516-.194.642-.022 1.2-.06 1.24-.086.04-.024 1.074-.067 2.297-.094 1.223-.027 2.88-.074 3.682-.104s1.936-.061 2.519-.068c1.2-.014 1.25-.041 1.639-.879.105-.225.407-.861.673-1.412.265-.552.547-1.158.625-1.348.079-.19.2-.402.27-.472.07-.07.242-.489.382-.931.14-.442.308-.929.373-1.081.065-.153.166-.481.225-.73.059-.248.143-.546.187-.66a1.55 1.55 0 0 0 .08-.461c0-.138.036-.29.081-.338.183-.194.269-1.011.191-1.818-.127-1.325-.15-1.446-.353-1.89-.106-.234-.193-.486-.193-.56 0-.306-.488-1.697-.825-2.35-.198-.384-.36-.762-.36-.84 0-.078-.123-.282-.273-.454a2.524 2.524 0 0 1-.407-.687 3.632 3.632 0 0 0-.432-.779 14.298 14.298 0 0 1-.608-.911c-.17-.279-.343-.507-.386-.507-.042 0-.166-.173-.274-.385a2.885 2.885 0 0 0-.435-.62c-.13-.13-.443-.47-.694-.757-.25-.287-.569-.649-.707-.803a3.006 3.006 0 0 1-.398-.59c-.08-.17-.193-.309-.25-.309-.057 0-.309-.207-.56-.46-.25-.254-.507-.51-.571-.57-.065-.06-.474-.447-.91-.861-.436-.414-.841-.752-.9-.752-.06 0-.347-.229-.64-.508-.293-.28-.676-.583-.852-.675a2.077 2.077 0 0 1-.513-.391c-.107-.124-.383-.32-.614-.435-.23-.115-.444-.287-.474-.382-.03-.094-.205-.24-.389-.325-.184-.085-.652-.41-1.041-.723-.39-.313-.82-.593-.957-.624-.357-.08-.842-.307-.842-.395 0-.176-.861-.737-1.132-.738-.31 0-.53-.31-.447-.627.063-.24-.12-.326-.7-.328-.383 0-.5-.034-.501-.138-.001-.075-.084-.138-.185-.14-.102-.002-.285-.074-.408-.16-.122-.086-.27-.156-.329-.156-.27 0-1.038-.596-1.038-.805 0-.037-.188-.122-.417-.19-.23-.067-.465-.2-.523-.293-.059-.094-.158-.17-.221-.17s-.115-.041-.115-.091c0-.05-.055-.092-.121-.092s-.216-.101-.333-.226c-.216-.23-.526-.239-.8-.023-.062.05-.113.053-.113.008s-.144-.159-.32-.253c-.175-.095-.318-.207-.318-.25 0-.043-.195-.17-.433-.282-.238-.112-.455-.232-.48-.267-.09-.117-.557-.256-.863-.256-.252 0-.341-.057-.505-.322-.136-.22-.233-.296-.304-.238-.16.128-.671.055-1.188-.171a27.655 27.655 0 0 0-.694-.294c-.47-.186-.883-.423-1.108-.638-.092-.088-.208-.16-.258-.16-.099 0-.314-.17-.764-.602-.162-.155-.522-.368-.8-.472a4.897 4.897 0 0 1-.852-.424c-.19-.128-.4-.234-.469-.234-.068 0-.124-.03-.124-.069 0-.08-.56-.346-.664-.314-.04.011-.204-.102-.365-.253-.16-.15-.356-.274-.435-.275-.078 0-.26-.123-.404-.274-.144-.15-.329-.273-.41-.273a.67.67 0 0 1-.325-.134c-.097-.073-.23-.135-.296-.137-.262-.006-1.182-.511-1.61-.884a5.526 5.526 0 0 0-.958-.645c-.276-.138-.516-.282-.533-.32-.017-.037-.083-.068-.147-.068-.065 0-.215-.076-.335-.169a1.32 1.32 0 0 0-.49-.218c-.15-.026-.5-.11-.775-.185a10.478 10.478 0 0 0-.88-.2c-.209-.033-.455-.118-.547-.188a.67.67 0 0 0-.32-.13c-.083-.002-.37-.147-.636-.322-.266-.176-.53-.32-.586-.32-.056 0-.197-.081-.313-.182-.115-.1-.265-.182-.332-.182-.316 0-2.357-2.122-2.53-2.63a1.9 1.9 0 0 0-.25-.458c-.093-.12-.17-.284-.172-.365a.697.697 0 0 0-.136-.324.689.689 0 0 1-.134-.342c0-.09-.041-.165-.091-.165-.05 0-.092-.099-.092-.22 0-.313-.094-.518-.206-.449-.052.033-.072.022-.044-.024.062-.1-.101-1.048-.203-1.175-.04-.05-.063-.265-.05-.478.015-.24-.024-.425-.101-.49-.069-.056-.125-.239-.125-.405 0-.167-.043-.33-.095-.362-.052-.032-.09-.25-.084-.484.01-.363-.214-1.921-.326-2.271a1.372 1.372 0 0 1-.046-.183.605.605 0 0 0-.134-.205c-.083-.092-.122-.355-.117-.78.006-.484-.034-.708-.162-.903-.283-.432-.133-1.05.255-1.05.158 0 .177.051.148.41-.018.226-.006.41.026.41.107 0 .626.58.626.7 0 .23.78 1.28 1.071 1.443.173.096.297.237.297.338 0 .095.039.15.086.12.048-.03.136.039.197.152.06.113.206.282.324.374.118.093.272.227.344.298.071.072.226.13.344.13.119 0 .376.082.573.182.197.1.444.182.549.182.105 0 .426.142.713.315.287.173.674.365.86.428.187.063.387.172.446.241.11.13.482.354 1.01.608.27.13.492.287.785.554.057.052.25.163.43.247.179.085.425.252.546.372.122.12.354.286.517.37.163.083.297.188.297.232 0 .044.092.057.205.03.112-.028.174-.018.137.022-.1.11.106.316.257.258.071-.028.13-.01.13.041 0 .143.514.658.656.658.07 0 .384.246.696.546.312.301.6.547.641.547.04 0 .243.154.449.342 1.051.959 1.798 1.572 1.914 1.572.052 0 .108.031.125.069.017.037.461.41.988.827.526.417 1.117.889 1.312 1.048.196.16.398.305.449.325.05.02.207.153.347.296.14.144.316.26.39.26.074 0 .188.073.254.16a2.8 2.8 0 0 0 .438.4c.175.133.5.41.721.616.222.206.434.374.472.374.038 0 .124.053.19.118.066.064.285.217.485.339.2.122.406.254.456.294.376.3 1.341.981 1.39.981.032 0 .163.099.291.22.128.12.362.295.519.387.479.282 1.971 1.286 2.344 1.579.194.151.42.276.502.276.082 0 .3.144.485.319.185.175.383.318.441.318.058 0 .21.082.338.183.127.1.303.182.39.182a.41.41 0 0 1 .273.137c.062.075.17.136.24.136.071 0 .306.164.524.365.217.2.463.364.546.364.082 0 .385.16.673.354.288.195.626.385.751.423.125.039.392.2.593.359.504.4.834.596.999.596.077 0 .218.078.313.174.096.095.27.202.388.237.117.035.365.182.55.328.185.145.394.264.465.264.07 0 .202.082.292.182.091.1.21.183.265.184.055.001.203.083.328.18.125.099.3.18.387.181.088 0 .16.044.16.095 0 .052.092.135.205.185.113.05.333.185.49.3.36.265 1.068.815 1.128.878.025.026.178.122.341.212.163.09.486.337.718.547.233.21.46.372.505.36.045-.014.105.037.134.113.03.076.152.138.273.138.152 0 .248.071.307.227.048.126.144.228.215.228.07 0 .272.134.449.297.924.85 1.257 1.144 1.623 1.435.221.176.706.627 1.077 1.003.372.376.71.673.752.66.042-.012.077.036.077.108 0 .071.43.564.957 1.094.527.53.957 1.002.957 1.049 0 .046.076.108.169.138.092.03.215.155.272.28.056.125.224.36.372.523.654.718 1.283 1.575 1.466 1.997.05.117.236.397.412.622.176.226.432.591.569.812.137.221.356.529.486.684.325.387 1.085 1.557 1.085 1.67 0 .052.059.142.13.202.073.06.158.226.19.37.03.143.118.311.193.373.153.128.49.786.49.958 0 .063.062.176.139.252.201.202.588 1.069.589 1.32 0 .12.1.406.223.639.21.4.307.736.517 1.79.05.25.15.62.224.82.158.434.325 3.954.207 4.374-.042.15-.077.478-.079.73 0 .25-.045.62-.097.82-.053.2-.136.59-.185.866-.049.276-.19.722-.312.991-.123.27-.224.526-.224.57 0 .045-.078.256-.175.468-.32.709-.319.754.038.864.198.06.641.075 1.163.038 1.085-.078 2.4-.067 2.784.023.194.046.345.032.43-.038.083-.069.288-.089.566-.054.24.03.647.064.905.077.259.013.447.06.418.107-.031.05.018.052.123.004.096-.045 1.548-.083 3.228-.085 2.966-.004 3.053-.01 3.053-.182 0-.312.606-.347 3.236-.185.476.029 1.407.068 2.07.087.95.027 1.261.069 1.48.198.338.2.357.424.048.565a.698.698 0 0 0-.316.334c-.053.138-.159.229-.269.229-.1 0-.225.082-.279.182-.053.1-.14.182-.192.182-.052 0-.208.113-.346.251-.233.233-.886.478-1.272.478-.258 0-.742.272-.742.417 0 .072-.085.13-.188.13-.28 0-.541.168-.541.348 0 .186-.668.417-1.154.399-.167-.007-.304.027-.304.074s-.058.063-.128.036c-.07-.027-.154-.005-.188.049-.033.053-.174.097-.314.097a.627.627 0 0 0-.409.171c-.085.095-.315.197-.51.229-.269.042-.385.118-.475.307-.066.137-.209.263-.318.278a.56.56 0 0 0-.306.16c-.139.166-.27.169-.27.004 0-.446-1.123-.193-1.242.28-.052.208-.09.226-.39.178-.282-.045-.344-.023-.42.15-.08.182-.162.205-.803.223-.533.015-.79.067-1.013.205a1.333 1.333 0 0 1-.58.185c-.168 0-.316.062-.367.152-.073.131-.319.157-1.804.19-1.049.022-1.88.083-2.13.157-.553.162-2.222.363-2.413.29-.086-.033-.212 0-.288.076-.12.12-.173.12-.46 0-.382-.16-.79-.174-1.044-.038-.13.07-.216.069-.302-.002-.215-.179-1.012-.213-1.315-.056a1.536 1.536 0 0 1-.593.143c-.174 0-.378.061-.453.136a.651.651 0 0 1-.305.162c-.093.014-.331.127-.53.251-.2.124-.517.295-.705.38-.289.131-.342.135-.342.023 0-.072-.076-.132-.167-.132-.092 0-.318-.15-.502-.334-.184-.184-.337-.317-.341-.296-.101.552-.175.71-.362.768-.109.035-.178.139-.178.268 0 .217-.315.386-.416.222a.1.1 0 0 0-.137-.031c-.047.028-.085-.076-.085-.233v-.285l-.266.19c-.447.318-.764.333-1.047.05-.184-.183-.302-.231-.467-.19-.453.114-.945-.047-1.403-.458-.517-.466-.691-.49-2.226-.315-.544.062-1.098.083-1.23.047-.447-.12-1.245-.156-2.157-.094-.707.048-.82.051-1.372.038-.253-.005-.543.034-.645.088-.138.074-.285.064-.587-.04-.379-.13-.596-.128-1.406.013-.384.067-.415.066-.794-.005-.186-.035-.411-.032-.501.008-.536.232-1.085.386-1.15.322-.104-.102-.856-.018-1.285.144a2.937 2.937 0 0 1-.82.142c-.255.005-.574.063-.71.131a1.225 1.225 0 0 1-.447.124c-.111 0-.39.116-.62.259-.23.142-.582.302-.783.355-.903.24-1.203.314-1.458.363-.15.03-.323.118-.384.199-.085.11-.112.116-.114.02-.002-.088-.037-.098-.117-.033-.063.05-.334.138-.603.194-.268.057-.586.18-.705.274-.12.094-.412.2-.65.235-.24.036-.537.118-.663.182a4.342 4.342 0 0 1-.592.225c-.2.06-.447.142-.547.184a9.6 9.6 0 0 1-.775.231c-.326.086-.736.211-.911.278-.176.067-.627.211-1.003.32-.376.11-.855.26-1.064.335-.21.074-.435.116-.502.092-.066-.024-.196.023-.289.104a1.623 1.623 0 0 1-.501.246c-.183.054-.323.144-.312.199.011.055-.204.147-.479.204-.274.058-.499.142-.499.188 0 .046-.133.139-.296.207-.163.068-.353.192-.421.275-.07.082-.193.15-.276.15-.083 0-.242.064-.353.142-.226.158-1.015.41-1.434.458a5.07 5.07 0 0 0-.456.076.67.67 0 0 1-.364-.035zm54.734-9.026c-.104-.067-.063-.089.165-.09.178 0 .278.036.245.09-.07.115-.233.115-.41 0zM43.127 83.344c-.036-.094-.22-.329-.41-.522-.19-.194-.5-.63-.687-.97-.188-.34-.436-.715-.551-.833-.214-.22-.394-.713-.395-1.083 0-.113-.053-.205-.117-.205s-.164-.127-.223-.281c-.087-.231-.073-.415.08-1.026.1-.409.242-.777.313-.817.077-.043.13-.217.13-.433 0-.198.04-.36.092-.36.056 0 .087-.28.08-.706-.015-.833.122-2.031.36-3.154.133-.622.152-.888.082-1.164-.075-.293-.064-.389.057-.523.1-.11.149-.33.149-.673 0-.297.042-.524.102-.544.057-.019.121-.258.144-.531.022-.274.075-.6.117-.726.042-.125.13-.674.195-1.22.064-.546.16-1.038.212-1.094.053-.056.104-.306.115-.557a4.3 4.3 0 0 1 .148-.881c.071-.234.11-.522.088-.64-.023-.119.044-.431.148-.695.104-.264.189-.583.189-.71 0-.126.038-.206.085-.177.047.03.11-.142.14-.382.029-.239.1-.578.156-.753a2.97 2.97 0 0 0 .12-.593c.023-.392.246-1.078.385-1.185.065-.05.196-.494.291-.986.096-.492.235-.964.31-1.048.076-.084.226-.417.335-.74.108-.321.277-.743.375-.937.099-.193.157-.388.13-.433-.029-.045-.01-.107.041-.139.051-.031.093-.136.093-.234 0-.097.044-.177.097-.177.053 0 .084-.092.068-.205-.017-.123.016-.196.082-.183.061.012.09-.034.064-.101-.026-.068.057-.248.185-.4.128-.152.233-.316.233-.365 0-.048.078-.187.172-.307.095-.12.226-.403.291-.628.065-.225.21-.521.323-.659a1.73 1.73 0 0 0 .263-.435c.032-.103.158-.286.28-.407.121-.121.22-.306.22-.41 0-.104.062-.213.136-.242.075-.028.184-.21.242-.406.059-.194.203-.416.32-.494.118-.077.214-.185.214-.241 0-.123.376-.482.592-.565.09-.035.134-.117.105-.193-.028-.073-.017-.154.024-.18.042-.025.099-.162.127-.302.028-.141.198-.412.376-.601.18-.19.326-.375.326-.411 0-.036.287-.364.638-.729.35-.364.638-.695.638-.736 0-.04.21-.274.466-.518.257-.245.555-.543.661-.663.107-.12.425-.453.707-.741s.64-.709.795-.934c.159-.231.38-.435.509-.467.138-.034.21-.104.182-.177-.026-.067.142-.275.387-.477.238-.197.543-.47.678-.609.135-.138.28-.252.322-.253.043 0 .18-.147.306-.323.125-.176.355-.39.511-.476.54-.296 1.039-.66 1.151-.84.062-.1.175-.182.25-.184.077 0 .446-.252.822-.556.376-.305.776-.597.889-.65.113-.053.205-.13.205-.17 0-.042.133-.142.296-.224.163-.083.399-.244.524-.359.126-.115.427-.3.67-.413.242-.113.462-.262.489-.332.027-.07.197-.206.38-.303.394-.21.831-.59.831-.723 0-.053.036-.096.08-.096.043 0 .279-.156.523-.347.43-.337 1.397-.854 1.676-.898.075-.011.202-.102.283-.202.228-.282.815-.649 1.037-.649.11 0 .275-.082.366-.182.09-.1.201-.183.246-.183.097 0 .653-.382.696-.478.017-.038.083-.068.147-.068.064 0 .271-.123.46-.274.19-.15.39-.273.447-.273.198 0 .831-.38 1.03-.618.111-.133.23-.213.263-.18.083.083.55-.167.612-.328.028-.07.525-.367 1.105-.658.58-.29 1.055-.558 1.055-.593 0-.035.216-.132.479-.216.72-.23 1.34-.538 1.343-.666 0-.062.045-.114.099-.114.054 0 .159-.061.234-.136a.503.503 0 0 1 .303-.137c.091 0 .188-.057.214-.125.026-.07.241-.155.477-.19s.475-.103.532-.15c.323-.27.948-.626 1.104-.63.1-.001.285-.083.41-.181.126-.098.28-.18.342-.18.063-.001.114-.039.114-.084 0-.044.189-.136.42-.204.23-.068.454-.19.497-.272.049-.09.258-.171.543-.209.276-.036.484-.115.514-.194.028-.073.108-.133.177-.133.07 0 .212-.072.317-.16l.38-.319c.115-.098.34-.16.581-.16.3 0 .416-.043.49-.18.054-.1.223-.247.377-.327.268-.138.39-.177.9-.287.125-.026.33-.14.455-.254.358-.322.622-.425 1.019-.396.264.019.4-.018.482-.13.063-.087.161-.157.219-.157.057 0 .103-.036.103-.08 0-.045.195-.15.433-.236l.73-.261c.162-.058.296-.137.296-.175 0-.037.1-.068.222-.068.123 0 .245-.037.273-.081.027-.045.19-.107.36-.14.171-.031.362-.118.423-.192a.405.405 0 0 1 .26-.137.697.697 0 0 0 .325-.137.696.696 0 0 1 .348-.134c.093 0 .394-.102.668-.228.274-.125.572-.227.66-.227.09 0 .243-.06.34-.134.097-.074.311-.135.476-.137.168-.002.32-.058.347-.129.027-.07.244-.151.488-.184a3.01 3.01 0 0 0 .84-.27c.22-.118.594-.242.83-.278.236-.035.488-.123.56-.196.073-.072.171-.13.22-.13.047 0 .204-.062.348-.137.143-.075.322-.137.397-.138.075-.001.301-.061.502-.133.2-.073.528-.134.729-.136.2-.003.492-.082.647-.177.156-.095.576-.226.934-.293.407-.075.652-.164.652-.237 0-.138.11-.152.233-.03.097.098 1.043-.142 1.043-.263 0-.04.252-.098.56-.13.309-.032.61-.1.672-.151.182-.151 1.057-.382 1.253-.33.1.025.269-.008.375-.075.106-.066.599-.209 1.094-.315.496-.107.933-.215.973-.239.04-.024.27-.065.512-.09.242-.024.625-.07.85-.1.226-.031.554-.069.73-.083.542-.045 1.494-.22 1.686-.31.1-.047.518-.102.929-.122.41-.02.8-.078.866-.13.179-.141.62-.228.62-.122 0 .091.996.042 1.276-.064.32-.12.532-.152 1.048-.156.301-.003.572-.039.603-.08.03-.042.543-.083 1.139-.092l1.084-.015.06-.488c.067-.554.14-.659.503-.715.568-.088.621-.078.65.132.017.113.064.205.106.205.041 0 .104.246.14.547.04.35.104.547.18.547.063 0 .167.133.23.296.118.31.572 1.254.838 1.743.085.157.157.374.16.484.001.109.065.26.14.335.076.075.137.22.137.32s.036.205.079.232c.043.027.102.224.132.438.03.215.121.526.204.692.202.404.32 1.535.312 2.98-.007 1.213-.025 1.35-.225 1.822-.409.964-.517 1.143-.774 1.276-.151.078-.275.181-.275.229 0 .186-.745.459-1.407.515-.561.047-.724.03-.924-.102a1.438 1.438 0 0 0-.603-.177c-.198-.01-.39-.068-.427-.128-.037-.06-.23-.125-.427-.146-.447-.045-.86-.202-.86-.325 0-.051-.098-.093-.217-.093a.483.483 0 0 1-.33-.137c-.147-.177-.283-.177-.215 0 .032.085 0 .137-.087.137-.076 0-.156-.052-.177-.114-.046-.136-3.193-.156-3.489-.023-.224.101-.496.143-1.136.176-.877.044-1.774.162-1.882.249-.058.046-.344.105-.635.132-.292.027-.571.074-.621.105-.106.065-.403.109-.941.137-.224.012-.387.066-.387.128 0 .059-.154.156-.342.217-.188.06-.383.14-.433.177-.05.037-.317.095-.593.13a6.523 6.523 0 0 0-.84.162c-.256.076-.371.073-.472-.01-.108-.09-.168-.077-.307.062-.115.115-.319.178-.609.19-.405.015-.925.218-1.069.418-.037.05-.112.042-.19-.021-.099-.083-.206-.066-.481.074-.195.1-.458.18-.585.18a1.33 1.33 0 0 0-.505.145c-.15.08-.438.156-.638.17-.516.037-.52.039-.447.155.037.06.025.08-.028.048-.05-.031-.323.024-.604.123-.282.099-.595.18-.698.18-.102 0-.482.086-.845.19-.363.106-.762.215-.888.243-.125.029-.268.1-.319.16-.05.059-.431.182-.847.274-.416.092-.778.202-.804.244-.026.042-.085.053-.132.024-.047-.028-.176.012-.287.09-.112.078-.358.142-.548.142-.189 0-.344.04-.344.09 0 .049-.1.114-.224.145a.728.728 0 0 0-.329.182c-.076.092-.15.101-.277.034-.12-.065-.172-.063-.172.006 0 .118-.613.39-.723.322-.043-.026-.128.013-.19.087-.061.075-.281.186-.488.247-.207.06-.431.164-.497.228-.067.064-.268.117-.447.117-.2 0-.436.082-.61.212-.154.116-.548.317-.874.446-.325.13-.827.343-1.115.474-.287.132-.644.264-.793.293a.907.907 0 0 0-.425.226c-.086.095-.23.172-.319.172-.09 0-.186.038-.214.084-.029.047-.184.113-.345.149a1.853 1.853 0 0 0-.845.42c-.1.085-.367.225-.592.312-.413.16-.908.46-1.015.613-.031.046-.076.028-.1-.04-.036-.1-.105-.091-.353.047-.17.094-.35.217-.4.274-.05.056-.44.278-.867.493-.426.215-.877.45-1.002.522a1.003 1.003 0 0 1-.382.133c-.085 0-.18.043-.212.094-.03.05-.187.147-.347.214-.16.067-.565.333-.902.59-.336.26-.67.47-.74.47-.071 0-.18.062-.243.137a.417.417 0 0 1-.279.137c-.09 0-.351.16-.578.357a2.634 2.634 0 0 1-.918.504c-.278.081-.555.226-.615.322-.08.13-.14.15-.226.077-.087-.072-.119-.064-.121.028-.004.144-.244.331-.873.68-.245.136-.536.344-.647.461-.11.118-.257.214-.327.214s-.201.082-.292.182c-.09.1-.252.183-.359.183-.106 0-.329.124-.495.275a4.197 4.197 0 0 1-.67.479c-.59.324-.698.392-.875.553-.092.083-.208.151-.256.151-.049 0-.333.157-.631.35a18.62 18.62 0 0 1-.861.523c-.176.096-.616.39-.98.654-.362.263-.7.478-.751.478-.05 0-.092.034-.092.076 0 .042-.113.134-.25.205a2.43 2.43 0 0 0-.428.289c-.097.088-.212.16-.256.16-.143 0-.707.498-.707.624 0 .074-.056.102-.139.07-.076-.028-.22.029-.319.128s-.213.18-.253.18c-.04 0-.21.142-.379.315-.167.173-.416.34-.553.37-.136.03-.341.153-.455.274-.114.121-.242.199-.285.172-.043-.026-.078 0-.078.059 0 .117-.768.906-.884.908-.04 0-.258.164-.483.364-.226.199-.482.386-.57.415-.088.028-.16.085-.16.126 0 .094-2.805 2.922-2.899 2.922-.038 0-.147.133-.242.296-.095.163-.37.525-.612.804-.241.28-.44.561-.44.625 0 .065-.058.094-.131.066-.09-.034-.115-.006-.08.086.032.084.005.125-.071.109-.068-.015-.137.064-.154.178-.017.113-.08.206-.14.206-.058 0-.27.257-.47.57-.2.313-.408.61-.464.66-.055.05-.217.296-.358.547-.142.25-.395.599-.563.773-.168.175-.285.372-.26.437.025.065-.014.141-.087.17-.073.027-.19.16-.259.292-.552 1.062-.882 1.755-.883 1.855 0 .065-.101.213-.223.329-.122.116-.309.444-.415.73a8.137 8.137 0 0 1-.415.917c-.122.22-.221.455-.221.524s-.035.125-.077.125c-.042 0-.128.175-.19.388a14.94 14.94 0 0 1-.37 1.025c-.421 1.055-.46 1.174-.482 1.482-.011.162-.045.295-.075.295s-.104.236-.166.525c-.061.288-.187.79-.28 1.116-.093.326-.21.818-.262 1.094-.052.276-.154.809-.228 1.185a59.91 59.91 0 0 0-.289 1.64c-.085.527-.187 1.08-.227 1.23-.04.151-.122.623-.182 1.05-.06.425-.146.876-.19 1.002-.046.125-.122.535-.17.911-.048.376-.13.889-.182 1.14-.053.25-.177.906-.276 1.458-.171.945-.34 1.717-.557 2.552a9.16 9.16 0 0 0-.143.658c-.027.16-.106.34-.176.398-.07.058-.127.153-.127.21 0 .058-.126.258-.28.445-.237.287-.336.34-.638.34-.197 0-.358-.041-.358-.091 0-.147-.198-.105-.325.068-.112.151-.121.15-.184-.01zm67.204-57.08c-.03-.03-.109-.034-.175-.008-.072.03-.05.05.055.055.097.004.15-.017.12-.048zM19.647 61.257c.066-.026.145-.023.175.007s-.024.052-.12.048c-.106-.004-.128-.026-.055-.055z" style="fill:#000;stroke-width:.0911473"/>
</svg>
