<svg xmlns="http://www.w3.org/2000/svg" xml:space="preserve" width="210mm" height="297mm" viewBox="0 0 210 297">
  <path d="M109.152 264.764c-.02-.02-.477-.11-1.017-.202-.706-.12-1.035-.137-1.177-.062-.146.079-.227.07-.313-.034-.09-.108-.179-.115-.407-.029-.21.08-.392.08-.653 0-.199-.062-.384-.076-.411-.032-.027.044-.175.102-.329.128-.153.027-.354.08-.446.12-.106.046-.234-.001-.353-.129-.103-.11-.366-.233-.583-.274-.342-.063-.387-.05-.332.093.046.119.007.166-.135.166-.11 0-.2-.043-.2-.095 0-.113.012-.112-1.71-.138-.975-.015-1.368-.055-1.398-.146-.03-.092-.094-.098-.24-.02-.138.075-.498.07-1.213-.017-.833-.101-1.032-.1-1.1.009-.062.102-.22.113-.673.047-.325-.047-1.03-.073-1.566-.058-.749.022-1.05-.01-1.297-.138-.236-.122-.356-.137-.454-.055-.092.076-.36.082-.877.018-.431-.053-.785-.055-.84-.003-.151.14-.433.105-.497-.062-.06-.156-.62-.216-.707-.076-.085.138-2.693.09-2.78-.052-.056-.09-.3-.116-.83-.089-.534.027-.814-.003-.97-.106-.174-.114-.305-.122-.618-.038-.277.075-.568.075-.97.001-.315-.058-.618-.078-.673-.044-.055.034-.1-.009-.1-.096 0-.214-.265-.2-.35.02-.065.167-.076.167-.203-.006-.08-.11-.16-.142-.199-.08-.035.056-.187.1-.338.098a2.517 2.517 0 0 0-.545.065c-.36.092-1.778-.144-1.588-.264.104-.066.083-.089-.082-.09-.122-.001-.251.047-.288.105-.036.06-.188.08-.338.048a4.92 4.92 0 0 0-.774-.065c-.517-.004-1.16-.172-1.275-.33-.037-.052-.205-.041-.394.024-.552.193-1.172.146-1.407-.106-.172-.184-.206-.193-.206-.052 0 .15-.164.168-1.47.166-1.418-.002-1.81-.044-1.724-.181.022-.036-.693-.079-1.59-.095-1.075-.02-1.654-.068-1.7-.144-.04-.062-.234-.118-.433-.122-.2-.004-.362-.03-.363-.059 0-.027-.125-.056-.278-.064a4.676 4.676 0 0 1-.607-.081c-.185-.039-.328-.028-.328.026 0 .141-.597.233-.803.123-.098-.053-.538-.12-.977-.149a20.798 20.798 0 0 1-.9-.07c-.055-.012-.381.012-.724.051-.399.046-.647.034-.688-.034-.036-.058-.006-.106.067-.106.096-.001.09-.029-.02-.1-.198-.128-.678-.128-.758 0-.078.127-.657.134-.657.008 0-.105-.842-.384-1.188-.394-.125-.003-.227.037-.227.089 0 .175-.732.097-1.076-.116-.457-.282-1.677-.483-2.555-.42-.497.036-.762.012-.87-.078-.085-.07-.184-.1-.218-.066-.035.035-.141-.026-.237-.136-.148-.171-.238-.188-.618-.117-.254.047-.566.043-.725-.01-.19-.062-.325-.055-.42.024-.099.082-.196.086-.326.014-.338-.19-1.495-.626-1.752-.662a16.25 16.25 0 0 0-1.01-.07c-.42-.02-.819-.093-.893-.163a.542.542 0 0 0-.322-.126c-.104 0-.217-.045-.252-.101-.034-.056-.144-.101-.245-.101-.1 0-.302-.094-.448-.21-.174-.136-.339-.186-.474-.143-.114.036-.272.012-.351-.053-.08-.066-.452-.142-.83-.17-.377-.028-.714-.098-.75-.155a.126.126 0 0 0-.173-.037c-.06.038-.167-.025-.238-.138a.48.48 0 0 0-.387-.206c-.143 0-.303-.044-.357-.098-.053-.053-.37-.125-.702-.16a7.16 7.16 0 0 1-1.313-.307c-.39-.135-.811-.26-.937-.276a.714.714 0 0 1-.349-.152.485.485 0 0 0-.298-.12c-.098 0-.41-.09-.691-.202-.282-.111-.674-.202-.87-.202-.21 0-.33-.041-.293-.1.038-.062-.105-.095-.368-.084-.252.009-.446-.032-.469-.102-.021-.065-.178-.118-.347-.118-.25 0-.285-.026-.19-.14.089-.108.08-.154-.039-.2a.5.5 0 0 0-.307 0c-.084.032-.308-.06-.499-.206-.256-.195-.472-.266-.833-.272-.268-.004-.429-.031-.357-.06.18-.072-.503-.406-1.006-.49a2.34 2.34 0 0 1-.772-.315c-.199-.135-.423-.222-.498-.193-.075.028-.162-.016-.194-.098-.031-.082-.178-.15-.325-.151-.422-.002-.722-.112-.722-.263 0-.077-.068-.14-.151-.14-.084 0-.152-.037-.152-.081 0-.11-.684-.35-.797-.28-.05.03-.164-.056-.253-.192-.103-.157-.3-.271-.542-.315-.209-.037-.448-.126-.531-.196a1.028 1.028 0 0 0-.354-.178c-.18-.043-.176-.05.031-.061.138-.007.206-.056.167-.12-.037-.059-.13-.084-.205-.055-.076.03-.166.008-.2-.048-.035-.055-.153-.072-.263-.037-.154.049-.193.022-.169-.117.02-.106-.06-.227-.195-.295a2.302 2.302 0 0 1-.413-.285c-.13-.118-.28-.15-.502-.105-.22.044-.364.014-.478-.1-.147-.147-.147-.164-.005-.164.087 0 .159-.046.159-.101 0-.056-.065-.101-.143-.101a.224.224 0 0 1-.195-.127c-.04-.1-.052-.1-.059 0-.004.07-.11.123-.235.12-.213-.007-.215-.012-.028-.086.196-.076.196-.08-.018-.195-.12-.064-.289-.089-.376-.055-.114.043-.16 0-.16-.152 0-.146-.063-.213-.202-.213-.11 0-.202-.046-.202-.101a.104.104 0 0 0-.105-.101c-.058 0-.227-.113-.375-.25-.187-.174-.347-.235-.526-.202-.142.027-.2.021-.131-.011.07-.033.126-.104.126-.157 0-.14-.51-.593-.667-.593-.146 0-2.164-1.98-2.164-2.123 0-.05-.083-.15-.183-.222a.832.832 0 0 1-.254-.32c-.049-.13-.136-.172-.278-.135-.155.04-.256-.027-.401-.267a6.434 6.434 0 0 0-.865-1.12 4.572 4.572 0 0 1-.487-.65c-.178-.283-.326-.418-.42-.382-.101.04-.145-.017-.145-.188 0-.134-.048-.273-.107-.31a.165.165 0 0 1-.067-.181c.021-.064-.01-.172-.07-.24-.235-.266-.33-.425-.818-1.382-.511-1.002-.663-1.207-.735-.991-.022.065-.09.119-.153.119-.078 0-.076-.037.009-.121.124-.125.172-.789.056-.789-.035 0-.124.08-.197.177-.115.153-.125.124-.073-.212.044-.276.02-.416-.08-.48-.12-.078-.118-.107.01-.191.13-.086.127-.1-.025-.101-.133-.001-.177-.086-.177-.347 0-.19-.044-.36-.099-.38-.095-.032-.46-1.215-.57-1.853a2.855 2.855 0 0 0-.115-.455 7.387 7.387 0 0 1-.183-.607c-.12-.45-.12-.447-.133.447-.007.496-.03.882-.053.86-.033-.035-.081-1.065-.156-3.323-.004-.11-.037-.102-.137.035-.114.156-.135.07-.152-.612-.023-.908-.225-2.488-.328-2.563-.038-.028-.102-.403-.142-.834-.04-.431-.114-.784-.164-.784-.051 0-.093-.182-.093-.404 0-.318.038-.405.177-.406.13-.001.143-.024.047-.085-.216-.137-.263-.761-.086-1.14.111-.236.176-.759.21-1.706.048-1.32.152-2.185.307-2.553.045-.107.03-.177-.038-.177-.063 0-.112-.176-.112-.404 0-.223.046-.405.102-.405.055 0 .105-.216.11-.48.007-.264.051-.594.1-.733.071-.201.082-.165.05.177-.021.236.003.43.052.43.05 0 .095-.035.098-.076.003-.042.024-.235.046-.43.023-.195.063-.574.09-.843.027-.27.12-.598.206-.73.087-.132.157-.435.157-.674 0-.24.096-.685.213-.99.117-.305.268-.701.335-.881.068-.18.154-.358.192-.396.038-.038.07-.19.07-.336 0-.146.04-.31.089-.362.151-.162.617-1.626.631-1.983l.014-.337.066.354c.062.328.073.336.148.118.044-.129.059-.257.031-.284-.027-.027.128-.394.345-.815.217-.422.394-.83.394-.907 0-.078.079-.262.175-.409.128-.195.142-.277.05-.308-.068-.022-.124-.085-.124-.14 0-.054.046-.07.101-.036.056.035.144-.05.196-.186.052-.137.147-.281.21-.32.065-.04.092-.19.061-.34-.03-.146-.03-.21 0-.14.1.23.265.132.216-.126-.033-.174.027-.335.19-.511.132-.142.24-.325.24-.407a.24.24 0 0 1 .145-.206c.08-.03.174-.188.21-.35.035-.161.106-.32.158-.35.051-.033.093-.153.093-.268 0-.116.119-.32.264-.455.211-.196.252-.306.204-.547-.046-.229-.018-.317.115-.368a1.23 1.23 0 0 0 .338-.223c.266-.256.697-1.105.697-1.374 0-.137.045-.25.1-.25.056 0 .102-.079.103-.176 0-.097.068-.307.151-.467.083-.159.151-.347.151-.419 0-.07.068-.155.152-.187a.25.25 0 0 0 .152-.213c0-.085.043-.155.096-.155.096 0 .915-1.587.915-1.774 0-.054.09-.155.202-.225.111-.07.203-.205.203-.302s.182-.404.404-.682c.22-.278.402-.556.403-.62 0-.062.07-.17.153-.239a.45.45 0 0 0 .151-.298c0-.095.114-.28.253-.41.14-.13.253-.295.253-.367 0-.18.506-.902.612-.873.048.013.116-.146.152-.354.036-.207.175-.547.308-.754.133-.208.242-.448.242-.536 0-.09.07-.145.164-.128.117.021.203-.102.3-.425.075-.25.135-.455.133-.455-.042 0 .29-.62.516-.96a8.13 8.13 0 0 0 .371-.607c.04-.084.134-.214.209-.29.075-.077.163-.268.194-.425a.978.978 0 0 1 .248-.459.639.639 0 0 0 .19-.41c0-.13.04-.236.086-.236.048 0 .168-.182.268-.405.1-.222.218-.404.261-.404.105 0 .8-1.152.85-1.406.055-.286.246-.616.356-.616.052 0 .068-.068.036-.151-.033-.086.012-.178.105-.213.089-.034.162-.117.162-.184 0-.067.133-.25.296-.406.191-.183.321-.433.366-.702.038-.23.154-.498.26-.598.104-.1.19-.255.19-.345 0-.09.25-.496.556-.903.306-.406.556-.775.556-.82 0-.045.09-.158.198-.252.11-.093.272-.422.361-.73.09-.308.2-.56.245-.56.046 0 .11-.08.142-.177.033-.098.1-.246.152-.33.05-.082.154-.283.23-.445.076-.161.217-.314.313-.34.104-.027.2-.188.24-.402.038-.196.154-.443.26-.548.105-.105.218-.326.25-.492.034-.165.12-.3.192-.3.072 0 .16-.132.195-.293.036-.161.197-.468.36-.682.161-.214.295-.471.297-.571.001-.1.113-.292.248-.427.134-.134.275-.341.313-.459.09-.286.667-1.208.755-1.208.039 0 .128-.261.198-.58.07-.32.227-.719.348-.886.122-.166.304-.576.405-.91.101-.333.244-.674.317-.758.073-.083.164-.277.202-.43.038-.153.107-.278.152-.278.077 0 .208-.367.505-1.415.071-.25.23-.546.352-.657.249-.227.481-.888.657-1.87.064-.362.208-.93.32-1.261.198-.593.243-.848.524-2.986.076-.584.17-1.205.21-1.38.221-1.01.235-2.022.046-3.268-.262-1.715-.266-1.746-.394-2.788a16.991 16.991 0 0 1-.118-1.337c-.003-.233-.069-.475-.145-.539-.077-.064-.14-.29-.14-.501 0-.212-.045-.503-.1-.647-.093-.247-.084-.257.178-.199.151.034.367.182.478.329.258.34.721.806 1.123 1.129.173.14.388.397.478.572.09.176.208.335.262.354.054.019.282.308.507.641l.784 1.163c.777 1.152 2.558 4.553 2.558 4.884 0 .11.135.479.299.818.231.479.334.907.459 1.909.088.71.136 1.332.106 1.38-.03.05-.06.356-.064.68a6.194 6.194 0 0 1-.154 1.17c-.08.319-.194.82-.254 1.113-.06.293-.151.715-.203.937-.051.222-.182.86-.29 1.415-.109.557-.271 1.353-.362 1.77-.09.417-.178.872-.195 1.01-.037.31-.497 1.57-.706 1.938-.084.148-.125.342-.09.431a.319.319 0 0 1-.042.287c-.093.113-.354.947-.497 1.591a.991.991 0 0 1-.235.425c-.099.095-.23.406-.29.69-.062.286-.18.587-.263.67-.083.083-.15.302-.15.487 0 .19-.06.358-.14.389-.076.029-.17.182-.208.34-.038.157-.18.455-.316.662-.136.208-.247.465-.247.573 0 .108-.04.211-.087.23-.049.018-.278.42-.51.893-.419.85-.619 1.216-.718 1.314-.028.028-.113.23-.19.45a5.632 5.632 0 0 1-.48.93c-.187.292-.34.593-.34.669 0 .075-.11.285-.244.466a3.556 3.556 0 0 0-.371.652c-.07.177-.212.443-.314.592-.196.285-.637 1.159-.947 1.878-.102.236-.245.43-.317.43-.121 0-.177.129-.144.331.007.043-.067.108-.165.145-.229.084-.326.23-.328.494 0 .116-.092.294-.203.395-.112.1-.203.234-.203.297 0 .17-.349.824-.648 1.217-.144.188-.262.374-.262.412 0 .038-.136.225-.303.415-.167.19-.303.428-.303.53 0 .102-.091.3-.202.442-.112.142-.203.302-.203.355 0 .054-.067.154-.15.223a1.523 1.523 0 0 0-.287.391c-.376.725-.534.982-.65 1.056-.07.045-.127.204-.129.354 0 .15-.138.452-.303.67-.165.219-.3.454-.3.523 0 .07-.114.261-.253.427-.14.165-.253.414-.253.553 0 .139-.113.36-.251.49-.138.132-.252.29-.253.353-.001.063-.069.17-.151.238-.128.106-.625 1.041-.807 1.518a9.482 9.482 0 0 1-.36.706c-.165.305-.301.589-.301.632 0 .067-.411 1.004-.732 1.668-.06.125-.193.316-.296.426-.102.11-.186.264-.186.343 0 .194-.511 1.11-.676 1.21-.073.044-.132.165-.132.267 0 .102-.062.21-.138.24-.075.028-.165.193-.2.365-.034.172-.19.438-.345.59-.24.235-.733 1.105-.733 1.294 0 .032-.128.249-.285.481a7.023 7.023 0 0 0-.46.802c-.096.209-.218.38-.27.38-.054 0-.097.056-.098.126 0 .07-.074.262-.163.43-.548 1.018-1.454 2.832-1.454 2.91 0 .05-.086.213-.192.36-.319.449-1.122 2.066-1.122 2.26 0 .1-.043.182-.095.182-.051 0-.122.102-.157.227-.12.43-.403 1.037-.57 1.22-.092.102-.224.398-.295.658-.07.26-.189.545-.264.633a.689.689 0 0 0-.136.385c0 .217-.163.613-.296.719-.063.05-.2.37-.6 1.393-.114.294-.283.908-.374 1.365-.092.457-.203.922-.247 1.033-.217.549-.308.874-.45 1.618-.085.445-.241 1.241-.346 1.77-.105.528-.208 1.37-.228 1.87-.02.5-.08.94-.13.977-.052.037-.086.67-.076 1.405.016 1.139.045 1.358.195 1.473.13.099.144.156.055.215-.192.128-.092.935.273 2.198.048.167.141.509.207.759.188.712.41 1.1.594 1.037.13-.046.135-.03.033.08-.156.168-.163.298-.016.298.061 0 .316.228.566.506.25.278.492.482.538.454.046-.028.173.063.283.202.11.14.24.254.291.254.05 0 .27.182.488.405.217.223.443.39.5.37.058-.019.16.095.226.252.067.158.194.287.283.287.088 0 .407.182.708.405.301.222.59.404.642.404.052 0 .122.071.155.158.034.087.104.132.156.1.052-.033.218.055.37.195.153.143.395.255.55.255.163 0 .333.083.415.203.076.111.268.213.425.225.158.012.33.102.383.201.053.099.157.18.232.18.074 0 .19.065.256.145.066.08.257.175.424.211.166.037.329.135.36.218.048.123.075.125.147.015.072-.108.118-.098.231.05.168.22.798.574 1.021.574.087 0 .37.112.628.25.358.19.492.221.558.127.054-.077.063-.037.023.103-.052.186-.022.23.17.243.13.008.28.026.336.039.056.012.203.028.329.035.133.007.227.076.227.17 0 .086.041.131.091.1.05-.03.335.057.632.196.298.138.688.28.869.314.18.034.303.102.274.15-.03.048.073.113.228.146.155.033.361.103.458.155a.948.948 0 0 0 .38.095c.113 0 .284.042.38.095.097.052.46.174.808.271.348.098.632.215.632.26 0 .045.156.082.346.082.445 0 .665.087.665.263 0 .133.11.153.991.184.128.004.31.104.405.223.134.167.325.228.872.276.396.034.735.116.78.189.043.07.297.136.563.146.66.023.954.085 1.323.275.172.09.478.163.68.163.201 0 .437.07.524.158.117.116.262.14.552.092.301-.051.387-.035.365.069-.017.084.086.149.27.17.165.018.39.097.5.174.11.078.304.114.434.081.14-.035.234-.013.234.054 0 .069.229.112.6.112.331 0 .63.047.667.105.036.059.141.097.233.086a.879.879 0 0 1 .345.046l.354.129c.098.034.416.054.708.043.368-.014.58.029.69.14.148.147.536.215.996.172.108-.009.226.032.263.092.037.06.22.114.405.119.186.004.455.07.597.145.143.074.354.135.47.135.116 0 .244.034.285.075.04.041.219.082.396.091.634.032 1.59.204 1.691.305.066.066.325.072.724.017.68-.093 1.12-.027.877.131-.087.057.092.073.478.043.44-.034.672-.007.809.097.23.174.545.196.545.038 0-.078.047-.075.152.012.093.078.705.158 1.592.208 2.825.16 4.48.31 4.929.446.3.091.705.12 1.187.083.488-.037.779-.016.874.063.111.092.154.09.19-.012.04-.106.089-.106.266 0 .152.09.416.108.873.061.527-.054.654-.04.654.076 0 .117.3.141 1.694.135 1.564-.006 2.148.066 2.148.265 0 .069.211.097.708.093a5.33 5.33 0 0 0 .535-.064c.292-.047.433-.017.588.123.17.153.218.16.29.043.122-.197 2.132-.266 2.664-.091.324.106.403.103.488-.019.077-.11.113-.115.153-.019.06.149.903.174.992.03.033-.053.115-.076.183-.05.161.062 1.605.154 2.238.143.273-.004.59-.074.705-.154.247-.174.971-.196.971-.03 0 .078.185.099.582.065.32-.028.99-.019 1.491.019.5.038.953.045 1.007.017.158-.085.6-.116.762-.054.318.123 1.07.1 1.285-.037.123-.079.276-.11.342-.07.213.132 1.955.219 2.046.102.057-.073.1-.067.135.02.064.157.439.167.439.012 0-.11.208-.096.91.061.222.05.228.045.05-.044-.157-.078-.12-.088.167-.043.202.031.462.007.577-.055.259-.138.983-.035 1.187.168.122.123.175.125.307.016.098-.081.536-.148 1.134-.173.537-.023 1.021-.072 1.077-.11.056-.039.67-.04 1.365 0 .802.043 1.405.03 1.65-.04.305-.084.406-.078.472.029.065.105.148.11.37.026.238-.09 1.142-.148 2.21-.142h1.465c1.484 0 2.074.001 2.831.01.306.002.794-.047 1.084-.11.373-.082.565-.085.657-.008.084.07.29.078.584.024.307-.056.477-.047.524.028.048.079.139.081.304.008.129-.057.462-.112.74-.123.278-.01.768-.07 1.09-.132a5.173 5.173 0 0 1 1.195-.057c.47.043.622.022.664-.087.09-.232.256-.163.18.074-.06.19-.039.209.17.152a7.59 7.59 0 0 1 .644-.13c.223-.035.45-.098.506-.14.055-.042.442-.064.859-.05.417.014 1.002-.036 1.3-.11.473-.118.619-.114 1.141.03.595.166.6.166.757-.058.147-.21.174-.214.394-.07.2.131.367.139 1.078.049.462-.06 1.012-.08 1.223-.047.22.034.477.009.607-.061.125-.067.557-.114.979-.106.467.01.833-.034.96-.115.113-.072.41-.141.66-.154.25-.013.47-.067.49-.12.044-.128.42-.123.42.004s.376.135.422.008c.018-.05.216-.122.438-.159.299-.049.365-.038.253.04-.128.09-.119.108.055.11a.554.554 0 0 1 .336.127c.102.102.152.097.247-.025.155-.196.364-.232 1.267-.218.494.007.845-.042 1.048-.146.177-.092.408-.132.553-.095.137.034.507.017.823-.038 1.182-.204 2.114-.318 2.854-.346.42-.017.815-.062.878-.1a.137.137 0 0 1 .187.047c.052.083.113.064.208-.066.094-.128.25-.179.515-.167.951.043 1.878-.02 2.395-.163.218-.06.61-.085.871-.054.3.036.5.015.545-.057.039-.062.223-.113.41-.113.447 0 .72-.103.552-.207-.071-.044.034-.077.244-.077.203 0 .369.03.369.066 0 .036.33.064.733.062.53-.002.808-.053 1.004-.184.21-.14.375-.165.73-.112.33.05.602.018.963-.112.4-.143.575-.16.847-.076.27.083.362.075.434-.037.067-.105.422-.155 1.355-.191a65.437 65.437 0 0 1 1.492-.047c.125.001.227-.037.227-.085 0-.047.482-.08 1.07-.074.766.008 1.101-.025 1.18-.12.082-.099.126-.101.182-.011.148.239 1.337.099 2.296-.27.708-.274.993-.305 1.07-.118.039.09.095.075.202-.057.081-.1.175-.14.207-.088.081.132.56.213.626.106.03-.049.247-.088.483-.088.65 0 .854-.336.516-.85-.096-.147-.16-.493-.166-.907-.008-.506-.047-.67-.156-.67-.163 0-.433-.24-.433-.384 0-.053.068-.152.15-.22.081-.068.175-.29.208-.492.086-.533.542-1.456.825-1.669.228-.172.259-.173.5-.015.14.092.319.319.396.503.077.185.22.417.318.515.098.098.182.227.186.288.008.125.152.476.448 1.088.113.233.205.53.205.658 0 .129.053.234.118.234s.092.026.06.058c-.106.106.4.9.89 1.398.116.117.409.485.651.82.243.333.683.85.979 1.148.295.298.537.575.537.616 0 .04.091.157.202.257.112.101.203.233.204.294 0 .14 1.032 1.221 1.24 1.301.084.033.208.225.275.427.081.247.168.35.263.314.086-.033.142.01.142.112 0 .283.236.838.357.838.062 0 .162.102.222.228.559 1.178.836 2.078.836 2.713 0 .977-.08 1.19-.534 1.421-.308.158-.372.23-.265.297.09.058-.096.088-.515.085-.489-.004-.606-.03-.455-.1.141-.067.055-.078-.29-.036-.3.036-.61.009-.801-.07-.24-.1-.32-.101-.352-.008-.022.066-.184.12-.36.12-.223-.002-.278-.03-.18-.09.21-.134-.16-.224-.92-.223-.35 0-1.148-.014-1.773-.031-.992-.029-1.139-.012-1.143.13-.003.126-.043.111-.164-.063-.198-.284-.51-.292-.746-.02-.17.195-.187.197-.28.03-.084-.15-.125-.157-.261-.044-.135.112-.162.111-.165-.004-.002-.1-.04-.09-.135.035-.092.122-.163.142-.238.067-.076-.076-.177-.07-.341.018-.172.092-.244.094-.272.009-.057-.172-.395-.14-.466.043-.055.144-.075.145-.219.001-.192-.192-.954-.191-.954.001 0 .091-.192.126-.667.12-.47-.006-.694.033-.759.133-.078.122-.104.121-.183-.001-.111-.173-1.29-.301-1.183-.129.041.067-.067.135-.28.175-.452.085-.728.02-.687-.162.025-.112.004-.118-.089-.027-.066.065-.183.094-.26.065-.076-.03-.139-.003-.139.058 0 .062-.07.112-.155.112a.235.235 0 0 0-.206.135c-.04.103-.299.13-1.084.11-.568-.013-1.114-.057-1.214-.097-.119-.047-.26-.003-.405.128a2.97 2.97 0 0 1-.57.369c-.317.153-.357.154-.438.009-.07-.125-.12-.134-.233-.04-.08.065-.144.181-.144.258 0 .17-.17.185-.224.021-.06-.181-.954-.146-1.167.046-.116.105-.23.132-.322.076-.311-.193-1.881.05-2.07.319-.12.17-.239.193-.867.167-.622-.025-.75 0-.87.164-.083.114-.142.14-.142.063 0-.129-.135-.125-1.314.034-.195.027-.735.072-1.201.1-.466.028-.872.076-.902.106-.03.03-.231.054-.447.054-.217 0-.369.041-.338.092.094.152-.54.312-1.247.316-.426.002-.739.057-.864.152a.81.81 0 0 1-.413.148c-.119 0-.248.032-.288.072-.04.039-.247.059-.461.043-.215-.015-.414.01-.442.056-.029.046-.363.077-.743.07-.593-.012-.717.016-.867.201-.096.118-.175.16-.177.093-.003-.198-.62-.25-1.185-.1-.289.076-.577.107-.64.069-.155-.097-1.762-.022-2.322.108-1.285.297-1.443.315-1.528.179-.068-.108-.123-.11-.288-.007a.926.926 0 0 1-.407.126c-.112 0-.204.045-.204.101 0 .056-.068.101-.151.101-.084 0-.152-.045-.152-.101 0-.145-.277-.125-.338.025-.04.101-.052.101-.059 0-.009-.15-.574-.171-.665-.025-.034.056-.267.101-.518.101-.25 0-.547.05-.658.109-.332.177-.98.198-1.141.037-.125-.126-.186-.121-.455.032-.17.097-.31.21-.31.252 0 .042-.073.076-.16.076-.117 0-.14-.06-.092-.228l.067-.227-.162.22c-.13.177-.242.214-.565.184-.378-.034-.56.082-.277.178.163.055-.973-.001-1.466-.074-.316-.046-.38-.026-.381.122-.001.151-.016.156-.097.028-.064-.101-.129-.117-.197-.05-.061.062-.396.078-.838.042-.406-.033-.822-.018-.927.034-.122.061-.212.058-.254-.009-.054-.088-3.78-.102-3.954-.015-.13.065-1.685.038-1.583-.027.064-.04-.073-.075-.305-.076-.248 0-.438.05-.463.125-.034.1-.075.1-.199-.002-.11-.091-.23-.1-.41-.032-.14.054-.27.081-.29.062zm-13.761-.931a.828.828 0 0 0-.354 0c-.097.025-.018.046.177.046.194 0 .274-.02.177-.046zm-14.812-.705a.39.39 0 0 0-.253 0c-.07.028-.013.05.126.05.14 0 .196-.022.127-.05zm-34.43-4.544c-.033-.034-.12-.037-.193-.008-.08.032-.057.056.06.06.108.005.167-.019.134-.052zm-18.603-7.28c-.034-.034-.12-.037-.194-.008-.08.032-.056.056.061.061.107.004.167-.02.133-.053zm117.437 10.102a.828.828 0 0 1 .354 0c.098.025.018.046-.177.046-.194 0-.274-.02-.177-.046zM43.53 258.272c.073-.029.16-.025.194.008.034.034-.026.058-.133.054-.117-.005-.141-.03-.06-.062zm-7.696-11.016c-.08-.08.01-.238.138-.238.053 0 .095.068.095.151 0 .157-.119.201-.233.087zm134.002-8.322c-.08-.051-.281-.066-.446-.033l-.299.06.065-.623c.04-.385.028-.622-.034-.622-.055 0-.1.06-.1.134 0 .074-.161.185-.36.246-.294.09-.37.083-.416-.037-.143-.374.319-1.39.687-1.509.09-.029.453-.398.809-.821.355-.423.8-.911.988-1.085.188-.173.408-.47.488-.66.132-.312.49-.705.65-.714.034 0 .089.095.12.215.04.154-.044.336-.291.625-.192.223-.349.467-.349.54 0 .074-.04.134-.09.134-.048 0-.11.113-.137.252-.027.14-.018.253.02.253.037 0 .361-.325.719-.722.358-.398.833-.915 1.055-1.15.632-.669.96-1.072.96-1.177 0-.054.046-.069.102-.035.056.035.101-.027.101-.136 0-.112.342-.547.784-.996.43-.438.943-.988 1.137-1.222.195-.234.434-.425.531-.426.097 0 .177-.07.177-.156s.114-.27.253-.41c.139-.138.252-.34.252-.446 0-.107.137-.334.304-.505.167-.17.303-.374.303-.453 0-.178.513-.947.811-1.217.122-.11.327-.408.456-.661.129-.254.306-.521.393-.594.088-.073.16-.192.16-.265 0-.072.059-.192.13-.265.072-.074.235-.305.362-.513.128-.209.27-.38.318-.38.048 0 .117-.102.155-.227.038-.125.24-.455.449-.733.728-.97 1.401-2.024 1.47-2.301.039-.153.111-.304.162-.335.127-.079.758-1.078.836-1.325.036-.112.269-.426.517-.697.25-.27.54-.676.648-.9a5.42 5.42 0 0 1 .455-.755c.144-.192.261-.405.261-.473 0-.069.057-.185.127-.259.135-.142.352-.574.637-1.27.097-.237.206-.43.243-.43.088 0 .61-.975.61-1.139 0-.07.106-.287.235-.481s.294-.511.367-.706c.073-.195.286-.678.473-1.074.188-.396.341-.793.341-.882 0-.09.13-.448.288-.797.159-.348.317-.851.353-1.117.035-.266.201-.903.369-1.416.167-.512.305-1.035.305-1.16 0-.127.041-.309.092-.405.05-.097.14-.654.198-1.237.058-.584.172-1.517.252-2.073.081-.556.22-1.625.31-2.376.162-1.35.194-1.56.522-3.438.093-.528.16-1.197.15-1.486-.009-.29.047-.654.125-.81.083-.163.17-.77.208-1.445.036-.64.111-1.526.167-1.971.11-.872.288-2.76.353-3.741.022-.334.11-1.471.194-2.528.085-1.056.177-2.285.205-2.73.028-.445.1-1.537.16-2.426.15-2.218.2-8.762.076-10.06a41.753 41.753 0 0 1-.135-2.275c-.02-.668-.085-1.532-.147-1.921a61.008 61.008 0 0 1-.343-2.68 32.663 32.663 0 0 0-.414-2.578c-.273-1.366-.65-3.916-.655-4.427a2.698 2.698 0 0 0-.156-.846c-.083-.2-.151-.633-.151-.964 0-.33-.052-.697-.114-.814-.063-.117-.178-.922-.255-1.788a71.692 71.692 0 0 0-.179-1.828c-.02-.139-.09-.594-.154-1.01-.205-1.331-.409-3.154-.469-4.197-.032-.556-.1-1.124-.152-1.263-.05-.14-.16-.822-.241-1.517a60.19 60.19 0 0 0-.305-2.224 40.452 40.452 0 0 1-.204-1.365 58.166 58.166 0 0 0-.153-1.163 142.68 142.68 0 0 1-.21-1.567 9.87 9.87 0 0 0-.242-1.264c-.077-.25-.17-.75-.21-1.112-.08-.754-.558-3.222-.784-4.043-.084-.305-.132-.589-.106-.63.026-.043-.018-.225-.097-.407-.212-.485-.473-1.382-.473-1.63 0-.119-.13-.535-.29-.924-.158-.39-.367-.98-.464-1.314-.096-.334-.49-1.256-.873-2.049-.384-.793-.698-1.485-.698-1.538 0-.053-.13-.246-.287-.429-.158-.182-.438-.616-.621-.964-.184-.347-.373-.632-.42-.632-.049 0-.088-.066-.088-.147 0-.081-.11-.252-.246-.38-.136-.127-.365-.47-.51-.762-.146-.292-.309-.53-.361-.53-.053 0-.096-.069-.096-.152 0-.083-.085-.236-.188-.34a1.188 1.188 0 0 1-.258-.467c-.038-.154-.238-.535-.444-.845-.516-.78-1.031-1.724-1.031-1.891 0-.077-.084-.221-.187-.32-.232-.226-.901-2.158-1.084-3.134-.075-.4-.182-.81-.236-.91-.055-.1-.168-.796-.252-1.547-.183-1.642-.211-7.804-.04-8.728.107-.577.113-.585.3-.398.105.105.218.37.252.589.033.22.118.467.187.55.193.232.44 1.196.516 2.008.037.4.107.752.154.782.048.029.087.127.087.217 0 .374.445 1.778.669 2.107.132.195.24.432.24.527-.002.215.38 1.394.568 1.755.077.148.14.354.14.458 0 .216.522 1.616.813 2.18.107.21.169.38.136.38-.129 0 .61 1.166.932 1.469.222.21.344.419.344.59 0 .147.08.348.176.448.098.1.302.43.453.733.152.303.385.733.519.956l.638 1.062c.218.361.508.875.644 1.143.137.267.332.575.432.685.102.11.326.505.5.88.174.373.444.856.6 1.073.156.217.284.435.284.484 0 .05.091.188.202.308.111.119.202.29.202.38 0 .165.853 1.894 1.02 2.068.051.053.093.215.093.36 0 .144.04.305.091.358.144.15.718 1.25.718 1.376 0 .061.23.595.513 1.185.628 1.313.671 1.414.75 1.731.054.222.295.84.57 1.466.208.47.534 1.689.893 3.337a360.117 360.117 0 0 0 .612 2.762c.052.24.121.478.153.529.071.115.231 1.029.344 1.966.047.39.134.981.193 1.315a30.1 30.1 0 0 1 .22 1.719c.06.611.174 1.43.252 1.82.078.389.141.844.141 1.01 0 .752.142 2.275.212 2.275.042 0 .082.467.087 1.037.006.57.057 1.264.114 1.542s.147.983.199 1.567c.228 2.558.32 3.418.416 3.892.057.278.145 1.03.197 1.669.051.64.181 1.708.29 2.376.107.667.27 1.782.363 2.477.093.695.216 1.537.273 1.87.058.334.143.925.189 1.315.083.705.22 1.57.402 2.527.053.278.144 1.006.202 1.618.058.612.175 1.51.26 1.994.495 2.84.652 13.583.231 15.851-.056.306-.142 1.315-.19 2.242-.047.928-.133 1.774-.19 1.88-.057.107-.147.545-.2.972-.054.428-.14.833-.194.9-.053.068-.123.45-.155.851-.031.4-.11.827-.175.948-.074.137-.117.719-.115 1.53.002.808-.054 1.566-.148 1.983-.088.392-.147 1.12-.14 1.737.005.584-.039 1.29-.098 1.567-.163.76-.314 1.853-.343 2.477-.048 1.057-.191 2.377-.275 2.54-.046.09-.11.681-.143 1.314-.066 1.254-.492 4.034-.717 4.67-.077.22-.14.508-.14.642s-.069.27-.152.302c-.094.036-.152.19-.152.404 0 .19-.074.516-.165.722-.091.207-.18.536-.199.73-.018.195-.05.422-.072.506-.143.57-.24.81-.54 1.341-.186.33-.338.635-.338.678 0 .253-.488 1.11-.806 1.416-.33.317-.381.433-.441 1.008-.066.631-.185.917-.52 1.252-.09.09-.218.398-.285.685-.092.395-.183.548-.375.633-.33.146-.498.363-.502.647-.003.252-.541 1.329-.744 1.49-.07.055-.236.283-.37.505-.134.223-.302.441-.375.486a.297.297 0 0 0-.132.224c0 .156-.4.977-.515 1.06-.04.028-.087.164-.107.303-.027.196-.104.26-.339.287-.417.047-.529.164-.61.642-.125.742-1.11 1.528-1.299 1.036-.033-.087-.11-.128-.168-.091-.1.061-.074.375.073.893.037.128.01.174-.081.144-.138-.046-.392.335-.392.588 0 .144-.283.52-.682.905-.125.12-.228.288-.228.372 0 .084-.216.343-.48.576-.656.579-.702.61-.777.536-.036-.036-.09.03-.12.145-.074.282-.53.5-.598.286a7.556 7.556 0 0 0-.113-.328c-.135-.362-.163.199-.038.758.111.498.102.578-.115 1.016-.223.45-.256.474-.607.447-.343-.027-.381-.001-.5.328-.072.197-.166.357-.21.357-.045 0-.081.066-.081.145 0 .174-.311.29-.542.2-.129-.049-.169.002-.178.226a3.05 3.05 0 0 1-.035.39c-.013.056-.03.158-.039.227a.148.148 0 0 1-.143.127c-.07 0-.172.102-.227.227-.076.174-.208.24-.555.278-.29.033-.446.097-.43.177.014.07-.02.127-.075.127a.101.101 0 0 0-.102.1c0 .056-.085.187-.19.292a1.169 1.169 0 0 0-.237.328c-.038.109-.098.096-.275-.062-.212-.188-.234-.19-.353-.026-.07.095-.146.156-.168.134-.022-.022-.044.115-.048.306-.012.54-.528.93-.83.628-.093-.093-.135-.047-.185.202-.035.177-.11.322-.164.322-.054 0-.074.065-.044.144.06.156-.393.362-.794.362a.498.498 0 0 0-.34.139c-.064.076-.34.16-.611.186-.273.027-.57.121-.66.211-.089.09-.332.193-.538.23-.207.036-.435.14-.507.23-.12.153-.154.152-.437-.012-.4-.229-.56-.222-.624.026-.03.111-.128.202-.22.202s-.14.046-.105.102c.08.128-.652.132-.854.004zm.804-2.949c0-.056-.045-.073-.101-.038-.056.034-.101.108-.101.163 0 .056.045.073.101.039.056-.035.101-.108.101-.164zm-154.996 2.13c0-.06.045-.08.101-.045.056.034.101.082.101.107 0 .024-.045.044-.1.044a.104.104 0 0 1-.102-.107zm166.421-7.477c0-.197.107-.263.23-.141.08.08-.026.343-.14.343-.05 0-.09-.09-.09-.202zM13.89 225.313a.279.279 0 0 1-.067-.172c0-.063.047-.057.12.016.065.065.096.143.067.171-.029.03-.083.022-.12-.015zm-.032-2.211c-.033-.086-.035-.182-.004-.213.089-.088.272.062.272.223 0 .194-.193.186-.268-.01zm.12-.678a1.767 1.767 0 0 1-.002-.657l.075-.279.083.293c.046.161.047.457.003.657l-.082.365zm66.676-23.578c0-.215-.189-.294-.361-.15-.124.101-.19.084-.36-.1-.186-.2-.268-.215-.78-.15-.314.04-.617.065-.672.056-.056-.008-.267-.043-.469-.076-.22-.036-.394-.016-.435.05-.113.182-.446.127-.564-.093-.06-.113-.157-.177-.214-.141-.057.035-.226-.045-.374-.18-.241-.217-.412-.314-.927-.53-.408-.172-1.705-1.118-1.898-1.385-.267-.37-.42-.465-.674-.416-.227.043-.26.014-.27-.24a4.273 4.273 0 0 1 .008-.476c.01-.102-.092-.353-.227-.558-.353-.533-.768-1.438-.844-1.842a2.637 2.637 0 0 0-.197-.6c-.32-.617-.447-1.648-.425-3.468.016-1.32.056-1.83.151-1.908.081-.067.13-.351.13-.753 0-.362.044-.645.101-.645.056 0 .101-.07.101-.158 0-.171.277-.894.665-1.74.135-.293.245-.646.245-.785 0-.157.14-.387.37-.611.295-.287.423-.347.632-.297.29.068.616.399.616.624 0 .08.098.336.218.57.12.234.252.562.295.73l.222.859c.08.305.205.886.278 1.289.072.403.158.739.191.746.367.08.76.104 1.88.117 1.636.02 3.386-.057 3.387-.148 0-.061 1.21-.17 2.115-.189.19-.004.435-.07.546-.148.137-.096.257-.111.377-.047.278.149 1.466.032 1.782-.175.215-.14.449-.176 1.04-.159.585.017.863-.024 1.197-.18.24-.111.467-.182.506-.158.04.025.276.001.526-.052.852-.182 2.071-.397 2.426-.428l1.175-.11c.581-.056.841-.045.892.037.05.082.178.058.443-.081.534-.283.792-.317 1.226-.164.335.118.404.115.545-.026.088-.088.326-.173.529-.19.202-.015.42-.07.484-.12.197-.157.786-.245 1.733-.259.535-.007 1.005-.067 1.142-.144.127-.072.605-.154 1.061-.182.457-.027.873-.093.926-.145.053-.053.29-.095.525-.095.236 0 .457-.046.491-.101.092-.15.489-.123.714.047.276.209.581.19.752-.047.114-.159.262-.203.681-.203.294 0 .624-.055.734-.123.15-.094.226-.096.315-.007.088.088.213.055.514-.134.246-.156.471-.227.593-.189.355.113.997.144 1.054.052.114-.185.701-.407 1.073-.407.21 0 .411-.046.445-.102.084-.135.43-.129.475.008.042.127.92.15 1.114.029.134-.084.243-.096 1.697-.187.473-.029 1.27-.147 1.77-.26.522-.12 1.115-.19 1.393-.166.266.023.509 0 .54-.05.03-.05.259-.061.506-.024.357.054.492.03.652-.115.163-.147.404-.187 1.26-.206.582-.014 1.206-.072 1.387-.13.477-.154 1.811-.403 2.047-.382.299.025 3.147-.232 3.791-.342a18.35 18.35 0 0 1 1.512-.157c.526-.033 1.066-.103 1.2-.154.164-.062.291-.054.385.024.103.085.254.087.57.008.408-.104 1.411-.22 2.4-.281.25-.015.887-.07 1.415-.123.529-.052 1.224-.077 1.545-.056.407.027.599 0 .633-.089.035-.091.354-.127 1.135-.126.683 0 1.217-.051 1.439-.139.252-.098.566-.119 1.096-.071.514.047.786.03.887-.053.165-.137 1.548-.158 1.645-.026.1.135.671.1.856-.053a.696.696 0 0 1 .42-.125c.41.024.458.024 1.584.006.593-.009 1.128.013 1.189.05.06.038.271.01.469-.06.245-.09.38-.097.429-.025.135.204.424.233.842.086.346-.123.977-.142 3.531-.11 1.71.022 3.157.07 3.215.105.058.036.37.045.692.02 2.197-.174 2.433-.181 2.498-.076.044.071.39.094.993.064.754-.036.96-.014 1.106.118.147.133.231.142.46.047.36-.147 3.402-.07 4.882.125.583.076 1.198.12 1.364.098.43-.057.61-.049 1.467.067.736.099.861.108 1.34.091.643-.022 1.161.045 1.37.18.184.116.267.122.38.028.108-.09.214-.092.423-.008.153.062.551.107.885.1.333-.007.892.004 1.24.027l.635.038-.078-.303a3.92 3.92 0 0 1-.07-.826c.006-.453-.024-.537-.228-.63-.45-.205-.236-1.26.22-1.086.255.098.414.551.272.779-.067.106-.12.228-.12.27.002.043.042.014.092-.064.049-.077.155-.116.235-.085.169.065 1.189 1.56 1.189 1.742 0 .126.377.511.49.5.037-.003.27.22.52.495.251.276.605.66.788.854.183.194.473.549.645.788.172.24.37.458.44.485.07.027.193.177.272.334.277.55.435.79.603.917.093.07.2.275.24.456.04.18.155.447.257.592.103.145.217.463.255.707.038.245.165.581.282.748.185.264.21.426.187 1.257-.014.525-.076 1.094-.139 1.264-.146.402-.7.666-1.415.674-.651.007-1.81-.134-1.98-.242-.067-.043-.294-.096-.505-.12-.792-.086-1.606-.292-1.866-.473-.147-.102-.342-.186-.433-.186-.09 0-.435-.114-.766-.254a7.634 7.634 0 0 0-1.11-.362c-.278-.06-.506-.154-.506-.21 0-.059-.125-.073-.303-.034-.224.05-.371.013-.57-.143-.195-.154-.413-.21-.812-.21-.3 0-.699-.064-.885-.142-.296-.124-.358-.122-.494.014-.14.139-.27.131-1.284-.08-.882-.182-1.145-.205-1.206-.107-.095.154-.875.111-.847-.046.012-.064-.1-.09-.274-.065-.247.036-.302.002-.358-.22-.06-.237-.247-.379-.247-.189 0 .042-.157.087-.35.101-.243.018-.379-.028-.45-.151-.093-.159-.104-.154-.107.045-.004.308-.152.368-.48.196-.269-.14-.293-.133-.544.168-.253.302-.301.317-1.314.39-.579.042-1.19.105-1.36.14-.216.045-.349.017-.437-.09-.112-.133-.178-.135-.527-.012-.22.077-.421.143-.448.145a5.034 5.034 0 0 0-.125.012 41.44 41.44 0 0 1-1.036.014c-.64.003-1.012.049-1.114.137-.084.073-.293.128-.465.123-.172-.004-.363.022-.423.06-.06.036-.202-.032-.314-.153l-.205-.22-.197.243c-.177.219-.279.244-1.014.252-.615.007-.863.051-1.005.18-.168.152-.202.153-.317.016-.162-.196-.346-.197-.507-.002-.07.083-.277.151-.462.151-.184 0-.366.05-.403.11-.081.132-1.333.095-1.574-.046-.119-.07-.255-.031-.495.14-.296.21-.373.223-.744.124-.31-.082-.45-.08-.558.008-.158.132-4.589.176-4.795.048-.063-.038-.2.007-.305.102-.133.12-.383.175-.835.184-.356.007-.714.069-.797.138-.083.068-.216.1-.295.07-.079-.03-.429.011-.777.092-.461.108-.653.117-.704.035-.05-.08-.125-.083-.26-.007-.17.094-.96.188-3.101.37-.377.031-.786.095-.909.14a.484.484 0 0 1-.404-.03c-.137-.085-.2-.08-.263.019-.11.177-.956.424-1.218.355a.449.449 0 0 0-.358.066c-.081.068-.24.091-.36.053a.401.401 0 0 0-.398.098c-.162.147-.2.148-.334.014-.172-.172-.277-.113-.277.157 0 .156-.082.183-.53.177-1.048-.014-2.254.076-2.453.184-.11.06-.543.13-.961.153-.418.025-.854.095-.97.157a1.082 1.082 0 0 1-.403.117c-.461.009-1.067.088-1.125.145-.034.035-.294.063-.576.064a3.402 3.402 0 0 0-.919.143c-.274.096-.444.108-.527.04-.084-.07-.224-.05-.445.06a1.75 1.75 0 0 1-.653.16c-.182 0-.55.044-.819.098-1.47.293-1.68.31-1.908.162-.204-.134-.23-.126-.334.1-.087.192-.196.25-.493.264-.704.032-.784.044-1.24.175a2.398 2.398 0 0 1-.833.08 2.44 2.44 0 0 0-.843.089c-.255.077-.494.135-.532.13a.246.246 0 0 0-.119.017c-.027.014-.46.036-.96.05-.5.013-1.115.08-1.365.15a5.91 5.91 0 0 1-1.062.159c-.333.017-.856.06-1.162.094a20.8 20.8 0 0 1-1.264.092c-.39.015-.902.082-1.138.148-.237.067-.814.134-1.283.15-.47.016-.917.083-.998.15-.102.084-.223.092-.4.024-.14-.053-.275-.077-.299-.053-.101.101-1.555.12-1.737.022-.163-.087-.24-.057-.436.17-.15.176-.296.254-.398.214-.227-.086-1.136.047-1.28.188-.066.065-.53.175-1.03.245s-1.183.173-1.516.227c-.334.055-.903.139-1.264.186-.362.047-.785.135-.942.197a1.767 1.767 0 0 1-.534.112c-.137 0-.274.065-.304.144-.044.113-.119.122-.353.04-.191-.067-.342-.07-.422-.007-.192.15-1.005.324-1.846.395-.419.036-.786.103-.815.15-.03.048-.176.087-.326.087-.15 0-.402.069-.561.152-.16.083-.424.151-.588.151a1.29 1.29 0 0 0-.51.113c-.116.062-.494.126-.84.141-.345.016-.729.082-.852.148-.123.066-.424.127-.67.137-.28.01-.447.064-.447.144 0 .07-.102.134-.227.143l-.43.032c-.292.02-.78.15-.984.26a1.096 1.096 0 0 1-.437.095c-.143 0-.35.048-.459.107-.109.058-.737.11-1.395.114-1 .007-1.195.034-1.185.16.012.152-.48.508-.721.522-.07.003-.127-.058-.127-.138zm81.492-12.683c0-.108-.405-.225-.524-.151-.047.028-.06.095-.028.146.074.12.552.124.552.004zm2.402-.172c-.097-.096-.29.06-.218.176.043.07.099.068.172-.004.06-.06.08-.136.046-.17zm-3.918-.143c0-.055-.02-.101-.045-.101-.024 0-.073.045-.107.101-.034.056-.014.101.045.101.058 0 .107-.045.107-.1zm5.861-.65c-.186-.186-.311.082-.174.373l.126.269.074-.272c.04-.149.028-.315-.026-.37zm-4.175.126c-.032-.081-.056-.057-.06.06-.005.107.019.167.053.133.033-.033.037-.12.008-.193zm2.718-.255c-.101-.263-.174-.076-.092.236.056.214.087.242.115.108a.721.721 0 0 0-.023-.344zm-58.843-15.576c-.037-.037-.828-.074-1.756-.082a92.621 92.621 0 0 1-6.188-.291 64.1 64.1 0 0 0-2.123-.1c-.807-.025-1.671-.074-1.921-.108s-.66-.074-.91-.088a7.459 7.459 0 0 1-.81-.094c-.194-.038-.853-.09-1.465-.115-.612-.026-1.226-.077-1.365-.113-.282-.074-1.103-.14-1.567-.125a5.65 5.65 0 0 1-.506-.01c-.111-.01-.93-.042-1.818-.072-.89-.029-1.663-.091-1.72-.138-.055-.046-.452-.07-.88-.05-.576.024-.807-.003-.895-.109-.085-.102-.169-.114-.305-.04-.114.06-.336.066-.57.013-.211-.047-.992-.096-1.736-.11-.744-.012-1.449-.06-1.567-.103-.118-.044-.533-.06-.923-.036-.389.025-.912-.007-1.162-.07a8.034 8.034 0 0 0-1.05-.162c-.328-.028-.678-.094-.778-.147a.937.937 0 0 0-.37-.097.499.499 0 0 1-.308-.12c-.07-.07-.35-.109-.678-.094-.381.018-.557-.012-.557-.096 0-.082-.113-.103-.35-.065-.247.04-.417.004-.581-.122a1.65 1.65 0 0 0-.586-.248c-.358-.069-1.137-.563-1.415-.899a.846.846 0 0 0-.437-.233c-.156-.028-.421-.197-.59-.376-.167-.18-.497-.53-.733-.78a4.81 4.81 0 0 1-.712-1.062c-.155-.334-.337-.675-.405-.758-.16-.199-.432-.944-.553-1.517a10.49 10.49 0 0 0-.308-1.06c-.116-.334-.277-1.176-.357-1.871a31.751 31.751 0 0 0-.255-1.821c-.144-.734-.137-4.492.01-4.766.06-.114.134-.555.162-.981.046-.68.187-1.298.547-2.392.055-.167.126-.6.158-.96.033-.362.122-.759.199-.882a.973.973 0 0 0 .14-.424c0-.11.045-.227.1-.262.056-.034.102-.145.102-.247 0-.101.072-.429.16-.727.194-.662.389-1.357.604-2.16.09-.334.282-.925.429-1.314.146-.39.282-.84.302-1.001.02-.161.096-.388.17-.505.074-.118.186-.46.249-.762.062-.303.152-.598.2-.658.046-.059.11-.244.141-.411.188-1.007.415-1.825.542-1.952.08-.08.121-.213.09-.293-.076-.2.045-.649.157-.58.05.031.092.043.094.025.065-.53.136-.85.197-.89.042-.028.103-.347.134-.708a8.48 8.48 0 0 1 .17-1.112c.063-.25.14-.592.171-.759.032-.166.1-.357.152-.422.053-.066.137-.385.189-.708.05-.324.137-.77.19-.993.054-.222.148-.632.21-.91.063-.278.2-.87.306-1.314.105-.445.238-1.06.295-1.365.058-.306.175-.875.26-1.264l.254-1.156c.053-.246.166-.552.249-.679.084-.129.153-.466.155-.765.003-.46.362-2.027.4-1.747.012.085.31-1.001.717-2.615.054-.214.165-.519.247-.677a1.61 1.61 0 0 0 .149-.623c0-.191.109-.496.253-.708.139-.204.252-.46.252-.567 0-.107.069-.252.152-.32.091-.077.152-.298.152-.557 0-.244.06-.48.14-.547.078-.064.262-.496.41-.96.147-.463.395-1.087.55-1.387.156-.3.342-.726.414-.948.072-.223.239-.619.37-.881.131-.263.239-.549.239-.636 0-.087.078-.277.173-.423.095-.145.182-.324.193-.397.039-.265 1.04-2.263 1.133-2.263.053 0 .128-.17.167-.376.038-.207.153-.492.254-.634.101-.142.214-.485.251-.762.037-.277.15-.685.252-.908l.55-1.198c.2-.437.363-.852.363-.922 0-.07.089-.24.196-.376a1.65 1.65 0 0 0 .262-.512c.037-.145.13-.288.209-.318.078-.03.142-.19.142-.355 0-.165.045-.328.099-.361.054-.034.149-.252.211-.486a2.55 2.55 0 0 1 .34-.73c.125-.166.28-.459.346-.65.065-.19.189-.424.274-.518.085-.094.18-.347.212-.563.052-.35.425-1.237.958-2.276.104-.202.189-.422.189-.49 0-.066.091-.237.202-.378.111-.142.202-.36.202-.486 0-.125.064-.252.142-.282.078-.03.173-.24.212-.469.045-.267.191-.543.414-.78.19-.2.345-.438.345-.527 0-.09.162-.339.359-.553a6.41 6.41 0 0 0 .53-.657c.095-.147.261-.371.37-.498.11-.128.246-.376.304-.553.058-.177.258-.425.445-.55.187-.126.415-.363.506-.526.09-.163.273-.494.404-.735.132-.241.507-.742.835-1.113.327-.37.594-.716.594-.767 0-.11.956-.935 1.082-.935.047 0 .335-.227.64-.505.304-.279.655-.534.78-.567.128-.035.228-.14.228-.24 0-.1.072-.24.16-.313.089-.073.436-.488.771-.922.336-.434.662-.789.725-.788.307.005.67.537.67.985 0 .184.068.498.151.698.258.616.171 1.974-.253 3.973-.065.303-.25.79-.412 1.081-.163.292-.295.603-.295.692 0 .176-.321.842-.62 1.287-.104.155-.273.406-.374.56-.102.152-.27.505-.374.783-.104.278-.29.665-.415.86a2.582 2.582 0 0 0-.295.633c-.038.153-.121.312-.187.353-.183.116-.736 1.052-.812 1.376-.037.16-.134.356-.214.437-.08.08-.175.322-.21.536-.045.284-.12.404-.277.443-.149.038-.273.214-.397.564-.1.28-.225.51-.278.51-.054 0-.097.07-.097.154 0 .136-.596 1.49-.955 2.172a2.72 2.72 0 0 0-.204.581c-.039.181-.101.329-.138.329-.109 0-.826 1.458-.826 1.68 0 .072-.114.298-.253.503-.14.205-.253.437-.253.517 0 .079-.11.38-.245.668a4.642 4.642 0 0 0-.315.904c-.038.208-.11.379-.159.379-.05 0-.09.062-.09.138 0 .19-.404 1.172-.61 1.48a1.86 1.86 0 0 0-.231.58c-.06.316-.631 1.738-1.137 2.835-.135.293-.246.578-.246.633a.837.837 0 0 1-.086.275 18.22 18.22 0 0 0-.242.53l-.318.723c-.09.203-.163.459-.163.569 0 .11-.063.252-.14.316-.078.065-.172.287-.21.493-.037.207-.16.58-.274.83-.9 1.982-.994 2.208-.994 2.415 0 .1-.091.266-.203.367-.111.101-.267.399-.345.661-.078.263-.222.572-.321.688-.1.115-.241.449-.316.74a5.266 5.266 0 0 1-.284.83c-.082.162-.148.35-.148.414 0 .066-.108.22-.24.344-.155.146-.262.391-.304.698-.04.285-.175.613-.343.828-.258.33-.455.851-.71 1.873a25.26 25.26 0 0 1-.325 1.113 23.874 23.874 0 0 0-.411 1.522c-.103.448-.28 1.017-.391 1.264-.112.247-.205.553-.206.68-.001.126-.137.901-.302 1.722a27.678 27.678 0 0 0-.399 2.954c-.055.805-.19 1.966-.299 2.581-.109.616-.23 1.503-.27 1.972-.04.47-.121.944-.18 1.055-.06.111-.142.407-.185.657-.173 1.02-.41 1.982-.562 2.278-.056.11-.183.632-.28 1.16a31.454 31.454 0 0 1-.482 2.073 34.27 34.27 0 0 0-.386 1.525 4.63 4.63 0 0 1-.23.759c-.082.19-.203.55-.27.8a9.01 9.01 0 0 1-.306.91c-.102.25-.213.659-.248.908-.034.25-.147.546-.251.657-.184.197-.34.705-.871 2.833-.186.744-.32 1.073-.508 1.248-.14.131-.232.3-.203.376.03.076-.03.381-.132.678a6.551 6.551 0 0 0-.255 1.191 7.77 7.77 0 0 1-.473 1.895c-.158.413-.097.804.173 1.125.144.172.302.287.351.257.117-.073 1.786.144 2.144.279.155.058.505.1.78.094.273-.006.526.033.56.088.038.062.126.064.234.006.106-.057.627-.056 1.334.002.638.052 1.854.105 2.702.118.848.012 1.541.058 1.542.102 0 .043.08.038.177-.011.097-.05.631-.072 1.188-.049 1.03.043 3.091.11 3.412.11h.86c.375 0 1.137.025 1.693.056.556.03 1.125.053 1.264.05.139-.003.525-.001.859.003.863.014.842.013 1.036.012.098-.001.45-.008.784-.017a32.17 32.17 0 0 1 1.112-.004c.278.004.665.007.86.003 1.825-.031 6.512.083 6.806.167.174.05.327.04.39-.024.071-.07.199-.072.39-.006.195.068.351.065.491-.01.22-.118.99-.044 1.191.115.073.057.268.053.506-.01.576-.155 1.964-.166 2.24-.018.194.103.266.1.405-.023.131-.116.439-.145 1.404-.13.679.011 1.267.052 1.306.091.039.04.171.004.294-.075.19-.124.756-.176 1.664-.152.083.002.31-.036.505-.084.211-.053.47-.05.64.008a.699.699 0 0 0 .53-.016.618.618 0 0 1 .515-.008c.15.057.343.07.43.028.146-.07 2.125-.227 2.921-.233.184-.001.417-.047.518-.101.101-.054.701-.12 1.334-.145 1.228-.05 1.96-.139 2.22-.272.088-.045.612-.134 1.163-.198a65.547 65.547 0 0 0 1.61-.207c.333-.049.674-.094.757-.099.084-.004.243-.049.354-.097.111-.05.544-.156.96-.237 1.058-.205 1.646-.38 1.803-.537a.542.542 0 0 1 .333-.133c.11 0 .327-.065.483-.146.155-.08.632-.177 1.059-.216.943-.086 1.12-.244.272-.244-.337 0-.613-.042-.613-.093 0-.242.143-.413.345-.413.122 0 .265-.04.318-.09.052-.048.471-.12.93-.158.732-.06.843-.048.9.103a.463.463 0 0 1-.05.36c-.157.25-.149.29.063.29.268 0 .565.551.431.8a.982.982 0 0 0-.106.382c-.001.42-.211.92-.408.972-.174.046-.195.11-.142.441.04.26.008.488-.098.692-.088.166-.16.238-.16.158 0-.082-.13.001-.304.195-.249.279-.303.429-.303.83 0 .415-.036.506-.228.583-.125.05-.172.094-.105.098.067.003.022.107-.102.234-.123.125-.37.407-.55.626l-.325.4-.236-.223c-.13-.122-.268-.222-.306-.222-.154 0-.055.482.143.695.19.205.204.3.14.954-.04.4-.105.75-.143.777-.039.028-.114.21-.168.405-.084.303-.163.373-.55.488a5.836 5.836 0 0 0-.696.253c-.19.092-.253.09-.286-.008-.07-.208-.202-.144-.271.132-.05.197-.11.244-.257.197-.163-.052-.198-.002-.225.322-.024.293-.079.39-.233.412-.311.044-.986.237-1.233.352-.122.057-.432.08-.69.05a2.266 2.266 0 0 0-1.286.242c-.097.048-.325.087-.509.087-.183 0-.433.071-.557.158-.303.212-.565.27-1.304.292-.343.01-.685.066-.758.125-.074.058-.59.135-1.145.172-.556.037-1.398.117-1.87.178-1.14.148-3.626.264-4.197.196-.187-.022-1.713.034-3.805.14-.48.024-.903.013-.94-.024zm20.568-4.776a.101.101 0 1 0-.101.101.101.101 0 0 0 .101-.101zm-.101-.455c0-.084-.046-.152-.101-.152-.056 0-.102.069-.102.152 0 .083.046.152.102.152.055 0 .1-.069.1-.152zm-84.92-31.71c-.3-.05-.699-.185-.885-.3-.186-.115-.338-.186-.338-.158 0 .028-.148-.085-.329-.25-.916-.84-.83-.715-1.52-2.211-.378-.82-.44-1.048-.537-1.972-.108-1.032-.036-3.896.116-4.623.079-.373.115-.817.082-.985-.04-.196-.02-.306.052-.306.063 0 .114-.07.114-.157 0-.086.107-.263.237-.393.451-.451.91-.126 1.263.895.075.218.232.525.348.683.182.245.282.286.699.286.283 0 .486-.046.486-.11 0-.072.138-.087.4-.043.22.038.65.016.956-.047.394-.082.614-.085.756-.008.155.083.238.068.371-.065.104-.103.357-.18.639-.191.754-.032 1.416-.129 1.616-.236.128-.069.225-.062.315.022.1.095.14.094.175-.004.026-.07.225-.155.443-.19.43-.068.437-.087.293-.715-.175-.755-.359-3.2-.402-5.338-.02-.974.125-2.933.225-3.058a.42.42 0 0 1 .292-.127c.104 0 .19-.045.19-.1 0-.166.147-.119.617.2.52.352.848.385 1.024.102.07-.11.206-.202.304-.202.227 0 .235-.36.02-.898-.088-.218-.145-.55-.127-.735.044-.461.35-.493.927-.096.244.168.469.282.498.252.03-.03.218-.008.418.046.2.055.363.063.363.018 0-.046.239-.13.53-.189.293-.058.649-.135.792-.17.306-.076.902.359.902.658 0 .1.069.312.152.47.096.183.147.538.14.956-.008.367.042.769.109.894.17.318.718.804.99.878.125.034.227.126.227.205 0 .08.061.168.136.196.2.077 1.052 1.272 1.13 1.585.038.148.132.323.21.387.078.065.142.161.142.214 0 .052.136.294.303.536.167.243.303.504.303.58 0 .076.055.193.122.26.092.092.114.978.088 3.584-.043 4.365-.042 4.33-.183 4.585-.096.172-.081.281.08.58.108.204.197.442.197.531 0 .261-.333.75-.51.75-.09 0-.287.137-.438.306-.15.168-.41.334-.576.367-.167.034-.348.145-.404.248-.116.218-.885.593-1.226.6-.415.006-1.237.244-1.527.44-.209.141-.523.202-1.213.235-.512.025-.991.095-1.065.156-.073.061-.333.1-.577.088-.25-.013-.579.046-.75.135-.17.088-.638.18-1.04.206-1.1.07-2.216.255-2.532.418a1.034 1.034 0 0 1-.606.087c-.187-.033-.606.021-.983.127-.447.126-.802.165-1.11.12a2.641 2.641 0 0 0-.808.018c-.406.095-.373.095-1.106-.026zm79.005-7.139c-.884-.217-1.2-.397-1.574-.896-.184-.245-.372-.445-.419-.445-.046 0-.128-.114-.18-.253-.054-.139-.137-.253-.186-.253-.05 0-.194-.216-.322-.48l-.317-.656a.914.914 0 0 1-.086-.329c0-.084-.09-.323-.202-.53-.111-.208-.202-.45-.202-.538 0-.088-.063-.362-.14-.608-.078-.246-.197-.72-.265-1.054a28.092 28.092 0 0 0-.15-.708l-.045-.175a15.476 15.476 0 0 0-.127-.405c-.06-.181-.098-.899-.085-1.594.023-1.34.099-1.602.56-1.945.229-.17.26-.166.927.133.379.17.765.378.858.462.129.117.348.142.94.109.425-.024.825-.096.889-.16a.394.394 0 0 1 .575.028c.137.166.993.157 1.102-.011.037-.057.374-.128.75-.157.376-.03.75-.108.83-.175a.408.408 0 0 1 .344-.058c.109.035.228.016.263-.042.036-.058.174-.105.306-.105.133 0 .269-.045.303-.1.033-.055.161-.096.284-.092.122.004.677-.07 1.233-.164a30.71 30.71 0 0 1 1.213-.19 1.21 1.21 0 0 0 .423-.14c.12-.067.575-.128 1.009-.134.434-.007.898-.054 1.031-.104.134-.05.555-.098.937-.105.383-.007.695-.044.695-.082 0-.038.418-.079.93-.09.51-.012.99-.071 1.065-.133.075-.062.436-.128.803-.147.367-.019.73-.086.807-.15.091-.076.347-.095.728-.055.359.037.629.02.694-.045.058-.058.464-.122.901-.142.438-.02.94-.08 1.117-.135.176-.053.342-.076.367-.05.026.025.578-.028 1.228-.118s1.822-.18 2.604-.199c.783-.02 1.45-.078 1.485-.13.035-.053.32-.063.668-.022.367.044.657.032.735-.03.071-.055.321-.113.556-.128a50.1 50.1 0 0 0 1.087-.086c.363-.033.802-.019.976.031.193.055.353.054.412-.004.052-.053.478-.12.945-.149 1.944-.12 2.722-.161 3.68-.19.557-.017 1.313-.102 1.682-.188.394-.092 1.165-.16 1.87-.164 1.335-.008 1.863-.05 2.313-.183.167-.05.505-.079.751-.065.258.014.541-.037.668-.12.121-.08.294-.116.384-.081.188.072 1.766-.116 2.292-.273a6.76 6.76 0 0 0 .693-.259c.186-.084.618-.174.96-.201.342-.027.963-.08 1.38-.117l.758-.068v-.348c0-.452.131-.488 1.833-.501 1.038-.008 1.353.022 1.447.135.096.115.077.188-.09.355-.138.138-.192.288-.156.437.058.239-.274.883-.454.883-.057 0-.103.083-.103.186 0 .102-.17.374-.379.604-.209.23-.553.62-.766.87-.213.248-.486.465-.606.482-.154.022-.23.114-.252.302-.019.165-.164.372-.372.531-.212.162-.353.365-.373.537-.05.436-.36.423-.442-.019-.087-.46-.247-.567-.247-.163 0 .48-.32 1.137-.527 1.083-.11-.028-.267.078-.43.292-.141.185-.348.365-.459.4-.111.036-.202.13-.202.21 0 .2-.204.181-.36-.032-.225-.308-.25-.08-.036.32.113.211.192.392.174.402l-.309.158c-.153.077-.28.212-.281.3-.01.449-.806.865-.806.42 0-.257-.103-.513-.206-.513-.163 0-.4.646-.4 1.09 0 .399-.019.436-.16.319-.132-.11-.175-.108-.251.012a.64.64 0 0 0-.093.203c-.002.098-.57.701-.66.701-.047 0-.166.074-.265.164-.3.27-.492.106-.492-.42 0-.53-.16-.527-.26.006-.037.193-.11.35-.163.35-.103 0-.82.512-.871.622-.017.035-.188.016-.381-.043-.319-.098-.377-.082-.642.172-.243.232-.326.26-.497.169-.274-.147-.289-.143-.35.092-.057.216-.366.271-.541.097-.073-.074-.145-.058-.235.05a.54.54 0 0 1-.37.156c-.132 0-.24.04-.24.09 0 .05-.103.093-.228.096-.586.014-1.765.187-1.946.286a.56.56 0 0 1-.404.034.532.532 0 0 0-.378.015c-.096.05-.29.062-.43.026-.155-.038-.322-.01-.42.072-.101.083-.39.13-.753.122-.396-.01-.628.033-.707.128-.065.078-.266.142-.448.142-.181 0-.456.066-.611.146-.206.107-.334.118-.478.041-.145-.077-.312-.06-.642.066a1.746 1.746 0 0 1-.95.1c-.318-.043-.503-.03-.503.034 0 .16-.613.324-1.586.424-1.247.128-2.313.275-2.888.398a6.83 6.83 0 0 1-1.168.105c-.373 0-.837.046-1.031.102-.195.056-.74.13-1.213.165-.473.034-1.005.129-1.183.21-.178.082-.368.12-.422.087-.055-.033-.473.003-.93.083-.458.08-.894.12-.97.092-.075-.03-.198-.002-.271.058-.074.061-.494.132-.934.159-2.125.126-2.724.18-2.771.254-.028.043-.825.11-1.77.149-.946.038-1.878.078-2.073.089-.194.01-.393.08-.441.157-.074.117-.101.117-.173 0-.1-.16-1.318-.162-1.657-.002-.337.16-1.617.326-1.655.215a.16.16 0 0 0-.143-.099c-.06 0-.08.03-.043.067.13.131-.148.338-.327.242a.325.325 0 0 0-.318 0c-.08.051-.333.093-.56.094-.228.001-.637.07-.91.153a5.604 5.604 0 0 1-.496.138c0-.007-.273-.08-.607-.161zm41.005-8.025c.084-.158.084-.242-.001-.328-.134-.133-.305.07-.307.364-.002.243.169.223.307-.036zm-101.82-5.457c-.473-.044-1.042-.127-1.264-.183-.223-.056-.506-.077-.63-.046-.125.03-.375 0-.557-.068-.181-.069-.694-.16-1.139-.204a13.127 13.127 0 0 1-1.314-.195 8.13 8.13 0 0 0-1.896-.225c-.264.003-.48-.036-.48-.086 0-.05-.262-.086-.581-.08a9.316 9.316 0 0 1-1.34-.107 18.659 18.659 0 0 0-1.466-.162 22.09 22.09 0 0 1-1.163-.1c-.25-.032-.864-.106-1.365-.164-.5-.058-1.092-.166-1.314-.24a9.908 9.908 0 0 0-1.05-.253c-.753-.139-1.466-.581-2.092-1.3-.79-.905-1.375-2.305-1.697-4.06a16.182 16.182 0 0 1-.15-.91 42.469 42.469 0 0 0-.125-1.064c-.126-1-.018-3.126.16-3.141a1.09 1.09 0 0 0 .27-.084c.123-.054.287.045.595.363.234.24.498.551.586.69.611.963 1.1 1.448 1.377 1.368.477-.137 1.168-.173 1.448-.076.2.07.336.071.402.004.067-.067.122-.067.164 0 .077.126 3.216.044 3.576-.093.156-.06.294-.06.365 0a.407.407 0 0 0 .19.095c.043 0 .376.033.742.072.405.043.754.03.896-.035.16-.073.356-.074.624-.003.609.16 2.363.056 2.363-.14 0-.051.072-.022.16.065.187.188.244.193.608.054.151-.057.916-.12 1.7-.14 1.486-.038 3.403-.265 3.993-.473.304-.107.361-.099.486.07.135.182.148.183.243.016.07-.124.173-.16.337-.119.239.06.936-.222.825-.334-.079-.078.135-.33.28-.33.063 0 .223.205.357.456.133.251.346.578.474.727.217.252.751 1.716.75 2.052-.002.217.297 1.099.519 1.531.104.203.218.59.253.86s.123.604.196.743c.34.645.483 2.215.293 3.186-.05.249-.542.858-.695.86-.062 0-.211.174-.333.387-.193.339-.3.408-.86.56-.608.164-2.23.377-2.66.35a88.35 88.35 0 0 1-1.061-.094zm65.87-2.182a14.376 14.376 0 0 1-.89-.264c-.341-.123-1.89-1.601-1.89-1.804 0-.078-.088-.307-.195-.507a3.09 3.09 0 0 1-.266-.757c-.039-.216-.104-.438-.144-.494-.156-.214-.21-.66-.262-2.173-.03-.862-.073-1.625-.096-1.695-.023-.07.006-.366.065-.657.059-.291.102-.712.096-.934-.015-.543.188-2.275.296-2.528.048-.111.142-.452.209-.758.149-.68.257-.91.536-1.135.402-.326.97-.132 1.214.415.278.623.87 1.403 1.095 1.442.474.082 3.82-.273 3.923-.416.048-.067.461-.194 1.365-.42.222-.055.447-.143.5-.195.053-.053.224-.096.38-.096.155 0 .282-.05.282-.113 0-.062.087-.09.194-.062.153.04.206-.017.255-.282.083-.441-.306-1.32-.906-2.05-.54-.655-.566-.915-.156-1.56.347-.548.684-.78.778-.537.033.086.439.342.902.569.464.226.857.452.874.502.017.05.13.105.249.123.12.018.451.231.737.474.285.242.673.558.862.703.189.144.448.476.577.738.395.8.866.915 2.655.64.552-.085 1.289-.147 1.636-.137.387.01.692-.033.787-.111.085-.071.44-.147.79-.17.782-.051 1.868-.287 2.262-.492.174-.09.308-.112.328-.053.06.18.403.104.591-.13.103-.13.265-.215.366-.195.1.02.237-.008.303-.063.067-.055.35-.134.627-.175.278-.041.705-.16.95-.265.412-.176.432-.201.282-.366-.088-.097-.128-.222-.089-.276.12-.166.82-.452 1.11-.454.152 0 .496-.068.765-.15.35-.105.546-.119.683-.045.223.119.228.143.086.407-.079.148-.066.253.05.42.087.123.157.363.157.534 0 .172.053.365.119.43.155.156-.048.63-.271.63-.191 0-.354.398-.354.866 0 .529-.759 1.8-1.133 1.898-.183.048-.202.11-.151.485.06.45-.053.794-.261.796-.068 0-.206.176-.308.389-.15.313-.23.38-.416.344-.19-.037-.24.01-.294.28a3.583 3.583 0 0 0-.065.572c0 .143-.044.219-.104.182-.136-.084-.495.35-.5.603-.002.153-.03.17-.124.076a.43.43 0 0 0-.253-.122c-.149 0-.18.363-.04.45.05.03.067.151.037.267-.039.146-.079.173-.132.086-.056-.09-.115-.064-.213.093-.169.27-.257.274-.34.013-.036-.112-.1-.182-.145-.154-.101.062-.008.59.12.673.156.102-.464.478-.996.603a7.73 7.73 0 0 0-.727.206 1.42 1.42 0 0 1-.405.09c-.095 0-.302.068-.462.151-.159.083-.352.151-.43.151-.076 0-.23.091-.342.202-.11.111-.291.203-.4.203-.292 0-.884.562-1.017.965-.063.192-.181.349-.262.349a.24.24 0 0 0-.203.147c-.031.08-.213.198-.404.261a2.357 2.357 0 0 0-.648.367c-.17.143-.618.334-1.033.44-.981.248-1.258.338-1.796.583-.25.115-.614.232-.809.262-.852.129-2.108.361-2.527.468-.25.063-.842.16-1.315.213-.472.054-.95.14-1.061.19-.354.162-1.299.414-1.77.472-.25.03-.498.097-.55.146-.054.05-.266.09-.472.09-.207 0-.392.048-.411.106-.062.185-1.398.205-2.055.03zm41.05-.135c-.035-.056.01-.101.1-.101.09 0 .136.045.102.1-.034.056-.08.102-.101.102-.021 0-.067-.045-.101-.101zM8.896 99.838a.585.585 0 0 1 .303.003c.069.027-.012.048-.179.046-.166-.002-.222-.024-.124-.05zm111.35-11.526c-.161-.086-.57-.237-.91-.335a7.058 7.058 0 0 1-1.257-.544c-.352-.201-.667-.366-.698-.366-.107 0-2.208-1.982-2.502-2.36-.111-.143-.242-.261-.292-.264-.085-.005-.342-.231-1.382-1.218-.595-.565-.754-.694-1.04-.843a4.322 4.322 0 0 1-.526-.35c-.913-.712-1.684-1.225-1.998-1.328-.196-.065-.38-.183-.411-.263-.031-.08-.297-.302-.59-.494-.295-.19-.643-.487-.774-.658-.131-.17-.305-.31-.386-.31-.26 0-.9-.834-.784-1.022.122-.197 2.492.046 2.682.275.07.084.21.114.355.078.167-.042.26-.011.303.102.044.116.193.162.524.162.485 0 1.134.185 1.134.324 0 .044.122.08.27.08a.79.79 0 0 1 .455.167c.249.225 2.244.285 2.42.073.066-.079.307-.138.561-.138.245 0 .725-.094 1.065-.21a3.63 3.63 0 0 1 1.185-.19c.311.011.645-.014.743-.055.098-.04.325-.047.506-.016.323.056.748-.01 1.54-.24a3.9 3.9 0 0 1 .658-.133c.14-.008.29-.073.334-.142.046-.072.287-.126.56-.126.265 0 .525-.045.58-.099.118-.118 1.981-.506 2.438-.507.177 0 .348-.042.38-.093.069-.112.762-.212 1.804-.259.433-.02.851-.089.93-.154.143-.119 1.608-.363 2.724-.455.33-.027.63-.097.667-.157.037-.06.335-.104.664-.099.757.012 2.36-.177 2.595-.307.098-.054.553-.143 1.01-.198a68.82 68.82 0 0 0 1.44-.19c.334-.05.868-.066 1.186-.036.33.03.635.01.708-.049.07-.057.675-.133 1.342-.17l2.073-.116a17.454 17.454 0 0 0 1.668-.19c1.326-.23 1.945-.28 2.018-.163.037.059.135.107.218.107.084 0 .127-.04.097-.09-.065-.104.975-.192 2.47-.207.583-.006 1.197-.055 1.364-.108.32-.103 1.444-.207 2.636-.245.393-.013.768-.056.834-.096.065-.04.722-.087 1.459-.103.737-.016 1.415-.062 1.508-.103.092-.04.337-.027.545.03.272.076.437.072.59-.012.118-.064.623-.128 1.123-.142.915-.027 1.323-.072 1.745-.195.14-.041.227-.023.227.046 0 .138.327.15.46.016.113-.112 2.024-.292 3.989-.376.844-.037 1.469-.112 1.638-.197.15-.077.409-.139.575-.139.166 0 .332-.047.367-.105.036-.058.146-.08.245-.048.252.08.482-.03.542-.257.083-.32.51-.399 2.139-.399 1.257 0 1.56.028 1.606.146.03.08.028.478-.006.885-.06.717-.077.754-.568 1.27-.279.291-.546.53-.595.53-.095 0-.576.513-.582.62-.01.207-.335.813-.39.73-.155-.231-.403-.225-.462.012-.033.13-.213.326-.4.437-.35.205-.547.713-.414 1.06.032.084.003.188-.064.23-.073.045-.098.035-.061-.025.04-.065-.114-.084-.427-.054-.3.029-.515.003-.559-.067-.115-.186-.328.106-.404.554-.106.629-.209.734-.438.45-.106-.13-.243-.207-.304-.17-.135.084-.392.996-.417 1.48-.025.5-.167.585-.358.215-.281-.543-.47-.422-.614.393-.044.249-.142.392-.327.48-.32.15-.381.108-.236-.162.162-.303.139-.824-.037-.824-.206 0-.26.124-.283.662-.017.402-.058.487-.275.57-.14.052-.397.07-.572.036-.264-.05-.326-.024-.373.154-.037.141-.118.2-.24.173-.1-.022-.385.095-.63.26-.391.264-.667.339-1.333.363-.089.004-.27.102-.404.219-.206.18-.325.202-.776.15-.425-.049-.616-.019-.945.149-.227.116-.477.186-.556.155-.079-.03-.518.015-.976.1-.458.086-.923.171-1.035.19a9.112 9.112 0 0 0-.654.154c-.443.12-1.225.209-2.126.24-.25.01-.556.074-.68.144-.123.07-.441.126-.707.124-1.16-.007-2.219.074-2.425.185-.123.066-.669.139-1.213.162-.545.023-1.218.094-1.496.158-.278.063-.962.132-1.519.152-.557.02-1.148.09-1.314.153-.166.063-.613.132-.993.153-.38.02-.758.092-.838.16-.081.066-.362.116-.623.11a5.282 5.282 0 0 0-1.083.133c-.334.078-.72.137-.86.13-.138-.005-.502.038-.808.097-.306.059-.852.16-1.214.224-.361.064-.796.159-.967.21-.171.053-.4.095-.51.095a.51.51 0 0 0-.316.116c-.064.064-.38.115-.703.113-.323 0-.648.047-.722.106-.074.06-.306.098-.516.086-.238-.014-.428.034-.506.128-.111.134-.155.132-.381-.016-.223-.146-.27-.149-.37-.02-.063.081-.638.275-1.277.43-.64.156-1.39.347-1.668.426-.278.079-.864.186-1.301.238-.438.053-.845.145-.905.205-.06.06-.252.11-.427.11-.174 0-.35.033-.393.075-.042.042-.697.083-1.457.09-.76.009-2.2.04-3.201.07-1.522.044-1.869.028-2.115-.103zm-53.165-5.805c-.097-.056-.177-.156-.177-.223 0-.068-.12-.252-.266-.41-.298-.321-.474-.943-.384-1.357.18-.824.905-2.328 1.201-2.491.293-.162.554-.489.558-.7.002-.102.094-.302.205-.443.112-.142.203-.336.203-.432 0-.096.107-.283.238-.416s.3-.423.374-.646c.075-.222.24-.549.368-.726.128-.177.233-.37.233-.43s.043-.108.096-.108c.053 0 .171-.157.262-.349.091-.192.23-.402.308-.467.079-.065.143-.16.143-.213 0-.051.136-.24.302-.417.167-.178.304-.374.304-.437s.067-.17.149-.237c.081-.068.138-.16.126-.204-.022-.08.853-1.206 1.343-1.73a4.84 4.84 0 0 0 .354-.418c.167-.245.748-1.03.842-1.139.049-.056.254-.237.457-.404.203-.166.37-.356.37-.422 0-.065.124-.248.277-.405a2.8 2.8 0 0 0 .428-.589c.082-.167.48-.628.885-1.026.404-.397.735-.796.735-.887 0-.09.102-.211.227-.269.125-.058.45-.398.72-.756.272-.358.534-.651.582-.651.049 0 .088-.066.088-.147 0-.08.061-.183.136-.227.075-.045.217-.208.317-.362.1-.155.205-.258.234-.23.029.03.187-.13.35-.353.165-.223.431-.474.592-.557.16-.083.353-.298.429-.477.16-.382.44-.72 1.5-1.808.426-.44.835-.934.908-1.1.074-.165.19-.3.26-.3s.127-.068.127-.152c0-.083.068-.151.151-.151.18 0 .729-.553.814-.821.033-.105.103-.19.157-.19.12 0 1.021-.823.964-.88-.023-.024.055-.145.175-.269.119-.124.379-.412.577-.638.198-.227.46-.444.581-.482.122-.039.221-.115.221-.17 0-.15 1.22-1.302 1.378-1.302.076 0 .139-.091.139-.203 0-.11.04-.202.089-.202.049 0 .144-.135.213-.3.068-.165.207-.326.308-.358.102-.033.404-.261.672-.508s.524-.45.568-.45c.112-.002.55-.501.733-.836.084-.153.212-.278.285-.278.178 0 .468-.33.468-.532 0-.089.08-.19.177-.226.098-.036.377-.298.621-.583.245-.286.631-.67.86-.855.228-.186.521-.427.651-.536.13-.11.295-.2.367-.2.073 0 .156-.094.187-.21a.41.41 0 0 1 .264-.264c.115-.03.21-.088.21-.129 0-.076.17-.29.734-.93.18-.203.464-.532.63-.73.168-.199.34-.362.384-.363.19-.005.98-.683 1.086-.93.064-.15.18-.296.259-.326a.242.242 0 0 0 .142-.21c0-.085.05-.154.113-.154.061 0 .307-.194.547-.43.239-.236.677-.655.974-.93.297-.275.619-.628.716-.783.096-.156.24-.284.32-.284.08 0 .423-.268.764-.595.364-.35.744-.62.922-.655.226-.045.348-.158.477-.442.1-.22.258-.395.375-.415.11-.02.22-.087.243-.152.024-.064.183-.244.354-.4 1.522-1.38 2.713-2.674 2.996-3.256.08-.166.17-.326.198-.353.073-.073.282-.51.402-.84.057-.157.144-.26.193-.229.114.07.222-.337.16-.603-.061-.26.2-.596.402-.518.206.079.56.668.561.932 0 .115.092.397.203.627.111.23.202.467.202.526a.84.84 0 0 0 .086.283c.193.39.443 1.226.569 1.894.3 1.603.471 2.657.506 3.135.184 2.52.183 2.608-.035 3.341-.204.685-.728 1.461-.987 1.461-.06 0-.318.228-.575.506-.256.278-.497.505-.535.505-.038 0-.165.09-.282.198l-.971.911c-.417.392-.836.738-.93.768a.42.42 0 0 0-.234.249c-.063.199-.557.604-.737.604-.106 0-.865.66-1.63 1.419-.255.252-.59.539-.746.637-.155.098-.324.29-.376.426-.052.137-.134.248-.183.248-.075 0-.486.32-.748.584-2.142 2.15-3.516 3.582-3.516 3.661a.101.101 0 0 1-.1.102c-.077 0-2.447 2.256-2.984 2.84-.692.754-1.556 1.494-2.028 1.738-.191.099-.348.223-.348.277 0 .155-.427.605-.574.605-.073 0-.133.053-.133.117 0 .122-1.705 1.804-1.828 1.804-.039 0-.147.162-.241.36-.094.197-.284.41-.422.474-.139.063-.487.333-.775.6-.288.268-.553.487-.588.487-.035 0-.172.16-.304.356-.138.204-.366.39-.534.434-.178.047-.36.201-.463.393-.219.409-.973 1.2-1.387 1.458-.178.11-.351.288-.385.395-.034.108-.187.27-.34.36-.152.09-.388.373-.524.63-.136.256-.372.577-.523.712-.152.135-.306.34-.343.455a.99.99 0 0 1-.293.388c-.125.098-.368.395-.54.66-.17.266-.444.571-.607.679-.163.108-.37.322-.462.476a3.162 3.162 0 0 1-.289.415c-.121.133-.22.275-.554.803-.095.15-.282.323-.415.383s-.217.135-.187.164c.03.03-.146.267-.39.527-.244.26-.444.529-.445.596-.001.068-.086.168-.19.223-.102.055-.446.422-.764.815-.317.393-.614.691-.66.663-.115-.071-.279.144-.362.474-.047.19-.189.328-.459.447-.347.154-1.403 1.292-1.412 1.523-.003.044-.165.24-.362.434-.197.195-.402.433-.455.53-.054.098-.163.178-.243.178-.08 0-.22.113-.31.25-.09.139-.32.347-.508.464-.189.117-.343.277-.343.356 0 .078-.091.143-.203.143-.112 0-.202.067-.202.152 0 .083-.053.151-.118.151s-.2.073-.298.163c-.1.09-.421.184-.716.21-.416.036-.578.102-.721.292-.229.302-.354.31-.458.03-.075-.205-.086-.2-.206.09-.151.364-.868.687-1.323.596-.187-.038-.33-.006-.41.09a.47.47 0 0 1-.319.147.957.957 0 0 0-.366.087c-.316.162-.675.206-.853.104zm87.28-19.623a16.872 16.872 0 0 1-.48-.213 2.104 2.104 0 0 0-.607-.132c-.604-.042-2.343-.314-3.05-.478-.357-.083-.708-.127-.781-.1-.136.053-.598-.07-2.202-.588-.496-.16-1.071-.29-1.278-.29-.476 0-1.284-.24-2.083-.616-.343-.162-.713-.294-.823-.294-.11 0-.227-.068-.259-.152-.038-.1-.196-.152-.466-.152-.228 0-.639-.111-.932-.252-.288-.14-.595-.254-.682-.255-.087-.001-.272-.092-.41-.2-.14-.109-.338-.199-.441-.2-.103-.001-.323-.116-.488-.255-.165-.14-.409-.253-.54-.253-.132 0-.277-.06-.321-.132-.086-.14-.96-.576-1.154-.576-.063 0-.37-.135-.684-.3-.659-.347-1.913-.913-2.023-.913-.04 0-.165-.084-.276-.188-.11-.103-.51-.335-.888-.515s-.773-.413-.877-.518a1.19 1.19 0 0 0-.468-.26c-.153-.038-.487-.219-.74-.401a5.923 5.923 0 0 0-.924-.53c-.253-.108-.488-.27-.522-.359-.034-.088-.132-.161-.217-.161a.155.155 0 0 1-.155-.154c0-.085-.125-.207-.278-.272-.153-.066-.483-.277-.733-.47-.483-.372-2.022-1.923-2.022-2.038 0-.037-.091-.15-.202-.251-.112-.1-.203-.24-.203-.312 0-.07-.106-.212-.236-.314-.198-.156-.623-.942-.972-1.8-.046-.112-.23-.515-.41-.896a8.389 8.389 0 0 1-.458-1.213 9.96 9.96 0 0 0-.287-.925c-.086-.222-.157-.505-.16-.628-.002-.123-.093-.464-.202-.758-.462-1.246-.555-3.362-.202-4.596.109-.38.197-.695.197-.701 0-.006.116-.135.256-.287l.256-.276.71.348c.59.289.75.423.946.792.287.539.266 1.286-.046 1.683-.11.14-.2.307-.2.372s.204.43.454.81c.25.381.455.718.455.748 0 .156.577.857.803.976.142.075.43.3.638.498.21.2.47.362.582.362.11 0 .202.043.202.096 0 .093.246.248.86.54.166.08.39.242.495.361.106.12.254.216.329.216.075 0 .136.046.136.101 0 .056.076.102.17.102.094 0 .264.083.38.185.114.103.367.246.562.32.83.313 1.209.519 1.48.806.159.169.355.306.435.306.08 0 .316.118.524.262.207.143.574.287.814.318.24.031.474.118.518.193.045.076.143.137.22.137.075 0 .153.036.171.08.048.114 1.164.728 1.22.671.026-.025.687.273 1.469.663s1.483.711 1.557.714c.075.002.317.115.54.25.545.33 1.05.554 1.254.554a.8.8 0 0 1 .366.137c.11.076.503.237.875.36.37.122.724.282.784.355.06.073.371.21.69.305.32.095.672.213.783.262.314.137 2.072.704 2.184.704.055 0 .289.091.519.203.23.11.48.202.556.202.076 0 .33.099.563.22.69.356.766.387.973.387.109 0 .226.045.26.1.034.056.194.102.354.102.16 0 .317.042.35.093.03.051.19.123.352.158.162.036.35.13.416.21.066.08.262.147.436.149.504.006 1.384.248 1.956.538.29.147.598.267.684.267a.87.87 0 0 1 .332.092c.177.092.956.325 1.237.37.083.012.38.076.657.14.278.066.767.144 1.087.175.32.031.582.096.582.145 0 .05.116.09.259.09.143 0 .35.047.459.106.16.086.256.06.481-.13.251-.211.372-.235 1.101-.216 1.077.03 1.202.103 1.287.768.108.84.075 1.61-.087 2.05-.12.325-.194.4-.384.384-.464-.04-.687.07-.829.41-.077.184-.25.422-.383.528-.134.107-.394.429-.58.716-.265.412-.407.535-.677.585-.188.036-.43.017-.538-.04-.109-.059-.35-.106-.538-.106-.187 0-.394-.054-.46-.12-.09-.091-.169.003-.336.405-.14.334-.279.524-.386.524a.452.452 0 0 0-.28.11c-.08.08-.169.079-.323-.004-.15-.08-.271-.082-.409-.01-.25.134-1.293.125-1.624-.015zM108.054 32.02c0-.087.046-.158.101-.158.056 0 .102.043.102.095 0 .052-.046.123-.102.158-.055.034-.1-.009-.1-.095z" style="fill:#000;stroke-width:.101107"/>
</svg>
