<svg xmlns="http://www.w3.org/2000/svg" xml:space="preserve" width="210mm" height="297mm" viewBox="0 0 210 297">
  <path d="M194.962 282.908c0-.052.063-.094.142-.094.078 0 .142.042.142.094s-.064.095-.142.095c-.079 0-.142-.043-.142-.095zm0-.378c0-.052.063-.095.142-.095.078 0 .142.043.142.095 0 .052-.064.094-.142.094-.079 0-.142-.042-.142-.094zm-174.407-.16c.068-.027.15-.024.182.007.031.032-.025.054-.125.05-.11-.004-.132-.027-.057-.057zm175.663-.408c0-.235.018-.33.041-.213.023.117.023.308 0 .426-.023.117-.04.02-.04-.213zm-75.007-2.27c-.077-.05-.273-.085-.434-.079a1.4 1.4 0 0 1-.568-.126.77.77 0 0 0-.513-.072c-.13.037-.43.07-.667.076-.237.005-.482.052-.544.105-.062.052-.09.065-.063.028.027-.036-.11-.143-.303-.238-.23-.111-.373-.137-.413-.072-.09.145-.693.22-1.105.136-.343-.07-.35-.076-.124-.151.212-.07.204-.075-.07-.05-.17.016-.309-.009-.309-.053 0-.045-.18-.079-.402-.075-.513.01-1.099-.09-1.166-.2-.082-.131-.325-.098-.325.046 0 .102-.085.112-.402.045a15.22 15.22 0 0 0-1.24-.163c-.475-.045-.87-.129-.91-.194-.039-.063-.243-.128-.453-.143-.21-.016-.431-.06-.492-.097-.06-.037-.16-.025-.223.027-.063.052-.32.07-.572.042-.301-.034-.414-.08-.331-.132.086-.055.052-.076-.11-.065-.429.028-1.549-.311-1.734-.524-.158-.183-.187-.188-.287-.052-.24.33-.542.325-1.221-.02-.09-.047-.442-.084-.781-.084-.374 0-.617-.04-.617-.101 0-.06-.08-.076-.194-.04a.402.402 0 0 1-.346-.065c-.108-.09-.381-.116-.942-.093-.532.023-.79 0-.79-.07 0-.058-.141-.105-.314-.105-.357 0-1.2-.264-1.2-.375 0-.072-.375-.132-1.608-.256-.337-.033-.67-.118-.74-.188-.07-.07-.263-.132-.429-.137-.289-.01-.291-.013-.064-.088.144-.048-.015-.057-.408-.024-.601.05-.647.04-.697-.149-.054-.208-.315-.288-.315-.097 0 .072-.038.076-.118.013-.065-.052-.272-.122-.459-.155-.187-.034-.506-.188-.71-.341-.203-.154-.468-.282-.587-.283-.12-.001-.32-.112-.443-.246-.202-.218-.272-.237-.662-.178-.337.05-.475.03-.606-.088a.852.852 0 0 0-.446-.17c-.152-.01-.328-.056-.39-.103-.146-.11-.313-.01-.313.186 0 .111-.06.087-.227-.094-.124-.135-.247-.3-.273-.37-.033-.09-.086-.072-.196.066-.15.19-.15.19-.153-.004-.002-.145-.098-.219-.381-.294-.271-.073-.38-.072-.38.002 0 .056-.065.007-.146-.108-.082-.116-.2-.21-.262-.21s-.169-.089-.236-.197c-.09-.145-.155-.17-.243-.097-.081.067-.151.068-.216.004-.115-.115-1.548-.467-1.908-.47-.322-.001-.448-.085-.532-.353-.07-.224-.115-.24-.574-.218-.157.007-.476-.056-.71-.143-.573-.211-1.516-.414-1.665-.357-.066.026-.167-.042-.225-.15-.058-.108-.186-.197-.285-.197a.534.534 0 0 1-.322-.144c-.08-.079-.178-.136-.22-.127a.575.575 0 0 1-.242-.045 6.885 6.885 0 0 0-.306-.106c-.081-.026-.117-.106-.085-.19.072-.186-.046-.186-.252 0-.132.12-.205.126-.41.032-.137-.062-.249-.149-.249-.193 0-.043-.064-.079-.142-.079-.078 0-.142.072-.142.16 0 .147-.01.147-.121-.006-.068-.092-.3-.19-.523-.22-.221-.03-.425-.09-.452-.136-.028-.045-.135-.082-.238-.082-.102 0-.211-.064-.241-.142-.07-.18-.172-.18-.353.001-.088.089-.165.107-.201.048-.033-.053-.014-.096.04-.096.21 0 .083-.148-.264-.308-.385-.177-1.22-.239-.96-.07.122.079.12.091-.016.093-.087 0-.172-.041-.19-.092-.017-.051-.232-.1-.479-.11-.419-.016-.444-.031-.392-.238.059-.234-.003-.248-1.125-.264-.144-.002-.26-.056-.26-.122s-.087-.12-.194-.12c-.106 0-.354-.077-.55-.172a1.344 1.344 0 0 0-.705-.132c-.258.03-.363.001-.406-.112-.078-.202-.297-.194-.352.014-.038.148-.044.149-.054.006-.006-.088-.104-.189-.217-.225a1.29 1.29 0 0 1-.4-.246c-.144-.135-.312-.177-.646-.161-.352.016-.5-.025-.67-.186-.161-.15-.339-.206-.658-.206-.241 0-.467-.046-.5-.101-.035-.056-.13-.076-.21-.045-.08.03-.225-.016-.321-.103-.097-.088-.176-.122-.176-.076 0 .045-.07-.017-.155-.138-.124-.178-.214-.211-.462-.17-.227.036-.396-.01-.639-.175-.182-.124-.357-.198-.39-.165-.033.033-.123-.023-.2-.123-.092-.121-.163-.148-.211-.08-.097.136-.776.114-1.037-.033-.114-.064-.382-.117-.596-.117-.295 0-.45-.06-.64-.25-.148-.149-.37-.258-.54-.267a1.542 1.542 0 0 1-.432-.08c-.317-.146-1.153-.32-1.35-.282-.135.025-.36-.066-.614-.25-.288-.209-.573-.316-1.004-.377-.332-.047-.683-.13-.782-.184-.29-.161-1.283-.475-1.719-.543-.36-.057-.397-.046-.34.104.046.119.026.154-.069.122-.073-.024-.133-.097-.133-.162 0-.16-.416-.38-.73-.384a1.612 1.612 0 0 1-.473-.089 7.16 7.16 0 0 0-.786-.208c-.338-.073-.62-.194-.697-.3-.09-.124-.197-.161-.35-.123a.39.39 0 0 1-.392-.116.797.797 0 0 0-.447-.19.842.842 0 0 1-.433-.16.673.673 0 0 0-.392-.142c-.259 0-.506-.16-.584-.379-.04-.112-.052-.107-.058.024-.008.17-.292.24-.292.07 0-.051-.104-.094-.23-.094-.128 0-.258-.043-.29-.095-.032-.052.01-.094.094-.094.085 0 .13-.037.103-.082-.028-.046-.15-.063-.273-.04-.143.028-.32-.04-.5-.187a1.686 1.686 0 0 0-.553-.298c-.152-.037-.41-.214-.575-.393-.165-.18-.39-.326-.504-.326-.114 0-.206-.042-.206-.094 0-.053-.09-.095-.199-.095a.253.253 0 0 1-.25-.197c-.031-.122-.076-.157-.117-.092-.09.147-.404.01-.342-.15.078-.204-.042-.413-.239-.413-.098 0-.179-.064-.179-.142 0-.078-.042-.142-.095-.142-.052 0-.094-.085-.094-.19 0-.147-.063-.189-.286-.189-.224 0-.309-.056-.39-.26-.185-.472-.248-.545-.45-.522-.16.018-.2-.03-.2-.242 0-.145-.048-.312-.108-.372s-.109-.355-.11-.658c0-.302-.02-.494-.042-.427-.068.197-.308-.059-.308-.329 0-.127-.04-.206-.088-.176-.048.03-.102-.064-.118-.208a.433.433 0 0 0-.243-.355.358.358 0 0 1-.22-.331c-.007-.254-.159-.68-.185-.522-.051.303-.288-1.322-.342-2.343-.057-1.085-.047-1.208.093-1.208.175 0 .214-.154.053-.208-.123-.04-.195-3.16-.09-3.928.036-.27.035-.547-.003-.615-.073-.134-.173-.747-.179-1.101-.003-.176-.04-.207-.193-.16-.155.05-.189.018-.189-.177 0-.13-.046-.266-.102-.3-.058-.036-.076-.168-.043-.301.064-.255-.159-.594-.39-.594-.186 0-.156-.168.038-.22.14-.037.133-.054-.047-.112-.122-.04-.213-.146-.213-.247 0-.098-.048-.178-.105-.178-.058 0-.081-.063-.052-.14.03-.076.018-.16-.026-.188-.044-.027-.156-.337-.248-.69-.2-.758-.277-.876-.575-.876-.138 0-.225-.055-.225-.144 0-.08-.107-.193-.237-.252-.154-.07-.236-.185-.236-.33 0-.134-.057-.22-.144-.22a.802.802 0 0 1-.307-.087 9.333 9.333 0 0 0-.52-.241c-.195-.085-.355-.19-.355-.235 0-.044-.096-.105-.213-.135-.117-.03-.362-.184-.544-.341-.183-.158-.396-.293-.474-.301-.078-.01-.19-.02-.247-.026a.607.607 0 0 1-.252-.132c-.099-.082-.167-.089-.208-.022-.093.151-.267.118-.206-.04.07-.181-.412-.524-.737-.524-.137 0-.274-.063-.304-.142-.03-.078-.145-.142-.257-.143-.112-.001-.303-.108-.426-.237-.122-.13-.278-.235-.345-.235-.067 0-.147-.067-.178-.148-.032-.081-.1-.121-.153-.089-.052.032-.095.02-.095-.027 0-.172-.359-.493-.55-.493-.11 0-.232-.057-.274-.127-.041-.07-.37-.272-.729-.45-.935-.462-1.003-.502-1.003-.58 0-.141-.314-.435-.42-.395-.06.023-.2-.055-.311-.174-.292-.31-.477-.452-.593-.452-.056 0-.128-.067-.16-.15-.034-.09-.127-.13-.233-.103-.097.025-.177.012-.177-.029 0-.103-.583-.665-.69-.665-.048 0-.06.075-.028.166.043.123.016.114-.109-.038a.96.96 0 0 0-.473-.268c-.22-.045-.348-.15-.45-.364-.09-.19-.307-.387-.592-.536-.514-.268-.689-.454-.613-.652.033-.087.013-.113-.055-.07-.126.077-.682-.186-.682-.323 0-.05-.032-.085-.07-.075-.13.031-.686-.346-.687-.466 0-.065-.085-.17-.19-.236-.104-.065-.189-.15-.189-.19 0-.078-.142-.248-.686-.82-.219-.23-.355-.465-.355-.612 0-.132-.064-.276-.142-.32-.294-.164-.533-.814-.585-1.586-.028-.417-.111-.944-.186-1.172-.12-.368-.118-.44.017-.645.102-.156.12-.268.058-.343-.133-.16-.135-2.902-.003-3.061a.4.4 0 0 0 .056-.317c-.032-.124-.003-.19.083-.19.074 0 .133-.042.133-.095 0-.052-.095-.096-.213-.097-.19-.002-.195-.013-.047-.1.097-.056.166-.209.166-.37 0-.262.186-.521.192-.267.002.072.046.05.106-.053.072-.124.073-.195.002-.239-.245-.15-.095-1.24.17-1.24.047 0 .113-.088.147-.196.095-.3.204-1.603.134-1.603-.12 0 .037-.515.216-.707.277-.295.43-.705.5-1.329.034-.312.123-.753.198-.98.076-.225.13-.63.122-.898-.01-.269-.007-.964.004-1.545.017-.92-.001-1.07-.145-1.15-.198-.11-.261-.525-.069-.452.206.08.154-.486-.065-.705-.15-.149-.17-.231-.095-.372.126-.235.124-.602-.003-.73-.118-.117-.13-.528-.038-1.274.043-.354.03-.554-.04-.597-.059-.036-.106-.19-.106-.344 0-.153-.043-.278-.095-.278-.056 0-.098-.377-.104-.923-.005-.508-.038-1.025-.072-1.149-.081-.29.05-2.081.162-2.223.047-.059.056-.328.02-.597-.04-.3-.02-.639.05-.875.062-.212.08-.365.038-.34-.257.16-.032-1.93.268-2.48.062-.114.107-.455.099-.757-.02-.738.194-2.673.325-2.946.077-.162.076-.264-.005-.394-.085-.136-.081-.186.017-.223.137-.053.216-.36.331-1.294.078-.627.22-1.162.362-1.358.143-.198.737-2.273.818-2.856.03-.208.162-.606.296-.883.134-.277.27-.64.301-.804.073-.377.482-1.295.66-1.484.148-.155.723-1.046.75-1.16.008-.039.02-.107.027-.152.007-.045.138-.226.293-.403.268-.307 1.131-1.956 1.281-2.45.04-.13.152-.35.25-.488.244-.348.222-1.027-.034-1.027-.053 0-.256-.17-.452-.379-.197-.208-.402-.378-.458-.378-.138 0-.584-.599-.584-.785 0-.083-.042-.177-.095-.21-.052-.032-.094-.142-.094-.245 0-.103-.06-.21-.132-.237-.072-.028-.111-.128-.086-.223.025-.095-.001-.201-.058-.236-.057-.035-.103-.239-.103-.453 0-.215-.064-.46-.143-.548-.146-.16-.258-1.012-.238-1.809a2.529 2.529 0 0 0-.15-.84c-.14-.347-.146-.482-.05-.982.062-.32.134-.94.16-1.378.043-.697.09-.866.377-1.338.18-.297.328-.649.328-.782 0-.134.038-.266.083-.294.046-.029.156-.276.244-.55.251-.779.618-1.506.965-1.912.175-.205.318-.45.318-.544 0-.095.042-.173.094-.173s.095-.083.095-.184c0-.102.054-.22.12-.26.154-.097.495-.611.497-.75 0-.057.16-.258.355-.447.194-.19.353-.43.353-.535 0-.105.043-.19.095-.19.052 0 .095-.065.095-.143 0-.078.035-.142.078-.142.042 0 .174-.193.292-.429s.317-.497.443-.579c.125-.082.228-.194.228-.248 0-.054.103-.233.228-.397s.321-.498.436-.742c.115-.244.242-.423.282-.398.088.054.187-.277.189-.631 0-.14.102-.374.225-.521.123-.147.255-.374.294-.504a2.02 2.02 0 0 1 .19-.427c.065-.105.167-.415.226-.689a4.92 4.92 0 0 1 .354-.986c.207-.41.24-.583.21-1.08-.022-.326-.008-.573.03-.55.127.078.164-.288.164-1.617 0-.73.023-1.581.052-1.894.029-.312.078-.866.11-1.23.056-.645.247-1.44.425-1.774.049-.09.088-.315.088-.497 0-.233.043-.333.142-.333.078 0 .135-.032.127-.071-.009-.04.034-.191.094-.338.06-.146.11-.31.11-.364 0-.053.06-.21.133-.349.073-.138.273-.538.445-.89.172-.351.347-.639.388-.639.042 0 .076-.066.076-.146 0-.08.103-.258.23-.395.127-.136.258-.358.29-.493.034-.134.143-.33.244-.433.443-.459 1.242-1.54 1.674-2.266.233-.392.68-.8 1.042-.955.17-.073.302-.166.293-.207-.04-.18.209-.57.531-.833.193-.156.51-.506.708-.778.197-.272.384-.468.416-.436.032.032.09-.023.127-.121.037-.099.149-.265.247-.369a7.13 7.13 0 0 0 .512-.687c.183-.274.388-.53.455-.568.068-.039.234-.279.37-.534.134-.255.28-.51.324-.568.043-.057.133-.253.199-.436.066-.182.165-.425.219-.54.109-.23.026-1.227-.117-1.399-.048-.058-.116-.295-.152-.527-.071-.467-.173-.702-.417-.963-.137-.148-.265-.168-.815-.13-1.983.14-4.425.502-4.96.735-.416.182-1.54.363-2.253.363-.918 0-1.803-.384-1.982-.86-.064-.171-.144-.284-.178-.25-.065.065-.446-.414-.597-.75-.05-.113-.136-.233-.191-.267-.056-.034-.1-.15-.1-.26 0-.108-.087-.487-.193-.842-.106-.355-.189-.892-.184-1.194.017-1.096-.005-1.404-.113-1.612-.126-.243-.002-.728.367-1.435.12-.229.217-.493.217-.586 0-.093.042-.196.095-.228.052-.032.094-.158.094-.28 0-.121.064-.245.142-.275.089-.034.142-.178.142-.382 0-.364.18-.595.53-.683.31-.078 1.286.049 1.218.158-.047.076.099.493.329.941.077.151.479.256.48.125 0-.043.313-.081.695-.085.497-.005.812-.065 1.112-.207.23-.11.588-.23.796-.265.208-.037.5-.128.65-.204.15-.076.352-.116.451-.09a.363.363 0 0 0 .314-.087c.073-.074.294-.134.49-.134.317 0 .777-.118 2.438-.627.254-.078.688-.153.965-.167.276-.014.56-.072.63-.13.123-.103.547-.173 1.588-.264.762-.066 1.231-.15 1.231-.218 0-.034.2-.058.444-.053.244.004.617-.029.828-.073.342-.072 1.38-.204 2.467-.315a2.26 2.26 0 0 0 .568-.126c.666-.306 2.68-.674 3.977-.727a9.79 9.79 0 0 0 1.278-.138c.287-.06.63-.12.765-.134.134-.014.285-.051.336-.083.154-.095 1.734-.28 2.025-.238.15.022.25.005.225-.037-.027-.043.14-.078.369-.078.23 0 .55-.067.714-.148.164-.082.34-.122.393-.09.053.033.096.02.096-.03s.16-.114.355-.142c.196-.027.845-.121 1.444-.208a56.5 56.5 0 0 1 1.325-.18c.13-.013.301-.049.38-.08.077-.031.46-.101.851-.156.39-.054.902-.14 1.136-.19a5.45 5.45 0 0 1 .94-.097c.66-.005 1.667-.168 2.09-.338.182-.073.608-.148.947-.166.338-.019.71-.085.825-.148a1.1 1.1 0 0 1 .473-.104c.52.017 1.689-.107 1.94-.207.14-.056.31-.082.378-.057.068.024.256-.01.418-.075.162-.066.844-.174 1.515-.24.67-.065 1.268-.156 1.327-.2.058-.046.463-.11.9-.141.435-.032.836-.093.89-.135.054-.042.502-.104.994-.136.493-.033.98-.095 1.085-.14.523-.219 2.217-.559 3.044-.61.32-.02.67-.083.775-.14.106-.056.349-.102.54-.102.49 0 2.054-.29 2.205-.41.07-.055.325-.131.568-.17.906-.146 1.446-.304 2.025-.593l.595-.297v-.425c0-.4.018-.431.33-.538.183-.062.524-.116.758-.119.235-.003.541-.066.681-.139.237-.123.266-.117.403.092.08.124.147.37.147.545 0 .183.08.413.187.536.103.12.215.36.248.536.07.375-.028 1.142-.156 1.222-.125.077-.112 1.027.018 1.312.163.359-.052 1.894-.3 2.142-.235.236-.238.377-.007.377.146 0 .188.085.221.45.027.29-.004.502-.085.598-.07.083-.126.197-.126.254 0 .057-.18.203-.4.324-.31.171-.422.301-.502.588-.122.435-.615.91-.946.91-.146 0-.235.054-.235.142 0 .083-.087.142-.213.143-.245.002-.84.196-1.03.337-.18.133-.558.301-.84.373-.13.034-.377.125-.549.202-.175.08-.515.131-.77.117-.283-.015-.545.03-.682.118-.123.078-.402.147-.621.154-.219.007-.496.074-.616.149-.325.203-.732.289-1.238.26-.25-.014-.505.016-.568.066-.064.05-.371.164-.683.255-.313.09-.675.203-.805.249-.13.046-.429.08-.663.073-.234-.006-.916.121-1.515.283-.598.16-1.142.274-1.207.25-.065-.022-.118-.006-.118.035 0 .085.01.084-.909.135-.37.021-.713.064-.763.095-.05.03-.344.08-.654.11-.66.063-1.94.268-3.07.49a32.08 32.08 0 0 1-1.326.234c-.286.04-.968.161-1.515.268-.546.107-1.058.187-1.136.18-.273-.03-2.23.283-2.509.4-.104.045-.7.147-1.325.227-1.373.176-2.541.38-2.687.47-.101.063-1.265.241-1.668.256-.104.003-.551.084-.994.178a8.925 8.925 0 0 1-1.408.181 5.061 5.061 0 0 0-1.089.148c-.267.077-.89.205-1.385.285-.494.08-1.048.185-1.23.233-.856.226-1.642.376-2.533.485-.773.094-.97.149-.972.268-.001.132-.013.133-.092.01-.074-.118-.123-.122-.28-.024-.106.065-.35.118-.541.118-.193 0-.48.04-.64.09-.43.132-1.724.368-2.374.432-1.017.1-1.278.155-1.278.272 0 .25.251.6.755 1.052.478.428.83.835 1.233 1.423.078.114.219.288.312.386.356.373.813 1.164.877 1.517.036.201.108.419.16.484.05.064.064.266.03.448s-.02.491.033.687c.15.568-.026 2.344-.285 2.866-.116.234-.265.49-.33.568-.066.078-.21.372-.321.654-.11.282-.323.622-.471.757a2.083 2.083 0 0 0-.386.474c-.285.562-1.521 2.09-1.69 2.09-.103 0-.965.98-1.12 1.273a1.235 1.235 0 0 1-.355.373c-.133.087-.241.211-.241.276 0 .066-.234.352-.519.637-.285.285-.52.547-.52.582-.004.084-.685.828-1.352 1.473-.3.29-.544.578-.544.64 0 .062-.107.161-.237.22-.13.06-.236.152-.236.205 0 .053-.064.097-.142.097-.079 0-.142.076-.142.168 0 .093-.074.273-.163.4-.188.268-.46.755-.876 1.562-.161.313-.414.765-.563 1.004-.149.24-.3.539-.335.663a4.37 4.37 0 0 1-.143.416c-.562 1.34-.593 1.54-.58 3.746.01 1.439-.025 2.129-.134 2.647-.08.385-.182.723-.224.751-.042.028-.075.307-.073.62.002.503-.205 1.552-.412 2.082-.313.8-.65 1.752-.705 1.988-.036.156-.229.625-.428 1.042-.2.416-.387.82-.416.899-.03.078-.183.355-.34.615a8.24 8.24 0 0 0-.388.71c-.274.632-.846 1.712-.953 1.8-.032.025-.09.146-.127.268-.038.121-.332.548-.652.948-.32.4-.663.875-.761 1.057a2.292 2.292 0 0 1-.284.427c-.12.109-.197.231-.67 1.054-.185.321-.335.65-.335.73 0 .08-.054.179-.12.22-.065.042-.222.3-.347.573-.126.274-.306.568-.402.654-.095.086-.173.233-.173.326s-.042.195-.095.227c-.052.033-.094.182-.094.332 0 .15-.043.299-.095.331-.123.076-.117.925.01 1.467.165.695.05 5.032-.158 5.965-.06.273-.223 1.77-.283 2.603-.092 1.28-.117 6.207-.035 6.912.125 1.069.282 3.066.322 4.07.018.47.078 1.321.134 1.894.177 1.825.121 7.24-.089 8.663-.057.39-.125.965-.15 1.278-.025.312-.107.912-.182 1.333a9.52 9.52 0 0 0-.141 1.278 5.664 5.664 0 0 1-.095.939c-.44 2.069-.488 4.267-.13 5.917.023.104.068.339.1.52.033.183.14.445.236.583.098.139.177.34.177.448 0 .32.58 1.936.77 2.147.098.108.177.264.177.346 0 .083.127.195.283.25.199.069.266.142.227.245-.044.115.011.147.249.147.26 0 .288.021.188.142-.127.154-.055.186.324.145.101-.011.292.103.426.254.134.15.414.358.622.461.509.252 1.184.71 1.184.802 0 .041.13.104.29.139.16.035.314.123.342.197a.218.218 0 0 0 .186.133c.074 0 .159.063.189.142.03.078.135.142.234.142.128 0 .179.067.179.24 0 .211.023.227.191.137.239-.127.402-.037.331.185-.046.145.026.176.526.22.405.038.642.113.79.25.115.11.26.198.322.198s.112.059.112.13c0 .077.145.154.355.187.246.04.442.16.64.39.158.184.373.332.487.333.13 0 .272.117.39.32.15.251.268.33.578.379.214.034.38.099.366.143-.029.102.97.864 1.133.864.067 0 .234.128.374.284.139.156.31.284.38.284.069 0 .125.04.125.087 0 .048.158.14.35.203.357.118.992.687 1.288 1.154.091.143.218.26.282.26.164.002 1.489 1.364 1.489 1.532 0 .076.124.277.275.447.152.17.328.433.39.585.064.152.146.276.183.276.037 0 .147.235.245.521.097.286.228.52.29.52.066 0 .142.211.18.498.036.273.143.625.238.78.094.157.19.413.212.569.048.343.161.622.316.78.063.063.093.2.067.302-.027.102.025.379.115.614.09.236.14.513.114.617-.027.103-.01.456.037.784.131.902.36 2.645.385 2.932.012.14.05.236.086.213.097-.059.183.362.24 1.177.029.397.103.787.166.865.199.247.336.605.363.947.023.282.061.331.263.332.17.001.245.06.266.206.016.113.141.278.277.367.21.137.226.178.107.267-.262.196-.268.412-.021.679.13.14.274.351.318.467.05.13.19.233.367.269a.612.612 0 0 1 .436.344c.082.158.213.287.291.287.079 0 .353.107.61.237s.546.237.641.237c.096 0 .319.106.495.236.177.13.42.237.542.237.122 0 .244.06.272.132.028.072.176.156.33.187.154.03.372.142.485.247a.83.83 0 0 0 .555.192c.192 0 .399.059.459.131.06.073.3.16.535.196.269.04.468.131.54.247.063.1.2.183.304.183.384 0 .99.326 1.1.592.127.305.197.316.573.094.275-.162.284-.16.45.058.15.2.19.21.376.095.189-.117.231-.103.465.155.21.232.32.279.6.255.217-.018.398.026.49.119.081.08.28.147.443.147a.69.69 0 0 1 .514.236c.215.232.292.25 1.042.25.204 0 .454.056.555.128.102.07.244.106.316.078.072-.027.131-.003.131.055 0 .06.168.105.389.105.287 0 .376.033.34.127-.035.09.015.115.17.085.136-.026.29.03.407.147.116.116.383.213.696.253.7.089.838.137.838.294 0 .127.094.15.758.184.13.006.34.068.467.136.127.069.478.131.78.14.414.012.582.06.678.191.071.097.178.145.238.108.115-.07.724.103.95.27a.572.572 0 0 0 .356.069c.137-.018.246.028.28.12.04.1.18.148.433.148.403 0 .777.149.697.278-.086.139.223.314.471.266.132-.025.263-.009.29.037.029.045.217.082.42.082.239 0 .41.057.49.165.077.102.271.174.506.186.598.031 1.05.261 1.165.592.122.349.326.37.471.05.162-.354.374-.292.491.143.056.208.122.378.146.378.024 0 .129-.085.233-.189.252-.252.605-.241.782.024.137.205.149.206.329.045.199-.18.45-.141.535.08.029.074.143.135.254.135.11 0 .342.067.513.148.235.111.3.193.263.333-.043.164-.02.175.19.095.131-.05.264-.065.295-.034.032.031.223.05.425.043.226-.01.414.04.486.126.064.078.177.141.25.141.073 0 .158.064.188.142.061.16.37.192.46.047.1-.161.307-.104.36.1.044.168.1.187.39.132.262-.049.339-.032.339.074 0 .2.411.355.784.295.263-.043.37-.006.57.194a.76.76 0 0 0 .596.247c.206 0 .392.06.456.147.086.118.161.128.368.05.215-.082.29-.067.446.088a.758.758 0 0 0 .468.188c.382 0 .736.175.793.393.041.158.12.176.647.144.678-.041.836-.006.836.184 0 .103.088.12.379.073.248-.04.379-.025.379.043 0 .057.216.132.48.167.263.035.53.114.591.175.18.18.676.32.949.267.151-.029.252-.005.252.058 0 .058.117.107.26.108.143.002.483.08.754.174.271.094.623.151.78.128.174-.025.289 0 .289.063 0 .06.163.106.378.106.209 0 .379.037.379.083 0 .143.51.303 1.053.33.286.015.581.066.656.114.076.049.265.096.421.106.448.028.9.139.9.22 0 .042.17.053.378.025.209-.028.379-.014.379.032 0 .08.128.107.757.156.157.012.284.054.284.093 0 .04.048.071.105.071.058 0 .08-.064.05-.142-.077-.202.014-.176.336.095.155.13.449.263.653.296.204.033.371.103.371.155 0 .06.181.075.477.04.338-.04.457-.026.41.049-.043.07.004.087.14.052.134-.035.204-.01.204.073 0 .07.09.155.198.19.257.082 1.362.086 1.491.006.055-.034.149.029.208.14.068.126.142.169.197.114.114-.114 1.136.017 1.657.212.215.08.768.165 1.23.187 1.517.073 1.697.101 2.14.338.103.054.245.05.382-.013.157-.071.297-.067.5.015.154.062.664.13 1.133.15.469.022 1.017.103 1.22.18.302.118.453.124.86.033.342-.077.548-.08.674-.013.1.053.389.074.64.045.335-.037.482-.015.542.08.067.108.117.11.273.014.246-.153.692-.15 1.301.007.313.08.543.095.643.039a.616.616 0 0 1 .385-.03c.126.031.411.011.634-.045a1.72 1.72 0 0 1 .8-.012c.219.049.424.062.457.029.033-.033.472-.067.975-.075 1.353-.021 2.878-.154 3.614-.313l.87-.19a4.25 4.25 0 0 1 .722-.097c.153 0 .422-.06.597-.132.176-.072.554-.163.84-.2a5.07 5.07 0 0 0 .974-.248c.25-.098.6-.178.781-.178.18 0 .328-.033.328-.073 0-.04.17-.058.379-.038.211.02.378-.005.378-.057 0-.052.198-.124.44-.16.242-.036.509-.102.592-.145.083-.043.432-.15.775-.235.343-.086.694-.239.78-.34a.576.576 0 0 1 .38-.183c.312 0 .82-.188.82-.303 0-.052.06-.073.131-.045.072.027.274-.045.45-.162a3.26 3.26 0 0 1 .745-.334 3.03 3.03 0 0 0 .662-.28c.13-.085.408-.24.616-.343.208-.104.435-.242.504-.307a.441.441 0 0 1 .248-.12c.068 0 .177-.062.241-.14.064-.078.149-.122.187-.098.039.024.257-.074.486-.217.23-.144.662-.38.961-.525.3-.145.544-.303.544-.351 0-.049.064-.088.142-.088.078 0 .142-.041.142-.091 0-.05.17-.142.38-.204.207-.063.378-.144.378-.182 0-.037.234-.21.52-.384.287-.173.521-.349.521-.39 0-.04.05-.075.11-.075s.343-.18.628-.4c.524-.404.764-.56 1.108-.722.104-.048.293-.2.42-.335.125-.136.267-.247.314-.247.117 0 .355-.249.355-.372 0-.055.062-.101.137-.101.075 0 .192-.08.26-.177.068-.097.166-.188.218-.202.282-.076.521-.235.521-.346 0-.07.038-.127.085-.127.08 0 .174-.073.957-.751.182-.158.363-.288.402-.289.039-.001.071-.065.071-.144 0-.078.064-.142.142-.142.078 0 .142-.04.142-.09 0-.05.192-.222.426-.383.234-.161.426-.35.426-.42 0-.148.731-.81.895-.81.143 0 1.28-1.36 1.733-2.07.187-.294.498-.747.691-1.008.194-.26.379-.563.412-.673a.99.99 0 0 1 .248-.37c.103-.093.187-.22.187-.282 0-.062.084-.189.187-.282.102-.093.215-.258.25-.368.034-.109.147-.312.25-.45.27-.367 1.094-2.362 1.52-3.681.298-.926.543-1.616.646-1.822.045-.09.126-.452.18-.804.141-.91.319-1.704.4-1.786.038-.038.07-.225.07-.415 0-.19.048-.598.108-.907.06-.309.115-.626.123-.705a.741.741 0 0 1 .085-.258c.072-.118.193-1.025.343-2.581.047-.495.13-1.347.185-1.893.199-1.994.308-3.195.387-4.26.045-.6.107-1.281.138-1.516.03-.234.074-.617.097-.852.073-.76.205-1.731.36-2.65.191-1.132.34-2.2.442-3.172.044-.417.148-.944.23-1.172.084-.228.152-.64.152-.917s.043-.53.095-.562c.052-.032.095-.196.095-.364 0-.168.088-.555.195-.86.107-.306.235-.88.285-1.275a11.33 11.33 0 0 1 .417-2.045c.28-.977.516-1.98.52-2.201.002-.118.045-.213.098-.213.052 0 .094-.055.094-.122 0-.068.08-.277.176-.466.096-.19.2-.559.231-.822.031-.262.184-.766.339-1.12.155-.353.331-.855.393-1.115a5.44 5.44 0 0 1 .236-.758c.069-.156.155-.402.191-.547.036-.144.14-.302.231-.351.11-.059.188-.258.231-.582.036-.27.127-.64.202-.82.076-.18.137-.39.137-.466 0-.168.256-.74.478-1.068.087-.13.19-.442.226-.692.037-.25.149-.594.248-.764.1-.169.311-.667.47-1.106.158-.44.372-.864.476-.943.13-.099.207-.305.248-.662.033-.286.203-.826.377-1.201.175-.375.317-.712.317-.748 0-.144.666-1.437.796-1.545.076-.063.166-.25.198-.416.033-.166.21-.664.396-1.106.442-1.06.462-1.103.772-1.669.146-.267.343-.693.439-.947.095-.254.252-.574.348-.713.097-.138.176-.279.176-.312 0-.034.086-.251.191-.483.358-.784.345-.9-.138-1.273a4.175 4.175 0 0 1-.753-.804c-.177-.26-.415-.558-.529-.661a1.814 1.814 0 0 1-.344-.474 4.848 4.848 0 0 0-.629-1.006c-.211-.275-.26-.437-.26-.86 0-.786.21-1.128.975-1.586l.36-.216.493.258c.388.204.65.266 1.249.292 1.074.048 2.247.23 2.414.375.157.136.802.387 1.342.522.368.092 1.025.444 1.025.549 0 .034.138.123.308.197.594.26 1.267.846 1.449 1.261.096.221.27.519.386.661.335.414.968 1.792.99 2.155.01.182.012.64.004 1.018-.012.606-.041.712-.25.893-.13.113-.237.283-.237.378 0 .095-.045.172-.1.172-.056 0-.337.192-.625.427-.287.234-.562.426-.609.426-.047 0-.086.045-.086.102 0 .056-.128.23-.284.385-.156.157-.284.362-.284.457 0 .094-.106.272-.235.395-.13.122-.236.259-.237.303a1.86 1.86 0 0 1-.13.379c-.071.164-.204.49-.295.724-.2.515-1.182 2.49-1.27 2.556-.035.026-.141.24-.237.474-.352.86-.644 1.407-.781 1.46-.077.029-.112.099-.078.154.035.056-.002.174-.081.261-.08.088-.175.288-.213.444a1.618 1.618 0 0 1-.244.51c-.096.124-.175.276-.175.336 0 .061-.189.492-.42.958-.23.466-.448.964-.483 1.107-.036.144-.107.26-.159.26-.052 0-.071.061-.043.136.029.074-.01.186-.084.248-.075.062-.137.15-.137.194 0 .073-.235.618-.648 1.506a3.429 3.429 0 0 1-.262.473c-.126.166-.51 1.233-.51 1.416 0 .069-.134.343-.298.609-.165.266-.333.612-.374.768-.26.976-.493 1.667-.7 2.068-.13.252-.237.542-.237.645a.965.965 0 0 1-.103.38c-.225.419-.56 1.466-.56 1.748 0 .173-.057.32-.137.35-.075.03-.165.203-.199.386s-.122.382-.194.443c-.073.06-.133.233-.133.385 0 .151-.064.43-.143.618a3.532 3.532 0 0 0-.192.636 8.13 8.13 0 0 1-.233.861c-.1.313-.245.888-.32 1.278-.075.391-.18.88-.234 1.09-.054.207-.148.612-.21.899-.062.286-.17.634-.24.773-.071.139-.144.586-.162.994-.018.408-.06.805-.093.883-.12.288-.345 1.42-.407 2.05-.035.357-.105.701-.156.766a.3.3 0 0 0-.036.264c.031.08-.004.323-.079.539-.074.216-.112.43-.085.474.028.045.005.282-.05.527a9.321 9.321 0 0 0-.148 1.137c-.026.38-.07.73-.1.778-.03.047-.077.417-.106.823-.029.405-.093.787-.143.847-.05.06-.108.338-.128.616-.058.786-.235 2.61-.326 3.37-.054.452-.048.8.018 1.016.077.25.072.393-.023.591-.07.146-.156.828-.195 1.54a33.915 33.915 0 0 1-.172 2.035 90.12 90.12 0 0 0-.246 2.215c-.08.802-.188 1.509-.24 1.571-.051.062-.068.138-.037.17.03.03-.012.153-.096.272-.168.24-.204.502-.057.411.053-.032.095.027.095.13 0 .105-.042.217-.095.249-.052.032-.094.175-.094.318 0 .143-.05.308-.11.368-.127.128-.24.734-.323 1.728-.036.434-.11.75-.192.815a.414.414 0 0 0-.133.289c0 .1-.046.23-.102.286-.161.161-.267.759-.154.872.068.068.05.117-.06.16-.086.032-.157.113-.157.177 0 .065-.102.31-.226.543a3.634 3.634 0 0 0-.294.734c-.037.17-.147.389-.245.486a1.021 1.021 0 0 0-.231.44c-.15.731-.245.947-.457 1.044-.216.098-.355.438-.388.953-.007.12-.056.248-.107.284-.15.105-.419.567-.419.719 0 .077-.076.195-.169.263-.185.137-.778 1.006-.778 1.141 0 .153-.266.356-.466.356-.11 0-.196.061-.196.14 0 .076-.125.204-.278.283-.152.078-.305.231-.34.339-.033.107-.167.236-.296.285-.178.068-.22.135-.175.278.042.135-.016.255-.207.423-.147.129-.32.235-.385.237-.065.002-.118.07-.118.15 0 .08-.126.19-.28.245-.154.053-.31.19-.345.302-.1.314-.534.726-.766.726-.242 0-.369.148-.196.228.066.03.033.034-.073.009-.14-.034-.238.03-.358.233-.091.154-.22.26-.287.234-.067-.026-.2.04-.296.146a.664.664 0 0 1-.473.192c-.222 0-.353.073-.509.284-.115.157-.289.285-.385.285-.097 0-.198.085-.225.189-.028.104-.128.19-.224.193-.211.004-.643.356-.728.594-.033.094-.1.147-.15.117-.048-.03-.114.029-.147.131a.41.41 0 0 1-.233.241.376.376 0 0 0-.222.238c-.027.102-.252.28-.508.4-.252.119-.515.29-.583.382-.068.09-.183.165-.255.165-.156 0-.439.376-.369.49.027.043-.04.078-.15.078-.11 0-.306.107-.436.237s-.296.237-.37.237c-.072 0-.19.117-.262.26-.071.143-.182.25-.246.235-.064-.013-.222.205-.35.486-.192.418-.286.521-.523.568-.16.032-.262.1-.23.153.033.053-.05.146-.184.207-.17.078-.227.16-.19.279.037.115-.03.221-.212.337-.145.094-.317.24-.38.326a.71.71 0 0 1-.346.214c-.143.036-.267.165-.329.343-.055.156-.137.284-.184.284-.047 0-.207.105-.356.233s-.357.245-.463.26a.29.29 0 0 0-.229.217c-.046.243-.449.65-.57.575-.133-.082-.58.143-.58.292 0 .07-.042.127-.094.127s-.095.064-.095.142a.14.14 0 0 1-.138.142c-.077 0-.185.085-.24.19-.056.104-.15.189-.21.189s-.242.146-.406.325c-.164.18-.412.354-.55.39-.14.034-.23.1-.201.147.029.046-.068.137-.214.201a1.416 1.416 0 0 0-.36.22 4.006 4.006 0 0 1-.497.357c-.221.14-.402.303-.402.36 0 .056-.064.079-.142.049-.094-.036-.16.021-.198.173-.04.162-.168.262-.448.351-.216.069-.436.214-.49.323-.054.11-.172.188-.262.174-.09-.013-.165.018-.165.068s-.038.069-.084.04c-.046-.029-.154.054-.239.184-.085.13-.218.235-.295.235a.81.81 0 0 0-.306.086c-.09.047-.345.139-.567.204-.221.066-.402.155-.402.199 0 .044-.146.08-.324.08a1.75 1.75 0 0 0-.476.058c-.137.053-.135.072.016.196.093.076.109.107.036.07-.08-.042-.18-.005-.253.094-.099.136-.156.145-.327.053-.15-.08-.236-.082-.31-.007-.075.075-.073.104.01.104.063 0 .114.043.114.095 0 .052-.253.094-.568.094-.556 0-.778.136-.355.218.117.022.034.046-.184.053-.218.007-.423.056-.456.108-.032.052-.205.095-.384.095-.226 0-.326.043-.326.142 0 .113-.14.142-.698.142-.747 0-1.31.171-1.47.449-.054.091-.1.115-.1.052-.003-.08-.17-.104-.548-.081-.667.04-.701.052-.402.148.233.075-.23.097-2.628.129-.749.01-.97.042-.97.142 0 .098-.083.112-.355.056a2.66 2.66 0 0 0-.497-.062c-.078.005-.728.026-1.443.046-.716.02-1.329.062-1.362.095-.033.034-.134.021-.224-.027s-.308-.089-.484-.09c-.642-.007-1.556.057-1.694.119a.338.338 0 0 1-.284-.027zm-19.1-2.716a.366.366 0 0 0-.237 0c-.065.026-.012.048.118.048s.184-.022.118-.048zm-31.766-9.84c-.031-.032-.113-.035-.181-.008-.075.03-.053.053.057.058.1.004.156-.019.124-.05zm-25.944-23.062c-.03-.075-.053-.053-.058.058-.004.1.019.155.05.124.032-.032.035-.113.008-.182zm-18.272-46.106c-.03-.075-.053-.053-.058.058-.004.1.019.155.05.124.032-.031.035-.113.008-.182zm67.462 76.825c.144-.022.357-.021.473.001.117.023 0 .04-.261.04-.26-.001-.356-.02-.212-.041zm-2.865-.784c0-.052.064-.095.142-.095.078 0 .142.043.142.095 0 .052-.064.095-.142.095-.078 0-.142-.043-.142-.095zm-12.402-4.166c0-.052.042-.094.094-.094s.095.042.095.094a.095.095 0 0 1-.095.095.095.095 0 0 1-.094-.095zM73.74 255.96c-.05-.13-.036-.135.085-.035.164.136.18.19.06.19-.047 0-.112-.07-.145-.155zm23.442-30.87c-.12-.023-.243-.104-.272-.179-.041-.108-.081-.113-.189-.024-.151.126-1.247.116-1.403-.013-.052-.043-.49-.109-.97-.146-.482-.038-.877-.105-.877-.15 0-.046-.082-.083-.183-.083-.102 0-.346-.096-.544-.212a1.67 1.67 0 0 0-.857-.218c-.37-.004-.53-.05-.625-.181-.09-.121-.197-.158-.347-.12-.129.035-.36-.015-.57-.123-.419-.213-.775-.232-1.607-.086-.466.082-.69.081-.923-.002-.169-.06-.348-.085-.399-.054-.144.09-.545-.598-.765-1.31-.176-.572-.194-.813-.154-1.989.025-.735.094-1.463.154-1.617a1.41 1.41 0 0 0 .05-.627 1.283 1.283 0 0 1 .097-.715c.086-.202.197-.58.248-.84l.148-.757a1.44 1.44 0 0 1 .232-.51c.284-.365.094-.483-.73-.452-.385.015-.73.056-.765.092-.102.102-.335.076-.27-.03.032-.052-.004-.094-.081-.094s-.154.04-.172.09c-.038.11-1.168.276-2.209.326-.416.02-.883.06-1.038.088-.817.15-3.125.033-5.447-.278-.519-.07-.794-.066-1.243.014-.212.038-.368.022-.408-.042-.035-.057-.161-.104-.28-.104-.203 0-.736-.5-1.06-.995-.16-.244-.452-2.411-.387-2.878.14-1.008.438-2.387.569-2.624.248-.452.537-1.185.537-1.361 0-.091.064-.219.142-.284.078-.064.142-.177.142-.25a.8.8 0 0 1 .084-.295c.046-.09.183-.399.305-.685.308-.725.557-1.03.847-1.037.132-.003.281-.043.331-.089.107-.1 1.121-.305 1.476-.298.276.005.428-.232.271-.422-.054-.065-.136-.527-.183-1.027-.048-.5-.116-.955-.151-1.013-.065-.105-.062-2.257.004-2.789s.326-1.558.442-1.744c.105-.17.35-.287.604-.29.056-.001.201.18.323.401.123.221.34.553.484.738.143.185.426.675.628 1.089l.366.753.564-.01c.767-.013 1.963-.143 2.078-.227.192-.139.738-.19.87-.081.094.078.19.081.34.01.575-.274 1.595-.516 1.918-.455.256.048.45.01.781-.15.32-.154.625-.216 1.107-.223.366-.005.758-.06.872-.123.113-.063.371-.114.572-.114.202 0 .407-.04.456-.09.05-.049.325-.132.611-.184 1.04-.19 1.368-.278 1.401-.38.02-.057.14-.103.27-.103s.322-.047.428-.104c.128-.068.225-.071.287-.01.094.095.652-.015 1.603-.316a3.53 3.53 0 0 1 .88-.139c.243 0 .57-.066.727-.147.156-.08.591-.185.966-.232 1.018-.127 2.36-.384 2.557-.49.096-.05.672-.152 1.28-.224 1.558-.187 2.277-.296 2.713-.411.209-.055.55-.102.758-.104.208-.002.581-.065.83-.14.248-.075.78-.162 1.183-.193a9.04 9.04 0 0 0 1.297-.2c.31-.08.694-.127.852-.103.158.023.394.002.524-.047.13-.05.514-.106.852-.125a5.64 5.64 0 0 0 .994-.144c.208-.06 1.04-.181 1.847-.27.807-.087 1.513-.187 1.569-.222.055-.034.21-.005.345.064.2.104.266.105.371.004.182-.174.769-.316 1.07-.258.141.027.562-.017.936-.098.373-.08 1.126-.195 1.673-.254.898-.098 1.384-.138 2.887-.24.26-.018.73-.074 1.042-.126a9.363 9.363 0 0 1 1.136-.103c.312-.005.74-.07.952-.144.223-.077.768-.135 1.304-.138.507-.002 1.008-.052 1.115-.11.107-.056.252-.08.323-.053.07.027.525.007 1.01-.044.977-.104 2.191-.172 3.924-.22.632-.017 1.202-.064 1.267-.104.065-.04.403-.084.751-.097.348-.014.886-.051 1.194-.083 1.106-.115 2.004-.132 3.402-.062.877.043 1.466.036 1.539-.02.077-.06.165-.052.254.022.105.087.184.087.348-.001.253-.136 1.363-.056 1.565.112.103.085.222.085.51-.001.262-.08.43-.084.557-.015.102.054.375.07.62.037.36-.05.46-.029.566.117.108.148.164.159.351.065.348-.173 2.333-.015 2.467.198.037.058.395.118.805.133 1.606.06 1.758.104 2.347.685.052.052.194.19.316.307 1.224 1.181 1.61 1.594 2.104 2.249.176.234.348.447.381.473.034.026.092.146.13.265.036.12.202.36.367.534.383.403.755 1.026.937 1.568.42 1.253.439 1.44.212 2.22-.224.77-.271.805-1.1.82-.398.007-.768-.014-.821-.047-.15-.093-1.048-.261-1.627-.305a5.828 5.828 0 0 1-.757-.101 1.073 1.073 0 0 0-.308-.046c-.04.009-1.104-.083-2.367-.202-2.974-.283-6.695-.26-7.05.043-.263.224-.76.39-1.017.341-.129-.024-.212-.009-.184.036.027.045-.12.081-.329.081-.208 0-.405.043-.437.095-.087.14-.386.115-.518-.043-.098-.12-.15-.106-.365.094-.138.128-.355.233-.482.233-.288 0-.86.202-.86.303 0 .042-.057.076-.127.076s-.264.068-.43.15c-.166.083-.365.127-.442.097-.154-.059-.8.214-.8.338 0 .043-.042.077-.094.077-.053 0-.095-.064-.095-.142 0-.177-.178-.187-.245-.013-.036.094-.242.124-.778.115-.471-.01-.802.032-.937.116-.175.109-1.087.378-1.898.561-.117.026-.213.083-.213.125 0 .042-.245.126-.544.186-.3.06-.718.19-.93.29-.211.1-.486.182-.609.182s-.409.09-.634.199c-.226.11-.59.22-.811.246-.463.054-1.33.35-1.618.553-.109.076-.265.138-.346.138-.173 0-.693.255-1.093.535a1.954 1.954 0 0 1-.54.258c-.703.17.1.348 1.35.3a9.029 9.029 0 0 0 1.373-.18 58.424 58.424 0 0 1 1.446-.306l.783-.155.322.221c.177.121.304.25.282.285-.022.035.024.088.102.118.078.03.142.096.142.147 0 .154.601.742.828.81a.592.592 0 0 1 .31.245c.054.1.235.252.403.338.167.086.458.31.644.498.187.188.792.782 1.344 1.32s1.108 1.113 1.235 1.278c.128.165.322.403.432.528.11.125.2.266.2.314 0 .047.102.222.226.388.631.842.964 2.15.81 3.188-.14.953-.2 1.231-.267 1.231-.033 0-.17.1-.302.224-.202.187-.37.23-1.035.27-.531.03-.873.005-1.036-.074l-.79-.388a71.04 71.04 0 0 1-1.042-.523c-.27-.14-.558-.257-.637-.26-.08-.003-.476-.134-.882-.29-.406-.156-.873-.286-1.04-.287-.165-.002-.384-.066-.485-.142-.1-.077-.364-.14-.586-.14-.221 0-.425-.036-.453-.081-.027-.045-.38-.09-.781-.099-.403-.01-.787-.062-.854-.118-.068-.056-.217-.078-.332-.048-.114.03-.26.011-.325-.042-.084-.07-.329.025-.866.335-.413.238-.78.432-.817.432-.173 0-1.107.518-1.618.898-.514.382-.832.56-1.704.957-.157.071-.242.13-.19.131.051.001-.117.115-.375.252s-.529.31-.602.383c-.074.074-.26.16-.415.19-.155.031-.3.109-.325.173-.06.156-.923.709-1.107.709-.08 0-.175.045-.21.1-.095.155-1.439 1.13-1.556 1.13-.107 0-.515.237-.759.442-.653.547-.945.822-.91.858.023.023-.038.122-.137.22a1.093 1.093 0 0 0-.241.443c-.107.45-.62 1.054-.984 1.16-.499.144-.716.118-1.01-.12a12.201 12.201 0 0 0-.687-.496 7.51 7.51 0 0 1-.9-.766c-.264-.267-.58-.516-.702-.554-.238-.074-.622-.415-.643-.571a7.807 7.807 0 0 1-.023-.201c-.006-.059-.112-.107-.236-.107-.224 0-.797-.346-.939-.566-.05-.077-.21-.097-.48-.06-.282.039-.498.009-.703-.097-.162-.084-.38-.153-.482-.153a.558.558 0 0 1-.338-.15c-.18-.181-1.181-.254-1.58-.115-.166.058-.332.222-.428.425-.086.181-.32.433-.52.56-.228.144-.364.302-.364.422 0 .245-.439.657-.7.659-.284.002-.39.106-.384.377.003.159-.145.39-.45.702-.25.257-.455.518-.455.582 0 .27-.34.534-.686.534-.191 0-.397.059-.457.131-.06.072-.149.107-.198.077-.049-.03-.138.076-.2.237-.083.224-.168.293-.355.293a.791.791 0 0 0-.457.197 1.501 1.501 0 0 1-.514.284c-.312.09-.341.09-.712.02zm9.876-20.665c-.032-.051-.002-.072.065-.046.068.026.177-.038.243-.143.109-.175.096-.19-.16-.19-.292 0-.614.237-.523.386.03.048.14.087.243.087.104 0 .164-.042.132-.094zm1.42-.381c.033-.053.096-.074.141-.046.045.028.107.01.137-.04.03-.049.012-.116-.04-.148-.053-.033-.097-.167-.097-.297 0-.235-.002-.234-.355.1-.195.185-.41.336-.479.337-.068 0-.097.043-.065.095.076.124.681.123.758-.002zm1.165-.277c.024-.07-.012-.106-.083-.083a.296.296 0 0 0-.166.166c-.023.07.012.107.083.083a.296.296 0 0 0 .166-.166zm2.669-.668c.114-.075.1-.093-.071-.094-.118 0-.213.042-.213.094 0 .118.1.118.284 0zm43.076 13.01a1.068 1.068 0 0 0-.394-.133c-.087-.001-.257-.087-.379-.191-.358-.306-1.064-.754-1.192-.756-.065 0-.118-.04-.118-.088 0-.047-.32-.418-.71-.822-.39-.405-.71-.784-.71-.842 0-.058-.15-.25-.331-.427-.212-.205-.332-.41-.332-.568 0-.267.154-.473.353-.473.184 0 .879-.46.941-.623.05-.131.44-.519 1.736-1.728.507-.473.778-.591.901-.392.034.054.1.375.148.714.048.338.158.724.245.856.092.14.167.474.18.804.026.587.21 1.475.344 1.658.042.058.119.463.17.9l.144 1.245c.049.419.03.472-.256.733-.342.312-.398.322-.74.132zm-109.49-26.327a4.487 4.487 0 0 0-.947-.133c-.65-.005-2.136-.264-2.367-.41a1.82 1.82 0 0 0-.52-.185c-.414-.08-1.52-.537-1.687-.699-.07-.066-.167-.12-.218-.12-.156 0-.538-.47-.76-.933-.115-.242-.239-.461-.275-.487-.107-.079-.274-.68-.348-1.255-.025-.196-.083-.379-.128-.407-.045-.028-.056-.241-.024-.474.044-.32.02-.466-.098-.596-.085-.094-.131-.195-.102-.224.029-.03.053-.718.053-1.53 0-.865.037-1.479.09-1.479.12 0 .112-.566-.014-.928-.08-.23-.072-.351.039-.559.077-.145.235-.541.35-.88.207-.614.647-1.42.775-1.42.14 0 1.693-1.477 1.915-1.821.093-.143.203-.239.245-.213.042.026.09.015.108-.024.046-.105 1.354-.971 1.465-.971.235 0 .818-.377 1.371-.887.332-.305.689-.595.793-.644a7.204 7.204 0 0 0 1.15-.721c.149-.12.675-.477 1.17-.794a69.82 69.82 0 0 0 1.155-.754c.142-.097.357-.176.48-.176.126 0 .342-.128.5-.295a2.44 2.44 0 0 1 .67-.465 2.88 2.88 0 0 0 .73-.51c.187-.187.394-.341.461-.343.067-.002.292-.128.5-.281l.605-.443c.135-.097.375-.158.592-.15.326.013.366-.01.366-.211 0-.125.095-.333.213-.463.22-.244 1.84-1.1 2.082-1.1.075 0 .214-.085.308-.19.094-.103.227-.188.295-.188.067 0 .225-.096.35-.213.47-.439.782-.632 1.106-.687a.632.632 0 0 0 .495-.336c.206-.36.56-.502.886-.353.262.12.414.004.417-.317.002-.196.168-.333.507-.418.147-.037.288-.122.313-.188.093-.242 1.38-.991 1.702-.991.08 0 .309-.17.509-.379.2-.208.426-.379.502-.379.203 0 .86-.288.94-.413.049-.075.07-.068.071.022.001.087.108.049.327-.118.179-.136.39-.248.47-.248.08 0 .247-.151.373-.336.193-.284 1.454-1.179 1.662-1.179.037 0 .299-.204.583-.453a6.24 6.24 0 0 1 1.177-.774 7.196 7.196 0 0 0 1.163-.73c.276-.225.562-.41.634-.41.072 0 .251-.1.398-.223a2.23 2.23 0 0 1 .617-.336.966.966 0 0 0 .542-.442c.132-.224.286-.347.485-.386a1.3 1.3 0 0 0 .547-.31c.14-.139.39-.307.555-.375.166-.067.32-.173.344-.235.024-.062.293-.237.599-.39.305-.153.606-.347.668-.432.063-.085.36-.32.663-.523.302-.202.73-.529.95-.725.22-.196.438-.356.484-.356.046 0 .25-.132.452-.293.202-.16.496-.348.652-.415.156-.068.516-.341.8-.607.284-.266.547-.484.585-.484.037 0 .192-.117.345-.26.152-.144.56-.469.906-.723.347-.254.63-.488.63-.52.001-.033.16-.163.356-.29.195-.128.397-.277.449-.332.186-.197 1.141-.962 1.42-1.138.156-.098.512-.373.79-.612.28-.238.542-.423.583-.412.116.031.262-.183.298-.439.023-.162.126-.26.353-.336.176-.059.41-.211.521-.339.111-.128.393-.378.627-.555.514-.391 1.486-1.38 1.7-1.73.13-.213 1.097-1.272 2.773-3.033.195-.205.355-.412.355-.46 0-.088.08-.193.686-.91.195-.23.355-.458.355-.505 0-.047.15-.235.331-.417.183-.183.332-.394.332-.47 0-.077.074-.164.166-.195.09-.03.272-.276.402-.547.335-.699.414-.83.496-.83.04 0 .072-.057.072-.126 0-.068.15-.335.331-.59.183-.257.332-.499.332-.538 0-.186.66-1.466.84-1.625.11-.099.201-.263.201-.363 0-.101.08-.286.179-.41.098-.125.208-.43.244-.678a2.97 2.97 0 0 1 .282-.843c.12-.216.247-.55.283-.745.036-.194.176-.592.31-.886.36-.783.382-.85.507-1.575.064-.364.157-.769.207-.9.05-.13.146-.449.212-.71.066-.26.187-.664.268-.899.082-.234.198-.788.26-1.23.06-.443.173-1.082.25-1.42.076-.339.158-1.127.18-1.752.024-.625.107-1.818.185-2.65.196-2.089.239-3.713.242-9.09.003-5.09-.017-5.745-.184-5.8-.073-.025-.111-.293-.111-.777 0-.893-.227-2.2-.46-2.653a4.858 4.858 0 0 1-.29-.758c-.12-.422-.3-.994-.693-2.177-.112-.338-.23-.637-.261-.663-.103-.084-.48-.952-.537-1.237-.03-.153-.086-.278-.124-.278-.037 0-.144-.18-.236-.402a32.39 32.39 0 0 0-.488-1.078c-.176-.372-.32-.736-.32-.81a.389.389 0 0 0-.08-.223c-.044-.05-.179-.367-.3-.705a9.616 9.616 0 0 0-.394-.946c-.095-.181-.172-.4-.172-.486 0-.086-.064-.278-.142-.427a1.453 1.453 0 0 1-.142-.561c0-.16-.086-.467-.19-.682-.104-.216-.189-.469-.188-.562 0-.158-.064-.47-.433-2.097-.074-.33-.118-.63-.097-.664.032-.051-.077-2.08-.178-3.327-.083-1.019-.06-2.979.035-3.01.057-.02.104-.183.104-.363s.063-.451.14-.601c.137-.264.15-.268.42-.134.207.103.337.288.499.708.12.313.379.736.574.94.195.203.355.458.355.566 0 .108.064.22.141.25.078.03.191.22.252.424s.168.418.238.476c.07.057.126.164.126.236 0 .073.041.206.09.296.05.09.165.335.256.544.09.208.189.4.218.426.083.075.266.491.38.864.058.189.189.42.29.512.103.092.187.248.187.346 0 .098.085.305.189.459l.371.55c.1.149.235.542.3.874.066.332.19.669.278.748.087.079.21.335.274.57.064.234.202.601.305.816.19.392.25.6.263.917.004.094.05.145.102.113.056-.034.095.063.095.233 0 .16.089.62.197 1.023l.324 1.205c.07.26.176.687.236.947.427 1.85.6 2.49.725 2.683.078.121.12.244.092.272-.029.028.006.163.076.3.07.136.157.482.195.769.037.286.152.785.255 1.11.103.323.167.621.142.662-.051.085.132 1.048.354 1.857.083.303.123.597.088.653-.034.057-.018.075.037.04.205-.126.272 7.284.068 7.612-.047.075-.073.377-.059.671.019.381-.024.63-.15.866-.153.284-.174.504-.15 1.579.026 1.085.005 1.303-.16 1.663-.165.364-.184.574-.155 1.72.029 1.147.01 1.345-.148 1.627-.14.252-.16.375-.085.568.182.477.2.846.22 4.697.019 3.805-.03 5.443-.207 6.864-.049.39-.137 1.327-.197 2.082-.059.755-.17 1.586-.245 1.847-.076.26-.2.875-.275 1.367-.13.84-.246 1.316-.432 1.757-.044.104-.12.36-.17.568-.137.567-.26.98-.476 1.6-.107.308-.195.62-.195.696 0 .18-.55 1.438-.673 1.538-.111.092-.368.655-.368.81 0 .167-.258.67-.45.876a.604.604 0 0 0-.118.356.666.666 0 0 1-.175.406c-.097.096-.435.597-.753 1.112-.317.515-.685 1.056-.818 1.201-.133.146-.242.327-.242.403 0 .076-.04.138-.088.138-.049 0-.117.09-.152.2-.035.111-.203.336-.373.5-.17.166-.34.4-.378.52-.038.121-.252.4-.475.62-.224.22-.473.53-.555.688-.082.16-.215.314-.295.345-.08.03-.146.11-.146.178 0 .067-.085.175-.189.24s-.19.161-.19.213c0 .052-.275.382-.613.733-1.162 1.21-1.706 1.797-1.895 2.045-.104.137-.236.249-.292.25-.056 0-.313.203-.571.45-.5.479-.65.602-1.173.968a2.462 2.462 0 0 0-.455.4c-.068.094-.178.17-.245.17-.068 0-.2.086-.294.19-.094.104-.25.19-.346.19-.096 0-.174.04-.174.091 0 .161-1.839 1.936-2.21 2.133a3.778 3.778 0 0 0-.641.45c-.208.19-.347.245-.51.204-.18-.045-.252-.002-.369.225-.08.155-.21.307-.29.337-.08.031-.146.108-.146.172 0 .137-1.232 1.305-1.38 1.308-.055.001-.197.113-.314.248-.143.164-.277.23-.402.197-.14-.037-.253.044-.443.318-.14.203-.287.37-.327.372-.062.003-.344.237-.863.716-.27.249-1.056.707-1.212.707-.1 0-.224.112-.29.26-.138.316-.415.58-.68.648-.108.028-.298.216-.424.418-.231.372-1.002.947-1.27.947-.081 0-.173.042-.206.094-.032.052-.142.095-.245.095-.103 0-.21.062-.24.138-.029.076-.145.167-.257.202-.205.064-.622.47-.888.867-.079.117-.18.213-.223.213-.045 0-.263.13-.486.288a25.68 25.68 0 0 1-.857.578c-.249.158-.495.37-.548.469-.053.099-.152.18-.22.18-.07 0-.227.09-.352.2-.126.111-.462.374-.749.585-.286.21-.712.541-.946.734a7.249 7.249 0 0 1-.894.613c-.257.143-.556.345-.663.448a2.016 2.016 0 0 1-.503.32c-.169.072-.36.22-.426.328-.065.108-.267.279-.45.38-.182.1-.501.29-.71.42-.208.13-.485.287-.615.349a2.5 2.5 0 0 0-.533.408 2.847 2.847 0 0 1-.663.467c-.201.095-.387.198-.413.23-.026.03-.175.12-.332.197-.312.154-.78.46-.965.631a1.89 1.89 0 0 1-.405.237c-.158.07-.286.158-.286.198 0 .04-.064.071-.142.071-.077 0-.194.086-.259.19-.065.104-.183.19-.261.19-.079.002-.33.13-.56.285-.229.155-.47.282-.534.282-.065 0-.142.064-.172.142-.03.078-.103.142-.162.142-.06 0-.234.107-.39.237-.154.13-.337.237-.407.237-.07 0-.332.16-.584.355a7.78 7.78 0 0 1-.884.584c-.235.125-.54.322-.68.437-.14.115-.395.237-.568.271-.186.036-.514.246-.803.513-.268.248-.64.533-.828.634-.187.101-.34.217-.34.257 0 .041-.172.143-.381.227-.21.084-.444.242-.521.351-.077.11-.14.172-.14.14 0-.034-.18.04-.402.165-.221.124-.561.312-.755.418-.194.107-.56.374-.815.595-.717.623-.833.71-1.047.777-.11.035-.2.12-.2.187 0 .168.512.26.811.145.134-.05.472-.092.752-.092s.539-.048.575-.107c.043-.07.26-.089.621-.056.305.028.575.018.6-.022.05-.081.825-.209 1.47-.242.234-.013.916-.11 1.515-.217a24.62 24.62 0 0 1 1.893-.26c.443-.037.847-.092.9-.123a.937.937 0 0 1 .283-.081c.105-.014.456-.073.782-.132.325-.059.783-.078 1.018-.043.416.062 1.088-.09 1.088-.247 0-.039.245-.06.544-.047.346.015.717-.039 1.018-.149.26-.095.601-.162.758-.15.447.037 1.977-.122 2.093-.217.058-.048.25-.082.426-.076.177.005.64-.083 1.03-.198l1.06-.307c.192-.054.525-.074.739-.046.246.033.484.003.645-.08.312-.163.746-.175.797-.022.027.08.104.066.266-.048.126-.088.406-.16.626-.16.468 0 1.953-.338 2.322-.529.322-.166.315-.166.51.028.15.15.178.15.434.003.202-.116.336-.135.506-.07.135.051.253.053.283.003.077-.123 1.085-.331 1.45-.299.172.015.408-.034.524-.11.143-.094.499-.144 1.092-.153.563-.01.954-.061 1.086-.145.34-.216 1.225-.359 1.523-.245.214.081.31.064.537-.099.22-.157.455-.204 1.152-.232.512-.02 1.051-.101 1.3-.196.235-.089.746-.202 1.137-.251.647-.082.91-.091 1.88-.067.18.004.396-.065.502-.16.137-.125.355-.17.848-.176.407-.005.69-.052.734-.122.038-.062.345-.139.68-.17.336-.03.727-.092.87-.137.186-.058.296-.043.395.056.153.153.34.181.34.052 0-.147 1.244-.398 2.082-.42.56-.015.9-.073 1.12-.191.285-.153 1.11-.31 2.004-.382.183-.014.432-.08.555-.146a.825.825 0 0 1 .474-.07c.357.071 1.642-.127 1.819-.28.082-.072.31-.13.506-.13.277 0 .367.041.406.189.062.236.13.237.428.003.172-.136.402-.192.841-.204.332-.01.694-.072.803-.138.12-.072.35-.1.576-.07.243.032.477-.001.655-.093.153-.079.388-.122.522-.097a.448.448 0 0 0 .412-.122c.195-.195.786-.268.965-.12.09.075.233.049.533-.097.226-.11.57-.199.766-.199.195 0 .437-.044.537-.097.136-.073.241-.059.414.054.216.142.263.138.674-.044.42-.185.456-.187.71-.037.26.153.275.151.446-.06.184-.228.28-.245 1.822-.323.39-.02.893-.086 1.117-.148.224-.062.492-.085.596-.052a.386.386 0 0 0 .328-.054c.086-.072.316-.098.61-.07.26.026.473.015.473-.024 0-.038.086-.092.19-.12.127-.032.224.012.288.132.129.24.241.228.525-.057.215-.214.286-.23.755-.176.406.048.554.028.686-.092.174-.156 1.007-.168 1.364-.018.104.044.254-.003.415-.13.278-.219.75-.258 1.113-.093.185.084.276.076.442-.04.114-.08.266-.124.336-.097.07.027.277-.001.461-.062.184-.06.687-.126 1.117-.145.43-.02 1.07-.054 1.42-.077.352-.023.64-.004.64.042s.063.084.142.084c.078 0 .142-.043.142-.095 0-.123.623-.122.854.001.142.076.2.057.281-.094.131-.246.267-.241.544.02.145.136.247.174.29.108.124-.19.498-.337.617-.24.061.05.287.143.5.206.337.1.424.093.64-.048a.75.75 0 0 1 .49-.119c.144.028.267-.005.31-.084.06-.105.177-.11.615-.03.297.056.593.068.657.03.063-.04.659-.08 1.323-.088.664-.009 1.261-.056 1.327-.106.13-.098 1.203-.102 1.36-.005.053.033.34.026.639-.014.298-.04.564-.04.59.003.026.042.205.075.399.074.193-.002.67.013 1.06.033.503.025.755-.001.863-.093.18-.15.91-.182 1.836-.08.364.041.833.07 1.041.063.477-.015 2.477-.09 2.793-.105.449-.022 1.09.05 1.228.138a.88.88 0 0 0 .38.094c.197.004.247.061.293.336.056.338.115.283.221-.206.067-.304.285-.391.69-.275.18.052.454.05.69-.002.216-.049.435-.061.489-.028.126.078 2.796.075 4.462-.005.862-.042 1.413-.028 1.621.04.259.086.399.073.777-.075.701-.273.922-.902.475-1.352-.174-.175-.207-.274-.145-.439.108-.29.259-.268.328.047.126.576.235.797.505 1.025.269.226 1.267 1.468 1.485 1.848.057.099.17.254.25.346a1.3 1.3 0 0 1 .218.403c.085.28.344.655.454.66.127.004.295.214.52.65.117.226.33.51.473.63.143.12.322.34.398.488.076.148.211.376.301.506.136.197.415 1.972.38 2.415-.057.71-.44 1.243-.958 1.335-.187.033-.425.137-.53.23-.157.14-.503.187-2.082.28-2.078.123-5.36.099-5.46-.04-.034-.048-.759-.101-1.609-.12-2.042-.042-2.787-.077-4.464-.21-.771-.061-1.602-.107-1.846-.101a7.128 7.128 0 0 1-1.011-.079c-.323-.05-.662-.053-.784-.006-.32.12-.638.119-1.583-.009-1.18-.159-2.487-.197-2.92-.084-.28.072-.529.055-1.07-.072-.573-.135-.78-.146-1.102-.06-.246.065-.437.072-.503.018-.15-.125-1.938-.047-2.206.096-.158.085-.242.09-.287.017-.042-.07-.443-.09-1.204-.064-2.036.072-2.823.073-2.993.004-.092-.037-.22-.024-.284.03-.065.053-.842.119-1.727.147-.885.028-1.85.08-2.146.115-.314.038-.656.023-.825-.036a.933.933 0 0 0-.6-.007c-.54.162-1.808.368-2.27.368-.244 0-.473.048-.509.106-.04.065-.258.09-.573.063-.28-.023-.509-.004-.509.042 0 .047-.039.06-.087.031-.047-.03-.2-.01-.339.042-.192.074-.33.06-.576-.057-.241-.115-.357-.127-.45-.049-.07.058-.154.078-.187.045s-.125-.006-.204.06c-.08.065-.25.098-.381.073a.58.58 0 0 0-.395.07.431.431 0 0 1-.315.075c-.086-.022-.211.026-.28.108-.088.107-.293.149-.723.149-.518 0-.615-.028-.71-.205-.106-.197-.113-.198-.206-.023a2.267 2.267 0 0 1-.233.339c-.127.146-.154.143-.379-.048a6.684 6.684 0 0 1-.41-.38c-.16-.167-.17-.164-.294.096-.097.2-.2.27-.412.279-.155.005-.496.083-.756.173-.302.104-.603.142-.832.106-.21-.033-.444-.01-.568.058-.115.063-.444.122-.73.13a4.61 4.61 0 0 0-.887.116c-.328.09-.37.082-.413-.08-.06-.227-.081-.226-.327.002-.11.102-.396.214-.636.247-.24.034-.538.126-.664.206-.265.167-1.41.252-1.573.117-.075-.063-.198-.016-.385.147-.169.147-.347.222-.46.193a.434.434 0 0 0-.35.101c-.099.09-.38.158-.713.174-.303.015-.673.075-.823.135-.15.06-.405.104-.568.099-.163-.005-.551.064-.864.155a6.52 6.52 0 0 1-1.278.195c-.83.034-1.456.152-1.646.31-.075.061-.32.105-.546.096-.403-.015-.643.022-1.31.198-.49.128-1.62.304-1.915.296-.141-.003-.282.035-.313.085-.03.05-.247.09-.481.09-.234 0-.55.065-.704.145-.155.08-.542.147-.871.152-.333.004-.717.072-.875.154-.156.08-.498.155-.76.167a5.769 5.769 0 0 0-.783.088c-.235.052-.318.032-.363-.085-.053-.138-.069-.139-.167-.004-.069.094-.307.163-.653.19-.362.027-.638.111-.826.25-.199.147-.46.222-.875.25-.326.023-.643.082-.705.132-.062.05-.424.129-.805.175-1.586.194-2.1.277-2.581.417-.279.08-.628.148-.776.148-.148.001-.479.065-.734.142a3.596 3.596 0 0 1-.852.142 1.7 1.7 0 0 0-.659.142c-.149.077-.418.141-.598.141s-.42.052-.533.116c-.118.066-.614.123-1.154.133-.52.01-1.01.041-1.089.072-.678.266-.903.304-1.293.215-.34-.078-.438-.067-.585.066-.18.163-.996.318-2.808.534-.52.062-1.045.151-1.164.198-.12.048-.494.086-.832.086a4.11 4.11 0 0 0-1.19.195c-.318.107-.839.23-1.158.274-.772.107-1.733.283-2.141.392-.182.048-.651.106-1.041.128a7.45 7.45 0 0 0-1.127.144 7.96 7.96 0 0 1-1.136.15c-.396.024-1.04.087-1.43.14-.39.052-.795.099-.9.104-.103.005-.502.07-.885.144-.384.074-.773.11-.866.08-.093-.03-.237.015-.322.1-.117.117-.334.15-.933.145-1.066-.01-1.676.042-1.999.171-.15.06-.831.127-1.515.148-.683.022-1.455.08-1.716.132-.26.05-1.153.12-1.984.155-.83.034-1.547.084-1.59.112-.187.115-2.034.093-2.485-.03zm59.313-12.582c0-.081-.043-.121-.095-.09-.052.033-.094.1-.094.148 0 .05.042.09.094.09s.095-.067.095-.148zm-2.84-.989c0-.052-.019-.094-.042-.094-.023 0-.068.042-.1.094s-.014.095.041.095c.056 0 .1-.043.1-.095zm14.482-53.733a1.593 1.593 0 0 1-.092-.308c0-.089-1.793-.072-2.064.02-.135.045-.27.03-.356-.042-.076-.064-.319-.13-.54-.15-.22-.018-.415-.076-.432-.129-.018-.052-.154-.095-.304-.095s-.489-.128-.754-.284c-.264-.156-.52-.284-.567-.284-.157 0-1.8-1.783-1.8-1.955 0-.044-.185-.362-.411-.706-.226-.344-.44-.728-.476-.852-.036-.125-.19-.71-.342-1.3-.152-.591-.314-1.124-.359-1.184-.045-.06-.135-.408-.2-.772-.065-.365-.164-.756-.219-.869-.07-.145-.07-.491.001-1.167.1-.943.275-1.423.518-1.417.064 0 .297.246.519.544 1.232 1.658 1.77 2.131 2.407 2.114 1.195-.032 2.827-.2 3.202-.332a2.9 2.9 0 0 1 .785-.15 1.67 1.67 0 0 0 .63-.14c.147-.077.496-.18.775-.231 1.814-.328 2.529-.474 2.767-.568.149-.059.544-.127.878-.152.334-.025.702-.104.818-.175.116-.071.594-.182 1.063-.247a13.83 13.83 0 0 0 1.656-.352c1.293-.379 1.541-.426 1.93-.365.251.04.417.015.521-.076.205-.178.73-.337 1.194-.36.209-.01.422-.05.474-.088.052-.039.58-.118 1.173-.177.593-.06 1.147-.144 1.23-.189.085-.045.409-.11.72-.145.313-.035.888-.142 1.279-.238a12.07 12.07 0 0 1 1.657-.242c.52-.037.968-.097.994-.133.026-.036.616-.136 1.31-.22.695-.086 1.316-.199 1.38-.251.063-.053.581-.121 1.15-.152 1.63-.088 2.157-.174 2.756-.448.113-.052.364-.064.558-.028.232.044.376.029.42-.044.062-.098.442-.153 2.414-.344.312-.03.617-.094.677-.142.06-.048.251-.086.426-.085.605.004.796-.011 1.832-.148.573-.076 1.169-.13 1.325-.122.244.013.884-.113 1.373-.27.078-.025.677-.057 1.331-.07.908-.019 1.264-.063 1.507-.189.225-.116.436-.148.72-.11.268.037.498.007.69-.089.208-.103.677-.154 1.643-.178 1.209-.03 1.7-.093 2.156-.273.078-.031.952-.076 1.941-.099 1.729-.04 3.12-.16 4.024-.344.55-.112 2.82-.283 4.292-.323.633-.018 1.322-.072 1.53-.122.208-.05 1.014-.1 1.79-.113.777-.013 1.523-.068 1.657-.123.135-.055.67-.117 1.188-.138.518-.021.987-.072 1.041-.113.055-.041.397-.084.762-.095a82.74 82.74 0 0 0 2.083-.112c.78-.05 1.897-.105 2.48-.121.688-.02 1.112-.073 1.208-.153.118-.098.26-.1.716-.01.312.06.62.077.685.037.13-.083.968-.191 2.059-.267a17.79 17.79 0 0 0 1.372-.157c.783-.127 2.824-.788 2.871-.93.046-.137.68-.887.68-.804 0 .037.054.022.12-.033.068-.055.334-.118.593-.14.258-.022.674-.098.924-.169.703-.199.771-.113.804 1.004.025.833.002.978-.213 1.42-.138.282-.24.655-.24.879 0 .428-.328 1.013-.568 1.013-.082 0-.153.1-.168.236-.075.694-.149.893-.428 1.147-.164.15-.374.273-.467.273-.124 0-.168.075-.168.284 0 .157-.08.364-.178.462a1.067 1.067 0 0 0-.22.308c-.038.11-.069.11-.202 0-.136-.113-.157-.108-.157.038 0 .092-.17.314-.38.492-.333.286-.378.373-.378.737 0 .47-.076.52-.818.534-.439.007-1.09.253-1.217.457-.032.053-.142.096-.243.096-.1 0-.183.064-.183.142 0 .078-.075.143-.166.143-.091 0-.288.064-.437.142-.15.078-.43.141-.623.141-.42 0-1.49.336-1.682.528-.198.197-.624.169-.761-.052-.115-.183-.122-.183-.425-.01-.24.138-.468.172-1.019.154-.39-.013-.752.007-.805.045-.052.038-.456.099-.899.135-.443.036-.892.122-.999.191-.107.069-.575.147-1.041.173-.466.027-1.06.099-1.32.16-.261.062-.769.11-1.13.106-.36-.003-.707.037-.771.09-.064.054-.707.117-1.428.14-.72.024-1.524.089-1.784.143-.26.055-.73.1-1.042.1-.312 0-.803.06-1.09.134a8.534 8.534 0 0 1-1.174.188c-.358.03-.68.072-.715.093-.035.022-.402.049-.815.06-.412.011-.856.061-.987.111-.13.05-.716.084-1.301.076-.586-.009-1.065.019-1.065.06 0 .04-.224.077-.498.081-.917.014-2.966.219-3.243.324a1.46 1.46 0 0 1-.637.043c-.2-.033-.414-.02-.478.03-.175.138-.585.216-1.38.263-.885.052-2.03.239-2.1.343-.03.042-.52.095-1.09.119-.57.023-1.24.088-1.49.144a9.49 9.49 0 0 1-1.137.15c-.375.027-.819.093-.987.147-.282.092-2.04.31-3.386.419a6.24 6.24 0 0 0-.805.11c-.13.035-.428.073-.663.084-.234.01-.681.066-.994.123-.312.058-.93.168-1.373.245l-1.372.24c-.313.055-.994.14-1.515.19-.52.05-1.096.132-1.278.183-.322.09-2.258.417-3.314.56-.286.039-.606.116-.71.172-.104.056-.487.155-.852.22a7.796 7.796 0 0 0-1.018.25c-.196.07-.686.168-1.09.215-.402.046-.852.132-.999.19-.146.057-.474.104-.728.104s-.485.038-.513.084c-.029.046-.212.114-.408.15-.195.037-.398.095-.45.128-.053.033-.312.07-.576.081-.471.02-1.929.354-2.227.51-.083.044-.467.123-.852.175-.386.053-1 .182-1.364.286-.364.105-.822.191-1.017.193-.196 0-.355.043-.355.091 0 .05-.075.09-.166.09-.374.005-1.405.164-1.522.237-.068.042-.408.137-.755.21-.347.072-.76.19-.917.262-.157.072-.598.158-.98.191-.802.07-1.031.167-1.154.49-.124.326-.537.319-.663-.012zm-67.606-7.545a24.02 24.02 0 0 0-.876-.17c-.838-.147-1.23-.378-2.193-1.297-.374-.357-.594-.495-.78-.492-.319.005-1.04.198-1.316.353a.96.96 0 0 1-.384.116.448.448 0 0 0-.276.1c-.055.055-.386.14-.735.19-.349.049-.77.163-.936.253-.167.09-.43.17-.587.177-.156.007-.688.066-1.183.13-.495.064-.963.112-1.041.106-.48-.04-1.464.012-1.658.085-.143.055-.25.053-.286-.004-.03-.05-.345-.09-.698-.09a4.05 4.05 0 0 1-1.202-.19 6.466 6.466 0 0 0-1.118-.251 2.145 2.145 0 0 1-1.041-.382c-.265-.176-.586-.346-.713-.379-.344-.088-.883-.477-.741-.534.078-.032.067-.051-.033-.056-.138-.006-.374-.182-.89-.66a5.561 5.561 0 0 0-.59-.437c-.222-.144-.403-.32-.403-.39 0-.072-.047-.13-.104-.13-.157 0-.577-.49-.838-.977-.127-.237-.26-.414-.294-.393-.034.021-.11-.066-.168-.195-.059-.129-.172-.234-.25-.234-.106 0-.145-.102-.145-.376 0-.32.041-.397.28-.52.408-.212.72-.181.934.092.102.13.235.236.295.236s.284.09.499.2c.315.16.484.187.87.136.264-.035.515-.114.56-.176.06-.086.09-.085.127.005.034.084.098.09.225.023.098-.053.435-.122.75-.155.322-.034.572-.106.572-.166 0-.067.156-.093.427-.071.354.028.417.009.37-.113-.046-.122.038-.145.519-.138.315.004.628-.035.694-.089.066-.053.27-.128.452-.166.182-.038.384-.112.448-.164a.307.307 0 0 1 .274-.034c.086.033.386-.026.667-.132.281-.105.613-.19.737-.19s.346-.063.493-.138c.148-.075.538-.189.868-.251.33-.063.657-.172.727-.242.076-.075.337-.127.645-.127.372 0 .532-.04.572-.142.035-.093.182-.142.424-.142.218 0 .42-.06.492-.147.066-.08.18-.123.254-.095.073.028.26-.014.414-.094.154-.08.322-.12.373-.088.05.031.337-.027.636-.13.3-.104.68-.216.845-.25.166-.033.352-.122.414-.196.062-.075.169-.136.237-.136.111 0 .188-.142.307-.568.021-.078.06-.331.087-.562.027-.231.104-.476.17-.543.068-.067.152-.292.187-.5.035-.208.092-.374.127-.37.184.025.215-.03.099-.174-.072-.088-.083-.132-.026-.097.11.066.368-.184.638-.618.089-.143.2-.26.25-.26.104 0 .92-.542.965-.641.017-.038.393-.254.835-.48a19.3 19.3 0 0 0 1.09-.59c.155-.1.347-.206.425-.236.078-.03.216-.095.307-.143.09-.049.284-.088.43-.088.147 0 .312-.045.367-.1.103-.103.928-.25 1.823-.324.548-.045.816-.19.545-.293-.087-.033-.158-.12-.158-.193a.13.13 0 0 0-.127-.131c-.199 0-.443-.318-.354-.461.128-.208 2.182-.075 2.914.188.323.116.568.242.544.28-.044.072.46.277.682.277.07 0 .128-.066.128-.147 0-.112.039-.125.165-.054.122.069.217.05.355-.07.253-.219 1.01-.459 1.684-.535.301-.033.663-.121.805-.195.141-.074.406-.159.588-.188.313-.051 1.64-.324 2.534-.521.222-.05.484-.09.582-.09.098 0 .202-.063.232-.141a.246.246 0 0 1 .216-.142c.089 0 .239-.07.333-.156.095-.086.377-.176.627-.2.52-.05.76.053 1.833.782.383.26.74.49.791.512a.73.73 0 0 1 .22.214c.068.097.281.258.473.358.492.258 1.437 1.025 1.437 1.168 0 .065.325.416.721.78 1.041.953 1.382 1.292 1.623 1.61l.427.565c.639.847.863 1.772.554 2.28-.098.16-.328.362-.51.449-.183.086-.355.217-.383.29-.028.072-.256.207-.507.299-.252.092-.506.227-.566.3-.222.268-1.033.784-1.234.784-.115 0-.236.046-.27.101-.035.056-.123.079-.195.05-.073-.027-.452.098-.843.278-.391.18-.768.328-.837.328a.314.314 0 0 0-.193.068c-.11.11-.93.302-1.311.307a2.596 2.596 0 0 0-.71.133 8.68 8.68 0 0 1-1.717.4c-.6.079-.826.284-.917.831-.051.31-.18.506-.614.935-.301.299-.818.846-1.147 1.217-.33.37-.732.744-.894.83a66.04 66.04 0 0 0-1.743.946c-.286.162-.598.295-.692.296-.094.001-.145.044-.112.097.032.052-.02.094-.116.094a.768.768 0 0 0-.36.13c-.103.07-.44.16-.749.198-.308.038-.661.134-.784.215-.122.08-.25.118-.283.085-.033-.033-.127-.004-.21.066-.199.168-.92.427-1.333.479-.503.063-1.605.246-2.083.346-.478.1-2.268.082-2.757-.029zm88.103-7.921c-.648-.047-.827-.1-1.223-.362-.255-.17-.518-.308-.585-.308-.066 0-.155-.055-.196-.123-.042-.068-.228-.216-.415-.33-.309-.187-.39-.196-.946-.105-.885.144-2.428.146-2.975.005-1.114-.289-1.816-.525-2.05-.69-.139-.097-.296-.177-.35-.177-.104 0-1.719-1.551-1.719-1.652 0-.033-.08-.175-.177-.316-.35-.505-1.013-1.687-1.276-2.275-.299-.669-.463-1.856-.325-2.36.1-.374.416-.687.69-.687.195 0 .526.245.68.505.042.07.305.284.585.475.449.306.575.346 1.09.346.344 0 .662-.054.771-.13.103-.073.464-.207.802-.3.339-.092.744-.233.9-.313.156-.08.497-.176.757-.214.67-.095 1.109-.22 1.586-.452.228-.11.51-.2.628-.2.36 0 .554-.169.624-.542.112-.595.776-1.553 1.161-1.676.108-.034.22-.124.25-.2a.23.23 0 0 1 .198-.139c.08 0 .145-.039.145-.087 0-.131 1.067-.953 1.239-.954.082 0 .264-.128.403-.284.139-.156.316-.284.394-.284.078 0 .141-.043.141-.095 0-.052.08-.095.178-.095a.44.44 0 0 0 .296-.142c.065-.078.167-.142.227-.142s.26-.146.445-.325c.344-.335 1.346-.905 1.59-.905.21 0 .856-.32.863-.427.005-.096.799-.615.94-.615.043 0 .148-.106.234-.237.147-.225.146-.236-.037-.236-.105 0-.191-.047-.191-.103 0-.067-.126-.082-.355-.044-.196.032-.781.099-1.302.147-2.254.21-2.388.23-3.36.464a11.26 11.26 0 0 1-1.78.236c-.537.023-1.027.082-1.09.131-.108.086-1.081.212-2.101.273-.26.015-.623.048-.805.074-.182.025-.587.07-.9.1a8.36 8.36 0 0 0-.899.132 4.258 4.258 0 0 1-.65.094c-.174.009-.39.054-.48.102-.09.048-.67.132-1.292.187-.62.055-1.384.138-1.696.186-.313.047-.952.09-1.42.094-.469.005-1.172.05-1.562.102-.39.05-1.073.088-1.515.083-.443-.005-.993.043-1.222.105-.23.063-.55.09-.712.059-.162-.03-.613-.007-1.003.053-.7.106-1.39.16-2.128.164-.74.004-3.126-.053-3.219-.077-.123-.032-1.715-.005-2.522.043-.345.02-.786-.007-.979-.06-.279-.077-.383-.068-.508.044-.136.123-.18.124-.34.007a.733.733 0 0 0-.359-.135c-.333 0-1.398-.633-1.398-.831 0-.055-.038-.114-.083-.132-.045-.017-.302-.357-.571-.754-.366-.541-.503-.84-.544-1.186-.082-.697.252-2.657.434-2.544.044.027.15-.056.233-.185.153-.233.862-.616 1.14-.616.082 0 .148-.036.148-.08 0-.044.115-.132.256-.196.24-.11.278-.092.611.269.196.212.411.384.478.382.067-.002.735-.08 1.483-.175 1.044-.131 1.381-.208 1.449-.328.048-.086.194-.156.324-.156s.365-.067.522-.148c.186-.096.43-.132.7-.102.32.035.462.004.627-.14.117-.102.274-.161.35-.133a.289.289 0 0 0 .258-.05c.068-.056.243-.117.39-.137.147-.02.29-.044.315-.056a1.97 1.97 0 0 1 .332-.039c.377-.023 1.383-.225 1.562-.314.078-.04.419-.084.757-.101.338-.016.658-.065.71-.107.052-.042.308-.12.568-.173.26-.054.644-.14.852-.194.208-.053.72-.124 1.136-.158.417-.033.94-.12 1.163-.193.223-.073.614-.133.868-.133s.658-.084.897-.186c.239-.103.498-.162.576-.132.078.03.313-.014.522-.098.21-.084.648-.152.975-.152.327 0 .638-.043.69-.096.102-.101 1.493-.394 1.738-.365a.75.75 0 0 0 .287-.034c.078-.029.64-.122 1.25-.207.61-.085 1.281-.216 1.493-.291.212-.075.446-.112.52-.084.074.029.376-.018.67-.103.331-.097.999-.169 1.752-.19.669-.018 1.272-.069 1.34-.112.108-.07.792-.206 1.874-.372.183-.028.417-.088.521-.133.104-.044.437-.103.74-.13.303-.026.605-.093.67-.147.18-.149 1.318-.386 2.318-.483.488-.047 1.084-.149 1.325-.226.241-.077.864-.167 1.385-.201a12.63 12.63 0 0 0 1.544-.195c.329-.074.758-.134.955-.134.196 0 .822-.084 1.39-.188.569-.103 1.26-.188 1.537-.19.277 0 .593-.049.703-.108.223-.119 1.326-.278 2.217-.32.32-.015.726-.072.9-.126.56-.174 1.873-.285 2.225-.187.222.06.368.057.45-.011.068-.056.48-.145.917-.198.437-.053 1.293-.162 1.9-.243.806-.107 1.158-.12 1.296-.046.143.077.222.07.322-.031.114-.114 1.556-.261 2.579-.264.104 0 .402-.038.662-.085.26-.046.9-.105 1.42-.131a90.27 90.27 0 0 0 2.32-.16c1.396-.116 1.59-.126 4.592-.25.937-.038 1.758-.104 1.824-.145.066-.042 1.259-.095 2.65-.119 2.597-.044 4.414-.095 6.195-.172 1.007-.044 1.274-.126 1.679-.514.196-.189.82-.08 1.085.19.272.277.816 1.142 1.031 1.641.168.389.548 1.745.584 2.083.01.104.054.267.096.363.112.253-.025 1.771-.181 2.01-.074.112-.32.29-.548.398-.228.107-.47.262-.539.345-.068.082-.178.15-.244.15s-.142.085-.169.19a.253.253 0 0 1-.236.189.45.45 0 0 0-.304.142c-.065.078-.181.142-.259.142-.077 0-.352.106-.611.236-.337.17-.699.255-1.268.298-.488.038-.839.111-.904.19-.058.07-.226.128-.374.128-.147 0-.503.061-.791.136-.288.075-.67.113-.85.083a1.46 1.46 0 0 0-.641.068c-.173.067-.975.154-1.782.195-2.4.122-3.329.19-3.929.284-.312.05-.717.105-.899.123a32.52 32.52 0 0 0-1.089.143c-.416.06-1.377.126-2.134.145-.757.02-1.552.083-1.766.14-.215.058-.866.114-1.447.125-.582.01-1.078.053-1.103.094-.025.04-.182.074-.348.075-.166 0-.36.038-.43.082-.07.045-.28.047-.467.006-.22-.05-.521-.03-.866.057a8.09 8.09 0 0 1-1.265.174 16.62 16.62 0 0 0-1.61.192c-.91.159-2.378.363-4.005.557-1.052.126-1.326.256-1.165.556.054.102.112.258.128.345.195 1.095.247 2.398.11 2.764-.05.13-.123.513-.163.852-.116.972-.228 1.546-.345 1.76-.06.109-.119.684-.13 1.278-.021.967-.051 1.137-.29 1.622-.146.297-.266.602-.266.676 0 .382-1 1.854-1.26 1.858-.145.002-.726.495-.677.574.026.043-.091.24-.262.439-.396.461-.558.59-.743.594-.082.002-.249.11-.371.24-.123.13-.297.237-.389.237-.09 0-.25.106-.352.236-.103.132-.285.238-.409.238-.123.001-.33.062-.46.137-.13.074-.364.194-.52.268a1.436 1.436 0 0 0-.414.29c-.072.086-.193.156-.27.156-.236 0-.822.313-.998.534a.907.907 0 0 1-.443.27c-.152.033-.327.121-.39.196-.061.075-.168.136-.236.136-.068 0-.182.06-.255.131-.14.14-1.152.626-1.303.626-.157 0-1.167.515-1.339.682-.295.288-.677.437-1.905.746-.249.062-.475.15-.503.195-.027.045-.124.082-.214.082s-.315.077-.5.17c-.184.095-.651.226-1.037.291a17.15 17.15 0 0 0-1.067.214c-.2.053-.414.106-.473.12-.06.013-.45-.002-.868-.031zm13.19-15.58c.19-.131.42-.238.507-.238.088 0 .365-.191.617-.426s.628-.51.836-.613c.475-.234.71-.418.71-.557 0-.06.051-.097.113-.084.067.014.125-.124.145-.347.017-.203.1-.514.184-.69.083-.175.125-.345.094-.377-.102-.102-.671-.11-.854-.011-.17.09-.487.142-1.33.217a5.553 5.553 0 0 0-.766.133 3.776 3.776 0 0 1-.787.102c-.225.001-.492.047-.594.102-.19.102-1.15.23-2.492.333-.926.072-1.18.233-.813.517.13.1.313.183.405.185.093 0 .193.063.222.14.029.075.187.181.352.236.43.143 1.201.545 1.414.738.229.208 1.399.856 1.565.867.068.005.28-.098.471-.228zM27.21 103.845a1.512 1.512 0 0 1-.54-.314c-.12-.12-.256-.22-.302-.22-.045 0-.14-.106-.21-.236-.07-.13-.176-.237-.237-.237-.06 0-.192-.17-.292-.377-.1-.208-.212-.378-.251-.379-.04-.001-.071-.065-.071-.143 0-.218-.397-1.321-.488-1.357-.044-.017-.08-.241-.08-.497s-.043-.466-.095-.466c-.052 0-.095-.053-.095-.118s-.096-.231-.213-.37c-.65-.765-.733-.906-.792-1.341-.05-.363-.109-.475-.286-.542-.284-.108-.281-.195.013-.451.13-.113.237-.26.237-.328 0-.15.336-.447.505-.447.154 0 .453-.334.635-.71.076-.156.27-.424.433-.594.163-.17.432-.564.598-.876.166-.311.362-.566.436-.566.073 0 .204-.106.289-.236.085-.13.199-.237.252-.237.053 0 .195-.107.316-.237.12-.13.306-.236.413-.236.106 0 .194-.036.194-.078 0-.087 1.031-.585 1.211-.585.063 0 .114-.043.114-.095 0-.052.064-.095.142-.095.078 0 .142-.041.142-.092s.17-.18.379-.286c.208-.107.379-.24.379-.297 0-.06.1-.085.233-.06.129.025.212.01.184-.036-.027-.044.016-.08.098-.08.08 0 .149.053.15.118.002.065.046.044.1-.048a.372.372 0 0 1 .29-.165c.106 0 .426-.128.71-.284.293-.16.66-.284.844-.284.218 0 .325-.045.325-.135 0-.089.223-.185.658-.284.362-.082.705-.15.763-.15.059 0 .327-.103.597-.229 1.281-.599 1.621-.717 2.06-.717.25 0 .479-.038.507-.084.029-.046.213-.114.408-.15.196-.037.404-.106.461-.154.196-.161 1.207-.466 1.372-.414.09.029.192.008.225-.046.034-.055.165-.099.292-.099.127 0 .231-.043.231-.095 0-.052.172-.094.382-.094.21 0 .48-.065.6-.143.12-.079.392-.154.604-.166.212-.012.379-.063.37-.112-.02-.122 1.027-.414 1.519-.424.232-.004.43-.062.473-.138.042-.072.246-.152.455-.176.664-.08 1.984-.37 2.092-.459.057-.047.323-.097.591-.11.268-.013.487-.045.488-.072.001-.122.629-.305 1.048-.305.257 0 .467-.034.467-.075 0-.042.166-.104.37-.138.203-.035.448-.122.544-.195a.772.772 0 0 1 .388-.135c.117-.002.213-.046.213-.098 0-.052.168-.095.373-.095s.4-.042.431-.094c.033-.052.203-.095.38-.095s.568-.065.87-.144c.302-.08.74-.15.975-.155.234-.005.592-.068.794-.14.202-.071.65-.154.994-.184.345-.03.667-.093.716-.142.05-.048.19-.087.311-.087a.965.965 0 0 0 .443-.145c.122-.08.45-.17.73-.202.28-.031.585-.123.678-.204.093-.08.39-.181.663-.224l.778-.123a8.32 8.32 0 0 0 .757-.178c.26-.074.857-.207 1.326-.296.468-.09 1.022-.201 1.23-.249.209-.048.834-.147 1.391-.222.557-.074 1.144-.202 1.305-.286.16-.083.578-.174.928-.203.35-.03.776-.115.945-.19.17-.077.353-.112.407-.078.054.033.149.02.212-.03s.412-.142.777-.205c.364-.064.945-.177 1.29-.253.346-.076.666-.128.71-.116.046.012.21-.008.367-.043.243-.055 1.513-.178 3.197-.31.249-.019.61-.074.805-.123a16.29 16.29 0 0 1 1.3-.21c.52-.067.976-.165 1.012-.22.036-.053.377-.128.757-.165.38-.037.817-.087.969-.11.274-.042.562-.31.478-.446-.024-.039.021-.124.1-.189.184-.153.999-.05 1.143.145.058.078.147.141.197.141.05 0 .195.111.32.247.22.235.626.463.771.433.037-.008.045.045.017.118-.03.08.032.158.16.2.2.062 1.762 1.592 2.596 2.54a3.9 3.9 0 0 1 .568.884c.104.25.23.519.281.597.05.077.105.225.121.328.016.104.07.23.121.28.051.05.092.185.092.298 0 .113.058.35.127.525.173.434.068 1.804-.157 2.052-.087.097-.159.226-.159.287 0 .258-.671.848-1.084.952-.486.122-2.136.132-1.756.01.265-.084.307-.074-.71-.166-.784-.072-2.724-.01-3.22.102-.103.024-.465.072-.804.109a7.77 7.77 0 0 0-.994.17 4.986 4.986 0 0 1-.584.129c-.114.013-.403.09-.643.171-.24.082-.65.149-.91.149s-.57.063-.69.141c-.119.078-.545.17-.946.204-.402.034-.753.098-.78.142-.027.044-.22.08-.428.08a1.73 1.73 0 0 0-.668.15c-.2.104-.32.12-.388.053-.067-.067-.185-.053-.378.047-.154.08-.252.1-.218.044.07-.113-.492-.036-.657.09-.052.04-.329.1-.615.134-.719.086-1.08.13-1.136.14-.026.005.016.054.094.11.108.076.056.088-.211.051a1.799 1.799 0 0 0-.663.05c-.17.053-.373.108-.451.122a3.46 3.46 0 0 0-.52.195c-.209.093-.55.18-.76.194-.208.013-.609.112-.89.218-.28.107-.545.173-.588.146-.043-.026-.154-.007-.246.042s-.413.115-.713.147c-.3.032-.734.123-.966.201-.377.129-.882.22-1.423.256-.105.008-.214.049-.244.093-.03.043-.321.122-.646.174-.325.053-.913.2-1.307.329-.393.128-.84.233-.993.233-.152 0-.252.04-.222.09.03.05-.105.115-.302.145-.766.117-1.881.37-2.062.467a1.07 1.07 0 0 1-.284.112 1.377 1.377 0 0 0-.236.057c-.128.044-.622.175-1.752.466a9.67 9.67 0 0 1-.71.15c-.181.03-.416.106-.52.17-.104.063-.445.166-.758.228-.312.063-.653.15-.757.194a5.87 5.87 0 0 1-.758.194 4.996 4.996 0 0 0-1.025.34c-.252.126-.517.228-.59.228-.072 0-.37.106-.664.236-.294.13-.574.211-.623.18-.048-.03-.19.013-.314.094s-.403.176-.62.211c-.216.035-.414.118-.44.186a.135.135 0 0 1-.177.072c-.071-.027-.226.018-.344.101a.861.861 0 0 1-.404.15c-.258 0-1 .291-1 .392 0 .045-.237.082-.526.082-.327 0-.504.036-.468.095.032.052-.033.094-.145.094a.252.252 0 0 0-.255.195c-.03.114-.104.174-.178.146-.17-.065-1.754.284-1.827.402-.064.103-1.153.488-1.382.488a.237.237 0 0 0-.203.144c-.03.079-.103.135-.163.125-.203-.036-1.196.218-1.196.306 0 .048-.065.088-.145.088-.08 0-.398.106-.707.237-.31.13-.68.236-.822.236-.22 0-1.4.51-1.545.667-.122.133-.752.441-1.136.556-.234.07-.56.186-.724.257-.164.071-.39.13-.503.13-.292 0-1.116.37-1.177.53-.028.072-.133.132-.232.132-.1 0-.234.064-.299.142a.43.43 0 0 1-.287.142c-.094 0-.29.128-.438.284-.148.157-.316.284-.375.284-.06 0-.16.065-.226.144-.122.146-.807.484-1.23.607-.13.037-.381.025-.557-.027zM63.46 74.4c-.786-.122-.947-.19-.947-.399 0-.078-.042-.116-.094-.083-.057.034-.095-.078-.095-.279 0-.185.041-.337.092-.337.05 0 .067-.063.037-.14-.035-.094.052-.199.257-.308a2.59 2.59 0 0 0 .507-.364c.107-.108.27-.223.361-.257.091-.034.166-.148.166-.253 0-.106.06-.193.132-.193.072 0 .156-.064.187-.143.03-.079.162-.184.294-.234.131-.05.239-.156.239-.236 0-.08.046-.144.101-.144.2 0 .036-.427-.208-.543-.137-.066-.617-.134-1.067-.152-.68-.028-.855-.068-1.035-.237a.806.806 0 0 0-.467-.204c-.389 0-2.04-.473-2.294-.658-.052-.037-.34-.12-.64-.185-.299-.065-.544-.155-.544-.202 0-.046-.17-.13-.378-.186-.22-.059-.38-.16-.38-.238 0-.076-.116-.163-.26-.195a11.894 11.894 0 0 1-.428-.104c-.223-.06-.92-.52-.92-.606 0-.037-.109-.094-.241-.128-.132-.033-.215-.101-.184-.152.031-.05-.03-.092-.138-.092-.107 0-.458-.213-.781-.473-.324-.26-.62-.473-.66-.473-.04 0-.213-.128-.384-.285a18.854 18.854 0 0 0-.722-.615c-.226-.182-.38-.331-.343-.331.037 0-.107-.181-.32-.403-.764-.79-1.15-1.248-1.15-1.362 0-.063-.058-.173-.129-.243-.07-.07-.273-.404-.45-.74-.176-.338-.374-.67-.44-.738-.064-.07-.118-.162-.118-.206 0-.044-.1-.201-.221-.348-.284-.342-.693-1.448-.775-2.09-.035-.274-.097-.497-.138-.497-.041 0-.098-.118-.127-.26-.161-.802-.239-1.076-.34-1.197-.078-.095-.092-.387-.046-.994.045-.6.032-.898-.046-.991-.072-.087-.096-.407-.07-.923.02-.435 0-.89-.046-1.013-.056-.147-.036-.432.057-.837.079-.337.143-.821.143-1.076 0-.254.042-.488.094-.52.052-.032.09-.28.086-.55-.005-.27.064-.66.153-.868.088-.207.195-.622.238-.922.042-.3.144-.614.226-.696a.53.53 0 0 0 .15-.313c0-.206.213-.673.307-.674.04 0 .071-.278.071-.616 0-.484.03-.615.142-.615a.14.14 0 0 0 .142-.139c0-.076.078-.18.173-.231.095-.05.224-.265.288-.477.063-.211.156-.384.206-.384.05 0 .09-.1.09-.223 0-.342.194-.819.333-.819.071 0 .152-.16.188-.378.036-.208.103-.379.15-.379.048 0 .087-.05.087-.11 0-.062.234-.34.52-.62.3-.292.521-.592.521-.704 0-.108.107-.28.237-.382.13-.102.237-.241.237-.31 0-.067.064-.176.142-.24.114-.096.144-.093.153.011.006.072.039.002.072-.154.033-.156.114-.29.178-.296.065-.006.16-.017.212-.023.052-.007.095-.119.095-.249s.048-.237.108-.237c.13 0 .314-.225.518-.639.084-.169.182-.307.219-.307.154 0 .67-.516.67-.67 0-.093.087-.197.194-.231a.534.534 0 0 0 .283-.292.641.641 0 0 1 .327-.322.634.634 0 0 0 .326-.316c.047-.123.248-.322.448-.441.201-.12.31-.235.244-.258-.165-.059-.148-.216.024-.216.078 0 .142-.059.142-.13 0-.073.106-.202.237-.287.149-.098.236-.115.236-.047 0 .098.502-.285 1.004-.765.11-.105.292-.19.406-.19.113 0 .233-.072.266-.16.078-.201.378-.504.502-.504.052 0 .094-.066.094-.147 0-.083.183-.228.422-.334.231-.102.511-.313.621-.468.11-.155.262-.281.337-.281.074 0 .135-.043.135-.095 0-.052.107-.095.237-.095s.237-.046.237-.103c0-.146.586-.749.727-.749.067 0 .095-.062.064-.142-.034-.088 0-.142.09-.142.08 0 .237-.115.348-.256.17-.216.23-.239.377-.146.148.092.2.072.328-.123.084-.128.213-.232.286-.232.074 0 .147-.11.164-.244.03-.253-.014-.23 1.486-.773.239-.086.435-.224.461-.324.045-.173.786-.456 1.2-.46.237-.002.352-.079.49-.33.058-.103.187-.193.286-.198.319-.018.793-.318.793-.503 0-.116.142-.243.408-.369.224-.105.463-.259.532-.341.069-.083.184-.15.256-.15.073 0 .387-.071.699-.158.496-.138.567-.187.567-.39s.019-.217.152-.107c.13.108.172.1.284-.054.072-.099.132-.219.132-.266 0-.048.07-.06.155-.028.085.033.256-.006.379-.086.157-.103.223-.113.223-.032 0 .063.085.023.19-.088.103-.112.189-.244.189-.292 0-.105 1.154-.582 1.406-.582.095 0 .218-.1.274-.222.068-.15.243-.262.536-.344.239-.067.435-.174.435-.238 0-.072.206-.138.544-.172.423-.044.59-.11.75-.295.135-.156.223-.199.254-.123.034.085.074.078.148-.026.091-.127.114-.127.204 0 .077.107.114.112.15.023.027-.065.12-.118.207-.118s.212-.085.277-.19c.09-.144.22-.189.548-.189.236 0 .566-.07.732-.156.275-.142.285-.163.114-.225-.153-.056-.117-.083.187-.143.207-.04.434-.13.504-.2a.497.497 0 0 1 .305-.128c.097 0 .33-.09.516-.2.186-.11.42-.178.52-.152.183.048 1.083-.331 1.188-.501.032-.052.215-.099.407-.105.343-.01.344-.012.066-.073-.333-.072-.244-.148.284-.242.208-.038.527-.16.71-.272a1.93 1.93 0 0 1 .748-.23c.252-.017.462-.09.531-.183.068-.093.177-.13.272-.094.111.042.191-.011.267-.177.061-.134.135-.195.17-.138.037.061.167.008.338-.14.212-.182.383-.238.727-.238.254 0 .45-.044.45-.1 0-.056.074-.094.165-.085.32.033.41-.006.495-.218.076-.19.086-.192.091-.028.005.143.031.16.12.07a.461.461 0 0 1 .284-.113c.094 0 .16-.05.147-.112-.03-.141.363-.341.787-.4.846-.12 1.687-.382 1.728-.54.03-.114.183-.184.503-.23.254-.037.546-.112.65-.167a1.1 1.1 0 0 1 .486-.08c.192.012.316-.032.352-.125.03-.08.135-.145.231-.145.33 0 1.065-.302 1.158-.477.07-.132.253-.19.759-.24.482-.047.69-.11.752-.226.061-.115.323-.196.92-.286.458-.07.885-.165.947-.214.063-.048.16-.06.214-.026.086.053.675-.101 1.66-.435a3.24 3.24 0 0 1 .49-.123.74.74 0 0 0 .362-.184.573.573 0 0 1 .345-.155.543.543 0 0 0 .332-.142.643.643 0 0 1 .395-.143c.14 0 .369-.06.51-.134.14-.073.267-.094.283-.046.016.048.327.006.692-.092a14.61 14.61 0 0 1 1.041-.244c.208-.035.561-.126.784-.2.223-.074.515-.135.648-.135.134 0 .356-.079.494-.174.573-.396 2.19-.572 2.407-.262.05.07.114.05.202-.064.18-.235 1.004-.428 1.586-.372.404.038.512.015.62-.132.112-.154.143-.16.218-.038.076.124.102.122.209-.013.122-.154.544-.29.856-.275.487.023.633.01 1.088-.095.302-.07.497-.166.497-.245 0-.152.02-.153.536-.034.3.07.475.058.727-.048.188-.078.791-.16 1.39-.19.583-.027 1.13-.087 1.215-.132.086-.045.752-.105 1.481-.134.73-.029 1.396-.08 1.482-.112.086-.033.184-.015.219.041.095.154.268.12.206-.04-.072-.188.292-.276.814-.197.222.034.943.085 1.601.114 1.128.05 1.21.042 1.397-.145.265-.266.539-.251.729.04.148.225.187.234.76.175.424-.043.603-.03.603.046 0 .06.147.108.331.108.183 0 .332-.042.332-.095 0-.052.064-.094.142-.094.078 0 .142-.043.142-.095 0-.124.382-.12.894.009.306.077.464.075.619-.008.236-.126.717.02.922.279.102.13.115.128.118-.02.003-.185.156-.225.213-.055.024.072.107.05.244-.068.224-.192.96-.206 1.074-.02.076.123 1.426.005 1.51-.132.082-.131 2.196.05 2.244.192.02.06.085.077.146.04.15-.095 1.294-.115 1.294-.023 0 .04.154.025.342-.033.3-.092.36-.082.486.08.12.154.134.157.087.02-.044-.128-.005-.166.17-.166.126 0 .251.036.278.08.028.044.727.109 1.556.144 1.584.068 2.836.253 2.949.436.042.07.432.113 1.08.12.559.007 1.037.048 1.063.09.026.042.127.035.223-.017.113-.06.188-.061.208-.002.017.05.287.1.599.11.312.01.653.063.757.117.34.177 1.41.432 1.847.439.468.007 1.159.173 1.49.359.118.065.214.096.214.07 0-.028.16.011.355.087.195.076.461.154.591.173.13.019.365.089.521.155.749.318.874.364 1.16.427.168.037.33.106.36.154.029.048.136.088.237.088.101 0 .184.037.184.082 0 .046.298.18.663.296.364.118.662.244.662.282 0 .038.171.145.38.24.208.093.424.225.48.292.055.066.225.148.378.182.154.034.26.092.237.129-.023.037.179.17.449.295.27.125.654.389.853.587.2.198.385.36.413.36.133 0 1.321.863 1.426 1.035.066.108.153.196.194.196.12 0 1.603 1.447 1.715 1.674.152.306.125.84-.049.985-.147.122-.546.142-1.127.058a9.139 9.139 0 0 0-.432-.054c-.082-.006-.295-.144-.474-.305-.178-.16-.57-.465-.869-.676-.3-.211-.544-.42-.544-.465 0-.045-.079-.081-.175-.081-.096 0-.298-.11-.45-.243a4.274 4.274 0 0 0-.7-.465 3.515 3.515 0 0 1-.636-.42c-.115-.108-.269-.197-.342-.197-.073 0-.235-.078-.359-.172a2.703 2.703 0 0 0-.557-.3c-.412-.157-1.983-.922-2.122-1.033a1.16 1.16 0 0 0-.34-.144c-.673-.177-1.006-.298-1.119-.408a.589.589 0 0 0-.356-.12c-.127 0-.411-.08-.632-.177-.22-.097-.806-.27-1.3-.385a14.82 14.82 0 0 1-1.042-.269 1.145 1.145 0 0 0-.237-.07l-.734-.084c-.351-.04-.639-.109-.639-.154 0-.044-.074-.083-.165-.085a20.583 20.583 0 0 1-.734-.051 70.01 70.01 0 0 0-1.752-.105c-.65-.032-1.234-.1-1.296-.151-.071-.059-.808-.075-1.967-.044-1.293.034-1.835.019-1.792-.051.068-.11-.918-.035-1.43.108-.156.044-.859.108-1.562.142-.703.034-1.427.08-1.61.104-.433.056-1.13.12-1.889.175-.336.024-.698.084-.804.132-.331.152-1.313.301-1.975.301-.348 0-.633.036-.633.08 0 .124-3.668.586-5.076.638-.37.014-.84.067-1.041.118-.203.051-.595.12-.873.154-.278.033-.577.098-.663.143-.175.091-2.432.394-2.95.395-.183 0-.545.039-.805.085-.26.046-.73.105-1.042.132a7.92 7.92 0 0 0-.993.151 4.616 4.616 0 0 1-.875.107c-.248.002-.451.042-.451.09 0 .046-.121.085-.27.085-.147 0-.499.079-.78.175a6.72 6.72 0 0 1-.986.246c-.26.038-.52.108-.576.155-.056.046-.439.13-.85.188-.41.057-.832.15-.938.208-.105.057-.554.156-.996.22-.443.062-.954.157-1.137.21a40.25 40.25 0 0 1-1.136.298c-.442.11-.935.242-1.095.292-.16.05-.362.09-.45.09-.087 0-.159.035-.159.077 0 .134-.811.474-1.288.54-.498.067-1.619.408-2.565.78-.323.127-.631.203-.686.169-.055-.034-.1-.021-.1.028 0 .05-.151.118-.336.153-.185.035-.413.14-.507.233-.093.093-.34.197-.55.23-.21.034-.568.146-.796.25-.228.103-.506.188-.617.19-.112 0-.225.06-.252.13-.028.072-.26.157-.522.192-.283.037-.493.118-.526.202-.03.077-.143.14-.252.14-.11 0-.29.05-.4.109-.196.104-.912.321-1.386.42-.321.068-.578.217-.578.338 0 .058-.088.08-.205.048-.125-.032-.246.001-.308.085a.606.606 0 0 1-.328.182.977.977 0 0 0-.379.173 2.024 2.024 0 0 1-.484.252c-.557.206-1.654.704-1.704.773-.07.094-1.06.46-1.247.46-.086 0-.278.062-.426.137-.255.13-.555.257-1.235.522-.167.066-.354.179-.414.251a.472.472 0 0 1-.323.132.485.485 0 0 0-.331.142.433.433 0 0 1-.29.142c-.095 0-.199.043-.23.095-.033.052-.227.094-.432.094-.206 0-.373.039-.373.086 0 .047-.118.132-.26.19-.144.056-.41.194-.593.305-.612.373-1.393.744-1.69.804-.161.032-.342.117-.402.189s-.158.13-.219.13c-.06 0-.273.084-.473.186-.2.101-.592.232-.872.29-.28.058-.51.146-.51.194 0 .048-.083.088-.185.088-.103 0-.23.083-.285.185-.058.107-.248.213-.451.251-.193.037-.409.124-.479.194a.45.45 0 0 1-.265.127c-.075 0-.489.164-.918.365-.43.2-.94.416-1.133.48-.193.064-.376.155-.406.204-.03.048-.117.087-.195.087-.077 0-.255.107-.395.237s-.316.237-.39.237c-.075 0-.45.149-.833.331-.384.182-.806.332-.938.332-.279 0-.62.161-.728.345-.042.07-.123.128-.18.128-.056 0-.15.059-.208.13-.057.072-.296.197-.53.279-.933.324-1.279.46-1.325.521-.027.035-.25.17-.498.299-.248.129-.45.267-.45.307 0 .04-.106.073-.237.073-.229 0-.309.05-.843.53-.137.123-.27.224-.295.226a4.075 4.075 0 0 1-.136.002c-.05 0-.175.09-.277.2-.102.109-.232.17-.288.135-.057-.035-.128.003-.16.085a.238.238 0 0 1-.203.148c-.168 0-.767.43-.95.682a.49.49 0 0 1-.356.17c-.127 0-.231.038-.231.084 0 .047-.192.185-.426.308-.234.123-.415.255-.403.295.013.039-.11.145-.273.236-.605.336-1.888 1.243-2.13 1.505a2.777 2.777 0 0 0-.354.475c-.058.113-.26.257-.448.32-.243.08-.307.135-.217.19.094.06.067.102-.107.172-.129.05-.46.309-.736.573-.276.265-.526.48-.555.48-.117 0-.789.767-.789.9a.14.14 0 0 1-.139.142c-.076 0-.184.085-.24.19-.055.104-.174.192-.263.196-.135.005-.13.02.027.088.11.047.133.084.055.088-.146.007-.67.554-.67.7 0 .077-.311.452-1.01 1.217-.08.087-.118.204-.084.26.035.056.002.101-.074.101-.075 0-.215.118-.31.26-.17.255-.19.302-.215.498-.007.053-.116.186-.244.297a1.04 1.04 0 0 0-.292.474c-.032.149-.199.474-.37.723-.17.248-.342.556-.38.685a2.18 2.18 0 0 1-.203.445c-.3.474-.579 1.044-.698 1.423-.07.221-.158.402-.195.402-.06 0-.197.561-.232.947a1.049 1.049 0 0 1-.078.284c-.24.523-.57 1.642-.607 2.06-.024.273-.083.496-.13.496-.102 0-.085 2.924.017 2.988.039.023.1.224.136.445.07.43.57 1.154 1.109 1.609.73.615.912.735.97.641.078-.126.238-.125.238.002 0 .221.438.574 1.106.892.166.078.329.187.362.24.033.054.1.074.148.044.049-.03.089-.011.089.044 0 .054.106.125.236.158.13.032.237.118.237.19 0 .073.085.132.19.132.103 0 .189.043.189.095 0 .052.058.095.129.095.07 0 .234.082.362.183.129.101.356.214.505.252.149.037.359.161.466.276.107.114.354.26.548.323.195.064.378.155.408.204.03.048.137.087.238.087.101 0 .184.043.184.095 0 .052.057.095.127.095s.2.08.288.178c.089.097.519.353.956.568.437.214.821.432.854.485.032.052.142.094.245.094.103 0 .211.064.241.142.03.078.114.142.186.142.073 0 .132.043.132.095 0 .052.065.095.144.095.08 0 .33.17.555.378.226.209.452.38.502.38.05 0 .208.146.352.326.143.18.348.355.454.39.315.099 1.023.99 1.023 1.286 0 .084.365.645.483.743.032.026.087.206.122.4.036.194.191.592.345.885.155.293.28.616.28.717 0 .102.07.319.155.483.216.417.128 1.66-.132 1.87-.099.08-.162.196-.141.258.02.062-.168.21-.42.327-.25.117-.52.283-.597.369-.079.086-.292.213-.474.283-.182.07-.384.18-.45.243-.12.118-1.032.413-1.274.413-.073 0-.216.063-.317.14-.21.157-.146.157-1.083.011zm1.373-44.932c.032-.052.013-.094-.042-.094s-.1.042-.1.094.019.095.041.095c.023 0 .069-.043.1-.095zm67.502-18.934c.033-.054-.046-.095-.184-.095-.133 0-.242.043-.242.095 0 .052.083.094.184.094.1 0 .21-.042.242-.094z" style="fill:#000;stroke-width:.0946733"/>
</svg>
