<svg xmlns="http://www.w3.org/2000/svg" xml:space="preserve" width="210mm" height="297mm" viewBox="0 0 210 297">
  <path d="M69.644 260.496c0-.085-.122-.101-.467-.06-.257.03-.535.02-.617-.025-.131-.07-.628-.112-2.743-.233-.275-.015-.572-.057-.66-.092-.104-.042-.177-.014-.214.082-.03.081-.102.117-.16.08-.057-.035-.555-.116-1.106-.18-1.266-.145-1.595-.2-1.822-.306-.1-.046-.818-.1-1.595-.12-1.34-.034-1.688-.077-3.106-.386a7.383 7.383 0 0 0-1.39-.117c-.434.007-.84-.027-.902-.077-.062-.049-.277-.115-.478-.147l-.908-.144c-.328-.052-.583-.053-.643-.002-.063.052-.173.032-.295-.053-.116-.081-.416-.139-.746-.144-.304-.005-.575-.044-.602-.089-.028-.044-.299-.08-.603-.08-.484 0-.538-.018-.437-.14.17-.204.034-.275-.245-.127-.167.09-.253.098-.276.029-.019-.055-.137-.081-.263-.057-.152.03-.268-.01-.347-.118-.097-.133-.198-.152-.543-.105-.324.045-.423.03-.423-.065 0-.136-.328-.225-1.088-.297-.273-.025-.58-.104-.681-.176a.853.853 0 0 0-.417-.129.857.857 0 0 1-.413-.123 1.627 1.627 0 0 0-.453-.188.899.899 0 0 1-.43-.264c-.087-.11-.159-.15-.16-.09-.001.079-.087.068-.298-.035l-.615-.302a3.007 3.007 0 0 0-.651-.218c-.183-.033-.38-.118-.44-.189-.058-.07-.236-.156-.396-.19-.16-.035-.31-.09-.335-.12a1.148 1.148 0 0 0-.228-.163c-.1-.058-.172-.15-.16-.205.013-.055-.018-.1-.068-.1s-.09.042-.09.092c0 .15-.133.106-.556-.18-.22-.15-.467-.273-.547-.274-.08-.001-.217-.081-.305-.179a.945.945 0 0 0-.427-.235c-.147-.033-.356-.178-.463-.324-.108-.146-.248-.266-.31-.266s-.31-.205-.552-.455c-.242-.25-.489-.455-.55-.455-.06 0-.314-.182-.563-.403-.25-.22-.538-.428-.641-.461-.104-.033-.188-.102-.188-.154 0-.123-1.679-1.807-1.801-1.807-.052 0-.136-.12-.187-.266-.051-.147-.174-.31-.272-.362a.553.553 0 0 1-.234-.303c-.03-.114-.22-.328-.42-.475-.2-.147-.345-.285-.323-.307.073-.074-.31-.732-.506-.87a1.275 1.275 0 0 1-.32-.37c-.312-.575-.363-.66-.492-.814a4.504 4.504 0 0 0-.296-.313c-.088-.083-.16-.2-.16-.26 0-.061-.058-.17-.13-.24-.148-.149-.599-1.052-.599-1.2 0-.054-.102-.208-.227-.343-.126-.135-.228-.285-.228-.333 0-.049-.043-.102-.096-.12-.053-.018-.106-.1-.118-.182-.027-.185-.34-.805-.485-.96-.058-.063-.157-.269-.218-.457a2.218 2.218 0 0 0-.28-.56c-.094-.12-.17-.268-.17-.33 0-.063-.061-.165-.136-.227-.075-.063-.137-.176-.137-.252 0-.076-.086-.327-.192-.558l-.338-.739a4.764 4.764 0 0 0-.315-.569c-.093-.137-.14-.295-.106-.35.034-.055-.025-.218-.131-.361-.106-.144-.193-.324-.193-.401 0-.078-.04-.14-.088-.14-.048 0-.136-.165-.196-.365-.06-.2-.14-.365-.178-.365-.038 0-.097-.164-.13-.364-.034-.2-.092-.364-.13-.364-.037 0-.161-.298-.276-.66-.257-.818-.929-2.328-1.169-2.63a.893.893 0 0 1-.15-.324c-.057-.294-.323-.879-.477-1.049a.418.418 0 0 1-.096-.345c.027-.102.01-.208-.034-.236-.046-.028-.167-.244-.27-.478-.104-.235-.244-.55-.313-.701-.324-.712-.498-1.139-.553-1.356-.033-.131-.088-.238-.123-.238-.034 0-.117-.154-.183-.342-.066-.188-.314-.69-.552-1.116-.237-.426-.463-.877-.5-1.002-.068-.223-.414-.912-.504-1.002a3.098 3.098 0 0 1-.215-.41c-.16-.344-.33-.677-.552-1.093a2.673 2.673 0 0 0-.212-.326.863.863 0 0 1-.134-.393c-.01-.137-.073-.293-.137-.346a.339.339 0 0 1-.116-.222c0-.069-.033-.125-.073-.125-.04 0-.146-.201-.234-.447a9.645 9.645 0 0 0-.428-.962c-.147-.283-.267-.621-.267-.75 0-.133-.134-.4-.305-.61a2.795 2.795 0 0 1-.424-.739 2.299 2.299 0 0 0-.282-.575c-.09-.116-.14-.27-.113-.341.027-.072.005-.131-.05-.131-.056 0-.102-.063-.102-.14 0-.078-.082-.301-.182-.498-.1-.196-.182-.459-.182-.583 0-.124-.044-.253-.097-.286-.11-.068-.265-.435-.325-.77a1.418 1.418 0 0 0-.22-.475c-.097-.136-.178-.308-.178-.382 0-.074-.036-.157-.08-.185-.078-.048-.166-.388-.225-.872a2.373 2.373 0 0 0-.172-.546c-.271-.6-.612-1.776-.699-2.415-.112-.816-.292-1.531-.407-1.61-.05-.033-.099-.217-.11-.41a2.385 2.385 0 0 0-.128-.621 3.066 3.066 0 0 1-.153-.638c-.023-.2-.106-.672-.183-1.048-.194-.939-.287-1.77-.233-2.056.026-.135 0-.27-.062-.308-.07-.043-.126-.517-.162-1.38-.157-3.838-.172-4.42-.116-4.546.034-.075.028-.71-.013-1.412-.048-.814-.041-1.4.017-1.62.051-.188.134-.844.184-1.457.2-2.433.259-2.96.4-3.573.359-1.553.435-1.925.427-2.095a.732.732 0 0 1 .112-.365c.066-.1.141-.326.166-.501.078-.539.419-1.751.52-1.853.054-.053.097-.192.097-.309 0-.117.057-.234.127-.261.077-.03.127-.181.127-.384 0-.522.061-.742.511-1.808.23-.546.42-1.039.42-1.095 0-.088.262-.747.683-1.715.16-.367.26-.785.236-.979-.01-.088.024-.16.077-.16s.097-.038.097-.085c0-.046.047-.2.105-.341.057-.141.119-.33.137-.421.017-.09.134-.316.259-.5s.227-.39.227-.458c0-.069.082-.229.183-.356.1-.127.182-.291.182-.364 0-.073.082-.237.182-.365.1-.127.182-.29.182-.362 0-.071.175-.466.389-.876.491-.944.887-1.815.887-1.954 0-.125.46-1.174.749-1.707.664-1.226 1.07-2.08 1.123-2.363.034-.178.099-.324.144-.324.046 0 .123-.105.172-.233.184-.485.577-1.225.65-1.225.042 0 .077-.056.077-.126s.2-.53.443-1.025c.244-.494.54-1.226.657-1.627.117-.401.307-.882.422-1.069.115-.187.209-.394.209-.46s.032-.159.072-.207c.04-.047.15-.332.247-.633.095-.3.246-.679.335-.84.229-.42.703-1.856.655-1.983-.023-.058.007-.226.065-.372.058-.147.117-.358.132-.47.036-.278.415-1.506.5-1.619.06-.08.194-.566.225-.82.006-.05.035-.152.063-.227.029-.075.095-.28.146-.456.212-.72.391-1.178.784-2.004.13-.275.323-.85.426-1.275.104-.426.248-.866.32-.977.07-.11.214-.415.316-.675.103-.261.261-.58.352-.71.142-.202.161-.39.137-1.352-.016-.615-.055-1.16-.087-1.211-.032-.052-.009-.153.052-.226.083-.1.085-.164.006-.259-.07-.084-.076-.198-.02-.347.047-.122.114-.465.15-.763.037-.297.104-.613.15-.703.092-.175.297-.118.227.064-.023.061.03.157.118.212.088.055.335.357.55.67.214.315.465.653.558.753.093.1.196.266.229.37.033.104.165.353.294.553.129.2.236.397.237.436.001.04.051.102.11.138.059.036.215.29.346.566.132.275.28.562.328.637.161.252.45.925.45 1.05 0 .068.04.149.09.18.05.03.09.166.09.301 0 .135.089.588.199 1.006.161.616.18.813.098 1.03a.738.738 0 0 0-.015.515c.067.19.045.329-.097.607-.101.198-.184.452-.184.564 0 .222-.087.468-.412 1.17-.117.25-.263.629-.324.842-.062.213-.147.387-.19.387-.041 0-.076.1-.076.22 0 .121-.03.234-.068.25-.115.052-.57 1.04-.57 1.238 0 .102-.058.208-.13.235-.07.028-.262.473-.425.99-.163.516-.35 1.004-.417 1.083a.509.509 0 0 0-.12.253c0 .11-.307 1.088-.447 1.425-.042.1-.126.367-.186.592-.109.402-.134.542-.244 1.366-.03.226-.086.451-.123.502-.038.05-.074.27-.08.488a3.346 3.346 0 0 1-.15.8c-.076.222-.138.474-.14.56a.697.697 0 0 1-.137.333.693.693 0 0 0-.133.344c0 .093-.06.26-.133.371-.073.112-.155.374-.18.583-.027.21-.107.537-.179.728a4.378 4.378 0 0 0-.182.645c-.028.164-.155.524-.281.8-.126.276-.23.575-.23.663 0 .09-.034.2-.076.248-.084.096-.379.866-.374.978.001.04-.08.178-.183.308-.102.13-.229.395-.28.59-.053.193-.135.352-.183.352-.049 0-.088.072-.088.16 0 .176-.501 1.26-.684 1.48-.062.075-.168.29-.234.478s-.15.341-.184.341-.089.113-.12.25c-.07.302-.213.622-.95 2.135-.308.635-.561 1.2-.561 1.255 0 .146-.526 1.165-.636 1.233-.05.032-.093.131-.093.222 0 .09-.094.303-.208.473a4.09 4.09 0 0 0-.337.627c-.07.176-.153.34-.185.365-.031.025-.129.23-.217.455a5.31 5.31 0 0 1-.427.813c-.146.221-.266.456-.266.52 0 .065-.11.314-.244.554-.424.757-.483.887-.484 1.06 0 .093-.101.36-.224.593-.123.232-.334.73-.47 1.106-.135.376-.301.716-.369.756a.296.296 0 0 0-.122.233.426.426 0 0 1-.103.262c-.056.057-.117.257-.134.444-.016.188-.193.816-.392 1.396-.368 1.071-.51 1.53-.648 2.102-.042.175-.143.585-.224.91-.08.327-.17.716-.2.866-.029.15-.082.315-.117.365-.078.108-.229.992-.405 2.368-.093.727-.122 1.865-.106 4.145.02 2.812.039 3.176.184 3.455.09.172.177.5.194.73.04.53.215 1.301.321 1.413.045.048.082.215.082.371s.057.486.127.733c.07.248.127.511.126.586 0 .155.35 1.203.518 1.55.061.124.203.493.316.819.113.326.24.674.281.774.042.1.126.408.187.684.061.275.147.524.19.553.087.056.428.901.51 1.262.027.122.148.367.27.545.127.188.178.337.121.356-.058.02-.025.132.082.283.098.138.285.575.416.971.13.397.317.895.414 1.107.097.213.177.446.177.519 0 .073.04.157.089.187.12.075.694 1.061.776 1.333.06.2.823 1.846 1.236 2.663.097.192.176.391.176.441 0 .05.084.209.186.353.103.143.27.519.373.834.103.315.245.637.315.716a.52.52 0 0 1 .128.285c0 .078.06.19.133.252.074.06.16.199.193.307.033.108.26.622.505 1.141.245.52.445.997.445 1.06 0 .063.061.165.136.227a.42.42 0 0 1 .137.285c0 .094.037.171.083.171.046 0 .111.164.145.364.035.207.113.365.18.365.065 0 .147.154.182.341.082.437.39 1.116.506 1.116.049 0 .088.06.088.133 0 .073.1.278.22.456s.291.552.38.833c.088.28.217.53.286.557.07.027.105.107.077.179-.027.071-.017.11.022.085.04-.024.188.268.33.65.142.381.336.777.43.879.096.102.256.452.356.778.101.326.26.676.354.777.094.102.216.354.27.56.055.206.203.526.328.711.126.186.29.468.363.628.073.16.17.352.217.427.045.075.179.341.296.592.118.25.235.476.26.501.053.051.245.402.712 1.298.176.338.355.615.397.615.042 0 .077.067.077.149 0 .16.356.788.475.838.04.017.072.082.072.145 0 .064.08.188.18.278.099.09.206.25.238.356.032.106.172.316.311.466.14.15.473.515.741.81.635.697 1.998 1.826 2.763 2.287.333.2.715.45.85.554.136.105.513.324.838.488l1.294.653c.385.195.746.355.8.355.054 0 .197.064.316.142.12.078.32.153.447.167a.794.794 0 0 1 .35.122c.245.2 1.9.715 2.533.788.325.038.91.262.91.349 0 .04.08.024.178-.037.145-.09.208-.083.349.045.094.086.192.135.218.11.025-.026.287.037.582.138.296.102.6.177.676.166.076-.009.374.033.662.096.287.062.596.09.685.062.09-.028.305-.006.479.05.174.057.727.138 1.228.182.5.044 1.013.093 1.138.109.126.016.618.06 1.094.096 1.672.129 2.412.197 3.022.279.26.034.448.02.484-.038a.115.115 0 0 1 .159-.034c.177.11 8.26.175 9.726.078.376-.025.86-.043 1.076-.041.644.006 2.233-.19 2.477-.307.15-.07.496-.09 1.002-.058 1 .064 2.659-.048 2.931-.197.262-.144.92-.248 2.177-.346.53-.04 1.05-.121 1.156-.178.247-.132.592-.13 1.044.005.283.085.374.084.43-.007.039-.063.25-.137.471-.165.22-.028.45-.09.51-.138.06-.047.286-.098.501-.112.215-.015.391-.035.391-.046 0-.011.144-.039.32-.06.481-.062 2.118-.385 3.142-.621a26.65 26.65 0 0 1 1.686-.326c.46-.068.877-.188 1.028-.293.14-.098.31-.156.38-.13.07.027.176-.01.236-.082.06-.072.218-.132.353-.132.134 0 .283-.034.33-.077.096-.086.974-.326 1.544-.424.2-.034.405-.088.455-.12a.462.462 0 0 1 .183-.062c.242-.013.683-.16.683-.226 0-.042.082-.054.182-.028.1.026.315-.014.478-.09.163-.076.543-.21.843-.297.301-.087.772-.23 1.048-.318s.87-.251 1.321-.362c.45-.112.934-.262 1.073-.333.14-.071.296-.103.347-.071.052.032.174-.014.272-.103a.878.878 0 0 1 .427-.186c.532-.055 1.549-.32 2.055-.537.291-.125.589-.227.661-.227.073 0 .306-.079.518-.175.399-.18.774-.315.933-.333.154-.018.448-.152.592-.269.075-.061.292-.14.483-.173.19-.034.62-.19.956-.345.336-.156.734-.314.884-.351.15-.037.622-.215 1.048-.394.426-.179.866-.326.979-.327.113-.001.205-.047.205-.103 0-.055.057-.079.126-.052.154.06 1.162-.306 1.332-.483a.25.25 0 0 1 .136-.055c.166-.015.909-.236 1.068-.32a8.5 8.5 0 0 1 .73-.276c.314-.107.622-.235.684-.284a.267.267 0 0 1 .233-.043c.066.026.282-.03.48-.123.197-.094.41-.171.473-.173.063-.002.289-.082.501-.178a5.34 5.34 0 0 1 .614-.236c.125-.034.412-.143.638-.243.225-.1.492-.216.592-.256.328-.132.81-.342 1.346-.583.29-.131.62-.238.735-.238a.668.668 0 0 0 .384-.162c.185-.17 1.034-.476 1.32-.476.092 0 .189-.035.215-.078.027-.043.368-.19.757-.327.39-.137 1.16-.465 1.711-.729 1.686-.807 1.83-.87 1.976-.87a.393.393 0 0 0 .256-.137.428.428 0 0 1 .289-.136c.165 0 .343-.077 1.214-.525.485-.25 1.131-.529 1.412-.611a7.09 7.09 0 0 0 .683-.274c.25-.113.64-.26.866-.325.225-.066.471-.167.546-.225.076-.058.301-.175.501-.261.2-.086.437-.196.525-.245a5.27 5.27 0 0 1 .593-.234c.237-.081.529-.224.648-.318.12-.094.274-.17.342-.17s.124-.042.124-.092c0-.05.054-.09.119-.09.167 0 .609-.215.61-.297 0-.038.062-.068.137-.068.075 0 .212-.076.304-.168a1.01 1.01 0 0 1 .342-.22c.327-.1 1.54-.616 1.872-.798.182-.1.41-.18.506-.18.097 0 .258-.078.36-.173.101-.094.32-.201.486-.237.31-.068 1.28-.501 1.483-.661.062-.05.35-.178.642-.285.29-.107.794-.338 1.118-.513.324-.175.668-.318.764-.318.096 0 .2-.041.23-.091.032-.05.16-.091.288-.091.127 0 .335-.082.462-.183.128-.1.288-.182.356-.182.069 0 .125-.034.125-.074 0-.042.205-.13.455-.2.25-.067.456-.151.456-.185s.184-.16.41-.28c.225-.12.41-.248.41-.286 0-.037.083-.068.185-.068.21 0 .865-.313.952-.454.032-.051.124-.093.206-.093.081 0 .233-.075.336-.166.103-.092.362-.217.575-.277.213-.061.387-.145.387-.187 0-.091 1.138-.645 1.325-.645.073 0 .133-.034.133-.076 0-.041.113-.133.25-.203.138-.07.431-.282.651-.471.22-.189.45-.343.51-.343.2 0 .724-.298 1.163-.662.433-.358 1.046-.796 1.114-.796.02 0 .17-.123.335-.273.165-.15.344-.273.398-.273.054 0 .26-.192.458-.425.198-.234.426-.49.507-.57.081-.08.22-.286.308-.459.088-.173.216-.37.285-.439a.49.49 0 0 0 .125-.3c0-.097.04-.176.09-.176.05 0 .092-.097.092-.217 0-.119.057-.264.127-.322.08-.065.15-.387.186-.854l.108-1.363a3.68 3.68 0 0 0-.095-1.193c-.136-.542-.134-.64.037-1.616.1-.572.182-1.196.183-1.388 0-.229.078-.449.228-.646.126-.164.228-.351.228-.415 0-.065.103-.403.229-.75.125-.35.203-.674.173-.723-.065-.105.13-.617.3-.792.195-.198.317-.477.268-.606-.076-.197.13-.736.4-1.053.138-.161.275-.449.306-.639.03-.19.158-.468.284-.617.194-.23.214-.31.135-.519-.077-.202-.07-.237.037-.196.096.037.22-.161.458-.727.179-.428.325-.83.325-.892 0-.063.102-.225.227-.36.125-.134.252-.355.282-.491.103-.464.347-1.067.459-1.136.235-.145.48-.684.586-1.286.083-.481.148-.637.28-.671.094-.025.17-.08.17-.125 0-.044.065-.08.144-.08.111 0 .14-.088.125-.388-.022-.451.112-.84.317-.919.08-.03.136-.087.126-.126-.045-.166.124-.745.247-.847a.453.453 0 0 0 .135-.31c0-.11.036-.237.08-.285.044-.047.129-.24.189-.428s.143-.342.185-.342c.041 0 .104-.215.139-.478.035-.263.141-.606.236-.762.095-.157.199-.485.23-.73.032-.244.104-.505.16-.58.242-.326.33-.568.33-.914 0-.262.059-.43.204-.575.113-.113.213-.306.221-.429.039-.53.09-.783.198-.978.142-.257.217-.924.263-2.34.02-.6.073-1.136.118-1.19.046-.055.059-.245.03-.423-.03-.185-.005-.413.06-.533.166-.31.132-6.415-.042-7.513-.023-.15-.084-.749-.134-1.33-.05-.58-.136-1.236-.19-1.457a9.93 9.93 0 0 1-.13-.584c-.016-.1-.037-.182-.048-.182-.03 0-.068-.384-.135-1.365a23.68 23.68 0 0 0-.232-1.913 31.175 31.175 0 0 1-.23-1.596 28.64 28.64 0 0 0-.194-1.412c-.231-1.41-.393-2.888-.395-3.6-.001-.375-.045-.826-.097-1.001-.052-.175-.101-.616-.11-.979-.008-.363-.048-.66-.088-.66-.04 0-.022-.083.04-.183.091-.145.091-.218 0-.364-.062-.1-.075-.182-.028-.182.053 0 .054-.112.001-.296-.12-.42-.108-1.162.02-1.162.072 0 .087-.16.05-.524-.05-.486.006-1.428.21-3.575.114-1.188.178-1.485.346-1.617.08-.063.11-.114.067-.114-.042 0-.017-.072.057-.16.094-.112.14-.427.154-1.067.012-.509.062-.933.115-.966.114-.07.273-1.234.206-1.507a.39.39 0 0 1 .11-.349c.089-.089.176-.352.2-.605.024-.246.082-.448.129-.448.046 0 .075-.072.063-.16-.02-.142.138-.564.397-1.064.05-.096.112-.517.138-.933.026-.417.083-.758.126-.758s.078-.164.078-.365c0-.2.036-.364.08-.364.045 0 .098-.394.119-.876.03-.689.071-.9.193-.99.085-.062.155-.16.155-.216 0-.058.034-.104.077-.104.042 0 .045-.195.007-.433-.076-.47.072-1.67.218-1.767.057-.038.051-.207-.016-.473-.17-.68-.097-1.51.152-1.698.137-.104.289-.676.194-.734-.051-.032-.11-.444-.131-.916a47.583 47.583 0 0 0-.135-1.905c-.092-.993-.106-1.213-.09-1.48.003-.063-.02-.36-.054-.66-.07-.635.104-2.244.252-2.335.07-.043.075-.21.018-.55-.045-.267-.077-1.092-.071-1.833.008-1.056.04-1.38.148-1.503.099-.114.151-.471.188-1.296.054-1.185.183-2.039.378-2.505.063-.15.188-.499.277-.774.09-.276.214-.563.276-.638.062-.075.14-.225.172-.333a.749.749 0 0 1 .193-.308c.073-.06.133-.167.133-.237 0-.07.112-.301.248-.513.136-.212.238-.417.227-.456-.011-.038.09-.112.223-.163a.9.9 0 0 0 .348-.234c.058-.08.198-.128.318-.11.213.03.214.038.238 1.443.024 1.461.132 2.294.303 2.35.055.019.1.093.1.166 0 .073.097.325.217.562.12.236.27.614.336.84.065.225.172.49.238.59a.76.76 0 0 1 .12.35c0 .093.082.274.182.401.1.127.182.326.182.441 0 .127.07.231.177.266a.38.38 0 0 1 .227.21c.027.086.176.212.33.28a.855.855 0 0 1 .387.364c.058.132.158.274.222.314.21.132.467.446.61.746.076.162.201.346.277.409.076.063.139.155.139.205 0 .05.185.354.41.678.227.324.389.626.36.672-.028.046.007.218.076.381.465 1.086.528 1.542.586 4.247.033 1.587.012 2.222-.099 2.87a25.057 25.057 0 0 0-.2 1.425c-.032.325-.12.786-.196 1.024-.076.237-.113.496-.083.576.031.079.007.233-.052.342-.06.11-.123.363-.141.563-.041.445-.448 2.03-.583 2.269a1.27 1.27 0 0 0-.126.364 33.65 33.65 0 0 1-.355 1.447c-.18.69-.326 1.369-.326 1.507 0 .139-.043.296-.096.349-.053.052-.112.22-.131.372-.02.152-.16.553-.314.891-.154.338-.28.656-.28.706 0 .05-.058.137-.13.193-.13.1-.391.915-.482 1.5-.033.217-.07.27-.126.183-.054-.086-.079-.043-.08.142 0 .234-.311 1.345-.688 2.467-.068.2-.152.528-.187.728-.035.2-.164.63-.286.955-.138.37-.202.687-.17.848.03.15 0 .34-.076.457-.07.11-.148.474-.172.808-.023.335-.07.651-.101.703-.044.07-.241 3.929-.241 4.702 0 .226.185 4.239.214 4.646.194 2.704.27 3.491.356 3.662.058.116.08.408.05.688-.029.287.002.685.076.971.088.339.098.536.034.656a.36.36 0 0 0-.009.331c.146.282.222 1.056.325 3.319.014.287.09.618.173.744.103.157.117.24.046.263-.078.026-.076.148.007.477.087.346.087.456 0 .51-.086.053-.084.219.008.757.065.379.094.864.065 1.079-.029.214-.025.656.007.982.052.518.067.552.114.273.048-.28.064-.245.128.296.06.507.046.656-.08.847-.086.132-.127.309-.095.41.034.106.015.178-.048.178-.058 0-.086.052-.063.114.022.063-.017.181-.088.263-.112.129-.11.168.019.296.126.126.131.197.037.482-.092.278-.087.35.025.432.262.192.336.721.32 2.285-.011 1.085.019 1.633.1 1.83.098.236.094.386-.026.9-.088.38-.111.658-.06.72.197.244.262.75.129 1.005-.073.139-.113.302-.09.363.024.06-.052.334-.169.607-.18.421-.204.6-.164 1.18.078 1.125-.211 2.55-.656 3.228-.111.17-.143.353-.11.644.03.267.006.439-.07.502-.063.053-.143.243-.177.422-.04.213-.121.342-.237.372-.2.052-.23.166-.062.245.09.042.09.063 0 .106a.22.22 0 0 0-.114.183.768.768 0 0 1-.082.289 4.393 4.393 0 0 0-.203.568c-.066.226-.162.46-.213.52l-.192.23a1.815 1.815 0 0 0-.204.425c-.06.17-.168.353-.241.409-.074.056-.195.337-.27.625-.073.288-.195.637-.27.775-.306.565-.694 1.422-.694 1.533 0 .065-.074.172-.164.238-.09.065-.218.252-.284.415-.066.163-.163.296-.216.296-.052 0-.069.026-.037.058.032.032-.023.16-.122.285-.098.126-.179.28-.179.342s-.062.165-.139.228a.28.28 0 0 0-.088.275c.028.088-.012.222-.089.3-.077.076-.14.166-.14.2 0 .033-.184.303-.41.6-.225.296-.41.606-.41.69 0 .083-.066.225-.148.315-.087.096-.15.32-.15.534 0 .202-.035.39-.078.417-.043.027-.079.106-.079.176 0 .07-.101.276-.225.46a2.114 2.114 0 0 0-.287.664c-.033.182-.101.358-.15.39-.053.035-.097.818-.108 1.913-.014 1.462-.046 1.908-.155 2.102-.112.2-.122.365-.053.865.107.775.041 2.741-.1 3.006-.063.117-.106.62-.106 1.23 0 1.128-.126 1.532-.615 1.972-.2.182-.22.242-.13.388.06.095.072.172.026.172-.045 0-.13.27-.187.6-.113.65-.194.828-.57 1.25-.136.153-.222.317-.191.367.03.05.008.06-.05.024s-.105-.02-.105.037c0 .056-.184.183-.41.282-.285.127-.426.251-.467.413-.057.228-.432.672-.568.672-.11 0-.56.498-.56.62 0 .06-.056.108-.125.108s-.179.065-.245.144c-.151.183-.938.584-1.152.588a.701.701 0 0 0-.34.137.736.736 0 0 1-.376.133.46.46 0 0 0-.313.138c-.087.105-.144.113-.24.034-.078-.065-.287-.083-.557-.048-.238.03-.49.02-.56-.025-.176-.112-.537.065-.611.3-.067.208-.793.968-.926.968-.047 0-.2.106-.339.235-.14.13-.392.258-.56.286-.168.027-.306.085-.306.128 0 .044-.08.08-.176.08-.098 0-.203.04-.234.09-.03.05-.173.092-.316.092-.144 0-.516.065-.827.145-.464.119-.58.123-.64.025-.058-.093-.088-.085-.135.037a.239.239 0 0 1-.445.001c-.052-.134-.075-.125-.17.069-.06.123-.241.286-.403.36-.165.078-.295.207-.296.297 0 .107-.074.16-.222.16-.12 0-.237.03-.258.068-.021.037-.027.021-.014-.037.017-.074-.138-.09-.533-.054-.533.049-.568.039-.791-.22-.21-.244-.277-.267-.666-.233-.238.021-.433.078-.433.127 0 .137-.244.348-.403.348-.203 0-.179.25.03.317.144.045.347.323.261.357a8.72 8.72 0 0 0-.298.16c-.15.083-.447.197-.66.254-.232.062-.387.157-.387.237 0 .073-.041.133-.092.133-.05 0-.09.06-.09.134 0 .074-.124.198-.274.276-.15.078-.273.1-.273.05s-.062-.066-.137-.037c-.075.028-.137.105-.137.17 0 .064-.056.138-.126.165-.087.033-.113-.003-.083-.118.067-.257-.28-.319-.68-.123-.304.148-.343.208-.368.553-.023.313-.062.388-.205.388-.098 0-.177-.038-.177-.084 0-.046-.152-.159-.337-.25-.415-.206-.497-.395-.172-.395.13 0 .235-.051.235-.114 0-.133-.9-.106-1.043.031a.418.418 0 0 1-.25.083c-.109 0-.165.07-.167.205a.604.604 0 0 1-.384.55c-.11.04-.16.158-.16.38 0 .178-.04.322-.091.322a.094.094 0 0 1-.091-.095c0-.059-.187-.085-.478-.069-.328.019-.471.064-.455.144.013.065-.097.14-.25.17-.151.03-.275.109-.275.174 0 .066-.082.146-.182.177-.1.032-.182.096-.182.143 0 .047-.077.085-.172.085-.167 0-.465.474-.466.743 0 .067-.103.17-.228.228-.126.058-.227.067-.227.02 0-.046-.123-.021-.273.056-.15.078-.303.139-.341.136-.038-.002-.093.129-.122.294-.042.237-.068.266-.124.14-.11-.246-.21-.191-.33.182-.143.445-.187.516-.256.411-.078-.118-.74-.216-.74-.109 0 .047.112.087.25.088.211.002.226.017.094.094-.086.05-.2.252-.253.448-.06.22-.164.377-.276.413-.099.031-.205.156-.235.278-.03.122-.095.222-.144.222-.048 0-.149.062-.224.137-.086.086-.219.116-.358.081-.18-.045-.221-.021-.221.132 0 .143-.077.203-.318.248-.175.033-.295.097-.267.143.068.109-.487.336-1.132.463-.283.056-.545.146-.582.2-.047.07-.067.068-.068-.004-.001-.058-.145-.121-.32-.142-.176-.02-.32-.005-.32.036 0 .04-.059.073-.13.073-.147 0-.28.165-.2.247.03.028.115 0 .192-.063.117-.097.139-.084.139.083 0 .11-.04.175-.087.146-.048-.03-.132.031-.188.135-.07.132-.155.172-.278.133-.135-.043-.176-.012-.176.133 0 .104-.06.188-.134.188-.073 0-.179.085-.234.19-.056.103-.156.168-.222.142-.067-.025-.197.01-.29.081-.092.07-.322.129-.51.13-.187.002-.341.042-.341.09 0 .047-.123.158-.273.247-.15.089-.274.214-.274.278 0 .065-.056.117-.124.117-.144 0-.932.301-1.485.567-.208.1-.419.158-.467.129-.048-.03-.197.047-.331.171-.134.125-.322.227-.417.227-.095 0-.283.102-.418.227-.136.126-.332.229-.438.23-.105 0-.371.103-.592.229-.233.133-.47.206-.569.175-.093-.03-.17-.014-.17.034 0 .05-.114.129-.255.178a1.28 1.28 0 0 0-.408.24c-.083.084-.36.177-.617.207-.264.032-.487.109-.514.179-.026.067-.15.123-.277.123-.127 0-.278.063-.335.141-.057.078-.285.183-.507.233-.423.095-.819.252-1.39.551-.188.098-.384.152-.437.12-.052-.032-.234.047-.404.177s-.404.225-.52.212c-.118-.012-.203.023-.192.08.019.102-.492.324-1.02.443-.15.034-.335.12-.41.19-.327.307-.73.596-.733.525 0-.042-.053-.01-.114.07-.094.123-.454.294-.612.29-.025-.001-.187.095-.36.212-.208.141-.335.18-.376.115-.044-.071-.079-.07-.123 0-.035.056-.142.102-.24.102-.097 0-.176.04-.176.09 0 .05-.092.092-.204.092-.112 0-.47.127-.797.283-.326.155-.696.33-.821.387-.126.057-.253.137-.283.178a.32.32 0 0 1-.182.095c-.07.011-.24.096-.38.188-.138.092-.445.188-.682.214-.238.026-.53.124-.65.217-.119.093-.29.169-.38.169-.091 0-.19.04-.222.09-.03.05-.16.092-.288.092-.17 0-.218.037-.18.137.041.107-.025.136-.309.136-.199 0-.362.041-.362.091 0 .05-.061.091-.136.091-.076 0-.137.081-.137.183 0 .154-.06.182-.404.182-.223 0-.43.04-.461.09-.031.051-.154.092-.274.092-.119 0-.24.036-.267.08-.027.045-.196.109-.374.142-.179.034-.347.12-.375.192-.028.073-.087.11-.13.082-.072-.044-.482.101-.908.32-.077.04-.375.126-.66.19-.286.064-.52.145-.52.181 0 .036-.153.09-.341.121a2.33 2.33 0 0 0-.586.186c-.135.07-.38.158-.547.195-.394.087-.894.327-.894.43 0 .045-.123.055-.274.022-.171-.038-.273-.024-.273.038 0 .054-.1.098-.222.098-.123 0-.248.041-.279.091-.03.05-.152.092-.269.092-.117 0-.237.064-.267.143-.035.09-.117.123-.225.089a.273.273 0 0 0-.283.083.437.437 0 0 1-.31.131c-.409-.01-1.263.259-1.593.502-.149.11-.342.161-.667.178-.133.007-.225.03-.204.051.096.095-.888.366-2.195.605-.875.16-.96.179-1.147.26a.526.526 0 0 1-.228.048c-.124-.022-.492.11-.492.175 0 .032-.092.062-.205.068l-.66.034c-.251.013-.538.074-.638.136-.267.164-.717.244-1.64.291-.45.023-.859.08-.906.127-.048.047-.2.085-.336.085a1.58 1.58 0 0 0-.468.083c-.249.095-.588.152-1.433.242-.326.035-.674.108-.774.163-.1.055-.367.11-.592.121-.226.012-.8.05-1.276.084a27.46 27.46 0 0 1-1.23.064c-.2.001-.386.036-.414.076-.097.144-4.878.302-4.964.164-.017-.028-.31-.022-.652.013-.34.036-.681.035-.757-.002-.157-.076-.959-.054-1.526.043-.286.048-.387.036-.387-.05zm75.613-28.422a.091.091 0 0 0-.183 0 .091.091 0 0 0 .183 0zm-77.866 28.36a.525.525 0 0 1 .273.003c.062.025-.01.044-.161.042-.15-.002-.201-.022-.112-.045zm3.885-47.437c-.021-.02-.51-.059-1.086-.086-.576-.028-1.23-.09-1.451-.137-.222-.047-.464-.063-.537-.035-.073.028-.182-.015-.24-.095-.066-.09-.273-.158-.534-.175-.234-.015-.426-.058-.426-.095 0-.038-.078-.069-.173-.069-.095 0-.194-.055-.22-.124-.026-.068-.163-.149-.305-.18-.325-.073-.468-.193-.784-.66-.291-.429-.63-1.493-.616-1.937.005-.167.075-.72.154-1.23.08-.508.157-1.089.172-1.29.014-.201.191-.688.397-1.092.205-.401.372-.77.372-.821 0-.05.093-.194.206-.32.248-.274.523-.85.523-1.093 0-.292.485-1.51 1.07-2.686.174-.35.335-.74.358-.865a.89.89 0 0 1 .172-.371.52.52 0 0 0 .131-.287c0-.131.316-.498.669-.777.171-.136.607-.152.607-.023 0 .05.058.091.13.091.255 0 .338.58.29 2.045-.044 1.344-.037 1.417.126 1.417.094 0 .196.039.225.086.029.047.247.112.483.144.237.032.759.114 1.16.182.4.068.976.146 1.277.175.302.028.691.097.866.154.281.09 2.496.192 6.33.29.7.018 1.439.077 1.639.13.436.118 2.287.239 3.553.232 3.452-.018 4.468-.05 4.527-.146.047-.076.143-.074.365.006.828.3 1.833.404 3.249.338.784-.037 1.425-.03 1.457.014.033.045 1.319.058 2.928.029 1.635-.03 3.006-.015 3.186.033.4.105 1.908.133 1.94.036.014-.04.208-.037.433.008.477.095 2.376.081 2.537-.018.06-.038.279-.04.485-.005.588.099 12.858.126 14.74.032.928-.046 2.035-.097 2.46-.113 1.32-.05 3.409-.25 3.58-.342.09-.048.208-.06.262-.026.134.082 1.083.102 1.132.022.02-.034.274-.065.562-.067.287-.002.728-.046.978-.098.25-.052.843-.157 1.316-.232.791-.126 1.19-.223 1.701-.413.107-.04.393-.101.638-.136s.568-.115.718-.179c.15-.064.54-.209.865-.322.326-.113.633-.253.684-.31.05-.057.275-.157.5-.223.435-.126.741-.251 1.55-.634.275-.13.527-.23.56-.22.033.01.11-.042.17-.116.062-.073.163-.134.226-.134s.17-.066.236-.146c.067-.081.33-.242.583-.358.254-.116.539-.296.633-.4.094-.104.207-.189.251-.189.098 0 .911-.6 1.342-.992.172-.156.357-.285.41-.287.054-.002.22-.165.371-.36.15-.196.302-.358.338-.36.093-.007.528-.455.528-.546 0-.042.052-.097.116-.122.065-.025.198-.213.297-.419.098-.205.212-.374.253-.375.157-.002.764-.845.935-1.299.033-.087.09-.16.125-.16.172 0 .274-.836.303-2.475.033-1.821.082-2.08.4-2.08.129 0 .865 1.09.918 1.36.015.08.046.264.069.41.022.147.083.309.134.36a.419.419 0 0 1 .093.259.8.8 0 0 0 .088.323c.225.41.699 2.473.777 3.388.027.323.085.61.127.638.043.027.107.63.143 1.34.054 1.054.038 1.416-.088 1.981-.084.38-.19.692-.236.692-.045 0-.082.137-.082.304 0 .185-.069.367-.174.462a1.454 1.454 0 0 0-.29.44c-.116.278-.722.924-1.414 1.505-.194.164-.533.564-.751.888-.219.325-.425.591-.46.591-.104 0-.793.676-.908.891-.06.111-.147.202-.194.202-.046 0-.232.148-.412.328-.18.18-.386.337-.457.347-.164.024-.476.297-.77.673-.125.16-.273.291-.328.291-.055 0-.178.088-.273.193-.096.106-.327.27-.515.366-.188.096-.342.21-.342.253 0 .044-.071.104-.16.134a2.62 2.62 0 0 0-.432.236c-.15.1-.42.26-.598.359-.179.098-.379.242-.444.321-.066.079-.18.143-.254.143-.074 0-.257.103-.406.228-.149.125-.32.228-.38.228s-.21.07-.334.157c-.123.087-.305.17-.403.185-.099.015-.202.062-.229.104-.094.148-.78.469-1.12.524-.188.03-.341.091-.341.135 0 .044-.06.08-.134.08-.193 0-.984.275-1.13.393a.851.851 0 0 1-.363.13c-.133.015-.453.113-.712.215-.259.103-.566.178-.683.166a1.242 1.242 0 0 0-.486.09c-.15.061-.57.112-.933.114-.364 0-.661.032-.661.07 0 .132-.797.233-1.844.233-.593 0-1.083.039-1.1.087-.041.123-3.716-.097-4.386-.263-.365-.09-.653-.11-.878-.06-.498.112-1.848-.036-2.281-.25-.203-.1-.499-.17-.657-.156-.158.015-.215.008-.128-.013.088-.023.16-.079.16-.126 0-.112-.304-.108-.418.005-.099.1-1.678.174-1.678.08 0-.032-.297-.13-.66-.217-.363-.088-.824-.237-1.025-.332-.295-.14-.402-.152-.563-.066a.5.5 0 0 1-.364.039c-.254-.103-.94-.144-.94-.057 0 .097-.974.21-1.64.19-1-.03-2.062-.01-2.633.049-.766.08-1.558-.018-1.558-.192 0-.149-.144-.174-.228-.039-.03.05-.32.091-.643.091-.33 0-.586-.04-.586-.09 0-.155-.224-.102-.337.08-.155.247-1.564.54-2.897.602-.451.02-1.169.082-1.595.137-2.793.356-3.993.45-4.042.32-.02-.058-.11-.047-.236.028-.112.066-.224.1-.25.074-.025-.025-.144-.008-.264.037a.656.656 0 0 1-.437 0c-.12-.045-.246-.055-.28-.02-.117.117-2.91.16-3.544.055-.194-.032-.331-.023-.305.02.027.043-.368.091-.876.107-.51.015-1.048.033-1.199.04-.15.007-.56-.002-.91-.02a9.146 9.146 0 0 0-1.408.073c-.506.07-1.432.087-2.694.05-1.305-.037-2.087-.02-2.43.05-.278.058-.89.105-1.36.105-4.495-.005-6.22.005-6.27.035-.03.02-.657.06-1.392.091-.971.042-1.383.027-1.511-.053-.137-.085-.296-.086-.704-.003-.552.11-.805.13-.87.07zm10.393-30.146c-.226-.06-.46-.14-.522-.18-.061-.04-.32-.097-.576-.128-.3-.035-.421-.082-.343-.13.066-.043.1-.081.074-.086a13.128 13.128 0 0 0-.227-.04c-.54-.09-1.048-.377-1.58-.895-1-.97-1.103-1.095-1.374-1.655-.56-1.154-.758-1.834-.926-3.189-.087-.697-.207-1.226-.331-1.457-.342-.64-.547-2.657-.388-3.826.145-1.072.131-1.048.596-1.048.262 0 .405.04.405.114 0 .062.165.29.365.505.2.215.363.43.363.478 0 .048.04.087.088.087.049 0 .14.099.205.22.064.12.279.412.476.648.823.98 1.48 1.14 3.74.911a82.74 82.74 0 0 1 2.824-.232c.702-.042 2.219-.165 3.371-.274a210.63 210.63 0 0 1 3.098-.273 20.735 20.735 0 0 0 1.594-.178c.325-.058.858-.121 1.184-.142.326-.021.94-.1 1.367-.177.426-.076 1.081-.16 1.457-.188.376-.027.909-.086 1.185-.13.275-.045.849-.11 1.275-.143.426-.033 1.205-.12 1.73-.19a79.442 79.442 0 0 1 1.823-.224 95.905 95.905 0 0 0 1.913-.231c.576-.077 1.17-.153 1.32-.17a63.483 63.483 0 0 1 1.913-.22c.552-.057 1.352-.144 1.777-.194.426-.05 1.246-.13 1.822-.18.577-.048 1.233-.13 1.458-.179.226-.05 1.045-.133 1.822-.185.777-.052 1.72-.133 2.095-.18.376-.047.93-.108 1.23-.135.3-.027.957-.091 1.458-.143 1.303-.136 1.887-.19 2.095-.19.1-.002.408-.042.683-.09.276-.05 1.055-.125 1.731-.169a38.474 38.474 0 0 0 1.594-.129l1.14-.156a19.61 19.61 0 0 1 1.867-.132 20.037 20.037 0 0 0 1.867-.13c.87-.12 3.267-.227 4.51-.2 3.91.08 8.068.374 9.316.656.214.048.63.087.926.087.304 0 .552.043.57.099.02.057.384.112.881.13.836.033.855.04 1.341.415.272.21.494.409.494.443 0 .035.08.149.177.253.097.105.252.328.343.496.163.3.374.58.687.91.088.093.16.19.16.215 0 .025.03.053.068.062a.57.57 0 0 1 .187.134c.065.065.19.17.277.235.087.063.271.31.41.548.137.238.289.433.337.433.048 0 .087.078.087.172 0 .095.062.196.137.225a.223.223 0 0 1 .136.19c0 .13.247.73.514 1.249.083.162.123.569.121 1.23-.002.914-.018.999-.205 1.133-.401.288-.954.287-2.024-.005a5.996 5.996 0 0 0-.729-.141 3.29 3.29 0 0 1-.592-.126c-.27-.1-1.536-.278-2.368-.335-.783-.053-.97-.073-2.551-.276a652.73 652.73 0 0 0-.775-.098c-.2-.026-1.626-.067-3.17-.091-2.2-.036-2.835-.02-2.946.071-.092.077-.505.125-1.203.141-1.187.028-1.84.08-2.246.18a2.46 2.46 0 0 1-.592.051c-.176-.008-.708.065-1.184.163s-1.112.2-1.413.229c-.3.028-1.08.114-1.73.192-.652.077-1.43.16-1.731.184-.301.024-.608.067-.684.096-.19.075-1.17.126-2.824.148-.967.013-1.478.057-1.623.139-.142.08-.246.09-.32.029-.073-.061-.318-.047-.745.044a11.08 11.08 0 0 1-1.821.224c-.393.006-2.313.188-2.954.279-.372.053-1.325.112-2.117.132-.793.02-1.616.076-1.83.125-.213.05-.559.09-.769.091-.21.001-.407.044-.438.094-.031.05-.394.09-.807.09-.413 0-.79.036-.837.078-.114.102-1.638.329-2.04.304a1.91 1.91 0 0 0-.592.071c-.154.05-.545.114-.871.142-.95.084-1.797.206-2.87.415-.866.168-2.035.33-2.642.365-.1.006-.677.13-1.282.275-.605.145-1.466.288-1.913.318-.447.03-.864.096-.926.147a.291.291 0 0 1-.262.035c-.082-.031-.197-.018-.255.03-.058.049-.657.136-1.332.195-.675.06-1.24.144-1.257.188a.068.068 0 0 1-.104.036c-.095-.059-1.11.138-1.244.241-.06.046-.208.04-.353-.015-.177-.068-.285-.066-.371.006-.067.055-.155.08-.195.055-.041-.025-.279-.006-.528.042-1.14.22-1.773.353-2.322.49-.97.243-2.055.409-2.944.45-.46.021-1.205.06-1.656.084-.494.028-.983.002-1.23-.062zm51.102-20.14c-.023-.022-.553-.061-1.18-.087-1.718-.07-3.747-.239-4.044-.337a2.344 2.344 0 0 0-.592-.09c-.18-.001-.595-.063-.92-.136a64.516 64.516 0 0 0-1.315-.277 11.36 11.36 0 0 1-1.124-.28 9.534 9.534 0 0 0-1.1-.26 17.036 17.036 0 0 1-1.244-.273c-1.017-.277-1.242-.323-1.327-.27-.047.029-.085.005-.085-.055 0-.08-.035-.079-.137.006-.094.078-.137.082-.137.01 0-.056-.092-.103-.205-.105a1.12 1.12 0 0 1-.43-.128c-.16-.089-.277-.099-.396-.035-.208.111-.335.009-.15-.12.104-.073.086-.083-.08-.047-.248.055-1.107-.13-1.107-.239 0-.04-.144-.047-.319-.014-.189.036-.319.024-.319-.03 0-.049-.215-.117-.478-.151-.612-.08-1.617-.313-1.819-.421a.412.412 0 0 0-.297-.03.286.286 0 0 1-.257-.042c-.064-.052-.38-.142-.705-.199a42.63 42.63 0 0 1-.771-.14 67.92 67.92 0 0 0-.683-.134 5.55 5.55 0 0 1-.638-.152.864.864 0 0 0-.336-.036c-.11.011-.458-.042-.774-.117a10.642 10.642 0 0 0-1.213-.196 11.19 11.19 0 0 1-1.23-.198 8.779 8.779 0 0 0-.957-.17c-.641-.057-.912-.11-1.234-.243-.173-.071-.587-.137-.921-.145a6.302 6.302 0 0 1-1.139-.149 7.171 7.171 0 0 0-1.192-.16c-.363-.014-.66-.051-.66-.083 0-.03-.175-.087-.388-.124l-.57-.1c-.1-.017-.51-.074-.91-.125a20.064 20.064 0 0 1-1.367-.228c-.35-.075-.924-.161-1.275-.191-.871-.076-1.086-.1-1.139-.124a2.203 2.203 0 0 0-.319-.057c-.872-.114-1.102-.16-1.18-.233-.047-.045-.408-.082-.802-.082-.781 0-1.98-.168-1.98-.277 0-.067-.21-.104-1.322-.23-.3-.034-.594-.1-.652-.146-.059-.047-.476-.096-.927-.11-.452-.013-.876-.068-.942-.122-.176-.144-.804-.3-.804-.2 0 .045-.061.083-.136.083-.076 0-.137-.045-.137-.1 0-.056-.056-.08-.126-.053-.069.026-.284.008-.478-.042a5 5 0 0 0-.808-.112c-.584-.03-1.775-.234-1.98-.34a1.176 1.176 0 0 0-.439-.082 1.15 1.15 0 0 1-.444-.087 1.814 1.814 0 0 0-.472-.133c-.46-.068-1.558-.328-1.767-.418a4.744 4.744 0 0 0-.637-.178l-.638-.139a25.427 25.427 0 0 1-1.275-.32 15.85 15.85 0 0 0-.684-.176 4.744 4.744 0 0 1-.575-.177 1.469 1.469 0 0 0-.433-.102c-.097 0-.39-.103-.649-.228-.26-.125-.603-.228-.763-.228-.16 0-.341-.061-.404-.137-.062-.075-.174-.136-.248-.136-.075 0-.388-.118-.695-.262a8.222 8.222 0 0 0-1.004-.387c-.244-.069-.464-.177-.488-.24-.024-.062-.134-.113-.244-.113-.18 0-.792-.256-1.434-.6-.133-.07-.295-.13-.359-.13s-.203-.08-.308-.179a.87.87 0 0 0-.372-.207c-.1-.015-.324-.135-.498-.266a5.634 5.634 0 0 0-.707-.433 3.493 3.493 0 0 1-.944-.668c-.093-.087-.188-.16-.21-.16-.068 0-1.174-.79-1.39-.994-.11-.104-.24-.19-.29-.19-.048 0-.33-.235-.626-.523a56.35 56.35 0 0 0-.964-.913c-.374-.344-.704-.765-1.024-1.309a2.499 2.499 0 0 0-.25-.336c-.084-.092-.152-.209-.152-.26 0-.088-.167-.311-.534-.712-.144-.158-.387-.58-.67-1.168-.074-.152-.57-1.538-.682-1.907-.027-.088-.085-.16-.129-.16s-.08-.08-.08-.18c0-.1-.064-.34-.143-.536-.127-.318-.44-1.606-.535-2.199-.02-.125-.083-.473-.14-.774-.057-.3-.144-.834-.194-1.184-.104-.737-.141-4.641-.046-4.935.13-.406.161-.643.19-1.442.036-.984.237-2.235.498-3.093.046-.153.134-.463.196-.688.06-.225.193-.656.292-.957.1-.3.187-.608.195-.684.007-.076.1-.322.204-.547.104-.224.24-.602.303-.84.062-.236.17-.477.238-.534.07-.058.126-.15.126-.207 0-.057.064-.223.14-.37.077-.146.15-.337.163-.423a.703.703 0 0 1 .122-.28c.108-.136.295-.55.53-1.17.085-.226.188-.452.23-.502.04-.05.45-.829.91-1.73 1.225-2.403 1.408-2.765 1.716-3.397.153-.314.31-.569.351-.565.04.004.098-.11.127-.254.058-.28.359-.867.47-.917.038-.016.07-.082.07-.145 0-.063.074-.183.166-.266.091-.082.265-.366.386-.629.12-.263.244-.498.274-.523.03-.025.314-.538.632-1.14 1.086-2.056 1.291-2.412 1.388-2.413.038 0 .068-.082.068-.183 0-.1.042-.182.093-.182.05 0 .193-.215.317-.478.125-.263.391-.724.593-1.025.202-.3.39-.615.42-.7a.369.369 0 0 1 .18-.202c.07-.027.128-.092.128-.145 0-.088.435-.808.55-.912.029-.025.15-.209.27-.41.12-.2.306-.448.413-.551.108-.103.27-.38.36-.615.09-.235.198-.428.242-.428.043 0 .078-.077.078-.17 0-.095.062-.223.138-.286.076-.063.213-.285.306-.494.092-.209.297-.527.454-.706.158-.18.287-.37.287-.423 0-.053.143-.253.318-.444.175-.19.319-.405.319-.477 0-.072.078-.216.174-.319.095-.103.305-.434.466-.735.276-.513.546-.9.864-1.237.075-.08.136-.189.136-.243 0-.054.036-.112.079-.13.114-.043 1.032-1.426 1.215-1.829.085-.188.198-.341.25-.341.053 0 .096-.082.096-.183 0-.1.033-.182.074-.182.079 0 .696-.9 1.156-1.687.47-.804.817-1.319.888-1.319.038 0 .068-.061.068-.137 0-.075.032-.136.07-.136.04 0 .172-.194.297-.431.124-.238.274-.483.332-.547.06-.063.24-.35.404-.639.164-.288.325-.545.359-.57.033-.025.239-.394.455-.82.217-.426.42-.794.45-.82.093-.075.867-1.301 1.006-1.594a4.5 4.5 0 0 1 .327-.546c.108-.15.285-.438.392-.638.107-.2.276-.487.376-.638.099-.15.304-.519.455-.82.151-.3.354-.67.45-.82.097-.15.258-.437.359-.637.322-.64.842-1.544.973-1.693.07-.079.128-.189.128-.244 0-.055.051-.154.114-.22.062-.067.171-.233.242-.37.07-.137.204-.33.296-.429.092-.099.168-.258.168-.353 0-.096.075-.272.166-.391a2.6 2.6 0 0 0 .231-.354c.036-.075.247-.444.47-.82a41.93 41.93 0 0 0 1.067-2.004c.364-.727.713-1.354.776-1.394.062-.04.114-.116.114-.169 0-.147.278-.71.61-1.234.166-.26.3-.55.3-.643 0-.093.101-.305.224-.471.122-.166.248-.419.28-.56a4.18 4.18 0 0 1 .27-.704c.119-.244.244-.597.279-.785.035-.187.12-.362.19-.389.076-.03.124-.186.124-.402 0-.196.04-.355.088-.355.055 0 .081-.798.069-2.11-.015-1.621.006-2.119.094-2.149.062-.02.114.025.114.101 0 .077.078.194.173.26.217.152 1.284 2.224 1.284 2.493 0 .109.061.249.135.31.074.062.162.314.194.56.033.246.095.47.139.497.043.027.079.132.079.235 0 .102.06.315.132.472.277.6.569 2.113.7 3.637.11 1.25.03 1.966-.328 2.982a47.51 47.51 0 0 0-.386 1.139c-.08.25-.193.517-.253.592-.154.195-.412.778-.412.933 0 .118-.57 1.278-1.216 2.474-.133.245-.241.498-.241.562 0 .063-.035.129-.077.146-.083.032-.082.031-.818 1.458a22.163 22.163 0 0 1-.933 1.624c-.247.376-.538.867-.648 1.093-.11.225-.274.508-.365.627-.091.12-.166.294-.166.387 0 .094-.058.17-.13.17-.07 0-.175.14-.231.311-.057.171-.308.653-.56 1.07-.52.868-.525.875-.819 1.489-.12.25-.246.477-.28.503-.035.026-.108.149-.162.273a4.196 4.196 0 0 1-.276.5c-.098.15-.24.396-.314.546-.225.45-.54.984-.768 1.304a7.953 7.953 0 0 0-.442.728c-.125.235-.254.448-.288.473-.123.092-.376.544-.376.673 0 .073-.098.25-.219.393a5.84 5.84 0 0 0-.505.804c-.158.3-.372.688-.476.863-.104.176-.256.442-.337.592-.081.15-.255.417-.386.592-.27.362-.536.885-.536 1.05 0 .062-.062.163-.137.226-.075.062-.137.167-.137.233s-.123.255-.273.42c-.15.164-.273.367-.273.45a.234.234 0 0 1-.137.205.224.224 0 0 0-.137.192c0 .077-.071.212-.16.3-.087.089-.299.427-.47.752a9.492 9.492 0 0 1-.706 1.108c-.217.284-.395.573-.395.643 0 .07-.092.225-.205.346-.112.121-.196.242-.185.268.01.026-.06.139-.156.25-.179.205-.826 1.29-1.086 1.822-.08.161-.192.294-.252.296-.059 0-.135.09-.168.195-.034.105-.129.27-.211.367a3.822 3.822 0 0 0-.337.514c-.103.186-.451.749-.775 1.25-.647 1.003-.68 1.054-1.104 1.776-.162.276-.347.554-.41.62-.064.064-.158.273-.21.463-.05.19-.179.424-.285.52-.105.096-.27.328-.366.515-.096.188-.215.342-.264.342-.05 0-.09.079-.09.175 0 .096-.03.188-.068.205-.037.016-.14.173-.228.349-.416.832-.981 1.827-1.24 2.184-.157.217-.285.446-.285.51s-.105.24-.232.392c-.242.286-.699 1.057-.885 1.492-.06.137-.14.25-.179.25-.039 0-.07.057-.07.128 0 .07-.13.367-.287.66-.454.843-.625 1.2-.625 1.303 0 .053-.035.096-.078.096-.07 0-.219.271-.631 1.158-.075.162-.171.272-.214.246-.042-.026-.05.021-.018.106.037.096-.01.207-.126.3-.102.082-.257.342-.345.58-.088.236-.196.408-.24.38-.043-.026-.079.008-.079.077 0 .169-.425 1.04-.543 1.113-.052.032-.094.138-.094.235 0 .098-.031.177-.07.177-.037 0-.124.134-.193.296-.39.92-.66 1.503-1.172 2.52-.313.623-.57 1.165-.57 1.205 0 .04-.102.297-.227.571-.125.274-.228.543-.228.598 0 .055-.106.352-.236.661-.13.31-.252.643-.272.742a.62.62 0 0 1-.128.274.416.416 0 0 0-.093.257c0 .09-.037.164-.083.164-.046 0-.11.175-.142.388a3.267 3.267 0 0 1-.133.569c-.041.1-.126.305-.19.455a5.379 5.379 0 0 0-.315 1.276c-.016.15-.111.622-.21 1.047-.386 1.642-.454 2.973-.265 5.193.056.66.771 1.462 2.333 2.619.777.575 1.695 1.115 1.898 1.116.062 0 .113.036.113.079 0 .043.195.152.433.242s.453.188.478.217c.052.062 1.358.69 1.446.696.032.002.201.083.376.18.327.18 1.269.564 1.595.65.1.026.243.07.319.098.788.293 1.33.454 1.414.421.057-.022.223.01.37.071.29.121 1.38.425 1.814.506.15.029.326.094.391.146.065.052.267.089.45.082.181-.007.374.02.428.061.136.103 1.004.359 1.585.467.267.05.525.115.575.146.118.073.418.123 1.4.23.45.05.901.128 1.001.172.1.045.552.147 1.003.227.823.146 1.237.245 1.913.458.434.137 1.566.317 1.99.317.166 0 .328.026.36.058.031.031.192.068.357.081.637.051 3.5.49 3.715.57.126.047.638.136 1.139.197 1.208.149 1.83.247 2.87.452.847.168 1.45.276 2.641.473.326.054.716.135.866.18.15.045.745.144 1.32.22.577.077 1.5.238 2.05.36 1.377.301 2.418.507 3.28.647.713.116 1.799.308 2.756.488.263.05.515.112.56.14.073.045 1.694.388 2.15.455.491.071.933.165 1.139.241.125.047.35.102.501.122.15.02.642.124 1.093.23a30.59 30.59 0 0 0 1.276.273c1.27.224 3.376.677 3.416.734.025.036.23.09.455.118.433.055.973.152 2.096.376a80.92 80.92 0 0 1 2.414.508c.651.144 1.512.305 1.913.358.4.052.995.138 1.32.19 2.187.352 2.384.366 5.922.398 2.784.026 3.816.003 4.555-.099l1.321-.18c.2-.028.388-.087.417-.132.028-.045.216-.098.416-.118.532-.053 1.507-.237 1.718-.325.1-.041.51-.189.911-.327.728-.252 1.412-.684 1.412-.891 0-.06.082-.27.182-.467.1-.197.183-.431.183-.52 0-.09.05-.165.113-.167.063 0 .332-.288.598-.637.266-.35.515-.635.553-.635.112 0 .413.384.585.748.188.398.239 1.63.125 3.033-.041.5-.075.972-.075 1.047 0 .307-.098.636-.175.589-.045-.029-.06.007-.033.078.027.07-.065.249-.206.395-.14.147-.338.407-.438.579-.1.171-.251.415-.336.543a2.54 2.54 0 0 0-.255.575c-.055.19-.135.323-.177.297-.043-.026-.144.054-.226.18-.082.124-.2.226-.263.226-.226 0-1.57.559-1.675.697-.09.118-.16.124-.428.036-.34-.113-.554-.052-.908.258-.093.081-.185.138-.205.125a.228.228 0 0 0-.105-.021c-.037 0-.008.039.064.085.106.067.087.104-.1.189-.178.08-.222.156-.19.325.04.209.02.22-.422.22-.538 0-1.279.174-1.455.342-.067.063-.298.196-.513.294-.215.098-.415.24-.445.317-.03.077-.136.14-.238.14-.102 0-.185.036-.185.08 0 .12-.309.18-1.423.277-.547.048-1.057.111-1.134.141-.077.03-.159.035-.181.013zM28.96 121.242c-.056-.082-.332-.137-.813-.162-.662-.033-.816-.08-1.671-.511-.719-.362-.985-.547-1.123-.78-.1-.169-.258-.331-.352-.361-.094-.03-.229-.165-.299-.3l-.389-.747c-.339-.65-.49-1.078-.492-1.39-.001-.137-.038-.25-.082-.25-.105 0-.19-.44-.092-.475.042-.014.02-.23-.048-.481-.18-.67-.34-1.589-.349-2.005-.003-.2-.045-.833-.09-1.407-.12-1.515-.114-2.073.026-2.335.102-.19.103-.245.004-.306-.069-.043-.082-.097-.032-.128.1-.062.661.376.661.516 0 .051.065.165.145.253.079.087.215.378.301.644.194.598.472 1.077.627 1.078.064 0 .154.099.2.219.049.13.205.259.384.318.369.12 2.929.082 4.22-.064.5-.057 1.115-.124 1.366-.15.25-.025.734-.092 1.074-.148.34-.056.717-.077.837-.047s.244.014.275-.037c.031-.05.249-.092.484-.093.235 0 .796-.064 1.247-.14 1.058-.18 2.6-.398 3.221-.455.269-.025.569-.088.666-.14.098-.052.444-.112.768-.132.325-.02.784-.103 1.02-.184a7.67 7.67 0 0 1 1.872-.368c.293-.022.621-.087.73-.145.107-.057.462-.135.788-.173a42.07 42.07 0 0 0 2.733-.437 21.6 21.6 0 0 1 1.047-.179c1.384-.201 2.05-.326 2.05-.384 0-.033.314-.088.698-.123.384-.035.858-.14 1.052-.234a3.49 3.49 0 0 1 .645-.233c.352-.075.625-.223 1.471-.796l1.237-.837c.326-.22.695-.445.82-.499.404-.174 1.058-.588 1.628-1.03.308-.238.608-.433.668-.433.06 0 .325-.227.587-.505.365-.385.55-.511.78-.532.166-.015.389-.074.495-.13.153-.082.217-.076.303.027.06.072.086.167.058.212-.028.044.03.167.129.273.267.287.226.761-.139 1.612-.116.27-.172.44-.467 1.412-.084.276-.209.534-.278.575-.069.04-.103.11-.076.153.026.044.007.105-.044.137-.052.031-.093.419-.093.874 0 .58-.04.88-.138 1.03-.097.147-.133.403-.12.84.011.345-.03.873-.093 1.174-.061.3-.154.792-.205 1.093-.117.688-.35 1.412-.456 1.412-.045 0-.081.055-.081.123 0 .17-.44.984-.624 1.157-.224.21-2.115 1.18-2.301 1.18-.089 0-.187.04-.218.09-.03.05-.178.092-.326.092-.148 0-.563.103-.923.228-.51.178-.67.203-.734.114-.064-.091-.09-.092-.127 0-.027.066-.21.113-.437.113-.241 0-.436.054-.508.14-.063.077-.181.131-.261.12-.206-.028-1.002.157-1.558.363-.075.028-.26.064-.41.08-.71.077-.826.092-.91.114a.472.472 0 0 1-.17.011c-.043-.007-.136.035-.208.094-.072.06-.549.162-1.06.228-.513.066-1.3.181-1.751.257-.451.075-.884.118-.962.094-.078-.024-.344 0-.592.057a6.883 6.883 0 0 1-.86.127c-.911.06-1.593.153-1.638.224-.026.042-.314.071-.64.066-.326-.005-1.043.084-1.594.198-.984.204-1.413.262-2.414.323-.686.042-.702.047-.547.147.082.053.093.089.028.09a.204.204 0 0 1-.158-.079c-.054-.088-.66-.047-1.373.092-.878.172-1.46.276-1.64.294a1.17 1.17 0 0 0-.381.13c-.278.155-.424.14-.356-.038.05-.128.009-.14-.286-.087-.189.035-.695.095-1.125.134-.43.039-.828.1-.886.136-.057.036-.365.079-.683.096-.417.023-.602-.003-.662-.093zm93.26-8.948c-.575-.287-1.325-1.058-1.57-1.611-.508-1.153-.461-.836-.59-4.01-.063-1.533.02-2.178.371-2.922.402-.85.69-1.055 1.29-.914.254.06.76.529.76.705 0 .037.143.114.318.172.176.058.32.136.32.174 0 .038.153.116.341.175.345.107 3.797.075 4.487-.042.175-.03 1.015-.068 1.867-.085.852-.017 1.692-.054 1.868-.083.175-.028.934-.072 1.685-.096 1.254-.04 1.814-.084 4.19-.324a43.947 43.947 0 0 1 2.278-.132c.802-.027 1.704-.09 2.004-.141.926-.156 2.15-.283 2.961-.307.426-.013 1.553-.07 2.505-.128a60.074 60.074 0 0 1 2.733-.105c.552 0 1.248-.04 1.55-.086 1.012-.158 3.471-.252 3.586-.137.022.022.089 0 .148-.05.085-.07 1.37-.154 3.189-.207.1-.002.715.027 1.366.067.966.058 1.294.044 1.777-.077a7.72 7.72 0 0 1 1.238-.179c.356-.017.695-.06.753-.096.058-.036.184-.041.28-.011.095.03.193.022.218-.017.024-.04.57-.06 1.214-.045l1.672.04c.275.005.972-.044 1.548-.11a16.288 16.288 0 0 1 1.777-.105c.4.008 1.036-.029 1.412-.083a34.691 34.691 0 0 1 1.73-.182c1.39-.112 1.852-.176 1.948-.27.044-.043.174-.035.292.02.154.07.285.066.48-.015.148-.061.61-.111 1.029-.111.418 0 .804-.037.858-.081.054-.045.402-.127.775-.182a9.47 9.47 0 0 0 .957-.185c.153-.046.393-.084.532-.084.14 0 .367-.081.505-.18.31-.22.598-.642.492-.72-.178-.13-.337-.745-.39-1.514-.032-.451-.095-.88-.141-.954-.133-.213-.129-.914.007-1.175a1.26 1.26 0 0 0 .133-.377c.005-.075.098-.3.207-.5.163-.297.242-.36.426-.333.124.017.28.075.345.13.167.136.597 1.094.796 1.774.091.313.2.57.24.57.041 0 .074.078.074.173 0 .096.123.278.274.404.15.127.273.291.273.365 0 .075.032.149.072.166.097.041.566.857.566.985 0 .162 1.33 1.828 1.782 2.234.224.2.59.533.815.74.225.205.409.353.409.328 0-.025.107.113.238.308s.375.48.541.635c.167.154.328.4.36.546.03.147.095.338.142.425a.766.766 0 0 1 .085.3c0 .08.09.336.198.572.238.513.292 1.298.114 1.64-.07.135-.129.3-.129.37 0 .168-.474.695-.99 1.102-.882.697-1.99.949-4.613 1.05-.651.024-1.376.063-1.611.086-.242.023-.44.001-.457-.05-.02-.06-.186-.056-.485.012a3.3 3.3 0 0 1-.909.052c-.535-.06-.986-.067-3.963-.07-1.227-.002-2.621-.006-3.097-.008-1.918-.01-11.606.122-11.644.16-.023.023-.118 0-.213-.051-.095-.05-.222-.06-.284-.022-.062.039-.765.08-1.563.092-.798.012-1.51.043-1.58.071-.073.028-.896.074-1.83.102-.934.028-1.805.085-1.936.126-.13.041-.432.039-.67-.006-.238-.044-.465-.06-.505-.037-.039.024-.618.088-1.288.141-.669.054-1.463.134-1.763.178a56.08 56.08 0 0 1-2.993.318l-1.972.135c-1.707.114-2.347.164-3.006.233-.276.03-1.116.071-1.868.094-.752.022-1.766.058-2.253.08-.488.02-.91.001-.937-.043-.03-.047-.142-.046-.269.002-.12.046-.6.064-1.067.04l-1.851-.085c-.551-.024-1.473-.07-2.05-.101-.576-.032-1.19-.064-1.366-.072-.176-.008-.37-.046-.433-.085-.063-.04-.114-.034-.114.01 0 .045-.174.088-.387.094-.626.02-1.249.12-1.303.209-.029.045-.182.083-.342.085-.16 0-.578.086-.929.187-.35.102-.729.2-.84.217-.112.018-.317.122-.456.23-.473.373-1.506.74-1.985.708-.186-.013-.528-.119-.76-.235zm-70.951-5.25c-.36-.06-.709-.153-.775-.205a.567.567 0 0 0-.256-.105 8.823 8.823 0 0 1-.592-.1 43.3 43.3 0 0 0-1.041-.184c-.323-.053-.653-.157-.735-.23-.082-.075-.29-.162-.462-.194-.172-.033-.374-.11-.45-.17-.074-.062-.34-.161-.591-.22a4.1 4.1 0 0 1-.97-.423c-.284-.173-.56-.315-.616-.315-.055 0-.173-.072-.262-.16a2.318 2.318 0 0 0-.52-.325c-.607-.284-1.25-.752-1.918-1.4-1.238-1.197-1.365-1.254-2.27-1.012-.447.12-1.11.005-1.643-.287a1.354 1.354 0 0 0-.593-.137c-.175.007-.83.026-1.457.042-.626.017-1.344.084-1.594.15-.251.067-.75.121-1.111.122-.561 0-.692-.03-.91-.217-.235-.203-.244-.234-.125-.456.07-.13.181-.237.248-.237s.121-.034.121-.074c0-.08.632-.35.742-.315.037.012.093-.06.124-.16.044-.138.139-.18.406-.18.227 0 .367-.048.401-.138.03-.076.157-.177.283-.226.127-.048.23-.129.23-.18 0-.052.058-.094.127-.094.07 0 .148-.055.174-.121.053-.14 1.433-.713 1.76-.732.134-.007.217-.069.217-.16a.41.41 0 0 1 .14-.266c.078-.064.121-.17.096-.236-.025-.065-.012-.14.029-.165.08-.05.18-.622.247-1.417.043-.51.062-.58.392-1.456.104-.275.19-.57.19-.656 0-.086.055-.19.123-.23.174-.102.332-.431.332-.691 0-.24.174-.213-2.46-.386-.578-.039-1.657-.192-2.46-.35a93.699 93.699 0 0 0-1.047-.2 2.733 2.733 0 0 1-.61-.189 1.192 1.192 0 0 0-.43-.124c-.101 0-.367-.102-.592-.228-.224-.125-.472-.227-.55-.227-.33 0-1.311-.631-1.914-1.231-.754-.751-1.906-2.029-2.252-2.498a8.66 8.66 0 0 0-.554-.66 8.539 8.539 0 0 1-.648-.817 53.825 53.825 0 0 0-.604-.852c-.302-.415-.76-1.334-.854-1.712-.034-.14-.102-.23-.15-.2-.095.058-.13-.797-.036-.89.028-.028.476.273.995.67.937.716 1.594 1.104 2.072 1.223.138.035.25.09.25.121 0 .032.185.055.41.051.226-.003.41.022.41.057s.175.051.388.037c.213-.014.776.017 1.252.069.476.052 1.03.105 1.23.117.2.012.436.052.524.09a.45.45 0 0 0 .319-.006c.088-.04.733-.086 1.435-.1 2.052-.045 4.236-.198 4.236-.299 0-.033.253-.031.562.005.311.037.662.028.786-.019.123-.047.495-.106.827-.131.332-.026.747-.083.922-.127.456-.116 1.628-.215 3.872-.325.2-.01.59-.067.865-.127.276-.06 1.1-.146 1.832-.191 1.335-.083 1.812-.195 1.812-.426 0-.068-.105-.291-.235-.496-.14-.222-.217-.452-.19-.568a.768.768 0 0 0-.026-.377c-.047-.123-.015-.253.1-.4.093-.12.17-.263.17-.318 0-.056.112-.178.25-.27.26-.175.803-1.011.896-1.382.03-.117.112-.236.182-.263.071-.027.129-.123.129-.213s.102-.315.228-.499c.125-.184.227-.373.227-.42 0-.046.059-.133.13-.192.071-.06.156-.265.189-.458.032-.193.116-.427.186-.519a.73.73 0 0 0 .13-.365c.001-.108.126-.456.276-.774.15-.318.274-.63.274-.694 0-.064.061-.14.136-.17.075-.028.137-.148.137-.264 0-.117.04-.238.091-.27.05-.03.091-.17.091-.308 0-.139.103-.504.228-.813.125-.308.228-.643.228-.744 0-.101.036-.184.08-.184.078 0 .21-.479.24-.866.007-.1.17-.612.362-1.138.192-.526.367-1.162.389-1.412.022-.25.072-.497.11-.547.039-.05.12-.378.182-.729.062-.35.144-.7.183-.777.038-.077.1-.282.138-.456a2.43 2.43 0 0 1 .164-.497c.052-.1.105-.304.117-.453.012-.149.066-.285.12-.304.056-.018.101-.116.101-.218 0-.202.203-.87.474-1.556.094-.24.15-.471.122-.515-.026-.043.008-.1.076-.126.069-.026.152-.164.185-.306.082-.346.863-1.942 1.063-2.17.088-.101.207-.365.266-.587.095-.357.797-1.55 1.29-2.192.095-.126.278-.452.406-.725.127-.273.351-.648.498-.833.146-.185.266-.373.266-.418 0-.045.154-.253.342-.46a12.5 12.5 0 0 0 .632-.771c.33-.446 1.789-1.986 1.88-1.986.034 0 .136-.072.228-.16.324-.311.911-.77.944-.738.053.05.711-.633.711-.739 0-.052.063-.094.14-.094.076 0 .177-.103.225-.228.054-.142.158-.228.275-.228.104 0 .29-.1.412-.223.123-.123.29-.236.372-.25.16-.03.672-.468.672-.576 0-.036.188-.246.418-.466a4.07 4.07 0 0 1 1.524-.939c.196-.065.51-.29.718-.516.203-.22.404-.4.447-.4.043 0 .346-.164.673-.365.328-.2.653-.364.723-.364.07 0 .141-.034.158-.076.036-.09 1.05-.653 1.175-.653.047 0 .464-.188.928-.419a15.44 15.44 0 0 1 1.614-.676c.425-.141.787-.301.805-.355.018-.054.101-.1.185-.102.192-.003.93-.265 1.503-.531.242-.113.813-.266 1.27-.34.456-.074.873-.167.926-.206.053-.04.486-.125.962-.188 1.219-.164 1.901-.349 2.323-.63.2-.133.385-.269.41-.302.026-.033.25-.164.5-.29.55-.28.606-.224.533.531-.054.547-.318 1.31-.904 2.601-.171.378-.311.737-.311.797 0 .06-.031.11-.069.11-.038 0-.12.117-.184.261-.331.748-1.01 1.566-1.792 2.157-.247.187-.532.417-.632.51-.1.093-.216.17-.257.17-.042 0-.25.111-.461.248-.482.31-.796.48-.886.48-.038 0-.31.11-.604.244-.295.134-.573.235-.618.223-.046-.012-.107.012-.137.052-.073.098-.637.392-.753.392-.051 0-.201.075-.334.167-.133.091-.547.26-.919.376-.372.115-.754.281-.85.37-.094.088-.364.233-.598.32-.49.184-1.075.508-1.342.745-.233.205-.675.478-.883.544-.088.028-.16.087-.16.13 0 .045-.042.081-.093.081-.1 0-.76.416-1.014.638-.238.21-.374.304-.718.496-.173.097-.368.22-.43.273a80.585 80.585 0 0 1-2.599 2.032c-.357.26-2.308 2.177-2.707 2.661-.35.423-.38.461-.946 1.143-.724.872-.722.87-.907 1.23-.272.53-.581 1.02-.682 1.083-.053.033-.18.243-.284.467-.104.225-.27.531-.37.682-.098.15-.408.744-.686 1.32-.279.577-.546 1.11-.593 1.185-.139.217-.543 1.108-.543 1.195 0 .044-.138.377-.306.74-.17.364-.38.887-.47 1.162-.089.276-.19.542-.223.592-.033.05-.112.276-.175.501a4.581 4.581 0 0 1-.245.668c-.07.142-.13.39-.13.552 0 .162-.06.374-.133.471a.811.811 0 0 0-.137.41c0 .127-.041.27-.088.318-.047.048-.106.19-.131.314-.025.126-.11.454-.19.73a8.58 8.58 0 0 0-.192.82c-.045.292-.293 1.2-.51 1.867a18.8 18.8 0 0 0-.23.82c-.079.3-.26.808-.404 1.128-.144.32-.262.625-.262.676 0 .052-.054.16-.12.238-.066.08-.176.319-.243.532-.067.214-.177.434-.244.49-.067.055-.122.156-.122.224 0 .15-.2.51-.91 1.638-.697 1.106-.672 1.208.291 1.167.366-.016.946-.075 1.29-.132.345-.057.754-.084.91-.061.157.023.593.007.97-.036a41.864 41.864 0 0 1 1.406-.13c.398-.028.759-.073.802-.1.043-.026.68-.087 1.418-.135 1.76-.116 1.931-.135 2.229-.25.139-.055.446-.097.683-.094.74.009 1.923-.25 2.307-.504.194-.128.393-.233.442-.233.05 0 .134-.082.188-.182.12-.225.348-.235.516-.023.272.344.546.997.565 1.344.01.2.063.528.116.729.054.2.116.463.138.583.022.12.088.305.146.41.058.105.097.224.085.265-.012.04.043.263.122.496.202.593.26 2.308.088 2.537-.084.111-.132.13-.134.052 0-.067-.101-.004-.222.139-.16.191-.205.33-.169.521.033.172.017.241-.046.202-.056-.035-.14.067-.197.241-.084.254-.203.35-.759.604-.363.167-.75.303-.863.303a.451.451 0 0 0-.307.126c-.057.069-.202.125-.322.125s-.603.084-1.074.186c-.47.102-.993.2-1.16.218a34.5 34.5 0 0 0-1.033.14c-.868.128-1.36.172-2.477.222-.461.02-.88.063-.931.095-.052.032-.802.08-1.667.107-.866.027-1.622.089-1.68.138-.06.048-.306.084-.548.08-.621-.013-1.733.08-2.217.183a9.984 9.984 0 0 1-.865.135c-.25.027-.989.11-1.64.184-.651.075-1.471.153-1.822.174-.35.021-.884.101-1.184.178-.303.078-.946.142-1.441.144-.492 0-.972.044-1.067.095-.096.051-.575.135-1.065.186-1.504.156-1.705.184-1.893.265a5.07 5.07 0 0 1-.343.13c-.23.073-.37.49-.26.778.048.129.113.603.144 1.054.032.451.08 1.029.11 1.284.05.45.058.462.268.365.119-.055.216-.131.217-.169 0-.037.062-.068.137-.068.075 0 .137.049.137.109 0 .065.045.051.114-.035.062-.079.227-.17.366-.202a.98.98 0 0 0 .425-.246l.397-.43c.123-.134.356-.48.518-.77.325-.58.42-.652.965-.735.34-.052.396-.03.642.248.317.358.871.594 1.053.449.066-.053.32-.125.565-.16.245-.036.573-.121.73-.19.155-.068.508-.149.784-.18.446-.049.516-.086.643-.34.236-.475.552-.647 1.2-.654l.571-.006.865.729c.476.4.9.78.94.844.04.064.104.097.141.074.038-.023.222.1.41.271.188.173.372.314.41.314.037 0 .25.183.473.408.223.224.433.409.466.41.034 0 .565.38 1.18.844 1.314.99 2.51 2.154 2.767 2.691.1.21.208.382.238.383.031 0 .166.245.3.543.422.941.408 2.23-.03 2.646-.193.184-1.11.642-1.188.594-.357-.22-2.836-.328-3.19-.139-.388.208-.462.363-.409.852.028.258.072.54.097.625.026.085-.018.28-.097.432-.079.153-.115.278-.08.278.034 0-.119.177-.34.392-.63.615-1.117.744-2.15.57zm90.692-10.538a.853.853 0 0 0-.367-.079c-.135 0-.27-.042-.301-.092-.031-.05-.198-.091-.37-.091s-.313-.041-.313-.091c0-.05-.127-.091-.283-.091-.28 0-.492-.078-1.448-.535-.465-.222-2.096-1.431-2.096-1.554 0-.03-.107-.17-.239-.312-.131-.142-.36-.499-.506-.793-.292-.584-.681-.969-1.06-1.048a1.81 1.81 0 0 1-.403-.137.763.763 0 0 0-.3-.085c-.183 0-.945-.56-.95-.699 0-.058-.036-.12-.075-.136-.137-.058-.486-.622-.436-.704.028-.045-.01-.105-.085-.134-.075-.029-.138-.146-.14-.26a.76.76 0 0 0-.135-.384c-.073-.096-.159-.374-.191-.617-.032-.242-.094-.463-.138-.49-.043-.027-.079-.12-.079-.209 0-.087-.087-.34-.194-.56-.292-.606-.333-2.377-.071-3.14.276-.809.396-.957.768-.957.175 0 .318.03.318.068.001.038.166.245.366.461.201.216.436.503.523.638.31.481.6.746.816.746.507 0 1.62-.868 1.985-1.549.067-.125.402-.492.744-.816.341-.323.683-.735.758-.914.075-.179.198-.41.273-.515.146-.203.714-.377.809-.247.073.1 1.239.67 1.37.67.054 0 .099.036.099.08 0 .045.071.105.159.135.182.06.459.234.64.4.069.063.16.114.203.114.043 0 .133.051.2.114.238.22.704.524.805.524.38 0 2.309 1.569 2.958 2.405.1.129.233.235.296.236.062 0 .114.036.114.078 0 .043.102.189.227.323.125.135.36.48.521.765.278.491.293.567.278 1.366-.019 1.011-.038.976.966 1.772.27.214.577.439.683.5.107.063.168.114.135.115-.032 0 .217.278.553.616.647.65.884 1.022 1.03 1.617.281 1.156.12 1.967-.52 2.616-.47.476-.873.605-2.097.669-.501.026-1.137.093-1.412.148-.603.12-4.216.172-4.388.063zm-30.474-12.044c-.26-.059-.503-.138-.54-.175-.036-.038-.14-.069-.23-.069-.254 0-.791-.323-1.856-1.115-.15-.112-.64-.563-1.087-1.002a25.077 25.077 0 0 0-.833-.798c-.074 0-.585-.548-.585-.628 0-.055-.035-.1-.078-.1-.204 0-1.425-1.382-1.317-1.49.033-.034-.001-.112-.077-.174-.076-.062-.228-.356-.338-.653-.176-.475-.184-.556-.067-.674.114-.114.196-.117.552-.017.23.065.44.153.467.196.027.043.118.079.203.079.085 0 .275.064.423.141.392.205.985.265 1.243.127.12-.064.48-.129.802-.143.321-.015.627-.07.68-.122.052-.052.242-.095.422-.095s.367-.036.415-.08c.1-.094 1.1-.348 1.931-.49.313-.054.57-.132.57-.173 0-.042.166-.076.37-.076.203 0 .562-.058.797-.129a30.04 30.04 0 0 1 2.34-.6c.5-.109 1.075-.254 1.275-.322.2-.067.57-.148.82-.18a5.82 5.82 0 0 0 .979-.239c.288-.1.555-.162.594-.138.039.024.357-.01.706-.079.874-.168 2.373-.48 2.868-.598.381-.09.553-.106.843-.077.063.006.4-.035.751-.092 1.593-.258 2.603-.39 3.235-.422.375-.02.916-.07 1.201-.113.3-.044.58-.042.665.005.092.052.19.046.263-.014.148-.122 1.34-.375 1.724-.365.584.015 1.76-.114 2.16-.237.225-.07.84-.148 1.366-.174.927-.047 1.998-.182 2.277-.287.193-.073 1.925-.214 3.325-.272.652-.027 1.246-.071 1.321-.099.075-.027.444-.066.82-.087.376-.02.817-.082.98-.135.25-.083 2.884-.136 3.803-.077.428.028 2.49-.169 2.618-.25.063-.04.392-.078.73-.086.338-.007.666-.054.729-.104.07-.056.337-.063.705-.018.351.043.796.034 1.094-.021.275-.051.89-.13 1.366-.173 2.446-.225 2.498-.25 2.413-1.126-.066-.67-.06-2.19.009-2.875.028-.275.066-.665.084-.865.085-.936.135-1.338.176-1.403.024-.039.108-.626.187-1.306l.143-1.235-.204-.351c-.272-.47-1.697-1.885-2.489-2.472-.35-.26-.7-.526-.774-.593-.32-.283-1.183-.794-1.342-.794-.176 0-.571-.31-.571-.448 0-.042-.203-.163-.45-.27-.248-.106-.473-.23-.5-.274-.028-.044-.162-.109-.299-.143-.249-.063-1.32-.535-1.576-.696-.34-.213-1.45-.72-1.578-.72-.078 0-.167-.04-.198-.09-.031-.05-.128-.092-.216-.092s-.321-.077-.518-.171a3.574 3.574 0 0 0-.678-.237c-.175-.035-.613-.204-.972-.375-.36-.17-.736-.31-.838-.31-.1 0-.205-.034-.23-.076-.026-.041-.283-.128-.57-.192a4.853 4.853 0 0 1-.665-.188c-.078-.04-.49-.174-.916-.3a150.37 150.37 0 0 1-1.594-.483c-.45-.14-.86-.26-.91-.265a2.656 2.656 0 0 1-.43-.164 1.857 1.857 0 0 0-.632-.154 2.41 2.41 0 0 1-.572-.083c-.728-.216-1.8-.443-3.514-.743-.576-.1-1.117-.221-1.2-.268-.085-.046-.433-.111-.775-.145-.342-.033-.691-.097-.776-.14-.086-.044-.496-.118-.911-.165a39.41 39.41 0 0 1-1.349-.176 63.017 63.017 0 0 0-1.913-.24 37.476 37.476 0 0 1-2.004-.274 14.74 14.74 0 0 0-1.457-.174 9.294 9.294 0 0 1-1.185-.144c-.457-.107-.7-.138-2.14-.275-.552-.052-1.126-.132-1.276-.178-.15-.046-.601-.104-1.002-.13-.4-.027-.883-.092-1.072-.147-.188-.054-.377-.077-.418-.051-.042.026-.232.004-.424-.05a5.482 5.482 0 0 0-.902-.129 32.09 32.09 0 0 1-1.795-.144 63.487 63.487 0 0 0-1.537-.13 7.757 7.757 0 0 1-1.357-.23l-.967-.284c-.2-.058-.43-.16-.509-.225a.55.55 0 0 0-.296-.121c-.083 0-.152-.04-.152-.091 0-.05-.045-.091-.101-.091-.155 0-.976-.554-1.03-.695a.214.214 0 0 0-.187-.125c-.077 0-.14-.047-.14-.105 0-.109-.724-.802-.84-.805-.036 0-.127-.12-.203-.266a2.26 2.26 0 0 0-.253-.39c-.16-.175-.34-.456-.397-.624a.5.5 0 0 0-.237-.228c-.104-.048-.296-.278-.427-.51a5.644 5.644 0 0 0-.512-.744 7.917 7.917 0 0 1-.41-.52c-.154-.225-.531-.666-1.09-1.274a4.07 4.07 0 0 1-.572-.82c-.107-.225-.249-.443-.314-.483-.185-.113-.148-.428.05-.428.175 0 .684.312.99.606.897.865 1.729 1.49 1.985 1.49.08 0 .275.068.436.151.298.156.706.265 1.43.381.226.037.457.095.512.13.107.065 1.457.16 2.768.193.426.011 1.327.094 2.004.184.676.09 1.435.184 1.685.208.25.025.495.082.542.127.048.046.326.083.619.083.347 0 .652.061.88.177.2.102.381.144.428.097.047-.045.412-.042.856.009.426.049 1.144.086 1.595.082.563-.005.992.046 1.37.164.38.118.715.158 1.071.128.4-.033.52-.014.52.083 0 .128.627.172 2.43.17.41-.001.768.034.795.078.028.045.3.109.607.144.306.034.666.108.8.163.132.056.278.105.323.109.045.003.114.09.153.19.04.1.074.13.078.068.003-.063.09-.114.194-.114a.905.905 0 0 0 .36-.091c.134-.073.224-.043.422.141.178.165.314.218.462.181.116-.03.337.013.495.095.223.115.332.126.504.047.313-.142.484-.123.484.054 0 .14.012.138.121-.01.163-.223.518-.121.452.13a.368.368 0 0 0 .094.316c.182.181.213.176.27-.043.036-.134.125-.182.34-.182.232 0 .28.03.235.148-.034.088.008.198.104.27.152.116.152.123 0 .126-.165.003-.23.276-.065.276.187 0 .774-.286.975-.476.187-.175.229-.18.444-.065a.77.77 0 0 1 .317.334c.054.14.154.207.312.207.128 0 .256.061.285.137.039.1.197.136.596.136.361 0 .589-.046.68-.136.137-.138.678-.19.792-.076.084.084-.21.394-.374.394-.097 0-.116.064-.073.237.034.133.014.291-.044.362-.086.103-.046.123.223.113.18-.007.328-.047.328-.089 0-.042.062-.076.137-.076.075 0 .137.031.137.07 0 .038.092.11.205.159.112.05.218.182.234.295.02.15.09.205.254.205.124 0 .336.102.47.227l.245.226.194-.226c.108-.125.223-.227.257-.227.12 0 .6-.4.6-.501 0-.065.188-.1.51-.095.38.006.53.048.596.165.048.087.147.157.22.157.073 0 .132.055.132.122 0 .068.173.16.397.212.364.083.394.077.354-.076-.031-.12.007-.166.138-.166.338 0 .488.76.256 1.292-.045.102-.005.207.118.312.102.088.168.187.147.22-.065.106.453-.023.524-.13.037-.055.068-.238.069-.406 0-.231.034-.293.135-.255.074.029.158.013.188-.035.093-.152.392-.095.529.101.114.163.158.173.317.074.149-.093.211-.092.328.005.106.088.144.09.144.01 0-.069.051-.056.143.035a.37.37 0 0 0 .365.088c.134-.034.22-.016.22.045 0 .056.083.101.183.101.195 0 .242.177.088.331-.124.124-.015.398.158.398.075 0 .157-.082.183-.182.059-.225.168-.235.254-.023.057.142.073.137.143-.044.066-.173.113-.191.303-.119.157.06.236.054.26-.019.049-.146.615.094.615.261 0 .07.072.128.16.13.087.002.301.125.474.273.174.148.387.27.474.27.087 0 .359.043.604.095.376.08.468.144.594.408.09.19.238.334.376.369.125.031.253.138.284.238.043.134.11.167.266.128.129-.032.252 0 .322.084a.475.475 0 0 0 .325.135c.116 0 .244.059.284.13.096.17.73.6.886.6.067 0 .171.059.232.132a.76.76 0 0 0 .3.194c.105.033.273.137.374.23.1.095.242.172.315.172.23 0 .755.38.842.608.046.121.217.277.38.345.164.069.369.2.457.292 1.112 1.165 1.451 1.488 1.564 1.488.074 0 .233.167.354.37.122.204.405.563.629.797.224.235.518.603.653.818.135.215.336.432.447.483.11.05.314.285.452.52.274.47.335.568.778 1.27.166.263.347.612.401.775.055.163.155.361.223.44a.51.51 0 0 1 .124.266.51.51 0 0 0 .123.266c.401.47.708 3.212.42 3.751-.06.11-.144.553-.187.984-.12 1.191-.252 1.924-.402 2.225-.075.15-.136.343-.136.43 0 .086-.063.306-.139.489-.225.538-.098.653.795.73.416.036.817.063.893.059a10.6 10.6 0 0 0 1.566-.182 5.816 5.816 0 0 1 1.042-.099c.835.011 3.354-.068 4.36-.137 1.486-.102 2.25-.131 4.601-.178a557.38 557.38 0 0 0 2.46-.054c.125-.005 1.335-.003 2.687.006 1.353.008 2.624.012 2.824.008.2-.005.491.035.647.086a.759.759 0 0 0 .524.002c.15-.057 1.084-.074 2.474-.045l2.232.046.433-.243c.49-.275 1.995-.855 2.22-.856.083 0 .267.061.41.136.144.075.43.136.638.137.222 0 .422.056.49.137.062.075.154.137.205.137.051 0 .264.153.475.341.488.437.704.609 1.02.814.14.091.324.234.408.317.084.083.301.222.483.308.182.087.392.275.466.418.075.144.19.261.257.261.099 0 .483.303.899.708.038.036.408.47.823.961.694.822.771.955.958 1.64.238.872.17 1.375-.207 1.518-.117.045-.24.125-.273.18-.04.063-.302.077-.76.04a69.555 69.555 0 0 0-1.202-.088 67.948 67.948 0 0 1-1.412-.11c-.782-.07-3.097-.135-5.147-.146a76.926 76.926 0 0 0-2.369.068c-.977.04-2.514.084-3.416.099-.902.014-1.773.07-1.936.123-.163.053-.296.06-.296.016s-1.07-.061-2.437-.038c-3.995.068-5.149.111-5.57.208-.25.057-.481.06-.622.007-.123-.047-.253-.066-.29-.043-.037.022-.914.062-1.95.088-1.118.028-1.96.088-2.073.148-.111.06-.338.077-.548.041-.203-.034-.357-.023-.357.025 0 .046-.154.088-.342.094-.188.005-.833.03-1.435.055-.6.025-1.167.048-1.258.05-.09.003-.14.046-.108.096.03.05.015.091-.035.091s-.119-.044-.153-.1c-.04-.066-.29-.079-.757-.038a39.15 39.15 0 0 1-2.026.087c-.732.014-1.367.047-1.412.074-.078.047-1.364.117-3.816.207-.652.024-1.184.047-1.184.051 0 .005-1.085.026-2.411.05-1.578.026-2.432.075-2.472.139-.04.065-.074.056-.101-.025-.034-.101-.12-.103-.49-.01-.27.067-1.16.115-2.247.12-1.177.007-1.8.043-1.8.105 0 .06-.174.074-.486.037-.268-.032-.515-.03-.55.005-.034.034-.446.05-.915.037-.539-.016-.875.012-.914.074-.035.056-.127.068-.215.029-.185-.084-.625-.07-2.067.064a56.29 56.29 0 0 1-2.095.15c-.551.026-1.108.089-1.237.138-.129.05-.566.104-.97.12-.406.018-.775.055-.821.083-.046.029-.388.06-.76.07-.372.012-.737.05-.812.086-.126.06-.709.133-1.868.234-.707.06-.813.077-.911.14-.098.063-.6.156-1.179.218a3.82 3.82 0 0 0-.637.129c-.154.05-.623.129-1.043.175-.42.046-.79.126-.821.177-.032.052-.221.116-.42.142-.892.12-1.503.228-1.588.28-.05.031-.226.072-.39.09-.605.068-1.04.164-1.51.333-.264.095-.579.173-.698.173-.12 0-.23.031-.247.07-.017.038-.46.165-.987.282-.526.117-.997.243-1.048.28-.05.037-.25.07-.444.073-.195.004-.38.045-.41.093-.031.048-.282.141-.558.208-.275.067-.553.16-.616.208-.064.047-.269.116-.456.153-.526.103-.6.128-.731.25a.573.573 0 0 1-.339.114c-.118 0-.24.04-.272.09-.03.051-.148.092-.261.092a.746.746 0 0 0-.382.134c-.097.073-.325.135-.507.136-.182.002-.469.06-.638.13-.433.177-1.934.248-2.51.117zm39.941-31.24c-.043-.132-.433-.213-.433-.09 0 .13.107.204.296.204.099 0 .158-.05.137-.114zm.296.023a.091.091 0 0 0-.182 0 .091.091 0 0 0 .182 0zm-2.642-1.42c0-.072-.057-.102-.137-.071-.075.029-.136.108-.136.176 0 .073.056.103.136.072.075-.029.137-.108.137-.176zm-2.39-.95c-.11-.174-.252-.244-.252-.123 0 .05.276.295.342.303.013.001-.027-.079-.09-.18zm-5.991-1.588c0-.096-.175-.137-.227-.052-.032.05.006.092.085.092.078 0 .142-.018.142-.04zm-.75-.763c.023-.069-.02-.086-.12-.048-.097.037-.186.003-.239-.09a.758.758 0 0 0-.262-.245c-.155-.083-.178-.066-.178.135 0 .184.045.231.222.231.123 0 .25.043.282.096.072.117.245.07.295-.079zm.84.074a.091.091 0 0 0-.181 0 .091.091 0 0 0 .182 0zm-5.068-.897a1.851 1.851 0 0 0-.133-.378c-.06-.106-.077-.091-.08.066 0 .112-.1.268-.222.347-.496.325-.383.663.132.395.316-.165.353-.217.303-.43zm-1.615-.15c-.084-.177-.116-.192-.179-.08-.104.186-.007.407.152.346.103-.04.108-.094.027-.266zm-2.836-.137c.03-.05.013-.09-.04-.09s-.097.04-.097.09c0 .05.018.091.04.091.022 0 .066-.04.097-.09zm.319-.273a.091.091 0 0 0-.183 0 .091.091 0 0 0 .183 0zm-1.08-.072c-.148-.049-.13-.201.024-.201.086 0 .049-.091-.112-.274-.342-.39-.467-.354-.445.127.018.391.025.4.327.391.17-.005.263-.024.205-.043zm.169-.693c0-.02-.062-.06-.137-.088-.075-.029-.137-.013-.137.036 0 .048.062.088.137.088.075 0 .137-.016.137-.036zm-2.961-.693c.03-.05-.007-.09-.086-.09-.078 0-.142.04-.142.09 0 .05.039.091.086.091.047 0 .11-.04.142-.09zm9.884 2.39c0-.055.062-.16.137-.236.075-.075.137-.193.137-.262 0-.172.187-.343.375-.343.086 0 .174-.051.197-.114.022-.063.062-.093.09-.068.098.092-.259.682-.434.715a.739.739 0 0 0-.341.22c-.089.102-.16.141-.16.087z" style="fill:#000;stroke-width:.0911001"/>
</svg>
