<svg xmlns="http://www.w3.org/2000/svg" xml:space="preserve" width="210mm" height="297mm" viewBox="0 0 210 297">
  <path d="M202.653 245.907c-.076.043-.525-.1-.544-.064-.076.133-.279.05-1.344.108-.506.028-1.016.105-1.197.182-.256.108-.483.12-1.218.071-1.095-.074-2.047-.063-2.498.03-.185.037-.45.057-.588.043a10.116 10.116 0 0 0-.399-.03c-.08-.003-.147-.06-.147-.126 0-.213-.207-.196-.298.023-.077.186-.146.217-.525.234-.24.01-.436-.014-.436-.054 0-.109-.25-.336-.369-.336-.15 0-.484.331-.426.424.027.045-.104.08-.3.08-.259 0-.387-.049-.5-.187l-.15-.187-.253.27c-.182.195-.328.271-.518.271-.161 0-.45.12-.743.309-.283.182-.568.302-.698.293-.12-.007-.38.042-.575.11-.336.12-.363.117-.495-.043-.134-.164-.152-.165-.6-.032-.254.076-.48.164-.504.196-.023.033-.269.11-.546.173a4.355 4.355 0 0 0-.744.233.753.753 0 0 1-.817-.112c-.117-.106-.144-.095-.229.09-.053.116-.149.211-.213.211-.065 0-.264.063-.443.14a2.49 2.49 0 0 1-.533.163c-.223.027-.506-.173-.506-.358 0-.172-.178-.135-.226.048-.083.316-.866.314-.866-.002 0-.087-.038-.159-.084-.159-.046 0-.084.092-.084.204 0 .13-.06.224-.168.258-.092.03-.168.091-.168.138 0 .09-1.31.05-1.403-.044-.128-.128-.348-.032-.44.192-.128.307-.256.343-1.384.395-.504.024-.983.078-1.065.122-.197.105-1.059.1-1.125-.005-.033-.054-.119-.039-.234.042-.198.139-.527.168-.598.053-.025-.04-.395-.1-.822-.133-.493-.039-.89-.12-1.09-.221-.173-.088-.384-.16-.47-.16-.216 0-.793-.29-.721-.362.075-.074-.047-.066-.263.02-.117.045-.263.004-.476-.13a4.246 4.246 0 0 0-.84-.354c-1.249-.377-1.553-.459-1.792-.48a3.172 3.172 0 0 1-.462-.083c-.2-.056-.555-.116-1.595-.27-.254-.037-.509-.097-.565-.132-.057-.036-.174-.027-.26.02-.098.051-.187.053-.236.004-.085-.085-.514-.128-2.13-.212-.578-.03-1.087-.077-1.132-.104-.045-.028-.857-.061-1.806-.075-.948-.014-1.78-.048-1.85-.077-.069-.028-.541-.101-1.05-.162a57.38 57.38 0 0 1-1.217-.156 23.534 23.534 0 0 0-.717-.094c-.487-.056-1.008-.22-1.15-.363-.12-.12-.4-.13-.4-.014 0 .131-.349.099-.51-.047-.08-.072-.356-.153-.615-.18-.258-.026-.513-.1-.565-.162a.352.352 0 0 0-.236-.115c-.078 0-.299-.075-.49-.168-.191-.092-.412-.168-.491-.168-.08 0-.298-.089-.487-.198a2.424 2.424 0 0 0-.75-.251c-.223-.03-.506-.123-.63-.207a4.69 4.69 0 0 0-.714-.35c-.27-.107-.51-.246-.534-.308a.185.185 0 0 0-.157-.113c-.063 0-.153-.073-.2-.163a.538.538 0 0 0-.273-.22.931.931 0 0 1-.288-.153 8.578 8.578 0 0 0-.524-.388c-.231-.162-.464-.387-.516-.5a.934.934 0 0 0-.257-.32c-.089-.062-.161-.17-.161-.24 0-.111-.382-.642-.922-1.284-.094-.111-.17-.288-.17-.393a.52.52 0 0 0-.105-.305c-.197-.214-.301-.46-.36-.85-.032-.215-.09-.391-.13-.391-.186 0-.57-1.074-.577-1.62a.961.961 0 0 0-.12-.42c-.338-.537-.582-3.86-.386-5.224.04-.278.081-.712.091-.966.011-.254.048-.545.085-.646.036-.1.085-.44.109-.755.046-.622.178-1.55.295-2.084.293-1.332.42-1.803.533-1.98.158-.249.44-1.393.568-2.309.075-.527.134-.7.267-.784.135-.085.186-.086.236-.004.178.288.67 2.082.791 2.893.077.508.175 1 .217 1.092.043.092.116.603.163 1.134.047.531.124 1.25.172 1.595.048.347.107 1.688.132 2.982.025 1.293.05 2.446.055 2.561.004.116-.001.74-.012 1.386-.031 1.76-.04 1.687.234 1.883.133.095.33.186.436.202.107.017.209.074.227.127.017.054.112.097.21.097.097 0 .273.092.391.203.144.135.382.23.719.284.477.078.888.17 2.204.492.312.076.756.156.987.177.231.02.458.066.504.101.124.094.565.2.74.178a.39.39 0 0 1 .256.067c.057.048.215.076.352.064.136-.012.361.01.5.05.138.04.403.086.587.102.185.015.582.07.882.122.3.052.811.105 1.135.118.324.013.638.053.698.09.155.096 1.028.124 1.258.04.125-.046.292-.03.475.047.197.082.473.104.919.073.497-.035.682-.015.841.09.165.107.256.115.468.041a1.22 1.22 0 0 1 .573-.03c.17.035.48.074.688.087 1.464.092 2.402.23 2.89.423.256.101.341.107.392.026.075-.122.603.021 1.064.289.15.087.273.134.273.105 0-.028.111.005.247.076.137.07.34.128.453.128.113 0 .37.075.571.166.201.092.471.167.6.168.129.001.33.066.45.143.386.253 1.827.419 4.222.486.759.02 1.478.06 1.599.086.12.027.37-.004.552-.068.333-.116 1.027-.131 1.197-.026.05.03.193.007.32-.05.183-.083.238-.084.265-.001.042.125.415.14.456.018.015-.047.18-.09.364-.095.184-.005.395-.041.47-.079.074-.037.437-.09.806-.117.736-.052.859-.07 1.329-.2.178-.05.373-.057.443-.018.07.04.257.034.42-.01.162-.045.411-.065.553-.044.175.026.292-.005.36-.097.084-.113.13-.118.273-.03.225.137.397.133.453-.013.033-.085.254-.125.814-.147.612-.023.79-.06.876-.176.08-.11.226-.147.568-.147.254 0 .587-.044.742-.098.209-.073.289-.074.313-.002.037.113.757.04.928-.095.06-.048.312-.093.559-.1.48-.015.968-.174.968-.316 0-.048.072-.021.161.06.163.147.51.119.51-.04 0-.043.094-.035.208.017.141.064.242.068.315.01.059-.048.29-.088.512-.09.248-.002.462-.055.553-.137.168-.152.37-.17.591-.052.11.059.247.035.494-.084.189-.09.396-.165.462-.165s.256-.057.422-.126c.165-.07.444-.126.62-.126.174 0 .45-.041.61-.092.162-.05.691-.125 1.176-.167 1.185-.102 1.588-.164 1.643-.254.026-.041.193-.075.373-.075.187 0 .495-.09.721-.21.218-.116.465-.21.55-.21.086 0 .156-.037.156-.082 0-.046.092-.106.204-.134a.828.828 0 0 0 .349-.211c.08-.089.187-.16.239-.16.051 0 .163-.142.249-.316.01-2.764 3.791 8.705 1.52 8.55zm-10.874-.003c0-.092-.038-.167-.084-.167-.046 0-.084.075-.084.167 0 .093.038.168.084.168.046 0 .084-.075.084-.168zm-148.057 2.228c-.058-.07-.158-.128-.222-.128-.098 0-.54-.415-.984-.924-.27-.308-.636-1.272-.766-2.015-.077-.44-.217-.956-.31-1.149-.11-.224-.178-.55-.19-.909-.01-.307-.053-.584-.096-.615a.367.367 0 0 1-.11-.183 8.926 8.926 0 0 0-.39-1.217 70.02 70.02 0 0 1-.352-.945c-.07-.196-.162-.357-.203-.357-.04 0-.074-.054-.074-.12 0-.065-.15-.267-.335-.448-.185-.182-.336-.39-.336-.464 0-.074-.038-.157-.084-.186-.047-.028-.084-.11-.084-.18 0-.07-.19-.344-.42-.61-.231-.265-.42-.527-.42-.581 0-.054-.057-.099-.126-.099a.125.125 0 0 1-.126-.123c0-.067-.085-.167-.189-.222a.753.753 0 0 1-.254-.21c-.036-.06-.202-.135-.369-.166-.185-.035-.422-.176-.61-.364-.169-.17-.419-.349-.555-.4-.375-.137-1.011-.128-1.132.018a.442.442 0 0 1-.303.124c-.11 0-.2.032-.2.07 0 .134-.39.26-.491.16-.068-.067-.149-.063-.299.018-.113.06-.27.086-.347.056-.149-.057-1.076.086-1.304.2-.074.037-.327.069-.564.07-.237.003-.514.049-.617.104-.103.055-.43.112-.726.126-.772.037-1.002.104-1.193.347-.095.121-.169.165-.169.1 0-.07-.079-.03-.2.1-.11.119-.327.263-.483.32a5.74 5.74 0 0 0-.517.222c-.13.065-.488.16-.798.208-.66.106-1.25.238-1.487.334-.471.192-1.425.357-1.997.346a2.49 2.49 0 0 0-.672.109c-.373.121-1.554.246-2.11.223-.18-.007-.406-.069-.501-.136a.812.812 0 0 0-.397-.122c-.123 0-.27-.056-.328-.126a.384.384 0 0 0-.257-.126c-.084 0-.175-.036-.202-.08-.028-.044-.106-.059-.173-.033-.075.029-.124-.002-.124-.08 0-.07-.122-.199-.273-.288-.15-.088-.386-.328-.524-.533a6.955 6.955 0 0 0-.294-.413c-.231-.23-.64-1.185-.793-1.848a18.55 18.55 0 0 0-.228-.906c-.122-.398-.117-3.838.005-4.28.054-.197.093-.5.087-.672-.018-.488.083-1.943.17-2.456.044-.254.103-1.086.133-1.848.029-.762.066-1.518.083-1.68.097-.943.217-3.479.21-4.45-.007-1.205-.141-2.766-.265-3.09a1.459 1.459 0 0 1-.074-.433c0-.13-.057-.373-.127-.54-.125-.298-.327-.983-.461-1.564-.091-.392-.365-1.27-.588-1.886a5.986 5.986 0 0 1-.253-1.05c-.04-.302-.116-.757-.17-1.011a3.601 3.601 0 0 1-.041-1.008c.03-.3.053-.716.05-.924-.012-.67.136-1.627.311-2.015.094-.208.193-.505.22-.66.028-.154.145-.393.26-.53.116-.138.211-.338.211-.444 0-.106.047-.232.105-.28.058-.048.18-.283.273-.521.092-.239.234-.505.315-.592.08-.086.147-.192.147-.235 0-.042.054-.122.12-.177.067-.055.145-.21.175-.346.06-.275.138-.307.293-.12.125.151-.018.573-.251.738-.079.056-.17.243-.202.416-.032.174-.092.315-.133.315-.135 0-.286.897-.2 1.194.102.359.34.412.416.093.031-.13.165-.471.297-.758.132-.287.242-.57.244-.63.002-.06.115-.24.252-.4.137-.16.249-.334.249-.388 0-.054.056-.145.126-.202a.39.39 0 0 0 .126-.263c0-.086.047-.159.104-.16.248-.006.458-.304.504-.711.026-.228.09-.429.141-.446.052-.017.17-.18.262-.36.11-.214.225-.328.334-.328.113 0 .166-.056.166-.177 0-.12.04-.162.123-.13.146.057.465-.316.465-.544 0-.086.057-.157.126-.157.07 0 .126-.074.126-.165 0-.09.077-.206.17-.256.094-.05.148-.127.121-.17-.027-.045.028-.08.122-.08s.233-.095.309-.21c.076-.117.294-.28.485-.365.19-.085.398-.217.462-.294.063-.076.159-.14.213-.14.053 0 .149-.174.212-.388.072-.246.172-.404.27-.43.085-.022.155-.071.155-.11 0-.037.07-.09.156-.117.085-.027.198-.143.25-.257.052-.115.148-.209.213-.209s.137-.075.161-.166c.024-.091.151-.213.283-.272.131-.058.428-.3.659-.536.358-.368.478-.438.819-.48.446-.054.523.051.223.308-.137.117-.161.2-.112.375.086.301.051.861-.061.997-.05.06-.074.221-.054.36.02.137-.003.267-.053.287-.054.023-.049.04.015.044.16.011.125.585-.062.997-.098.216-.182.632-.208 1.036-.045.701-.242 1.204-.442 1.128-.059-.023-.107-.005-.107.037 0 .043-.057.057-.128.03-.107-.041-.105-.009.017.202.125.218.13.298.039.602-.058.193-.179.425-.269.515-.105.105-.163.278-.163.489 0 .179-.088.528-.197.776-.108.249-.263.608-.344.799-.081.19-.237.388-.347.438a.534.534 0 0 0-.255.324c-.067.278-.576 1.002-.782 1.112-.2.108-.621.732-.56.831.029.046-.022.062-.118.037-.135-.035-.168-.002-.168.166a.462.462 0 0 1-.126.314c-.07.057-.126.159-.126.226 0 .14-.215.379-.31.344-.035-.014-.098.089-.139.227a2.217 2.217 0 0 1-.148.378c-.04.07-.146.26-.235.425-.09.164-.26.343-.38.397-.123.056-.216.168-.216.26 0 .251-.558 1.363-.764 1.522-.03.023-.08.16-.112.306a.896.896 0 0 1-.216.408.832.832 0 0 0-.21.376 1.691 1.691 0 0 1-.256.511c-.113.154-.207.319-.208.368-.002.048-.076.24-.165.424-.208.431-.21.409.084 1.596.137.554.25 1.223.25 1.485 0 .263.045.584.097.714.053.13.125.388.162.572.036.185.11.487.164.672.054.185.174.752.266 1.26.17.935.331 1.578.547 2.176.066.181.121.56.124.84.002.281.06.946.13 1.477.068.531.14 1.457.16 2.057.044 1.33.148 2.03.332 2.234.077.084.119.207.094.273-.025.065.006.265.07.444.064.178.117.277.12.22.002-.058.06-.105.127-.105.127 0 .262.354.227.591-.011.072.076.213.193.315.116.101.212.24.212.31 0 .138.503.38.791.38.251 0 .383.153.392.457l.008.256.08-.281c.07-.238.11-.273.266-.228.746.218 1.172.293 1.381.242.134-.032.237.013.351.153.146.179.167.184.219.051.056-.145.291-.21.291-.08 0 .125 1.029.172 1.295.058.106-.046.142-.04.105.02-.068.11.28.21.401.114.167-.13 1.533-.192 1.718-.077.134.084.228.085.452.003.371-.134.521-.129.648.024a.38.38 0 0 0 .253.126c.082 0 .17.056.197.126.076.198.192.148.309-.134.088-.211.088-.272 0-.327-.06-.036-.084-.107-.053-.156.094-.152.28-.015.332.244.057.285.265.33.332.07.026-.097.085-.152.132-.123.047.029.128-.028.181-.127.07-.13.121-.154.19-.086.05.051.28.093.509.093.294 0 .523.062.778.212.256.15.478.21.763.206.775-.01 1.365.07 1.499.205a.484.484 0 0 0 .29.133c.086 0 .18.038.209.084.028.046.162.084.297.084.134 0 .368.075.52.167.15.092.333.168.404.168.07 0 .26.07.42.156.836.447 1.302.712 1.34.76.023.028.193.127.378.219s.366.214.403.272a.242.242 0 0 0 .179.105c.061 0 .158.057.215.126.058.069.3.237.54.374.571.327 2.301 2.032 3.03 2.985l.577.756.049.882c.051.919.162 1.261.406 1.257.257-.004 1.298-.315 1.353-.404.071-.115.476-.265.713-.265.104 0 .275-.091.38-.202a1 1 0 0 1 .468-.254c.153-.029.367-.121.475-.206.109-.084.237-.14.284-.123.048.017.445-.159.882-.39.438-.232.852-.445.921-.473.667-.272 1.232-.47 1.4-.487a.585.585 0 0 0 .3-.12.35.35 0 0 1 .21-.097c.061 0 .133-.056.16-.126.026-.069.094-.126.15-.126.057 0 .191-.094.3-.21.108-.115.28-.21.383-.21.102 0 .29-.053.416-.119.126-.065.277-.1.335-.079.058.023.184-.06.28-.181.096-.122.21-.2.252-.175.043.027.178-.03.3-.127.187-.147.244-.157.355-.065.11.092.149.089.228-.018.19-.254.77-.58 1.03-.58.151 0 .286-.05.311-.117.025-.065.168-.145.317-.178.15-.033.52-.187.825-.343.304-.156.594-.284.645-.285.05 0 .249-.113.44-.252.191-.138.414-.252.496-.252.08 0 .26-.07.4-.154a2.61 2.61 0 0 1 .84-.305c.095-.014.443-.174.629-.291.07-.044.246-.134.393-.201.227-.104.275-.105.313-.005.071.186.19.136.298-.125.108-.263.66-.57.876-.488.068.027.222-.028.34-.122.12-.093.264-.153.321-.134.057.02.268-.034.468-.12.2-.084.437-.154.526-.154.148 0 .311-.065.664-.266.07-.039.183-.093.252-.12.07-.027.202-.081.294-.12.355-.15.512-.16.737-.043.302.157.402.112.607-.27.102-.192.24-.325.353-.341a.312.312 0 0 0 .236-.19c.033-.102.128-.162.257-.162a.854.854 0 0 0 .351-.082c.08-.044.401-.193.713-.33.312-.137.567-.287.567-.333 0-.045.085-.095.188-.11.104-.015.201-.096.217-.18.036-.188-.21-.476-.408-.476-.237 0-.738-.24-.824-.395-.068-.12-.102-.126-.214-.033-.087.072-.229.091-.407.054a7.855 7.855 0 0 0-.814-.092c-.297-.019-.578-.073-.625-.12-.047-.048-.189-.086-.314-.086-.126 0-.241-.04-.257-.087-.016-.048-.195-.144-.398-.214a2.378 2.378 0 0 1-.568-.284c-.11-.086-.36-.183-.554-.215-.316-.053-.588-.16-.985-.388a1.924 1.924 0 0 0-.252-.118 9.275 9.275 0 0 1-.547-.252c-.231-.113-.46-.206-.507-.206-.048 0-.253-.17-.457-.378-.204-.207-.425-.377-.492-.377-.066 0-.282-.133-.48-.294-.197-.162-.4-.294-.453-.294-.15 0-.978-.555-1.246-.836-.135-.141-.275-.256-.312-.256-.102 0-.628-.419-.628-.5 0-.092-.615-.695-1.202-1.18-.251-.208-.556-.531-.675-.719a3.748 3.748 0 0 0-.547-.635c-.18-.163-.39-.415-.466-.562-.076-.147-.194-.267-.262-.267s-.124-.048-.124-.105c0-.058-.11-.221-.242-.363a2.835 2.835 0 0 1-.377-.52c-.075-.145-.192-.295-.26-.333-.069-.038-.234-.296-.369-.573a6.018 6.018 0 0 0-.668-1.011c-.233-.28-.451-.619-.484-.754-.033-.136-.203-.403-.377-.595a3.857 3.857 0 0 1-.485-.672 2.695 2.695 0 0 0-.34-.507c-.095-.1-.26-.352-.364-.558l-.609-1.202c-.23-.455-.518-.979-.64-1.163a3.717 3.717 0 0 1-.336-.66 1.617 1.617 0 0 0-.298-.506c-.1-.1-.209-.322-.24-.493a1.148 1.148 0 0 0-.245-.501c-.176-.182-.538-.969-.856-1.86-.08-.223-.186-.45-.236-.503-.263-.28-.562-.86-.727-1.409-.103-.34-.237-.649-.3-.686-.062-.037-.113-.145-.113-.24 0-.096-.091-.35-.203-.563a9.125 9.125 0 0 1-.436-1.103c-.128-.393-.28-.79-.337-.882-.058-.092-.222-.64-.364-1.218a19.776 19.776 0 0 0-.415-1.47 9.358 9.358 0 0 1-.3-1.175c-.08-.416-.198-.945-.261-1.176a10.53 10.53 0 0 1-.201-.966c-.047-.3-.16-.961-.252-1.47-.27-1.495-.405-2.542-.456-3.527a35.563 35.563 0 0 0-.216-2.225c-.093-.716-.17-1.654-.17-2.084 0-.43-.038-1.034-.085-1.343-.079-.523-.36-3.477-.503-5.307a23.03 23.03 0 0 0-.161-1.428 38.375 38.375 0 0 1-.338-2.984 25.85 25.85 0 0 0-.172-1.586c-.05-.317-.067-.737-.038-.935.03-.198.012-.559-.04-.803-.166-.768-.12-4.107.08-5.83.345-2.994.423-3.51.613-4.07.071-.208.171-.616.223-.906.051-.29.171-.706.266-.924a7.83 7.83 0 0 0 .293-.816c.134-.464.18-.581.433-1.133.095-.208.199-.481.23-.607.087-.354.43-1.167.556-1.317.13-.155.456-.942.542-1.31.032-.138.084-.27.114-.293.031-.024.143-.231.248-.462.455-.995.571-1.197.902-1.564.3-.332.53-.82.532-1.125 0-.046.085-.18.19-.298.196-.223.354-.485.748-1.241.4-.767.582-1.021.82-1.145.148-.076.284-.257.378-.501.08-.21.18-.383.223-.383.042 0 .077-.056.077-.126 0-.069.126-.267.28-.44.153-.174.396-.524.54-.778.143-.254.43-.65.639-.881.208-.231.442-.59.52-.798.078-.208.205-.435.282-.504a6.33 6.33 0 0 0 .492-.594c.193-.258.447-.519.563-.581.116-.062.21-.164.21-.225s.038-.112.084-.112c.045 0 .215-.274.376-.609.277-.575 1.007-1.436 1.766-2.083.376-.32.881-.921 1.062-1.264.142-.267.163-.517.18-2.141.012-1.219-.018-2.037-.09-2.427-.06-.323-.144-.885-.188-1.25a24.471 24.471 0 0 0-.2-1.3c-.116-.618-.102-1.06.036-1.146.037-.023.264.365.505.862.241.496.485.96.542 1.029.057.069.25.407.43.75.18.345.39.698.466.785.076.087.259.403.405.7.147.298.349.632.45.742.358.395.46.535.517.717.033.103.147.316.255.474.107.159.222.41.254.558.032.149.163.46.292.692.128.233.259.61.29.84.032.23.114.629.184.887.242.902 0 2.576-.528 3.659-.165.34-.33.617-.367.617-.037 0-.092.098-.122.217-.03.12-.14.299-.243.399-.104.1-.394.465-.645.812-.251.346-.518.686-.593.755a1.45 1.45 0 0 0-.24.323c-.15.283-.376.543-1.212 1.396-.41.417-.822.872-.918 1.01-.196.284-.591.762-1.034 1.253-.163.18-.385.504-.494.72-.11.214-.258.44-.33.5-.074.06-.133.156-.133.213 0 .056-.123.231-.273.388-.369.387-.742.885-.945 1.263l-.409.76c-.132.245-.397.692-.588.992l-.453.714a2.89 2.89 0 0 0-.197.4c-.05.126-.122.23-.16.23-.037 0-.251.369-.474.819-.224.45-.432.83-.464.845-.032.015-.122.222-.2.462-.079.24-.183.487-.233.55-.05.063-.228.384-.395.714-.167.33-.569 1.11-.892 1.733-.324.624-.695 1.436-.825 1.806-.13.37-.285.785-.345.923-.255.593-.73 2.07-.875 2.73-.088.392-.253 1.11-.368 1.595-.509 2.146-.37 7.106.295 10.498.05.254.122.764.162 1.134.039.37.127 1.03.196 1.47.452 2.897.657 4.869.896 8.607.048.74.123 1.628.167 1.974.3 2.319.354 2.62.846 4.619.096.393.202.922.234 1.176.032.254.11.556.175.672.065.115.165.436.223.713.058.277.221.84.362 1.25.141.41.257.81.257.888 0 .078.113.376.252.662.138.286.252.558.252.603 0 .111.656 1.684.75 1.798.04.05.084.241.097.426.013.186.087.392.166.462.078.07.418.674.755 1.344s.653 1.27.703 1.332c.125.16.654 1.12.978 1.775.149.3.397.7.552.89.155.19.282.375.282.41 0 .037.151.241.336.454.532.612.57.659.668.843.052.096.215.298.364.448.149.15.511.553.805.895.294.343.719.769.944.947.225.178.41.354.41.392 0 .037.086.113.19.17.106.056.266.214.358.35.091.137.327.35.525.476.197.125.415.314.484.42.07.104.257.245.418.313.16.067.292.157.292.2 0 .044.103.106.228.137a.68.68 0 0 1 .341.22c.104.15.615.458.817.494.046.007.14.063.21.122.132.113.38.226.582.266.066.014.217.102.336.196.283.224.912.552 1.2.623.125.032.39.166.587.298.198.132.455.267.57.298.27.075.421.138 1.114.47.313.148.672.27.798.27.126-.001.334.052.46.117.128.065.232.094.232.064s.048-.014.108.036c.06.05.371.13.693.181.321.05.777.185 1.013.298.235.114.487.207.56.207.072 0 .146.044.163.097.038.115.822.33.822.226 0-.133.279-.07.646.144.201.118.431.207.51.197.08-.01.252.026.382.08.13.053.281.097.336.098.055 0 .267.059.47.13.381.133 1.17.312 2.065.468.277.049.552.129.612.177.097.08.622.199 1.193.27a4.6 4.6 0 0 1 .686.197c.262.094.493.153.514.132.037-.037.306.056.716.247.144.067.238.064.362-.014.137-.085.215-.08.425.024.141.07.29.108.328.084.04-.024.19.017.334.091.144.075.32.113.392.086.072-.028.22.009.331.082.11.072.436.145.723.162.287.016.749.089 1.026.16.277.073.614.133.75.135a.703.703 0 0 1 .399.142c.104.095.282.135.552.125.376-.014 1.1.151 1.509.345.139.066.22.059.324-.027.12-.1.16-.089.297.08.087.108.163.173.169.145.005-.029.016-.099.023-.157.007-.057.068-.096.136-.086.352.052.656.135.912.25.19.086.396.11.625.073.484-.078 1.148.234 1.149.539v.211l.213-.247c.165-.192.279-.246.508-.24.367.011.805.185.738.294-.028.044.067.02.21-.054.145-.074.262-.097.262-.05 0 .053.186.065.505.032.402-.042.536-.025.657.085.113.102.263.128.586.1.3-.025.47 0 .55.081.108.107.709.16 1.313.117.658-.048 1.848.19 1.848.371 0 .043.055.032.122-.024.096-.079.247-.078.693.002a6 6 0 0 0 1.043.089c.416-.014.478.005.519.161.04.153.07.164.227.08.099-.053.237-.075.306-.048a.39.39 0 0 0 .278-.034c.116-.062.227-.032.456.124.23.155.303.175.303.082 0-.079.084-.124.23-.124.128 0 .332-.053.455-.117.234-.122.407-.047.407.176 0 .145.172.138.39-.014.286-.2.826-.253 1.042-.101.167.117.218.117.504.003.234-.094.361-.105.483-.04.116.063.303.06.638-.011.366-.077.534-.077.74 0 .222.085.29.08.414-.033.105-.095.23-.12.425-.082.397.076 1.202.055 1.698-.044.617-.124 1.585-.155 1.706-.055.114.094.301.064.827-.132.189-.07.737-.153 1.218-.183.48-.031.912-.085.958-.12.046-.036.235-.113.42-.17a2.16 2.16 0 0 0 .42-.171c.046-.035.273-.085.504-.11.69-.076 1.325-.196 1.637-.31l.714-.26a8.68 8.68 0 0 1 .84-.247c.231-.052.54-.148.685-.213a1.46 1.46 0 0 1 .346-.117c.045 0 .13-.057.187-.126a.393.393 0 0 1 .265-.126.844.844 0 0 0 .369-.137.617.617 0 0 1 .442-.09c.174.035.26.005.335-.115.056-.09.175-.162.264-.162.09 0 .185-.037.213-.082.028-.045.21-.154.404-.242a2.3 2.3 0 0 0 .528-.328c.097-.093.404-.253.683-.354.341-.125.545-.254.62-.396.062-.115.46-.47.883-.789.423-.318.792-.636.818-.706.03-.075.154-.127.304-.127.166 0 .254-.042.254-.122 0-.067.054-.152.12-.189.065-.036.34-.35.613-.697.543-.69.754-1.209.829-2.034.026-.29.081-.603.123-.695.042-.092.112-.539.157-.993.073-.751.066-.848-.083-1.091a1.357 1.357 0 0 1-.163-.63c0-.198-.033-.34-.073-.316-.077.047-.203-1.473-.195-2.345.01-1.159.283-2.613.602-3.208.093-.174.17-.4.17-.503 0-.232.169-.614.271-.614.042 0 .07-.085.061-.189-.043-.542.006-.672.4-1.033.35-.32.395-.401.373-.661-.038-.442.05-.636.286-.636.113 0 .204-.04.204-.089 0-.049.111-.228.247-.399.135-.17.31-.48.39-.688.08-.208.253-.494.386-.636a.832.832 0 0 0 .253-.574c.011-.3.053-.353.47-.6a.715.715 0 0 0 .061-.21.794.794 0 0 1 .238-.369c.11-.095.26-.306.332-.469.141-.314.45-.711.555-.711.034 0 .128-.066.209-.147.08-.081.173-.147.206-.147.032 0 .13-.132.217-.294.122-.227.21-.294.392-.294.212 0 .238-.034.289-.372.03-.204.036-.404.011-.444-.024-.04.038-.079.139-.086.18-.014.56-.4.56-.57.001-.112.462-.386.597-.356.057.012.13-.1.162-.248.075-.344.303-.695.451-.695.063 0 .16.056.218.126.17.203.23.148.23-.212 0-.303.233-.74.338-.634.02.02.127-.064.236-.188l.199-.226.002.29c.003.398.18.216.21-.218.03-.42.248-1.16.418-1.42.164-.25.382-.267.443-.034.055.21.317.185.317-.028 0-.082.042-.176.092-.21.088-.056.217-.417.247-.69.027-.24.56-1.091.683-1.091a.819.819 0 0 0 .306-.101.87.87 0 0 1 .308-.105c.085-.002.153-.172.22-.55.13-.735.286-1.143.38-.995.057.09.071.087.072-.017.001-.11.312-.755.95-1.97.074-.138.178-.373.232-.523.054-.15.133-.251.174-.226.04.026.097-.022.124-.106.027-.083.081-.227.12-.32a8.58 8.58 0 0 0 .195-.546c.167-.517.32-.837.404-.85.038-.005.108-.02.154-.032a2.19 2.19 0 0 1 .158-.031c.11-.016.183-.366.098-.468-.127-.153-.025-.957.154-1.208.23-.322.456-1.32.346-1.525-.058-.109-.049-.294.03-.6.062-.243.131-.387.154-.32.023.067.07-.17.104-.526.034-.357.04-.683.014-.725-.026-.042.011-.194.083-.338.071-.144.103-.305.07-.358-.033-.054-.071-.48-.085-.946a56.813 56.813 0 0 0-.124-2.15c-.117-1.539-.136-2.157-.19-6.256-.032-2.369-.017-3.166.063-3.359.057-.14.107-.569.11-.955.005-.926.196-1.372.568-1.337.23.021.255-.001.28-.258.016-.172-.006-.262-.057-.23-.046.028-.101-.015-.122-.097-.024-.092-.043-.06-.049.083-.005.127-.057.231-.114.231-.073 0-.105-.16-.105-.525 0-.501.009-.525.21-.534.115-.004.252-.014.305-.02.052-.007.297-.201.543-.432.246-.231.472-.42.503-.42.088 0 .147-.306.08-.415-.044-.07-.088-.064-.162.024-.122.148-.487.25-.614.17-.064-.039-.053-.086.033-.15.2-.146.403-.604.403-.91 0-.156.056-.356.124-.446a.69.69 0 0 0 .126-.342.23.23 0 0 1 .17-.223c.148-.039.168-.115.168-.645 0-.642.081-.876.386-1.116.256-.2.476-.649.378-.768-.098-.118-.04-.877.077-1.018a.254.254 0 0 1 .238-.068c.18.048.612-.297.454-.362-.146-.061-.132-.198.02-.198.07 0 .127-.057.127-.126 0-.07.053-.126.117-.126.124 0 .255-.243.175-.324-.026-.026-.118-.004-.203.05-.085.053-.178.073-.206.045-.089-.088-.056-.712.054-1.024.144-.413.302-.589.685-.764.263-.121.333-.202.356-.41.02-.182-.018-.288-.126-.356-.149-.093-.149-.106 0-.413.148-.307.16-.314.411-.22.235.089.274.078.422-.112.28-.36.105-.853-.197-.552-.214.214-.239-.228-.031-.557.31-.493.39-.67.39-.86 0-.105.147-.337.336-.53.185-.188.336-.418.336-.51 0-.287.095-.433.282-.436.19-.002 1.012-.662.83-.666-.15-.003-.142-.896.01-.986.062-.036.174-.18.248-.319.125-.233.135-.237.138-.058.002.108.04.171.087.142.047-.028.084-.129.084-.224 0-.116.04-.156.124-.124.078.03.177-.044.27-.201.08-.137.173-.248.206-.248.089 0 .328-.513.278-.595-.024-.04-.136-.036-.248.006-.116.044-.223.045-.25.003-.024-.04.003-.091.06-.112.085-.03.085-.075-.001-.22-.125-.211-.069-.358.11-.29.068.027.124.006.124-.045s.056-.093.126-.093c.09 0 .126-.093.126-.33 0-.181.056-.387.125-.456.143-.142.17-.39.042-.39a.084.084 0 0 1-.083-.084c0-.046.056-.084.126-.084.069 0 .126-.04.126-.089 0-.049-.034-.068-.075-.042-.126.077-.276-.183-.25-.431.013-.13-.007-.288-.047-.351-.048-.077-.024-.143.07-.196.1-.056.118-.11.058-.182-.058-.07-.052-.214.018-.45.103-.35.225-.552.225-.372 0 .054.057.098.126.098.07 0 .126-.055.126-.122s.066-.159.147-.204c.126-.07.144-.196.13-.886-.011-.442.016-.804.057-.804.106 0 .041-.918-.073-1.032-.113-.113-.123-.45-.015-.517.043-.027.095.018.116.1.036.136.04.136.048-.005.013-.199.196-.14.303.096.046.101.131.184.19.184.082 0 .097-.146.063-.61-.025-.334-.065-.671-.09-.748-.027-.089.013-.155.108-.18.139-.036.14-.04.003-.048-.162-.01-.196-.257-.069-.494.41-.76.547-1.178.537-1.635-.01-.399.013-.485.127-.486.119 0 .12-.013.016-.08-.103-.064-.107-.124-.021-.36.056-.157.102-.417.102-.58 0-.655.579-1.785.834-1.628.078.049.063-.345-.017-.424-.025-.025-.122.003-.217.062-.268.168-.294.043-.104-.494.097-.272.176-.589.176-.704 0-.115.066-.283.148-.372.18-.2.356-.583.355-.776 0-.079-.054-.245-.119-.37a.702.702 0 0 1 .037-.697c.201-.278.428-1.128.404-1.51-.019-.292.003-.416.073-.402.11.021.154-.096.239-.639.041-.266.026-.386-.055-.436-.088-.055-.07-.127.091-.344.238-.322.356-.948.231-1.222-.071-.157-.054-.22.095-.348.122-.107.18-.255.18-.458 0-.404.195-1.126.412-1.531.097-.181.177-.41.177-.51 0-.099.101-.402.226-.673.124-.271.291-.72.372-.997.342-1.184.563-1.74.664-1.678.066.041-.047.748-.145.907a.519.519 0 0 0-.038.284.7.7 0 0 1-.069.357c-.054.1-.059.172-.012.172.044 0 .099-.047.122-.105.023-.057.046-.03.05.063.012.2.243.502.439.57.117.041.126.1.058.37-.044.176-.102.943-.129 1.706-.03.877-.088 1.462-.156 1.595-.094.182-.086.247.059.483.14.227.153.318.08.546-.084.257-.061.452.12 1.05.032.104.091.189.132.189.04 0 .074.09.074.2 0 .38.106.724.223.724.094 0 .09.042-.024.216-.101.154-.143.401-.145.86-.003.674.025.862.143.949.039.028.107.368.15.755.045.388.104.761.132.83a.95.95 0 0 1 .033.343c-.01.12.041.266.113.325.08.066.111.18.082.297-.032.126-.003.205.085.24.09.034.132.158.132.384 0 .236.048.367.164.448.112.079.19.284.25.656.08.489.073.553-.069.667-.173.139-.223.633-.074.726.05.03.158-.025.24-.125.08-.1.166-.181.19-.181.055 0 .2.734.272 1.386.03.277.09.547.133.6.142.179-.01 4.112-.18 4.69a5.144 5.144 0 0 0-.126.658 3.79 3.79 0 0 1-.166.713c-.064.17-.16.573-.213.897-.095.58-.383 1.659-.685 2.567-.086.257-.156.526-.156.598 0 .12-.173.569-.463 1.202-.064.138-.367.894-.675 1.68-.308.785-.654 1.567-.769 1.738-.115.17-.368.662-.562 1.091-.194.43-.492.984-.662 1.23a3.77 3.77 0 0 0-.43.84c-.065.215-.348.788-.627 1.273-.28.485-.666 1.184-.858 1.554-.193.37-.437.774-.542.9a1.96 1.96 0 0 0-.295.54c-.056.171-.286.593-.51.937-.225.344-.41.674-.41.734 0 .06-.13.28-.288.488-.16.208-.33.528-.379.71-.05.183-.146.38-.215.437-.07.057-.185.298-.257.534a6.18 6.18 0 0 1-.374.892 10.94 10.94 0 0 0-.34.696c-.075.181-.134.221-.265.18-.16-.051-.166-.028-.115.453.052.487.04.528-.271 1.01-.273.423-.333.597-.374 1.091-.028.324-.116.714-.197.868-.164.311-.267.829-.34 1.707-.026.323-.1.662-.164.753a.636.636 0 0 0-.115.277c0 .062-.075.266-.166.454-.124.257-.144.382-.079.503.128.24.108 1.19-.043 2.039-.153.86-.231 1.806-.252 3.07a19.684 19.684 0 0 1-.123 1.76c-.101.817-.09 1.643.04 2.765.039.334.023.47-.061.522-.083.052-.129.007-.167-.157-.048-.208-.054-.202-.063.076-.005.182.042.348.12.412.09.075.102.134.041.195a.386.386 0 0 0-.087.239c0 .083-.038.15-.084.15-.046 0-.16.076-.251.168-.16.16-.162.183-.031.51.113.282.118.376.032.538-.09.167-.082.23.051.412.21.288.283.275.284-.052.001-.208.021-.243.083-.147.054.084.082.09.083.02.002-.17.135-.12.227.085.11.246-.048 1.154-.202 1.154-.063 0-.105.096-.101.231.003.127.026.184.049.126.071-.176.211-.116.153.066-.03.094-.053.528-.052.964 0 .658-.023.807-.14.873-.13.073-.126.1.046.333.104.14.165.312.137.385a.277.277 0 0 0 .044.245c.07.085.062.175-.032.356-.147.281-.163.452-.044.452.046 0 .084-.056.084-.126 0-.069.038-.126.084-.126.047 0 .084.239.084.547 0 .301.047.622.104.714.085.136.068.337-.095 1.111-.11.52-.228 1.135-.263 1.366-.034.23-.218.783-.408 1.227-.19.445-.346.886-.346.98 0 .096-.089.28-.198.41-.243.291-.408.623-.558 1.12-.062.208-.164.437-.225.51-.06.073-.11.168-.11.21 0 .043-.159.304-.352.581-.193.278-.44.637-.548.798-.287.427-.574.762-1.305 1.525-.358.373-.651.708-.651.743 0 .055-1.336 1.256-1.923 1.728-.11.088-.318.26-.462.38a3.848 3.848 0 0 1-.621.404c-.199.1-.383.238-.408.305-.026.067-.117.122-.201.122-.085 0-.178.038-.206.084-.029.046-.143.084-.255.084-.127 0-.27.093-.388.252-.114.153-.262.252-.38.252-.108 0-.195.042-.195.093 0 .05-.057.071-.126.044-.07-.026-.126-.011-.126.033a.08.08 0 0 1-.08.082c-.043 0-.181.094-.306.21-.124.115-.26.21-.3.21-.04 0-.223.094-.406.21-.182.115-.41.21-.504.21-.1 0-.21.085-.265.207-.104.227-.238.208-.238-.034a.375.375 0 0 0-.12-.253c-.096-.08-.157-.064-.295.074-.198.198-.245.206-.554.088-.145-.055-.208-.128-.177-.207.026-.067.007-.146-.04-.175-.047-.03-.106.024-.13.118a.293.293 0 0 1-.224.198c-.218.031-.34.572-.267 1.18.029.236.015.4-.033.4-.044 0-.093.122-.108.272-.02.206-.062.267-.173.248-.08-.013-.147.015-.147.063 0 .049-.066.09-.147.09-.145.003-.693.647-.693.815 0 .18-.233.29-.412.195-.138-.074-.163-.069-.126.027.025.066.01.143-.036.17-.045.028-.063.121-.04.207.024.094-.013.177-.093.207-.099.038-.133.17-.133.52 0 .287-.06.595-.158.796-.195.404-.134.882.113.883.087 0 .173.047.193.105.019.057-.033.104-.115.104-.14 0-.139.006.006.114.17.124.127.39-.063.39-.124 0-.397.51-.395.738.001.117.016.122.077.025.055-.087.098-.032.166.21.05.181.091.376.091.434 0 .058.041.105.09.105.049 0 .064.04.033.09-.03.05.021.172.115.273.15.162.172.309.189 1.274.017 1.015.12 1.54.338 1.722.028.023.076.266.108.54.031.274.095.544.141.6.227.274.398 5.404.194 5.839-.202.43-.283.679-.283.862 0 .323-.265 1.003-.517 1.325-.131.168-.24.348-.24.4 0 .157-1.005 1.226-1.627 1.73-.172.138-.47.403-.665.587a5.242 5.242 0 0 1-.587.488.904.904 0 0 0-.313.357c-.11.286-1.51 1.662-1.826 1.793-.143.059-.442.277-.664.484-.905.842-2.09 1.604-2.344 1.506-.078-.03-.158.027-.216.153-.056.125-.239.256-.48.346-.214.08-.467.215-.562.301-.096.087-.21.157-.252.157-.104 0-1.303.49-1.418.579-.126.098-.451.182-.872.226-.2.02-.522.115-.714.21-.406.2-1.095.352-1.694.374a2.474 2.474 0 0 0-.672.118c-.331.135-1.072.255-1.595.259a2.154 2.154 0 0 0-.755.162c-.236.111-.367.133-.44.072-.07-.059-.23-.057-.504.006-.748.174-4.575.26-5.44.122a9.153 9.153 0 0 0-1.112-.07c-.382 0-.693-.027-.693-.058 0-.031-.218-.053-.483-.049-.474.007-1.585-.116-2.415-.27-.23-.043-.75-.121-1.155-.175-.404-.053-.754-.127-.777-.164-.023-.037-.236-.069-.474-.07-.238-.003-.456-.034-.483-.072-.028-.037-.296-.075-.596-.085-.87-.027-1.624-.104-1.805-.184-.21-.092-1.175-.268-1.655-.302a6.965 6.965 0 0 1-.907-.158l-1.05-.253a10.891 10.891 0 0 1-.545-.14 2.667 2.667 0 0 0-.378-.038c-.445-.025-.676-.073-1.158-.239-.221-.076-.476-.138-.567-.138-.09 0-.165-.03-.165-.07 0-.037-.308-.116-.683-.173-.425-.065-.773-.17-.919-.279-.169-.125-.477-.202-1.1-.277-.84-.101-1.343-.23-1.56-.399-.07-.055-.105-.05-.105.014 0 .153-.4.04-.674-.19-.189-.16-.317-.2-.54-.173-.237.03-.31.001-.394-.153a.904.904 0 0 1-.086-.42c.01-.127-.003-.231-.026-.231-.024 0-.194.155-.378.344-.328.338-.341.343-.761.285-.236-.032-.447-.11-.471-.17a.125.125 0 0 0-.162-.067c-.067.025-.12-.004-.12-.068-.001-.15-.796-.417-.908-.306-.12.121-.445-.01-.43-.172.04-.406-.054-.443-.427-.168l-.247.183-.17-.195c-.092-.108-.168-.263-.168-.346 0-.254-.133-.252-.493.009-.397.288-.45.297-.718.122-.128-.085-.215-.245-.25-.462-.056-.355-.177-.422-.345-.192-.085.115-.26.142-.956.147-.74.005-.858-.014-.898-.141-.026-.081-.082-.147-.125-.147s-.078-.07-.078-.154c0-.233-.096-.282-.26-.133-.189.17-.696.234-1.126.141l-.336-.072.019-.563c.01-.31.005-.563-.012-.563s-.112.174-.212.387c-.167.353-.202.381-.409.328a5.52 5.52 0 0 0-.632-.102c-.455-.048-.765-.183-.778-.34a31.675 31.675 0 0 1-.021-.28c-.011-.154-.027-.16-.139-.047-.143.144-.166.306-.042.306.047 0 .084.076.084.168 0 .192-.004.194-.27.093-.136-.052-.245-.04-.353.038-.111.082-.2.09-.313.03a.302.302 0 0 0-.303-.002c-.104.058-.185.046-.28-.04-.118-.106-.165-.106-.37 0-.222.116-.246.11-.398-.083-.089-.113-.196-.184-.239-.157-.124.077-.085.401.072.591.138.167 1.563 1.118 2.056 1.372.252.13 1.409 1.078 1.512 1.24.085.131.549.594.678.675.166.105.63 1.051.862 1.758.188.572.21.76.176 1.433-.047.884-.218 1.331-.685 1.784-.336.326-.71.413-1.95.458-.614.022-.782.003-.819-.093-.04-.105-.07-.104-.227.005a.583.583 0 0 1-.4.084c-.12-.023-.52.027-.89.112-.515.118-.859.142-1.47.105-.558-.034-.863-.017-1.017.057-.12.058-.412.121-.649.14-.236.019-.477.071-.536.117-.168.13-.952.36-1.23.36-.138 0-.304.054-.37.12-.103.103-.139.096-.264-.05-.127-.149-.161-.154-.286-.048-.2.171-.42.237-.479.143-.068-.11-.52-.102-.59.01-.03.05-.14.07-.243.045a.459.459 0 0 0-.348.074c-.248.188-.42.15-.668-.146-.31-.372-.517-.444-.59-.206-.063.206-.216.365-.56.587-.128.081-.232.22-.232.308 0 .253-.38.504-.652.431-.126-.034-.233-.115-.238-.181a24.15 24.15 0 0 1-.023-.498c-.013-.315-.03-.352-.106-.222-.052.09-.068.3-.037.492.045.283.023.362-.137.501-.166.144-.265.158-.75.11-.369-.037-.576-.026-.614.035-.03.05-.142.092-.246.092-.105 0-.467.094-.804.208-.676.23-.985.21-1.094-.072-.066-.172-.072-.17-.159.053-.05.127-.148.23-.219.23-.085 0-.128.082-.128.241 0 .34-.292.683-.58.683a.59.59 0 0 0-.384.166c-.082.092-.178.149-.213.127-.035-.021-.242-.045-.46-.054-.284-.01-.419.022-.47.116-.041.072-.174.155-.295.186a.871.871 0 0 0-.343.177c-.141.141-.33.16-.404.038-.11-.18-.357-.085-.405.155-.055.28-.393.528-.813.6-.207.035-.287.09-.271.184.026.157-.512.505-.68.44-.065-.025-.207.093-.336.28a1.19 1.19 0 0 1-.539.435 2.257 2.257 0 0 0-.597.359 2.581 2.581 0 0 1-.462.328 4.5 4.5 0 0 0-.778.47 1.695 1.695 0 0 1-.608.242c-.191.03-.348.084-.348.119 0 .117-1.144.839-1.328.839-.112 0-.183.053-.183.134 0 .157-.269.4-.651.59-.15.074-.273.168-.273.21 0 .04-.07.074-.155.074-.085 0-.223.075-.305.166-.083.091-.18.147-.217.124-.037-.022-.09-.005-.117.039-.047.076-.194.163-.76.449-.407.206-.841.253-.964.105zm-13.942-17.68c.092 0-.034-.169-.076-.169-.042 0-.057.076-.032.168.024.093.058.168.076.168.017 0-.06-.168.032-.168zm57.827-1.073c.14 0-.131.048-.07.324l.063.286.027-.28c.015-.155-.058-.33-.02-.33zm-7.377-.406c-.028-.028-.1-.031-.161-.006-.067.027-.047.047.05.05.089.004.139-.016.11-.043zm-.734-.154c0-.067-.035-.143-.078-.17-.1-.061-.2.096-.131.207.077.125.21.101.21-.037zm3.024-.09c-.059.118-.048-.21-.126-.21-.136 0-.156.078-.075.288.078.204.306-.287.2-.077zm-3.974-.141c-.027-.067-.047-.047-.05.05-.004.09.016.139.043.11.028-.027.031-.1.007-.16zm-.705-.765c-.214-.133-.215-.268-.261-.031-.016.083.027.14.105.14.072 0 .132.044.132.098 0 .054.015.082.034.063.02-.02.101-.2-.01-.27zm-1.789-.71c0-.18-.02-.203-.083-.105-.106.164-.106.336 0 .336.046 0 .083-.104.083-.231zm-50.387-32.018c0-.092-.038-.168-.084-.168-.046 0-.084.076-.084.168 0 .093.038.168.084.168.046 0 .084-.075.084-.168zm122.207-6.922c.019-.159.003-.27-.033-.247-.066.04-.097.535-.033.535.018 0 .048-.13.066-.288zm.507-3.507c-.052-.052-.064.002-.033.156.036.176.057.197.082.082.018-.086-.003-.193-.049-.238zm-.536-4.552a.597.597 0 0 0-.03-.287c-.05-.117-.08-.097-.168.11-.059.138-.089.282-.066.32.066.106.233.016.264-.143zm-.769-2.67c-.026-.067-.046-.048-.05.05-.003.089.016.138.044.11.028-.027.03-.1.006-.16zm2.423-13.345c.065-.066.086-.16.13-.16.042 0 .077-.119.077-.263 0-.206-.023-.243-.109-.171-.06.05-.198.067-.307.039-.182-.048-.194-.032-.148.196.027.137.016.302-.024.368-.046.074-.04.142.019.177.135.084.226-.05.362-.186zm-.59-3.184c.054 0-.006-.084-.08-.084-.071 0-.13.038-.13.084 0 .046.035.084.079.084.043 0 .076-.084.13-.084zm.092-.397c-.085-.085-.155.043-.085.156.053.086.072.086.1 0 .02-.058.013-.128-.014-.156zm-1.03-3.332c0-.158-.024-.47-.117-.47-.123 0-.18.172-.127.383.057.227.243.282.243.087zm2.05-5.471c.078-.375.059-.495-.086-.525-.17-.034-.474.288-.478.508-.003.168.214.2.278.042.024-.06.045-.04.049.05.007.197.19.14.236-.075zm4.976-19.652c0-.072-.038-.108-.084-.08-.046.03-.084.088-.084.132 0 .043.038.079.084.079.046 0 .084-.06.084-.131zm34.39 105.38c-.138-.02-.29-.065-.336-.101a1.044 1.044 0 0 0-.293-.12c-.116-.03-.288-.176-.383-.326-.161-.255-.2-.271-.609-.254l-.436.018v-.331c0-.305.029-.347.357-.519.196-.102.376-.191.399-.197.197-.051.489-.214.58-.323.06-.074.147-.112.19-.085.045.028.125-.01.18-.083.121-.162 1.045-.724 1.19-.724.058 0 .206-.08.33-.177.196-.154.255-.163.471-.074.372.154.824.043.89-.218.063-.255.02-.308-.26-.308-.16 0-.248-.07-.349-.283-.074-.156-.163-.284-.198-.284-.036 0-.112-.113-.169-.252-.074-.178-.162-.251-.3-.251-.108 0-.292-.096-.408-.212-.117-.117-.222-.206-.235-.2-.049.028-.635-.516-1.734-1.606-1.336-1.326-1.675-1.693-1.98-2.14a5.52 5.52 0 0 0-.34-.458l-.292-.32a4.088 4.088 0 0 1-.403-.603 21.094 21.094 0 0 0-.753-1.184c-.29-.426-.525-.842-.525-.926 0-.084-.07-.202-.153-.262-.084-.06-.202-.29-.263-.509-.06-.219-.133-.399-.162-.4-.085 0-.255-.422-.215-.53.02-.054-.058-.284-.173-.511-.116-.228-.21-.498-.21-.6 0-.103-.052-.207-.115-.231-.064-.025-.14-.146-.172-.27a1.6 1.6 0 0 0-.216-.447 1.519 1.519 0 0 1-.208-.559 12.748 12.748 0 0 0-.167-.84c-.182-.78-.221-.973-.297-1.47a12.487 12.487 0 0 0-.256-1.133c-.173-.63-.184-.843-.182-3.443 0-1.524.044-3.168.095-3.653.34-3.225.534-6.076.562-8.272.012-.878.03-2.239.043-3.024.013-.867-.017-1.592-.076-1.847-.054-.231-.115-1.372-.136-2.534-.023-1.273-.074-2.182-.128-2.283-.05-.093-.09-.449-.09-.79 0-.342-.03-.65-.064-.685-.034-.034-.11-.39-.168-.79a57.4 57.4 0 0 0-.193-1.232 12.68 12.68 0 0 1-.124-1.05c-.02-.3-.072-.697-.116-.882-.413-1.763-.424-1.813-.516-2.435-.041-.278-.11-.731-.153-1.008-.042-.277-.12-.863-.17-1.302-.051-.439-.127-.892-.169-1.008-.206-.57-.355-1.575-.383-2.576-.007-.285-.053-.569-.102-.63-.048-.061-.115-.451-.148-.867-.16-1.999-.218-2.673-.3-3.527a42.382 42.382 0 0 1-.123-1.68 10.18 10.18 0 0 0-.088-1.007c-.222-1.054-.16-10.827.08-12.807a22 22 0 0 0 .124-1.89c.009-.554.074-1.442.145-1.974.12-.897.26-3.234.325-5.416.015-.508.06-1.34.1-1.848.04-.508.058-2.133.04-3.611-.019-1.478-.038-3.16-.044-3.737-.006-.711-.045-1.086-.116-1.161-.065-.069-.108-.373-.113-.798-.009-.87-.116-2.015-.23-2.45-.047-.185-.105-.77-.128-1.302a13.303 13.303 0 0 0-.216-1.794c-.095-.455-.174-1.01-.174-1.234 0-.223-.04-.43-.09-.46-.048-.03-.067-.155-.041-.278.026-.123-.01-.43-.078-.685a4.213 4.213 0 0 1-.126-.903c-.001-.242-.039-.44-.085-.44-.049 0-.084-.268-.084-.636 0-.35-.039-.708-.086-.797-.048-.088-.101-.51-.119-.939-.063-1.535-.143-2.544-.215-2.71-.117-.272-.184-1.01-.21-2.335-.013-.684-.051-1.421-.084-1.638-.032-.216-.049-1.867-.036-3.669.03-4.476.029-4.409.094-4.409.031 0 .058-.236.058-.525.002-.748.055-1.626.17-2.834a52.63 52.63 0 0 0 .134-1.68c.07-1.27.194-2.99.245-3.359.3-2.199.306-8.632.009-9.984a5.257 5.257 0 0 1-.084-.504c-.121-1.267-.403-2.767-.585-3.117-.06-.115-.132-.418-.16-.672-.031-.274-.106-.5-.185-.559-.073-.053-.125-.148-.115-.21.023-.137-.026-.271-.392-1.082-.158-.348-.287-.681-.287-.74 0-.057-.108-.301-.24-.541a5.428 5.428 0 0 1-.343-.752c-.056-.173-.13-.315-.162-.315-.033 0-.19-.255-.35-.566a7.872 7.872 0 0 0-.356-.651c-.236-.291-.665-1.045-.706-1.24-.026-.126-.191-.393-.366-.592a7.867 7.867 0 0 1-.94-1.402 2.377 2.377 0 0 0-.207-.336 34.266 34.266 0 0 1-.991-1.338 2.155 2.155 0 0 0-.194-.26 3.369 3.369 0 0 1-.252-.344c-.078-.121-.365-.51-.637-.863s-.475-.662-.45-.686c.023-.024-.141-.23-.367-.458-.225-.228-.41-.447-.41-.488 0-.101-.513-.755-1.448-1.843-.22-.255-.4-.5-.4-.542 0-.072-.464-.68-.755-.989a6.64 6.64 0 0 1-.623-.833 5.38 5.38 0 0 0-.307-.438c-.12-.155-.393-.527-.608-.827-.614-.858-.925-1.265-1.117-1.458-.27-.274-.872-1.067-.872-1.15 0-.04-.151-.227-.336-.416-.185-.188-.336-.374-.336-.413 0-.039-.274-.356-.609-.705-1.256-1.308-1.91-2.099-1.91-2.307 0-.047-.114-.125-.252-.173-.139-.049-.252-.128-.252-.176 0-.049-.055-.089-.12-.089-.067 0-.144-.072-.172-.16-.028-.088-.146-.223-.262-.299a5.056 5.056 0 0 1-.568-.49c-.197-.194-.45-.401-.563-.46-.415-.22-.593-.335-.775-.5a1.181 1.181 0 0 0-.368-.226 2.25 2.25 0 0 1-.462-.244 5.117 5.117 0 0 0-.763-.384c-.265-.108-.482-.22-.482-.249 0-.163-1.674-.77-2.116-.768-.124 0-.25-.037-.278-.083-.028-.046-.11-.084-.18-.084-.072 0-.24-.079-.376-.175-.203-.145-.29-.16-.49-.09-.18.062-.268.058-.331-.019-.048-.057-.343-.154-.656-.215-.314-.06-.637-.145-.718-.187-.091-.047-.339-.042-.643.013-.437.08-.546.069-.943-.09a2.699 2.699 0 0 0-.996-.18l-.84-.003c-.161-.001-.388 0-.503.004-.116.002-.253-.03-.305-.074-.052-.043-.279-.094-.504-.114l-1.039-.09c-.346-.029-.679-.093-.738-.143-.14-.117-.751-.106-1.287.023-.489.117-.93.065-1.388-.163-.542-.27-1.027-.427-1.315-.427a.918.918 0 0 1-.439-.114 1.532 1.532 0 0 0-.482-.173c-.175-.032-.567-.188-.873-.347-.306-.16-.609-.29-.673-.29-.064 0-.138-.057-.165-.126-.026-.07-.088-.126-.137-.126-.05 0-.149-.055-.222-.123a28.695 28.695 0 0 0-.492-.431c-.198-.17-.34-.328-.318-.351.023-.023-.032-.147-.123-.274-.091-.128-.166-.274-.166-.325 0-.05-.056-.092-.126-.092-.078 0-.126-.08-.126-.21 0-.117-.151-.433-.336-.704-.185-.27-.336-.552-.336-.625 0-.074-.073-.202-.163-.286-.09-.084-.205-.337-.255-.563a3.398 3.398 0 0 0-.227-.67 74.817 74.817 0 0 1-.218-.423c-.115-.226-.306-1.045-.31-1.327-.001-.137.043-.23.11-.23.06 0 .164.103.229.23.2.396 1.391 1.646 1.502 1.577.039-.024.179.013.31.082.132.069.33.125.44.125.11 0 .356.041.546.09l.633.165c.163.043.343.043.417.001.082-.045.214-.03.353.043.123.063.243.095.268.07.025-.024.16.015.3.087.142.074.462.133.717.133.254 0 .481.032.506.072.024.04.38.071.789.07.409-.001.797.033.863.075.065.042.27.081.455.087.184.006.562.055.84.11.277.054.881.134 1.343.176.798.074 1.37.173 1.932.335.138.04.535.1.882.131.346.032.704.11.795.173a.678.678 0 0 0 .316.114c.083 0 .216.036.296.08.08.044.385.118.677.165.292.047.649.144.793.216.144.072.415.15.603.176.49.065 1.243.291 1.39.418.07.06.24.135.378.168.139.033.487.168.774.3.286.133.555.241.596.241.122 0 .634.265.814.422.092.08.258.174.368.207.196.06.706.405 1.241.839.146.118.382.256.525.306.143.05.26.144.26.21 0 .067.065.145.146.175.26.094 1.083.777 1.198.992.061.115.153.208.203.208.05 0 .139.076.196.168.058.092.157.168.22.168.115 0 1.4 1.26 2.193 2.15.231.26.628.689.882.955.872.915 1.344 1.463 1.344 1.562 0 .055.307.417.682.803.376.387.807.893.958 1.126.15.233.338.477.416.541.29.24 1.132 1.345 1.184 1.553.03.119.116.262.192.319.076.057.232.244.347.417.116.173.248.315.294.316.046 0 .178.143.294.315.115.173.278.39.362.483.084.092.286.369.45.614.163.246.35.467.414.492.065.025.118.089.118.141 0 .053.125.229.277.39.434.464 1.15 1.346 1.15 1.418 0 .036.172.251.381.478.21.228.616.729.903 1.114.287.385.644.857.792 1.05.476.613 1.115 1.587 1.115 1.696 0 .058.057.127.126.153.07.027.126.117.126.202 0 .084.17.294.378.468.208.174.378.366.378.426s.142.276.315.479c.35.409.56.765.638 1.082.029.116.204.373.39.57.185.2.337.427.337.507 0 .08.076.21.168.29.092.079.168.194.168.255s.094.194.21.294c.115.1.21.228.21.283 0 .055.077.182.171.282.094.1.195.33.223.51.03.181.172.476.323.663.148.184.295.417.325.517.031.1.111.227.179.283a.368.368 0 0 1 .122.245c0 .08.097.33.216.557.252.484.535 1.27.538 1.495.001.086.191.435.422.774.267.39.42.705.42.86 0 .135.057.292.126.35.07.057.126.16.126.227s.094.395.21.73c.115.333.245.774.288.979.044.205.122.524.175.709.053.185.127.527.164.762.037.234.15.586.25.781.1.196.16.425.132.509-.026.084.005.318.073.52.067.202.147.603.179.892.031.289.091.546.133.572.042.026.076.389.076.807 0 .426.059.986.134 1.275.143.548.174 1.37.131 3.519l-.041 2.204c-.02 1.062-.1 2.442-.178 3.065-.14 1.125-.213 2.086-.383 4.997-.049.832-.143 1.758-.21 2.058-.066.3-.115.886-.108 1.301.006.416-.018 1.002-.055 1.302-.096.763-.062 7.968.042 8.734.097.726.135 1.304.161 2.465.012.5.068.946.143 1.124.078.187.119.535.11.937-.012.605.07 1.187.389 2.737.076.37.133.883.125 1.14-.006.256.045.63.116.83.07.199.128.591.128.871s.036.72.08.977c.202 1.177.258 1.597.28 2.116.013.307.073.617.132.689.072.086.103.353.093.785-.009.36.032.826.09 1.034.058.207.098.56.088.783-.009.223.028.46.082.525.072.087.074.15.006.23-.064.077-.068.262-.012.609.168 1.048.283 5.803.154 6.377-.042.184-.092.997-.113 1.805-.044 1.721-.147 3.282-.224 3.402-.081.126-.18 1.585-.16 2.327.019.635-.115 1.242-.273 1.242-.046 0-.052.132-.016.315.053.266.105.741.14 1.28.036.546-.233 3.004-.345 3.15-.133.172-.152.597-.04.866.106.253.11 1.101.014 3.207-.009.198.12 4.613.149 5.08.014.231.049.553.078.714.062.354.212 2.05.262 2.982.02.37.06.728.09.797.028.07.083.523.12 1.008.113 1.43.318 3.213.405 3.502.044.148.08.44.08.648 0 .208.032.427.07.487.068.104.106.422.266 2.184.04.45.115.866.165.927.05.06.133.525.183 1.031.05.507.126 1.129.167 1.383.042.254.102.707.134 1.006.032.299.108.684.168.855.06.172.135.588.165.926.053.59.231 1.437.377 1.79.038.092.095.413.125.714.134 1.312.196 1.737.289 1.97.054.137.117.685.139 1.218.022.533.06 1.101.085 1.263.081.528.214 2.132.208 2.52l-.015.925c-.005.305.043.678.11.84.08.196.098.39.055.594-.036.166-.027.79.019 1.385.108 1.4.11 1.55.037 2.302-.074.749-.11 1.686-.164 4.115-.021.993-.078 2.183-.125 2.645a18.8 18.8 0 0 0-.089 1.496c-.002.36-.038.814-.08 1.007-.044.194-.139.957-.213 1.696-.074.74-.171 1.57-.216 1.848-.134.826-.181 1.954-.084 2.014.05.03.066.185.037.363-.03.189.002.458.083.688.072.208.132.442.133.52.002.284.439 1.522.596 1.69.088.096.16.204.16.241 0 .072.076.167.547.685.162.177.294.347.294.378 0 .061.534.577.799.771.093.068.235.227.316.353.08.126.258.288.395.358.248.129 1.261 1.115 1.261 1.229 0 .032.123.158.273.28.436.352.987.898.987.98 0 .04.043.074.096.074.053 0 .176.077.273.172.545.533.88.82 1.122.963.15.088.272.227.272.307 0 .081.077.188.17.238.094.05.15.124.126.164-.025.04-.016.085.019.1.035.016.177.2.315.407.139.208.338.447.443.532.188.153 1.195 1.61 1.195 1.731 0 .034.075.13.168.214.092.084.168.19.168.235 0 .085.091.292.622 1.41.323.68.364 1.009.205 1.657-.102.417-.234.587-.575.74-.75.334-1.002.393-1.153.268-.082-.069-.173-.065-.34.012-.317.146-1.075.34-1.33.34a.557.557 0 0 1-.345-.133c-.153-.153-.484-.1-.725.118-.242.218-1.26.376-1.86.288zm-55.889-28.575a.084.084 0 0 1 .168 0 .084.084 0 0 1-.168 0zm-.348-.227c-.143-.022-.238-.1-.266-.218a7.54 7.54 0 0 0-.106-.387c-.044-.143-.034-.184.035-.142.059.036.097.004.097-.08 0-.093.045-.123.134-.088.09.034.148-.004.178-.117.024-.093.077-.169.118-.169.04 0 .074-.056.074-.126 0-.069.038-.126.084-.126.046 0 .084.148.084.327 0 .33-.09.426-.472.503-.029.005-.006.065.05.133.055.067.076.161.047.21-.048.076.12.128.312.097.035-.005.063.047.063.116 0 .07-.047.12-.105.113a9.767 9.767 0 0 1-.327-.046zm-116.61-7.104c-.573-.317-1.659-2.263-1.813-3.25-.046-.3-.133-.66-.192-.798-.093-.22-.223-1.183-.35-2.604-.127-1.43.08-6.684.271-6.875.124-.124.196-.658.26-1.943.03-.59.099-1.109.168-1.251.064-.134.117-.307.117-.385 0-.077.096-.42.212-.763.117-.343.204-.76.195-.925-.011-.182.059-.448.176-.672.122-.232.21-.575.234-.917.043-.574.195-1.14.393-1.451.064-.103.12-.364.123-.58.003-.217.065-.538.138-.714.074-.176.221-.679.328-1.118.106-.438.271-.968.366-1.175.094-.208.274-.643.398-.966.125-.324.279-.647.343-.72.063-.072.141-.26.173-.42.031-.158.145-.454.253-.657.107-.203.195-.423.195-.488 0-.187.395-.72.458-.619.124.2.232.083.18-.196-.034-.177-.02-.297.037-.316.091-.03.5-.952.5-1.13.002-.279.782-1.866 1.085-2.205.163-.183.273-.416.309-.655.03-.204.114-.43.187-.502.072-.073.205-.269.294-.436.09-.167.209-.342.265-.389.055-.047.181-.285.28-.528a3.71 3.71 0 0 1 .475-.807c.163-.2.297-.419.297-.487 0-.146 1.122-2.387 1.292-2.582a1.05 1.05 0 0 0 .175-.323.7.7 0 0 1 .253-.32c.107-.07.28-.324.383-.564.103-.24.26-.531.349-.647.278-.36.653-.962.655-1.05.001-.046.171-.33.379-.63.207-.3.377-.585.377-.634 0-.049.133-.233.294-.41.162-.176.294-.389.294-.473 0-.083.038-.175.084-.204.047-.028.084-.11.084-.18 0-.072.085-.249.19-.394.103-.145.254-.396.333-.559.08-.162.183-.351.228-.42.046-.07.226-.46.4-.867.19-.44.483-.935.722-1.218.436-.517.647-.88.647-1.114 0-.082.048-.199.108-.26.059-.06.234-.442.39-.846.155-.404.311-.734.348-.734.036 0 .09-.076.12-.168.029-.093.105-.168.17-.168.063 0 .154-.123.2-.273.19-.615.411-1.172.5-1.262.053-.052.095-.22.095-.372s.038-.277.084-.277c.047 0 .084-.057.084-.126 0-.07.055-.126.122-.126.087 0 .138-.145.178-.497.042-.374.085-.487.172-.453.086.033.116-.036.116-.262 0-.168.076-.454.168-.635.093-.182.168-.378.168-.438s.114-.335.252-.612c.138-.277.252-.58.254-.672 0-.092.07-.32.156-.507a3.43 3.43 0 0 0 .216-.754c.034-.23.11-.511.17-.628.06-.116.151-.494.205-.84l.174-1.134c.13-.857.176-2.48.094-3.326-.102-1.053-.398-1.7-1.075-2.351a45.65 45.65 0 0 1-1.004-1.008c-.284-.296-.662-.613-.84-.705a3.446 3.446 0 0 1-.671-.514c-.192-.19-.466-.398-.61-.462-.143-.063-.262-.153-.264-.2-.003-.046-.193-.235-.423-.42-.58-.465-1.589-1.43-1.59-1.52 0-.042-.146-.145-.324-.23a1.425 1.425 0 0 1-.524-.481c-.11-.18-.232-.327-.27-.328-.12-.003-1.63-1.595-2.034-2.144a4.407 4.407 0 0 0-.299-.378 1.593 1.593 0 0 1-.184-.301 2.058 2.058 0 0 0-.347-.462c-.117-.112-.214-.248-.214-.304-.002-.056-.098-.243-.216-.417a8.68 8.68 0 0 1-.466-.823 14.367 14.367 0 0 0-.453-.842c-.112-.185-.205-.393-.207-.462-.003-.07-.099-.313-.215-.541-.244-.482-.796-2.146-.796-2.4 0-.096-.076-.408-.168-.695a10.59 10.59 0 0 1-.29-1.361c-.45-3.065-.45-3.07-.422-4.829.036-2.273.108-3.296.24-3.401.062-.05.113-.31.123-.63.009-.3.055-.773.103-1.05.047-.277.108-.636.134-.798.026-.161.079-.332.116-.38.038-.047.057-.235.043-.417-.015-.186.025-.41.09-.511.066-.099.097-.237.07-.307-.027-.07.01-.185.082-.257a.563.563 0 0 0 .13-.349c0-.203.118-.682.517-2.104.09-.323.194-.758.23-.965.036-.208.124-.514.196-.68.072-.167.158-.468.192-.67.034-.2.092-.424.127-.495.036-.07.135-.356.22-.633.086-.277.182-.524.214-.548.056-.042.203-.556.287-1.005.022-.116.18-.502.351-.858.217-.45.359-.648.465-.65.114-.003.14.037.1.163-.03.092-.025.215.011.272.044.072.08.038.115-.104.074-.309.004-.584-.136-.53-.153.059-.153-.175 0-.417.066-.102.145-.35.178-.552.054-.334.419-1.254.538-1.356.061-.052.227-.342.502-.881.118-.231.242-.44.275-.464.033-.024.106-.232.161-.462.056-.23.153-.537.215-.683.062-.145.114-.3.114-.342 0-.147.485-1.079.62-1.19.074-.063.135-.165.135-.229 0-.063.038-.116.084-.116.128 0 .405-.678.407-1.001.002-.166.056-.318.128-.358.07-.039.178-.174.242-.3.176-.35.342-.628.504-.85a.932.932 0 0 0 .147-.47.59.59 0 0 1 .174-.427c.17-.154.75-1.312.75-1.497 0-.051.174-.358.387-.681.462-.703.705-1.165.705-1.34 0-.072.037-.13.084-.13.046 0 .084-.058.084-.13 0-.19.291-.728.494-.912.098-.088.177-.207.177-.264 0-.057.048-.122.105-.144.058-.022.156-.213.218-.423s.166-.403.23-.428a.206.206 0 0 0 .12-.18c0-.074.056-.191.125-.26a.58.58 0 0 0 .126-.36c0-.128.076-.32.168-.426.092-.107.169-.235.17-.286 0-.05.095-.181.21-.29.114-.109.208-.251.208-.317s.122-.355.271-.642c.15-.288.273-.56.275-.607.002-.046.037-.09.077-.098.041-.008.16-.192.264-.408.104-.216.265-.48.358-.587a2.44 2.44 0 0 0 .272-.39c.057-.108.128-.215.157-.238.03-.023.19-.25.356-.504.167-.254.383-.534.48-.622.098-.088.177-.21.177-.273 0-.062.038-.113.084-.113.047 0 .084-.076.084-.168 0-.108.056-.168.158-.168.116 0 .17-.081.208-.315.031-.191.2-.503.43-.796.21-.265.38-.52.38-.567 0-.047.034-.085.075-.085.041 0 .098-.095.127-.21.03-.116.09-.21.136-.21.045 0 .082-.044.082-.098 0-.053.162-.252.36-.44.199-.19.413-.448.477-.575.063-.127.165-.231.227-.231.061 0 .112-.042.112-.093s.094-.167.21-.258c.115-.09.21-.216.21-.28 0-.062.075-.137.168-.167.092-.03.167-.086.167-.127 0-.102.353-.469.494-.515.064-.02.178-.2.252-.399.075-.199.163-.348.196-.332.032.016.108-.034.168-.112a.533.533 0 0 1 .307-.168c.142-.019.236-.12.33-.356.072-.182.2-.4.284-.483.084-.084.153-.185.153-.224 0-.039.18-.17.399-.294.5-.28.693-.428.693-.536 0-.142.433-.527.593-.527.083 0 .175-.076.205-.169.03-.092.319-.423.643-.734.324-.312.633-.617.687-.678.306-.348 1.17-1.039 1.398-1.119a.582.582 0 0 0 .31-.319c.057-.153.22-.309.44-.42.192-.099.384-.269.425-.378a.488.488 0 0 1 .268-.26c.106-.034.46-.34.787-.68s.658-.618.736-.618c.078 0 .142-.033.142-.074 0-.131.687-.765.83-.765.075 0 .244-.114.374-.252.131-.139.285-.252.341-.252.057 0 .187-.114.29-.252.102-.139.24-.252.306-.252.067 0 .16-.074.209-.165.049-.09.14-.145.204-.12.122.046.47-.269.47-.426 0-.108.34-.42.461-.422.047 0 .097-.109.112-.24.022-.19.06-.23.191-.196.115.03.276-.068.54-.328.207-.204.43-.37.495-.37.114 0 .468-.289 1.145-.933a2.96 2.96 0 0 1 .623-.447c.167-.08.34-.236.382-.348.043-.113.136-.204.208-.204a.213.213 0 0 0 .181-.131c.028-.072.198-.19.378-.262.18-.072.365-.203.412-.29.066-.123.164-.153.438-.137.333.02.36.005.443-.254.095-.293.465-.632.987-.902.175-.091.4-.25.497-.355.098-.104.22-.189.272-.189.202 0 1.265-.632 1.463-.87.063-.076.166-.137.23-.137.063 0 .115-.032.115-.07 0-.039.104-.122.231-.185a2.35 2.35 0 0 0 .413-.274c.118-.103.316-.16.57-.164.214-.004.408-.038.432-.077.024-.038.108-.07.186-.07.089 0 .2-.14.295-.373.118-.288.208-.385.396-.426.133-.029.518-.193.854-.364.337-.172.693-.3.79-.284a.406.406 0 0 0 .31-.102c.072-.072.167-.13.212-.13.045 0 .228-.073.405-.161.28-.139.721-.334.995-.44.216-.083.714-.432.714-.5 0-.122.253-.087.395.056.12.119.156.108.393-.116.144-.136.47-.313.723-.394.255-.08.586-.239.737-.352.152-.113.51-.275.798-.36.288-.085.693-.213.9-.285.634-.22 1.45-.407 1.84-.422.303-.012.382-.05.441-.209.053-.143.111-.178.219-.133.316.133.536.14.674.019.308-.268 2.04-.637 2.531-.539.18.036.274.013.326-.079.04-.07.23-.15.422-.176.193-.026.35-.083.35-.127 0-.047.137-.058.327-.025.272.045.348.026.447-.116.165-.235.488-.345.674-.229.11.07.194.064.331-.022.101-.063.344-.125.54-.137.195-.012.403-.052.463-.089.161-.1.475-.137 1.095-.131.394.004.571-.028.602-.107.03-.077.296-.132.842-.172.46-.035.863-.11.951-.176.084-.064.351-.117.594-.119.252-.001.44-.04.44-.092 0-.048.044-.062.097-.029.053.033.204.056.336.053.132-.004.24.024.24.061 0 .038.141.018.314-.044.174-.062.568-.114.877-.116.31-.002.586-.041.614-.087.154-.25.516.012.408.293-.033.088.007.126.129.126.124 0 .177-.053.177-.177 0-.122.039-.162.126-.128.07.026.126.009.126-.038s.084-.027.187.045c.238.167.295.164.353-.017.06-.185.418-.355.56-.267.111.068.41-.049.508-.199.056-.086.83-.16 1.5-.142.207.006.667.005 1.022 0 .63-.01 1.16.142 1.16.334 0 .043.092-.013.203-.125.257-.256.612-.35.825-.216.09.056.267.078.4.049.186-.041.265-.011.37.14.074.105.134.15.134.098 0-.051.17-.119.378-.15s.378-.092.378-.136c0-.146.413-.08.498.079.09.166.232.166.898-.002.278-.07.396-.06.604.047.143.073.356.134.473.134.118 0 .214.038.214.084 0 .114.28.106.398-.012.123-.123 1.195-.121 2.164.004.416.053 1.082.106 1.48.117.399.012.777.06.84.106.064.048.38.083.703.079.476-.007.61.02.699.144.061.084.154.124.208.091.179-.11 1.261-.096 1.376.019.098.098.618.154 2.213.239.302.016.664.088.804.16.264.137.873.719.873.834 0 .037.098.264.219.507.267.537.446 1.293.45 1.904.003.468.025.569.33 1.533.097.31.177.784.177 1.055 0 .627.117.805.464.705.332-.096 1.097-.674 1.458-1.102.157-.186.355-.338.441-.338.086 0 .292-.072.457-.16.175-.094.408-.148.558-.13.141.019.298.008.348-.023.05-.031.215-.046.364-.034.15.013.396-.014.547-.06.68-.21 2.009-.516 2.238-.516.31 0 .696-.138.812-.29.048-.063.218-.127.378-.143l.29-.03.026.448c.016.28-.015.498-.084.581-.203.247-.763.61-.942.61-.097 0-.31.07-.471.157-.612.328-2.25.305-2.38-.033-.08-.21-.263-.14-.37.143-.055.147-.123.245-.15.217-.028-.028-.185.04-.35.152-.164.112-.333.203-.375.203-.085 0-.407.33-.7.714-.213.28-.532 1.184-.757 2.141-.081.347-.176.688-.212.758-.035.07-.09.392-.12.714-.138 1.466-.437 2.39-.935 2.887-.355.355-1.21.632-2.887.936-.254.046-.556.12-.672.164a3.034 3.034 0 0 1-.42.12c-.115.023-.587.151-1.05.287-.461.135-1.047.292-1.301.349-.254.057-.537.15-.63.206-.092.057-.332.13-.532.161a2.798 2.798 0 0 0-.69.223c-.179.091-.416.166-.528.166a1.66 1.66 0 0 0-.504.126 1.66 1.66 0 0 1-.505.126c-.112 0-.311.056-.444.125a1.172 1.172 0 0 1-.408.13c-.092.001-.32.076-.504.165-.185.089-.443.163-.575.165a1.604 1.604 0 0 0-.504.117c-.352.152-1.717.475-2.002.474-.125 0-.25.037-.278.084-.029.046-.168.083-.309.083-.28 0-1.353.339-1.399.441-.015.035-.136.063-.268.063s-.258.03-.281.068c-.023.037-.186.078-.362.09-.632.048-1.034.154-1.034.272 0 .04-.068.074-.151.074a.378.378 0 0 0-.231.08c-.044.043-.187.097-.318.12a.916.916 0 0 0-.344.131c-.058.048-.13.063-.16.032-.031-.03-.141-.015-.245.033a5.177 5.177 0 0 1-.567.2 3.338 3.338 0 0 0-.63.261c-.138.083-.336.15-.44.15-.103 0-.594.215-1.091.475l-1.439.755c-.37.194-.575.257-.666.206-.095-.053-.2-.004-.381.176-.22.22-.566.413-2.164 1.209-.213.106-.53.29-.705.408-.175.118-.42.215-.545.215-.125 0-.337.095-.47.21-.135.115-.287.21-.338.21-.052 0-.184.069-.294.152a2.16 2.16 0 0 1-.576.261c-.206.06-.414.158-.462.22-.09.115-.41.314-1.052.658-1.14.608-1.638.919-1.922 1.199-.11.109-.248.198-.305.198-.057 0-.15.054-.205.121-.056.067-.259.198-.451.292-.193.093-.63.435-.972.76-.342.324-.646.59-.675.59-.076 0-2.23 2.19-2.85 2.897-.283.324-.584.664-.67.756a2.016 2.016 0 0 0-.262.378 2.21 2.21 0 0 1-.28.4c-.199.218-.437.604-.815 1.322-.146.277-.3.54-.342.583a.353.353 0 0 0-.077.214c0 .073-.078.283-.173.466-.095.183-.266.767-.379 1.298a81.735 81.735 0 0 1-.366 1.638c-.089.37-.221 1.087-.294 1.595a35.754 35.754 0 0 1-.263 1.57 18.89 18.89 0 0 0-.2 1.219c-.04.314-.129.93-.199 1.369-.07.438-.173 1.137-.228 1.553-.055.416-.152.99-.217 1.274a21.84 21.84 0 0 0-.199 1.008c-.312 1.87-.426 2.471-.536 2.841-.07.231-.187.836-.261 1.344-.075.508-.19 1.075-.255 1.26a5.49 5.49 0 0 0-.193.816c-.067.433-.057.496.102.64.244.22.657.28 1.034.15.174-.06.695-.118 1.157-.128.462-.01.991-.053 1.176-.093.185-.04.828-.082 1.43-.091.601-.01 1.47-.068 1.931-.128.461-.061.864-.112.895-.114.03-.002.168-.097.304-.211l.247-.208.136.355c.222.58.27 1.347.105 1.674-.171.339-.316.573-.436.706-.05.055-.157.322-.238.592-.21.7-.483 1.21-.688 1.29a.444.444 0 0 0-.229.202c-.028.073-.102.132-.166.132-.063 0-.158.095-.21.21-.055.12-.166.21-.262.21a.324.324 0 0 0-.25.147c-.073.125-.089.109-.101-.105a5.061 5.061 0 0 0-.062-.577c-.028-.166-.27.16-.36.482-.052.19-.136.45-.186.574-.082.201-.107.213-.226.106-.178-.161-.556.007-.624.276-.055.22-.15.24-.296.063-.127-.153-.37-.164-.484-.021-.047.058-.11.225-.142.372-.031.147-.111.312-.177.367a.346.346 0 0 0-.12.225c0 .071-.05.106-.116.08-.064-.024-.22.01-.346.075-.126.066-.282.12-.346.12s-.195.078-.291.174c-.1.1-.23.153-.306.124-.073-.028-.193.002-.267.067-.186.162-.745.332-.899.273-.07-.027-.267.02-.437.103-.17.084-.575.202-.898.262-.323.06-.635.148-.693.193-.16.127-.126.743.056 1.02.089.134.145.285.126.336-.02.051.05.196.154.321l.189.228.336-.162c.464-.225.666-.21.851.063.132.194.158.404.165 1.322.004.601.036 1.159.072 1.24a.773.773 0 0 1 .02.379c-.024.126-.007.563.038.972.073.659.066.761-.062.903-.08.089-.12.186-.09.216s.06.002.067-.063c.006-.066.04.107.076.385.037.29.032.515-.011.531-.134.05-.087.58.055.635.072.027.112.08.09.118-.024.037-.007.122.036.19.064.099.092.1.15.01.043-.067.186-.1.357-.084.253.024.291.06.337.321.042.233.055.249.063.077a.35.35 0 0 1 .2-.305c.34-.16 1.259-.283 2.415-.324 2.166-.078 2.48-.1 2.855-.201.461-.124 1.089-.164 1.261-.08.072.035.198.01.29-.056a.76.76 0 0 1 .382-.119c.368 0 1.112-.43 1.331-.77.18-.28.219-.3.401-.217a.52.52 0 0 1 .255.309c.03.119.123.348.208.51.085.16.155.332.155.38 0 .05.114.442.254.872.22.68.241.82.156 1.055-.054.15-.072.375-.04.501l.057.23.175-.223c.097-.123.203-.192.236-.154.119.134.271.855.204.964-.071.115-.064.47.02 1.033l.05.332.172-.206c.14-.169.16-.176.11-.039a4.101 4.101 0 0 0-.126.51c-.056.297-.235.57-.659 1.007-.058.06-.105.145-.105.19 0 .044-.057.103-.126.13-.14.053-.174-.076-.042-.157.048-.03.083-.425.082-.908-.003-1.07-.146-.933-.305.295-.129.99-.218 1.159-.616 1.159-.162 0-.427.082-.588.182-.208.128-.466.19-.882.211-.324.017-.72.074-.882.127-.162.054-.4.09-.528.081a.871.871 0 0 0-.397.071c-.09.048-.468.092-.839.097-.371.004-.696.042-.72.083-.026.04-.148.073-.272.071a6.395 6.395 0 0 0-.561.033c-.185.019-.828.06-1.428.09-.6.031-1.28.076-1.512.1-.23.025-.74.059-1.133.077-.393.017-.96.047-1.26.065-1.133.068-2.248.078-2.342.02-.053-.034-.284.002-.512.077-.299.1-.658.132-1.285.118-.478-.012-.906.002-.951.03-.045.028-.342.018-.661-.021-.417-.052-.64-.043-.795.031-.138.067-.364.084-.634.048-.231-.03-.458-.034-.504-.007-.047.027-.311.062-.588.078-.646.04-.652.039-1.323-.03-.382-.04-.567-.03-.567.03 0 .084-1.496.062-1.58-.023-.018-.018-.118 0-.223.04-.226.086-1.83.206-2.472.185-.25-.007-.505.027-.567.08-.07.058-.233.071-.428.035a9.898 9.898 0 0 0-.902-.098 5.825 5.825 0 0 1-.882-.12 2.427 2.427 0 0 0-.518-.08c-.22-.002-.425-.137-.943-.624-.143-.135-.28-.243-.303-.24-.023.003-.03-.033-.017-.08.014-.049-.049-.168-.139-.265-.09-.098-.226-.423-.302-.724l-.219-.85a2.556 2.556 0 0 1-.079-.514c0-.116-.054-.34-.12-.497-.266-.638-.37-4.667-.125-4.82.039-.023.11.12.16.317.049.198.126.426.171.507l.187.336a.86.86 0 0 0 .207.254c.056.036.126.197.157.358.06.325.377.626.658.626.099 0 .268.062.375.137.164.115.208.119.268.021a.347.347 0 0 1 .222-.136 11.5 11.5 0 0 0 .437-.075c.222-.042.311-.02.398.1.108.147.12.145.284-.03a.697.697 0 0 1 .399-.199c.125-.007.398-.03.605-.048.208-.018.7-.05 1.092-.07a80.5 80.5 0 0 0 1.201-.07c.41-.028.503-.009.587.126.121.194.228.208.228.03 0-.21.503-.375.881-.29.182.041.494.042.708.002.21-.039.436-.04.502-.004.066.037.265.048.442.024.238-.032.323-.013.324.073.001.07.063.036.155-.083.134-.174.177-.186.345-.096.38.203.441-.265.16-1.208-.192-.64-.19-.882.023-2.948.113-1.103.11-1.884-.01-2.004-.048-.048-.088-.202-.088-.343a2.1 2.1 0 0 0-.05-.437c-.044-.163-.076-.172-.356-.096-.169.046-.345.113-.39.15-.047.035-.286.069-.532.073a3.162 3.162 0 0 0-.797.128c-.194.065-.673.144-1.065.176a7.404 7.404 0 0 0-1.148.18 2.815 2.815 0 0 1-.756.104c-.177-.01-.413.03-.524.09-.11.06-.489.12-.84.134-.35.014-.75.047-.89.074-.27.053-1.102.057-1.511.007-.523-.063-1.259-.316-1.367-.47-.062-.089-.164-.16-.227-.16-.204 0-.783-.637-1.077-1.186-.304-.565-.485-1.198-.654-2.286-.057-.37-.148-.677-.208-.7-.058-.022-.131-.236-.162-.475a8.211 8.211 0 0 0-.26-1.09c-.17-.548-.202-.828-.201-1.721 0-.587.024-1.152.052-1.256.071-.266.337-.238.486.05.203.394 1.078 1.24 1.402 1.357.259.093.34.09.576-.028.18-.09.32-.112.408-.062.093.051.24.016.474-.114.414-.232.932-.341 1.011-.214.039.062.12.05.257-.04.128-.084.442-.14.87-.157.49-.019.715-.065.83-.17a.818.818 0 0 1 .423-.162c.145-.01.264-.046.264-.08 0-.032.054-.04.12-.014.065.025.207-.002.315-.061.107-.06.252-.117.321-.127.223-.035.795-.227.892-.3.06-.044.149.013.242.155.139.212.151.215.235.064.13-.235.326-.364.563-.37a.758.758 0 0 0 .373-.128c.1-.076.352-.124.656-.124.4 0 .547-.04.776-.216.227-.172.316-.198.448-.127.122.065.189.059.258-.025.052-.062.33-.158.618-.212a9.06 9.06 0 0 0 .902-.222c.208-.067.484-.122.614-.122s.3-.033.378-.075c.135-.071.75-.128 2.409-.222.416-.024.86-.065.986-.092.165-.036.244-.012.281.084.04.105.088.115.214.047a.47.47 0 0 1 .313-.04c.253.081.335-.259.385-1.591.025-.693.081-1.468.124-1.722s.08-.81.084-1.234c.004-.425.041-.954.084-1.176.042-.222.14-.932.216-1.579.191-1.614.704-5.067.798-5.375.042-.138.119-.645.17-1.127.052-.481.167-1.067.256-1.301a2.84 2.84 0 0 0 .16-.847c0-.23.056-.684.125-1.008.068-.323.259-1.324.423-2.225.164-.9.332-1.751.372-1.89.04-.138.099-.403.13-.588.175-1.07.635-2.55.941-3.03.061-.096.134-.342.162-.546.045-.332.28-.885.8-1.882.097-.185.2-.355.23-.378.028-.023.1-.118.158-.21.435-.69.63-.966.684-.966.034 0 .146-.151.25-.336.104-.185.246-.336.315-.336.176 0 .292-.14.535-.647.115-.241.255-.44.31-.441.055-.003.153-.078.217-.17.064-.091.293-.301.508-.466.216-.164.393-.36.393-.433 0-.195.369-.505.59-.496.143.006.246-.09.409-.38.227-.401.45-.662.57-.662.037 0 .178-.095.312-.21.134-.115.279-.21.32-.21.042 0 .172-.112.287-.25.116-.137.236-.243.268-.234.098.027.466-.203.722-.451.135-.131.4-.343.588-.47.188-.128.45-.336.58-.464.13-.127.286-.23.347-.23.06 0 .156-.057.213-.126.058-.07.157-.126.22-.126s.379-.17.701-.376c.323-.207.637-.357.698-.334.061.024.237-.108.395-.296.156-.186.317-.338.357-.338.04 0 .232-.078.426-.173.311-.152.531-.196 1.402-.282.136-.013.31-.151.493-.392.313-.41.856-.748 1.62-1.005.277-.093.654-.264.836-.38.183-.115.379-.202.435-.194.108.017.745-.244.815-.334.074-.094.414-.263.528-.263.06 0 .369-.133.684-.294.326-.167.698-.294.862-.294.168 0 .415-.087.596-.21.17-.116.366-.21.436-.21s.295-.112.5-.247c.262-.175.436-.234.593-.203.284.057.92-.112.976-.26.024-.062.174-.138.332-.168.158-.03.288-.093.288-.14 0-.052.097-.066.239-.035.166.037.272.012.351-.083.16-.194.75-.48.883-.428.061.023.2-.025.306-.11.107-.083.46-.234.783-.337.323-.102.7-.237.84-.3.138-.063.384-.14.545-.171.162-.031.333-.088.381-.127.048-.038.237-.107.42-.152s.768-.23 1.299-.41c2.226-.757 3.37-1.112 3.588-1.114a.863.863 0 0 0 .443-.166.936.936 0 0 1 .488-.166c.153-.001.342-.036.42-.078.078-.041.35-.1.603-.13.255-.031.568-.132.698-.225a.772.772 0 0 1 .472-.144c.13.014.29-.017.353-.068.063-.05.2-.118.304-.15.104-.032.189-.093.189-.137 0-.043.054-.078.121-.078s.14-.03.163-.068c.055-.089-.14-.476-.244-.485a2.382 2.382 0 0 1-.394-.147c-.172-.077-.36-.141-.42-.142a.632.632 0 0 1-.27-.126.85.85 0 0 0-.437-.124c-.15 0-.298-.041-.33-.092-.031-.05-.175-.074-.32-.053-.144.021-.621-.015-1.06-.081a27.995 27.995 0 0 0-1.908-.192c-.61-.04-1.15-.097-1.201-.129-.089-.054-1.72-.062-3.19-.014-.392.013-.812-.008-.931-.047-.147-.048-.351-.025-.63.07a2.683 2.683 0 0 1-.748.134c-.185-.003-.604.054-.932.127-.52.117-.727.12-1.638.026a20.77 20.77 0 0 0-1.923-.097c-.852.009-2.135.14-2.287.234-.041.025-.46.082-.93.126-.471.044-1.196.118-1.612.164-.416.046-.888.097-1.05.113a2.92 2.92 0 0 0-.483.09c-.127.04-.189.026-.189-.043 0-.072-.033-.079-.105-.022-.057.046-.325.105-.593.131-.27.027-.534.085-.588.13-.151.124-.869.211-.93.113-.032-.053-.17-.027-.37.069a2.39 2.39 0 0 1-.566.189 1.81 1.81 0 0 0-.378.093.662.662 0 0 1-.294.037c-.253-.03-1.1.092-1.844.267-.37.087-.814.181-.987.21-.173.027-.315.091-.315.141 0 .057-.098.071-.259.039a.771.771 0 0 0-.434.042c-.097.052-.462.167-.812.257-.35.09-.75.196-.889.235-.76.217-1.68.42-1.903.42-.241 0-.723.211-.837.366-.028.04-.078.03-.11-.02-.065-.106-.383-.129-.383-.028 0 .036-.18.117-.399.18-.22.062-.531.18-.693.263a6.452 6.452 0 0 1-.755.3c-.255.082-.498.18-.542.216a.477.477 0 0 1-.255.067c-.097 0-.468.153-.826.34-.358.186-.688.315-.733.288-.045-.028-.298.063-.563.202-1.292.678-1.97.956-2.045.84-.058-.092-.073-.086-.074.028 0 .096-.112.173-.334.233-.183.05-.382.158-.441.243-.14.197-.529.392-.929.464a1.495 1.495 0 0 0-.599.306c-.155.136-.308.247-.34.247-.031 0-.177.09-.324.2a5.71 5.71 0 0 1-.604.38c-.516.277-.919.525-.965.594-.023.034-.156.121-.294.193a2.42 2.42 0 0 0-.455.322c-.213.201-.738.495-.886.495-.048 0-.289.209-.535.462-.247.254-.517.462-.6.462-.084 0-.281.123-.438.273-.524.5-.84.736-1.064.79-.216.052-.935.727-.935.877 0 .041-.151.075-.336.075-.185 0-.336.032-.336.071 0 .112-.87.966-1.12 1.098-.123.066-.224.168-.224.228s-.189.232-.42.383c-.23.151-.42.304-.42.34 0 .035-.055.064-.124.064-.068 0-.188.098-.266.218a.856.856 0 0 1-.337.291c-.107.04-.299.225-.426.409-.128.184-.313.365-.41.401-.228.085-1.007.785-2.386 2.145-.598.589-1.101 1.07-1.12 1.07-.117 0-3.077 2.895-3.077 3.011 0 .036-.168.184-.374.329a2.551 2.551 0 0 0-.567.56c-.106.164-.235.298-.287.299-.053 0-.202.143-.331.316-.13.173-.314.392-.41.486-.393.39-1.244 1.373-1.384 1.6a3.04 3.04 0 0 1-.42.496c-.41.387-.41.386-.743.946a19.19 19.19 0 0 1-1.467 2.054c-.18.218-.409.547-.51.73a5.19 5.19 0 0 1-.393.601 7.205 7.205 0 0 0-.462.702c-.139.24-.357.605-.486.81-.408.646-.971 1.618-1.15 1.98a13.61 13.61 0 0 1-.506.902c-.184.304-.335.587-.335.63 0 .1-.921 1.884-1.002 1.94-.095.067-.426.796-.426.94 0 .071-.076.226-.168.343-.092.118-.168.252-.168.299 0 .075-.291.671-.5 1.022a8.21 8.21 0 0 0-.214.42c-.26.546-.387.756-.458.756-.039 0-.176.293-.305.65-.13.359-.259.67-.288.694-.052.041-.296.55-.513 1.07-.063.15-.143.273-.178.273s-.063.071-.063.158a.37.37 0 0 1-.116.253c-.063.053-.165.275-.226.494-.062.218-.178.469-.26.556-.081.088-.234.4-.34.693-.105.294-.22.534-.254.534-.035 0-.064.049-.064.11 0 .06-.15.409-.333.775-.182.366-.38.827-.438 1.024-.058.197-.136.358-.174.358-.082 0-.399.714-.399.897 0 .07-.07.227-.156.35-.086.122-.204.424-.262.67-.058.246-.158.467-.222.492-.063.024-.116.136-.116.248 0 .112-.056.34-.126.505-.069.166-.126.353-.126.416s-.116.351-.257.64c-.142.29-.388.98-.546 1.535-.276.962-.393 1.358-.797 2.687-.098.323-.252.943-.343 1.377-.09.434-.22.895-.286 1.025a1.46 1.46 0 0 0-.124.554 3.23 3.23 0 0 1-.09.655 32.54 32.54 0 0 0-.245 1.092c-.086.416-.194.926-.24 1.134-.093.426-.29 2.05-.435 3.593-.135 1.425-.018 3.443.27 4.637.109.454.41 1.352.494 1.47.033.046.088.178.123.293.113.37.953 1.57 1.451 2.075.979.99 2.003 1.936 3.3 3.048.845.725 3.295 3.192 3.597 3.622.15.213.355.433.457.487a.8.8 0 0 1 .288.326c.057.124.235.372.397.55.16.179.293.357.293.397 0 .04.17.263.378.497.208.234.47.608.583.83.113.223.295.515.404.649.352.43.902 1.648.902 2a.52.52 0 0 0 .122.296c.16.175.382 1.036.382 1.473 0 .188.055.42.122.516.166.236.327 1.86.27 2.729-.06.938-.261 2.008-.392 2.088-.057.036-.095.174-.083.306.087.975-.06 2.012-.329 2.327-.1.117-.132.351-.133.969 0 .652-.032.863-.157 1.053-.086.132-.19.503-.23.826-.082.655-.321 1.49-.427 1.49-.038 0-.069.104-.07.23 0 .266-.353 1.352-.531 1.636a1.723 1.723 0 0 0-.176.509c-.053.3-.288.788-.514 1.068-.056.07-.13.22-.164.336a6.636 6.636 0 0 1-.207.546 31.62 31.62 0 0 0-.538 1.532c-.217.658-.498 1.414-.625 1.68-.251.526-.689 1.298-.774 1.365a.55.55 0 0 0-.104.21 5.093 5.093 0 0 1-.562 1.268c-.14.221-.255.461-.256.533-.002.072-.076.225-.167.34-.09.116-.165.243-.166.284-.003.137-.456 1.1-.715 1.522a11.99 11.99 0 0 0-.498.924c-.131.277-.36.693-.507.924a33 33 0 0 0-.634 1.05l-.58 1c-.12.203-.32.473-.448.6-.127.127-.23.286-.23.353 0 .068-.074.216-.163.33-.09.114-.19.317-.223.452-.034.135-.206.466-.384.734-.177.27-.322.53-.322.578 0 .128-.333.657-.58.924-.225.244-.312.392-.755 1.293-.157.319-.333.636-.391.706-.059.07-.265.428-.458.798-.193.37-.4.728-.46.797-.14.161-.429.861-.547 1.323-.05.196-.119.357-.153.357-.078 0-.312.458-.43.844-.05.164-.2.507-.333.763-.132.256-.27.594-.304.752-.035.157-.228.64-.43 1.073-.202.432-.391.886-.42 1.007-.029.122-.139.41-.244.642-.105.23-.333.835-.507 1.344-.174.508-.343.942-.374.965-.032.023-.085.231-.119.462-.033.231-.118.628-.188.882s-.146.548-.17.652c-.024.105-.077.21-.118.236-.04.025-.075.129-.077.23a2.125 2.125 0 0 1-.131.52c-.175.46-.365 1.243-.449 1.847-.076.548-.107.652-.36 1.218a2.83 2.83 0 0 0-.204.714c-.068.668-.507 2.78-.624 3.001-.042.08-.076.27-.076.42 0 .15-.076.473-.168.716-.093.243-.168.522-.168.621 0 .099-.098.392-.217.65l-.33.722a1.34 1.34 0 0 0-.113.462c.002.372-.166 1.352-.25 1.455-.046.054-.11.288-.143.519-.033.23-.093.46-.133.511-.041.052-.023.285.042.546.185.735.215 1.06.108 1.199-.08.105-.132.11-.28.028zm65.73-86.57c0-.046-.038-.06-.084-.032-.046.029-.084.09-.084.136 0 .047.038.061.084.033.046-.029.084-.09.084-.136zm-11.841-3.685a.084.084 0 0 0-.168 0 .084.084 0 0 0 .168 0zm-.286-.313c0 .121-.155.043-.085.157.053.085.072.085.1 0 .02-.058-.015-.196-.015-.157zm-8.029-4.725c0-.047-.016-.084-.037-.084-.02 0-.06.037-.089.084-.028.046-.011.083.038.083.048 0 .088-.037.088-.083zm-35.69 87.36c.002-.494.092-.673.247-.487.144.174.042.887-.128.887-.088 0-.12-.108-.12-.4zm51.5-1.336c-.17-.068-.12-.256.08-.31.217-.056.35.1.22.258-.095.114-.131.12-.3.052zm70.87-7.717.01-.667.08.577c.056.4.053.605-.01.668-.065.064-.088-.1-.08-.578zm-56.056.11c-.053-.036-.267-.06-.474-.056a38.35 38.35 0 0 1-1.596-.05c-.67-.03-1.671-.071-2.226-.09-.554-.018-1.186-.07-1.403-.117-.218-.046-.456-.06-.528-.032-.073.027-.197-.006-.276-.077-.08-.07-.378-.154-.665-.186-.287-.032-.562-.108-.611-.168-.05-.06-.297-.134-.549-.166-.252-.031-.48-.092-.507-.136-.027-.043-.15-.077-.274-.076-.395.005-.805-.105-1.047-.284-.2-.148-.26-.158-.407-.066-.148.093-.247.071-.724-.159-.303-.146-.65-.356-.768-.467-.12-.11-.242-.2-.273-.2-.03 0-.134-.135-.231-.3-.097-.164-.215-.275-.26-.247-.053.033-.085-.127-.085-.42 0-.499-.114-.56-.212-.114-.043.193-.077.232-.131.146a.681.681 0 0 1-.075-.302.357.357 0 0 0-.176-.279c-.099-.053-.155-.145-.129-.212.025-.066-.03-.158-.125-.21-.124-.066-.147-.119-.083-.195.061-.074.06-.134-.004-.197-.05-.05-.077-.246-.059-.435.018-.189.01-.343-.019-.343-.029 0-.098-.209-.155-.463-.057-.255-.139-.442-.182-.415-.043.026-.078-.026-.078-.116 0-.09-.059-.187-.13-.214-.073-.028-.108-.09-.08-.136.03-.047-.025-.185-.12-.306s-.173-.257-.173-.301c0-.045-.053-.2-.117-.346a11.699 11.699 0 0 1-.223-.559 2.225 2.225 0 0 0-.2-.42c-.151-.207-.362-.685-.513-1.16-.147-.466-.222-1.61-.106-1.61.037 0 .067.057.067.128 0 .07.066.153.147.183.08.03.166.076.189.102.196.225 1.185.502 2.225.623.139.016.359.073.489.126.13.053.319.097.42.097.1 0 .28.052.399.114.119.062.553.138.966.17 1.121.087 1.736.213 1.935.398.152.142.208.15.4.063.172-.078.248-.08.323-.003.054.054.293.098.53.098.237 0 .46.029.495.063.035.035.353.07.707.079 1.025.025 1.475.064 1.59.139.119.075.775.159 1.11.14a14.475 14.475 0 0 1 2.52.058c.53.059 1.476.122 2.1.14 1.181.034 1.456.07 1.636.22.076.064.219.06.493-.014.353-.094.407-.088.629.077.216.16.261.166.415.059.137-.096.372-.11 1.165-.067 1.132.062 1.063.061 2.128.002.438-.024 1.459-.07 2.267-.1 2.317-.09 2.55-.104 2.741-.165.101-.033.204-.018.236.034.071.115.405.119.519.005.047-.048.205-.101.35-.12a1.25 1.25 0 0 0 .33-.074c.036-.022.44-.064.9-.093.46-.029.885-.095.946-.145.062-.051.423-.098.803-.105.38-.006.744-.045.809-.085.114-.071.765-.223 1.688-.394.254-.048.594-.118.756-.158.161-.04.519-.116.793-.171.275-.055.559-.13.63-.167.345-.175 1.579-.605 1.806-.628.14-.015.37-.065.508-.111.139-.046.403-.13.588-.184.185-.055.477-.19.649-.3.172-.112.389-.202.481-.202.093 0 .403-.114.689-.252.286-.139.555-.252.597-.252.043 0 .183-.075.312-.167.128-.092.418-.207.642-.255.553-.12.759-.302.828-.73.05-.316.032-.378-.17-.566-.21-.194-.22-.23-.124-.464.058-.14.15-.254.206-.254.056 0 .19-.094.299-.21.23-.245.555-.276.624-.06.026.083.16.216.297.297.17.101.357.367.588.84.418.856.438 1.308.125 2.881-.163.816-.274 1.165-.462 1.45-.137.205-.248.406-.248.444 0 .122-.858 1.451-.985 1.525a3.21 3.21 0 0 0-.393.337 4.973 4.973 0 0 1-1.226.894c-.208.105-.397.217-.42.25a1.303 1.303 0 0 1-.294.186c-.473.243-.674.362-1.26.752a8.48 8.48 0 0 1-1.007.575c-.231.101-.649.294-.929.429-.28.134-.567.244-.638.244-.07 0-.2.08-.289.178-.165.185-.578.39-1.587.793-.324.13-.624.266-.668.304-.044.038-.168.069-.276.069-.108 0-.339.072-.512.16a2.792 2.792 0 0 1-.648.22c-.182.033-.54.115-.794.184a24.34 24.34 0 0 1-1.47.356c-.23.048-.556.142-.723.208-.23.092-.327.097-.4.023-.075-.074-.137-.073-.259.002-.088.055-.682.16-1.319.235-.637.073-1.202.17-1.255.215-.145.12-1.452.309-2.552.369-.531.028-1.25.094-1.595.145-.347.051-.952.103-1.344.115a8.291 8.291 0 0 0-1.092.1c-.208.044-1.19.088-2.183.1-.994.01-2.046.026-2.339.032-.293.006-.577-.016-.63-.051zm-1.251-15.229c-.022-.022-.47-.058-.997-.08-1.234-.05-1.527-.086-1.767-.214-.108-.058-.197-.097-.197-.086 0 .01-.14-.04-.312-.112-.172-.072-.351-.13-.399-.13a.085.085 0 0 1-.086-.083c0-.046-.174-.127-.385-.18-.212-.053-.405-.148-.43-.211-.023-.063-.11-.115-.192-.115a.374.374 0 0 1-.25-.122.68.68 0 0 0-.272-.177 1.267 1.267 0 0 1-.34-.192 40.218 40.218 0 0 1-2.335-2.112 81.434 81.434 0 0 0-1.07-1.047c-.194-.184-.353-.38-.353-.437 0-.057-.054-.133-.12-.17-.127-.071-.804-1.455-.804-1.643a.633.633 0 0 0-.116-.275c-.176-.252-.33-1.23-.362-2.307-.03-1.002.018-1.218.251-1.128.165.063.526.687.605 1.043.03.14.131.295.224.345.092.05.218.21.28.356.061.146.218.36.35.476.663.583.725.62.987.603.146-.01.528.031.85.091.796.148 2.496.096 3.68-.114.27-.048.544-.067.608-.042.064.024.411-.029.772-.119.36-.09.936-.186 1.28-.214.345-.029.752-.09.905-.137.305-.093.328-.098.814-.186.184-.033.43-.1.545-.15.366-.153 1.285-.32 1.771-.32.258 0 .494-.025.525-.056.031-.03.33-.064.665-.075a38.59 38.59 0 0 0 1.574-.099c.532-.044 1.117-.067 1.302-.05.185.016.393.033.462.037.07.004.34-.03.603-.079.328-.06.576-.06.79 0 .172.047.468.064.657.037.47-.066.453-.065.973-.013.254.026.528.045.61.042a272.198 272.198 0 0 0 2.54.003l1.89-.004c1.643 0 6.055.1 6.214.14.115.03.59.064 1.055.075.465.011.928.064 1.029.118.121.065.234.072.333.019.146-.078 1.772.01 2.269.124.125.028.378.063.563.076.724.053 1.562.212 2.03.384.269.1.678.216.909.259.23.042.628.117.882.165.912.173 1 .154 2.338-.503.154-.075.334-.241.4-.368.159-.303.285-.294.285.02 0 .14.032.253.07.253.146 0 .162-.103.05-.32-.128-.246-.044-.405.17-.323.082.031.128.14.121.284a7.04 7.04 0 0 0 .051.793c.06.528.048.594-.216 1.134-.28.571-.28.579-.312 2.022-.03 1.36-.042 1.449-.193 1.449-.127 0-.161.06-.161.289 0 .159.038.312.084.34.05.031.084-.069.084-.246 0-.273.154-.44.178-.194.043.45-.023 1.446-.102 1.541-.163.197-.761.145-1.084-.093-.157-.115-.335-.21-.397-.21s-.132-.053-.157-.117c-.025-.064-.221-.144-.436-.176-.322-.048-.453-.126-.738-.441-.227-.251-.383-.36-.453-.317a1.756 1.756 0 0 1-.394.13c-.273.062-.29.052-.339-.19-.029-.144-.116-.272-.2-.294-.1-.026-.144-.11-.134-.261.013-.2-.012-.22-.237-.2-.139.013-.44.032-.67.042-.343.015-.434.053-.515.215-.054.108-.112.155-.129.103-.039-.116-.49.076-.491.209-.002.238.452.4.523.187.02-.057.077.018.128.166.052.148.065.287.029.309-.116.071-.68-.145-.68-.26 0-.062-.039-.112-.085-.112-.046 0-.084.075-.084.168 0 .164-.115.21-.451.18-.087-.007-.245.08-.352.196-.107.115-.248.19-.313.165-.146-.057-1.697.145-1.697.22 0 .011-.586.068-1.302.128-.716.06-1.585.149-1.931.196-.49.068-2.808.238-3.422.252-.162.003-.43.013-1.071.04a11.43 11.43 0 0 1-1.218-.035c-.346-.033-.69-.028-.765.01-.075.038-.33.038-.57 0-.242-.038-.454-.036-.48.004-.024.04-.291.049-.593.018-.417-.043-.565-.03-.618.057-.058.095-.105.095-.278.002-.114-.061-.25-.085-.301-.053-.052.032-.594.078-1.205.102-.61.024-1.172.077-1.248.118-.075.04-.264.07-.42.067a1.687 1.687 0 0 0-.576.118 3.635 3.635 0 0 1-.79.184c-.274.033-.557.092-.63.13-.269.142-.987.324-1.497.381-.288.033-.563.107-.612.165-.063.077-.275.094-.756.062-.459-.03-.707-.011-.791.059a.352.352 0 0 1-.3.046.348.348 0 0 0-.302.05c-.07.058-.418.122-.773.143-.619.037-.733.037-1.255-.004a1.983 1.983 0 0 0-.494.04c-.144.03-.28.038-.303.016zm33.487-3.573c.107-.373-.161-.384-.315.007-.127.323-.08.495.105.381.046-.028.087-.002.09.058.012.22.048-.194.12-.447zm-4.997.522c0-.157.104-.34.17-.3.085.052.003.377-.096.377a.076.076 0 0 1-.074-.077zm9.175-5.696a.425.425 0 0 1-.189-.368c0-.133-.038-.242-.084-.242-.046 0-.084-.071-.084-.16 0-.124.055-.155.25-.142.137.01.273.04.301.07.092.091.143.713.068.843-.065.112-.093.112-.262 0zm-15.738-12.324c-.023-.023-1.645-.047-3.605-.053-1.96-.005-3.6-.032-3.644-.059-.103-.06-.395-.078-2.176-.133-.79-.025-1.665-.083-1.942-.13a6.876 6.876 0 0 0-.944-.087c-.243 0-.441-.035-.441-.076 0-.042-.16-.095-.357-.118-.592-.07-2.091-.22-2.562-.257-.243-.019-.497-.08-.564-.135-.072-.06-.221-.08-.364-.048-.145.032-.492-.016-.863-.119-.34-.094-.75-.172-.91-.172a2.11 2.11 0 0 1-.547-.084c-.287-.094-1.615-.428-1.812-.455a3.537 3.537 0 0 1-.42-.111 8.387 8.387 0 0 0-.908-.192c-.338-.054-.632-.143-.653-.198-.02-.054-.141-.107-.267-.118-.315-.026-.703-.16-1.156-.401-.211-.112-.433-.204-.494-.204-.171 0-.833-.31-1.086-.51-.125-.097-.278-.185-.342-.194a.573.573 0 0 1-.229-.108 1.153 1.153 0 0 0-.323-.154 1.08 1.08 0 0 1-.339-.174c-.07-.062-.41-.254-.753-.425-.638-.32-.807-.465-1.764-1.52-.795-.876-1.347-1.907-1.718-3.214a37.174 37.174 0 0 0-.298-1.008c-.152-.449-.356-3.725-.3-4.807.055-1.068.278-2.363.502-2.919.354-.88.47-1.212.47-1.34 0-.18.56-1.796.756-2.187.082-.162.175-.455.208-.652.033-.198.107-.407.166-.465.058-.058.151-.244.207-.414.056-.17.194-.444.307-.61.112-.166.204-.355.204-.42 0-.064.038-.14.084-.168.047-.029.085-.135.085-.236 0-.19.03-.256.507-1.108.154-.277.402-.75.55-1.05.146-.3.366-.63.487-.734.12-.104.219-.226.219-.271 0-.187.594-1.33.873-1.682.166-.208.302-.416.302-.462 0-.046.12-.21.264-.364a3.45 3.45 0 0 0 .441-.62c.099-.186.211-.325.25-.307.037.017.146-.196.24-.473.101-.296.35-.729.604-1.05.925-1.166 1.401-1.89 1.8-2.736.312-.66.84-1.295 1.077-1.295.06 0 .2-.179.313-.398a3.77 3.77 0 0 1 .453-.676 2.59 2.59 0 0 0 .4-.672c.083-.217.276-.527.428-.689.153-.162.32-.398.374-.525.052-.127.12-.23.148-.23.143-.001.533-.439.683-.766.092-.203.226-.444.297-.536.11-.143.141-.15.206-.044.06.098.105.057.207-.186a2.28 2.28 0 0 0 .13-.368c0-.031.142-.263.315-.514a30.8 30.8 0 0 0 .567-.858c.342-.542.816-1.055 1.102-1.193.177-.084.29-.253.449-.663.242-.628.366-.829.796-1.292.169-.182.333-.371.365-.422.033-.05.165-.159.294-.241.13-.083.259-.214.286-.292.028-.078.177-.3.332-.492.154-.193.28-.387.28-.432 0-.045.05-.1.11-.124.06-.023.273-.365.472-.761.4-.792.645-1.085.756-.905.043.07.085-.006.118-.216a1.72 1.72 0 0 1 .264-.615l.359-.499a3.79 3.79 0 0 1 .273-.337c.07-.072.39-.526.714-1.01.323-.483.645-.939.714-1.012.07-.073.22-.293.336-.49.115-.196.354-.533.53-.75.43-.529.872-1.332.94-1.707.055-.296.04-.32-.45-.714-.278-.224-.526-.464-.552-.534a1.462 1.462 0 0 0-.236-.336c-.223-.246-.4-.572-.433-.797-.013-.087-.068-.174-.122-.192-.053-.018-.097-.107-.097-.198 0-.092-.038-.143-.084-.114-.095.058-.109-.048-.032-.248.04-.105.077-.113.17-.036.065.053.141.074.17.046.028-.028.15.018.27.102.121.084.613.356 1.094.604.506.262.89.515.912.6.021.082.07.15.107.15.073 0 .655.561 1.006.97.117.136.36.568.54.961.354.768.7 1.344.807 1.344.037 0 .112.215.166.479.122.585.03 1.221-.341 2.376-.314.974-.464 1.308-1.26 2.813-.196.37-.414.786-.485.924a7.57 7.57 0 0 1-.348.588c-.12.185-.275.45-.342.588-.124.258-.49.857-.614 1.008a4.939 4.939 0 0 0-.252.389c-.49.82-2.293 3.436-2.595 3.768-.23.251-.628.808-.9 1.258a9.307 9.307 0 0 1-.73.991c-.247.292-.45.56-.45.595 0 .035-.068.137-.15.226a6.46 6.46 0 0 0-.435.583c-.156.23-.425.576-.598.767a3.75 3.75 0 0 0-.46.63c-.08.155-.272.414-.427.574-.155.16-.282.33-.282.379 0 .048-.075.134-.168.192-.092.057-.168.144-.168.191 0 .08-.312.57-.426.668a2.336 2.336 0 0 0-.21.336 1.925 1.925 0 0 1-.257.378c-.053.046-.334.443-.625.882-.29.439-.557.817-.592.841-.073.051-.259.318-1.226 1.762-.387.578-.756 1.125-.82 1.218a45.93 45.93 0 0 0-.499.756c-.346.533-.516.773-.762 1.073-.109.133-1.169 1.745-1.574 2.394-1.217 1.95-1.604 2.6-2.015 3.377-.256.485-.64 1.183-.853 1.552-.212.368-.386.705-.386.749 0 .043-.222.536-.494 1.094-1.175 2.417-1.365 2.863-1.883 4.415-.629 1.882-.783 2.446-.86 3.15-.049.442-.034.523.116.659.094.085.211.13.26.1.05-.031.19.022.311.117.122.095.306.173.41.173.103 0 .233.055.288.121.055.066.22.146.367.176s.43.15.63.265c.252.145.43.193.577.156a.38.38 0 0 1 .363.081c.085.077.36.154.64.178.271.024.625.096.786.16.352.141 1.004.276 1.806.375.323.04 1.022.154 1.554.254.53.099 1.098.196 1.26.215.544.064 1.298.13 1.805.159.277.015.617.054.756.086.262.06.417.071.84.058.138-.004.573.013.965.04.393.025.903.052 1.134.06.231.007.458.038.505.067.046.03.253.023.46-.015.311-.057.415-.04.61.1.191.135.26.148.361.064.092-.076.32-.087.858-.04.403.034.875.06 1.048.056l.504-.009c.339-.005 1.101.067 1.65.156.295.048.574.065.62.037.119-.073 1.475-.046 1.596.032.116.075.155.077 3.119.12 2.713.04 4.276-.095 4.748-.41.118-.078.26-.133.316-.12.056.011.245-.048.42-.131.174-.084.544-.222.821-.309.683-.213 2.194-.938 2.248-1.08.024-.062.193-.158.375-.213a1.71 1.71 0 0 0 .525-.267.726.726 0 0 1 .398-.17.877.877 0 0 0 .346-.076c.102-.054.204-.033.344.073.174.132.198.213.184.644-.021.665-.167 1.554-.278 1.687-.05.06-.137.108-.195.108-.128 0-.21.376-.21.96 0 .452-.1.636-.346.636-.183 0-.243.164-.136.37.105.204.024 1.027-.118 1.198a.65.65 0 0 0-.126.265c-.026.175-.266.35-.487.354-.23.004-.64.347-.758.636-.122.3-.064.704.1.704.09 0 .115-.061.087-.21-.026-.136-.002-.21.068-.21.06 0 .121.085.136.19.015.103.082.188.15.188.072 0 .146.12.182.294.052.249.027.333-.164.545-.296.329-.364.376-.544.378-.083 0-.235.097-.336.215-.144.167-.282.222-.622.247-.24.018-.511.073-.603.122-.092.049-.349.09-.571.093-.223.002-.54.052-.705.11-.166.06-.369.084-.452.055-.082-.029-.4.006-.707.08-.563.134-1.171.158-1.34.053-.052-.032-.182.001-.291.073-.11.07-.217.11-.24.088zm37.737-3.004c-.153-.184-.166-.902-.017-.902.046 0 .084.044.084.098 0 .054.063.168.14.252.13.144.128.154-.022.156-.15.002-.152.01-.013.115.081.061.147.173.147.249 0 .163-.194.182-.32.032zm.198-1.931c-.254 0 .092-.26.2-.192.164.101.102.381-.084.381-.142 0 .045-.189-.116-.189zm.268-.53c-.15-.05-.068-.349.102-.552.091-.11.167-.159.168-.11a.277.277 0 0 1-.075.168c-.042.043-.09.187-.105.318-.015.132-.043.19-.09.175zm-30.115-5.16c0-.115.02-.162.043-.105a.324.324 0 0 1 0 .21c-.024.058-.043.01-.043-.105zm37.197-20.204c.004-.098.024-.118.05-.05.025.06.022.132-.005.16-.028.028-.048-.021-.044-.11zm-43.635-2.257c-.54-.148-1.011-.435-1.288-.784-.482-.61-.962-1.56-1.238-2.453a6.188 6.188 0 0 0-.215-.608.911.911 0 0 1-.072-.338.745.745 0 0 0-.114-.358c-.151-.22-.332-1.973-.24-2.328.055-.214.143-.184.498.173.175.176.477.389.67.473.321.139.415.143 1.05.043.384-.06.743-.143.8-.186.055-.043.339-.097.63-.121.29-.025.61-.096.71-.159.101-.063.423-.169.714-.235.292-.066.687-.16.878-.21.19-.05.521-.106.735-.127.214-.021.508-.098.653-.17.363-.181.879-.173.985.015.078.14.085.14.14-.003.083-.215.479-.396.869-.396.185 0 .433-.044.552-.098.166-.076.24-.076.315 0 .118.118.585.128.94.02.66-.2.967-.262 1.434-.289.278-.015.61-.072.74-.125a1.3 1.3 0 0 1 .353-.096.225.225 0 0 0 .172-.092c.033-.052.161-.072.296-.045.132.027.263.007.294-.042.038-.061.082-.054.136.023.062.09.09.091.122.01.057-.14.252-.134.307.01.075.195.472.22.639.041.087-.094.387-.206.728-.274.32-.062.647-.141.727-.175.11-.045.148-.02.149.095.003.341.124.39.44.176.51-.347.798-.437 1.02-.318.163.087.26.075.619-.08.476-.204.746-.195.708.024-.044.26.297.16.64-.187.392-.396.67-.481 1.122-.346.29.087.358.082.494-.042.194-.176.588-.116.851.13.198.184.319.217.319.086 0-.118.662-.52.759-.46.044.027.128.02.186-.018.204-.13.65-.258.65-.185 0 .041.262.075.582.075.406 0 .62.038.708.126.147.146.39.167.39.034 0-.13.351-.406.521-.41.079-.002.24.042.359.096.188.086.244.071.444-.116.385-.358.944-.548.944-.32 0 .09.397.217.57.182.06-.012.178.063.262.167l.153.189.218-.345c.26-.411.387-.504.48-.352.058.092.177.079.652-.074.32-.103.747-.183.95-.177.202.005.465-.028.583-.075.269-.107 1.85-.11 1.982-.004.065.053.2-.012.41-.196l.314-.276.12.181c.1.15.174.173.43.132.169-.027.421-.133.56-.236.352-.262.74-.334.882-.164.166.2.98.088 1.26-.173.122-.115.367-.22.587-.251.208-.03.474-.122.59-.203.117-.082.429-.25.693-.376.39-.184.48-.265.48-.43 0-.237-.132-.263-.347-.068-.131.119-.19.123-.427.029a1.83 1.83 0 0 1-.407-.221.552.552 0 0 0-.307-.113c-.111 0-.24-.11-.354-.305-.198-.334-.187-.503.115-1.86.096-.435.11-.657.05-.77a1.168 1.168 0 0 1-.086-.45c0-.159-.053-.333-.117-.387-.065-.053-.137-.237-.162-.409-.083-.591-.353-1.675-.446-1.79a1.044 1.044 0 0 1-.142-.37 67.904 67.904 0 0 1-.121-.636 1.94 1.94 0 0 0-.256-.643c-.101-.142-.183-.284-.183-.316a1.59 1.59 0 0 0-.125-.323 7.191 7.191 0 0 1-.238-.598l-.114-.333-1.169-.004c-.708-.004-1.35.039-1.63.107a4.862 4.862 0 0 1-.965.112 4.92 4.92 0 0 0-.877.082c-.204.046-.79.105-1.299.13-.51.027-1.022.087-1.14.136-.116.048-.42.094-.674.102-.575.018-2.892.206-3.233.263a24.05 24.05 0 0 1-1.344.107c-.6.037-1.154.094-1.23.128-.077.034-.163.152-.19.263-.042.165.041.297.458.729.28.29.572.631.649.758.077.127.185.231.24.231.056 0 .152.114.213.253.062.14.176.273.253.298.078.025.166.156.196.293.03.136.088.248.128.248.04 0 .126.123.19.273.227.525.325 1.035.34 1.756.011.63-.012.762-.17.976-.216.292-.333.816-.214.964.045.057.11.362.142.676.062.594.057.61-.47 1.696-.168.344-.601.734-1.08.972-.272.135-.55.245-.617.245-.066 0-.146.065-.177.145-.038.1-.074.114-.116.047-.042-.068-.186-.019-.478.164-.26.164-.51.256-.664.245a1.31 1.31 0 0 0-.535.12c-.24.114-.302.118-.363.023-.056-.087-.09-.09-.14-.013-.062.097-.521.087-.686-.014-.041-.026-.247-.001-.455.054-.32.085-.48.078-1.001-.045-.505-.119-.663-.127-.844-.045-.123.056-.223.13-.223.163 0 .125-.782.175-1.205.076-.461-.108-.874-.366-1.256-.786l-.4-.44c-.089-.098-.162-.215-.162-.26 0-.043-.076-.148-.168-.232-.093-.083-.168-.212-.168-.285 0-.074-.227-.437-.504-.806-.277-.37-.504-.703-.504-.74 0-.037-.151-.29-.336-.562-.185-.272-.336-.535-.336-.584a.68.68 0 0 0-.074-.236 3.104 3.104 0 0 1-.335-1.027c-.044-.254-.062-.49-.04-.525.083-.134.307-.053.538.194.234.25.255.255.847.214.969-.067 1.438-.44 1.41-1.12-.018-.416.273-1.312.58-1.787.27-.42.677-.882.82-.933.052-.018.254-.222.45-.453.197-.23.457-.533.58-.671.236-.27.43-.599.43-.73 0-.044-.198-.072-.44-.061-.407.017-.71-.02-2.26-.275-.307-.05-.62-.069-.693-.04-.075.028-.579-.007-1.121-.079-1.352-.177-2.776-.236-5.395-.222-2.517.014-3.138.047-3.568.189-.166.054-.355.079-.42.054-.064-.025-.242-.007-.395.04-.293.09-1.056.182-1.412.17-.702-.022-1.68-.173-1.931-.298-.744-.37-.919-.478-1.16-.719a2.918 2.918 0 0 1-.445-.634c-.104-.207-.27-.43-.369-.495-.22-.144-.448-1.02-.303-1.166.065-.065.147-.038.29.096.264.248.756.384.972.268.09-.048.301-.087.469-.087.168 0 .387-.045.488-.099.101-.054.43-.11.73-.123.854-.038 1.415-.097 1.516-.16.05-.03.326-.09.61-.13.286-.042.699-.108.918-.147.292-.052.442-.04.558.04.133.094.175.092.262-.013.062-.075.248-.124.466-.124.2 0 .386-.038.414-.084.029-.046.173-.08.32-.075a5.52 5.52 0 0 0 .808-.08c.297-.049.572-.069.611-.045.157.097.826.12.987.034a.322.322 0 0 1 .338-.004c.123.066.245.056.472-.039.343-.143.838-.17.913-.048.044.071.3.065 1.346-.033.185-.018.525-.034.756-.036l.546-.007c.305-.005.562-.06.77-.164.24-.12.826-.064.826.08 0 .095.364.108.454.017.034-.034.636-.127 1.337-.206.7-.078 1.48-.176 1.733-.218.523-.086.759-.049.759.12 0 .172.132.14.386-.095.165-.153.255-.186.332-.122.074.062.123.062.16 0 .12-.192.195-.07.152.248-.056.42.077.44.267.04.077-.162.176-.274.22-.247.043.027.078.012.078-.035 0-.123.782-.225.822-.107.022.067.102.058.27-.029a2.12 2.12 0 0 1 .602-.165c.2-.023.546-.074.769-.115.223-.04.544-.049.714-.02.308.054.507.048.98-.03.475-.076.756-.154.862-.238.058-.046.456-.09.883-.098.428-.008.817-.038.866-.068.049-.03.388-.076.754-.103 1.336-.096 1.512-.12 1.813-.247.27-.113.319-.114.41-.004.136.164.536.13 1.006-.083.304-.139.534-.17 1.162-.161.43.007.823.052.872.101.064.064.141.062.266-.007a.841.841 0 0 1 .294-.1c.317-.01.446-1.306.13-1.306-.072 0-.122-.081-.122-.2a.444.444 0 0 0-.126-.304.385.385 0 0 1-.126-.258.277.277 0 0 0-.121-.222c-.067-.037-.242-.294-.39-.57-.146-.277-.292-.523-.323-.546-.031-.023-.11-.171-.174-.33a3.555 3.555 0 0 0-.394-.651c-.152-.2-.278-.392-.278-.426 0-.034-.17-.326-.378-.648-.207-.322-.377-.632-.377-.69 0-.057-.078-.146-.173-.197a.564.564 0 0 1-.23-.244c-.033-.083-.199-.317-.37-.52-.85-1.003-1.004-1.198-1.288-1.626-.169-.254-.336-.462-.372-.462-.035 0-.16-.142-.277-.315-.33-.489-.49-.684-.962-1.179-.241-.252-.486-.568-.545-.7-.059-.133-.146-.242-.194-.242-.111 0-.344-.271-.41-.477-.027-.088-.22-.301-.428-.475s-.378-.369-.378-.434a.248.248 0 0 0-.105-.184c-.057-.037-.293-.294-.524-.571-.482-.582-.848-.966-.918-.966-.113 0-.754-.736-.86-.987-.063-.15-.154-.273-.202-.273-.049 0-.068-.032-.044-.072.024-.039-.091-.18-.256-.315a4.466 4.466 0 0 1-.373-.327c-.43-.504-.581-.708-.581-.78 0-.049-.137-.214-.303-.368a3.222 3.222 0 0 1-.453-.518c-.083-.131-.362-.457-.62-.725-.26-.268-.472-.52-.472-.56 0-.04-.077-.122-.17-.18-.095-.06-.153-.139-.129-.177.041-.066-.199-.332-.6-.666a1.106 1.106 0 0 1-.274-.387c-.048-.128-.157-.25-.24-.272-.084-.022-.222-.16-.306-.307a5.765 5.765 0 0 0-.456-.632c-.34-.41-.545-.711-.698-1.02a1.144 1.144 0 0 0-.157-.252c-.1-.082-.26-.442-.423-.953-.09-.284-.197-.593-.236-.685-.123-.29-.274-1.064-.352-1.805-.401-3.812-.372-5.76.094-6.257.102-.109.163-.234.136-.279-.028-.045.009-.104.082-.132.232-.09.29-.056.242.138-.026.104.01.35.08.548.081.23.101.426.056.546-.082.219-.218 1.324-.178 1.446.016.047.083.292.15.546.066.254.168.519.224.588.057.07.15.29.207.491.058.2.244.598.414.883.17.285.376.65.458.811.082.161.339.515.57.786.232.272.477.6.544.73.068.131.257.34.422.466.164.125.353.332.419.46s.32.453.564.721c.245.269.595.716.778.993.183.277.507.685.72.907.213.222.44.505.504.63.064.124.296.411.516.638.22.228.399.483.399.568 0 .085.038.154.084.154.046 0 .086.047.089.105.003.058.172.237.375.399.204.162.455.426.559.588.103.161.454.58.779.93.825.888 1.305 1.445 1.305 1.513 0 .032.057.08.126.107.07.026.126.1.126.163s.104.214.23.336c.473.453.61.612.61.708 0 .054.208.308.462.564.254.256.462.49.462.52 0 .07.765.977.893 1.059.055.034.221.261.369.504.148.242.39.591.538.776.148.185.342.463.431.617.09.155.285.413.435.573.15.16.273.363.273.45 0 .086.132.258.294.381.161.124.294.294.294.38 0 .085.113.27.252.412.138.142.252.315.252.384 0 .07.056.147.126.174.069.027.126.115.126.196s.115.275.257.432c.142.156.297.388.344.515.048.127.118.231.155.231.102 0 .643 1.007.71 1.323.032.15.086.273.12.273s.151.16.26.357c.11.196.225.375.257.398.033.024.146.25.252.504.105.254.24.519.297.588.058.07.131.229.163.354a.72.72 0 0 0 .174.325c.065.054.118.127.118.163 0 .036.151.305.336.598.185.294.358.59.384.66.158.42.582 1.26.636 1.26.036 0 .144.085.241.188.162.174.24.187.948.165a8.827 8.827 0 0 0 1.276-.135c.515-.112 2.071-.121 2.323-.014.077.033.247.005.378-.064.18-.092.346-.105.679-.053.242.039.47.087.504.108.147.087 1.133-.122 1.357-.287.287-.212.524-.186.637.07.045.105.111.19.146.19.036 0 .065.05.065.112s.114.342.254.622c.14.28.25.541.242.58-.043.244.035.383.26.462.138.048.236.112.217.143-.02.031.014.147.074.259.06.112.09.338.068.507-.04.288-.029.303.199.3.238-.005.24 0 .24.515 0 .452.03.55.23.76.127.133.231.287.231.342 0 .055.038.1.084.1.101 0 .11.334.011.489-.114.18-.535.376-.85.396-.162.01-.498.043-.745.073-.292.035-.492.02-.567-.042-.064-.053-.116-.062-.116-.02 0 .043-.226.053-.525.022a4.29 4.29 0 0 0-.978.024c-.25.044-.517.063-.593.043-.077-.02-.705.016-1.395.08-.69.064-1.355.125-1.477.135-.123.01-.322.126-.444.257-.235.253-.233.363.02.853.088.17.124.444.112.84-.012.417.02.638.109.756.07.092.128.27.13.396.002.24.195.896.36 1.228.055.109.101.468.104.798.003.33.058.809.122 1.063.118.468.13.648.099 1.553-.025.749.035 1.234.166 1.338.177.14.468.578.61.919.07.167.168.305.216.305.049 0 .088.132.088.294 0 .161.03.294.065.294s.155.228.266.507c.11.28.246.535.301.567.159.094.402.679.394.948-.004.16.035.245.114.245.066 0 .12-.061.12-.136 0-.113.022-.118.128-.03.07.058.108.126.085.15-.024.024.028.094.116.155.152.107.153.132.026.531-.074.23-.116.437-.094.459.083.082.403-.06.435-.193.029-.116.044-.111.096.03.034.092.103.262.155.378.051.115.082.48.069.81-.022.548-.01.606.152.657.431.137-.087 1.136-.59 1.136-.128 0-.396.086-.594.192a4.09 4.09 0 0 1-.866.301c-.277.06-.636.155-.798.21-.161.056-.407.08-.545.054-.242-.046-.498-.015-1.365.167-.876.183-1.424.276-1.785.302-.623.045-1.788.207-2.057.286-.139.04-.536.1-.882.132s-.672.09-.724.131c-.051.041-.316.074-.588.072-.659-.003-1.216.046-1.397.124a.658.658 0 0 1-.351.011c-.113-.028-.23-.011-.26.04-.031.049-.11.069-.176.043-.065-.025-.298-.01-.516.033-.218.044-.68.121-1.027.173l-1.134.172c-.277.043-.692.099-.923.124a8.27 8.27 0 0 0-.752.12c-.182.04-.361.056-.398.033-.078-.048-1.196.098-2.042.267-.323.065-.663.112-.755.104-.093-.007-.423.035-.734.095-.312.06-.623.086-.691.06-.069-.026-.25.004-.404.069-.278.116-.746.163-2.417.245-.488.023-.991.083-1.119.131-.127.049-.597.088-1.044.089-.448 0-.946.035-1.108.077-.161.042-.785.102-1.385.134l-1.47.08c-.208.01-.661.062-1.008.112-.346.05-.97.134-1.386.186-.415.051-.907.151-1.091.222-.185.07-.544.141-.798.157-.858.055-1.805.215-1.992.337a.938.938 0 0 1-.436.122c-.137 0-.273.038-.302.084-.028.046-.165.084-.304.084-.139 0-.322.037-.406.082-.085.045-.318.1-.52.122a12.86 12.86 0 0 0-.869.14c-.68.133-1.44.148-1.848.037zm41.019-7.638c.068-.083.07-.136.009-.174-.05-.03-.068-.09-.041-.134.026-.043-.03-.078-.125-.078-.136 0-.173.054-.173.252 0 .273.16.338.33.134zm-23.425-11.238c0-.152-.006-.152-.207-.007-.12.087-.208.237-.21.355l-.002.203.21-.197c.116-.108.21-.268.21-.354zm8.127-7.776c.151-.05-.123-.12-.182.034-.03.081-.012.12.05.1.054-.019.077-.115.132-.134zm7.074-24.946c-.299-.327-1.045-.936-1.147-.936-.047 0-.28-.189-.516-.42-.238-.23-.482-.42-.543-.42-.062 0-.516-.396-1.01-.881-.493-.485-.919-.882-.944-.882-.147 0-.454-.495-.456-.735-.002-.185-.043-.273-.129-.273a.126.126 0 0 0-.126.126c0 .07-.057.126-.126.126a.129.129 0 0 1-.126-.13c0-.071-.058-.243-.13-.382-.144-.277-.094-.58.094-.58.066 0 .12.038.12.084 0 .047.07.084.155.084.085 0 .218.07.295.155.077.086.287.2.465.253.179.053.372.153.429.223.057.069.152.125.21.125.059 0 .165.09.237.2.072.11.234.225.361.257.357.09 1.207.819 1.207 1.036 0 .059.088.14.195.181.107.04.35.238.54.439.896.95 1.052 1.132 1.174 1.37.071.14.157.273.19.296.154.109.24.413.18.638-.085.321-.33.34-.6.045z" style="fill:#000;stroke-width:.0839808"/>
</svg>
