<svg xmlns="http://www.w3.org/2000/svg" xml:space="preserve" width="3453.333" height="3973.333">
  <path d="M1428.553 3573.064c-2.397-.297-4.031-1.07-3.631-1.716.724-1.172-8.8-.746-18.362.822-2.976.488-5.753.213-6.824-.676-1.786-1.482-7.135-1.93-17.49-1.466-2.934.132-5.634.136-6 .013-2.346-.809-8.942-1.31-19.801-1.506-9.408-.17-12.757.232-13.647 1.637-.964 1.523-1.182 1.47-1.199-.297-.025-2.64-6.01-3.793-20.02-3.858-5.5-.025-12.4-.679-15.334-1.45-2.933-.773-6.833-1.28-8.666-1.129a279.95 279.95 0 0 1-6.206.436c-1.58.088-2.595.61-2.255 1.16.34.55-.017 1-.794 1s-1.412-.667-1.412-1.482c0-.971-1.608-1.18-4.667-.606-3.103.582-4.666.369-4.666-.636 0-1.033-1.75-1.215-5.534-.576-4.695.793-5.413.62-4.735-1.148.554-1.443.205-1.855-1.133-1.342-1.062.408-1.932 1.582-1.932 2.608 0 2.03-7.486 1.854-31.333-.736-6.6-.717-14.499-1.304-17.554-1.304-3.054 0-5.858-.493-6.23-1.095-1.173-1.898-26.574-1.918-27.8-.02-.847 1.307-1.353 1.25-2.323-.258-1.154-1.793-4.904-2.369-20.52-3.15-3-.15-5.57-1.105-6.25-2.322-.882-1.575-3.954-2.153-12.907-2.432-6.462-.2-13.55-1.174-15.75-2.162-2.2-.989-6.1-2.098-8.666-2.465-10.109-1.447-32.406-7.518-37.502-10.211-1.194-.63-4.494-1.558-7.334-2.061-6.835-1.21-20.725-5.815-22.863-7.58-.934-.77-2.033-1.068-2.44-.66-.409.408-5.044-.492-10.302-2-5.257-1.508-10.759-2.826-12.226-2.93-1.466-.104-4.616-1.233-7-2.51-2.383-1.278-4.333-2-4.333-1.605 0 .396-2.173-.189-4.83-1.299-2.656-1.11-5.758-2.018-6.894-2.018-1.136 0-3.062-.901-4.28-2.004-1.218-1.102-5.765-2.66-10.105-3.462-4.34-.802-8.19-1.923-8.558-2.492-.942-1.462-12.79-6.708-15.15-6.708-1.079 0-4.562-1.107-7.739-2.46-3.177-1.353-6.512-2.208-7.41-1.9-.897.307-2.98-.386-4.63-1.54-1.648-1.156-4.02-2.1-5.272-2.1-1.251 0-3.102-.827-4.112-1.838-1.01-1.01-3.904-2.277-6.429-2.815-2.525-.537-5.49-1.735-6.59-2.66-1.1-.926-4.4-2.083-7.334-2.573-4.962-.827-7.925-1.675-14.667-4.194-1.467-.548-3.867-.878-5.333-.732-2.212.22-2.326.03-.667-1.108 1.349-.926 1.457-1.38.333-1.393-.916-.013-2.926-1.28-4.466-2.82-2.037-2.037-3.2-2.4-4.267-1.334-2.023 2.024-4.983 1.835-7.542-.48-2.831-2.563-22.615-12.72-24.775-12.72-.926 0-3.791-2.108-6.368-4.685-2.577-2.577-7.132-5.549-10.122-6.604-5.936-2.094-6.762-2.687-15.395-11.044-3.22-3.117-6.488-5.667-7.262-5.667-1.665 0-24.136-22.774-24.136-24.461 0-.638-1.5-2.34-3.333-3.782-1.834-1.442-3.334-3.404-3.334-4.361 0-.957-.95-2.53-2.114-3.495-1.162-.965-3.04-4.072-4.175-6.905-1.34-3.348-2.7-4.906-3.886-4.45-1.173.45-1.825-.263-1.825-1.996 0-1.483-1.5-4.903-3.333-7.601-1.833-2.698-3.333-6.266-3.333-7.93 0-1.663-.535-3.023-1.189-3.023-1.2 0-3.168-5.529-3.37-9.462-.059-1.17-.884-3.063-1.832-4.205-.948-1.143-2.399-5.885-3.224-10.539-.825-4.653-2.263-9.368-3.196-10.477-1.528-1.817-4.215-13.872-5.069-22.74-.181-1.884-.84-4.25-1.463-5.259-.623-1.009-1.01-8.088-.86-15.73.182-9.294-.263-14.542-1.343-15.845-1.279-1.54-1.228-2.186.243-3.096 1.464-.904 1.788-4.785 1.524-18.232-.185-9.395.36-21.582 1.21-27.082.852-5.5 1.432-14.886 1.29-20.859-.142-5.994.332-11.222 1.057-11.67.723-.447 2.03-5.16 2.905-10.475.875-5.315 1.936-10.563 2.36-11.663.422-1.1.878-3.039 1.013-4.309.134-1.27.859-3.07 1.61-4 .751-.93 1.78-4.206 2.287-7.28.507-3.075 1.775-6.298 2.818-7.164 1.042-.865 1.895-2.964 1.895-4.664 0-1.7.591-3.457 1.313-3.903.722-.447 1.276-2.132 1.231-3.746-.125-4.484 2.324-12.864 4.491-15.364 1.066-1.23 2.27-4.417 2.676-7.082.406-2.664 2.94-7.909 5.63-11.654s5.013-7.564 5.161-8.488c.288-1.797 2.404-5.388 10.024-17.012 2.644-4.034 5.258-7.534 5.808-7.778.55-.245 1-1.007 1-1.695 0-2.492 16.546-26.279 19.659-28.26.92-.587 1.674-2.163 1.674-3.504 0-1.34.9-3.184 2-4.097 1.1-.913 2-2.25 2-2.972 0-1.277 8.571-12.9 12.64-17.14 1.115-1.16 2.027-2.736 2.027-3.499 0-.762 2.05-3.626 4.557-6.363 2.507-2.736 4.944-6.514 5.416-8.395.472-1.881 2.022-4.898 3.443-6.705 1.421-1.807 2.584-3.829 2.584-4.493 0-1.444 5.576-9.577 7-10.21.55-.245 1-1.008 1-1.696s3-5.068 6.666-9.734c3.667-4.665 6.667-9.453 6.667-10.638 0-1.185.488-2.155 1.085-2.155.596 0 1.927-2.149 2.958-4.775 1.03-2.627 2.994-5.376 4.363-6.108 1.369-.733 2.174-1.648 1.788-2.033-.385-.386-.098-1.387.639-2.226 1.72-1.959 12.44-18.686 16.145-25.19 1.565-2.75 3.336-5 3.934-5 .599 0 1.088-1.293 1.088-2.872 0-1.58 1.423-5.93 3.163-9.667 1.739-3.737 4.823-11.745 6.853-17.795 2.03-6.05 4.256-11 4.948-11 .692 0 1.018-.722.723-1.605-.294-.883.577-5.533 1.936-10.333 3.66-12.928 5.921-22.359 7.688-32.062.867-4.767 2.101-11.067 2.742-14 .64-2.934 1.19-11.484 1.222-19 .032-7.517.576-13.667 1.208-13.667 1.48 0 2.627-11.783 3.506-36 1.331-36.73 2.15-54.015 2.746-58 .329-2.2.828-19 1.11-37.333.281-18.334.923-45.634 1.425-60.667.503-15.033 1.078-33.087 1.278-40.12.2-7.033.792-13.478 1.314-14.323.522-.845.421-2.479-.224-3.632s-.71-5.508-.144-9.677c.565-4.17 1.356-17.714 1.757-30.1.401-12.384 1.252-23.184 1.89-24 1.182-1.506 2.325-27.628 3.624-82.815.397-16.866 1.288-34.681 1.979-39.588 2.145-15.232 1.566-61.527-.926-74.082-1.74-8.767-1.904-12.698-.806-19.334.758-4.58.887-8.852.287-9.491-.6-.64-.77-1.997-.379-3.017.392-1.02.06-2.64-.736-3.599-.796-.96-1.38-3.502-1.296-5.65.23-5.968-2.855-36.633-4.217-41.905-.662-2.567-1.554-11.567-1.981-20-.756-14.933-1.53-20.882-4.684-36-.842-4.034-1.982-11.234-2.533-16-1.33-11.493-4.091-25.202-5.908-29.334-.806-1.833-1.61-4.833-1.787-6.666-1.903-19.735-2.79-24.356-4.475-23.315-.707.437-1.242-.588-1.19-2.279.206-6.625-1.45-15.512-4.673-25.073-1.854-5.5-3.386-11.157-3.405-12.572-.02-1.415-.58-4.415-1.245-6.667-4.68-15.832-5.547-19.569-6.047-26.094-.767-10.013-5.394-31.024-7.968-36.183-1.16-2.325-2.108-6.115-2.108-8.422 0-2.307-.743-4.938-1.65-5.846-.942-.941-1.973-6.924-2.4-13.933-.646-10.596-.958-11.825-2.271-8.95-1.334 2.92-1.457 2.516-.994-3.268.314-3.923-.118-7.381-1.064-8.52-.945-1.14-1.795-7.937-2.092-16.732-.275-8.147-1.034-15.15-1.686-15.561-.652-.412-1.446-12.258-1.764-26.326-.319-14.068-.866-26.04-1.215-26.607-.35-.566-.105-3.875.545-7.353.676-3.618.683-7.635.018-9.386-.64-1.684-.696-5.62-.124-8.748.572-3.128.631-7.595.132-9.926-1.282-5.98 2.63-78.106 5.219-96.24.733-5.133 1.713-16.142 2.179-24.465.564-10.091 1.266-14.533 2.106-13.333.823 1.174.938-.052.33-3.535-1.116-6.402-1.072-5.387-.813-19 .174-9.109.577-11 2.345-11 1.704 0 2.04-1.182 1.666-5.872-.257-3.23-.017-5.595.533-5.255.55.34 1-4.097 1-9.86 0-5.764.628-11.107 1.395-11.875.768-.767 1.91-8.837 2.54-17.933.63-9.096 1.878-18.54 2.775-20.985 1.007-2.747 1.31-7.178.791-11.587-.502-4.269-.302-7.47.497-7.965.734-.454 1.335-4.06 1.335-8.013 0-4.894.617-7.534 1.934-8.27 2.019-1.13 2.883-5.461 4.196-21.03.432-5.123 1.93-12.323 3.327-16 2.899-7.627 3.317-14.874.905-15.679-2.168-.722 2.33-7.796 4.663-7.334.984.195 1.817-1.518 2.08-4.27.24-2.528 1.381-5.287 2.536-6.132 1.155-.844 1.666-2.238 1.135-3.097-1.116-1.805 1.555-10.843 3.204-10.843.609 0 1.462-3.3 1.897-7.333l1.58-14.669c.482-4.479 1.32-7.009 2.149-6.496 2.117 1.308 3.685-2.287 3.707-8.502.015-4.095.566-5.666 1.986-5.666 2.644 0 5.437-5.728 8.202-16.815 1.324-5.314 3.32-9.921 4.733-10.931 1.685-1.204 2.2-2.719 1.658-4.876-.432-1.722-.008-4.536.941-6.254.95-1.718 1.585-3.829 1.412-4.69-.174-.86.9-1.951 2.386-2.423 1.739-.552 2.702-2.015 2.702-4.101 0-1.784.6-3.244 1.334-3.244.733 0 1.333-1.002 1.333-2.228 0-1.226.809-3.176 1.797-4.333.989-1.158 2.595-5.057 3.57-8.665 1.403-5.192 1.982-6.026 2.776-4 .785 2.004 1.023 1.635 1.097-1.695.051-2.34.755-4.663 1.563-5.163.808-.5 2.316-2.935 3.351-5.412 1.035-2.477 2.474-4.504 3.197-4.504.724 0 1.316-1.072 1.316-2.383s1.775-4.461 3.946-7c2.23-2.61 3.969-6.21 4-8.283.03-2.017.654-3.667 1.387-3.667s1.373-.75 1.422-1.667c.049-.916 2.163-4.366 4.698-7.666 2.536-3.3 4.966-7.05 5.4-8.334.435-1.283 1.321-2.333 1.969-2.333.648 0 1.178-.807 1.178-1.793 0-.987 1.186-2.867 2.635-4.178 1.45-1.312 2.337-2.868 1.972-3.459-.365-.59.4-1.71 1.698-2.488 2.244-1.345 2.238-1.49-.13-2.903-2.353-1.406-2.286-1.665 1.207-4.667 2.035-1.748 4.16-3.179 4.722-3.179.562 0 1.717-2.105 2.566-4.679.85-2.573 2.096-4.338 2.77-3.92.675.416 1.226-.208 1.226-1.388 0-4.06 4.004-10.013 6.734-10.013 1.588 0 3.158-1.295 3.884-3.203.67-1.763 1.855-3.598 2.633-4.08.78-.48 1.416-1.995 1.416-3.365s1.5-3.671 3.333-5.113c1.834-1.442 3.334-3.033 3.334-3.535 0-.503 1.65-4.425 3.666-8.718 3.58-7.617 9.514-13.062 12.336-11.317.732.452 1.331-.309 1.331-1.69 0-1.383 1.564-3.968 3.475-5.746 1.911-1.778 4.018-4.64 4.683-6.362.664-1.72 2.284-3.41 3.599-3.754 1.315-.344 3.084-2.46 3.93-4.701 1.03-2.728 2.185-3.828 3.495-3.325 2.545.977 5.099-2.14 4.032-4.922-.612-1.594-.062-2.169 2.072-2.169 3.805 0 6.228-2.562 9.573-10.123 1.525-3.448 3.864-6.49 5.274-6.858 3.907-1.022 3.072-4.332-1.133-4.488l-3.667-.137 4.098-.98c8.225-1.968 17.791-7.314 17.848-9.975.074-3.447 3.852-7.432 6.195-6.534 1.312.504 1.638.07 1.065-1.423-.582-1.516-.07-2.148 1.738-2.148 2.721 0 7.73-8.499 6.337-10.753-.836-1.352 2.307-2.819 11.123-5.188 3.156-.848 6.07-2.408 6.476-3.467.407-1.06 1.561-1.926 2.566-1.926 1.819 0 6.372-5.86 6.662-8.574.084-.784.244-2.176.356-3.092.112-.917 1.103-1.667 2.203-1.667 1.1 0 2-1.144 2-2.543 0-1.936 1.594-2.952 6.667-4.252 3.666-.94 6.666-2.377 6.666-3.192 0-.816 2.74-4.303 6.09-7.748 4.236-4.36 7.176-6.273 9.666-6.292 2.445-.018 5.456-1.918 9.51-6 3.263-3.285 6.815-5.973 7.895-5.973 1.08 0 4.488-2.635 7.574-5.856 4.172-4.354 7.02-6.093 11.105-6.783 3.255-.55 5.494-1.66 5.494-2.723 0-.987 1.65-1.984 3.666-2.216 2.636-.303 3.557-1.078 3.275-2.755-.263-1.567.474-2.334 2.243-2.334 1.449 0 3.916-1.8 5.482-4 2.208-3.1 3.867-4 7.378-4 3.164 0 4.959-.803 5.956-2.666.913-1.707 2.791-2.667 5.217-2.667 2.084 0 4.56-.927 5.5-2.06.94-1.134 2.57-1.731 3.62-1.328 1.171.45 2.18-.3 2.608-1.94.385-1.47 1.293-2.672 2.02-2.672.726 0 .975.9.553 2-.45 1.17-.02 2 1.035 2 .991 0 2.117-1.202 2.501-2.672.444-1.696 1.426-2.393 2.687-1.91 1.094.42 2.385.123 2.87-.66.483-.784 2.447-1.425 4.362-1.425 4.058 0 8.472-3.489 7.528-5.95-.683-1.78 3.26-3.333 8.54-3.365 1.674-.01 3.396-.94 3.829-2.067.432-1.127 2.664-3.01 4.958-4.185 2.294-1.175 5.655-3.604 7.467-5.398 1.813-1.794 3.513-2.61 3.778-1.815.834 2.502 5.13 1.573 6.454-1.395.85-1.903 2.79-3.023 5.87-3.387 2.532-.299 6.103-.717 7.936-.93 3.831-.442 9.52-3.426 11.036-5.787.57-.887 3.12-2.004 5.667-2.482 2.547-.478 4.63-1.638 4.63-2.578 0-2.222 3.03-3.327 9.122-3.327 3.504 0 5.392-.783 6.615-2.741.942-1.507 2.736-2.61 3.988-2.45 4.764.611 12.275-1.763 12.275-3.88 0-1.694.373-1.6 1.905.483 1.775 2.412 1.967 2.429 2.81.254.497-1.283 2.04-2.333 3.428-2.333s2.524-.864 2.524-1.921.646-2.32 1.436-2.81c2.699-1.667 17.89-4.92 22.088-4.729 3.223.147 4.146-.342 4-2.118-.157-1.897 1.712-2.588 10.476-3.873 14.006-2.055 22.27-4.366 21.29-5.954-.436-.704.26-1.684 1.546-2.178 1.344-.516 2.56-.228 2.862.677.722 2.166 5.757 1.9 8.89-.47 1.424-1.076 5.4-1.957 8.837-1.957 3.437 0 8.403-.9 11.036-2 2.633-1.1 8.07-2 12.084-2 4.014 0 7.669-.6 8.122-1.334.453-.733 4.34-1.333 8.637-1.333 7.5 0 17.09-1.813 31.363-5.93 13.6-3.922 19.545-4.737 34.59-4.737 8.97 0 15.41-.535 15.41-1.281 0-.718 4.462-1.23 10.15-1.164 6.684.078 10.494-.44 11.159-1.515.74-1.198 3.72-1.379 11.183-.68 6.53.612 10.174.476 10.174-.38 0-2.522 18.728-3.238 27.044-1.034 6.501 1.723 10.77 1.826 27.221.658 10.731-.762 19.981-1.677 20.556-2.032.575-.355 1.727.627 2.56 2.183 1.003 1.874 2.38 2.604 4.075 2.16 1.408-.368 5.707.169 9.552 1.192 7.281 1.939 25.548 2.516 32.924 1.04 3.8-.76 4.171-1.231 3.412-4.333-.757-3.09-.656-3.221.902-1.173 1.252 1.647 4.383 2.505 10.927 2.995 10.469.784 13.558 3.105 14.911 11.203.444 2.655 1.39 6.737 2.102 9.07.712 2.334 1.19 14.334 1.06 26.667-.194 18.732-.645 23.346-2.74 28.018-2.694 6.014-3.194 11.921-1.266 14.968 1.022 1.614 1.702 1.565 4.6-.334 1.87-1.225 4.621-2.228 6.114-2.228 1.492 0 3.916-1.202 5.385-2.672 2.257-2.256 3.484-2.49 7.89-1.5 5.583 1.255 19.045-1.344 19.883-3.838.244-.727 1.444-1.332 2.666-1.343 1.222-.01 6.987-2.41 12.811-5.333 10.48-5.258 14.772-6.4 15.634-4.156.244.636 1.794 1.576 3.444 2.09 2.428.754 3 .42 3-1.757 0-3.016 8.478-10.177 10.54-8.902.727.45 4.803-.44 9.058-1.976 4.254-1.536 11.001-3.674 14.992-4.752 3.991-1.078 9.162-3.138 11.49-4.577 5.029-3.108 7.253-3.32 7.253-.692 0 1.56 1.174 1.406 6.2-.817 4.386-1.94 7.904-2.55 12.021-2.087 3.202.361 6.138.145 6.524-.481.387-.625 3.528-1.993 6.98-3.039 11.438-3.465 14.343-4.89 12.408-6.085-1.789-1.106 6.106-4.212 15.446-6.075 3.705-.74 4.496-.37 6.21 2.904l1.966 3.75.94-5.012c1.144-6.096 2.946-7.519 4.433-3.5 1.088 2.942 1.116 2.945 1.83.218.589-2.254 2.054-2.89 7.883-3.42 3.938-.359 12.86-1.909 19.826-3.444 6.967-1.536 13.867-2.463 15.333-2.06 2.036.558 2.218.421.771-.576-1.449-1-.585-1.66 3.667-2.806 3.06-.824 5.562-2.046 5.562-2.717 0-1.609 8.997-4.057 11.45-3.115 1.055.404 2.724.066 3.71-.752 1.674-1.39 7.764-2.36 22.174-3.534 10.513-.857 26.666-3.77 26.666-4.808 0-.552 3.622-1.413 8.049-1.914 7.691-.87 10.718-2.824 10.153-6.555-.11-.733 2.798-1.819 6.465-2.412s9.774-1.729 13.571-2.523c8.053-1.685 15.76-.75 19.159 2.325 2.243 2.03 2.532 1.926 4.448-1.61 1.127-2.079 2.073-3.03 2.102-2.113.057 1.79 10.712 2.453 10.73.666.013-1.047 6.344-4.333 8.351-4.333.64 0 2.063.9 3.163 2 2.574 2.574 5.81 2.574 5.81 0 0-1.397 1.407-2 4.666-2 3.1 0 4.667-.623 4.667-1.857 0-3.353 4.256-3.7 7.54-.615l3.126 2.937 3-2.714c4.05-3.665 10.745-5.75 18.454-5.75 3.514 0 6.76-.6 7.213-1.334 1.05-1.697 8.667-1.757 8.667-.068 0 .696 2.08.396 4.624-.667 5.744-2.4 6.043-2.397 6.043.068 0 2.736 1.792 2.509 4.588-.58 2.055-2.271 3.638-2.5 13.207-1.902 15.013.937 22.08.652 27.538-1.11 6-1.936 37.298-1.73 46 .303 6.67 1.559 8.524 1.668 21.734 1.28 4.508-.133 8.234.555 10.287 1.9 2.076 1.36 6.206 2.11 11.635 2.11 5.32 0 9.467.734 11.27 1.997 1.569 1.1 3.053 1.518 3.297.931.244-.587 5.094-.82 10.777-.519 9.052.48 10.333.86 10.333 3.07 0 2.439 1.91 3.18 7.056 2.737 1.314-.113 5.293 1.266 8.841 3.064 4.813 2.44 7.678 3.07 11.277 2.487 3.163-.514 4.826-.264 4.826.724 0 .83.835 1.508 1.855 1.508 5.808 0 20.094 9.676 23.396 15.846.83 1.551 2.569 2.82 3.864 2.82 1.334 0 3.975 2.567 6.1 5.927 2.06 3.26 4.879 6.952 6.265 8.206 1.386 1.255 2.52 3.054 2.52 3.999 0 .945 1.092 2.502 2.428 3.46 2.847 2.044 6.905 9.791 6.905 13.184 0 1.3 1.53 3.567 3.399 5.038 3.928 3.09 6.89 7.318 15.7 22.407 3.495 5.988 7.228 11.611 8.295 12.497 1.067.885 1.94 2.53 1.94 3.654s1.648 4.2 3.662 6.836c2.014 2.636 3.492 5.31 3.283 5.943-.208.632.463 1.832 1.492 2.666 1.909 1.548 5.118 7.348 10.147 18.34 1.549 3.387 4.001 7.23 5.45 8.54 1.448 1.311 2.633 3.127 2.633 4.034 0 .908.927 2.007 2.06 2.442 1.133.435 2.898 2.796 3.923 5.249 1.024 2.452 2.797 5.233 3.94 6.182 1.142.948 2.077 3.138 2.077 4.868 0 2.178.951 3.383 3.095 3.922 3.047.764 7.571 6.753 7.571 10.02 0 .918 1.5 3.635 3.334 6.039 1.833 2.403 3.333 5.01 3.333 5.792s.56 1.422 1.243 1.422c.684 0 1.654 1.35 2.155 3 .501 1.65 2.342 4.91 4.09 7.245 1.748 2.334 3.178 5.184 3.178 6.333 0 1.15.59 2.09 1.311 2.09s2.842 3.02 4.712 6.711c1.871 3.692 4.581 7.892 6.023 9.334 1.442 1.441 2.621 3.17 2.621 3.84 0 .67 1.968 3.245 4.374 5.723 4.158 4.281 12.96 20.08 12.96 23.263 0 .823 2.025 4.44 4.5 8.038 2.475 3.599 4.94 8.54 5.476 10.981.536 2.441 2.244 6.59 3.795 9.219 1.551 2.63 2.934 5.551 3.072 6.493.138.941 2.105 4.052 4.37 6.913 2.266 2.86 4.12 6.735 4.12 8.61 0 1.874.762 3.888 1.695 4.474.932.587 2.44 2.567 3.354 4.4 4.451 8.943 13.418 25.493 14.621 26.985.745.925 1.802 3.782 2.348 6.348.547 2.567 2.415 6.362 4.152 8.434 1.738 2.071 5.308 8.371 7.934 14 6.157 13.194 6.433 13.84 10.634 24.9 1.95 5.133 6.181 14.944 9.403 21.802 3.223 6.858 5.859 12.708 5.859 13 0 .292 1.187 1.719 2.639 3.17 1.867 1.868 2.423 3.718 1.9 6.333-.526 2.63.239 5.136 2.653 8.693 1.865 2.75 3.102 5.753 2.748 6.676-.354.923.715 2.273 2.375 3.002 1.66.728 3.018 2.065 3.018 2.97 0 .906 2.55 4.278 5.667 7.494s5.67 6.975 5.675 8.353c0 1.379.904 4.225 2 6.326 1.095 2.1 1.992 5.353 1.992 7.228s.97 4.482 2.157 5.794c1.187 1.311 2.464 5.096 2.837 8.411.374 3.315 1.203 5.704 1.843 5.31.64-.396 1.213-.234 1.274.36.414 4.025 1.249 7.38 3.585 14.411 1.462 4.4 2.98 10.187 3.374 12.86.394 2.673 2.914 8.17 5.6 12.217 2.942 4.43 5.18 9.657 5.624 13.14.407 3.18 1.557 7.403 2.556 9.384.999 1.98 1.816 4.743 1.816 6.141 0 1.398 2.067 5.248 4.593 8.556 4.258 5.577 8.431 15.06 11.602 26.369.72 2.566 2.17 6.557 3.224 8.868 1.053 2.31 1.917 5.61 1.92 7.333 0 1.723 2.403 7.87 5.333 13.66 2.93 5.789 5.328 11.634 5.328 12.988 0 1.354 1.2 3.21 2.667 4.127 1.726 1.078 2.666 3.11 2.666 5.76 0 2.253 1.13 6.459 2.512 9.347 1.38 2.887 4.78 12.15 7.553 20.583 2.774 8.434 5.937 16.384 7.03 17.667 1.092 1.283 1.35 2.333.574 2.333-1.744 0 2.96 12.82 5.714 15.574 1.073 1.073 1.958 3.257 1.968 4.855.016 2.73 6.498 16.842 9.269 20.181.695.838 1.667 4.043 2.159 7.123.493 3.08 1.288 5.6 1.768 5.6 1.108 0 3.455 8.379 6.157 21.98 1.164 5.855 2.981 11.602 4.04 12.772 1.057 1.169 1.926 3.578 1.93 5.354.014 5.553 7.153 27.665 12.097 37.462.62 1.228 1.517 5.103 1.992 8.61.476 3.506 1.647 9.392 2.604 13.078.956 3.687 1.438 7.189 1.07 7.782-.366.594.184 2.404 1.224 4.021 1.87 2.908 3.553 17.851 6.34 56.275 2.356 32.467.356 62.52-5.417 81.428-.688 2.252-1.25 5.783-1.25 7.845 0 2.063-.578 5.92-1.285 8.572-2.476 9.291-5.626 22.208-6.816 27.953-1.53 7.382-16.432 41.324-20.286 46.202-.58.733-3.998 6.133-7.598 12-6.973 11.364-11.711 18.423-14.233 21.202-.853.94-2.653 3.756-4 6.256-3.595 6.675-15.512 24.47-16.732 24.986-.578.245-1.067 1.145-1.087 2-.02.856-1.895 3.356-4.166 5.556-5.795 5.613-17.721 20.558-20.217 25.333-1.15 2.2-3.627 5.8-5.505 8-6.459 7.568-8.084 9.569-11.408 14.045-1.834 2.468-4.3 5.485-5.483 6.704-1.182 1.219-3.282 4.238-4.667 6.71-1.384 2.47-3.32 5.35-4.302 6.397-2.646 2.824-8.16 11.758-12.844 20.811-2.276 4.4-5.766 9.738-7.755 11.861-1.989 2.124-3.616 4.939-3.616 6.255 0 1.316-.634 2.785-1.409 3.264-.775.479-2.912 4.264-4.75 8.412-5.398 12.179-7.67 16.63-10.652 20.875-3.915 5.57-9.054 15.875-12.633 25.333-3.825 10.108-11.826 27.137-13.127 27.94-.543.336-3.535 5.887-6.65 12.336a4264.673 4264.673 0 0 1-8.604 17.724c-2.66 5.423-9.791 17.615-17.85 30.518-1.653 2.648-4.283 7.215-5.843 10.149-2.861 5.378-8.619 13.17-14.149 19.147-1.65 1.783-3 3.748-3 4.366 0 2.092-4.607 7.046-35.333 37.992-16.867 16.987-33.367 33.965-36.667 37.728-3.3 3.763-7.65 8.646-9.666 10.85-2.017 2.205-3.667 4.888-3.667 5.963 0 1.074-.507 1.954-1.127 1.954-.973 0-6.198 6.376-26.206 31.976-2.2 2.815-5.382 6.927-7.071 9.138-1.69 2.211-4.863 6.015-7.054 8.453-2.19 2.438-5.576 7.133-7.523 10.433s-5.41 8.4-7.694 11.333c-5.21 6.687-17.685 31.885-18.641 37.648-.394 2.374-3.371 11.186-6.617 19.584-9.755 25.24-11.05 38.828-5.292 55.482 1.893 5.474 5.13 15.653 7.194 22.62 2.064 6.966 5.615 17.332 7.891 23.034 2.277 5.702 4.14 11.037 4.14 11.854 0 .817 1.119 3.952 2.486 6.965 6.97 15.36 8.18 18.407 8.18 20.594 0 1.307.881 3.54 1.958 4.964 1.077 1.424 1.977 3.512 2 4.64.023 1.128 1.11 4.147 2.416 6.707 1.306 2.561 3.513 7.638 4.904 11.281 1.392 3.644 3.3 7.395 4.24 8.336.941.94 2.1 3.94 2.577 6.667.476 2.727 2.623 7.201 4.77 9.944 2.149 2.742 5.719 8.442 7.934 12.666 2.216 4.225 4.577 8.58 5.247 9.68 3.207 5.266 9.055 19.299 8.45 20.278-.375.607 1.08 3.343 3.233 6.08 2.154 2.737 4.383 6.476 4.954 8.31.57 1.833 3.582 7.233 6.69 12 3.11 4.766 6.092 10.166 6.627 12 .536 1.833 1.981 4.533 3.213 6 1.23 1.466 3.38 6.266 4.775 10.666 1.395 4.4 4.069 9.907 5.941 12.237 5.509 6.856 9.405 13.752 9.405 16.647 0 1.578 1.108 2.989 2.667 3.396 1.466.384 2.666 1.778 2.666 3.098 0 1.32.45 2.6 1 2.844 1.61.716 9.58 14.304 10.47 17.849.448 1.784 1.35 2.913 2.006 2.508.655-.405 1.19.707 1.19 2.472 0 1.764 1.2 4.591 2.668 6.282 1.467 1.693 2.666 4.989 2.666 7.331 0 2.618 1.068 5.223 2.775 6.767 1.526 1.381 4.368 5.824 6.315 9.873 1.947 4.05 3.944 7.664 4.438 8.033.493.37 1.94 3.37 3.215 6.667 1.275 3.298 4.03 7.825 6.12 10.06 2.093 2.234 3.804 5.043 3.804 6.24 0 2.741 7.6 19.292 9.359 20.378.719.445 1.31 2.123 1.312 3.73 0 1.607 1.203 4.886 2.667 7.287 1.464 2.401 2.662 5.27 2.662 6.375 0 1.105.9 2.355 2 2.777 1.1.422 2 1.903 2 3.292 0 1.388.6 2.524 1.333 2.524.734 0 1.334.902 1.334 2.005 0 1.102 1.2 4.243 2.666 6.98 1.467 2.736 2.667 6.299 2.667 7.916 0 1.618.6 3.312 1.333 3.765.734.454 1.334 2.614 1.334 4.801 0 2.188 1.109 5.168 2.464 6.623 1.356 1.455 3.27 5.18 4.253 8.278 2.388 7.521 8.111 19.879 10.201 22.027 1.561 1.605 5.748 13.784 5.748 16.72 0 .715 1.5 3.266 3.334 5.67 1.833 2.404 3.333 5.934 3.333 7.846 0 1.911 1.2 5.827 2.667 8.702 1.466 2.875 2.666 6.071 2.666 7.102 0 3.618 5.89 16.26 8.93 19.168 1.84 1.76 3.07 4.504 3.07 6.847 0 2.151.896 5.63 1.992 7.73 1.096 2.101 1.996 5.47 2 7.486 0 2.017.608 3.667 1.342 3.667.733 0 1.333.93 1.333 2.066 0 1.137 1.017 3.987 2.26 6.334 1.242 2.346 2.46 5.467 2.707 6.933.246 1.467 1.006 4.767 1.688 7.334 5.923 22.274 9.99 61.838 6.782 65.96-.908 1.166-2.004 4.506-3.512 10.706-.98 4.029-5.857 13.618-7.708 15.153-1.18.98-2.525 3.8-2.988 6.267-.463 2.467-1.679 5.18-2.702 6.03-1.023.849-1.86 2.245-1.86 3.103 0 .857-3.25 3.152-7.222 5.1-4.1 2.011-7.597 4.725-8.09 6.278-.477 1.505-1.713 2.736-2.746 2.736s-3.842 1.198-6.244 2.662c-2.4 1.464-5.272 2.664-6.38 2.666-1.108 0-4.408 2.094-7.333 4.646-3.105 2.71-6.762 4.652-8.785 4.667-1.906.015-6.106 1.815-9.333 4.001-3.227 2.187-7.32 3.987-9.096 4-1.775.013-4.175.829-5.333 1.812-2.962 2.514-16.924 7.214-24.33 8.19-5.956.785-6.201.688-5.64-2.245.391-2.045.244-2.385-.441-1.02-3.26 6.487-5.582 8.412-8.552 7.087-3.737-1.668-12.29 1.031-12.907 4.072-.237 1.171-1.246 2.129-2.243 2.129-.997 0-2.193 1.2-2.659 2.666-.813 2.564-6 3.876-6 1.519 0-.632-1.446-.872-3.214-.534-1.768.338-4.293.013-5.611-.727-1.792-1.003-2.791-.802-3.957.793-1.427 1.951-1.857 1.94-5.01-.125-4.52-2.962-4.394-3.007-7.011 2.507-3.184 6.71-7.392 9.225-12.47 7.454-2.513-.875-5.526-.947-8.154-.193-4.705 1.35-11.218-1.757-10.052-4.794.961-2.505-2.633-4.922-5.818-3.912-1.517.482-4.199 3.72-5.96 7.194-1.76 3.475-4.148 7.105-5.305 8.065-1.158.96-2.104 2.573-2.104 3.583 0 2.847-3.604 2.165-4.387-.83-.417-1.595-1.819-2.667-3.489-2.667-1.535 0-2.791-.6-2.791-1.333s-.75-1.334-1.667-1.335c-1.186 0-1.535 2.107-1.21 7.32.417 6.697.183 7.425-2.739 8.536-1.757.667-7.214.891-12.128.497l-8.934-.717-1.386 3.975c-.96 2.755-3.314 4.95-7.661 7.149-3.451 1.745-6.725 3.038-7.275 2.874-.55-.164-1 .558-1 1.606 0 2.813-3.783 6.095-6.031 5.232-1.075-.412-1.648-1.245-1.273-1.851 1.274-2.062-1.72-2.599-3.375-.605-.906 1.092-2.361 1.986-3.234 1.986-.872 0-2.96 1.858-4.639 4.13-2.309 3.122-3.83 3.98-6.244 3.519-1.995-.382-4.743.535-7.334 2.446-3.36 2.48-4.719 2.794-7.193 1.667-2.5-1.139-3.978-.76-8.174 2.09-2.817 1.915-6.518 3.481-8.225 3.481-1.706 0-2.773.532-2.372 1.182.883 1.429-3.681 2.775-9.494 2.8-3.232.013-5.702 1.444-10.268 5.945-4.113 4.055-7.612 6.216-11.078 6.84-2.786.503-5.666 1.355-6.4 1.893-.733.54-3.798 1.292-6.81 1.674-3.013.382-7.513 1.61-10 2.73-5.506 2.478-11.957 3.629-24.834 4.431-5.386.336-11.12 1.185-12.74 1.888-3.966 1.718-8.086 4.345-9.168 5.845-.503.696-2.427.218-4.445-1.104-3.466-2.27-3.689-2.242-8.52 1.105-2.727 1.89-6.813 3.438-9.078 3.438-2.332 0-4.435.823-4.847 1.896-.774 2.018-5.482 1.49-8.614-.966-1.18-.926-2.209-.865-3.267.193-.849.849-3.488 1.543-5.864 1.543-2.377 0-4.693.6-5.146 1.334-.453.733-2.253 1.333-4 1.333-1.747 0-3.547-.6-4-1.333-1.32-2.136-3.086-1.548-4 1.333-.704 2.22-2.017 2.667-7.839 2.667-6.292 0-7.303.419-10.087 4.185-2.663 3.602-3.264 3.88-4.317 2-1.713-3.061-4.12-2.724-7.69 1.077-2.675 2.847-3.311 3.017-4.995 1.334-2.445-2.445-3.663-2.43-5.738.07-.913 1.1-2.751 2-4.085 2s-2.796.6-3.249 1.334c-.453.733-2.253 1.333-4 1.333-1.747 0-3.504.531-3.905 1.18-.4.648-3.537 1.6-6.97 2.115-3.852.578-5.594 1.336-4.55 1.981.988.611-2.934 1.718-9.442 2.664-6.123.89-12.033 2.402-13.133 3.36-1.1.96-4.7 2.182-8 2.718-3.3.537-6.362 1.545-6.804 2.24-.442.697-2.903 1.432-5.468 1.636-2.565.204-5.363.802-6.218 1.33-.855.529-4.054 1.21-7.11 1.514-3.056.304-6.166 1.162-6.912 1.907-.745.746-4.346 1.355-8.002 1.355-4.985 0-7.417.724-9.726 2.893-2.717 2.552-3.64 2.72-7.842 1.43-3.993-1.225-5.448-1.06-9.007 1.017-2.334 1.363-7.844 2.772-12.244 3.132-7.38.603-16.793 3.21-18.786 5.203-.46.46-1.989.121-3.399-.753-1.844-1.143-2.832-1.177-3.522-.123-.528.806-5.46 1.87-10.96 2.365-5.5.494-13.6 1.748-18 2.786-18.094 4.27-30.475 6.026-51.84 7.355-16.56 1.03-22.986 1.003-24.317-.101-1.083-.899-2.753-1.06-4.16-.402-3.005 1.406-8.473 1.911-25.016 2.311-7.333.177-14.233.692-15.333 1.144-4.684 1.923-6.585 2.075-15.064 1.197-5.181-.536-9.461-.395-10.192.336-.792.792-3.767.765-8-.072-4.93-.975-7.083-.916-8.027.222-.714.86-3.843 1.394-7.004 1.196-3.389-.213-7.46.548-10.008 1.868-3.606 1.87-5.009 1.969-8.76.612-2.458-.889-5.476-1.616-6.707-1.616-1.231 0-2.238-.6-2.238-1.333 0-2.403-5.272-1.395-6.977 1.333-.916 1.467-2.463 2.667-3.44 2.667-.975 0-2.674.9-3.774 2-1.51 1.51-3.714 1.8-8.989 1.18-5.45-.64-7.462-.347-9.142 1.333-3.103 3.103-5.012 2.654-5.012-1.18 0-1.833-.6-3.333-1.333-3.333s-1.333.9-1.333 2-.6 2-1.334 2c-.733 0-1.333 1.5-1.333 3.333 0 3.085-.472 3.335-6.333 3.354-6.133.019-13.554 1.965-17.667 4.631-1.1.713-4.7 1.399-8 1.523-10.16.384-17.738 1.515-24 3.583-3.3 1.09-7.8 1.876-10 1.748-2.2-.128-4.97.551-6.154 1.509-2.525 2.04-13.18.843-13.18-1.481 0-.803-.934-.127-2.075 1.503-1.33 1.898-3.459 2.964-5.921 2.964-2.116 0-4.217.6-4.67 1.333-.453.733-2.546 1.333-4.65 1.333-2.105 0-4.755.93-5.89 2.064-2.281 2.281-5.503 1.197-10.628-3.577-3.324-3.098-4.687-3.134-5.74-.153-1.342 3.803-6.042 8.333-8.647 8.333-1.332 0-3.172-1.2-4.088-2.667-1.975-3.162-2.873-3.293-5.38-.786-1.034 1.033-3.026 2.048-4.428 2.255-3.296.486-8.55-1.29-8.55-2.892 0-.684-.9-1.243-2-1.243s-2 .619-2 1.375-1.05 1.746-2.332 2.199c-1.284.453-3.65 2.007-5.26 3.454-2.277 2.047-3.975 2.433-7.666 1.74-2.608-.489-4.741-1.462-4.741-2.162 0-2.02-5.34-1.476-6.146.628-.796 2.073-7.45 3.548-16.58 3.674-3.204.044-6.902.752-8.217 1.574-1.654 1.033-3.109 1.074-4.724.133-1.283-.747-3.732-1.144-5.442-.88-2.967.457-2.997.57-.666 2.47 2.287 1.866 2.23 1.936-.892 1.098-1.833-.493-4.533-.817-6-.722-1.466.095-8.134.105-14.816.023-9.938-.124-12.297.232-12.958 1.956-1.058 2.756-8.003 2.752-12.214-.013-1.775-1.163-3.82-1.749-4.544-1.301-1.345.83-9.407 1.874-20.134 2.605-3.3.225-9.378.86-13.505 1.41-4.36.582-8.551.462-10-.285-1.544-.795-6.31-.85-12.495-.142-11.427 1.307-31.771 1.552-42.917.517-4.438-.412-7.927-.148-8.412.637-.82 1.327-3.913 1.42-12.363.374zm-96.852-144.226c2.704-2.126 4.1-2.325 8.84-1.26 3.096.696 9.246 1.22 13.667 1.166 4.42-.055 19.112-.104 32.648-.109 13.536 0 24.945-.553 25.354-1.214 1.054-1.705 14.36-2.027 20.702-.502 2.933.706 7.133.91 9.333.456 2.2-.455 9.55-.793 16.333-.752 6.783.04 12.333-.404 12.333-.988s3.151-1.048 7.001-1.03c3.85.017 9.7-.052 13-.156 12.322-.387 28.736.548 31.01 1.766 2.27 1.214 5.427.264 15.657-4.71 2.28-1.11 10.705-1.56 26.667-1.429 14.376.12 26.148-.439 30.666-1.452 7.42-1.665 15.79-1.705 18.407-.087.786.486 2.022-.176 2.746-1.47 1.223-2.185 1.558-2.126 4.708.833l3.39 3.185 1.332-3.5c1.125-2.96 2.108-3.483 6.374-3.389 6.23.137 13.475-.666 23.043-2.556 20.764-4.102 27.001-4.734 33.516-3.4 3.629.744 6.908.85 7.286.238.379-.613 2.633-1.114 5.01-1.114s5.07-.748 5.984-1.662c.973-.974 5.363-1.702 10.6-1.758 4.915-.053 11.249-.872 14.074-1.82 2.826-.948 7.337-1.372 10.028-.942 3.178.509 6.282.06 8.863-1.28 2.235-1.159 7.933-2.169 13.026-2.308 6.383-.174 9.42-.834 10.293-2.238 1.02-1.641 1.712-1.699 3.928-.325 3.234 2.004 7.59 2.17 8.726.333.453-.733 2.468-1.333 4.478-1.333s4.327-.672 5.148-1.494c.821-.82 5.055-1.632 9.408-1.802 4.353-.17 8.64-.758 9.526-1.306.887-.548 3.627-.618 6.089-.156 2.577.483 4.837.255 5.327-.538.58-.939 1.738-.904 3.63.109 3.628 1.942 12.588.694 15.784-2.197 1.535-1.39 3.818-2.029 5.856-1.64 1.837.352 3.022.126 2.634-.502-.387-.627 1.61-1.14 4.44-1.14s5.76-.615 6.511-1.365c1.8-1.8 15.287-4.36 24.514-4.651 4.04-.128 9.44-.876 12-1.662 2.56-.786 7.549-1.711 11.086-2.056 5.783-.564 6.578-.307 7.88 2.553 1.685 3.697 2.73 3.942 5.022 1.18.913-1.1 2.405-2 3.317-2 .91 0 3.373-1.35 5.47-3 2.63-2.069 5.706-3.027 9.912-3.088 3.353-.049 6.818-.534 7.699-1.079.88-.544 2.228-.603 2.994-.13.765.474 2.786-.052 4.491-1.17 2.875-1.884 12.091-3.437 23.575-3.975 2.636-.124 5.788-1.05 7.006-2.058 2.096-1.737 7.793-2.177 18.128-1.4 2.526.19 4.816-.324 5.089-1.141.36-1.084 1.417-1.067 3.897.063 2.963 1.35 3.718 1.16 5.853-1.477 2.017-2.492 3.828-3.046 10.251-3.137 4.29-.061 9.117.594 10.726 1.454 3.224 1.726 7.28.318 9.256-3.214 1.397-2.497 13.747-6.174 21.67-6.452 3.3-.116 6.721-.675 7.603-1.243.882-.568 4.71-1.254 8.505-1.525 3.796-.27 7.323-1.174 7.838-2.008.516-.834 3.288-1.454 6.162-1.378 6.164.163 16.127-1.644 19.891-3.608 4.623-2.412 11.224-3.093 14.687-1.515 2.862 1.304 3.806 1.083 6.603-1.544 2.706-2.542 4.17-2.922 8.558-2.22 3.566.57 5.87.278 7.056-.895 2.539-2.509 5.558-3.498 19.763-6.471 26.108-5.465 28.788-6.12 33.855-8.272 2.853-1.213 7.053-2.446 9.333-2.741 2.28-.295 5.834-1.19 7.899-1.99 2.064-.798 5.394-1.452 7.4-1.452 2.005 0 4.378-.732 5.274-1.627.895-.895 4.765-1.73 8.6-1.855 10.45-.34 23.93-2.445 27.218-4.252 1.602-.88 4.416-1.6 6.254-1.6 1.839 0 3.714-.6 4.167-1.333.453-.733 1.847-1.333 3.098-1.333s4.373-1.124 6.937-2.499c2.564-1.374 8.5-2.944 13.188-3.488 4.69-.545 10.438-1.789 12.775-2.765 2.337-.976 5.475-1.454 6.975-1.062 1.5.392 3.129.06 3.622-.736 1.13-1.828 6.071-1.911 6.071-.103 0 .74 3.385-.46 7.521-2.667 4.137-2.207 9.484-4.013 11.882-4.013 2.399 0 10.71-1.5 18.468-3.334 7.76-1.833 15.062-3.333 16.23-3.333 1.167 0 6.722-1.845 12.344-4.1 6.417-2.575 11.835-3.915 14.555-3.602 2.384.275 4.334.02 4.334-.566s.908-1.065 2.018-1.065c1.11 0 3.06-.52 4.333-1.155 3.197-1.594 10.785-4.199 16.012-5.495 2.4-.596 5.7-1.948 7.334-3.006 1.633-1.058 5.909-2.319 9.502-2.802 3.592-.484 7.192-1.37 8-1.97 3.112-2.315 12.723-4.548 16.016-3.721 1.962.492 3.451.3 3.451-.447 0-.722 3.014-1.712 6.697-2.2 3.683-.49 6.984-1.355 7.336-1.923.351-.57 4.088-2.06 8.303-3.312 4.215-1.253 9.555-3.109 11.866-4.124 2.31-1.015 5.01-1.852 6-1.861 8.17-.072 48.968-13.023 61.337-19.472 1.947-1.015 4.797-1.846 6.334-1.846s2.794-.6 2.794-1.333 2.027-1.333 4.504-1.333c2.476 0 5.25-.9 6.163-2 .913-1.1 2.981-2 4.597-2 1.616 0 4.322-1.474 6.014-3.275 1.692-1.8 3.446-3.188 3.9-3.083 2.614.608 12.244-2.285 16.822-5.054 2.933-1.775 6.623-3.795 8.199-4.49 1.576-.695 3.676-2.381 4.667-3.748.99-1.366 3.9-3.312 6.467-4.324 2.567-1.012 7.175-3.532 10.24-5.6 3.066-2.068 6.066-3.78 6.667-3.804 4.202-.17 13.414-12.653 14.541-19.706.5-3.124 2.62-7.817 4.73-10.472 2.119-2.667 3.822-6.448 3.822-8.485 0-2.036.892-4.016 2-4.441 2.002-.769 2.893-7.518.993-7.518-.555 0-1.895-1.95-2.98-4.334-1.49-3.277-1.892-8.755-1.648-22.48.37-20.843-.563-24.255-8.898-32.52-2.958-2.933-5.399-5.752-5.423-6.264-.024-.512-1.544-2.55-3.377-4.528-1.833-1.979-3.333-4.41-3.333-5.402 0-.993-.606-1.806-1.346-1.806-2.379 0-20.001-19.616-19.978-22.239 0-.602-2.875-3.794-6.4-7.094-3.526-3.3-7.53-7.8-8.897-10-2.43-3.91-4.622-6.614-11.38-14.036-3.81-4.187-4.922-5.83-10.799-15.964-2.339-4.033-6.196-9.733-8.571-12.667-2.376-2.933-6.02-8.633-8.1-12.666-4.409-8.554-8.973-15.81-11.79-18.74-1.095-1.14-2.919-4.14-4.052-6.667-1.133-2.526-2.595-5.493-3.25-6.593-.653-1.1-2.947-5.6-5.096-10-3.787-7.755-15.514-30.264-18.46-35.434-.798-1.401-2.381-3.602-3.518-4.89-1.136-1.289-2.514-4.443-3.06-7.01-.999-4.684-4.21-12.643-8.612-21.333-1.3-2.567-2.778-7.148-3.285-10.18-.507-3.032-2.081-6.757-3.498-8.277-1.416-1.52-2.56-4.44-2.54-6.487.018-2.048-2.058-7.923-4.615-13.056-8.304-16.674-15.42-32.983-15.42-35.338 0-1.266-1.083-3.733-2.407-5.482-1.325-1.75-3.211-5.88-4.193-9.18-3.733-12.55-5.552-17.814-8.06-23.318-1.424-3.126-2.984-8.158-3.468-11.183-.484-3.024-1.287-5.499-1.785-5.499-.993 0-4.849-14.784-6.118-23.454-.439-3-1.72-7.2-2.848-9.333-1.93-3.654-5.629-21.075-8.607-40.546-.729-4.767-1.875-10.167-2.548-12-.673-1.834-1.484-8.434-1.803-14.667-.32-6.233-1.261-14.933-2.094-19.333-1.433-7.577-1.376-15.675.629-88.667.426-15.53 1.463-28.556 6.631-83.333 1.107-11.734 2.011-25.635 2.009-30.893 0-10.346 2.653-22.916 6.859-32.44 2.677-6.063 8.616-18.983 10.42-22.667.538-1.1 2.168-2.605 3.622-3.344 1.454-.74 2.37-2.164 2.035-3.167-.368-1.105.114-1.576 1.226-1.195 1.009.346 4.384-2.095 7.5-5.424 4.44-4.742 5.67-5.491 5.683-3.461.013 1.72 1.131.64 3.333-3.212 1.825-3.192 3.317-6.453 3.317-7.248 0-.795 2.637-4.184 5.86-7.53 12.744-13.235 18.126-19.493 18.133-21.086 0-.917.787-1.667 1.74-1.667.952 0 3.202-2.383 5-5.297 1.797-2.914 3.921-5.314 4.72-5.333.8-.02 2.144-1.553 2.989-3.407.844-1.854 2.44-3.718 3.547-4.143 1.106-.424 2.012-1.665 2.012-2.756 0-2.587 4.982-9.567 9.648-13.515 2.027-1.716 3.685-3.99 3.685-5.056 0-1.066 1.2-3.226 2.667-4.8 1.466-1.574 2.666-4.25 2.666-5.944 0-1.695.535-3.082 1.189-3.082s1.601-1.644 2.106-3.653c.504-2.01 1.319-3.96 1.81-4.334 2.74-2.082 7.229-10.15 7.229-12.989 0-2.5 1.112-3.764 4.59-5.218 5.246-2.191 8.437-8.243 8.165-15.483-.1-2.658.9-6.073 2.369-8.087 2.899-3.974 4.542-4.514 4.542-1.49 0 1.143.6 1.707 1.334 1.254.733-.453 1.333-1.989 1.333-3.412 0-1.423.552-2.588 1.227-2.588s1.619-1.78 2.096-3.956c.478-2.175 2.41-6.225 4.292-8.998 1.882-2.774 3.997-6.694 4.7-8.711.704-2.018 2.09-3.668 3.082-3.668s2.468-1.05 3.28-2.334c1.058-1.67 1.676-1.86 2.178-.666.385.916 1.55 1.666 2.59 1.666 2.254 0 2.271-.152.52-4.756-1.746-4.595-.47-9.323 1.97-7.297 2.053 1.703 3.458.18 6.099-6.613.998-2.567 2.162-4.967 2.588-5.334 2.576-2.222 5.393-8.532 5.483-12.286.059-2.435 1.836-7.046 4.002-10.38 2.143-3.3 5.132-8.567 6.64-11.705 1.51-3.138 3.91-6.432 5.332-7.32 1.423-.89 2.587-2.599 2.587-3.8 0-1.2.9-2.93 2-3.842 1.1-.913 2-3.742 2-6.288 0-3.507.647-4.797 2.667-5.326 1.467-.383 2.667-1.267 2.667-1.964 0-1.436 6.804-10.854 8.333-11.533.55-.245 1-1.595 1-3 0-1.406.535-2.556 1.189-2.556.653 0 2.203-2.55 3.444-5.666 1.241-3.117 3.706-7.577 5.478-9.911 1.773-2.335 3.222-5.063 3.222-6.063s1.775-3.29 3.944-5.089c2.169-1.799 3.969-4.256 4-5.461.031-1.205.956-2.536 2.056-2.958 1.1-.423 2-1.951 2-3.398 0-1.446.626-3.016 1.39-3.488.764-.473 2.33-3.208 3.478-6.08 1.149-2.87 2.87-5.219 3.825-5.219 2.11 0 8.64-7.518 8.64-9.947 0-.958 1.194-2.054 2.651-2.435 1.458-.381 3.257-2.101 3.997-3.822.74-1.721 1.913-4.03 2.606-5.13.693-1.1 2.307-5.6 3.586-10 1.28-4.4 2.677-8.3 3.105-8.666.427-.367 1.502-2.317 2.388-4.333.886-2.017 2.373-3.695 3.306-3.729.932-.034 3.495-2.362 5.695-5.174 2.2-2.812 4.45-4.849 5-4.526.55.322 1-.256 1-1.286s1.137-2.901 2.527-4.16c1.39-1.257 2.838-3.9 3.219-5.872 1.49-7.734 4.158-15.67 5.831-17.349.966-.969 1.756-2.585 1.756-3.59 0-1.007 1.274-2.722 2.831-3.812 2.806-1.966 5.083-5.266 7.795-11.298.773-1.721 2.495-3.414 3.826-3.762 2.528-.66 6.882-6.934 6.882-9.915 0-3.598 4.646-17.194 5.876-17.194 3.477 0 7.458-5.973 7.486-11.232.03-5.54 3.837-15.704 6.499-17.349.81-.5 1.472-4.435 1.472-8.744 0-4.31.693-9.524 1.54-11.588 3.766-9.174 6.196-17.103 5.558-18.134-.38-.617.363-2.287 1.652-3.712 1.29-1.425 1.948-2.987 1.464-3.471-.484-.485-.88-.181-.88.674 0 .856-1.32 1.556-2.934 1.556-2.281 0-2.578-.356-1.333-1.6.927-.927 1.6-5.368 1.6-10.556 0-4.925.478-9.155 1.063-9.4 2.174-.908 6.355-22.335 8.898-45.606.47-4.305 1.833-9.32 3.027-11.142 2-3.053 2.002-3.41.013-4.523-1.952-1.092-1.97-1.763-.19-6.988 1.62-4.752 1.87-12.98 1.415-46.315-.541-39.556-1.493-51.556-5.277-66.537-1.02-4.033-1.927-9.133-2.018-11.333-.577-14-3.488-28.667-5.69-28.667-.728 0-1.692-1.05-2.142-2.333-.45-1.283-2.232-5.501-3.959-9.373-1.726-3.872-3.139-7.358-3.139-7.746 0-.39-2.1-3.458-4.667-6.82-2.566-3.36-4.666-6.833-4.666-7.715 0-.883-1.203-2.99-2.672-4.685-1.47-1.695-3.285-5.536-4.034-8.538-1.932-7.735-9.334-22.343-13.85-27.334-1.161-1.283-2.11-3.035-2.11-3.894s-.45-1.564-1-1.567c-.55 0-2.153-2.852-3.56-6.333-2.553-6.31-6.774-12.826-7.815-12.064-.302.221-1.392-.251-2.42-1.05-1.192-.924-12.788-1.579-31.873-1.8-50.02-.577-58.517-.82-59.395-1.698-.463-.464-2.863-.515-5.332-.115-2.47.4-5.566.29-6.88-.247-1.316-.536-8.693-1.152-16.393-1.37-7.7-.216-17.3-.662-21.333-.99-4.033-.328-8.422-.044-9.752.63-1.481.752-3.03.744-4-.02-1.456-1.15-25.155-3.296-39.788-3.603-3.413-.072-7.013-.777-8-1.568-.986-.79-8.093-1.841-15.793-2.335-7.7-.494-17.3-1.436-21.334-2.094-4.033-.657-18.133-1.548-31.333-1.979-20.528-.67-29.242-1.188-36-2.141-.733-.103-4.933-.139-9.333-.078-4.4.06-9.8-.078-12-.306-2.2-.23-5.986-.51-8.412-.625-2.56-.12-4.066-.768-3.588-1.541.498-.805-1.32-1.333-4.588-1.333-3.385 0-5.452.624-5.517 1.666-.084 1.334-.24 1.334-.778 0-1.982-4.912-7.117.439-7.117 7.416 0 4.791 3.515 13.584 5.43 13.584.766 0 1.093.488.724 1.083-.368.596.797 2.79 2.588 4.874 1.792 2.085 3.258 4.236 3.258 4.78 0 1.119 17.034 26.392 19.468 28.884.87.891 2.9 4.341 4.51 7.667 1.61 3.325 3.414 6.046 4.01 6.046.596 0 1.767 1.65 2.601 3.666 2.506 6.057 5.613 11.509 8.167 14.334 1.326 1.466 3.172 5.666 4.102 9.333.93 3.667 2.767 8.26 4.083 10.206 1.316 1.946 2.392 4.676 2.392 6.066 0 1.39.591 3.12 1.314 3.842.723.722 2.24 6.619 3.37 13.102 1.583 9.078 1.74 13.492.686 19.198-.754 4.075-1.37 10.51-1.37 14.298 0 6.393-1.228 12.075-4.026 18.621-.627 1.467-1.543 4.095-2.035 5.84-1.372 4.862-14.315 17.026-22.126 20.794-4.239 2.045-9.3 3.366-12.892 3.366-4.695 0-5.618.357-4.479 1.73 1.13 1.362.387 1.747-3.503 1.815-15.3.267-18.939.763-18.939 2.583 0 1.326-1.727 1.872-5.921 1.872-3.257 0-6.292.6-6.745 1.334-1.265 2.046-4.833 1.588-7.792-1-1.466-1.284-2.288-1.68-1.825-.882 1.451 2.504-19.666 6.21-37.05 6.502-8.8.148-24.25.625-34.333 1.06-10.084.434-18.334.292-18.334-.317 0-.608-2.85-1.383-6.333-1.72-3.483-.338-7.533-.94-9-1.337-1.467-.398-4.46-1.18-6.654-1.74-2.192-.559-4.785-1.815-5.761-2.791-.977-.977-2.869-1.775-4.204-1.775-1.336 0-2.777-.906-3.201-2.013-.425-1.107-1.24-1.88-1.81-1.717-1.936.552-7.044-3.025-13.384-9.374-11.648-11.663-16.32-18.577-16.32-24.15 0-1.354-.794-2.766-1.766-3.14-.972-.372-2.81-4.786-4.085-9.808-1.275-5.023-5.217-15.132-8.76-22.465-12.648-26.187-17.337-59.1-13.273-93.182 1.911-16.027 2.259-17.651 4.22-19.725 2.23-2.357 4.998-10.476 4.998-14.657 0-1.856 1.501-5.414 3.337-7.906 1.835-2.491 3.705-5.58 4.155-6.863.45-1.284 1.349-2.334 1.997-2.334.648 0 1.178-.643 1.178-1.428 0-2.267-3.577-5.238-6.305-5.238-1.373 0-3.134-.639-3.914-1.42-.78-.78-4.35-1.64-7.933-1.91-3.584-.271-11.015-.906-16.515-1.411-5.5-.506-12.3-.856-15.11-.778-2.81.077-6.992-.833-9.293-2.023-2.3-1.19-7.802-2.999-12.224-4.02-15.319-3.537-17.398-4.153-22.706-6.728-2.934-1.423-7.334-2.703-9.778-2.845-2.445-.142-6.771-1.445-9.614-2.895-2.843-1.45-6.35-2.637-7.793-2.637-1.444 0-3.441-.816-4.439-1.814-2.323-2.323-25.506-11.52-29.036-11.52-1.472 0-2.676-.527-2.676-1.17 0-1.639-12.479-6.83-16.417-6.83-1.79 0-4.08-.994-5.086-2.207-1.006-1.214-3.63-3.05-5.83-4.08-2.2-1.03-5.438-2.687-7.196-3.681-4.918-2.781-16.137-13.083-16.137-14.818 0-1.948-6.462-13.598-8.107-14.614-.675-.417-1.227-1.923-1.227-3.346 0-1.424-.6-2.588-1.333-2.588s-1.333-2.436-1.333-5.412c0-2.977.45-5.159 1-4.85.55.31 6.1-.222 12.333-1.181 6.233-.96 16.437-1.778 22.676-1.818 6.238-.04 13.264-.624 15.613-1.297 4.21-1.208 13.711.58 13.711 2.579 0 .499 2.36 1.972 5.246 3.273 4.377 1.974 7.41 2.225 18.333 1.52 16.851-1.086 15.504-1.124 26.836.753 8.605 1.425 10.48 1.339 16-.737 4.173-1.57 13.344-2.8 27.585-3.697 11.733-.74 24.45-2.143 28.261-3.119 5.266-1.348 9.424-1.458 17.333-.457 10.481 1.327 23.167.887 36.052-1.25 3.838-.636 7.703-.71 8.588-.163.884.547 3.264.138 5.288-.908 4.487-2.32 8.348-2.423 11.73-.31 1.977 1.234 3.337 1.234 6.045 0 4.729-2.155 8.036-2.003 10.083.464 1.184 1.426 2.133 1.63 3.097.666.764-.764 3.588-1.39 6.274-1.39 2.687 0 8.034-.597 11.882-1.326 16.875-3.2 62.493-3.975 69.578-1.182 2.836 1.118 4.29.909 7.274-1.047 2.995-1.962 6.898-2.518 19.79-2.816 43.352-1.001 47.496-.95 48.453.6 1.616 2.612 7.803 3.583 8.657 1.358.603-1.572 3.521-1.876 15.18-1.583 7.94.199 17.046.799 20.237 1.332 3.692.618 6.86.404 8.712-.587 2.216-1.186 4.333-1.188 8.865-.01 9.218 2.398 13.17 2.366 18.103-.15 4.085-2.082 5.184-2.129 10.746-.455 7.701 2.318 16.014 2.416 16.83.198.462-1.259 1.668-1.09 4.924.689 3.423 1.87 6.029 2.18 12.65 1.5 5.592-.572 8.645-.36 9.266.645 1.286 2.082 9.713 1.84 16.102-.462 5.575-2.009 31.332-2.862 31.335-1.039.001.55 8.551 1.07 19 1.155 10.45.085 25.16.702 32.692 1.371 7.53.67 14.58.72 15.666.113 2.36-1.321 2.574-6.686.425-10.726-1.523-2.866-7.612-10.576-17.451-22.1-2.75-3.22-5-6.665-5-7.656 0-.99-1.2-2.55-2.667-3.466-1.467-.916-2.667-2.282-2.667-3.035 0-2.49-6.784-11.407-8.074-10.61-.695.43-1.848-.755-2.562-2.632-.714-1.878-1.901-3.414-2.638-3.414-.738 0-1.707-1.456-2.154-3.235-.446-1.78-1.957-4.272-3.358-5.54-1.4-1.268-2.547-3.13-2.547-4.14 0-1.01-.877-2.172-1.95-2.583-1.071-.412-2.31-1.89-2.753-3.284-.443-1.394-1.516-3.298-2.384-4.23-.869-.932-2.78-4.071-4.246-6.976-1.467-2.904-3.738-6.366-5.046-7.692-1.309-1.326-4.57-5.841-7.248-10.032-2.677-4.192-5.657-8.414-6.62-9.383-.964-.969-1.753-2.253-1.753-2.853 0-.6-3.356-4.502-7.458-8.67-4.101-4.167-7.083-7.952-6.624-8.41.457-.458-.289-1.464-1.658-2.236-3.529-1.987-17.593-18.942-17.593-21.209 0-1.038-1.5-2.87-3.334-4.07-1.833-1.202-3.333-2.72-3.333-3.374 0-1.24-2.575-4.53-11-14.06-2.75-3.11-5-6.092-5-6.627 0-.535-2.7-3.39-6-6.343-3.3-2.954-6-6.158-6-7.12 0-.964-1.8-3.033-4-4.6-2.2-1.566-4-3.679-4-4.694 0-1.016-2.4-3.775-5.333-6.132-2.934-2.358-5.334-4.83-5.334-5.495 0-1.122-6.969-9.992-19.952-25.394-2.96-3.511-5.38-6.961-5.38-7.667a1.28 1.28 0 0 0-1.266-1.284c-1.636 0-8.062-5.946-8.09-7.486-.013-.65-1.811-3.212-4-5.695-2.188-2.483-3.985-4.883-3.993-5.333-.013-.45-3.604-4.686-7.992-9.412-4.388-4.725-8.322-9.675-8.742-11-.42-1.324-1.344-2.408-2.053-2.408-.708 0-2.527-2.1-4.042-4.666-1.514-2.567-3.544-4.667-4.511-4.667-2.083 0-17.979-14.971-17.979-16.933 0-.745-5.7-4.24-12.666-7.768-6.967-3.528-12.667-6.846-12.667-7.375 0-.826-2.044-1.415-11.64-3.35-.902-.181-2.6-1.29-3.774-2.464s-2.64-1.821-3.26-1.438c-1.303.804-7.993-1.99-7.993-3.339 0-1.664-6.737-4-11.538-4-3.672 0-4.573-.453-3.98-2 .553-1.44-.14-2-2.471-2-1.782 0-4.329-1.168-5.66-2.596-1.704-1.83-3-2.23-4.385-1.354-3.047 1.927-11.109 1.507-15.776-.822-2.653-1.323-8.696-2.253-16.266-2.505-6.625-.22-12.418-.772-12.873-1.228-.456-.455.322-.881 1.727-.947 1.406-.066-.369-.922-3.943-1.904-4.715-1.295-7.46-1.406-10-.405-1.967.775-13.29 1.329-25.835 1.264-13.771-.071-22.333.385-22.333 1.191 0 2.392-12.214 1.524-14.058-1-1.564-2.138-1.885-2.066-4.436 1-1.513 1.819-2.77 4.056-2.795 4.973-.025.947-1.744 1.667-3.979 1.667-2.163 0-7.068.672-10.898 1.493-5.189 1.113-8.717 1.102-13.836-.044l-6.87-1.537-7.749 7.21c-7.56 7.036-14.046 9.52-14.046 5.378 0-2.129-2.13-2.448-3.333-.5-1.281 2.073-3.709 1.568-2.877-.599.782-2.038-2.22-1.531-5.384.91-.877.676-4.92 2.002-8.985 2.947-6.295 1.463-7.627 1.433-8.988-.207-1.365-1.645-1.922-1.495-3.824 1.026-1.555 2.062-2.522 2.475-3.204 1.372-.68-1.101-1.933-.55-4.127 1.818-1.733 1.87-4.379 3.4-5.88 3.4-1.502 0-2.73.6-2.73 1.333 0 2.017-4.364 1.597-7.704-.742-2.335-1.636-2.964-1.697-2.964-.288 0 2.638-11.271 6.558-13.229 4.6-1.144-1.144-1.719-.781-2.303 1.453-.88 3.365-4.468 4.087-4.468.898 0-1.143-.61-1.702-1.355-1.241-.745.46-1.085 1.275-.754 1.809.33.534 0 1.843-.747 2.908-1.023 1.471-1.509 1.536-2.023.27-.933-2.301-4.005-2.094-4.936.333-.422 1.1-1.613 2-2.647 2-1.033 0-2.73 1.282-3.77 2.848-1.433 2.158-3.251 2.849-7.496 2.849-3.844 0-5.605.571-5.605 1.818 0 1.27-1.834 1.818-6.076 1.818-8.08 0-17.96 2.487-21.257 5.35-3.932 3.416-7.334 4.897-13.65 5.943-3.106.515-7.81 2.403-10.454 4.197-2.643 1.794-7.6 3.634-11.018 4.089-3.416.455-7.542 1.857-9.167 3.114-1.755 1.359-6.747 2.66-12.297 3.208-7.768.765-9.784 1.482-11.964 4.253-1.442 1.833-3.842 3.425-5.334 3.537-1.493.113-2.99.925-3.327 1.805-.364.947-3.146 1.56-6.825 1.505-3.416-.052-6.605.512-7.087 1.253-1.511 2.32-6.542 4.413-10.61 4.413-2.15 0-5.433 1.2-7.298 2.666-1.864 1.467-4.055 2.667-4.867 2.667-2.812 0-12.102 3.32-12.102 4.325 0 .555-2.267 1.009-5.037 1.009s-6.22.812-7.667 1.806c-1.446.993-4.13 2.138-5.963 2.543-5.342 1.183-23.266 8.004-24.041 9.15-.39.575-1.89 1.04-3.333 1.035-4.897-.02-10.62 1.766-12.257 3.826-1.914 2.408-11.039 4.115-22.593 4.227-8.151.079-8.244.123-10.666 5.078-2.017 4.128-3.322 5.139-7.485 5.797-2.772.439-6.372 1.443-8 2.23-1.627.789-4.727 1.821-6.889 2.295-2.698.592-3.39 1.197-2.205 1.929 2.255 1.393-5.253 4.083-11.397 4.083-2.457 0-4.467.59-4.467 1.308 0 .72-1.65 1.7-3.667 2.18-2.017.479-4.567 1.616-5.667 2.528-3.807 3.154-26.196 8.91-33.775 8.683-4.097-.123-5.25.388-5.822 2.574-.393 1.5-.794 2.774-.891 2.83-.098.058-5.534.412-12.08.79-7.045.406-13.1 1.473-14.844 2.615-1.62 1.061-3.464 1.803-4.1 1.65-.635-.155-3.985.187-7.444.759-4.258.704-6.533 1.808-7.044 3.418-.834 2.627-6.407 4.69-7.11 2.631-.652-1.903-3.922-1.584-5.157.503-1.203 2.034-15.936 4.15-16.622 2.388-.244-.628-2.694-1.554-5.444-2.06-4.052-.743-5-.519-5 1.185 0 1.156-.9 2.447-2 2.87-1.1.422-2 1.603-2 2.624 0 1.022-.9 1.858-2 1.858s-2-.6-2-1.334c0-.733-2.05-1.333-4.556-1.333-2.505 0-4.78-.676-5.056-1.502-.686-2.058-14.388-3.329-14.388-1.334 0 1.958-6.417 1.916-13.921-.091-5.269-1.41-6.27-1.313-8.643.834-2.641 2.39-2.698 2.343-3.554-3.01-.91-5.69-5.882-12.258-5.882-7.77 0 1.213.674 2.206 1.497 2.206 1 0 .916.7-.253 2.108-1.84 2.217-4.135 2.03-11.91-.973-5.326-2.056-6.648-2.98-11.881-8.3-3.003-3.052-4.26-3.556-6.185-2.478-2.74 1.533-5.942-.785-6.514-4.717-.23-1.578-1.981-2.54-5.545-3.047-2.865-.408-6.409-1.427-7.876-2.266-1.466-.838-6.7-3.377-11.628-5.642-8.062-3.704-9.1-4.63-10.336-9.22-1.998-7.42-.513-13.037 3.85-14.558 1.97-.687 5.352-3.125 7.515-5.417 3.966-4.204 10.46-7.15 16.6-7.532l6.707-.416c2.437-.15 3.797-1.329 4.897-4.242 1.002-2.653 2.97-4.538 5.754-5.508 3.097-1.08 3.75-1.78 2.437-2.613-1.21-.767-.409-1.144 2.459-1.158 4.406-.021 7.027-1.994 4.087-3.076-.921-.339-.175-.935 1.658-1.326 1.834-.39 6.334-1.424 10-2.296 3.667-.872 11.017-2.245 16.334-3.051 5.316-.807 9.666-1.948 9.666-2.536 0-.588.85-1.069 1.89-1.069 1.038 0 3.176-1.65 4.75-3.667 1.883-2.413 3.099-3.097 3.555-2 .406.974 3.122 1.667 6.536 1.667 4.41 0 6.18-.632 7.221-2.576.758-1.417 2.73-2.998 4.38-3.513 1.651-.516 3.302-1.306 3.668-1.757.367-.451 2.666-1.537 5.11-2.413 4.536-1.625 9.768-.636 11.506 2.177 1.216 1.967 4.718 1.777 4.718-.256 0-2.007 7.158-8.995 9.213-8.995.8 0 1.453.72 1.453 1.6 0 1.214.4 1.201 1.656-.056 1.318-1.318 1.25-1.92-.333-2.958-1.718-1.126-1.646-1.566.528-3.227 1.57-1.198 3.327-1.511 4.667-.83 1.182.6 5.15.727 8.816.28l6.666-.81-7.101-1.667c-3.906-.916-8.856-1.666-11-1.666-5.66 0-4.786-2.418 1.101-3.047l5-.533-5.333-.014c-2.933-.007-9.89-.463-15.46-1.013-6.085-.601-13.004-.436-17.334.414-3.963.778-13.702 1.686-21.641 2.017-7.94.332-14.79.957-15.223 1.39-.432.432-5.336.795-10.897.807-5.562.01-11.012.602-12.112 1.313-1.673 1.08-1.582 1.295.556 1.312 1.406.011 2.235.341 1.844.733-.392.391-3.392.111-6.668-.623-4.925-1.104-7.15-.88-12.858 1.288-4.158 1.58-10.21 2.629-15.221 2.638-13.405.023-18.32 1.208-18.32 4.414 0 2.625-.078 2.639-1.789.3-1.708-2.336-1.891-2.302-4.018.735-2.071 2.957-3.165 3.2-15.44 3.428-9.904.183-14.084.815-16.69 2.524-1.914 1.253-3.861 1.896-4.329 1.428-.468-.467-1.91.109-3.204 1.28-2.16 1.956-2.693 1.93-6.492-.314l-4.14-2.445-3.378 4.317c-3.08 3.936-3.564 4.13-5.487 2.207-2.771-2.77-10.597-1.389-13.677 2.415-1.236 1.527-3.407 2.861-4.825 2.966-1.417.104-3.345.664-4.284 1.245-.94.58-2.579.72-3.643.312-1.134-.435-1.937.043-1.937 1.152 0 1.89-7.534 4.666-12.703 4.68-1.487 0-3.778 1.262-5.091 2.796-1.723 2.012-3.298 2.56-5.66 1.967-2.262-.568-3.511-.194-4.05 1.212-.43 1.118-2.167 2.033-3.86 2.033-1.694 0-3.315.704-3.602 1.566-.304.913-3.071 1.532-6.633 1.484-5.231-.07-6.324.388-7.6 3.187-1.013 2.224-2.231 3.04-3.811 2.55-1.338-.413-4.81.963-8.19 3.247-3.441 2.326-7.611 3.966-10.084 3.966-2.945 0-5.373 1.206-8.049 4-2.108 2.2-4.566 4-5.463 4-.897 0-5.327 1.748-9.844 3.884-5.795 2.74-7.499 4.069-5.786 4.512 1.334.345-.124.697-3.24.782-3.117.085-5.667.755-5.667 1.488 0 .734-.824 1.334-1.83 1.334-2.808 0-13.619 5.063-15.404 7.213-.872 1.051-3.952 2.311-6.843 2.8-3.314.56-5.256 1.607-5.256 2.835 0 1.07-1.81 2.708-4.022 3.638-2.213.93-3.613 2.101-3.112 2.603.502.5-.408.91-2.022.91-1.613 0-5.059 2.127-7.657 4.725-3.353 3.353-5.47 4.488-7.29 3.91-1.41-.448-2.564-.288-2.564.354 0 2.603-3.566 5.776-7.24 6.442-2.145.39-4.844 1.79-5.997 3.114-1.153 1.324-5.696 4.105-10.096 6.18-4.4 2.075-8.793 4.56-9.762 5.524-.97.964-2.612 1.752-3.652 1.752-2.202 0-5.03 2.142-15.178 11.496-4.074 3.757-9.338 7.811-11.696 9.01-2.84 1.445-4.03 2.853-3.524 4.17.433 1.128-.02 2.078-1.046 2.194-3.968.445-4.553.609-6.594 1.846-1.165.706-2.665 2.257-3.333 3.447-1.532 2.728-24.076 21.17-25.878 21.17-.736 0-1.337 1.158-1.337 2.574 0 1.617-1.07 2.732-2.88 3-1.594.236-3.04 1.537-3.238 2.916-.197 1.37-2.032 3.77-4.078 5.333-2.045 1.564-5.396 4.456-7.447 6.427-2.05 1.97-4.92 3.96-6.376 4.423-1.456.462-2.648 1.686-2.648 2.72 0 1.033-1.495 2.858-3.322 4.056-1.827 1.197-3.01 2.682-2.627 3.3.382.619-.973 2.029-3.011 3.134-2.039 1.106-3.183 2.034-2.543 2.064.64.029.422.947-.485 2.038-.906 1.092-2.22 1.632-2.92 1.2-.699-.433-1.609.504-2.022 2.082-.48 1.837-2.165 3.152-4.684 3.656-2.705.54-3.392 1.122-2.199 1.86.955.59 1.453 1.299 1.108 1.576-.346.278-2.578 1.851-4.962 3.497-2.383 1.646-4.333 3.867-4.333 4.937 0 1.069-2.55 4.6-5.667 7.848-3.116 3.247-7.466 8.08-9.666 10.74-2.2 2.659-6.157 7.037-8.794 9.727-2.636 2.69-5.563 6.853-6.505 9.25-.941 2.396-4.053 6.211-6.915 8.478-3.75 2.97-4.83 4.573-3.864 5.737.951 1.146.095 2.998-2.958 6.391-2.364 2.628-5.376 6.336-6.693 8.24-1.318 1.905-3.268 3.463-4.333 3.463-1.066 0-2.03.75-2.141 1.666a72.316 72.316 0 0 1-.436 3c-.302 1.733-4.151 8.47-10.192 17.84-2.656 4.122-5.553 9.744-6.436 12.494-.884 2.75-2.46 5-3.503 5-1.043 0-1.897.61-1.897 1.358 0 2.41-7.08 17.308-8.225 17.308-.61 0-1.108 1.127-1.108 2.504s-.9 3.25-2 4.163c-1.1.913-2 2.466-2 3.451 0 2.583-4.296 11.216-5.58 11.216-.598 0-1.087.908-1.087 2.018 0 2.24-2.404 6.871-5.065 9.758-.953 1.033-2.078 3.606-2.5 5.718-.423 2.111-1.245 3.84-1.828 3.84-.582 0-2.064 3.15-3.292 7-2.037 6.383-8.603 20.679-13.32 29-1.04 1.832-3.516 8.732-5.504 15.332-1.987 6.6-4.376 12.46-5.307 13.023-.932.562-2.108 3.862-2.614 7.333-.506 3.471-2.042 8.537-3.412 11.258-1.37 2.72-2.491 5.87-2.491 7s-.664 2.053-1.476 2.053c-.812 0-1.108.959-.659 2.131.45 1.172-.026 4.622-1.058 7.667-1.032 3.044-2.2 8.553-2.596 12.242-.396 3.688-1.3 8.229-2.007 10.09-.708 1.862-2.046 9.345-2.973 16.628-.927 7.283-2.483 14.426-3.458 15.872-.975 1.447-1.777 4.747-1.78 7.333-.005 2.587-.644 6.993-1.42 9.791-.778 2.799-1.52 8.895-1.649 13.547-.129 4.652-.647 8.204-1.15 7.893-1.576-.974-2.646 4.554-2.305 11.91.18 3.888-.097 7.755-.616 8.595-.52.84-.893 3.5-.831 5.914.062 2.413-.288 6.037-.777 8.054-.519 2.138-.337 3.666.436 3.666.817 0 .573 3.459-.634 9-1.078 4.95-1.894 14.36-1.814 20.912.08 6.551-.518 13.922-1.329 16.379-.81 2.457-1.593 10.296-1.737 17.422-.15 7.357-.981 14.248-1.926 15.949-1.088 1.96-1.845 11.171-2.19 26.666-.29 13.02-.926 25.252-1.415 27.183-.507 2.005-.284 3.883.52 4.38.988.61.983 1.952-.014 4.49-2.628 6.688-1.247 97.613 1.533 100.964.855 1.03 1.24 2.382.854 3.006-1.467 2.373 10.172 66.285 13.412 73.65.99 2.249 2.961 10.745 6.794 29.279 1.435 6.937 3.349 12.86 4.254 13.161 1.05.35 1.151.855.28 1.393-1.489.92-.88 4.798 3.477 22.166 2.994 11.934 5.052 22.474 6.9 35.334.686 4.766 2.538 14.366 4.115 21.333 3.462 15.282 6.02 30.987 7.82 48 .737 6.967 1.966 17.467 2.731 23.333 5.6 42.933 6.477 52.996 9.874 113.334 2.033 36.119 1.963 121.068-.124 150-.502 6.966-1.024 18.966-1.16 26.666-.135 7.7-.882 26.9-1.658 42.667-.776 15.767-1.715 48.167-2.085 72-.635 40.858-2.565 112.938-4.177 156-.398 10.633-1.008 27.133-1.355 36.667-.348 9.533-1.23 23.333-1.962 30.666-.73 7.334-1.591 17.234-1.912 22-.32 4.767-1.218 12.267-1.994 16.667-.775 4.4-1.411 12.2-1.412 17.333-.003 16.22-7.106 61.085-11.603 73.28-1.07 2.904-2.292 9.408-2.715 14.453-.493 5.878-1.415 9.422-2.566 9.863-1.091.42-1.796 2.779-1.796 6.012 0 2.928-.836 7.213-1.857 9.524-2.19 4.957-5.198 13.724-9.467 27.592-2.704 8.785-7.056 19.229-13.496 32.384-1.016 2.077-1.847 4.686-1.847 5.799 0 2.923-3.93 11.02-7.975 16.427-1.92 2.566-4.566 7.366-5.88 10.666-4.057 10.19-12.027 25.774-14.445 28.247-1.264 1.294-2.68 3.868-3.144 5.72-.465 1.852-1.584 3.367-2.487 3.367s-2.445 2.55-3.426 5.666c-.981 3.117-2.577 6.614-3.547 7.772-.97 1.158-1.763 2.765-1.763 3.572 0 .806-.762 2.259-1.694 3.228-3.46 3.598-11.64 15.503-11.64 16.94 0 .819-.663 1.488-1.475 1.488s-1.139.879-.727 1.953c.458 1.194-.78 3.04-3.19 4.757-2.168 1.543-3.94 3.964-3.94 5.381 0 1.417-.6 2.576-1.334 2.576-.733 0-1.333.795-1.333 1.767 0 .972-2.55 5.145-5.667 9.274-9.005 11.929-10.938 14.717-11.957 17.249-.526 1.307-1.576 2.377-2.333 2.377-.757 0-1.376.609-1.376 1.354 0 1.285-4.166 8.179-12.785 21.158-2.135 3.216-6.126 9.216-8.868 13.334s-5.576 8.834-6.297 10.48c-2.93 6.683-14.458 29.314-17.155 33.674-1.587 2.566-2.888 5.924-2.89 7.462-.006 2.806-3.655 11.291-5.393 12.538-1.245.892-5.28 21.16-5.28 26.52 0 5.212 4.085 13.447 8.009 16.146 1.599 1.1 4.143 3.05 5.654 4.334 1.51 1.283 3.294 2.333 3.964 2.333.67 0 3.428 2.095 6.13 4.655 2.7 2.56 5.709 4.66 6.685 4.667.975 0 4.875 2.018 8.666 4.471 3.791 2.453 9.593 5.844 12.893 7.536 7.223 3.703 10.669 5.59 13.333 7.306 1.1.708 3.169 1.47 4.597 1.692 1.428.222 3.528 1.213 4.667 2.202 3.26 2.831 10.732 5.805 19.07 7.589 4.706 1.007 7.666 2.33 7.666 3.428 0 .983 1.067 1.787 2.37 1.787 1.304 0 3.554.767 5 1.704 1.447.937 7.13 3.12 12.63 4.852 5.5 1.731 13.21 4.612 17.132 6.402 11.252 5.134 17.475 7.042 22.957 7.042 2.798 0 5.458.6 5.911 1.334.453.733 2.319 1.333 4.145 1.333 1.827 0 5.109.925 7.294 2.055 2.185 1.13 4.462 1.752 5.06 1.382 1.097-.678 14.366 3.919 16.835 5.833.733.568 2.326 1.015 3.54.993 4.234-.077 17.824 4.85 21.919 7.949 4.359 3.298 7.207 4.005 7.207 1.788 0-.733 1.5-1.333 3.334-1.333 1.833 0 3.333.53 3.333 1.176 0 .648 4.65 1.605 10.333 2.128 5.952.547 11.265 1.78 12.53 2.905 1.207 1.075 5.53 2.3 9.606 2.72 4.37.451 7.299 1.375 7.137 2.251-.165.898 2.185 1.562 5.939 1.676 3.416.104 8.216.822 10.666 1.595 2.45.773 7.456 1.774 11.122 2.225 3.667.45 9.241 1.742 12.388 2.87 3.146 1.127 7.161 1.687 8.923 1.245 1.76-.442 7.287-.224 12.279.483 4.992.708 15.028 1.598 22.302 1.978 7.274.38 15.074 1.289 17.333 2.02 2.26.732 10.109 1.6 17.442 1.93 7.333.33 16.933 1.326 21.333 2.214 4.4.888 20.3 1.747 35.334 1.91 20.238.218 29.524.863 35.774 2.484 9.67 2.509 18.33 2.845 19.617.762.988-1.599 11.13-.397 13.209 1.565 1.7 1.605 1.833 1.573 5.522-1.329zm551.936-440.94c-1.636-1.637-2.561-1.777-3.975-.603-1.441 1.195-2.29.89-3.894-1.4-1.919-2.739-2.257-2.794-5.226-.849-3.39 2.222-2.984 2.314-16.297-3.683-2.933-1.321-7.017-2.61-9.075-2.865-3.26-.402-15.539-9.115-15.621-11.084-.016-.394-3.003-4.017-6.637-8.05-3.634-4.034-6.62-8.084-6.637-9-.016-.917-.622-1.667-1.345-1.667-.724 0-2.168-1.95-3.21-4.334-2.828-6.465-11.72-15.606-17.853-18.352-2.977-1.333-6.43-3.974-7.67-5.87-1.428-2.177-3.48-3.444-5.58-3.444-1.825 0-5.073-1.475-7.215-3.278-2.143-1.802-4.758-2.946-5.812-2.542-1.054.405-3.888-.67-6.297-2.389-2.41-1.718-5.28-3.186-6.38-3.26-1.1-.075-3.35-.225-5-.334-1.65-.11-2.85-.91-2.668-1.781.358-1.698-7.6-3.79-14.54-3.821-2.315-.013-4.938-.899-5.83-1.974-.893-1.075-3.23-1.954-5.193-1.954-1.963 0-4.14-.554-4.836-1.231-.697-.677-5.167-1.99-9.934-2.918-4.766-.928-9.475-2.296-10.463-3.04-.988-.745-2.958-1.531-4.378-1.748-1.42-.217-3.972-1.305-5.673-2.42-1.865-1.221-6.637-2.116-12.031-2.255-6.45-.166-9.312-.809-10.275-2.31-.99-1.542-1.515-1.649-2.035-.412-1.03 2.45-3.572 2.035-2.626-.429.694-1.807-.175-1.973-6.332-1.203-5.642.705-7.293.48-7.889-1.071-.414-1.08-2.75-2.333-5.192-2.785-6.507-1.205-10.253-1.924-18.44-3.54-4.032-.795-8.682-1.565-10.332-1.71-1.65-.144-3-.648-3-1.12 0-.472-2.424-.314-5.387.352-3.04.683-6.38.71-7.666.064-2.014-1.013-21.8-4.354-28.947-4.889-1.467-.109-4.167-.562-6-1.006-8.169-1.976-24.666-3.662-40.298-4.116-10.057-.293-17.713-1.115-18.803-2.02-1.066-.885-5.736-1.424-11.099-1.28-5.092.135-10.038-.236-10.99-.825-.953-.589-9.025-1.328-17.938-1.644-8.913-.315-19.806-1.203-24.206-1.973-4.4-.77-13.4-1.55-20-1.733-6.6-.183-12.3-.47-12.666-.639-.367-.168-4.824-.574-9.904-.902-5.08-.329-10.022-1.249-10.982-2.045-.96-.797-3.81-1.207-6.336-.912-2.525.294-4.368.175-4.096-.266.273-.442-2.92-.827-7.093-.857-8.636-.06-24.21-2.087-26.36-3.429-1.51-.94-15.953-2.748-22.23-2.78-3.542-.02-5.378-2.155-2-2.326.917-.047.293-.637-1.387-1.31-2.04-.82-3.896-.702-5.585.353-1.893 1.182-3.305 1.203-5.612.084-1.695-.823-5.434-1.823-8.308-2.222-2.874-.4-5.614-1.356-6.09-2.126-.476-.77-4.425-2.076-8.775-2.903-4.35-.827-10.01-2.377-12.576-3.446-9.987-4.157-16-7.297-16-8.354 0-.607-2.85-2.175-6.333-3.484-6.92-2.6-11.123-5.926-24.525-19.401-8.888-8.937-18.375-24.746-20.379-33.958-1.293-5.947-1.472-39.589-.221-41.613.574-.928 1.195-3.003 1.382-4.611.836-7.222 6.57-34.693 9.517-45.59 1.784-6.6 3.24-13.294 3.235-14.875-.01-2.545 4.534-9.098 11.87-17.126 1.34-1.467 5.365-3.5 8.945-4.518 3.58-1.019 7.71-2.93 9.176-4.245 3.596-3.226 7.46-4.514 19.667-6.554 5.683-.95 10.333-2.218 10.333-2.818 0-.6 1.65-1.063 3.667-1.03 2.016.033 6.366-.649 9.666-1.517 6.81-1.791 11.263-2.04 15.805-.884 2.387.608 3.301.174 3.822-1.817.729-2.788 3.04-3.634 3.04-1.113 0 1.816 10.303.457 12.906-1.703 1.178-.977 2.909-.995 5.6-.057 2.946 1.027 4.546.904 6.558-.506 1.464-1.025 4.973-1.792 7.799-1.705 5.056.156 15.176-2.019 19.183-4.123 1.126-.59 5.026-.609 8.667-.04 3.641.57 8.27.719 10.287.332 2.243-.43 3.667-.12 3.667.798 0 2.136 3.377 1.856 5.281-.438.884-1.066 3.208-1.928 5.163-1.915 15.849.099 26.056-1.011 27.29-2.967 1.173-1.86 1.78-1.887 5.115-.222 3.05 1.521 5.664 1.618 13.468.498 21.434-3.075 27.907-3.538 37.253-2.667 5.37.5 10.671.432 11.782-.152 1.11-.584 8.31-1.034 16-1.001 7.869.033 16.477-.7 19.69-1.679 3.69-1.123 6.167-1.28 7.004-.445 1.391 1.392 10.981.421 21.706-2.198 4.976-1.215 7.299-1.202 10.334.055 2.888 1.196 4.386 1.233 5.705.138 1.051-.873 7.507-1.506 15.665-1.535 19.9-.072 35.532-1.369 40.345-3.346 1.525-.627 2.86-.378 3.497.65.818 1.325 1.659 1.33 4.101.022 1.69-.905 8.816-1.865 15.837-2.134 7.02-.27 14.126-.806 15.79-1.193 1.666-.386 4.18-.087 5.587.667 1.704.912 2.834.923 3.384.032 1.123-1.817 6.956-1.696 8.108.168.657 1.062 1.236.957 1.971-.356.797-1.425 4.272-1.818 14.816-1.679 7.576.1 14.442-.345 15.258-.99.817-.643 8.017-1.402 16-1.686 7.984-.284 20.646-.764 28.137-1.068 11.451-.465 13.75-.222 14.423 1.527.725 1.88.916 1.878 1.98-.019 1.704-3.033 11.663-6.085 14.342-4.395 1.48.933 3.745.788 7.414-.476 3.93-1.354 6.306-1.463 9.282-.426 2.855.995 4.512.97 5.79-.092.985-.817 3.596-1.22 5.803-.897 2.206.324 4.012.147 4.012-.394 0-.54 5.25-1.386 11.667-1.879 6.416-.493 13.62-1.4 16.009-2.015 3.15-.811 4.853-.608 6.201.74 1.588 1.588 2.102 1.564 3.537-.166.924-1.113 2.527-1.698 3.563-1.3 1.035.397 3.19 0 4.786-.872 3.221-1.768 5.864-2.136 21.95-3.055 6.076-.347 12.374-1.341 13.996-2.21 1.623-.868 5.755-1.45 9.183-1.294 3.429.157 8.499-.662 11.267-1.818 2.768-1.157 5.888-1.775 6.934-1.374 3.439 1.32 31.22-2.123 34.507-4.276 2.361-1.547 4.972-1.846 10.475-1.2 5.324.626 8.396.31 11.228-1.154 2.144-1.108 5.392-2.016 7.219-2.016 1.826 0 3.691-.6 4.145-1.333.453-.733 2.57-1.333 4.707-1.333 2.136 0 7.275-1.5 11.42-3.334 4.146-1.833 8.92-3.333 10.61-3.333 1.69 0 4.113-1.05 5.385-2.333 1.273-1.284 4.766-3.568 7.762-5.076 16.647-8.38 24.688-13.384 29.594-18.417 3.014-3.092 6.98-6.605 8.816-7.807 3.77-2.471 5.814-10.869 3.882-15.962-.64-1.69-2.172-6.672-3.402-11.072-1.231-4.4-3.15-10.7-4.263-14-2.36-6.993-3.25-10.033-7.422-25.333-2.529-9.276-3.072-14.48-2.992-28.667.085-15.295.517-18.496 3.667-27.227 5.33-14.778 5.15-15.47-4.098-15.632-9.594-.169-22.646-2.822-23.905-4.86-.523-.847-.79-3.791-.59-6.543.483-6.701-.69-8.218-3.887-5.022-1.44 1.44-3.583 2.618-4.762 2.618-1.643 0-1.942.81-1.276 3.46 1.117 4.452-1.196 7.206-6.051 7.206-3.816 0-4.233-.639-5.477-8.403-.609-3.798-2.985-3.157-3.718 1.003-.816 4.625-3.852 6.728-8.154 5.648-2.49-.625-3.636-2.28-4.985-7.196-.963-3.512-2.253-7.585-2.867-9.052-.614-1.466-1.454-5.366-1.867-8.666-.967-7.73-2.149-13.8-2.818-14.468-.29-.29-1.516-.149-2.724.315-1.765.677-2.028 1.954-1.338 6.498 1.046 6.884 1.128 9.909.564 20.716-.318 6.082.069 8.708 1.405 9.533 1.23.76.245 1.14-2.96 1.14h-4.803l-.393-8.095c-.243-4.99-1.033-8.305-2.06-8.645-.957-.315-1.667.572-1.667 2.084 0 1.696-1.186 2.93-3.333 3.47-2.065.517-3.334 1.782-3.334 3.322 0 1.367-1.05 2.758-2.333 3.09-4.611 1.196-5.645-.222-4.918-6.75.577-5.178.195-6.792-2.217-9.381l-2.914-3.128-1.605 3.817c-.882 2.099-2.548 4.6-3.7 5.556-1.754 1.455-2.305 1.37-3.363-.52-1.403-2.508-4.283-1.482-4.283 1.524 0 4.081-3.903 1.798-4.763-2.786-.805-4.292-1.042-4.498-2.684-2.334-.991 1.307-1.82 4.644-1.844 7.417-.03 3.604-.708 5.254-2.376 5.788-1.283.41-3.643 1.37-5.243 2.135-1.6.764-3.932.997-5.182.518-2.138-.82-2.138-1.018 0-3.378 1.418-1.567 1.757-2.823.903-3.35-1.49-.922-6.808 1.901-6.808 3.613 0 .583-1.186.425-2.635-.35-2.243-1.201-3.07-.747-5.567 3.062-4.48 6.835-8.56 8.6-15.798 6.83-5.126-1.253-6.1-2.033-6.68-5.355-.817-4.675-3.154-4.636-3.741.063-.35 2.803-1.133 3.37-4.667 3.385-8.86.037-13.68.738-16.647 2.423-2.95 1.675-16.369 2.924-37.689 3.507-5.55.152-10.913.785-11.919 1.407-1.006.622-8.765 1.393-17.243 1.714-18.906.716-20.64.678-34.57-.744-8.797-.899-11.54-.757-12.966.67-2.347 2.347-10.921 3.096-14.866 1.298-2.17-.988-3.506-.983-4.506.017-.96.96-2.913 1.01-6.008.156-2.523-.696-10.116-1.022-16.876-.723-6.98.309-13.22-.039-14.446-.802-1.186-.74-3.286-.876-4.666-.302-3.885 1.616-15.36.725-20.224-1.571-2.41-1.137-4.766-1.684-5.235-1.214-.47.47-2.174-.387-3.788-1.904l-2.935-2.757-.8 3.19c-.44 1.754-1.864 3.298-3.164 3.43-5.356.549-9.057.103-9.475-1.142-.245-.727-2.645-1.332-5.334-1.345-7.385-.035-27.25-3.535-32.49-5.724-3.108-1.299-5.367-1.523-6.87-.682-1.53.856-4.664.45-9.884-1.28a753.995 753.995 0 0 0-15.644-4.954c-4.4-1.33-8.927-3.44-10.059-4.686-1.85-2.037-6.203-3.432-13.947-4.468-2.965-.397-9.349-4.26-12.972-7.85-1.296-1.282-2.937-2.332-3.647-2.332-5.17 0-37.376-29.043-37.376-33.705 0-1.105-.821-2.325-1.825-2.71-2.38-.914-13.614-17.84-16.227-24.446-1.117-2.827-2.984-6.852-4.147-8.945-2.206-3.969-4.27-10.69-8.451-27.528-4.79-19.288-5.72-33.321-4.815-72.605.881-38.25 2.188-52.016 5.747-60.527 2.787-6.665 5.422-17.115 7.19-28.514.816-5.255 2.246-10.784 3.18-12.287.932-1.504 2.072-5.733 2.532-9.4.46-3.667 1.94-8.168 3.29-10.004 1.348-1.835 3.807-7.235 5.463-12 1.656-4.764 3.848-9.329 4.87-10.143 1.023-.814 1.86-2.946 1.86-4.737 0-1.792 1.756-5.645 3.901-8.563 2.146-2.918 4.295-7.086 4.775-9.263 1.105-5.004 2.963-10.18 6.685-18.623 1.617-3.667 3.695-8.617 4.618-11 .923-2.384 2.161-4.334 2.752-4.334.591 0 2.689-3.45 4.661-7.666 1.972-4.217 4.313-8.567 5.2-9.667.889-1.1 2.879-5.134 4.423-8.964s4.56-9.53 6.703-12.667c2.143-3.136 4.654-8.102 5.58-11.036.927-2.933 3.349-7.133 5.383-9.333 3.998-4.324 9.319-14.08 9.319-17.086 0-1.022 1.495-3.471 3.322-5.443 1.827-1.971 3.718-5.209 4.203-7.194.484-1.986 2.29-5.307 4.01-7.38 1.723-2.072 3.131-4.783 3.131-6.023 0-2.248 6.032-12.136 8.353-13.694 1.562-1.048 4.026-5.304 8.406-14.513 1.918-4.034 4.287-7.788 5.264-8.344.978-.556 2.508-3.256 3.4-6 1.467-4.506 9.822-19.573 18.094-32.628 1.733-2.734 3.15-5.563 3.15-6.287 0-.724 1.776-3.133 3.946-5.353 2.17-2.22 4.594-6.441 5.385-9.38.791-2.938 2.015-5.342 2.72-5.342.706 0 1.282-.836 1.282-1.857 0-1.022.867-2.19 1.926-2.596 1.059-.407 2.65-3.161 3.538-6.122.887-2.96 2.72-6.385 4.074-7.61 1.355-1.225 2.462-2.93 2.462-3.789s1.5-2.97 3.334-4.692c1.833-1.723 3.333-4.14 3.333-5.372 0-1.231 1.392-3.74 3.092-5.576 1.701-1.835 3.916-5.373 4.922-7.861 1.567-3.877 7.348-12.64 11.966-18.135.745-.886 1.353-2.186 1.353-2.89 0-.702.45-1.478 1-1.722s2.5-3.357 4.334-6.917c6.113-11.87 8.642-16.3 11.757-20.598 1.7-2.344 2.695-4.263 2.212-4.263-.484 0 2.22-3.943 6.006-8.762 7.988-10.164 13.723-20.217 16.09-28.201.917-3.097 2.928-6.944 4.468-8.55 1.54-1.606 4-5.158 5.467-7.893 1.466-2.734 4.916-8.669 7.666-13.188 2.75-4.518 5-9.083 5-10.144 0-1.06.584-1.928 1.297-1.928 1.554 0 12.037-15.829 12.037-18.176 0-.905 1.133-2.005 2.519-2.444 1.391-.442 4.295-4.519 6.49-9.114 2.184-4.572 4.95-9.126 6.148-10.12 1.197-.993 2.176-2.587 2.176-3.54 0-.955 1.461-3.472 3.247-5.594 1.786-2.122 3.644-5.443 4.13-7.38.487-1.938 1.726-4.221 2.754-5.074 1.028-.854 1.87-2.172 1.87-2.93 0-.757 1.5-3.343 3.332-5.747 1.834-2.404 3.334-4.996 3.334-5.762 0-.765 1.5-2.374 3.333-3.575 1.974-1.294 3.333-3.449 3.333-5.286 0-1.706.6-3.472 1.334-3.925.733-.453 1.333-1.989 1.333-3.412 0-1.424.54-2.588 1.199-2.588.66 0 2.526-2.547 4.149-5.66 1.623-3.114 4.683-7.635 6.801-10.047 2.118-2.412 3.851-4.899 3.851-5.526 0-.627 2.09-3.456 4.643-6.287 2.554-2.83 5.636-7.697 6.848-10.813 1.213-3.117 2.723-5.667 3.357-5.667.634 0 1.152-.807 1.152-1.794 0-.986 1.121-2.807 2.492-4.048 1.37-1.24 4.416-6.431 6.77-11.536 4.213-9.142 4.255-9.43 2.767-18.952-3.108-19.89-3.874-35.248-2.059-41.28 1.616-5.37 1.995-5.7 6.119-5.352 4.908.414 7.911 2.36 7.911 5.125 0 1.01.592 1.837 1.315 1.837.722 0 2.96 2.55 4.971 5.667 2.011 3.116 4.87 6.96 6.352 8.54 4.512 4.812 5.356 6.232 7.362 12.386 1.062 3.26 4.543 9.473 7.735 13.809 5.452 7.407 12.265 24.196 12.265 30.227 0 1.4.56 2.892 1.243 3.315.683.422 1.983 4.208 2.887 8.412.904 4.204 2.09 8.244 2.637 8.977.546.734 1.751 9.55 2.678 19.594l1.686 18.26-3.875 5.74c-2.13 3.157-7.598 10.54-12.15 16.406l-11.024 14.211c-1.512 1.95-2.749 4.4-2.749 5.446 0 1.045-2.27 5.15-5.044 9.122-2.774 3.972-5.888 9.321-6.918 11.888-1.03 2.567-3.237 6.867-4.902 9.556-1.666 2.689-3.42 6.444-3.897 8.346-.477 1.9-1.438 3.809-2.135 4.24-1.04.643-3.696 5.808-4.382 8.525-.093.366-2.263 3.966-4.824 8-2.56 4.033-6.057 10.933-7.77 15.333-1.713 4.4-4.242 8.996-5.621 10.214-1.379 1.217-2.55 3.017-2.604 4-.054.982-1.247 3.586-2.653 5.786-2.886 4.519-4.294 7.424-6.623 13.667-.89 2.383-2.337 4.333-3.217 4.333-.88 0-2.962 3.01-4.625 6.691-1.663 3.68-3.763 7.43-4.667 8.334-.904.904-3.175 4.643-5.048 8.31-7.914 15.495-10.799 20.587-13.008 22.958-1.287 1.382-4.258 6.53-6.602 11.443-2.344 4.912-4.735 8.93-5.314 8.93-.578 0-1.8 1.65-2.716 3.667-.915 2.017-4.061 7.183-6.99 11.48-2.93 4.297-6.455 10.447-7.836 13.666-1.38 3.22-3.13 5.854-3.89 5.854-.759 0-1.38 1.2-1.38 2.667 0 1.467-.6 2.667-1.334 2.667-.733 0-1.333.64-1.333 1.422 0 .782-1.429 3.332-3.175 5.666-1.746 2.335-6.07 9.754-9.608 16.487-3.54 6.733-6.893 11.958-7.453 11.612-.56-.347-1.396.87-1.856 2.703-.46 1.834-1.677 4.032-2.705 4.885-1.028.853-1.875 2.528-1.883 3.721-.01 1.194-2.107 4.805-4.666 8.024-2.56 3.22-4.654 6.473-4.654 7.229 0 .756-.85 2.321-1.89 3.479s-4.46 7.205-7.598 13.438c-3.138 6.234-6.443 12.082-7.344 12.997-2.853 2.898-11.168 17.27-11.168 19.304 0 1.074-1.2 3.039-2.667 4.366-1.466 1.327-2.666 3.52-2.666 4.873 0 1.353-.56 2.46-1.244 2.46-.684 0-1.651 1.35-2.15 3-1.057 3.495-9.945 17.458-11.529 18.111-.592.245-1.077 1.31-1.077 2.367 0 1.731-2.927 7.612-13.399 26.922-1.87 3.447-5.32 8.907-7.667 12.134-2.347 3.226-4.268 6.676-4.268 7.666 0 .99-.569 1.8-1.265 1.8-1.261 0-9.401 15.883-9.401 18.344 0 .713-1.106 2.727-2.458 4.476-1.352 1.75-5.035 7.98-8.184 13.847l-7.875 14.667c-1.182 2.2-2.513 4.3-2.957 4.666-.443.367-1.537 2.908-2.43 5.648-.893 2.74-2.148 5.306-2.79 5.702-2.428 1.501-8.836 12.34-12.603 21.317-5.187 12.366-6.817 15.442-7.708 14.551-.408-.408-1.168 1.251-1.689 3.687-.521 2.436-1.48 5.091-2.13 5.902-2.346 2.923-7.843 14.043-7.843 15.864 0 1.025-.75 2.343-1.667 2.93-2.064 1.32-5.66 8.966-6.924 14.723-.521 2.372-1.485 4.645-2.142 5.05-1.806 1.117-7.934 15.571-7.934 18.715 0 1.08-1.422 4.218-3.162 6.973-1.739 2.755-3.597 7.093-4.13 9.64-.533 2.547-1.885 6.075-3.005 7.839-1.12 1.764-2.167 4.764-2.327 6.666-.16 1.903-1.376 5.86-2.701 8.793-2.261 5.004-3.818 10.574-5.59 20-.414 2.2-1.2 4.6-1.745 5.334-3.518 4.728-2.714 19.903 1.12 21.125 1.214.387 4.307 1.887 6.874 3.334 4.128 2.328 19.136 7.066 41.175 13 3.946 1.062 10.678 2.13 14.959 2.372 4.281.243 8.626 1.14 9.655 1.993 1.029.854 5.097 1.525 9.04 1.491 3.944-.033 11.67.597 17.17 1.403 5.5.805 11.879 1.59 14.175 1.744 2.295.154 5.049 1.006 6.119 1.894 1.07.888 4.291 1.521 7.16 1.408 2.867-.113 12.113.189 20.547.672 8.433.483 21.033 1.186 28 1.563 6.966.376 14.4 1.047 16.518 1.49 2.118.442 11.37.771 20.56.731 9.189-.04 17.752.487 19.028 1.17 1.55.83 4.203.578 7.986-.756 6.575-2.32 21.625-1.385 24.013 1.492 1.188 1.431 1.998 1.26 4.332-.914 2.565-2.39 4.08-2.593 14.217-1.903 6.24.425 14.21 1.116 17.711 1.535 4.155.498 7.06.185 8.367-.9 1.622-1.345 2.863-1.197 6.527.775 4.171 2.247 4.928 2.278 9.708.4 4.27-1.677 6.134-1.755 10.57-.446 4.306 1.272 5.865 1.24 7.774-.155 1.949-1.425 2.838-1.431 4.834-.033 1.712 1.199 4.557 1.428 9.484.762 3.87-.522 8.687-.642 10.704-.265 2.017.376 3.667.12 3.667-.571 0-.748 6.035-.491 14.91.633 11.542 1.461 15.985 1.542 19.667.356 2.806-.903 8.31-1.214 13.423-.758 4.766.425 11.292.744 14.5.707 3.208-.036 6.684.64 7.723 1.503 1.33 1.103 2.308 1.15 3.302.156.9-.9 2.855-.997 5.399-.268 2.193.63 5.731.795 7.862.369 2.13-.426 4.646-.134 5.59.65 1.187.984 3.344 1.01 7.003.084 8.778-2.221 13.725-2.627 14.608-1.199.46.745 2.873 1.355 5.362 1.355s6.06.699 7.934 1.553c2.402 1.094 4.689 1.16 7.74.224 5.378-1.65 21.783 1.353 25.45 4.66 1.66 1.498 4.976 2.268 10.108 2.345 4.2.065 8.187.446 8.86.848.674.403 4.508 1.175 8.52 1.717 4.013.541 10.613 2.147 14.668 3.567a874.918 874.918 0 0 0 12.704 4.34c2.933.965 8.149 3.328 11.59 5.25 3.441 1.923 7.21 3.496 8.375 3.496s2.45.863 2.855 1.919c.405 1.055 2.486 2.302 4.625 2.772 2.139.47 3.888 1.682 3.888 2.694s2.398 4.287 5.33 7.277c4.392 4.481 5.77 5.2 7.842 4.091 1.383-.74 2.854-2.23 3.268-3.309.415-1.08 3.035-2.335 5.824-2.789 2.788-.454 6.325-1.33 7.86-1.949 5.603-2.258 6.548.11 6.479 16.244-.036 8.277-.895 19.027-1.91 23.888-1.671 8.003-1.622 9.422.517 15.024 1.3 3.403 3.21 7.033 4.243 8.067 1.035 1.034 1.88 2.603 1.88 3.485 0 .882 1.15 3.475 2.556 5.762 8.369 13.62 8.006 47.758-.567 53.376-1.827 1.197-3.322 2.945-3.322 3.884 0 .94-1.95 3.553-4.333 5.81-3.212 3.04-5.98 4.274-10.698 4.767-6.077.636-6.667.39-13.031-5.454-5.709-5.242-7.14-7.622-9.968-16.575-1.817-5.75-3.303-11.516-3.303-12.813 0-3.788-6.886-10.193-12.667-11.782-2.933-.806-10.06-2.543-15.837-3.86-5.777-1.316-11.322-3.212-12.323-4.213-1.024-1.024-2.552-1.366-3.496-.783-.922.57-3.477 1.058-5.677 1.085-3.986.048-4.001.077-4.408 8.715-.495 10.515 2.967 29.151 6.936 37.334 1.6 3.3 5.287 9.53 8.191 13.846 2.905 4.316 5.863 8.816 6.575 10a1471.1 1471.1 0 0 0 4.339 7.134c4.713 7.707 19.034 41.823 19.034 45.345 0 1.728.56 3.711 1.245 4.408 2.613 2.657 5.66 26.956 5.762 45.933.083 15.636-.343 20.354-2.226 24.667-1.281 2.933-3.468 9.728-4.86 15.1-1.391 5.372-3.683 11.972-5.093 14.667-1.41 2.695-3.528 7.101-4.707 9.792-1.18 2.691-2.594 5.091-3.143 5.334-1.402.618-9.645 11.28-9.645 12.474 0 .541-2.772 3.755-6.16 7.142-3.388 3.387-7.497 7.745-9.13 9.685-1.633 1.94-5.011 4.571-7.507 5.847-2.495 1.276-4.99 3.092-5.544 4.035-.554.944-2.804 2.11-5 2.592-2.196.483-3.992 1.37-3.992 1.974 0 .603-1.793 1.722-3.985 2.486-2.191.764-6.645 3.22-9.897 5.457-3.252 2.238-7.31 3.992-9.016 3.9-3.339-.183-15.142 4.756-16.46 6.886-.44.713-2.2 1.296-3.912 1.296-1.711 0-3.457.9-3.88 2-.421 1.1-2.33 2-4.24 2-1.91 0-7.942 1.5-13.403 3.333-5.462 1.833-11.284 3.333-12.939 3.333-1.654 0-4.28.892-5.836 1.981-2.378 1.666-2.941 1.687-3.537.134-.566-1.476-1.968-1.209-6.987 1.332-3.921 1.985-7.445 2.885-9.387 2.398-1.889-.474-3.886 0-5.09 1.2-1.188 1.188-4.54 1.996-8.373 2.018-3.515.02-10.504.711-15.53 1.535-7.11 1.165-9.581 1.132-11.126-.15-1.629-1.352-2.395-1.11-4.246 1.345-1.242 1.647-2.735 2.517-3.318 1.934-1.477-1.478-26.172-1.577-26.172-.105 0 .66-2.55 1.014-5.666.789-3.66-.265-5.549-1-5.334-2.077.532-2.656-1.063-1.945-3.994 1.78-2.259 2.872-3.438 3.31-7.068 2.63-2.786-.523-4.544-.258-4.875.734-.384 1.155-1.213 1.118-3.233-.144-2.23-1.392-3.892-1.328-9.273.355-3.606 1.128-10.157 2.18-14.557 2.337-12.614.452-15.858.74-18 1.604-4.243 1.711-10.338 2.166-11.636.868-.922-.922-3.08-.895-6.72.085-2.948.794-8.875 1.34-13.169 1.212-11.228-.333-51.221 1.384-54.19 2.326-1.601.508-3.682-.302-5.741-2.237-3.131-2.941-3.286-2.957-5.063-.527-1.597 2.185-3.95 2.55-18.323 2.837-9.07.181-18.382.678-20.693 1.104-2.838.522-4.864.112-6.238-1.262-2.71-2.71-5.255-2.568-11.946.665-3.086 1.49-5.785 2.118-6.025 1.4-.266-.8-1.616-.851-3.508-.132-1.937.736-3.595.65-4.477-.232-.946-.946-2.626-.978-5.17-.096-2.072.717-8.567 1.176-14.434 1.018-5.867-.157-13.219.302-16.338 1.02-4.194.966-6.191.875-7.666-.35-1.098-.91-1.996-1.068-1.996-.35 0 .718-1.65 1.37-3.667 1.45-2.016.08-7.266.5-11.666.933-4.4.433-11.9.8-16.667.816l-8.667.03 4.653 1.966c2.56 1.081 5.14 2.835 5.733 3.896 1.694 3.027 4.813 2.263 5.734-1.403.46-1.833 1.352-3.333 1.983-3.333.63 0 .819.856.417 1.902-.54 1.409.855 2.14 5.375 2.818 3.358.504 6.105 1.311 6.105 1.795 0 1.058 12.742 4.134 17.373 4.194 1.812.023 4.494.95 5.96 2.06 1.852 1.4 4.187 1.76 7.636 1.178 3.73-.629 6.737-.029 12.058 2.407 6.629 3.035 13.078 4.798 20.973 5.733 8.857 1.048 23.62 5.035 26 7.022 4.818 4.018 8.56 5.557 13.512 5.557 4.755 0 19.885 4.645 22.422 6.883.696.614 2.273 1.117 3.503 1.117s2.984.9 3.897 2c.913 1.1 3.063 2 4.778 2 1.715 0 4.335 1.307 5.822 2.903 1.488 1.597 3.113 2.496 3.61 1.997.499-.498 1.983.068 3.299 1.26 1.315 1.19 3.295 1.817 4.398 1.394 1.104-.424 2.34-.232 2.747.426.407.658 3.276 2.364 6.376 3.79 10.301 4.74 12.267 5.684 17.093 8.212 7.487 3.921 32.315 28.98 39.896 40.269 4.437 6.606 13.264 12.752 19.801 13.786 2.666.422 6.946 1.214 9.513 1.759 7.456 1.584 61.13.865 69.387-.93 7.232-1.571 13.093-2.209 33.28-3.618 14.629-1.02 41.598-5.096 44.145-6.67 1.08-.668 2.38-6.807 5.915-27.91 1.228-7.334 3.043-16.634 4.032-20.668 5.65-23.028 7.906-33.856 9.166-44 1.217-9.793 1.774-11.385 4.1-11.719 1.482-.212 4.168.988 5.97 2.667 3.356 3.127 3.656 3.266 7.68 3.552 4.577.326 6.078 7.24 5.082 23.407-.75 12.195-.567 15.258.992 16.551 2.16 1.793 21.9.826 24.331-1.19.782-.65 3.525-.84 6.096-.422 3.9.633 5.011.24 6.714-2.377 1.123-1.724 2.457-5.378 2.966-8.119 1.657-8.924 10.2-9.443 14.003-.851.974 2.2 4.402 6.513 7.618 9.584 3.215 3.071 5.873 6.484 5.905 7.584.033 1.1 1.835 4.077 4.006 6.616 2.17 2.54 3.945 5.483 3.945 6.541 0 1.059 1.461 3.84 3.247 6.181 4.607 6.04 10.087 16.137 10.087 18.585 0 1.143 1.062 3.14 2.36 4.437 2.319 2.319 9.64 16.218 9.64 18.302 0 .584 2.1 4.226 4.666 8.093 2.567 3.867 4.667 7.459 4.667 7.982 0 .524 2.129 5.13 4.73 10.235 6.89 13.518 10.343 30.58 9.7 47.922-.375 10.072-.846 12.004-3.662 15-1.778 1.892-3.915 3.44-4.75 3.44-.834 0-2.868 1.828-4.52 4.062-2.262 3.06-3.677 3.849-5.73 3.197-2.005-.636-3.72.22-6.47 3.23-4.149 4.544-12.234 9.51-15.48 9.51-1.155 0-4.287 1.68-6.96 3.731-4.884 3.75-17.263 8.27-22.655 8.27-1.592 0-3.91 1.183-5.148 2.63-1.286 1.501-5.429 3.277-9.654 4.137-4.07.828-8.6 2.057-10.068 2.73-3.124 1.433-19.58 4-25.274 3.94-2.168-.022-4.335.598-4.817 1.377-.482.78-4.708 1.683-9.392 2.008-4.684.325-10.617 1.137-13.183 1.805-11.019 2.865-68.61 5.288-77.787 3.273-2.67-.587-3.596-.392-2.968.624.534.864-.087 1.506-1.5 1.55-9.32.29-21.437.052-31.338-.614-7.116-.478-11.909-.267-12.412.547-1.171 1.895-2.821 1.642-5.27-.807zm192.426-635.688c-.2-2.32.095-4.96.655-5.866 1.602-2.592-.27-4.314-4.694-4.314-3.344 0-3.895.414-3.114 2.334.523 1.283 1.844 4.883 2.935 8 2.23 6.37 4.772 6.277 4.218-.154zm22.342 3.884c1.089-2.836-.84-5.518-2.306-3.206-1.572 2.481-1.475 5.142.188 5.142.757 0 1.71-.871 2.118-1.936zm-214.142-11.365c-.817-1.525-2.028-2.437-2.693-2.027-1.313.812-.295 4.412 1.942 6.864 2.056 2.255 2.617-1.35.75-4.837zm87.983.412c0-3.909-.238-3.857-2.534.556-1.293 2.486-1.21 3 .487 3 1.328 0 2.047-1.248 2.047-3.556zm-44-12c0-5.714-.619-5.52-1.776.556-.474 2.49-.272 4.333.475 4.333.716 0 1.3-2.2 1.3-4.889zm90.646-19.444c.013-4.217-.512-7.667-1.162-7.667-1.624 0-2.608 7.59-1.785 13.772.98 7.364 2.921 3.341 2.947-6.105zm-63.98 40.333c0-.733.635-1.333 1.412-1.333.777 0 1.041.6.588 1.333-.453.733-1.089 1.333-1.412 1.333-.323 0-.588-.6-.588-1.333zm212.947-74.667c.535-2.046.041-2.666-2.125-2.666-1.62 0-2.822-.852-2.822-2 0-1.1.684-2 1.52-2s2.249-.998 3.14-2.217c1.014-1.386 2.495-1.881 3.956-1.32 1.814.696 2.113 1.708 1.34 4.55-.547 2.01-.948 4.703-.891 5.987.063 1.416-.864 2.333-2.356 2.333-1.803 0-2.273-.712-1.762-2.667zm-946.947-366.26c-10.564-1.395-30.987-6.162-33.62-7.848-1.624-1.04-4.131-1.892-5.571-1.892-1.44 0-3.536-.917-4.658-2.039-1.122-1.122-4.34-2.85-7.15-3.843-2.81-.991-9.286-4.96-14.389-8.82-15.157-11.46-20.427-24.493-21.577-53.35-.501-12.578-.151-18.73 1.412-24.831 1.143-4.462 2.504-12.813 3.025-18.559.587-6.478 1.93-12.115 3.536-14.836 1.53-2.593 1.977-4.388 1.093-4.388-.994 0-.868-1.007.376-3 1.03-1.65 2.228-6.255 2.663-10.233.434-3.978 1.3-7.578 1.924-8 .623-.422 1.921-3.633 2.884-7.135.963-3.502 2.269-6.688 2.902-7.079.632-.39 1.15-1.918 1.15-3.394 0-1.476.9-3.583 2-4.683 1.1-1.1 2-3.476 2-5.28 0-1.804.9-3.625 2-4.047 1.341-.515 2-2.624 2-6.403 0-6.35.94-8.034 3.174-5.683 3.117 3.28 4.883 9.278 4.045 13.742-.493 2.63-.305 4.528.45 4.528.714 0 2.018 4.457 2.896 9.904.88 5.448 2.311 10.461 3.183 11.141 4.745 3.701 25.52 5.748 26.613 2.622.42-1.204 1.363-.975 3.391.825 2.137 1.896 3.928 2.282 7.493 1.613 3.309-.621 5.674-.231 8.053 1.328 3.059 2.004 3.972 1.72 3.527-1.1-.192-1.214 2.916-1.336 21.842-.86 8.067.204 16.467.38 18.667.394 6.35.038 17.21-1.9 18.648-3.326.864-.858.256-4.148-1.772-9.59-6.858-18.4-7.236-20.743-7.872-48.745-.426-18.782-.163-27.58.857-28.6.81-.81 1.472-3.376 1.472-5.703 0-4.127-.17-4.247-7-4.917-3.85-.378-8.01-.154-9.246.497-1.235.651-3.935 1.205-6 1.231-2.065.026-5.254.905-7.088 1.953-1.833 1.048-5.787 1.927-8.787 1.953-3 .026-11.113 1.228-18.028 2.673-6.916 1.444-16.094 2.967-20.398 3.385-4.303.418-8.9 1.336-10.217 2.041-1.317.705-3.898 1.281-5.737 1.281-1.838 0-3.713.6-4.166 1.334-.453.733-4.353 1.333-8.667 1.333-4.313 0-8.167.525-8.563 1.167-2.576 4.167-47.437-.456-47.437-4.889 0-.616-3.151-2.427-7.003-4.024-3.853-1.596-8.626-4.407-10.609-6.245-1.982-1.838-4.23-3.342-4.996-3.342-.765 0-1.392-.671-1.392-1.49 0-.82-2.402-3.893-5.338-6.829-5.26-5.26-7.678-8.803-10.927-16.015-.909-2.016-2.121-3.666-2.694-3.666-.572 0-1.04-.718-1.04-1.595 0-.878-1.607-3.913-3.57-6.746-3.366-4.857-8.254-15.378-11.303-24.326-.75-2.2-1.725-4.9-2.169-6-.443-1.1-.868-2.6-.944-3.333-.076-.734-.86-2.644-1.743-4.246-.883-1.602-1.614-4.602-1.625-6.667-.016-3.021-.298-3.364-1.44-1.754-1.045 1.471-1.242-.027-.743-5.668.494-5.591.162-8.183-1.226-9.571-2.167-2.167-2.52-4.761-.646-4.761.692 0 .054-2.722-1.417-6.049-1.472-3.326-2.428-7.676-2.125-9.666.497-3.266.597-3.164 1.02 1.048.26 2.567.8-2.833 1.2-12 .402-9.166.453-17.266.113-18-1.175-2.535.026-9.38 3.589-20.45 2.616-8.129 3.837-10.46 4.543-8.667.53 1.348 1.007 1.7 1.059.784.102-1.825 6.76-2.364 6.76-.548 0 .616 1.47 1.79 3.266 2.608 2.166.987 3.75 3.285 4.703 6.824.79 2.935 2.02 5.697 2.734 6.138.713.441 1.357 2.116 1.43 3.723.124 2.72.206 2.691 1.2-.412.966-3.016 1.08-3.062 1.2-.48.074 1.568 1.183 4.126 2.467 5.684 2.091 2.54 3.923 2.874 17.667 3.231 8.433.22 17.133-.13 19.333-.775 2.2-.645 9.785-1.13 16.855-1.077 10.048.075 13.017-.326 13.595-1.833.407-1.06 1.822-1.972 3.145-2.025 7.326-.295 15.85-1.877 16.61-3.084 1.187-1.884 15.317-3.713 21.364-2.766 2.83.444 7.901-.112 12-1.314 9.239-2.71 19.787-3.643 22.824-2.017 1.634.875 5.653.619 12.484-.794 5.541-1.146 15.11-2.083 21.265-2.083 8.636 0 11.191-.421 11.191-1.844 0-2.381 20.298-4.595 21.064-2.297.594 1.781 10.53 1.99 11.158.234.408-1.136 10.957-2.306 48.975-5.433 8.067-.663 14.271-1.8 14.839-2.718.698-1.13 3.717-1.303 10.63-.609 7.397.743 9.911.557 10.746-.793.761-1.232 5.034-1.855 14.172-2.067 18.98-.44 29.61-1.344 36.416-3.1 3.3-.851 6.9-1.49 8-1.421 22.46 1.42 29.786 1.462 31.07.177.898-.897 7.676-1.47 17.53-1.482 10.768-.013 17.953-.676 21.787-2.012 3.166-1.102 10.607-2.027 16.666-2.071 6.021-.043 14.247-.906 18.28-1.917 4.034-1.01 8.234-1.775 9.334-1.699 7.442.515 13.14-.57 15.748-3 1.605-1.495 2.918-2.361 2.918-1.925 0 .437 1.8-.27 4-1.569 2.2-1.3 4-3.433 4-4.742 0-1.308.6-2.379 1.334-2.379.733 0 1.333 1.129 1.333 2.508 0 1.38 1.5 6.493 3.333 11.364 2.93 7.78 3.334 10.954 3.334 26.14 0 9.506-.598 19.842-1.329 22.969-.73 3.127-1.69 11.008-2.133 17.512-.697 10.246-1.153 11.918-3.413 12.509-1.612.421-2.325 1.424-1.864 2.624 1.182 3.08-2.958 15.407-6.432 19.155-1.742 1.878-3.595 4.764-4.118 6.413-.668 2.103-1.613 2.742-3.165 2.137-4.363-1.7-4.883-1.252-5.135 4.416-.195 4.396-1.057 6.377-3.666 8.43-1.877 1.476-3.412 3.47-3.412 4.433 0 .963-1.555 2.77-3.456 4.015-2.895 1.896-4.085 2.003-7.333.658-2.395-.992-3.878-2.595-3.878-4.19 0-1.421-.6-2.213-1.333-1.76-.733.454-1.333 2.381-1.333 4.284 0 5.243-6.644 18.572-8.098 16.247-.954-1.525-2.418-1.164-8.06 1.988-5.21 2.91-9.665 4.133-18.233 5.001-6.237.632-12 1.662-12.807 2.29-2.142 1.66-13.27 4.19-18.439 4.19-2.45 0-7.87 1.2-12.043 2.667-4.173 1.467-8.6 2.667-9.836 2.667-1.238 0-5.303.87-9.034 1.934a472.006 472.006 0 0 1-13.032 3.483c-3.436.851-6.558 2.357-6.937 3.345-.38.988.232 4.502 1.36 7.809 3.308 9.71 1.264 27.95-4.57 40.762-1.281 2.816-2.34 9.691-2.67 17.334-.302 6.966-1.385 14.69-2.408 17.162-2.164 5.232-2.452 12.98-.527 14.17.734.454 1.336 2.14 1.339 3.746 0 1.607 1.175 4.84 2.604 7.185 2.393 3.924 3.056 4.219 8.329 3.7 3.15-.31 9.028-.766 13.062-1.014 7.21-.443 15.834-3.135 17.529-5.472.474-.654 3.612-.879 6.975-.5 4.113.464 6.582.124 7.547-1.04.79-.951 3.951-2.15 7.025-2.664 3.075-.514 8.647-2.957 12.383-5.429 3.735-2.472 8.677-4.872 10.981-5.333 3.433-.686 4.828-2.142 7.723-8.059 5.111-10.447 6.62-9.161 9.73 8.294 2.04 11.447 1.808 26.714-.483 31.719-4.604 10.061-7.63 22.357-8.364 33.986l-.786 12.452-4.797 2.175c-6.335 2.874-6.347 2.885-4.177 4.226 1.385.856 1.495 1.621.42 2.927-.831 1.011-1.28 5.59-1.049 10.69.364 8 .021 9.445-3.315 14-3.668 5.007-7.062 14.248-5.725 15.585.378.378-.582 2.299-2.132 4.27-1.55 1.97-2.819 5.017-2.819 6.77 0 2.162-1.059 3.589-3.296 4.44-1.813.689-5.202 3.074-7.53 5.3-2.33 2.226-5.047 4.047-6.038 4.047-.991 0-1.802.6-1.802 1.333 0 .734-.827 1.334-1.837 1.334s-2.568.88-3.461 1.957c-2.883 3.473-13.263 8.53-19.399 9.45-3.283.492-5.97 1.307-5.97 1.81 0 1.668-9.897 4.56-16.97 4.957-3.833.216-8.753 1.315-10.933 2.442-2.18 1.128-6.724 2.05-10.097 2.05-3.373 0-7.753.817-9.733 1.816-1.98.998-7.94 2.162-13.243 2.587-5.304.424-10.586 1.299-11.738 1.944-1.221.683-5.476.628-10.198-.133-5.55-.893-8.812-.861-10.355.102-1.238.773-3.881 1.095-5.872.714-1.991-.38-7.15 0-11.465.851-4.314.85-15.502 1.84-24.86 2.201-9.36.362-17.77 1.283-18.691 2.047-1.156.959-2.473.962-4.251.011-1.417-.758-2.83-1.125-3.141-.814-.31.31-4.968 1.248-10.35 2.083-7.888 1.224-9.994 1.18-10.863-.225-.858-1.39-1.589-1.28-3.597.536-2.04 1.847-4.907 2.243-15.081 2.08-6.91-.11-14.362-.437-16.562-.727zm167.873-274.934c3.737-1.411 8.54-3.484 10.676-4.606l3.883-2.04-3.813-.957c-2.472-.62-3.993-.414-4.327.587-.283.849-2.9 1.544-5.815 1.544-3.194 0-4.973.53-4.477 1.333.503.814-1.542 1.333-5.255 1.333-3.917 0-6.116-.592-6.183-1.666-.084-1.334-.24-1.334-.778 0-.37.916-1.523 1.666-2.562 1.666-1.809 0-2.62 2.824-1.216 4.229 1.743 1.743 13.763.882 19.867-1.423zm-258.54 210.528c-.453-.733-.188-1.333.588-1.333.777 0 1.412.6 1.412 1.333s-.264 1.333-.587 1.333c-.324 0-.96-.6-1.413-1.333zm968.667-21.033c0-.619-8.55-1.89-19-2.826-24.944-2.23-25.876-2.362-33.666-4.742-3.667-1.12-8.128-2.044-9.913-2.051-3.025-.014-6.406-1.333-21.209-8.275-3.183-1.493-10.322-7.279-15.864-12.857-7.772-7.822-10.9-12.14-13.678-18.876-1.981-4.804-4.251-9.92-5.045-11.37-.794-1.45-2.367-6.591-3.496-11.424-5.458-23.375-6.403-59.415-2.137-81.521 1.462-7.577 2.933-16.698 3.267-20.268.586-6.248 2.493-10.117 4.163-8.446.44.44 1.344 5.13 2.008 10.424.665 5.293 1.78 10.313 2.478 11.153.697.841 2.185 5.926 3.306 11.301 1.12 5.375 2.728 10.604 3.572 11.622 1.243 1.497 5.254 1.687 21.042.996 10.728-.469 27.306-1.004 36.839-1.189 31.483-.611 61.149-1.91 74-3.24 6.967-.721 14.467-1.267 16.667-1.213 2.2.054 12.1-.305 22-.798 9.9-.493 22.8-1.104 28.666-1.358 5.867-.255 18.167-1.092 27.334-1.86 9.166-.77 19.72-1.39 23.452-1.38 3.732.01 10.932-.652 16-1.47 11.74-1.895 34.943-2.544 38.956-1.09 2.096.76 4.415.422 7.283-1.061 4.872-2.52 38.742-4.749 42.72-2.812 2.552 1.243 9.921.159 12.391-1.823 1.95-1.564 14.943-2.851 45.198-4.478 9.533-.512 19.733-1.233 22.666-1.602 2.934-.368 10.134-.897 16-1.174 5.867-.278 16.367-1.12 23.334-1.873 6.966-.752 23.13-1.993 35.92-2.757 12.788-.764 23.888-1.89 24.666-2.501.777-.612 12.346-1.175 25.708-1.251 24.605-.14 28.599-.84 31.684-5.544 2.27-3.461 1.997-8.391-.704-12.762-2.666-4.314-3.236-8.05-1.798-11.796.64-1.671 2.948-2.109 11.126-2.109 8.624 0 10.714.438 12.73 2.667 1.328 1.467 2.033 2.667 1.568 2.667-.466 0 .227 1.92 1.538 4.268 2.412 4.317 8.528 8.789 12.265 8.968 2.775.132 9.297 7.78 9.297 10.9 0 1.392.474 2.53 1.054 2.53.58 0 2.654 3.15 4.608 7 1.954 3.85 4.63 8.008 5.945 9.24 4.044 3.785 5.583 6.061 6.458 9.548.463 1.842 1.987 4.387 3.388 5.654 1.4 1.268 2.547 3.02 2.547 3.892 0 .872 1.2 2.672 2.666 4 1.467 1.327 2.667 3.112 2.667 3.966 0 .855 1.757 3.522 3.905 5.928 2.19 2.453 4.294 6.672 4.79 9.605.486 2.877 2.332 7.957 4.104 11.288 1.927 3.625 3.516 9.366 3.957 14.301.508 5.686 1.797 9.865 4.154 13.464 3.077 4.699 3.35 6.155 2.743 14.632-.498 6.962-1.268 9.771-2.955 10.782-1.255.752-4.397 3.275-6.981 5.607-3.723 3.357-6.678 4.568-14.209 5.82-5.23.868-10.108 2.021-10.841 2.562-.734.54-5.482 1.074-10.553 1.186-5.07.113-12.87.797-17.333 1.522-4.463.724-11.144 1.321-14.848 1.327-3.703.01-7.432.708-8.286 1.562-.961.962-7.682 1.703-17.638 1.946-8.848.215-16.712.779-17.477 1.252-.765.472-5.234 1.069-9.931 1.325-4.697.256-9.782 1.13-11.298 1.941-1.517.812-6.18 1.385-10.364 1.273-4.183-.112-11.506.399-16.272 1.135-4.767.735-17.067 1.729-27.334 2.207-28.055 1.307-48.633 2.966-55.322 4.459-3.293.735-6.446 1.053-7.006.707-2.453-1.516-18.772-1.174-20.373.427-1.115 1.116-3.865 1.443-8.157.969-3.562-.393-12.475.136-19.808 1.176-7.334 1.04-15.584 1.616-18.334 1.281-2.798-.34-5-.032-5 .701 0 .788-4.253 1.124-10.666.843-6.223-.273-10.667.063-10.667.807 0 .755-1.325.671-3.248-.205-1.787-.814-4.337-1.045-5.667-.512-1.33.532-4.818 1.145-7.752 1.361-2.933.217-7.583.827-10.333 1.356-3.355.646-5 .475-5-.52 0-1.813-4.651-1.94-7.877-.214-3.6 1.927-35.781 3.978-40.624 2.589-2.652-.76-4.325-.713-4.606.13-.265.796-1.332.869-2.667.183-1.231-.632-6.781-.637-12.42-.012-5.606.622-20.306 1.389-32.666 1.704-12.36.316-26.717 1.004-31.903 1.53-6.58.667-10.36.459-12.503-.688-2.28-1.22-3.316-1.253-4.013-.124-1.112 1.799-41.981 1.617-45.721-.204-1.385-.674-3.417-.556-5 .292-1.467.785-2.667.92-2.667.3zm-959.333-64.3c-.453-.734.147-1.334 1.333-1.334 1.187 0 1.787.6 1.333 1.333-.453.734-1.053 1.334-1.333 1.334s-.88-.6-1.333-1.333zm244.667-717.334c0-.733.6-1.333 1.333-1.333s1.333.6 1.333 1.333-.6 1.333-1.333 1.333-1.333-.6-1.333-1.333zm294.333-51.55c.917-.37 2.417-.37 3.333 0 .917.37.167.673-1.667.673-1.833 0-2.583-.303-1.666-.673zm326.333 2382.217c.453-.734.189-1.334-.588-1.334-.776 0-1.412.6-1.412 1.334 0 .733.265 1.333.588 1.333.323 0 .959-.6 1.412-1.333zm517.247-13.194c.406-.656-.128-1.526-1.187-1.932-1.283-.493-1.677-.095-1.183 1.194.86 2.24 1.348 2.392 2.37.738zm84.753-1140.218c0-.69-.6-1.255-1.333-1.255s-1.333.936-1.333 2.079c0 1.143.6 1.708 1.333 1.254.733-.453 1.333-1.388 1.333-2.078zM894.462 1871.03c-.37-.917-.673-.167-.673 1.667 0 1.833.303 2.583.673 1.667.37-.917.37-2.417 0-3.334zm1365.928-411.766c1.754-2.85 4.389-5.565 5.856-6.035 1.466-.47 4.886-3.031 7.598-5.693 2.713-2.661 5.506-4.84 6.206-4.84.7 0 2.801-1.65 4.67-3.666 1.869-2.017 4.564-3.667 5.99-3.667 3.588 0 11.199-12.024 10.63-16.797-.235-1.98-1.328-4.036-2.428-4.568-1.1-.533-4.437-2.218-7.416-3.746-4.246-2.177-8.278-2.842-18.666-3.077-7.288-.165-15.877.175-19.087.757l-5.836 1.056.695 18.188c.482 12.613.087 22.185-1.29 31.229-2.632 17.28-1.746 19.437 4.859 11.832 2.767-3.186 6.466-8.124 8.22-10.973zm-641.478-357.234c0-.733-.6-1.333-1.333-1.333s-1.333.6-1.333 1.333.6 1.333 1.333 1.333 1.333-.6 1.333-1.333zm412-109.333c0-.734-.264-1.334-.588-1.334-.323 0-.959.6-1.412 1.334-.453.733-.189 1.333.588 1.333.777 0 1.412-.6 1.412-1.333zm-218.687-19c.011-.55-.58-1-1.313-1s-1.324 1.35-1.313 3c.016 2.426.268 2.617 1.313 1 .711-1.1 1.302-2.45 1.313-3zm340.02-117c0-.734-.635-1.334-1.411-1.334-.777 0-1.042.6-.588 1.334.453.733 1.088 1.333 1.411 1.333.324 0 .588-.6.588-1.333zM738.357 3258.209c-.574-.93-.684-2.05-.244-2.49 1.193-1.193 2.494.562 1.85 2.495-.452 1.355-.766 1.354-1.606 0zm144.661-1494.29c.064-1.553.38-1.87.806-.805.385.962.338 2.112-.105 2.555-.443.443-.758-.344-.7-1.75zm1.228-49.889c0-2.489.356-2.844 1.6-1.6 1.245 1.245 1.245 1.956 0 3.2-1.244 1.245-1.6.889-1.6-1.6zm276-676c0-.733.636-1.333 1.413-1.333.776 0 1.04.6.588 1.333-.454.734-1.09 1.334-1.413 1.334-.323 0-.588-.6-.588-1.334zm136.667-88c.453-.733 1.089-1.333 1.412-1.333.323 0 .588.6.588 1.333s-.635 1.333-1.412 1.333c-.777 0-1.041-.6-.588-1.333z" style="fill:#000;stroke-width:1.33333"/>
</svg>
