<svg xmlns="http://www.w3.org/2000/svg" xml:space="preserve" width="3453.333" height="3973.333">
  <path d="M3135.347 3664.631c-.453-.733-.188-1.333.588-1.333.777 0 1.413.6 1.413 1.333s-.265 1.333-.589 1.333c-.323 0-.958-.6-1.412-1.333zm-1239.953-91.732c-.385-.384-13.753-.9-29.707-1.144-37.803-.58-57.666-1.382-75.673-3.055-36.234-3.366-57.065-5.374-70.667-6.811-8.066-.852-16.651-1.482-19.077-1.399-2.426.083-5.456-.407-6.732-1.09-1.277-.684-10.092-1.537-19.59-1.898-9.497-.36-18.991-1.317-21.098-2.126-2.108-.809-5.708-1.144-8-.744-2.293.4-5.97.215-8.17-.41-2.2-.626-5.948-.704-8.33-.172-2.381.53-6.581.465-9.333-.147s-14.207-1.446-25.457-1.855c-11.249-.408-20.918-1.03-21.487-1.38-.569-.352-8.133-.992-16.81-1.423-8.677-.43-16.206-1.048-16.732-1.373-.526-.325-1.157-.063-1.403.583-.246.645-3.447.363-7.114-.628-7.168-1.936-37.491-3.804-54.322-3.347-5.676.155-14.076-.62-18.666-1.72s-14.945-2.373-23.012-2.828c-8.067-.455-18.267-1.907-22.667-3.226-8.613-2.582-24.957-5.408-31.279-5.408-2.143 0-4.267-.6-4.72-1.334-.454-.733-2.04-1.333-3.527-1.333-4.506 0-34.863-6.719-39.14-8.663-2.2-1-8.015-2.779-12.922-3.953-4.907-1.175-13.007-3.683-18-5.575-4.993-1.891-10.878-3.732-13.078-4.09-4.53-.738-20.24-7.95-21.398-9.823-.418-.676-2.074-1.233-3.68-1.237-4.458-.013-12.618-2.546-14.61-4.537-.977-.977-5.347-2.804-9.711-4.058s-10.635-3.978-13.935-6.053c-3.3-2.074-8.1-4.724-10.666-5.889-2.567-1.164-6.467-3.274-8.667-4.688-2.2-1.415-5.05-2.616-6.333-2.67-1.284-.053-2.334-.697-2.334-1.43 0-.734-1.5-1.334-3.333-1.334-1.833 0-3.333-.54-3.333-1.199 0-1.09-4.312-3.687-15.334-9.237-2.2-1.108-4.47-2.795-5.044-3.75-.574-.954-3.424-2.376-6.333-3.16-2.91-.783-5.29-2-5.29-2.705 0-.705-.92-1.282-2.044-1.282-3.079 0-14.275-5.995-17.162-9.19-1.397-1.546-3.317-2.81-4.267-2.81-.95 0-2.207-.786-2.793-1.745-.587-.96-3.017-2.533-5.4-3.495-2.383-.963-4.333-2.278-4.333-2.922 0-.645-.827-1.172-1.837-1.172s-2.66-.999-3.667-2.22c-1.006-1.222-5.038-4.277-8.959-6.79-7.415-4.753-8.69-5.72-18.46-13.99-3.248-2.75-6.92-5.011-8.158-5.025-1.24-.013-6.702-4.214-12.14-9.333-5.438-5.12-10.083-9.308-10.323-9.308-.96 0-8.329-6.557-19.105-16.998-6.243-6.05-12.06-11-12.928-11-.867 0-1.958-1.202-2.423-2.669-.466-1.467-1.556-2.689-2.423-2.715-.868-.027-3.158-2.134-5.089-4.683-6.623-8.74-16.279-19.269-17.716-19.32-.792-.028-5.039-4.002-9.439-8.831-4.4-4.83-9.914-10.821-12.254-13.315-2.34-2.494-4.63-5.72-5.09-7.169-.46-1.448-1.695-2.634-2.746-2.634-1.05 0-1.91-.543-1.91-1.207s-2.127-3.753-4.727-6.865c-2.6-3.112-6.83-8.826-9.4-12.698-2.57-3.872-7.193-9.31-10.273-12.086-5.55-5-6.68-6.52-10.939-14.707-1.21-2.327-3.054-4.558-4.097-4.958-1.044-.4-1.897-1.514-1.897-2.473 0-.96-1.809-3.725-4.02-6.145-2.21-2.42-4.993-6.304-6.184-8.63-1.191-2.327-3.883-6.202-5.981-8.61-2.098-2.41-3.815-5.164-3.815-6.122 0-.958-2.7-4.6-6-8.093-3.3-3.494-6-6.931-6-7.639 0-.707-1.8-3.902-4-7.1-2.2-3.198-4-6.406-4-7.13 0-.722-.45-1.514-1-1.759-1.531-.68-16.334-23.21-16.334-24.86 0-.799-.784-1.932-1.743-2.518-.96-.586-3.04-3.87-4.624-7.295-1.585-3.425-3.456-6.584-4.16-7.018-.703-.435-1.978-2.91-2.833-5.502-.855-2.592-3-6.156-4.764-7.921-1.765-1.765-3.209-4.363-3.209-5.773 0-1.41-.848-3.268-1.886-4.13-1.925-1.597-15.447-28.339-15.447-30.549 0-.67-.9-1.965-2-2.878s-2-2.713-2-4-.865-3.058-1.92-3.934c-1.057-.877-3.54-5.9-5.516-11.164-1.977-5.263-5.013-11.479-6.746-13.813-1.733-2.335-3.157-5.635-3.164-7.334-.01-1.699-1.488-6.089-3.291-9.755-1.804-3.667-3.299-7.368-3.322-8.224-.023-.857-1.497-4.457-3.277-8-1.78-3.544-4.221-9.443-5.425-13.11-1.204-3.666-3.348-9.21-4.764-12.319-1.416-3.108-2.575-6.588-2.575-7.732 0-1.145-.94-3.9-2.09-6.122-1.15-2.223-3.203-7.526-4.564-11.785-1.36-4.26-3.635-10.06-5.055-12.893-1.42-2.832-2.925-8.195-3.346-11.918-.42-3.723-3.506-12.95-6.855-20.506-3.35-7.554-6.09-15.338-6.09-17.297 0-1.958-.521-4.131-1.158-4.828-.637-.696-2.264-4.266-3.615-7.933-1.352-3.667-3.227-8.167-4.167-10-.94-1.833-1.714-4.392-1.719-5.685 0-1.293-.538-3.393-1.186-4.667-2.746-5.399-4.066-9.575-6.211-19.648-1.249-5.867-3.397-12.292-4.774-14.28-1.377-1.986-2.504-4.87-2.504-6.406 0-1.536-1.689-6.81-3.753-11.72-2.064-4.91-4.512-12.398-5.44-16.64-.927-4.244-2.836-8.786-4.242-10.096-1.704-1.588-2.834-5.02-3.39-10.287-.457-4.347-1.304-8.504-1.88-9.238-.578-.733-2.221-4.811-3.653-9.062-1.432-4.252-3.1-7.673-3.706-7.603-.606.069-1.908-3.022-2.893-6.87-1.658-6.48-4.49-12.729-14.41-31.798-2.097-4.033-4.038-8.83-4.313-10.66-.274-1.83-1.311-4.23-2.304-5.334-.993-1.103-2.603-4.627-3.577-7.831-.975-3.204-3.112-7.104-4.749-8.667-1.637-1.563-2.994-4.041-3.016-5.508-.02-1.467-2.143-6.267-4.715-10.667-2.573-4.4-6.533-11.9-8.8-16.666-2.268-4.767-4.956-9.147-5.974-9.733-1.018-.587-1.851-1.977-1.851-3.09 0-2.883-9.711-19.121-11.453-19.152-2.38-.04-7.195-17.622-7.206-26.312-.01-4.392.897-6.651 4.13-10.334 3.755-4.277 4.79-4.713 11.174-4.713h7.036l.95-13.927c.522-7.66.633-14.44.247-15.064-1.429-2.312-1.266-41.368.216-51.675 5.813-40.441 12.13-110.94 10.22-114.032-1.413-2.286 2.003-38.857 4.791-51.302 1.48-6.6 3.296-15 4.038-18.666.741-3.667 2.295-9.667 3.453-13.334 6.76-21.407 7.984-33.937 8.984-92 .404-23.466 1.043-60.966 1.42-83.333.728-43.076-1.115-132.536-3.35-162.667-.734-9.9-1.667-25.8-2.073-35.333-.407-9.533-1.575-21.233-2.596-26-1.85-8.636-2.285-12.993-4.606-46.148-1.533-21.9-3.76-43.916-5.583-55.185a644.57 644.57 0 0 1-2.512-17.334c-2.055-16.039-2.51-19.289-4.48-32-1.081-6.966-2.82-16.866-3.866-22-1.046-5.133-2.537-13.533-3.314-18.666-.777-5.134-2.438-15.634-3.692-23.334-1.253-7.7-2.707-17.3-3.23-21.333-4.029-31.056-5.731-42.359-6.728-44.667-.634-1.466-1.418-5.066-1.744-8-.635-5.72-4.506-22.28-6.234-26.666-.578-1.467-2.368-7.467-3.977-13.334-3.404-12.407-4.019-14.425-9.555-31.333-2.28-6.967-5.22-16.867-6.531-22-1.311-5.133-3.001-11.133-3.756-13.333-.755-2.2-1.902-6.1-2.55-8.667-.647-2.567-1.727-4.567-2.4-4.445-.673.123-1.306-1.677-1.407-4-.27-6.184-2.858-16.876-5.375-22.201-1.208-2.555-2.719-6.755-3.357-9.333-1.818-7.34-2.07-8.122-5.803-18.021-1.936-5.133-4.99-13.46-6.785-18.505-1.796-5.044-4.443-11.606-5.881-14.583-1.438-2.977-2.615-6.104-2.615-6.95 0-.845-1.74-5.082-3.867-9.416-2.127-4.334-4.267-9.23-4.756-10.88-.49-1.65-1.402-3-2.028-3-.625 0-1.538-1.95-2.028-4.333-.772-3.752-8.833-22.329-12.752-29.387-.73-1.313-1.012-2.895-.63-3.516.384-.62-.195-1.87-1.287-2.776-1.092-.906-1.993-2.324-2.002-3.15-.02-1.768-10.294-22.254-12.089-24.104-.675-.697-1.228-2.298-1.228-3.559 0-2.657-4.204-10.487-5.638-10.5-.534 0-3.094-4.658-5.688-10.341-2.595-5.683-5.299-11.233-6.01-12.333-.71-1.1-2.193-4.1-3.296-6.667-1.103-2.567-2.587-5.567-3.298-6.667-.711-1.1-5.458-10.205-10.548-20.233s-11.115-20.936-13.389-24.24c-2.273-3.304-4.133-6.576-4.133-7.27 0-.695-.841-1.962-1.87-2.815-1.027-.853-2.265-3.177-2.75-5.163-.484-1.987-2.54-5.712-4.566-8.279-5.212-6.6-10.814-16.502-10.814-19.117 0-1.219-.453-2.216-1.008-2.216-.554 0-1.842-1.95-2.862-4.333-1.02-2.384-3.866-7.185-6.325-10.67-2.46-3.485-4.472-7.148-4.472-8.139 0-.991-1.5-3.42-3.333-5.399-1.833-1.978-3.333-4.384-3.333-5.347 0-.963-1.79-3.782-3.979-6.265-2.188-2.482-3.988-5.297-4-6.254-.019-1.55-1.792-5.316-10.878-23.108-1.362-2.666-2.477-5.766-2.477-6.889 0-1.122-.45-2.24-1-2.485-1.78-.792-9.208-18.805-13.102-31.778-.99-3.3-3.052-9.6-4.582-14-1.53-4.4-3.607-11.6-4.616-16-1.008-4.4-2.752-10.4-3.875-13.333-1.122-2.933-2.067-7.848-2.1-10.921-.031-3.074-.557-5.897-1.168-6.274-.61-.377-1.807-6.563-2.66-13.746-2.04-17.197-2.658-21.806-4.52-33.726-2.053-13.146-2.078-86.829-.037-106 .86-8.066 2.444-17.066 3.522-20 1.077-2.933 3.548-12.533 5.491-21.333 3.68-16.672 6.98-28.388 8.637-30.667.533-.733 1.363-3.433 1.844-6 .482-2.566 2.278-7.666 3.992-11.333s3.854-9.367 4.756-12.667c1.396-5.107 8.484-21.39 12.19-28 .616-1.1 3.186-5.6 5.71-10 2.523-4.4 7.06-12.7 10.08-18.446 3.02-5.746 8.984-15.046 13.254-20.667 4.27-5.621 8.54-11.72 9.492-13.553.952-1.834 5.82-7.427 10.82-12.43 4.998-5.004 9.455-10.254 9.904-11.667.448-1.414 1.675-2.57 2.725-2.57s1.91-.657 1.91-1.46c0-3.032 39.844-39.873 43.124-39.873.455 0 2.99-2.1 5.633-4.667 2.643-2.567 5.26-4.667 5.817-4.667.556 0 2.755-1.499 4.886-3.331 2.13-1.833 4.295-3.333 4.81-3.334.514 0 2.975-2.101 5.468-4.668 2.492-2.567 5.183-4.667 5.98-4.667.796 0 3.136-1.578 5.199-3.507 2.062-1.93 10.05-7.206 17.75-11.726 7.7-4.52 18.446-11.192 23.88-14.826 10.783-7.21 16.954-10.75 40.12-23.012 16.31-8.634 77.503-39.348 92-46.179 4.767-2.246 8.867-4.533 9.111-5.083.245-.55 1.461-1 2.704-1 1.242 0 3.442-.816 4.888-1.814 5.91-4.075 20.367-11.25 24.5-12.157 2.429-.534 6.536-2.409 9.126-4.166 2.59-1.758 5.528-3.196 6.529-3.196 1 0 4.057-1.2 6.794-2.667 2.736-1.467 5.884-2.68 6.995-2.696 1.11-.017 3.52-1.203 5.353-2.637 1.833-1.434 4.233-2.635 5.333-2.669 1.1-.034 5.3-1.478 9.334-3.21 4.033-1.732 12.433-5.352 18.666-8.045 6.234-2.692 14.034-5.828 17.334-6.968 3.3-1.14 9.655-3.773 14.124-5.852 4.468-2.078 11.068-4.497 14.666-5.375 3.599-.877 8.906-2.71 11.794-4.072 2.887-1.362 6.223-2.476 7.411-2.476 1.19 0 3.326-.88 4.75-1.956 1.423-1.076 5.438-2.353 8.921-2.839 3.484-.485 6.334-1.405 6.334-2.043 0-.64 1.385-1.162 3.078-1.162 1.693 0 4.243-.88 5.667-1.958 1.423-1.076 3.474-1.976 4.558-2 1.083-.023 11.283-2.972 22.666-6.552 11.384-3.58 23.997-7.254 28.03-8.163 4.034-.909 12.38-3.38 18.547-5.49 6.168-2.11 12.648-3.837 14.4-3.837 1.752 0 4.806-.824 6.787-1.83 1.98-1.007 7.8-2.55 12.933-3.43 5.134-.88 11.134-2.41 13.334-3.4 2.2-.989 6.1-2.095 8.666-2.457 2.567-.362 13.278-2.809 23.802-5.437 10.524-2.629 20.614-4.78 22.421-4.78 1.807 0 4.497-.647 5.977-1.44 1.48-.791 5.49-1.73 8.912-2.085 3.422-.355 12.222-2.059 19.555-3.787 7.333-1.727 16.933-3.512 21.333-3.966 4.4-.454 10.7-1.376 14-2.049 3.3-.672 11.1-2.122 17.334-3.22 6.233-1.1 13.133-2.352 15.333-2.784 2.2-.432 6.4-1.057 9.333-1.39 2.934-.332 8.634-1.195 12.667-1.918 4.033-.723 11.833-2.003 17.333-2.844 5.5-.841 13-2.052 16.667-2.69 3.667-.638 13.267-2.054 21.333-3.148 8.067-1.093 17.667-2.593 21.334-3.332 3.666-.738 11.166-1.893 16.666-2.566 5.5-.672 18.7-2.487 29.334-4.033 10.633-1.546 22.333-3.113 26-3.483 6.153-.622 17.24-2.15 28.666-3.952a311.36 311.36 0 0 1 9.334-1.299c2.566-.31 8.266-1.155 12.666-1.878 4.4-.724 17.3-2.258 28.667-3.41 11.367-1.153 24.867-2.673 30-3.379 5.133-.706 16.233-1.688 24.667-2.183 8.44-.495 16.532-1.655 18-2.58 3.672-2.313 44.821-7.172 78.666-9.289 5.867-.366 22.367-1.55 36.667-2.628 47.155-3.558 194.818-5.039 268-2.688 17.967.577 35.498.95 38.958.83 6.117-.214 34.995 1.98 43.042 3.27 2.2.352 12.4 1.232 22.667 1.954 17.631 1.241 33.544 3.293 38 4.9 2.287.825 4.76 1.215 18.666 2.942 5.5.684 13.3 1.914 17.334 2.733 4.033.82 11.833 2.049 17.333 2.731 5.5.683 12.7 1.865 16 2.626 6.931 1.6 17.953 3.878 22.4 4.63 1.686.285 5.886 1.403 9.333 2.484l13.17 4.131c3.797 1.19 11.426 2.738 16.953 3.439 6.625.84 12.512 2.588 17.277 5.131 4.56 2.433 9.226 3.857 12.64 3.857 2.976 0 8.139 1.282 11.471 2.848 3.333 1.567 6.815 2.849 7.737 2.849 1.593 0 20.013 5.674 25.686 7.912 5.924 2.337 12.343 4.088 14.986 4.088 1.539 0 4.496.865 6.572 1.921 7.82 3.98 16.788 7.54 24.157 9.59 4.19 1.165 10.565 2.943 14.168 3.95 3.602 1.009 7.675 3.042 9.052 4.52 1.428 1.532 4.21 2.686 6.479 2.686 3.548 0 24.583 7.42 30.349 10.705 2.06 1.174 4.235 1.995 17.57 6.635 2.567.892 7.067 2.758 10 4.145 2.933 1.387 5.841 2.52 6.461 2.518 1.201-.004 17.362 7.407 27.848 12.77 3.47 1.775 7.113 3.227 8.096 3.227.983 0 4.144 1.783 7.024 3.963s5.838 3.962 6.571 3.962c1.543 0 18.339 8.326 19.333 9.585.367.464 4.867 3.058 10 5.765 5.134 2.706 9.904 5.477 10.6 6.156.697.68 2.583 1.235 4.191 1.235 1.608 0 3.27.9 3.692 2 .422 1.1 1.433 2 2.247 2 2.523 0 49.294 23.73 55.927 28.377 1.799 1.26 4.594 2.29 6.212 2.29 1.617 0 3.734.779 4.703 1.73 4.397 4.317 14.747 10.33 25.762 14.966 6.6 2.777 12.666 5.857 13.48 6.843 2.334 2.828 10.947 8.35 14.362 9.207 1.708.429 6.025 3.192 9.592 6.14 3.568 2.948 8.644 6.46 11.282 7.806s5.579 3.39 6.536 4.544c.958 1.153 2.521 2.097 3.475 2.097.954 0 3.684 1.95 6.067 4.334 2.383 2.383 7.38 6.278 11.103 8.655 9.39 5.996 11.06 7.149 16.587 11.46 18.69 14.58 61.34 57.214 81.078 81.048 2.808 3.39 7.046 8.49 9.42 11.334 2.373 2.843 5.373 6.597 6.666 8.34 1.294 1.745 5.502 6.69 9.352 10.99 3.85 4.299 7 8.628 7 9.621 0 .993 1.2 2.891 2.666 4.218 1.467 1.328 2.667 3.236 2.667 4.242 0 1.006 2.696 4.524 5.99 7.819 3.295 3.295 7.436 8.829 9.202 12.298 1.766 3.47 4.527 7.808 6.137 9.641 1.61 1.834 4.426 5.884 6.259 9 1.833 3.117 3.827 5.667 4.433 5.667.605 0 1.518 1.95 2.028 4.333.51 2.384 1.91 5.269 3.11 6.412 1.2 1.142 4.28 5.554 6.845 9.802 2.564 4.249 6.613 10.369 8.996 13.6 2.383 3.232 4.333 6.79 4.333 7.906 0 1.117.918 2.383 2.039 2.813 1.12.43 3.278 3.561 4.793 6.958 1.516 3.397 4.733 10.376 7.15 15.51 2.416 5.133 5.79 12.633 7.499 16.666 1.708 4.033 4.881 9.296 7.052 11.694 2.17 2.398 5.555 8.398 7.521 13.333 1.967 4.935 6.96 15.954 11.098 24.487 4.136 8.533 7.905 17.533 8.375 20 1.153 6.054 3.531 10.51 7.68 14.385 1.903 1.778 3.46 3.901 3.46 4.718 0 .817 1.251 3.863 2.78 6.768 1.53 2.905 3.913 8.882 5.297 13.282 4.667 14.843 8.96 26.237 10.446 27.723.813.812 1.477 2.275 1.477 3.252 0 .976.877 2.112 1.95 2.523 1.071.411 2.32 2.043 2.774 3.625.454 1.582 3.114 7.977 5.91 14.21 2.798 6.233 5.86 14.033 6.804 17.333.945 3.3 3.108 8.963 4.807 12.583 1.699 3.62 3.088 7.37 3.088 8.333 0 .963 1.169 2.92 2.596 4.347 4.715 4.715 14.725 27.445 14.733 33.455 0 1.862 1.14 5.61 2.526 8.33 1.387 2.72 2.87 6.333 3.295 8.027.425 1.695 1.804 5.446 3.064 8.337 5.662 12.985 12.959 43.825 16.492 69.701 1.435 10.512 3.46 21.012 4.498 23.333 2.945 6.582 5.804 99.841 3.163 103.176-.72.909-1.115 9.106-.898 18.666.481 21.272-.192 36.257-1.67 37.17-.623.385-1.132 4.594-1.132 9.354 0 4.832-.829 10.257-1.877 12.283-1.527 2.953-1.566 4.21-.21 6.744 2.004 3.742 1.351 28.578-.87 33.116-1.065 2.179-1.025 3.46.154 4.881.889 1.07 1.065 2.257.397 2.67-.661.409-1.547 5.298-1.968 10.866-.421 5.567-1.432 10.925-2.247 11.906-.952 1.148-1.51 10.037-1.562 24.92-.045 12.725-.277 25.836-.517 29.136-1.404 19.336-2.249 41.953-2.69 72-.275 18.7-1.082 39.1-1.793 45.333-.712 6.233-1.527 16.733-1.81 23.333-.66 15.353-3.685 39.635-5.136 41.223-.614.673-.781 4.573-.371 8.667.428 4.277-.165 13.016-1.395 20.542-1.178 7.204-1.87 13.536-1.54 14.072.332.535.016 3.586-.702 6.78-2.066 9.193-5.995 49.37-7.23 73.923-.401 7.996-1.13 15.185-1.618 15.975-.488.79-1.045 5.647-1.238 10.793-.608 16.165-1.428 23.529-7.227 64.865-1.403 9.995-2.576 21.695-2.608 26-.032 4.305-.668 10.527-1.413 13.827-.745 3.3-2.204 14.1-3.242 24-1.039 9.9-2.51 21.9-3.27 26.667-.76 4.766-2.157 16.766-3.104 26.666-.946 9.9-2.095 18.9-2.552 20-.457 1.1-1.092 6.747-1.41 12.549-.432 7.876-1.147 10.964-2.825 12.191-1.598 1.168-1.994 2.654-1.371 5.136.482 1.92.229 4.272-.562 5.225-.791.953-1.759 5.972-2.15 11.153-.392 5.181-1.612 11.969-2.711 15.084-1.1 3.115-1.999 10.065-1.999 15.444 0 13.522-2.332 34.858-5.414 49.529-1.422 6.77-2.594 17.27-2.605 23.333-.013 6.606-.867 13.427-2.135 17.023-3.44 9.758-5.965 20.214-6.6 27.333-2.11 23.612-3.4 33.355-4.574 34.529-.736.736-1.35 3.168-1.366 5.405-.036 5.339-3.008 18.223-6.32 27.4-1.456 4.033-3.684 11.233-4.95 16-1.268 4.766-2.844 10.045-3.503 11.73-.66 1.684-1.2 3.993-1.2 5.13 0 1.139-.855 3.96-1.9 6.272-4.714 10.42-9.084 21.936-10.007 26.368-.554 2.658-2.326 6.686-3.94 8.951-1.612 2.266-4.074 7.599-5.47 11.852-1.396 4.252-5.912 14.924-10.034 23.714-4.122 8.79-8.027 17.183-8.676 18.65-.65 1.466-3.106 6.866-5.459 12-2.353 5.133-5.008 11.275-5.9 13.65-.892 2.375-4.201 8.587-7.355 13.806-7.048 11.665-8.865 14.975-15.827 28.82-3.027 6.02-6.13 11.332-6.897 11.806-.767.473-3.472 5.449-6.01 11.056-2.54 5.607-5.4 10.795-6.357 11.528-.958.733-4.422 6.733-7.7 13.333-3.276 6.6-8.299 15.6-11.16 20-2.861 4.4-6.918 11.192-9.015 15.093-2.096 3.902-4.97 8.252-6.385 9.667-1.416 1.415-2.574 3.359-2.574 4.319s-2.182 5.31-4.85 9.666c-6.196 10.12-13.26 22.274-17.376 29.9-1.775 3.287-4.4 7.226-5.834 8.752-1.433 1.526-2.607 3.39-2.607 4.143 0 1.492-7.991 18.046-9.233 19.127-1.234 1.073-5.097 9.557-6.982 15.333-.958 2.934-2.797 6.834-4.089 8.667-1.29 1.833-3.594 6.893-5.119 11.245-1.525 4.35-3.918 10.157-5.319 12.903-1.4 2.746-4.004 9.986-5.785 16.089-1.78 6.103-3.89 12.785-4.688 14.85-.798 2.064-1.451 5.779-1.451 8.254 0 2.476-.534 4.832-1.187 5.235-1.6.99-8.147 20.928-8.147 24.815 0 1.704-1.14 6.438-2.536 10.52-3.01 8.811-4.578 18.711-7.93 50.089-.706 6.6-2.205 17.4-3.333 24-3.059 17.906-5.13 35.376-6.401 54-2.351 34.44-7.489 79.405-9.767 85.476-.383 1.021-1.316 7.257-2.072 13.857-2.145 18.726-2.313 19.793-3.679 23.334-.707 1.833-1.73 7.233-2.274 12-.544 4.766-2.038 11.666-3.32 15.333-3.686 10.541-4.97 15.898-9.424 39.333-2.3 12.1-5.375 26.8-6.834 32.667a10286.48 10286.48 0 0 0-4.04 16.308c-.764 3.103-2.214 6.326-3.222 7.163-1.009.837-1.834 2.94-1.834 4.673 0 4.501-2.675 15.24-4.83 19.395-1.01 1.947-1.837 5.384-1.837 7.64 0 2.255-.86 6.362-1.91 9.127-1.05 2.765-2.867 9.527-4.037 15.027-2.292 10.773-4.527 17.334-5.904 17.334-.474 0-2.31 3.75-4.08 8.333-1.769 4.583-3.942 9.233-4.828 10.333-.886 1.1-2.054 4.08-2.595 6.623-1.17 5.493-3.3 9.614-5.782 11.187-.992.628-3.193 4.228-4.89 8-1.698 3.771-5.892 9.857-9.32 13.524-3.428 3.666-7.334 8.806-8.68 11.422-1.345 2.616-3.39 5.54-4.543 6.497-1.154.957-2.098 2.3-2.098 2.982 0 1.492-14.616 19.982-16.994 21.498-.92.587-1.688 1.787-1.708 2.667-.02.88-2.72 5.155-6 9.5-3.28 4.344-5.964 8.419-5.964 9.055 0 .636-1.245 2.482-2.767 4.101-1.522 1.62-5.42 6.844-8.663 11.611-3.242 4.767-8.6 12.267-11.907 16.667-3.307 4.4-6.38 9.05-6.827 10.333-.448 1.283-1.84 2.333-3.093 2.333-2.57 0-8.077 5.317-8.077 7.798 0 .894-1.8 3.385-4 5.536-2.2 2.15-4 4.78-4 5.844 0 1.063-.45 2.133-1 2.378-.55.244-3.1 3.198-5.666 6.563-2.567 3.365-7.667 8.64-11.334 11.72-3.666 3.08-10.266 8.845-14.666 12.811-4.4 3.966-10.39 8.82-13.312 10.785-2.921 1.966-5.921 4.33-6.666 5.254-2.194 2.718-14.34 11.498-17.645 12.755-1.674.636-3.044 1.772-3.044 2.523a1.37 1.37 0 0 1-1.365 1.367c-1.498 0-11.891 6.936-19.914 13.29-2.808 2.224-5.918 4.047-6.913 4.051-1.828.013-3.633.896-14.475 7.117-3.3 1.893-9.754 5.33-14.343 7.637-4.59 2.306-8.629 4.654-8.976 5.216-.97 1.57-18.09 11.35-23.347 13.336-2.567.97-5.267 2.422-6 3.225-2.082 2.281-11.106 6.127-14.379 6.129-1.625 0-5.313 2.1-8.197 4.666-2.883 2.566-6.183 4.685-7.333 4.708-1.15.023-3.23.905-4.623 1.96-1.392 1.053-5.592 2.91-9.333 4.124-3.741 1.214-8.04 3.333-9.555 4.708-1.513 1.374-3.982 2.5-5.486 2.5-1.504 0-4.26 1.2-6.125 2.666-1.864 1.467-4.045 2.667-4.845 2.667-.801 0-4.306 1.487-7.79 3.305s-12.502 4.938-20.04 6.934c-8.517 2.255-13.488 4.2-13.128 5.14.319.83-.191 1.51-1.133 1.51s-4.335 1.225-7.54 2.723c-3.204 1.498-7.927 3.167-10.493 3.71-2.567.542-5.267 1.434-6 1.981-.734.548-4.934 2.023-9.334 3.278-4.4 1.255-9.8 3.07-12 4.032-9.662 4.23-18.54 7.387-20.765 7.387-1.326 0-2.733.52-3.126 1.158-.394.637-3.153 1.548-6.132 2.024-2.98.476-10.833 2.666-17.453 4.865-6.62 2.2-12.554 3.679-13.188 3.287-.633-.39-1.48-.18-1.88.469-.648 1.048-7.167 2.65-14.789 3.633-1.467.19-5.067 1.039-8 1.888-9.657 2.795-17.225 4.07-24.976 4.209-4.456.08-8.238.853-9.07 1.855-.927 1.117-7.018 2.053-17.385 2.672-8.777.524-16.281 1.474-16.676 2.113-.394.638-3.417 1.16-6.717 1.16-3.66 0-5.679.52-5.176 1.333.453.734.189 1.334-.588 1.334a1.416 1.416 0 0 1-1.412-1.412c0-.777-.534-1.082-1.186-.68-.653.404-13.385 1.068-28.294 1.475-17.43.477-27.428 1.263-28.009 2.201-.587.951-3.158 1.134-7.373.523-3.56-.515-7.371-.93-8.471-.924-8.223.052-17.304.02-20.667-.077-2.2-.063-6.832.181-10.294.54-3.461.36-6.609.34-6.993-.044zm43.974-42.241c7.345-.229 18.046-1.127 23.78-1.997 5.735-.87 10.77-1.237 11.19-.817.42.42 1.44.203 2.265-.481.825-.685 4.48-1.352 8.122-1.481 3.643-.13 15.323-1.754 25.956-3.609s22.033-3.648 25.333-3.984c3.3-.336 6.63-1.12 7.4-1.743.77-.622 4.07-1.489 7.333-1.926 14.043-1.881 14.839-2.111 14.087-4.07-.834-2.175.302-2.434 3.048-.695 1.155.73 3.892.468 7.168-.688 2.914-1.028 6.767-1.87 8.56-1.87 1.794 0 4.138-.876 5.209-1.947 1.071-1.071 4.178-2.325 6.905-2.786 2.726-.462 9.157-2.357 14.29-4.212 5.134-1.855 11.734-3.975 14.667-4.71 2.933-.737 7.733-2.42 10.667-3.741 2.933-1.322 7.733-2.826 10.666-3.344 2.934-.517 5.934-1.404 6.667-1.97.733-.566 6.433-2.815 12.667-4.999 18.09-6.337 20.358-7.187 26.146-9.809 3.013-1.365 6.129-2.481 6.923-2.481.795 0 3.429-1.146 5.854-2.547 2.426-1.4 7.41-3.539 11.077-4.752 3.666-1.214 9.066-3.312 12-4.663 14.347-6.61 20.858-9.372 22.09-9.372.743 0 2.977-1.104 4.964-2.454 6.828-4.64 17.79-10.879 19.113-10.879.728 0 .952-.6.5-1.333-.462-.746.568-1.334 2.336-1.334 1.738 0 4.448-1.2 6.023-2.666 1.574-1.467 3.937-2.676 5.251-2.687 2.525-.021 7.339-2.562 5.056-2.668-.733-.035 1.367-1.434 4.667-3.11 3.3-1.677 8.1-4.163 10.666-5.524a513.718 513.718 0 0 1 8.667-4.478c6.215-3.113 9.274-4.807 10-5.537.888-.894 9.913-6.839 17.229-11.35 6.076-3.747 7.886-5.074 12.064-8.844 1.34-1.209 5.046-3.738 8.238-5.621 3.191-1.884 7.568-5.095 9.727-7.136 2.16-2.042 6.36-4.957 9.334-6.479 2.974-1.522 6.047-4.04 6.828-5.595 1.525-3.035 8.26-9.591 17.907-17.433 3.297-2.68 7.163-6.372 8.59-8.205 1.428-1.833 5.668-6.462 9.422-10.285 3.754-3.824 7.66-8.512 8.68-10.418 1.02-1.906 3.533-4.457 5.585-5.669 2.05-1.212 3.73-2.861 3.73-3.666 0-.805 1.853-3.225 4.118-5.38 2.266-2.153 5.044-5.715 6.173-7.915 1.13-2.2 2.849-4.9 3.82-6 .97-1.1 2.842-3.219 4.16-4.709 4.75-5.37 16.414-22.076 19.747-28.283 1.873-3.488 5.21-8.742 7.417-11.675 2.205-2.933 5.114-7.733 6.464-10.667 1.349-2.933 4.037-7.133 5.974-9.333 1.937-2.2 6.536-9.005 10.22-15.123 3.684-6.118 7.78-12.284 9.102-13.703 1.322-1.42 3.112-4.943 3.977-7.83.864-2.886 2.712-6.046 4.105-7.022 1.394-.976 2.955-3.548 3.47-5.715.515-2.167 2.357-5.85 4.094-8.185 1.737-2.334 3.162-5.034 3.167-6 0-.965 1.201-3.555 2.659-5.755 1.457-2.2 3.61-7.3 4.784-11.334 1.173-4.033 2.608-7.933 3.187-8.666.58-.734 1.497-3.434 2.04-6 .542-2.567 2.719-8.115 4.837-12.33 3.964-7.886 13.149-34.717 13.15-38.416 0-1.143.882-3.243 1.958-4.666 1.077-1.424 1.974-3.488 1.994-4.588.045-2.495 6.025-22.405 9.41-31.334 1.39-3.666 3.728-12.366 5.196-19.333 3.896-18.5 5.34-24.346 6.748-27.333.691-1.467 1.945-8.967 2.785-16.667.84-7.7 1.763-16.1 2.049-18.667.285-2.566 1.063-10.966 1.728-18.666.665-7.7 2.188-20.6 3.386-28.667 1.197-8.067 2.416-26.067 2.708-40 .582-27.822 2.348-47.082 7.336-80 .778-5.133 2.01-14.433 2.738-20.667 1.767-15.125 8.006-49.66 9.274-51.333.555-.733 1.43-3.733 1.943-6.667.513-2.933 2.142-9.233 3.619-14 4.688-15.128 5.129-16.8 5.129-19.447 0-1.426 1.085-4.683 2.411-7.24 1.327-2.555 3.194-7.346 4.149-10.646 3.581-12.37 7.323-23.375 8.364-24.6.592-.697 1.076-2.054 1.076-3.016 0-1.52 3.103-8.628 11.804-27.03 3.253-6.88 9.937-17.956 11.143-18.465.58-.245 1.053-1.057 1.053-1.807 0-.749 1.5-4.348 3.333-7.998 1.834-3.65 3.334-7.444 3.334-8.432 0-.987.75-2.588 1.669-3.557 1.817-1.919 8.997-12.725 8.997-13.542 0-.662 11.939-21.397 16.28-28.274 1.867-2.958 5.346-9.255 7.73-13.995 2.384-4.74 5.972-10.717 7.974-13.284 2.001-2.567 4.372-6.92 5.267-9.673.895-2.754 3.98-8.138 6.855-11.965 2.875-3.826 5.228-7.487 5.228-8.134 0-.648 1.668-3.364 3.707-6.036 2.039-2.672 4.575-6.659 5.636-8.859s3.443-6.392 5.293-9.316c4.228-6.682 20.588-37.118 23.303-43.35 1.117-2.567 2.646-5.567 3.396-6.667.75-1.1 2.475-4.409 3.833-7.352 1.357-2.944 3.45-6.168 4.65-7.164 1.2-.996 2.182-3.001 2.182-4.457 0-1.455 1.692-6.332 3.762-10.836 2.069-4.505 5.136-11.491 6.816-15.524 6.652-15.97 10.05-23.422 11.553-25.334.864-1.1 2.017-4.1 2.56-6.666.544-2.567 2.111-6.098 3.482-7.847 1.371-1.749 2.493-4.179 2.493-5.4 0-1.22.542-2.79 1.203-3.487 1.125-1.184 2.23-4.072 8.192-21.406 1.288-3.744 2.916-7.944 3.619-9.334 2.149-4.25 5.653-16.052 5.653-19.039 0-1.551.6-2.82 1.333-2.82.734 0 1.334-1.464 1.334-3.252 0-1.788 1.437-7.938 3.194-13.666 1.756-5.729 3.814-14.616 4.573-19.75.758-5.133 2.61-15.633 4.113-23.333 1.504-7.7 3.38-18.8 4.167-24.666.787-5.867 2.043-13.067 2.79-16 1.593-6.26 3.112-15.593 5.967-36.667 1.143-8.433 2.63-17.503 3.303-20.155.674-2.651 1.226-7.578 1.226-10.948s1.14-11.1 2.535-17.179c1.395-6.078 3.868-18.851 5.496-28.385 1.627-9.533 3.47-18.533 4.093-20 .624-1.466 1.787-8.066 2.585-14.666 1.38-11.414 3.758-28.316 6.66-47.334 2.552-16.722 3.687-24.847 6.424-46 1.518-11.733 3.347-24.633 4.064-28.666.717-4.034 1.668-11.234 2.113-16 .445-4.767 1.364-12.267 2.042-16.667.678-4.4 2.159-17 3.29-28a3278.831 3278.831 0 0 1 7.334-64.667c.774-6.233 2.048-17.333 2.83-24.666.783-7.334 2.54-22.034 3.904-32.667 2.673-20.82 3.875-32.425 4.56-44 .238-4.033 1.385-16.933 2.55-28.667 4.347-43.824 5.222-53.759 6.223-70.666.564-9.534 1.71-29.034 2.547-43.334 1.412-24.142 3.233-50.095 4.63-66 .322-3.666 1.232-14.466 2.02-24 1.627-19.646 3.24-34.128 5.418-48.666 2.06-13.747 3.823-30.387 4.731-44.667.42-6.6 1.594-16.8 2.608-22.667 1.014-5.866 2.2-20.566 2.636-32.666.436-12.1 1.182-29.5 1.658-38.667.476-9.167.796-18.467.712-20.667-.084-2.2-.175-7.249-.2-11.22-.186-28.617-8.651-90.773-15.451-113.446-.99-3.3-2.686-9.6-3.769-14-1.083-4.4-2.969-10.67-4.19-13.932-1.223-3.263-2.79-8.963-3.481-12.667-1.126-6.024-10.879-35.058-15.251-45.401-.93-2.2-2.096-5.5-2.59-7.334-.494-1.833-1.46-4.533-2.147-6-.686-1.466-3.623-9.866-6.525-18.666s-6.437-19.3-7.855-23.334c-1.417-4.033-3.334-10.333-4.26-14-.926-3.666-2.792-9.029-4.147-11.917-1.355-2.888-2.466-6.188-2.469-7.333 0-1.146-1.8-5.683-3.995-10.083-2.194-4.4-3.992-8.957-3.995-10.127 0-1.17-1.19-3.2-2.64-4.511-1.45-1.312-2.333-2.874-1.963-3.473 1.354-2.19-10.354-32.061-19.294-49.222-1.337-2.567-2.792-6.206-3.233-8.088-.441-1.881-2.078-4.881-3.637-6.666-1.558-1.786-3.721-5.45-4.806-8.143-1.085-2.694-2.793-5.212-3.795-5.597-1.003-.385-2.225-2.981-2.716-5.77-.762-4.326-9.213-23.04-14.341-31.755-5.524-9.39-8.655-14.03-13.156-19.5-2.8-3.402-5.09-7.411-5.09-8.91 0-1.554-1.146-3.089-2.667-3.571-1.467-.466-2.667-1.736-2.667-2.823 0-2.187-3.807-10.128-5.358-11.177-1.75-1.185-9.915-12.548-11.975-16.667-1.1-2.2-3.35-5.494-5-7.32-1.65-1.826-3-4.002-3-4.836 0-.835-.925-2.285-2.056-3.224-2.791-2.316-13.944-19.054-13.944-20.925 0-.826-1.358-2.595-3.018-3.932-1.66-1.336-5.31-5.58-8.113-9.43-2.803-3.85-5.745-7-6.538-7-.793 0-1.063-.38-.599-.843.464-.464-.557-1.946-2.27-3.293-1.711-1.347-3.48-4.281-3.927-6.521-.448-2.24-1.877-4.46-3.175-4.933-2.307-.84-8.52-7.15-18.653-18.942-2.772-3.226-9.39-10.153-14.707-15.393s-9.667-10.062-9.667-10.715c0-1.565-5.473-7.36-6.951-7.36-.634 0-4.048-2.94-7.586-6.535-3.538-3.595-8.915-8.102-11.948-10.017-3.033-1.915-5.515-3.944-5.515-4.51 0-.566-1.65-2.021-3.667-3.233-2.016-1.212-5.492-3.891-7.723-5.954-4.884-4.515-19.914-16.263-24.756-19.35-1.914-1.219-4.314-3.019-5.334-4-1.02-.98-3.133-2.37-4.696-3.091-1.564-.72-4.864-2.955-7.334-4.967-5.874-4.784-38.969-26.343-40.438-26.343-.457 0-2.003-1.092-3.436-2.428-1.433-1.335-5.458-3.836-8.944-5.558-3.486-1.722-11.952-6.65-18.812-10.95-6.86-4.3-14.66-9.015-17.334-10.476a322.355 322.355 0 0 1-9.526-5.463c-2.567-1.544-8.267-4.634-12.667-6.866-4.4-2.232-9.5-5.073-11.333-6.312-7.428-5.023-18.27-11.606-22.667-13.764-2.566-1.26-7.066-3.776-10-5.593-2.933-1.816-6.833-3.93-8.666-4.698-1.834-.768-6.034-3.087-9.334-5.155-3.3-2.067-9.9-5.454-14.666-7.527-4.767-2.072-9.147-4.542-9.733-5.489-.587-.946-2.219-1.72-3.627-1.72s-6.103-1.8-10.432-4c-4.33-2.2-8.727-4-9.773-4-1.046 0-2.472-.517-3.169-1.148-.696-.631-5.766-3.138-11.266-5.57-5.5-2.433-14.915-6.716-20.92-9.52-6.007-2.803-11.445-5.096-12.085-5.096-.64 0-4.272-1.5-8.072-3.333-3.8-1.834-7.747-3.334-8.769-3.334-1.022 0-8.592-3-16.82-6.666-8.23-3.667-15.963-6.667-17.185-6.667-1.223 0-3.406-.807-4.853-1.793-1.446-.986-3.83-2.126-5.296-2.533-1.467-.408-6.867-2.342-12-4.298-14.884-5.674-21.38-7.953-43.334-15.202a30485.039 30485.039 0 0 1-25.333-8.375c-11.017-3.658-52.059-13.857-79.333-19.714a4071.29 4071.29 0 0 1-18.667-4.103c-7.333-1.627-16.333-3.457-20-4.066-3.667-.61-12.367-2.07-19.333-3.245-33.02-5.57-78.654-10.673-107.333-12.001-11-.51-27.8-1.371-37.334-1.914-40.789-2.325-225.735 1.054-250 4.566-2.566.372-9.466.964-15.333 1.317-12.627.758-42.936 3.905-65.333 6.783-8.8 1.13-23.5 2.935-32.667 4.01-9.167 1.075-20.267 2.5-24.667 3.166-15.402 2.333-28.147 4.019-46 6.084-9.9 1.146-26.7 3.244-37.333 4.663-10.634 1.419-22.034 2.844-25.334 3.168-3.3.323-12.6 1.564-20.666 2.759a5236.598 5236.598 0 0 1-23.667 3.45c-4.95.703-13.35 1.953-18.667 2.778-9.497 1.474-12.336 1.877-23 3.27-7.366.964-37.926 5.818-42 6.673-1.833.384-6.333.963-10 1.286-3.666.323-7.566.99-8.666 1.48-1.1.492-3.5 1.02-5.334 1.172-1.833.153-10.766 1.273-19.852 2.489s-20.764 2.526-25.953 2.911c-5.189.386-10.055 1.208-10.814 1.828-.76.619-4.38 1.43-8.047 1.801-3.667.372-8.286 1.305-10.265 2.074-1.98.769-7.38 1.7-12 2.067-4.621.368-9.902 1.042-11.735 1.5-1.834.456-4.234.832-5.334.835-1.1.003-2.9.362-4 .798-1.1.437-6.2 1.532-11.333 2.434-14.433 2.534-28.795 5.418-34.667 6.96-2.933.77-8.933 2.1-13.333 2.955s-9.378 2.097-11.063 2.76c-1.684.664-4.486 1.207-6.225 1.207-4.275 0-19.734 3.962-21.312 5.462-.697.663-2.966 1.205-5.043 1.205s-5.872.876-8.434 1.946c-2.563 1.07-8.693 2.916-13.624 4.101-4.931 1.186-11.666 2.942-14.966 3.904-3.3.962-10.8 3.09-16.666 4.73-11.532 3.223-27.315 8.226-32.667 10.355-1.833.73-8.733 2.969-15.333 4.977-6.6 2.008-13.047 4.18-14.326 4.826-1.28.646-6.38 2.443-11.334 3.993-4.954 1.55-10.807 3.601-13.007 4.558-4.094 1.78-11.366 4.45-22 8.079-3.3 1.126-8.543 3.206-11.652 4.622s-7.085 2.575-8.837 2.575c-1.751 0-3.882.841-4.736 1.87-.853 1.028-3.176 2.268-5.163 2.756-1.986.488-6.912 2.414-10.945 4.28a1285.348 1285.348 0 0 1-13.334 6.068c-10.876 4.85-12 5.466-12 6.585 0 .61-1.18 1.108-2.624 1.108-2.77 0-26.955 9.91-31.195 12.781-1.368.927-3.222 1.402-4.12 1.058-.898-.345-2.403.3-3.344 1.434-.94 1.133-2.755 2.06-4.033 2.06-1.278 0-3.85 1.2-5.714 2.667-1.865 1.467-4.31 2.667-5.434 2.667-1.125 0-2.416.6-2.869 1.333-.453.733-1.946 1.333-3.317 1.333-1.37 0-3.379.887-4.463 1.97-1.083 1.084-5.176 3.204-9.095 4.711-9.478 3.646-23.692 10.637-27.626 13.59-4.326 3.246-30.246 15.73-32.661 15.73-1.072 0-2.149.534-2.393 1.188-.245.653-6.145 4.05-13.112 7.546-6.966 3.498-14.466 7.694-16.666 9.326-2.2 1.633-6.4 4.25-9.334 5.815-10.167 5.427-23.97 13.731-43.143 25.954-14.794 9.432-18.064 11.764-19.256 13.738-.587.971-1.824 1.766-2.75 1.766-.927 0-3.447 1.843-5.601 4.096s-6.166 5.364-8.916 6.912c-2.75 1.549-5 3.257-5 3.795 0 .539-2.25 2.307-5 3.93-2.75 1.622-7.778 5.721-11.172 9.108-3.395 3.387-6.995 6.825-8 7.638-1.006.814-3.661 3.514-5.901 6-2.24 2.487-10.94 11.12-19.333 19.187-8.394 8.067-16.76 16.662-18.594 19.1-5.432 7.224-17.07 22.053-19.276 24.561-1.125 1.28-3.099 4.283-4.385 6.673-1.287 2.39-3.592 6.142-5.122 8.339-1.531 2.196-3.188 4.894-3.682 5.994-.494 1.1-2.058 3.8-3.475 6-4.326 6.713-17.394 34.24-17.394 36.64 0 2.462-8.342 20.027-9.511 20.027-.636 0-1.174 1.35-1.198 3-.023 1.65-.923 4.164-2 5.588-1.076 1.423-1.961 3.523-1.965 4.666 0 1.144-.84 3.674-1.858 5.623-1.017 1.95-2.861 8.25-4.098 14-1.238 5.75-3.67 17.056-5.404 25.123-5.85 27.204-7.357 41.25-6.745 62.893.332 11.743 1.224 21.447 2.129 23.136 1.515 2.831 2.791 10.094 5.385 30.637.694 5.5 2.207 14.8 3.361 20.667 4.443 22.573 6.021 31.084 7.998 43.126 1.125 6.853 3.214 15.425 4.642 19.05 1.429 3.624 2.598 7.826 2.598 9.338 0 1.512.81 4.64 1.802 6.951s2.426 6.602 3.187 9.535c1.431 5.512 3.575 11.734 6.431 18.667.906 2.2 2.562 6.7 3.68 10 1.118 3.3 5.666 12.3 10.107 20 4.44 7.7 8.086 14.829 8.1 15.842.03 2.107 5.378 11.266 6.97 11.935.58.245 1.056 1.295 1.056 2.334 0 1.039.527 1.889 1.172 1.889.644 0 1.917 1.8 2.828 4 .911 2.2 2.114 4 2.673 4 .559 0 1.37 1.05 1.804 2.333.434 1.283 3.195 5.933 6.136 10.333 2.941 4.4 6.406 9.726 7.7 11.835 1.295 2.11 4.904 7.633 8.02 12.275 3.117 4.641 5.667 8.815 5.667 9.274 0 .459 2.1 3.397 4.667 6.53 2.566 3.131 4.666 6.131 4.666 6.666 0 .534 2.027 3.472 4.504 6.53 2.478 3.056 4.893 6.828 5.368 8.381.475 1.553 2.048 3.896 3.496 5.207 1.448 1.31 2.632 3.44 2.632 4.731 0 1.292.45 2.55 1 2.793 1.262.561 4.99 6.935 7.864 13.445 1.214 2.75 2.717 5 3.339 5 .622 0 1.13.79 1.13 1.756 0 2.504 13.907 29.324 15.477 29.847.719.24 2.112-1.823 3.097-4.584.984-2.76 2.892-6.59 4.241-8.512 1.349-1.92 3.043-5.046 3.766-6.945 1.35-3.553 6.566-6.758 18.913-11.625 3.827-1.509 9.67-3.978 12.984-5.488 3.314-1.51 8.162-3.502 10.774-4.426 2.612-.925 7.449-2.896 10.749-4.379 3.3-1.483 9.6-4.04 14-5.682 4.4-1.642 9.2-3.474 10.666-4.07 11.311-4.602 20.511-7.896 22.105-7.915 1.043-.012 4.895-1.802 8.562-3.977s7.567-3.967 8.667-3.983c1.1-.016 4.863-1.48 8.363-3.257 3.5-1.775 8.3-3.605 10.666-4.065 5.028-.979 14.101-4.55 16.97-6.68 1.1-.816 5-2.237 8.667-3.156 3.667-.92 11.767-3.79 18-6.38 6.234-2.59 12.534-5.173 14-5.742 1.467-.569 4.937-2.017 7.712-3.219 2.775-1.202 5.775-2.184 6.667-2.183 1.458 0 22.13-8.144 32.288-12.724 2.2-.992 6.1-2.39 8.667-3.108 2.566-.718 9.166-3.195 14.666-5.504 9.059-3.804 18.082-7.106 44-16.106 4.767-1.655 9.567-3.741 10.667-4.636 1.1-.895 4.1-2.064 6.667-2.599 2.566-.534 7.03-2.1 9.917-3.481 2.888-1.38 5.744-2.51 6.348-2.51.603 0 3.64-1.169 6.75-2.597 3.108-1.428 9.851-3.926 14.985-5.552 5.133-1.626 11.972-4.358 15.198-6.07 3.226-1.713 6.663-3.115 7.638-3.115 1.642 0 12.424-4.61 20.703-8.853 1.946-.997 4.446-1.813 5.556-1.813 1.109 0 5.975-2.1 10.813-4.667 4.838-2.567 9.57-4.667 10.516-4.667.945 0 4.687-1.43 8.314-3.18 9.477-4.568 31.575-14.961 33.928-15.957 1.1-.465 2.9-1.38 4-2.033s3.5-1.749 5.334-2.435c12.06-4.515 62.578-32.068 66.666-36.361.367-.385 2.167-1.567 4-2.626 9.218-5.326 17.919-10.857 19.905-12.655 1.221-1.105 5.123-3.553 8.671-5.44 3.548-1.886 8.92-5.371 11.938-7.745 5.26-4.138 18.559-13.442 23.205-16.234 1.22-.734 5.532-3.5 9.583-6.146 4.05-2.647 9.853-6.077 12.893-7.623 3.04-1.546 6.34-3.614 7.333-4.595.993-.982 4.506-3.252 7.806-5.044 3.3-1.793 6.3-3.56 6.666-3.928.624-.626 2.704-1.62 12.667-6.061 2.2-.98 6.7-2.031 10-2.336 3.3-.304 7.8-1.193 10-1.975 9.405-3.346 24.717-5.96 31.24-5.333 9.58.92 15.234 7.028 18.607 20.103 1.622 6.288-1.15 16.661-6.235 23.328l-3.466 4.543 3.192 6.016c1.755 3.308 4.572 6.645 6.26 7.414 1.688.769 3.069 1.902 3.069 2.517 0 .616.9 1.12 2 1.12s2 .531 2 1.181 2.083 2.17 4.63 3.378c2.546 1.209 8.187 5.777 12.535 10.152 4.348 4.376 8.238 7.955 8.643 7.955 1.148 0 18.024 15.238 31.38 28.334 4.3 4.216 8.086 7.666 8.412 7.666.327 0 6.25 5.394 13.163 11.987 6.914 6.592 14.491 12.63 16.84 13.415 2.348.786 4.629 2.563 5.069 3.948.44 1.385 3.018 3.868 5.73 5.519 2.712 1.65 7.214 5.13 10.003 7.732 2.79 2.603 6.33 4.733 7.867 4.733 1.67 0 2.939.966 3.153 2.4.485 3.246 2.91 5.981 6.241 7.039 1.518.481 5.503 3.505 8.857 6.718 3.353 3.213 7.122 5.843 8.375 5.843 1.253 0 2.671.637 3.153 1.415.48.779 2.166 1.981 3.745 2.672 1.579.691 5.57 3.346 8.87 5.9 12.16 9.41 34.723 24.68 36.467 24.68.705 0 3.138 1.413 5.408 3.14 2.269 1.728 6.676 4.44 9.792 6.027 3.117 1.588 5.667 3.474 5.667 4.193 0 .718.819 1.306 1.82 1.306 1.001 0 3.346 1.2 5.21 2.667 1.865 1.466 4.253 2.666 5.307 2.666 1.054 0 3.06 1.278 4.456 2.84 1.397 1.561 4.949 3.88 7.892 5.15 2.944 1.272 6.168 3.295 7.164 4.495.996 1.2 2.4 2.182 3.12 2.182.721 0 3.891 1.742 7.046 3.87 6.738 4.548 10.698 6.007 15.437 5.687 2.53-.171 5.467 1.688 11 6.961 4.151 3.958 7.548 7.735 7.548 8.394 0 .66 2.7 3.85 6 7.088 3.3 3.239 6 6.404 6 7.033 0 .63 1.488 3.096 3.307 5.48 4.58 6.006 7.36 14.565 7.36 22.667 0 8.29-1.887 9.88-12.197 10.285-8.265.324-10.367-.24-23.568-6.309-5.37-2.469-10.186-4.49-10.703-4.49-.517 0-4.223-1.717-8.236-3.816a760.717 760.717 0 0 0-13.296-6.774c-3.3-1.626-7.05-3.509-8.334-4.183a785.073 785.073 0 0 0-5.333-2.767c-1.65-.847-3.9-2.007-5-2.578-4.265-2.211-23.437-13.913-29.69-18.122-3.618-2.434-7.625-4.426-8.904-4.426-1.28 0-3.412-1.2-4.74-2.667-1.327-1.466-3.174-2.666-4.104-2.666-.93 0-3.387-1.421-5.46-3.157-2.073-1.737-7.069-4.834-11.102-6.884-7.114-3.615-20.623-12.89-23.338-16.025-.736-.85-3.736-2.8-6.667-4.333-2.93-1.534-8.525-5.822-12.433-9.529-3.907-3.706-7.907-6.739-8.889-6.739-.981 0-1.984-.542-2.229-1.204-.582-1.576-14.69-12.13-16.216-12.13-.648 0-2.358-1.5-3.8-3.333-1.442-1.833-3.478-3.333-4.525-3.333-1.047 0-1.903-.495-1.903-1.1 0-.606-3.75-4.168-8.334-7.917-4.583-3.749-12.233-10.494-17-14.99-4.766-4.496-10.466-9.468-12.666-11.048-5.53-3.97-4.734-3.232-28.263-26.278-19.965-19.557-42.938-43.967-44.41-47.192-.647-1.415-3.588-4.812-12.994-15.007-2.383-2.583-4.333-5.118-4.333-5.633 0-.514-3-3.89-6.667-7.502-3.667-3.611-6.667-7.36-6.667-8.33 0-2.668-3.782-7.887-7.464-10.3-2.688-1.76-3.607-1.838-5.092-.426-2.94 2.795-6.717 5.587-10.448 7.723-3.44 1.97-14.49 11.597-28.31 24.667-3.876 3.666-8.167 7.6-9.534 8.741a2197.812 2197.812 0 0 0-8.69 7.333c-3.411 2.893-7.611 6.315-9.332 7.606-1.721 1.29-7.03 5.55-11.796 9.466-4.767 3.915-13.167 9.746-18.667 12.958-5.5 3.211-10.782 6.59-11.738 7.51-2.462 2.368-15.68 11.052-16.822 11.052-.523 0-2.915 1.498-5.314 3.328-2.4 1.83-6.41 4.03-8.911 4.89-2.502.859-6.786 2.961-9.522 4.672-2.735 1.71-5.255 3.11-5.6 3.11-.344 0-3.293 1.8-6.553 4s-6.528 4-7.263 4c-.735 0-4.964 1.8-9.399 4-4.434 2.2-8.71 4-9.503 4-.793 0-5.522 2.055-10.508 4.566-4.987 2.512-16.325 6.958-25.195 9.882-8.87 2.924-19.926 7.092-24.567 9.264-9.155 4.283-26.427 10.955-28.362 10.955-.66 0-2.147.844-3.305 1.875-1.157 1.031-9.605 4.713-18.771 8.181-9.167 3.468-16.967 6.707-17.334 7.198-.366.491-5.142 1.955-10.612 3.254-6.568 1.56-10.585 3.275-11.83 5.051-1.35 1.929-2.874 2.5-5.386 2.02-1.927-.368-5.004.134-6.838 1.117-10.707 5.74-31.335 12.606-38.095 12.68-2.148.023-5.07.923-6.493 2-1.424 1.076-3.58 1.957-4.794 1.957-1.213 0-3.217 1.12-4.455 2.486-1.34 1.48-4.896 2.8-8.79 3.261-6.16.73-13.718 3.32-26.04 8.928-2.933 1.335-7.883 3.174-11 4.087-3.117.913-5.667 2.165-5.667 2.783 0 .617-1.366 1.122-3.036 1.122s-4.22.818-5.667 1.817c-1.446 1-4.43 2.162-6.63 2.584-6.23 1.195-21.146 6.69-24.903 9.174-1.865 1.233-6.774 3.226-10.91 4.428s-7.52 2.695-7.52 3.317c0 1.054-7.363 3.236-16.667 4.94-2.2.402-4.9 1.438-6 2.302-3.015 2.367-10.343 5.505-20 8.563-10.17 3.222-22.804 8.254-34 13.543-11.914 5.628-22.391 10.044-22.898 9.652-.247-.19-4.496 1.68-9.442 4.158-4.946 2.478-10.493 4.964-12.327 5.524-1.833.56-9.933 4.162-18 8.005-8.066 3.844-17.511 8.228-20.989 9.744l-6.322 2.756 3.27 5.746c1.799 3.161 4.444 8.23 5.878 11.266 1.435 3.035 3.158 5.735 3.83 6 .67.264 2.828 3.781 4.794 7.814 1.966 4.034 4.396 8.834 5.4 10.667 5.222 9.53 11.473 22.878 11.473 24.498 0 1.013.949 2.63 2.109 3.592 1.16.963 3.934 5.386 6.166 9.83s4.583 8.28 5.225 8.524c.641.245 1.166 1.897 1.166 3.672 0 1.775 1.2 5.466 2.667 8.202 1.467 2.737 2.667 5.692 2.667 6.567s.774 2.384 1.721 3.353c.947.97 3.69 6.862 6.097 13.095 2.406 6.234 5.79 14.634 7.52 18.667 1.73 4.033 4.084 11.412 5.232 16.396 1.148 4.985 3.234 11.585 4.635 14.667 4.323 9.51 8.331 21.155 10.879 31.604 1.34 5.5 3.109 12.4 3.929 15.333.82 2.933 2.042 7.923 2.716 11.09.673 3.165 1.548 6.28 1.945 6.922.397.642 1.364 4.652 2.15 8.91.785 4.26 2.188 9.245 3.117 11.078.93 1.833 2.906 8.133 4.393 14 1.487 5.867 3.728 13.367 4.98 16.667 6.836 18.006 13.208 45.55 14.654 63.333.477 5.867 1.753 16.367 2.837 23.333 1.083 6.967 2.8 20.167 3.815 29.334 2.185 19.737 6.92 51.906 8.626 58.595.664 2.606 1.581 8.038 2.038 12.071 1.461 12.902 4.821 35.141 6.246 41.334.758 3.3 1.896 13.5 2.527 22.666.63 9.167 1.453 18.767 1.826 21.334.374 2.566 1.331 25.066 2.128 50 .796 24.933 1.716 50.433 2.044 56.666 1.932 36.722 2.992 99.238 1.737 102.459-.838 2.151-1.028 7.99-.484 14.875 1.448 18.308.805 115.301-.87 131.333-1.548 14.814-1.816 28.49-.943 48 .856 19.112-.296 41.075-2.305 43.942-1.021 1.458-1.857 4.242-1.857 6.187 0 4.974-3.662 14.897-6.202 16.807-1.173.881-2.617 3.881-3.21 6.667-.592 2.785-1.772 7.464-2.622 10.397-5.373 18.546-5.554 21.176-7.166 103.85-.529 27.137-1.056 33.55-3.564 43.334-1.618 6.315-4.026 13.646-5.351 16.29-3.451 6.887-4.374 16.54-2.538 26.526.877 4.767 1.772 16.167 1.989 25.333.413 17.458-1.15 27.193-6.137 38.245-1.385 3.068-3.095 9.656-3.801 14.641-1.179 8.32-1.057 9.305 1.486 12.012 1.523 1.622 7.198 4.564 12.61 6.537 5.412 1.974 9.84 4.03 9.84 4.568 0 .539 2.446 1.308 5.436 1.709 2.99.4 6.488 1.68 7.772 2.842 1.284 1.162 3.188 2.157 4.23 2.21 3.32.171 9.878 4.7 10.353 7.15.395 2.041-.24 2.249-4.667 1.523-2.819-.462-9.025-.874-13.791-.916-4.767-.043-10.923-1.02-13.68-2.174-5.637-2.358-7.682-1.526-4.868 1.978 1.035 1.288 3.981 6.408 6.548 11.378 2.566 4.97 7.216 12.458 10.333 16.64 3.117 4.183 5.667 8.481 5.667 9.553 0 1.071 3.042 8.16 6.76 15.754 3.717 7.594 7.926 17.2 9.353 21.346 1.426 4.146 3.213 7.921 3.97 8.39 1.36.84 4.811 11.506 6.239 19.281.404 2.2 1.492 5.2 2.417 6.667.926 1.466 2.377 6.266 3.225 10.666 1.76 9.14 4.763 19.497 7.343 25.334.973 2.2 3.36 9.4 5.305 16 1.946 6.6 4.482 14.7 5.637 18 1.922 5.494 5.522 17.45 6.222 20.666.432 1.983 7.172 23.227 12.903 40.667 2.77 8.433 6.303 19.382 7.849 24.33 1.545 4.948 4.302 12.26 6.127 16.248 1.824 3.988 3.316 8.126 3.316 9.196 0 1.07 2.368 7.858 5.262 15.085 2.895 7.228 5.873 15.883 6.619 19.234 2.137 9.602 13.695 39.845 22.13 57.907 2.397 5.133 4.802 10.8 5.346 12.593.544 1.793 2.091 5.093 3.44 7.334 1.348 2.24 3.64 6.525 5.094 9.522 1.454 2.996 3.574 6.22 4.71 7.163 1.136.943 2.066 2.331 2.066 3.085 0 1.626 6.83 16.007 8.06 16.97.468.366 1.928 3.516 3.244 7 1.315 3.483 2.814 6.333 3.33 6.333.515 0 2.084 2.393 3.485 5.318 1.401 2.925 2.933 5.325 3.403 5.333.47.013 1.267 1.666 1.77 3.682.504 2.017 2.407 5.627 4.23 8.023 1.823 2.395 4.512 6.895 5.976 10 2.77 5.872 7.273 12.754 11.838 18.09 1.465 1.713 2.664 3.734 2.664 4.491 0 .758 1.833 3.557 4.074 6.22 7.918 9.412 8.624 10.426 11.79 16.936 3.488 7.169 15.79 24.574 17.37 24.574.54 0 1.825 1.65 2.855 3.666 2.21 4.327 6.554 10.851 8.931 13.413.928 1 3.302 3.936 5.277 6.524 1.974 2.588 5.265 6.5 7.313 8.692 2.048 2.193 3.723 4.606 3.723 5.363 0 .757 2.25 3.945 5 7.084s6.8 8.128 9 11.087c2.2 2.96 4.6 5.431 5.334 5.493.733.06 3.433 2.868 6 6.237 10.879 14.278 39.65 45.093 45.695 48.94 2.033 1.294 6.605 5.16 10.16 8.593 10.252 9.9 23.074 21.574 23.693 21.574 1.093 0 15.797 11.336 16.851 12.992.587.921 1.937 1.675 3 1.675 1.064 0 1.934.52 1.934 1.156 0 .636 2.518 2.823 5.596 4.86 3.078 2.036 6.228 4.224 7 4.861 5.72 4.72 13.565 10.433 14.34 10.443.515.013 4.736 2.67 9.38 5.916 4.644 3.246 10.121 6.324 12.172 6.838 2.05.515 4.043 1.759 4.43 2.764.385 1.006 1.536 1.829 2.558 1.829 1.022 0 1.857.477 1.857 1.06 0 .583 2.752 2.194 6.114 3.581 3.363 1.387 8.88 4.488 12.261 6.891 3.38 2.404 7.822 4.738 9.87 5.188 2.049.45 4.066 1.37 4.483 2.045.782 1.266 12.308 6.814 17.606 8.474 1.65.517 3 1.384 3 1.927 0 .543 2.55 2.043 5.666 3.334a314.962 314.962 0 0 1 11.146 4.923c3.014 1.417 6.115 2.577 6.892 2.577.777 0 3.112.862 5.188 1.915 7.26 3.685 17.627 7.418 20.6 7.418 1.65 0 5.439 1.138 8.42 2.528 2.982 1.39 6.921 2.83 8.754 3.198 3.1.623 8.989 2.564 15.334 5.052 1.466.575 4.916 1.685 7.666 2.467a772.88 772.88 0 0 1 9.428 2.755c2.436.733 5.7 1.333 7.255 1.333 1.555 0 3.197.6 3.65 1.334.454.733 3.34 1.36 6.413 1.391 3.073.032 8.288.662 11.588 1.4 3.3.739 6.91 1.491 8.023 1.672 1.113.181 2.613.678 3.333 1.103 2.106 1.243 15.731 4.742 18.644 4.787 1.466.023 6.266.697 10.666 1.499 15.297 2.786 26.75 4.343 40.667 5.529 7.7.655 18.5 1.778 24 2.493 10.653 1.387 47.406 4.855 64 6.04 5.5.393 12.4 1.008 15.333 1.368 8.966 1.1 20.468 2.03 40.223 3.254 10.39.643 19.563 1.586 20.386 2.094.823.51 7.623 1.461 15.11 2.116 28.63 2.503 41.046 3.77 43.29 4.416 1.279.368 8.025 1.067 14.991 1.553 6.967.486 13.079 1.136 13.581 1.443.975.597 19.545 2.461 45.73 4.591 8.813.717 22.923 1.94 31.356 2.718 33.59 3.097 100.033 3.867 163.354 1.893zm-287.426-819.86c-.407-.416-6.407-1.051-13.334-1.411-25.502-1.326-42.217-3.397-48.594-6.021-1.467-.604-5.367-1.87-8.667-2.815-3.3-.944-6.57-2.213-7.266-2.818-.697-.606-2.139-1.102-3.204-1.102-1.066 0-5.748-1.8-10.404-4s-9.364-4-10.462-4c-1.098 0-1.997-.56-1.997-1.244 0-.683-1.35-1.66-3-2.17s-5.807-3.401-9.238-6.424a7391.7 7391.7 0 0 1-14.508-12.829c-11.535-10.228-23.777-28.717-26.612-40.193-5.132-20.768-5.586-24.683-4.926-42.473.91-24.518 4.018-41.161 9.341-50.009.886-1.47 3.89-6.72 6.675-11.666 2.786-4.946 5.649-8.992 6.362-8.992.713 0 1.992-1.65 2.843-3.667 1.855-4.397 25.288-27.692 30.644-30.461 2.08-1.076 4.526-3.173 5.434-4.66 1.994-3.265 25.423-22.545 27.396-22.545.768 0 2.502-1.407 3.855-3.127 1.352-1.72 4.613-4.148 7.245-5.397 2.633-1.25 5.413-3.646 6.178-5.326 1.631-3.58 21.067-14.15 26.018-14.15 1.815 0 4.047-.9 4.96-2 .913-1.1 2.486-2 3.496-2 1.01 0 1.837-.576 1.837-1.28 0-.704 2.55-2.03 5.667-2.947 3.117-.917 7.765-2.89 10.33-4.387 4.353-2.538 21.353-7.624 32.003-9.575 2.567-.47 6.247-1.649 8.177-2.62 1.931-.97 5.531-2.096 8-2.501 9.217-1.511 11.674-2.237 13.007-3.843 1.516-1.827 15.592-1.89 41.483-.188 14.1.928 15.623 1.292 18.94 4.536 4.698 4.593 7.728 12.004 6.326 15.471-.593 1.467-1.121 4.271-1.172 6.231-.052 1.96-1.594 5.347-3.427 7.526-1.834 2.179-3.334 4.645-3.334 5.48 0 .836-4.989 6.452-11.087 12.482-12.499 12.359-9.47 11.055-48.913 21.058-3.3.837-9.246 3.104-13.213 5.04-3.967 1.934-7.567 3.568-8 3.632-.433.064-1.987.577-3.453 1.142-1.467.565-6.867 2.574-12 4.464-5.134 1.89-10.234 4.102-11.334 4.915-1.1.813-3.8 2.34-6 3.394-2.2 1.053-5.856 3.278-8.126 4.943-2.269 1.664-4.738 3.027-5.487 3.027-.748 0-2.791 1.118-4.54 2.485-1.75 1.367-8.716 5.334-15.481 8.816-10.896 5.608-18.963 11.48-19.068 13.88-.02.45-2.42 2.29-5.334 4.087-2.913 1.797-5.297 3.747-5.297 4.333 0 .586-.831 1.065-1.847 1.065-1.015 0-2.895 1.65-4.178 3.667-1.282 2.017-3.9 5.18-5.82 7.031-1.918 1.85-5.588 6.006-8.155 9.234-2.567 3.228-8.715 9.814-13.664 14.635-4.948 4.822-8.998 9.28-9 9.908 0 .628-1.803 3.414-4.003 6.192s-4 5.402-4 5.833c0 .43-2.095 4.057-4.656 8.06-2.56 4.003-4.326 8.139-3.922 9.19.668 1.74 7.314 6.007 18.364 11.788 2.318 1.213 6.49 2.574 9.272 3.025 2.782.452 6.082 1.366 7.334 2.033 5.23 2.786 16.63 5.37 32.282 7.318 9.163 1.14 21.16 2.74 26.66 3.557 5.5.816 37 1.812 70 2.213s65.4 1.156 72 1.677c6.6.521 16.75 1.35 22.558 1.842 7.466.632 10.84.438 11.52-.663.732-1.185 3.54-1.179 11.782.025 5.952.87 11.3 1.286 11.887.924.587-.363 3.252-.166 5.924.436 3.794.856 5.29.62 6.833-1.081 9.14-10.071 8.663-9.773 14.145-8.847 3.503.592 8.737-.031 15.916-1.891 5.884-1.525 11.934-2.773 13.446-2.773 1.512 0 4.078-.84 5.702-1.866 1.624-1.027 9.553-3.491 17.62-5.477 8.067-1.986 17.667-4.765 21.333-6.176 3.667-1.412 10.395-2.932 14.95-3.378 4.919-.483 9.254-1.715 10.67-3.034 1.351-1.26 4.693-2.261 7.716-2.312 2.932-.049 8.03-.769 11.33-1.598 3.3-.83 8.7-2.034 12-2.677 3.3-.643 9.6-2.084 14-3.204 4.4-1.119 12.8-3.038 18.668-4.264 5.866-1.226 16.066-3.981 22.666-6.123 6.6-2.142 13.094-3.894 14.432-3.893 1.337 0 6.9-1.498 12.361-3.331 5.462-1.834 11.367-3.334 13.124-3.334 1.757 0 3.407-.638 3.667-1.419.26-.78 3.16-1.774 6.445-2.207 3.284-.433 7.171-1.523 8.638-2.423 1.467-.9 6.085-2.008 10.263-2.464 4.178-.455 11.75-2.325 16.828-4.157 5.077-1.831 10.316-3.33 11.642-3.33 2.55 0 9.706-2.068 15.267-4.413 8.262-3.484 12.937-4.881 16.386-4.9 2.046-.013 6.072-1.22 8.947-2.687 2.875-1.466 6.716-2.666 8.535-2.666 1.82 0 3.626-.515 4.014-1.143.389-.629 3.574-1.494 7.079-1.922 3.505-.428 11.023-2.307 16.708-4.177 5.684-1.87 15.584-4.258 22-5.307 6.415-1.05 17.064-3.196 23.664-4.77 19.315-4.605 24.21-5.153 46-5.153 27.192 0 33.616.966 38.68 5.817 2.192 2.101 3.987 4.872 3.987 6.159 0 1.286.6 2.71 1.333 3.162 3.3 2.04.534 18-3.12 18-1.02 0-3.38 1.2-5.244 2.667-1.96 1.543-5.409 2.667-8.18 2.667-2.634 0-4.79.6-4.79 1.333s-.878 1.333-1.952 1.333c-1.074 0-2.52 1.05-3.21 2.334-1.298 2.407-16.605 8.2-29.504 11.164-4.033.927-8.926 2.77-10.872 4.094-1.947 1.325-4.382 2.408-5.412 2.408-1.03 0-3.037.881-4.461 1.958-1.423 1.077-3.968 1.977-5.654 2-1.687.023-4.694.884-6.684 1.913-1.99 1.029-7.51 2.625-12.267 3.547-4.757.923-8.95 2.03-9.316 2.463-.697.821-5.856 2.883-16 6.394-3.3 1.142-6.962 2.547-8.138 3.123-1.175.576-4.933 1.466-8.35 1.978-3.416.513-6.57 1.512-7.01 2.222-.438.71-3.58 2.487-6.983 3.95-7.16 3.08-41.293 14.452-43.374 14.452-1.758 0-24.351 6.958-39.856 12.273-6.44 2.209-12.863 3.714-14.271 3.346-1.409-.369-3.64.147-4.956 1.147-1.318.999-4.086 1.835-6.151 1.859-2.066.023-5.723 1.542-8.126 3.375-2.404 1.834-5.928 3.334-7.833 3.334-1.904 0-3.833.6-4.286 1.333-.453.733-2.751 1.333-5.107 1.333-2.356 0-8.47 1.251-13.588 2.78-5.118 1.528-12.305 3.273-15.971 3.876-3.667.603-10.267 1.691-14.667 2.417-7.901 1.303-28.147 5.999-36.095 8.372-2.252.672-5.666 1.222-7.588 1.222-1.921 0-3.864.6-4.317 1.333-.453.734-4.313 1.334-8.578 1.334-4.264 0-10.379.933-13.588 2.073-3.209 1.14-11.234 2.89-17.834 3.887-6.6.997-15.3 2.822-19.333 4.054-4.034 1.232-11.234 2.353-16 2.49-9.349.269-26.49-2.461-28.582-4.552-2.164-2.165-4.91-1.445-7.618 1.998-1.42 1.806-4.638 3.67-7.15 4.14-2.511.472-5.877 1.994-7.48 3.383-1.601 1.39-4.507 2.527-6.457 2.527-1.95 0-6.03 1.2-9.065 2.666-3.036 1.467-7.284 2.667-9.441 2.667-2.157 0-4.246.845-4.643 1.878-.487 1.27-4.098 2.185-11.142 2.827-5.733.521-11.074 1.468-11.871 2.104-.797.636-6.497 1.383-12.667 1.661s-12.118.847-13.218 1.265c-1.1.417-3.8.756-6 .753-2.2 0-25.9.393-52.666.882-26.767.488-49 .546-49.406.13zm159.405-109.184c-3.99-1.232-7.7-1.638-25.333-2.774-28.468-1.834-35.517-2.538-44-4.39-17.734-3.872-27.513-8.528-40.333-19.203-4.761-3.964.357-9.838 12.003-13.777 3.485-1.179 8.723-3.65 11.64-5.49 2.917-1.842 6.535-3.349 8.04-3.349 2.77 0 17.644-4.488 21.317-6.433 1.1-.582 11.6-3.343 23.333-6.136 11.733-2.793 22.43-5.64 23.769-6.33 1.339-.688 5.509-1.615 9.266-2.06 3.757-.445 8.318-1.58 10.136-2.523 1.818-.943 3.815-1.4 4.44-1.014.624.386 4.867-.493 9.428-1.953 4.562-1.46 11.894-3.082 16.294-3.603 4.4-.522 8.972-1.453 10.16-2.07 1.188-.615 7.188-1.435 13.334-1.82 12.697-.797 23.537-3.082 26.568-5.6 1.318-1.095 3.85-1.422 7.03-.906 3.573.58 5.633.205 7.335-1.335 1.9-1.72 3.714-1.929 9.206-1.06 4.578.723 8.526.538 11.937-.559 2.803-.901 10.197-2.014 16.43-2.472 31.294-2.299 41.65-3.393 43.09-4.551 1.703-1.37 15.955-3.893 27.22-4.817 3.837-.314 7.59-.95 8.339-1.414.75-.462 5.528-1.04 10.619-1.285 5.091-.243 12.139-1.076 15.661-1.85 19.578-4.3 27.195-5.807 34.405-6.809 4.4-.61 10.917-1.793 14.481-2.628 3.565-.834 9.865-2.07 14-2.748 4.136-.677 13.219-2.477 20.186-3.999 6.966-1.522 18.066-3.579 24.666-4.571 6.6-.993 14.664-2.79 17.92-3.993 9.009-3.33 48.33-4.495 54.968-1.63 4.538 1.96 9.112 8.068 9.112 12.169 0 2.008-3.662 9.572-6.877 14.206-1.351 1.946-2.456 4.142-2.456 4.88 0 2.079-6.983 12.247-8.411 12.247-.699 0-4.194 2.1-7.766 4.667-3.573 2.567-6.876 4.667-7.34 4.667-.464 0-2.234 1.5-3.933 3.333-1.877 2.025-4.553 3.333-6.82 3.333-2.051 0-7.63 1.296-12.397 2.88-12.163 4.041-14.666 5.018-20.264 7.908-2.712 1.4-5.97 2.546-7.239 2.546-1.269 0-4.15.553-6.402 1.229-13.33 4.001-21.307 5.992-32.673 8.153-7.015 1.333-16.355 3.359-20.755 4.5-4.4 1.142-9.674 2.085-11.72 2.097-2.046.013-6.072 1.22-8.947 2.687-3.25 1.659-7.858 2.667-12.185 2.667-3.827 0-8.801.583-11.053 1.296-18.246 5.772-22.806 6.941-28.828 7.39-3.773.28-8.346 1.484-10.162 2.674-2 1.311-7.338 2.423-13.537 2.82-5.63.36-15.035 2.062-20.901 3.781-5.867 1.72-14.267 3.824-18.667 4.677-4.4.853-12.298 2.709-17.552 4.123-5.253 1.415-11.253 2.581-13.333 2.592-2.08.013-6.182.885-9.115 1.942s-9.034 1.948-13.556 1.98c-5.097.036-10.549 1.055-14.34 2.68-3.365 1.443-7.015 2.279-8.111 1.858-1.096-.42-3.043-.328-4.326.207-1.284.535-8.634 1.154-16.334 1.377-22.579.653-52.503 1.974-54.666 2.414-1.1.223-3.8-.15-6-.828zm564-64.32c-9.794-7.963-15.333-13.275-15.333-14.704 0-.85-1.13-2.569-2.512-3.82-1.382-1.25-3.238-4.866-4.126-8.037-1.033-3.688-4.197-8.586-8.786-13.6-3.944-4.31-7.912-9.435-8.817-11.39-1.006-2.175-3.067-3.84-5.308-4.288-2.015-.403-4.65-2.238-5.854-4.077-2.069-3.157-2.03-3.605.706-8.032l2.898-4.688-3.047-4.347c-3.903-5.567-12.904-14.158-22.375-21.355-4.095-3.112-7.646-6.108-7.89-6.658-.245-.55-.976-1-1.626-1-.65 0-6.375-3.068-12.722-6.817-6.348-3.75-14.916-8.316-19.041-10.148a998.003 998.003 0 0 1-12.92-5.85c-2.982-1.385-6.282-2.522-7.334-2.527-1.052 0-3.713-.952-5.913-2.107-6.349-3.33-31.154-11.328-39.267-12.659-30.263-4.966-59.887-6.305-87.984-3.976-8.388.695-15.708.982-16.265.637-.558-.344-4.794-.04-9.415.675-4.621.716-13.202 1.663-19.069 2.105-22.518 1.697-53.613 6.766-68.666 11.196a802.74 802.74 0 0 1-17.334 4.846c-4.766 1.263-11.966 3.468-16 4.899-4.033 1.431-8.533 2.915-10 3.296-7.729 2.012-21.648 7.934-23.825 10.137-1.581 1.6-3.529 2.246-5.333 1.769-1.763-.467-6.385.966-12.175 3.774-5.133 2.49-10.845 4.853-12.693 5.253-1.848.4-4.717 1.99-6.375 3.536-1.658 1.545-5.096 3.146-7.64 3.56-2.544.412-4.625 1.271-4.625 1.908 0 .638-.694 1.16-1.541 1.16-.848 0-3.398 1.413-5.667 3.14-2.269 1.729-5.626 3.6-7.459 4.159-1.833.559-4.233 1.791-5.333 2.739-1.1.947-5.557 2.75-9.904 4.006-8.444 2.439-22.48 2.105-25.184-.599-.795-.795-3.07-1.446-5.054-1.446-5.939 0-13.24-11.433-15.453-24.196-1.675-9.66-1.616-10.536 1.132-16.667 2.48-5.536 4.04-7.047 10.814-10.47 4.353-2.2 10.915-6.25 14.582-9 3.667-2.75 7.394-5 8.282-5 .889 0 2.778-1.077 4.2-2.394 1.422-1.317 6.635-4.285 11.585-6.597 4.95-2.311 9-4.724 9-5.362 0-1.35 14.505-6.302 17.06-5.825.948.177 3.72-.91 6.156-2.416 2.438-1.507 5.368-2.74 6.513-2.74 1.144 0 2.963-.882 4.043-1.962 2.64-2.64 22.547-9.124 38.728-12.614 7.241-1.561 14.425-3.72 15.963-4.798 1.538-1.077 4.698-1.959 7.02-1.959 2.324 0 9.89-1.472 16.814-3.27 6.924-1.8 18.24-3.932 25.146-4.74 18.778-2.195 19.596-2.317 20.875-3.107 4.696-2.903 90.417-3.51 114.348-.81 23.961 2.704 56.94 8.734 65.334 11.946 1.466.561 5.917 1.7 9.89 2.53 3.973.829 10.741 3.295 15.04 5.48 4.299 2.184 8.963 3.971 10.364 3.971 1.402 0 2.871.523 3.266 1.161.395.64 2.542 1.527 4.772 1.973 2.23.446 7.193 2.265 11.028 4.043 22.797 10.568 35.294 16.89 37.647 19.043 1.47 1.346 5.37 3.884 8.667 5.64 5.46 2.91 18.286 11.993 26.66 18.878 1.832 1.507 8.4 6.758 14.594 11.668 27.899 22.117 43.646 43.237 53.346 71.548 3.187 9.3 3.615 26.56.852 34.298-2.444 6.846-9.873 14.426-14.086 14.373-1.856-.023-5.174-1.506-7.374-3.295zm-556-286.7c-17.892-1.719-37.884-4.816-52.218-8.09-4.52-1.033-9.02-1.587-10-1.231-.98.355-5.682-.273-10.448-1.396-11.742-2.768-18.625-4.159-32-6.468-11.188-1.932-31.449-6.947-33.709-8.343-1.672-1.034-17.323-3.123-28.72-3.835-5.37-.335-10.88-1.207-12.246-1.938-1.366-.73-4.905-1.329-7.864-1.329-6.926 0-32.542-3.596-39.461-5.54-6.553-1.84-21.41-7.466-26.224-9.928-5.334-2.73-19.743-18.055-20.557-21.865-.391-1.833-1.297-4.233-2.014-5.333-.716-1.1-2.012-3.65-2.88-5.667-.867-2.017-2.045-3.667-2.618-3.667-.572 0-1.047-1.05-1.055-2.333-.01-1.283-2.687-5.231-5.953-8.773-5.264-5.708-5.889-7.04-5.492-11.717.546-6.438.546-6.438 7.689-8.043 3.174-.713 6.97-2.386 8.437-3.717 3.04-2.76 12.04-5.961 13.764-4.896.632.39 11.594.79 24.36.89 12.765.098 26.51.722 30.543 1.385 4.033.664 13.079 1.465 20.1 1.78 7.023.315 16.402.984 20.843 1.486 4.583.519 9.067.359 10.37-.37 1.555-.87 4.038-.684 7.696.576 2.97 1.023 9.43 2.069 14.354 2.323 4.925.254 10.193 1.125 11.708 1.936 1.514.81 5.801 1.473 9.526 1.473 3.725 0 12.315 1.453 19.088 3.228 6.773 1.775 19.515 4.513 28.315 6.084 8.8 1.572 16.9 3.18 18 3.576 1.1.395 4.717.95 8.037 1.234 3.321.283 9.021 1.17 12.667 1.969 3.646.8 14.13 2.28 23.296 3.291 9.167 1.011 22.364 2.688 29.328 3.727 6.963 1.04 13.413 1.6 14.333 1.248.92-.353 2.722-.19 4.006.363 5.162 2.224 95.926 2.27 119 .06 4.766-.456 14.666-1.173 22-1.593 7.333-.42 15.133-1.007 17.333-1.304 2.2-.298 9.4-1.114 16-1.814 23.544-2.498 26.7-2.934 29.333-4.057 1.467-.625 6.11-1.488 10.318-1.917 11.568-1.18 32.284-11.96 38.349-19.955 4.149-5.47 9.333-16.264 9.352-19.473.013-1.833.96-6.033 2.11-9.333 2.551-7.32 2.915-36.937.54-44-.862-2.567-2.394-8.267-3.403-12.667-3-13.08-5.418-22.536-6.307-24.666-.46-1.1-1.81-5.3-3.003-9.334-1.193-4.033-4.226-12.133-6.74-18-2.514-5.866-4.57-11.566-4.568-12.666 0-1.1-.767-3.5-1.708-5.334-.94-1.833-2.786-6.183-4.102-9.666-1.315-3.484-2.942-6.334-3.615-6.334-.672 0-1.223-1.078-1.223-2.396 0-1.319-1.985-6.269-4.412-11-9.764-19.038-14.86-28.637-15.54-29.27-.393-.367-1.914-3.063-3.381-5.99-1.467-2.929-3.867-6.703-5.333-8.388-1.467-1.685-4.767-6.552-7.334-10.816-2.566-4.264-7.516-12.046-11-17.294-3.483-5.247-6.333-9.95-6.333-10.453 0-.502-1.452-2.446-3.227-4.32-1.775-1.873-5.58-6.925-8.457-11.227-6.482-9.692-16.426-20.51-58.65-63.795-8.25-8.458-15-16.042-15-16.855 0-.812-2.12-4.79-4.71-8.84-6.863-10.73-13.756-24.299-16.606-32.69-1.37-4.032-3.691-10.332-5.158-14-1.467-3.666-3.353-10.266-4.19-14.666-.838-4.4-2.054-10.1-2.702-12.666-.649-2.567-1.559-9.458-2.022-15.314-.463-5.856-1.217-11.254-1.675-11.996-3.376-5.461-3.158-103.158.309-138.357.415-4.217.994-10.817 1.286-14.667.293-3.85 1.144-10.9 1.893-15.666.748-4.767 1.347-11.367 1.33-14.667-.08-15.166 3.106-47.111 6.808-68.284 2.236-12.787 4.172-26.08 4.303-29.538.13-3.46.74-6.6 1.353-6.98.613-.379 1.115-2.731 1.115-5.228 0-4.546 3.91-22.701 7.316-33.97.998-3.3 2.17-10.5 2.604-16 .767-9.702 3.623-28.086 6.167-39.686.685-3.127 1.26-8.827 1.279-12.666.019-3.84.674-9.681 1.458-12.981 1.3-5.476 3.23-28.824 4.367-52.837.485-10.258 1.242-12.497 4.22-12.497 2.737 0 2.435-.968-2.078-6.666-2.2-2.778-4-5.634-4-6.346 0-3.11 5.692-8.321 9.097-8.328 3.943-.01 3.455.28 28.177-16.66 9.632-6.6 21.652-14.7 26.71-18 24.162-15.763 30.132-19.816 38.422-26.08 9.148-6.914 23.746-16.586 25.032-16.586 1.01 0 11.8-8.453 12.34-9.667.244-.55 1.092-1 1.884-1 1.72 0 25.952-14.32 26.572-15.703.238-.53 6.433-5.01 13.766-9.957 7.334-4.946 16.634-11.372 20.667-14.28a2468.622 2468.622 0 0 1 29.333-20.818c16.09-11.258 37.766-27.882 41.896-32.13 6.554-6.743 19.442-13.247 31.638-15.964 16.823-3.75 56.417-2.856 89.8 2.027 21.267 3.11 30.573 4.108 45.227 4.846 8.741.44 18.641 1.285 22 1.876 8.698 1.532 130.325.63 153.44-1.138 10.633-.814 23.533-1.401 28.666-1.307 10.429.193 88.877-3.605 101.333-4.906 4.4-.46 28.7-1.073 54-1.364 52.45-.602 96 1.433 96 4.487 0 4.136-2.812 6.788-8.157 7.69-3.378.572-4.884 1.33-3.875 1.954 2.815 1.74-.94 2.974-4.026 1.323-3.04-1.628-6.608.198-6.608 3.381 0 .93-2.25 2.04-5 2.466-10.192 1.58-14.985 2.887-25.667 6.995-2.567.987-8.567 2.37-13.333 3.072-4.767.702-11.967 2.29-16 3.53-4.034 1.238-11.234 2.744-16 3.346-17.053 2.154-20.686 2.91-22.045 4.59-.758.937-4.658 2.037-8.667 2.443-16.923 1.717-36.946 4.648-41.28 6.043-2.562.824-7.79 1.498-11.62 1.498-3.83 0-9.615.9-12.858 2.002-3.243 1.1-12.714 2.575-21.047 3.275-8.332.7-21.15 1.885-28.483 2.633-7.334.747-15.828 1.304-18.876 1.236-3.049-.068-6.17.265-6.938.739-1.221.754-29.418 3.123-50.853 4.27-17.685.948-64.504.416-77.319-.878-20.342-2.054-46.227-6.171-54.681-8.697-4.033-1.206-9.733-2.619-12.667-3.14-2.933-.522-6.647-1.66-8.252-2.531-1.605-.87-6.855-2.481-11.667-3.58l-17.66-4.027c-11.445-2.608-27.388-3.153-29.954-1.023-3.271 2.715-11.859 3.318-26.14 1.835-11.636-1.208-14.519-1.105-19.334.69-8.783 3.276-12.004 4.832-16.326 7.893-2.2 1.558-4.9 3.27-6 3.803-8.413 4.083-23.375 13.878-34.921 22.864-7.56 5.883-18.246 13.668-23.746 17.3-10.09 6.663-18.002 12.559-26.79 19.965-7.752 6.533-10.537 8.704-11.161 8.704-.702 0-18.424 12.203-19.382 13.346-.367.437-2.917 2.162-5.667 3.833-2.75 1.672-5.028 3.44-5.062 3.93-.035.49-2.885 2.849-6.334 5.24-13.703 9.505-15.917 11.013-24.316 16.562-11.914 7.872-13.394 8.827-17.755 11.46-2.09 1.263-6.224 4.096-9.186 6.296-2.963 2.2-6.695 4.73-8.293 5.624-1.598.893-4.484 3.087-6.413 4.875-1.93 1.787-5.488 3.907-7.908 4.71-2.42.804-6.5 2.775-9.066 4.38-2.567 1.606-9.767 5.578-16 8.827a4704.068 4704.068 0 0 0-14.93 7.808c-6.376 3.37-14.652 3.553-25.316.56-11.84-3.322-11.754-3.316-11.754-.784 0 1.1.506 2 1.124 2 .618 0 2.494 2.85 4.169 6.333 4.574 9.514 5.117 11.144 5.886 17.667.389 3.3 1.387 10.2 2.219 15.333 3.639 22.468 4.123 56.012 1.25 86.667-3.325 35.49-4.137 41.375-7.214 52.282-6.477 22.967-10.333 48.627-12.78 85.051-.74 11-1.408 20.9-1.487 22-.079 1.1-.142 16.7-.143 34.667 0 17.966-.255 39.866-.566 48.666-.791 22.382-.507 40.23.911 57.334.67 8.066 1.58 20.066 2.023 26.666.444 6.6 1.413 13.963 2.153 16.363.741 2.399 1.541 6.299 1.778 8.666.596 5.957 3.093 23.896 4.775 34.305 1.671 10.342 5.651 19.897 11.567 27.769 2.384 3.172 4.335 6.616 4.335 7.652 0 1.036 2.85 5.092 6.333 9.014 11.127 12.526 29.65 34.94 35.016 42.37 2.858 3.957 6.684 8.995 8.502 11.195 1.817 2.2 5.553 7 8.302 10.666 2.749 3.667 5.79 7.46 6.756 8.429.967.969 1.758 2.276 1.758 2.905 0 .628.822 1.965 1.827 2.97 1.005 1.005 2.897 3.895 4.204 6.424 1.307 2.528 5.585 9.57 9.506 15.648 3.921 6.078 7.13 11.387 7.13 11.798 0 .412 1.155 2.371 2.567 4.355 1.413 1.984 5.396 8.976 8.852 15.539 3.455 6.563 7.1 12.88 8.098 14.037.999 1.158 1.816 2.528 1.816 3.043 0 .516 2.618 4.969 5.818 9.895 8.893 13.69 15.393 25.334 16.38 29.34.49 1.99 2.296 5.474 4.013 7.743 1.717 2.27 3.122 4.557 3.122 5.084 0 .527 1.859 4.97 4.13 9.874 2.272 4.904 4.586 10.116 5.143 11.583.556 1.467 2.862 6.867 5.123 12 4.598 10.44 10.343 26.028 11.719 31.796.498 2.087 2.626 7.347 4.728 11.688 2.103 4.34 3.824 8.8 3.824 9.91 0 1.111 1.449 5.463 3.22 9.671 1.771 4.209 5.038 14.54 7.258 22.96 2.221 8.42 4.594 17.408 5.274 19.975 6.326 23.89 5.864 54.556-1.146 76.053-2.15 6.594-3.355 9.353-8.418 19.28a739.867 739.867 0 0 0-4.315 8.733c-1.625 3.336-3.911 6.859-5.08 7.83-1.17.97-2.127 2.59-2.127 3.6 0 1.01-.504 1.837-1.12 1.837-.615 0-1.81 1.517-2.654 3.371-.845 1.854-2.591 3.743-3.88 4.197-1.29.455-5.346 3.064-9.012 5.798-3.667 2.734-9.067 5.737-12 6.672-2.934.935-6.586 2.514-8.116 3.508-2.526 1.642-15.833 5.116-33.17 8.66-3.642.744-8.742 1.09-11.334.77-2.593-.32-6.047-.092-7.676.507-1.628.599-16.328 1.182-32.666 1.295-16.338.114-30.305.64-31.038 1.171-.734.53-7.232.609-14.44.175-12.455-.751-18.615-.42-44.894 2.408-23.051 2.48-42.583 3.958-64.666 4.89-12.467.526-26.267 1.112-30.667 1.301-4.4.19-8.9.62-10 .958-1.1.337-9.8-.136-19.333-1.052zm289.334-633.799c-2.2-1.272-6.1-3.122-8.667-4.111-5.118-1.973-16-11.65-16-14.228 0-.891-1.389-3.316-3.087-5.39-6.073-7.414-8.924-13.537-11.017-23.655-1.764-8.534-1.85-11.443-.507-17.193 2.456-10.51 3.587-11.295 15.204-10.55 11.842.76 17.64-.91 38.864-11.2 8.135-3.944 15.464-7.17 16.288-7.17.824 0 3.468-.845 5.877-1.878 19.15-8.214 23.955-10.122 25.48-10.122.959 0 5.263-1.8 9.565-4s8.633-4 9.624-4c.992 0 3.167-.894 4.834-1.987 1.667-1.092 6.296-2.599 10.287-3.348 3.99-.75 8.77-2.475 10.623-3.833 1.853-1.36 5.453-2.8 8-3.204 2.548-.403 9.732-2.634 15.965-4.96 6.234-2.324 14.634-5 18.667-5.947 10.125-2.376 24.009-6.468 36.667-10.807 5.866-2.011 12.766-4.378 15.333-5.26l15.333-5.254c5.867-2.009 13.967-4.129 18-4.711 4.034-.583 10.034-2.079 13.334-3.325 3.3-1.246 8.4-2.74 11.333-3.32 9.45-1.867 22.566-5.629 26.281-7.536 1.988-1.021 7.83-2.743 12.983-3.827 5.153-1.084 10.426-2.543 11.719-3.241 1.293-.7 7.15-2.298 13.017-3.553 9.8-2.096 20.573-5.645 26.315-8.668 2.795-1.472 17.018-1.64 17.018-.2 0 .56 2.298 2.438 5.107 4.174 2.808 1.736 6.174 4.727 7.48 6.648 1.305 1.92 4.747 5.165 7.65 7.21 2.9 2.044 6.091 5.644 7.09 8 .997 2.355 3.057 5.037 4.577 5.96s2.763 2.897 2.763 4.387c0 1.49 1.288 4.452 2.863 6.582l2.862 3.872-2.924 6.797c-5.864 13.63-15.89 22.636-30.646 27.523-4.852 1.607-12.122 4.768-16.155 7.025-4.033 2.256-15.133 6.56-24.667 9.565-18.424 5.805-19.304 6.125-28.754 10.45-3.348 1.534-6.77 2.788-7.604 2.788-.833 0-7.994 2.649-15.912 5.886-7.918 3.237-18.296 6.862-23.063 8.055-7.47 1.869-15.055 4.406-26 8.698-11.092 4.348-22.271 8.14-27.333 9.27-3.3.738-10.689 3.16-16.419 5.382-5.73 2.223-11.86 4.042-13.621 4.042-3.5 0-12.253 3.683-15.056 6.333-.969.917-2.57 1.667-3.558 1.667s-3.496.852-5.572 1.894c-5.171 2.595-19.272 7.686-31.774 11.473-4.4 1.333-14 4.239-21.334 6.457-7.333 2.218-14.833 4.31-16.666 4.648-1.834.337-6.234 1.87-9.778 3.404-3.544 1.535-8.353 2.79-10.686 2.79-2.334 0-6.394 1.154-9.023 2.563-10.619 5.691-43.184 7.56-51.18 2.935zm-759.469-136.722c-.292-.28-9.094-.842-19.559-1.248-10.465-.406-19.548-1.059-20.183-1.452-.636-.392-5.273-1.04-10.306-1.438-23.993-1.9-39.869-4.45-50.528-8.12-2.958-1.018-7.008-1.85-9-1.85s-3.622-.6-3.622-1.334c0-.733-1.68-1.333-3.733-1.333-2.054 0-4.304-.51-5-1.133-.697-.623-3.967-2.168-7.267-3.434-3.3-1.265-12.6-5.58-20.667-9.59l-14.666-7.292-48.667-.606c-43.158-.538-76.484-2.005-92.667-4.08-2.933-.377-8.033-1.018-11.333-1.426-3.3-.407-7.01-1.273-8.246-1.924-1.235-.65-3.675-1.182-5.422-1.182-1.748 0-6.697-1.8-10.999-4-4.301-2.2-8.287-4-8.857-4-1.513 0-13.263-12.826-16.252-17.741-1.409-2.317-3.284-4.822-4.166-5.569-.883-.746-2.397-3.888-3.365-6.983-2.175-6.954-1.09-27.964 1.723-33.352 1.059-2.029 3.462-6.688 5.341-10.355 2.916-5.69 4.253-6.91 9.117-8.332 6.836-1.997 10.043-1.21 11.135 2.734 3.003 10.839 4.68 12.716 13.92 15.576 12.938 4.004 21.996 5.164 47.404 6.069 12.467.444 26.567 1.09 31.334 1.436 4.766.346 23.966 1.198 42.666 1.893 32.64 1.214 68.942 4.953 74.175 7.64 1.677.861 3.775.74 6.416-.373 2.158-.91 6.208-1.347 9-.973 5.846.784 5.933.58 2.568-6.056-1.38-2.721-2.932-8.071-3.45-11.89-.855-6.293-1.805-7.82-10.16-16.324-8.831-8.992-11.3-14.04-7.549-15.437.917-.342 5.945-.79 11.175-.996 10.71-.424 12.188-1.266 16.315-9.289 4.084-7.94 19.556-17.742 30.082-19.057 4.105-.513 7.781-1.446 8.169-2.074.388-.628 3.119-1.791 6.069-2.585 2.95-.795 5.154-2.072 4.898-2.838-.632-1.896-18.04-7.714-23.211-7.756-2.294-.02-6.325-.935-8.958-2.035-2.632-1.1-6.57-2-8.75-2-2.18 0-4.335-.6-4.789-1.333-.453-.733-1.971-1.333-3.374-1.333-1.402 0-5.941-1.5-10.087-3.334-4.145-1.833-9.142-3.333-11.105-3.333-1.962 0-4.137-.538-4.834-1.195-.696-.658-4.566-2.569-8.6-4.248-4.033-1.678-8.764-4.14-10.513-5.471-1.749-1.33-4.101-2.42-5.228-2.42-1.127 0-2.996-.817-4.154-1.816-1.157-.999-7.202-3.168-13.432-4.82-6.23-1.652-12.514-3.835-13.963-4.85-1.45-1.016-3.58-1.847-4.731-1.847-2.91 0-31.207-14.422-39.312-20.036-7.43-5.146-24.667-21.651-24.667-23.619 0-.695-1.105-2.265-2.457-3.489-3.56-3.222-9.2-15.275-10.227-21.856-.797-5.113-.616-5.666 1.854-5.666 1.506 0 5.308.809 8.45 1.798 10.158 3.196 19.578 5.11 20.958 4.256.741-.457 2.788.112 4.55 1.266 1.76 1.155 6.206 2.455 9.879 2.89l6.676.79 1.575-4.77c.865-2.623 2.71-5.13 4.1-5.571 3.888-1.234 11.542.652 14.095 3.473 1.262 1.394 3.194 2.534 4.295 2.534 1.1 0 4.044 1.559 6.541 3.464 2.498 1.904 6.454 3.97 8.793 4.59 3.97 1.052 23.91 3.183 43.368 4.635 4.647.347 9.147 1.076 10 1.62.853.543 6.05 1.43 11.55 1.972 5.5.542 13.3 1.598 17.334 2.347 4.033.75 12.133 1.968 18 2.71 5.866.74 15.08 2.243 20.476 3.338 5.395 1.095 12.353 1.991 15.462 1.991 3.108 0 7.599.971 9.978 2.158 2.937 1.465 6.427 1.956 10.87 1.53 4.233-.407 7.024-.054 7.898 1 1.51 1.819 14.457 3.116 36.976 3.706 9.423.247 15.59.99 16.6 2 .884.883 2.846 1.606 4.361 1.606 3.84 0 38.284 8.72 48.379 12.248 8.106 2.832 10.405 5.338 6.333 6.9-1.1.423-2 2.194-2 3.937 0 3.445-3.718 7.582-6.814 7.582-1.066 0-2.05 1.36-2.188 3.02-.226 2.733.768 3.25 10.376 5.41 5.844 1.314 10.626 2.974 10.626 3.689 0 .715 1.203 1.745 2.672 2.288 1.47.544 6.42 4.357 11 8.473 4.58 4.116 10.578 9.414 13.328 11.773 2.75 2.36 5 5.085 5 6.056 0 .972.772 2.56 1.715 3.529 2.292 2.356 7.63 16.595 7.576 20.214-.05 3.428-2.084 6.179-6.624 8.959-2.624 1.606-4.895 1.796-10.667.89-4.033-.634-8.533-1.176-10-1.205-1.467-.029-8.667-1.137-16-2.46-15.087-2.723-32.902-5.495-55.333-8.607-8.434-1.17-21.034-3.007-28-4.081-6.967-1.074-19.225-2.59-27.241-3.366-8.016-.778-15.516-1.917-16.667-2.532-1.15-.615-5.692-1.127-10.092-1.136-4.4-.01-9.69-.67-11.754-1.466-8.67-3.345-6.093-1.058 3.552 3.153 10.738 4.688 19.51 9.958 19.526 11.732.01.55.759 1 1.674 1 .916 0 5.35 3.75 9.853 8.333 4.504 4.584 11.104 11.035 14.668 14.336 9.864 9.136 11.365 11.605 12.121 19.947.636 7.013.384 7.93-3.35 12.182-2.774 3.16-4.339 6.673-5.003 11.233-1.217 8.35-3.211 12.287-8.697 17.166-3.902 3.472-4.12 4.029-2.134 5.48 2.848 2.083 2.784 3.596-.403 9.542-1.437 2.681-2.253 5.457-1.813 6.169 1.12 1.812 17.196.134 28.99-3.027 5.344-1.432 15.985-3.198 23.648-3.924 7.662-.726 14.978-1.722 16.258-2.213 3.587-1.376 9.895 6.515 10.977 13.732.489 3.262 2.636 9.538 4.772 13.946 3.033 6.261 3.897 9.921 3.95 16.725.065 8.645.018 8.759-6.334 15.208-3.52 3.574-7.1 6.498-7.954 6.498-.855 0-2.33.935-3.278 2.077-3.803 4.583-10.71 5.947-33.805 6.676-12.539.396-24.058.978-25.6 1.293-1.54.315-3.04.343-3.333.063zm862.802-25.6c-7.004-1.16-14.106-3.736-16.753-6.076-1.513-1.338-3.243-2.433-3.842-2.433-1.913 0-10.07-9.436-12.824-14.835-2.89-5.666-5.151-19.823-5.19-32.498-.022-7.455 1.58-13.892 7.63-30.667 3.958-10.977 12.225-23.317 19.456-29.044 2.943-2.331 6.665-5.553 8.272-7.159 1.606-1.606 6.295-4.825 10.419-7.152 6.926-3.91 7.661-4.793 9.632-11.572 1.257-4.325 1.643-7.83.939-8.534-.704-.704-4.305-.102-8.767 1.467-4.164 1.463-8.495 2.661-9.623 2.661-1.129 0-3.093.591-4.367 1.314-3.443 1.954-38.975 11.743-47.903 13.198-4.26.694-10.445 2.147-13.745 3.23-9.484 3.11-35.899 4.047-43.294 1.536-3.45-1.171-7.932-1.728-10.388-1.29-6.464 1.153-21.787-4.886-27.092-10.678-2.339-2.554-4.882-4.643-5.65-4.643-.768 0-1.79-1.24-2.271-2.755-.48-1.515-2.75-4.89-5.042-7.5-4.153-4.73-4.167-4.795-3.858-18.648.17-7.645 1.048-15.559 1.952-17.587.903-2.028 4.342-6.114 7.642-9.08 5.814-5.227 6.373-5.423 18-6.303 11.692-.885 19.45-3.097 33.334-9.506 3.666-1.693 11.166-4.561 16.666-6.375 5.5-1.813 11.8-3.892 14-4.62 2.2-.729 9.1-2.935 15.334-4.903 6.233-1.968 12.533-4.085 14-4.704 1.466-.619 5.366-1.812 8.666-2.652 7.906-2.013 9.452-2.454 33.334-9.525 2.566-.76 8.74-2.226 13.717-3.259 4.977-1.032 10.188-2.486 11.579-3.23 1.39-.744 5.418-1.372 8.95-1.396 3.531-.023 7.585-.923 9.009-2 1.423-1.076 4.538-1.957 6.92-1.957 2.384 0 4.683-.566 5.11-1.257.428-.69 3.613-1.648 7.08-2.127 3.465-.479 11.701-2.284 18.301-4.011 11.123-2.91 25.62-5.976 40.997-8.669 3.481-.61 6.828-1.416 7.437-1.792 1.804-1.115 28.222-4.811 34.39-4.811 3.127 0 6.057-.6 6.51-1.333.453-.734 3.002-1.334 5.665-1.334 4.583 0 13.55-1.344 27.001-4.046 7.241-1.455 44.41-4.734 74.868-6.604 22.584-1.387 54.805-.074 67.778 2.762 15.658 3.422 22.766 6.846 33.68 16.222 2.348 2.016 4.644 3.666 5.102 3.666.459 0 1.916 2.4 3.24 5.334 1.322 2.933 2.913 5.333 3.535 5.333 1.816 0 1.302 5.923-.758 8.74-1.431 1.957-4.255 2.81-11.666 3.526-14.192 1.37-18.033 1.988-20.013 3.22-.971.604-4.466 1.224-7.766 1.377-10.52.488-36.447 4.124-45.373 6.362-4.744 1.19-11.627 2.735-15.293 3.434-37.083 7.065-52.42 10.78-61.334 14.855-7.856 3.592-14.782 5.474-35.956 9.773-5.842 1.186-11.548 2.994-12.679 4.018-1.13 1.023-6.85 3.13-12.71 4.684-5.86 1.552-11.855 3.36-13.321 4.016-3.838 1.718-15.191 5.328-16.756 5.328-.73 0-5.658 2.1-10.949 4.667-5.29 2.567-10.752 4.667-12.136 4.667-1.384 0-4.986.634-8.005 1.41-19.98 5.134-24.356 8.2-14.161 9.922 2.93.495 5.632 1.395 6.007 2.001.374.606 3.022 1.497 5.884 1.98 2.862.484 6.308 1.717 7.66 2.74 1.35 1.024 3.658 1.88 5.127 1.904 1.469.023 4.37 1.843 6.446 4.043 2.076 2.2 5.075 4.014 6.662 4.03 3.707.04 19.505 13.434 19.59 16.608.02.749 2.056 2.86 4.523 4.69 3.495 2.592 5.253 5.602 7.963 13.63 3.963 11.74 4.34 18.99 1.485 28.603-4.038 13.597-34.753 40.666-61.34 54.059-8.072 4.065-17.51 9.567-24.442 14.247-11.151 7.529-16.742 10.754-18.686 10.777-.987.012-3.389 1.158-5.338 2.546-8.454 6.02-39.868 12.029-52.2 9.985zm13.298-77.143c1.48-1.34 2-3.468 1.626-6.667-.44-3.765-1.116-4.688-3.403-4.642-3.247.064-9.407 8.58-8.297 11.471.923 2.407 7.35 2.303 10.074-.162zM342.863 243.63c-.154-18.329.122-21.667 1.792-21.667 2.409 0 3.996 5.618 2.738 9.688-.507 1.639-1.692 9.879-2.634 18.312l-1.713 15.334z" style="fill:#000;stroke-width:1.33333"/>
</svg>
