<svg xmlns="http://www.w3.org/2000/svg" xml:space="preserve" width="3453.333" height="3973.333">
  <path d="M2473.81 3565.98c0-.379-4.35-.82-9.667-.982-5.316-.16-13.866-.568-19-.904-30.339-1.99-43.156-2.37-56.666-1.679-5.5.282-12.99.072-16.642-.467-3.653-.537-8.105-.421-9.893.258-3.861 1.468-23.684 1.671-36.799.377-5.133-.506-9.933-.84-10.666-.74-4.623.625-36.762.403-55.334-.383-65.754-2.783-86.973-3.199-88.947-1.743-.965.712-4.18.568-8-.358-11.856-2.877-13.423-2.955-17.91-.894-3.338 1.533-7.526 1.912-16.476 1.493-6.6-.31-12.9-.58-14-.6-12.938-.241-19.561.067-30.139 1.397-10.772 1.356-13.376 1.278-19.042-.576-5.578-1.825-7.233-1.885-11.024-.404-3.4 1.328-13.822 1.65-43.795 1.358-39.783-.39-46.766-.727-51.02-2.468-1.294-.53-3.585-.64-5.09-.247-1.506.394-4.347.179-6.314-.477-1.967-.657-13.776-2.43-26.243-3.942-12.466-1.512-22.855-3.296-23.086-3.966-.231-.67-3.381-.866-7-.438-4.207.498-6.58.274-6.58-.622 0-1.518-4.774-2.434-19.334-3.714-5.133-.451-11.433-1.104-14-1.45-2.566-.347-5.866-.523-7.333-.392-5.785.518-9.818.269-12.187-.752-1.364-.588-10.878-1.274-21.143-1.524-10.266-.25-18.815-.909-19-1.463-.38-1.143-16.74-.984-19.806.193-1.28.49-1.663.219-1.062-.753.674-1.09-.68-1.304-4.78-.754-3.146.422-7.093.245-8.772-.393-1.76-.669-8.281-.619-15.402.117-8.242.853-12.8.83-13.7-.07-1.819-1.82-6.59-1.707-8.497.2-.852.853-5.322 1.672-9.933 1.821-4.612.15-18.489.954-30.839 1.788-12.35.834-23.026 1.163-23.725.731-.699-.432-1.994-.203-2.879.508-1.036.833-7.012.84-16.798.017-8.354-.702-16.754-.867-18.667-.368-3.202.835-13.842.819-34.143-.053-9.181-.394-15.596-1.825-14.698-3.277.34-.55-.929-.703-2.818-.342-2.004.383-3.875-.057-4.493-1.056-.656-1.06-4.698-1.883-10.612-2.16-5.254-.245-12.234-1.356-15.512-2.469-3.278-1.113-6.84-2.023-7.914-2.023-1.074 0-1.953-.677-1.953-1.504 0-1.015-1.844-1.225-5.667-.648-4.169.63-5.138.483-3.667-.554 1.572-1.108 1.144-1.352-2-1.138-2.2.15-7.384-1.263-11.52-3.138-4.136-1.875-9.536-3.838-12-4.362-2.464-.524-5.38-1.706-6.48-2.626-1.847-1.544-8.16-3.759-11.36-3.984-.748-.052-3.241-1.434-5.54-3.07-2.297-1.638-4.59-2.976-5.095-2.976-.504 0-2.443-1.2-4.307-2.667-1.865-1.467-4.774-2.667-6.465-2.667-1.691 0-3.448-.604-3.904-1.342-.767-1.24-8.209-6.229-25.543-17.125-3.785-2.379-7.216-5.197-7.625-6.262-.409-1.066-1.662-1.937-2.785-1.937-1.123 0-3.154-1.05-4.513-2.334-8.243-7.784-15.42-12.992-22.224-16.127-1.482-.683-3.534-2.809-4.559-4.724-1.025-1.915-2.362-3.482-2.971-3.482-.61 0-1.109-.66-1.109-1.465 0-.806-1.65-3.09-3.666-5.077-5.424-5.343-13.676-15.412-15.565-18.991-.91-1.724-4.154-6.683-7.21-11.022-3.058-4.338-5.559-8.392-5.559-9.01 0-.617-3.275-7.868-7.277-16.112-4.003-8.244-8.848-19.49-10.766-24.99-1.919-5.5-4.644-12.543-6.056-15.652s-2.567-6.856-2.567-8.328c0-1.472-1.162-6.128-2.582-10.348-2.449-7.277-6.14-25.786-9.24-46.338a7296.56 7296.56 0 0 0-4.108-26.667c-1.486-9.533-3.034-21.233-3.44-26-.803-9.412-1.6-14.716-6.612-44-1.82-10.633-3.67-22.033-4.11-25.333-.441-3.3-1.59-8.112-2.555-10.693-.964-2.581-2.752-10.981-3.973-18.667-2.662-16.747-5.492-30.483-7.96-38.64-.999-3.3-2.819-10.5-4.044-16-1.225-5.5-3.41-13.52-4.854-17.823-1.445-4.303-4.065-14.803-5.822-23.334-1.758-8.53-4.77-21.21-6.694-28.177-1.923-6.966-3.823-14.166-4.222-16-.398-1.833-1.863-7.146-3.254-11.807-1.392-4.66-2.54-10.96-2.551-14-.021-5.503-2.047-14.776-5.724-26.193-2.682-8.328-4.486-15.83-7.537-31.333-1.443-7.333-3.515-17.833-4.605-23.333-1.09-5.5-2.937-17.2-4.106-26-1.168-8.8-3.067-21.7-4.22-28.667-1.152-6.967-2.315-14.467-2.584-16.667-1.595-13.044-4.9-44.865-6.024-58a3962.48 3962.48 0 0 0-2.572-28.666c-.693-7.334-1.835-20.534-2.537-29.334s-1.944-19.3-2.76-23.333c-.817-4.033-2.05-12.133-2.741-18l-2.44-20.675c-.652-5.504-1.816-12.404-2.588-15.333-.771-2.929-2.332-12.081-3.467-20.338-4.316-31.384-13.019-70.684-22.067-99.654-1.603-5.133-3.416-11.733-4.03-14.667-.612-2.933-1.822-7.133-2.688-9.333-.866-2.2-2.67-7.6-4.008-12-1.337-4.4-5.244-15.8-8.68-25.333-3.436-9.534-6.931-19.734-7.767-22.667-.835-2.933-1.862-5.933-2.282-6.667-.42-.733-2.725-7.633-5.121-15.333-2.397-7.7-6.404-18.8-8.905-24.667-2.501-5.866-4.543-11.218-4.537-11.893.01-.675-3.3-9.5-7.345-19.613-4.046-10.113-7.737-20.36-8.202-22.774-.466-2.412-1.656-5.57-2.644-7.016-.99-1.447-1.798-3.962-1.798-5.588 0-1.627-.549-3.297-1.219-3.712-.67-.414-2.841-5.1-4.824-10.412-4.798-12.85-5.959-15.699-8.042-19.733-.968-1.875-3.32-8.175-5.225-14-1.905-5.826-4.84-13.592-6.52-17.259-2.968-6.473-4.43-10.22-8.322-21.333-1.027-2.933-2.466-6.38-3.198-7.66-.732-1.279-2.586-6.379-4.12-11.333-2.43-7.845-5.16-14.567-14.15-34.836-1.096-2.473-2.485-6.073-3.087-8-2.607-8.353-6.672-18.042-7.885-18.791-.723-.447-3.193-5.89-5.49-12.097a8459.92 8459.92 0 0 0-6.017-16.213c-2.995-8.025-12.797-29.633-14.064-31.003-.644-.696-1.17-2.61-1.17-4.254 0-1.643-.554-3.33-1.231-3.748-.677-.419-1.655-2.704-2.174-5.08-.518-2.374-2.527-6.717-4.464-9.65-1.937-2.934-3.515-5.934-3.508-6.667.02-1.917-9.58-26.694-12.78-32.982-.647-1.273-1.177-2.903-1.177-3.62 0-.718-1.812-4.163-4.026-7.655-2.215-3.492-3.75-7.069-3.413-7.948.338-.88-.25-2.318-1.307-3.194-1.056-.877-1.924-2.27-1.929-3.098-.004-.827-.912-3.237-2.017-5.356-1.105-2.118-4.096-9.857-6.646-17.196-2.55-7.34-6.4-16.106-8.554-19.481s-5.165-9.322-6.69-13.215c-1.526-3.893-4.869-10.958-7.43-15.7-2.56-4.742-4.655-9.515-4.655-10.607 0-1.091-.534-3.026-1.187-4.3-3.13-6.102-10.813-23.095-10.813-23.914 0-.96-6.724-11.229-8.12-12.4-.436-.367-1.202-2.763-1.701-5.324-1.118-5.736-3.818-12.01-5.168-12.01-1.156 0-7.677-13.06-7.677-15.376 0-.85-1.166-2.6-2.591-3.889-1.425-1.29-2.96-4.02-3.41-6.068-.449-2.048-1.983-4.78-3.408-6.069-1.425-1.29-2.591-3.716-2.591-5.393 0-1.676-.565-3.397-1.255-3.823-.69-.427-3.481-5.412-6.203-11.079-2.72-5.667-6.356-12.541-8.078-15.277-1.722-2.735-3.13-5.812-3.13-6.836 0-1.025-.834-2.555-1.853-3.4-1.018-.846-2.515-4.173-3.327-7.395-.855-3.397-2.878-6.962-4.814-8.485-1.837-1.445-3.34-3.47-3.34-4.502 0-1.031-.528-2.445-1.172-3.141-.645-.697-1.87-3.452-2.723-6.122-2.196-6.88-6.393-7.403-12.908-1.607-2.758 2.454-5.763 4.462-6.678 4.462-.914 0-2.48.75-3.48 1.667-2.367 2.17-6.52 4.82-9.04 5.77-1.1.416-2.9 1.315-4 2-1.1.684-4.55 2.56-7.666 4.169-3.117 1.609-5.667 3.706-5.667 4.66 0 .953-.881 1.734-1.958 1.734-1.707 0-8.156 2.784-15.69 6.774-1.274.674-3.224 1.226-4.333 1.226-1.11 0-3.176 1.05-4.59 2.333-5.085 4.616-6.68 5.667-8.594 5.667-1.07 0-2.146.562-2.39 1.25-.564 1.585-23.308 13.417-25.792 13.417-1.02 0-2.407.99-3.084 2.199-.677 1.21-3.257 2.418-5.733 2.687-2.476.268-5.402 1.642-6.502 3.053-1.1 1.411-3.8 2.982-6 3.49-2.2.509-7 2.277-10.667 3.93-3.667 1.651-9.667 4.075-13.333 5.385-3.667 1.31-7.39 2.93-8.275 3.6-.885.67-2.239.829-3.01.352-.77-.476-1.76.072-2.2 1.22-.44 1.146-1.855 2.084-3.145 2.084-1.289 0-3.83 1.168-5.646 2.597-1.919 1.51-4.43 2.302-5.996 1.892-1.743-.456-2.992.072-3.538 1.495-.58 1.51-1.7 1.927-3.581 1.33-1.505-.477-3.458-.306-4.34.38-.881.687-4.003 1.881-6.936 2.655-6.518 1.72-14.43 4.702-15.333 5.78-.367.438-3.844 1.163-7.728 1.611-5.977.69-7.403.414-9.296-1.796-1.64-1.916-3.93-2.611-8.606-2.611-4.553 0-6.37-.53-6.37-1.856 0-1.02-1.5-2.231-3.334-2.692-2.412-.605-3.333-1.732-3.333-4.078 0-1.783-.78-3.721-1.733-4.308-4.085-2.512-8.127-10.283-7.79-14.978.186-2.615-.62-7.049-1.794-9.853-1.174-2.804-1.792-6.174-1.374-7.49 1.004-3.166-1.767-10.573-3.13-8.367-.769 1.243-1.607 1.165-3.59-.336-2.427-1.835-2.278-1.96 2.378-2 4.897-.04 4.954-.102 4.049-4.375-.505-2.384-.85-5.534-.766-7 .083-1.467.313-5.817.512-9.667.369-7.178.948-8.09 3.508-5.53 1.07 1.07 2.5.707 5.267-1.339 2.09-1.544 7.698-3.782 12.464-4.972 4.766-1.19 9.387-2.738 10.269-3.439.881-.7 3.259-1.456 5.282-1.678 2.024-.222 3.904-1.076 4.178-1.898.274-.822 1.138-1.099 1.92-.615.782.483 2.08 0 2.886-1.075 1.837-2.45 6.13-4.14 6.13-2.412 0 2.178 1.803 1.423 6.515-2.73 2.483-2.188 5.513-3.979 6.733-3.979 1.22 0 2.79-.51 3.486-1.133.697-.623 3.933-2.164 7.192-3.425 3.259-1.262 8.2-4.095 10.98-6.297 3.288-2.604 5.928-3.727 7.553-3.21 1.453.46 3.204-.058 4.183-1.238.927-1.117 2.438-2.03 3.359-2.03.92 0 2.407-.884 3.304-1.965.897-1.08 3.82-2.367 6.496-2.86 2.677-.492 6.297-2.008 8.046-3.368 1.75-1.36 4-2.474 5-2.474 1.001 0 1.82-.533 1.82-1.185 0-.651 2.157-1.59 4.792-2.084 2.636-.494 8.186-2.596 12.334-4.671 4.147-2.075 9.041-4.22 10.874-4.766 1.834-.547 4.787-2.129 6.563-3.516 3.61-2.82 14.252-7.778 16.694-7.778.871 0 6.744-2.7 13.05-6 6.307-3.3 12.568-6.013 13.914-6.03 1.345-.015 3.946-1.202 5.78-2.636 1.833-1.434 4.123-2.621 5.089-2.638 2.163-.036 10.91-9.13 10.91-11.342 0-2.14-4.642-6.267-5.774-5.134-.49.49-.942.341-1.003-.33-.405-4.448-1.147-7.507-3.598-14.823-1.523-4.547-3.685-10.247-4.805-12.667-1.12-2.42-3.214-7.4-4.655-11.066-1.44-3.667-3.178-6.547-3.861-6.4-.684.148-2.012-3.152-2.953-7.333-.94-4.18-3.13-10.569-4.864-14.196-1.734-3.627-3.153-7.377-3.153-8.333 0-.956-.524-1.738-1.163-1.738-.64 0-1.536-2.335-1.993-5.188-.456-2.854-1.733-5.535-2.837-5.958-1.21-.465-2.007-2.47-2.007-5.051 0-4.21-.78-7.167-5.42-20.523-1.283-3.695-2.766-9.695-3.296-13.333-.53-3.638-1.801-8.264-2.825-10.28-1.024-2.017-1.329-3.667-.678-3.667 1.454 0 .353-6.427-1.274-7.432-.646-.4-1.174-2.455-1.174-4.568 0-2.114-.59-4.208-1.313-4.654-.722-.447-1.256-2.132-1.186-3.746.385-8.89-3.283-35.753-5.316-38.934-.996-1.56-1.17-25.996-.185-25.997.367 0 .549-11.252.404-25.002-.145-13.75.363-28.6 1.127-33 .765-4.4 1.483-10.4 1.596-13.334.114-2.933.99-5.95 1.948-6.704 1.734-1.364 3.065-7.686 5.884-27.963.9-6.468 2.269-11.247 3.479-12.14a3.223 3.223 0 0 0 1.108-3.787c-.488-1.273-.453-3.01.079-3.86.532-.85 1.101-2.435 1.265-3.522.164-1.087.93-2.187 1.704-2.444.773-.258 1.406-1.396 1.406-2.53 0-1.133 1.5-6.22 3.333-11.302 1.834-5.082 3.334-11.005 3.334-13.16 0-2.157.6-3.921 1.333-3.921s1.333-.827 1.333-1.837.9-2.584 2-3.497c1.1-.913 2-2.745 2-4.072s1.72-5.903 3.823-10.17a1006.485 1006.485 0 0 0 7.558-15.758c2.054-4.4 4.834-9.43 6.177-11.18 1.343-1.748 2.442-4.569 2.442-6.267 0-1.698.8-3.567 1.775-4.153.977-.587 2.679-2.866 3.783-5.066 1.105-2.2 3.906-7.464 6.225-11.697 2.32-4.233 4.217-8.298 4.217-9.032 0-1.504 8.021-13.513 12.438-18.621 3.888-4.497 12.896-18.315 12.896-19.783 0-.645 1.79-3.204 3.978-5.687 2.189-2.482 3.989-5.3 4-6.26.012-.959.558-1.413 1.213-1.008s1.565-.752 2.021-2.571c.457-1.82 2.35-4.303 4.206-5.52 1.857-1.216 4.263-4.074 5.348-6.35 3.518-7.383 5.213-9.708 11.607-15.922 3.462-3.364 6.293-7.275 6.293-8.69 0-1.416.938-2.934 2.085-3.374 1.146-.44 1.74-1.356 1.32-2.036-.42-.68.595-2.334 2.256-3.676 1.66-1.342 3.994-3.94 5.184-5.773 1.19-1.834 3.87-5.134 5.953-7.334 5.267-5.562 11.827-14.212 12.893-17 .49-1.283 1.71-2.333 2.709-2.333 1 0 2.568-1.405 3.487-3.121.918-1.717 5.82-6.873 10.892-11.459 5.072-4.585 9.221-9.372 9.221-10.638 0-1.265 2.994-4.958 6.653-8.208 3.66-3.249 6.66-6.672 6.667-7.607.008-.935 1.364-2.23 3.014-2.878 3.006-1.182 7.666-5.912 7.666-7.783 0-.549 4.2-5.102 9.334-10.118 5.133-5.016 9.333-9.66 9.333-10.32 0-.661.624-1.201 1.387-1.201 2.061 0 9.274-5.615 9.316-7.251.035-1.364 8.747-11.416 9.895-11.416 1.09 0 15.419-14.874 16.782-17.42.76-1.419 2.26-2.58 3.334-2.58 1.074 0 1.968-.75 1.987-1.667.02-.916 2.318-2.718 5.11-4.003 2.791-1.285 5.906-3.89 6.922-5.788 1.016-1.898 4.998-5.543 8.849-8.099 3.85-2.555 8.37-6.16 10.043-8.008 1.673-1.848 4.477-4.652 6.23-6.231 1.755-1.579 5.355-5.202 8-8.05 2.647-2.85 6.788-6.018 9.203-7.043 2.415-1.024 4.758-2.893 5.206-4.153.981-2.764 10.756-12.291 12.61-12.291 1.598 0 5.126-3.382 5.126-4.913 0-.607 1.907-1.947 4.238-2.979 2.33-1.032 7.88-4.93 12.333-8.662 4.453-3.733 10.496-8.354 13.43-10.27 2.932-1.915 7.008-5.17 9.056-7.234 3.671-3.7 5.575-4.979 13.763-9.245 2.284-1.19 5.41-3.334 6.944-4.764 1.535-1.43 3.773-2.6 4.972-2.6 1.2 0 2.494-1.2 2.878-2.667.383-1.466 1.434-2.666 2.335-2.666.9 0 2.724-1.2 4.051-2.667 1.327-1.467 3.186-2.667 4.131-2.667.945 0 2.502-1.05 3.46-2.335.958-1.284 4.142-3.177 7.076-4.206 5.304-1.862 12.443-6.247 14.313-8.792.539-.733.989-.814 1-.178.01.635 2.355-.865 5.208-3.334 10.234-8.853 12.395-10.489 13.925-10.545.855-.03 5.754-2.733 10.887-6.004 5.133-3.272 10.533-6.481 12-7.132 1.467-.65 5.802-3.349 9.635-5.995 3.832-2.647 7.325-4.812 7.762-4.812.436 0 1.693-.9 2.792-1.998 1.098-1.099 3.593-2.398 5.542-2.888 1.95-.489 6.258-2.768 9.574-5.064 3.315-2.296 7.828-5.02 10.028-6.055 2.2-1.034 5.05-2.749 6.334-3.81 1.283-1.063 2.333-1.446 2.333-.852s1.051.129 2.336-1.034c1.285-1.162 3.835-2.754 5.667-3.536 1.831-.783 4.23-1.96 5.33-2.617 1.1-.657 3.5-1.882 5.334-2.723 4.892-2.244 9.353-4.91 11.045-6.602.819-.818 2.825-1.488 4.458-1.488s4.15-1.5 5.592-3.333c1.442-1.833 3.688-3.333 4.992-3.333 1.303 0 3.317-.835 4.474-1.856 1.158-1.02 6.905-4.37 12.772-7.444 5.867-3.073 13.315-7.04 16.551-8.815 3.237-1.775 6.167-2.945 6.512-2.6.345.345 2.128-.553 3.962-1.996 1.834-1.442 4.104-2.623 5.044-2.623.94 0 1.909-.45 2.153-1 .245-.55 3.745-2.737 7.778-4.86 4.033-2.123 8.308-4.698 9.5-5.722 1.191-1.024 2.691-1.7 3.333-1.503.642.198 4.467-1.244 8.5-3.204a742.263 742.263 0 0 1 14.667-6.89c4.033-1.83 8.833-4.2 10.667-5.269 1.833-1.068 6.033-3.017 9.333-4.33 3.3-1.314 6.947-3.176 8.105-4.139 1.158-.962 3.334-1.75 4.837-1.75 1.502 0 3.446-.86 4.319-1.912.873-1.051 5.446-3.296 10.163-4.988 4.717-1.691 8.576-3.457 8.576-3.924 0-.467 5.4-2.796 12-5.175 6.6-2.38 12-4.835 12-5.455 0-.62.9-.783 2-.36 1.1.421 2 .15 2-.603 0-.754 1.95-1.787 4.333-2.297 2.384-.51 4.934-1.354 5.667-1.876.733-.523 4.333-2.038 8-3.367 3.667-1.33 7.267-2.878 8-3.44.733-.563 4.77-2.23 8.972-3.702 4.201-1.473 9.394-3.929 11.54-5.456 2.144-1.528 4.716-2.778 5.714-2.778.997 0 3.905-1.12 6.46-2.49 2.556-1.37 5.1-2.56 5.653-2.643 3.564-.54 8.808-2.133 11.661-3.545 7.29-3.607 14.286-6.42 20-8.042 5.818-1.651 18.27-6.409 22.982-8.78 1.273-.642 3.223-1.166 4.333-1.166 1.11 0 2.018-.6 2.018-1.334 0-.733.921-1.333 2.047-1.333 1.126 0 3.497-.95 5.268-2.11 1.892-1.24 4.352-1.752 5.96-1.242 1.783.566 3.96-.093 6.245-1.89 1.929-1.517 4.476-2.766 5.66-2.775 1.185-.009 5.501-1.715 9.592-3.79 4.092-2.075 11.442-4.857 16.334-6.181 4.892-1.324 8.894-2.828 8.894-3.34 0-1.322 12.936-5.339 17.19-5.339 1.953 0 4.885-.934 6.516-2.077 1.631-1.142 3.523-1.733 4.205-1.312.681.422 1.615.156 2.076-.589.46-.745 2.023-1.355 3.472-1.355 1.45 0 4.175-1.009 6.056-2.241 1.882-1.233 6.666-2.682 10.631-3.22 3.966-.538 9.889-2.275 13.163-3.86 3.273-1.585 6.5-2.543 7.17-2.128.67.414 1.96-.14 2.867-1.232.906-1.092 3.185-1.986 5.063-1.986 1.88 0 5.877-1.19 8.884-2.647 3.007-1.455 8.705-3.26 12.661-4.01 3.957-.751 8.136-2.185 9.287-3.187 1.151-1.002 5.393-2.565 9.426-3.473 4.033-.907 8.833-2.307 10.667-3.111 1.833-.804 3.933-1.547 4.666-1.65.734-.105 3.565-1.18 6.29-2.39 2.727-1.209 7.377-2.198 10.334-2.198s5.376-.454 5.376-1.01c0-1.324 9.698-4.324 13.98-4.324 1.844 0 3.354-.6 3.354-1.333s1.366-1.333 3.036-1.333 4.273-.866 5.784-1.924c1.51-1.058 6.746-2.246 11.635-2.64 5.169-.415 10.396-1.703 12.491-3.076 1.982-1.298 3.777-2.225 3.989-2.06.857.67 8.503-1.392 9.171-2.473.395-.638 2.39-1.16 4.434-1.16s5.643-.962 7.998-2.136c2.354-1.175 5.515-1.813 7.025-1.418 1.51.394 3.725.228 4.924-.37 3.206-1.6 14.81-5.108 20.18-6.1 4.688-.866 9.293-2.078 18.064-4.753 3.518-1.073 5.218-1.04 6.629.132 1.494 1.24 2.879.969 6.51-1.276 2.537-1.567 7.804-3.21 11.705-3.648 3.9-.44 7.738-1.304 8.529-1.921 1.41-1.102 13.382-3.263 26.562-4.795 3.667-.426 7.887-1.57 9.378-2.542 1.49-.972 7.051-2.384 12.356-3.136 5.305-.752 12.185-2.013 15.29-2.802 3.104-.79 6.843-1.406 8.31-1.372 3.583.084 21.993-3.613 25.333-5.088 1.467-.648 7.167-1.87 12.667-2.717 10.879-1.675 21.28-3.505 30.666-5.395 3.3-.664 11.225-1.54 17.61-1.947 6.385-.407 13.074-1.296 14.863-1.976 1.789-.68 4.964-1.223 7.057-1.207 2.092.016 11.004-1.262 19.804-2.84 21.75-3.9 41.496-6.507 56.666-7.482 6.967-.448 17.56-1.956 23.538-3.352 5.98-1.395 16.48-2.917 23.334-3.38 6.854-.465 13.186-1.414 14.07-2.11.885-.696 2.095-.965 2.69-.598.594.368 8.87-.161 18.391-1.176 9.521-1.014 20.36-1.863 24.088-1.887 3.728-.023 7.175-.439 7.66-.924.485-.485 4.335-1.034 8.556-1.22 14.275-.63 22.901-1.748 25.914-3.36 2.037-1.09 10.053-1.546 24.956-1.42 13.27.114 24.1-.426 27.379-1.363 2.983-.852 7.224-1.672 9.424-1.822 2.2-.15 9.4-.696 16-1.213 37.884-2.97 78.204-3.9 152.817-3.526 13.237.066 45.197 4.979 52.517 8.072 1.466.62 6.106 1.83 10.31 2.688 4.205.858 7.956 2.064 8.336 2.68.38.616 4.141 2.144 8.356 3.397 17.16 5.1 23.775 9.636 28.613 19.622 6.058 12.503 6.837 15.343 5.307 19.347-.771 2.017-1.791 7.267-2.267 11.667-1.083 10.014-9.004 25.437-17.559 34.191-8.534 8.734-24.011 18.212-32.306 19.785-3.766.714-14.016 1.194-22.779 1.066-8.762-.128-16.175.035-16.473.362-.297.328-.955 1.946-1.462 3.596-.665 2.162-.379 3 1.025 3 1.07 0 2.273.848 2.67 1.886.399 1.037 2.16 2.687 3.915 3.667 6.201 3.46 20.362 13.165 24.004 16.451 2.029 1.83 4.429 3.337 5.333 3.347 2.042.023 16.454 12.295 22.128 18.841 2.316 2.672 5.704 5.234 7.53 5.692 1.825.458 3.319 1.422 3.319 2.141 0 .72.766 1.308 1.703 1.308 1.94 0 10.297 7.273 10.297 8.961 0 .611 1.8 3.082 4 5.49 2.2 2.41 4 4.943 4 5.631 0 .688.525 1.251 1.166 1.251 1.686 0 13.5 11.558 13.5 13.208 0 .765 1.663 2.25 3.695 3.3 5.096 2.636 9.815 7.63 12.947 13.704 1.453 2.817 5.372 8.422 8.709 12.455 3.337 4.033 8.115 10.333 10.62 14 2.504 3.667 5.335 7.146 6.291 7.733.956.586 1.738 1.96 1.738 3.054 0 3.766 12.745 18.428 16.667 19.175.733.14 2.463 2.039 3.845 4.22 1.38 2.181 4.68 6.197 7.333 8.924 2.652 2.726 7.522 8.18 10.822 12.118 3.3 3.939 7.65 9.104 9.667 11.478 2.016 2.374 3.666 4.854 3.666 5.511s1.2 2.222 2.667 3.478c1.467 1.255 2.667 3.489 2.667 4.963 0 1.473.75 2.692 1.666 2.708 1.666.028 8.995 9.4 9.007 11.518 0 .616 1.803 3.037 4 5.381 2.196 2.344 3.993 4.888 3.993 5.655 0 .767 1.2 2.144 2.667 3.06 1.467.916 2.667 2.371 2.667 3.234 0 .862.45 1.768 1 2.012 1.284.571 12.333 14.014 12.333 15.006 0 1.106 8.1 11.406 13.191 16.772 2.436 2.567 5.414 6.785 6.618 9.374 1.205 2.589 3.527 6.137 5.16 7.884 1.633 1.748 5.796 7.43 9.25 12.627 3.456 5.196 8.57 12.083 11.365 15.303 2.796 3.22 5.083 6.64 5.083 7.6s.75 2.226 1.666 2.812c2.763 1.768 10.334 12.11 10.334 14.115 0 1.03 1.156 2.918 2.57 4.197 1.413 1.279 2.965 4.672 3.45 7.54.484 2.868 1.317 5.215 1.85 5.215.533 0 1.97 2.1 3.195 4.666 1.224 2.567 3.135 4.667 4.247 4.667 1.357 0 2.021 1.314 2.021 4 0 2.2.6 4 1.333 4 .734 0 1.334 1.147 1.334 2.548 0 1.402 1.668 3.952 3.706 5.667 2.038 1.715 3.688 3.476 3.667 3.913-.021.438.805 1.813 1.836 3.056 1.032 1.244 3.355 5.086 5.162 8.538 1.807 3.453 4.15 7.916 5.208 9.918 1.058 2.002 2.498 3.996 3.202 4.43.703.435 3.052 4.303 5.219 8.597 2.167 4.293 4.554 8.184 5.303 8.648.75.463 1.363 2.192 1.363 3.842s.881 4.165 1.958 5.588c1.077 1.424 1.977 3.565 2 4.758.023 1.194.962 2.934 2.087 3.867 1.124.933 1.8 2.357 1.503 3.163-.298.807.5 2.667 1.772 4.134 1.272 1.466 3.041 5.664 3.932 9.329.89 3.664 2.773 7.738 4.184 9.052 1.41 1.314 2.564 3.274 2.564 4.355 0 1.082.571 3.008 1.27 4.282.697 1.273 2.258 4.715 3.468 7.648 1.21 2.934 2.732 6.534 3.382 8 .649 1.467 2.092 6.267 3.207 10.667 1.115 4.4 3.523 11.06 5.35 14.8 1.828 3.74 3.323 8.792 3.323 11.228s.827 5.376 1.838 6.534c1.01 1.157 2.51 5.705 3.331 10.105 3.383 18.117 4.47 22.725 6.123 25.948.954 1.862 2.046 6.085 2.427 9.385 1.463 12.667 2.687 18.667 3.809 18.667.64 0 1.15 2.55 1.132 5.666-.02 3.117.244 8.967.583 13 .338 4.034 1.233 16.334 1.987 27.334s1.918 27.5 2.586 36.666c.668 9.167 1.284 18.406 1.368 20.532.084 2.126.755 4.592 1.492 5.48 1.249 1.504-.398 43.28-1.802 45.717-.297.516-.14 2.037.35 3.381.673 1.853 2.596 2.562 7.947 2.932 3.881.268 7.839 1.136 8.794 1.93 1.252 1.038 2.735.985 5.315-.19 2.186-.996 3.93-1.14 4.483-.373.497.692 2.404 1.47 4.237 1.728 1.834.258 4.283.975 5.443 1.593 1.16.618 5.06 1.274 8.667 1.457 3.606.183 8.057 1.113 9.89 2.065 1.834.953 4.384 1.735 5.667 1.74 3.163.011 2.933 2.724-.687 8.097-2.37 3.516-4.885 5.068-11.667 7.198-8.097 2.544-22.445 11.229-32.69 19.788-4.2 3.509-7.078 4.403-15.357 4.773-2.65.119-4.049 1.486-6.333 6.188-2.437 5.015-2.933 8.342-2.933 19.675 0 7.502-.633 15.736-1.406 18.298-.774 2.562-1.724 13.058-2.111 23.325-.387 10.266-1.506 21.666-2.485 25.333-.98 3.667-2.423 10.867-3.209 16-2.129 13.918-2.585 15.717-4.242 16.74-1.123.695-1.115 1.07.033 1.454 1.122.373.617 5.566-1.825 18.788-1.856 10.05-3.72 22.602-4.14 27.895-.422 5.293-1.124 10.2-1.56 10.905-.435.705-.997 6.442-1.247 12.75-.25 6.307-1.077 20.168-1.836 30.801-.76 10.634-1.278 20.834-1.153 22.667.581 8.507.112 20.605-1.342 34.667-.873 8.433-1.508 21.933-1.41 30 .563 46.992-.704 143.324-1.923 146.106-.507 1.158-1.13 9.258-1.382 18-.826 28.532-1.892 42.4-4.006 52.115-1.143 5.255-2.701 18.319-3.462 29.03-.76 10.711-1.963 21-2.672 22.865-.709 1.865-1.29 6.85-1.29 11.078s-1.165 14.152-2.59 22.053c-1.93 10.706-2.22 14.96-1.135 16.697 1.12 1.794.67 4.602-1.959 12.193-1.878 5.424-3.708 13.163-4.067 17.196-.36 4.033-2.124 14.233-3.922 22.667-1.799 8.433-2.998 17.527-2.667 20.208.361 2.918-.48 8.001-2.097 12.666-1.486 4.286-3.351 13.492-4.146 20.459-1.537 13.474-3.18 22.798-6.105 34.667-.994 4.033-2.172 11.533-2.617 16.666-1.043 12.014-3.03 23.994-6.18 37.254-1.382 5.823-2.528 14.823-2.546 20-.017 5.177-.6 11.813-1.293 14.746-.693 2.934-1.642 9.234-2.108 14-.465 4.767-1.384 9.677-2.04 10.913-1.794 3.376-1.46 4.706 1.366 5.445 2.274.595 2.42 1.29 1.308 6.238-.688 3.062-1.823 12.281-2.523 20.486-.7 8.205-1.601 17.318-2.004 20.252-.402 2.933-.98 15.833-1.285 28.666-.304 12.834-1.157 28.134-1.896 34-5.218 41.437-4.91 27.951-4.144 181.334.063 12.466-.551 27.166-1.364 32.666-.812 5.5-2.09 23.8-2.838 40.667-1.77 39.875-2.117 46.176-3.15 57.188-1.739 18.529-.618 141.733 1.44 158.305.421 3.388.048 9.802-.827 14.254-1.04 5.284-1.165 9.396-.36 11.84 1.932 5.879-4.256 113.568-7.366 128.174-.71 3.334-.742 7.828-.075 10.667.678 2.889.624 7.646-.132 11.572-.706 3.667-1.56 10.969-1.895 16.227-.337 5.259-1.236 11.859-2 14.667-1.519 5.589-3.66 35.925-5.393 76.44-1.21 28.279.787 70.524 4.663 98.666 3.865 28.063.357 117.66-5.873 150-.706 3.667-1.886 10.386-2.621 14.932-1.385 8.563-2.842 13.709-7.098 25.068-1.373 3.667-3.67 14.467-5.104 24-1.434 9.533-3.526 20.813-4.648 25.065-1.123 4.252-2.042 9.213-2.042 11.023 0 1.81-1.718 8.53-3.82 14.935-2.554 7.79-3.859 14.615-3.941 20.623-.068 4.938-.798 10.241-1.624 11.784-.825 1.543-1.83 7.102-2.231 12.354-.401 5.252-1.552 11.17-2.557 13.15-1.005 1.98-1.827 5.108-1.827 6.95 0 1.843-1.243 6.506-2.764 10.364-1.52 3.857-2.812 8.695-2.87 10.75-.08 2.766-1.52 4.777-5.54 7.734-6.813 5.01-12 6.412-26.951 7.286-6.531.382-15.475 1.261-19.875 1.953-4.4.692-16.252 1.644-26.339 2.114-10.086.47-18.672 1.394-19.079 2.052-1.118 1.809-8.276 1.433-8.947-.47-.448-1.271-1.504-1.152-4.445.503-2.95 1.66-6.777 2.088-16.29 1.82-6.839-.192-17.939.477-24.667 1.487-6.728 1.01-15.418 1.842-19.311 1.847-3.894 0-6.765.517-6.381 1.139.384.62-19.23.934-43.588.695-44.508-.435-73.942-.47-119.62-.143-13.566.097-30.066.067-36.666-.069-6.6-.135-25.05-.104-41 .071-15.95.174-29 0-29-.373zm-455.333-91.853c5.866-.644 12.466-1.165 14.666-1.158 2.2.013 10-.32 17.334-.725 37.96-2.1 73.308-2.903 88.666-2.012 2.446.142 25.478-1.203 27.334-1.596.733-.155 1.933-.116 2.666.087 1.46.405 98.04 1.514 106.667 1.226 9.072-.304 16.367-.343 45.333-.246 15.4.052 30.1-.085 32.667-.304 2.567-.218 5.267-.04 6 .394.733.435 9.883.663 20.333.507 10.45-.157 19 .233 19 .866 0 .632 7.65 1.228 17 1.322 9.35.096 23.6.555 31.667 1.022 8.067.466 15.567.775 16.667.686 8.677-.702 28.361-.687 28.8.021.3.485 2.192.618 4.206.295 10.172-1.63 23.347-2.1 24.134-.86.558.878 6.713 1.03 17.526.436 9.167-.504 27.767-.702 41.334-.441 13.566.261 28.359.412 32.872.335 4.513-.077 8.598.496 9.078 1.273.48.778 1.774 1.414 2.874 1.414s1.618-.618 1.151-1.374c-.528-.854 1.08-1.349 4.255-1.309 2.807.035 6.603.063 8.436.06 1.834 0 6.634.027 10.667.063 4.033.037 11.384-.045 16.336-.181 4.95-.137 10.801.497 13 1.408 3.176 1.315 4.409 1.317 5.985.013 1.253-1.04 7.764-1.803 17.665-2.069 8.625-.232 15.98-.517 16.347-.632.367-.116 6.667-.24 14-.279 7.334-.037 14.728-.702 16.433-1.475 2.145-.974 3.786-.981 5.333-.023 1.49.921 5.792.982 12.901.181 5.867-.66 13.373-.865 16.68-.454 4.581.57 7.247.087 11.192-2.028 2.848-1.526 6.39-2.458 7.87-2.071 4.016 1.05 10.346-6.69 14.112-17.258 1.753-4.919 4.253-10.009 5.555-11.31 1.302-1.303 3.641-5.248 5.198-8.767 1.556-3.519 3.294-6.72 3.861-7.112 1.9-1.314 14.865-36.368 14.865-40.189 0-1.592 1.77-8.662 3.932-15.71 2.162-7.047 4.326-16.114 4.808-20.147.483-4.034 1.792-10.034 2.91-13.334 1.989-5.868 3.741-22.645 4.736-45.333.273-6.233.983-19.502 1.577-29.486.683-11.496.53-25.186-.42-37.333-4.149-53.044-2.187-148.79 3.603-175.843.867-4.052.834-6.272-.103-6.85-.761-.471-1.008-1.466-.548-2.21.772-1.249 2.515-49.157 2.291-62.945-.053-3.3.75-9.58 1.784-13.955 1.398-5.912 1.506-8.653.423-10.667-1.401-2.605-1.65-19.734-.408-28.044 2.077-13.887 2.415-21.03.953-20.127-2.054 1.27-2.057-4.82 0-6.874 1.158-1.158 1.116-12.161-.17-44.747-2.141-54.249-.361-126.94 3.892-158.919.682-5.133 1.884-18.933 2.67-30.667.786-11.733 2.073-25.233 2.86-30 2.279-13.8 3.793-34.853 5.896-82 1.08-24.2 2.517-54.2 3.195-66.666.678-12.467 1.92-41.567 2.762-64.667.841-23.1 2.074-45 2.738-48.667.665-3.666 1.493-14.166 1.84-23.333.724-19.105 2.976-50.393 4.751-66 .667-5.867 1.587-16.067 2.044-22.667 1.146-16.56 1.725-21.83 2.544-23.155.387-.625.99-8.27 1.341-16.99 1.612-40.037 8.61-94.718 17.645-137.855 1.766-8.433 4.113-20.133 5.216-26 1.677-8.922 5.214-25.068 8.15-37.201.372-1.54 1.141-5.199 1.71-8.132.567-2.933 1.715-8.033 2.551-11.333 3.512-13.873 7.67-45.607 10.219-78 .346-4.4 1.197-13.1 1.89-19.334.695-6.233 1.641-23.982 2.104-39.442.463-15.46 1.096-30.46 1.406-33.333.31-2.874 1.14-28.925 1.842-57.891.702-28.967 1.852-61.367 2.554-72 .703-10.634 1.288-20.234 1.3-21.334.014-1.1.717-9.2 1.565-18 .847-8.8 1.657-20.5 1.798-26 .142-5.5 1.285-18.7 2.54-29.333 2.581-21.846 4.309-37.995 6.349-59.333 2.822-29.527 5.283-52.222 6.652-61.334 2.649-17.64 3.943-29.371 5.294-48 1.78-24.536 5.022-58.22 6.449-67 .715-4.404.659-7-.152-7-.71 0-.945-1.318-.524-2.93 1.522-5.818-.126-6.118-30.466-5.553-15.738.294-30.235 1.15-32.215 1.903-2.9 1.102-3.835.948-4.808-.79-1.104-1.973-1.425-1.96-3.754.146-1.4 1.267-2.545 1.732-2.545 1.032 0-1.591-9.08-.632-10.131 1.071-.465.752-1.477.667-2.536-.212-1-.83-2.085-.942-2.506-.26-.41.662-5.502.983-11.317.713s-12.088.086-13.94.79c-5.547 2.11-62.11 4.34-74.904 2.953-1.466-.159-9.566.052-18 .47-18.277.904-33.725.993-71.766.411-15.637-.239-28.71-.157-29.049.183-1.07 1.069-26.788 1.794-56.443 1.59-25.602-.175-29.167-.474-34.088-2.856-3.023-1.464-6.15-2.66-6.95-2.66-1.836 0-19.406-7.844-20.342-9.082-1.759-2.323-12.057-9.589-13.59-9.589-2.085 0-14.333-13.329-14.397-15.666-.083-3.023-7.733-1.75-14.404 2.396-3.595 2.235-7.984 4.2-9.755 4.368-1.77.168-4.72 1.152-6.553 2.187-9.51 5.368-38.954 18.715-41.286 18.715-.788 0-3.671 1.407-6.407 3.127-4.664 2.931-18.016 8.144-20.973 8.187-.734.011-2.384 1.07-3.667 2.353-1.283 1.283-3.533 2.333-5 2.333s-2.667.475-2.667 1.055-6.007 3.95-13.35 7.489c-7.343 3.538-13.678 6.963-14.079 7.611-.4.649-1.743 1.182-2.983 1.186-1.24 0-8.745 4.054-16.678 9-7.933 4.946-16.033 9.814-18 10.817-3.502 1.786-17.593 10.859-18.91 12.176-2.259 2.26-13.407 9.334-17.333 11-2.567 1.089-6.347 3.56-8.402 5.49-2.054 1.93-4.84 3.51-6.19 3.51-1.351 0-2.757.786-3.126 1.746-.369.96-5.083 4.7-10.476 8.31-5.393 3.61-10.286 7.325-10.872 8.254-.587.93-2.237 1.69-3.667 1.69-1.43 0-2.6.613-2.6 1.362 0 .749-1.65 2.088-3.667 2.975-2.017.888-6.57 3.875-10.12 6.638-3.549 2.764-7.299 5.025-8.333 5.025-1.034 0-1.88.835-1.88 1.855s-1.439 2.217-3.197 2.658c-1.758.441-5.634 2.756-8.613 5.145-7.249 5.811-14.633 10.342-16.854 10.342-.997 0-4.04 2.1-6.761 4.666-2.722 2.567-5.517 4.667-6.213 4.667-.696 0-4.352 2.7-8.124 6-4.07 3.56-8.168 6-10.078 6-1.77 0-5.68 2.008-8.69 4.461-3.009 2.454-8.907 5.74-13.107 7.304-4.2 1.563-12.437 5.256-18.304 8.205-5.867 2.95-12.13 5.363-13.919 5.363-1.788 0-3.451.504-3.696 1.12-.454 1.142-22.013 8.83-30.444 10.855-18.401 4.42-34.097 4.79-48.667 1.143-5.03-1.259-8.95-1.882-14.333-2.279-1.284-.094-2.334-.998-2.334-2.009 0-1.01-.938-2.615-2.085-3.567-3.76-3.12-.885-7.53 15.754-24.155 20.028-20.012 48.262-42.842 62.199-50.294 1.906-1.02 4.966-3.489 6.8-5.487 1.832-1.998 5.132-4.632 7.332-5.854 7.04-3.908 10.516-6.32 23.711-16.46 3.093-2.376 6.332-4.326 7.2-4.333.867-.01 1.957-1.213 2.423-2.68.474-1.495 2.017-2.666 3.512-2.666 1.466 0 4.876-2.095 7.577-4.655 2.7-2.56 5.387-4.66 5.968-4.667.581-.01 3.881-2.603 7.333-5.77 3.452-3.167 9.038-7.34 12.413-9.274 3.374-1.933 8.761-5.709 11.97-8.39 3.21-2.681 7.198-5.393 8.864-6.026 1.666-.634 3.03-1.75 3.03-2.48s3.343-2.908 7.43-4.842c4.086-1.933 7.75-4.35 8.142-5.372.392-1.022 1.247-1.858 1.9-1.858.653 0 4.854-2.7 9.337-6 6.018-4.43 9.378-6 12.842-6 4.989 0 16.755-5.959 20.977-10.624 1.348-1.49 3.184-2.709 4.08-2.709.896 0 4.204-2.425 7.351-5.39 3.195-3.008 6.542-5.075 7.576-4.679 2.187.84 12.364-4.065 12.364-5.958 0-.718.45-1.213 1-1.099 2.064.43 13.412-5.619 14.149-7.54.422-1.1 1.728-2 2.903-2 1.174 0 4.75-1.8 7.948-4 3.198-2.2 6.475-4 7.283-4 1.936 0 9.043-3.338 14.05-6.6 2.2-1.432 10.9-6.018 19.334-10.19 8.433-4.173 15.654-8.078 16.045-8.678.392-.6 3.992-2.648 8-4.55 4.009-1.903 9-4.39 11.091-5.526 2.092-1.136 4.492-2.201 5.333-2.367 1.698-.333 18.87-8.046 22.513-10.11 1.273-.722 3.11-1.313 4.082-1.313s2.97-1.122 4.442-2.493c1.472-1.37 4.885-3.291 7.585-4.267 2.7-.977 4.91-2.202 4.91-2.722 0-1.287 10.975-6.518 13.675-6.518 1.192 0 2.514-.562 2.938-1.248.425-.687 2.11-1.22 3.746-1.184 5.088.11 22.887 4.04 24.65 5.442.922.733 7.417 3.28 14.432 5.66 7.016 2.381 13.432 5.004 14.257 5.83.826.825 2.158 1.5 2.961 1.5.803 0 4.733 3.09 8.733 6.868l7.274 6.869 22.666.576c12.467.318 23.567.608 24.667.647 1.1.038 7.7-.351 14.667-.864 6.966-.514 16.266-.798 20.666-.632 10.61.4 10.858.395 29.334-.672 17.738-1.025 66.506-2.483 74.357-2.223 2.764.09 6.29-.511 7.836-1.34 2.138-1.143 3.056-1.11 3.829.14.678 1.098 2.505 1.337 5.497.721 10.604-2.183 29.902-3.179 34.035-1.756 3.344 1.152 4.867 1.04 7.333-.539 2.052-1.313 5.95-1.905 11.435-1.738 4.72.143 9.258-.43 10.484-1.327 1.539-1.125 4.519-1.25 10.344-.432 4.5.631 10.283.738 12.85.237 6.457-1.26 67.976-1.651 68.727-.437.335.542 2.699.344 5.253-.44 3.399-1.043 6.067-1 9.948.163 2.917.874 6.834 1.205 8.705.735 1.964-.493 4.232-.165 5.366.777 1.137.943 4.077 1.366 6.982 1.004 2.76-.344 11.502-.057 19.426.64l14.407 1.264 3.982-4.166 3.982-4.167-.2-30.287c-.109-16.658-1.001-37.488-1.983-46.288-1.73-15.507-3.514-33.843-3.958-40.666-.987-15.159-2.525-24.867-4.145-26.164-1.226-.98-2.082-5.276-2.483-12.464-.336-6.033-1.526-12.801-2.644-15.042-1.117-2.24-2.032-7.281-2.032-11.202 0-3.92-.6-7.128-1.333-7.128-.734 0-1.334-1.47-1.334-3.267s-.964-3.807-2.144-4.467c-1.33-.745-2.31-3.415-2.58-7.038-.24-3.21-1.074-6.05-1.855-6.31-.781-.26-1.42-1.593-1.42-2.96 0-1.368-1.44-7.168-3.198-12.89-1.759-5.72-3.498-11.902-3.865-13.735-.827-4.128-3.99-12.434-5.078-13.333-.443-.367-1.546-3.067-2.449-6-.903-2.934-3.09-8.393-4.86-12.133-1.77-3.74-3.217-7.672-3.217-8.738 0-1.067-1.413-4.907-3.14-8.534-1.727-3.627-3.923-9.145-4.88-12.262-.957-3.116-2.204-5.666-2.772-5.666-1.334 0-11.875-21.951-11.875-24.73 0-2.167-5.711-10.7-9.037-13.5-1.02-.86-2.19-4.062-2.6-7.116-.554-4.128-1.551-5.92-3.887-6.984-1.729-.788-3.143-2.56-3.143-3.938 0-3.403-3.837-10.483-13-23.986-2.383-3.512-4.333-6.887-4.333-7.5 0-.613-1.457-2.483-3.237-4.156-1.78-1.673-2.953-3.781-2.606-4.685.347-.905-.296-2.415-1.43-3.355-1.133-.94-2.06-2.57-2.06-3.62 0-1.05-1.797-3.826-3.994-6.17-2.197-2.343-3.997-4.71-4-5.26 0-.55-1.103-2.098-2.444-3.438-1.341-1.341-4.345-5.771-6.675-9.844-2.33-4.073-5.134-8.15-6.23-9.059-1.094-.909-1.99-2.414-1.99-3.344 0-.93-2.422-4.607-5.382-8.17-2.96-3.563-6.26-8.129-7.333-10.145a1682.755 1682.755 0 0 1-4.05-7.667c-1.154-2.2-2.584-4-3.178-4-.594 0-1.432-1.05-1.863-2.333-1.066-3.175-3.493-6.586-7.861-11.049-2.017-2.06-3.667-4.693-3.667-5.849 0-1.156-.45-2.107-1-2.112-.55-.005-2.495-2.255-4.321-5-1.827-2.745-3.633-5.29-4.013-5.657-.38-.367-1.886-3.067-3.345-6-2.755-5.537-3.442-6.472-10.026-13.655-2.179-2.376-3.962-4.886-3.962-5.576 0-.691-1.112-1.61-2.47-2.04-1.36-.432-3.789-3.344-5.397-6.472-1.61-3.128-4.547-7.466-6.53-9.64-5.215-5.719-14.936-18.684-14.936-19.92 0-.582-1.35-2.36-3-3.951-4.6-4.436-9.014-10.293-11.365-15.08-1.171-2.383-2.618-4.333-3.215-4.333-.598 0-1.087-.836-1.087-1.857 0-1.022-.9-2.203-2-2.625-1.1-.422-2-1.686-2-2.81 0-1.122-.566-2.041-1.258-2.041-.691 0-2.321-1.8-3.621-4.002-1.3-2.2-3.347-4.313-4.547-4.695-1.201-.38-3.288-2.743-4.638-5.25-1.35-2.506-2.937-4.258-3.528-3.893-.59.365-1.074-.203-1.074-1.261 0-1.06-1.5-2.909-3.334-4.11-1.833-1.201-3.333-2.813-3.333-3.582 0-.769-.75-2.248-1.667-3.287-16.63-18.85-27.324-29.58-30.522-30.626-1.204-.394-2.498-1.896-2.875-3.338-.411-1.57-1.823-2.623-3.52-2.623-1.558 0-3.226-1.023-3.706-2.274-1.158-3.02-4.674-7.06-6.144-7.06-.646 0-3.571-2.25-6.5-5-10.466-9.822-11.87-11-13.127-11-.7 0-1.272-.587-1.272-1.305 0-.719-2.453-2.558-5.45-4.087-2.998-1.53-7.26-4.842-9.472-7.36-2.212-2.52-4.709-4.6-5.55-4.623-2.043-.056-8.862-6.13-8.862-7.894 0-.768-1.164-1.397-2.588-1.397-1.423 0-2.952-.59-3.397-1.31-.957-1.549-18.01-12.818-24.63-16.278-2.538-1.327-5.624-2.412-6.857-2.412-1.233 0-2.588-.9-3.01-2-.422-1.1-1.913-2-3.312-2-1.4 0-3.37-.995-4.376-2.21-1.704-2.06-33.393-17.79-35.836-17.79-.607 0-1.343-.716-1.635-1.59-.392-1.178-10.14-1.628-37.444-1.732-20.303-.077-36.915.29-36.915.817 0 .526-2.108.375-4.684-.337-2.577-.711-5.162-.998-5.745-.638-.584.36-4.625.75-8.982.867-4.357.115-11.522.728-15.922 1.36-7.516 1.082-13.615 1.501-46.667 3.212-7.333.38-15.733.996-18.666 1.37-2.934.373-10.734 1.003-17.334 1.399-6.6.395-15.9 1.359-20.666 2.14-4.767.782-14.967 1.812-22.667 2.29-7.7.477-15.417 1.67-17.15 2.649-1.731.979-4.731 1.464-6.666 1.077-1.934-.387-10.717.427-19.517 1.808-8.8 1.382-17.5 2.462-19.334 2.4-1.833-.062-6.333.627-10 1.53-3.666.905-12.066 2.086-18.666 2.627-6.6.54-17.4 1.934-24 3.097-6.6 1.163-17.1 2.811-23.334 3.663-6.233.852-14.609 2.398-18.613 3.437-4.004 1.038-9.454 1.888-12.111 1.888s-5.228.396-5.712.88c-.485.486-2.535 1.06-4.556 1.277-2.02.217-9.374 1.297-16.34 2.4a53635.44 53635.44 0 0 1-20.668 3.268c-4.4.694-12.5 2.464-18 3.932-8.544 2.282-18.18 4.123-33.333 6.37-16.506 2.447-37.168 6.262-39.333 7.262-1.467.677-6.567 1.84-11.334 2.586-11.665 1.824-16.725 3.382-16.377 5.042.451 2.162-6.282 3.315-8.518 1.459-1.57-1.303-2.199-1.276-3.07.133-.602.975-3.706 2.262-6.898 2.86-3.192.599-9.703 2.06-14.47 3.247-4.767 1.187-11.067 2.618-14 3.18-2.933.562-9.187 2.615-13.896 4.562-4.71 1.948-10.71 3.56-13.334 3.584-2.623.023-5.935.923-7.358 2-1.424 1.077-4.235 1.958-6.247 1.958-2.012 0-5.347.643-7.411 1.429-2.065.786-6.754 1.995-10.42 2.686-3.667.692-9.067 2.37-12 3.73-2.934 1.36-8.753 2.89-12.932 3.4-4.26.521-9.038 2.062-10.877 3.509-1.803 1.418-4.784 2.579-6.624 2.579-1.84 0-3.545.566-3.79 1.257-.244.692-3.444 1.945-7.11 2.785-9.487 2.172-19.72 5.468-21.65 6.971-.908.707-2.539.944-3.625.528-1.085-.417-2.285-.255-2.665.36-.38.615-7.449 2.783-15.71 4.82-8.26 2.035-15.318 4.056-15.684 4.49-1.2 1.42-9.809 4.993-19.888 8.255-5.438 1.76-10.674 3.98-11.637 4.933-1.16 1.149-3.332 1.436-6.446.852-2.583-.485-4.696-.335-4.696.333 0 .667-2.25 1.974-5 2.903s-6.5 2.33-8.333 3.113c-5.668 2.42-8.45 3.372-14.667 5.016-3.3.873-8.4 2.69-11.333 4.038-8.722 4.008-22.985 9.346-24.973 9.346-1.018 0-3.016.88-4.44 1.957-1.422 1.077-4.202 1.977-6.175 2-1.974.024-3.959.643-4.412 1.376-.453.734-2.227 1.334-3.942 1.334-1.715 0-6.63 1.736-10.921 3.858-4.292 2.122-10.504 4.643-13.804 5.602-3.3.958-6.428 2.372-6.951 3.141-.523.77-1.423 1.405-2 1.414-1.153.017-8.031 2.599-14.584 5.474-2.31 1.014-4.71 1.847-5.333 1.85-.623.004-4.732 1.49-9.132 3.302-4.4 1.812-9.654 3.31-11.675 3.327-2.23.02-4.815 1.342-6.574 3.365-2.06 2.368-4.276 3.345-7.658 3.375-2.662.023-7.11 1.489-10.093 3.326-2.933 1.807-6.683 3.288-8.333 3.292-1.65.004-3 .607-3 1.34 0 .734-.92 1.334-2.042 1.334-1.123 0-5.773 1.255-10.334 2.789-8.096 2.724-13.258 4.889-27.086 11.363-3.738 1.75-7.806 3.18-9.042 3.18-1.236 0-2.592.9-3.014 2-.422 1.1-1.93 2-3.352 2s-3.928 1.35-5.57 3c-2.246 2.257-4.215 2.898-7.94 2.587-2.862-.239-4.954.183-4.954 1 0 .778-.908 1.414-2.018 1.414-2.17 0-5.276 1.533-12.648 6.24-2.596 1.658-7.329 3.153-10.667 3.37-3.3.214-6.3.69-6.667 1.057-2.086 2.086-9.525 5.333-12.219 5.333-1.728 0-4.643 1.393-6.48 3.095-1.836 1.703-4.53 3.464-5.986 3.913-5.15 1.589-12.007 4.364-13.981 5.659-2.159 1.415-8.917 4.085-15.334 6.057-2.2.676-5.623 2.74-7.608 4.586-1.985 1.846-4.492 3.357-5.571 3.357-1.08 0-2.99 1.027-4.246 2.282-1.255 1.256-3.151 2.41-4.212 2.566-1.061.156-2.927 1.079-4.146 2.05-3.625 2.891-8.044 5.102-10.198 5.102-1.11 0-2.019.59-2.019 1.31 0 .721-5.7 4.047-12.666 7.39-6.967 3.344-12.667 6.534-12.667 7.088 0 .555-2.1 1.768-4.666 2.696-2.566.928-5.287 2.849-6.047 4.268-.781 1.46-2.781 2.58-4.606 2.58-1.775 0-4.726 1.5-6.56 3.334-1.833 1.834-4.26 3.334-5.394 3.334-1.133 0-2.06.591-2.06 1.315 0 .723-4.35 3.398-9.667 5.945-5.317 2.546-11.467 6.142-13.667 7.991-2.2 1.85-4.637 3.893-5.416 4.541-.78.649-5.28 3.799-10 7-4.721 3.202-9.747 6.883-11.168 8.181-1.422 1.298-3.392 2.36-4.379 2.36-.986 0-3.698 1.95-6.027 4.333-4.475 4.58-9.474 7.667-12.42 7.667-.974 0-2.583 1.158-3.574 2.574-1.712 2.443-13.091 11.518-23.522 18.76-2.641 1.833-6.077 4.683-7.634 6.333-1.558 1.65-3.56 3-4.45 3-.89 0-5.922 3.51-11.181 7.801-5.26 4.292-11.383 8.74-13.609 9.887-2.226 1.146-4.842 3.57-5.813 5.384-.972 1.816-3.35 4.089-5.287 5.051-3.986 1.983-5.524 3.278-17.236 14.506-4.611 4.42-9.22 8.037-10.244 8.037-1.023 0-2.218 1.128-2.655 2.506-.438 1.378-4.797 5.578-9.687 9.333-4.89 3.756-8.543 6.828-8.118 6.828.425 0-1.627 2.4-4.56 5.333-2.933 2.934-6.042 5.334-6.908 5.334-.867 0-3.046 2.34-4.843 5.2-1.798 2.861-4.881 6.291-6.853 7.623-1.971 1.331-4.208 3.79-4.971 5.465-.763 1.675-2.336 3.045-3.495 3.045-1.159 0-1.815.473-1.457 1.051.357.578-1.407 3.062-3.921 5.52-2.515 2.459-4.572 4.986-4.572 5.616 0 .63-1.05 1.15-2.333 1.155-1.283.01-4.99 3.24-8.238 7.187-3.248 3.947-7.598 8.177-9.667 9.4-2.069 1.222-3.762 3.054-3.762 4.07 0 1.018-1.075 2.634-2.389 3.592-1.314.958-4.405 4.28-6.869 7.383-2.464 3.103-5.44 5.946-6.612 6.318-1.172.372-2.919 2.455-3.88 4.629-.963 2.174-2.848 4.3-4.19 4.727-1.342.425-3.15 2.491-4.02 4.59-.87 2.099-3.892 5.673-6.716 7.943-2.825 2.27-5.509 5.302-5.965 6.738-.455 1.436-1.998 2.982-3.427 3.436-1.429.453-2.598 1.984-2.598 3.401 0 1.418-.9 2.577-2 2.577s-2 .906-2 2.012c0 1.107-1.65 3.811-3.667 6.01-2.017 2.198-4.978 5.642-6.58 7.654a1255.525 1255.525 0 0 1-8.377 10.324c-3.005 3.667-5.809 8.017-6.23 9.667-.423 1.65-1.454 3.01-2.29 3.024-.838.013-4.223 4.187-7.523 9.275s-6.729 9.277-7.62 9.31c-.89.031-2.328 1.407-3.194 3.057-.866 1.65-2.388 3.48-3.38 4.067-.993.586-1.806 2.186-1.806 3.555 0 1.37-.488 2.69-1.084 2.934-1.92.788-12.25 15.6-12.25 17.568 0 1.046-1.49 2.88-3.311 4.073-1.822 1.194-3.712 3.76-4.2 5.704-.908 3.62-3.358 7.192-7.488 10.92-1.284 1.158-2.334 2.956-2.334 3.995 0 1.04-1.8 4.815-4 8.39-2.2 3.576-4 7.019-4 7.651 0 .633-.8 1.815-1.78 2.628-.98.813-3.228 4.336-4.996 7.83-1.769 3.494-4.868 8.84-6.886 11.879-2.02 3.04-3.67 7.016-3.67 8.837 0 1.82-.9 4.057-2 4.97-1.1.912-2 2.422-2 3.353 0 .932-.816 2.007-1.811 2.39-.996.381-2.191 2.596-2.656 4.92-.465 2.325-2.05 5.92-3.523 7.988-1.473 2.068-2.697 4.567-2.72 5.554-.023.987-.923 2.96-2 4.383s-1.958 3.346-1.958 4.274c0 .927-1.382 3.723-3.073 6.214-1.69 2.49-3.887 7.925-4.883 12.076-.996 4.151-2.613 8.214-3.594 9.028-.98.813-1.783 2.444-1.783 3.624 0 1.179-1.149 5.156-2.552 8.836-1.404 3.681-3.295 9.393-4.201 12.693-.907 3.3-2.998 10.2-4.647 15.333-3.696 11.504-5.116 16.991-4.778 18.456.143.618-.808 6.918-2.114 14-3.557 19.29-2.959 50.355 1.549 80.428 1.94 12.952 4.092 25.512 4.78 27.911.688 2.4.977 4.636.642 4.97-.335.335.226 2.175 1.247 4.089 1.02 1.914 2.859 7.38 4.085 12.146 1.227 4.767 2.957 9.867 3.845 11.333.889 1.467 1.725 4.288 1.86 6.268.134 1.98 1.45 5.58 2.925 8 1.476 2.42 2.685 5.156 2.687 6.08.003.925 1.254 4.525 2.78 8 5.922 13.485 6.559 15.138 6.559 17.031 0 1.075.552 1.955 1.227 1.955s1.623 1.8 2.106 4c.483 2.2 1.353 4 1.933 4 .58 0 1.821 2.85 2.76 6.333.937 3.483 2.665 7.533 3.84 9 3.226 4.031 5.467 8.396 5.467 10.649 0 1.11.6 2.018 1.333 2.018.734 0 1.334.826 1.334 1.837 0 1.01.925 2.604 2.056 3.542 1.704 1.415 2.72 1.216 5.946-1.17 2.14-1.582 4.509-2.876 5.266-2.876.757 0 2.063-1.1 2.904-2.447.983-1.574 2.604-2.24 4.547-1.87 1.882.36 4.074-.476 5.817-2.219 1.538-1.539 4.263-2.797 6.055-2.797 1.855 0 4.151-1.276 5.333-2.964 1.142-1.63 2.076-2.425 2.076-1.767 0 .658 1.35-.02 3-1.502 1.65-1.484 5.884-4.139 9.409-5.9 3.525-1.76 8.325-4.222 10.666-5.47 2.342-1.248 5.308-2.298 6.591-2.333 1.284-.035 2.334-.912 2.334-1.948 0-1.678 15.73-8.783 19.445-8.783.764 0 3.114-1.8 5.221-4 2.108-2.2 4.806-4 5.995-4 1.19 0 3.327-.88 4.75-1.957 1.424-1.077 3.639-1.977 4.922-2 1.283-.023 2.333-.573 2.333-1.22 0-.648 1.05-1.531 2.334-1.962 1.283-.43 3.383-1.4 4.666-2.155 5.388-3.168 7.155-4.112 10-5.343 1.65-.713 3-1.912 3-2.663 0-.752.912-1.367 2.027-1.367 2.294 0 11.95-5.805 13.307-8 .49-.793 2.032-1.079 3.428-.636 1.727.548 3.924-.496 6.887-3.273 2.393-2.243 5.101-4.08 6.018-4.084.917 0 1.667-.532 1.667-1.173 0-.642 1.75-1.517 3.89-1.945 2.14-.428 5.89-2.455 8.334-4.504 2.443-2.048 7.892-5.473 12.11-7.61 4.216-2.137 7.666-4.32 7.666-4.852 0-.531 2.42-1.935 5.378-3.118 2.958-1.184 5.722-3.049 6.142-4.145.42-1.096 1.644-1.993 2.718-1.993s2.858-.905 3.965-2.012c1.106-1.107 2.568-1.669 3.247-1.249.68.42 1.595-.175 2.035-1.321.44-1.147 1.562-2.085 2.494-2.085.932 0 2.436-.893 3.342-1.985.906-1.092 2.18-1.656 2.83-1.254.65.401 1.182.23 1.182-.38s3.804-3.043 8.453-5.404c4.65-2.362 9.592-5.553 10.984-7.09 2.436-2.693 5.422-4.43 19.896-11.57 3.667-1.81 8.467-4.95 10.667-6.978 2.2-2.028 6.278-4.091 9.062-4.585 3.574-.634 5.498-1.856 6.547-4.159.817-1.794 2.284-3.261 3.26-3.261.977 0 2.525-1.2 3.44-2.667.917-1.467 2.401-2.667 3.3-2.667 2.943 0 11.677-4.608 13.898-7.333 1.195-1.467 5.236-4.167 8.98-6 3.742-1.833 6.814-3.783 6.826-4.333.012-.55.833-1 1.826-1 .993 0 3.424-1.5 5.402-3.334 1.978-1.833 4.357-3.333 5.286-3.333.929 0 4.048-2.1 6.93-4.665 2.884-2.567 5.923-4.667 6.753-4.667.83 0 5.33-2.99 10-6.641 4.67-3.652 9.24-6.652 10.157-6.667.916-.014 1.666-.49 1.666-1.057 0-.566 2-2.107 4.445-3.423 2.444-1.316 6.044-3.877 8-5.69 1.955-1.814 3.555-2.861 3.555-2.328 0 .534 1.65-.572 3.667-2.456 2.017-1.885 5.975-4.239 8.796-5.23 2.82-.993 7.039-3.913 9.374-6.49 6.033-6.66 18.118-16.02 20.684-16.02 1.194 0 2.92-1.2 3.837-2.666.916-1.467 2.355-2.667 3.197-2.667.843 0 4.588-2.314 8.322-5.142 3.735-2.828 8.89-6.278 11.457-7.666 2.566-1.389 4.966-2.864 5.333-3.28.367-.415 3.517-2.693 7-5.064 3.483-2.37 6.333-4.88 6.333-5.578 0-.698.626-1.27 1.39-1.27 1.663 0 11.5-6.969 18.352-13.003 2.709-2.385 5.975-4.675 7.258-5.09 1.284-.414 2.334-1.264 2.334-1.888 0-.624 2.25-2.475 5-4.114 2.75-1.64 5.6-3.638 6.333-4.442 3.016-3.308 10.9-8.43 14.24-9.253 1.967-.484 5.8-2.98 8.52-5.545 2.72-2.565 5.69-4.665 6.597-4.665s2.397-.9 3.31-2c.913-1.1 2.256-2 2.984-2 .729 0 4.186-2.1 7.682-4.666 3.497-2.567 7.027-4.667 7.846-4.667.818 0 1.488-.9 1.488-2s1.126-2 2.503-2c1.377 0 3.28-.935 4.227-2.077.949-1.142 3.572-2.953 5.83-4.024 2.259-1.07 5.606-2.781 7.44-3.802 1.833-1.02 5.649-2.96 8.48-4.31 2.83-1.35 5.432-3.17 5.78-4.046.35-.876 5.082-2.913 10.518-4.527 5.436-1.614 10.558-3.747 11.382-4.74.825-.994 2.89-1.807 4.591-1.807 1.7 0 3.462-.6 3.915-1.334.454-.733 3.819-1.333 7.479-1.333s8.545-.978 10.856-2.173c8.304-4.294 26.448-3.131 38.138 2.444 4.833 2.304 6.003 2.458 6.98.916.73-1.154 1.181-1.266 1.194-.297.01.856 2.87 2.626 6.353 3.934 3.484 1.307 9.1 4.057 12.481 6.11 3.381 2.053 6.765 3.733 7.52 3.733.754 0 3.688 2.086 6.519 4.636 2.83 2.55 5.597 4.65 6.147 4.666.55.017 1.27.063 1.601.101.33.04 3.48 2.68 7 5.867 13.12 11.886 18.597 16.344 26.021 21.18 4.192 2.732 12.592 9.612 18.667 15.29 6.074 5.677 13.444 12.069 16.378 14.204 2.933 2.135 8.245 7.071 11.804 10.969 3.558 3.898 7.504 7.087 8.767 7.087 1.264 0 3.706 1.5 5.429 3.333 1.722 1.833 4.197 3.333 5.5 3.333 1.302 0 2.847.843 3.434 1.873 1.353 2.377 21.402 16.794 23.354 16.794.803 0 3.427 1.5 5.83 3.333 2.404 1.834 4.923 3.334 5.598 3.334.675 0 2.78 1.438 4.676 3.196 1.897 1.758 5.135 4.047 7.195 5.088a555.93 555.93 0 0 1 6.746 3.47c6.833 3.596 8.384 4.246 10.136 4.246 1.01 0 3.28 1.134 5.042 2.52 1.763 1.387 5.734 3.279 8.825 4.205 3.092.926 6.624 2.792 7.849 4.146 1.225 1.354 3.048 2.462 4.05 2.462 1.002 0 4.06 1.437 6.793 3.194 2.735 1.757 7.372 3.944 10.305 4.86 2.933.917 6.764 2.78 8.513 4.14 1.75 1.36 3.763 2.473 4.474 2.473.712 0 3.078 1.5 5.256 3.333 2.18 1.833 5.173 3.333 6.654 3.333 1.48 0 4.284 1.104 6.23 2.453 4.74 3.283 20.236 10.88 22.194 10.88.86 0 2.341 1.457 3.294 3.237 1.428 2.67 2.147 2.977 4.104 1.755 1.946-1.215 3.272-.69 7.396 2.93 2.764 2.427 6.926 5.207 9.25 6.178 2.323.97 5.667 3.285 7.43 5.143 1.763 1.858 3.633 3.389 4.155 3.401.523.013 4.723 2.744 9.333 6.07 4.611 3.326 10.484 7.453 13.05 9.172 4.581 3.069 10.667 9.326 10.667 10.969 0 .458 1.05 1.805 2.333 2.992 6.877 6.363 8.296 10.209 7.852 21.268-.48 11.93-2.183 15.58-10.738 23.016-4.902 4.26-5.795 4.533-14.667 4.477-13.961-.087-24.77-1.402-30.78-3.745-2.933-1.143-6.856-2.105-8.718-2.137-3.787-.066-14.856-3.807-19.949-6.744-1.833-1.057-6.918-3.542-11.3-5.522-4.383-1.98-8.172-4.21-8.42-4.955-.249-.745-1.2-1.067-2.116-.716-.916.352-2.77-.582-4.121-2.075-1.35-1.492-3.199-2.713-4.107-2.713-.907 0-1.962-.812-2.343-1.804-.742-1.936-16.881-10.196-19.92-10.196-1.006 0-2.994-.881-4.418-1.958-1.423-1.076-4.34-1.976-6.483-2-2.142-.023-4.842-.84-6-1.814-1.158-.974-5.388-2.494-9.4-3.378-4.012-.883-8.605-2.837-10.207-4.342-2.352-2.21-3.437-2.456-5.634-1.28-2.103 1.125-2.965 1.027-3.793-.433-.589-1.039-4.67-3.105-9.07-4.59-12.783-4.317-17.622-6.629-18.464-8.822-.433-1.128-1.855-2.07-3.162-2.095-1.306-.025-4.775-1.205-7.708-2.622-2.934-1.416-7.256-2.596-9.606-2.62-2.524-.028-5.61-1.274-7.54-3.046-5.347-4.91-7.33-6.334-8.825-6.334-.778 0-3.792-1.5-6.696-3.333-2.904-1.833-6.365-3.333-7.69-3.333-1.326 0-4.488-1.776-7.027-3.946-2.539-2.17-5.879-3.97-7.422-4-1.542-.03-4.423-1.554-6.402-3.388-1.978-1.833-4.092-3.333-4.698-3.333-.605 0-1.848-.9-2.76-2-.914-1.1-2.723-2-4.021-2-1.299 0-2.67-.805-3.048-1.79-.691-1.8-10.133-6.99-11.855-6.515-.508.14-2.008-1.1-3.334-2.754-1.325-1.655-4.81-4.405-7.743-6.112-2.933-1.708-5.813-3.943-6.4-4.967-.586-1.024-1.691-1.862-2.455-1.862s-2.985-1.232-4.934-2.738c-6.522-5.038-13.644-9.262-15.616-9.262-1.074 0-3.748-1.65-5.943-3.667-6.785-6.234-7.57-6.79-12.515-8.857-2.642-1.103-4.804-2.637-4.804-3.408 0-.77-1.717-1.401-3.816-1.401-2.234 0-5.905-1.66-8.85-4-4.808-3.82-6.534-4.59-9.193-4.094-.657.123-2.757-1.156-4.667-2.842-4.341-3.83-8.873-6.398-11.292-6.398-1.02 0-2.52-.8-3.332-1.78-.813-.979-3.887-2.575-6.83-3.547-2.944-.971-5.353-2.57-5.353-3.553 0-1.85-.148-1.925-4.794-2.431-1.537-.168-4.705-1.717-7.04-3.444-3.24-2.395-5.578-3.031-9.872-2.686-3.095.249-11.627.577-18.96.73-16.622.345-22.361 1.127-23.032 3.139-.288.865-1.6 1.572-2.916 1.572-1.316 0-3.14.9-4.053 2-.913 1.1-2.765 2-4.116 2-1.352 0-4.428 1.717-6.837 3.816-2.409 2.098-6.33 4.813-8.713 6.034-2.384 1.22-4.334 2.839-4.334 3.597s-.504 1.066-1.12.685c-.618-.382-2.436 1.083-4.04 3.254-1.606 2.171-3.801 3.948-4.88 3.948-1.078 0-1.96.6-1.96 1.333s-.856 1.333-1.903 1.333c-1.047 0-3.2 1.65-4.787 3.667-1.586 2.017-3.373 3.667-3.97 3.667s-2.938 1.65-5.201 3.666c-2.264 2.017-4.74 3.667-5.502 3.667-.763 0-1.732.9-2.154 2-.422 1.1-1.309 2-1.97 2-.66 0-5.506 3.615-10.767 8.032-5.262 4.418-12.607 10.058-16.323 12.534-3.716 2.476-8.21 6.062-9.988 7.968-1.778 1.906-4.178 3.472-5.334 3.478-1.155.01-5.1 2.725-8.767 6.04-3.667 3.314-8.3 6.915-10.294 8-1.995 1.087-4.263 3.163-5.04 4.615-.776 1.451-3.162 3.544-5.3 4.65-2.14 1.106-5.488 3.493-7.443 5.304-1.955 1.812-4.802 3.69-6.327 4.174-1.525.484-4.575 2.565-6.778 4.623-2.203 2.059-5.52 4.532-7.371 5.496-1.852.964-4.332 2.653-5.511 3.753-5.597 5.217-9.83 8.292-16.017 11.634-3.7 1.998-10.002 6.552-14.005 10.12-4.003 3.567-8.043 6.599-8.978 6.736-2.47.362-18.27 12.757-18.27 14.333 0 .734-.64.939-1.422.455-.782-.483-2.142.106-3.022 1.31-1.621 2.217-5.585 4.783-11.433 7.402-1.766.79-5.366 3.237-8 5.437-7.715 6.443-7.915 6.573-10.066 6.573-1.131 0-2.057.6-2.057 1.333s-.826 1.333-1.836 1.333c-1.01 0-2.597.917-3.526 2.036-2.011 2.423-12.983 9.964-14.498 9.964-.583 0-2.132 1.185-3.442 2.633s-3.653 3.03-5.207 3.516c-2.615.818-7.61 4.278-13.086 9.065-2.912 2.546-9.82 6.12-11.829 6.12-1.4 0-3.423 1.492-14.453 10.663-1.767 1.469-3.686 2.67-4.265 2.67-.58 0-2.672 1.5-4.65 3.333-1.978 1.834-4.316 3.334-5.196 3.334-.879 0-2.684 1.2-4.012 2.666-1.327 1.467-3.37 2.68-4.54 2.697-1.17.016-3.626 1.203-5.46 2.637-1.833 1.434-3.894 2.62-4.58 2.637-.686.016-2.486 1.154-4 2.528-3.952 3.587-24.52 17.501-25.87 17.501-.625 0-2.222 1.2-3.55 2.667-1.327 1.467-3.156 2.667-4.064 2.667-.907 0-1.996.9-2.418 2-.422 1.1-2.256 2-4.075 2-2.09 0-5.645 2.208-9.66 6-3.493 3.3-6.805 6-7.36 6-.556 0-4.178 1.47-8.05 3.268-6.264 2.908-10.483 5.83-17.04 11.803-1.1 1.002-5 3.23-8.666 4.95-3.667 1.72-6.967 3.54-7.333 4.041-.367.502-3.367 2.263-6.667 3.914-3.3 1.65-6.9 3.763-8 4.694-1.1.932-5.564 3.578-9.92 5.88-4.356 2.303-9.756 5.576-12 7.274-2.244 1.697-5.656 3.474-7.583 3.949-1.927.474-4.49 2.37-5.697 4.211-1.207 1.842-2.741 3.35-3.409 3.35-1.743 0-15.204 8.368-16.374 10.18-.54.836-2.604 1.928-4.585 2.426-1.981.497-5.29 2.105-7.35 3.573-2.062 1.467-3.749 2.246-3.749 1.73 0-.517-1.555.615-3.456 2.516l-3.456 3.456 4.029 7.726c2.215 4.249 6.536 12.825 9.6 19.059 3.066 6.233 7.595 15.11 10.066 19.727 6.266 11.708 14.896 28.549 15.855 30.94.441 1.1 2.869 5.6 5.395 10 2.526 4.4 5.802 10.7 7.28 14 1.478 3.3 3.392 7.2 4.253 8.666 3.499 5.956 17.101 34.656 17.101 36.082 0 .383 1.2 1.984 2.667 3.559 1.466 1.574 2.666 3.682 2.666 4.684 0 1.002 1.728 5.24 3.84 9.415 2.112 4.177 5.16 10.893 6.773 14.927 1.614 4.033 5.205 12.133 7.98 18 9.116 19.266 20.074 43.974 20.074 45.263 0 .457 2.628 6.36 5.839 13.117 3.211 6.758 6.558 14.536 7.437 17.286.879 2.75 2.151 5 2.828 5 .676 0 1.23.885 1.23 1.967s1.8 5.897 4 10.7c2.2 4.803 4 9.309 4 10.011 0 .703 2.045 5.638 4.546 10.967 2.5 5.329 6.783 15.089 9.517 21.689 2.734 6.6 6.03 14.4 7.325 17.333 1.295 2.933 3.133 7.583 4.084 10.333.952 2.75 2.51 5 3.462 5 .953 0 1.732 1.236 1.732 2.746 0 2.341 12.372 33.254 16.11 40.255.686 1.284 2.769 6.378 4.63 11.32 1.86 4.942 4.81 11.992 6.554 15.666 4.601 9.687 8.215 18.196 9.348 22.013.544 1.834 2.672 6.334 4.728 10 2.056 3.667 5.954 12.367 8.661 19.334 5.226 13.447 6.454 16.376 11.75 28.02 1.84 4.046 3.774 9.146 4.3 11.334.524 2.189 1.393 4.58 1.93 5.312.536.734 1.72 3.734 2.63 6.667.911 2.933 2.4 6.533 3.31 8 1.915 3.088 12.716 29.744 12.716 31.381 0 .605 1.838 5.192 4.084 10.193 2.247 5.001 4.575 10.293 5.174 11.76 3.147 7.705 5.347 13.685 6.13 16.666.481 1.833 2.248 6.333 3.926 10 1.677 3.667 3.497 8.767 4.043 11.333.546 2.567 3.014 8.99 5.484 14.272 2.47 5.283 4.492 10.517 4.492 11.631 0 1.893 3.497 10.455 7.393 18.099 3.186 6.252 7.285 17.978 11.417 32.665 2.27 8.067 4.666 15.237 5.325 15.933.66.697 1.198 2.272 1.198 3.5 0 1.227 1.442 4.857 3.205 8.066 1.762 3.209 3.624 8.534 4.138 11.834.513 3.3 1.732 7.8 2.708 10 1.765 3.98 9.877 28.142 14.996 44.667 1.477 4.767 3.003 10.886 3.391 13.599.388 2.712 1.617 6.912 2.731 9.333 1.114 2.42 3.893 13.701 6.176 25.068 2.283 11.367 4.678 22.767 5.323 25.333.645 2.567 1.797 8.267 2.56 12.667.762 4.4 2.57 14.6 4.016 22.667 1.447 8.066 3.878 25.166 5.403 38a7590.84 7590.84 0 0 0 4.78 39.333c1.104 8.8 2.595 20.8 3.314 26.667.72 5.866 2.19 24.663 3.269 41.77 1.078 17.107 2.417 31.807 2.976 32.667.558.86 1.41 6.363 1.895 12.23 3.828 46.403 6.397 67.832 10.87 90.666 10.267 52.427 9.192 47.205 14.136 68.667 1.436 6.233 3.517 14.933 4.625 19.333 1.109 4.4 2.972 12.5 4.142 18 1.17 5.5 3.23 12.7 4.579 16 1.349 3.3 2.883 9 3.408 12.667.526 3.666 1.48 7.646 2.12 8.843.641 1.197 2.649 8.697 4.463 16.666 3.138 13.792 5.97 24.874 8.984 35.157.752 2.567 2.204 9.167 3.227 14.667 1.022 5.5 2.408 11.247 3.08 12.771.67 1.525 2.493 9.625 4.048 18 1.556 8.376 3.42 17.33 4.142 19.896 1.21 4.298 2.18 8.86 7.523 35.333 1.975 9.785 4.6 24.716 6.913 39.333.755 4.767 2.337 18.567 3.517 30.667 3.242 33.257 4.733 44.753 7.427 57.259 3.748 17.399 8.068 33.997 9.042 34.74.48.368 2.073 3.04 3.54 5.939 3.493 6.903 8.428 12.729 10.785 12.729 1.035 0 1.882.6 1.882 1.333s.9 1.333 2 1.333 2 .588 2 1.307c0 .718 2.4 2.53 5.333 4.027 2.933 1.496 5.333 3.308 5.333 4.027 0 .718 1.05 1.32 2.334 1.336 1.283.016 3.833 1.203 5.666 2.637 1.834 1.434 4.236 2.62 5.338 2.637 1.102.016 4.958 2.13 8.568 4.696 3.61 2.567 7.294 4.667 8.186 4.667.893 0 1.968.9 2.39 2 .435 1.133 2.422 2 4.584 2 2.099 0 6.767 1.497 10.375 3.328 3.608 1.83 7.776 3.33 9.263 3.333 1.487 0 3.917.856 5.401 1.895 1.484 1.04 4.924 2.308 7.645 2.818 2.72.51 5.26 1.434 5.641 2.052.382.618 1.48.823 2.438.455.96-.368 2.514.258 3.454 1.391.941 1.134 3.604 2.061 5.917 2.061 2.314 0 5.39.815 6.837 1.81 2.885 1.987 11.707 3.548 23.729 4.2 4.707.256 8.686 1.256 10.105 2.54 2.625 2.375 6.23 2.777 7.436.827.438-.71 2.424-1.007 4.412-.662 10.2 1.772 61.834 2.477 140.948 1.926 10.267-.072 21.79.412 25.608 1.073 4.183.725 7.428.717 8.164-.02.74-.74 3.272-.67 6.423.179 2.86.77 6.987 1.353 9.17 1.295 6.07-.162 23.89 1.505 37.866 3.54 6.91 1.007 13.1 1.499 13.757 1.093.656-.405 5.502.209 10.77 1.365 5.266 1.155 16.775 3.292 25.575 4.748 8.8 1.455 20.2 3.498 25.334 4.538 5.133 1.041 15.333 2.587 22.666 3.435 7.334.848 15.434 1.89 18 2.316 2.567.426 9.317 1.05 15 1.387 5.684.337 10.334 1.105 10.334 1.706 0 .602 15.6 1.006 34.666.899 19.067-.108 34.667.166 34.667.609 0 .891 8.494.427 24.667-1.347zm370.55-440.536c-1.227-.687-5.455-.869-9.396-.406-3.941.464-12.713.179-19.494-.633-6.78-.811-14.499-1.633-17.153-1.826-2.654-.193-5.473-.75-6.264-1.24-.79-.488-7.92-1.192-15.84-1.563-7.922-.371-16.503-1.339-19.07-2.15-2.567-.812-6.167-1.951-8-2.533-1.833-.581-7.928-1.444-13.544-1.916-6.013-.506-12.165-1.907-14.966-3.408-2.615-1.402-8.22-2.944-12.456-3.427-4.235-.484-8.884-1.69-10.33-2.683-1.447-.992-4.43-1.803-6.628-1.803-5.514 0-18.076-3.033-18.076-4.364 0-.6-2.037-.708-4.527-.241-2.994.562-5.59.178-7.667-1.132-3.56-2.248-17.889-4.93-26.336-4.93-3.105 0-6.956-.723-8.557-1.607-1.603-.884-9.174-1.766-16.838-1.96-10.845-.277-14.178-.807-15.066-2.394-.657-1.173-2.97-2.039-5.445-2.039-2.367 0-5.487-.806-6.934-1.791-1.446-.985-5.48-2.617-8.963-3.625-3.484-1.008-6.334-2.234-6.334-2.724 0-.49-1.65-1.21-3.666-1.599-8.24-1.591-14.153-3.519-20.86-6.8-3.89-1.904-8.693-3.46-10.673-3.46-1.98 0-5.24-.85-7.246-1.887-2.006-1.037-5.876-2.303-8.6-2.815-2.725-.51-4.955-1.414-4.955-2.008 0-.593-1.95-1.462-4.333-1.93-4.041-.792-8.155-2.268-13.044-4.68-1.124-.555-4.124-1.43-6.666-1.944-2.543-.515-6.641-1.851-9.107-2.97-2.466-1.119-5.766-2.218-7.333-2.442-11.677-1.669-25.02-5.443-26.244-7.423-.503-.814-4.745-1.594-9.427-1.732-4.682-.138-9.823-.983-11.425-1.877-1.601-.895-4.978-1.626-7.503-1.626-2.525 0-5.338-.9-6.25-2-1.043-1.256-3.98-2-7.897-2-3.43 0-6.904-.667-7.719-1.482-.832-.832-7.999-1.729-16.355-2.046-8.242-.312-17.529-1.465-20.829-2.586-3.275-1.112-7.945-2.2-10.378-2.418-2.433-.219-5.108-.82-5.944-1.337-.836-.517-5.705-.817-10.82-.668-5.364.157-10.07-.366-11.118-1.235-1.066-.885-4.524-1.248-8.378-.88-3.61.346-9.563.157-13.23-.42-3.666-.576-11.166-.578-16.666 0-5.5.574-16.343 1.28-24.095 1.566-7.752.288-15.252 1.168-16.667 1.957-1.414.79-10.372 2.087-19.905 2.884-35.743 2.988-43.227 3.852-45.94 5.303-1.63.873-5.949 1.2-10.422.791-5.03-.46-9.992.024-14.533 1.42-6.259 1.925-7.169 1.928-9.872.033-1.86-1.302-3.777-1.68-5.106-1.004-1.17.595-3.962 1.429-6.205 1.852-3.474.657-4.643.092-7.898-3.812-2.102-2.52-4.676-4.582-5.72-4.582-1.046 0-3.641-1.863-5.769-4.141-3.01-3.223-3.868-5.396-3.868-9.8 0-4.058-1.051-7.13-3.715-10.859-4.261-5.967-12.285-24.533-12.285-28.427 0-1.44.522-2.942 1.16-3.336 2.53-1.563 2.817-8.903.488-12.456-3.231-4.932-3.084-19.37.26-25.65 1.368-2.568 3.67-5.7 5.117-6.963 1.446-1.263 3.01-4.152 3.473-6.42.548-2.677 2.243-4.913 4.833-6.371 2.193-1.236 4.866-3.447 5.938-4.914 1.072-1.466 3.625-4.362 5.673-6.435 2.049-2.073 3.724-4.226 3.724-4.783 0-1.46 11.59-12.115 13.176-12.115.733 0 3.86-2.997 6.948-6.66 3.566-4.229 7.253-7.112 10.1-7.898 3.991-1.102 9.098-4.464 15.11-9.947 1.1-1.003 3.35-2.24 5-2.75 1.65-.508 3-1.396 3-1.973 0-3.257 6.914-7.968 13.788-9.395 4.92-1.021 10.49-3.605 16.207-7.52 4.791-3.28 9.471-5.79 10.4-5.577 1.674.383 10.357-2.866 17.109-6.403 1.927-1.01 6.727-2.504 10.666-3.322 3.94-.818 8.363-2.22 9.83-3.116 4.637-2.834 14.498-6.435 19.16-6.996 2.472-.298 6.424-1.347 8.783-2.333 3-1.254 5.006-1.391 6.675-.457 1.65.924 4.08.8 7.884-.4 3.024-.953 8.842-1.847 12.929-1.987 4.087-.139 8.587-.838 10-1.553 1.413-.715 5.869-.935 9.902-.488 4.033.446 10.294.372 13.913-.165 3.62-.537 7.22-.472 8 .145.781.618 5.92 1.533 11.42 2.034 14.033 1.28 15.007 1.444 18 3.056 1.467.79 6.1 1.863 10.294 2.386 4.195.522 8.318 1.783 9.163 2.801.845 1.018 3.749 1.851 6.452 1.851s6.08.881 7.503 1.958c1.424 1.077 3.55 1.977 4.723 2 1.174.023 4.956 1.542 8.404 3.376 3.448 1.833 6.9 3.333 7.673 3.333.772 0 3.186 1.5 5.365 3.333 2.179 1.834 4.965 3.35 6.192 3.37 1.227.02 4.542 1.787 7.367 3.925 2.824 2.137 6.873 4.268 8.998 4.735 2.125.466 4.614 1.873 5.532 3.125.917 1.252 5.118 4.003 9.334 6.113 4.217 2.11 7.667 4.637 7.667 5.617 0 .98.612 1.782 1.36 1.782.748 0 3.598 1.408 6.333 3.129 2.736 1.72 7.322 3.9 10.19 4.842l5.218 1.713 5.449-6.509c13.986-16.706 33.207-33.087 42.055-35.842 1.799-.56 4.076-1.823 5.06-2.807s4.198-2.438 7.144-3.23c2.946-.794 10.412-4.11 16.592-7.37 6.18-3.259 12.478-5.926 13.995-5.926 1.517 0 5.416-1.484 8.665-3.298 3.312-1.85 6.864-2.93 8.088-2.46 1.321.507 2.668-.032 3.416-1.37.679-1.213 2.382-2.205 3.785-2.205s5.715-1.247 9.58-2.77c4.2-1.656 8.514-2.475 10.717-2.034 2.028.406 5.177.171 6.997-.52 1.82-.693 10.37-1.53 19-1.863 8.629-.332 20.49-1.206 26.356-1.943 13.476-1.693 64.008-1.877 69.333-.253 2.2.672 9.4 1.514 16 1.872 6.6.358 13.8 1.338 16 2.178 2.2.84 12.7 3.04 23.334 4.889 10.633 1.85 21.733 3.802 24.666 4.34 2.934.537 7.996 2.28 11.25 3.874 3.255 1.593 7.283 2.896 8.952 2.896 2.993 0 14.945 4.104 19.447 6.677 1.273.728 3.409 1.323 4.745 1.323 1.337 0 3.595.881 5.018 1.958 1.424 1.077 4.405 1.977 6.625 2 2.22.023 5.22.829 6.667 1.79 1.446.96 5.33 2.585 8.63 3.61 3.3 1.025 6.3 2.26 6.666 2.745 1.074 1.42 28.789 14.564 30.708 14.564.963 0 5.577 1.531 10.254 3.402 8.793 3.518 12.31 3.427 16.705-.433 2.081-1.828 2.585-1.832 4.667-.037 2.66 2.293 10.786 6.402 12.661 6.402.688 0 2.777 1.2 4.642 2.667 1.864 1.466 4.149 2.666 5.076 2.666 4.214 0 26.93 17.772 37.287 29.172 9.52 10.478 10.004 11.19 11.84 17.381 1.325 4.468 1.542 9.344.806 18.114-1.279 15.232-3.32 22.806-7.714 28.61-3.9 5.152-4.627 11.34-6.826 58.057-.621 13.2-1.57 25.8-2.107 28-1.818 7.441-12.635 33.852-17.592 42.954-4.469 8.204-16.407 21.712-19.188 21.712-.62 0-3.097 1.705-5.505 3.79-2.41 2.083-6.454 4.495-8.99 5.36-2.535.864-5.835 2.662-7.333 3.997-3.337 2.972-17.83 7.856-26.781 9.025-3.636.475-7.39 1.48-8.346 2.233-.954.754-5.154 1.547-9.333 1.763-4.178.215-12.697 1.061-18.93 1.879-19.7 2.585-66.795 4.067-70.118 2.208zm7.23-97.452c.887-.549 4.586-.84 8.219-.647 3.633.193 7.02-.064 7.525-.57.506-.505 4.455-.92 8.776-.92 7.993 0 25.401-2.165 29.033-3.612 1.1-.438 2.6-.886 3.333-.996 3.1-.465 9.398-2.596 12.578-4.256 1.882-.982 4.266-1.79 5.297-1.794 1.03 0 3.862-1.524 6.291-3.377 2.43-1.853 7.436-4.344 11.126-5.536 3.69-1.192 6.708-2.675 6.708-3.297 0-.622 1.066-1.131 2.367-1.131 2.416 0 18.798-16.068 23.83-23.374 6.902-10.018 13.803-29.37 13.803-38.7 0-3.814-3.298-7.26-6.948-7.26-1.517 0-3.424-.858-4.238-1.907-.814-1.05-2.638-2.1-4.052-2.334-1.414-.234-4.414-2.39-6.667-4.793-2.252-2.402-5.479-4.624-7.17-4.938-3.822-.708-10.963-5.053-14.219-8.651-1.349-1.49-3.278-2.71-4.287-2.71-1.01 0-2.181-.9-2.603-2-.422-1.1-1.992-2-3.488-2s-5.181-2.014-8.19-4.475c-6.32-5.17-15.625-10.166-19.084-10.247-1.313-.031-5.387-1.849-9.054-4.04-8.683-5.187-15.23-8.11-26.666-11.902-10.77-3.571-15.07-5.174-18.315-6.825-1.274-.647-3.474-1.177-4.89-1.177-1.415 0-2.773-.45-3.017-1-.93-2.09-9.022-5.667-12.821-5.667-2.18 0-6.22-.943-8.977-2.095-2.757-1.151-6.88-2.139-9.163-2.194-2.283-.055-4.45-.493-4.817-.974-1.786-2.342-13.646-5.404-20.934-5.404-4.507 0-8.386-.626-8.642-1.395-.256-.767-5.256-1.735-11.111-2.15-5.856-.417-12.747-.905-15.313-1.086-2.567-.181-4.967-.471-5.334-.646-.366-.174-13.005-.284-28.087-.244-24.659.065-28.068.35-33.85 2.828-3.537 1.516-7.437 2.437-8.668 2.046-4.503-1.43-16.02 2.001-25.585 7.62-5.395 3.17-13.71 7.485-18.476 9.59-4.767 2.106-9.23 4.79-9.92 5.966-1.82 3.105-14.39 14.685-16.792 15.468-2.224.725-8.105 12.776-10.434 21.384-.801 2.96-2.671 6.684-4.155 8.278-1.485 1.593-2.69 3.671-2.68 4.619.042 3.57 3.45 11.235 7.134 16.051 3.895 5.09 4.823 9.369 7.258 33.468l.922 9.13 5.333 1.85c2.934 1.017 6.31 1.859 7.504 1.87 1.193.013 2.94.947 3.88 2.08.94 1.134 2.576 1.729 3.634 1.323 1.059-.406 5.913.504 10.787 2.023 4.874 1.518 10.362 2.991 12.195 3.274 9.006 1.385 20.12 3.945 27.334 6.293 4.4 1.433 11.3 2.92 15.333 3.306 4.033.385 8.613 1.498 10.178 2.473 1.564.975 3.964 1.731 5.333 1.68 1.37-.05 6.24.882 10.822 2.072 17.606 4.569 23.803 5.893 27.667 5.913 2.2.013 7.9 1.02 12.667 2.241 4.766 1.222 12.266 2.784 16.666 3.47 4.4.687 9.2 1.676 10.667 2.198 1.467.522 4.467 1.025 6.667 1.118 9.958.42 23.333 2.377 23.333 3.414 0 .628 1.35 1.169 3 1.202 1.65.033 4.8.84 7 1.793 4.195 1.818 21.637 2.02 24.446.283zm-307.822-73.136c.663-1.65 1.244-2.15 1.29-1.111.048 1.039.491 1.482.988.986.496-.497-.732-2.61-2.73-4.695-1.999-2.086-4.723-5.83-6.054-8.32-1.331-2.49-4.707-5.727-7.502-7.193-2.795-1.467-7.726-5.192-10.959-8.279-3.232-3.086-6.997-5.967-8.366-6.401-1.369-.435-2.815-1.81-3.214-3.055-.4-1.246-3.486-4.006-6.86-6.134-3.375-2.128-9.339-6.478-13.254-9.667-3.914-3.189-7.535-5.798-8.046-5.798-.51 0-3.205-1.95-5.987-4.333-9.942-8.516-18.014-13.982-23.264-15.753-2.934-.99-6.234-2.512-7.334-3.384-1.1-.872-4.7-2.503-8-3.626-3.3-1.122-8.015-3.061-10.479-4.31-2.463-1.247-8.463-2.751-13.333-3.342-4.87-.591-12.454-1.757-16.854-2.591-11.145-2.112-19.715-2.532-21.582-1.058-.93.735-2.577.768-4 .08-1.33-.642-4.818-.996-7.752-.786-16.005 1.147-21.29 1.755-25.11 2.889-2.323.69-6.511 1.26-9.308 1.27-2.797.014-6.144.976-7.438 2.147-2.75 2.488-6.81 2.825-6.81.564 0-.878-1.318-.402-3 1.083-1.65 1.457-4.5 2.518-6.334 2.357-1.833-.16-4.533.466-6 1.392-2.849 1.799-18.65 6.067-22.46 6.067-1.26 0-2.61.834-3 1.852-.391 1.018-3.522 2.875-6.959 4.126-3.436 1.25-8.138 3.117-10.449 4.148-2.31 1.031-4.904 1.874-5.762 1.874-.859 0-4.068 1.438-7.132 3.195s-6.98 3.617-8.703 4.132c-1.722.515-4.272 2.077-5.666 3.472-1.395 1.394-4.059 2.535-5.921 2.535-2.19 0-5.233 1.883-8.614 5.333-2.876 2.933-6.088 5.333-7.138 5.333-1.05 0-2.226.823-2.612 1.829-.386 1.005-2.337 2.239-4.337 2.74-4.557 1.144-18.498 15.366-20.394 20.804-1.297 3.72-1.131 4.174 1.952 5.346 4.485 1.705 5.747 1.637 14.797-.804 4.252-1.147 10.116-2.39 13.03-2.761 2.915-.372 8.615-1.547 12.668-2.611 4.052-1.064 13.067-2.524 20.034-3.244 16.49-1.704 22.734-2.573 26-3.621 1.466-.47 3.752-.697 5.08-.503 1.326.194 3.268-.358 4.315-1.226 1.196-.993 3.273-1.202 5.587-.563 5.473 1.51 9.53 1.236 17.957-1.214 4.176-1.213 10.172-2.135 13.326-2.048 3.154.087 14.435-.29 25.068-.838 24.85-1.28 30.64-1.194 42 .624 5.133.821 12.333 1.792 16 2.157s8.767 1.246 11.333 1.958c2.567.711 7.26 1.297 10.429 1.301 3.335 0 6.604.85 7.762 2.008 1.1 1.1 3.607 2.038 5.571 2.085 5.824.14 18.345 3.122 20.452 4.871 1.075.893 4.118 1.891 6.762 2.22 2.644.327 6.806 1.513 9.25 2.635 2.442 1.122 7.272 2.438 10.731 2.926 3.46.487 6.979 1.715 7.82 2.728.945 1.139 2.764 1.532 4.763 1.03 2.123-.532 4.118-.013 5.804 1.514 1.533 1.387 3.7 2.029 5.374 1.591 1.542-.403 6.512.353 11.043 1.682 13.508 3.959 18.602 5.038 24.616 5.216 4.758.14 5.91-.331 6.915-2.832zm-85.816-225.447c-6.692-6.31-9.885-14.753-10.959-28.97-.903-11.968 1.209-29.844 3.709-31.389.61-.377 1.108-2.1 1.108-3.829 0-3.008 3.766-13.324 6.744-18.472 7.98-13.793 16.293-32.728 17.234-39.247 1.67-11.583 4.257-20.677 6.591-23.177 1.154-1.235 4.717-2.635 7.918-3.112 4.937-.734 6.317-.4 9.084 2.2 11.283 10.6 12.095 25.185 4.326 77.776-3.871 26.209-14.27 54.06-24.048 64.413-8.984 9.512-14.612 10.5-21.707 3.808zm167.191-8.849c-1.1-.731-4.93-1.34-8.51-1.35-4.638-.015-7.13-.728-8.667-2.478-1.186-1.351-4.706-4.059-7.823-6.017-3.117-1.957-5.667-4.008-5.667-4.556s-1.38-2.49-3.068-4.317c-1.687-1.826-4.217-5.27-5.62-7.653-1.405-2.383-2.976-4.333-3.492-4.333-1.305 0-4.793-11.084-6.504-20.667-.786-4.4-1.933-10.7-2.55-14-3.556-19.032 5.385-63.267 15.582-77.095 5.924-8.032 11.885-8.014 14.96.044a229.9 229.9 0 0 0 3.467 8.484c2.28 5.207 5.099 33.603 4.143 41.735-1.099 9.342 2.676 22.731 5.855 20.767 1.027-.635 5.537 2.735 12.13 9.065 1.337 1.284 3.518 2.334 4.848 2.334s5.526 1.5 9.327 3.333c3.8 1.833 7.591 3.333 8.425 3.333.834 0 3.6 1.288 6.146 2.862 4.377 2.705 4.584 3.16 3.782 8.333-1.003 6.48-7.386 23.946-8.983 24.583-.613.245-1.13 1.145-1.15 2-.041 1.794-8.812 11.556-10.382 11.556-.577 0-1.76.71-2.628 1.579-.869.868-2.639 1.72-3.933 1.89-1.295.172-3.555.67-5.021 1.105-1.467.437-3.567.195-4.667-.537zm-108.554-142.522c-.515-.834-2.281-1.515-3.925-1.515-1.643 0-3.558-.543-4.254-1.206-1.89-1.799-19.275-10.794-20.861-10.794-1.439 0-7.78-4.78-14.594-11-2.21-2.017-4.836-3.667-5.836-3.667s-2.19-.6-2.643-1.333c-.453-.734-1.892-1.334-3.198-1.334-1.305 0-5.92-3.29-10.254-7.313-6.52-6.05-8.717-7.317-12.718-7.333-2.66-.013-5.562-.894-6.448-1.962-.887-1.069-6.663-4.519-12.836-7.667a2531.155 2531.155 0 0 1-18.218-9.383c-3.847-2.012-7.838-3.345-8.868-2.962-1.03.383-3.13-.437-4.667-1.822-1.536-1.385-6.981-3.544-12.1-4.797-5.12-1.253-9.92-2.776-10.667-3.384-.747-.607-4.359-2.01-8.026-3.117-3.666-1.106-9.532-3.303-13.035-4.88-3.502-1.578-7.402-2.717-8.666-2.53-1.264.185-4.699-.882-7.632-2.373-2.933-1.49-10.283-4.09-16.333-5.778-6.05-1.688-11-3.518-11-4.066 0-.94-6.272-2.567-10.667-2.769-1.1-.051-4.1-.86-6.667-1.797-2.566-.938-8.696-2.45-13.621-3.362-4.926-.91-9.649-2.492-10.497-3.514-.848-1.022-2.548-1.857-3.778-1.857s-2.834-.598-3.564-1.328c-.73-.73-5.81-1.706-11.29-2.17-8.706-.735-10.547-.484-14.606 1.99-2.554 1.557-5.56 2.833-6.68 2.836-1.12 0-3.065 1.205-4.32 2.672-2.94 3.433-10.897 3.527-16.31.192-2.318-1.428-5.681-5.772-7.997-10.328-3.412-6.714-3.967-9.23-3.794-17.198.233-10.71 2.315-23.691 5.347-33.333 2.135-6.79 11.38-27.704 13.853-31.333.749-1.1 3.23-5.996 5.513-10.879 4.616-9.873 9.884-14.015 12.401-9.749.739 1.253 2.338 3.553 3.553 5.112l2.21 2.834 5.79-3.037c14.698-7.709 21.922-13.993 43.342-37.705 12.191-13.496 13.164-14.78 17.125-22.595 1.878-3.706 4.525-7.85 5.881-9.206 2.381-2.38 12.11-18.163 12.11-19.645 0-.4 4.151-9.218 9.226-19.595 6.26-12.801 10.706-24.228 13.827-35.535 5.122-18.561 10.28-44.885 10.28-52.469 0-2.722.896-7.097 1.993-9.721 4.455-10.662 4.894-100.066.781-159.144-2.574-36.979-3.584-43.438-10.223-65.333-1-3.3-2.53-8.7-3.398-12-.868-3.3-3.283-11.171-5.366-17.492-2.083-6.32-3.788-12.699-3.788-14.174 0-1.476-1.435-6.505-3.189-11.175-1.754-4.671-3.944-13.19-4.866-18.93-.923-5.741-2.414-11.175-3.315-12.075-.9-.9-2.273-4.304-3.05-7.562-3.366-14.113-4.43-17.745-6.198-21.165-2.928-5.662-6.112-25.425-4.954-30.752 1.29-5.938 4.368-6.577 10.214-2.118 2.482 1.893 5.304 3.45 6.27 3.459.965.013 3.791 3.758 6.28 8.333 2.488 4.575 5.353 9.218 6.366 10.318 3.388 3.68 8.442 12.096 8.442 14.059 0 1.067.78 1.94 1.735 1.94.954 0 3.116 2.85 4.805 6.334 1.688 3.483 4.794 8.892 6.9 12.02 2.107 3.128 4.825 9.128 6.04 13.334 1.214 4.205 2.61 7.946 3.103 8.313 1.818 1.353 6.383 11.618 9.488 21.333 1.757 5.5 3.572 10.3 4.033 10.667 1.718 1.369 5.093 14.45 7.222 28 1.21 7.7 2.75 16.487 3.422 19.527.671 3.04 1.581 11.74 2.022 19.334.44 7.593 1.704 18.605 2.808 24.472 1.103 5.867 2.243 20.567 2.532 32.667.29 12.1.789 25.9 1.11 30.666.32 4.767 1.19 26.067 1.935 47.334.744 21.266 1.624 44.666 1.956 52 .333 7.333.1 18.133-.514 24-.616 5.866-1.747 19.366-2.515 30-1.574 21.783-3.244 31.482-10.678 62-2.858 11.733-5.5 22.833-5.873 24.666-1.596 7.875-11.055 31.045-20.683 50.667-10.63 21.662-17.957 32.996-29.308 45.333-6.852 7.447-12.206 15.058-12.206 17.35 0 1.338-.35 3.345-.778 4.46-.577 1.502.46 2.26 4 2.924 2.628.493 4.778 1.382 4.778 1.975 0 .594 1.793 1.473 3.984 1.955 2.192.48 4.328 1.429 4.746 2.105.418.677 2.825 1.231 5.348 1.231 2.524 0 4.588.589 4.588 1.308 0 .72 1.65 1.702 3.667 2.184 2.017.482 4.267 1.227 5 1.655 1.562.911 2.26 1.083 9.333 2.298 2.934.504 6.234 1.622 7.334 2.485 1.1.864 4.7 2.644 8 3.957 3.3 1.313 7.042 2.925 8.315 3.583 1.273.658 3.43 1.197 4.793 1.197s3.564 1.2 4.892 2.667c1.327 1.466 3.56 2.666 4.962 2.666 1.402 0 4.459 1.454 6.793 3.23 2.335 1.776 6.045 3.667 8.245 4.203 2.2.536 5.43 2.082 7.18 3.437 1.748 1.355 3.998 2.464 5 2.464 1 0 1.82.527 1.82 1.171 0 .645 1.783 1.91 3.963 2.813 2.18.903 5.506 3.071 7.39 4.818 1.885 1.746 4.901 3.545 6.703 3.998 1.803.452 3.277 1.357 3.277 2.01 0 .655 1.2 1.19 2.667 1.19 1.466 0 2.666.567 2.666 1.262 0 1.263 13.436 10.738 15.227 10.738.523 0 2.861 1.432 5.196 3.183 13.52 10.14 27.8 12.407 43.939 6.972 5.699-1.919 11.099-3.493 12-3.497.901 0 3.138-.789 4.972-1.742 2.995-1.558 15.963-6.138 19.333-6.827 6.466-1.322 16.243-6.244 19.733-9.933 9.296-9.826 13.838-13.848 19.267-17.058 3.117-1.844 5.667-3.843 5.667-4.444 0-.6 3.15-3.028 7-5.395 7.003-4.304 8.943-5.866 18.126-14.593 2.701-2.566 7.473-6.766 10.605-9.333 5.162-4.23 16.269-17.427 16.269-19.33 0-.428 1.187-2.404 2.638-4.39 1.45-1.988 4.497-9.613 6.769-16.947 4.03-13.004 4.118-13.859 3.612-34.666-.49-20.13-.727-21.748-4.211-28.667-2.031-4.033-4.252-8.233-4.936-9.333-.684-1.1-1.894-3.65-2.689-5.667-.794-2.017-1.892-3.667-2.44-3.667s-3.939-3.037-7.536-6.75c-3.597-3.712-8.34-7.694-10.54-8.848-2.2-1.154-6.55-4.78-9.667-8.057-5.233-5.502-5.667-6.51-5.667-13.166 0-10.091 4.047-18.19 11.12-22.252 4.914-2.821 6.763-3.115 16.213-2.578 5.867.334 12.317.628 14.334.654 2.016.025 3.666.533 3.666 1.127 0 1.33 12.58-4.39 15.72-7.15 1.254-1.101 6.78-3.957 12.28-6.345 5.5-2.389 12.09-5.758 14.643-7.489 2.554-1.73 5.328-3.146 6.164-3.146.837 0 4.166-1.17 7.399-2.6 7.047-3.117 9.355-8.094 8.379-18.066-.918-9.377-1.845-13.001-4.682-18.316-.68-1.273-1.236-3.218-1.236-4.322s-1.2-2.756-2.667-3.672c-1.466-.916-2.666-2.42-2.666-3.344 0-.924-.535-1.68-1.189-1.68s-2.105-2.29-3.225-5.089c-1.12-2.799-4.258-8-6.974-11.558-6.05-7.925-16.612-23.287-16.612-24.16 0-1.41-14.556-17.388-34.937-38.35-6.146-6.322-10.613-12.126-11.124-14.455-.47-2.14-2.15-4.488-3.73-5.218-1.582-.729-5.227-5.04-8.1-9.58a9303.8 9303.8 0 0 1-9.422-14.923 4560.628 4560.628 0 0 0-7.838-12.4c-2.003-3.152-4.476-6.052-5.497-6.444-1.02-.392-2.257-2.612-2.747-4.934-.49-2.322-2.277-6.922-3.97-10.222s-3.461-7.732-3.928-9.85c-.468-2.117-2.618-5.4-4.779-7.297-2.16-1.896-3.928-3.939-3.928-4.54 0-1.077-1.351-2.925-5.394-7.377-1.134-1.248-2.813-3.77-3.731-5.603-.92-1.833-3.13-5.733-4.913-8.666-3.443-5.664-4.022-6.835-6.758-13.667-.954-2.383-2.323-4.333-3.043-4.333-.719 0-2.689-2.766-4.377-6.147-1.689-3.381-4.344-7.15-5.902-8.374-1.557-1.225-3.638-4.46-4.625-7.187-.986-2.728-2.207-4.96-2.713-4.96-.506 0-.835-4.705-.732-10.456.12-6.662-.417-11.188-1.479-12.47-4.355-5.26-3.113-30.133 2.334-46.724 1.466-4.468 2.675-9.674 2.686-11.57.028-4.805 1.298-6.227 6.454-7.231 3.494-.68 4.32-.468 3.767.97-.388 1.014.983 3.461 3.049 5.44 2.065 1.978 4.078 5.197 4.474 7.153.396 1.956 1.812 4.756 3.146 6.222 6.99 7.683 9.757 11.845 9.757 14.678 0 1.962 1.489 4.2 3.966 5.965 2.475 1.762 4.5 4.805 5.385 8.091.78 2.896 1.948 5.266 2.597 5.266.648 0 1.888 2.15 2.755 4.777 1.08 3.275 4.037 6.687 9.407 10.858 4.307 3.345 8.216 7.345 8.686 8.89 2.28 7.486 8.24 18.05 13.119 23.25 2.98 3.175 6.24 7.375 7.243 9.333 1.004 1.957 3.187 5.059 4.85 6.892 1.664 1.834 3.43 4.673 3.925 6.31.494 1.638 3.111 5.322 5.816 8.187 6.968 7.382 9.584 10.683 9.584 12.093 0 2.309 5.998 10.645 8.212 11.413 2.183.756 11.223 11.917 14.237 17.576.853 1.602 1.551 4.106 1.551 5.564 0 1.459 1.916 4.568 4.257 6.91 3.776 3.775 8.914 14.965 9.033 19.67.024.949 2.293 4.87 5.043 8.715 2.75 3.844 5.76 8.169 6.686 9.61.928 1.44 2.875 4.419 4.329 6.619 1.453 2.2 2.644 5.05 2.647 6.333 0 1.284.593 2.334 1.312 2.334.72 0 3.113 3.86 5.319 8.578s4.6 8.944 5.323 9.39c.721.446 1.988 3.323 2.815 6.393.994 3.69 3.454 7.399 7.259 10.943 3.165 2.95 6.72 7.312 7.9 9.696 1.18 2.383 3.049 4.333 4.153 4.333 1.104 0 2.348.888 2.765 1.973.416 1.085 2.947 3.304 5.625 4.931 4.491 2.73 11.887 9.055 17.301 14.797a999.725 999.725 0 0 0 6.385 6.667c2.284 2.364 4.517 5.354 4.963 6.643.445 1.29 2.46 3.09 4.475 4 3.615 1.633 12.601 10.555 13.58 13.484.276.827 1.559 2.705 2.85 4.172 3.328 3.783 10.647 21.12 10.647 25.223 0 2.043.75 3.443 1.844 3.443 1.015 0 2.111 1.395 2.437 3.099.857 4.482-1.258 22.408-3.037 25.732-1.846 3.452-10.435 6.495-15.056 5.336-1.86-.467-5.963.024-9.118 1.091-3.248 1.099-10.944 1.972-17.737 2.012-6.6.04-14.4.717-17.333 1.506-2.934.79-7.734 1.69-10.667 2.002-2.933.312-6.233.903-7.333 1.314-3.71 1.386-21.966 4.574-26.19 4.575-2.616 0-4.5.804-5.012 2.138-.504 1.314-1.655 1.819-2.984 1.308-1.283-.492-3.955.537-6.567 2.529-2.421 1.847-5.297 3.358-6.39 3.358-3.356 0-10.19 6.677-10.19 9.956 0 1.678.9 5.206 2 7.839 1.1 2.632 2 6.945 2 9.583 0 2.639.527 5.808 1.172 7.043.644 1.235 1.461 12.765 1.815 25.623.497 18.053 1.14 24.335 2.82 27.585 1.783 3.447 2.24 9.478 2.518 33.29.3 25.635.065 29.555-1.984 33.081-1.279 2.2-2.329 6.472-2.333 9.493 0 3.021-1.178 9.155-2.608 13.63-1.43 4.474-2.992 10.233-3.473 12.796-.481 2.564-2.366 6.27-4.19 8.238-1.929 2.082-4.995 8.927-7.334 16.377-2.21 7.04-4.556 13.37-5.212 14.066-.655.697-1.192 2.347-1.192 3.667 0 1.32-.527 2.4-1.171 2.4-1.438 0-2.51 2.791-9.344 24.309-5.07 15.964-8.275 23.054-11.454 25.337-.75.539-3.878.989-6.952 1-3.073.013-5.983.66-6.466 1.44-.587.951-1.605.772-3.078-.543-1.21-1.08-3.701-2.111-5.535-2.292-5.717-.564-17.595 3.038-21.768 6.6-2.435 2.08-3.37 2.493-16.944 7.482-4.482 1.647-9.382 4.833-12.819 8.334-3.643 3.71-6.73 5.666-8.94 5.666-1.858 0-4.161 1.106-5.12 2.458-.958 1.351-5.208 3.749-9.445 5.328-9.051 3.373-29.41 5.394-30.851 3.063zm-603.674-582.188c-.386-.386-7.542-.989-15.903-1.34-8.361-.351-17.752-.88-20.869-1.174a3557.04 3557.04 0 0 0-16.431-1.489c-7.637-.676-10.987-1.528-11.526-2.933-.52-1.355-1.903-1.753-4.374-1.259-1.987.398-4.15.265-4.808-.295-.657-.56-4.494-1.806-8.528-2.77-4.033-.965-8.953-2.574-10.933-3.577-1.98-1.003-5.039-1.824-6.796-1.824-1.758 0-4.58-1.2-6.27-2.666-1.692-1.467-3.902-2.667-4.913-2.667-1.01 0-2.174-.877-2.586-1.95-.411-1.071-1.927-2.323-3.368-2.78-1.44-.457-3.184-2.13-3.873-3.718-1.83-4.209-4.281-7.89-6.865-10.303-2.265-2.115-8.162-18.429-9.78-27.053-.496-2.645.033-7.994 1.266-12.81 1.165-4.547 2.118-9.222 2.118-10.389 0-1.166.788-3.068 1.75-4.225 2.051-2.468 5.74-11.281 6.796-16.24.934-4.382 9.619-10.532 14.873-10.532 3.896 0 11.248 5.32 11.248 8.14 0 2.343 6.435 15.037 9.319 18.383 2.587 3.002 3.277 3.129 11.715 2.157 4.931-.568 10.616-.987 12.633-.93 2.016.055 4.416.114 5.333.129 10.029.163 78.143-6.063 82.333-7.526 1.1-.385 7.4-.933 14-1.22 6.6-.287 14.1-1.049 16.667-1.693 12.409-3.114 16.27-3.641 20.943-2.857 3.115.522 6.337.192 8.39-.86 1.834-.939 4.684-1.71 6.334-1.715 4.344-.013 3.83-4.226-.946-7.757-2.17-1.605-4.536-2.918-5.258-2.918-.721 0-2.096-1.092-3.054-2.427-.958-1.336-4.934-4.154-8.836-6.263-3.902-2.11-7.673-4.917-8.38-6.24-.708-1.322-2.166-2.403-3.24-2.403-1.074 0-1.953-.9-1.953-2s-.54-2-1.199-2-2.524-2.55-4.145-5.667c-1.621-3.117-3.37-5.967-3.885-6.333-.515-.367-2.351-4.197-4.08-8.511-2.551-6.364-3.14-10.266-3.122-20.667.025-14.073.386-17.489 1.842-17.489.532 0 1.355-1.65 1.83-3.667 1.872-7.96 6.559-22.621 8.92-27.91 2.255-5.049 2.268-9.482.03-9.926-4.833-.96-10.292-1.152-26.858-.95-17.081.21-23.242.179-35-.176-1.65-.049-6.807.071-11.46.27-4.654.197-8.695-.02-8.981-.482-.286-.462-5.778-1.273-12.206-1.802-6.427-.528-13.71-1.8-16.182-2.826-2.473-1.025-5.615-1.864-6.983-1.864-2.548 0-15.855-12.255-15.855-14.602 0-.718-1.135-1.912-2.522-2.654-1.387-.742-4.087-4.02-6-7.284-2.709-4.623-3.478-7.715-3.478-13.984 0-9.802 2.181-11.761 10.577-9.5 6.234 1.678 28.67 1.587 35.745-.146 2.756-.675 9.812-1.464 15.678-1.754 5.867-.29 13.298-1.13 16.514-1.867 4.048-.928 6.55-.901 8.13.087 1.67 1.043 4.753.845 11.486-.735 10.757-2.524 29.558-4.2 41.87-3.732 4.767.18 10.767-.26 13.334-.98 8.336-2.339 46.993-5.48 60.302-4.9 7.49.326 13.302.025 13.759-.713.434-.703 1.287-.971 1.895-.595.608.375 9.417-.413 19.575-1.752 10.158-1.34 23.269-2.283 29.135-2.098 5.867.185 15.467-.3 21.334-1.079 5.866-.778 14.266-1.596 18.666-1.816 4.4-.221 11.9-.722 16.667-1.114 4.767-.392 19.167-1.307 32-2.034 38.452-2.178 53.383-4.004 58.595-7.166 5.896-3.578 17.355-4.365 22.773-1.563 2.185 1.13 5.32 4.07 6.969 6.534 1.648 2.464 7.675 10.584 13.393 18.044 5.719 7.46 10.996 15.179 11.727 17.151.731 1.972 2.252 4.288 3.379 5.146 1.172.893 2.646 5.456 3.445 10.667 1.75 11.41-.195 16.837-7.965 22.221-6.14 4.255-17.432 5.743-40.316 5.31-14.99-.284-94-.328-125.333-.071-13.652.112-22.368.711-22.97 1.58-.533.77-.595 2.6-.138 4.066.974 3.122 16.272 20.667 18.02 20.667 1.733 0 11.754 10.19 11.754 11.951 0 .821 1.257 2.819 2.793 4.438 5.183 5.464 10.723 14.338 12.852 20.586 1.164 3.416 2.917 7.744 3.894 9.618 2.329 4.461 2.264 13.19-.182 24.74-3.006 14.192-2.719 15.39 2.168 9.032 4.659-6.062 4.732-6.083 29.08-8.375 7.667-.722 14.322-.865 14.79-.318 1.617 1.894 6.36 18.366 7.77 26.994.78 4.767 1.798 15.926 2.262 24.797.816 15.593.724 16.383-2.732 23.688-2.32 4.907-4.932 8.26-7.445 9.559-2.13 1.1-4.77 3.739-5.867 5.862-1.246 2.408-4.89 5.332-9.69 7.774-12.554 6.387-17 8.929-17.47 9.987-.245.55-1.56 1-2.922 1s-2.847.6-3.3 1.333c-.454.734-2.216 1.334-3.916 1.334-1.701 0-5.344.94-8.096 2.09-2.796 1.169-9.356 2.175-14.865 2.28-6.424.123-9.67.689-9.31 1.623.302.79-.432 1.518-1.632 1.62-2.09.176-8.6 1.513-21.515 4.42-10.622 2.39-12.554 2.733-19.173 3.401-3.58.362-7.731 1.313-9.227 2.113-1.496.8-6.968 1.614-12.16 1.806-5.192.193-15.44 1.094-22.773 2.002-7.334.908-16.998 1.787-21.477 1.952-4.48.166-8.778.692-9.552 1.171-.775.479-7.31 1.214-14.523 1.634-7.213.42-15.815 1.35-19.115 2.064-3.3.715-6.91 1.446-8.023 1.625-1.113.179-2.613.66-3.334 1.068-.72.409-4.91.858-9.31.998s-10.4.944-13.333 1.788c-2.933.843-9.833 1.585-15.333 1.649-5.5.064-11.244.553-12.763 1.087-1.52.535-3.08.656-3.465.27zm909.337-21.311c-.243-.234-6.579-.754-14.079-1.157-7.5-.403-14.858-1.387-16.352-2.186-1.493-.8-4.756-1.071-7.25-.603-3.858.724-4.858.355-6.713-2.476-1.657-2.53-3.268-3.296-6.719-3.198-2.558.072-5.63-.859-7.04-2.134-1.374-1.244-3.472-2.262-4.661-2.262-1.19 0-2.642-.751-3.229-1.67-.586-.917-2.815-2.567-4.953-3.666-5.075-2.608-28.45-26.175-29.59-29.834-.485-1.557-1.45-3.196-2.144-3.643-2.087-1.343-10.354-26.827-10.367-31.955-.013-5.217 4.314-10.566 8.547-10.566 1.313 0 4.92 1.709 8.013 3.797 3.094 2.088 7.12 4.172 8.948 4.63 1.827.459 4.782 2.103 6.568 3.654 2.879 2.5 4.225 2.714 11.912 1.885 4.767-.515 11.408-1.088 14.757-1.274 3.35-.186 7.352-1.013 8.892-1.837 1.541-.825 7.5-1.619 13.243-1.765 5.833-.148 11.659-1.033 13.2-2.005 1.517-.958 4.217-1.703 6-1.656 9.996.263 13.68-.077 21.395-1.976 4.682-1.152 13.654-2.347 19.937-2.657 6.283-.31 14.014-1.26 17.179-2.112 3.165-.852 7.138-1.203 8.828-.778 1.69.424 3.41.223 3.825-.446.413-.67 4.21-1 8.437-.734 9.718.61 11.53-.35 9.354-4.96-1.487-3.151-2.488-3.483-12.935-4.286-6.228-.479-11.736-1.539-12.241-2.356-.524-.847-2.345-1.126-4.242-.65-2.164.543-3.9.14-4.973-1.153-.907-1.093-2.676-1.987-3.93-1.987-1.255 0-2.699-.418-3.209-.928-.51-.51-1.819-1.058-2.909-1.218-3.023-.444-13.941-7.134-13.941-8.543 0-.684-1.95-2.22-4.334-3.415-4.841-2.428-16.986-14.978-16.994-17.563 0-.917-.554-1.667-1.224-1.667-2.495 0-9.592-13.797-11.531-22.415-1.104-4.905-2.596-10.418-3.316-12.251-.72-1.834-1.757-10.834-2.304-20-.741-12.433-1.427-16.578-2.7-16.316-.938.193-2.881-.278-4.318-1.047-1.888-1.01-2.613-.974-2.613.131 0 1.905-36.508.874-39.017-1.103-.907-.714-4.82-1.655-8.696-2.091-3.876-.436-8.769-2.019-10.873-3.517-2.104-1.498-4.246-2.724-4.76-2.724-.515 0-2.116-1.5-3.559-3.333-1.442-1.833-3.217-3.333-3.944-3.333-1.6 0-6.94-6.22-12.339-14.37-5.913-8.926-7.592-27.767-3.003-33.694 2.636-3.404 8.691-5.268 17.254-5.312 5.21-.027 9.245-.779 10.904-2.033 1.448-1.095 6.614-3.176 11.481-4.625 4.867-1.45 12.082-4.325 16.034-6.39 3.999-2.09 9.834-3.917 13.158-4.123 3.285-.202 7.605-1.212 9.6-2.244 1.996-1.032 4.784-1.876 6.198-1.876 1.413 0 3.316-.9 4.23-2 .912-1.1 3.565-2 5.896-2 2.33 0 4.874-.638 5.654-1.417.78-.78 3.442-1.475 5.916-1.546 2.474-.07 6.307-1.23 8.516-2.577 2.21-1.348 5.632-2.452 7.605-2.455 1.973 0 3.998-.67 4.5-1.48.639-1.034 1.239-.948 2.002.288.872 1.41 2.11 1.193 6.167-1.08 5.475-3.066 15.95-5.262 29.743-6.235 4.767-.335 11.566-1.86 15.11-3.388 3.545-1.527 7.745-2.798 9.334-2.824 1.59-.026 4.364-.864 6.166-1.862 2.14-1.184 4.303-1.424 6.232-.69 2.08.79 4.634.311 8.628-1.619 4.159-2.01 7.284-2.56 11.7-2.062 3.315.374 7.469.131 9.231-.539 7.427-2.824 20.897-4.836 23.73-3.545 1.933.88 3.759.827 5.613-.165 1.511-.809 5.457-1.47 8.77-1.47 6.015 0 18.373-2.071 22.153-3.712 1.1-.478 5.3-.956 9.333-1.063 4.033-.106 10.025-.821 13.315-1.588 3.665-.855 6.857-.926 8.244-.184 1.38.74 6.293.65 12.61-.228 11.073-1.54 21.87-2.192 52.498-3.17 10.633-.34 22.19-.962 25.68-1.384 3.49-.422 8.682-.138 11.537.63 3.622.976 6.303.975 8.876 0 2.246-.854 3.989-.915 4.463-.157.478.765 3.835.715 8.717-.128 5.838-1.009 8.075-.97 8.447.15.28.836.906 1.276 1.394.978.487-.299 6.133-.913 12.546-1.365 10.612-.748 11.867-.58 13.963 1.868 1.266 1.48 3.136 2.69 4.153 2.69 1.018 0 5.84 2.901 10.716 6.447 4.876 3.547 10.21 7.168 11.853 8.047 1.643.88 2.988 2.478 2.988 3.553 0 1.074.6 1.953 1.333 1.953.734 0 1.334.826 1.334 1.836 0 1.01.907 2.59 2.015 3.51 1.109.92 3.19 4.328 4.626 7.573 2.451 5.542 2.48 6.221.486 11.208-1.984 4.957-7.194 9.206-11.29 9.206-.895 0-2.579.861-3.742 1.914-1.416 1.282-6.649 2.152-15.843 2.634-7.55.396-15.946 1.275-18.657 1.953-6.36 1.59-7.057 1.673-18.929 2.253-5.5.269-13.807 1.132-18.46 1.917-4.653.785-9.632 1.056-11.064.602-1.432-.455-3.325-.25-4.206.457-.882.706-6.643 1.657-12.803 2.113-6.16.457-11.86 1.37-12.667 2.029-1.372 1.122-18.89 3.637-21.173 3.04-.572-.15-2.742.608-4.822 1.683-2.08 1.075-8.211 2.232-13.626 2.57-11.702.73-19.964 2.11-21.964 3.672-.798.623-6.007 1.403-11.574 1.733-5.567.33-11.875 1.506-14.017 2.613-2.142 1.108-5.034 1.992-6.426 1.964-6.796-.135-16.53 2.02-16.53 3.658 0 .972-1.2 2.41-2.668 3.195-3.289 1.76-3.467 5.119-.333 6.285 7.049 2.624 20.63 17.613 26.32 29.048 1.46 2.933 2.96 5.633 3.334 6 8.066 7.915 6.576 30.018-3.198 47.429-5.77 10.278-8.714 14.68-12.44 18.595-2.226 2.339-4.728 5.525-5.56 7.08-1.885 3.522-19.322 17.563-21.811 17.563-1.007 0-3.143 1.51-4.747 3.354-3.534 4.064-17.115 10.302-20.258 9.304-1.245-.395-3.022.195-3.948 1.312-.927 1.116-3.376 2.03-5.443 2.03-2.067 0-4.129.6-4.582 1.333-.453.733-2.308 1.333-4.122 1.333-4.31 0-6.282 4.811-3.63 8.858 1.778 2.715 2.265 2.782 8.9 1.24 3.86-.897 7.66-2.028 8.444-2.512 2.376-1.469 23.874-1.298 26.696.212 1.716.918 3.091.956 3.939.11.716-.717 5.756-1.345 11.199-1.396 5.443-.05 10.468-.446 11.166-.877.699-.432 4.601-.95 8.672-1.153 19.148-.952 32.74-1.842 48.07-3.146 9.166-.78 19.12-1.304 22.12-1.166 3 .138 6.296-.27 7.327-.906 1.03-.637 4.276-1.204 7.213-1.26 2.936-.056 10.14-1.173 16.006-2.482 6.84-1.526 13.058-2.097 17.333-1.59 9.673 1.147 24.087-2.21 28.776-6.702 5.189-4.971 12.88-4.011 19.728 2.462 2.656 2.512 8.73 7.192 13.496 10.4 4.767 3.208 11.461 8.25 14.876 11.204 3.416 2.955 8.907 7.69 12.203 10.523 4.33 3.72 6.461 6.824 7.681 11.183 1.122 4.008 2.57 6.263 4.31 6.718 2.397.627 2.552 1.5 1.813 10.241-.89 10.526-3.372 17.89-5.759 17.086-.848-.285-2.348.618-3.333 2.006-2.049 2.888-7.669 6.182-8.733 5.118-.392-.393-2.88.759-5.528 2.558-2.649 1.8-6.206 3.272-7.906 3.272-1.7 0-4.818.894-6.931 1.987-2.113 1.092-10.836 2.6-19.384 3.349-8.549.75-16.551 1.902-17.784 2.562-1.232.659-5.23 1.153-8.883 1.098-3.653-.056-9.423.355-12.823.913-3.779.62-7.197.471-8.795-.384-1.478-.791-3.14-.898-3.82-.246-1.984 1.9-23.832 5.462-28.177 4.593-2.219-.443-5.308-.125-6.864.708-1.864.997-2.83 1.043-2.83.134 0-2.154-4.956-1.62-5.818.627-.607 1.58-3.26 2-12.476 1.975-6.438-.017-16.206.26-21.706.616s-18.7.964-29.333 1.35c-10.633.387-21.32.95-23.747 1.25-15.165 1.88-43.91 3.983-72.736 5.322-8.699.404-16.536 1.332-17.415 2.062-.88.73-6.662 1.289-12.85 1.243-6.189-.047-16.352.252-22.585.663-18.619 1.23-37.086 1.98-37.558 1.528zm100.224-102.016c0-.734-1.235-1.334-2.745-1.334s-2.374.6-1.921 1.334c.453.733 1.688 1.333 2.745 1.333 1.057 0 1.921-.6 1.921-1.333zm-56.578-111.34c2.03-4.859 3.125-23.891 1.47-25.547-.6-.6-1.678-.043-2.395 1.239-.93 1.659-2.248 2.093-4.584 1.506-1.804-.452-4.023-.21-4.93.54s-3.9 1.783-6.65 2.297c-2.75.514-5 1.45-5 2.078 0 .628-.816.83-1.813.447-3.154-1.21-3.957 8.792-.969 12.067 1.362 1.492 2.871 4.017 3.354 5.611.483 1.595 3.393 4.385 6.468 6.2l5.59 3.302 3.836-2.732c2.11-1.502 4.64-4.656 5.623-7.007zm-1672.65-212.105c.064-1.553.38-1.87.806-.805.385.962.338 2.112-.105 2.555-.443.443-.758-.344-.7-1.75z" style="fill:#000;stroke-width:1.33333"/>
</svg>
