<svg xmlns="http://www.w3.org/2000/svg" width="3453.333" height="3973.333">
  <g style="display:inline;fill:#000">
    <path d="M1690 3594.964c-5.551-.497-22.177-4.348-24.982-5.788-1.273-.653-3.373-1.183-4.667-1.177-1.293 0-7.13-1.944-12.97-4.333l-10.62-4.344-10.578-10.334c-5.818-5.683-11.09-10.333-11.714-10.333-.625 0-1.136-.612-1.136-1.36 0-.748-1.5-3.736-3.333-6.64-1.833-2.904-3.333-6.033-3.333-6.952 0-1.854-6.815-15.987-8.227-17.06-.491-.374-1.216-5.306-1.611-10.96l-.718-10.282 1.611-1.706c.886-.939 2.427-3.29 3.425-5.226l1.813-3.52 5.52-1.01c3.036-.555 6.12-.835 6.853-.622.734.212 2.72.304 4.416.204 1.695-.1 4.815.713 6.933 1.809 2.119 1.095 5.352 1.992 7.185 1.992h3.334l1.066 1.777c.586.977 4.519 3.448 8.738 5.492l7.672 3.715 1.93-1.602 1.932-1.603 2.542.807 2.542.807 1.547-1.863 1.546-1.864h17.84l.5-1.5c.274-.825 1.256-1.5 2.182-1.5.925 0 2.712-1.138 3.97-2.528l2.289-2.53 5.252.705 5.251.704v-3.018h6.588c3.623 0 6.916-.53 7.317-1.179.723-1.17 5.72-2.424 13.428-3.372 6.332-.78 10.36-1.942 11.836-3.417.75-.75 3.065-1.365 5.145-1.365 2.079 0 5.232-.951 7.008-2.115 1.775-1.163 3.783-1.771 4.461-1.352.679.42 3.275-.622 5.77-2.315 2.494-1.693 5.265-2.834 6.157-2.536.893.297 1.623-.11 1.623-.904v-1.444h3.135c1.724 0 4.874-.554 7-1.23 2.126-.677 6.096-1.601 8.823-2.053 2.726-.452 5.96-1.826 7.187-3.052 2.602-2.602 4.198-3.079 13.189-3.94 3.666-.35 7.236-1.182 7.933-1.848.697-.666 2.618-1.21 4.27-1.21 1.653 0 4.383-.544 6.067-1.208 1.685-.664 8.163-2.844 14.396-4.843 6.234-2 11.934-4.087 12.667-4.639.733-.551 3.433-1.441 6-1.977s5.385-1.553 6.263-2.26l1.597-1.284 2.316 1.296 2.316 1.296 8.087-2.849c4.448-1.566 8.388-3.218 8.754-3.67 1.802-2.225 9.716-5.196 13.839-5.196h4.637l1.994-1.993c1.096-1.097 3.39-1.944 5.095-1.884 5.38.191 21.513-4.192 28.103-7.635 3.485-1.82 6.91-2.955 7.613-2.52.703.434 2.352.184 3.665-.556 4.148-2.336 12.975-5.897 15.054-6.074 1.1-.093 2.9-.526 4-.962 1.1-.436 6.47-1.474 11.931-2.307 5.463-.833 10.727-2.175 11.7-2.982.972-.807 2.101-1.133 2.51-.724.409.409 3.218-.365 6.242-1.72 3.025-1.353 6.002-2.15 6.616-1.771.614.38 3.237-.927 5.828-2.904l4.712-3.594 3.846.77 3.845.769 1.797-1.796c.987-.988 4.953-2.23 8.813-2.761l7.017-.966.641-1.671.641-1.671h14.896l2.15-2.69c1.181-1.48 3.799-3.077 5.815-3.55 2.017-.472 3.667-1.41 3.667-2.085 0-.674 2.85-1.649 6.333-2.165 3.484-.516 8.38-2.029 10.88-3.361 2.502-1.333 5.069-2.102 5.705-1.708 1.364.843 18.777-3.332 19.749-4.735 1.257-1.815 9.656-5.378 10.887-4.618.676.418 1.953.176 2.838-.537.884-.714 4.308-1.735 7.608-2.269s8.96-2.086 12.577-3.448l6.576-2.477 3.424.651 3.423.652-2.595-1.13-2.596-1.13 3.262-.872c1.794-.48 5.177-.881 7.517-.891 2.34-.013 4.596-.57 5.012-1.245.417-.674 5.103-2.547 10.413-4.161 5.31-1.615 10.224-3.463 10.92-4.108.697-.644 2.497-1.168 4-1.164 2.875.013 13.294-3.114 20.067-6.011 7.27-3.109 11.925-4.46 18.302-5.31 3.466-.462 6.617-1.35 7.002-1.971.384-.623 3.848-1.555 7.697-2.073 3.85-.517 7.72-1.523 8.602-2.235l1.602-1.294 3.064.864 3.064.864-1.843-1.275-1.842-1.274 2.51-.735c1.38-.404 4.909-1.084 7.842-1.51 6.476-.943 10.442-2.101 11.333-3.311.367-.498 3.967-1.587 8-2.42 4.034-.833 13.934-3.388 22-5.677 21.34-6.057 25.182-7.23 26.667-8.145.733-.451 4.333-1.256 8-1.787 3.667-.532 7.267-1.341 8-1.8.733-.457 1.933-.973 2.667-1.146.733-.172 5.533-1.286 10.666-2.474 5.134-1.189 11.92-3.335 15.081-4.769l5.747-2.608 9.92-.202c5.455-.112 9.919-.57 9.919-1.02 0-1.27 7.634-3.652 19.22-5.998 5.803-1.175 11.203-2.545 12-3.043.795-.498 2.047-1.035 2.78-1.193.733-.158 5.833-1.223 11.333-2.366 9.645-2.004 21.792-5.339 27.334-7.503 2.332-.91 11.426-2.145 22-2.986 1.833-.146 3.835-1.055 4.449-2.02l1.115-1.756 3.551.28c1.953.154 4.451-.044 5.551-.439 9.59-3.445 20.34-6.036 32-7.715 10.468-1.507 20-3.973 20-5.174 0-.483 2.85-.968 6.334-1.079 3.483-.11 10.11-1.155 14.727-2.322 4.618-1.167 8.968-1.768 9.667-1.336.7.432 1.272.257 1.272-.39 0-.648 4.8-1.989 10.667-2.981 5.867-.993 10.667-2.31 10.667-2.928v-1.123l3.209.805 3.209.806 2.643-1.415c1.454-.778 5.611-1.71 9.238-2.07 3.628-.362 7.655-1.064 8.95-1.561 1.295-.497 4.544-1.032 7.22-1.19 2.675-.156 6.25-.369 7.943-.471l3.078-.187-.824-1.333-.824-1.333 4.412-.023c2.427-.013 11.295-1.813 19.707-4 8.412-2.187 16.927-3.977 18.922-3.977 1.994 0 3.954-.53 4.355-1.18.939-1.518 7.432-2.795 17.052-3.353 4.193-.243 9.293-1.066 11.333-1.83 2.04-.762 4.91-1.839 6.377-2.39 1.466-.552 3.148-.898 3.738-.768.589.13 1.982-.675 3.095-1.788 1.113-1.114 3.249-2.024 4.746-2.024 5.99 0 26.22-5.55 33.754-9.258 4.4-2.166 9.102-4.27 10.45-4.677l2.45-.738-1.117-5.664c-.614-3.115-1.055-8.518-.981-12.006l.135-6.343 1.977-2.324c2.815-3.31 7.753-17.826 7.753-22.794v-4.196h4v-2c0-1.1.6-2 1.333-2s1.344.75 1.356 1.666c.027 1.93 4.244 5.992 9.977 9.61 4.85 3.06 6.442 5.04 9.965 12.39 1.494 3.117 3.313 5.667 4.042 5.667.73 0 1.327 1.186 1.327 2.636v2.636l3.333 2.184c1.833 1.201 3.333 2.767 3.333 3.48 0 .713 3.328 4.597 7.396 8.632l7.395 7.336 1.918-.735 1.917-.736 1.542 2.95c2.323 4.448 11.336 12.95 13.728 12.95h2.104v5.334h5.022l.997 3c.548 1.65 1.14 4.138 1.316 5.53.176 1.392 1.523 3.492 2.993 4.667 1.47 1.175 3.073 3.843 3.563 5.93l.89 3.795-2.14 7.362c-1.176 4.049-1.821 8.191-1.432 9.205l.708 1.844h-1.37c-.754 0-1.02.569-.59 1.264.43.695-1.462 4.595-4.204 8.667l-4.985 7.402h-5.706l-4.53 4.078a326.607 326.607 0 0 0-8.589 8.064l-4.057 3.986-2.173-.833-2.173-.834-2.77 2.77c-1.523 1.523-3.921 2.77-5.328 2.77-1.408 0-4.558 1-7 2.225a1576.35 1576.35 0 0 1-7.017 3.496c-3.752 1.85-10.097 3.669-15.34 4.396-2.521.35-5.374 1.293-6.341 2.095l-1.758 1.46-5.475-.876-5.475-.876-1.844 1.53-1.844 1.53-2.838-.741-2.839-.743-3.645 2.695-3.645 2.695-12.524 2.031c-6.888 1.117-15.523 2.48-19.19 3.03-3.667.548-8.958 2.01-11.758 3.248l-5.091 2.25-9.576.3c-5.266.164-10.325.774-11.242 1.355-.916.581-1.666.754-1.666.383 0-.37-2.85.165-6.334 1.19-3.483 1.025-9.633 1.956-13.666 2.07l-7.334.206-6.666 2.4c-11.455 4.124-39.633 9.572-50.974 9.856l-8.306.207-1.627 1.627c-.895.895-3.046 1.627-4.781 1.627-1.735 0-4.27.597-5.634 1.327-1.363.73-4.774 1.556-7.579 1.837-6.313.632-12.668 2.203-14.433 3.569-.733.567-6.433 1.467-12.666 2-6.234.534-11.701 1.54-12.15 2.234-.45.696-2.85 1.53-5.334 1.855-2.484.325-8.597 1.337-13.584 2.248l-9.068 1.658-1.135 1.837-1.135 1.837-6.76-.8-6.76-.801-.642 1.038c-.353.571-4.12 1.804-8.37 2.74-4.251.935-8.929 2.214-10.396 2.843-1.466.628-6.025 2.081-10.13 3.229l-7.465 2.087-2.202-.845-2.203-.845v1.365c0 .75.75 1.615 1.667 1.922.917.306-.433.574-3 .595-2.567.02-9.167.498-14.667 1.06l-10 1.021-2.886 2.62-2.887 2.62-3.113-.957-3.114-.959 1.081 1.136 1.08 1.135-10.413 2.322c-5.728 1.277-12.064 2.34-14.081 2.364-2.017.023-3.667.58-3.667 1.238 0 1.475-16.324 4.44-18.933 3.44l-1.89-.726-3.131 2.717c-1.723 1.494-5.288 3.277-7.922 3.963-17.394 4.53-21.697 5.418-22.838 4.713-.707-.437-1.286-.254-1.286.406s-3.41 1.963-7.579 2.896c-4.168.932-8.411 2.528-9.428 3.545l-1.85 1.85h-14.668l-5.57 3.212c-3.065 1.767-10.671 4.808-16.905 6.759l-11.333 3.546-3.447-.682-3.446-.681-3.61 1.873c-1.985 1.03-5.63 2.252-8.097 2.714l-4.488.842-.626 2.394-.626 2.394-6.83.94c-3.756.516-6.83 1.47-6.83 2.121 0 .65-1.5 1.56-3.333 2.02-1.834.46-3.334 1.401-3.334 2.091v1.256l-2.292-1.283-2.292-1.283-3.46 1.789c-1.902.984-7.31 2.224-12.017 2.757l-8.558.968 2.643 1.033 2.643 1.032-4 .123c-2.2.068-6.561 1.285-9.691 2.706-3.13 1.42-5.977 2.622-6.327 2.669-4.897.665-8.649 1.938-8.649 2.934 0 .685-.593.879-1.318.43-1.579-.975-10.682 3.124-10.682 4.81 0 .65-1.506 1.182-3.348 1.182-1.84 0-6.06 1.275-9.375 2.833-3.315 1.558-7.659 2.81-9.652 2.782-1.994-.028-7.525 1.297-12.291 2.944-4.767 1.647-12.267 3.815-16.667 4.819-4.4 1.003-8.6 2.494-9.333 3.311-.734.818-4.83 2.542-9.104 3.833l-7.77 2.346.602 1.572.603 1.571-9.485.287-9.486.287-.433 1.3-.433 1.298-1.93-.74c-1.063-.408-2.674-.183-3.581.5-.908.684-4.35 2.009-7.65 2.945-3.3.937-6.9 2.249-8 2.916-2.937 1.78-3.724 2.021-14.667 4.473-5.5 1.233-11.902 3.352-14.227 4.708l-4.227 2.466-7.691.82c-4.23.45-8.328 1.276-9.106 1.834-3.078 2.208-24.383 9.561-27.7 9.561-1.153 0-2.424.854-2.824 1.897l-.728 1.896-2.593-.678-2.592-.678-4.116 2.129c-2.263 1.17-4.583 2.025-5.155 1.899-.573-.125-2.54.397-4.374 1.162a9873.54 9873.54 0 0 0-8.624 3.602c-2.91 1.216-8.124 2.45-11.586 2.74l-6.294.53-3.341 2.189c-1.838 1.204-4.724 2.055-6.415 1.891-1.69-.163-5.173.632-7.74 1.768-2.567 1.136-8.406 2.798-12.977 3.695-4.57.896-8.994 2.453-9.83 3.46-.836 1.008-2.796 1.836-4.356 1.84-1.56 0-4.637 1.201-6.837 2.658l-4 2.65-5.333.028c-5.173.028-9.631 1.326-19.334 5.626-2.566 1.138-8.266 2.814-12.666 3.726-9.682 2.006-17.282 4.375-24.932 7.772-3.154 1.401-9.335 3.289-13.735 4.195-4.4.907-9.5 2.39-11.333 3.298-1.834.907-6.334 2.356-10 3.22-3.667.864-8.467 2.396-10.667 3.405-2.2 1.01-6.565 2.888-9.7 4.175l-5.699 2.34-5.525-.217-5.525-.216-4.733 2.793-4.733 2.792-.487-1.46c-.558-1.674-4.265-2.009-4.265-.385 0 .59-5.25 1.804-11.666 2.696l-11.667 1.621-16-.362c-8.8-.2-17.8-.524-20-.721zm-531.73-100.899c-2.785-.993-7.585-3.483-10.666-5.533-3.082-2.05-6.693-3.814-8.024-3.92l-2.419-.19-8.58-8.838c-4.72-4.86-8.581-9.758-8.581-10.883v-2.046h-1.84c-3.707 0-19.493-24.696-19.493-30.496 0-.67-.83-1.537-1.845-1.927-1.74-.667-8.822-17.155-8.822-20.539 0-.865-.827-2.052-1.838-2.638l-1.838-1.067-2.728-10.855c-1.5-5.971-3.973-13.297-5.495-16.28-1.522-2.984-2.768-6.37-2.768-7.525 0-1.155-.981-3.598-2.181-5.43l-2.181-3.328-1.118-9.624c-1.127-9.702-3.391-20.79-7.002-34.291-2.512-9.395-6.19-30.979-7.61-44.667a885.808 885.808 0 0 0-2.533-21.333c-.783-5.867-1.722-14.267-2.086-18.667-.363-4.4-1.326-11.3-2.139-15.333-.813-4.033-1.685-14.233-1.938-22.667-.253-8.433-.834-26.133-1.292-39.333-.458-13.2-.82-25.5-.805-27.333.015-1.834.048-13.984.073-27l.045-23.667h1.05l1.05.001v-36.334c0-19.983.178-57.634.395-83.667.501-60.243-.995-116.018-3.882-144.667-.813-8.066-1.943-20.366-2.512-27.333-3.07-37.632-6.51-64.746-9.4-74.095-.697-2.252-1.267-6.89-1.267-10.306 0-3.416-.852-8.474-1.893-11.239-1.04-2.764-2.56-9.227-3.375-14.36-3.593-22.61-8.315-43.836-12.867-57.837-1.76-5.41-3.198-11.419-3.198-13.353 0-1.934-1.149-5.659-2.553-8.278-1.403-2.619-2.983-7.71-3.509-11.314-.526-3.603-2.678-11.855-4.78-18.338-2.104-6.483-3.825-12.692-3.825-13.799 0-1.106-.835-3.902-1.855-6.213-1.02-2.31-2.626-7.201-3.568-10.868-.941-3.667-3.349-10.267-5.35-14.667-2-4.4-4.367-10.7-5.26-14-.891-3.3-3.704-10.5-6.25-16-8.145-17.592-12.506-27.487-15.867-36-1.303-3.3-4.277-9.3-6.61-13.333-2.332-4.033-4.7-8.833-5.264-10.667-.563-1.833-1.99-4.233-3.172-5.333-1.181-1.1-3.186-4.25-4.455-7-1.268-2.75-2.876-5-3.572-5-.696 0-3.7-4.95-6.676-11-7.802-15.863-11.045-21.524-13.023-22.733-.96-.586-1.745-1.915-1.745-2.953 0-1.038-1.05-2.456-2.333-3.152-1.283-.697-3.512-3.568-4.953-6.38-1.441-2.814-3.408-6.015-4.37-7.115-2.815-3.215-8.02-11.002-10.29-15.395-1.155-2.233-3.889-6.02-6.077-8.415-2.187-2.395-3.977-4.897-3.977-5.559 0-.662-1.2-1.846-2.666-2.631-1.467-.785-2.667-2.239-2.667-3.23 0-.992-1.795-3.221-3.988-4.953-2.193-1.733-3.993-3.613-4-4.18-.018-1.494-6.824-11.61-10.479-15.573-1.723-1.869-5.785-6.998-9.027-11.398-3.24-4.4-8.876-11.3-12.523-15.333-3.646-4.033-9.083-10.633-12.083-14.667-3-4.033-7.134-9.133-9.186-11.333-2.053-2.2-5.31-6.55-7.24-9.667-1.929-3.116-4.331-5.666-5.338-5.666-1.006 0-2.881-1.606-4.167-3.568-2.565-3.915-3.81-5.362-14.625-17.004-4.04-4.347-7.344-8.547-7.344-9.333 0-.786-1.977-3.006-4.393-4.934-2.416-1.928-6.758-7.028-9.648-11.333-5.553-8.272-10.987-15.06-19.075-23.828-2.706-2.934-7.092-8.034-9.748-11.334-2.655-3.3-8.657-9.9-13.337-14.666-4.68-4.767-9.984-10.767-11.785-13.334-4.72-6.725-5.524-7.73-10.506-13.13-2.471-2.678-6.071-6.96-8-9.517-1.93-2.556-5.158-6.059-7.175-7.785-2.016-1.726-3.666-3.736-3.666-4.467 0-.731-2.25-4.59-5-8.575l-5-7.246-2.833-.742c-1.558-.409-3.428-2.048-4.155-3.644-.727-1.596-5.626-8-10.887-14.23-12.789-15.148-12.256-14.49-16.692-20.614-2.145-2.96-9.045-11.31-15.333-18.553-6.289-7.244-14.687-18.044-18.663-24-3.977-5.957-8.487-12.03-10.025-13.497-1.537-1.466-4.584-5.03-6.77-7.92-2.187-2.89-5.326-6.613-6.976-8.273-1.65-1.66-3.017-3.796-3.038-4.746-.02-.95-2.42-4.406-5.333-7.679-2.912-3.273-5.295-6.632-5.295-7.463 0-.83-1.05-2.766-2.334-4.301a22560.06 22560.06 0 0 1-6.8-8.141c-2.458-2.943-5.667-7.628-7.132-10.413-1.465-2.785-4.638-7.164-7.052-9.73-2.414-2.567-5.315-6.51-6.448-8.764-1.132-2.253-3.033-4.906-4.224-5.894-1.19-.988-2.95-3.644-3.912-5.903-.96-2.258-4.125-6.806-7.032-10.106-5.255-5.966-13.63-20.362-14.233-24.462-.173-1.181-1.631-3.549-3.24-5.262-1.61-1.713-2.927-3.796-2.927-4.629 0-.833-.75-1.994-1.666-2.58-.917-.587-3.467-4.515-5.667-8.729-2.2-4.214-4.385-7.664-4.856-7.667-.47 0-1.267-1.654-1.77-3.671-.503-2.017-1.797-4.645-2.874-5.84-2.238-2.485-7.167-11.808-7.167-13.557 0-1.135-7.845-12.935-9.487-14.27-.45-.366-1.272-2.166-1.824-4-.552-1.833-1.683-4.233-2.513-5.333-2.7-3.578-4.842-7.923-4.842-9.819 0-1.02-.803-2.52-1.783-3.334-.98-.814-3.418-5.837-5.417-11.163-1.999-5.326-4.173-10.584-4.832-11.684-9.187-15.346-12.128-20.974-13.37-25.588-.813-3.016-2.63-7.633-4.038-10.261-1.408-2.628-2.56-5.463-2.56-6.301 0-.838-.942-2.305-2.093-3.26l-2.093-1.737.635-2.426.634-2.427h-1.19c-.655 0-2.066-1.95-3.136-4.333-1.07-2.384-2.827-5.834-3.905-7.667-3.113-5.296-6.186-12.876-6.186-15.26 0-1.204-1.5-3.807-3.333-5.784-1.833-1.978-3.333-4.743-3.333-6.147 0-2.582-3.705-11.2-10.786-25.088-2.135-4.186-3.881-8.516-3.881-9.621 0-2.185-4.124-11.686-5.543-12.769-.482-.368-1.782-5.046-2.89-10.397-1.107-5.35-2.585-10.45-3.283-11.331-.698-.882-1.667-3.81-2.152-6.506-.486-2.696-1.351-5.096-1.923-5.333-1.363-.564-9.542-25.425-9.542-29.001 0-1.52-.537-2.763-1.194-2.763-.656 0-1.48-2.25-1.831-5-.352-2.75-1.552-8.3-2.669-12.333-1.116-4.034-2.726-10.32-3.577-13.968-.85-3.65-2.153-7.01-2.893-7.466-.74-.458-1.809-4.245-2.375-8.416-.566-4.171-1.726-8.282-2.578-9.134-.853-.852-1.55-3.749-1.55-6.436v-4.887l-2.5-3.18-2.5-3.18-.957-11.333-.957-11.334-1.841-3.8c-1.013-2.09-2.219-5.99-2.68-8.667-.462-2.676-1.638-7.866-2.614-11.533-1.547-5.811-2.582-13.861-3.907-30.363-.19-2.367-1.297-9.103-2.46-14.97-1.165-5.867-2.177-12.167-2.251-14-.61-15.119-1.27-21.822-2.22-22.518-.612-.448-1.137-4.715-1.166-9.482-.03-4.767-.592-13.167-1.25-18.667-.658-5.5-1.129-11.2-1.046-12.666.082-1.467.48-11.667.884-22.667.404-11 1.04-21.8 1.411-24 .372-2.2.14-4.85-.517-5.889l-1.194-1.888 1.2-3.157c1.48-3.895 2.661-14.63 3.343-30.4.538-12.437 1.885-21.51 4.554-30.666.855-2.933 1.874-6.992 2.265-9.018l.711-3.686-1.62-3.913-1.621-3.912 1.65-9.736c.906-5.354 2.766-11.72 4.132-14.144l2.484-4.41v-6.512c0-3.581.546-6.85 1.214-7.262.667-.412 1.898-5.098 2.734-10.412.836-5.314 2.69-11.968 4.12-14.788l2.599-5.126v-10.32l2.506-1.342 2.506-1.341-.899-4.372-.898-4.373 1.81-3.64c.996-2.002 2.316-3.952 2.934-4.334.618-.382.813-1.882.434-3.332l-.69-2.638 2.588-4.385 2.587-4.385.196-5.21c.107-2.867.81-5.826 1.56-6.577.752-.751 1.366-2.745 1.366-4.432 0-1.687.504-3.067 1.12-3.067 1.486 0 4.213-6.108 4.213-9.439v-2.646l3-1.206c1.65-.664 2.25-1.244 1.334-1.29-2.56-.13-1.98-3.271 1-5.419l2.666-1.922v-3.044c0-1.674 1.2-5.282 2.667-8.019 1.467-2.736 2.667-5.999 2.667-7.25 0-2.882 2.177-4.302 3.447-2.247l.965 1.561-1.593-.984-1.593-.985.908 3.779c1.147 4.774 1.31 4.943 3.84 3.972l2.091-.802-.86-3.696c-.472-2.033-1.687-4.362-2.699-5.176-2.883-2.32-1.48-10.066 2.273-12.545.576-.38 1.272-2.375 1.548-4.432.275-2.057 1.139-4.146 1.919-4.641.78-.496 1.87-3.002 2.423-5.569.553-2.566 1.828-5.85 2.834-7.296 1.007-1.447 1.83-3.648 1.83-4.89 0-1.244 1.5-5.248 3.333-8.898 1.834-3.65 3.334-7.6 3.334-8.776v-2.14h3.879l.852-4.542.852-4.543 4.542-4.958c2.498-2.727 4.541-5.41 4.541-5.96 0-.552.865-1.72 1.921-2.598l1.92-1.594-.73-1.902-.73-1.903H420v-2.978l-2.665.698c-4.029 1.053-4.314-.961-.627-4.425 1.81-1.701 3.292-4.124 3.292-5.384 0-1.26.938-2.652 2.084-3.092 1.147-.44 1.766-1.316 1.376-1.946-.39-.63.154-2.285 1.207-3.676 1.053-1.392 1.934-4.145 1.957-6.118.023-1.973.576-3.918 1.228-4.32.652-.404 1.599-2.39 2.104-4.413.505-2.023 1.71-4.579 2.68-5.679 2.593-2.946 7.364-11.829 7.364-13.712 0-.896 1.787-3.317 3.971-5.378 2.184-2.062 3.913-4.16 3.842-4.663-.07-.502-.058-1.964.029-3.247l.158-2.333h4v-3.225c0-4.178 1.278-7.442 2.915-7.442h1.297l-.867 4.333-.867 4.334 2.742-4 2.743-4-1.24-.42c-1.505-.509-.256-4.247 1.42-4.247.654 0 1.19.9 1.19 2s.6 2 1.334 2c.733 0 1.333-.9 1.333-2s-.6-2-1.333-2h-1.334l.098-3.667c.053-2.016 1.17-5.466 2.48-7.666l2.382-4 2.06.164 2.061.164 2.327-5.16 2.327-5.161 1.8 1.493 1.799 1.493v-2.217c0-1.22 1.28-3.95 2.847-6.068l2.847-3.851-.722-2.762-.723-2.762h1.395c.767 0 2.192-1.05 3.166-2.333l1.771-2.334.198 4.667.197 4.667.667-2.634c.367-1.448 1.59-3.307 2.716-4.13l2.048-1.498-.949-1.536c-.522-.845-1.814-1.536-2.87-1.536-1.057 0-1.922-.6-1.922-1.333s1.144-1.333 2.542-1.333h2.542l-.635-2.427-.634-2.426 1.76-1.43c.967-.787 2.902-1.645 4.3-1.907l2.54-.477.357-2.437c.196-1.341.684-3.291 1.084-4.334l.727-1.896h5.538l-.902-4.807-.902-4.807 3.806-3.27 3.806-3.27 2.363.617 2.362.618-.805-3.207-.804-3.207h1.38c.759 0 1.63.75 1.938 1.667.306.916.357-.134.113-2.334s-.146-3.384.218-2.632l.662 1.367 5.322-.507c5.536-.528 7.552-2.52 2.364-2.334l-2.958.106-.503-2.487-.502-2.486 1.771.59 1.772.59 1.631-3.144c.898-1.73 1.321-3.954.942-4.943l-.69-1.799 3.414-2.685c1.878-1.478 3.415-3.65 3.415-4.828 0-2.88 2.334-2.734 3.06.192.32 1.284.377.69.13-1.32l-.452-3.653 3.964-2.93c2.18-1.613 3.964-3.739 3.964-4.726 0-.986 1.87-3.621 4.155-5.855l4.154-4.06 3.179.797 3.179.798v-3.74l-2.977-.778-2.977-.779 1.587-1.587 1.587-1.587 2.057 1.707 2.056 1.707v-3.296l4.334.633 4.333.634-2.19-1.385-2.19-1.385 2.74-2.218 2.74-2.218-1.55-.958-1.55-.958v4.157h-2c-1.1 0-2-.507-2-1.126 0-1.661 4.608-5.54 6.58-5.54h1.705l-.794-2.07-.794-2.069 1.461.903 1.461.903-.863-2.72-.863-2.719 3.344-3.344c1.84-1.84 4.638-3.755 6.22-4.257l2.876-.913 1.275 1.81 1.274 1.81-.827-3.779-.828-3.777 2.645-.692 2.645-.691.408-2.584c.225-1.421.881-2.54 1.459-2.488.577.052 2.58-1.724 4.452-3.948l3.401-4.042h2.533c1.393 0 3.687-.988 5.098-2.196l2.564-2.196-.692-1.804-.692-1.804h1.845c1.015 0 3.767-1.754 6.114-3.898l4.269-3.899-1.638-.58-1.638-.58 4.165-4.039 4.165-4.039 2.059 2.405c1.132 1.323 1.708 2.755 1.28 3.184-.43.429.756.78 2.633.78h3.413l.8-2.088.801-2.087-2.546.808-2.546.808-.966-1.563-.966-1.563 2.187-1.224 2.188-1.224v-6.451l2.024.777c1.113.427 3.813.036 6-.87l3.976-1.647.153-3.505c.084-1.928.095-4.405.023-5.505-.215-3.299 6.706-7.536 12.902-7.898.96-.056 1.406-.651.992-1.322-.415-.672.803-3.072 2.706-5.334l3.46-4.113h2.56c1.408 0 4.39-1.63 6.628-3.624l4.068-3.625-.567-2.166-.566-2.167 2.469-1.542c1.358-.848 3.677-1.542 5.154-1.542h2.684v-2.042c0-1.123.975-2.416 2.166-2.873l2.165-.83 1.25 2.233c.687 1.23 1.813 1.886 2.501 1.461 1.947-1.203 1.473-3.283-.748-3.283-2.647 0-2.484-1.306.666-5.333l2.608-3.333.049 2 .049 2 1.678-3.334 1.678-3.333 3.635-.422 3.636-.422V517.9c0-1.052.58-1.912 1.287-1.912.709 0 3.13-1.8 5.38-4l4.092-4h-1.58c-.868 0 .906-1.8 3.943-4 6.086-4.409 7.614-4.816 8.755-2.333.42.917.452.387.07-1.178l-.694-2.844 4.783-2.822c2.631-1.553 5.674-2.823 6.763-2.823 1.089 0 3.268-1.2 4.842-2.666l2.862-2.667h-1.584c-.872 0-1.585-.6-1.585-1.333 0-.734.918-1.334 2.04-1.334 1.123 0 3.885-2.1 6.139-4.666 2.253-2.567 4.935-4.667 5.959-4.667s1.862-.6 1.862-1.333c0-.734.66-1.334 1.465-1.334.806 0 3.356-.835 5.667-1.857 2.31-1.021 5.29-2.217 6.619-2.657 1.33-.44 2.085-1.339 1.678-1.997l-.739-1.196 4.512-2.141c2.482-1.178 6.377-4.265 8.655-6.86 2.279-2.595 4.143-4.01 4.143-3.143v1.574l3.27-3.528c3.334-3.598 4.449-4.008 9.73-3.58l3 .243 2.153-2.154 2.154-2.154-2.292-2.533-2.292-2.532 4.968-2.076c2.732-1.141 5.741-2.075 6.686-2.075.946 0 3.234-1.8 5.085-4 3.767-4.478 4.871-4.931 4.871-2 0 2.916 2.345 2.446 3.333-.667l.847-2.667h5.376l-.598-1.666c-.862-2.404 1.468-6.334 3.756-6.334 1.074 0 1.953.653 1.953 1.45 0 .798 3.383-1.96 7.519-6.129l7.52-7.58 3.767.754 3.769.754 1.955-2.792 1.955-2.791 3.451.866 3.452.866 2.64-1.412 2.638-1.413v-3.031c0-1.668.808-4.136 1.794-5.485l1.794-2.453 3.54-.378 3.54-.377v1.242c0 .684.955 1.243 2.124 1.243h2.125l.697-2.667c.384-1.467 1.227-2.667 1.875-2.667.648 0 1.178-1.2 1.178-2.666v-2.667h4.157l-.887 1.435-.887 1.436 2.78 2.59 2.78 2.59-.62-4.359-.62-4.359 1.07 3.334 1.071 3.333 2.245-.392 2.244-.392v6.868l2.09.802 2.09.801 1.376-1.376 1.376-1.376-.92-2.897-.92-2.898-1.879.722-1.88.721v-1.892c0-1.04-1.05-2.56-2.333-3.376l-2.333-1.483 3.54.744 3.54.745-.695-2.66-.696-2.66h-5.18l.902-1.46.902-1.459 3.177.608 3.177.607v-2.161c0-1.189 1.2-2.91 2.666-3.827l2.667-1.665v2.912l1.667-.612c.916-.336 1.501-1.33 1.3-2.211l-.367-1.6 3.033.932 3.034.933-.992-1.046-.991-1.046 2.991-2.098c3.05-2.139 11.794-6.808 12.75-6.808.29 0 .182.9-.24 2l-.768 2h4.074l-.814-1.317-.815-1.318 3.403-3.669c1.87-2.018 3.402-4.125 3.402-4.682 0-.558 1.481-1.014 3.291-1.014h3.292l-.743 1.936c-.409 1.065-.349 2.575.134 3.355l.877 1.42 1.383-.856 1.384-.855-1.81-1.167-1.808-1.166 2-1.313 2-1.313-1.445-.02c-.794-.011-1.444-.92-1.444-2.02v-2h3.032c1.668 0 3.429-.641 3.913-1.425.484-.783 1.71-1.105 2.725-.716l1.845.708 1.42-2.655c.782-1.46 1.91-2.352 2.506-1.983 1.302.804 11.583-3.99 12.809-5.974l.863-1.397 2.456.779 2.455.78 1.194-2.134c.657-1.174 3.551-2.963 6.432-3.976l5.239-1.843 1.578 2.051 1.578 2.051 1.486-.918 1.487-.92-1.513-1.822c-1.883-2.269-.569-4.607 2.59-4.607 1.309 0 3.466-1.2 4.794-2.666 1.327-1.467 3.47-2.667 4.762-2.667 1.292 0 2.594-.736 2.894-1.635l.545-1.634 4.566.232 4.566.232-2.667-1.07-2.666-1.068 7.585-2.209c4.171-1.214 8.478-3.102 9.571-4.195 1.093-1.092 3-1.986 4.237-1.986h2.251l-.697 2.666-.698 2.667h2.728l-.622-3.254-.622-3.255 4.029-1.669c2.216-.917 7.22-1.703 11.12-1.745l7.09-.077.114-1.3c.062-.715-.681-1.51-1.653-1.768l-1.767-.469 2 1.415 2 1.414-5.666.02-5.667.021v-1.333c0-.733 1.35-1.352 3-1.376 1.65-.023 4.165-.923 5.588-2 1.424-1.076 3.497-1.957 4.608-1.957 1.112 0 6.247-2.03 11.412-4.51 9.494-4.56 17.541-7.49 20.565-7.49h1.651l-.824 1.333-.824 1.333h2c1.1 0 2.37-.6 2.824-1.333l.824-1.333h-1.412c-.777 0-1.412-.6-1.412-1.334 0-.733 1.05-1.335 2.333-1.338 1.284 0 4.298-1.203 6.7-2.667 2.4-1.464 5.4-2.68 6.666-2.704 1.266-.023 3.466-.923 4.89-2 1.423-1.076 4.146-1.957 6.05-1.957 3.159 0 11.114-3.33 15.089-6.314 2.664-2 12.504-4.725 14.451-4l1.821.676-3.333 1.401-3.334 1.401 3.574.084 3.574.085.426-3 .426-3 3.334-.383c1.833-.211 5.57-1.346 8.302-2.522l4.97-2.14 2.03 1.686 2.031 1.685v-4.358l5.667.662 5.666.661-3.32-1.036-3.32-1.036 1.32-.768c.726-.422 3.72-1.498 6.654-2.39 2.933-.894 7.433-2.585 10-3.759 2.566-1.173 8.178-2.398 12.47-2.721l7.803-.588-1.734-1.072-1.734-1.071 3.93-.877c2.163-.482 6.773-1.769 10.247-2.86 3.473-1.09 7.373-1.736 8.667-1.435l2.35.546-4.288 1.221-4.29 1.222 1.144 1.843 1.143 1.842 4.146-1.835c2.28-1.009 4.165-2.138 4.188-2.51.023-.37.888-1.79 1.922-3.155l1.879-2.48 8.412-1.749c4.626-.96 10.511-2.363 13.078-3.115 2.567-.753 10.067-2.654 16.667-4.226 6.6-1.572 13.042-3.403 14.315-4.07 1.273-.667 4.388-1.212 6.921-1.212 2.534 0 4.938-.537 5.343-1.193.406-.655 2.991-1.527 5.746-1.937 14.759-2.194 21.221-3.347 23.13-4.126 1.166-.477 4.466-1.091 7.333-1.365 7.733-.74 33.99-6.876 38.212-8.929l3.667-1.783-.625-1.667-.625-1.667 4.291-.136 4.292-.137-4.117-.984c-2.264-.541-4.814-1.415-5.666-1.942l-1.55-.958v2.824h-13.177l-.824 1.333c-1.208 1.956-3.333 1.625-3.333-.518v-1.852l4.862-.912c2.674-.501 6.233-1.81 7.91-2.91l3.05-1.997 2.456 1.315 2.458 1.315 2.31-1.293c1.27-.711 5.155-1.11 8.632-.887l6.322.406-.418 2.447-.418 2.448 2.418-.496 2.418-.496-.358-2.138-.358-2.139 4.94-2.915 4.94-2.915 7.752.9c11.652 1.352 10.342 3.304-3.468 5.17-2.87.387-5.787 1.273-6.483 1.97l-1.266 1.265.896 1.45.896 1.449h9.145c5.03 0 10.095-.364 11.255-.81l2.109-.809v-5.048h-2c-2.603 0-2.586-2.525.024-3.527l2.024-.776-.357-2.158-.357-2.157 12-1.791c6.6-.985 13.2-1.815 14.666-1.844 3.772-.075 22.174-3.697 23.758-4.676.726-.448 6.177-.95 12.114-1.117 5.937-.166 16.195-1.33 22.795-2.587 6.6-1.256 20.1-3.075 30-4.04 9.9-.966 19.35-2.18 21-2.697l3-.94v3.266l3.48-.873c1.914-.48 14.064-1.764 27-2.853 12.936-1.088 26.142-2.33 29.346-2.76l5.825-.78.93 1.504.929 1.504 12.578-1.265c20.689-2.081 48.563-.503 50.735 2.873 1.101 1.711 18.335 5.263 21.172 4.363 4.057-1.288 20.368 6.238 25.28 11.665 1.825 2.016 3.952 3.666 4.725 3.666 2.055 0 8.504 15.623 9.509 23.037.475 3.503 1.38 6.688 2.01 7.078.632.39 1.148 3.293 1.148 6.45v5.742l-2.667 3.39c-1.467 1.865-2.68 3.896-2.697 4.514-.163 5.916-11.858 13.29-22.953 14.472-4.941.527-8.709 1.403-8.372 1.948.712 1.152-13.687 2.68-25.378 2.693l-8.067.01-1.456 1.457-1.457 1.457-2.934-1.57-2.934-1.57-3.543.903c-3.01.767-12.148.903-31.542.468-12.612-.283-46.029 1.592-50 2.805-2.567.784-10.067 1.763-16.667 2.176-6.6.413-13.2 1.26-14.667 1.882-3.431 1.455-14.41 2.799-21.666 2.651l-5.667-.115v1.617c0 .89-.321 1.296-.714.903-.392-.392-4.331.041-8.752.964-4.422.923-9.262 1.358-10.756.967l-2.717-.71-.864 1.333-.864 1.334-18.666 2.325c-10.267 1.278-19.567 2.783-20.667 3.344-1.1.56-2.653.782-3.451.493-.798-.29-4.974.392-9.28 1.514-4.306 1.121-11.022 2.039-14.924 2.039h-7.095l-.768 2-.767 2h-3.83c-2.107 0-6.093.848-8.858 1.884-2.765 1.036-7.127 2.231-9.694 2.656-2.566.425-7.366 1.419-10.666 2.209-3.3.79-9.6 1.961-14 2.603-9.776 1.426-35.853 7.129-41.334 9.039-4.297 1.497-12.948 3.766-20.975 5.5-2.737.591-5.86 1.809-6.94 2.705-2.196 1.823-18.18 5.459-19.775 4.499-.564-.339-3.014.613-5.445 2.116l-4.42 2.731-6.215.362c-3.42.2-6.22.76-6.223 1.247 0 .486-3.936 2.154-8.738 3.705l-8.732 2.821-1.474-.911-1.475-.912.842 1.363.842 1.362-6.155.844c-3.385.464-8.622.886-11.636.937l-5.48.094 2.578 1.01 2.578 1.01-1.667 1.03c-.917.566-2.022.675-2.456.241-.433-.434-1.473-.22-2.31.475-.838.695-4.043 1.666-7.123 2.159l-5.601.895-.133-1.837c-.073-1.01-.553-.337-1.066 1.497l-.932 3.333-2.603.05c-1.431.027-3.269.461-4.083.965-.815.503-3.41 1.062-5.767 1.241-2.357.18-4.575.796-4.93 1.369-.354.573-2.327 1.042-4.385 1.042h-3.741l-3.206 2.522c-1.764 1.387-7.995 4.048-13.847 5.914-5.852 1.865-13.291 4.362-16.53 5.548-3.24 1.186-8.34 2.496-11.334 2.91-2.994.414-5.81 1.333-6.258 2.043-.813 1.284-21.777 9.097-33.185 12.367-3.3.946-8.724 2.914-12.053 4.374-3.33 1.46-8.13 3.103-10.667 3.653-2.537.55-8.046 2.725-12.242 4.834-4.196 2.11-8.63 3.835-9.853 3.835-1.223 0-2.951.994-3.84 2.21l-1.616 2.209-11.198.098c-6.159.054-10.148.304-8.864.555 1.283.251 2.333.975 2.333 1.608v1.152l5-.605 5-.604-5.333 2.59c-2.934 1.424-6.186 2.633-7.229 2.688-1.042.054-2.842.952-4 1.996-1.157 1.043-4.758 2.808-8.002 3.923l-5.897 2.027-2.562-1.372-2.563-1.37.883 2.78.883 2.781h-2.757c-1.516 0-2.756-.605-2.756-1.344v-1.345l-2.58 1.612c-1.42.886-2.3 2.066-1.957 2.62.343.556-1.262 1.986-3.566 3.177l-4.19 2.167.891-1.443.892-1.444h-1.853c-1.02 0-2.656 1.5-3.637 3.334l-1.784 3.333h-4.883l.333 1.635.334 1.635-3.334.486c-1.833.267-5.243 1.931-7.577 3.698-2.335 1.767-5.485 3.213-7 3.213-1.516 0-2.756.588-2.756 1.308 0 .72-1.65 1.707-3.667 2.194-2.016.488-5.259 2-7.205 3.359-1.947 1.36-4.518 2.472-5.714 2.472-2.747 0-8.477 3.673-12.48 8l-3.084 3.333.749-3.333.748-3.333-1.544 3c-.849 1.65-2.37 3-3.382 3-1.01 0-2.183.9-2.605 2l-.768 2h-7.631l.716 1.865.716 1.865-1.54.952-1.541.952-1.484-1.484c-.816-.816-2.037-1.484-2.714-1.484h-1.23l1.485 1.79c1.724 2.077.685 3.656-1.783 2.709l-1.698-.652-.797 2.077-.797 2.076h-3.211c-1.767 0-3.938.875-4.825 1.944l-1.613 1.943-3.884-.777-3.884-.776v3l3 .09 3 .09-3 1.447c-1.65.795-3 1.955-3 2.576s-1.15 1.13-2.557 1.13-3.469.35-4.583.777l-2.025.777.712 1.853.71 1.853-5.379.86-5.38.86-.707 1.844-.707 1.842h-3.108c-3.764 0-6.358 2.322-5.395 4.83l.705 1.837h-2.937c-3.254 0-9.863 3.403-13.595 7-1.331 1.283-3.356 2.333-4.499 2.333h-2.079l.824 1.334.824 1.333h-5.754l-3.831 4.101c-2.107 2.256-4.38 3.763-5.05 3.349-.67-.415-3.505 1.34-6.298 3.898-2.793 2.559-5.856 4.652-6.807 4.652-.95 0-2.477 1.2-3.393 2.667l-1.665 2.666-3.346.02-3.346.02 1.778 1.128 1.779 1.127-2.221.852c-1.222.469-3.39.852-4.82.852h-2.6l-.767 2c-.423 1.1-1.54 2-2.483 2-.943 0-2.004.756-2.359 1.68-.354.923-3.448 2.43-6.875 3.346-3.427.916-7.665 2.606-9.418 3.754l-3.187 2.088.73 1.9.728 1.9h-7.872l-2.004 2.332c-1.102 1.284-2.488 3.534-3.08 5l-1.075 2.667-.572-2.404-.572-2.404-1.905 1.58-1.905 1.582 1.436 1.73 1.436 1.73-2.877 1.54-2.877 1.54-3.21-.806-3.208-.805v1.358c0 .748.9 1.36 2 1.36 2.75 0 2.521 2.538-.334 3.709-2.764 1.133-13.616 8.275-16.007 10.534-.922.87-3.022 2.002-4.667 2.515-1.646.514-3.433 1.603-3.972 2.42l-.98 1.488-.02-2.334-.02-2.333h-5.471l-1.395 4c-.767 2.2-2.086 4.01-2.93 4.02l-1.537.02 1.81 1.147 1.808 1.146-1.336.826-1.336.825-.764-1.992c-.42-1.096-1.684-1.992-2.807-1.992h-2.041v6.253l-2.667 2.413-2.667 2.414v-3.407l-2 1.66c-1.1.913-2 2.486-2 3.497 0 1.01-.6 1.836-1.333 1.836s-1.333.913-1.333 2.029v2.029l-3.667 1.617c-2.017.89-4.401 2.606-5.299 3.814-.897 1.208-4.309 2.987-7.58 3.953-3.273.966-5.653 2.237-5.29 2.824.363.587-.426 1.077-1.752 1.088l-2.412.02 1.553.988 1.553.988-1.76 2.406c-.968 1.324-3.467 2.863-5.553 3.421-2.086.558-3.793 1.596-3.793 2.307 0 2.488-27.491 27.79-33.879 31.182-2.07 1.1-4.479 3.612-5.352 5.584l-1.586 3.584-2.892.416-2.891.417-1.377 2.774-1.378 2.774-1.656-.552c-.91-.304-1.656.048-1.656.782 0 .733-3.9 5.078-8.667 9.655-4.766 4.578-8.672 8.978-8.68 9.778-.01.8-2.467 3.555-5.468 6.122-3 2.567-7.215 6.317-9.366 8.333l-3.911 3.667h-3.209c-1.764 0-3.533.525-3.93 1.167l-.72 1.167 6.308-.452c3.47-.248 5.11-.115 3.643.296-1.467.411-3.237 1.29-3.933 1.951-.697.663-2.647 1.204-4.334 1.204h-3.066v1.706c0 .938-1.2 2.57-2.667 3.628-1.467 1.057-2.667 2.625-2.667 3.485 0 .86-.9 1.908-2 2.33-1.1.422-2 1.893-2 3.269 0 2.852-4.69 8.585-8.708 10.643l-2.708 1.387-.22 2.925c-.292 3.88-3.943 7.75-9.5 10.07l-4.523 1.891 1.632 1.967 1.632 1.966-3.47 1.58c-1.907.87-3.468 2.385-3.468 3.367 0 .983-.9 1.786-2 1.786s-2 .6-2 1.334c0 .733-1.2 1.333-2.667 1.333-3.046 0-3.205.503-1.286 4.088l1.38 2.579h-5.343l.767 2 .768 2h-4.286v2.666c0 1.467-.6 2.667-1.333 2.667S552 786.469 552 787.873v2.552l-4.667 4.806c-2.567 2.643-4.667 5.694-4.667 6.78 0 2.404-2.185 2.62-3.117.31l-.672-1.667-.105 3c-.058 1.65-.65 3-1.314 3h-1.209l.66 2.521.659 2.52-5.917 6.176c-3.254 3.396-6.604 7.683-7.444 9.528-.84 1.844-3.93 6.535-6.868 10.425-2.937 3.89-5.34 7.986-5.34 9.103s-1.418 3.462-3.153 5.212c-1.734 1.75-3.574 4.532-4.09 6.182-.515 1.65-1.496 3-2.18 3-.683 0-1.243 1.2-1.243 2.667 0 1.466-.633 2.666-1.407 2.666-.773 0-2.877 3.15-4.673 7-1.797 3.85-5.324 9.7-7.838 13-2.515 3.3-4.611 7.065-4.66 8.367l-.089 2.366-3.333 1.267-3.333 1.268-.204 3.033a499.065 499.065 0 0 1-.343 4.799c-.077.971-1.186 2.351-2.464 3.066-1.277.715-2.323 2.35-2.323 3.634 0 3.012-2.552 5.534-5.6 5.534h-2.4v-4h-4.413l2.134 2.358 2.134 2.358-.492 2.642-.615 3.308c-.067.367-.704-.233-1.414-1.333l-1.293-2-.02 2.19c-.011 1.206.959 2.567 2.156 3.027l2.177.835-3.7 3.18-3.702 3.18.873 5.461.873 5.46h-1.349c-.742 0-1.349-.6-1.349-1.333s-1.05-1.324-2.333-1.313l-2.333.02 1.809 1.147 1.81 1.146-.956 3.01-.955 3.009-1.115-1.805c-.613-.992-1.49-1.43-1.947-.972-.457.457-.04 2.129.928 3.715l1.759 2.883-3.264 2.673-3.263 2.674-.276 3.573c-.152 1.965-.933 5.259-1.734 7.32l-1.458 3.747-1.336-.826c-.735-.454-1.397-1.84-1.472-3.08-.193-3.178-2.592 5.795-3.648 13.64l-.882 6.56-1.825.603-1.825.603 1.317-2.353c1.45-2.59.703-7.308-1.156-7.308-.648 0-1.2.45-1.228 1-1.08 21.611-.995 21.295-5.088 19.105l-2.7-1.445-.81 1.31c-.445.72-.122 2.593.719 4.162l1.527 2.854-2.226 7.078c-1.225 3.893-3.385 8.413-4.8 10.045-1.414 1.631-2.663 3.924-2.775 5.095a366.386 366.386 0 0 0-.345 3.852c-.078.948-.968 2.233-1.978 2.857l-1.835 1.134.881 3.51.881 3.511-3.197-.802-3.197-.803-.894 3.563-.895 3.563 1.408 1.695 1.407 1.696-2.017 1.673c-1.109.92-2.016 2.72-2.016 3.997 0 1.278-1.236 3.896-2.747 5.816-1.511 1.921-3.09 5.602-3.508 8.18-.418 2.578-1.282 4.688-1.92 4.688-.637 0-1.158 1.48-1.158 3.288 0 1.808-.85 5.258-1.89 7.666-1.038 2.409-2.857 6.61-4.042 9.336-1.184 2.727-3.09 5.482-4.233 6.122l-2.08 1.164-.688 11.212-.686 11.212-1.83 3.548-1.831 3.55-3.027-.759-3.027-.758 2.334 2.648 2.333 2.647v4.288c0 2.358-.857 8.011-1.904 12.562-1.047 4.55-2.619 13.674-3.493 20.274-.874 6.6-2.071 12.606-2.66 13.346-.59.741-1.483 4.865-1.985 9.165-1.254 10.733-1.674 13.69-3.15 22.155-.704 4.034-1.324 12.584-1.377 19l-.098 11.667h-2.388l-.956 10.805-.957 10.806 1.71 3.194 1.71 3.195-1.726 3.225-1.726 3.225.977 4.441c.988 4.494 1.914 27.562 2.009 50.042l.051 12.265 1.282.793 1.282.792-.818 5.966-.818 5.966 1.616 10.309c.89 5.67 2.271 13.31 3.071 16.976.8 3.667 1.618 9.367 1.817 12.667.199 3.3.988 9 1.753 12.666.766 3.667 2.09 11.317 2.94 17 .853 5.684 2.065 10.334 2.694 10.334.63 0 1.142 1.35 1.138 3-.007 2.764 2.84 12.636 5.476 19 1.168 2.817 3.825 15.045 4.492 20.666.217 1.834 1.694 6.187 3.282 9.673 1.588 3.488 3.736 11.58 4.772 17.984l1.885 11.643 1.383.461c.761.254 1.403 1.762 1.426 3.35.023 1.59.923 4.054 2 5.477 1.077 1.424 1.958 4.5 1.958 6.837v4.249l2 1.66c1.1.913 2 2.966 2 4.563 0 1.597.75 3.711 1.666 4.699l1.667 1.795-1.765-1.001-1.765-1.002 1.275 2.473c1.46 2.83 6.287 15.67 7.572 20.14.474 1.65 1.38 3 2.011 3 .632 0 2.149 3.45 3.37 7.666 1.221 4.217 3.064 8.146 4.095 8.733 1.03.586 1.874 2.416 1.874 4.067 0 1.65.511 3.57 1.136 4.267.626.696 1.93 4.266 2.9 7.933.969 3.667 2.495 7.867 3.39 9.333.896 1.467 2.046 4.167 2.556 6 .873 3.142 4.075 10.261 13.84 30.772 2.298 4.825 4.178 9.67 4.178 10.768 0 1.097 1.442 3.35 3.206 5.007l3.206 3.012.909 4.844c.5 2.665 2.957 8.704 5.46 13.422 2.504 4.717 4.552 9.27 4.552 10.117 0 .847 2.882 6.007 6.405 11.466 3.522 5.46 7.223 12.026 8.223 14.592 1 2.567 2.265 5.267 2.81 6 1.947 2.616 16.94 32.324 17.9 35.466.537 1.76 1.721 4.1 2.631 5.2.91 1.1 3.908 6.2 6.664 11.334 2.756 5.134 6.03 10.534 7.276 12 2.73 3.214 5.595 7.772 10.237 16.289 1.912 3.508 4.832 8.478 6.488 11.045 1.656 2.566 5.618 8.716 8.805 13.666 3.186 4.95 6.266 9 6.844 9 .577 0 1.05.924 1.05 2.054s1.35 3.942 3 6.25c7.034 9.836 15.707 21.795 16.703 23.03.591.733 3.45 4.926 6.353 9.318 2.902 4.391 7.978 11.407 11.278 15.59 11.24 14.246 12.666 16.14 13.333 17.704.89 2.09 11.066 14.602 12.333 15.165.55.245 1 .967 1 1.606 0 .64 1.35 2.574 3 4.3s3.9 4.527 5 6.224 2.75 3.87 3.667 4.827c.917.958 1.667 2.01 1.667 2.336 0 .327 2.1 2.887 4.666 5.69 2.567 2.801 4.667 5.784 4.667 6.628 0 .844 2.55 3.925 5.667 6.847 5.965 5.592 11.152 11.776 13.56 16.169.792 1.444 4.615 6.144 8.496 10.444 3.881 4.3 9.881 11.036 13.334 14.97 3.452 3.933 7.326 8.283 8.61 9.666 1.283 1.384 2.333 3.34 2.333 4.346 0 1.006 2.607 4.233 5.793 7.17 3.186 2.936 7.22 7.363 8.964 9.836 1.744 2.473 4.537 5.59 6.207 6.927 1.67 1.337 3.036 3.066 3.036 3.844 0 .777 1.055 2.383 2.344 3.57 1.29 1.185 4.122 4.78 6.294 7.985 2.173 3.206 5.318 6.452 6.99 7.214 1.67.762 3.039 2.124 3.039 3.028 0 .904.896 1.988 1.992 2.408 1.096.42 3.054 2.511 4.353 4.646 1.298 2.135 5.801 7.631 10.007 12.214 4.206 4.584 7.648 8.867 7.648 9.52 0 .652 2.55 3.826 5.666 7.054 3.117 3.227 7.572 8.167 9.9 10.977 7.402 8.934 14.347 16.986 18.208 21.11 6.506 6.949 7.672 8.301 10.735 12.453 1.644 2.23 9.628 11.14 17.742 19.8 21.865 23.34 21.526 22.948 29.22 33.876 6.192 8.795 14.335 18.573 24.946 29.955 8.232 8.83 18.91 22.569 26.882 34.591 2.915 4.395 7.337 9.97 9.827 12.387s4.205 4.718 3.81 5.112c-.704.705 1.64 4.03 5.867 8.323 2.604 2.644 15.863 22.155 15.863 23.342 0 .468 5.924 9.695 13.163 20.506 7.24 10.81 14.21 21.755 15.49 24.322 1.279 2.566 3.408 5.866 4.731 7.333 2.582 2.862 5.807 8.493 14.51 25.333 3.03 5.867 6.066 11.567 6.745 12.667 2.208 3.579 18.295 37.906 19.37 41.333.576 1.834 3.928 8.96 7.45 15.838 3.523 6.878 6.781 14.22 7.242 16.318.46 2.098 1.392 4.156 2.068 4.574.677.419 1.237 2.076 1.243 3.682.01 1.607 1.488 5.922 3.292 9.588 1.804 3.667 3.298 7.796 3.321 9.176.023 1.38 1.245 4.456 2.715 6.835 1.47 2.38 2.95 6.05 3.286 8.158 1.172 7.344 2.464 11.85 4.158 14.498.938 1.467 2.662 6.867 3.83 12 1.17 5.133 3.914 14.654 6.099 21.157s4.35 14.303 4.811 17.334c.461 3.03 1.978 7.909 3.37 10.842 1.393 2.934 3.09 9.234 3.77 14 1.173 8.22 2.85 14.71 5.336 20.667 2.44 5.842 4 11.923 4 15.586v3.855l2.826 3.822 2.825 3.822-.14 5.79c-.076 3.186.686 7.892 1.695 10.458 2.775 7.065 6.386 24.714 6.929 33.86.265 4.477 1.075 9.34 1.8 10.807 1.431 2.898 4.993 19.611 6.676 31.333.58 4.034 1.722 10.634 2.54 14.667 1.729 8.527 2.43 13.571 4.165 30 .697 6.6 2.233 18.3 3.413 26l2.145 14-.103 15.324c-.057 8.428.467 18.628 1.164 22.666 1.194 6.915 2.685 61.827 3.322 122.336.157 14.846.6 27.308.984 27.693.385.384.468 4.438.185 9.007-.283 4.569-.724 20.307-.98 34.974-.256 14.667-.587 26.667-.735 26.667-2.405 0-1.632 102.123 1.11 146.666l1.149 18.667 1.682 3.563 1.682 3.562-1.543 4.425-1.542 4.424 1.758 1.346c.966.74 1.565 2.271 1.331 3.401-.234 1.13.54 7.43 1.719 14 1.18 6.57 2.103 13.446 2.05 15.279-.146 5.2 2.794 18.667 4.076 18.667.633 0 1.15 2.064 1.15 4.588 0 2.523.479 4.883 1.064 5.244.584.362 1.21 4.924 1.389 10.139.179 5.214.886 10.954 1.57 12.754.685 1.801.944 3.275.577 3.275s.224 1.724 1.313 3.83c1.09 2.108 1.64 4.173 1.222 4.59-.417.418.507 2.536 2.054 4.709 1.546 2.172 2.812 5.25 2.812 6.838 0 1.59.943 3.833 2.096 4.986l2.097 2.097-.762 3.035c-.42 1.67-.399 3.984.046 5.142l.808 2.106h13.02l7.014-2.666c3.857-1.466 8.814-2.67 11.014-2.675 2.2 0 5.61-.849 7.577-1.875 1.967-1.026 5.384-2.263 7.592-2.748 2.208-.485 6.599-2.842 9.756-5.238l5.742-4.356 8.526-1.66 8.526-1.659 5.474-3.456 5.474-3.456 6.308-.606 6.31-.606 1.52-1.833c.837-1.008 3.156-1.833 5.154-1.833h3.633l3.064-2.657c2.85-2.472 10.502-5.318 14.344-5.335.917 0 1.667-.54 1.667-1.193 0-.651 2.25-1.595 5-2.097 2.75-.503 6.84-1.985 9.091-3.295 2.25-1.31 6.965-2.812 10.476-3.338 3.512-.527 8.44-2.111 10.95-3.521 2.51-1.41 5.396-2.564 6.414-2.564 1.017 0 4.749-1.455 8.292-3.234 3.544-1.78 10.343-4.432 15.11-5.895 29.758-9.132 40.757-12.798 41.44-13.812l.773-1.149 2.238.859 2.237.858 4.656-2.21c2.56-1.214 4.656-2.67 4.656-3.233 0-.564 4.05-1.686 9-2.495 4.95-.809 10.65-1.89 12.667-2.402l3.666-.931v1.155c0 .636-1.95 3.32-4.333 5.963-4.13 4.582-6.826 6.604-21.332 15.99-3.484 2.254-6.334 4.5-6.334 4.993 0 .492-2.55 3.73-5.666 7.194l-5.667 6.3-4.276.304c-2.352.167-4.005.575-3.673.907.332.332-1.794 1.678-4.724 2.99-2.93 1.311-5.327 3.05-5.327 3.862 0 .812-.532 1.148-1.182.746-.65-.402-1.895.127-2.765 1.176-.87 1.048-2.364 1.606-3.32 1.239l-1.737-.667-.857 3.413-.857 3.413-2.308.029c-1.269.016-3.807 1.203-5.64 2.637-1.834 1.434-4.092 2.62-5.019 2.637-1.67.029-7.032 2.677-8.315 4.105-.367.408-2.617 1.531-5 2.495-2.383.964-4.333 2.315-4.333 3.003 0 .688-.572.897-1.27.466l-1.269-.784-6.303 6.039c-3.466 3.321-6.795 6.039-7.397 6.039-.602 0-1.095.9-1.095 2v2h-2.503c-1.377 0-3.273.927-4.214 2.06l-1.71 2.061-1.737-.667-1.738-.666-2.382 2.945c-1.31 1.62-4.092 3.707-6.182 4.638l-3.8 1.693-.665 2.542-.665 2.542-1.765-.677-1.766-.677-2.634 2.634c-1.449 1.448-4.479 3.039-6.734 3.534l-4.1.9-3.283 3.902-3.283 3.902h-3.324c-1.828 0-4.173.85-5.211 1.887-1.038 1.038-3.007 1.788-4.377 1.667l-2.491-.22-.518 2.666c-.284 1.467-1.762 4.017-3.283 5.667l-2.766 3h-7.055l-2.867 3.298c-1.577 1.814-4.386 3.679-6.24 4.145-1.856.465-3.373 1.306-3.373 1.868s-1.8 1.382-4 1.822l-4 .8v1.713c0 .942-1.156 2.434-2.568 3.316-1.412.882-2.83 2.976-3.152 4.654l-.584 3.05-.182-3c-.209-3.455-1.81-3.857-4.146-1.042-.893 1.077-2.017 1.906-2.496 1.842-.48-.064-1.472.04-2.206.227-.733.188-3.133.465-5.333.615-2.2.151-5.13.763-6.51 1.36l-2.51 1.086-2.344-1.464-2.345-1.464-2.479 1.878c-3.091 2.342-6.393 2.352-12.875.04zm1545.146-327.38c-11.525-9.529-12.21-10.945-13.268-27.424l-.69-10.728 1.395-8.605 1.394-8.606.41-50.667.41-50.667 1.476-3.778c.812-2.078 1.138-4.326.724-4.995-1.079-1.746-.695-27.54.803-53.893.708-12.467 1.5-31.742 1.76-42.833.26-11.092.94-20.922 1.51-21.845.57-.923 1.812-13.448 2.76-27.834.947-14.385 2.336-30.655 3.085-36.155.75-5.5 2.038-19.3 2.861-30.667.824-11.366 2.091-24.266 2.816-28.666.725-4.4 1.815-13.1 2.423-19.334.608-6.233 1.8-14.014 2.649-17.29s2.087-12.276 2.752-20c3.22-37.418 4.307-47.543 5.316-49.503.603-1.17 1.104-6.27 1.114-11.333.013-5.064.728-11.907 1.597-15.207 1.67-6.347 1.86-8.002 4.025-35.333.756-9.534 2.217-23.634 3.247-31.334 1.03-7.7 2.23-16.7 2.669-20 .438-3.3 1.03-8.814 1.315-12.253.285-3.44 1.174-7.479 1.975-8.976.802-1.497 1.386-4.983 1.298-7.746-.185-5.865 2.166-24 4.109-31.691.74-2.934 1.943-11.934 2.672-20 1.523-16.868 2.784-25.843 5.995-42.667 1.26-6.6 2.778-15.3 3.374-19.333l2.023-13.698c.516-3.5 1.46-6.685 2.095-7.078.636-.393 1.157-3.34 1.157-6.55 0-3.209.656-7.523 1.458-9.587.802-2.065 1.411-6.154 1.353-9.087-.06-2.934.756-7.434 1.81-10 2.494-6.076 6.21-24.123 6.778-32.919.246-3.805 1.295-8.605 2.33-10.666 2.295-4.568 5.324-18.914 5.72-27.082.159-3.3 1.263-9.3 2.452-13.333 1.19-4.034 2.763-10.934 3.496-15.334 2.04-12.233 4.703-25.108 5.655-27.333.471-1.1 1.153-4.4 1.516-7.333.363-2.934 2.12-11.634 3.904-19.334 1.784-7.7 3.944-17.6 4.8-22 1.555-7.993 5.88-27.855 7.986-36.666 3.342-13.983 5.409-24.581 5.413-27.754 0-1.969 1.132-5.427 2.509-7.685l2.503-4.105.973-9.895c.535-5.442 1.425-10.495 1.977-11.228.552-.733 1.055-2.233 1.118-3.333.202-3.507 3.84-16.745 5.405-19.67.83-1.552 1.51-4.53 1.51-6.619 0-2.088.947-7.078 2.105-11.087 1.157-4.01 3.511-13.591 5.23-21.291 1.72-7.7 3.848-16.1 4.728-18.667.88-2.566 2.074-7.966 2.654-12 1.681-11.704 5.1-26.91 7.276-32.36 1.104-2.765 2.034-7.565 2.066-10.667.032-3.101.986-8.04 2.119-10.973 1.133-2.933 3.06-9.295 4.282-14.137 1.222-4.842 2.911-9.642 3.755-10.666.844-1.025 2.834-8.163 4.422-15.863 1.589-7.7 3.698-16.7 4.689-20 .99-3.3 3.389-13.5 5.331-22.667 1.943-9.167 4.158-18.467 4.924-20.667 6.151-17.676 7.753-22.971 7.753-25.636 0-1.685 1.27-7.406 2.823-12.714 1.553-5.307 3.861-15.05 5.129-21.65 2.25-11.714 4.703-21.168 8.995-34.666 1.166-3.667 2.882-10.267 3.815-14.667 2.849-13.446 8.647-39.69 10.014-45.333.711-2.934 1.75-8.634 2.308-12.668.558-4.034 1.542-8.188 2.186-9.23.645-1.044 1.622-4.043 2.172-6.666s2.834-11.67 5.075-20.103c2.24-8.433 4.09-17.848 4.112-20.921.02-3.074.603-5.938 1.294-6.365.69-.427 1.626-3.612 2.079-7.078.453-3.467 1.987-8.768 3.41-11.782 1.423-3.014 2.588-7.351 2.588-9.64 0-2.288.964-6.57 2.143-9.517l2.144-5.358-.82-2.135c-.793-2.07.739-13.74 3.38-25.737 1.602-7.274 8.707-43.761 11.321-58.134 2.194-12.061 3.98-25.906 5.833-45.216.697-7.27 1.901-15.134 2.674-17.478.774-2.344 1.748-9.296 2.165-15.45 2.66-39.25 4.762-79.473 5.113-97.856.225-11.733.671-32.733.993-46.666.321-13.934.079-30.434-.54-36.667-.619-6.233-1.686-18.833-2.372-28-.686-9.167-2.207-23.867-3.38-32.667s-2.665-20.8-3.315-26.666c-.651-5.867-1.834-14.267-2.628-18.667-.795-4.4-1.775-11.9-2.178-16.667-.403-4.766-1.515-10.466-2.47-12.666-.956-2.2-2.12-8.2-2.586-13.334-1.09-11.989-7.984-41.182-10.376-43.933-.606-.697-1.101-2.355-1.101-3.685s-.554-3.46-1.231-4.733c-.678-1.273-2.1-5.915-3.161-10.315-1.062-4.4-3.578-13.1-5.593-19.334-2.014-6.233-4.469-14.225-5.454-17.76-.986-3.534-2.715-8.276-3.844-10.538-1.128-2.261-2.056-5.07-2.063-6.24-.013-1.17-1.488-5.128-3.292-8.795-1.803-3.667-3.317-7.867-3.362-9.333-.045-1.467-1.56-5.667-3.363-9.334-1.804-3.666-3.285-7.635-3.292-8.82-.013-1.184-1.212-3.679-2.679-5.543-1.466-1.865-2.666-4.61-2.666-6.102 0-1.49-.534-3.04-1.186-3.443-.652-.403-1.595-2.364-2.095-4.358-.8-3.186-5.434-14.012-8.867-20.716-.652-1.273-1.186-3.249-1.186-4.39 0-1.823-9.992-16.628-11.223-16.628-.26 0-2.19.897-4.291 1.992-2.1 1.096-5.734 1.996-8.074 2-2.34 0-4.66.666-5.158 1.47l-.903 1.461-3.704-.543-3.704-.544.602 1.567.601 1.567h-11.367l-1.877-1.878c-1.033-1.032-2.558-1.635-3.39-1.34l-1.512.539.327 4.1.326 4.1-2.648.841c-1.456.462-3.207.495-3.89.072-.684-.422-3.24.372-5.679 1.766-4.147 2.37-10.618 4.07-18.436 4.842-1.833.181-5.733 1.276-8.666 2.434-2.934 1.157-7.279 2.13-9.656 2.162l-4.322.06-1.665 2.666-1.666 2.666h-2.679c-1.473.001-4.402 1.484-6.509 3.296-2.106 1.811-4.986 3.66-6.398 4.109l-2.57.815-3.198-2.096-3.198-2.095-2.07.794c-1.138.437-2.07 1.388-2.07 2.113 0 .725-1.187 2.985-2.638 5.023l-2.638 3.705-7.05.585-7.049.584-6.312 3.153c-3.472 1.734-6.312 3.646-6.312 4.25 0 .603-1.707 1.096-3.794 1.096h-3.793l-2.413 2.667c-1.328 1.467-3.67 2.686-5.207 2.71-1.536.024-6.093 1.267-10.127 2.762-4.033 1.495-11.435 3.572-16.448 4.615-5.013 1.043-9.813 2.35-10.666 2.905-.854.554-6.052 1.767-11.552 2.694s-12.703 2.151-16.006 2.72c-3.304.567-6.904 1.59-8 2.273-1.097.682-4.994 1.621-8.661 2.086-8.295 1.051-19.14 3.755-22.667 5.65-1.466.788-8.666 1.956-16 2.595-7.333.639-16.333 1.457-20 1.817-9.08.893-54.728.869-61.333-.033-2.933-.4-8.183-1.103-11.667-1.562-3.483-.458-6.333-1.373-6.333-2.033 0-.66-.835-1.199-1.854-1.199-1.02 0-4.47-1.187-7.667-2.637s-7.72-2.65-10.05-2.667l-4.239-.029-2-2c-1.1-1.1-2.998-2-4.218-2-1.22 0-3.744-1.2-5.608-2.667l-3.39-2.666h-8.841l-1.067-1.734c-.586-.953-3.988-3.42-7.56-5.483-7.026-4.058-10.7-6.802-13.993-10.45-1.158-1.283-2.722-2.334-3.476-2.334-1.71-.001-14.037-11.877-14.037-13.524 0-.664-1.471-1.767-3.27-2.451l-3.269-1.243-2.131-4.121c-11.15-21.563-16.344-24.756-31.52-19.382-6.862 2.43-16.227 5.536-20.81 6.903-4.583 1.367-8.333 2.892-8.333 3.39 0 .499-3.45 1.621-7.667 2.495-4.217.874-8.85 2.417-10.297 3.428-1.446 1.012-3.546 1.842-4.666 1.845-2.402.01-16.396 5.572-18.94 7.532-.97.747-5.064 2.369-9.097 3.604-4.033 1.235-9.945 3.734-13.136 5.552-3.192 1.818-6.429 3.306-7.194 3.306-.764 0-5.953 2.154-11.53 4.788l-20.14 9.51c-5.5 2.597-10.9 5.2-12 5.784-1.1.584-8.3 4.167-16 7.962-7.7 3.794-17.6 8.723-22 10.954l-33.923 17.195c-14.258 7.227-26.708 13.14-27.667 13.14-.959 0-1.743.6-1.743 1.334 0 .733-.643 1.333-1.428 1.333-.785 0-7.535 2.926-15 6.503-33.787 16.187-51.42 24.164-53.416 24.164-.981 0-4.087 1.562-6.9 3.471-4.46 3.027-10.612 6.14-22.178 11.22-1.693.745-5.778 2.898-9.078 4.787-3.3 1.888-9 4.334-12.667 5.436-3.667 1.102-9.711 4.009-13.432 6.46-3.722 2.452-8.522 4.877-10.667 5.39-2.146.512-5.701 1.836-7.901 2.94-2.2 1.106-5.042 2.524-6.315 3.153-1.274.628-3.168 1.143-4.21 1.143-1.043 0-4.801 1.444-8.352 3.21a752.09 752.09 0 0 1-13.123 6.332c-3.667 1.717-6.967 3.499-7.333 3.96-.367.46-3.294 1.277-6.505 1.814-3.211.537-7.711 2.051-10 3.366-2.29 1.314-7.358 3.052-11.264 3.861-3.907.81-8.331 2.13-9.833 2.934-1.501.803-4.005 1.603-5.564 1.778-1.559.174-4.934.98-7.501 1.79-6.92 2.185-26.649 5.694-32 5.692-2.567 0-9.327.01-15.022.024l-10.356.025-2.941-2.06c-1.618-1.133-4.043-2.06-5.39-2.06h-2.448l.824-1.333.824-1.333h-5.038l-10.226-10.16c-5.625-5.59-10.227-10.773-10.227-11.52 0-.748-.859-2.026-1.909-2.84-2.195-1.703-3.532-8.781-2.444-12.943l.742-2.836 5.276.707 5.275.708 7.53-1.908c4.141-1.05 8.73-2.458 10.197-3.13 1.466-.672 5.816-2.212 9.666-3.424 3.85-1.21 7-2.727 7-3.368 0-.64 2.25-1.549 5-2.017 7.26-1.237 21.667-6.12 21.667-7.343 0-.576 1.75-1.432 3.889-1.902 2.138-.47 4.22-1.717 4.624-2.772.405-1.056 1.582-1.919 2.615-1.919 1.033 0 2.62-.894 3.528-1.987l1.649-1.987 3.209.805 3.209.805 9.638-4.948c5.301-2.721 10.586-5.79 11.744-6.818 1.158-1.028 2.74-1.87 3.514-1.87.775 0 3.128-.896 5.229-1.992 2.1-1.095 5.133-1.995 6.74-2 1.607 0 3.234-.515 3.617-1.134.846-1.369 17.243-9.54 19.144-9.54 2.122 0 23.598-10.832 24.095-12.153.245-.65 1.445-1.185 2.667-1.19 1.222 0 3.94-.904 6.041-2 2.1-1.095 4.915-1.99 6.255-1.99 1.34 0 2.806-.6 3.26-1.334.453-.734 1.922-1.334 3.264-1.334 1.342 0 6.547-2.4 11.567-5.333 5.02-2.933 9.747-5.333 10.505-5.333.758 0 3.467-1.413 6.02-3.14 2.554-1.726 7.044-3.959 9.977-4.963 2.933-1.003 6.764-2.89 8.513-4.194 1.749-1.303 4.323-2.37 5.72-2.37 2.624 0 11.257-3.997 17.1-7.918 1.834-1.23 7.534-3.948 12.667-6.04s10.233-4.504 11.333-5.36c3.477-2.707 12.093-7.349 13.638-7.349.817 0 2.433-.847 3.59-1.883 3.233-2.893 24.339-13.537 31.669-15.972 3.592-1.193 7.554-3.364 8.804-4.824s3.498-2.654 4.995-2.654h2.721l.768-2c.422-1.1 1.627-2 2.679-2 1.05 0 3.537-1.106 5.524-2.458 11.105-7.556 14.79-9.577 18.979-10.403 6.927-1.367 13.32-4.307 14.167-6.514.414-1.077 1.587-1.958 2.609-1.958 1.021 0 1.857-.622 1.857-1.381 0-.76 2.634-2.51 5.853-3.89 3.22-1.38 6.223-3.106 6.674-3.836.451-.73 3.367-1.725 6.48-2.21 6.099-.949 16.288-5.13 17.574-7.21.434-.703 2.998-2.007 5.696-2.898 2.699-.89 6.14-2.81 7.648-4.266 1.508-1.455 7.143-4.678 12.522-7.162 5.379-2.484 10.646-5.383 11.705-6.442 1.059-1.059 2.712-1.624 3.673-1.255l1.748.671 1.71-2.06c.94-1.134 2.523-2.061 3.517-2.061.993 0 2.788-1.5 3.99-3.334l2.184-3.333h2.368c1.302 0 5.283-2.443 8.846-5.43 3.564-2.986 11.04-7.748 16.616-10.582l10.137-5.153 1.421-3.751c.782-2.063 1.763-5.325 2.18-7.249l.758-3.497 3.869-1.603 3.869-1.603 9.148 2.643 9.148 2.643 14.666.803 14.667.804 6.255 3.216 6.255 3.217 2.833-.74c1.558-.408 4.143-.115 5.745.651 1.601.766 5.797 2.497 9.322 3.845 3.526 1.35 8.026 4.086 10 6.082 1.975 1.997 4.19 3.665 4.923 3.708 4.518.265 13.636 17.094 14.847 27.402l.83 7.057-2.753 4.455c-2.978 4.819-8.608 9.5-13.162 10.946-1.57.498-3.456 1.633-4.192 2.521l-1.338 1.615 2.217 2.712c2.579 3.152 7.552 5.315 16.863 7.332 3.655.792 7.555 2.207 8.667 3.145 1.112.937 5.621 2.44 10.021 3.338 4.4.898 9.8 2.104 12 2.679 2.2.574 10 1.222 17.334 1.44 7.333.216 15.133.46 17.333.54 9.208.339 47.08-2.18 52-3.458 2.933-.761 10.733-1.597 17.333-1.858l12-.473 12-2.747c6.6-1.51 13.8-3.286 16-3.946 2.2-.66 7-1.587 10.667-2.06 3.667-.473 8.467-1.378 10.667-2.011 2.2-.634 6.1-1.304 8.666-1.49 2.567-.185 5.267-.713 6-1.17.734-.46 3.424-.96 5.979-1.115 2.554-.155 5.175-.812 5.824-1.46l1.179-1.18 4.54.737 4.539.737 2.303-1.987 2.303-1.987 13.646-1.6c7.505-.88 16.377-2.53 19.716-3.668 3.34-1.137 7.233-1.764 8.653-1.393 3.288.86 13.646-1.43 14.781-3.267.475-.767 4.99-1.868 10.033-2.447 5.044-.579 10.935-1.746 13.09-2.594l3.92-1.542 8.747.046c11.311.06 18.908-1.115 21.416-3.313 2.714-2.377 9.137-4.852 13.998-5.393 2.2-.245 14.5-1.673 27.333-3.174 12.834-1.5 27.426-3.115 32.428-3.586l9.094-.856-.845-3.466c-.465-1.906-2.307-5.597-4.094-8.203-1.787-2.607-3.25-5.665-3.25-6.796 0-1.132-1.216-3.46-2.702-5.175-1.487-1.714-3.076-4.656-3.533-6.537-.456-1.881-1.64-4.604-2.63-6.05-.99-1.447-1.801-3.904-1.801-5.46s-1.535-4.573-3.411-6.703c-1.877-2.131-4.283-5.508-5.349-7.504-2.212-4.145-7.878-12.92-9.888-15.314-.744-.886-1.352-2.536-1.352-3.667 0-1.13-1.26-3.317-2.801-4.857-1.54-1.54-3.973-5.29-5.405-8.334-3.99-8.475-11.097-19.38-16.37-25.115-2.617-2.845-4.757-5.51-4.757-5.923 0-.412-1.183-2.41-2.628-4.438-1.445-2.03-2.339-3.978-1.986-4.33.352-.353-.866-2.266-2.706-4.252-1.841-1.986-3.347-4.036-3.347-4.555 0-.52-1.2-1.693-2.667-2.61-1.466-.915-2.666-2.285-2.666-3.044 0-1.38-9.586-14.959-13.025-18.452-1.004-1.02-2.834-3.42-4.067-5.333-1.233-1.914-3.316-4.68-4.629-6.146-1.313-1.467-4.078-5.282-6.146-8.477-3.59-5.55-11.088-14.852-16.804-20.85-1.468-1.541-3.82-4.573-5.227-6.738-2.688-4.137-10.304-12.638-18.02-20.112-2.522-2.442-4.709-5.202-4.86-6.132-.297-1.828-18.216-21.025-19.626-21.025-.47 0-6.722-5.739-13.893-12.753-16.874-16.508-18.427-17.913-19.797-17.913-.63 0-2.367-1.211-3.86-2.692-10.088-10.006-21.207-19.778-24.348-21.4-3.96-2.043-7.906-6.538-7.322-8.34.196-.605-.183-.766-.842-.359-.66.407-2.716-.598-4.571-2.234a172.94 172.94 0 0 0-6.801-5.642c-1.886-1.467-5.394-4.37-7.796-6.452-2.401-2.081-6.577-4.923-9.278-6.315-2.702-1.392-5.702-3.642-6.667-5-.965-1.357-3.43-2.883-5.476-3.39l-3.721-.921.8-1.294.8-1.295h-2.194c-2.482 0-13.964-7.86-13.964-9.559 0-.609-1.2-1.107-2.666-1.107-1.467 0-2.667-.6-2.667-1.334 0-.733-.626-1.333-1.39-1.333-.765 0-4.542-2.38-8.394-5.287-3.851-2.908-9.185-6.199-11.851-7.313-2.667-1.114-5.226-2.635-5.686-3.38-.46-.744-2.001-1.353-3.424-1.353-1.424 0-2.588-.613-2.588-1.362 0-1.323-1.144-1.913-10.403-5.374l-4.403-1.645.694-1.81.695-1.81h-3.31c-1.82 0-4.351-.569-5.625-1.265-1.273-.696-6.515-3.186-11.648-5.533-5.134-2.347-11.03-5.678-13.103-7.401-2.073-1.724-5.103-3.134-6.733-3.134s-3.534-.537-4.231-1.195c-1.203-1.135-4.648-2.62-22.209-9.57l-7.608-3.01.814-1.319.815-1.318-1.666 1.03-1.667 1.03-3.54-1.646a231.582 231.582 0 0 1-5.854-2.824c-1.274-.648-2.922-1.178-3.663-1.178-2.585 0-18.689-8.203-18.689-9.52v-1.326l-2.833.9-2.834.899.763-1.235.764-1.235-3.933.577-3.932.577-3.284-2.152c-1.806-1.183-4.431-2.151-5.834-2.151-1.403 0-3.32-.928-4.26-2.06l-1.71-2.062-1.803.692c-2.032.78-8.437-1.777-8.437-3.368 0-.57-1.05-1.038-2.333-1.039-1.284 0-5.614-.939-9.624-2.083-4.01-1.144-8.463-2.08-9.895-2.08-1.433 0-3.648-.945-4.924-2.099l-2.32-2.099-7.118-1.164c-3.916-.64-12.113-2.28-18.215-3.644l-11.096-2.48-1.089-1.762c-.598-.968-1.676-1.397-2.394-.953-1.554.96-16.126-.951-23.659-3.104-5.886-1.682-21.712-5.34-24.333-5.625-.917-.1-1.667-.668-1.667-1.262s-2.25-1.103-5-1.131c-12.177-.125-15.721-.493-16.52-1.72-.93-1.424-13.207-3.934-18.315-3.744-1.743.065-7.835-1.014-13.537-2.398l-10.368-2.517-5.935.67-5.934.668-2.69-1.44c-1.478-.79-7.615-1.85-13.638-2.351l-10.95-.914-4.74-3.217-4.74-3.217-6.522-.772c-3.587-.425-6.84-1.287-7.228-1.916-.389-.628-3.071-1.143-5.961-1.143s-5.255-.525-5.255-1.166c0-.642-1.805-1.528-4.01-1.969l-4.01-.802.343-1.698.344-1.698-2.001-.026c-1.101-.014-4.623-1.392-7.827-3.062-3.204-1.67-6.149-2.714-6.543-2.32-.395.395-1.515.056-2.49-.753l-1.772-1.471-2.058.79-2.057.79-1.522-3.34-1.52-3.339-3.05-.765c-1.679-.421-3.725-1.578-4.548-2.57-.823-.992-4.04-2.185-7.147-2.65l-5.65-.848-2.45-4.552c-1.349-2.503-3.257-4.551-4.242-4.551-.985 0-1.79-.881-1.79-1.958v-1.958l-1.828.701-1.828.702-1.839-1.93c-1.011-1.06-2.972-3.495-4.358-5.41-1.386-1.914-3.351-3.48-4.367-3.48-1.015 0-2.37-1.35-3.012-3-.641-1.65-3.027-4.763-5.3-6.917-2.274-2.153-4.135-4.91-4.135-6.126 0-2.269-5.294-8.004-5.382-5.83-.027.663-1.244-1.344-2.705-4.46-1.461-3.117-3.24-5.667-3.951-5.667H2008v-10.922l-2.333-3.95-2.332-3.948 3.332-2.608 3.333-2.609 6.667.85c3.666.469 8.055 1.377 9.753 2.019 1.698.642 4.582 1.168 6.41 1.168 1.828 0 5.936 1.458 9.129 3.24l5.805 3.242 9.48.934c5.215.514 9.756 1.377 10.09 1.918.335.542 2.871.586 5.637.098 2.766-.487 11.277-.73 18.914-.541l13.884.344 1.219 1.219 1.218 1.218 4.81-1.085 4.81-1.085 2.583 1.383 2.583 1.382 3.913-.782 3.912-.783 2.925 2.735 2.925 2.735 3.333-.894c5.187-1.39 16.086-.683 22.38 1.45 3.142 1.066 7.71 1.938 10.151 1.938 7.18 0 18.442 2.531 20.815 4.678l2.197 1.989 5.895.047c3.243.026 7.38.868 9.193 1.873l3.298 1.825 6.776-.699 6.775-.7 5.26 2.645c2.893 1.455 9.46 3.405 14.593 4.335 5.134.93 10.055 2.262 10.938 2.96.882.698 4.3 1.269 7.595 1.269h5.992l1.589 1.915 1.589 1.914 4.33-.812 4.329-.812.898 1.453c.494.8 1.805 1.453 2.914 1.453 1.11 0 2.916.9 4.016 2s4.357 2.376 7.238 2.836c2.882.461 5.239 1.283 5.239 1.828 0 .544 2.665 1.29 5.923 1.657l5.922.667 2.173 2.173c1.195 1.195 3.294 2.172 4.665 2.172s2.864.6 3.317 1.334c.453.733 2.631 1.333 4.84 1.333h4.017l2 2c1.1 1.1 3.478 2 5.285 2s4.614.812 6.238 1.804c1.624.992 6.53 2.618 10.9 3.614l7.947 1.81 2.517 2.516 2.517 2.517 3.203-.612c1.761-.337 3.203-.119 3.203.485 0 .603 2.33 1.724 5.178 2.49 2.848.768 5.921 2.29 6.83 3.386l1.652 1.99h7.579l6.38 3.53c3.51 1.94 7.564 4.34 9.01 5.332 1.447.993 4.653 1.805 7.125 1.805h4.495l.695 2.656.695 2.657 5.513 1.44c3.033.791 6.114 2.16 6.848 3.04 2.335 2.805 14.519 9.848 18.666 10.792 2.2.5 4.971 2.164 6.158 3.697l2.158 2.788 3.508.374c1.93.205 5.33 1.671 7.558 3.256 2.226 1.586 4.932 3.013 6.013 3.172 1.081.158 2.68 1.002 3.552 1.875.873.872 2.293 1.586 3.157 1.586.863 0 2.317.9 3.23 2 .913 1.1 3.086 2 4.83 2 1.743 0 3.17.6 3.17 1.333 0 .734 1.05 1.358 2.333 1.388 1.283.03 4.41 1.83 6.95 4 2.539 2.17 5.444 3.946 6.456 3.946 1.012 0 3.323 1.166 5.135 2.592l3.296 2.592 1.794-.689 1.795-.688.813 2.43c.448 1.336 3.202 3.9 6.12 5.697 2.92 1.798 5.308 3.748 5.308 4.334 0 .586 1.179 1.065 2.62 1.065h2.62l1.343 2.512 1.344 2.511 4.703.882c2.587.486 4.703 1.428 4.703 2.095 0 2.161 6.348 7.631 9.888 8.52 1.895.475 3.445 1.434 3.445 2.131 0 .697 3.404 3.444 7.564 6.105 4.16 2.661 9.812 7.18 12.562 10.041 2.75 2.862 5.801 5.203 6.782 5.203.982 0 2.534 1.2 3.45 2.667.916 1.466 2.599 2.666 3.74 2.666 1.14 0 3.561 1.767 5.378 3.926 1.817 2.16 5.528 5.276 8.247 6.926 5.467 3.317 9.447 6.625 14.619 12.148 1.888 2.017 3.887 3.667 4.443 3.667.556 0 2.767 1.65 4.913 3.667 2.147 2.016 7.401 6.666 11.676 10.333 12.56 10.772 23.293 21.845 23.293 24.033v2.033l3.038 1.155c1.67.635 5.973 4.52 9.561 8.634 3.588 4.113 7.228 7.478 8.09 7.478 2.143 0 5.978 4.425 5.978 6.899 0 2.371 4.138 6.435 6.553 6.435 2.28 0 10.78 8.157 10.78 10.346 0 .968 2.25 4.035 5 6.816 6.978 7.057 12.333 13.56 12.333 14.975 0 .658.626 1.196 1.391 1.196 1.668 0 13.182 11.533 20.61 20.643 2.933 3.598 6.233 7.485 7.333 8.638 1.1 1.153 3.075 3.753 4.388 5.779l2.39 3.682-.861 1.392-.861 1.393 7.653 7.236c4.209 3.98 8.171 7.237 8.805 7.237.634 0 1.152 1.519 1.152 3.375v3.375l1.95.748c1.072.412 2.317 1.91 2.767 3.328.703 2.213 5.85 9.025 13.189 17.452 1.091 1.253 3.193 4.65 4.672 7.548 1.478 2.898 4.503 7.256 6.722 9.685 2.218 2.43 4.034 5.178 4.034 6.108 0 .93 2.18 4.546 4.843 8.036 2.664 3.49 6.623 9.498 8.798 13.352 2.175 3.854 4.72 7.454 5.655 8 1.47.859 7.052 10.242 11.886 19.983.817 1.644 1.919 2.994 2.45 3 1.552.017 5.221 7.962 4.338 9.392l-.806 1.304 2.134.818c1.173.45 3.095 2.696 4.27 4.991 1.175 2.294 2.503 4.472 2.951 4.838.448.367 1.839 2.767 3.092 5.334 1.253 2.566 3.18 6.166 4.282 8 1.102 1.833 3.463 6.661 5.246 10.728 1.784 4.068 4.807 9.255 6.719 11.526 1.911 2.272 3.475 4.72 3.475 5.442 0 .72.828 1.997 1.84 2.837 1.01.84 2.17 3.163 2.574 5.163.405 2 1.896 4.875 3.314 6.388 3.809 4.063 5.603 7.941 5.627 12.161l.02 3.755 3.748 4.25 3.748 4.249 8.564.248c4.71.137 11.565-.49 15.231-1.392l6.667-1.642 21-.19 21-.19v1c0 .55 1.293 1 2.873 1h2.874l-2.383-2.633-2.383-2.633 8.51.483 8.509.484-5.333-.984-5.334-.983 4.891-.2c2.69-.11 5.84.164 7 .609l2.11.81v5.131l-2.334.71c-5.59 1.703-14.306 6.926-19.443 11.651l-5.557 5.112-4.667-.778c-2.566-.427-6.11-1.172-7.875-1.655l-3.208-.877.954 1.543.953 1.543h-2.078c-1.143 0-2.079.6-2.079 1.334 0 .733-.626 1.333-1.391 1.333-.766 0-3.01 1.5-4.987 3.333-1.977 1.834-4.65 3.334-5.942 3.334h-2.347v-5.334h-4.066l-1.16 3c-.64 1.65-2.724 4.8-4.633 7l-3.47 4v12.157l1.957 2.589c1.077 1.423 1.99 3.488 2.03 4.588.04 1.1 1.245 3.5 2.679 5.333 1.434 1.833 2.62 4.348 2.637 5.588.016 1.24 2.422 6.94 5.346 12.666 2.924 5.727 5.324 11.565 5.333 12.974.013 1.41.832 3.51 1.828 4.667.997 1.158 2.454 3.905 3.239 6.105.785 2.2 3.3 9.1 5.589 15.333 2.289 6.234 5.094 14.034 6.234 17.334 1.14 3.3 2.806 6.9 3.702 8 .897 1.1 2.697 5.9 4 10.666 1.303 4.767 3.128 10.767 4.056 13.334 3.294 9.115 4.703 14.227 4.703 17.06 0 1.578 1.8 7.402 4 12.94 2.2 5.538 4 11.203 4 12.59 0 1.386.491 2.72 1.092 2.965.601.245 2.024 4.045 3.162 8.445s3.944 14.6 6.235 22.666c3.98 14.012 4.784 16.948 8.072 29.488.791 3.019 1.439 6.993 1.439 8.833 0 1.84.868 5.806 1.93 8.815 1.062 3.01 2.219 7.735 2.571 10.501.353 2.767 1.613 9.23 2.8 14.363 1.187 5.134 2.735 13.834 3.44 19.334.706 5.5 1.878 13.6 2.606 18 .727 4.4 1.92 14.3 2.65 22 .73 7.7 1.929 17.649 2.665 22.109.736 4.46 1.338 11.064 1.338 14.675 0 3.612.524 8.396 1.166 10.633.641 2.236 1.925 26.532 2.854 53.991l1.687 49.925-1.42 5.026-1.42 5.025 1.047 3.65 1.046 3.65-2.147 34.283-2.147 34.283-2.167 2.161-2.167 2.16 1.833 6.091 1.834 6.091-1.487 16.79c-2.704 30.542-5.254 51.955-7.795 65.457-.76 4.033-2.304 13.933-3.433 22-1.128 8.066-2.656 16.93-3.395 19.697-.738 2.767-1.05 5.504-.692 6.083.358.578-.804 6.714-2.58 13.636-1.777 6.92-3.243 14.198-3.257 16.172-.015 1.973-.627 3.958-1.36 4.412-.734.453-1.334 3.08-1.334 5.84 0 2.758-1.242 10.672-2.76 17.587-1.518 6.915-3.628 17.073-4.688 22.573-3.657 18.972-6.64 31.866-7.595 32.82-.526.527-.957 3.615-.957 6.863v5.905l-1.882 3.54c-1.036 1.946-2.901 8.938-4.146 15.538-1.244 6.6-2.746 14.1-3.337 16.667-6.177 26.815-11.448 48.877-13.377 56-1.292 4.767-3.662 14.067-5.268 20.667-1.605 6.6-3.432 14.1-4.06 16.666-3.063 12.527-3.883 15.988-5.748 24.264-1.107 4.912-2.651 10.122-3.43 11.58-.78 1.456-1.418 4.067-1.418 5.802 0 1.735-.687 3.841-1.526 4.68-.84.84-1.774 4.11-2.076 7.267-.302 3.157-2.025 10.24-3.829 15.74-1.803 5.5-3.83 13.9-4.504 18.667-1.863 13.166-3.632 20.083-6.79 26.542l-2.872 5.875-.311 8.125c-.3 7.83-.996 11.008-3.42 15.608-.623 1.183-1.852 5.806-2.73 10.273l-1.599 8.123-2.505 2.267-2.505 2.267v3.767c0 2.071-.817 6.028-1.816 8.793-3.025 8.374-7.305 23.37-8.284 29.027-2.24 12.944-7.135 32.335-9.087 36l-2.13 4-.013 7.821-.013 7.821-2.187 6.846c-2.857 8.944-3.925 10.916-5.689 10.512-1.687-.386-1.994 3.178-.36 4.187l1.097.678-2.47 13.068c-1.357 7.187-3.425 16.273-4.593 20.191-1.168 3.919-2.919 12.019-3.89 18-2.564 15.803-4.477 23.507-7.358 29.63-1.402 2.982-2.55 6.298-2.55 7.37s-1.01 3.39-2.242 5.15l-2.243 3.202.332 6.244.331 6.245-2.012 2.011-2.011 2.012-4.69 23.84c-2.578 13.111-5.398 28.899-6.266 35.083l-1.577 11.244-2.424 4.109-2.424 4.108-1.307 11.314c-.719 6.223-1.97 14.914-2.78 19.314-.81 4.4-2.678 14.6-4.15 22.667-1.473 8.066-3.607 17.066-4.744 20-2.23 5.755-4.163 16.59-5.237 29.333-.371 4.4-1.216 9.5-1.88 11.333-3.515 9.726-5.825 20.257-7.98 36.375-.665 4.972-1.61 10.305-2.1 11.849-.49 1.545-1.395 7.376-2.01 12.96-.615 5.582-2.041 14.65-3.168 20.15-1.128 5.5-2.848 14.2-3.824 19.333l-1.773 9.333 1.279 4.223 1.28 4.222-2.19 6.695c-1.205 3.682-2.19 9.132-2.19 12.11v5.417h-3.018l.775 5.667.775 5.666-1.827 14c-1.004 7.7-2.499 22.4-3.32 32.667a4564.463 4564.463 0 0 1-2.802 33.333c-.72 8.067-1.558 20.067-1.864 26.667-.916 19.779-1.747 29.762-2.59 31.126-.44.71-1.408 11.997-2.153 25.082-.745 13.086-1.963 27.992-2.705 33.125-.743 5.134-1.952 15.334-2.688 22.667a6859.593 6859.593 0 0 1-2.597 25.333c-.692 6.6-1.658 16.65-2.146 22.334-.488 5.683-1.348 10.333-1.91 10.333-.564 0-1.403 5.25-1.867 11.667-.464 6.416-1.8 20.366-2.971 31-1.17 10.633-2.311 21.733-2.535 24.666-.225 2.934-.733 7.434-1.131 10-.828 5.346-2.932 28.034-3.153 34-.081 2.2-.489 10-.904 17.334-.416 7.333-.73 16.515-.7 20.405.031 3.89-.883 12.088-2.032 18.219l-2.089 11.146.345 11.115c.443 14.328-1.478 45.137-2.992 47.966-.643 1.201-1.554 9.002-2.025 17.333l-.856 15.15-1.64 2.666c-.9 1.466-1.963 6.302-2.36 10.744l-.72 8.079-3.07 6.588c-1.689 3.624-2.927 7.585-2.753 8.804.175 1.218-.277 2.582-1.003 3.031-1.242.768-3.661 12.205-3.058 14.46 2.98 11.15-24.53 27.212-33.666 19.657zm-980.454-338.935c-.56-.559-7.304-1.33-14.99-1.713-14.985-.747-21.114-1.669-23.424-3.521-.8-.641-3.8-1.19-6.667-1.221-2.868-.031-9.114-.247-13.881-.48l-8.667-.426-7.333-2.962c-4.033-1.63-7.903-3.52-8.6-4.2-.697-.682-3.247-1.239-5.667-1.239s-4.4-.476-4.4-1.058c0-.582-3.568-1.85-7.93-2.817l-7.93-1.76-2.276-2.516c-1.253-1.383-3.264-2.515-4.47-2.515-1.207 0-2.863-.67-3.681-1.488-1.56-1.559-4.623-3.39-12.343-7.375-4.696-2.424-20.036-17.096-20.036-19.164 0-.62-1.2-1.508-2.667-1.973-1.467-.466-2.667-1.47-2.667-2.231 0-1.32-4.416-7.37-8.673-11.881-1.097-1.162-1.993-3.009-1.993-4.105 0-1.096-1.788-4.692-3.973-7.99-2.186-3.3-5.492-10.034-7.348-14.965-3.328-8.84-6.364-14.473-9.662-17.923l-1.684-1.762v-4.589c0-4.412-4.231-21.692-6.02-24.587-.477-.771-.12-4.315.792-7.875l1.658-6.472 5.452-2.864 5.451-2.864-6.666.906c-3.667.498-6.967 1.272-7.334 1.72-.8.977-3.609 1.473-13.31 2.346-4.022.362-8.005 1.234-8.851 1.936-1.323 1.098-16.967 2.807-25.172 2.75-9.232-.064-38.422-6.878-45.444-10.607-6.264-3.327-20.356-9.44-25.223-10.943-2.933-.905-6.833-3.01-8.666-4.676-1.834-1.667-5.734-4.251-8.667-5.743-2.933-1.491-7.433-4.707-10-7.146-2.567-2.44-6.778-5.505-9.359-6.813-5.853-2.966-31.974-28.205-31.974-30.895 0-.625-1.514-4.336-3.364-8.246l-3.363-7.11.8-3.192c.441-1.755 2.848-5.175 5.35-7.6l4.548-4.408 11.68-1.697c16.37-2.378 20.349-3.275 20.349-4.584 0-.627.856-.811 1.902-.41l1.903.73 6.267-2.772 6.267-2.772h11.334l1.685-2.03 1.685-2.03 2.557.812 2.556.811 4.668-2.215c2.568-1.218 6.73-2.32 9.25-2.448 2.519-.128 4.583-.612 4.586-1.075.013-1.391 11.648-3.878 13.974-2.986l2.16.83 1.737-2.375 1.736-2.374 7.533-.625 7.533-.625v-2.68l6.788.9 6.789.901 1.545-1.214c.85-.667 6-1.609 11.445-2.093 5.446-.483 10.63-1.483 11.519-2.221l1.617-1.343 5.416 1.217c2.979.67 5.645.988 5.925.708.551-.551 21.763-2.14 28.29-2.118 2.2.013 7 .58 10.666 1.274 3.667.694 10.198 1.203 14.513 1.13l7.847-.13 1.082-2c.594-1.1 1.441-4.253 1.881-7.006l.8-5.005 2.938-2.807c1.617-1.544 5.339-3.934 8.272-5.311 2.934-1.378 6.518-3.262 7.966-4.188 1.447-.926 6.14-3.933 10.427-6.683 4.288-2.75 8.58-5 9.538-5 .959 0 2.458-.862 3.332-1.914.873-1.053 3.347-2.301 5.496-2.773 2.15-.472 3.908-1.41 3.908-2.086 0-.675 1.119-1.227 2.487-1.227s4.012-1.2 5.877-2.667c1.864-1.467 4.059-2.667 4.876-2.667.817 0 6.135-2.337 11.818-5.194l10.332-5.195 7.972-1.353c11.608-1.969 21.905-5.118 24.544-7.506l2.304-2.085h4.19c5.483 0 24.201-3.826 27.549-5.631 1.439-.776 6.2-1.622 10.582-1.88l7.967-.47.89-1.44.89-1.441 7.194-.645c3.957-.354 10.195-1.474 13.861-2.488 8.596-2.377 20.803-3.5 36.667-3.374l12.667.101 7.333-1.597c4.033-.878 10.333-1.77 14-1.98 3.667-.212 12.067-.929 18.667-1.594l12-1.209 2.666.947 2.667.946 11.333-1.176c10.324-1.072 61.499-2.605 98-2.936 8.067-.073 17.004.4 19.86 1.052l5.192 1.185-1.065-1.724-1.065-1.724 1.264.781c.695.43 14.438 1.135 30.54 1.566 16.1.432 32.563 1.305 36.583 1.941l7.309 1.157 2.798-1.064 2.798-1.064 12.56 2.688c11.04 2.363 26.426 4.854 44.893 7.268 3.117.407 5.667 1.215 5.667 1.795 0 1.564 5.872 2.76 17.082 3.478l9.975.64 7.02 3.32 7.02 3.321 4.565 4.96c2.512 2.727 7.343 6.38 10.736 8.118 3.394 1.737 7.052 4.504 8.13 6.148l1.958 2.99 3.757.787 3.757.788 7 6.78c3.85 3.729 7 7.251 7 7.827 0 .577 2.927 4.184 6.506 8.015l6.507 6.967 4.791 9.602 4.792 9.603 1.793 8.667 1.793 8.666-.888 9.591-.888 9.59-2.273 3.47c-1.25 1.907-3.892 4.096-5.87 4.863l-3.597 1.394-7.045-.804c-7.587-.866-12.288-3.069-12.288-5.758v-1.68h-2.504c-3.523 0-12.163-3.777-12.163-5.317 0-1.845-10.306-6.22-17.333-7.358-3.3-.534-9.833-2.701-14.518-4.815l-8.518-3.842h-4.5c-2.475 0-5.542-.566-6.816-1.257-1.273-.691-6.759-2.196-12.19-3.344-5.432-1.147-10.776-2.832-11.876-3.743-1.1-.911-3.855-1.74-6.124-1.841-10.582-.474-32.74-2.96-34.15-3.832-2.164-1.336-16.049-3.314-27.308-3.889-5.133-.262-12.633-.821-16.667-1.242-4.033-.422-16.033-1.298-26.666-1.949-10.634-.65-21.43-1.87-23.992-2.71-2.561-.84-7.846-1.527-11.743-1.527-3.896 0-9.6-.593-12.675-1.319-5.233-1.235-33.353-3.825-52.924-4.876-4.766-.255-17.366-1.084-28-1.842-10.633-.757-26.683-1.416-35.666-1.463l-16.333-.087-.749-1.212-.749-1.21-3.478.872c-1.914.48-8.627 1.068-14.919 1.306-23.375.883-36.657 1.757-38.685 2.547-1.148.447-7.787 1.142-14.754 1.545l-12.667.733-3.888 1.985-3.887 1.985-9.202.44c-5.061.243-12.012 1.33-15.446 2.415-3.434 1.085-9.843 2.38-14.243 2.875-4.4.497-11.47 2.31-15.713 4.03-4.242 1.72-10.44 3.535-13.772 4.035l-6.06.909-.704 1.833-.703 1.832h-4.497c-5.58 0-14.764 3.562-15.74 6.104l-.728 1.896 2.958.013c7.631.024 32.17 10.374 42.42 17.89l6.127 4.495 2.897 5.558 2.897 5.557.813 10.246.812 10.245 2.496 4.157 2.497 4.158v9.4l-1.81.694c-.997.382-2.183 2.553-2.637 4.824l-.826 4.13-3.697 1.646c-2.033.905-4.826 3.044-6.207 4.753l-2.509 3.106-6.364-.875-6.364-.875-1.298 2.32-1.299 2.32-15.828-.097-15.828-.097-1.518 1.258-1.518 1.26-5.816-1.341c-3.198-.738-7.691-1.356-9.985-1.374l-4.17-.032-1.578 1.902c-2.149 2.589-14.222 6.07-20.748 5.982-6.44-.087-18.262 1.754-30 4.67-4.767 1.185-14.967 3.027-22.667 4.095-12.98 1.8-16.673 2.412-25.193 4.172l-3.193.66 1.526 1.526c.84.84 1.527 2.62 1.527 3.955v2.429l3.666 1.582c2.017.87 9.326 7.157 16.243 13.97 6.918 6.815 13.392 12.39 14.388 12.39.996 0 3.436 1.14 5.423 2.534l3.613 2.534 7.97.847 7.97.847 4.422 2.609 4.422 2.608 13.608.185c7.484.102 15.496.805 17.805 1.563l4.196 1.377 4.09-1.694 4.09-1.694 2.142 2.142 2.142 2.142 4.238.265c2.331.145 6.938.424 10.238.62s14.364.416 24.587.49l18.587.136 2.498 1.337 2.499 1.337 1.957-1.624 1.957-1.624 12.29.778 12.292.777 5.917-1.112 5.917-1.113 3.218 2.108 3.217 2.108 4.044-1.526 4.044-1.526 2.4 1.285 2.402 1.285 3.087-1.083c1.698-.596 6.987-.987 11.754-.869 4.767.117 9.613-.26 10.769-.84 1.156-.58 12.556-1.772 25.333-2.649s23.531-2.052 23.898-2.613c.874-1.336 20.899-2.159 22.148-.91 1.44 1.44 5.852 1.162 5.852-.37v-1.333h7.111c3.911 0 7.562-.45 8.114-1 .552-.55 3.202-1.087 5.889-1.192 2.687-.106 7.586-.83 10.886-1.609 3.3-.78 9.171-1.443 13.047-1.474l7.047-.06 2.953-1.863c1.624-1.025 6.046-2.174 9.827-2.552 3.78-.379 8.005-1.294 9.387-2.034 1.383-.74 8.102-1.67 14.932-2.067l12.418-.72 2.016-1.674c3.424-2.841 11.448-5.491 17.04-5.627l5.333-.129 1.036-1.613c.57-.887 3.27-1.954 6-2.371 15.336-2.343 27.629-5.442 30.23-7.621.697-.584 2.703-1.062 4.457-1.062s4.715-1.2 6.58-2.666l3.39-2.667h3.538c1.946 0 5.892-1.2 8.769-2.667l5.23-2.666h13.585l4.593-3.426c4.986-3.72 13.314-7.63 14.252-6.692.32.32 3.379-.265 6.795-1.302s7.354-1.891 8.75-1.9c3.048-.016 16.795-6.349 16.795-7.736 0-.538 3.9-2.095 8.667-3.46 4.766-1.365 8.666-3.007 8.666-3.65 0-.642 1.5-1.168 3.334-1.168 1.833 0 3.333-.6 3.333-1.333v-1.333l3.667-.02c2.016-.013 5.166-.902 7-1.98 1.833-1.077 4.383-2.338 5.666-2.802 2.862-1.034 3.01-3.644.334-5.865-1.1-.913-2-2.308-2-3.1 0-.792-1.868-3.367-4.151-5.723l-4.151-4.283-.596-5.78-.597-5.781 6.087-5.889 6.086-5.889 3.095 1.657c1.703.91 6.135 4.57 9.849 8.132l6.753 6.476 9.146 4.581c5.03 2.52 10.645 5.023 12.479 5.562 3.156.928 5.802 2.031 20 8.344 3.3 1.467 7.95 3.096 10.333 3.62 2.384.523 4.333 1.503 4.333 2.179 0 .675 1.12 1.227 2.487 1.227 1.368 0 4.012 1.2 5.877 2.667 1.865 1.466 3.823 2.666 4.353 2.666.53 0 5.535 3.083 11.123 6.851l10.16 6.852 6 7.44c3.3 4.092 8.587 11.36 11.748 16.149 3.161 4.79 7.316 10.35 9.233 12.358l3.486 3.65 1.043 15.544 1.043 15.545-1.274 2.38c-.7 1.308-3.074 3.662-5.276 5.23l-4.003 2.85v6.305l-3 .88c-4.002 1.174-14.214 5.939-18.218 8.5l-3.218 2.059-3.76-.395-3.76-.394-5.912 4.245-5.911 4.245-1.414-.874c-.778-.48-4.578.096-8.444 1.28-13.479 4.132-21.473 6.041-27.564 6.585-3.372.3-10.032 1.533-14.799 2.74-4.766 1.205-10.766 2.512-13.333 2.903s-5.567 1.47-6.667 2.396c-2.268 1.912-23.43 6.016-31 6.012-2.75 0-5 .478-5 1.065s-2.716 2.387-6.035 4l-6.036 2.933h-4.445c-2.445 0-7.215.38-10.6.843l-6.156.844.715 1.156c.777 1.257-.402 1.452-11.443 1.887-4.033.158-11.233 1.288-16 2.51-4.766 1.22-10.404 2.572-12.527 3.003-2.124.43-5.345 1.553-7.158 2.494l-3.298 1.71-4.175-.662-4.175-.662-3.194 3.005-3.194 3.004-4.806.3c-8.352.524-16.712 2.254-19.473 4.03-1.466.944-6.566 2.076-11.333 2.516-12.244 1.129-25.404 2.918-39.333 5.347-6.6 1.15-14.7 2.377-18 2.726-3.3.349-7.8 1.187-10 1.862s-11.5 1.923-20.667 2.774c-9.167.85-17.567 1.89-18.667 2.311-1.1.42-5.3.905-9.333 1.076-17.107.725-44.899 3.42-47.743 4.63l-3.076 1.308-2.415-1.293c-1.329-.71-2.791-.916-3.25-.457-.46.46-4.589 1.03-9.176 1.268-4.587.239-14.64.805-22.34 1.26-7.7.453-17.6.954-22 1.112-4.4.158-9.211.691-10.692 1.184l-2.692.898-9.805-1.869-9.805-1.868-8.836 1.27-8.837 1.27-6.272-.844-6.271-.843-1.729 1.07c-2.23 1.381-16.769 1.589-18.1.258zm-53.412-533.15-9.783-1.025-2.56-2.748-2.56-2.748-1.727.663c-2.075.797-14.253-4.38-14.253-6.06 0-.65-1.228-1.57-2.728-2.046-3.052-.97-4.804-2.401-17.499-14.307a4239.916 4239.916 0 0 0-14.647-13.674c-3.166-2.933-8.28-8.633-11.365-12.667-6.459-8.443-18.51-21.128-22.687-23.881-1.57-1.035-3.954-4.144-5.298-6.909l-2.443-5.027-3.759-2.221c-2.067-1.222-3.458-2.522-3.09-2.89 1.245-1.245-4.968-11.712-9.59-16.155l-4.594-4.417 1.476-1.476 1.477-1.477 5.04 1.596c8.117 2.57 29.565 7.01 40.255 8.332 5.435.672 10.535 1.737 11.333 2.367.799.63 5.352 1.565 10.119 2.08 4.766.513 14.645 2.108 21.953 3.543 7.307 1.436 15.407 2.54 18 2.456 2.592-.084 6.213.267 8.047.78 1.833.514 7.397 1.235 12.364 1.602l9.031.668 1.896 2.707 1.895 2.706 7.818-.709 7.819-.709 6.182-2.816c3.4-1.549 7.133-2.816 8.297-2.816 1.163 0 2.46-.9 2.882-2l.768-2h6.588l14.23-8.298c7.826-4.564 16.232-10.114 18.68-12.333 2.447-2.22 5.497-4.636 6.777-5.37 4.077-2.334 9.44-7.008 9.44-8.227 0-.647 3.6-4.995 8-9.662 4.4-4.668 8-9.025 8-9.684 0-.66 1.558-2.825 3.464-4.812 13.5-14.082 21.06-22.765 22.85-26.242 1.142-2.221 4.089-6.397 6.548-9.279 2.459-2.882 4.47-5.939 4.47-6.793 0-.855 1.2-2.64 2.667-3.967 1.467-1.327 2.667-3.387 2.667-4.577s.934-3.496 2.076-5.126c1.141-1.63 1.636-2.964 1.1-2.964-.536 0 .4-1.463 2.082-3.252 2.974-3.166 5.682-7.705 12.778-21.414 1.897-3.667 4.514-8.467 5.814-10.667 1.3-2.2 3.466-7 4.813-10.667 1.346-3.666 3.483-7.866 4.748-9.333 2.34-2.713 6.78-11.975 8.62-17.983.559-1.823 2.391-5.423 4.072-8 1.68-2.576 4.061-7.384 5.29-10.684 3.95-10.605 6.992-16.773 9.159-18.571 1.163-.965 2.115-2.341 2.115-3.057 0-.716.824-3.193 1.832-5.503 1.008-2.311 2.572-6.902 3.476-10.202.904-3.3 2.779-8.363 4.167-11.25 1.389-2.888 2.527-6.188 2.53-7.334 0-1.145 1.294-4.183 2.87-6.75 1.577-2.566 3.098-6.691 3.38-9.167.28-2.476 1.729-6.976 3.217-10s3.817-10.299 5.176-16.166c1.358-5.866 4.382-15.766 6.72-22 2.338-6.233 4.739-14.514 5.335-18.402.597-3.889 1.64-7.789 2.317-8.667 1.548-2.007 3.92-11.547 5.04-20.264.47-3.667 1.323-7.267 1.894-8 .57-.733 1.455-5.728 1.965-11.1s1.866-13.772 3.012-18.667c1.145-4.895 2.357-14.622 2.692-21.617l.609-12.717-2.107-25.207-2.107-25.207-1.342-1.342c-.739-.739-1.343-2.977-1.343-4.974 0-9.95-8.15-41.243-12.023-46.167-1.454-1.849-2.644-4.758-2.644-6.466 0-1.707-1.2-6.148-2.666-9.87-1.467-3.72-2.667-7.745-2.667-8.944 0-1.198-.788-3.126-1.752-4.284-.963-1.157-3.431-6.605-5.484-12.105-5.899-15.807-7.94-20.55-9.58-22.268-.841-.88-1.943-3.88-2.45-6.666-.506-2.786-1.73-7.493-2.719-10.46-1.74-5.219-2.629-7.387-8.573-20.924-1.527-3.476-2.794-7.376-2.818-8.667-.023-1.291-.923-3.513-2-4.936-1.076-1.424-1.957-3.528-1.957-4.677 0-1.15-1.5-4.907-3.334-8.351-1.833-3.444-3.333-7.496-3.333-9.004 0-1.508-1.166-5.286-2.59-8.395-1.426-3.108-3.574-8.952-4.774-12.985-1.201-4.033-3.08-10.033-4.177-13.333-1.097-3.3-1.979-7.142-1.96-8.538.018-1.396-.837-3.78-1.9-5.297s-1.954-4.575-1.98-6.795c-.027-2.22-.904-5.537-1.952-7.37-1.048-1.834-1.927-5.157-1.953-7.385-.025-2.228-1.29-6.428-2.808-9.333-1.518-2.906-3.272-8.726-3.897-12.936-.625-4.209-2.638-10.827-4.473-14.707l-3.338-7.054-.862-8.626c-.475-4.744-1.43-9.826-2.123-11.293-1.816-3.842-6.81-28.38-7.056-34.666-.115-2.934-.888-6.534-1.718-8-.83-1.467-1.81-4.583-2.179-6.925-.369-2.342-1.628-5.626-2.799-7.297l-2.128-3.038v-4.868c0-2.678-1.248-9.594-2.774-15.37s-3.312-13.495-3.97-17.154c-.657-3.658-1.88-8.304-2.717-10.324-.837-2.02-1.206-4.878-.82-6.352.385-1.474-.1-5.528-1.075-9.01-8.068-28.761-11.31-42.926-11.31-49.415 0-2.776-.663-5.71-1.472-6.52-1.913-1.912-5.07-15.739-6.485-28.394-.614-5.5-2.072-18.601-3.238-29.114-1.167-10.513-2.456-19.655-2.865-20.316-.974-1.576.717-16.398 2.132-18.687l1.098-1.777 2.685 2.43c2.726 2.467 12.907 18.66 15.628 24.855.82 1.865 2.32 4.276 3.336 5.358 2.894 3.081 6.12 9.512 7.12 14.196.504 2.353 2.373 7.3 4.154 10.994 1.782 3.693 3.24 7.586 3.24 8.65 0 1.066 1.5 4.758 3.333 8.206 1.834 3.448 3.334 7.345 3.334 8.66 0 1.314 2.32 7.375 5.155 13.467 2.836 6.093 6.177 13.478 7.424 16.411 1.247 2.934 2.882 6.596 3.632 8.139.75 1.543 1.167 4.31.926 6.148s.222 4.176 1.029 5.195c1.734 2.19 7.027 18.253 8.517 25.852.575 2.933 2.375 9.533 3.998 14.666 1.624 5.134 3.492 13.787 4.152 19.23.66 5.442 2.092 11.684 3.183 13.87 1.091 2.188 1.984 5.964 1.984 8.392 0 2.428.836 6.986 1.858 10.129 1.022 3.142 2.227 9.013 2.679 13.046 2.823 25.223 12.492 76.693 17.58 93.584 1.035 3.438 1.883 8.052 1.883 10.255 0 2.202.528 4.33 1.173 4.729 1.472.91 5.398 12.787 6.856 20.747 1.537 8.384 4.237 17.89 5.307 18.685.494.367 1.262 1.867 1.708 3.333 2.18 7.172 7.252 20.741 8.052 21.541.497.497.9 1.854.896 3.015-.013 2.923 13.177 36.542 17.426 44.426.687 1.274 1.248 3.404 1.248 4.734s.52 2.988 1.154 3.684c.635.697 2.812 5.767 4.84 11.267 2.026 5.5 4.471 11.8 5.434 14 .962 2.2 2.448 6.7 3.301 10 .854 3.3 3.26 9.3 5.348 13.333 5.76 11.13 10.311 21.55 11.354 26 .515 2.2 1.38 4.6 1.923 5.334.542.733 2.02 5.51 3.283 10.615 1.263 5.106 3.736 12.268 5.496 15.917 1.76 3.648 3.2 8 3.2 9.67 0 1.671.948 5.827 2.105 9.236 1.157 3.409 2.617 8.98 3.243 12.38 2.318 12.586 5.4 27.67 6.708 32.848 1.776 7.024 4.354 65.937 3.296 75.334-.454 4.033-1.413 14.833-2.132 24-1.907 24.334-4.059 35.453-11.225 58-4.077 12.827-4.526 14.727-5.428 22.993l-.91 8.328-2.495 2.876c-1.372 1.583-2.492 3.836-2.488 5.007 0 1.17-.85 4.829-1.898 8.129-1.047 3.3-3.792 12-6.099 19.333-2.307 7.334-5.29 15.734-6.631 18.667-1.34 2.933-3.736 9.533-5.323 14.667-1.587 5.133-3.39 10.533-4.008 12-.616 1.466-2.417 6.266-4 10.666-1.583 4.4-4.642 12.541-6.797 18.092-2.154 5.55-3.917 11.134-3.917 12.409 0 2.701-10.444 23.536-12.782 25.5-.873.733-1.979 3.565-2.456 6.294l-.869 4.96-3.28 3.899c-1.804 2.144-3.28 4.812-3.28 5.928 0 3.093-4.898 13.85-8.49 18.646-1.76 2.35-3.59 5.555-4.065 7.124-.475 1.568-2.345 4.449-4.154 6.402-1.81 1.953-3.291 4.44-3.291 5.526 0 2.783-6.656 15.683-8.71 16.883-.939.548-2.787 4.448-4.108 8.667-2.377 7.59-7.533 16.201-13.701 22.885-1.752 1.899-4.32 5.852-5.708 8.785-3.716 7.86-5.326 10.237-9.932 14.667-2.288 2.2-4.688 5-5.334 6.222-4.593 8.695-35.816 39.778-39.956 39.778-.528 0-4.09 2.85-7.914 6.333-8.19 7.46-16.806 13.678-23.304 16.819-2.566 1.24-5.566 2.793-6.666 3.45-5.658 3.38-27.26 13.398-28.89 13.398-1.036 0-4.235 1.2-7.11 2.667-2.875 1.466-6.901 2.67-8.947 2.675-2.046 0-5.459.914-7.584 2.023l-3.863 2.015-8.137.534c-4.475.295-9.825 1.184-11.89 1.977-4.134 1.589-9.943 1.601-24.696.055zm507.783-676.371c-4.033-.866-7.933-1.953-8.666-2.417-.734-.464-3.434-1.283-6-1.82-2.567-.538-5.267-1.426-6-1.974-.734-.547-2.984-1.39-5-1.871-2.017-.482-3.667-1.465-3.667-2.184 0-.72-.866-1.308-1.924-1.308-1.059 0-2.735-1.156-3.725-2.57-.99-1.413-3.424-3.31-5.409-4.213-1.985-.905-3.609-2.149-3.609-2.764 0-.616-1.017-1.12-2.26-1.12-1.242 0-4.092-1.817-6.333-4.039-14.808-14.682-22.042-21.294-23.298-21.294-.793 0-1.442-.974-1.442-2.164 0-2.283-10.038-16.933-14.212-20.742-2.923-2.667-5.788-6.083-5.788-6.901 0-.323-2.285-4.398-5.077-9.057-2.792-4.658-5.851-11.17-6.798-14.47-.947-3.3-2.477-6.9-3.401-8-2.53-3.011-4.73-10.47-4.68-15.865l.044-4.8 2.503-3c2.633-3.157 6.196-3.971 6.988-1.597.257.772 2.707 1.972 5.444 2.667a345.87 345.87 0 0 1 9.31 2.52 871.88 871.88 0 0 0 9 2.548c2.567.71 8.267 2.606 12.667 4.216l8 2.927 10-.705c5.5-.388 21.4-2.903 35.333-5.588 13.933-2.684 28.692-5.14 32.797-5.458 4.105-.317 10.705-1.502 14.667-2.634 11.558-3.302 28.124-6.85 39.203-8.394 4.4-.613 9.912-2.128 12.25-3.366 2.338-1.237 7.671-2.806 11.851-3.487 4.18-.68 10.068-2.079 13.083-3.108 9.53-3.253 14.644-4.634 20.68-5.585 3.225-.509 8.025-1.858 10.666-2.998 2.642-1.14 7.503-2.505 10.803-3.033 7.26-1.161 16.4-3.855 28-8.253 4.767-1.807 12.267-3.73 16.667-4.274 4.4-.544 8.757-1.611 9.683-2.37 2.316-1.902 23.648-7.866 30.983-8.663 3.3-.359 6.81-1.311 7.802-2.117.99-.806 2.73-1.602 3.866-1.768 1.136-.167 2.44-.91 2.9-1.653.458-.742 3.523-1.952 6.81-2.689 3.288-.736 8.373-2.345 11.3-3.574 2.927-1.23 10.122-3.382 15.989-4.785 5.867-1.402 13.217-3.78 16.333-5.284l5.667-2.734v-1.727c0-2.682 6.706-6.47 13.333-7.534 3.3-.529 10.2-2.234 15.334-3.79 5.133-1.555 15.933-4.27 24-6.032 8.066-1.762 17.947-4.136 21.957-5.275 4.01-1.139 9.11-2.11 11.333-2.156 2.224-.047 7.531-.822 11.794-1.723 16.48-3.48 19.65-1.16 11.582 8.475-2.933 3.504-5.333 6.802-5.333 7.33 0 .529-1.189 2.245-2.643 3.816-1.453 1.57-5.653 6.093-9.333 10.053-3.68 3.959-6.69 7.636-6.69 8.17 0 .536-6.196 7.197-13.769 14.802-11.956 12.01-16.14 16.836-27.016 31.162-3.091 4.072-10.95 17.728-11.869 20.625-.449 1.415-2.074 2.972-3.612 3.46-1.537.487-4.956 3.065-7.598 5.727-5.237 5.277-12.859 10.855-14.832 10.855-.684 0-2.182 1.433-3.329 3.183-1.147 1.751-5.81 5.692-10.364 8.759-20.457 13.776-25.788 17.522-31.526 22.148-1.88 1.516-5.519 3.575-8.086 4.575-2.566 1-6.637 3.51-9.046 5.577l-4.38 3.758h-2.806c-3.099 0-15.075 6.89-18.82 10.826l-2.385 2.507h-3.374c-3.377 0-21.487 6.944-26.538 10.175-1.475.944-6.698 2.956-11.605 4.472l-8.924 2.756-3.92 3.299c-2.156 1.814-4.583 3.298-5.394 3.298-.811 0-1.474.6-1.474 1.334 0 .733-.958 1.333-2.128 1.333-1.17 0-3.72.859-5.667 1.909-1.946 1.05-8.939 3.16-15.539 4.692-18.554 4.304-22.494 5.51-24.85 7.602-1.202 1.067-3.602 1.99-5.334 2.052-3.59.127-17.497 3.254-22.482 5.055-2.74.99-34.3 4.602-53.334 6.103l-13.333 1.052-8.667.683-7.333-1.574zm-1080.192-22.877c-.445-.445-7.807-1.38-16.36-2.076l-15.55-1.268-5.876-2.676c-3.232-1.472-6.508-2.677-7.282-2.677s-1.406-.504-1.406-1.12c0-.615-1.496-1.8-3.324-2.633-5.581-2.543-15.91-10.799-18.696-14.942-1.448-2.155-4.175-4.557-6.06-5.338l-3.428-1.42-1.725-4.771-1.726-4.772 1.813-1.149c.997-.632 3.912-1.494 6.479-1.916 11.1-1.823 18.474-3.879 25.333-7.061l7.334-3.403 5.906.17 5.907.17 2.723-1.907c1.498-1.05 3.814-1.908 5.147-1.908 1.332 0 4.649-1.115 7.37-2.478 2.72-1.363 8.064-2.83 11.874-3.262 3.81-.431 11.31-2.366 16.666-4.3 5.357-1.934 14.54-4.429 20.407-5.545 5.866-1.116 12.766-3.11 15.333-4.433s8.267-2.827 12.667-3.344c9.525-1.119 18.67-3.381 28.666-7.094 4.034-1.497 10.334-3.328 14-4.067 16.323-3.29 19.865-4.264 24.454-6.718 4.96-2.654 12.872-4.787 24.88-6.708 3.666-.586 9.966-2.073 14-3.303 19.064-5.817 31.849-9.135 37.333-9.69 3.3-.333 8.4-1.714 11.333-3.067 2.934-1.353 11.034-3.462 18-4.687 6.967-1.224 14.167-2.833 16-3.575 1.834-.742 6.634-1.908 10.667-2.591 4.033-.683 10.033-1.707 13.333-2.275 3.3-.568 7.92-2.045 10.267-3.281l4.268-2.249h5.333c7.5 0 18.418-2.395 25.42-5.577l5.953-2.706 5.38.753c2.959.415 9.855 1.772 15.326 3.017l9.947 2.263 4.053 4.125c4.004 4.075 8.72 11.803 8.72 14.289 0 .705 1.885 5.306 4.189 10.225l4.188 8.945-.04 6.666c-.06 9.899-1.108 19.3-2.85 25.587l-1.547 5.586-2.607.827c-1.434.455-5.061 2.878-8.061 5.385l-5.454 4.557-8.91 2.62c-4.9 1.44-10.708 3.035-12.908 3.544-2.2.51-7.725 2.644-12.278 4.743l-8.278 3.818h-10.214l-5.12 2.61c-2.817 1.437-7.894 2.984-11.283 3.439-3.388.455-9.331 1.703-13.206 2.773s-7.619 1.592-8.319 1.159c-.7-.433-3.23.052-5.62 1.078-7.763 3.328-14.304 5.126-15.643 4.3-1.426-.882-16.774 1.629-20.09 3.286-1.129.564-9.829 2.04-19.334 3.28-9.505 1.239-20.621 3.113-24.703 4.164l-7.42 1.911h-19.334l-2.816 1.507c-1.549.829-7.222 2.001-12.607 2.605-5.385.604-10.528 1.564-11.43 2.133-.901.57-4.939 1.17-8.972 1.333-7.042.286-18.562 2.01-30.13 4.51-11.846 2.561-88.203 6.468-90.063 4.609zm62.706-110.107c-4.85-.55-10.67-1.959-12.934-3.129-2.262-1.17-5.027-2.128-6.142-2.128-2.861 0-16.77-6.296-16.773-7.593 0-.59-2.702-2.778-6-4.862-3.3-2.084-5.998-4.222-5.998-4.75 0-.53-2.696-3.924-5.992-7.545-3.296-3.62-7.267-9.283-8.825-12.583-1.559-3.3-3.363-7.042-4.009-8.315-.646-1.274-1.174-3.18-1.174-4.238 0-1.058-.869-2.792-1.93-3.853l-1.93-1.93-2.274-12.5-2.273-12.497-.13-22-.13-22 2.466-7.693c1.356-4.232 2.123-8.587 1.704-9.68l-.762-1.986-9.704.881c-5.337.485-10.093 1.478-10.57 2.207l-.865 1.326-2.205-.846c-1.212-.465-6.523-.196-11.8.599-5.279.795-19.197 1.621-30.93 1.836-11.734.215-24.212.83-27.73 1.368l-6.398.976-8.27-1.578c-13.762-2.627-33.762-10.252-36.943-14.086-.931-1.122-3.56-2.948-5.843-4.059-4.725-2.299-11.847-11.163-16.98-21.137a961.985 961.985 0 0 0-6.334-12.077c-1.56-2.905-2.836-6.055-2.836-7 0-.945-.53-1.718-1.18-1.718-.648 0-1.607-3.429-2.131-7.62-.524-4.19-1.198-8.84-1.497-10.333l-.546-2.714 2.873-5.638 2.872-5.64 2.585-.82 2.585-.82 2.886 2.616 2.887 2.616 5.3.808 5.302.809 2.032 2.692 2.032 2.693 10.454 1.325 10.454 1.325 2.7-1.445 2.699-1.445 4.089.6 4.09.6 9.424-2.437c5.183-1.34 15.724-3.133 23.424-3.985 7.7-.85 14.663-2.068 15.473-2.704.811-.636 8.011-1.439 16-1.784 7.99-.346 18.127-1.24 22.527-1.99 4.4-.748 10.814-1.364 14.254-1.368l6.255-.013.923-1.494.924-1.495 10.822.676 10.822.675 8-2.643 8-2.643 5.047.675c2.776.371 7.117.102 9.647-.595l4.6-1.27 2.853 1.526 2.853 1.527 2.833-1.472 2.833-1.472 29.334-1.454c33.246-1.648 43.016-2.034 78.666-3.11 58.407-1.764 75.927-1.904 99.308-.79l24.642 1.174 1.358-1.059c.748-.583 4.809-1.446 9.026-1.92l7.666-.86v1.33c0 .731 1.05 1.21 2.334 1.064 1.283-.147 6.032.529 10.553 1.5l8.221 1.766 5.113 4.849c5.06 4.798 7.848 8.86 11.735 17.09 1.102 2.334 2.613 4.62 3.357 5.08.745.46 1.354 2.865 1.354 5.345 0 2.48.6 4.88 1.333 5.333.734.454 1.334 2.657 1.334 4.898v4.073l-2.913 5.181-2.912 5.182h-2.258c-1.242 0-3.01.907-3.93 2.015-.92 1.109-4.444 3.237-7.83 4.73-3.387 1.492-8.392 4.256-11.123 6.141l-4.966 3.43-14.368 1.274c-7.902.701-20.067 1.542-27.034 1.868-6.966.326-24.966 1.218-40 1.981-15.033.764-33.933 1.54-42 1.725-8.066.185-16.016.789-17.666 1.342l-3 1.007v7.627l3 2.462c4.77 3.917 13.655 15.341 15.528 19.968.943 2.33 2.86 5.273 4.26 6.54 1.4 1.267 2.545 3.41 2.545 4.763 0 1.353.572 2.46 1.27 2.46 1.885 0 4.047 9.026 4.056 16.924l.01 6.924-2.551 4.41-2.55 4.409-1.486 9.822c-2.483 16.42-11.885 28.242-43.258 54.39l-11.845 9.872-9.615 4.442c-5.288 2.443-12.508 4.876-16.044 5.406-3.536.53-7.68 1.742-9.207 2.692l-2.777 1.727-12.667.62c-6.967.34-16.636.17-21.486-.381zm1035.572-71.785-.91-1.472h-10.29l-6.538-3.283c-11.363-5.708-24.793-20.25-27.096-29.339-.75-2.958-1.959-6.578-2.687-8.044-.729-1.467-1.282-4.467-1.23-6.667.052-2.2-.29-7.004-.759-10.676l-.853-6.677 1.759-5.99c.967-3.295 1.842-9.89 1.944-14.657.103-4.767.905-12.267 1.783-16.667l1.595-8 5.953-12c6.107-12.311 6.634-13.253 12.91-23.066 2.017-3.154 3.667-6.304 3.667-7 0-.697.604-1.267 1.342-1.267 2.167 0 7.19-6.476 8.966-11.557l1.64-4.699-8.307 1.003-10.308 1.245c-1.1.133-6.051 1.52-11.002 3.082l-9.002 2.84-1.998-.766-1.998-.767v2.59l-6.236.855-6.236.854-2.401 2.174c-1.321 1.195-3.88 2.335-5.688 2.534-1.808.198-3.97.783-4.804 1.298-1.809 1.118-14.985 4.48-20.635 5.265-2.2.305-7 .909-10.667 1.34-3.666.433-8.466 1.611-10.666 2.619-7.27 3.33-9.267 3.845-16.483 4.248-3.931.22-9.05 1.028-11.373 1.794-3.75 1.238-16.922 2.331-39.478 3.277-15.83.664-27.26-4.991-45.086-22.307-5.297-5.146-14.77-18.246-15.569-21.528-.186-.767-.787-3.33-1.336-5.697-.548-2.367-1.824-4.99-2.836-5.83l-1.84-1.527v-18.369l2.834-6.028c3.67-7.808 5.043-8.434 25.021-11.404l16.812-2.5 7.334-2.9c4.033-1.595 8.236-3.664 9.34-4.597 2.541-2.15 20.146-8.542 23.524-8.542 1.398 0 3.726-.807 5.172-1.793 3.771-2.57 14.062-4.874 21.776-4.874 3.648 0 6.832-.46 7.077-1.023.48-1.105 15.77-7.198 24.444-9.74 2.933-.86 6.253-2.014 7.377-2.564 1.124-.55 3.967-1.423 6.318-1.939 2.351-.516 4.617-1.493 5.035-2.17.418-.676 2.694-1.23 5.058-1.23s7.578-.945 11.588-2.1c4.01-1.156 9.09-2.269 11.29-2.474 3.665-.342 15.723-3.027 27.334-6.087 2.567-.677 6.467-1.505 8.667-1.842 2.2-.336 6.4-1.325 9.333-2.197 2.933-.872 10.133-1.876 16-2.231l10.667-.646.444-1.212c.245-.666 2.259-1.211 4.476-1.211s8.017-.856 12.889-1.902c12.25-2.63 27.235-4.765 33.438-4.765 2.858 0 5.397-.562 5.642-1.249l.444-1.25 15.333-.853c8.434-.47 16.94-1.462 18.902-2.205l3.569-1.352 2.211 1.238 2.211 1.237 6.887-1.115c14.847-2.404 42.115-5.234 50.887-5.282 1.467-.01 10.167.015 19.333.05 9.167.037 19.667 0 23.334-.081 3.666-.081 16.266.247 28 .73l21.333.879 11.333 2.125c6.234 1.17 12.834 2.71 14.667 3.423 1.833.713 6.333 1.777 10 2.366 10.037 1.61 23.39 5.384 28.947 8.182 2.72 1.37 5.667 2.49 6.548 2.49.88 0 3.154 1.663 5.053 3.695 1.898 2.032 4.952 4.473 6.785 5.424 1.834.952 5.262 4.239 7.619 7.306l4.285 5.575-1.395.481-1.395.481 4.037 2.456c5.684 3.456 7.958 7.515 8.932 15.942l.844 7.307-3.13 1.55c-9.233 4.57-12.635 5.869-20.624 7.872l-8.757 2.197-9.099-.86-9.098-.858-.855 1.383-.854 1.382h-5.176c-2.847 0-5.506.534-5.91 1.186-.802 1.298-3.364 1.83-21.75 4.514l-12.326 1.8-1.61-.995c-.886-.548-2.037-.732-2.559-.409-.522.322-6.55.656-13.397.74l-12.448.155-3.406 1.737c-1.873.956-7.273 2.079-12 2.496-4.727.417-12.494 1.381-17.261 2.142-4.767.76-15.465 2.27-23.774 3.353-8.309 1.083-16.22 2.564-17.579 3.292-1.36.727-4.011 1.323-5.893 1.323-4.018 0-4.287 1.186-1.087 4.799 5.144 5.809 7.932 10.774 8.685 15.466.435 2.712 1.645 6.912 2.688 9.333 1.044 2.421 2.517 7.102 3.274 10.402l1.376 6-.505 13.333a3971.67 3971.67 0 0 1-1.053 25.37l-.55 12.035-5.492 11.298-5.492 11.297-3.966 3.509c-2.18 1.93-3.965 4.18-3.965 5 0 .82-.562 1.491-1.249 1.491s-8.11 6.9-16.497 15.333c-8.386 8.434-15.87 15.334-16.629 15.334-.76 0-4.586 2.595-8.503 5.766-3.917 3.172-10.122 7.222-13.789 9-3.667 1.779-7.439 4.267-8.382 5.529-.944 1.262-4.208 2.966-7.253 3.786l-5.537 1.491-4.558 4.558c-2.507 2.507-6.143 4.955-8.08 5.44-1.938.484-5.323 1.977-7.523 3.317-2.2 1.34-5.2 2.447-6.667 2.461-3.005.028-10.972 2.67-14 4.643l-2 1.302-14.836.492-14.835.492-.91-1.472zm27.248-105.22c4.766-2.56 10.766-5.735 13.333-7.056l4.667-2.4 5.333-6.671c2.933-3.67 6.286-7.008 7.45-7.42 1.165-.41 4.915-3.427 8.334-6.703l6.216-5.957v-2.525c0-1.39-.75-3.136-1.667-3.882l-1.666-1.356-8.484.016-8.483.016-3.517 1.835c-1.934 1.009-4.186 1.838-5.004 1.843-1.973.013-18.963 16.592-23.916 23.341-2.153 2.934-4.284 5.634-4.736 6-2.734 2.22-5.773 11.104-5.347 15.634l.153 1.633 4.334-.846c2.383-.465 8.233-2.94 13-5.502zm-1604.692-21.626-.85-1.374-4.472.839-4.472.839.725-2.774.726-2.775-3.353-1.275c-1.844-.7-3.747-1.911-4.228-2.69l-.875-1.416h2.079c2.655 0 2.708-2.508.074-3.52l-2.005-.768-2.09-7.19-2.09-7.188-1.572.043c-2.6.07-6.239 3.436-6.239 5.77 0 4.091-6.98-1.362-8.577-6.7l-.864-2.888 1.387-.858c.763-.472 1.388-1.434 1.388-2.138v-1.28l-3.334.837c-3.771.946-4.036.368-1.666-3.645l1.666-2.823-1.661-.602-1.662-.602 5.193-4.223c9.686-7.88 20.097-14.793 25.4-16.866 2.905-1.136 6.537-3.412 8.07-5.058 1.534-1.647 6.265-4.748 10.513-6.893 4.248-2.144 9.17-5.135 10.936-6.646 4.74-4.055 12.54-9.035 15.74-10.051l2.805-.89v1.465c0 .806-.9 1.81-2 2.233-1.1.422-2 1.247-2 1.833v1.066l3-.752c1.65-.413 4.9-2.307 7.223-4.208 6.63-5.428 11.42-8.657 15.42-10.393 2.03-.881 3.69-2.187 3.69-2.902 0-.714 6.75-5.783 15-11.264 8.25-5.48 16.5-11.588 18.333-13.573 1.834-1.985 6.034-5.454 9.334-7.709s8.376-6.107 11.28-8.56c2.904-2.452 7.104-4.957 9.333-5.565l4.053-1.106-.345-1.563c-.19-.86.71-1.943 2-2.407 1.29-.464 5.463-3.598 9.272-6.963 10.224-9.031 15.943-13.452 17.402-13.452.713 0 3.965-2.35 7.226-5.22l5.93-5.22 3.925-.447 3.924-.447.43-3.032.43-3.033 3.57-2.247c1.963-1.235 5.123-3.92 7.022-5.967 1.899-2.046 4.061-3.72 4.805-3.72.745 0 2.993-1.52 4.996-3.377 4.876-4.518 17.632-14.207 21.502-16.33 3.356-1.843 11.245-12.683 11.245-15.453 0-1.906 5.976-7.507 8.01-7.507.728 0 1.323-.6 1.323-1.334 0-.733.85-1.333 1.89-1.333 1.038 0 2.088-.505 2.332-1.121.245-.617 3.225-3.229 6.624-5.804 3.398-2.576 7.561-5.971 9.251-7.546 1.69-1.574 3.79-2.862 4.668-2.862.877 0 2.578-1.5 3.78-3.334 1.2-1.833 2.948-3.333 3.882-3.333.934 0 4.07-2.436 6.97-5.413 2.898-2.978 8.754-7.928 13.012-11 4.259-3.073 9-6.637 10.538-7.92 1.537-1.284 3.303-2.334 3.924-2.334s1.13-.524 1.13-1.165c0-.642 2.132-3.492 4.74-6.334l4.74-5.167 2.691.433 2.692.434.699-2.673.699-2.673 7.202-3.41c3.962-1.876 7.203-4.018 7.203-4.76v-1.351h4.222c2.322 0 3.83-.392 3.351-.871-.479-.48 1.038-2.28 3.37-4l4.242-3.13h7.481v-2.666h16.176l2.828 1.514c3.255 1.742 3.701 2.084 11.346 8.7l5.683 4.92 1.54 5.138 1.54 5.138-2.89 3.908c-1.59 2.149-2.89 4.87-2.89 6.047 0 1.176-1.423 5.25-3.163 9.054l-3.163 6.914-4.427 3.667-4.427 3.667h-20.472l-4.347 5.333c-2.391 2.933-5.075 5.333-5.964 5.333-.889 0-2.76 2.24-4.16 4.978-1.398 2.738-3.905 6.09-5.57 7.451-1.664 1.36-3.879 4.07-4.922 6.022-1.042 1.952-3.486 5.35-5.432 7.55-1.945 2.2-4.45 5.8-5.567 8s-3.61 5.57-5.541 7.492c-4.086 4.064-6.846 7.534-14.178 17.823-2.933 4.117-8.264 10.763-11.847 14.768-3.583 4.006-8.083 9.498-10 12.204-1.917 2.706-6.382 7.649-9.921 10.983-3.54 3.335-8.146 7.863-10.236 10.063-7.496 7.89-19.631 19.847-37.666 37.112-32.774 31.375-40.996 39.573-40.996 40.873 0 .704-1.65 2.152-3.667 3.218-2.017 1.065-6.738 4.83-10.492 8.367-12.828 12.085-19.504 17.763-20.885 17.763-.76 0-4.435 2.29-8.168 5.089-6.141 4.604-10.575 7.147-13.01 7.462-.49.063-1.34.566-1.89 1.116-.55.55-2.078 1-3.397 1-1.32 0-4.37 1.697-6.778 3.771-4.407 3.794-15.035 9.413-19.377 10.244-1.285.246-2.336.54-2.336.651 0 .112-1.061.407-2.358.655-1.298.247-4.095 2.309-6.217 4.58l-3.859 4.131-.523-1.57-.523-1.569-7.51 3.553c-4.132 1.955-8.975 3.554-10.764 3.554-1.79 0-4 .9-4.913 2-.913 1.1-2.51 2-3.55 2s-3.635 1.289-5.766 2.864l-3.874 2.865-3.738.135-3.739.136.388 1.83.388 1.83-2.388-1.033c-1.313-.569-4.24-1.296-6.505-1.618l-4.117-.584-2.297 2.297-2.296 2.296-8.92-.863-8.92-.863 2 1.333 2 1.334-2.92.02c-1.607.013-3.304-.598-3.771-1.354zm832.692-125.068v-1.29l-6.334-.822c-3.483-.452-11.237-1.035-17.232-1.296l-10.899-.474-4.732-2.924-4.733-2.926-5.702.852-5.702.851-4-1.625c-2.2-.895-7.53-2.083-11.844-2.64-4.315-.558-8.239-1.653-8.721-2.433-1.117-1.806-11.49-5.497-15.45-5.497-1.657 0-4.732-.896-6.832-1.992-2.1-1.096-5.19-1.996-6.866-2-1.676 0-4.376-.846-6-1.87-1.624-1.023-6.253-2.224-10.287-2.668-10.106-1.114-15.661-2.573-22.583-5.932-3.255-1.58-6.951-2.872-8.214-2.872-1.263 0-6.06-1.78-10.659-3.954-4.599-2.175-10.933-4.34-14.076-4.812-3.143-.471-6.408-1.692-7.255-2.712-.846-1.02-2.385-1.855-3.418-1.855-2.431 0-17.479-5.065-21.795-7.336-4.52-2.378-19.128-7.33-21.623-7.33-1.11 0-3.592-1.24-5.517-2.754-1.926-1.514-3.965-2.466-4.532-2.116-.567.35-3.594-1.11-6.726-3.247-3.133-2.136-6.805-3.884-8.161-3.884-3.542 0-44.968-21.113-53.014-27.02-3.731-2.739-7.94-4.98-9.355-4.98h-2.57l-2.957-4c-1.627-2.2-3.69-4.001-4.585-4.003-.894 0-3.726-1.8-6.293-3.997-2.567-2.196-5.105-3.995-5.641-3.996-.536 0-1.318-1.371-1.738-3.043l-.762-3.039-4.03-1.783-4.028-1.784-1.448-3.177c-.796-1.748-1.88-3.178-2.409-3.178-1.635 0-9.277-8.407-9.277-10.206 0-.935-1.108-2.292-2.461-3.017-1.353-.724-4.753-4.645-7.555-8.713-2.802-4.069-5.554-7.397-6.116-7.397-.562 0-1.422-1.262-1.912-2.804-.49-1.542-2.18-4.805-3.756-7.25-1.577-2.445-4.367-6.95-6.2-10.012-1.834-3.062-4.384-6.79-5.667-8.288-1.283-1.496-2.333-4.037-2.333-5.646s-1.05-4.188-2.334-5.732c-5.728-6.89-7.013-8.977-6.443-10.461l.608-1.586-1.916-.735-1.915-.736v-5.333l2.333.811c1.283.446 2.947 1.477 3.697 2.292 1.789 1.94 5.038 3.952 14.05 8.694 4.077 2.146 8.2 4.85 9.163 6.01.962 1.16 2.876 2.11 4.253 2.11 1.377 0 2.504.556 2.504 1.236 0 .68 2.4 2.296 5.333 3.59 2.933 1.294 5.333 2.83 5.333 3.412 0 .582 1.95 1.934 4.334 3.004 5.745 2.579 12.224 6.513 12.777 7.757.245.55 2.76 1 5.588 1 2.83 0 5.456.506 5.838 1.123.382.618 6.427 3.392 13.435 6.165 7.008 2.773 13.066 5.568 13.464 6.21.397.643 1.935 1.17 3.419 1.17 1.483 0 6.28 2.1 10.66 4.666l7.962 4.666h7.53l1.527 1.84c.84 1.011 3.361 2.206 5.604 2.655 2.243.448 5.61 2.02 7.484 3.494 1.872 1.473 4.474 2.678 5.78 2.678 1.307 0 2.576.45 2.82 1 .555 1.247 21.047 8.333 24.098 8.333 1.231 0 3.613 1.44 5.293 3.2l3.054 3.2 6 1.396c13.627 3.173 18.244 4.582 22.93 6.997l4.932 2.54h9.555l.768 2c.422 1.1 1.543 2 2.492 2 .949 0 4.934 1.495 8.857 3.321 3.923 1.826 9.047 3.326 11.387 3.333 2.34.01 4.562.51 4.937 1.116.375.607 4.46 2.17 9.078 3.472 4.619 1.303 10.722 3.332 13.563 4.508 2.84 1.176 6.527 2.026 8.192 1.888l3.027-.25 1.637 1.973 1.638 1.973h3.758c2.067 0 4.13.6 4.582 1.333.454.734 1.86 1.334 3.126 1.334 1.266 0 6.78 1.552 12.254 3.45 5.475 1.897 13.272 4.213 17.327 5.147 4.055.934 9.276 2.681 11.6 3.883 2.325 1.203 6.243 2.186 8.706 2.186h4.478l2.588 1.958 2.588 1.958 13.588.042 13.588.042.824-1.334c.453-.733 2.139-1.337 3.745-1.341 1.607 0 4.64-.905 6.74-2 5.447-2.841 14.182 1.441 14.182 6.952 0 1.01 2.595 4.661 5.766 8.113 5.09 5.54 12.11 16.684 18.232 28.943 1.099 2.2 2.503 4.369 3.12 4.82.618.45 1.944 5.127 2.947 10.392l1.824 9.573-1.149 2.94c-.632 1.618-3.157 4.83-5.611 7.138l-4.463 4.197-10 1.569c-5.5.863-11.05 1.865-12.333 2.226l-2.333.658v-1.289z" style="fill:#000;stroke-width:1.33333" transform="translate(33.538 134.152)"/>
  </g>
</svg>
