<svg xmlns="http://www.w3.org/2000/svg" xml:space="preserve" width="3453.333" height="3973.333">
  <path d="M2100.758 3453.425c-2.933-.611-11.633-1.388-19.333-1.727-7.7-.338-16.7-1.448-20-2.466-10.333-3.189-13.795-3.77-20.866-3.501-3.776.143-7.261-.38-7.745-1.164-.484-.783-2.674-1.424-4.868-1.424-2.193 0-5.607-.836-7.588-1.858-1.98-1.022-8.25-2.292-13.933-2.823-5.684-.53-10.334-1.535-10.334-2.232 0-.696-1.204-.884-2.676-.417-1.482.47-4.606-.121-7-1.325-2.378-1.196-8.986-2.713-14.685-3.371-15.857-1.83-20.028-2.81-23.515-5.523-1.805-1.405-4.265-2.162-5.62-1.732-1.327.421-4.683.11-7.458-.69-4.298-1.24-12.13-2.12-28.379-3.191-1.833-.122-4.233-.806-5.333-1.522-5.148-3.35-7.811-4.07-14-3.786-3.667.169-8.467-.482-10.667-1.446-2.2-.964-8.384-2.135-13.743-2.601-6.729-.586-10.89-1.697-13.452-3.591-2.622-1.939-6.289-2.885-12.513-3.228-4.842-.268-9.898-1.072-11.236-1.788-1.337-.716-5.422-1.1-9.077-.854-7.467.503-11.853-.376-25.312-5.07-10.302-3.593-25.797-8.234-32-9.586-4.195-.913-6.26-1.055-10.667-.733-1.467.107-5.827-.71-9.688-1.816-3.862-1.106-10.991-2.139-15.843-2.296-8.954-.29-19.226-2.281-26.459-5.13-2.194-.863-8.494-1.697-14-1.852-5.505-.155-10.758-.749-11.673-1.32-.914-.57-4.664-1.061-8.333-1.09-3.669-.027-6.67-.62-6.67-1.317 0-.715-1.954-.9-4.486-.424-2.762.518-6.945 0-10.885-1.331-3.605-1.224-8.013-1.818-10.095-1.361-2.289.503-4.87.047-6.782-1.198-1.697-1.106-7.143-2.333-12.1-2.727-4.959-.395-10.863-1.673-13.121-2.84-2.258-1.168-4.893-1.822-5.855-1.452-.962.369-2.158.262-2.658-.237-.499-.5-1.308-.955-1.797-1.012-.488-.057-2.988-.47-5.555-.917-15.693-2.736-25.373-3.92-30.463-3.729-3.481.132-7.142-.662-9.164-1.987-2.549-1.67-4.056-1.873-6.203-.838-5.308 2.559-9.6 2.821-13.451.823-3.007-1.56-4.068-1.635-4.868-.341-.78 1.261-1.62 1.112-3.545-.63-1.387-1.256-2.955-1.85-3.484-1.321-1.397 1.396-30.54.383-32.357-1.125-.845-.7-8.253-1.621-16.463-2.047-12.275-.636-17.195-1.574-27.698-5.279-7.025-2.478-14.337-4.505-16.25-4.505-1.914 0-7.059-1.258-11.434-2.796-4.374-1.539-10.353-2.961-13.287-3.162-8.51-.582-8.683-.63-8.333-2.293.183-.871-1.767-2.039-4.333-2.594-9.905-2.144-12-2.839-12-3.977 0-.648-1.47-1.178-3.267-1.178s-3.747-.803-4.334-1.785c-.586-.982-5.09-2.782-10.007-4-8.43-2.089-14.345-5.095-22.64-11.508-1.97-1.522-6.042-2.976-9.05-3.232-4.17-.353-6.629-1.624-10.36-5.356-2.691-2.69-8.07-7-11.951-9.577-3.882-2.577-7.063-5.103-7.068-5.614-.012-1.083-6.492-4.262-8.69-4.262-.826 0-2.947-1.538-4.714-3.419-1.767-1.88-5.241-4.382-7.72-5.559-2.48-1.176-6.389-4.037-8.687-6.357-2.299-2.32-5.229-4.6-6.512-5.066-1.284-.467-2.334-1.467-2.334-2.223 0-.757-.9-1.376-2-1.376s-2-.499-2-1.108c0-.61-2.85-2.97-6.333-5.245-8.92-5.826-12.085-8.275-18.07-13.98-2.884-2.75-5.773-5-6.42-5-.647 0-1.19-.75-1.208-1.667-.017-.916-2.414-3.429-5.325-5.582-2.911-2.154-6.879-6.204-8.817-9-1.937-2.797-3.891-5.088-4.341-5.092-.45 0-4.07-3.005-8.045-6.667-3.975-3.662-8.06-6.659-9.079-6.659-1.019 0-1.508-.556-1.088-1.237.42-.68-.294-1.579-1.588-1.996-2.894-.934-11.019-8.431-11.019-10.168 0-.696-1.219-1.265-2.709-1.265s-3.062-.922-3.495-2.05c-.432-1.127-2.363-2.87-4.29-3.872-1.929-1.003-5.006-3.117-6.84-4.699a3849.67 3849.67 0 0 0-6.063-5.217c-1.502-1.288-3.302-2.17-4-1.959-.698.212-2.77-1.685-4.603-4.215-1.833-2.53-4.309-4.928-5.5-5.33-1.192-.403-4.312-2.816-6.934-5.362-2.622-2.546-5.263-4.63-5.87-4.63-.606 0-3.126-1.849-5.6-4.109-8.047-7.349-18.284-14.557-20.675-14.557-1.286 0-2.651-1.2-3.035-2.667-.383-1.467-1.181-2.667-1.773-2.667-.591 0-2.921-1.553-5.177-3.451-2.257-1.899-4.103-2.966-4.103-2.37 0 .595-.934-.252-2.075-1.882-1.142-1.63-2.942-2.963-4-2.963-1.059 0-1.925-.915-1.925-2.033 0-1.118-1.35-2.617-3-3.33-5.888-2.547-9.447-5.17-19.385-14.294-4.188-3.844-8.665-7.335-9.948-7.756-1.283-.422-2.333-1.586-2.333-2.587 0-1.001-1.184-2.196-2.63-2.655-1.446-.46-4.596-3.083-7-5.831-2.404-2.749-6.33-6.36-8.724-8.027-2.394-1.667-5.194-4.634-6.222-6.592-1.028-1.96-4.247-5.962-7.154-8.895-2.907-2.934-6.707-7.439-8.445-10.011-1.737-2.573-4.248-5.873-5.58-7.334-3.478-3.816-8.784-11.604-9.726-14.278-.444-1.259-1.943-2.65-3.33-3.09-1.387-.44-2.523-1.837-2.523-3.104 0-1.266-2.856-5.393-6.347-9.17-3.49-3.778-8.695-11.251-11.565-16.608-2.87-5.356-6.014-10.218-6.986-10.805-.973-.586-1.768-1.846-1.768-2.8 0-.953-1.654-4.073-3.675-6.934-2.02-2.86-4.57-7-5.664-9.2-1.095-2.2-2.325-4.3-2.735-4.666-.41-.367-1.566-2.767-2.57-5.334-4.81-12.294-9.477-21.31-10.87-21.004-.91.2-1.625-1.576-1.744-4.329-.53-12.23-.876-14.124-2.076-11.333l-1.146 2.666-.245-2.666c-.748-8.112-1.326-10.545-3.175-13.368-1.122-1.713-2.25-5.105-2.507-7.54-.256-2.434-.818-5.326-1.248-6.426-2.65-6.776-5.652-31.63-5.43-44.97.213-12.932.692-15.855 3.517-21.48 1.799-3.58 3.69-8.99 4.202-12.023.512-3.032 1.479-5.851 2.148-6.265.67-.414 1.218-1.917 1.218-3.34 0-1.424.6-2.588 1.333-2.588s1.333-.89 1.333-1.976c0-1.087 2.1-4.138 4.667-6.781 2.567-2.643 4.667-5.954 4.667-7.358 0-1.403 1.2-3.752 2.666-5.219 1.467-1.466 2.667-3.643 2.667-4.836 0-4.22 9.39-21.534 12.057-22.232 1.97-.515 2.61-1.838 2.61-5.397 0-4.341 4.51-14.272 6.956-15.312.574-.245 1.044-2.157 1.044-4.249 0-2.092 1.8-8.481 4.002-14.198 2.967-7.705 3.788-11.608 3.172-15.085-.695-3.923-.535-4.41.98-2.974 1.514 1.434 2.19-.195 4.095-9.88 1.256-6.378 2.931-11.997 3.724-12.487.887-.548 1.174-3.569.747-7.859-.569-5.715-.184-7.658 2.143-10.805 2.296-3.106 2.7-5.06 2.114-10.253-.398-3.53-.205-7.385.429-8.568 1.335-2.495 1.504-5.951 1.255-25.594-.119-9.338-.88-16.062-2.164-19.138-1.32-3.156-1.73-6.998-1.23-11.49.49-4.408.153-7.713-.973-9.529-.948-1.53-1.897-4.88-2.109-7.447-.212-2.567-1.24-7.238-2.285-10.38-1.045-3.142-1.9-6.75-1.9-8.019 0-3.982-3.997-13.846-16.048-39.6-2.058-4.4-4.139-9.799-4.622-11.996-.484-2.197-2.979-8.497-5.545-14-6.304-13.52-6.54-14.093-9.864-24.005-3.596-10.725-5.734-15.524-9.204-20.667-1.485-2.2-2.704-4.809-2.709-5.798-.005-.99-.937-3.755-2.072-6.146-1.134-2.392-4.428-11.18-7.319-19.53-2.89-8.35-5.866-15.386-6.612-15.635-.745-.248-1.003-1.022-.572-1.718.721-1.168-2.526-10.891-6.85-20.506-.989-2.2-2.797-7.159-4.018-11.02-1.22-3.861-2.747-7.347-3.392-7.746-.645-.398-1.177-1.74-1.182-2.98-.004-1.24-.774-3.754-1.71-5.587-.935-1.834-2.386-5.734-3.223-8.667-4.3-15.077-10.41-34.51-13.856-44.067-2.128-5.904-3.869-11.44-3.869-12.305 0-.865-1.573-6.234-3.494-11.933-1.922-5.699-4.56-13.962-5.86-18.362-8.308-28.093-35.9-91.684-46.571-107.333-1.25-1.833-3.586-5.917-5.191-9.074-1.606-3.158-4.134-7.046-5.62-8.64-1.485-1.595-3.042-4.262-3.46-5.926-.418-1.665-1.148-3.027-1.623-3.027-.475 0-1.698-1.95-2.718-4.333s-3.866-7.185-6.325-10.67c-2.46-3.485-4.471-6.68-4.471-7.102 0-.422-2.4-4.118-5.334-8.214-2.933-4.096-5.333-8.25-5.333-9.231 0-.98-.968-2.833-2.15-4.116-1.919-2.08-5.686-7.951-16.451-25.633-1.798-2.952-3.898-5.391-4.667-5.42-.77-.03-3.499-4.351-6.065-9.603-6.587-13.477-8.223-16.18-12-19.825-1.834-1.769-4.776-5.91-6.538-9.201-1.763-3.292-6.563-10.943-10.667-17.004-7.157-10.568-13.198-20.58-15.91-26.369-.7-1.497-2.237-3.52-3.413-4.497-1.177-.976-2.139-2.326-2.139-2.999 0-1.566-5.523-9.473-7.52-10.767-.835-.54-3.334-4.74-5.551-9.333-2.218-4.592-5.587-10.15-7.488-12.35-1.902-2.2-3.84-5.197-4.31-6.66-.469-1.465-1.609-3.265-2.534-4-.925-.737-3.543-4.885-5.82-9.219-2.275-4.334-4.659-8.534-5.296-9.333-.638-.8-3.11-5.954-5.494-11.454-2.384-5.5-4.856-10.2-5.494-10.444-.638-.245-1.16-1.462-1.16-2.706 0-1.243-1.783-6.443-3.962-11.555-2.18-5.112-4.352-12.109-4.828-15.547-.506-3.659-1.685-6.568-2.842-7.012a2.123 2.123 0 0 1-1.215-2.747c.42-1.094.239-1.989-.403-1.989-.641 0-1.596-3.126-2.122-6.947-.525-3.82-1.442-7.87-2.036-9-1.228-2.332-3.791-12.489-5.397-21.386-1.779-9.861-4.466-20.555-5.612-22.334-.59-.916-.728-2.225-.306-2.907.422-.683.218-1.58-.452-1.995-1.178-.728-3.625-18.388-3.014-21.75.55-3.026-2.582-12.44-3.873-11.643-.699.433-1.271-.785-1.271-2.705 0-1.987.574-3.135 1.333-2.666.75.464 1.288-.522 1.228-2.255-.058-1.693-.408-2.329-.777-1.412-.37.917-1.587 1.667-2.704 1.667-1.444 0-1.73-.675-.988-2.334.575-1.283 1.244-7.631 1.487-14.107.243-6.476 1.052-12.913 1.797-14.306 1.394-2.604.526-8.726-1.625-11.468-.744-.95-.684-1.875.157-2.395.914-.565.824-1.735-.269-3.511-1.402-2.28-1.206-2.993 1.363-4.945 2.447-1.86 2.939-3.389 2.662-8.275-.273-4.81-.79-5.918-2.619-5.612-1.78.297-2.216-.506-1.995-3.664.333-4.747 1.849-5.342 2.676-1.05.403 2.096.632 1.652.76-1.476.14-3.473-.268-4.304-1.82-3.708-2.494.957-2.65-1.3-.188-2.75 2.775-1.633 4.952-9.85 5.469-20.64.61-12.779 1.755-21.469 3.394-25.778.869-2.287.875-4.331.018-5.932-.719-1.344-.975-5.655-.57-9.58.863-8.34.853-10.414-.084-18.47-.498-4.282-.344-5.236.538-3.333 1.022 2.205 1.285 1.743 1.515-2.666.886-16.903.027-29.298-2.934-42.378-1.216-5.366-1.845-6.25-3.968-5.577-1.675.532-2.523.158-2.523-1.114 0-2.209-8.357-1.83-9.11.414-.245.727-1.282 1.321-2.304 1.321-1.023 0-5.186 1.8-9.252 4-4.067 2.2-9.047 4-11.067 4-2.02 0-5.079.985-6.797 2.188-1.718 1.203-5.152 2.31-7.631 2.461-2.48.151-5.69 1.344-7.135 2.651-3.097 2.803-10.934 4.783-22.037 5.567l-8 .565-2.667-5.687c-1.466-3.127-2.866-6.15-3.11-6.715-.245-.566.31-1.03 1.232-1.03 2.784 0 24.2-10.845 29.403-14.89 2.974-2.311 6.482-3.776 9.042-3.776 2.489 0 4.495-.81 4.951-2 .422-1.1 1.331-2 2.02-2 .689 0 5.738-2.1 11.22-4.667 5.482-2.567 10.366-4.667 10.852-4.667.487 0 2.144-1.182 3.682-2.627 1.538-1.445 5.177-3.119 8.086-3.719 4.773-.985 5.331-1.53 5.723-5.597.24-2.478-.459-6.655-1.552-9.281-2.338-5.62-6.224-22.142-6.219-26.442.002-1.65-.596-3-1.33-3-.733 0-1.39 1.35-1.46 3-.192 4.493-3.646-14.822-3.768-21.067-.058-2.97-.809-6.104-1.669-6.964-1.141-1.141-1.18-2.408-.14-4.689 1.029-2.257.919-8.204-.394-21.414-1.633-16.422-1.687-79.203-.07-81.978.284-.488.578-4.08.654-7.98.075-3.9.428-7.564.784-8.14.357-.576.736-6.535.843-13.241.107-6.707.725-12.194 1.374-12.194.649 0 1.18-3.368 1.18-7.484 0-4.117 1.25-12.654 2.776-18.971 1.527-6.318 2.572-14.058 2.322-17.201-.275-3.466.075-5.514.89-5.203 1.622.617 1.863-17.673.266-20.14-.623-.964-.483-1.668.334-1.668.776 0 1.412-1.685 1.412-3.745s.88-4.91 1.957-6.333c1.077-1.424 1.977-3.518 2-4.655.023-1.137.722-2.746 1.552-3.576.83-.83 1.724-3.5 1.987-5.933.263-2.433.687-5.324.943-6.424 1.36-5.842 2.276-12.167 2.8-19.334.322-4.4.634-8.3.693-8.666.06-.367.69.233 1.4 1.333 1.002 1.55 1.331 1.099 1.461-2 .093-2.2.069-5.274-.053-6.831-.121-1.558.575-3.658 1.546-4.667 1.735-1.802 7.777-24.882 7.735-29.544-.012-1.306.879-2.72 1.979-3.142 1.297-.498 2-2.567 2-5.893 0-7.58 2.585-18.273 4.605-19.048.971-.373 2.805-3.572 4.076-7.11 1.27-3.537 3.125-8.298 4.122-10.579.996-2.28 2.472-7.225 3.279-10.988.807-3.762 2.018-7.181 2.692-7.598.674-.416 1.226-2.729 1.226-5.139 0-2.688 1.03-5.314 2.666-6.794 1.467-1.328 2.67-3.37 2.673-4.54.005-2.154 9.532-21.827 12.02-24.826.745-.896.967-2.635.496-3.865-.591-1.539.647-3.574 3.977-6.536 2.659-2.365 4.834-5.036 4.834-5.934 0-.898.522-1.633 1.16-1.633.636 0 1.489-2.039 1.893-4.53.793-4.883 8.793-22.516 10.548-23.247.586-.245 1.066-1.295 1.066-2.334 0-1.039.6-1.889 1.333-1.889.734 0 1.334-.856 1.334-1.903 0-1.047 1.506-3.088 3.346-4.535 1.84-1.448 4.249-4.792 5.351-7.43 1.103-2.64 2.553-4.798 3.223-4.798.67 0 2.08-1.65 3.133-3.667 4.844-9.27 6.024-10.957 10.02-14.318 2.57-2.163 4.26-4.83 4.26-6.725 0-2.034 1.332-3.926 3.782-5.374 2.264-1.337 4.586-4.445 5.784-7.742 1.387-3.819 2.885-5.638 4.884-5.934 1.586-.234 2.883-1.284 2.883-2.333 0-1.049.56-1.907 1.244-1.907.684 0 1.624-1.2 2.09-2.667.465-1.467 1.706-2.667 2.756-2.667 1.05 0 1.91-.45 1.91-1 0-.773 11.573-13.689 20.968-23.4 7.49-7.744 11.2-11.428 15.567-15.462a868.108 868.108 0 0 0 11.078-10.47c3.233-3.118 6.442-5.668 7.132-5.668.69 0 1.255-.592 1.255-1.316 0-.724 2.537-2.918 5.638-4.876 3.101-1.958 9.251-7.23 13.667-11.716 4.416-4.487 9.695-8.888 11.733-9.78 2.037-.892 4.06-2.55 4.495-3.683.435-1.133 2.546-2.968 4.691-4.078 5.055-2.614 9.11-6.112 9.11-7.86 0-1.18 4.612-4.93 6.666-5.421 3.239-.774 8.122-3.675 12-7.127 8.449-7.52 9.314-8.143 11.334-8.143 1.1 0 2-.54 2-1.201s1.95-2.446 4.333-3.967c2.383-1.522 6.433-4.246 9-6.055 2.567-1.81 5.943-3.324 7.503-3.366 1.56-.043 3.596-.992 4.524-2.11.927-1.117 1.966-1.752 2.308-1.41.342.342 2.207-1.067 4.144-3.132 1.936-2.065 6.22-5.241 9.52-7.058 3.3-1.818 8.1-4.591 10.668-6.164 2.566-1.573 5.731-2.862 7.033-2.865 1.301-.003 2.922-1.468 3.602-3.257 1.43-3.76 4.097-5.382 10.86-6.6 2.656-.48 6.256-2.047 8-3.485 1.744-1.437 3.842-3.174 4.662-3.86 2.692-2.25 15.791-8.604 18.176-8.816 1.284-.115 4.584-1.99 7.334-4.166 7.504-5.941 14.331-9.82 17.282-9.82 1.45 0 4.38-1.5 6.51-3.333 2.13-1.832 5.155-3.332 6.72-3.333 1.566 0 7.566-2.697 13.334-5.992 5.767-3.294 11.236-5.994 12.153-6 .917-.005 1.667-.61 1.667-1.343s1.126-1.333 2.503-1.333c1.377 0 3.25-.9 4.163-2 .913-1.1 2.544-2 3.625-2 1.08 0 3.556-1.122 5.503-2.492 1.947-1.37 5.04-2.921 6.872-3.446 4.68-1.34 25.067-9.76 30.667-12.665 2.567-1.332 9.167-3.787 14.667-5.456 5.5-1.67 11.2-4.09 12.666-5.38 1.467-1.29 5.067-2.75 8-3.245 2.934-.494 7.007-2.077 9.051-3.518 2.044-1.44 6.694-3.327 10.333-4.191 3.64-.864 6.616-2.03 6.616-2.59s.924-1.017 2.054-1.017c1.129 0 4.279-1.119 7-2.486 2.72-1.367 8.098-3.227 11.95-4.134 3.853-.906 7.328-2.17 7.722-2.81 1.113-1.8 12.605-6.57 15.829-6.57 1.585 0 5.235-1.2 8.112-2.667 2.877-1.467 6.004-2.667 6.949-2.667.945 0 1.718-.6 1.718-1.333s1.464-1.333 3.254-1.333 3.599-.556 4.02-1.236c.42-.68 3.005-1.975 5.744-2.877 2.74-.903 6.655-2.877 8.7-4.386 3.133-2.314 4.138-2.483 6.387-1.078 2.938 1.835 5.798.911 4.365-1.409-.597-.965-.09-1.154 1.48-.551 1.313.504 3.062.4 3.885-.23.824-.63 5.998-2.486 11.498-4.126 5.5-1.639 11.042-3.534 12.315-4.21 1.274-.677 3.75-1.23 5.504-1.23 1.753 0 3.891-.848 4.75-1.883.86-1.036 4.684-2.618 8.497-3.517 3.814-.899 9.634-2.644 12.934-3.88 3.3-1.235 7.05-2.009 8.331-1.72 1.283.29 3.24-.38 4.35-1.49 1.11-1.11 4.71-2.422 8.002-2.916 3.291-.494 5.984-1.43 5.984-2.08 0-.65 1.208-1.181 2.685-1.181 1.476 0 3.726-.526 5-1.168 1.273-.642 5.915-2.196 10.315-3.453 4.4-1.257 9.8-3.082 12-4.056 2.2-.974 6.4-2.11 9.333-2.523 2.933-.414 10.733-2.298 17.333-4.186 6.6-1.889 14.977-4.05 18.616-4.802 3.639-.753 8.174-2.175 10.08-3.16 1.904-.985 9.748-3.004 17.43-4.486 15.575-3.006 18.541-3.909 18.541-5.642 0-.655 2.7-1.19 6-1.19s6-.6 6-1.334c0-.734 2.25-1.337 5-1.342 2.75-.004 6.8-.97 9-2.144 2.2-1.174 6.504-2.259 9.564-2.41 3.06-.15 6.464-1.021 7.565-1.935 1.289-1.07 3.702-1.342 6.77-.767 3.145.59 4.768.39 4.768-.587 0-.815 1.52-1.482 3.376-1.482 1.857 0 5.457-.87 8-1.932 2.543-1.062 4.624-1.691 4.624-1.397 0 .294 2.85-.346 6.333-1.422s11.133-2.339 17-2.805c5.867-.467 11.02-1.387 11.453-2.046.432-.658 6.959-2.305 14.503-3.66 7.545-1.356 14.091-3.023 14.548-3.707.456-.683 6.53-2.006 13.496-2.939 6.967-.933 15.667-2.163 19.333-2.734l13.334-2.07c3.666-.567 6.97-1.488 7.341-2.045.67-1.007 12.409-3.095 29.654-5.276 4.947-.625 9.447-1.409 10-1.742.553-.333 5.505-.997 11.005-1.476 11.436-.996 13.223-1.23 26-3.417 13.947-2.386 24.699-3.988 30.666-4.57 2.934-.285 10.734-1.22 17.334-2.078 11.98-1.557 14.266-1.82 29.333-3.382 4.4-.456 10.254-1.41 13.009-2.119 2.754-.71 11.694-1.586 19.866-1.948 8.171-.361 15.404-.995 16.072-1.408.668-.413 7.028-.7 14.134-.64 7.106.062 19.3-.853 27.1-2.033 9.858-1.49 15.347-1.755 18-.868 2.22.741 5.895.81 8.775.165 10.853-2.433 54.242-4.078 116.377-4.412 52.977-.285 66.011-.008 68.916 1.462 1.97.998 4.55 1.442 5.733.988 1.183-.454 5.571-.156 9.751.662 4.18.818 14.2 1.793 22.267 2.166 8.067.372 18.867 1.284 24 2.024 5.133.741 13.974 1.622 19.647 1.959 5.672.336 12.05 1.509 14.172 2.606 2.146 1.11 6.143 1.79 9.008 1.533 2.832-.254 6.536.065 8.23.71 3.053 1.16 4.673 1.478 16.276 3.19 3.3.486 8.1 1.399 10.667 2.028 15.292 3.744 22.385 5.074 29.334 5.5 5.71.349 15.312 2.676 17.071 4.137 1.102.914 4.29 1.7 7.085 1.745 2.795.046 6.453.731 8.13 1.524 3.216 1.522 22.564 6.505 33.57 8.647 3.588.699 7.28 2.027 8.205 2.951.925.925 4.086 1.776 7.024 1.891 7.863.308 20.681 3.93 22.475 6.35.858 1.16 2.958 1.968 4.666 1.8 1.709-.17 4.007.022 5.107.426 1.1.404 5 1.51 8.667 2.458 3.666.948 8.166 2.503 10 3.456 1.833.952 4.833 1.74 6.666 1.748 1.834.01 5.052.913 7.153 2.008 2.1 1.096 4.958 1.992 6.351 1.992 1.393 0 3.574.55 4.848 1.221 1.273.672 4.715 2.201 7.648 3.398 2.934 1.197 6.375 2.748 7.649 3.446 1.273.698 3.488 1.268 4.921 1.268 1.433 0 2.977.6 3.43 1.334.453.733 1.923 1.333 3.265 1.333s7.3 2.4 13.24 5.333c5.94 2.934 11.972 5.334 13.403 5.334 1.43 0 2.978.609 3.438 1.353.46.745 2.746 2.174 5.079 3.177 2.333 1.003 5.6 3.124 7.26 4.714 1.659 1.59 3.568 2.551 4.24 2.135 1.201-.742 10.75 3.088 12.089 4.848.373.492 2.372 1.32 4.44 1.839 2.07.519 4.077 1.766 4.463 2.772.386 1.006 1.418 1.828 2.293 1.828 2.342 0 8.768 3.172 8.78 4.334 0 .55.837 1 1.847 1s2.578.893 3.484 1.985c.907 1.092 2.184 1.654 2.84 1.249.655-.405 1.53.147 1.945 1.228.415 1.08 2.36 2.355 4.324 2.833 3.916.954 19.689 10.995 26.617 16.944 2.408 2.068 5.176 3.76 6.15 3.76.973 0 4.035 1.8 6.803 4 2.769 2.2 5.583 4 6.255 4 .671 0 3.289 1.65 5.816 3.667 2.528 2.017 5.089 3.667 5.69 3.667.603 0 2.146 1.05 3.43 2.333 1.283 1.284 2.978 2.334 3.767 2.334.789 0 3.896 2.014 6.905 4.475 9.027 7.384 22.934 17.724 27.339 20.326 2.272 1.342 4.132 2.87 4.132 3.396 0 .526 1.238 1.35 2.753 1.83 1.514.48 7.364 5.443 13 11.028 5.635 5.585 13.847 12.822 18.247 16.083 4.4 3.26 13.57 11.539 20.38 18.395 6.81 6.857 12.96 12.467 13.667 12.467.707 0 1.286.604 1.286 1.343s4.05 5.398 9 10.354c11.135 11.148 26.668 28.59 30.65 34.415 1.64 2.4 4.179 4.744 5.64 5.207 1.46.464 4.049 3.18 5.752 6.035 3.517 5.898 12.3 16.281 24.958 29.505 13.448 14.05 17.882 19.183 20.023 23.185 1.087 2.032 5.355 7.094 9.484 11.25 4.128 4.154 8.47 9.415 9.646 11.691 1.177 2.276 3.949 5.426 6.16 7 2.211 1.575 4.03 3.572 4.043 4.439.013.867 2.712 4.443 6 7.948 3.287 3.505 5.977 7.255 5.977 8.334 0 1.078.61 1.96 1.357 1.96 1.866 0 10.348 8.895 12.559 13.17.995 1.925 3.988 5.81 6.652 8.634 2.664 2.825 5.649 7.025 6.633 9.333s4.655 7.197 8.159 10.863c3.503 3.667 7.216 8.467 8.251 10.667 3.283 6.976 4.882 9.298 12.452 18.084 4.068 4.72 8.083 10.182 8.92 12.138.839 1.955 4.325 7.355 7.748 12 3.423 4.644 7.988 11.745 10.145 15.778 10.371 19.395 16.594 30.53 17.985 32.184.84.999 2.49 3.916 3.667 6.483 1.176 2.566 3.678 7.366 5.559 10.666 1.88 3.3 4.627 9 6.102 12.667 1.475 3.667 3.769 9.067 5.098 12 5.16 11.393 6.713 15.512 6.713 17.815 0 2.168 4.035 13.212 8.591 23.518.973 2.2 2.515 6.4 3.426 9.334.912 2.933 2.18 6.711 2.82 8.396.64 1.684 1.17 6.784 1.178 11.333.013 4.549 1.024 11.27 2.259 14.937 1.893 5.626 2.214 11.977 2.054 40.667-.204 36.704-.733 40.886-9.528 75.333-2.247 8.8-4.096 17.148-4.11 18.55-.024 2.68-2.594 12.043-6.984 25.45-1.44 4.4-3.111 9.8-3.713 12l-3.209 11.724c-1.162 4.248-3.614 10.544-5.448 13.99-1.835 3.446-3.336 7.187-3.336 8.315 0 3.178-11.782 38.774-13.908 42.02-1.04 1.587-3.461 7.626-5.38 13.419-1.918 5.793-4.947 13.666-6.732 17.496-1.784 3.83-3.625 8.48-4.09 10.333-.465 1.854-1.314 3.37-1.886 3.37-.572 0-1.44 2.132-1.929 4.737-.489 2.605-1.683 5.041-2.654 5.414-.971.373-2.159 3.641-2.64 7.263-.48 3.622-1.44 6.586-2.135 6.586-.694 0-1.663 1.65-2.153 3.667-.49 2.016-2.602 6.9-4.692 10.854-2.09 3.953-3.8 8.17-3.8 9.37 0 1.2-.83 3.366-1.843 4.812-1.832 2.616-2.158 3.502-2.158 5.868 0 .681-.75 2.05-1.666 3.044-2.015 2.181-5.886 9.026-12.66 22.385-7.848 15.474-13.888 25.5-15.807 26.236-.96.368-2.648 3.766-3.749 7.55-1.1 3.785-3.228 7.763-4.726 8.842-1.499 1.078-2.725 2.728-2.725 3.666 0 .939-.75 1.71-1.667 1.716-.916.01-3.166 2.528-5 5.605-5.774 9.692-8.07 13.165-18.319 27.718-1.291 1.834-3.662 4.4-5.269 5.702-1.606 1.302-3.334 3.668-3.838 5.257-.504 1.59-3.786 5.624-7.292 8.966-3.506 3.341-7.565 8.475-9.02 11.409-1.454 2.933-3.986 6.533-5.626 8-1.64 1.466-4.408 4.912-6.152 7.656-1.744 2.745-5.595 6.52-8.558 8.39-2.962 1.87-5.774 4.425-6.248 5.677-.474 1.252-1.496 3.005-2.27 3.894-3.917 4.5-19.598 21.569-25.9 28.192-3.938 4.138-8.655 9.468-10.482 11.844-1.828 2.377-3.856 3.991-4.508 3.588-.651-.402-1.21-.247-1.242.347-.032.593-.954 10.678-2.049 22.412-1.095 11.733-2.548 32.733-3.228 46.666-.68 13.934-1.838 27.734-2.573 30.667-.735 2.933-1.591 9.833-1.903 15.333-.665 11.758-3.137 29.659-4.879 35.334-.675 2.2-2.807 16.3-4.738 31.333-1.93 15.033-4.085 28.411-4.788 29.728-.703 1.318-1.816 5.518-2.473 9.334-4.815 27.952-6.807 38.957-8.738 48.271-1.216 5.867-2.643 13.185-3.17 16.263-.528 3.077-1.563 6.377-2.3 7.333-.737.956-2.081 6.238-2.986 11.738-.904 5.5-2.501 12.919-3.548 16.486-1.046 3.568-1.903 8.032-1.903 9.92 0 5.539-2.82 19.314-4.696 22.928-1.94 3.74-3.688 11.801-6.774 31.228-1.156 7.276-2.967 14.55-4.025 16.164-1.863 2.844-4.532 14.441-5.202 22.607-.18 2.2-1.031 5.778-1.89 7.95-.86 2.174-2.2 6.974-2.977 10.667-.778 3.694-1.873 7.316-2.434 8.05-.56.733-1.32 3.433-1.688 6-.369 2.566-1.988 10.966-3.6 18.666-1.612 7.7-3.18 15.737-3.485 17.86-.305 2.122-1.131 4.553-1.835 5.401-.705.85-2.007 6.013-2.894 11.475s-1.981 10.231-2.432 10.598c-.766.624-5.857 23.952-8.146 37.333-2.23 13.03-5.078 35.013-7.17 55.333-2.112 20.505-3.647 33.52-5.975 50.667-.598 4.4-1.11 9.5-1.138 11.333-.073 4.68-2.568 53.757-4.507 88.667-1.867 33.6-1.668 146.148.27 152.904.696 2.426 1.283 12.216 1.306 21.754.023 9.538.638 21.842 1.368 27.342.73 5.5 1.952 16.9 2.716 25.333 2.72 30.043 3.713 39.523 5.655 54 1.083 8.067 2.681 21.567 3.554 30 .872 8.434 3.087 24.334 4.923 35.334 1.836 11 3.84 23.9 4.452 28.666.614 4.767 2.003 12.867 3.087 18 1.085 5.134 3.253 19.534 4.818 32 1.565 12.467 3.41 24.167 4.1 26 .689 1.834 1.883 9.03 2.653 15.99.77 6.962 2.322 16.862 3.45 22 1.129 5.14 2.569 13.844 3.201 19.344.632 5.5 2.113 16.3 3.29 24 1.179 7.7 3.555 26.9 5.282 42.666 1.727 15.767 3.716 30.167 4.42 32 .704 1.834 1.684 11.134 2.179 20.667.494 9.533 1.472 22.133 2.173 28 3.296 27.58 2.27 108.768-1.432 113.374-.608.756-1.254 4.649-1.437 8.65-.182 4.002-2.016 11.783-4.074 17.292-2.059 5.51-3.745 12.25-3.748 14.978 0 2.728-1.504 8.24-3.338 12.248-1.833 4.008-3.333 9.704-3.333 12.659 0 4.007-.678 5.734-2.667 6.8-1.466.784-2.666 2.643-2.666 4.13 0 2.365-1.274 5.524-8.504 21.091-.823 1.772-3.746 5.499-6.496 8.281-3.054 3.09-5 6.337-5 8.342 0 1.87-1.722 5.005-4 7.283-2.2 2.2-4 4.41-4 4.911 0 .5-1.5 2.09-3.334 3.533-1.833 1.442-3.333 3.497-3.333 4.567 0 1.07-.88 2.282-1.956 2.695-1.075.413-4.042 4.483-6.593 9.044-2.551 4.562-6.052 8.938-7.78 9.725-1.727.787-5.51 4.949-8.406 9.248-2.896 4.299-5.769 8.034-6.385 8.3-1.528.661-9.638 7.813-15.503 13.672-2.655 2.653-6.072 5.218-7.593 5.7-1.521.483-3.838 2.063-5.148 3.511-1.31 1.448-2.914 2.633-3.563 2.633-1.221 0-8.305 4.736-11.466 7.666-.989.917-2.242 1.667-2.784 1.667-.543 0-2.166 1.05-3.608 2.333-3.689 3.284-12.004 7.383-15.796 7.787-1.76.188-4.599 1.225-6.31 2.305-1.71 1.08-4.61 2.386-6.442 2.901-1.834.516-7.036 2.655-11.56 4.754-4.524 2.098-9.924 4.231-12 4.74-2.076.508-4.074 1.303-4.44 1.766-.796 1.005-13.587 4.072-19.565 4.692-2.327.241-5.027.935-6 1.541-.973.607-3.728 1.175-6.123 1.262-2.395.087-5.695.826-7.334 1.642-5.814 2.898-13.252 4.224-15.86 2.829-1.797-.962-7.466-.384-20.143 2.051-9.703 1.865-19.923 3.199-22.71 2.965-2.788-.235-5.33 0-5.652.518-.93 1.506-46.21 6.294-68.613 7.254-13.568.582-27.597 2.48-29.046 3.928-.39.39-1.469.08-2.397-.692-1.982-1.645-11.565-.207-10.467 1.57.406.658-4.212 1.187-10.354 1.187-6.098 0-13.153.593-15.677 1.317-2.588.742-4.91.807-5.325.15-.404-.643-3.134-.764-6.068-.27-2.933.494-7.858.525-10.943.071-3.086-.455-6.386-.335-7.334.266-.947.601-3.073 1.102-4.723 1.113-1.65.013-3 .694-3 1.517 0 1.041-.507 1.079-1.666.123-1.743-1.436-9.76-1.304-11.25.186-1.522 1.522-15.827.917-17.484-.739-1.244-1.244-1.955-1.244-3.2 0-.88.88-4.44 1.6-7.913 1.6-3.472 0-7.702.52-9.4 1.154-1.756.657-6.248.637-10.42-.047-4.033-.66-8.533-1.17-10-1.134a512.98 512.98 0 0 1-6 .104c-1.833.02-4.233.378-5.333.795-3.239 1.227-38.855 1.287-44.667.076zm109.759-100.133c.879-.543 2.715-.633 4.08-.2 2.592.823 51.312 1.13 70.717.447 7.696-.271 11.402-.937 11.796-2.118.444-1.333 1.002-1.367 2.465-.152 1.296 1.075 4.721 1.284 10.87.663 25.699-2.596 33.967-3.039 39.129-2.095 6.536 1.196 9.184.525 9.184-2.325 0-1.55.842-1.782 3.667-1.007 7.111 1.95 20.875 1.784 26.654-.321 3.215-1.171 7.585-1.747 10.13-1.334 2.46.4 9.174-.09 14.918-1.087 5.744-.998 10.833-1.573 11.31-1.279.476.295 3.818-.36 7.427-1.454 3.608-1.094 12.86-2.583 20.56-3.308 9.997-.942 14.452-1.918 15.578-3.415.868-1.153 3.568-2.275 6-2.493 5.49-.494 15.613-3.83 24.556-8.095 3.74-1.783 7.79-3.242 9-3.242s2.2-.563 2.2-1.252c0-.688 2.748-1.664 6.106-2.167 3.368-.505 6.435-1.772 6.839-2.825.403-1.05 1.539-1.6 2.524-1.222.986.378 3.458-.663 5.495-2.314 5.957-4.828 10.768-7.554 13.335-7.554 1.316 0 3.112-1.15 3.99-2.557.879-1.407 4.923-4.765 8.988-7.463 4.064-2.698 7.39-5.447 7.39-6.11 0-.661.9-1.203 2-1.203s2-.9 2-2 1.17-2 2.6-2c1.43 0 3.08-.812 3.667-1.805.586-.993 2.416-2.514 4.066-3.38 1.65-.867 3-2.454 3-3.528 0-1.075.624-1.954 1.387-1.954 1.881 0 11.909-10.917 11.93-12.988.013-.91 1.25-2.41 2.759-3.334 1.508-.922 4.039-3.778 5.624-6.344 1.585-2.567 3.95-5.83 5.258-7.252 1.306-1.421 2.375-3.371 2.375-4.333 0-.962.555-1.749 1.234-1.749 1.588 0 9.433-14.44 9.433-17.363 0-1.223 1.146-3.26 2.547-4.528 1.4-1.268 2.932-3.843 3.404-5.722.472-1.88 2.27-5.286 3.997-7.569 1.727-2.283 3.811-6.676 4.632-9.761.82-3.086 2.037-5.947 2.702-6.358.665-.411 2.164-4.187 3.331-8.39 1.167-4.203 3.08-9.36 4.254-11.462 1.172-2.1 2.443-7.8 2.824-12.666.38-4.866 1.302-9.242 2.047-9.724 1.996-1.293 2.79-52.226 1.108-71.123-.783-8.8-2.067-24.4-2.852-34.667-.786-10.267-2.001-21.367-2.701-24.667-.7-3.3-2.173-15.6-3.274-27.333-1.1-11.733-2.557-23.433-3.237-26-.68-2.567-1.9-7.187-2.71-10.268-.81-3.081-2.344-13.881-3.409-24-1.768-16.805-3.683-29.871-9.344-63.732-1.103-6.6-2.56-15.6-3.236-20-.676-4.4-2.475-15.5-3.997-24.667-1.522-9.166-3.704-22.366-4.85-29.333-2.506-15.25-3.758-22.418-6.52-37.333-3.119-16.848-12.76-95.346-15.394-125.334-6.217-70.79-7.413-192.083-2.512-254.666.718-9.167 1.796-25.14 2.396-35.495.6-10.355 1.505-19.498 2.011-20.317.507-.82 1.442-8.247 2.08-16.506 1.518-19.687 3.431-35.655 7.989-66.676.674-4.587 1.921-14.04 2.772-21.006.85-6.967 2.67-16.867 4.044-22 2.46-9.191 4.06-18.295 6.674-38 .73-5.5 1.838-10.936 2.462-12.08.624-1.143 1.836-5.643 2.694-10 2.712-13.776 5.597-26.385 7.455-32.587.989-3.3 2.78-10.8 3.982-16.667 1.202-5.866 3.035-13.816 4.074-17.666 4.241-15.708 5.769-21.775 9.65-38.334 2.235-9.533 4.456-19.88 4.935-22.993.479-3.112 1.419-5.998 2.088-6.412.67-.413 1.244-2.067 1.276-3.673.032-1.607.958-5.322 2.057-8.255 1.1-2.933 2.597-8.933 3.328-13.333 2.669-16.064 3.814-21.572 6.998-33.65 1.786-6.775 3.675-15.775 4.198-20 .523-4.226 1.415-8.284 1.982-9.017.567-.733 1.753-5.533 2.635-10.667a1229.38 1229.38 0 0 1 2.992-16.666c.764-4.034 1.915-11.234 2.557-16 .643-4.767 2.036-11.367 3.097-14.667 2.665-8.295 6.097-24.337 6.097-28.5 0-5.196 2.623-21.803 4.87-30.824 2.102-8.445 5.847-40.303 6.584-56.01.241-5.133.848-11.433 1.348-14 1.117-5.73 1.015-13.306-.196-14.47-.493-.474-1.882.604-3.085 2.396-1.203 1.792-3.005 3.892-4.005 4.666-1 .775-3.7 3.412-6 5.86-2.3 2.449-7.104 6.603-10.675 9.23-3.57 2.629-12.04 10.309-18.82 17.067-6.78 6.759-14.059 13.405-16.174 14.77-2.116 1.365-6.547 5.415-9.847 9-17.88 19.428-23.207 24.814-24.534 24.808-5.994-.031-18.132-6.754-18.132-10.043 0-.59-.886-2.051-1.968-3.247-3.237-3.577-4.524-19.14-3.31-40.036.617-10.634 1.765-23.204 2.551-27.935 1.407-8.467 10.557-29.158 14.249-32.222.996-.827 1.81-2.321 1.81-3.32 0-2.063 22-24.523 24.02-24.523.723 0 1.314-.627 1.314-1.392 0-1.542 21.61-22.63 30-29.275 7.569-5.995 24.156-22.166 32-31.197 3.667-4.221 9.584-10.663 13.15-14.316l6.482-6.64.511-56.257c.281-30.941.876-57.973 1.323-60.072 1.005-4.724 4.624-46.404 5.052-58.185.279-7.656 1.584-13.69 6.222-28.76.693-2.253 1.26-5.705 1.26-7.672 0-1.968 1.2-5.816 2.667-8.553 1.467-2.736 2.687-5.884 2.712-6.995.025-1.11 1.204-4.42 2.621-7.353s2.597-6.01 2.622-6.837c.025-.826.865-2.184 1.868-3.016 2.364-1.962 3.99.044 5.82 7.186.752 2.934 2.647 9.998 4.21 15.698 4.433 16.16 7.024 57.629 7.284 116.603.191 43.166.53 51.265 2.21 52.916 1.745 1.712 2.39 1.591 5.32-.997 1.833-1.62 4.984-5.333 7.001-8.25 2.018-2.916 7.268-9.185 11.667-13.93 4.4-4.745 7.998-9.095 7.998-9.667 0-.571.828-1.04 1.839-1.04 1.01 0 2.622-1.892 3.58-4.207.959-2.314 3.282-5.825 5.162-7.804 1.88-1.978 4.32-5.008 5.42-6.734 1.1-1.726 4.85-6.149 8.333-9.83 3.483-3.68 6.333-7.756 6.333-9.058 0-1.301.527-2.366 1.172-2.366.644 0 1.917-1.8 2.828-4 .911-2.2 2.191-4 2.845-4 .653 0 3.215-3.15 5.692-7 2.477-3.85 6.07-8.455 7.983-10.233 1.914-1.777 3.48-4.223 3.48-5.434 0-1.21 1.5-3.61 3.333-5.333 1.834-1.723 3.334-3.845 3.334-4.716s1.8-3.85 4-6.618c2.2-2.768 4-6.077 4-7.353 0-1.276.882-3.052 1.96-3.947 1.078-.894 5.352-8.618 9.497-17.163 4.146-8.545 8.04-16.437 8.653-17.537.613-1.1 2.692-5.3 4.618-9.333 1.927-4.033 4.051-8.375 4.72-9.648.67-1.274 1.218-2.936 1.218-3.695 0-.759 1.723-5.117 3.829-9.685 2.105-4.568 5.749-13.405 8.096-19.639 2.347-6.233 5.51-14.633 7.031-18.666 1.52-4.034 3.877-9.85 5.238-12.927 1.36-3.076 2.473-6.406 2.473-7.4 0-.994.505-2.377 1.122-3.073.618-.697 1.86-4.717 2.763-8.934.902-4.216 2.072-7.666 2.601-7.666 1.017 0 2.813-5.285 9.518-28 2.273-7.7 4.737-15.8 5.476-18 .74-2.2 1.586-5.111 1.881-6.47.296-1.358 1.223-3.293 2.059-4.301 1.976-2.381 12.022-41.517 14.52-56.563.669-4.033 2.5-14.533 4.07-23.333 1.906-10.693 2.583-18.432 2.04-23.333-1.024-9.249-5.424-28.884-8.815-39.334-1.427-4.4-2.59-9.05-2.582-10.333.013-1.283-.49-2.333-1.106-2.333-.616 0-1.912-2.4-2.88-5.334-.968-2.933-2.17-5.333-2.67-5.333s-1.625-2.393-2.502-5.318c-2.668-8.908-9.768-23.142-18.453-36.995-2.406-3.838-4.375-7.202-4.375-7.475 0-1.39-19.584-34.208-21.21-35.545-.446-.367-3.655-4.867-7.13-10-12.112-17.889-37.926-52.299-45.513-60.667-5.56-6.133-11.966-14.554-14.052-18.472-.919-1.726-4.166-5.736-7.216-8.912-9.903-10.311-14.213-15.334-14.213-16.565 0-1.372-11.43-16.344-16.326-21.384-1.78-1.834-4.632-5.434-6.335-8-1.704-2.567-4.352-6.023-5.885-7.68-5.587-6.043-7.108-7.842-15.49-18.32-4.694-5.867-8.856-10.967-9.249-11.334-.393-.366-3.392-3.966-6.665-8-3.272-4.033-6.722-7.813-7.666-8.4-.945-.586-1.717-1.936-1.717-3 0-1.063-.45-1.947-1-1.964-.55-.018-2.765-2.418-4.922-5.334-2.158-2.916-4.708-5.302-5.667-5.302-.96 0-1.744-.6-1.744-1.333 0-1.344-2.173-4.085-7.643-9.643a1047.692 1047.692 0 0 1-8-8.274c-16.536-17.283-33.673-33.451-50.357-47.51-3.667-3.09-6.967-5.985-7.334-6.436-.366-.45-2.823-2.425-5.458-4.387-2.636-1.963-6.997-5.71-9.691-8.326-2.695-2.616-5.557-4.757-6.36-4.757-.804 0-4.843-2.922-8.976-6.494-4.133-3.571-11.394-8.994-16.135-12.051-4.74-3.057-8.94-5.985-9.333-6.507-.392-.521-2.813-2.067-5.38-3.435-2.567-1.367-5.867-3.845-7.333-5.505-1.467-1.66-6.867-5.276-12-8.035-5.134-2.76-11.97-6.43-15.194-8.159-3.223-1.728-6.526-3.695-7.34-4.37-.815-.677-3.124-1.642-5.131-2.146-2.008-.504-3.33-1.434-2.938-2.068.391-.634-.963-1.54-3.01-2.014-2.046-.474-5.976-2.624-8.732-4.778-2.756-2.153-5.617-3.54-6.357-3.083-.741.458-3.357-.41-5.813-1.928-2.457-1.518-5.201-2.76-6.1-2.76-.897 0-3.157-1.2-5.021-2.667-1.865-1.467-4.66-2.674-6.21-2.683-1.552-.009-5.423-1.504-8.604-3.322-3.18-1.818-9.126-4.179-13.21-5.246-4.085-1.066-7.79-2.524-8.23-3.239-.442-.714-2.598-1.73-4.79-2.255-2.193-.526-4.587-1.39-5.32-1.918-.734-.53-3.332-1.341-5.773-1.804-2.442-.463-6.342-1.666-8.667-2.673-9.316-4.036-15.174-6.163-20.894-7.589-7.763-1.935-18.608-5.205-22-6.633-1.466-.618-4.466-1.385-6.666-1.705-2.2-.32-6.7-1.525-10-2.679-3.3-1.153-9.9-3.068-14.667-4.255a662.426 662.426 0 0 1-17.333-4.622c-4.767-1.355-11.067-2.873-14-3.373-2.934-.5-5.934-1.393-6.667-1.984-.733-.59-5.533-1.792-10.667-2.67-17.847-3.053-21.374-3.771-28.374-5.778-3.872-1.11-11.522-2.439-17-2.952-5.477-.514-9.959-1.397-9.959-1.964 0-1.123-3.269-1.731-23.333-4.342-2.2-.286-5.2-1.142-6.667-1.901-1.467-.76-6.98-1.764-12.25-2.232-5.272-.468-11.038-1.404-12.815-2.079-1.776-.675-10.063-1.62-18.415-2.1-8.353-.48-17.287-1.401-19.853-2.047-14.956-3.766-129.626-5.982-185.334-3.582-41.78 1.8-74.023 3.84-80.769 5.112-3.723.701-7.767.892-8.985.424-1.22-.467-6.573.05-11.898 1.149-5.324 1.1-10.881 1.972-12.348 1.939-7.312-.165-32.702 1.97-37.987 3.195-3.307.766-14.113 1.981-24.013 2.7-9.9.72-21.9 1.597-26.666 1.95-4.767.353-11.067 1.228-14 1.944-6.642 1.623-12.263 2.358-23.283 3.041-4.797.298-8.84 1.206-9.121 2.05-.338 1.015-2.629 1.234-6.931.663-4.39-.582-8.26-.188-12.212 1.243-3.183 1.152-11.355 2.81-18.162 3.684-6.806.874-12.692 2.102-13.079 2.728-1.043 1.688-8.546 1.38-8.546-.35 0-.93-1.127-1.142-3-.564-6.157 1.9-13.885 3.424-21 4.141-4.033.407-9.733 1.38-12.666 2.16-2.934.782-7.532 1.495-10.22 1.586-2.687.09-5.337.615-5.889 1.165-.551.55-2.702 1-4.78 1-2.078 0-3.778.503-3.778 1.117 0 .615-2.63 1.217-5.846 1.339-3.216.121-8.355 1.106-11.42 2.187-3.065 1.081-5.984 1.862-6.487 1.734-2.989-.76-33.347 4.075-36.715 5.848-1.358.715-6.458 1.805-11.334 2.421-10.288 1.302-18.25 3.234-20.57 4.992-.895.679-5.798 1.327-10.895 1.44-5.096.112-11.168 1.107-13.493 2.21-2.324 1.103-8.354 2.597-13.4 3.319-5.045.722-12.173 2.157-15.84 3.189s-11.467 2.872-17.333 4.09c-5.867 1.218-12.51 2.792-14.762 3.498-2.252.705-5.268 1.283-6.703 1.283-1.435 0-3.893.9-5.464 2-1.57 1.1-3.75 1.656-4.843 1.236-1.093-.42-3.692.096-5.775 1.147-2.082 1.05-9.644 3.262-16.803 4.917-7.16 1.655-13.345 3.54-13.746 4.187-.4.649-2.424 1.18-4.497 1.18s-5.412.852-7.42 1.894c-2.01 1.042-4.538 1.554-5.621 1.139-1.083-.416-2.472.06-3.088 1.055-.615.995-3.104 1.91-5.532 2.03-7.41.371-16.608 3.003-40.413 11.565-5.133 1.847-12.569 3.705-16.524 4.13-3.954.425-9.954 2.202-13.333 3.948-3.379 1.747-7.937 3.613-10.13 4.146-2.192.534-4.433 1.673-4.98 2.531-.745 1.173-.997 1.157-1.013-.063-.023-1.833-3.566-.92-6.687 1.724-2.485 2.105-13.486 5.964-14.76 5.176-.515-.319-1.679.314-2.585 1.406-.906 1.092-2.624 1.982-3.818 1.978-2.027-.007-12.125 3.017-18.17 5.44-1.467.588-6.267 2.032-10.667 3.21-8.21 2.198-17.007 5.972-17.752 7.616-.231.508-1.225.616-2.21.238-1.851-.71-13.595 2.814-16.005 4.803-.751.62-5.134 2.103-9.74 3.295-9.757 2.524-14.96 4.71-14.96 6.286 0 .615-.78 1.12-1.734 1.12-2.532 0-8.91 3.153-8.922 4.411-.01.593-.598.715-1.316.271-1.73-1.069-13.4 2.943-16.369 5.628-1.288 1.164-2.704 1.755-3.146 1.312-.443-.442-2.935.337-5.54 1.733-2.603 1.395-5.17 2.268-5.702 1.939-.532-.33-1.71.295-2.616 1.386-.906 1.092-3.374 1.986-5.484 1.986s-3.837.6-3.837 1.333-1.2 1.333-2.667 1.333c-1.466 0-2.666.454-2.666 1.008 0 1.264-12.338 6.992-15.061 6.992-1.11 0-5.57 2.01-9.915 4.465-4.344 2.455-9.502 4.867-11.461 5.359-1.96.491-3.563 1.482-3.563 2.202s-1.5 1.308-3.334 1.308c-1.833 0-3.333.526-3.333 1.169s-2.966 2.445-6.59 4.004c-3.626 1.56-6.961 3.434-7.413 4.164-.451.731-2.236 1.33-3.965 1.33-1.729 0-3.343.45-3.588 1-.244.55-3.744 2.687-7.777 4.75-4.034 2.063-8.234 4.265-9.334 4.894-1.1.629-4.7 2.462-8 4.074l-10.331 5.05c-2.382 1.165-4.673 3.194-5.09 4.508-.417 1.315-1.798 2.39-3.069 2.39-1.27 0-2.88.544-3.576 1.208-2.35 2.24-11.332 6.792-13.403 6.792-2.39 0-12.967 5.98-15.08 8.525-.792.955-5.043 3.167-9.446 4.916-4.402 1.749-8.005 3.849-8.005 4.667 0 .818-2.42 2.579-5.38 3.913-2.958 1.334-6.839 3.779-8.623 5.432-1.784 1.654-4.567 3.427-6.185 3.94-1.617.513-3.586 1.45-4.376 2.083-7.648 6.127-9.797 7.606-12.102 8.331-1.467.462-5.293 3.244-8.502 6.183-3.21 2.939-6.887 5.343-8.173 5.343-2.278 0-11.992 9.862-11.992 12.174 0 .638-.895 1.16-1.988 1.16-1.784 0-12.995 7.506-15.786 10.569-4.024 4.415-8.809 9.104-11.36 11.133-1.639 1.303-2.619 2.953-2.177 3.667.44.713-.134 1.297-1.277 1.297-1.143 0-4.479 2.4-7.412 5.334-2.933 2.933-5.933 5.333-6.667 5.333-.733 0-1.333.952-1.333 2.116 0 1.164-1.795 2.793-3.989 3.621-2.69 1.016-4.862 3.365-6.673 7.218-1.477 3.141-3.19 5.712-3.808 5.712-.617 0-2.363 1.05-3.88 2.333-1.517 1.283-3.763 2.939-4.992 3.678-1.228.74-2.329 2.944-2.446 4.9-.161 2.707-1.06 3.724-3.771 4.267-2.007.401-3.937 1.9-4.424 3.435-.475 1.498-2.017 3.34-3.427 4.094-1.41.755-3.462 3.112-4.562 5.238-1.1 2.126-3.055 4.21-4.347 4.63-1.291.42-3.494 3.163-4.896 6.095-1.4 2.931-3.06 5.33-3.688 5.33-.627 0-2.139 2.094-3.36 4.653-1.22 2.56-3.31 5-4.644 5.423-1.335.424-2.426 1.537-2.426 2.474 0 .937-1.2 2.79-2.667 4.116-1.467 1.328-2.667 3.167-2.667 4.088 0 .92-3.297 6.678-7.326 12.793-4.03 6.116-7.33 12.426-7.333 14.023-.004 1.596-1.427 4.02-3.161 5.384-1.735 1.364-3.558 3.753-4.052 5.31-.494 1.555-1.774 3.556-2.846 4.445-1.072.89-1.948 3.05-1.948 4.8s-1.725 4.987-3.834 7.193c-2.336 2.444-4.173 6.14-4.704 9.46-.48 2.997-2.354 7.393-4.167 9.769-1.812 2.376-3.295 5.578-3.295 7.116 0 1.537-.6 3.166-1.334 3.62-.733.453-1.333 2.524-1.333 4.602 0 2.129-.873 4.114-2 4.546-1.1.422-2.02 1.537-2.045 2.476-.025.94-1.175 4.098-2.555 7.017-1.38 2.92-2.183 5.837-1.784 6.482.4.646-.015 1.632-.92 2.192-.906.56-1.782 2.744-1.948 4.855-.166 2.112-.932 5.037-1.7 6.5-.77 1.465-1.842 4.763-2.384 7.33-.542 2.566-1.852 6.363-2.912 8.437-1.06 2.073-2.12 5.373-2.355 7.333-.234 1.96-.536 3.563-.67 3.563-.4 0-1.6 7.817-1.58 10.307.008 1.269-.51 2.633-1.155 3.03-.644.4-1.586 3.488-2.092 6.865-.612 4.079-1.667 6.335-3.142 6.72-1.838.482-2.233 2.473-2.29 11.545-.039 6.03-.76 12.253-1.602 13.827-.843 1.575-1.554 5.753-1.58 9.285-.026 3.531-.905 7.92-1.953 9.754-1.048 1.833-1.926 5.583-1.952 8.333-.026 2.75-.648 5-1.381 5s-1.333 1.132-1.333 2.515c0 1.383-.897 4.233-1.992 6.333-1.096 2.1-2.004 5.32-2.02 7.152-.015 1.834-1.009 6.034-2.208 9.334-2.837 7.803-4.813 19.895-4.957 30.333-.08 5.858-.626 8.333-1.835 8.333-2.346 0-4.041 5.02-3.603 10.667.208 2.669-.767 6.906-2.276 9.896-2.203 4.366-2.682 8.286-2.896 23.73-.18 12.966-.748 18.802-1.899 19.513-2.908 1.798-4.293 35.768-2.508 61.528.584 8.433 1.233 19.329 1.443 24.212.51 11.898 3.377 34.385 4.866 38.163.66 1.673 1.762 7.973 2.45 14 .687 6.027 1.666 12.034 2.174 13.349.842 2.18 1.127 2.207 3.233.301 1.3-1.177 3.288-1.714 4.551-1.229 1.239.475 3.265-.034 4.526-1.137 1.256-1.099 4.684-2.818 7.617-3.821 2.934-1.003 5.682-2.298 6.108-2.877 1.036-1.41 9.001-5.978 13.559-7.776 2.017-.795 3.667-1.987 3.667-2.649 0-.662 1.2-1.203 2.666-1.203 1.467 0 2.667-.504 2.667-1.12 0-.616 2.55-1.888 5.667-2.826 7.574-2.282 14.033-5.54 16.623-8.387 1.168-1.284 3.195-2.334 4.505-2.334s2.7-.517 3.091-1.149c.98-1.587 19.116-10.85 21.241-10.85.95 0 3.03-1.5 4.624-3.334 1.594-1.833 4.029-3.333 5.41-3.333 1.382 0 3.24-.877 4.13-1.949.889-1.071 2.912-2.352 4.496-2.846 1.584-.494 4.85-2.617 7.26-4.718 2.408-2.101 4.976-3.82 5.705-3.82.73 0 4.363-2.4 8.074-5.334 3.71-2.933 7.559-5.333 8.551-5.333.993 0 2.723-1.31 3.845-2.913 1.122-1.602 3.392-3.119 5.044-3.37 1.652-.253 3.491-1.33 4.087-2.396.596-1.065 3.672-3.453 6.836-5.307 3.164-1.854 6.834-4.566 8.155-6.026 1.321-1.46 3.076-2.655 3.899-2.655s3.467-1.8 5.875-4c2.41-2.2 5.12-4 6.026-4 .906 0 5.519-3.292 10.251-7.315 4.733-4.023 9.055-7.323 9.605-7.333.55-.011 1.002-.769 1.005-1.685.003-.917 2.704-2.777 6.003-4.134 3.308-1.36 6.94-4.052 8.095-6 1.153-1.943 5.065-5.315 8.693-7.493 3.696-2.219 6.32-4.681 5.969-5.599-.346-.901.094-1.36.979-1.021.884.339 5.555-3.141 10.38-7.735 13.201-12.567 18.22-17.018 19.192-17.018.484 0 3.034-2.4 5.667-5.334 2.633-2.933 5.388-5.333 6.12-5.333.734 0 5.384-3.6 10.335-8 4.951-4.4 9.632-8 10.402-8 .77 0 2.042-1.2 2.827-2.667.785-1.466 2.094-2.666 2.91-2.666 1.313 0 10.824-7.128 15.483-11.604.949-.912 4.099-2.37 7-3.238 2.9-.87 5.273-2.013 5.273-2.54 0-.53 1.8-1.707 4-2.618 2.2-.911 4-2.165 4-2.787 0-.621.839-.808 1.864-.414 1.025.393 2.975-.446 4.334-1.865 1.358-1.42 4.869-3.33 7.802-4.248 2.934-.917 7.134-2.433 9.334-3.368 2.2-.934 4.9-2.06 6-2.5 1.1-.44 2.9-1.347 4-2.014 2.016-1.223 14.243-3.651 25.333-5.031 3.3-.41 6.392-1.37 6.872-2.132.695-1.103 17.724-2.22 37.128-2.436 5.333-.059 19.93 2.397 21.528 3.623.993.762 5.594 1.504 10.226 1.65 6.399.202 9.603 1.049 13.351 3.53 3.471 2.296 6.074 3.056 8.786 2.564 2.12-.385 4.812-.263 5.982.27s3.027 1.098 4.127 1.256c1.1.157 4.7.97 8 1.806 3.3.836 7.8 1.746 10 2.023 5.8.73 33.97 6.898 38.667 8.467 11.331 3.786 17.963 5.606 20.433 5.606 1.509 0 3.113.6 3.567 1.333.453.733 1.796 1.333 2.985 1.333 2.83 0 15.015 5.52 15.015 6.801 0 .546 2.25 1.71 5 2.588 8.279 2.641 28.045 14.465 29.444 17.611.245.55 1 1 1.678 1 .679 0 3.719 1.8 6.756 4 3.037 2.2 6.332 4 7.322 4 .99 0 1.8.854 1.8 1.898 0 2.68 6.512 10.102 8.864 10.102 1.078 0 1.589.6 1.136 1.334-.454.733-.228 1.333.501 1.333.73 0 3.015 2.387 5.079 5.305 2.064 2.918 4.406 5.318 5.203 5.333 1.695.033 24.942 22.804 31.698 31.05 2.548 3.108 7.382 7.712 10.742 10.23 3.36 2.518 6.11 5.366 6.11 6.33a1.75 1.75 0 0 0 1.74 1.752c2.264 0 16.927 14.662 16.927 16.928 0 .956.9 1.739 2 1.739s2 .6 2 1.333 1.534 1.333 3.408 1.333c3.666 0 16.592 12.14 16.592 15.584 0 1.008.888 2.174 1.973 2.59 1.085.417 3.269 2.855 4.853 5.418 1.584 2.563 4.296 6.077 6.027 7.807 1.73 1.73 3.147 4.059 3.147 5.173 0 1.115 1.744 2.929 3.876 4.031 2.132 1.103 7.336 5.25 11.565 9.218l7.688 7.212.596 11.354c.572 10.902.443 11.548-3.232 16.23-7.254 9.245-19.37 12.26-30.703 7.642-5.806-2.365-14.064-9.381-18.257-15.509-1.357-1.983-5.266-5.327-8.686-7.432-3.421-2.105-9.9-7.612-14.4-12.239-4.498-4.626-12.14-12.182-16.98-16.79-4.84-4.608-8.8-8.958-8.8-9.667 0-.708-.75-1.288-1.667-1.289-1.7 0-12.952-12.274-13.06-14.247-.033-.597-3.407-4.086-7.498-7.752-13.547-12.143-49.776-48.433-49.776-49.862 0-.771-1.672-2.268-3.716-3.325-2.044-1.057-9.32-7.372-16.168-14.034-6.848-6.662-13.206-12.113-14.129-12.113-.922 0-3.845-2.4-6.495-5.333-2.65-2.933-6.02-5.333-7.488-5.333-1.469 0-2.67-.551-2.67-1.225 0-2.144-8.455-6.459-14.638-7.47-5.658-.925-11.667-3.788-13.556-6.46-.83-1.174-3.22-1.585-15.516-2.672-3.14-.278-6.74-1.383-8-2.456-1.26-1.073-5.89-2.712-10.29-3.643-4.4-.931-8.909-2.494-10.02-3.472-1.11-.98-8.46-2.545-16.333-3.48-7.873-.935-14.314-2.124-14.314-2.641 0-.518-2.25-1.63-5-2.474-2.75-.843-7.4-2.615-10.333-3.937-7.873-3.55-17.05-5.353-32-6.286-16.943-1.057-17.85-.996-20.483 1.366-1.32 1.185-3.612 1.683-5.794 1.26-1.986-.385-6.442.266-9.904 1.445-3.462 1.18-7.653 2.145-9.315 2.145-1.66 0-3.878 1.225-4.927 2.723-1.049 1.497-2.433 2.578-3.076 2.402-1.464-.401-7.607 1.603-8.501 2.774-.367.48-4.567 2.57-9.334 4.645-4.766 2.075-10.04 5.201-11.72 6.948-1.68 1.746-4.148 3.174-5.485 3.174-1.337 0-3.863 1.417-5.613 3.149-1.75 1.731-5.059 4.109-7.353 5.284-2.295 1.174-4.526 3.058-4.959 4.185-.432 1.127-1.8 2.05-3.04 2.05-1.949 0-14.246 8.35-18.661 12.672-.824.807-4.074 3.535-7.222 6.064-3.149 2.528-8.713 7.746-12.365 11.596-3.653 3.85-7.471 7-8.487 7-1.015 0-2.208.946-2.652 2.103-.443 1.156-2.225 2.64-3.958 3.3-1.733.659-3.151 2.073-3.151 3.141 0 1.069-1.216 2.33-2.703 2.801-1.486.472-3.655 2.312-4.82 4.09-1.164 1.778-2.641 3.232-3.281 3.232-.64 0-4.622 3.471-8.847 7.714-4.225 4.242-9.907 9.075-12.626 10.74-2.72 1.665-6.43 4.794-8.248 6.953-1.817 2.16-3.792 3.934-4.39 3.943-.597.01-3.661 2.41-6.81 5.333-3.149 2.925-6.316 5.317-7.04 5.317-1.068 0-8.692 5.416-16.653 11.83-.78.629-2.88 1.915-4.666 2.859-1.787.944-4.985 3.397-7.106 5.452-2.121 2.054-6.021 4.75-8.667 5.989-2.645 1.239-7.187 4.117-10.093 6.395-2.905 2.278-4.82 3.392-4.255 2.475 1.485-2.407.622-2.084-4.462 1.667-2.485 1.833-5.602 3.333-6.926 3.333-1.324 0-3.607 1.2-5.074 2.667-1.467 1.466-3.326 2.666-4.132 2.666-1.628 0-18.063 8.735-21.201 11.268-3.953 3.19-14.519 8.732-16.65 8.732-1.196 0-1.859.511-1.473 1.136.386.624-2.878 2.22-7.254 3.544-4.376 1.325-7.957 2.95-7.957 3.61 0 .66-.45.946-1 .633-.55-.312-2.8.545-5 1.906-6.529 4.037-20.747 10.505-23.093 10.505-.747 0-3.056.912-5.132 2.026-2.076 1.115-5.275 2.614-7.108 3.33-1.833.718-4.233 1.873-5.333 2.569-1.1.696-4.267 1.627-7.037 2.07-2.77.444-4.728 1.308-4.349 1.92.379.613-4.405 2.736-10.63 4.718-6.225 1.982-11.318 4.15-11.318 4.819 0 .668-1.16 1.214-2.577 1.214-4.189 0-6.03 11.216-2.824 17.207 1.604 2.997 1.977 28.994.854 59.46-.404 10.948-3.559 37.267-6.313 52.667-.852 4.766-1.788 12.266-2.078 16.666-1.086 16.437-1.183 93.803-.134 106 1.329 15.44 6.128 37.483 10.306 47.334.622 1.466 1.888 6.866 2.812 12 .925 5.133 2.427 11.133 3.339 13.333.911 2.2 3.582 10 5.935 17.333 2.352 7.334 5.959 16.934 8.014 21.334 2.055 4.4 5.363 12.05 7.351 17 1.989 4.95 4.059 9 4.601 9 .542 0 2.96 4.35 5.371 9.666 2.412 5.317 5.663 11.467 7.225 13.667 1.561 2.2 3.72 5.728 4.797 7.84 1.077 2.113 3.247 4.428 4.822 5.146 1.813.826 3.132 2.954 3.594 5.8.4 2.472 2.12 6.456 3.82 8.854 3.918 5.525 5.8 8.616 8.505 13.965 1.187 2.35 3.004 4.974 4.036 5.83 1.033.857 1.897 2.235 1.92 3.062.023.827 2.149 3.6 4.723 6.163 2.575 2.563 5.033 6.06 5.462 7.773.43 1.712 1.937 3.54 3.349 4.063 1.58.584 4.437 5.287 7.428 12.227 2.673 6.202 5.929 12.427 7.234 13.832 2.52 2.714 5.984 7.753 13.136 19.112 2.425 3.85 4.837 7 5.361 7 .525 0 1.298 1.05 1.719 2.333.42 1.283 2.277 4.733 4.126 7.667 7.31 11.6 34.086 62.406 34.086 64.674 0 .6 2.4 5.254 5.334 10.342 2.933 5.088 5.333 10.209 5.333 11.38 0 1.171 1.5 4.95 3.333 8.398 1.834 3.448 3.334 7.244 3.334 8.435 0 1.19 1.5 8.078 3.333 15.306 1.833 7.227 3.327 14.113 3.32 15.302-.013 2.149 14.035 43.35 18.694 54.83 1.34 3.3 6.134 17.7 10.655 32 4.521 14.3 9.429 28.668 10.906 31.93 1.478 3.261 4.36 10.461 6.405 16 2.045 5.538 4.929 12.77 6.408 16.07 1.48 3.3 3.756 8.7 5.06 12 1.303 3.3 3.674 7.8 5.268 10 3.87 5.34 8.617 14.769 8.617 17.117 0 1.04 3.9 7.805 8.667 15.035 4.767 7.23 8.667 13.933 8.667 14.896 0 .963 3.342 6.66 7.428 12.66 4.085 5.998 7.758 12.555 8.16 14.57.403 2.014 1.56 4.349 2.572 5.188 1.012.84 1.84 2.353 1.84 3.363 0 1.01.54 1.837 1.201 1.837s2.451 1.95 3.979 4.333c4.415 6.89 12.486 17.63 13.583 18.073 1.564.632 7.903 6.709 7.903 7.576 0 .427 4.436 7.279 9.857 15.227 5.42 7.949 10.285 15.878 10.81 17.622 1.715 5.698 16.494 32.503 24.054 43.628 1.803 2.655 3.28 5.908 3.28 7.228 0 1.321 1.522 5.407 3.383 9.08s3.915 9.203 4.564 12.289c.65 3.086 2.42 10.41 3.936 16.277 3.407 13.191 6.049 31.156 5.882 40-.41 21.729-1.248 36.594-2.11 37.456-.544.544-.99 4.197-.99 8.118 0 3.921-.53 8.171-1.177 9.445-2.898 5.697-4.013 9.473-4.809 16.29-.47 4.02-1.427 7.663-2.129 8.096-.702.434-1.73 3.445-2.283 6.692-.555 3.247-1.517 5.704-2.14 5.46-1.854-.727-6.11 6.82-6.119 10.853-.016 6.948-2.97 15.628-6.176 18.15-1.741 1.37-3.166 3.342-3.166 4.382 0 1.04-1.2 4.375-2.667 7.41-1.466 3.036-2.666 6.084-2.666 6.775 0 .69-.869 1.588-1.93 1.995-1.062.408-2.624 3.322-3.472 6.476-.847 3.155-1.946 6.036-2.441 6.402-1.052.78-9.49 19.063-9.49 20.563 0 .56-1.2 2.542-2.667 4.407-1.467 1.865-2.667 4.74-2.667 6.388 0 1.877-.997 3.259-2.667 3.695-1.707.447-2.668 1.822-2.671 3.823-.003 1.718-1.215 5.108-2.693 7.533-3.05 5.002-11.23 25.551-12.576 31.591-2.991 13.426-3.08 17.355-.553 24.667 1.57 4.544 3.03 14.274 3.84 25.579.72 10.035 2.143 21.451 3.164 25.37 2.189 8.404 9.541 22.81 16.816 32.95 7.742 10.79 29.734 34.474 35.673 38.416 1.65 1.096 3 2.823 3 3.838 0 1.016.64 1.847 1.42 1.847.782 0 4.682 3.21 8.667 7.132 3.986 3.922 7.247 6.622 7.247 6 0-2.288 2.514-1.046 3.375 1.666 1.19 3.749 4.246 6.654 13.418 12.755 4.229 2.813 9.002 6.014 10.608 7.114 5.24 3.59 29.77 22.882 39.045 30.706 1.713 1.445 3.318 2.627 3.569 2.627.25 0 4.986 3 10.523 6.667 5.536 3.666 10.56 6.666 11.162 6.666.603 0 3.593 2.4 6.646 5.334 3.053 2.933 6.654 5.333 8.002 5.333 1.348 0 3.172.72 4.052 1.6.88.88 1.609 1.03 1.62.333.011-.696.461-.637 1 .132.539.77 5.33 4.266 10.646 7.77 5.317 3.503 9.667 6.885 9.667 7.515 0 .629 2.1 1.904 4.667 2.832 2.566.928 4.666 2.326 4.666 3.108 0 1.442 13.396 10.043 15.643 10.043.674 0 2.635 1.5 4.357 3.334 1.723 1.833 4.077 3.341 5.233 3.35 1.155.014 5.4 3.02 9.434 6.69 4.033 3.67 9.937 7.995 13.12 9.612 3.183 1.618 6.924 4.537 8.313 6.488 1.389 1.95 5.085 4.763 8.213 6.25 3.128 1.488 8.687 5.438 12.354 8.78 3.667 3.34 7.034 6.094 7.483 6.119.45.024 3.116 1.871 5.927 4.105 2.81 2.233 7.021 4.968 9.358 6.077 2.337 1.108 7.008 4.66 10.38 7.89 3.372 3.232 8.094 6.881 10.492 8.11 2.398 1.229 4.66 2.685 5.027 3.235.366.55 3.64 3.453 7.273 6.45 4.68 3.862 6.9 4.976 7.614 3.82.734-1.187 1.536-.907 2.952 1.03 1.07 1.463 2.458 2.66 3.085 2.66.627 0 2.92 1.65 5.094 3.667 2.175 2.017 4.618 3.667 5.428 3.667.81 0 2.497 1.13 3.747 2.512 1.25 1.382 4.959 3.264 8.241 4.183s6.297 2.204 6.7 2.856c.404.653 5.721 3.578 11.817 6.501 6.096 2.924 11.825 6.208 12.73 7.298.905 1.09 3.372 1.983 5.482 1.983 2.11 0 3.837.597 3.837 1.327s2.85 2.611 6.333 4.182c3.483 1.57 9.333 4.206 13 5.856 3.667 1.65 8.61 3.414 10.985 3.92 2.375.506 4.66 1.474 5.078 2.151.419.677 2.199 1.23 3.956 1.23 1.758 0 5.406 1.5 8.108 3.334 2.701 1.833 5.895 3.333 7.096 3.333 1.2 0 3.367.823 4.814 1.828 1.446 1.006 5.03 1.845 7.963 1.867 3.281.024 8.411 1.622 13.333 4.155 4.4 2.264 9.27 4.124 10.82 4.134 1.552.013 4.35 1.22 6.22 2.69 1.87 1.471 3.6 2.136 3.847 1.478.494-1.324 29.515 7.75 30.224 9.45.245.586 1.392 1.065 2.55 1.065 2.154 0 13.842 3.1 21.006 5.572 12.183 4.204 54.74 14.02 64.655 14.913 2.72.245 5.487.773 6.146 1.174.66.402 6.449 1.163 12.866 1.693 6.416.53 11.666 1.493 11.666 2.14 0 .646 1.98 1.175 4.4 1.175 2.42 0 5.114.714 5.987 1.586.935.936 6.903 1.775 14.544 2.045 9.506.336 13.586 1.026 15.313 2.59 2.16 1.955 2.646 1.94 5.89-.186 2.82-1.848 3.752-1.966 4.607-.583.701 1.135 3.375 1.612 7.738 1.38 5.115-.27 7.261.241 9.222 2.202 2.18 2.18 4.772 2.593 17.65 2.82 8.302.145 15.483.504 15.958.797.474.293 6.524.924 13.443 1.402 6.92.478 13.058 1.163 13.64 1.523.582.36 1.856-.013 2.831-.818 1.92-1.593 6.11-.595 6.11 1.455 0 .693 3.75 1.271 8.334 1.284 19.608.055 29.858.777 32.667 2.302 1.932 1.049 3 1.133 3 .236 0-.908.865-.851 2.49.164 1.37.855 3.32 1.237 4.333.848 2.57-.986 4.584-.602 4.121.785-.213.642 1.287.844 3.334.45 3.975-.765 27.272 1.652 28.388 2.945.367.425 4.567.844 9.334.931 4.766.087 13.166.867 18.666 1.733 5.5.865 13.6 1.825 18 2.131 4.4.307 10.1.934 12.667 1.394 2.567.46 7.805.752 11.64.649 3.836-.103 8.234.487 9.772 1.31 3.297 1.765 12.58 2.942 21.921 2.78 3.667-.064 7.867.429 9.334 1.094 4.026 1.827 9.864 2.938 18 3.426 4.033.243 8.833.78 10.666 1.194 1.834.415 8.36 1.376 14.505 2.136 6.144.76 11.812 1.779 12.596 2.263.784.484 4.246.73 7.693.548 3.448-.183 6.665.308 7.15 1.092.484.784 2.195 1.416 3.802 1.405 2.375-.016 2.547-.262.92-1.313-1.729-1.118-1.699-1.295.223-1.313 1.222-.013 2.422.529 2.667 1.2.668 1.835 19.56 5.744 26.674 5.52 3.427-.108 8.45.732 11.163 1.865 5.426 2.267 10.517 2.739 9.36.868-.405-.657.16-1.538 1.255-1.959 2.263-.868 6.25.32 5.45 1.625-.29.473 8.77 1.01 20.135 1.194 11.364.183 21.354.766 22.201 1.296 2.583 1.615 5.014 1.914 19.32 2.375 7.578.244 14.035.7 14.348 1.013.923.922 13.221.208 14.964-.869zm-631.092-585.576c-2.2-1.197-7.6-2.323-12-2.5-8.755-.353-31.919-5.161-34.428-7.147-.865-.684-4.367-1.542-7.782-1.907-3.922-.419-8.491-2.203-12.4-4.84-3.405-2.299-6.91-4.185-7.79-4.193-.88-.013-4.6-2.401-8.267-5.319s-7.324-5.311-8.127-5.32c-.803-.012-2.546-1.213-3.873-2.68-1.327-1.467-2.955-2.667-3.618-2.667-2.631 0-19.715-14.896-19.715-17.19 0-.8-1.2-2.203-2.667-3.119-1.467-.916-2.667-2.421-2.667-3.345 0-.923-.563-1.679-1.252-1.679-1.609 0-17.267-23.796-22.44-34.102-2.18-4.344-4.962-11.498-6.182-15.898-1.22-4.4-3.189-10.252-4.376-13.004-1.817-4.212-2.034-8.435-1.373-26.667.802-22.113 2.838-39.832 5.053-43.977.68-1.274 1.237-4.46 1.237-7.08 0-2.835.54-4.43 1.333-3.939.768.475 1.334-.764 1.335-2.92 0-3.706 3.88-15.405 5.715-17.24.523-.523.95-1.708.95-2.633 0-2.668 9.4-17.732 12.67-20.305 1.633-1.283 3.95-4.232 5.15-6.551 1.199-2.32 2.934-4.698 3.855-5.284.92-.587 3.442-3.467 5.602-6.4 2.16-2.933 6.527-7.653 9.705-10.487 3.178-2.835 6.624-7.18 7.658-9.654 1.235-2.956 2.531-4.248 3.781-3.769a2.048 2.048 0 0 0 2.635-1.181c.678-1.766 12.124-10.242 13.831-10.242.415 0 2.335-1.549 4.267-3.441 5.264-5.156 15.942-12.56 18.115-12.56 2.159 0 10.01-4.33 16.19-8.929 2.27-1.689 4.746-3.07 5.504-3.07.757 0 2.147-.928 3.088-2.06.94-1.134 2.454-1.776 3.363-1.427.91.349 3.63-.824 6.046-2.606 2.415-1.782 5.402-3.24 6.636-3.24s3.014-.928 3.955-2.061c.94-1.134 2.389-1.8 3.219-1.482.83.319 2.648-.254 4.041-1.272 1.393-1.019 3.824-1.852 5.402-1.852 1.578 0 6.213-1.15 10.3-2.557 4.087-1.406 7.83-2.156 8.32-1.666.49.489.69-.013.445-1.11-.34-1.535.608-1.897 4.075-1.557 2.66.261 4.952-.256 5.57-1.255.655-1.06 4.567-1.817 10.406-2.013 5.146-.172 11.34-1.245 13.764-2.384 5.878-2.763 21.262-2.47 29.074.554 3.788 1.466 7.027 1.937 8.786 1.277 1.532-.574 3.632-.509 4.666.146 1.035.655 6.536 1.2 12.226 1.211 9.25.019 10.902.424 15.612 3.836 2.898 2.099 6.942 4.547 8.989 5.44 2.046.893 5.821 4.242 8.388 7.442 6.14 7.654 8.16 8.229 12.936 3.68 14.651-13.957 20.458-19.044 21.74-19.044.808 0 3.386-1.802 5.73-4.004 2.343-2.202 5.396-4.37 6.785-4.817 1.388-.447 5.255-2.546 8.594-4.663 3.338-2.117 6.924-3.85 7.968-3.85 1.044 0 5.576-2.248 10.072-4.997 7.532-4.604 10.074-5.45 17.508-5.822 2.913-.146 8.425-1.858 14.667-4.555 8.266-3.572 21.468-4.587 28.666-2.205 3.173 1.05 7.015 1.167 12 .367 4.034-.648 7.804-.892 8.38-.542.575.35 7.475.783 15.333.962 7.858.18 15.546 1.004 17.084 1.831 1.538.828 6.338 2.125 10.667 2.883 4.328.758 11.77 2.328 16.536 3.489 4.767 1.16 10.317 2.437 12.334 2.835 2.016.398 3.666 1.238 3.666 1.867 0 1.602 13.65 7.887 17.129 7.887 1.58 0 2.873.45 2.874 1 0 .859 6.4 4.114 19.997 10.177 1.834.817 3.634 1.787 4 2.155.367.368 1.614 1.268 2.772 2.002 1.817 1.15 24.033 16.121 32.647 22 3.91 2.668 12.812 9.587 15.01 11.666.969.917 2.307 1.667 2.972 1.667.666 0 4.373 3.178 8.238 7.063 3.866 3.884 10.383 9.584 14.484 12.667 7.21 5.419 7.786 5.603 17.43 5.603 8.6 0 11.013-.563 17.525-4.09 4.154-2.25 8.13-3.733 8.835-3.297.705.436 4.764-.465 9.018-2.003 9.05-3.272 30.084-5.481 35.2-3.697 5.73 1.997 12.117 13.292 13.346 23.602.577 4.85 1.716 12.719 2.53 17.485 1.665 9.744.883 19.324-2.033 24.915-1.077 2.063-1.961 4.39-1.965 5.17 0 .779-1.809 3.141-4.009 5.249-2.2 2.108-4 4.61-4 5.56 0 2.685-19.974 21.371-27.13 25.38-6.278 3.516-34.456-1.946-38.603-7.482-.88-1.175-4-3.711-6.933-5.636-6.944-4.556-23.55-19.81-33.327-30.615a23380.54 23380.54 0 0 1-14.95-16.54c-9.059-10.037-7.421-8.394-18.552-18.615-5.223-4.795-9.927-8.719-10.453-8.719-.527 0-4.324-3-8.438-6.667-4.113-3.666-7.985-6.666-8.603-6.666-1.27 0-2.179-.67-9.734-7.172-2.964-2.551-6.958-5.032-8.874-5.513-1.916-.48-4.845-2.323-6.509-4.095-1.664-1.771-4.42-3.22-6.126-3.22-1.92 0-3.101-.792-3.101-2.079 0-1.143-.603-1.706-1.339-1.251-.736.455-3.586-.335-6.333-1.756-10.002-5.172-17.16-8.034-24.995-9.993-16.447-4.11-20.057-5.133-22.247-6.303-1.236-.66-5.436-1.51-9.334-1.89-3.897-.38-10.385-1.197-14.419-1.816-4.033-.62-10.854-.975-15.156-.791-15 .642-27.767 1.88-29.3 2.842-.849.532-3.821.856-6.604.718-3.39-.168-5.308.394-5.81 1.7-.411 1.074-1.32 1.952-2.018 1.952-.698 0-6.228 2.4-12.288 5.333-6.06 2.934-11.932 5.334-13.048 5.334-1.116 0-3.115 1.2-4.442 2.666-1.328 1.467-3.07 2.668-3.874 2.669-2.988 0-17.532 16.066-23.135 25.551-1.23 2.081-3.264 4.11-4.52 4.51-1.258.398-2.667 2.457-3.132 4.574-1.185 5.398-11.709 13.894-15.905 12.841-1.95-.49-3.745-.044-4.763 1.182-1.424 1.717-2.063 1.63-4.999-.68-2.104-1.654-5.422-2.654-8.852-2.666-12.01-.043-21.436-5.556-30.465-17.822-5.771-7.842-10.815-11.475-15.943-11.485-1.974 0-3.965-.617-4.426-1.362a1.591 1.591 0 0 0-2.181-.525c-.739.457-4.027-.194-7.306-1.446-4.916-1.878-8.97-2.156-23.107-1.588-9.43.378-18.441 1.382-20.025 2.229-1.583.847-4.789 1.39-7.123 1.204-2.334-.186-6.165.672-8.512 1.905-2.346 1.234-5.761 2.243-7.588 2.243-1.826 0-3.691.6-4.144 1.333-.454.733-2.568 1.333-4.699 1.333-2.412 0-4.375.936-5.201 2.48-1.147 2.144-8.255 4.546-17.434 5.893-1.1.162-2.784 1.344-3.742 2.627-.958 1.284-2.916 2.334-4.351 2.334s-3.651.53-4.925 1.179c-1.273.648-6.815 3.362-12.315 6.03-5.69 2.76-13.228 7.89-17.49 11.902-4.12 3.879-10.12 9.113-13.334 11.632-3.213 2.518-8.045 6.682-10.736 9.251-5.089 4.859-14.44 17.701-14.44 19.831 0 .672-.769 1.518-1.709 1.878-.94.361-2.514 3.8-3.499 7.642-.984 3.842-2.924 8.12-4.309 9.505-1.386 1.385-3.504 5.061-4.708 8.168-1.204 3.107-2.942 6.548-3.862 7.648-.92 1.1-1.667 4.233-1.66 6.96.01 2.729-1.196 6.929-2.674 9.334-2.364 3.847-3.973 9.64-8.16 29.373-2.1 9.894 3.042 25.417 11.194 33.796 3.314 3.406 16.27 12.537 17.788 12.537.603 0 2.41 1.224 4.014 2.72 1.605 1.494 2.918 2.382 2.918 1.972 0-.41 2.376.466 5.28 1.948 2.905 1.482 6.462 2.694 7.905 2.694 1.444 0 3.427.802 4.407 1.782 1.905 1.905 11.237 3.874 17.628 3.718 2.138-.052 10.417.764 18.397 1.812 9.959 1.309 15.587 1.497 17.942.602 2.4-.912 3.997-.836 5.308.252 1.272 1.056 8.844 1.526 23.505 1.462 36.986-.164 56.063-.057 62.295.347 5.468.356 15.927.597 32.08.741 3.345.03 7.845-.865 10-1.99 4.232-2.206 9.365-2.703 10.413-1.007 1.039 1.68 20.672.982 22.453-.798.873-.874 4.738-1.588 8.589-1.588 3.85 0 10.399-.885 14.55-1.966 5.17-1.346 8.315-1.557 9.978-.667 3.175 1.7 3.375 1.67 5.877-.83 1.951-1.952 2.421-1.94 5.596.14 2.858 1.872 3.667 1.954 4.611.464.63-.994 1.155-1.315 1.166-.712.01.602.881.234 1.934-.819 2.545-2.545 12.48-5.63 24.753-7.686 5.5-.92 11.035-2.56 12.3-3.643 1.635-1.399 4.136-1.762 8.64-1.254 4.646.524 7.638.052 11.201-1.766 2.674-1.364 5.191-2.15 5.594-1.748.402.402 4.394-.569 8.87-2.157 4.475-1.59 11.57-3.193 15.766-3.564 4.196-.37 9.129-1.233 10.962-1.917 5.072-1.892 9.523-2.851 14.667-3.161 5.961-.359 10.667-1.882 10.667-3.453 0-.675 2.805-.943 6.233-.596 4.001.405 7.656-.079 10.205-1.35 2.184-1.09 5.91-1.982 8.28-1.982 2.371 0 6.029-.896 8.13-1.991 2.1-1.096 5.648-1.996 7.885-2 2.237 0 4.637-.54 5.333-1.19 1.587-1.481 17.067-4.152 24.063-4.152 2.884 0 7.335-1.112 9.89-2.471 2.903-1.544 9.142-2.83 16.625-3.428 6.587-.527 12.709-1.564 13.603-2.306.893-.742 2.803-.975 4.243-.517 1.44.457 3.004.206 3.476-.557s2.273-1.388 4.002-1.388c1.73 0 5.943-1.2 9.365-2.666 3.422-1.467 7.936-2.667 10.032-2.667s4.13-.515 4.518-1.145c.39-.63 4.175-1.55 8.412-2.044 4.238-.495 10.705-1.743 14.371-2.774 3.667-1.03 10.267-2.611 14.667-3.513 4.4-.9 8.6-2.055 9.333-2.565.734-.51 6.111-1.312 11.951-1.783 7.237-.584 10.966-1.479 11.711-2.81 1.271-2.272 10.322-4.966 16.68-4.966 2.421 0 5.282-.881 6.359-1.958 1.143-1.143 3.05-1.611 4.582-1.124 4.85 1.539 26.935-3.331 33.384-7.362 3.3-2.063 8.257-4.165 11.015-4.671 2.758-.506 5.324-1.422 5.703-2.035 1.049-1.696 23.56.247 26.74 2.308 3.138 2.034 5.188 7.71 7.382 20.442 3.235 18.776 3.18 19.87-1.464 29.333-.54 1.1-2.27 2.192-3.846 2.427-2.296.341-2.863 1.34-2.863 5.041 0 2.873-.756 4.906-2 5.384-1.1.422-2 1.357-2 2.077 0 2.469-7.332 9.273-13.334 12.375-22.88 11.824-30.335 15.316-32.745 15.338-1.51.015-3.91.906-5.333 1.983-1.424 1.076-3.638 1.976-4.922 2-1.283.023-2.333.541-2.333 1.15 0 1.118-7.047 3.238-19.333 5.817-3.667.77-7.867 1.837-9.334 2.371-1.466.535-4.766 1.756-7.333 2.714s-7.967 2-12 2.317c-4.033.316-7.903 1.122-8.6 1.79-.697.67-3.35 1.216-5.895 1.216-2.546 0-5.576.797-6.733 1.771-3.289 2.767-14.998 5.987-27.771 7.637-6.417.83-13.41 2.352-15.54 3.383-2.129 1.032-5.898 1.876-8.375 1.876-2.478 0-6.659.9-9.292 2-2.632 1.1-6.38 2-8.327 2s-4.937.978-6.643 2.173c-1.706 1.195-5.59 2.264-8.63 2.374-3.04.111-6.838.933-8.44 1.827-1.602.894-5.616 1.626-8.921 1.626-3.305 0-6.38.6-6.833 1.333-.453.734-2.196 1.334-3.874 1.334-1.677 0-4.934.94-7.238 2.089-2.303 1.149-4.727 1.756-5.387 1.348-.66-.408-1.94.152-2.847 1.244-.906 1.092-3.395 1.985-5.53 1.985-2.137 0-5.41 1-7.275 2.222-1.865 1.222-6.194 2.38-9.62 2.573-6.373.359-18.729 3.093-29.741 6.581-3.399 1.077-7.976 1.958-10.17 1.958-2.196 0-6.192.919-8.88 2.042-2.69 1.123-5.392 1.732-6.007 1.352-.615-.38-2.629.497-4.475 1.95-2.705 2.128-4.55 2.478-9.49 1.8-4.073-.558-6.133-.349-6.133.623 0 1.496-9.361 4.573-12.347 4.059-3.661-.63-17.843 2.016-20.655 3.854-1.651 1.08-4.116 1.672-5.477 1.316-1.362-.356-3.53-.057-4.817.663-1.288.72-6.623 1.539-11.856 1.818-5.233.28-14.265 1.2-20.07 2.046-5.806.846-19.306 1.498-30 1.448-10.695-.05-42.844-.21-71.444-.357s-58.6.138-66.667.631c-14.006.858-21.873 1.028-30.667.663-2.2-.092-5.5.21-7.333.671-2.023.509-4.906-.019-7.333-1.34zm6-492.094c-14.811-2.693-35.7-7.78-37.334-9.09-1.1-.882-5.435-3.19-9.633-5.13-4.316-1.994-10.858-6.726-15.058-10.892-4.084-4.052-8-7.367-8.7-7.367-.702 0-1.29-.45-1.307-1-.017-.55-2.417-2.765-5.333-4.922-2.916-2.157-5.302-4.707-5.302-5.667 0-.959-.6-1.744-1.333-1.744-.734 0-1.334-.829-1.334-1.842 0-1.013-2.246-3.555-4.991-5.649-10.427-7.953-21.658-21.26-21.67-25.677 0-1.01-1.713-5.21-3.801-9.334-8.166-16.131-13.98-38.693-14.302-55.498-.112-5.867-.63-14.283-1.15-18.702-.72-6.125-.317-10.405 1.697-18 3.08-11.617 4.182-14.625 5.36-14.647.471-.013 1.971-2.34 3.332-5.183 1.362-2.843 3.92-5.942 5.685-6.887 1.765-.944 4.251-3.342 5.525-5.327 2.11-3.29 13.96-13.254 15.762-13.254.416 0 5.661-5.235 11.655-11.633 5.994-6.398 12.998-13.748 15.565-16.333 2.567-2.585 5.867-7.243 7.333-10.35 3.005-6.366 4.487-6.555 7.237-.919 2.457 5.034 1.974 12.787-1.136 18.252-1.351 2.374-3.509 7.766-4.795 11.983-1.285 4.217-2.855 7.667-3.488 7.667s-1.151 1.011-1.151 2.247-1.183 3.507-2.628 5.045c-3.486 3.71-10.808 27.628-11.034 36.041-.199 7.392 5.248 26.64 10.434 36.875 1.775 3.503 3.228 7.307 3.228 8.453 0 1.146 2.415 5.216 5.367 9.045 2.952 3.828 6.701 8.76 8.332 10.96 5.592 7.543 26.752 26.45 31.17 27.853 1.542.49 4.528 2.383 6.635 4.209 2.106 1.824 6.53 4.63 9.83 6.235 3.3 1.605 7.945 4.235 10.323 5.845 4.2 2.843 20.276 8.362 27.01 9.272 1.833.248 9.333 1.091 16.666 1.875 7.334.783 14.427 2.045 15.763 2.805 1.336.76 5.536 1.389 9.333 1.397 3.798.013 11.104.27 16.238.582 15.65.951 44.573.543 51.252-.724 3.47-.658 12.557-1.609 20.195-2.113 7.637-.504 16.422-1.757 19.521-2.785 3.1-1.027 8.5-2.077 12-2.332 10.632-.775 27.348-3.456 33.698-5.404 7.261-2.228 16.059-3.93 18.334-3.546.916.155 1.666-.307 1.666-1.027s1.05-1.264 2.334-1.21c1.283.055 5.24-.926 8.793-2.179 3.553-1.252 6.734-2.003 7.07-1.667 1.151 1.151 27.28-7.97 29.137-10.171.733-.87 3.302-1.709 5.709-1.864 2.406-.156 6.006-1.152 8-2.214 6.257-3.334 13.284-6.17 15.287-6.17 2.987 0 10.283-3.941 18.337-9.904 4.033-2.986 8.938-6.131 10.899-6.99 1.962-.857 4.577-3.102 5.813-4.988 1.235-1.885 2.715-3.139 3.288-2.785 2.138 1.322 5.529-6.074 4.64-10.121-1.028-4.68-6.854-15.447-9.13-16.875-1.571-.985-7.377-9.776-12.551-19.004-1.44-2.566-5.694-9.964-9.454-16.438-3.761-6.474-6.838-12.924-6.838-14.333 0-1.41-.48-2.562-1.067-2.562-.978 0-6.266-10.566-13.679-27.333-1.621-3.667-6.153-16.567-10.072-28.667-10.69-33.01-11.46-35.228-12.702-36.6-.63-.697-1.157-2.497-1.17-4-.013-1.503-1.229-7.233-2.703-12.733-1.475-5.5-3.812-15.4-5.194-22-1.382-6.6-3.165-13.69-3.963-15.754s-1.457-6.564-1.466-10c-.013-3.435-.91-9.546-2.004-13.58-1.093-4.033-2.58-15.908-3.306-26.389-.725-10.48-1.618-20.38-1.984-22-.695-3.073-.968-9.245-3.319-74.944-.787-22-2.018-44.5-2.735-50-.718-5.5-1.662-13.3-2.098-17.333-.437-4.034-1-7.668-1.252-8.076-.253-.409-.817-6.709-1.254-14-.438-7.292-1.915-18.658-3.284-25.258-2.418-11.659-3.512-17.13-7.595-38-1.077-5.5-3.346-14.8-5.043-20.666-3.822-13.211-7.308-26.848-9.542-37.334-.938-4.4-2.616-11.23-3.73-15.178-3.01-10.671-4.15-21.488-2.265-21.488 2.444 0 7.586 5.776 10.82 12.154 1.631 3.215 4.535 7.656 6.453 9.868 3.17 3.656 8.572 13.75 13.904 25.978 1.12 2.566 4.184 9.564 6.81 15.55 2.625 5.985 4.773 11.543 4.773 12.35 0 .808.57 2.511 1.267 3.785 1.377 2.515 7.736 21.504 11.492 34.315 1.29 4.4 2.807 8.613 3.37 9.362.565.75 1.717 5.55 2.561 10.667.845 5.117 2.353 12.304 3.352 15.97 1 3.667 2.772 13.567 3.939 22 1.167 8.434 2.987 18.034 4.045 21.334 2.069 6.455 4.265 21.445 5.957 40.667.58 6.6 2.08 21.6 3.333 33.333 1.252 11.733 2.527 30.033 2.833 40.667.307 10.633 1.448 26.631 2.538 35.55 1.089 8.92 1.98 20.073 1.98 24.784 0 8.944 2.472 26.626 6.106 43.666 1.173 5.5 3.251 15.4 4.618 22 1.367 6.6 3.115 14.7 3.884 18 .77 3.3 2.067 9.48 2.883 13.734.816 4.254 1.814 7.405 2.217 7.002.837-.837 4.775 9.346 8.359 21.612 1.341 4.591 3.675 10.084 5.186 12.206 1.51 2.121 2.747 4.497 2.747 5.279 0 2.658 12.13 26.168 14.532 28.167.44.366 2.584 4.23 4.763 8.585 4.203 8.4 12.45 21.739 19.184 31.029 8.58 11.835 23.824 47.268 24.398 56.708.806 13.242-12.175 41.011-19.171 41.011-.68 0-4.643 3.224-8.805 7.163-9.436 8.932-15.127 11.959-20.332 10.816-3.03-.666-3.903-.386-3.903 1.248 0 1.398-1.232 2.121-3.666 2.15-2.017.024-6.967 1.204-11 2.623-4.034 1.419-8.564 2.6-10.067 2.623-1.503.024-3.347.658-4.098 1.408-1.708 1.708-6.38 2.895-12.754 3.241-2.705.147-5.867 1.053-7.025 2.014-2.663 2.21-9.44 3.697-28.723 6.302-9.264 1.252-16.26 2.882-17.672 4.12-1.838 1.61-3.023 1.737-5.533.593-3.38-1.54-8.871-.764-10.339 1.462-.482.732-5.882 1.558-12 1.835-6.117.277-13.223 1.077-15.79 1.777-2.566.7-6.766 1.522-9.333 1.827-2.566.305-4.666.673-4.666.818 0 .146-3.6.46-8 .7-10.769.587-29.716 3.144-34.762 4.691-2.252.69-6.452 1.264-9.333 1.275-2.881.013-7.816.917-10.966 2.015-3.898 1.357-6.486 1.588-8.103.723-1.59-.85-4.103-.686-7.606.5-6.879 2.327-45.858 6.238-68.564 6.879-46.4 1.308-63.592 1.568-66.666 1.01zm-470-461.791c-2.934-.608-11.334-.858-18.667-.556-11.244.464-15.318.017-26-2.852-6.967-1.872-15.515-3.939-18.996-4.594-3.482-.655-7.065-1.644-7.962-2.199-.898-.555-3.223-.888-5.167-.74-1.944.149-4.285-.634-5.202-1.738-.916-1.105-3.057-2.009-4.758-2.009-1.7 0-3.452-.583-3.893-1.297-.44-.713-3.285-1.965-6.32-2.783-3.035-.817-7.417-2.933-9.736-4.703-2.32-1.769-4.865-3.217-5.656-3.217-.792 0-4.035-1.97-7.208-4.377s-8.065-5.457-10.872-6.778c-2.807-1.32-7.907-5.27-11.333-8.777-3.427-3.507-9.22-8.629-12.875-11.382-3.655-2.752-8.035-6.283-9.734-7.845-7.746-7.121-17.607-34.318-13.419-37.01 2.39-1.536 16.861.052 21.398 2.347 1.98 1.003 4.45 1.822 5.487 1.822s3.317 1.068 5.066 2.373c7.885 5.885 21.388 8.61 41.847 8.447 28.348-.226 40.66.052 48 1.083 5.184.728 8.6.64 9.705-.251 1.029-.83 11.201-1.375 25.666-1.375h23.962v-3.077c0-2.106-2-4.6-6.333-7.898-3.484-2.651-7.638-6.965-9.232-9.586-1.594-2.621-3.493-5.133-4.219-5.582-1.517-.938-10.227-20.323-11.592-25.8-.502-2.017-1.377-3.667-1.944-3.667-1.348 0-3.616-9.274-4.732-19.35-1.118-10.096.996-18.28 5.95-23.034 2.388-2.29 4.113-5.663 4.706-9.2.514-3.07 2.39-7.15 4.166-9.068 1.776-1.917 3.23-4.563 3.23-5.88 0-1.316 1.05-3.63 2.333-5.14 1.284-1.51 3.19-3.966 4.238-5.458 1.047-1.491 2.247-2.627 2.666-2.523 1.137.281 15.068-13.842 17.794-18.04 2.022-3.114 2.07-3.64.333-3.64-1.117 0-2.03.585-2.03 1.3 0 .833-1.278.815-3.551-.05-2.421-.92-3.99-.91-4.934.033-.76.76-4.833 1.383-9.05 1.383-5.747 0-7.976.552-8.901 2.206-.752 1.344-2.093 1.877-3.43 1.364-1.26-.484-3.202.138-4.558 1.46-1.362 1.328-4.761 2.413-8.024 2.561-5.98.272-18.666 4.503-23.357 7.789-1.534 1.074-4.305 1.972-6.159 1.996-1.853.023-4.535.923-5.958 2-1.424 1.076-4.244 1.957-6.267 1.957-2.024 0-4.2.93-4.836 2.067-.636 1.136-3.212 2.326-5.725 2.644-2.513.318-4.773 1.188-5.021 1.934-.249.745-1.178 1.355-2.066 1.355-.887 0-4.73 1.65-8.54 3.667a4474.218 4474.218 0 0 1-14.568 7.667c-4.202 2.2-9.66 5.95-12.129 8.333-2.469 2.383-5.323 4.333-6.342 4.333-2.844 0-9.492 4.433-12.63 8.42-3.55 4.514-10.235 4.897-13.753.788-3.44-4.017-5.39-17.729-3.556-25.01.809-3.213 1.087-8.401.618-11.529-.557-3.718-.318-6.017.69-6.64.85-.525 2.116-2.246 2.815-3.825.699-1.579 2.434-4.67 3.855-6.87 1.42-2.2 3.752-6.49 5.18-9.535 1.428-3.044 3.748-5.9 5.155-6.347 1.408-.446 3.886-2.606 5.507-4.799 1.621-2.192 3.503-3.986 4.182-3.986.678 0 3.51-1.557 6.293-3.46 6.616-4.527 22.485-12.54 24.831-12.54 1.012 0 3.428-1.472 5.37-3.272 3.67-3.401 8.45-5.777 17.525-8.707 2.933-.947 8.933-3.377 13.333-5.398 4.4-2.022 11.3-4.417 15.334-5.323 4.033-.905 11.833-2.995 17.333-4.644 5.5-1.648 12.1-3.073 14.667-3.165 2.566-.093 5.866-.706 7.333-1.363 1.467-.657 6.267-2.204 10.667-3.438 4.4-1.233 8.9-2.608 10-3.055 1.1-.447 3.8-.918 6-1.048s8.357-1.225 13.683-2.433c5.326-1.208 11.142-1.83 12.924-1.383 1.783.447 3.914.397 4.737-.111.823-.509 4.907-1.166 9.076-1.46 14.991-1.058 19.891-1.668 25.485-3.175 4.166-1.121 6.804-1.14 9.876-.069 3.514 1.225 4.462 1.093 5.857-.814 1.452-1.986 2.091-2.048 5.01-.485 2.622 1.403 4.407 1.466 8.236.291 2.69-.825 5.38-1.197 5.98-.826.6.37 5.45.945 10.78 1.277 20.883 1.3 39.262 3.806 44.229 6.028 2.864 1.282 6.018 2.02 7.01 1.638.992-.38 3.316.3 5.165 1.51 1.848 1.211 3.89 1.875 4.536 1.476 1.991-1.231 5.116.658 5.872 3.55.522 1.996 1.469 2.555 3.449 2.037 1.8-.47 3.756.37 5.746 2.468 1.658 1.75 3.99 3.191 5.183 3.204 3.31.035 17.549 6.631 20.034 9.281 1.21 1.291 5.11 4.686 8.665 7.545 8.048 6.472 9.8 8.115 9.8 9.19 0 .469 1.524 2.85 3.386 5.291 3.03 3.973 3.414 5.8 3.652 17.374.246 11.954.04 13.118-2.72 15.352-1.641 1.33-2.985 2.961-2.985 3.625 0 2.12-10.207 7.032-14.61 7.032-3.661 0-15.412-5.467-17.39-8.09-.366-.486-2.164-1.352-3.995-1.925-1.83-.572-3.946-1.886-4.702-2.92-3.295-4.506-18.718-4.983-23.592-.73-1.26 1.1-3.48 1.687-4.936 1.307-1.456-.381-2.878-.01-3.16.833-.38 1.128-1.72 1.092-5.158-.142-5.306-1.903-13.123-2.22-13.123-.532 0 1.298-10.922-.232-16.197-2.268-1.94-.75-3.84-1.053-4.219-.673-.379.379-2.09-.072-3.803-1.002-4.698-2.551-32.83-5.437-53.115-5.449l-18-.01.332 6.218c.418 7.836 2.289 11.382 6.004 11.382 3.088 0 14.542 3.942 15.664 5.39.367.474 4.488 2.905 9.158 5.403 11.06 5.915 18.56 13.648 19.684 20.297.474 2.8 1.56 5.8 2.412 6.666 2.253 2.29 7.413 13.381 7.413 15.932 0 1.198 1.8 4.846 4 8.106s4 6.898 4 8.084c0 1.187.711 3.298 1.581 4.69 2.377 3.807-.4 25.842-3.85 30.53-1.444 1.962-3.026 5.18-3.515 7.147-.489 1.968-2.06 3.95-3.492 4.404-1.431.454-3.35 2.894-4.264 5.422-.914 2.528-2.46 4.596-3.436 4.596s-2.12.9-2.542 2c-.422 1.1-1.51 2-2.418 2-.908 0-2.77 1.237-4.138 2.748-2.115 2.337-2.198 2.927-.554 3.942 2.052 1.269 10.44.795 19.372-1.094 2.975-.63 6.528-.752 7.895-.272 1.367.479 4.632.104 7.256-.835 2.625-.938 8.186-1.732 12.36-1.764 4.173-.032 7.96-.66 8.415-1.397.455-.736 2.295-.97 4.089-.519 1.849.464 5.134-.069 7.585-1.231 2.377-1.128 7.023-2.348 10.323-2.711 3.3-.364 6.3-.764 6.666-.888.367-.124 3.176-.128 6.244-.013 3.067.12 6.7-.382 8.073-1.117 1.373-.735 8.398-2.39 15.61-3.679l13.114-2.342 3.293 3.828c2.743 3.188 3.193 4.855 2.7 9.987-.828 8.622-12.028 30.925-17.105 34.062-.694.43-1.262 2.564-1.262 4.744 0 4.833-3.34 13.212-5.265 13.212-.771 0-1.402.885-1.402 1.966s-1.825 2.91-4.057 4.064c-2.231 1.154-4.622 3.582-5.311 5.396-.812 2.136-2.648 3.578-5.208 4.09-2.175.435-4.978 1.921-6.229 3.304-1.251 1.382-2.997 2.514-3.88 2.514s-4.84 1.713-8.794 3.806c-4.936 2.614-9.217 3.83-13.67 3.882-3.564.04-7.134.728-7.932 1.527-.799.798-5.035 1.451-9.414 1.451-5.033 0-8.736.702-10.069 1.907-1.387 1.256-6.662 2.165-15.438 2.661-7.332.415-16.931 1.431-21.331 2.258-9.108 1.712-27.726 2.802-42.333 2.478-3.206-.07-38.986 3.475-45.667 4.526-2.2.346-6.4.132-9.333-.476zm1053.45-9.164c-.44-.712-4.298-.952-8.784-.545-5.113.463-8 .225-8-.661 0-.884-3.864-1.213-10.66-.909-6.751.303-12.54-.186-15.789-1.332-2.821-.995-9.874-2.24-15.673-2.764-5.8-.526-11.444-1.705-12.544-2.621-1.1-.916-4.94-2.047-8.533-2.514-3.593-.466-8.393-1.795-10.667-2.952-2.273-1.157-7.284-3.299-11.134-4.76-3.85-1.462-7-3.214-7-3.895 0-.68-.959-1.237-2.132-1.237-4.015 0-11.877-4.59-25.868-15.1-16.206-12.177-29.986-25.71-36.47-35.816-2.499-3.896-5.815-8.227-7.37-9.624-1.554-1.397-2.826-3.992-2.826-5.767 0-2.827.537-3.182 4.333-2.863 2.383.2 4.933.785 5.667 1.3 1.31.919 24.812 6.268 31.333 7.132 13.707 1.815 22.952 2.494 28.667 2.106 3.666-.248 10.566-.568 15.333-.71 13.107-.389 42.242-2.961 52.709-4.653 14.236-2.301 23.685-4.16 26.624-5.236 1.467-.537 4.156-.605 5.977-.151 4.111 1.024 15.945-.403 17.14-2.068 1.528-2.13 10.166-4.55 16.311-4.57 3.248-.013 8.548-.94 11.777-2.064 3.23-1.124 6.76-1.704 7.845-1.287 1.085.416 4.067-.478 6.627-1.988 3.13-1.847 7.106-2.775 12.148-2.835 4.753-.057 8.717-.924 10.835-2.37 1.965-1.34 8.463-2.899 15.78-3.783 6.843-.827 13.157-2.099 14.034-2.826.876-.727 4.878-1.743 8.893-2.256 4.015-.514 8.8-1.674 10.633-2.58 1.834-.904 6.326-2.081 9.983-2.614 3.657-.533 8.157-1.723 10-2.645 1.843-.922 6.153-2.36 9.578-3.197 3.426-.836 11.226-4.018 17.334-7.071 9.498-4.748 12.537-5.613 21.002-5.98 5.771-.25 10.62.17 11.63 1.01 2.126 1.764 7.691 13.722 8.922 19.172.497 2.2 2.062 7.9 3.479 12.667 5.285 17.79 6.993 34.667 3.51 34.667-1.044 0-2.595 2.113-3.447 4.696-1.068 3.235-2.863 5.267-5.77 6.532-2.322 1.01-6.684 4.282-9.695 7.271-3.987 3.958-7.494 5.96-12.905 7.37-8.468 2.206-11.773 3.768-14.227 6.725-.946 1.14-2.804 2.072-4.128 2.072-1.325 0-3.201.75-4.17 1.667-2.111 1.997-7.184 4.484-11.762 5.766-1.834.514-4.765 2.052-6.514 3.418-1.748 1.365-4.825 2.483-6.836 2.483-2.012 0-4.34.823-5.175 1.829s-4.058 2.138-7.163 2.516c-3.105.377-7.446 1.454-9.646 2.392-2.2.938-4.9 1.805-6 1.927-1.1.121-5 1.593-8.666 3.27-7.375 3.375-12.779 5.002-22.468 6.769-3.557.648-8.532 1.86-11.055 2.693-2.523.832-5.518 1.157-6.654.72-1.137-.436-5.654.137-10.038 1.273s-9.078 1.713-10.432 1.284c-1.354-.43-2.858-.141-3.342.64-.483.783-2.784 1.341-5.112 1.24-3.935-.169-9.204.326-23.114 2.172-3.052.405-5.902.164-6.334-.535zm-30.784-99.056a2037.298 2037.298 0 0 1-16-1.577c-5.932-.627-15.861-3.153-19.176-4.877-1.187-.618-4.557-2.106-7.49-3.307-7.488-3.067-12.809-6.054-16.523-9.275-11.758-10.194-25.187-25.465-28.814-32.765-1.275-2.567-3.044-5.567-3.932-6.667-1.676-2.078-4.668-10.142-7.173-19.333-1.468-5.385-2.425-12.995-3.58-28.45-.347-4.647-.92-8.916-1.273-9.487-.842-1.363-7.372-.1-7.372 1.426 0 .648-1.42 1.178-3.154 1.178s-4.679 1.2-6.543 2.666c-1.865 1.467-3.933 2.667-4.597 2.667-.664 0-4.47 1.603-8.456 3.562-11.267 5.536-23.24 7.248-51.447 7.359-16.224.064-18.081-.192-24.918-3.426-4.062-1.922-7.735-3.495-8.161-3.495-2.09 0-15.372-14.186-17.56-18.757-1.374-2.867-2.893-5.22-3.376-5.228-.484-.01-1.617-4.145-2.52-9.193-2.201-12.321-1.122-33.987 2.001-40.155 3.736-7.378 10.035-13.21 15.312-14.175 2.614-.479 5.936-1.685 7.382-2.681 1.447-.996 3.863-1.81 5.37-1.81 1.507 0 4.102-.954 5.765-2.12 1.664-1.165 3.957-1.761 5.095-1.325 1.216.467 4.186-.883 7.206-3.275 4.196-3.323 6.661-4.167 13.444-4.604 5.699-.367 8.669-1.185 9.464-2.606.637-1.139 2.629-2.07 4.426-2.07 1.797 0 3.267-.58 3.267-1.287 0-2.174 5.47-4.363 12.568-5.03 3.718-.348 9.011-1.782 11.763-3.186 2.751-1.404 5.002-2.196 5.002-1.761 0 .434 1.523-.408 3.384-1.872 3.064-2.41 8.896-4.002 31.283-8.542 7.621-1.545 17.333-5.823 17.333-7.635 0-.574 3.75-1.347 8.334-1.718 8.978-.725 23.913-3.728 25-5.025.366-.438 5.166-1.576 10.666-2.53 5.5-.953 11.1-2.309 12.444-3.013 1.344-.704 5.244-1.426 8.666-1.604 3.423-.178 7.459-.99 8.968-1.804 1.51-.814 6.784-1.831 11.722-2.26 4.937-.43 10.002-1.317 11.255-1.974 2.642-1.384 25.715-4.603 31.612-4.41 2.2.071 6.933-.804 10.518-1.945 4.325-1.377 9.147-1.837 14.334-1.366 4.299.39 7.563.3 7.254-.2-.308-.5 2.542-.87 6.333-.823 3.792.047 7.468-.2 8.17-.548.7-.347 6.7-.777 13.332-.956 6.633-.178 22.859-.655 36.059-1.059 24.116-.739 62.84 1.712 74.667 4.725 2.933.747 8.933 1.976 13.333 2.73 4.4.756 9.62 2.21 11.6 3.233 1.98 1.022 5.585 1.86 8.01 1.86 5.21 0 14.921 7.402 24.75 18.869 3.469 4.046 8.857 9.625 11.973 12.398 3.117 2.773 5.667 5.76 5.667 6.636 0 .876 1.19 2.872 2.646 4.434 5.337 5.728 9.258 22.234 6.218 26.176-.842 1.092-3.638 2.363-6.214 2.825-3.76.674-5.73.126-10-2.785-8.538-5.818-16.812-9.887-20.106-9.887-1.682 0-5.139-1.228-7.682-2.728-2.933-1.73-6.517-2.616-9.807-2.422-2.851.168-5.792-.07-6.535-.53-7.941-4.907-79.3-6.09-96.52-1.6-4.767 1.243-11.367 2.386-14.667 2.54-3.3.154-6.9.645-8 1.092-1.1.447-4.4 1.08-7.333 1.41-2.933.328-8.017 1.609-11.297 2.846-3.28 1.238-8.38 2.768-11.333 3.4-10.007 2.145-22.7 5.762-23.37 6.66-.97 1.298-11.998 4.262-16.667 4.48-2.2.102-4.45.882-5 1.735-.55.852-3.523 1.975-6.606 2.496-5.13.867-10.473 3.03-19.933 8.069-1.946 1.037-4.314 1.885-5.261 1.885-.948 0-4.043 1.608-6.879 3.573-4.23 2.932-5.013 4.145-4.357 6.756.993 3.959 12.322 15.672 16.367 16.922 1.75.541 3.356 2.416 3.86 4.505.476 1.967 1.896 5.077 3.155 6.91 1.26 1.834 3.602 6.334 5.205 10 1.603 3.667 4.904 8.767 7.335 11.334 2.432 2.567 5.845 7.59 7.586 11.164 1.74 3.574 3.921 6.788 4.847 7.143.924.355 1.681 1.66 1.681 2.902 0 1.242.478 2.828 1.061 3.524.584.697 1.877 3.667 2.874 6.6.996 2.934 2.916 6.834 4.265 8.667 2.83 3.847 7.729 24.654 7.771 33.012.021 4.303-.859 6.705-3.637 9.92-6.583 7.618-16.518 16.947-18.829 17.68-1.244.395-3.354 2.568-4.69 4.83-1.987 3.363-3.026 3.96-5.72 3.284-1.812-.455-5.499-.119-8.194.745-2.696.865-5.8 1.85-6.9 2.19-3.633 1.12-11.188 1.168-22 .14zm-44.234-101.757c1.719-1.72 1.56-3.697-1.311-16.333-1.797-7.908-3.596-16.29-3.997-18.627-.401-2.338-1.82-5.238-3.154-6.444-2.263-2.048-2.522-2.012-3.887.538-.804 1.502-3.842 3.372-6.75 4.155-7.087 1.909-8.723 5.187-6.926 13.885.77 3.73 1.764 8.882 2.208 11.449 1.301 7.531 4.805 10.584 13.628 11.874 4.266.624 7.864 1.207 7.995 1.297.13.089 1.118-.718 2.194-1.794zm-302.41-127.34c-.44-.714-3.326-2.03-6.412-2.925-6.596-1.913-11.586-4.797-14.035-8.111-.967-1.309-2.249-2.076-2.849-1.705-1.819 1.124-4.368-3.024-5.431-8.839-1.399-7.646 1.361-13.716 7.713-16.964 2.745-1.404 7.95-5.164 11.567-8.356s8.41-6.404 10.65-7.137c2.981-.976 4.879-3.031 7.078-7.667 2.807-5.917 5.697-8.336 5.697-4.769 0 .86 2.574-1.24 5.72-4.667 3.147-3.427 6.447-6.23 7.334-6.23.887 0 1.612-.542 1.612-1.203s1.736-2.311 3.858-3.667c4.573-2.92 21.448-18.156 36.91-33.323 6.088-5.973 11.294-10.634 11.57-10.36.275.276 4.362-3.45 9.081-8.28 4.72-4.83 9.748-9.768 11.175-10.975 5.497-4.647 14.98-14.468 19.93-20.636 2.843-3.544 6.522-7.06 8.176-7.814 1.654-.754 3.802-2.855 4.773-4.67.972-1.815 3.438-4.164 5.48-5.22 2.043-1.057 3.714-2.55 3.714-3.32 0-2.381 21.02-22.165 24.472-23.031 2.106-.529 3.79-2.334 4.754-5.1 1.44-4.13 8.42-11.331 27.669-28.543a8650.057 8650.057 0 0 0 17.834-16c4.8-4.322 11.283-9.959 14.405-12.525 3.122-2.567 9.717-8.717 14.656-13.667 4.94-4.95 9.434-9 9.987-9 1.651 0 21.98-17.443 22.79-19.555.411-1.071 1.356-1.571 2.1-1.112.743.46 1.691-.048 2.106-1.129.857-2.234 14.637-12.87 16.674-12.87 1.503 0 17.641-13.078 18.33-14.855.245-.63 1.264-1.146 2.265-1.146 2.218 0 8.625-5.75 8.625-7.74 0-2.247 1.838-2.897 11.58-4.095 5.922-.729 13.235-.553 20.999.503 6.551.892 12.934 1.354 14.183 1.027 3.977-1.04 22.735 10.32 30.67 18.574 4.088 4.252 8.588 7.747 10 7.766 1.412.019 9.168.369 17.234.777 8.087.41 17.284.142 20.5-.596 4.017-.923 6.802-.899 8.945.078 2.391 1.089 3.836.944 6.234-.628 2.626-1.72 3.637-1.77 6.366-.309 2.035 1.09 4.054 1.304 5.416.575 1.195-.64 14.26-1.417 29.036-1.729 14.775-.311 27.608-1.136 28.517-1.833.91-.698 4.953-1.02 8.986-.716 4.034.303 8.234.52 9.334.48 38.664-1.352 95.523-1.454 104.19-.186 8.305 1.214 11.093 1.2 12.614-.062 1.53-1.27 2.607-1.271 4.97-.01 1.658.887 6.588 1.591 10.954 1.564 4.366-.027 11.207-.054 15.203-.06 3.996-.01 8.496.789 10 1.765 2.463 1.598 16.436 3.548 28.735 4.01 2.567.096 5.317.599 6.113 1.117.794.518 3.194 1.228 5.333 1.578 8.278 1.353 20.094 2.692 24.554 2.782 2.567.052 7.067.794 10 1.65 14.145 4.124 22.106 5.715 28.6 5.715 6.833 0 16.634 2.079 19.4 4.115.734.54 4.334 1.133 8 1.32 3.667.185 7.762.884 9.1 1.551 1.337.668 5.537 1.494 9.333 1.836 3.795.343 11.1 1.553 16.234 2.69 5.133 1.136 12.633 2.315 16.667 2.62 4.033.304 10.933 1.224 15.333 2.044 4.4.82 9.55 1.692 11.443 1.938 1.893.247 5.001 1.04 6.906 1.765 1.905.724 5.606.969 8.224.544 2.845-.462 4.76-.227 4.76.584 0 .746 2.651 1.754 5.891 2.24 8.12 1.218 9.758 3.491 6.514 9.046-1.855 3.177-3.781 4.556-7.14 5.115-2.529.42-6.098 1.603-7.931 2.628-1.834 1.025-3.9 1.697-4.593 1.494-.693-.204-2.493.22-4 .94-4.935 2.359-11.735 4.196-15.528 4.196-2.047 0-4.058.544-4.469 1.208-.41.665-1.949.894-3.419.51-1.47-.385-3.52.01-4.556.864-1.056.877-7.935 1.813-15.66 2.131-7.576.312-15.575.666-17.775.786-2.2.12-10.6-.226-18.667-.769-8.067-.543-17.367-1.167-20.667-1.387-3.3-.22-7.67-.832-9.713-1.36-4.286-1.11-12.724-1.916-24.674-2.357-4.613-.17-8.813-.963-9.333-1.763-.52-.8-4.246-1.887-8.28-2.415-37.294-4.88-43.34-5.47-69.333-6.76-7.7-.381-16.4-.942-19.333-1.247-10.246-1.063-52.157-2.352-71.334-2.194-36.025.297-39.332.382-40.445 1.05-.61.365-8.11.908-16.666 1.206-8.556.297-18.555.906-22.222 1.352-6.228.758-31.537 1.445-69.54 1.887-8.914.104-18.214-.433-20.667-1.192-11.735-3.635-18.959-5.55-20.946-5.555-1.2 0-4.145-1.202-6.546-2.666-2.401-1.464-5.43-2.662-6.733-2.662-1.302 0-6.174-2.85-10.827-6.333-4.652-3.484-10.383-7.636-12.735-9.227-2.351-1.592-6.298-4.742-8.771-7-2.473-2.259-5.145-4.107-5.938-4.107-1.732 0-9.843 7.537-12.595 11.702-1.08 1.636-2.88 3.278-4 3.65-1.12.372-4.746 3.22-8.06 6.329-3.313 3.109-8.901 8.006-12.418 10.883-3.516 2.876-7.318 7.076-8.447 9.333-1.13 2.257-5.142 7.116-8.916 10.797-3.773 3.682-9.026 9.082-11.671 12-2.646 2.919-7.446 7.714-10.667 10.657-3.221 2.943-7.404 7.217-9.295 9.498-1.89 2.28-4.734 4.84-6.32 5.688-1.584.848-3.766 3.255-4.849 5.349-1.082 2.093-8.954 10.925-17.492 19.627-8.538 8.701-17.373 18.22-19.633 21.154-2.26 2.933-7.272 8.538-11.137 12.456-3.866 3.917-7.382 8.236-7.814 9.598-.433 1.362-1.962 2.85-3.4 3.306-1.436.456-3.587 2.736-4.778 5.068-1.192 2.331-4.335 6.233-6.986 8.67-5.546 5.1-5.61 5.163-13.152 13-3.117 3.237-5.667 5.508-5.667 5.044 0-.463-1.827 1.49-4.06 4.341-7.945 10.144-10.237 12.327-15.059 14.341-2.684 1.122-4.881 2.58-4.881 3.239 0 1.903-10.954 13.723-15.102 16.295-3.507 2.175-15.998 12.743-23.214 19.642-1.726 1.65-3.578 3-4.115 3-.537 0-1.98 1.05-3.206 2.333a287.62 287.62 0 0 1-3.563 3.667 1359.2 1359.2 0 0 0-3.971 4c-3.884 3.926-6.577 6-7.793 6-.592 0-4.86 3.6-9.484 8s-8.856 8-9.404 8-3.356 2.125-6.24 4.722c-6.271 5.65-17.633 12.11-20.267 11.525-1.038-.231-2.582.455-3.43 1.525-.85 1.07-3.344 2.279-5.544 2.686-15.456 2.863-18.419 3.551-19.79 4.597-.85.648-7.233 1.243-14.187 1.323-7.546.087-12.831.711-13.11 1.55-.589 1.765-3.823 1.836-4.89.109zm-783.952-87.367c-.928-6.19-.3-8.67 2.195-8.67 2.1 0 4.983 4.243 4.983 7.333 0 3.043-2.873 7.333-4.91 7.333-.753 0-1.774-2.698-2.268-5.996zm-398.52 186.996c-.37-.916-.673-.166-.673 1.667s.302 2.583.672 1.667c.37-.917.37-2.417 0-3.334zm-22.667-177.333c-.37-.917-.673-.167-.673 1.667 0 1.833.303 2.583.673 1.666.37-.916.37-2.416 0-3.333zm-.924-16.667c-.033-4.08-.293-4.565-1.415-2.64-.755 1.299-.997 3.549-.536 5 1.28 4.033 1.996 3.167 1.951-2.36zm10.707 254.334c0-.734.6-1.334 1.334-1.334.733 0 1.333.6 1.333 1.334 0 .733-.6 1.333-1.333 1.333-.734 0-1.334-.6-1.334-1.333zm-21.228-304.778c.064-1.553.38-1.87.806-.806.385.963.338 2.113-.105 2.556-.444.443-.759-.344-.7-1.75z" style="fill:#000;stroke-width:1.33333"/>
</svg>
