<svg xmlns="http://www.w3.org/2000/svg" xml:space="preserve" width="3453.333" height="3973.333">
  <path d="M587.246 3948.89c-3.85-1.652-6.6-3.404-6.11-3.892.488-.489-.347-.888-1.857-.888-1.84 0-3.03-1.137-3.611-3.455-.543-2.162-1.541-3.196-2.67-2.763-2.479.951-12.576-11.214-11.715-14.116.163-.55-.26-1-.94-1-1.68 0-5.43-7.747-5.43-11.218 0-1.545-1.453-4.376-3.23-6.29-3.939-4.25-11.437-18.048-11.437-21.05 0-1.2-.81-3.365-1.801-4.812-.991-1.446-2.836-6.23-4.1-10.63-2.867-9.984-7.127-18.937-11.188-23.514-4.017-4.527-3.633-10.955.691-11.57 1.804-.257 3.935.771 5.53 2.667 8.942 10.629 9.478 11.097 10.66 9.303.645-.979 1.706-1.718 2.357-1.641 1.201.14 2.373-9.26 3.937-31.588.868-12.4-.041-20.966-1.906-17.948-.533.863-.724-2.296-.423-7.02.354-5.55-.189-10.845-1.534-14.971-1.144-3.512-2.792-11.784-3.662-18.384-.87-6.6-2.402-16.5-3.405-22-1.002-5.5-1.823-11.99-1.823-14.421 0-2.432-.587-5.52-1.306-6.861-.718-1.342-1.919-8.053-2.668-14.913-2.434-22.265-3.856-31.918-5.388-36.56-.827-2.505-1.373-7.41-1.213-10.9.16-3.49-.455-9.03-1.366-12.31-.91-3.28-1.868-14.68-2.127-25.333-.26-10.653-.807-22.07-1.217-25.37-.907-7.302.927-30.02 4.522-56 3.864-27.927 4.221-29.79 6.127-32 .949-1.1 2.147-5.431 2.662-9.626.516-4.195 1.733-8.286 2.704-9.092.97-.806 2.172-3.374 2.669-5.707.964-4.524 4.63-13.157 11.996-28.24 2.506-5.134 5.119-11.95 5.805-15.146.687-3.196 3.098-8.786 5.358-12.422 2.26-3.635 4.133-7.02 4.163-7.521.03-.502 1.83-2.99 4-5.528 2.17-2.539 3.946-5.367 3.946-6.285 0-.917 3.51-5.44 7.801-10.05 4.29-4.61 8.04-9.06 8.333-9.888.53-1.499 7.423-9.884 18.2-22.139 3.116-3.544 5.666-7.343 5.666-8.443 0-1.099 1.141-2.429 2.536-2.955 1.395-.526 7.245-5.274 13-10.55 14.237-13.052 17.178-15.347 27.164-21.199 4.748-2.782 9.796-6.143 11.218-7.467 1.421-1.324 3.337-2.408 4.258-2.408.92 0 2.457-1.108 3.415-2.462.958-1.354 3.94-3.183 6.624-4.065 2.685-.88 5.217-2.473 5.625-3.537.409-1.065 1.572-1.936 2.585-1.936s4.326-1.8 7.363-4c3.037-2.2 6.877-4.038 8.534-4.084 1.656-.047 6.611-2.093 11.011-4.548 7.57-4.223 21.918-11.54 28.206-14.383 1.58-.715 3.53-.893 4.334-.397.803.497 1.46.276 1.46-.49 0-1.599 13.443-8.59 19.182-9.977 2.117-.511 5.87-2.47 8.34-4.355 5.126-3.91 19.775-11.1 22.616-11.1 1.044 0 2.94-.53 4.214-1.177 5.19-2.64 21.733-8.204 26.236-8.824 1.51-.208 5.358-1.338 8.552-2.512 3.194-1.173 7.138-1.799 8.766-1.39 1.817.456 3.627-.064 4.69-1.344 1.03-1.241 3.841-2.085 6.944-2.085 2.867 0 7.366-.9 10-2 2.632-1.1 7.14-2 10.017-2 3.802 0 6.142-.911 8.564-3.334 1.834-1.833 4.87-3.333 6.747-3.333 4.193 0 18.742-3.56 22.709-5.556 1.6-.806 3.85-1.104 5-.663 1.15.441 2.09.22 2.09-.49s1.237-1.291 2.75-1.291c3.072 0 15.325-3.52 18.898-5.43 1.274-.68 4.463-1.237 7.088-1.237s6.083-.703 7.685-1.563c1.602-.86 6.512-1.728 10.912-1.93 4.4-.202 9.183-.425 10.629-.497 1.446-.072 3.546-.951 4.666-1.954 1.121-1.002 5.938-2.138 10.705-2.525 18.313-1.483 27.915-3.217 33.27-6.008 3.444-1.796 8.438-3.007 13.143-3.187 4.173-.16 7.887-.634 8.254-1.053.367-.418 3.109-2.012 6.094-3.542 3.924-2.011 6.066-2.424 7.736-1.49 1.518.85 2.88.82 3.975-.09.916-.76 6.135-2.097 11.597-2.97 5.462-.874 10.64-2.139 11.506-2.81.866-.672 5.066-1.565 9.333-1.984 4.267-.418 8.959-1.41 10.425-2.205 1.467-.794 6.567-1.892 11.334-2.438 4.767-.547 12.43-1.49 17.03-2.093 7.44-.978 9.134-.737 15.334 2.18 6.462 3.04 8.337 4.494 9.3 7.213.871 2.465 10.38-4.204 19.67-13.795 5.5-5.679 11.547-10.671 13.44-11.094 1.892-.424 5.296-2.734 7.564-5.134 9.197-9.736 11.94-12.91 14.307-16.551 3.89-5.987 9.078-11.248 12.389-12.566 1.669-.665 3.44-2.267 3.935-3.561.496-1.295 2.323-4.45 4.061-7.013 1.738-2.563 5.855-10.363 9.15-17.333 3.294-6.971 6.575-13.754 7.29-15.074.716-1.32 1.832-4.92 2.48-8 .649-3.08 2.068-8 3.155-10.934 5.408-14.596 8.027-63.062 4.97-92-.774-7.333-2.037-20.533-2.806-29.333-.769-8.8-2.014-18.1-2.767-20.667-2.595-8.847-5.116-24.686-5.143-32.306-.014-4.202-.911-9.902-1.994-12.667-2.848-7.277-5.877-24.637-8.67-49.693-.86-7.7-2.196-16.4-2.971-19.334-.775-2.933-1.878-11.033-2.45-18-1.424-17.354-3.296-27.295-5.816-30.893-1.169-1.669-2.128-4.85-2.131-7.07 0-2.22-1.49-7.637-3.302-12.037-4.567-11.088-4.519-20.416.134-25.946 1.922-2.283 5.522-4.999 8-6.035 2.48-1.035 4.508-2.547 4.508-3.36 0-.9 1.155-.667 2.963.599 1.63 1.142 4.57 2.076 6.534 2.076 1.964 0 6.664 1.432 10.444 3.184 5.928 2.746 7.685 4.534 12.778 13 3.247 5.398 6.252 11.916 6.678 14.482.425 2.567 1.615 7.067 2.644 10 1.028 2.934 2.096 7.484 2.373 10.112.276 2.628 1.567 6.828 2.869 9.333 1.302 2.505 2.578 6.055 2.836 7.889.994 7.053 2.86 15.622 4.938 22.666 4.145 14.06 6.276 25.269 6.276 33.017 0 4.291 1.287 14.368 2.86 22.393 1.574 8.024 3.31 19.09 3.859 24.59.548 5.5 1.698 14.8 2.554 20.667 3.953 27.071 7.509 57.183 10.708 90.667.77 8.066 1.99 18.002 2.71 22.08 1.868 10.577 1.496 30.907-.78 42.586-1.07 5.5-2.522 16.758-3.224 25.017-.703 8.259-1.895 16.17-2.649 17.579-.754 1.409-1.371 5.636-1.371 9.393 0 8.625-2.036 17.386-6.13 26.38-1.762 3.871-3.204 7.832-3.204 8.802 0 2.397-6.192 13.88-9.79 18.157-1.606 1.908-5.3 8.094-8.208 13.746-2.908 5.652-6.348 10.613-7.645 11.024-1.296.412-2.357 1.354-2.357 2.093 0 1.595-10.746 15.776-14.003 18.479-1.247 1.034-4.3 5.057-6.782 8.94-2.483 3.88-5.358 7.057-6.389 7.057-1.03 0-2.22.9-2.641 2-.422 1.1-1.495 2-2.383 2-1.846 0-18.468 16.89-18.468 18.766 0 .679-1.2 1.235-2.667 1.235-1.467 0-2.667.59-2.667 1.31 0 .721-2.915 2.789-6.479 4.594-3.563 1.806-8.213 5.429-10.333 8.05-2.12 2.622-5.143 5.009-6.718 5.304-3.454.646-12.474 6.2-14.986 9.227-.996 1.2-2.596 2.181-3.557 2.181-.961 0-2.128 1.2-2.593 2.667-.652 2.052-2.018 2.667-5.927 2.667-2.89 0-5.796.862-6.74 2-.913 1.1-2.744 2-4.068 2-1.325 0-3.306.897-4.403 1.994-2.894 2.894-8.293 4.672-14.187 4.672-2.834 0-6.008.857-7.055 1.904-1.047 1.047-4.24 2.341-7.096 2.876-2.855.534-6.691 2.042-8.524 3.35-3.978 2.84-6.487 3.325-9.78 1.895-2.817-1.225-16.258 1.58-20.184 4.212-1.446.97-4.261 1.763-6.254 1.763-1.994 0-3.996.6-4.45 1.334-.452.733-2.381 1.333-4.285 1.333-1.904 0-5.43 1.5-7.833 3.333-2.423 1.848-6.157 3.334-8.38 3.334-2.206 0-4.381.6-4.834 1.333-.454.733-3.04 1.354-5.746 1.38-2.707.025-6.421.905-8.254 1.953-1.834 1.048-4.534 1.93-6 1.961-1.467.031-4.447.984-6.622 2.118s-5.475 1.938-7.333 1.787c-3.992-.325-12.941 1.182-16.712 2.813-5.612 2.427-8.561 2.69-14.725 1.308-4.409-.988-6.795-1-7.755-.04-.763.763-2.731 1.387-4.375 1.387-1.643 0-3.359.6-3.812 1.333-.453.734-4.71 1.334-9.459 1.334-5.497 0-9.764.74-11.741 2.035-2.293 1.502-3.984 1.702-6.458.761-2.404-.913-4.077-.766-5.915.521-1.41.988-4.932 2.22-7.828 2.738-2.896.518-7.13 2.333-9.41 4.033-2.755 2.056-4.588 2.646-5.473 1.761-1.649-1.649-7.735-.236-9.824 2.282-.854 1.028-3.128 1.888-5.055 1.911-1.927.023-4.672.926-6.1 2.006-1.428 1.08-3.688 1.618-5.021 1.195-2.7-.857-11.293 1.552-14.383 4.033-3.533 2.836-13.763 5.793-22.431 6.484-4.638.369-9.438 1.5-10.667 2.513-2.372 1.955-7.389 3.717-18.235 6.407-3.667.91-7.642 2.753-8.834 4.096-1.193 1.344-2.517 2.095-2.942 1.67-.928-.928-12.89 2.443-12.89 3.631 0 .456-4.35 1.599-9.667 2.54-9.426 1.667-18.64 5.309-20.322 8.03-.46.744-2.15 1.357-3.757 1.361-1.607 0-4.721 1.211-6.921 2.68s-6.365 3.319-9.256 4.111c-2.89.793-7.752 3.487-10.804 5.988-3.051 2.5-6.813 4.546-8.359 4.546-1.546 0-3.884 1.147-5.196 2.55-1.312 1.402-5.085 3.59-8.385 4.861-3.3 1.272-7.325 3.671-8.945 5.332-1.619 1.662-4.785 3.425-7.035 3.92-6.792 1.491-15.017 6.898-21.261 13.975-3.25 3.682-6.399 6.695-6.999 6.695-2.265 0-11.852 10.56-13.783 15.182-1.107 2.65-2.905 4.818-3.995 4.818-1.09 0-1.982.858-1.982 1.905 0 1.048-.773 2.698-1.717 3.667-.944.969-3.172 4.14-4.951 7.046-1.78 2.907-4.157 6.214-5.284 7.35-1.126 1.136-3.492 5.058-5.258 8.716-1.765 3.657-3.716 7.55-4.336 8.65-.62 1.1-1.736 3.415-2.48 5.144-.743 1.73-3.141 5.316-5.33 7.97-2.187 2.655-3.978 5.383-3.978 6.064 0 .68-1.474 3.17-3.276 5.533-3.794 4.973-8.722 17.224-8.723 21.683 0 1.683-1.385 4.445-3.078 6.138-1.823 1.823-3.78 6.281-4.802 10.94-.95 4.323-2.5 9.661-3.445 11.861-2.356 5.48-4.965 15.807-4.575 18.108.176 1.04-.034 2.792-.466 3.892-4.48 11.401-3.167 81.573 1.77 94.667.692 1.833 1.855 9.194 2.586 16.358.73 7.164 2.26 15.257 3.4 17.984 1.14 2.726 2.592 10.46 3.228 17.186.636 6.725 1.801 13.432 2.589 14.903 1.317 2.461 6.392 30.665 7.479 41.569.256 2.566 1.354 7.144 2.44 10.172 1.086 3.027 2.4 9.027 2.922 13.333.52 4.305 1.462 8.476 2.09 9.267.63.792 1.806 7.392 2.616 14.667.81 7.275 1.993 15.327 2.63 17.894 1.203 4.856 3.12 23.537 3.009 29.333-.392 20.446-2.437 33.335-6.77 42.667-1.532 3.3-3.521 8.557-4.42 11.683-.9 3.125-2.438 6.348-3.42 7.163-.98.814-1.784 2.272-1.784 3.239 0 2.74-2.098 3.443-11.724 3.921-7.016.349-10.45-.202-15.942-2.559zm2522.637-480.919c-1.666-.622-3.388-2.066-3.827-3.209-.79-2.058 1.73-13.418 3.547-15.986.519-.733 1.29-4.427 1.715-8.208.425-3.782 2.577-12.782 4.782-20 2.205-7.219 4.395-16.125 4.866-19.792.952-7.411 6.539-25.146 9.272-29.433.97-1.521 1.929-5.121 2.132-8 .202-2.878 1.44-7.425 2.75-10.104 2.32-4.745 2.92-7.464 7.161-32.463 4.258-25.095 1.541-130.624-3.5-135.933-.66-.697-1.202-4.657-1.202-8.801s-.547-9.274-1.215-11.4c-3.142-10-6.785-29.065-6.785-35.511 0-3.935-.633-7.788-1.406-8.561-.774-.774-1.972-5.4-2.663-10.28-.691-4.879-1.783-9.916-2.427-11.193-1.797-3.563-8.301-23.077-9.44-28.32-.558-2.567-1.941-6.467-3.074-8.667-1.134-2.2-4.56-9.25-7.616-15.667-3.055-6.417-6.068-11.667-6.694-11.667-.627 0-1.83-2.09-2.672-4.644-.843-2.554-3.161-5.804-5.152-7.22-1.99-1.418-4.497-4.221-5.57-6.23-2.481-4.641-23.975-26.324-34.929-35.234-4.596-3.74-10.757-9.086-13.69-11.883-2.933-2.796-7.883-6.313-11-7.815l-5.667-2.732v3.624c0 6.215-2.501 8.131-9.004 6.899-5.08-.963-13.982-5.914-18.758-10.431-.969-.917-2.53-1.667-3.469-1.667-.939 0-3.59-1.8-5.892-4-2.302-2.2-5.087-4-6.188-4-1.1 0-3.605-1.8-5.566-4-1.96-2.2-4.547-4-5.748-4-1.202 0-4.22-2.1-6.708-4.667-2.488-2.566-6.955-6.314-9.928-8.33-2.973-2.014-5.706-4.027-6.072-4.472-.367-.446-2.204-1.647-4.084-2.67-6.252-3.405-27.916-18.959-27.916-20.043 0-.587-.841-.745-1.869-.35-1.027.394-4.777-1.325-8.333-3.82s-8.565-5.55-11.132-6.789c-2.566-1.239-8.866-5.23-14-8.87-5.133-3.64-11.616-7.834-14.407-9.32-2.791-1.487-6.391-3.947-8-5.466-1.61-1.52-4.595-3.637-6.634-4.705-2.04-1.069-5.405-3.718-7.478-5.887-2.073-2.17-4.183-3.944-4.689-3.944-.506 0-4.202-2.1-8.215-4.667-4.012-2.567-7.882-4.667-8.6-4.667-.717 0-4.155-2.01-7.64-4.465-7.173-5.054-33.063-18.201-35.844-18.201-1.004 0-1.826-.6-1.826-1.334 0-.733-1.54-1.333-3.42-1.333-1.882 0-4.492-.573-5.8-1.273-1.309-.7-7.12-2.543-12.913-4.096-5.793-1.552-15.495-5.18-21.56-8.06-6.064-2.88-11.764-5.263-12.666-5.294-.902-.031-5.84-1.588-10.974-3.46-5.134-1.871-11.284-3.711-13.667-4.089-2.383-.377-4.333-1.198-4.333-1.823 0-.624-2.4-1.782-5.334-2.572-2.933-.79-5.333-2.013-5.333-2.718 0-.705-1.38-1.282-3.067-1.282-1.686 0-3.636-.539-4.333-1.197-.696-.66-5.466-2.847-10.6-4.863-5.133-2.016-13.962-6.277-19.62-9.469-5.658-3.192-10.758-5.807-11.334-5.81-1.575-.013-12.964-5.947-17.264-9.002-2.08-1.478-5.882-3.656-8.448-4.84-7.048-3.253-17.55-9.97-21.667-13.856-2.017-1.904-3.667-2.999-3.667-2.434 0 .566-2.336-.822-5.192-3.083-2.855-2.262-5.855-4.112-6.666-4.112-.812 0-2.731-1.257-4.267-2.792-1.535-1.536-4.985-4.25-7.667-6.032-12.589-8.367-45-40.584-56.03-55.694-2.47-3.382-5.02-6.15-5.667-6.15-.648 0-1.178 2.88-1.178 6.4 0 3.52-.743 7.145-1.652 8.054-1.723 1.722-4.754 12.427-5.619 19.844-.276 2.364-2.308 8.12-4.516 12.794-2.208 4.673-4.39 10.84-4.849 13.703-1.274 7.955-3.651 17.041-4.878 18.644-.605.791-2.59 5.4-4.413 10.24-3.231 8.586-4.852 10.98-13.697 20.239-2.36 2.47-4.632 6.5-5.048 8.954-.726 4.284-5.195 9.382-12.425 14.176-1.704 1.13-4.022 4.364-5.152 7.188-1.13 2.823-3.936 6.459-6.235 8.08-2.3 1.62-5.276 4.312-6.612 5.982-1.337 1.67-3.256 3.036-4.266 3.036-1.01 0-3.361 2-5.226 4.446-2.767 3.628-5.05 4.847-12.401 6.622-4.956 1.197-12.568 3.304-16.916 4.682-6.005 1.902-8.763 2.181-11.47 1.16-5.886-2.222-8.437-.38-7.497 5.416.442 2.72 1.896 6.41 3.233 8.2 3.624 4.853 20.132 15.72 24.142 15.89 7.078.301 10.656 1.163 14.042 3.382 1.907 1.249 5.414 2.607 7.795 3.018 2.38.41 7.027 1.54 10.327 2.508 19.874 5.832 21.425 6.533 27.334 12.358 3.3 3.253 6 6.588 6 7.41 0 .822 1.756 3.012 3.902 4.868 4.743 4.1 9.308 15.035 11.148 26.707 1.947 12.343 1.982 53.507.05 57.484-3.462 7.123-4.482 12.184-2.852 14.148 1.235 1.489 1.162 2.169-.334 3.116-1.053.666-2.449 1.22-3.102 1.231-.653.013-7.553 6.545-15.333 14.518-10.054 10.304-15.367 14.763-18.368 15.415-2.322.505-4.508 1.664-4.858 2.576-.35.912-3.13 2.481-6.177 3.487-3.047 1.005-5.96 2.546-6.475 3.423-1.179 2.011-13.665 7.725-22.825 10.446-3.836 1.139-9.448 3.89-12.472 6.113-4.63 3.406-6.716 4.043-13.234 4.043-4.255 0-7.737.541-7.737 1.203 0 1.769-7.65 4.13-13.38 4.13-2.74 0-6.7.896-8.801 1.992-2.1 1.096-4.796 1.996-5.99 2-1.193 0-2.953.952-3.91 2.106-2.398 2.889-11.597 7.437-14.336 7.088-3.055-.39-12.584 1.567-14.332 2.943-.779.613-7.632 1.463-15.228 1.889-7.597.425-14.378 1.123-15.07 1.55-1.478.914-25.34 4.127-44.286 5.963-16.5 1.6-21.334 2.18-21.334 2.56 0 .305-7.163.864-21.333 1.666-4.4.25-9.42 1.045-11.156 1.769-1.736.723-7.937 1.095-13.78.825-5.842-.27-11.322.057-12.177.725-2.798 2.189-10.5 3.019-12.513 1.348-1.308-1.086-2.194-1.144-2.81-.184-1.535 2.396-6.087 3.166-22.122 3.746-8.526.308-16.01.874-16.632 1.259-.622.384-6.295.927-12.608 1.206-6.312.28-12.24 1.114-13.173 1.855-2.27 1.802-9.103 2.98-29.03 5.007-9.166.932-19.966 2.697-24 3.922-4.032 1.225-10.195 2.575-13.694 3.002-3.498.426-6.684 1.297-7.078 1.935-.395.64-3.343 1.162-6.552 1.162-3.21 0-7.524.645-9.588 1.434-2.065.788-7.054 2.046-11.087 2.795-4.033.749-7.733 2.008-8.222 2.798-.489.79-4.39 1.848-8.668 2.353-4.28.504-10.596 2.2-14.039 3.768-3.442 1.568-8.056 2.852-10.253 2.852-2.197 0-4.316.52-4.709 1.156-.393.636-3.466 1.467-6.828 1.846-3.677.414-7.334 1.835-9.175 3.564-2.092 1.966-4.492 2.783-7.583 2.582-2.488-.161-5.834.414-7.436 1.279-3.623 1.957-8.762 2.03-10.64.153-1.003-1.003-2.094-.743-3.723.886-1.619 1.619-4.797 2.385-10.689 2.575-4.612.15-9.06.689-9.884 1.199-.825.51-3.54.189-6.032-.712-3.887-1.406-4.848-1.323-6.754.583-2.394 2.393-2.39 2.392-7.365 2.919-12.608 1.334-23.628 1.976-44.448 2.588-13.08.385-24.244.985-24.81 1.335-.566.35-2.927.091-5.248-.574-2.614-.75-6.869-.698-11.19.135-8.669 1.673-9.704 1.703-23.637.703-22.667-1.628-42.053-3.827-44.349-5.029-1.291-.676-5.09-1.487-8.44-1.8-3.35-.315-6.793-1.134-7.651-1.822-1.6-1.281-7.798-2.518-17.984-3.589-6.183-.65-12.864-3.398-20.096-8.268-2.486-1.673-5.846-3.043-7.467-3.043-1.62 0-5.52-1.95-8.667-4.333-3.146-2.383-7.107-5.103-8.803-6.042-1.696-.94-4.173-3.095-5.505-4.789-1.333-1.693-3.752-3.79-5.378-4.66-3.222-1.725-15.332-14.167-16.197-16.642-.295-.844-1.795-2.77-3.333-4.28-3.773-3.703-7.368-8.189-11.978-14.947-2.117-3.102-4.302-5.64-4.856-5.64-.554 0-1.384-1.5-1.844-3.333-.46-1.834-1.46-3.334-2.223-3.334-.763 0-1.076-.504-.695-1.12.38-.615-.4-3.165-1.735-5.666-1.334-2.5-2.856-6.047-3.38-7.88-.91-3.173-5.247-13.055-7.609-17.334-2.58-4.674-5.144-11.134-5.144-12.961 0-1.083-.86-3.86-1.91-6.17-3.295-7.248-6.09-16.808-6.09-20.829 0-2.126-.67-5.555-1.487-7.62-.818-2.064-1.976-7.353-2.574-11.753-.598-4.4-1.777-10.7-2.62-14-.844-3.3-2.32-11.1-3.28-17.333-.96-6.234-2.38-14.394-3.153-18.134-.774-3.74-1.07-8.088-.659-9.663.412-1.575-.297-6.015-1.575-9.867-1.342-4.044-2.232-10.384-2.106-15.003.12-4.4-.942-12.8-2.361-18.667-1.419-5.866-2.943-14.566-3.386-19.333-1.554-16.695-8.538-47.342-12.003-52.667-.954-1.466-2.698-6.474-3.875-11.128-2.525-9.982-4.71-13.374-6.866-10.659-2.562 3.228-9.896 7.787-12.525 7.787-1.418 0-2.985-1.05-3.482-2.333-.862-2.222-.987-2.222-2.623 0-2.255 3.062-13.604 3.193-17.867.207-1.67-1.17-4.353-1.81-5.964-1.423-3.21.77-12.139-1.428-19.884-4.897-2.727-1.221-5.34-2.22-5.808-2.22-.468 0-3.038-1.711-5.71-3.802s-6.495-4.2-8.495-4.685c-2-.485-6.8-3.455-10.667-6.598-11.194-9.1-31.128-22.781-39.3-26.97-2.349-1.204-5.925-3.723-7.946-5.596-2.022-1.874-6.7-4.915-10.397-6.759-3.696-1.844-8.965-5.258-11.708-7.589-2.743-2.33-7.748-5.656-11.122-7.391-3.374-1.736-7.43-4.534-9.013-6.218-1.582-1.684-5.175-3.446-7.983-3.915-2.81-.469-5.801-1.966-6.654-3.331-.852-1.364-2.258-2.48-3.125-2.48-.868 0-3.273-1.418-5.346-3.15-2.073-1.734-5.154-3.585-6.848-4.115-1.693-.53-6.493-3.228-10.666-5.995-4.174-2.766-8.872-5.434-10.44-5.928-1.568-.493-4.313-2.228-6.1-3.854-1.786-1.627-4.403-3.163-5.815-3.413-1.412-.25-2.785-1.057-3.053-1.791-.267-.735-4.246-3.023-8.843-5.085-4.597-2.063-8.77-4.416-9.272-5.23-.503-.813-2.823-2.37-5.157-3.459-7.234-3.376-15.367-8.259-20.58-12.355-2.747-2.16-6.872-4.886-9.167-6.06-2.294-1.173-4.518-3.036-4.942-4.14-.424-1.104-2.905-2.899-5.514-3.989-2.608-1.09-5.078-2.855-5.487-3.922-.41-1.067-2.145-2.291-3.856-2.72-1.71-.43-5.717-3.517-8.903-6.861-3.186-3.344-8.668-7.926-12.183-10.182-3.514-2.255-7.204-5.677-8.2-7.602-.996-1.926-4.796-6.497-8.444-10.159-5.612-5.63-28.3-37.588-28.3-39.862 0-.408-2.016-3.904-4.48-7.769-2.465-3.864-4.906-8.375-5.424-10.025-.518-1.65-1.43-3-2.027-3-.597 0-1.744-2.617-2.55-5.814-.804-3.198-2.337-6.54-3.405-7.426-1.068-.886-2.351-3.52-2.851-5.853-.5-2.332-2.111-6.64-3.58-9.574-1.47-2.933-3.17-7.733-3.778-10.667-1.112-5.366-7.19-24.37-9.38-29.333-1.18-2.675-4.934-19.569-5.824-26.21-.261-1.95-1.097-4.707-1.858-6.129-.76-1.42-2.025-7.626-2.81-13.789-.784-6.163-2.021-13.605-2.749-16.539-.728-2.933-2.23-13.133-3.339-22.666-5.04-43.349-6.077-52.965-7.254-67.334-.69-8.433-2.258-24.033-3.484-34.666-2.089-18.125-2.678-25.298-3.283-40-.136-3.3-1.624-15-3.307-26-1.683-11-3.46-25.04-3.947-31.2-.488-6.16-1.488-12.76-2.222-14.667-1.174-3.054-2.318-10.143-2.602-16.133-.052-1.1-1.188-5-2.524-8.667s-4.616-16.267-7.289-28-5.683-23.133-6.688-25.333c-1.005-2.2-2.207-5.5-2.67-7.334-.864-3.42-2.746-8.218-4.83-12.315-.648-1.273-1.178-3.167-1.178-4.209 0-1.042-1.858-6-4.13-11.018-2.271-5.019-4.905-11.824-5.853-15.124-2.597-9.039-9.258-26.807-13.077-34.88-8.973-18.966-12.94-28.33-12.94-30.542 0-1.331-.592-2.787-1.316-3.234-.723-.448-2.223-3.933-3.332-7.746-1.11-3.812-4.417-10.832-7.35-15.598-2.934-4.767-5.334-9.974-5.334-11.572 0-1.598-.923-3.826-2.05-4.953-1.126-1.127-2.965-4.243-4.085-6.924-1.12-2.682-3.499-7.19-5.285-10.02-1.786-2.83-3.248-5.763-3.248-6.518 0-.755-4.5-11.08-10-22.943-5.5-11.864-10-22.541-10-23.728 0-1.187-1.5-4.19-3.333-6.676-1.834-2.485-3.334-5.301-3.334-6.259 0-.957-.588-1.74-1.307-1.74-.72 0-1.7-1.65-2.179-3.667-.788-3.32-5.46-15.592-8.503-22.334-2.651-5.875-8.479-21.468-9.448-25.28-.566-2.23-2.835-8.553-5.04-14.053-2.206-5.5-5.302-14.5-6.88-20-1.58-5.5-3.946-13.3-5.26-17.333-1.316-4.034-3.708-13.334-5.318-20.667-1.61-7.333-3.545-15.133-4.3-17.333-.755-2.2-1.86-6.7-2.454-10-.595-3.3-1.672-7.53-2.395-9.4-.722-1.869-1.753-7.569-2.29-12.666-.538-5.097-1.514-10.698-2.17-12.446-1.14-3.04-4.236-27.295-6.427-50.349-.567-5.973-1.378-11.42-1.801-12.105-.423-.684-.868-8.697-.99-17.806-.12-9.109-.8-20.162-1.51-24.562-.741-4.587-1.475-60.127-1.722-130.208-.27-76.816-.983-127.827-1.92-137.334-2.657-26.967-5.66-53.769-6.105-54.489-.238-.386-1.143-6.687-2.009-14.002-.866-7.315-2.039-17.2-2.606-21.967-.567-4.766-2.006-12.146-3.198-16.398-1.192-4.253-2.168-10.277-2.168-13.387 0-3.11-.872-9.005-1.939-13.1-1.067-4.096-2.32-13.072-2.784-19.947-.465-6.876-1.692-16.826-2.727-22.112-1.036-5.285-1.883-12.655-1.883-16.376 0-3.72-.848-8.796-1.885-11.277-1.673-4.004-5.084-48.99-4.807-63.403.05-2.566.122-19.349.16-37.294.04-17.945.402-33.161.805-33.814.404-.653.66-7.87.57-16.04-.16-14.608 1.23-29.717 3.942-42.852.758-3.666 1.924-11.766 2.592-18 2.98-27.8 9.147-64.084 11.703-68.86.835-1.559 1.493-4.853 1.463-7.32-.059-4.81 1.663-14.51 4.11-23.153.83-2.933 2.337-8.933 3.35-13.333 1.78-7.737 4.104-16.756 7.901-30.667 2.744-10.052 7.315-28.501 8.903-35.933.776-3.63 2.583-8.898 4.017-11.708 1.433-2.809 3.128-7.639 3.767-10.733 1.367-6.615 6.687-20.753 10.629-28.241 1.53-2.905 2.784-6.205 2.789-7.334.005-1.128 1.2-3.851 2.658-6.051 1.457-2.2 2.653-4.948 2.658-6.107.005-1.16 1.506-5.06 3.337-8.667 1.831-3.608 3.718-8.66 4.193-11.226.476-2.567 1.978-6.098 3.338-7.847 1.36-1.748 2.474-3.998 2.474-5 0-1 .53-1.82 1.177-1.82 1.362 0 8.156-13.829 8.156-16.6 0-1.024 1.5-3.644 3.333-5.823 1.834-2.179 3.334-4.925 3.334-6.103 0-1.177 1.2-3.34 2.666-4.807 1.467-1.467 2.667-3.235 2.667-3.93 0-1.906 6.257-13.28 10.016-18.21 1.825-2.391 3.317-4.989 3.317-5.771s.51-1.422 1.131-1.422c.622 0 2.272-2.548 3.667-5.66 3.554-7.934 12.31-20.792 15.217-22.348 1.34-.717 2.84-3.15 3.336-5.405.496-2.255 1.744-4.425 2.775-4.82 1.031-.396 1.874-1.409 1.874-2.252 0-.842 3.3-4.939 7.334-9.103 4.033-4.164 7.333-8.157 7.333-8.873 0-.716 3.6-5.705 7.999-11.087 4.399-5.382 7.999-10.536 8-11.452a1.68 1.68 0 0 1 1.684-1.667c.926 0 5.276-4.79 9.667-10.643 4.39-5.854 8.72-10.654 9.62-10.667.9-.013 2.665-1.673 3.923-3.69 4.828-7.738 44.03-49.667 46.438-49.667.357 0 5.004-4.188 10.326-9.307 16.57-15.937 17.473-16.736 25.677-22.74 4.4-3.22 10.7-8.614 14-11.986 3.3-3.372 7.95-6.99 10.333-8.041 2.383-1.05 4.333-2.263 4.333-2.693 0-.431 2.865-2.64 6.366-4.908 3.5-2.269 9.143-6.57 12.538-9.558 3.395-2.988 6.722-5.433 7.394-5.433.672 0 3.238-1.8 5.702-4s5.14-4 5.946-4 2.33-1.2 3.388-2.667c1.057-1.467 2.66-2.667 3.56-2.667.903 0 2.12-.804 2.707-1.786.586-.983 3.916-3.44 7.4-5.46 3.483-2.02 6.333-4.085 6.333-4.588 0-.503 1.65-1.638 3.666-2.522 2.017-.885 6.067-3.428 9-5.652 2.934-2.225 7.544-5.225 10.246-6.667 2.702-1.442 6.54-4.13 8.528-5.974 1.989-1.843 4.639-3.35 5.89-3.35 1.25 0 4.176-1.818 6.5-4.04 2.325-2.221 5.983-4.39 8.13-4.82 2.147-.429 4.927-1.911 6.178-3.294 1.251-1.382 2.807-2.513 3.457-2.513.65 0 2.343-1.081 3.76-2.402 2.916-2.716 12.89-8.265 14.858-8.265.712 0 6.374-3 12.581-6.667 6.208-3.666 11.543-6.666 11.854-6.666.312 0 3.62-1.8 7.352-4 3.73-2.2 7.664-4 8.74-4 1.076 0 5.472-2.4 9.77-5.334 4.297-2.933 8.574-5.333 9.504-5.333.93 0 4.457-1.697 7.838-3.772 3.381-2.074 8.989-4.852 12.462-6.174 3.473-1.32 6.996-3.224 7.83-4.228.833-1.004 2.602-1.826 3.93-1.826 1.327 0 8.82-3.3 16.652-7.333 7.83-4.034 14.77-7.334 15.42-7.334 1.368 0 23.926-9.718 29.854-12.861 2.2-1.167 7.6-3.286 12-4.71 4.4-1.423 11-3.972 14.666-5.664 10.031-4.628 27.532-10.098 32.307-10.098 2.325 0 4.707-.813 5.294-1.808.963-1.632 6.83-3.643 37.104-12.717 5.154-1.544 10.355-2.808 11.559-2.808 3.015 0 17.588-3.801 22.792-5.945 2.353-.97 9.378-2.177 15.61-2.684 6.234-.507 14.634-1.83 18.668-2.939 8.926-2.454 11.263-2.857 24-4.141 5.5-.555 10.695-1.449 11.544-1.986 1.306-.827 30.321-3.902 36.456-3.863 1.1.007 8-.524 15.333-1.18 7.333-.657 17.533-1.177 22.667-1.157 13.582.052 13.457.052 60.392.028 24.143-.012 44.529.536 46.404 1.25 1.839.698 5.262 1.188 7.607 1.087 4.89-.21 21.436.88 43.597 2.874 23.68 2.13 25.858 2.38 28 3.216 1.972.77 5.845 1.398 49.333 7.999 12.1 1.836 24.096 3.962 26.658 4.723 2.562.761 6.709 1.384 9.216 1.384 2.507 0 7.61.848 11.342 1.884 14.967 4.156 19.276 5.079 31.004 6.64 6.72.896 13.02 2.273 14 3.061.979.788 3.88 1.748 6.447 2.133 7.72 1.16 15.005 3.34 15.879 4.753.452.732 5.103 1.621 10.335 1.977 5.232.355 10.924 1.426 12.65 2.38 1.724.953 5.959 1.811 9.409 1.907 3.45.095 7.05.756 8 1.468.95.713 5.027 2.086 9.06 3.052 4.033.965 7.933 2.192 8.667 2.724 1.935 1.407 7.223 2.8 13.333 3.514 2.933.343 9.233 1.999 14 3.68 11.78 4.153 36.657 12.15 44 14.143 3.3.896 7.378 2.166 9.063 2.823 1.684.657 4.53 1.195 6.323 1.195 1.793 0 4.74 1.286 6.549 2.859 1.809 1.573 5.015 2.995 7.125 3.161 2.11.166 7.77 2.18 12.58 4.474 4.807 2.295 10.455 4.176 12.55 4.18 2.096.005 5.528.905 7.629 2 2.1 1.096 4.574 1.992 5.497 1.992 2.416 0 13.76 5.171 14.707 6.705.44.712 2.192 1.295 3.892 1.295 1.7 0 3.777.825 4.613 1.834.838 1.008 3.868 2.209 6.736 2.667 2.867.459 6.044 1.664 7.058 2.679 3.404 3.403 12.863 7.487 17.343 7.487 2.44 0 6.663 1.135 9.383 2.521 2.72 1.387 6.531 2.92 8.469 3.406 1.938.486 9.156 3.552 16.04 6.812 6.885 3.26 13.393 5.928 14.464 5.928 1.07 0 3.46 2.4 5.312 5.333 3.655 5.789 5.38 6.872 4.287 2.69-.58-2.22-.3-2.434 1.756-1.334 1.347.721 3.492 1.31 4.768 1.31 2.07 0 16.219 6.342 30.305 13.583 2.814 1.447 5.46 2.285 5.883 1.864.421-.422 2.73.73 5.128 2.56 2.4 1.83 5.32 3.327 6.493 3.327 1.172 0 2.476.9 2.898 2 .422 1.1 1.882 2 3.245 2 1.362 0 3.088 1.05 3.834 2.333 3.398 5.839 5.292 7.419 7.098 5.92 2.39-1.983 7.37-.535 8.305 2.414.885 2.785 6.096 4.94 12.627 5.221 2.545.11 5.884 1.38 7.42 2.822 1.535 1.443 3.753 2.623 4.928 2.623 1.175 0 2.336.548 2.58 1.217.4 1.09 7.688 5.282 21.128 12.147 2.576 1.316 5.819 3.647 7.207 5.18 1.388 1.535 3 2.79 3.583 2.79.583 0 3.727 1.8 6.987 4 3.26 2.2 6.671 4 7.58 4 .91 0 3.027 1.35 4.705 3 5.64 5.546 10.99 9 13.94 9 1.613 0 4.123 1.515 5.58 3.367 1.456 1.851 4.635 4.197 7.064 5.211 6.945 2.902 17.749 11.554 18.584 14.883.591 2.354 1.661 3.001 4.816 2.911 2.9-.082 5.384 1.173 8.718 4.405 2.565 2.485 4.039 4.727 3.275 4.982-1.618.54-1.899 4.24-.322 4.24.587 0 1.696-.628 2.464-1.397.974-.974 3.112.036 7.06 3.334 3.114 2.601 6.355 4.753 7.202 4.782.848.028 2.74 1.937 4.208 4.243 2.953 4.643 9.18 8.791 13.42 8.941 1.516.054 4.547 2.048 6.737 4.43 2.19 2.384 5.874 5.834 8.189 7.668 2.314 1.833 4.233 4.062 4.264 4.953.03.89 1.16 2.21 2.51 2.933 1.35.722 4.414 3.143 6.808 5.38 2.395 2.237 5.26 4.067 6.368 4.067 1.357 0 1.787.869 1.318 2.664-.534 2.042.36 3.165 3.835 4.814 6.74 3.198 14.984 12.1 16.79 18.13 1.035 3.455 2.672 5.725 4.676 6.487 1.697.645 3.084 1.787 3.084 2.539 0 .751.9 1.366 2 1.366s2 .588 2 1.306c0 .719 2.25 2.461 5 3.873 2.75 1.412 6.135 4.574 7.522 7.027 3.193 5.647 8.845 11.794 10.843 11.794.843 0 3.266 3.45 5.385 7.667 2.118 4.216 5.289 8.817 7.046 10.223 1.757 1.407 4.03 4.407 5.053 6.667 3.483 7.704 6.07 11.063 10.387 13.491 1.35.76 3.5 4.06 4.775 7.333 1.591 4.084 3.205 6.086 5.143 6.377 2.99.45 6.846 4.945 6.846 7.98 0 .998 1.95 4.314 4.334 7.37 4.805 6.164 7.666 10.906 7.666 12.706 0 .651 2.125 3.504 4.722 6.339 2.597 2.835 5.051 6.467 5.454 8.071.402 1.604 1.578 3.24 2.611 3.638 1.034.396 1.88 2.12 1.88 3.83s.56 3.678 1.244 4.375c.685.696 1.435 3.666 1.667 6.6.329 4.15.925 5.25 2.687 4.957 1.647-.274 2.504.896 3.14 4.286.48 2.564 1.74 5.38 2.798 6.258 2.657 2.205 12.459 23.327 12.488 26.91.013 1.607 1.814 6.168 4 10.135 2.187 3.967 3.976 8.244 3.976 9.503 0 1.26.9 3.038 2 3.95 1.1.914 2 2.795 2 4.182 0 1.387.518 3.563 1.152 4.837 5.322 10.697 8.181 17.67 8.181 19.952 0 1.486.825 3.387 1.832 4.223 1.007.836 2.225 4.49 2.707 8.12.481 3.63 1.66 7.069 2.62 7.643 2.206 1.319 4.841 8.917 4.841 13.956 0 2.117.842 5.177 1.87 6.801 1.028 1.624 2.288 5.053 2.8 7.62.513 2.567 2.58 8.267 4.596 12.667 3.969 8.665 7.34 20.328 9.825 34 .867 4.766 2.02 9.35 2.563 10.185.543.835 1.856 5.65 2.918 10.698s2.515 10.714 3.228 12.59c.714 1.877 1.453 6.063 1.644 9.303.19 3.24 1.087 7.39 1.993 9.224.907 1.833 2.345 6.933 3.196 11.333.852 4.4 2.74 12.858 4.196 18.796 1.456 5.938 2.87 14.938 3.142 20 .271 5.062 1.14 10.893 1.928 12.957 1.792 4.689 1.76 17-.065 24.914-1.9 8.238-1.776 11.765.505 14.41 1.451 1.685 1.862 5.298 1.622 14.256-.176 6.6-.485 12.6-.686 13.334-.2.733-.015 2.233.415 3.333 1.836 4.712 3.27 18.582 2.653 25.646-.368 4.206.013 10.343.84 13.638 1.075 4.271 1.11 7.766.125 12.165-.761 3.396-1.677 13.459-2.035 22.362-.358 8.904-.983 21.589-1.388 28.189-.405 6.6-.707 16.018-.671 20.928.036 4.911-.472 11.81-1.13 15.33-.75 4.016-.714 6.983.097 7.96.793.956.974 9.468.468 22.004-.454 11.245-.764 21.345-.69 22.445.076 1.1.47 6.136.877 11.192.471 5.84.175 10.252-.813 12.097-1.06 1.981-1.297 7.323-.745 16.807.445 7.647.777 28.004.737 45.237-.095 41.32-.093 41.364 1.453 44.252.8 1.496 1.147 11.826.864 25.788-.259 12.811 0 23.293.565 23.293.57 0 .749 1.65.398 3.667-.592 3.408-1.988 57.723-1.882 73.215.027 3.785-.526 7.236-1.227 7.67-.729.45-1.082 6.921-.825 15.118.247 7.881-.184 16.73-.958 19.664-.774 2.933-1.586 13.433-1.804 23.333-.6 27.182-1.615 40.249-3.387 43.558-1.187 2.218-1.25 5.156-.246 11.382 1.043 6.464.932 9.815-.48 14.576-2.427 8.182-3.563 23.406-1.827 24.48.903.558.886 1.696-.052 3.449-2.07 3.867-6.412 45.993-7.066 68.555-.422 14.535-3.735 43.822-5.16 45.612-.706.887-.894 3.386-.418 5.555.476 2.168.3 5.043-.391 6.387-1.98 3.852-8.809 33.044-10.476 44.788-.391 2.754-1.248 5.34-1.904 5.745-.656.405-1.192 1.881-1.192 3.28 0 2.348-1.44 6.28-6.093 16.633-.989 2.2-2.203 6.4-2.699 9.333-1.073 6.354-4.314 15.214-6.585 18-.897 1.1-2.977 5.9-4.623 10.667-1.646 4.767-3.749 9.567-4.672 10.667-.924 1.1-2.134 3.5-2.69 5.333-.557 1.833-2.127 5.424-3.492 7.98-1.364 2.556-2.496 5.256-2.517 6-.02.744-1.82 3.71-4 6.59-2.7 3.57-3.963 6.776-3.963 10.063 0 3.477-1.677 7.379-6 13.96-3.3 5.025-6 9.69-6 10.367 0 .676-.899 2.13-1.998 3.228-1.099 1.1-2.389 3.606-2.867 5.572-.478 1.965-2.579 5.544-4.668 7.953-2.09 2.409-3.8 5.485-3.8 6.837 0 1.351-.926 3.225-2.057 4.164-1.131.939-4.091 5.962-6.578 11.163-2.487 5.2-5.947 12.156-7.69 15.456-1.742 3.3-4.481 8.55-6.088 11.667-6.372 12.364-9.046 16.8-11.92 19.774-1.65 1.708-3 4.014-3 5.124 0 1.82-3.69 10.288-6.725 15.435-5.367 9.1-11.942 23.162-11.942 25.541 0 1.604-.823 3.863-1.828 5.021-1.006 1.158-3.804 7.112-6.22 13.23-2.414 6.12-5.192 11.434-6.171 11.81-.98.376-1.78 1.297-1.78 2.046 0 2.066-11.799 25.895-17.571 35.489-2.803 4.658-5.097 9.534-5.097 10.836 0 1.302-.9 3.114-2 4.027-1.1.913-2 2.382-2 3.264 0 .883-1.35 2.885-3 4.45-1.65 1.565-5.1 6.92-7.666 11.9-2.567 4.979-5.036 9.353-5.487 9.72-.451.366-1.268 2.166-1.816 4-.547 1.833-2.63 6.033-4.627 9.333-1.998 3.3-4.971 9.581-6.608 13.958-1.637 4.377-4.848 11.277-7.135 15.334-9.76 17.312-13.349 26.006-19.002 46.041-1.242 4.4-2.787 9.024-3.433 10.275-.647 1.252-1.571 4.852-2.055 8-.483 3.149-1.979 7.92-3.323 10.603-1.344 2.683-2.841 7.483-3.328 10.667-.486 3.184-1.332 6.389-1.88 7.122-2.732 3.658-11.842 47.19-12.22 58.4-.184 5.44-.995 9.638-2.03 10.496-1.053.874-1.723 4.496-1.723 9.314 0 4.86-.789 9.088-2.057 11.023-1.131 1.727-2.293 6.956-2.581 11.62-.289 4.664-1.177 12.38-1.974 17.147-.796 4.767-1.933 12.567-2.525 17.333-.593 4.767-1.694 9.867-2.447 11.334-.754 1.466-2.45 6.74-3.772 11.719-1.32 4.978-2.906 9.364-3.523 9.745-.616.381-1.116 2.308-1.11 4.28 0 1.974-.869 7.489-1.945 12.256-3.445 15.257-6.958 38.514-7.956 52.666-1.002 14.223-2.156 22.68-4.211 30.876-1.176 4.687-2.639 11.658-3.252 15.49-.612 3.832-1.36 7.868-1.662 8.968-.302 1.1-.987 5-1.523 8.666-1.102 7.548-4.37 22.334-6.04 27.334-.612 1.833-1.869 6.033-2.793 9.333-.924 3.3-2.547 8.7-3.606 12-1.059 3.3-2.184 9-2.5 12.667-1.271 14.738-1.944 18.563-3.428 19.48-2.084 1.289 1.213 6.278 7 10.59 2.408 1.795 8.621 7.395 13.808 12.445 5.187 5.05 11.53 10.746 14.097 12.659 2.567 1.912 4.967 3.797 5.333 4.188.367.391 3.245 1.849 6.397 3.239 3.151 1.39 6.151 3.25 6.666 4.135.516.884 5.887 4.74 11.937 8.569 6.05 3.829 11 7.455 11 8.058 0 .603 2.25 1.819 5 2.702s5.964 2.444 7.141 3.469c1.178 1.025 5.978 3.829 10.667 6.23 4.69 2.402 11.285 6.155 14.657 8.34 3.373 2.187 8.773 5.063 12 6.393 8.378 3.45 17.537 7.901 19.869 9.655 1.1.827 5.6 2.747 10 4.267 7.295 2.52 14.6 5.382 29.333 11.49 8.898 3.688 10.413 4.275 17.333 6.72 3.667 1.295 8.167 2.665 10 3.045 1.834.38 4.407 1.809 5.72 3.175 2.05 2.136 5.733 3.19 9.255 2.65.536-.083 3.025 1.003 5.531 2.41 2.506 1.408 7.468 3.597 11.026 4.866 3.557 1.268 9.168 3.272 12.468 4.452 3.3 1.18 7.484 3.186 9.297 4.459 1.813 1.272 3.93 2.314 4.704 2.314.773 0 4.69 1.717 8.703 3.816 4.013 2.1 9.996 5.199 13.296 6.887 3.3 1.69 6.9 3.817 8 4.728 1.1.911 6.8 4.174 12.667 7.25 10.642 5.58 16.472 9.089 37.089 22.319 6 3.85 11.959 7 13.243 7 1.284 0 2.335.591 2.335 1.315 0 1.46 15.019 8.869 27.206 13.422 4.33 1.618 10.33 4.589 13.334 6.6 7.123 4.774 18.996 12.25 24.46 15.404 2.383 1.375 4.333 2.97 4.333 3.546 0 .575.9 1.046 2 1.046s2 .534 2 1.186c0 .653 2.786 2.603 6.192 4.334 10.354 5.262 11.141 5.742 11.141 6.796 0 .56.807 1.017 1.794 1.017.986 0 2.88 1.2 4.206 2.667 1.328 1.467 3.245 2.667 4.261 2.667s3.473 1.132 5.46 2.517c4.827 3.363 17.235 11.184 22.613 14.252 2.383 1.36 4.333 2.943 4.333 3.518 0 .575.9 1.046 2 1.046s2 .484 2 1.077c0 .592 3.9 3.018 8.667 5.39 4.766 2.372 8.666 4.836 8.666 5.475 0 .64 3.15 3.093 7 5.452s7.3 4.66 7.667 5.114c.367.454 4.243 3.225 8.614 6.159 7.043 4.727 15.339 11.136 22.386 17.294 1.283 1.121 2.823 2.039 3.421 2.039.599 0 2.956 1.95 5.239 4.333 2.283 2.384 8.418 8.234 13.633 13 15.575 14.235 37.489 36.987 43.01 44.655.532.74 2.778 3.425 4.99 5.967 2.213 2.541 4.714 6.741 5.559 9.333.844 2.592 1.9 5.012 2.345 5.379.446.366 2.607 3.366 4.803 6.666 2.196 3.3 4.349 6.3 4.784 6.667.435.367 1.762 3.55 2.948 7.075 1.187 3.525 3.682 8.22 5.546 10.436 1.864 2.215 3.396 5.03 3.405 6.258.013 1.227 1.567 4.93 3.462 8.23 3.773 6.57 9.41 20.656 11.204 28 .627 2.568 2.117 7.668 3.311 11.334 1.194 3.667 2.786 9.067 3.536 12 .751 2.934 2.467 8.334 3.814 12 3.742 10.193 6.657 21.335 6.657 25.451 0 2.04.853 7.047 1.895 11.128 2.73 10.685 4.61 22.141 5.269 32.088.316 4.767 1.282 11.367 2.147 14.667.865 3.3 2.1 12 2.745 19.333.645 7.333 1.46 15.433 1.81 18 .35 2.567.732 11.024.847 18.795.115 7.77.71 14.938 1.322 15.928.625 1.012.506 2.933-.273 4.387-.761 1.423-1.598 8.056-1.858 14.739-.672 17.221-2.86 32.474-5.355 37.325-1.177 2.288-2.464 7.91-2.86 12.493-.397 4.583-1.239 8.333-1.872 8.333s-1.15.826-1.15 1.837c0 1.01-.9 2.583-2 3.496-1.141.947-2 3.854-2 6.767 0 5.903-1.96 10.997-6.282 16.336-1.679 2.072-3.052 4.901-3.052 6.286 0 1.385-1.13 3.123-2.513 3.862-1.383.74-2.91 2.928-3.396 4.863-1.176 4.683-9.408 12.293-13.856 12.808-2.422.28-4.2 1.715-5.564 4.49-1.102 2.243-4.704 6.743-8.004 10-3.3 3.257-7.732 8.472-9.848 11.589-2.117 3.116-4.351 5.666-4.966 5.666-.615 0-2.005 1.715-3.09 3.812-1.885 3.646-9.349 8.047-10.943 6.452-.418-.418-2.05-.275-3.624.318-1.574.592-4.226.569-5.892-.053zm-1370.304-387.106c7.025-1.227 13.767-1.533 19.746-.898 5.047.536 9.405.437 9.812-.221.403-.652 2.018-.877 3.588-.5 1.57.378 5.554.08 8.854-.665 3.3-.743 10.83-1.493 16.732-1.667 5.903-.174 11.482-.78 12.397-1.345.916-.566 2.515-.703 3.553-.305 1.039.399 6.56-.15 12.27-1.218 5.71-1.069 11.994-2.208 13.964-2.533 1.971-.324 5.871-1.19 8.667-1.924 2.796-.734 8.984-1.737 13.75-2.227 7.799-.802 15.388-2.348 29.334-5.975 2.566-.668 7.256-1.228 10.42-1.246 3.166-.017 7.003-.7 8.528-1.515 1.525-.817 4.636-1.7 6.912-1.962 6.778-.782 11.563-1.619 22.806-3.99 5.867-1.236 13.432-2.447 16.812-2.691 3.379-.244 9.079-1.458 12.666-2.698 3.587-1.24 9.623-2.312 13.412-2.382 3.79-.069 7.34-.577 7.889-1.127.55-.55 2.962-1 5.361-1 2.399 0 8.27-.906 13.046-2.014 10.783-2.5 20.082-3.614 32.148-3.85 5.133-.1 10.16-.704 11.172-1.344 1.012-.64 7.912-1.714 15.334-2.389 32.677-2.97 77.039-7.501 80.827-8.257 1.1-.219 6.2-.865 11.333-1.436 5.134-.571 9.934-1.407 10.667-1.858.733-.451 4.333-.88 8-.953 8.141-.162 37.735-3.98 46.08-5.945 3.343-.787 7.75-1.129 9.79-.758 2.04.37 4.705.117 5.92-.562 1.216-.679 7.91-2.178 14.877-3.332l19.496-3.228c3.756-.622 8.067-1.793 9.579-2.602 1.512-.81 5.369-1.472 8.57-1.472 3.202 0 6.391-.552 7.088-1.227 2.036-1.971 16.847-7 21.933-7.447 6.02-.528 27.126-6.906 33.649-10.168 1.273-.637 3.443-1.158 4.82-1.158 1.378 0 3.936-1.117 5.685-2.483 1.749-1.366 4.638-2.94 6.421-3.5 1.783-.559 5.083-2.14 7.334-3.512 2.25-1.372 4.91-2.497 5.912-2.5 1 0 3.7-1.955 6-4.338 2.299-2.383 6.28-5.42 8.846-6.75 5.2-2.692 12.757-12.118 14.953-18.65.789-2.347 1.92-4.895 2.513-5.663 1.508-1.952-1.79-12.377-4.992-15.78-1.461-1.553-4.072-5.824-5.801-9.49-2.808-5.955-9.919-13.623-16.074-17.334-4.288-2.585-19.29-14.727-24.298-19.666-2.789-2.75-5.647-5-6.352-5-.705 0-1.282-1.18-1.282-2.62 0-1.441-1.222-3.274-2.716-4.074-4.818-2.578-9.284-15.072-9.284-25.972v-9.668l-4.146-.829c-7.65-1.53-24.107-16.297-28.492-25.564-4.252-8.989-4.668-21.659-.89-27.068 1.36-1.946 2.865-5.165 3.346-7.153.48-1.988 2.968-5.649 5.527-8.135 2.56-2.486 4.655-4.99 4.655-5.564 0-.574 2.996-3.992 6.657-7.596 3.662-3.605 7.032-8.046 7.49-9.869.457-1.823 2.477-4.166 4.488-5.206 2.01-1.04 4.413-3.718 5.339-5.953.925-2.235 2.195-4.063 2.82-4.063 2.437 0 5.208-8.236 5.248-15.6.037-6.717.275-7.426 1.814-5.4.974 1.284 2.402 2.334 3.172 2.334 2.055 0 8.305-7.839 8.305-10.415 0-1.215 1.46-5.22 3.244-8.898 5.255-10.833 10.09-22.863 10.09-25.109 0-1.148.59-2.452 1.31-2.897.72-.446 2.844-6.031 4.719-12.412 1.875-6.382 3.985-12.645 4.69-13.918.704-1.273 1.28-3.75 1.28-5.503 0-1.754.9-3.936 2-4.848 1.1-.913 2-3.117 2-4.897 0-1.78.842-4.864 1.871-6.854 1.03-1.99 2.293-6.427 2.807-9.86.515-3.433 2.671-9.725 4.791-13.982 2.12-4.258 3.857-9.42 3.86-11.474 0-2.053 1.01-5.653 2.237-8 2.59-4.954 5.894-17.04 6.336-23.187.169-2.34.94-5.04 1.715-6 .775-.96 2.021-4.446 2.77-7.746 1.41-6.218 3.436-12.307 6.5-19.535.979-2.311 1.78-5.097 1.78-6.19 0-1.095 1.8-9.918 4-19.609 2.2-9.69 4.013-20.105 4.028-23.143.016-3.038.914-9.423 1.997-14.19 2.487-10.947 4.97-24.996 5.185-29.333.09-1.834.659-4.114 1.263-5.066.605-.953 1.35-6.953 1.655-13.334.305-6.38 1.445-18.5 2.532-26.934 1.087-8.433 2.294-23.133 2.683-32.666.389-9.534.936-21.384 1.216-26.334.513-9.064-1.069-12.136-2.745-5.333-.497 2.017-2.238 5.467-3.87 7.667-1.632 2.2-3.378 5.35-3.879 7-.501 1.65-1.463 3-2.137 3-.674 0-2.146 1.95-3.271 4.333-1.126 2.383-4.134 7.326-6.685 10.985-2.551 3.658-4.638 7.408-4.638 8.333 0 .925-.552 1.682-1.225 1.682-.674 0-2.601 2.25-4.283 5-1.683 2.75-3.832 5.793-4.776 6.762-.944.969-1.716 2.507-1.716 3.417 0 .91-1.8 3.38-4 5.488-2.2 2.107-4.006 4.47-4.012 5.249 0 .78-2.857 4.814-6.334 8.966-3.476 4.151-8.612 10.751-11.413 14.666-8.428 11.784-26.725 32.028-45.3 50.122a5172.314 5172.314 0 0 0-9.333 9.144c-3.818 3.747-8.292 7.238-9.942 7.756-1.65.519-3 1.46-3 2.091 0 1.291.48.815-15.479 15.339-6.446 5.867-14.29 13.217-17.432 16.333-3.14 3.117-6.086 5.667-6.545 5.667-1.106 0-6.432 4.788-12.39 11.137-2.651 2.826-6.996 6.25-9.656 7.61-2.66 1.36-5.19 3.398-5.625 4.53-.434 1.13-1.558 2.065-2.498 2.076-.94.013-5.308 3.384-9.708 7.495-4.4 4.111-11.223 9.875-15.161 12.808-3.939 2.933-9.489 7.66-12.333 10.505-2.845 2.845-5.64 5.172-6.21 5.172-.57 0-2.555 1.65-4.411 3.667-1.857 2.017-4.54 4.628-5.964 5.803-1.423 1.175-6.688 6.4-11.7 11.612-5.011 5.212-10.207 9.824-11.547 10.25-1.34.424-3.324 2.128-4.41 3.786-1.086 1.657-4.44 4.125-7.453 5.484-3.013 1.358-5.478 3.279-5.478 4.267 0 2.602-4.865 7.072-10.059 9.242-4.54 1.897-13.797 10.396-17.534 16.098-1.117 1.706-2.597 2.752-3.288 2.325-.691-.427-4.312 2.278-8.045 6.012-3.733 3.733-7.594 6.788-8.578 6.788-.985 0-4.482 2.769-7.771 6.154-4.842 4.982-6.596 6-9.207 5.344-2.426-.608-3.716-.06-5.2 2.205-1.087 1.658-8.036 6.183-15.444 10.057-7.407 3.874-13.82 7.612-14.25 8.308-.43.696-2.002 1.265-3.494 1.265-1.546 0-2.998 1.092-3.377 2.538-.47 1.802-2.273 2.761-6.208 3.307-3.05.422-7.345 1.028-9.545 1.345-2.2.317-5.61 1.2-7.58 1.96-5.666 2.191-14.728 2.143-19.086-.102-2.2-1.133-5.923-2.474-8.273-2.98-2.516-.542-4.61-1.979-5.09-3.494-.45-1.416-1.949-2.574-3.331-2.574-2.992 0-9.306-2.714-9.306-4 0-.498-1.625-1.646-3.61-2.55-1.985-.904-4.419-2.8-5.408-4.214-.99-1.413-2.666-2.57-3.725-2.57-2.102 0-2.538-3.633-.77-6.421.612-.966 3.152-2.483 5.646-3.373 5.46-1.949 37.908-22.518 49.867-31.612 2.933-2.231 7.046-4.84 9.141-5.797 5.104-2.334 11.673-7.989 29.578-25.463 8.265-8.067 17.635-17.137 20.82-20.155 3.187-3.019 13.294-13.518 22.46-23.33 9.167-9.814 18.977-19.944 21.8-22.512 2.824-2.569 7.024-6.671 9.334-9.117 13.488-14.284 35.926-36.336 38.221-37.565 1.477-.79 3.426-3.183 4.332-5.319.906-2.135 3.557-5.26 5.893-6.942 10.062-7.252 20.3-16.662 21.778-20.016.878-1.992 2.721-3.98 4.097-4.416 1.375-.437 5.148-3.306 8.384-6.378 5.493-5.213 11.386-10.207 18.174-15.397 1.572-1.203 5.296-4.47 8.275-7.26s7.583-6.675 10.231-8.633c2.648-1.957 8.115-6.796 12.148-10.752 4.034-3.956 9.584-8.7 12.334-10.544 2.75-1.844 5-4.133 5-5.088 0-.955 2.473-3.426 5.497-5.49 7.257-4.954 13.17-10.377 13.17-12.077 0-.753 1.65-2.439 3.666-3.746 2.017-1.307 4.886-3.776 6.376-5.486 1.49-1.711 3.44-3.11 4.333-3.11.893 0 1.624-.474 1.624-1.053 0-.578 4.5-5.746 10-11.482 5.5-5.737 10-10.664 10-10.948 0-1.257 5.318-5.666 7.772-6.445 1.486-.472 3.927-2.78 5.426-5.132 6.344-9.952 12.6-18.04 20.123-26.017 4.407-4.672 8.013-9.237 8.013-10.144 0-.906 1.53-3.087 3.402-4.845 1.871-1.758 4.538-5.762 5.925-8.899 1.387-3.136 3.156-5.702 3.93-5.702.775 0 1.41-.594 1.41-1.319 0-1.78 14.687-28.222 16.914-30.451.973-.974 3.263-4.874 5.09-8.667 1.826-3.793 3.849-7.797 4.495-8.897 1.616-2.75 4.047-10.701 4.716-15.42.305-2.152 1.627-7.213 2.938-11.246 1.622-4.99 2.349-11.169 2.273-19.334-.101-10.951-.598-13.165-5.696-25.333-7.026-16.77-10.771-27.659-12.153-35.333-2.544-14.124-4.212-20.833-5.801-23.334-.933-1.466-2.051-6.986-2.486-12.265-.435-5.28-1.57-10.98-2.52-12.667-.952-1.687-2.44-7.868-3.31-13.734-1.752-11.842-4.102-23.483-9.768-48.394-2.8-12.31-17.673-38.755-28.126-50.008-2.86-3.079-5.208-6.3-5.217-7.157-.013-.858-2.882-4.758-6.385-8.667-3.503-3.91-7.853-9.359-9.667-12.11-1.814-2.75-4.207-5.296-5.317-5.657-1.111-.36-5.005-4.109-8.654-8.33-7.43-8.597-76.937-77.714-83.67-83.2-18.646-15.195-52.191-46.362-57.134-53.083-1.912-2.6-5.812-6.99-8.666-9.756-6.904-6.689-8.814-9-11.175-13.52-1.092-2.09-4.123-6.271-6.736-9.292-2.613-3.021-6.028-7.707-7.59-10.413-3.129-5.424-12.356-26.274-12.356-27.922 0-.572-1.5-3.25-3.333-5.951-2.537-3.739-3.334-6.631-3.334-12.107 0-3.956-.831-8.523-1.848-10.147-2.18-3.48-4.398-15.923-5.583-31.303-1.097-14.236.478-34.983 2.656-34.983 3.074 0 12.775 15.124 12.775 19.916 0 1.426.562 2.94 1.25 3.365 1.894 1.171 5.417 8.79 5.417 11.718 0 1.424 1.111 4.182 2.469 6.128 1.358 1.947 2.862 5.64 3.344 8.206 1.168 6.231 8.874 25.333 10.22 25.333.586 0 1.48 2.449 1.985 5.442.63 3.73 2.763 7.517 6.784 12.044 3.226 3.632 5.865 7.155 5.865 7.829 0 1.852 14.23 16.806 32 33.626 19.421 18.383 22.039 20.723 25.96 23.212 3.447 2.188 6.776 5.467 15.373 15.143 1.1 1.238 3.2 2.902 4.667 3.697 1.467.796 6.667 5.248 11.557 9.894 19.292 18.328 88.598 87.323 91.11 90.7 1.466 1.971 9.611 11.571 18.1 21.332 14.086 16.2 22.817 27.823 27.768 36.965 1.027 1.897 2.698 3.942 3.714 4.543s2.79 3.451 3.944 6.333c1.153 2.882 2.57 5.24 3.15 5.24 1.335 0 6.657 10.113 6.657 12.647 0 1.045 1.35 3.276 3 4.96 1.65 1.683 3.824 5.46 4.832 8.393 1.008 2.934 4.09 10.134 6.848 16 2.758 5.867 5.458 12.767 6 15.334.541 2.566 2.11 7.539 3.486 11.05 1.375 3.51 2.508 8.61 2.516 11.332.013 2.723.902 8.251 1.985 12.284 1.082 4.034 1.985 10.634 2.007 14.667.036 6.826 1.88 15.258 7.291 33.333 2.648 8.843 4.007 14.997 6.037 27.334.845 5.133 2.39 12.386 3.434 16.117 1.043 3.731 1.897 8.959 1.897 11.617 0 2.659 1.268 8.006 2.818 11.883 1.55 3.877 3.2 10 3.667 13.607.467 3.607 1.573 6.798 2.459 7.092 1.829.608 5.723-7.773 5.723-12.316 0-1.654.9-3.754 2-4.667 1.1-.913 2-2.515 2-3.561 0-1.046 1.2-4.385 2.666-7.42 1.467-3.036 2.667-6.313 2.667-7.282 0-.97 1.2-2.79 2.667-4.046 1.467-1.256 2.667-3.158 2.667-4.226 0-2.248 2.97-11.146 4.048-12.132.402-.366 7.242-13.866 15.2-30 7.958-16.133 15.283-29.813 16.277-30.4.994-.586 1.808-1.939 1.808-3.006 0-1.067 1.5-5.05 3.333-8.85 1.833-3.8 3.333-7.67 3.333-8.6 0-.929 1.5-3.189 3.334-5.022 1.833-1.834 3.333-4.427 3.333-5.764 0-1.337 1.046-3.914 2.323-5.728 1.278-1.813 7.787-14.096 14.464-27.296 18.17-35.922 23.12-44.998 26.534-48.667 1.707-1.833 3.982-6.333 5.056-10 1.827-6.234 3.08-8.817 10.516-21.667 6.105-10.55 9.105-15.925 13.003-23.304 5.464-10.345 9.983-17.382 12.504-19.474 1.152-.957 2.482-3.498 2.954-5.647.472-2.15 1.41-3.908 2.085-3.908.676 0 1.228-1.095 1.228-2.434 0-1.339 1.424-3.772 3.164-5.407 1.74-1.634 4.282-5.489 5.649-8.565 1.367-3.077 3.436-6.642 4.597-7.922 1.162-1.281 3.521-5.181 5.244-8.667 1.722-3.486 3.56-6.638 4.084-7.005.524-.367 2.148-2.767 3.608-5.333 1.46-2.567 5.186-9.097 8.279-14.511 7.283-12.752 18.291-35.82 19.276-40.396.423-1.965 1.64-4.444 2.704-5.508 1.064-1.064 1.605-2.264 1.201-2.668-.403-.403.208-2.424 1.359-4.492 3.245-5.83 11.267-27.762 12.212-33.381.466-2.774 1.505-7.144 2.308-9.71.803-2.568 1.362-5.988 1.241-7.601-.12-1.614.372-3.3 1.094-3.746.722-.446 1.313-3.08 1.313-5.853 0-2.772 1.233-9.787 2.74-15.588 1.507-5.8 3.03-12.946 3.384-15.88.354-2.933 1.189-7.133 1.855-9.333.666-2.2 1.577-10.3 2.024-18 .447-7.7 1.328-16.7 1.958-20 .63-3.3 1.785-10.2 2.567-15.333.782-5.134 2.093-13.234 2.914-18 2.889-16.767 6.625-44.83 7.989-60 .758-8.434 2.149-17.434 3.09-20 .943-2.567 1.837-10.906 1.988-18.53.151-7.626.756-14.826 1.344-16 .588-1.176 1.198-6.937 1.355-12.804.156-5.866.832-14.566 1.502-19.333 4.641-33.044 7.991-120.805 6.209-162.667-.609-14.3-.84-30.2-.513-35.333.327-5.133.946-37.833 1.375-72.667.428-34.833 1.097-66.933 1.486-71.333.388-4.4.598-9.8.465-12-.133-2.2-.174-7-.092-10.667.827-36.83.247-121.061-1.005-146-2.12-42.229-2.157-42.663-5.35-63.631-5.286-34.715-6.407-42.49-8.51-59.035-.98-7.7-3.013-16.7-4.519-20-3.184-6.979-6.144-20.632-5.076-23.415.405-1.055.238-1.919-.371-1.919-.61 0-2.028-4.35-3.153-9.666-3.885-18.356-9.221-39.057-14.349-55.667-2.83-9.167-5.409-18.467-5.731-20.667-.322-2.2-1.959-7.9-3.637-12.666-4.506-12.802-4.536-12.893-9.241-27.334-2.39-7.333-4.793-13.933-5.342-14.666-.548-.734-2.247-5.265-3.775-10.07-1.529-4.804-4.61-12.215-6.847-16.468s-4.068-8.572-4.068-9.598c0-1.025-.571-1.864-1.27-1.864-.7 0-1.858-2.128-2.577-4.729-.718-2.6-2.967-7.55-4.999-11-2.031-3.45-4.954-8.64-6.494-11.535-1.541-2.896-4.459-6.196-6.485-7.334-2.061-1.158-5.552-5.591-7.929-10.069-2.335-4.4-4.672-8.32-5.194-8.713-.522-.393-1.88-2.943-3.018-5.667-1.138-2.724-3.261-5.697-4.718-6.607-1.457-.91-2.649-2.347-2.649-3.193 0-.846-1.8-3.465-4-5.82-2.2-2.355-4-4.736-4-5.29 0-1.13-6.575-9.942-10.477-14.043-1.396-1.467-3.306-4.167-4.246-6-.94-1.834-3.048-4.834-4.686-6.667-1.637-1.833-5.89-6.72-9.45-10.86-7.54-8.767-10.93-12.645-19.141-21.9-3.3-3.72-8.4-9.638-11.333-13.152-8.19-9.808-36.207-37.44-46.194-45.556-.994-.807-3.419-3.207-5.39-5.333-4.324-4.665-7.454-7.416-10.466-9.199-2.68-1.586-10.253-7.653-17.053-13.66-2.694-2.38-5.546-4.33-6.339-4.334-.793-.004-2.251-1.52-3.241-3.37-.99-1.85-2.429-3.154-3.196-2.899-.768.256-4.622-2.162-8.564-5.374-3.943-3.211-9.657-7.393-12.697-9.293-3.04-1.9-7.779-5.467-10.53-7.928-2.753-2.462-5.668-4.475-6.48-4.475-.81 0-6.788-3.9-13.282-8.667-6.494-4.767-12.316-8.667-12.937-8.667-.62 0-2.292-1.08-3.713-2.4-1.422-1.32-3.485-2.823-4.585-3.34-2.46-1.153-11.154-6.336-23.923-14.26-21.87-13.571-39.655-23.328-55.41-30.399-3.667-1.645-7.567-3.55-8.667-4.234-3.634-2.257-22.563-10.7-23.99-10.7-.77 0-3.637-1.476-6.371-3.281-2.735-1.805-7.672-4.208-10.972-5.341s-9-3.504-12.667-5.269c-3.666-1.765-8.916-4.161-11.666-5.326-2.75-1.164-7.1-3.016-9.667-4.116-2.567-1.1-6.617-2.83-9-3.845a831.778 831.778 0 0 1-10.604-4.644c-3.45-1.54-11.25-4.565-17.334-6.723-6.084-2.158-14.362-5.227-18.395-6.82-4.034-1.592-10.934-3.938-15.334-5.214-4.4-1.276-9.2-2.777-10.666-3.335-11.188-4.262-19.549-7.208-24.667-8.692-7.99-2.316-17.378-5.41-20.667-6.812-2.484-1.059-24.242-6.901-42.666-11.457-21.081-5.212-24.317-6.035-28.667-7.29-4.446-1.282-9.656-2.603-20-5.07-29.821-7.113-36.176-8.52-48.667-10.778a3988.115 3988.115 0 0 1-17.333-3.196c-5.867-1.094-14.867-2.645-20-3.447-5.133-.801-13.233-2.312-18-3.358-8.878-1.947-19.592-3.377-50-6.673-9.533-1.034-21.527-2.496-26.654-3.25-5.126-.753-13.526-1.672-18.667-2.04a16137.6 16137.6 0 0 1-36.679-2.727c-46.568-3.503-103.697-2.203-148.667 3.383-5.866.728-13.666 1.327-17.333 1.33-3.667.003-8.767.584-11.333 1.291-2.567.707-10.367 2.185-17.334 3.283-30.335 4.785-51.579 8.6-54.745 9.831-1.876.73-8.176 2.044-14 2.92-5.823.878-11.188 2.07-11.921 2.649-.734.58-4.934 1.766-9.334 2.637-9.115 1.804-24.648 6.3-30.868 8.934-2.31.979-6.36 1.78-9 1.78-2.639 0-4.798.504-4.798 1.12 0 .617-3.29 1.858-7.31 2.758-4.022.9-7.657 2.195-8.08 2.879-.422.683-1.932 1.243-3.356 1.243-1.423 0-2.588.6-2.588 1.333s-1.164 1.333-2.588 1.333c-1.423 0-2.91.521-3.303 1.158-.394.637-3.264 1.566-6.378 2.064-3.113.498-6.577 1.68-7.696 2.629-1.119.947-5.935 3.115-10.701 4.816-4.767 1.701-9.567 3.781-10.667 4.622-3.18 2.432-9.43 4.81-10.653 4.053-.615-.38-1.32-.238-1.566.317-.666 1.501-25.975 13.455-36.426 17.204-2.921 1.048-6.521 2.686-8 3.64-1.478.953-5.5 2.797-8.936 4.097-3.436 1.3-6.544 3.137-6.907 4.082-.363.946-3.098 2.131-6.079 2.635-2.98.503-5.745 1.443-6.144 2.088-.398.645-3.552 2.611-7.007 4.37a761.744 761.744 0 0 0-12.814 6.71c-3.592 1.934-7.569 3.515-8.837 3.515-1.267 0-3.032.877-3.921 1.949-.89 1.071-2.816 2.329-4.282 2.794-1.466.465-6.361 3.415-10.88 6.555-4.518 3.14-11.215 7.296-14.881 9.236-3.667 1.94-10.267 5.892-14.667 8.783-4.4 2.892-10.85 6.552-14.333 8.135-3.484 1.582-6.334 3.355-6.334 3.94s-1.796 1.458-3.992 1.94c-2.195.482-4.471 1.733-5.057 2.78-.586 1.048-4.34 3.968-8.341 6.49-4.002 2.523-8.476 5.74-9.943 7.15-1.467 1.41-3.663 3.093-4.881 3.74-1.219.646-4.219 2.98-6.667 5.187-5.494 4.952-21.186 16.746-23.452 17.626-.917.356-1.668 1.333-1.669 2.171 0 .838-1.416 2.424-3.143 3.524-8.99 5.724-17.898 12.041-20.939 14.847-1.88 1.734-5.133 4.353-7.229 5.82-2.096 1.467-6.258 4.786-9.249 7.376-2.99 2.59-8.138 6.49-11.438 8.667-3.3 2.176-6.6 4.623-7.333 5.436-.733.814-8.233 7.192-16.667 14.174-25.152 20.823-30.488 25.595-30.58 27.347-.047.917-1.219 1.667-2.603 1.667-1.384 0-3.934 1.912-5.666 4.25-1.733 2.338-5.663 6.83-8.735 9.98-3.07 3.152-7.27 7.945-9.333 10.651-2.062 2.706-7.35 8.778-11.75 13.492-4.4 4.715-9.108 10.31-10.464 12.433-1.355 2.123-3.005 3.86-3.666 3.86s-1.203.685-1.203 1.523c0 .837-1.65 3.115-3.666 5.061-2.017 1.947-6.29 6.962-9.496 11.145-3.206 4.182-6.356 7.605-7 7.605-.644 0-1.17.824-1.17 1.83 0 1.008-5.104 8.358-11.34 16.334-17.675 22.602-21.259 27.683-27.862 39.502-2.766 4.95-5.577 9-6.247 9-.67 0-1.219.865-1.219 1.923 0 1.057-3.216 7.207-7.148 13.667-8.215 13.497-15.518 26.942-15.518 28.569 0 .614-2.062 5.52-4.582 10.903-4.45 9.505-9.644 25.278-16.238 49.316-1.767 6.441-3.754 12.741-4.415 14-1.339 2.549-4.865 13.182-9.38 28.289-1.645 5.5-4.175 13.6-5.623 18-1.448 4.4-3.434 12.622-4.413 18.27-.98 5.65-2.104 10.793-2.498 11.432-1.512 2.446-6.728 28.807-8.897 44.965a811.098 811.098 0 0 1-2.658 18 812.197 812.197 0 0 0-2.577 17.333c-.646 4.767-2.1 14.476-3.234 21.576-1.133 7.1-2.703 19.7-3.489 28s-2.351 21.6-3.478 29.557c-5.564 39.283-5.069 145.05.894 190.867.763 5.867 1.671 14.196 2.018 18.51.346 4.313 1.002 8.444 1.457 9.18.456.737 1.342 5.308 1.97 10.158l2.433 18.819c1.543 11.935 3.643 23.605 4.499 24.996.34.552 1.023 4.21 1.52 8.13.496 3.92 1.68 10.22 2.632 14 .95 3.78 1.776 7.774 1.835 8.874.058 1.1.752 5.9 1.543 10.666.79 4.767 2.025 13.467 2.744 19.334.719 5.866 1.899 12.044 2.622 13.729.723 1.684 1.33 5.284 1.347 8 .018 2.715.584 7.337 1.258 10.27 1.106 4.815 1.767 11.118 3.365 32.11.283 3.728.854 8.228 1.269 10 1.294 5.536 2.49 53.106 2.663 105.89.294 90.036.918 131.687 2.197 146.667.69 8.067 2.188 28.752 3.33 45.967 1.144 17.215 2.692 34.015 3.443 37.334.75 3.318 1.854 10.233 2.453 15.366 2.041 17.48 2.85 22.664 3.955 25.333.607 1.467 2.104 8.634 3.328 15.927 1.224 7.293 2.783 14.304 3.466 15.579.682 1.275 1.24 3.866 1.24 5.758 0 1.891.566 4.48 1.256 5.754.69 1.274 3.136 8.616 5.435 16.316 2.3 7.7 4.941 15.8 5.871 18 .93 2.2 2.436 6.1 3.346 8.666 4.725 13.318 7.284 19.819 12.214 31.031 2.974 6.766 6.902 16.45 8.727 21.517 1.826 5.068 4.458 11.368 5.85 14 1.392 2.632 5.313 10.786 8.713 18.119 3.4 7.333 10.024 21.187 14.72 30.785 4.694 9.599 8.535 18.414 8.535 19.588 0 1.175.553 2.478 1.229 2.895.675.418 2.298 3.603 3.606 7.079 1.308 3.476 3.97 9.05 5.914 12.388 1.945 3.337 4.303 8.437 5.241 11.333.938 2.896 2.945 7.665 4.462 10.599 1.516 2.933 3.77 8.033 5.008 11.333 1.238 3.3 4.224 10.2 6.635 15.333 2.41 5.134 4.577 10.416 4.814 11.738.236 1.322 1.277 4.043 2.313 6.046 1.036 2.003 2.301 5.871 2.813 8.596.51 2.724 1.312 4.954 1.78 4.954.47 0 2.012 3.75 3.43 8.333 1.417 4.583 3.052 8.977 3.633 9.763.58.786 3.545 8.886 6.588 18s6.958 19.532 8.7 23.153c1.742 3.62 3.168 7.187 3.168 7.925 0 1.337 3.335 12.804 10.711 36.826 4.82 15.693 10.15 35.139 11.33 41.333.489 2.567 1.705 7.367 2.703 10.667.998 3.3 2.086 9 2.419 12.666.333 3.667 1.288 9.642 2.122 13.278 1.337 5.826 3.613 20.324 4.718 30.056 2.023 17.817 3.69 30.168 4.182 30.964.327.53.885 7.73 1.24 16s1.036 16.536 1.512 18.369c1.195 4.6 3.803 31.79 5.051 52.667.22 3.666 1.395 15.066 2.612 25.333 1.217 10.267 2.474 21.067 2.794 24 1.65 15.152 8.361 53.683 11.33 65.054 1.995 7.644 6.59 22.352 8.001 25.613.635 1.466 2.005 5.666 3.045 9.333s4.314 11.294 7.277 16.95c2.962 5.657 5.795 12.147 6.295 14.424.5 2.277 1.619 4.412 2.486 4.745.868.332 2.98 2.842 4.693 5.576 1.714 2.734 6.108 7.072 9.765 9.638 3.656 2.567 8.325 6.017 10.374 7.667 2.048 1.65 4.295 3 4.992 3 .697 0 2.304 1.145 3.57 2.545 1.268 1.4 4.185 3.324 6.484 4.276 2.299.952 5.292 2.844 6.653 4.205 1.36 1.36 4.986 3.563 8.057 4.895 3.071 1.332 6.93 3.994 8.575 5.917 1.645 1.922 4.195 3.495 5.667 3.495 1.471 0 2.675.542 2.675 1.203 0 .662 1.8 1.83 4 2.597 2.2.767 4 2.026 4 2.798 0 .771 1.17 1.402 2.598 1.402 1.429 0 4.217 1.5 6.195 3.334 1.978 1.833 4.265 3.333 5.081 3.333.817 0 2.234 1.2 3.15 2.667.916 1.466 2.958 2.666 4.537 2.666 2.767 0 12.978 5.22 17.106 8.745 1.1.94 5.6 3.773 10 6.298 12.09 6.938 22.873 13.639 26.982 16.769 2.027 1.543 10.23 7.07 18.231 12.282 8.001 5.212 15.394 10.323 16.429 11.358 1.035 1.035 2.646 1.882 3.58 1.882.934 0 2.791 1.208 4.128 2.685 1.337 1.477 5.48 4.724 9.207 7.215 3.727 2.492 7.976 5.645 9.443 7.007 1.466 1.362 5.666 4.414 9.333 6.783 7.374 4.763 11.008 7.592 20.49 15.952 11.39 10.04 29.797 15.977 44.47 14.342 17.011-1.895 16.045-1.362 15.222-8.401-1.787-15.28-4.616-29.854-8.306-42.8-1.168-4.098-2.737-9.85-3.487-12.783-.75-2.934-1.867-6.834-2.48-8.667-2.254-6.741-8.016-39.13-7.295-41.01.879-2.29 6.194-1.345 9.753 1.733 1.265 1.094 4.55 3.841 7.3 6.105 2.75 2.263 5 4.78 5 5.593 0 .813 1.546 3.001 3.436 4.862 1.89 1.861 6.415 7.584 10.054 12.717 3.64 5.133 7.447 10.336 8.46 11.561 1.014 1.225 2.464 3.388 3.222 4.805.76 1.418 3.584 5.215 6.278 8.44 2.694 3.223 6.369 8.965 8.166 12.76 1.797 3.794 4.058 7.202 5.024 7.573.967.37 2.494 2.966 3.394 5.768 3.487 10.853 8.32 12.216 20.42 5.76 4.122-2.2 8.971-4 10.775-4 1.804 0 3.65-.6 4.104-1.334 1.259-2.036 5.986-1.587 6.845.65.419 1.092-1.1 4.795-3.375 8.23-2.275 3.434-4.137 6.722-4.137 7.307s-.9.717-2 .295c-1.577-.605-2 .39-2 4.709 0 3.012-.56 5.476-1.243 5.476-.684 0-1.663 1.35-2.175 3-.512 1.65-2.053 4.593-3.423 6.54-3.429 4.87-3.145 8.153 1.57 18.133 2.235 4.728 4.999 12.287 6.142 16.796 1.144 4.508 3.485 11.198 5.2 14.864 1.717 3.667 3.77 10.753 4.564 15.746.793 4.994 1.952 10.094 2.574 11.334 2.918 5.808 5.458 12.542 5.458 14.47 0 1.17 1.46 6.7 3.246 12.289 4.426 13.86 7.608 27.5 8.28 35.495.308 3.666 1.478 12.066 2.6 18.666 4.896 28.806 5.777 37.133 7.198 68 .574 12.467 1.406 25.667 1.85 29.334.444 3.666 1.448 14.03 2.23 23.03.784 8.999 2.335 19.799 3.45 24 1.113 4.2 2.27 8.836 2.57 10.303.299 1.467 2.351 5.234 4.56 8.372 2.209 3.138 4.016 6.245 4.016 6.903 0 .66 1.382 2.292 3.071 3.628 1.689 1.337 3.463 3.462 3.943 4.724.48 1.261 2.398 2.676 4.262 3.144 1.865.468 3.39 1.343 3.39 1.944 0 .6 3.75 2.946 8.334 5.212 4.583 2.265 10.347 5.332 12.808 6.815 2.462 1.482 8.456 3.619 13.322 4.747 4.866 1.128 9.452 2.522 10.192 3.097.74.575 4.244 1.424 7.788 1.886 3.544.462 8.044 1.687 10 2.72 5.743 3.037 55.304 9.39 62.714 8.039 1.93-.352 5.31-.075 7.51.616 5.479 1.722 6.503 1.698 18.666-.425zm-96.795-325.075c-2.88-2.879-7.766-5.236-9.12-4.4-.657.407-2.634.191-4.394-.478-3.196-1.215-17.48-11.955-23.594-17.74-1.78-1.684-5.462-4.562-8.182-6.396-2.72-1.833-8.656-7.36-13.19-12.282-4.535-4.922-10.257-10.193-12.717-11.713-2.472-1.528-6.311-6.023-8.585-10.05-2.262-4.009-4.717-7.288-5.456-7.288-.739 0-2.345-2.1-3.569-4.667-1.224-2.566-2.656-4.666-3.184-4.666-.527 0-4.466-4.872-8.753-10.826-4.287-5.954-9.372-12.704-11.301-15-1.929-2.296-4.845-7.026-6.481-10.51-1.636-3.485-4.398-7.685-6.137-9.334-1.74-1.648-3.173-3.387-3.186-3.863-.022-.812-8.085-13.548-10.427-16.467-.588-.734-3.2-5.234-5.806-10-13.454-24.62-17.287-31.305-19.084-33.29-1.083-1.197-4.159-6.346-6.836-11.443-2.678-5.097-5.643-10.167-6.59-11.267-.946-1.1-4.36-7.4-7.587-14-3.227-6.6-9.044-17.1-12.927-23.334-3.883-6.233-9.475-15.833-12.427-21.333-2.95-5.5-6.485-11.593-7.852-13.54-1.368-1.946-2.487-4.153-2.487-4.904 0-.751-.855-2.221-1.9-3.266-1.046-1.046-2.815-4.089-3.932-6.763-1.118-2.673-2.597-4.86-3.288-4.86-.692 0-1.6-1.367-2.019-3.036-.42-1.67-2.865-5.4-5.436-8.29-2.57-2.89-5.403-7.073-6.293-9.297-.89-2.225-2.86-5.636-4.375-7.582-1.516-1.945-4.557-6.584-6.757-10.308-2.2-3.724-4.455-6.782-5.012-6.796-.557-.013-2.858-3.025-5.114-6.691-2.256-3.667-4.513-6.667-5.016-6.667-.502 0-2.4-2.842-4.219-6.316-5.384-10.287-40.842-52.35-44.13-52.35-.576 0-4.048-3-7.715-6.667s-7.228-6.667-7.913-6.667c-.686 0-2.665-1.795-4.397-3.988-1.733-2.193-4.053-3.993-5.157-4-1.104 0-4.525-2.262-7.6-5.012-9.108-8.142-21.257-17.572-23.916-18.565-3.65-1.362-16.477-11.22-16.477-12.663 0-.683-2.012-2.082-4.472-3.11-2.46-1.027-5.378-3.252-6.487-4.944-1.108-1.69-3.746-3.954-5.861-5.03-2.116-1.075-8.17-6.17-13.454-11.321-5.284-5.152-11.505-11.167-13.825-13.367-2.32-2.2-4.798-5.626-5.505-7.612-.707-1.987-2.436-3.977-3.841-4.423-1.405-.447-2.555-1.254-2.555-1.794 0-.541-2.1-3.276-4.667-6.078-2.567-2.802-4.667-5.58-4.667-6.17 0-.593-1.05-1.413-2.333-1.824-1.283-.412-3.646-3.002-5.251-5.757-6.134-10.528-17.749-34.743-17.749-37.003 0-2.266-1.314-7.877-4.242-18.106-.75-2.622-1.529-8.622-1.73-13.334-.2-4.711-.823-11.788-1.382-15.727-1.116-7.864 1.53-41.411 3.694-46.839.731-1.833 1.595-5.692 1.919-8.575.324-2.883 1.449-6.903 2.499-8.934 1.05-2.03 1.909-4.886 1.909-6.346s.6-3.025 1.333-3.478c.733-.453 1.333-2.319 1.333-4.145 0-1.826.825-4.941 1.833-6.921 1.008-1.98 3.166-7.8 4.796-12.934 3.63-11.435 7.038-19.298 8.371-19.318.55-.013 1-1.335 1-2.948 0-3.022 11.404-27.063 14.284-30.112.889-.942 2.188-3.783 2.887-6.315.699-2.531 3.121-6.848 5.383-9.592 2.262-2.744 4.113-5.816 4.113-6.827 0-1.01 1.711-4.024 3.802-6.696 2.091-2.672 4.223-6.59 4.738-8.708.515-2.117 2.354-5.717 4.087-8 1.733-2.283 4.222-6.85 5.533-10.15 1.31-3.3 2.86-6.6 3.443-7.334 3.41-4.282 10.397-15.847 10.397-17.208 0-.884 1.5-3.64 3.333-6.125 1.834-2.485 3.334-5.405 3.334-6.488 0-1.083.885-2.948 1.968-4.144 1.082-1.196 2.165-3.467 2.406-5.046.241-1.578 1.455-3.994 2.699-5.368 1.243-1.374 2.26-2.885 2.26-3.357 0-1.287 20.058-42.214 23.327-47.597 1.559-2.567 4.828-9.767 7.264-16 2.436-6.234 4.953-11.998 5.592-12.81.639-.812 2.955-6.445 5.148-12.518 2.193-6.072 6.612-15.908 9.82-21.857 3.207-5.948 6.94-14.415 8.292-18.815 1.354-4.4 3.833-10.582 5.51-13.738 1.675-3.155 3.047-6.766 3.047-8.024 0-1.257 1.484-4.47 3.298-7.14 1.814-2.669 3.705-7.458 4.202-10.642.498-3.184 1.264-6.09 1.703-6.456 1.378-1.153 4.13-6.564 4.13-8.122 0-.82 1.5-4.478 3.334-8.128 1.833-3.65 3.333-7.829 3.333-9.286 0-1.458 1.744-5.185 3.874-8.282 2.131-3.097 4.52-8.024 5.307-10.948.787-2.924 2.324-6.498 3.416-7.942s2.004-3.409 2.027-4.366c.05-1.99 4.28-11.958 8.111-19.108 1.43-2.666 2.598-6.096 2.598-7.62 0-1.525.892-5.398 1.982-8.608 1.09-3.21 2.07-8.78 2.18-12.38.29-9.616 4.06-17.777 8.247-17.857 2.15-.04 8.925 8.65 8.925 11.447 0 1.58.9 3.62 2 4.533 1.1.913 2 2.486 2 3.496 0 1.01.518 1.837 1.15 1.837 1.8 0 5.45 20.636 6.255 35.348 1.328 24.29-2.513 50.838-12.15 83.986-1.065 3.666-2.55 9.19-3.298 12.273-.749 3.083-2.245 6.49-3.326 7.571-1.08 1.08-1.974 2.758-1.985 3.727-.012.97-2.412 7.133-5.334 13.697-2.922 6.565-5.312 12.777-5.312 13.806 0 1.03-1.5 4.858-3.334 8.508-1.833 3.65-3.333 7.507-3.333 8.571 0 1.065-1.432 4.765-3.183 8.224-1.75 3.46-3.946 8.84-4.878 11.956-.932 3.117-2.2 5.667-2.817 5.667s-1.122.885-1.122 1.967c0 1.083-1.198 3.933-2.662 6.334-1.464 2.4-2.664 5.102-2.666 6.003 0 1.443-3.626 9.746-12.12 27.783-1.403 2.982-2.552 5.797-2.552 6.256 0 .46-2.449 6.12-5.442 12.579a6097.598 6097.598 0 0 0-9.41 20.41c-2.182 4.768-4.822 10.168-5.867 12-1.045 1.834-2.847 5.434-4.005 8-4.782 10.605-23.938 48.913-26.003 52-2.89 4.322-9.765 16.735-16.249 29.334-2.83 5.5-6.912 12.7-9.07 16-4.555 6.961-9.287 16.787-9.287 19.28 0 .95-.9 2.474-2 3.387-1.1.913-2 2.223-2 2.912 0 .69-1.494 4.411-3.32 8.271-1.826 3.86-3.7 9.073-4.165 11.584-.465 2.512-1.549 5.166-2.409 5.9-1.746 1.488-4.104 7.274-5.434 13.333-.845 3.851-3.567 10.812-6.118 15.648-.671 1.274-1.22 3.254-1.22 4.4 0 1.146-.878 3.78-1.95 5.854-1.871 3.619-6.628 19.665-8.724 29.431-.551 2.567-2.274 7.45-3.828 10.851-1.635 3.58-3.495 11.89-4.414 19.727-1.794 15.291-1.03 17.888 7.778 26.42 2.459 2.381 4.47 4.789 4.47 5.35 0 1.415 14.124 12.319 15.956 12.319.82 0 2.215.607 3.1 1.35 5.815 4.872 20.983 15.16 25.522 17.31 2.982 1.412 7.822 4.076 10.756 5.92 2.933 1.842 7.133 4.346 9.333 5.564 2.2 1.217 6.551 4.546 9.67 7.397 3.117 2.852 7.317 5.9 9.333 6.773 2.015.874 5.217 3.26 7.116 5.304 1.899 2.043 4.419 3.715 5.6 3.715 1.182 0 2.628.759 3.215 1.686 1.607 2.54 14.573 12.98 16.122 12.98 2.22 0 42.363 40.312 44.745 44.935 1.21 2.347 2.97 4.747 3.914 5.333.943.586 3.975 4.516 6.738 8.733 2.763 4.217 5.476 7.667 6.03 7.667.553 0 2.77 2.43 4.928 5.402 2.157 2.972 7.223 9.503 11.256 14.514 4.033 5.01 10.033 13.146 13.333 18.08 3.3 4.932 7.71 10.55 9.8 12.486 4.406 4.077 7.534 9.602 7.534 13.309 0 1.424.756 2.88 1.681 3.235s3.072 3.43 4.771 6.831c1.7 3.403 4.558 7.931 6.353 10.065 1.795 2.133 3.907 5.723 4.693 7.978.786 2.255 1.954 4.1 2.595 4.1.641 0 2.438 2.957 3.993 6.571 1.555 3.615 3.971 7.607 5.37 8.873 1.399 1.266 2.544 3.088 2.544 4.05 0 .96 1.8 3.796 4 6.302s4 5.491 4 6.634c0 1.143.542 2.414 1.205 2.824 1.174.726 17.768 28.42 21.418 35.746 1.005 2.016 2.326 3.666 2.935 3.666.61 0 1.108.565 1.108 1.255 0 3.61 19.204 38.984 22.478 41.406.5.37 1.635 2.323 2.52 4.34.887 2.016 2.116 3.666 2.733 3.666.616 0 1.937 3 2.936 6.667.998 3.666 2.263 6.666 2.81 6.666.547 0 2.53 3.353 4.405 7.45 1.876 4.098 4.92 9.244 6.764 11.436 1.845 2.192 3.354 4.73 3.354 5.641 0 .91 2.014 3.92 4.476 6.686 2.461 2.767 5.911 7.457 7.666 10.422 1.755 2.965 5.345 7.86 7.976 10.878 2.632 3.018 5.932 7.534 7.333 10.035 1.402 2.501 3.974 6.101 5.715 8 1.741 1.899 4.528 5.552 6.192 8.119 1.665 2.567 5.49 7.038 8.501 9.937 3.011 2.899 5.474 6.049 5.474 7 0 .951.504 1.73 1.12 1.73.615 0 1.817 1.531 2.67 3.404.853 1.872 3.2 3.99 5.214 4.706 2.235.795 5.188 3.867 7.576 7.881 4.278 7.191 6.767 8.878 9.614 6.514 1.436-1.191 2.438-1.014 4.424.784 2.013 1.821 4.384 2.221 10.975 1.85l8.407-.473 2.667 5.334c2.002 4.004 2.776 8.655 3.104 18.666.356 10.848 1.049 14.598 3.717 20.116 2.46 5.088 2.987 7.586 2.112 10-.641 1.77-1.286 6.218-1.432 9.884-.42 10.538-.927 11.332-7.257 11.348-3.068.013-7.723.37-10.345.804-3.256.538-5.379.178-6.694-1.138zm57.214-451.04c-.388-.387-10.24-1.007-21.895-1.377-11.655-.37-23.087-1.286-25.405-2.033-2.318-.747-9.218-2.196-15.333-3.219-6.116-1.023-14.12-2.527-17.786-3.343-3.666-.816-8.622-1.816-11.012-2.223-2.39-.407-4.676-1.274-5.079-1.926-.403-.652-1.897-1.186-3.32-1.186-1.423 0-5.438-1.457-8.921-3.237-3.484-1.78-9.635-4.867-13.668-6.862-4.033-1.994-10.21-5.656-13.727-8.138-3.517-2.482-6.925-4.184-7.575-3.783-.649.402-1.583.077-2.076-.718-.492-.797-2.03-1.87-3.42-2.383-3.436-1.271-42.535-38.892-42.535-40.928 0-.893-.837-2.32-1.86-3.169-1.024-.849-2.226-3.49-2.672-5.868-.447-2.378-2.934-7.546-5.527-11.484-6.031-9.157-13.941-36.368-13.941-47.958 0-7.87 3.217-16.49 7.154-19.167 2.668-1.814 10.536.455 13.164 3.797 1.398 1.777 3.33 3.231 4.293 3.231.964 0 2.68 1.95 3.816 4.334 1.135 2.383 3.303 5.658 4.818 7.277 1.515 1.62 2.755 3.827 2.755 4.905 0 1.078.77 2.753 1.711 3.722.942.97 3.288 4.462 5.215 7.762 1.926 3.3 5.206 7.57 7.288 9.49 4.72 4.352 15.753 10.765 16.77 9.748.417-.416 3.192.485 6.167 2.002 2.975 1.518 6.657 2.76 8.182 2.76 1.525 0 5.191 1.234 8.146 2.741 2.955 1.508 8.501 2.922 12.324 3.143 3.823.22 9.181 1.087 11.907 1.925 2.726.839 7.107 2.182 9.736 2.985 2.629.803 6.82 1.078 9.314.61 2.493-.468 6.984-.19 9.978.616 4.582 1.233 23.96 1.78 39.262 1.108 2.2-.096 13.44.199 24.98.656 11.539.458 22.377.3 24.084-.348 1.707-.65 12.366-1.564 23.687-2.032 11.32-.469 27.764-1.726 36.542-2.795 8.778-1.068 18.793-1.942 22.255-1.942 3.462 0 6.703-.66 7.202-1.468.502-.813 2.547-1.14 4.587-.731 2.025.405 4.102.315 4.616-.2.514-.514 2.235-.98 3.824-1.037 10.557-.374 26.336-2.335 26.963-3.35.413-.668 2.255-1.214 4.093-1.214s4.411-.572 5.717-1.271c1.55-.83 4.076-.75 7.264.23 4.064 1.246 5.168 1.15 6.538-.565 1.818-2.277 6.341-3.406 20.24-5.048 5.093-.602 9.893-1.9 10.667-2.887.79-1.007 4.23-1.867 7.845-1.964 3.541-.095 7.111-.844 7.934-1.666.822-.823 2.76-1.496 4.307-1.496 1.546 0 3.976-.88 5.4-1.957 1.423-1.077 5.478-1.977 9.01-2 3.53-.023 7.717-.737 9.301-1.585 1.585-.848 4.695-2 6.912-2.559 2.218-.559 7.332-2.178 11.365-3.598 13.674-4.813 24.655-8.339 27.876-8.951 1.765-.336 5.398-2.127 8.072-3.98 3.058-2.12 6.691-3.37 9.79-3.37 2.711 0 4.929-.588 4.929-1.308 0-.72 1.65-1.661 3.666-2.093 8.855-1.898 19-5.191 19-6.168 0-.585 4.227-3.192 9.394-5.794 5.166-2.602 9.71-5.555 10.096-6.563.387-1.008 2.01-2.165 3.607-2.571 1.597-.406 4.882-2.552 7.3-4.769 2.417-2.217 10.517-7.097 18-10.845 7.482-3.747 14.69-7.781 16.018-8.965 2.095-1.866 2.578-1.893 3.646-.204 1.502 2.374 1.699 4.171 1.33 12.166-.223 4.862.35 6.855 2.627 9.132 2.443 2.443 2.774 3.839 2.05 8.662-.515 3.435-.313 6.09.502 6.593 2.065 1.277 18.764 26.743 18.764 28.616 0 .9.9 2.535 2 3.635 2.658 2.658 2.78 18.169.16 20.343-1.011.84-2.197 3.163-2.635 5.163-.438 2-4.105 7.237-8.149 11.637-4.044 4.4-7.358 8.382-7.364 8.848 0 .466-2.112 1.845-4.679 3.063-2.567 1.217-4.667 2.742-4.667 3.387 0 1.524-7.717 5.369-10.776 5.369-1.301 0-3.16.792-4.128 1.76-.97.969-8.362 4.93-16.429 8.805-8.067 3.874-15.567 7.573-16.667 8.22-5.009 2.943-11.063 5.127-12.225 4.408-.702-.433-2.377.208-3.723 1.426-1.345 1.218-4.462 2.465-6.926 2.77-2.464.306-8.376 2.09-13.136 3.967-9.102 3.587-33.22 9.977-37.653 9.977-1.43 0-4.49.808-6.802 1.795-5.713 2.44-13.903 5.106-19.535 6.356-2.566.57-8.566 1.984-13.333 3.143-14.299 3.476-34.61 6.857-48.764 8.117-5.08.453-11.036 1.038-13.236 1.302-2.2.263-7.264.846-11.254 1.295-3.99.448-7.697 1.089-8.237 1.423-.54.334-5.076.922-10.08 1.307-20.488 1.576-51.516 5.83-52.429 7.19-.367.545-5.167 1.012-10.667 1.037-5.5.025-15.1.383-21.333.794-18.442 1.217-64.818 2.312-65.581 1.549zm-248.419-162.903c-9.324-1.619-20.667-5.278-24.643-7.95-2.553-1.717-5.429-3.12-6.39-3.12-3.983 0-14.417-11.935-18.848-21.56-8.584-18.644-9.7-23.689-7.866-35.571 1.17-7.578 2.11-9.62 6.448-14.021 6.379-6.471 13.697-7.695 25.196-4.213l7.716 2.336 10.284-4.88c6.723-3.19 11.232-4.58 13.02-4.013 1.504.478 4.313.122 6.242-.792a320.18 320.18 0 0 1 8.175-3.676c2.566-1.109 6.259-2.825 8.205-3.813 1.947-.989 5.361-1.798 7.588-1.798 2.227 0 4.42-.6 4.873-1.333.453-.733 2-1.333 3.437-1.333 1.437 0 6.952-1.578 12.255-3.507 5.303-1.928 11.442-3.637 13.642-3.796 4.149-.3 16.243-4.115 18.633-5.877 1.51-1.113 8.511-3.178 18.7-5.514 3.666-.841 8.166-2.191 10-3 1.833-.81 4.533-1.616 6-1.792 5.003-.602 15.997-3.487 17.333-4.548.733-.583 8.618-2.868 17.522-5.078 8.904-2.21 17.304-4.616 18.667-5.346 5.265-2.82 44.264-13.893 57.144-16.226 7.298-1.322 17.47-3.841 24.667-6.11 3.3-1.04 12.3-3.376 20-5.191 7.7-1.816 17.3-4.177 21.333-5.247 4.034-1.07 11.834-2.89 17.334-4.046 11.1-2.331 27.847-6.783 34-9.037 2.2-.807 6.1-1.55 8.666-1.652 2.567-.103 6.525-1.17 8.796-2.372 2.271-1.202 5.45-1.84 7.066-1.417 1.615.422 5.157-.146 7.871-1.262 2.714-1.117 8.534-2.638 12.934-3.381 4.4-.743 14.64-2.846 22.754-4.672 8.115-1.828 19.515-3.724 25.333-4.216 5.819-.491 12.08-1.435 13.913-2.096 1.833-.662 6.633-1.496 10.667-1.855 4.033-.358 10.033-1.27 13.333-2.025 5.859-1.341 25.997-3.794 39.333-4.791 3.667-.274 9.967-.878 14-1.342 23.936-2.753 86.553-3.973 95.33-1.857 2.935.707 8.337 1.518 12.004 1.802 3.667.283 6.667.622 6.667.752s1.8.43 4 .667c8.687.935 16.074 2.45 17.533 3.598.843.663 5.343 1.809 10 2.546 9.587 1.518 16.177 3.389 21.339 6.058 1.946 1.006 4.26 1.83 5.14 1.83.88 0 4.587 1.5 8.237 3.333 3.65 1.833 7.369 3.333 8.265 3.333 2.465 0 28.819 15.886 28.819 17.372 0 .712.75 1.295 1.667 1.296 2.843 0 22.182 19.967 24.992 25.801 1.466 3.042 4.475 8.426 6.688 11.964 7.416 11.853 9.7 21.148 8.904 36.234-.43 8.147-1.83 16.912-3.6 22.534-2.454 7.793-4.103 10.366-10.774 16.814-4.333 4.186-7.877 8.233-7.877 8.992 0 2.09-10.635 2.69-16.667.938-3.106-.902-5.959-2.78-6.832-4.498-.824-1.623-2.967-4.562-4.762-6.532-1.794-1.97-4.964-7.781-7.042-12.915-2.08-5.133-4.286-9.903-4.905-10.6-.62-.696-1.14-3.096-1.157-5.333-.017-2.237-1.27-8.567-2.783-14.067-1.728-6.277-2.735-13.873-2.704-20.401.037-8.04-.406-10.576-1.949-11.168-1.098-.421-3.72-2.49-5.828-4.598-2.108-2.108-4.666-3.833-5.684-3.833-1.018 0-3.014-1.05-4.436-2.333-1.421-1.283-5.884-3.438-9.918-4.788-4.033-1.35-9.133-3.214-11.333-4.143-6.094-2.573-24.367-8.463-37.538-12.1-15.43-4.261-41.978-5.952-84.462-5.381-48.213.648-64.44 1.302-66.618 2.683-1.073.68-7.373 1.75-14 2.375-39.66 3.744-74.26 10.534-90.917 17.844-2.31 1.014-5.254 1.843-6.54 1.843-1.287 0-4.304 1.498-6.704 3.329-2.4 1.83-5.245 2.99-6.324 2.575-1.078-.414-2.357-.112-2.841.672-1.202 1.945-6.461 1.797-8.623-.242-1.414-1.334-1.89-1.33-2.386.024-1.073 2.93-4.439 5.608-8.14 6.476-1.966.46-7.31 3.162-11.874 6.002-4.566 2.84-9.066 5.168-10 5.172-3.377.015-11.648 2.798-13.339 4.488-.95.951-4.334 2.146-7.518 2.655-5.512.881-13.414 4.157-14.843 6.152-.366.512-1.866 1.278-3.333 1.702-1.467.424-5.967 2.095-10 3.715-4.033 1.619-9.29 3.236-11.68 3.593-2.39.357-4.675 1.182-5.078 1.835-.403.652-2.424 1.186-4.491 1.186-2.067 0-4.51.905-5.428 2.012-.918 1.106-3.986 2.382-6.817 2.835-2.83.452-6.66 2.225-8.51 3.94-2.02 1.872-4.22 2.787-5.511 2.292-1.284-.493-2.645.063-3.383 1.381-.68 1.214-2.113 2.206-3.187 2.206-1.073 0-2.993.55-4.267 1.223-1.273.672-5.86 2.258-10.19 3.523-6.092 1.78-8.43 1.956-10.316.778-3.49-2.18-3.809-1.977-3.809 2.41 0 2.354-.937 4.465-2.333 5.257-2.187 1.239-2.166 1.454.333 3.428 1.867 1.474 4.067 1.854 7.334 1.266 5.562-1.002 14.43-2.371 33.333-5.146 7.7-1.13 15.685-2.64 17.745-3.355 2.06-.715 9.26-1.682 16-2.15 6.74-.467 15.401-1.727 19.247-2.8 3.846-1.073 8.133-1.59 9.526-1.147 1.394.442 3.347.033 4.341-.908 1.256-1.19 6.485-1.712 17.14-1.712 12.491 0 15.795-.416 17.82-2.242 1.89-1.704 3.278-1.941 5.78-.99 1.81.688 3.99.82 4.845.291 1.843-1.14 14.848-3.09 24.223-3.634 3.666-.213 11.166-1.079 16.666-1.925 28.662-4.41 35.957-5.474 42.667-6.23l11.333-1.276c2.2-.248 7.3-.798 11.334-1.22 4.033-.424 12.133-1.362 18-2.086 5.866-.723 16.666-1.967 24-2.765 7.333-.797 15.904-2.306 19.046-3.353 3.142-1.047 9.678-1.903 14.523-1.903 5.027 0 12.777-1.182 18.049-2.752 8.574-2.553 12.055-2.63 19.908-.437 1.206.337 3.006-.188 4-1.168 2.434-2.398 26.144-4.994 45.53-4.984 14.599.013 16.32.287 24.106 3.927 4.611 2.157 10.26 5.673 12.553 7.815 2.293 2.142 5.845 4.59 7.893 5.441 2.049.851 8.157 5.735 13.573 10.853 5.417 5.117 10.296 9.305 10.844 9.305 1.533 0 8.037 14.02 8.862 19.102.608 3.745.101 5.109-2.94 7.93-2.022 1.874-6.137 4.492-9.145 5.817-3.008 1.326-5.789 2.851-6.18 3.39-.39.539-5.19 1.635-10.666 2.436-5.476.8-11.156 1.997-12.623 2.659-2.784 1.257-7.508 1.817-32.218 3.824-8.186.664-15.386 1.51-16 1.877-1.158.694-14.575 1.66-43.115 3.102-9.167.464-17.25 1.19-17.963 1.614-.712.424-6.712.945-13.333 1.158-6.62.212-18.938 1.002-27.371 1.755-8.433.753-23.733 1.955-34 2.671-10.267.716-23.467 1.988-29.333 2.826-5.867.839-16.619 1.756-23.893 2.039-7.274.283-13.874 1.038-14.667 1.678-2.218 1.792-31.449 5.343-50.774 6.169-9.533.407-24.533 1.68-33.333 2.828-17.573 2.292-49.785 3.749-74.667 3.376-17.03-.256-37.668-2.636-38.805-4.475-.377-.61-1.71-1.11-2.964-1.11-1.253 0-4.486-1.5-7.184-3.333-2.698-1.833-5.786-3.333-6.863-3.333-2.04 0-7.54-4.16-11.319-8.561-1.209-1.409-3.45-3.809-4.98-5.334-4.008-3.995-9.885-14.542-9.885-17.741 0-2.841-5.21-10.213-5.289-7.483-.05 1.751-10.404 7.119-13.732 7.119-1.199 0-2.66.752-3.246 1.672-.586.92-4.666 2.828-9.066 4.24-4.4 1.413-8.947 3.36-10.105 4.328-1.158.968-3.699 1.76-5.647 1.76-1.948 0-6.467 1.8-10.042 4-3.576 2.2-7.102 4-7.837 4-2.466 0-20.917 8.062-21.83 9.539-.496.802-3.82 2.499-7.387 3.769-3.567 1.27-10.085 4.494-14.485 7.164-4.4 2.67-8.97 4.856-10.154 4.858-1.185 0-3.584 1.125-5.333 2.496-1.75 1.371-5.28 2.94-7.847 3.487-2.566.547-5.266 1.451-6 2.01-.733.558-4.933 1.45-9.333 1.98-4.4.532-8.9 1.4-10 1.932-1.1.53-3.2.757-4.667.502zm487.333-292.723c-7.624-1.059-37.578-2.396-52.666-2.351-2.934.013-8.334-.821-12-1.844-8.998-2.51-17.958-4.827-22-5.687-1.834-.39-5.211-1.548-7.506-2.574-2.296-1.025-7.396-2.546-11.334-3.379-3.938-.833-8.96-2.276-11.16-3.208-2.2-.932-7.15-3.03-11-4.664-3.85-1.633-7-3.359-7-3.835s-3.45-1.653-7.667-2.614c-4.217-.962-8.885-2.526-10.373-3.475-4.405-2.81-10.979 1.214-15.167 9.283-4.074 7.85-8.947 13.26-13.127 14.571-1.65.518-3 1.502-3 2.186 0 .684-1.283 1.243-2.853 1.243-1.569 0-3.519.88-4.333 1.955-1.285 1.696-2.647 1.558-10.328-1.05-8.533-2.898-15.819-8.83-15.819-12.88 0-1.906-15.881-18.691-17.685-18.691-.695 0-3.15-1.51-5.456-3.354a9217.438 9217.438 0 0 1-5.637-4.512c-.795-.637-3.495-1.593-6-2.125-2.505-.531-6.655-2.046-9.222-3.367-7.084-3.645-15.7-6.642-19.093-6.642-1.672 0-3.74-.7-4.594-1.554-3.216-3.216-23.603-3.644-63.646-1.335-21.447 1.236-39.509 3.349-42.048 4.918-.5.31-5.14.829-10.31 1.155-5.17.326-10.629 1.25-12.129 2.052-1.737.93-6.222 1.135-12.355.565-11.487-1.067-16.213-4.574-17.706-13.135-1.838-10.532-5.495-20.952-7.786-22.178-1.283-.687-2.333-2.06-2.333-3.052s-2.064-4.805-4.587-8.472c-2.523-3.668-5.551-8.977-6.73-11.798-1.179-2.822-3.242-6.338-4.584-7.815-1.342-1.477-3.189-5.985-4.103-10.018-.914-4.033-2.187-9.073-2.829-11.199-2.519-8.344-.265-26.966 4.338-35.834 1.437-2.768 2.235-5.643 1.774-6.39-1.011-1.635 10.788-13.323 18.127-17.956 2.893-1.827 5.26-3.848 5.26-4.491 0-.643 2.654-2.417 5.896-3.94 3.242-1.525 6.276-3.389 6.743-4.143.466-.755 3.963-2.905 7.771-4.78 12.202-6.006 14.031-7.246 18.648-12.64 2.493-2.911 4.999-5.294 5.57-5.294 1.978 0 18.04-17.182 18.04-19.299 0-1.17-.833-3.457-1.85-5.081-1.019-1.624-2.272-5.353-2.787-8.286-.514-2.934-1.446-5.953-2.07-6.709-1.82-2.204-7.956-24.523-8.003-29.107-.023-2.302-.923-5.35-2-6.773-1.076-1.423-1.957-5.075-1.957-8.116 0-3.04-.883-11.41-1.963-18.6-1.079-7.19-1.66-13.562-1.29-14.16.37-.599.963-9.664 1.318-20.145.355-10.482.987-21.157 1.405-23.724 2.886-17.705 7.718-41.267 10.666-52 1.913-6.966 3.989-17.208 4.612-22.758.624-5.55 1.833-11.85 2.689-14 1.367-3.436 2.843-9.387 5.929-23.908.467-2.2 1.209-4.9 1.648-6 .438-1.1.944-2.9 1.124-4 1.326-8.115 3.626-18.653 4.802-22 .773-2.2 1.89-7.3 2.482-11.334 1.035-7.038 3.567-18.116 6.4-28 3.856-13.448 6.098-46.894 6.391-95.333.165-27.133.639-59.233 1.054-71.333.416-12.1 1.057-33.1 1.426-46.667.37-13.567 1.072-27.667 1.563-31.333.49-3.667.755-7.664.588-8.882-.168-1.219.324-2.604 1.092-3.079.768-.475 1.41-4.878 1.425-9.785.015-4.906.868-15.821 1.894-24.254 1.026-8.434 2.296-18.934 2.821-23.334.526-4.4 1.536-9.127 2.245-10.505.71-1.378 1.801-11.578 2.427-22.667.625-11.088 1.401-21.961 1.726-24.161.324-2.2 1.235-10.6 2.024-18.667.79-8.066 2.047-18.266 2.794-22.666.747-4.4 1.389-14.3 1.425-22 .036-7.7.579-16.66 1.206-19.91 1.453-7.526.764-9.171-4.399-10.5-3.544-.91-4.258-1.786-4.628-5.667-.46-4.816-3.485-9.257-6.306-9.257-.914 0-2.33-1.916-3.147-4.257-3.165-9.08-31.66-31.743-39.91-31.743-1.416 0-8.288-1.484-15.271-3.299-26.31-6.835-71.19-9.638-112.262-7.01-19.328 1.236-59.736 5.667-75.334 8.26-6.233 1.036-17.033 2.596-24 3.467-6.966.872-18.366 2.703-25.333 4.07-6.967 1.368-14.281 2.493-16.255 2.5-1.973.007-3.958.612-4.412 1.346-.453.733-2.307 1.333-4.12 1.333-1.813 0-6.876 1.206-11.251 2.68-4.375 1.473-12.606 3.314-18.291 4.09-5.686.775-12.909 2.27-16.05 3.32-3.143 1.05-7.552 1.91-9.8 1.91-2.246 0-5.975.85-8.286 1.887-2.31 1.038-7.202 2.336-10.868 2.885-3.667.548-7.267 1.154-8 1.345-.734.192-8.834 1.963-18 3.937-61.105 13.156-71.448 15.139-83.269 15.96-4.364.304-9.464 1.12-11.333 1.816-1.87.695-8.198 1.944-14.065 2.776-5.867.831-13.667 2.094-17.333 2.806-9.664 1.875-43.147 5.243-52.943 5.325-4.615.038-12.69.84-17.947 1.781-5.256.942-10.408 1.235-11.45.652-2.75-1.539-11.425-2.823-18.244-2.7-4.924.089-6.94-.722-12-4.826-3.346-2.712-6.283-5.392-6.527-5.955-.245-.562-1.147-1.022-2.005-1.022-2.213 0-8.884-7.36-8.884-9.802 0-1.123-.6-2.412-1.334-2.865-.733-.453-1.333-2.555-1.333-4.67 0-4.63 4.169-7.986 9.963-8.021 2.22-.014 8.857-.878 14.747-1.92 5.891-1.042 14.591-2.016 19.334-2.163 4.742-.147 9.779-.861 11.192-1.587 1.413-.725 5.913-1.808 10-2.406 4.087-.598 11.93-2.064 17.43-3.258 5.5-1.193 13-2.672 16.667-3.286 3.667-.613 9.067-2.043 12-3.177 2.934-1.134 8.075-2.088 11.425-2.12 3.35-.032 9.05-.897 12.667-1.921 8.606-2.438 21.666-3.609 22.642-2.03.437.708 1.544.472 2.562-.546 1-1 10.54-3.096 21.582-4.742 10.884-1.623 24.59-3.82 30.456-4.883 14.926-2.705 36.518-5.787 60-8.563 5.133-.607 12.333-1.773 16-2.59 3.666-.819 12.366-2.035 19.333-2.703 6.967-.668 15.942-1.91 19.945-2.759s9.04-1.192 11.191-.761c2.152.43 4.663.16 5.58-.602.918-.761 4.882-1.713 8.81-2.115 3.927-.401 8.64-1.269 10.474-1.927 1.833-.658 9.333-1.442 16.667-1.741 7.333-.3 14.833-1.17 16.666-1.933 3.613-1.505 28.56-3.653 72-6.199a1682.95 1682.95 0 0 0 25.334-1.718c17.837-1.375 96.626-.835 112.882.773 8.85.875 15.324.89 18.667.042 2.814-.714 15.317-1.637 27.784-2.052 19.101-.635 23.479-.413 27.83 1.412 2.84 1.191 6.45 2.166 8.023 2.166 1.574 0 4.95 1.399 7.504 3.109 5.881 3.938 13.234 7.558 15.351 7.558.898 0 2.38.9 3.292 2 .913 1.1 3.461 2 5.663 2 5.054 0 19.67 6.47 19.67 8.707 0 .923 1.8 3.604 4 5.96 2.2 2.354 4 5.133 4 6.173s1.35 2.476 3 3.19c1.65.713 3.9 1.855 5 2.537 1.1.682 3.017 1.552 4.26 1.933 1.652.506 2.506 2.873 3.178 8.814.57 5.035 1.482 7.935 2.401 7.628 2.894-.964 4.225 10.644 3.866 33.724-.199 12.834-.369 26.634-.377 30.667-.015 7.45-1.452 17.504-4.802 33.597-1.022 4.91-1.859 11.56-1.859 14.777 0 3.217-.332 6.18-.738 6.586-.406.406-.978 5.156-1.27 10.556-1.321 24.366-5.354 58.119-7.92 66.276-1.252 3.982-4.616 24.661-4.138 25.444.256.42-.085 12.464-.759 26.764-.674 14.3-1.595 34.1-2.048 44-.942 20.62-1.078 63.76-.316 100.667.378 18.351.053 26.657-1.183 30.138-1.887 5.316-2.544 8.04-4.308 17.862-.658 3.666-1.835 9.966-2.615 14-1.44 7.443-3.28 19.777-5.467 36.666-1.618 12.493-4.622 28.412-6.29 33.334-.746 2.2-2.085 10.3-2.976 18-.89 7.7-2.449 17.386-3.463 21.525-1.013 4.14-1.842 10.516-1.842 14.17 0 3.655-.834 8.669-1.853 11.142-1.609 3.904-4.658 23.4-4.561 29.163.03 1.828-2.245 14.182-5.402 29.333-1.75 8.401-2.173 56.605-.567 64.667 2.007 10.072 9.44 30.134 12.503 33.742 3.125 3.682 7.88 12.27 7.88 14.232 0 1.002 2.1 4.572 4.666 7.935 2.567 3.362 4.667 6.888 4.667 7.835 0 .947.553 2.292 1.228 2.989.676.697 2.523 5.137 4.105 9.868 1.582 4.731 3.73 10.252 4.772 12.268 2.366 4.576 2.406 13.548.089 20.2-1.823 5.235-13.018 17.71-17.037 18.986-1.252.398-4.874 3.098-8.05 6-3.175 2.903-6.382 5.278-7.127 5.278-2.172 0-10.76 4.928-17.34 9.95-3.345 2.553-8.007 5.503-10.36 6.556-4.864 2.174-21.99 7.49-24.172 7.502-.793 0-3.227.94-5.41 2.077-2.181 1.138-5.13 1.764-6.552 1.393-3.335-.873-20.813 7.24-20.813 9.66 0 1.014 1.8 3.893 4 6.399 3.943 4.49 4.9 8.642 4.216 18.293-.308 4.348 1.747 7.482 4.947 7.548 1.193.024 3.516 1.167 5.162 2.54 2.243 1.872 2.818 3.445 2.297 6.29-1.397 7.624-.748 7.79 30.33 7.803 18.919.013 29.276.523 31.064 1.544 1.872 1.07 7.854 1.268 19.762.656 9.393-.483 17.828-.458 18.744.055.916.513 6.123 1.215 11.572 1.56 5.448.346 15.606 1.351 22.572 2.235 6.967.884 14.586 1.681 16.93 1.773 2.346.092 5.016.916 5.934 1.833.918.916 3.314 1.666 5.324 1.666s4.01.574 4.443 1.275c.433.702 1.672.936 2.753.521 2.707-1.038 17.325 2.876 33.283 8.912 7.333 2.774 17.152 6.15 21.82 7.501 5.96 1.726 10.035 3.952 13.687 7.477 4.932 4.759 15.748 8.8 20.93 7.818.973-.184 5.473.84 10 2.277 4.526 1.437 12.73 3.31 18.23 4.165 5.5.854 15.4 2.497 22 3.651 6.6 1.155 14.1 2.256 16.666 2.448 2.567.192 13.067 1.377 23.334 2.634 20.808 2.547 24.93 2.29 60.666-3.788 21.37-3.634 43.056-11.545 52.94-19.312 2.784-2.186 6.32-4.347 7.858-4.803 1.539-.455 3.476-2.315 4.305-4.135.829-1.819 2.27-3.313 3.202-3.32 2.747-.02 8.69-8.241 13.963-19.32 1.047-2.2 2.457-5.03 3.134-6.289.677-1.258 1.315-6.166 1.418-10.907.15-6.956-.36-9.315-2.65-12.225-1.56-1.983-2.838-4.275-2.84-5.093 0-1.482-23.783-24.426-36.9-35.603-14.578-12.421-18.92-15.886-19.99-15.95-.608-.036-3.506-3.009-6.44-6.605-2.933-3.596-6.67-6.874-8.305-7.285-4.537-1.14-41.255-36.67-45.314-43.847-2.256-3.988-2.102-8.798.31-9.724 1.113-.427 3.963-.013 6.333.92 10.226 4.026 18.55 8.351 19.168 9.961.367.955 2.573 2.488 4.904 3.407 2.33.919 5.518 2.813 7.082 4.208 1.565 1.396 6.532 4.282 11.039 6.413 4.507 2.131 10.24 5.436 12.742 7.344 2.501 1.908 8.634 5.561 13.627 8.118 4.994 2.558 10.28 5.733 11.747 7.056 3.179 2.868 22.674 16.1 23.72 16.1.401 0 3.227 2.4 6.28 5.334 3.054 2.933 6.081 5.333 6.73 5.333 1.39 0 20.059 19.212 21.808 22.443.662 1.223 3.512 4.52 6.333 7.326 2.821 2.807 5.13 5.726 5.13 6.488 0 .762 2.137 4.297 4.749 7.855 9.158 12.477 15.032 33.587 15.737 56.555.263 8.6-.186 11.19-3.242 18.666-.599 1.467-1.499 4.767-2 7.334-.5 2.566-2.035 6.259-3.41 8.206-1.376 1.946-2.501 3.913-2.501 4.37 0 2.9-9.904 20.027-14.185 24.53-2.832 2.978-6.048 6.52-7.148 7.871-3.204 3.934-12.871 11.023-15.032 11.023-1.09 0-5.458 2.7-9.708 6s-8.806 6-10.124 6c-3.006 0-14.47 5.492-14.47 6.932 0 .587-1.46 1.068-3.246 1.068s-4.801.59-6.7 1.313c-4.998 1.9-19.39 4.146-34.72 5.419-7.334.608-15.434 1.431-18 1.828-9.265 1.432-23.507 1.634-32 .454zm-76.446-216.647c-4.78-.716-15.899-12.37-17.073-17.893-.469-2.206-.056-7.03.917-10.719.973-3.689 1.912-10.993 2.087-16.231.174-5.239.861-10.246 1.526-11.127.666-.882.805-2.877.311-4.435-.899-2.832 2.335-24.756 4.867-32.996.738-2.403 1.19-6.903 1.005-10-.185-3.098.445-7.081 1.4-8.852 1.14-2.114 1.475-5.731.978-10.544-.531-5.148-.164-8.469 1.236-11.176 1.095-2.118 2.295-7.873 2.665-12.79.676-8.961 2.91-32.108 3.822-39.604.268-2.2 1.095-6.7 1.838-10 .743-3.3 1.725-16.451 2.182-29.225.458-12.773 1.388-24.264 2.069-25.535.78-1.457.716-3.802-.171-6.348-1.02-2.927-.98-4.835.146-6.94 1.556-2.908 3.387-41.535 3.158-66.62-1.166-127.212-.243-158.104 6.172-206.666.727-5.5 1.563-15.785 1.859-22.855.295-7.07 1.11-13.97 1.812-15.333.702-1.363 1.672-6.678 2.157-11.812 6.288-66.556 10.335-91.405 19.218-118 8.768-26.254 11.787-31.18 22.604-36.89 3.48-1.838 7.528-4.388 8.995-5.667 10.685-9.32 23.749-11.907 44.957-8.906 43.91 6.215 105.351 7.49 140.376 2.914 7.333-.958 15.433-1.731 18-1.717 4.814.025 28.309-3.518 38.353-5.784 3.127-.706 8.638-1.283 12.246-1.283 3.609 0 8.25-.658 10.314-1.462 4.164-1.623 22.135-5.042 30.42-5.789 4.906-.441 17.01-3.126 37.334-8.279 4.4-1.115 9.565-2.212 11.478-2.437 1.913-.224 8.813-1.742 15.333-3.371 6.52-1.63 13.55-2.935 15.619-2.9 2.07.036 7.362-1.085 11.761-2.49 4.4-1.405 13.206-3.528 19.57-4.718 6.365-1.19 12.66-2.743 13.99-3.451 1.594-.849 2.995-.81 4.105.11 1.209 1.004 3.15.653 6.863-1.24 2.848-1.452 6.803-2.64 8.788-2.64 1.986 0 7.11-.887 11.385-1.971 4.276-1.084 16.775-3.519 27.775-5.41s21.8-3.991 24-4.666c2.2-.676 8.2-2.154 13.333-3.286 17.025-3.753 30.619-7.469 34.441-9.413 2.076-1.056 4.647-1.92 5.713-1.92 1.066 0 4.467-2.373 7.559-5.272 3.091-2.9 9.924-8.888 15.185-13.308 7.645-6.423 23.02-21.297 31.769-30.73.733-.79 5.626-5.551 10.873-10.579 5.246-5.028 9.77-10.26 10.05-11.626.282-1.367 1.532-2.403 2.78-2.303 1.247.101 1.923-.375 1.5-1.058-.421-.683-.103-2.04.706-3.016 1.141-1.374 2.896-1.48 7.782-.468 3.47.72 6.878 1.844 7.575 2.5.697.656 2.254 1.193 3.46 1.193 2.465 0 7.041 4.454 5.826 5.67-.433.433.547 2.591 2.177 4.797 1.81 2.449 2.683 5.085 2.242 6.773-.398 1.52-.3 2.502.216 2.183.517-.32 1.739-.087 2.716.517 1.409.871.883 3.122-2.552 10.912-2.38 5.398-5.514 12.097-6.965 14.886-1.45 2.789-2.794 6.505-2.987 8.258-.192 1.753-2.236 4.774-4.541 6.714-2.306 1.94-4.192 4.662-4.192 6.048 0 3.51-4.024 13.614-6.103 15.324-.946.779-2.125 3.029-2.62 5-.494 1.972-1.426 3.585-2.07 3.585-.644 0-2.024 2.042-3.067 4.538-1.043 2.496-3.152 4.936-4.686 5.423-1.535.487-3.41 2.045-4.169 3.462-.758 1.417-2.108 2.58-2.998 2.582-.891.003-4.32 1.802-7.62 3.998s-8.1 4.676-10.667 5.513c-2.567.836-6.167 2.553-8 3.814-3.12 2.148-16.376 7.209-19.333 7.382-.734.043-2.59.771-4.127 1.62-2.92 1.61-5.723 2.297-17.873 4.38-13.237 2.267-18.593 3.568-20.31 4.93-.93.739-5.89 1.993-11.024 2.788-5.133.795-15.033 2.714-22 4.265-6.966 1.55-14.466 3.078-16.666 3.395-2.2.317-4.9.923-6 1.347-1.1.424-6.8 1.683-12.667 2.797s-13.367 2.602-16.667 3.308c-3.3.706-9.3 1.76-13.333 2.343-4.033.583-9.733 1.957-12.667 3.053-2.933 1.096-9.73 2.392-15.102 2.88-5.373.487-11.494 1.778-13.6 2.867-2.108 1.09-5.169 1.981-6.803 1.981-1.635 0-4.815.561-7.067 1.246-7.285 2.217-18.583 4.356-26.094 4.94-4.034.313-8.234.9-9.334 1.304-1.1.404-7.1 1.266-13.333 1.915-11.764 1.225-37.718 4.163-57.333 6.49-41.998 4.984-85.838 8.166-88.87 6.451-.621-.352-5.33-.183-10.464.374-5.133.558-9.93.648-10.658.2-.73-.447-8.83-.88-18-.963-9.42-.084-18.308-.833-20.428-1.72-2.065-.863-7.046-1.57-11.07-1.57-4.025 0-11.336-.86-16.247-1.913-34.268-7.34-37.386-7.686-48.158-5.337-5.558 1.211-11.457 2.726-13.108 3.366-4.143 1.604-7.722 7.974-9.836 17.503-.98 4.42-2.543 8.328-3.472 8.685-.929.356-1.693 2.234-1.697 4.172 0 1.938-.91 5.253-2.013 7.367-1.102 2.114-2.382 6.314-2.844 9.333-.462 3.02-1.656 7.11-2.654 9.091-.998 1.98-1.815 5.095-1.815 6.921 0 1.827-.609 3.698-1.353 4.158-1.904 1.177-5.313 9.723-5.313 13.32 0 1.654-.9 3.754-2 4.667-1.1.913-2 2.731-2 4.04 0 1.31-1.416 5.286-3.146 8.837-7.023 14.417-15.384 46.3-16.901 64.457-.583 6.966-1.727 18.366-2.542 25.333-.816 6.967-1.721 37.267-2.012 67.333-.29 30.067-.852 59.767-1.248 66-4.316 67.898-4.99 111.175-2.098 134.667.677 5.5 1.553 13.51 1.947 17.8.393 4.29 1.265 8.827 1.938 10.084.672 1.257 1.026 6.147.786 10.867-.24 4.72.112 9.618.783 10.885 1.825 3.442 3.51 66.306 1.85 68.992-.243.393-.812 7.227-1.265 15.188-.562 9.866-1.624 16.231-3.337 19.995-2.925 6.426-3.29 8.42-7.955 43.522-1.182 8.89-4.462 28.88-6.4 39-.387 2.017-1.188 3.667-1.781 3.667-.594 0-1.723 1.95-2.51 4.333-1.959 5.928-11.745 15.973-17.537 18-4.684 1.64-8.885 1.82-16.352.7zm429.244-294.687c-.18-.176-11.677-.68-25.55-1.12-13.874-.441-25.608-1.038-26.076-1.327-.468-.29-8.873-.575-18.678-.635-9.805-.06-25.927-.704-35.827-1.43-9.9-.726-33-2.171-51.333-3.213-18.334-1.04-37.834-2.215-43.334-2.609-11.231-.804-43.181-5.479-51.333-7.51-2.933-.732-9.533-1.618-14.667-1.969-8.003-.547-9.74-1.13-12.187-4.092-7.989-9.667-7.132-41.817 1.45-54.465 1.872-2.759 3.404-5.57 3.404-6.249 0-.678 1.5-4.512 3.333-8.52 1.834-4.008 3.334-8.195 3.334-9.304 0-1.881.848-3.219 4.958-7.813.893-.999 5.093-2.836 9.333-4.082 4.24-1.245 11.04-3.436 15.111-4.867 4.072-1.432 12.172-3.161 18-3.844a4694.73 4694.73 0 0 0 26.598-3.232c8.8-1.095 27.4-2.336 41.333-2.757 13.933-.422 27.918-1.08 31.078-1.465 6.287-.763 8.307-3.32 5.8-7.336-.85-1.36-1.544-3.483-1.544-4.719 0-1.235-1.575-6.182-3.5-10.993-3.305-8.263-3.46-9.67-2.793-25.438.388-9.18 1.34-18.491 2.117-20.691.777-2.2 2.256-7.6 3.287-12 1.032-4.4 2.103-8.9 2.382-10 1.117-4.411-115.02-.344-143.493 5.025-12.963 2.445-35.711 5.7-39.617 5.67-8.658-.068-22.384-7.624-22.384-12.323 0-1.566 12.337-8.985 14.99-9.014 1.276-.014 3.07-1.225 3.987-2.692.916-1.466 2.729-2.666 4.029-2.666 1.3 0 3.406-.564 4.68-1.253 8.613-4.662 28.482-13.256 30.518-13.2 1.355.036 5.763-1.26 9.796-2.88 4.034-1.62 10.034-3.533 13.334-4.252 3.3-.72 8.4-1.88 11.333-2.58 2.933-.699 6.533-1.45 8-1.67 1.467-.219 4.907-1.14 7.646-2.045 2.738-.906 6.217-1.254 7.73-.773 1.514.48 3.473.328 4.355-.339.881-.666 6.403-2.31 12.27-3.652 5.866-1.342 13.237-3.247 16.379-4.232 3.142-.985 7.164-1.791 8.937-1.791 1.774 0 4.603-.547 6.287-1.215 2.737-1.085 28.28-5.529 35.063-6.1 1.467-.123 4.767-.894 7.333-1.713 2.567-.819 8.867-1.845 14-2.28 5.133-.435 14.744-1.248 21.357-1.805 6.613-.557 12.67-1.413 13.462-1.902.79-.49 12.18-1.498 25.31-2.243 13.129-.744 34.071-2.239 46.538-3.32 12.467-1.083 25.667-2.021 29.333-2.085 8.268-.145 7.919-.134 46-1.542 17.234-.638 38.834-1.424 48-1.748 9.167-.324 21.167-1.191 26.667-1.926 5.5-.736 13.784-1.364 18.408-1.396 7.805-.054 8.69.25 12.334 4.239 2.158 2.363 3.925 5.333 3.925 6.6 0 1.267.813 2.783 1.807 3.37 1.763 1.04 7.028 14.709 6.457 16.765-.42 1.513 4.564 10.889 6.755 12.707 1.34 1.112 1.957 5.214 2.145 14.24l.265 12.68-4.67 4.67c-3.24 3.24-5.882 4.67-8.628 4.67-2.177 0-5.647.644-7.711 1.43-3.821 1.455-17.343 1.628-74.42.95-17.6-.208-42.5-.128-55.334.18-22.833.546-23.397.629-26.333 3.873-1.65 1.824-3 4.374-3 5.667 0 3.706-4.329 10.289-7.809 11.875-3.404 1.55-18.287 12.69-19.433 14.544-.38.615.464 3.51 1.876 6.434 1.711 3.54 2.653 8.606 2.821 15.18.283 11.04-3.253 30.031-6.198 33.285-1.058 1.17-1.924 2.684-1.924 3.367 0 .682-1.2 1.99-2.666 2.906-1.467.916-2.667 2.83-2.667 4.253s-2.1 4.19-4.667 6.147c-2.567 1.958-4.667 4.595-4.667 5.861 0 2.954-3.682 6.262-8.235 7.398-1.962.49-4.586 2.015-5.83 3.39-1.245 1.375-5.339 3.416-9.099 4.535-8.951 2.665-11.26 4.169-9.34 6.087 1.937 1.937 26.894.969 47.171-1.83 42.515-5.87 52.938-7.91 71.333-13.954 8.8-2.891 18.1-5.688 20.667-6.215 2.567-.526 5.886-1.727 7.376-2.667 1.49-.94 6.29-2.746 10.667-4.014 4.376-1.267 8.987-2.832 10.245-3.476 1.259-.644 5.552-1.555 9.542-2.024 8.033-.944 11.55 1.004 13.518 7.485.556 1.834 1.38 3.634 1.832 4 1.522 1.237 4.154 6.617 4.154 8.49 0 1.024 1.773 3.594 3.94 5.713s4.866 6.068 5.998 8.777c1.131 2.708 3.248 5.561 4.703 6.34 5.646 3.022 13.993 28.557 10.935 33.454-.867 1.388-1.576 3.712-1.576 5.166 0 4.675-16.4 19.32-25.334 22.621-2.566.95-7.448 3.16-10.847 4.916-3.4 1.754-8.2 3.19-10.67 3.19-2.469 0-10.488 1.493-17.82 3.318-7.33 1.824-15.43 3.33-17.996 3.347-2.567.016-11.567 1.255-20 2.753-10.16 1.805-17.72 2.44-22.404 1.882-4.263-.508-7.742-.286-8.76.56-1.411 1.17-36.213 1.624-37.372.487zm-1110.727-28.514c-1.564-.96-9.248-1.72-19.333-1.912-22.462-.427-51.466-2.837-54.65-4.54-1.418-.76-4.983-1.381-7.921-1.381-2.938 0-5.668-.527-6.067-1.172-.398-.645-3.47-.863-6.825-.484-3.356.378-7.415.053-9.021-.724-1.606-.777-8.133-1.76-14.504-2.184-6.37-.425-13.214-1.392-15.208-2.15-2.38-.905-13.05-1.044-31.083-.404-15.102.535-31.059.964-35.459.952-11.722-.032-34.256-3.27-37.296-5.36-1.447-.994-3.697-1.807-5-1.807-1.304 0-2.37-.877-2.37-1.949 0-1.163-2.276-2.561-5.645-3.469-13.19-3.551-22.113-9.843-27.223-19.195-3.917-7.17-1.074-29.348 5.136-40.054 1.276-2.2 3.184-5.8 4.24-8 1.057-2.2 5.765-7.9 10.463-12.667 9.802-9.946 12.286-12 14.51-12 .877 0 4.653-1.424 8.39-3.165 7.738-3.603 15.04-5.071 18.478-3.715 1.292.51 3.392 2.971 4.667 5.47 3.67 7.196 5.875 7.854 13.262 3.957 3.514-1.854 8.788-4.092 11.722-4.974 7.032-2.113 47.594-5.437 49.432-4.05.787.594 1.987.531 2.666-.14.68-.672 4.535-1.378 8.568-1.569 4.034-.19 8.08-.898 8.993-1.571.913-.673 2.841-.915 4.285-.538 1.443.378 3.326-.159 4.184-1.192 1.18-1.423 2.001-1.512 3.382-.366 1.362 1.13 2.295 1.121 3.688-.035 1.026-.851 5.744-1.804 10.485-2.118 4.742-.313 11.252-1.444 14.469-2.514 7.458-2.48 12.059-3.015 14.24-1.658.948.59 2.448.493 3.333-.216.884-.71 3.708-1.612 6.275-2.005 2.566-.394 8.866-1.358 14-2.142 5.133-.785 12.933-1.825 17.333-2.312 4.555-.503 9.37-1.946 11.18-3.35 1.868-1.447 5.36-2.464 8.465-2.464 5.523 0 14.355-3.409 14.355-5.54 0-.681-1.2-2.526-2.667-4.1-1.466-1.575-2.666-3.752-2.666-4.84 0-1.087-.842-2.924-1.87-4.082-7.617-8.573-8.108-39.418-.903-56.771 3.472-8.361 4.106-10.431 4.106-13.396 0-3.762-1.755-4.065-8.17-1.41-2.473 1.023-9.597 2.88-15.83 4.125-6.233 1.245-11.903 2.808-12.6 3.473-.697.664-3.847 1.208-7 1.208s-5.733.6-5.733 1.333-2.13 1.333-4.733 1.333c-2.603 0-6.653.996-9 2.212-2.362 1.225-8.193 2.38-13.059 2.59-4.836.207-12.936 1.366-18 2.576-17.394 4.153-39.23 2.304-51.875-4.394-2.2-1.165-6.233-3.267-8.963-4.672-2.729-1.404-5.812-4.149-6.852-6.099-4.869-9.138-7.118-13.135-9.12-16.213-2.405-3.693-4.384-27.565-2.484-29.954.604-.758 2.106-4.896 3.339-9.196 1.825-6.362 3.801-9.415 10.626-16.409 7.562-7.75 8.763-8.501 12.252-7.663 6.089 1.464 10.308 3.973 15.96 9.492l5.242 5.117 12.273-.453c10.733-.396 12.376-.776 13.09-3.028.724-2.279 1.657-2.476 8.127-1.715 6.54.768 12.386-.164 20.51-3.27 1.1-.42 3.8-.84 6-.931 8.976-.375 22.083-2.379 22.764-3.48.4-.647 2.641-1.186 4.981-1.199 6.508-.034 26.379-4.44 31.323-6.944 2.421-1.227 5.215-1.918 6.21-1.537 1.53.588 14.62-2.045 38.722-7.788 2.933-.7 6.933-1.247 8.889-1.219 1.955.03 4.273-.813 5.15-1.87.878-1.058 2.107-1.608 2.731-1.222 1.3.803 22.243-2.656 29.23-4.828 2.567-.798 7.067-1.695 10-1.994 2.933-.299 6.972-1.218 8.974-2.044 2.003-.825 5.016-1.155 6.696-.733 1.68.421 5.741-.165 9.026-1.304 6.507-2.256 13.262-3.695 30.637-6.527 6.234-1.016 16.134-2.763 22-3.882 5.867-1.12 16.23-2.633 23.03-3.362 6.798-.73 13.398-1.86 14.666-2.511 1.267-.652 3.062-.914 3.988-.582.927.332 9.027-.4 18-1.625 25.796-3.524 41.665-4.172 71.65-2.925 13.491.561 17.696 1.555 25.707 6.075 2.772 1.565 5.888 2.845 6.924 2.845 1.037 0 2.668 1.06 3.627 2.354.958 1.294 3.242 3.1 5.075 4.011 6.889 3.426 19.332 13.122 22.087 17.211 1.573 2.334 3.252 7.107 3.732 10.607.72 5.255.463 6.602-1.474 7.731-4.983 2.905-14.314 4.58-38.345 6.88-2.2.21-8.5 1.077-14 1.927-5.5.85-11.146 1.514-12.546 1.478-1.4-.036-3.558.476-4.794 1.138-2.024 1.083-19.744 3.819-29.993 4.63-2.2.175-6.7.97-10 1.768-5.063 1.224-11.963 2.34-30 4.855-6.874.959-13.574 2.367-16 3.363-1.467.603-6.867 1.704-12 2.447-5.134.744-13.834 2.337-19.334 3.541-5.5 1.204-13 2.762-16.666 3.462-3.667.7-7.867 1.533-9.334 1.851-1.466.319-6.266 1.186-10.666 1.927-4.4.741-10.4 2.088-13.334 2.993-2.933.904-5.801 1.53-6.374 1.388-.572-.14-3.999.711-7.614 1.894l-6.574 2.15 6.281 4.537c3.455 2.496 7.181 4.923 8.281 5.395 1.1.47 3.988 2.327 6.418 4.124 4.523 3.346 6.395 3.44 18.601.926 2.583-.532 6.04-.197 8.504.823 2.283.946 6.325 1.856 8.981 2.023 8.184.513 18.044 3.418 20.548 6.055 1.312 1.38 3.462 2.51 4.778 2.51 1.316 0 4.143 1.832 6.282 4.07 2.138 2.237 5.989 5.45 8.555 7.139 5.35 3.52 9.794 13.753 9.093 20.934-.358 3.672-1.12 4.55-4.76 5.486-2.383.613-4.333 1.698-4.333 2.41 0 2.078-4.995 6.495-10.718 9.478-6.516 3.396-6.675 3.652-8.058 12.95-1.794 12.065-2.789 16.2-3.897 16.2-.57 0-1.42 1.526-1.889 3.39-.468 1.866-1.883 3.772-3.144 4.238-3.22 1.188-8.243 6.053-8.27 8.008-.014.9-1.524 2.62-3.357 3.82-5.413 3.547-4.286 7.434 4.176 14.4 4.13 3.4 8.93 6.539 10.666 6.974 1.737.436 3.158 1.308 3.158 1.939 0 .63 3.408 3.715 7.575 6.855 11.818 8.908 28.32 26.59 32.58 34.907 7.788 15.21 3.589 30.152-10.78 38.359-3.69 2.107-6.709 4.419-6.709 5.137 0 .719-1.05 1.31-2.333 1.316-1.283.01-4.133 1.2-6.333 2.657s-5.352 2.654-7.005 2.658c-1.653.01-5.244 1.21-7.98 2.676-2.737 1.466-6.643 2.666-8.68 2.666-2.038 0-4.747.539-6.02 1.197-7.893 4.079-25.214 8.93-38.315 10.73-4.4.605-9.69 1.769-11.754 2.587-2.064.817-5.628 1.486-7.92 1.486-4.185 0-16.298 1.952-24.993 4.026-16.75 3.997-91.487 6.943-96.596 3.808zm89.447-88.445c1.621-1.136 4.354-1.66 6.566-1.258 4.746.86 21.916-1.947 21.916-3.584 0-.667 1.772-1.213 3.938-1.213 2.165 0 5.315-.56 7-1.243 1.684-.683 6.662-2.282 11.062-3.552 7.946-2.293 11.334-4.022 11.334-5.783 0-2.556-5.835-6.755-9.386-6.755-2.523 0-3.948-.684-3.948-1.895 0-1.08-2.262.344-5.252 3.304-3.694 3.657-6.859 5.457-10.667 6.066-2.977.476-5.414 1.4-5.414 2.054 0 .654-1.419.832-3.153.397-2.169-.544-3.403-.137-3.958 1.308-.443 1.155-2 2.1-3.462 2.1-1.46 0-3.867 1.3-5.348 2.888-1.727 1.854-4.253 2.873-7.052 2.844-4.154-.043-9.027 2.732-9.027 5.14 0 1.665 1.72 1.375 4.85-.818z" style="fill:#000;stroke-width:1.33333"/>
</svg>
