<svg xmlns="http://www.w3.org/2000/svg" xml:space="preserve" width="467.006" height="229.84" viewBox="0 0 123.562 60.812">
  <path d="M116.245 226.652c-.062-.061-1.1-.169-2.309-.238-4.392-.254-8.38-.864-8.143-1.247.065-.106-.311-.14-.837-.074-.746.093-.859.07-.514-.11.36-.185.29-.21-.374-.13-.498.06-.864-.002-.94-.161-.092-.195-.156-.191-.252.016-.154.328-1.775.374-1.972.055-.075-.121-.678-.22-1.34-.22s-1.203-.09-1.203-.199c0-.108-.224-.194-.498-.19-.837.013-2.652-.289-3.064-.51a2.041 2.041 0 0 0-.81-.208c-.23 0-1.057-.184-1.838-.41a97.19 97.19 0 0 0-3.52-.913c-1.978-.473-3.542-.933-8.292-2.44-1.095-.347-2.588-.7-3.317-.784-.73-.084-1.576-.275-1.88-.425-.304-.15-1.084-.333-1.733-.406-1.066-.12-3.299-1.236-3.024-1.511.052-.052-.092-.108-.32-.125-.422-.032-2.27-1.142-2.404-1.444-.041-.091-.24-.166-.443-.167-.202-.001-.617-.367-.921-.813-.304-.447-.692-.951-.861-1.12-.36-.362-1.35-1.794-1.35-1.955 0-.061-.498-.848-1.106-1.75-.608-.9-1.106-1.792-1.106-1.98 0-.188-.1-.341-.22-.341-.122 0-.222-.133-.222-.295 0-.161-.248-.783-.552-1.382-.303-.598-.552-1.214-.553-1.37 0-.27-1.067-2.418-2-4.03-.658-1.135-.512-2.787.29-3.274.888-.539 1.668-.158 2.473 1.209.39.66 1.04 1.366 1.556 1.688 1.228.766 5.806 3.112 6.747 3.458a23.69 23.69 0 0 1 1.437.59c2.167.997 8.397 3.258 13.157 4.775 1.156.368 2.2.744 2.322.836.276.209 4.186 1.47 5.086 1.639.365.069.903.193 1.196.276.523.148.53.133.385-.934-.13-.953-.368-1.834-1.255-4.64a5.457 5.457 0 0 1-.215-1.367 4.37 4.37 0 0 0-.24-1.311c-.132-.343-.249-1.692-.26-3-.011-1.322-.113-2.377-.228-2.377s-.141-.224-.059-.497c.082-.274.183-1.244.224-2.156.067-1.52.604-4.011 1.284-5.965.41-1.18 1.993-4.183 2.84-5.388.413-.588.9-1.288 1.082-1.556.183-.268.904-1.191 1.604-2.051.699-.86 1.271-1.636 1.271-1.724 0-.232-8.986-.004-11.72.298-1.277.14-3.615.5-5.196.8-1.581.298-3.359.58-3.95.628-.592.048-1.14.181-1.217.297-.077.116-.887.383-1.799.594-.912.21-1.957.52-2.322.686-.365.167-1.41.518-2.322.78-.912.263-2.179.72-2.815 1.016-.636.295-1.481.6-1.88.678-.397.077-.772.2-.833.272-.187.221-2.444 1.247-4.422 2.01a394.2 394.2 0 0 0-2.916 1.136c-.57.227-1.345.412-1.722.412s-.933.163-1.236.361c-.652.427-2.385.28-2.973-.251-.2-.182-.445-.33-.544-.33-.521 0-1.493-1.576-2.206-3.578-.525-1.472-.454-5.215.155-8.155.165-.798.23-1.711.144-2.03-.11-.416-.062-.617.172-.707.47-.18.463-.186.617.516.144.657.592.9 1.663.901.304 0 1.793-.496 3.308-1.103 1.516-.606 2.928-1.103 3.138-1.103.211 0 .436-.086.501-.19.065-.105.593-.313 1.174-.463 1.723-.442 5.189-1.569 6.175-2.007.504-.224 1.55-.517 2.322-.65.772-.132 1.753-.376 2.178-.54.924-.357 3.26-.829 4.644-.938a17.481 17.481 0 0 0 1.99-.298c.548-.122 1.89-.319 2.986-.439 1.986-.218 13.158-.685 17.137-.717 4.048-.032 12.904.727 13.75 1.179.206.109.602.198.88.198.514 0 7.861 1.743 9.694 2.3.548.166 1.394.411 1.88.545 2.364.65 3.148.9 3.76 1.204.996.495 3.066 1.433 6.965 3.154.79.35 1.47.713 1.51.807.041.095.204.172.361.172.158 0 .865.348 1.572.774.707.426 1.37.774 1.475.774.104 0 .789.398 1.521.885.732.486 1.426.884 1.542.884.115 0 .604.249 1.085.553.482.304.99.553 1.128.553.368 0 5.146 2.318 6.708 3.254 1.105.663 3.651 2.486 4.68 3.35 1.594 1.342 6.337 4.239 8.16 4.985 1.926.788 2.767 1.316 3.995 2.508.157.152.37.276.473.276.343 0 1.562 1.25 1.95 2 .417.807.586 1.314 1.21 3.64.682 2.533.772 3.745.359 4.826-.325.85-.482.988-1.493 1.312l-1.13.36-2.13-1.11c-1.17-.612-2.65-1.506-3.289-1.986-.638-.48-1.33-.939-1.538-1.018-.208-.08-.6-.339-.872-.575-.548-.477-1.235-.894-2.068-1.258l-1.161-.506c-.335-.146-.608-.34-.608-.432 0-.092-.134-.167-.297-.167-.423 0-3.377-2.112-3.537-2.528-.073-.19-.27-.346-.437-.346-.168 0-.473-.186-.679-.414-.205-.227-1.042-.744-1.858-1.148-.817-.404-1.66-.881-1.873-1.06a6.645 6.645 0 0 0-.813-.565c-3.248-1.842-5.244-3.095-5.543-3.479-.189-.242-3.673-2.311-4.399-2.612-.378-.157-.687-.372-.687-.479 0-.107-.138-.194-.306-.194-.169 0-1.09-.39-2.046-.868a54.201 54.201 0 0 0-3.508-1.567 89.906 89.906 0 0 1-2.654-1.095c-2.663-1.187-6.937-2.381-11.15-3.116-1.408-.245-2.734-.5-2.947-.564-.556-.169-.488.372.16 1.262.301.413.824 1.228 1.161 1.812.338.583 1.44 2.225 2.448 3.648 1.009 1.424 1.89 2.812 1.959 3.086.069.274.19.498.268.498.172 0 .393.496 1.581 3.538.5 1.277 1.24 3.167 1.649 4.201 1.479 3.75 2.17 6.546 2.25 9.104.07 2.273.048 2.408-.604 3.65-.373.708-.808 1.437-.967 1.62-.159.182-.358.56-.443.839-.15.49-.118.504.913.398 4.806-.493 6.046-.628 8.477-.92 2.939-.352 5.032-.767 7.186-1.424.73-.223 1.683-.464 2.118-.536 1.328-.222 1.61-.564 1.562-1.903-.025-.696.063-1.24.215-1.334.19-.118.194-.338.014-.852-.241-.693-.15-1.345.187-1.345.098 0 .537.349.975.774.439.426.888.774 1 .774.11 0 .26.183.33.407.072.223.402.72.734 1.103.333.384.854 1.053 1.158 1.487a53.11 53.11 0 0 0 1.273 1.716c.396.51.795 1.026.886 1.147.565.753 1.87 4.022 2.078 5.204.422 2.395-.434 4.707-2.314 6.247-1.986 1.627-2.074 1.653-7.058 2.026-2.52.19-5.456.346-6.523.348a48.14 48.14 0 0 0-3.932.205c-3.114.315-17.18.78-17.386.574zm-7.049-13.354c0-.173-2.407-2.687-2.573-2.687-.12 0-1.222 2.249-1.14 2.33.127.128 2.236.494 2.994.52.396.013.72-.06.72-.163z" style="fill:red;stroke-width:.22113" transform="translate(-48.6 -165.891)"/>
</svg>
