<svg xmlns="http://www.w3.org/2000/svg" xml:space="preserve" width="516.746" height="235.972" viewBox="0 0 136.722 62.434">
  <path d="M106.488 134.946c-.81-.068-1.657-.089-1.883-.047-.226.042-.97-.03-1.653-.16-1.116-.21-1.359-.21-2.379.005-1.175.247-1.709.239-5.399-.087-2.067-.182-6.005-.88-6.299-1.117-.098-.078-.702-.145-1.343-.149-1.036-.005-1.298-.072-2.344-.598-.648-.325-1.274-.67-1.391-.768-.117-.097-.819-.245-1.56-.33-1.19-.135-2.928-.686-3.418-1.082-.277-.226-1.524-.598-2.138-.64-.325-.021-.626-.094-.668-.162-.041-.067-.178-.122-.303-.122s-.917-.375-1.76-.833c-.842-.458-1.763-.913-2.046-1.012-1.173-.408-3.446-1.965-4.721-3.23-.717-.713-1.53-1.391-1.806-1.507-.277-.116-.484-.254-.46-.307.022-.052-.605-.524-1.396-1.048-.79-.524-1.75-1.21-2.134-1.522-.383-.314-.859-.655-1.056-.759-.197-.103-1.104-.96-2.015-1.901-.91-.943-2.127-2.199-2.702-2.791-.575-.593-1.046-1.14-1.046-1.215 0-.076-.916-1.165-2.036-2.42s-2.277-2.618-2.572-3.028c-.295-.41-.599-.745-.676-.745-.078 0-.14-.105-.14-.233s-.107-.354-.236-.504c-.812-.936-1.16-1.425-1.16-1.63 0-.13-.107-.276-.239-.327-.131-.05-.323-.285-.426-.52-.272-.625-1.324-2.161-1.815-2.652-.232-.233-.466-.561-.52-.73-.053-.168-.424-.653-.823-1.078-.888-.945-1.81-2.304-2.531-3.73-.298-.59-.617-1.122-.709-1.181-.091-.06-.264-.409-.383-.775-.119-.367-.311-.765-.427-.884-.224-.231-.196-.978.1-2.702.158-.917.248-1.04 1.225-1.665.277-.178.504-.387.504-.465 0-.079.092-.143.205-.143.113 0 .63-.366 1.15-.813.518-.448 1.28-.988 1.692-1.202.413-.213.785-.429.828-.48.042-.05.286-.143.542-.206.256-.062.592-.25.748-.417.156-.167.489-.345.74-.395.25-.05.493-.152.54-.226.045-.075.235-.136.422-.136s.824-.244 1.416-.542c.592-.298 1.186-.542 1.321-.542.136 0 .397-.106.581-.235.185-.13.702-.304 1.15-.39.449-.084.854-.215.9-.29.048-.075.443-.242.879-.371.435-.13.923-.31 1.084-.4.586-.332 1.503-.64 1.908-.64.229 0 .482-.06.563-.134.08-.074.6-.279 1.154-.454a51.07 51.07 0 0 0 2.403-.814c1.005-.376 1.35-.476 2.389-.69.632-.132 1.373-.376 1.646-.545.273-.169.618-.307.767-.307.149 0 .594-.101.989-.226a17.954 17.954 0 0 1 1.648-.403c.512-.098 1.07-.232 1.24-.298 1.058-.408 3.75-.979 4.495-.953.255.008.848-.117 1.317-.278.469-.162 1.03-.26 1.248-.218.217.042 1.159-.08 2.092-.269.933-.19 1.906-.361 2.162-.382.256-.02.57-.08.697-.13.25-.1 3.773-.64 5.812-.89.682-.084 1.415-.216 1.628-.293.213-.078.88-.173 1.483-.21a32.59 32.59 0 0 0 2.248-.24c3.045-.452 5.348-.624 6.343-.475.554.083 1.844.146 2.867.14 3.134-.02 9.506.175 11.47.351 1.022.092 2.522.216 3.331.277.81.06 2.03.23 2.713.378.682.148 1.398.272 1.591.276.194.004.39.068.436.143.046.074.315.135.597.135.804 0 1.489.176 1.379.353-.058.093-.023.113.082.048.216-.133 1.758.42 2.357.846.234.167.643.303.91.303s.66.115.874.255c.213.14.647.31.963.378.84.18 2.955.888 3.692 1.236.35.166.71.301.802.301.27 0 4.601 1.879 6.114 2.652.148.076.375.138.504.138s.234.055.234.122c0 .068.384.291.853.498.469.206.852.43.852.497 0 .068.101.123.225.123s.535.209.914.465c.379.255.756.465.839.465.082 0 .413.209.735.465.321.255.648.465.725.465.077 0 .224.07.327.157.61.513 1.665 1.238 1.8 1.238.087 0 .234.139.325.31.091.17.269.31.394.31.126 0 .448.209.715.464.268.256.57.465.674.465.102 0 .375.175.604.388.23.213.498.387.594.387.097 0 .324.14.505.31.181.17.512.324.735.342.223.019.376.083.34.142-.038.06.368.364.901.676.534.312 1.352.835 1.82 1.163.467.328.903.563.968.522.066-.04.12 0 .12.089 0 .09.296.348.658.574.362.227.714.507.782.622a.46.46 0 0 0 .348.21c.123 0 .31.14.417.31.106.17.305.31.442.31s.375.14.53.31c.154.17.374.31.488.31.115 0 .209.068.209.15 0 .084.192.251.426.373.234.121.679.454.987.74.309.286.826.694 1.15.907.323.213.922.71 1.33 1.104.41.395.851.759.983.81.131.05.238.172.238.272 0 .205.443.64 1.783 1.755.511.425.953.828.981.896.029.067.149.122.267.122.118 0 .18.09.138.199-.042.11.17.437.47.728.3.29.547.463.548.382.001-.08.089 0 .194.177.51.862 1.457 2.205 1.847 2.621.24.256.436.512.436.569 0 .057.315.472.7.922.383.45.84 1.112 1.014 1.472.175.36.407.729.517.82.11.091.292.553.406 1.027.114.474.264.898.335.941.07.044.129.21.129.37 0 .159.109.398.242.532.133.133.198.313.145.4-.054.087.01.374.141.638.176.353.197.559.08.779a.936.936 0 0 0-.047.642c.131.392.088 1.098-.097 1.585-.07.183-.638.64-1.263 1.018-.625.376-1.259.806-1.409.956-.15.149-.377.27-.505.27s-.232.065-.232.143c0 .079-.227.192-.504.25a4.62 4.62 0 0 0-.891.3c-1.512.745-2.319 1.013-4.613 1.53a.955.955 0 0 0-.38.228c-.1.102-.403.185-.67.185-.269 0-.893.139-1.389.31-.496.17-1.036.31-1.201.31-.166 0-.52.155-.788.346-.267.19-.61.326-.76.3-.152-.025-.385.063-.518.196s-.433.242-.665.242c-.233 0-.49.058-.57.128-.081.07-.444.222-.806.335-.363.114-.659.266-.659.337 0 .072-.096.13-.213.13-.118 0-.297.1-.399.223-.101.122-.406.27-.677.33-.446.095-1.304.586-1.5.856-.043.059-.375.195-.737.304-.362.108-.659.255-.659.327 0 .071-.117.13-.26.13-.483 0-1.362.38-2.415 1.044-.576.364-1.088.661-1.138.661-.05 0-.263.136-.474.302-.211.166-.694.349-1.072.405-.38.057-.723.16-.765.227-.042.068-.37.173-.727.234a5.02 5.02 0 0 0-1.2.388c-.303.153-.969.357-1.48.454-.512.097-1.267.242-1.678.323a9.062 9.062 0 0 1-1.444.147c-.383 0-.835.074-1.005.165-.17.091-.807.197-1.415.235-.609.038-1.25.16-1.425.27-.453.285-1.562.592-2.642.732-1.113.144-2.14.396-2.784.685-.52.234-1.945.709-3.028 1.01-.384.106-.872.252-1.085.323-.56.186-3.489.764-3.874.764-.18 0-.524.103-.766.228s-1.023.274-1.736.331c-.713.057-1.49.202-1.726.32-.828.419-10.38.773-13.597.504zm-11.365-16.314c.056-.056-.012-.226-.15-.379-.222-.244-.421-.658-1.065-2.204a63 63 0 0 0-.365-.852c-.55-1.257-.873-2.722-.941-4.262-.04-.895-.14-2.094-.222-2.665-.186-1.281-.2-7.1-.018-7.1.073 0 .18-.63.239-1.4.058-.77.168-1.565.244-1.766.077-.2.175-.75.218-1.22.044-.47.248-1.366.455-1.992.206-.626.414-1.392.46-1.703.075-.49.6-1.815 1.051-2.65.08-.147.145-.409.145-.58 0-.172.062-.312.138-.312.075 0 .184-.315.242-.7.107-.711.44-1.513 1.093-2.633.2-.34.368-.78.375-.977.012-.355 0-.357-1.421-.27-2.649.163-6.177.582-7.246.862-.568.149-3.637.545-5.89.76-.724.07-1.812.302-2.416.516-.605.215-1.477.44-1.938.5-.46.06-1.372.242-2.026.405-.653.163-1.38.297-1.616.297-.48 0-1.331.244-1.935.555-.22.113-.882.253-1.472.31-1.105.108-1.87.35-2.545.808-.379.256-2.18.825-3.556 1.124-.38.082-.728.21-.775.286-.084.132-3.259 1.11-4.342 1.338-.597.125-1.122.397-2.719 1.405-.597.377-1.399.834-1.782 1.015a6.77 6.77 0 0 0-1.327.89 25.957 25.957 0 0 1-2.12 1.723c-.4.298-.73.667-.733.82-.006.335.377.94 1.003 1.585.255.264.72.772 1.034 1.13.314.357.645.65.737.65.091 0 .166.061.166.136 0 .165 4.014 4.203 4.177 4.203.123 0 .482.296 1.48 1.216.34.315.934.706 1.317.869.384.163.876.458 1.094.656.217.197.488.359.601.359.225 0 1.205.566 1.532.885.113.11.374.242.581.294.207.052.377.152.377.222s.157.176.349.235c.191.06.624.308.96.553.337.245.697.446.801.446.104 0 .387.104.628.232.242.127.683.335.982.461a7.3 7.3 0 0 1 .775.377c.867.546 1.498.852 1.832.887.213.023.438.125.501.227.074.12.34.155.749.1.473-.063.725-.013.994.199.318.25 2.127.798 3.44 1.042.256.047.535.174.62.28.147.184 2.563.844 3.089.844.134 0 .244.062.244.138 0 .075.33.184.736.24.405.057 1.05.199 1.433.316.384.116 1.047.257 1.473.312.426.056 1.368.23 2.092.388 3.231.704 7.716 1.017 8.163.569zm29.266-.277c2.457-.315 5.055-.834 8.447-1.687.299-.075 1.205-.297 2.015-.494.81-.196 1.496-.41 1.524-.473.028-.064.213-.117.41-.117.196 0 1.044-.146 1.885-.325 3.013-.643 3.308-.698 4.473-.835.34-.04.794-.115 1.007-.167a9.723 9.723 0 0 1 1.085-.158c.384-.035.872-.129 1.085-.209.213-.08.98-.267 1.705-.415.724-.148 1.352-.314 1.395-.368.042-.054.496-.243 1.007-.42 1.664-.577 2.31-.837 3.22-1.298.494-.25 1.03-.454 1.193-.454.163 0 .338-.068.39-.151.05-.083.365-.224.699-.314.333-.09.717-.274.853-.41.135-.135.506-.305.823-.376.983-.22 2.354-.896 2.354-1.159 0-.265-.728-1.294-1.694-2.395a41.054 41.054 0 0 1-2.088-2.577c-.247-.335-.768-.85-1.157-1.147-.39-.296-.823-.643-.964-.77a28.527 28.527 0 0 0-.934-.775 16.196 16.196 0 0 1-1.066-.932 21.801 21.801 0 0 0-1.241-1.085c-.47-.382-.88-.76-.914-.84-.106-.252-1.618-1.642-2.264-2.082a13.771 13.771 0 0 0-1.394-.803c-.427-.21-.81-.421-.853-.47-.042-.05-.496-.284-1.007-.52a52.52 52.52 0 0 1-2.868-1.402c-1.848-.962-2.564-1.365-2.908-1.635-.213-.168-.584-.305-.824-.305s-.493-.088-.56-.196c-.12-.187-.769-.533-1.597-.85-.875-.336-2.267-1.064-2.665-1.395-.453-.376-3.052-1.171-4.642-1.42-.908-.143-1.771-.36-1.92-.483-.381-.317-2.188-.495-5.42-.535-1.534-.02-3.068-.11-3.409-.2-.341-.09-1.294-.212-2.118-.269-1.362-.094-1.513-.078-1.652.183-.124.23-.049.402.376.866.292.318.571.579.62.579.209 0 1.95 2.436 2.192 3.066.049.127.313.564.587.971.28.416.545 1.052.605 1.451.058.391.172.711.252.711.08 0 .145.082.145.182 0 .1.105.297.234.44.128.141.275.565.327.941.051.377.152.757.223.846.18.222.452 1.47.625 2.86.159 1.282.342 2.422.598 3.72.414 2.1.514 2.887.711 5.602.157 2.157.17 3.434.055 5.037l-.241 3.388c-.048.682-.15 1.318-.228 1.415-.085.105-.077.342.02.599.16.42.173.423 1.205.321a94.23 94.23 0 0 0 2.283-.262z" style="fill:#fff;stroke-width:.154987" transform="translate(-39.727 -72.605)"/>
</svg>
